# This file uses feet as units for non-parametric coordinates.

g default
v -42.010773 -0.037693 30.646685
v -47.187622 0.000008 30.647484
v -47.187622 0.000008 -36.589119
v -42.010773 -0.037193 -36.589119
v -48.047638 80.692505 -36.589119
v -47.189240 37.793816 32.021584
v -47.177734 0.880903 31.382685
v -42.001129 0.848005 31.419184
v 83.588013 55.307747 31.897383
v 83.588013 0.861206 31.087084
v -48.047638 0.861404 -36.589119
v -48.047638 37.007511 -36.589123
v -42.010773 0.825405 -37.449120
v -47.187622 0.857407 -37.449120
v -47.191223 37.789616 -37.449123
v -42.477600 79.841904 32.783287
v -47.184753 71.498215 32.605087
v 82.728088 0.001705 -36.589119
v 30.686890 57.843601 -36.589115
v 30.686890 0.820007 -36.589119
v -41.150696 0.819607 30.552385
v 82.728088 0.862705 -37.449120
v 82.728088 88.583206 -36.589119
v 79.233582 88.583206 -36.589119
v 78.373596 81.551605 32.552383
v 78.373596 87.722198 32.710484
v -42.007538 58.730709 32.421185
v -47.185211 46.115715 32.165688
v -48.047638 46.975307 -36.589115
v -42.009399 58.656605 -37.449116
v -47.187622 46.110508 -37.449123
v -41.150696 57.842415 31.944984
v -48.045105 45.261314 32.144783
v -48.045593 38.732307 32.031685
v -48.047638 38.728207 -37.449116
v -48.047638 45.255810 -37.449116
v -48.047638 72.391296 -37.449120
v -57.246094 72.390503 -36.719719
v -57.246094 79.837601 -36.719719
v -48.047638 79.832397 -37.449120
v -65.817810 72.390503 -33.169319
v -65.817810 79.837601 -33.169319
v -73.178650 72.390503 -27.521210
v -73.178650 79.837601 -27.521210
v -78.826599 72.390503 -20.160515
v -78.826599 79.837601 -20.160515
v -82.377136 72.390503 -11.588814
v -82.377136 79.837601 -11.588814
v -83.588013 72.390503 -2.390411
v -83.588013 79.837601 -2.390411
v -82.377136 72.390503 6.808182
v -82.377136 79.837601 6.808182
v -78.826599 72.390503 15.379883
v -78.826599 79.837601 15.379883
v -73.178650 72.390503 22.740585
v -73.178650 79.837601 22.740585
v -65.817810 72.390503 28.388485
v -65.817810 79.837601 28.388485
v -57.250427 72.380005 32.548283
v -57.251404 79.824799 32.677185
v -48.043610 72.399918 32.614586
v -48.043152 79.842499 32.743385
v -57.246094 80.697601 32.001488
v -48.047638 80.691605 32.425484
v -57.246094 71.530518 -35.859718
v -48.907654 71.531204 -36.518219
v -57.246094 38.705708 -36.719723
v -57.246094 45.238705 -36.719715
v -65.817810 38.705708 -33.169216
v -65.817810 45.238705 -33.169315
v -73.178650 38.705708 -27.521214
v -73.178650 45.238705 -27.521214
v -78.826599 38.705708 -20.160515
v -78.826599 45.238705 -20.160519
v -82.377136 38.705708 -11.588814
v -82.377136 45.238701 -11.588814
v -83.588013 38.705708 -2.390415
v -83.588013 45.238705 -2.390415
v -82.377136 38.705708 6.808184
v -82.377136 45.238705 6.808186
v -78.826599 38.705708 15.379885
v -78.826599 45.238705 15.379885
v -73.178650 38.705704 22.740583
v -73.178650 45.238701 22.740583
v -65.817810 38.705708 28.388584
v -65.817810 45.238705 28.388485
v -57.246338 38.705315 31.965385
v -57.247009 45.236305 32.078484
v -57.246094 46.098709 31.079086
v -48.907654 46.114212 31.590286
v -57.246094 37.845707 -35.859722
v -48.907654 37.866810 -36.518215
v -40.290680 58.702408 31.967283
v 29.826904 58.702408 31.967283
v -65.817810 80.697601 27.528488
v -73.178650 80.697601 21.880585
v -78.826599 80.697601 14.519882
v -82.847046 80.697601 -1.954117
v -81.539276 80.697601 6.583687
v -82.749146 71.530518 -2.579514
v -81.539276 71.530518 -11.364319
v -78.826599 71.530518 -19.300514
v -73.178650 71.530518 -26.661217
v -65.817810 71.530518 -32.309311
v -65.817810 46.098701 27.528486
v -73.178650 46.098709 21.880585
v -78.826599 46.098709 14.519884
v -82.749146 46.098701 -2.579514
v -81.539276 46.098705 6.583683
v -65.817810 37.845707 -32.309216
v -73.178650 37.845707 -26.661213
v -78.826599 37.845707 -19.300514
v -82.782410 37.845707 -2.691216
v -81.539276 37.845707 -11.364315
v -41.234467 59.564011 32.441086
v -48.047638 70.670410 32.120686
v 79.231262 80.629211 -37.449120
v 79.233582 87.723007 -37.449120
v 82.728088 87.723007 -37.449120
v 83.588013 87.723206 -36.589119
v 79.231995 87.718414 33.790985
v 79.227051 80.599213 33.667686
v 82.726318 87.717896 33.815987
v 82.728210 58.827747 -37.449116
v 31.546753 -0.040695 30.821285
v 31.546753 58.691303 -37.449116
v -42.401001 79.832397 -37.449120
v 30.675171 59.562611 -37.449116
v 83.588013 58.771854 -36.590214
v 30.628174 59.557518 32.955482
v -42.486542 80.691605 32.295784
v -47.187622 71.527710 -37.449120
v -48.047638 0.861607 30.939184
v -48.047638 37.007210 31.411186
v -48.907654 37.866402 31.399786
v -57.246094 37.845703 31.079086
v -65.817810 37.845707 27.528584
v -73.178650 37.845707 21.880585
v -78.826599 37.845711 14.519884
v -48.047638 46.974808 31.666586
v -48.907654 71.530396 32.010784
v -57.246094 71.530518 31.079086
v -48.907654 46.114712 -36.518223
v -57.246094 46.098705 -35.859715
v -73.178650 71.530518 21.880585
v -78.826599 71.530518 14.519886
v -65.817810 71.530518 27.528488
v -65.817810 46.098705 -32.309315
v -73.178650 46.098705 -26.661213
v -78.826599 46.098705 -19.300518
v -48.047638 70.671295 -36.715515
v -81.539276 71.530518 6.583687
v -81.539276 37.845707 6.583685
v -81.539276 46.098709 -11.364315
v 30.686890 0.819607 30.842983
v 30.686890 57.842415 31.944984
v -41.150696 0.820007 -36.589119
v -41.150696 57.843601 -36.589115
v -40.290680 58.703609 -36.589115
v 29.826904 58.703609 -36.589115
v 83.588013 0.861706 -36.589119
v 82.728088 0.001205 31.878386
v 79.233582 88.582199 32.732784
v 82.728088 88.582199 32.732784
v 78.373596 87.723206 -36.589119
v 78.373596 81.552505 -36.589119
v -57.246094 80.697601 -35.859718
v -65.817810 80.697601 -32.309311
v -73.178650 80.697601 -26.661217
v -78.826599 80.697601 -19.300514
v 83.588013 87.722198 32.710484
v 77.513550 80.692505 -36.589119
v -81.539276 80.697601 -11.364319
v 31.546753 -0.040092 -36.589119
v 75.728210 16.240337 32.514282
v 75.718872 28.470844 32.725883
v 36.332825 28.475742 32.444084
v 36.341980 16.245243 32.232391
v 75.723694 28.482441 -15.073311
v 36.335510 28.482441 -15.073311
v 36.335510 16.229641 -15.073313
v 75.723694 16.229641 -15.073313
v 75.718872 30.813747 32.766487
v 36.332703 30.818645 32.484581
v 75.719849 43.068741 32.978683
v 36.333618 43.073647 32.696785
v 75.723694 43.078144 -15.073215
v 36.335510 43.078144 -15.073215
v 36.335510 30.825443 -15.073311
v 75.723694 30.825443 -15.073311
v 75.719788 45.179352 33.015182
v 36.333618 45.184242 32.733284
v 75.720581 57.434254 33.227283
v 36.334473 57.439140 32.945488
v 75.723694 57.441658 -15.073215
v 36.335510 57.441658 -15.073215
v 36.335510 45.188953 -15.073311
v 75.723694 45.188953 -15.073311
v 36.334412 59.528946 32.981583
v 75.721252 71.999512 33.493683
v 75.720581 59.524155 33.263489
v 36.335083 72.004410 33.211784
v 36.335388 72.005203 -15.073219
v 36.335510 59.531654 -15.073215
v 75.723694 59.531654 -15.073215
v 75.723572 72.005203 -15.073219
v 28.139099 62.100517 32.981682
v -39.820007 62.108902 32.495285
v 28.139648 72.002304 33.153084
v -39.819397 72.010803 32.666687
v -39.822998 72.002106 -15.073219
v -39.822998 62.101715 -15.073215
v 28.139587 62.101715 -15.073215
v 28.139587 72.002106 -15.073219
v -42.402924 80.692505 -36.589119
v -41.233704 59.558712 -37.449116
v 78.356689 79.827011 33.648087
v 77.513550 80.691605 32.530586
v 75.723572 61.967209 -15.073215
v 36.335388 61.967209 -15.073215
v 36.334473 61.965008 33.037983
v 82.727173 55.325241 33.240982
v 31.543152 58.630615 32.945984
v 82.727051 0.870106 32.312584
v 31.552551 0.834305 31.945484
v 31.546753 0.820908 -37.449120
v 78.339783 79.833115 -37.449120
vt 0.128631 0.467419
vt 0.142357 0.467419
vt 0.141321 0.646123
vt 0.127336 0.645993
vt 0.218519 0.904682
vt 0.218519 0.889790
vt 0.150101 0.774497
vt 0.011290 0.387350
vt 0.100757 0.353420
vt 0.413165 0.913351
vt 0.595902 0.922545
vt 0.217664 0.169498
vt 0.396497 0.169498
vt 0.001304 0.667188
vt 0.142705 0.766184
vt 0.007923 0.649190
vt 0.593248 0.566147
vt 0.002470 0.353032
vt 0.002470 0.339305
vt 0.154224 0.026582
vt 0.015579 0.399802
vt 0.025824 0.449425
vt 0.035795 0.449425
vt 0.061580 0.646950
vt 0.045004 0.646950
vt 0.850128 0.632073
vt 0.121739 0.026449
vt 0.003635 0.386164
vt 0.755196 0.996495
vt 0.603557 0.992610
vt 0.603557 0.814294
vt 0.755196 0.814165
vt 0.015579 0.413917
vt 0.007923 0.399522
vt 0.002728 0.694796
vt 0.001434 0.653461
vt 0.011290 0.635075
vt 0.000139 0.692983
vt 0.211734 0.602699
vt 0.099591 0.653720
vt 0.003635 0.628709
vt 0.003635 0.607342
vt 0.211734 0.578095
vt 0.003635 0.585976
vt 0.211864 0.553361
vt 0.003635 0.565645
vt 0.211993 0.528757
vt 0.003635 0.544667
vt 0.211993 0.504023
vt 0.000139 0.523429
vt 0.212123 0.479290
vt 0.000139 0.502969
vt 0.212252 0.454686
vt 0.000139 0.481602
vt 0.212252 0.429952
vt 0.000139 0.460235
vt 0.212382 0.405348
vt 0.000139 0.438869
vt 0.212511 0.380614
vt 0.000139 0.418538
vt 0.212641 0.356010
vt 0.003635 0.406495
vt 0.011290 0.485637
vt 0.003635 0.418538
vt 0.019075 0.628231
vt 0.011290 0.613449
vt 0.019075 0.606606
vt 0.011290 0.591694
vt 0.019075 0.584850
vt 0.011290 0.569938
vt 0.019075 0.563225
vt 0.011290 0.549349
vt 0.015579 0.542635
vt 0.007923 0.528241
vt 0.015579 0.521527
vt 0.007923 0.506486
vt 0.015579 0.499902
vt 0.007923 0.485637
vt 0.015579 0.479182
vt 0.007923 0.463752
vt 0.015579 0.457427
vt 0.007923 0.441997
vt 0.015579 0.435672
vt 0.007923 0.420242
vt 0.015579 0.402650
vt 0.011290 0.399522
vt 0.413425 0.574972
vt 0.403568 0.889531
vt 0.403568 0.904682
vt 0.913192 0.630519
vt 0.913192 0.813885
vt 0.758304 0.814812
vt 0.220547 0.557622
vt 0.412777 0.761445
vt 0.121735 0.653850
vt 0.155145 0.667706
vt 0.102181 0.651519
vt 0.148785 0.007937
vt 0.122900 0.353550
vt 0.156569 0.339823
vt 0.119533 0.651519
vt 0.211605 0.627433
vt 0.211475 0.651907
vt 0.191662 0.651778
vt 0.190497 0.353809
vt 0.120569 0.355751
vt 0.103217 0.355751
vt 0.120440 0.380226
vt 0.103087 0.380226
vt 0.216007 0.017509
vt 0.234914 0.008315
vt 0.191792 0.627303
vt 0.005059 0.691559
vt 0.000139 0.386164
vt 0.011290 0.649190
vt 0.011290 0.646341
vt 0.011290 0.420242
vt 0.007923 0.387350
vt 0.015579 0.628231
vt 0.068124 0.691818
vt 0.019075 0.399802
vt 0.019075 0.402650
vt 0.070325 0.694796
vt 0.003635 0.649169
vt 0.402747 0.554514
vt 0.146993 0.774497
vt 0.139338 0.766184
vt 0.406114 0.556068
vt 0.011290 0.463752
vt 0.192569 0.405218
vt 0.192698 0.380485
vt 0.003635 0.523429
vt 0.003635 0.502969
vt 0.003635 0.481602
vt 0.003635 0.460235
vt 0.003635 0.438869
vt 0.850128 0.813496
vt 0.842602 0.813588
vt 0.398957 0.265843
vt 0.217664 0.265843
vt 0.000139 0.406495
vt 0.401626 0.929287
vt 0.222404 0.929287
vt 0.392173 0.952207
vt 0.231857 0.952207
vt 0.377022 0.972020
vt 0.247008 0.972020
vt 0.357338 0.987171
vt 0.820459 0.810610
vt 0.820459 0.632554
vt 0.842602 0.630870
vt 0.681564 0.448698
vt 0.659291 0.446885
vt 0.659291 0.268829
vt 0.681564 0.267404
vt 0.755840 0.697819
vt 0.763092 0.676712
vt 0.763092 0.766582
vt 0.752603 0.721129
vt 0.778113 0.786135
vt 0.778113 0.657028
vt 0.797667 0.801157
vt 0.797667 0.642007
vt 0.636500 0.437432
vt 0.636500 0.278282
vt 0.616946 0.422410
vt 0.582389 0.199127
vt 0.581612 0.221271
vt 0.403556 0.222307
vt 0.401743 0.200034
vt 0.572289 0.244192
vt 0.413139 0.244969
vt 0.557397 0.263875
vt 0.428290 0.264522
vt 0.537843 0.278896
vt 0.447973 0.279414
vt 0.469081 0.286537
vt 0.015579 0.606606
vt 0.007923 0.635075
vt 0.015579 0.584850
vt 0.616946 0.293303
vt 0.007923 0.613449
vt 0.015579 0.563225
vt 0.595902 0.999861
vt 0.011290 0.528241
vt 0.011290 0.506486
vt 0.007923 0.646341
vt 0.011290 0.441997
vt 0.413638 0.566147
vt 0.150230 0.770209
vt 0.019075 0.413917
vt 0.002470 0.689617
vt 0.410982 0.999861
vt 0.234914 0.017639
vt 0.159795 0.026579
vt 0.266691 0.987171
vt 0.166152 0.153220
vt 0.165504 0.334125
vt 0.158771 0.337881
vt 0.159418 0.146616
vt 0.191921 0.334125
vt 0.212770 0.341377
vt 0.119533 0.627044
vt 0.000139 0.628709
vt 0.492131 0.289774
vt 0.516864 0.286278
vt 0.192828 0.356010
vt 0.213936 0.019840
vt 0.192698 0.131595
vt 0.102181 0.627044
vt 0.231158 0.999861
vt 0.405208 0.558787
vt 0.601924 0.402857
vt 0.601924 0.312857
vt 0.591565 0.358310
vt 0.594673 0.333965
vt 0.755840 0.745474
vt 0.594673 0.381749
vt 0.664652 0.024747
vt 0.789745 0.024743
vt 0.789746 0.057505
vt 0.663723 0.057509
vt 0.802969 0.150569
vt 0.929227 0.150573
vt 0.929226 0.183336
vt 0.803852 0.183332
vt 0.413638 0.428882
vt 0.593248 0.428882
vt 0.593895 0.425774
vt 0.596485 0.428364
vt 0.596485 0.566665
vt 0.593895 0.569255
vt 0.756880 0.810798
vt 0.193087 0.026703
vt 0.965317 0.814798
vt 0.410530 0.428364
vt 0.412990 0.425774
vt 0.412990 0.569255
vt 0.410400 0.566665
vt 0.159405 0.131467
vt 0.165893 0.131465
vt 0.156958 0.144156
vt 0.153833 0.131469
vt 0.965317 0.710036
vt 0.997820 0.710036
vt 0.997820 0.814798
vt 0.310849 0.997919
vt 0.192569 0.153350
vt 0.121339 0.131335
vt 0.287929 0.994423
vt 0.336101 0.994423
vt 0.407745 0.999861
vt 0.409921 0.913351
vt 0.970532 0.819086
vt 0.035795 0.646776
vt 0.025824 0.646776
vt 0.045004 0.461771
vt 0.061580 0.461383
vt 0.403568 0.568383
vt 0.403568 0.566052
vt 0.405899 0.563721
vt 0.405899 0.566181
vt 0.218519 0.568383
vt 0.216188 0.566052
vt 0.216188 0.563721
vt 0.218390 0.566052
vt 0.216188 0.904682
vt 0.599275 0.922675
vt 0.216188 0.889790
vt 0.599269 0.999861
vt 0.405899 0.904682
vt 0.403957 0.929287
vt 0.394503 0.952207
vt 0.379352 0.972020
vt 0.970532 0.999861
vt 0.145465 0.466901
vt 0.142875 0.464311
vt 0.141839 0.649360
vt 0.944115 0.999861
vt 0.944115 0.819086
vt 0.933108 0.203426
vt 0.144559 0.646641
vt 0.126818 0.649231
vt 0.124099 0.646511
vt 0.035795 0.446965
vt 0.038256 0.449425
vt 0.038256 0.646776
vt 0.035795 0.649237
vt 0.025824 0.649237
vt 0.023364 0.646776
vt 0.359669 0.987171
vt 0.336619 0.996624
vt 0.933108 0.328777
vt 0.827570 0.328777
vt 0.827570 0.203426
vt 0.533459 0.048071
vt 0.659458 0.048071
vt 0.659458 0.153480
vt 0.023364 0.449425
vt 0.025824 0.446965
vt 0.533459 0.153480
vt 0.947077 0.493569
vt 0.947077 0.366922
vt 0.979710 0.366922
vt 0.312015 0.999862
vt 0.287411 0.996624
vt 0.264361 0.987171
vt 0.244677 0.972020
vt 0.229526 0.952207
vt 0.220073 0.929287
vt 0.405899 0.889531
vt 0.413702 0.767935
vt 0.416939 0.767935
vt 0.595902 0.767935
vt 0.599269 0.767935
vt 0.061580 0.649280
vt 0.042544 0.649280
vt 0.042544 0.459570
vt 0.061580 0.459052
vt 0.964073 0.231569
vt 0.964073 0.126807
vt 0.970560 0.126808
vt 0.970560 0.231570
vt 0.937397 0.231569
vt 0.937397 0.126807
vt 0.125523 0.466772
vt 0.128113 0.464182
vt 0.717871 0.315950
vt 0.717871 0.189821
vt 0.823281 0.189821
vt 0.933528 0.122519
vt 0.933528 0.017758
vt 0.966161 0.017758
vt 0.966161 0.122519
vt 0.823281 0.315950
vt 0.586678 0.157769
vt 0.713583 0.157769
vt 0.713583 0.262919
vt 0.979710 0.494498
vt 0.905641 0.494218
vt 0.905641 0.366277
vt 0.586678 0.262919
vt 0.938403 0.366276
vt 0.938403 0.493335
vt 0.798399 0.459972
vt 0.798399 0.333066
vt 0.903549 0.333066
vt 0.903549 0.459972
vt 0.861396 0.626189
vt 0.861396 0.498506
vt 0.966546 0.498506
vt 0.966546 0.626189
vt 0.930004 0.117518
vt 0.802969 0.117518
vt 0.802969 0.091230
vt 0.930651 0.091230
vt 0.520215 0.011839
vt 0.520215 0.038645
vt 0.392255 0.045131
vt 0.391367 0.011839
vt 0.520215 0.045132
vt 0.794033 0.014940
vt 0.898795 0.014940
vt 0.898795 0.047573
vt 0.794033 0.047573
vt 0.529170 0.191868
vt 0.401358 0.191868
vt 0.401358 0.086718
vt 0.529170 0.086718
vt 0.794111 0.320239
vt 0.794111 0.448827
vt 0.689090 0.448827
vt 0.689090 0.320239
vt 0.931428 0.148482
vt 0.802969 0.148482
vt 0.803616 0.121806
vt 0.931428 0.121806
vt 0.852145 0.987479
vt 0.852146 0.859797
vt 0.796171 0.859274
vt 0.796171 0.987604
vt 0.769883 0.987604
vt 0.769883 0.859921
vt 0.406889 0.421485
vt 0.406889 0.294062
vt 0.587276 0.294062
vt 0.587276 0.421485
vt 0.217287 0.398073
vt 0.217287 0.270131
vt 0.397545 0.270131
vt 0.397545 0.398073
vt 0.939585 0.361727
vt 0.939585 0.235858
vt 0.972218 0.235858
vt 0.972218 0.362657
vt 0.651797 0.045979
vt 0.524503 0.045980
vt 0.524503 0.013217
vt 0.650914 0.013217
vt 0.759340 0.811705
vt 0.217569 0.558787
vt 0.216533 0.556327
vt 0.220029 0.554514
vt 0.759340 0.999084
vt 0.757009 0.999861
vt 0.603557 0.995847
vt 0.603557 0.811057
vt 0.216792 0.402486
vt 0.220029 0.402357
vt 0.398862 0.402357
vt 0.402100 0.402357
vt 0.858633 0.859797
vt 0.858633 0.987609
vt 0.083384 0.026320
vt 0.003764 0.007409
vt 0.116035 0.026452
vt 0.115653 0.131341
vt 0.003117 0.143638
vt 0.083001 0.131239
vt 0.077173 0.026318
vt 0.044539 0.026192
vt 0.044155 0.130952
vt 0.076781 0.131097
vt 0.212382 0.990538
vt 0.231288 0.990538
vt 0.154354 0.999613
vt 0.210310 0.988077
vt 0.154497 0.863373
vt 0.156828 0.861172
vt 0.211475 0.666929
vt 0.189331 0.654109
vt 0.157476 0.669778
vt 0.000139 0.998955
vt 0.000527 0.862855
vt 0.000139 0.607342
vt 0.000139 0.585976
vt 0.191921 0.602699
vt 0.000139 0.565645
vt 0.000139 0.544667
vt 0.191921 0.577965
vt 0.019075 0.542635
vt 0.019075 0.521527
vt 0.192051 0.553361
vt 0.019075 0.499902
vt 0.019075 0.479182
vt 0.192180 0.528628
vt 0.019075 0.457427
vt 0.019075 0.435672
vt 0.192180 0.503894
vt 0.192310 0.479290
vt 0.192439 0.454556
vt 0.192569 0.429952
vt 0.119663 0.602440
vt 0.102311 0.602310
vt 0.119792 0.577706
vt 0.102311 0.577706
vt 0.119792 0.553102
vt 0.102440 0.552973
vt 0.119922 0.528369
vt 0.102569 0.528369
vt 0.120051 0.503635
vt 0.102569 0.503635
vt 0.120051 0.479031
vt 0.102699 0.478901
vt 0.120181 0.454297
vt 0.102828 0.454297
vt 0.120310 0.429693
vt 0.102958 0.429564
vt 0.120310 0.404959
vt 0.102958 0.404959
vt 0.070584 0.689617
vt 0.072915 0.692854
vt 0.000139 0.649169
vt 0.146993 0.770209
vt 0.007923 0.591694
vt 0.007923 0.569938
vt 0.007923 0.549349
vt 0.150230 0.716598
vt 0.146993 0.716598
vt 0.015579 0.649210
vt 0.019075 0.649210
vt 0.142705 0.859032
vt 0.139338 0.859032
vt 0.150101 0.859058
vt 0.146993 0.859058
vt 0.758304 0.995977
vt 0.402229 0.557622
vt 0.410187 0.763517
vt 0.410187 0.572511
vt 0.594977 0.761445
vt 0.598992 0.763647
vt 0.595754 0.574972
vt 0.598992 0.572511
vt 0.582389 0.195890
vt 0.401484 0.196796
vt 0.845840 0.813847
vt 0.845840 0.630352
vt 0.684801 0.267275
vt 0.684801 0.448827
vn 0.340766 -0.863077 0.372795
vn -0.321359 -0.874992 0.362101
vn -0.345090 -0.874474 -0.340894
vn -0.345090 -0.874474 -0.340894
vn 0.337878 -0.876783 -0.342184
vn 0.340766 -0.863077 0.372795
vn 0.003904 0.819069 0.573681
vn -0.002704 0.865348 0.501163
vn 0.000000 0.923871 -0.382705
vn 0.000000 0.923871 -0.382705
vn -0.015501 0.920357 -0.390772
vn 0.003904 0.819069 0.573681
vn -0.007169 -0.017309 0.999824
vn -0.007160 -0.017307 0.999825
vn -0.007160 -0.017308 0.999825
vn -1.000000 0.000000 0.000000
vn -1.000000 0.000000 0.000000
vn -1.000000 0.000000 0.000000
vn -1.000000 0.000000 0.000000
vn -1.000000 0.000000 0.000000
vn -1.000000 0.000000 0.000000
vn 0.000000 0.000000 -1.000000
vn 0.000000 0.000000 -1.000000
vn 0.000000 0.000000 -1.000000
vn -0.348334 -0.891635 0.289225
vn -0.341259 -0.875615 -0.341819
vn 0.341923 -0.875357 -0.341818
vn 0.341923 -0.875357 -0.341818
vn 0.393096 -0.774207 0.496063
vn -0.348334 -0.891635 0.289225
vn -0.007163 -0.017316 0.999824
vn -0.007171 -0.017293 0.999825
vn -0.007257 -0.017566 0.999819
vn -0.348612 0.887582 0.301111
vn 0.348595 0.888789 0.297549
vn 0.341597 0.875560 -0.341623
vn 0.341597 0.875560 -0.341623
vn -0.341583 0.875565 -0.341625
vn -0.348612 0.887582 0.301111
vn -0.923889 0.000000 -0.382660
vn -0.894745 0.000134 -0.446578
vn -0.932202 -0.009270 0.361819
vn -0.932202 -0.009270 0.361819
vn -0.943198 -0.005831 0.332180
vn -0.923889 0.000000 -0.382660
vn -0.007153 -0.017311 0.999825
vn -0.007151 -0.017301 0.999825
vn -0.007151 -0.017308 0.999825
vn -1.000000 0.000000 0.000000
vn -1.000000 0.000000 0.000000
vn -1.000000 0.000000 0.000000
vn -1.000000 0.000000 0.000000
vn -1.000000 0.000000 0.000000
vn -1.000000 0.000000 0.000000
vn 0.733122 -0.279042 0.620215
vn 0.928221 -0.006434 0.371973
vn 0.924098 -0.000009 -0.382156
vn 0.924098 -0.000009 -0.382156
vn 0.825895 -0.300564 -0.477030
vn 0.733122 -0.279042 0.620215
vn -0.007151 -0.017301 0.999825
vn -0.007153 -0.017311 0.999825
vn -0.007169 -0.017309 0.999824
vn -0.007169 -0.017309 0.999824
vn -0.007160 -0.017308 0.999825
vn -0.007151 -0.017301 0.999825
vn 0.000000 0.000000 -1.000000
vn 0.000000 0.000000 -1.000000
vn 0.000000 0.000000 -1.000000
vn 0.000000 0.000000 -1.000000
vn 0.000000 0.000000 -1.000000
vn 0.000000 0.000000 -1.000000
vn -0.233754 0.000000 -0.972296
vn -0.039562 0.000000 -0.999217
vn -0.031627 0.000000 -0.999500
vn -0.031627 0.000000 -0.999500
vn -0.233731 0.000000 -0.972301
vn -0.233754 0.000000 -0.972296
vn -0.499992 0.000000 -0.866030
vn -0.233754 0.000000 -0.972296
vn -0.233731 0.000000 -0.972301
vn -0.233731 0.000000 -0.972301
vn -0.499992 0.000000 -0.866030
vn -0.499992 0.000000 -0.866030
vn -0.707108 0.000000 -0.707105
vn -0.499992 0.000000 -0.866030
vn -0.499992 0.000000 -0.866030
vn -0.499992 0.000000 -0.866030
vn -0.707108 0.000000 -0.707105
vn -0.707108 0.000000 -0.707105
vn -0.866027 0.000000 -0.499997
vn -0.707108 0.000000 -0.707105
vn -0.707108 0.000000 -0.707105
vn -0.707108 0.000000 -0.707105
vn -0.866027 0.000000 -0.499997
vn -0.866027 0.000000 -0.499997
vn -0.965927 0.000000 -0.258814
vn -0.866027 0.000000 -0.499997
vn -0.866027 0.000000 -0.499997
vn -0.866027 0.000000 -0.499997
vn -0.965927 0.000000 -0.258814
vn -0.965927 0.000000 -0.258814
vn -1.000000 0.000000 -0.000001
vn -0.965927 0.000000 -0.258814
vn -0.965927 0.000000 -0.258814
vn -0.965927 0.000000 -0.258814
vn -1.000000 0.000000 -0.000001
vn -1.000000 0.000000 -0.000001
vn -0.965928 -0.000000 0.258813
vn -1.000000 0.000000 -0.000001
vn -1.000000 0.000000 -0.000001
vn -1.000000 0.000000 -0.000001
vn -0.965928 -0.000000 0.258813
vn -0.965928 -0.000000 0.258813
vn -0.866027 -0.000000 0.499997
vn -0.965928 -0.000000 0.258813
vn -0.965928 -0.000000 0.258813
vn -0.965928 -0.000000 0.258813
vn -0.866027 -0.000000 0.499997
vn -0.866027 -0.000000 0.499997
vn -0.707102 -0.000000 0.707112
vn -0.866027 -0.000000 0.499997
vn -0.866027 -0.000000 0.499997
vn -0.866027 -0.000000 0.499997
vn -0.707102 -0.000000 0.707111
vn -0.707102 -0.000000 0.707112
vn -0.530643 -0.000000 0.847596
vn -0.707102 -0.000000 0.707112
vn -0.707102 -0.000000 0.707111
vn -0.707102 -0.000000 0.707111
vn -0.528413 -0.003304 0.848981
vn -0.530643 -0.000000 0.847596
vn -0.229486 -0.013520 0.973218
vn -0.530643 -0.000000 0.847596
vn -0.528413 -0.003304 0.848981
vn -0.528413 -0.003304 0.848981
vn -0.228148 -0.016883 0.973480
vn -0.229486 -0.013520 0.973218
vn -0.007163 -0.017307 0.999825
vn -0.229486 -0.013520 0.973218
vn -0.228148 -0.016883 0.973480
vn -0.228148 -0.016883 0.973480
vn -0.007130 -0.017302 0.999825
vn -0.007163 -0.017307 0.999825
vn -0.105946 0.906526 -0.408640
vn -0.134901 0.869934 0.474360
vn 0.003904 0.819069 0.573681
vn 0.003904 0.819069 0.573681
vn -0.015501 0.920357 -0.390772
vn -0.105946 0.906526 -0.408640
vn -0.407230 -0.913325 -0.000006
vn -0.000009 -1.000000 -0.000000
vn 0.000043 -1.000000 -0.000006
vn 0.000043 -1.000000 -0.000006
vn -0.410871 -0.911693 -0.000011
vn -0.407230 -0.913325 -0.000006
vn -0.233636 0.000000 -0.972324
vn -0.031646 0.000000 -0.999499
vn -0.031308 0.000000 -0.999510
vn -0.031308 0.000000 -0.999510
vn -0.233848 -0.000003 -0.972273
vn -0.233636 0.000000 -0.972324
vn -0.499995 -0.000010 -0.866029
vn -0.233636 0.000000 -0.972324
vn -0.233848 -0.000003 -0.972273
vn -0.233848 -0.000003 -0.972273
vn -0.499996 -0.000011 -0.866028
vn -0.499995 -0.000010 -0.866029
vn -0.707106 -0.000002 -0.707107
vn -0.499995 -0.000010 -0.866029
vn -0.499996 -0.000011 -0.866028
vn -0.499996 -0.000011 -0.866028
vn -0.707105 0.000000 -0.707108
vn -0.707106 -0.000002 -0.707107
vn -0.866027 0.000000 -0.499997
vn -0.707106 -0.000002 -0.707107
vn -0.707105 0.000000 -0.707108
vn -0.707105 0.000000 -0.707108
vn -0.866027 0.000000 -0.499997
vn -0.866027 0.000000 -0.499997
vn -0.965927 0.000000 -0.258814
vn -0.866027 0.000000 -0.499997
vn -0.866027 0.000000 -0.499997
vn -0.866027 0.000000 -0.499997
vn -0.965927 0.000000 -0.258814
vn -0.965927 0.000000 -0.258814
vn -1.000000 0.000000 -0.000001
vn -0.965927 0.000000 -0.258814
vn -0.965927 0.000000 -0.258814
vn -0.965927 0.000000 -0.258814
vn -1.000000 0.000000 -0.000001
vn -1.000000 0.000000 -0.000001
vn -0.965928 -0.000000 0.258813
vn -1.000000 0.000000 -0.000001
vn -1.000000 0.000000 -0.000001
vn -1.000000 0.000000 -0.000001
vn -0.965928 -0.000000 0.258813
vn -0.965928 -0.000000 0.258813
vn -0.866027 -0.000000 0.499997
vn -0.965928 -0.000000 0.258813
vn -0.965928 -0.000000 0.258813
vn -0.965928 -0.000000 0.258813
vn -0.866027 -0.000000 0.499997
vn -0.866027 -0.000000 0.499997
vn -0.707102 -0.000000 0.707111
vn -0.866027 -0.000000 0.499997
vn -0.866027 -0.000000 0.499997
vn -0.866027 -0.000000 0.499997
vn -0.707103 0.000002 0.707110
vn -0.707102 -0.000000 0.707111
vn -0.505986 0.000011 0.862542
vn -0.707102 -0.000000 0.707111
vn -0.707103 0.000002 0.707110
vn -0.707103 0.000002 0.707110
vn -0.504091 -0.003129 0.863645
vn -0.505986 0.000011 0.862542
vn -0.201451 -0.013813 0.979401
vn -0.505986 0.000011 0.862542
vn -0.504091 -0.003129 0.863645
vn -0.504091 -0.003129 0.863645
vn -0.200439 -0.016985 0.979559
vn -0.201451 -0.013813 0.979401
vn -0.007118 -0.017319 0.999825
vn -0.201451 -0.013813 0.979401
vn -0.200439 -0.016985 0.979559
vn -0.200439 -0.016985 0.979559
vn -0.007166 -0.017314 0.999824
vn -0.007118 -0.017319 0.999825
vn -0.400413 0.916335 0.000003
vn -0.001120 0.999999 0.000000
vn -0.001083 0.999999 0.000004
vn -0.001083 0.999999 0.000004
vn -0.398688 0.917086 0.000007
vn -0.400413 0.916335 0.000003
vn -0.387208 -0.921992 -0.000002
vn 0.001433 -0.999999 -0.000000
vn 0.001474 -0.999999 -0.000003
vn 0.001474 -0.999999 -0.000003
vn -0.398121 -0.917333 -0.000005
vn -0.387208 -0.921992 -0.000002
vn -0.004301 -0.799834 0.600205
vn 0.000000 -0.894780 -0.446508
vn 0.000024 -0.896267 -0.443514
vn 0.000024 -0.896267 -0.443514
vn 0.000000 -0.916278 0.400542
vn -0.004301 -0.799834 0.600205
vn -0.105946 0.906526 -0.408640
vn -0.236478 0.894069 -0.380420
vn -0.247012 0.896166 0.368608
vn -0.247012 0.896166 0.368608
vn -0.134901 0.869934 0.474360
vn -0.105946 0.906526 -0.408640
vn -0.236478 0.894069 -0.380420
vn -0.369141 0.866423 -0.336223
vn -0.369140 0.866423 0.336225
vn -0.369140 0.866423 0.336225
vn -0.247012 0.896166 0.368608
vn -0.236478 0.894069 -0.380420
vn -0.369141 0.866423 -0.336223
vn -0.513130 0.819034 -0.256674
vn -0.513130 0.819034 0.256674
vn -0.513130 0.819034 0.256674
vn -0.369140 0.866423 0.336225
vn -0.369141 0.866423 -0.336223
vn -0.513130 0.819034 0.256674
vn -0.449376 0.893234 0.013957
vn -0.387424 0.917023 0.094718
vn 0.000000 -1.000000 -0.000000
vn 0.000000 -1.000000 -0.000000
vn 0.000000 -1.000000 -0.000000
vn 0.000000 -1.000000 -0.000000
vn 0.000000 -1.000000 -0.000000
vn 0.000000 -1.000000 -0.000000
vn 0.000000 -1.000000 -0.000000
vn 0.000000 -1.000000 -0.000000
vn 0.000000 -1.000000 -0.000000
vn 0.000000 -1.000000 -0.000000
vn 0.000000 -1.000000 -0.000000
vn 0.000000 -1.000000 -0.000000
vn 0.000000 -1.000000 -0.000000
vn 0.000000 -1.000000 -0.000000
vn 0.000000 -1.000000 -0.000000
vn 0.000000 -1.000000 -0.000000
vn 0.000000 -1.000000 -0.000000
vn 0.000000 -1.000000 -0.000000
vn -0.000009 -1.000000 -0.000000
vn 0.000000 -1.000000 -0.000000
vn 0.000000 -1.000000 -0.000000
vn 0.000000 -1.000000 -0.000000
vn 0.000043 -1.000000 -0.000006
vn -0.000009 -1.000000 -0.000000
vn -0.001120 0.999999 0.000000
vn 0.000000 1.000000 0.000000
vn 0.000000 1.000000 0.000000
vn 0.000000 1.000000 0.000000
vn -0.001083 0.999999 0.000004
vn -0.001120 0.999999 0.000000
vn 0.000000 1.000000 0.000000
vn 0.000000 1.000000 0.000000
vn 0.000000 1.000000 0.000000
vn 0.000000 1.000000 0.000000
vn 0.000000 1.000000 0.000000
vn 0.000000 1.000000 0.000000
vn 0.000000 1.000000 0.000000
vn 0.000000 1.000000 0.000000
vn 0.000000 1.000000 0.000000
vn 0.000000 1.000000 0.000000
vn 0.000000 1.000000 0.000000
vn 0.000000 1.000000 0.000000
vn 0.000000 1.000000 0.000000
vn 0.000000 1.000000 0.000000
vn 0.000000 1.000000 0.000000
vn 0.001433 -0.999999 -0.000000
vn 0.000000 -1.000000 -0.000000
vn 0.000000 -1.000000 -0.000000
vn 0.000000 -1.000000 -0.000000
vn 0.001474 -0.999999 -0.000003
vn 0.001433 -0.999999 -0.000000
vn 0.000000 -1.000000 -0.000000
vn 0.000000 -1.000000 -0.000000
vn 0.000000 -1.000000 -0.000000
vn 0.000000 -1.000000 -0.000000
vn 0.000000 -1.000000 -0.000000
vn 0.000000 -1.000000 -0.000000
vn 0.000000 -1.000000 -0.000000
vn 0.000000 -1.000000 -0.000000
vn 0.000000 -1.000000 -0.000000
vn 0.000000 -1.000000 -0.000000
vn 0.000000 -1.000000 -0.000000
vn 0.000000 -1.000000 -0.000000
vn 0.000000 -1.000000 -0.000000
vn 0.000000 -1.000000 -0.000000
vn 0.000000 -1.000000 -0.000000
vn 0.000000 -1.000000 -0.000000
vn 0.000000 -1.000000 -0.000000
vn 0.000000 -1.000000 -0.000000
vn 0.000000 0.000000 -1.000000
vn 0.000000 0.000000 -1.000000
vn 0.000000 0.000000 -1.000000
vn 0.959681 -0.004910 0.281049
vn 0.923778 -0.000003 -0.382928
vn 0.923899 0.000015 -0.382636
vn 0.923899 0.000015 -0.382636
vn 0.944186 -0.008261 0.329309
vn 0.959681 -0.004910 0.281049
vn -0.006479 -0.017713 0.999822
vn -0.006898 -0.017438 0.999824
vn -0.007156 -0.017311 0.999825
vn -0.007257 -0.017566 0.999819
vn -0.006898 -0.017438 0.999824
vn -0.006479 -0.017713 0.999822
vn 0.000000 0.000000 -1.000000
vn 0.000000 0.000000 -1.000000
vn 0.000000 0.000000 -1.000000
vn 0.000000 0.000000 -1.000000
vn 0.000000 0.000000 -1.000000
vn 0.000000 0.000000 -1.000000
vn 0.000000 0.000000 -1.000000
vn 0.000000 0.000000 -1.000000
vn 0.000000 0.000000 -1.000000
vn -0.007467 -0.017825 0.999813
vn -0.007163 -0.017316 0.999824
vn -0.007257 -0.017566 0.999819
vn -0.007157 -0.017307 0.999825
vn -0.007161 -0.017312 0.999824
vn -0.007135 -0.017299 0.999825
vn -0.007135 -0.017299 0.999825
vn -0.006400 -0.017411 0.999828
vn -0.007157 -0.017307 0.999825
vn -0.007151 -0.017308 0.999825
vn -0.007157 -0.017313 0.999825
vn -0.007162 -0.017314 0.999824
vn -0.007162 -0.017314 0.999824
vn -0.007163 -0.017307 0.999825
vn -0.007151 -0.017308 0.999825
vn -0.007151 -0.017308 0.999825
vn -0.007163 -0.017307 0.999825
vn -0.007130 -0.017302 0.999825
vn 0.000000 0.000000 -1.000000
vn 0.000000 0.000000 -1.000000
vn -0.031627 0.000000 -0.999500
vn -0.031627 0.000000 -0.999500
vn -0.039562 0.000000 -0.999217
vn 0.000000 0.000000 -1.000000
vn 0.000000 0.000000 -1.000000
vn 0.000000 0.000000 -1.000000
vn 0.000000 0.000000 -1.000000
vn 0.000000 0.000000 -1.000000
vn 0.000000 0.000000 -1.000000
vn 0.000000 0.000000 -1.000000
vn 0.000000 -1.000000 -0.000000
vn 0.000000 -1.000000 -0.000000
vn 0.000000 -1.000000 -0.000000
vn 0.000000 -1.000000 -0.000000
vn 0.000000 -1.000000 -0.000000
vn 0.000000 -1.000000 -0.000000
vn 0.000000 1.000000 0.000000
vn 0.000000 1.000000 0.000000
vn 0.000000 1.000000 0.000000
vn 0.000000 1.000000 0.000000
vn 0.000000 1.000000 0.000000
vn 0.000000 1.000000 0.000000
vn -0.390564 0.916068 -0.090993
vn -0.449376 0.893234 0.013957
vn -0.513130 0.819034 0.256674
vn -0.513130 0.819034 0.256674
vn -0.513130 0.819034 -0.256674
vn -0.390564 0.916068 -0.090993
vn -0.602340 -0.718779 0.347193
vn -0.321359 -0.874992 0.362101
vn -0.164252 -0.630970 0.758220
vn 0.393096 -0.774207 0.496063
vn 0.761041 -0.633811 0.138203
vn 0.366197 -0.419936 0.830393
vn -0.246000 -0.686219 -0.684535
vn -0.345090 -0.874474 -0.340894
vn -0.686844 -0.685743 -0.240837
vn 0.237725 0.759065 0.606059
vn 0.694497 0.689066 0.207032
vn 0.348595 0.888789 0.297549
vn 0.341597 0.875560 -0.341623
vn 0.686139 0.686078 -0.241888
vn 0.241818 0.686043 -0.686199
vn -0.321340 -0.259339 0.910760
vn -0.266975 -0.264053 0.926823
vn -0.234918 -0.387090 0.891614
vn -0.234918 -0.387090 0.891614
vn -0.208151 -0.409851 0.888085
vn -0.321340 -0.259339 0.910760
vn -0.233930 -0.766659 0.597922
vn -0.688251 -0.693290 0.213680
vn -0.348334 -0.891635 0.289225
vn 0.242093 -0.685675 -0.686469
vn 0.686095 -0.686034 -0.242141
vn 0.341923 -0.875357 -0.341818
vn -0.241809 0.686045 -0.686200
vn -0.686115 0.686103 -0.241888
vn -0.341583 0.875565 -0.341625
vn -0.348612 0.887582 0.301111
vn -0.694130 0.688684 0.209519
vn -0.241580 0.753034 0.612028
vn -0.311424 -0.530981 -0.788083
vn -0.439993 -0.401470 -0.803261
vn -0.452174 -0.398756 -0.797830
vn -0.452174 -0.398756 -0.797830
vn -0.228122 -0.600422 -0.766455
vn -0.311424 -0.530981 -0.788083
vn -0.143104 -0.494361 0.857396
vn -0.334080 -0.322646 0.885602
vn -0.334403 -0.318494 0.886981
vn -0.334403 -0.318494 0.886981
vn -0.217951 -0.424374 0.878865
vn -0.143104 -0.494361 0.857396
vn -0.435745 0.398745 -0.806926
vn -0.612744 0.160224 -0.773869
vn -0.553415 0.259580 -0.791422
vn -0.553415 0.259580 -0.791422
vn -0.428617 0.431284 -0.793903
vn -0.435745 0.398745 -0.806926
vn -0.204024 0.363240 0.909082
vn -0.278620 0.257779 0.925160
vn -0.307957 0.255319 0.916501
vn -0.307957 0.255319 0.916501
vn -0.143053 0.445592 0.883733
vn -0.204024 0.363240 0.909082
vn -0.294591 0.826173 -0.480266
vn -0.626969 0.627003 -0.462360
vn -0.393865 0.420020 -0.817590
vn -0.393865 0.420020 -0.817590
vn -0.249408 0.554625 -0.793843
vn -0.294591 0.826173 -0.480266
vn -0.312237 0.855601 0.412861
vn -0.292716 0.635750 0.714241
vn -0.466220 0.482163 0.741726
vn -0.466220 0.482163 0.741726
vn -0.649548 0.639143 0.411805
vn -0.312237 0.855601 0.412861
vn -0.578261 -0.152451 -0.801482
vn -0.516566 -0.335924 -0.787601
vn -0.436131 -0.353043 -0.827738
vn -0.436131 -0.353043 -0.827738
vn -0.483717 -0.236161 -0.842761
vn -0.578261 -0.152451 -0.801482
vn 0.237588 -0.685824 -0.687893
vn 0.684754 -0.687051 -0.243047
vn 0.337878 -0.876783 -0.342184
vn 0.340766 -0.863077 0.372795
vn 0.698369 -0.674202 0.240276
vn 0.251307 -0.636337 0.729328
vn -0.840901 -0.317738 0.438096
vn -0.599460 -0.294672 0.744188
vn -0.454207 -0.463731 0.760690
vn -0.454207 -0.463731 0.760690
vn -0.633212 -0.644320 0.428829
vn -0.840901 -0.317738 0.438096
vn -0.341259 -0.875615 -0.341819
vn -0.686161 -0.685973 -0.242124
vn -0.241342 -0.685808 -0.686602
vn 0.636980 -0.622565 -0.454609
vn 0.825895 -0.300564 -0.477030
vn 0.545540 -0.247591 -0.800677
vn 0.545540 -0.247591 -0.800677
vn 0.424563 -0.365069 -0.828536
vn 0.636980 -0.622565 -0.454609
vn -0.628241 -0.628259 -0.458916
vn -0.410207 -0.410336 -0.814466
vn -0.540634 -0.262511 -0.799251
vn -0.540634 -0.262511 -0.799251
vn -0.825669 -0.297989 -0.479033
vn -0.628241 -0.628259 -0.458916
vn 0.243923 -0.257555 0.934969
vn 0.331490 -0.179579 0.926210
vn 0.733122 -0.279042 0.620215
vn 0.733122 -0.279042 0.620215
vn 0.574914 -0.589633 0.567281
vn 0.243923 -0.257555 0.934969
vn -0.321359 -0.874992 0.362101
vn 0.340766 -0.863077 0.372795
vn 0.251307 -0.636337 0.729328
vn 0.251307 -0.636337 0.729328
vn -0.164252 -0.630970 0.758220
vn -0.321359 -0.874992 0.362101
vn -0.602340 -0.718779 0.347193
vn -0.686844 -0.685743 -0.240837
vn -0.345090 -0.874474 -0.340894
vn -0.345090 -0.874474 -0.340894
vn -0.321359 -0.874992 0.362101
vn -0.602340 -0.718779 0.347193
vn 0.337878 -0.876783 -0.342184
vn -0.345090 -0.874474 -0.340894
vn -0.246000 -0.686219 -0.684535
vn -0.246000 -0.686219 -0.684535
vn 0.237588 -0.685824 -0.687893
vn 0.337878 -0.876783 -0.342184
vn 0.684754 -0.687051 -0.243047
vn 0.698369 -0.674202 0.240276
vn 0.340766 -0.863077 0.372795
vn 0.340766 -0.863077 0.372795
vn 0.337878 -0.876783 -0.342184
vn 0.684754 -0.687051 -0.243047
vn -0.002704 0.865348 0.501163
vn 0.003904 0.819069 0.573681
vn 0.005737 0.359054 0.933299
vn 0.005737 0.359054 0.933299
vn -0.006156 0.497587 0.867392
vn -0.002704 0.865348 0.501163
vn -0.649548 0.639143 0.411805
vn -0.626969 0.627003 -0.462360
vn -0.294591 0.826173 -0.480266
vn -0.294591 0.826173 -0.480266
vn -0.312237 0.855601 0.412861
vn -0.649548 0.639143 0.411805
vn -0.456156 -0.011686 0.889823
vn -0.570661 -0.014389 0.821060
vn -0.569304 -0.014357 0.822002
vn -0.569304 -0.014357 0.822002
vn -0.453968 -0.011634 0.890942
vn -0.456156 -0.011686 0.889823
vn 0.959681 -0.004910 0.281049
vn 0.944186 -0.008261 0.329309
vn 0.790424 -0.015236 0.612370
vn 0.790424 -0.015236 0.612370
vn 0.841913 -0.009381 0.539532
vn 0.959681 -0.004910 0.281049
vn 0.393096 -0.774207 0.496063
vn 0.341923 -0.875357 -0.341818
vn 0.686095 -0.686034 -0.242141
vn 0.686095 -0.686034 -0.242141
vn 0.761041 -0.633811 0.138203
vn 0.393096 -0.774207 0.496063
vn 0.341597 0.875560 -0.341623
vn 0.348595 0.888789 0.297549
vn 0.694497 0.689066 0.207032
vn 0.694497 0.689066 0.207032
vn 0.686139 0.686078 -0.241888
vn 0.341597 0.875560 -0.341623
vn -0.707133 -0.000068 -0.707080
vn -0.708584 0.000000 -0.705626
vn -0.708535 -0.000002 -0.705675
vn -0.708535 -0.000002 -0.705675
vn -0.707102 -0.000069 -0.707111
vn -0.707133 -0.000068 -0.707080
vn -0.387208 -0.921992 -0.000002
vn -0.398121 -0.917333 -0.000005
vn -0.706812 -0.707402 -0.000004
vn -0.706812 -0.707402 -0.000004
vn -0.706771 -0.707442 -0.000003
vn -0.387208 -0.921992 -0.000002
vn -0.688251 -0.693290 0.213680
vn -0.686161 -0.685973 -0.242124
vn -0.341259 -0.875615 -0.341819
vn -0.341259 -0.875615 -0.341819
vn -0.348334 -0.891635 0.289225
vn -0.688251 -0.693290 0.213680
vn -0.348334 -0.891635 0.289225
vn 0.393096 -0.774207 0.496063
vn 0.366197 -0.419936 0.830393
vn 0.366197 -0.419936 0.830393
vn -0.233930 -0.766659 0.597922
vn -0.348334 -0.891635 0.289225
vn -0.628241 -0.628259 -0.458916
vn -0.825669 -0.297989 -0.479033
vn -0.840901 -0.317738 0.438096
vn -0.840901 -0.317738 0.438096
vn -0.633212 -0.644320 0.428829
vn -0.628241 -0.628259 -0.458916
vn -0.686115 0.686103 -0.241888
vn -0.694130 0.688684 0.209519
vn -0.348612 0.887582 0.301111
vn -0.348612 0.887582 0.301111
vn -0.341583 0.875565 -0.341625
vn -0.686115 0.686103 -0.241888
vn 0.348595 0.888789 0.297549
vn -0.348612 0.887582 0.301111
vn -0.241580 0.753034 0.612028
vn -0.241580 0.753034 0.612028
vn 0.237725 0.759065 0.606059
vn 0.348595 0.888789 0.297549
vn -0.341583 0.875565 -0.341625
vn 0.341597 0.875560 -0.341623
vn 0.241818 0.686043 -0.686199
vn 0.241818 0.686043 -0.686199
vn -0.241809 0.686045 -0.686200
vn -0.341583 0.875565 -0.341625
vn -0.707217 0.000029 -0.706996
vn -0.707945 0.000231 -0.706268
vn -0.894745 0.000134 -0.446578
vn -0.894745 0.000134 -0.446578
vn -0.923889 0.000000 -0.382660
vn -0.707217 0.000029 -0.706996
vn -0.943198 -0.005831 0.332180
vn -0.932202 -0.009270 0.361819
vn -0.797031 -0.014362 0.603768
vn -0.797031 -0.014362 0.603768
vn -0.782962 -0.010229 0.621985
vn -0.943198 -0.005831 0.332180
vn -0.400413 0.916335 0.000003
vn -0.398688 0.917086 0.000007
vn -0.707348 0.706865 0.000005
vn -0.707348 0.706865 0.000005
vn -0.707345 0.706869 0.000005
vn -0.400413 0.916335 0.000003
vn -0.407230 -0.913325 -0.000006
vn -0.410871 -0.911693 -0.000011
vn -0.707064 -0.707149 -0.000008
vn -0.707064 -0.707149 -0.000008
vn -0.707094 -0.707120 -0.000009
vn -0.407230 -0.913325 -0.000006
vn 0.636980 -0.622565 -0.454609
vn 0.574914 -0.589633 0.567281
vn 0.733122 -0.279042 0.620215
vn 0.733122 -0.279042 0.620215
vn 0.825895 -0.300564 -0.477030
vn 0.636980 -0.622565 -0.454609
vn -0.027301 0.706803 -0.706884
vn -0.156608 0.698382 -0.698382
vn -0.105946 0.906526 -0.408640
vn -0.105946 0.906526 -0.408640
vn -0.015501 0.920357 -0.390772
vn -0.027301 0.706803 -0.706884
vn -0.156686 -0.698434 -0.698312
vn -0.055835 -0.707106 -0.704900
vn -0.055826 -0.707034 -0.704972
vn -0.055826 -0.707034 -0.704972
vn -0.180618 -0.695484 -0.695471
vn -0.156686 -0.698434 -0.698312
vn -0.105946 0.906526 -0.408640
vn -0.156608 0.698382 -0.698382
vn -0.357179 0.660466 -0.660460
vn -0.357179 0.660466 -0.660460
vn -0.236478 0.894069 -0.380420
vn -0.105946 0.906526 -0.408640
vn -0.357176 -0.660473 -0.660455
vn -0.156686 -0.698434 -0.698312
vn -0.180618 -0.695484 -0.695471
vn -0.180618 -0.695484 -0.695471
vn -0.402393 -0.647341 -0.647324
vn -0.357176 -0.660473 -0.660455
vn -0.236478 0.894069 -0.380420
vn -0.357179 0.660466 -0.660460
vn -0.546029 0.592389 -0.592391
vn -0.546029 0.592389 -0.592391
vn -0.369141 0.866423 -0.336223
vn -0.236478 0.894069 -0.380420
vn -0.546025 -0.592396 -0.592388
vn -0.357176 -0.660473 -0.660455
vn -0.402393 -0.647341 -0.647324
vn -0.402393 -0.647341 -0.647324
vn -0.613229 -0.558551 -0.558543
vn -0.546025 -0.592396 -0.592388
vn -0.369141 0.866423 -0.336223
vn -0.546029 0.592389 -0.592391
vn -0.736801 0.478082 -0.478082
vn -0.736801 0.478082 -0.478082
vn -0.513130 0.819034 -0.256674
vn -0.369141 0.866423 -0.336223
vn -0.736798 -0.478089 -0.478080
vn -0.546025 -0.592396 -0.592388
vn -0.613229 -0.558551 -0.558543
vn -0.613229 -0.558551 -0.558543
vn -0.809150 -0.425977 -0.404747
vn -0.736798 -0.478089 -0.478080
vn -0.513130 0.819034 -0.256674
vn -0.736801 0.478082 -0.478082
vn -0.695137 0.699440 -0.166034
vn -0.695137 0.699440 -0.166034
vn -0.390564 0.916068 -0.090993
vn -0.513130 0.819034 -0.256674
vn -0.695632 -0.698471 -0.168033
vn -0.736798 -0.478089 -0.478080
vn -0.809150 -0.425977 -0.404747
vn -0.809150 -0.425977 -0.404747
vn -0.685387 -0.709983 -0.161766
vn -0.695632 -0.698471 -0.168033
vn -0.390564 0.916068 -0.090993
vn -0.695137 0.699440 -0.166034
vn -0.750039 0.660955 -0.024082
vn -0.750039 0.660955 -0.024082
vn -0.449376 0.893234 0.013957
vn -0.390564 0.916068 -0.090993
vn -0.715998 -0.698028 -0.010192
vn -0.714793 -0.699282 0.008680
vn -0.695632 -0.698471 -0.168033
vn -0.695632 -0.698471 -0.168033
vn -0.685387 -0.709983 -0.161766
vn -0.715998 -0.698028 -0.010192
vn -0.449376 0.893234 0.013957
vn -0.750039 0.660955 -0.024082
vn -0.696882 0.695976 0.173126
vn -0.696882 0.695976 0.173126
vn -0.387424 0.917023 0.094718
vn -0.449376 0.893234 0.013957
vn -0.685988 -0.709888 0.159621
vn -0.695131 -0.699447 0.166031
vn -0.714793 -0.699282 0.008680
vn -0.714793 -0.699282 0.008680
vn -0.715998 -0.698028 -0.010192
vn -0.685988 -0.709888 0.159621
vn -0.696882 0.695976 0.173126
vn -0.736801 0.478081 0.478082
vn -0.513130 0.819034 0.256674
vn -0.513130 0.819034 0.256674
vn -0.387424 0.917023 0.094718
vn -0.696882 0.695976 0.173126
vn -0.809150 -0.425977 0.404747
vn -0.736798 -0.478088 0.478080
vn -0.695131 -0.699447 0.166031
vn -0.695131 -0.699447 0.166031
vn -0.685988 -0.709888 0.159621
vn -0.809150 -0.425977 0.404747
vn -0.736801 0.478081 0.478082
vn -0.546021 0.592393 0.592395
vn -0.369140 0.866423 0.336225
vn -0.369140 0.866423 0.336225
vn -0.513130 0.819034 0.256674
vn -0.736801 0.478081 0.478082
vn -0.613225 -0.558554 0.558545
vn -0.546017 -0.592400 0.592391
vn -0.736798 -0.478088 0.478080
vn -0.736798 -0.478088 0.478080
vn -0.809150 -0.425977 0.404747
vn -0.613225 -0.558554 0.558545
vn -0.546021 0.592393 0.592395
vn -0.396714 0.645979 0.652172
vn -0.247012 0.896166 0.368608
vn -0.247012 0.896166 0.368608
vn -0.369140 0.866423 0.336225
vn -0.546021 0.592393 0.592395
vn -0.402391 -0.647339 0.647328
vn -0.354171 -0.671599 0.650782
vn -0.546017 -0.592400 0.592391
vn -0.546017 -0.592400 0.592391
vn -0.613225 -0.558554 0.558545
vn -0.402391 -0.647339 0.647328
vn -0.396714 0.645979 0.652172
vn -0.187495 0.593851 0.782424
vn -0.134901 0.869934 0.474360
vn -0.134901 0.869934 0.474360
vn -0.247012 0.896166 0.368608
vn -0.396714 0.645979 0.652172
vn -0.140135 -0.844357 0.517130
vn -0.103446 -0.861195 0.497637
vn -0.354171 -0.671599 0.650782
vn -0.354171 -0.671599 0.650782
vn -0.402391 -0.647339 0.647328
vn -0.140135 -0.844357 0.517130
vn -0.187495 0.593851 0.782424
vn 0.005737 0.359054 0.933299
vn 0.003904 0.819069 0.573681
vn 0.003904 0.819069 0.573681
vn -0.134901 0.869934 0.474360
vn -0.187495 0.593851 0.782424
vn -0.234918 -0.387090 0.891614
vn -0.103446 -0.861195 0.497637
vn -0.140135 -0.844357 0.517130
vn -0.140135 -0.844357 0.517130
vn -0.208151 -0.409851 0.888085
vn -0.234918 -0.387090 0.891614
vn -0.057066 0.706810 -0.705098
vn -0.157607 0.698269 -0.698269
vn -0.181265 0.695432 -0.695354
vn -0.181265 0.695432 -0.695354
vn -0.057028 0.706953 -0.704958
vn -0.057066 0.706810 -0.705098
vn -0.155685 -0.698555 -0.698415
vn -0.311424 -0.530981 -0.788083
vn -0.228122 -0.600422 -0.766455
vn -0.228122 -0.600422 -0.766455
vn -0.179924 -0.695567 -0.695567
vn -0.155685 -0.698555 -0.698415
vn -0.181265 0.695432 -0.695354
vn -0.157607 0.698269 -0.698269
vn -0.357179 0.660466 -0.660460
vn -0.357179 0.660466 -0.660460
vn -0.402396 0.647335 -0.647329
vn -0.181265 0.695432 -0.695354
vn -0.357181 -0.660465 -0.660460
vn -0.155685 -0.698555 -0.698415
vn -0.179924 -0.695567 -0.695567
vn -0.179924 -0.695567 -0.695567
vn -0.402394 -0.647335 -0.647330
vn -0.357181 -0.660465 -0.660460
vn -0.402396 0.647335 -0.647329
vn -0.357179 0.660466 -0.660460
vn -0.546029 0.592389 -0.592391
vn -0.546029 0.592389 -0.592391
vn -0.613232 0.558544 -0.558547
vn -0.402396 0.647335 -0.647329
vn -0.546025 -0.592391 -0.592393
vn -0.357181 -0.660465 -0.660460
vn -0.402394 -0.647335 -0.647330
vn -0.402394 -0.647335 -0.647330
vn -0.613230 -0.558545 -0.558548
vn -0.546025 -0.592391 -0.592393
vn -0.613232 0.558544 -0.558547
vn -0.546029 0.592389 -0.592391
vn -0.736801 0.478082 -0.478082
vn -0.736801 0.478082 -0.478082
vn -0.809152 0.425972 -0.404748
vn -0.613232 0.558544 -0.558547
vn -0.736801 -0.478082 -0.478082
vn -0.546025 -0.592391 -0.592393
vn -0.613230 -0.558545 -0.558548
vn -0.613230 -0.558545 -0.558548
vn -0.809152 -0.425972 -0.404748
vn -0.736801 -0.478082 -0.478082
vn -0.809152 0.425972 -0.404748
vn -0.736801 0.478082 -0.478082
vn -0.695638 0.698464 -0.168035
vn -0.695638 0.698464 -0.168035
vn -0.685393 0.709977 -0.161768
vn -0.809152 0.425972 -0.404748
vn -0.696094 -0.697563 -0.169881
vn -0.736801 -0.478082 -0.478082
vn -0.809152 -0.425972 -0.404748
vn -0.809152 -0.425972 -0.404748
vn -0.684890 -0.710006 -0.163758
vn -0.696094 -0.697563 -0.169881
vn -0.695638 0.698464 -0.168035
vn -0.714799 0.699276 0.008680
vn -0.716005 0.698021 -0.010192
vn -0.716005 0.698021 -0.010192
vn -0.685393 0.709977 -0.161768
vn -0.695638 0.698464 -0.168035
vn -0.730733 -0.682473 -0.016127
vn -0.726739 -0.686754 0.014791
vn -0.696094 -0.697563 -0.169881
vn -0.696094 -0.697563 -0.169881
vn -0.684890 -0.710006 -0.163758
vn -0.730733 -0.682473 -0.016127
vn -0.714799 0.699276 0.008680
vn -0.695137 0.699441 0.166033
vn -0.685994 0.709882 0.159623
vn -0.685994 0.709882 0.159623
vn -0.716005 0.698021 -0.010192
vn -0.714799 0.699276 0.008680
vn -0.686274 -0.709584 0.159745
vn -0.695137 -0.699441 0.166033
vn -0.726739 -0.686754 0.014791
vn -0.726739 -0.686754 0.014791
vn -0.730733 -0.682473 -0.016127
vn -0.686274 -0.709584 0.159745
vn -0.695137 0.699441 0.166033
vn -0.736801 0.478081 0.478082
vn -0.809152 0.425971 0.404748
vn -0.809152 0.425971 0.404748
vn -0.685994 0.709882 0.159623
vn -0.695137 0.699441 0.166033
vn -0.809152 -0.425971 0.404748
vn -0.736801 -0.478081 0.478082
vn -0.695137 -0.699441 0.166033
vn -0.695137 -0.699441 0.166033
vn -0.686274 -0.709584 0.159745
vn -0.809152 -0.425971 0.404748
vn -0.736801 0.478081 0.478082
vn -0.546021 0.592393 0.592395
vn -0.613228 0.558547 0.558549
vn -0.613228 0.558547 0.558549
vn -0.809152 0.425971 0.404748
vn -0.736801 0.478081 0.478082
vn -0.613230 -0.558546 0.558547
vn -0.546025 -0.592392 0.592393
vn -0.736801 -0.478081 0.478082
vn -0.736801 -0.478081 0.478082
vn -0.809152 -0.425971 0.404748
vn -0.613230 -0.558546 0.558547
vn -0.546021 0.592393 0.592395
vn -0.356489 0.663011 0.658280
vn -0.402394 0.647332 0.647333
vn -0.402394 0.647332 0.647333
vn -0.613228 0.558547 0.558549
vn -0.546021 0.592393 0.592395
vn -0.402395 -0.647332 0.647332
vn -0.357049 -0.660963 0.660033
vn -0.546025 -0.592392 0.592393
vn -0.546025 -0.592392 0.592393
vn -0.613230 -0.558546 0.558547
vn -0.402395 -0.647332 0.647332
vn -0.356489 0.663011 0.658280
vn -0.143205 0.741302 0.655716
vn -0.168949 0.744499 0.645893
vn -0.168949 0.744499 0.645893
vn -0.402394 0.647332 0.647333
vn -0.356489 0.663011 0.658280
vn -0.164942 -0.707629 0.687063
vn -0.139541 -0.705430 0.694908
vn -0.357049 -0.660963 0.660033
vn -0.357049 -0.660963 0.660033
vn -0.402395 -0.647332 0.647332
vn -0.164942 -0.707629 0.687063
vn -0.143205 0.741302 0.655716
vn -0.204024 0.363240 0.909082
vn -0.143053 0.445592 0.883733
vn -0.143053 0.445592 0.883733
vn -0.168949 0.744499 0.645893
vn -0.143205 0.741302 0.655716
vn -0.143104 -0.494361 0.857396
vn -0.217951 -0.424374 0.878865
vn -0.139541 -0.705430 0.694908
vn -0.139541 -0.705430 0.694908
vn -0.164942 -0.707629 0.687063
vn -0.143104 -0.494361 0.857396
vn -0.004301 -0.799834 0.600205
vn 0.000000 -0.916278 0.400542
vn -0.000086 -0.753125 0.657877
vn -0.000086 -0.753125 0.657877
vn -0.006295 -0.487137 0.873303
vn -0.004301 -0.799834 0.600205
vn 0.000001 -0.709095 -0.705113
vn 0.000038 -0.707538 -0.706675
vn 0.000024 -0.896267 -0.443514
vn 0.000024 -0.896267 -0.443514
vn 0.000000 -0.894780 -0.446508
vn 0.000001 -0.709095 -0.705113
vn -0.511460 -0.016389 0.859151
vn -0.478337 -0.015191 0.878045
vn -0.478967 -0.015214 0.877701
vn -0.478967 -0.015214 0.877701
vn -0.513041 -0.016447 0.858207
vn -0.511460 -0.016389 0.859151
vn -0.553415 0.259580 -0.791422
vn -0.612744 0.160224 -0.773869
vn -0.578261 -0.152451 -0.801482
vn -0.578261 -0.152451 -0.801482
vn -0.483717 -0.236161 -0.842761
vn -0.553415 0.259580 -0.791422
vn 0.923778 -0.000003 -0.382928
vn 0.706739 -0.000005 -0.707475
vn 0.707129 0.000026 -0.707085
vn 0.707129 0.000026 -0.707085
vn 0.923899 0.000015 -0.382636
vn 0.923778 -0.000003 -0.382928
vn 0.242093 -0.685675 -0.686469
vn 0.341923 -0.875357 -0.341818
vn -0.341259 -0.875615 -0.341819
vn -0.341259 -0.875615 -0.341819
vn -0.241342 -0.685808 -0.686602
vn 0.242093 -0.685675 -0.686469
vn -0.292716 0.635750 0.714241
vn -0.312237 0.855601 0.412861
vn -0.002704 0.865348 0.501163
vn -0.002704 0.865348 0.501163
vn -0.006156 0.497587 0.867392
vn -0.292716 0.635750 0.714241
vn -0.015501 0.920357 -0.390772
vn 0.000000 0.923871 -0.382705
vn -0.000000 0.707065 -0.707148
vn -0.000000 0.707065 -0.707148
vn -0.027301 0.706803 -0.706884
vn -0.015501 0.920357 -0.390772
vn 0.331490 -0.179579 0.926210
vn 0.713564 -0.012047 0.700487
vn 0.928221 -0.006434 0.371973
vn 0.928221 -0.006434 0.371973
vn 0.733122 -0.279042 0.620215
vn 0.331490 -0.179579 0.926210
vn 0.924098 -0.000009 -0.382156
vn 0.707077 -0.000017 -0.707137
vn 0.545540 -0.247591 -0.800677
vn 0.545540 -0.247591 -0.800677
vn 0.825895 -0.300564 -0.477030
vn 0.924098 -0.000009 -0.382156
vn -0.000069 -1.000000 -0.000198
vn 0.000000 -1.000000 -0.000141
vn -0.000054 -1.000000 -0.000186
vn -0.000054 -1.000000 -0.000186
vn -0.000123 -1.000000 -0.000243
vn -0.000069 -1.000000 -0.000198
vn 1.000000 0.000628 0.000026
vn 1.000000 0.000000 -0.000137
vn 1.000000 0.000120 -0.000106
vn 1.000000 0.000120 -0.000106
vn 1.000000 0.000748 0.000057
vn 1.000000 0.000628 0.000026
vn 0.000071 1.000000 -0.000283
vn 0.000000 1.000000 -0.000225
vn 0.000056 1.000000 -0.000271
vn 0.000056 1.000000 -0.000271
vn 0.000127 1.000000 -0.000330
vn 0.000071 1.000000 -0.000283
vn -1.000000 -0.000642 0.000063
vn -1.000000 0.000000 -0.000101
vn -1.000000 -0.000122 -0.000070
vn -1.000000 -0.000122 -0.000070
vn -1.000000 -0.000765 0.000095
vn -1.000000 -0.000642 0.000063
vn 0.000000 -0.000000 1.000000
vn 0.000000 -0.000000 1.000000
vn 0.000000 -0.000000 1.000000
vn 0.000000 -0.000000 1.000000
vn 0.000000 -0.000000 1.000000
vn 0.000000 -0.000000 1.000000
vn -0.000069 -1.000000 -0.000151
vn 0.000000 -1.000000 -0.000094
vn -0.000054 -1.000000 -0.000139
vn -0.000054 -1.000000 -0.000139
vn -0.000123 -1.000000 -0.000196
vn -0.000069 -1.000000 -0.000151
vn 1.000000 -0.000063 0.000043
vn 1.000000 -0.000000 0.000059
vn 1.000000 -0.000012 0.000056
vn 1.000000 -0.000012 0.000056
vn 1.000000 -0.000075 0.000040
vn 1.000000 -0.000063 0.000043
vn 0.000069 1.000000 0.000188
vn 0.000000 1.000000 0.000244
vn 0.000054 1.000000 0.000200
vn 0.000054 1.000000 0.000200
vn 0.000123 1.000000 0.000143
vn 0.000069 1.000000 0.000188
vn -1.000000 0.000068 -0.000097
vn -1.000000 0.000000 -0.000080
vn -1.000000 0.000013 -0.000083
vn -1.000000 0.000013 -0.000083
vn -1.000000 0.000081 -0.000101
vn -1.000000 0.000068 -0.000097
vn 0.000000 -0.000008 1.000000
vn 0.000000 -0.000008 1.000000
vn 0.000000 -0.000008 1.000000
vn 0.000000 -0.000008 1.000000
vn 0.000000 -0.000008 1.000000
vn 0.000000 -0.000008 1.000000
vn -0.000069 -1.000000 -0.000109
vn 0.000000 -1.000000 -0.000052
vn -0.000054 -1.000000 -0.000096
vn -0.000054 -1.000000 -0.000096
vn -0.000123 -1.000000 -0.000153
vn -0.000069 -1.000000 -0.000109
vn 1.000000 -0.000059 0.000024
vn 1.000000 -0.000000 0.000040
vn 1.000000 -0.000011 0.000037
vn 1.000000 -0.000011 0.000037
vn 1.000000 -0.000070 0.000022
vn 1.000000 -0.000059 0.000024
vn 0.000069 1.000000 0.000143
vn 0.000000 1.000000 0.000200
vn 0.000054 1.000000 0.000156
vn 0.000054 1.000000 0.000156
vn 0.000124 1.000000 0.000098
vn 0.000069 1.000000 0.000143
vn 0.000000 -0.000008 1.000000
vn 0.000000 -0.000008 1.000000
vn 0.000000 -0.000008 1.000000
vn 0.000000 -0.000008 1.000000
vn 0.000000 -0.000008 1.000000
vn 0.000000 -0.000008 1.000000
vn -1.000000 0.000056 -0.000079
vn -1.000000 0.000000 -0.000064
vn -1.000000 0.000010 -0.000067
vn -1.000000 0.000010 -0.000067
vn -1.000000 0.000066 -0.000081
vn -1.000000 0.000056 -0.000079
vn 0.000068 1.000000 0.000099
vn 0.000000 1.000000 0.000155
vn 0.000053 1.000000 0.000112
vn 0.000053 1.000000 0.000112
vn 0.000121 1.000000 0.000056
vn 0.000068 1.000000 0.000099
vn -1.000000 0.000009 -0.000060
vn -1.000000 -0.000024 -0.000063
vn -1.000000 0.000044 -0.000050
vn -1.000000 0.000044 -0.000050
vn -1.000000 0.000055 -0.000048
vn -1.000000 0.000009 -0.000060
vn 0.000000 -0.000000 1.000000
vn 0.000000 -0.000000 1.000000
vn 0.000000 -0.000000 1.000000
vn 0.000000 -0.000000 1.000000
vn 0.000000 -0.000000 1.000000
vn 0.000000 -0.000000 1.000000
vn -0.000070 -1.000000 -0.000074
vn 0.000000 -1.000000 -0.000016
vn -0.000054 -1.000000 -0.000060
vn -0.000054 -1.000000 -0.000060
vn -0.000124 -1.000000 -0.000117
vn -0.000070 -1.000000 -0.000074
vn 1.000000 -0.000053 -0.000074
vn 1.000000 0.000000 -0.000063
vn 1.000000 -0.000008 -0.000065
vn 1.000000 -0.000008 -0.000065
vn 1.000000 -0.000060 -0.000075
vn 1.000000 -0.000053 -0.000074
vn 0.000048 1.000000 -0.000044
vn 0.000000 1.000000 0.000025
vn 0.000076 1.000000 -0.000082
vn 0.000076 1.000000 -0.000082
vn 0.000125 1.000000 -0.000151
vn 0.000048 1.000000 -0.000044
vn -1.000000 0.000048 -0.000009
vn -1.000000 -0.000000 0.000001
vn -1.000000 0.000007 -0.000000
vn -1.000000 0.000007 -0.000000
vn -1.000000 0.000056 -0.000010
vn -1.000000 0.000048 -0.000009
vn -0.000049 -1.000000 0.000112
vn 0.000000 -1.000000 0.000182
vn -0.000076 -1.000000 0.000074
vn -0.000076 -1.000000 0.000074
vn -0.000125 -1.000000 0.000004
vn -0.000049 -1.000000 0.000112
vn 0.000000 -0.000000 1.000000
vn 0.000000 -0.000000 1.000000
vn 0.000000 -0.000000 1.000000
vn 0.000000 -0.000000 1.000000
vn 0.000000 -0.000000 1.000000
vn 0.000000 -0.000000 1.000000
vn -0.006769 -0.017634 0.999822
vn -0.007157 -0.017315 0.999825
vn -0.006641 -0.017601 0.999823
vn 1.000000 -0.000008 0.000017
vn 1.000000 -0.000061 0.000006
vn 1.000000 -0.000053 0.000008
vn 1.000000 -0.000053 0.000008
vn 1.000000 -0.000000 0.000019
vn 1.000000 -0.000008 0.000017
vn -0.006641 -0.017601 0.999823
vn -0.007467 -0.017825 0.999813
vn -0.007257 -0.017566 0.999819
vn -0.007257 -0.017566 0.999819
vn -0.006769 -0.017634 0.999822
vn -0.006641 -0.017601 0.999823
vn -0.007151 -0.017308 0.999825
vn -0.007151 -0.017301 0.999825
vn -0.007135 -0.017299 0.999825
vn -0.007135 -0.017299 0.999825
vn -0.007161 -0.017312 0.999824
vn -0.007151 -0.017308 0.999825
vn -0.007151 -0.017308 0.999825
vn -0.007161 -0.017312 0.999824
vn -0.007157 -0.017313 0.999825
vn -0.006400 -0.017411 0.999828
vn -0.005364 -0.019125 0.999803
vn -0.006235 -0.019484 0.999791
vn -0.006235 -0.019484 0.999791
vn -0.007157 -0.017307 0.999825
vn -0.006400 -0.017411 0.999828
vn -0.005364 -0.019125 0.999803
vn -0.006400 -0.017411 0.999828
vn -0.004446 -0.015940 0.999863
vn -0.004446 -0.015940 0.999863
vn -0.005184 -0.017287 0.999837
vn -0.005364 -0.019125 0.999803
vn -0.006769 -0.017634 0.999822
vn -0.007162 -0.017314 0.999824
vn -0.007157 -0.017313 0.999825
vn -0.007157 -0.017313 0.999825
vn -0.007158 -0.017310 0.999825
vn -0.006769 -0.017634 0.999822
vn 0.000000 0.000000 -1.000000
vn 0.000000 0.000000 -1.000000
vn 0.000000 0.000000 -1.000000
vn 0.000000 0.000000 -1.000000
vn 0.000000 0.000000 -1.000000
vn 0.000000 0.000000 -1.000000
vn -0.294591 0.826173 -0.480266
vn 0.000000 0.923871 -0.382705
vn -0.002704 0.865348 0.501163
vn -0.002704 0.865348 0.501163
vn -0.312237 0.855601 0.412861
vn -0.294591 0.826173 -0.480266
vn -0.294591 0.826173 -0.480266
vn -0.249408 0.554625 -0.793843
vn -0.000000 0.707065 -0.707148
vn -0.000000 0.707065 -0.707148
vn 0.000000 0.923871 -0.382705
vn -0.294591 0.826173 -0.480266
vn -0.006769 -0.017634 0.999822
vn -0.007158 -0.017310 0.999825
vn -0.007157 -0.017315 0.999825
vn 0.000000 -0.000000 1.000000
vn 0.000000 -0.000000 1.000000
vn 0.000000 -0.000000 1.000000
vn 0.000000 -0.000000 1.000000
vn 0.000000 -0.000000 1.000000
vn 0.000000 -0.000000 1.000000
vn 1.000000 -0.000023 0.000019
vn 1.000000 0.000050 0.000023
vn 1.000000 0.000048 0.000023
vn 1.000000 0.000048 0.000023
vn 1.000000 -0.000025 0.000019
vn 1.000000 -0.000023 0.000019
vn -0.007157 -0.017315 0.999825
vn -0.007158 -0.017310 0.999825
vn -0.007157 -0.017307 0.999825
vn -0.007157 -0.017307 0.999825
vn -0.006235 -0.019484 0.999791
vn -0.007157 -0.017315 0.999825
vn -1.000000 -0.000024 -0.000063
vn -1.000000 -0.000050 -0.000064
vn -1.000000 0.000044 -0.000050
vn -0.005184 -0.017287 0.999837
vn -0.004446 -0.015940 0.999863
vn -0.005150 -0.017292 0.999837
vn -0.007772 -0.017168 0.999822
vn -0.007549 -0.016596 0.999834
vn -0.007257 -0.017566 0.999819
vn -0.007257 -0.017566 0.999819
vn -0.007154 -0.017303 0.999825
vn -0.007772 -0.017168 0.999822
vn 0.959681 -0.004910 0.281049
vn 0.841913 -0.009381 0.539532
vn 0.818646 -0.008568 0.574235
vn 0.818646 -0.008568 0.574235
vn 0.954463 -0.004439 0.298296
vn 0.959681 -0.004910 0.281049
vn 0.959681 -0.004910 0.281049
vn 0.954463 -0.004439 0.298296
vn 0.923931 -0.000001 -0.382560
vn 0.923931 -0.000001 -0.382560
vn 0.923778 -0.000003 -0.382928
vn 0.959681 -0.004910 0.281049
vn 0.706739 -0.000005 -0.707475
vn 0.923778 -0.000003 -0.382928
vn 0.923931 -0.000001 -0.382560
vn 0.923931 -0.000001 -0.382560
vn 0.707140 -0.000001 -0.707074
vn 0.706739 -0.000005 -0.707475
vn 0.000000 0.000000 -1.000000
vn 0.000000 0.000000 -1.000000
vn 0.000000 0.000000 -1.000000
vn 0.000000 0.000000 -1.000000
vn 0.000000 0.000000 -1.000000
vn 0.000000 0.000000 -1.000000
vn -0.825669 -0.297989 -0.479033
vn -0.540634 -0.262511 -0.799251
vn -0.707165 0.000000 -0.707049
vn -0.707165 0.000000 -0.707049
vn -0.923933 0.000000 -0.382555
vn -0.825669 -0.297989 -0.479033
vn -0.825669 -0.297989 -0.479033
vn -0.923933 0.000000 -0.382555
vn -0.946590 -0.005657 0.322390
vn -0.946590 -0.005657 0.322390
vn -0.840901 -0.317738 0.438096
vn -0.825669 -0.297989 -0.479033
vn -0.599460 -0.294672 0.744188
vn -0.840901 -0.317738 0.438096
vn -0.946590 -0.005657 0.322390
vn -0.946590 -0.005657 0.322390
vn -0.786406 -0.010819 0.617615
vn -0.599460 -0.294672 0.744188
vn -0.005181 -0.017301 0.999837
vn -0.005150 -0.017292 0.999837
vn -0.004446 -0.015940 0.999863
vn -0.007257 -0.017566 0.999819
vn -0.007171 -0.017293 0.999825
vn -0.007154 -0.017303 0.999825
vn -0.005181 -0.017301 0.999837
vn -0.004446 -0.015940 0.999863
vn -0.006592 -0.016565 0.999841
vn -0.006592 -0.016565 0.999841
vn -0.005168 -0.017302 0.999837
vn -0.005181 -0.017301 0.999837
vn -0.008564 -0.017325 0.999813
vn -0.008328 -0.016913 0.999822
vn -0.007549 -0.016596 0.999834
vn -0.007549 -0.016596 0.999834
vn -0.007772 -0.017168 0.999822
vn -0.008564 -0.017325 0.999813
vn -0.005375 -0.016943 0.999842
vn -0.005283 -0.017284 0.999837
vn -0.006592 -0.016565 0.999841
vn -0.007549 -0.016596 0.999834
vn -0.008328 -0.016913 0.999822
vn -0.005375 -0.016943 0.999842
vn -0.005375 -0.016943 0.999842
vn -0.006592 -0.016565 0.999841
vn -0.007549 -0.016596 0.999834
vn -0.005184 -0.017287 0.999837
vn -0.007163 -0.017316 0.999824
vn -0.007467 -0.017825 0.999813
vn -0.007467 -0.017825 0.999813
vn -0.005364 -0.019125 0.999803
vn -0.005184 -0.017287 0.999837
vn -0.005283 -0.017284 0.999837
vn -0.008564 -0.017325 0.999813
vn -0.007772 -0.017168 0.999822
vn -0.007772 -0.017168 0.999822
vn -0.005168 -0.017302 0.999837
vn -0.005283 -0.017284 0.999837
vn -0.007171 -0.017293 0.999825
vn -0.005150 -0.017292 0.999837
vn -0.005181 -0.017301 0.999837
vn -0.005181 -0.017301 0.999837
vn -0.007154 -0.017303 0.999825
vn -0.007171 -0.017293 0.999825
vn -0.005168 -0.017302 0.999837
vn -0.006592 -0.016565 0.999841
vn -0.005283 -0.017284 0.999837
vn 0.000000 0.000000 -1.000000
vn 0.000000 0.000000 -1.000000
vn 0.000000 0.000000 -1.000000
vn -0.006479 -0.017713 0.999822
vn -0.006769 -0.017634 0.999822
vn -0.007257 -0.017566 0.999819
vn 0.000000 0.000000 -1.000000
vn 0.000000 0.000000 -1.000000
vn 0.000000 0.000000 -1.000000
vn 0.000000 0.000000 -1.000000
vn -0.031308 0.000000 -0.999510
vn -0.031646 0.000000 -0.999499
vn -0.031646 0.000000 -0.999499
vn 0.000000 0.000000 -1.000000
vn 0.000000 0.000000 -1.000000
vn -0.007166 -0.017314 0.999824
vn -0.007169 -0.017309 0.999824
vn -0.007153 -0.017311 0.999825
vn -0.007153 -0.017311 0.999825
vn -0.007118 -0.017319 0.999825
vn -0.007166 -0.017314 0.999824
s off
g SM_Desk_03a
f 1/1/1 2/2/2 3/3/3
f 3/3/4 4/4/5 1/1/6
f 64/5/7 131/6/8 215/88/9
f 215/88/10 5/89/11 64/5/12
f 6/9/13 7/18/14 8/19/15
f 11/12/16 133/13/17 134/139/18
f 134/139/19 12/140/20 11/12/21
f 13/14/22 14/36/23 15/40/24
f 125/17/25 174/189/26 18/227/27
f 18/227/28 162/228/29 125/17/30
f 193/20/31 191/27/32 222/98/33
f 163/22/34 164/23/35 23/255/36
f 23/255/37 24/256/38 163/22/39
f 165/24/40 166/25/41 25/257/42
f 25/257/43 26/258/44 165/24/45
f 28/99/46 27/100/47 17/105/48
f 140/26/49 116/90/50 151/91/51
f 151/91/52 29/137/53 140/26/54
f 32/29/55 21/30/56 157/31/57
f 157/31/58 158/32/59 32/29/60
f 27/100/61 28/99/62 6/9/63
f 6/9/64 8/19/65 27/100/66
f 30/96/67 13/14/68 15/40/69
f 15/40/70 31/95/71 30/96/72
f 39/102/73 40/103/74 37/104/75
f 37/104/76 38/112/77 39/102/78
f 42/39/79 39/102/80 38/112/81
f 38/112/82 41/437/83 42/39/84
f 44/43/85 42/39/86 41/437/87
f 41/437/88 43/440/89 44/43/90
f 46/45/91 44/43/92 43/440/93
f 43/440/94 45/443/95 46/45/96
f 48/47/97 46/45/98 45/443/99
f 45/443/100 47/446/101 48/47/102
f 50/49/103 48/47/104 47/446/105
f 47/446/106 49/449/107 50/49/108
f 52/51/109 50/49/110 49/449/111
f 49/449/112 51/450/113 52/51/114
f 54/53/115 52/51/116 51/450/117
f 51/450/118 53/451/119 54/53/120
f 56/55/121 54/53/122 53/451/123
f 53/451/124 55/452/125 56/55/126
f 58/57/127 56/55/128 55/452/129
f 55/452/130 57/130/131 58/57/132
f 60/59/133 58/57/134 57/130/135
f 57/130/136 59/131/137 60/59/138
f 62/61/139 60/59/140 59/131/141
f 59/131/142 61/207/143 62/61/144
f 167/142/145 63/143/146 64/5/147
f 64/5/148 5/89/149 167/142/150
f 141/138/151 142/149/152 65/150/153
f 65/150/154 66/151/155 141/138/156
f 68/203/157 36/101/158 35/97/159
f 35/97/160 67/210/161 68/203/162
f 70/453/163 68/203/164 67/210/165
f 67/210/166 69/454/167 70/453/168
f 72/455/169 70/453/170 69/454/171
f 69/454/172 71/456/173 72/455/174
f 74/457/175 72/455/176 71/456/177
f 71/456/178 73/458/179 74/457/180
f 76/459/181 74/457/182 73/458/183
f 73/458/184 75/460/185 76/459/186
f 78/461/187 76/459/188 75/460/189
f 75/460/190 77/462/191 78/461/192
f 80/463/193 78/461/194 77/462/195
f 77/462/196 79/464/197 80/463/198
f 82/465/199 80/463/200 79/464/201
f 79/464/202 81/466/203 82/465/204
f 84/467/205 82/465/206 81/466/207
f 81/466/208 83/468/209 84/467/210
f 86/469/211 84/467/212 83/468/213
f 83/468/214 85/470/215 86/469/216
f 88/108/217 86/469/218 85/470/219
f 85/470/220 87/109/221 88/108/222
f 33/106/223 88/108/224 87/109/225
f 87/109/226 34/107/227 33/106/228
f 143/152/229 144/153/230 89/154/231
f 89/154/232 90/155/233 143/152/234
f 135/167/235 136/168/236 91/169/237
f 91/169/238 92/170/239 135/167/240
f 93/87/241 159/492/242 160/490/243
f 160/490/244 94/94/245 93/87/246
f 167/142/247 168/144/248 95/145/249
f 95/145/250 63/143/251 167/142/252
f 168/144/253 169/146/254 96/147/255
f 96/147/256 95/145/257 168/144/258
f 169/146/259 170/148/260 97/196/261
f 97/196/262 96/147/263 169/146/264
f 97/196/265 98/247/266 99/250/267
f 101/156/268 102/157/269 146/158/270
f 146/158/271 100/159/272 101/156/273
f 145/160/274 146/158/275 102/157/276
f 102/157/277 103/161/278 145/160/279
f 147/162/280 145/160/281 103/161/282
f 103/161/283 104/163/284 147/162/285
f 142/149/286 147/162/287 104/163/288
f 104/163/289 65/150/290 142/149/291
f 144/153/292 148/164/293 105/165/294
f 105/165/295 89/154/296 144/153/297
f 148/164/298 149/166/299 106/181/300
f 106/181/301 105/165/302 148/164/303
f 149/166/304 150/213/305 107/214/306
f 107/214/307 106/181/308 149/166/309
f 107/214/310 108/215/311 109/216/312
f 136/168/313 137/171/314 110/172/315
f 110/172/316 91/169/317 136/168/318
f 137/171/319 138/173/320 111/174/321
f 111/174/322 110/172/323 137/171/324
f 138/173/325 139/175/326 112/176/327
f 112/176/328 111/174/329 138/173/330
f 114/177/331 112/176/332 139/175/333
f 139/175/334 113/205/335 114/177/336
f 119/211/337 117/424/338 118/425/339
f 9/10/340 129/11/341 120/184/342
f 120/184/343 171/193/344 9/10/345
f 122/110/346 123/111/347 121/194/348
f 222/98/349 123/111/350 122/110/351
f 117/424/352 124/426/353 227/427/354
f 227/427/355 124/426/356 126/428/357
f 126/428/358 128/429/359 227/427/360
f 201/195/361 193/20/362 222/98/363
f 207/197/364 208/198/365 115/199/366
f 115/199/367 130/200/368 207/197/369
f 17/105/370 210/201/371 16/202/372
f 16/202/373 62/61/374 17/105/375
f 17/105/376 62/61/377 61/207/378
f 127/430/379 132/431/380 37/104/381
f 37/104/382 40/103/383 127/430/384
f 127/430/385 30/96/386 31/95/387
f 31/95/388 132/431/389 127/430/390
f 146/158/391 152/217/392 100/159/393
f 139/175/394 153/206/395 113/205/396
f 154/218/397 108/215/398 107/214/399
f 107/214/400 150/213/401 154/218/402
f 173/251/403 98/247/404 97/196/405
f 97/196/406 170/148/407 173/251/408
f 133/276/409 2/2/410 7/277/411
f 162/228/412 10/229/413 224/230/414
f 14/278/415 3/3/416 11/282/417
f 123/285/418 171/286/419 164/23/420
f 23/255/421 120/287/422 119/288/423
f 116/114/424 17/28/425 61/62/426
f 61/62/427 141/141/428 116/114/429
f 225/231/430 155/232/431 125/17/432
f 22/236/433 161/237/434 18/227/435
f 118/289/436 165/290/437 24/256/438
f 163/22/439 26/299/440 121/300/441
f 35/116/442 15/115/443 12/16/444
f 12/16/445 92/187/446 35/116/447
f 135/34/448 134/118/449 6/8/450
f 6/8/451 34/86/452 135/34/453
f 143/192/454 29/113/455 31/35/456
f 31/35/457 36/38/458 143/192/459
f 33/85/460 28/21/461 140/121/462
f 140/121/463 90/122/464 33/85/465
f 172/259/466 166/260/467 117/261/468
f 117/261/469 227/262/470 172/259/471
f 218/263/472 217/264/473 122/265/474
f 122/265/475 25/266/476 218/263/477
f 151/120/478 66/471/479 37/472/480
f 37/472/481 132/123/482 151/120/483
f 13/283/484 157/284/485 4/4/486
f 1/1/487 21/326/488 8/327/489
f 156/125/490 223/128/491 130/212/492
f 130/212/493 94/487/494 156/125/495
f 174/189/496 20/238/497 226/239/498
f 159/92/499 158/32/500 30/233/501
f 30/233/502 216/400/503 159/92/504
f 160/93/505 128/401/506 126/402/507
f 126/402/508 19/403/509 160/93/510
f 115/404/511 27/405/512 32/29/513
f 32/29/514 93/486/515 115/404/516
f 2/2/517 1/1/518 8/327/519
f 8/327/520 7/277/521 2/2/522
f 133/276/523 11/282/524 3/3/525
f 3/3/526 2/2/527 133/276/528
f 4/4/529 3/3/530 14/278/531
f 14/278/532 13/283/533 4/4/534
f 157/284/535 21/326/536 1/1/537
f 1/1/538 4/4/539 157/284/540
f 131/6/541 64/5/542 62/267/543
f 62/267/544 16/269/545 131/6/546
f 25/266/547 166/260/548 172/259/549
f 172/259/550 218/263/551 25/266/552
f 7/7/553 6/484/554 134/485/555
f 134/485/556 133/126/557 7/7/558
f 9/10/559 171/193/560 123/252/561
f 123/252/562 222/253/563 9/10/564
f 162/228/565 18/227/566 161/237/567
f 161/237/568 10/229/569 162/228/570
f 23/255/571 164/23/572 171/286/573
f 171/286/574 120/287/575 23/255/576
f 11/15/577 12/482/578 15/483/579
f 15/483/580 14/127/581 11/15/582
f 135/167/583 92/170/584 12/495/585
f 12/495/586 134/494/587 135/167/588
f 155/232/589 20/238/590 174/189/591
f 174/189/592 125/17/593 155/232/594
f 125/17/595 162/228/596 224/230/597
f 224/230/598 225/231/599 125/17/600
f 160/93/601 19/403/602 156/125/603
f 156/125/604 94/487/605 160/93/606
f 165/290/607 26/299/608 163/22/609
f 163/22/610 24/256/611 165/290/612
f 164/23/613 163/22/614 121/300/615
f 121/300/616 123/285/617 164/23/618
f 24/256/619 23/255/620 119/288/621
f 119/288/622 118/289/623 24/256/624
f 118/316/625 117/317/626 166/25/627
f 166/25/628 165/24/629 118/316/630
f 26/258/631 25/257/632 122/318/633
f 122/318/634 121/319/635 26/258/636
f 143/152/637 90/155/638 140/498/639
f 140/498/640 29/499/641 143/152/642
f 141/138/643 66/151/644 151/497/645
f 151/497/646 116/496/647 141/138/648
f 159/92/649 93/486/650 32/29/651
f 32/29/652 158/32/653 159/92/654
f 40/271/655 39/272/656 167/142/657
f 167/142/658 5/89/659 40/271/660
f 38/41/661 37/124/662 66/473/663
f 66/473/664 65/204/665 38/41/666
f 167/142/667 39/272/668 42/273/669
f 42/273/670 168/144/671 167/142/672
f 41/42/673 38/41/674 65/204/675
f 65/204/676 104/435/677 41/42/678
f 168/144/679 42/273/680 44/274/681
f 44/274/682 169/146/683 168/144/684
f 43/44/685 41/42/686 104/435/687
f 104/435/688 103/436/689 43/44/690
f 169/146/691 44/274/692 46/291/693
f 46/291/694 170/148/695 169/146/696
f 45/46/697 43/44/698 103/436/699
f 103/436/700 102/438/701 45/46/702
f 170/148/703 46/291/704 48/292/705
f 48/292/706 173/251/707 170/148/708
f 47/48/709 45/46/710 102/438/711
f 102/438/712 101/439/713 47/48/714
f 173/251/715 48/292/716 50/305/717
f 50/305/718 98/247/719 173/251/720
f 100/50/721 49/132/722 47/48/723
f 47/48/724 101/439/725 100/50/726
f 98/247/727 50/305/728 52/306/729
f 52/306/730 99/250/731 98/247/732
f 152/52/733 51/133/734 49/132/735
f 49/132/736 100/50/737 152/52/738
f 52/306/739 54/307/740 97/196/741
f 97/196/742 99/250/743 52/306/744
f 146/54/745 53/134/746 51/133/747
f 51/133/748 152/52/749 146/54/750
f 54/307/751 56/308/752 96/147/753
f 96/147/754 97/196/755 54/307/756
f 145/56/757 55/135/758 53/134/759
f 53/134/760 146/54/761 145/56/762
f 56/308/763 58/309/764 95/145/765
f 95/145/766 96/147/767 56/308/768
f 147/58/769 57/136/770 55/135/771
f 55/135/772 145/56/773 147/58/774
f 58/309/775 60/310/776 63/143/777
f 63/143/778 95/145/779 58/309/780
f 142/60/781 59/64/782 57/136/783
f 57/136/784 147/58/785 142/60/786
f 60/310/787 62/267/788 64/5/789
f 64/5/790 63/143/791 60/310/792
f 61/62/793 59/64/794 142/60/795
f 142/60/796 141/141/797 61/62/798
f 36/480/799 68/119/800 144/65/801
f 144/65/802 143/481/803 36/480/804
f 67/37/805 35/116/806 92/187/807
f 92/187/808 91/179/809 67/37/810
f 144/65/811 68/119/812 70/178/813
f 70/178/814 148/67/815 144/65/816
f 69/66/817 67/37/818 91/179/819
f 91/179/820 110/182/821 69/66/822
f 148/67/823 70/178/824 72/180/825
f 72/180/826 149/69/827 148/67/828
f 71/68/829 69/66/830 110/182/831
f 110/182/832 111/475/833 71/68/834
f 149/69/835 72/180/836 74/183/837
f 74/183/838 150/71/839 149/69/840
f 73/70/841 71/68/842 111/475/843
f 111/475/844 112/476/845 73/70/846
f 150/71/847 74/183/848 76/73/849
f 76/73/850 154/441/851 150/71/852
f 75/72/853 73/70/854 112/476/855
f 112/476/856 114/477/857 75/72/858
f 76/73/859 78/75/860 108/442/861
f 108/442/862 154/441/863 76/73/864
f 113/74/865 77/185/866 75/72/867
f 75/72/868 114/477/869 113/74/870
f 78/75/871 80/77/872 109/444/873
f 109/444/874 108/442/875 78/75/876
f 153/76/877 79/186/878 77/185/879
f 77/185/880 113/74/881 153/76/882
f 80/77/883 82/79/884 107/445/885
f 107/445/886 109/444/887 80/77/888
f 139/78/889 81/63/890 79/186/891
f 79/186/892 153/76/893 139/78/894
f 82/79/895 84/81/896 106/447/897
f 106/447/898 107/445/899 82/79/900
f 138/80/901 83/129/902 81/63/903
f 81/63/904 139/78/905 138/80/906
f 84/81/907 86/83/908 105/448/909
f 105/448/910 106/447/911 84/81/912
f 137/82/913 85/188/914 83/129/915
f 83/129/916 138/80/917 137/82/918
f 86/83/919 88/33/920 89/191/921
f 89/191/922 105/448/923 86/83/924
f 136/84/925 87/117/926 85/188/927
f 85/188/928 137/82/929 136/84/930
f 88/33/931 33/85/932 90/122/933
f 90/122/934 89/191/935 88/33/936
f 135/34/937 34/86/938 87/117/939
f 87/117/940 136/84/941 135/34/942
f 93/87/943 94/94/944 130/488/945
f 130/488/946 115/489/947 93/87/948
f 216/493/949 128/491/950 160/490/951
f 160/490/952 159/492/953 216/493/954
f 28/478/955 17/190/956 116/474/957
f 116/474/958 140/479/959 28/478/960
f 31/35/961 29/113/962 151/120/963
f 151/120/964 132/123/965 31/35/966
f 129/11/967 124/268/968 119/270/969
f 119/270/970 120/184/971 129/11/972
f 22/236/973 18/227/974 174/189/975
f 174/189/976 226/239/977 22/236/978
f 217/264/979 218/263/980 131/6/981
f 131/6/982 16/269/983 217/264/984
f 5/89/985 215/88/986 127/311/987
f 127/311/988 40/271/989 5/89/990
f 27/405/991 8/406/992 21/30/993
f 21/30/994 32/29/995 27/405/996
f 157/31/997 13/407/998 30/233/999
f 30/233/1000 158/32/1001 157/31/1002
f 177/296/1003 180/297/1004 179/298/1005
f 179/298/1006 176/301/1007 177/296/1008
f 178/219/1009 181/220/1010 180/221/1011
f 180/221/1012 177/222/1013 178/219/1014
f 175/281/1015 182/293/1016 181/294/1017
f 181/294/1018 178/295/1019 175/281/1020
f 176/223/1021 179/224/1022 182/225/1023
f 182/225/1024 175/226/1025 176/223/1026
f 179/235/1027 180/244/1028 181/245/1029
f 181/245/1030 182/246/1031 179/235/1032
f 186/336/1033 188/337/1034 187/338/1035
f 187/338/1036 185/342/1037 186/336/1038
f 184/392/1039 189/393/1040 188/394/1041
f 188/394/1042 186/395/1043 184/392/1044
f 183/328/1045 190/329/1046 189/330/1047
f 189/330/1048 184/335/1049 183/328/1050
f 185/396/1051 187/397/1052 190/398/1053
f 190/398/1054 183/399/1055 185/396/1056
f 187/331/1057 188/332/1058 189/333/1059
f 189/333/1060 190/334/1061 187/331/1062
f 194/349/1063 196/350/1064 195/351/1065
f 195/351/1066 193/352/1067 194/349/1068
f 192/302/1069 197/303/1070 196/304/1071
f 196/304/1072 194/339/1073 192/302/1074
f 191/345/1075 198/346/1076 197/347/1077
f 197/347/1078 192/348/1079 191/345/1080
f 195/362/1081 196/363/1082 197/364/1083
f 197/364/1084 198/365/1085 195/362/1086
f 193/340/1087 195/341/1088 198/343/1089
f 198/343/1090 191/344/1091 193/340/1092
f 201/366/1093 205/367/1094 204/368/1095
f 204/368/1096 199/369/1097 201/366/1098
f 206/357/1099 219/358/1100 201/359/1101
f 201/359/1102 200/360/1103 206/357/1104
f 219/320/1105 220/321/1106 204/322/1107
f 204/322/1108 205/323/1109 219/320/1110
f 202/370/1111 203/371/1112 206/372/1113
f 206/372/1114 200/373/1115 202/370/1116
f 208/353/1117 212/354/1118 211/355/1119
f 211/355/1120 210/356/1121 208/353/1122
f 207/384/1123 213/385/1124 212/386/1125
f 212/386/1126 208/387/1127 207/384/1128
f 209/380/1129 214/381/1130 213/382/1131
f 213/382/1132 207/383/1133 209/380/1134
f 210/388/1135 211/389/1136 214/390/1137
f 214/390/1138 209/391/1139 210/388/1140
f 214/254/1141 211/275/1142 212/279/1143
f 212/279/1144 213/280/1145 214/254/1146
f 217/208/1147 202/209/1148 200/234/1149
f 203/374/1150 202/375/1151 221/376/1152
f 221/376/1153 220/377/1154 203/374/1155
f 200/234/1156 201/195/1157 222/98/1158
f 222/98/1159 217/208/1160 200/234/1161
f 17/105/1162 27/100/1163 115/199/1164
f 115/199/1165 208/198/1166 17/105/1167
f 17/105/1168 208/198/1169 210/201/1170
f 130/200/1171 199/240/1172 221/241/1173
f 221/241/1174 207/197/1175 130/200/1176
f 199/240/1177 130/200/1178 223/242/1179
f 223/242/1180 194/243/1181 199/240/1182
f 217/208/1183 16/202/1184 210/201/1185
f 210/201/1186 209/248/1187 217/208/1188
f 227/427/1189 128/429/1190 216/432/1191
f 127/430/1192 216/432/1193 30/96/1194
f 172/259/1195 215/88/1196 131/6/1197
f 131/6/1198 218/263/1199 172/259/1200
f 172/259/1201 227/262/1202 127/311/1203
f 127/311/1204 215/88/1205 172/259/1206
f 217/208/1207 209/248/1208 202/209/1209
f 206/324/1210 203/325/1211 220/321/1212
f 220/321/1213 219/320/1214 206/324/1215
f 199/378/1216 204/379/1217 220/412/1218
f 220/412/1219 221/413/1220 199/378/1221
f 202/209/1222 209/248/1223 207/197/1224
f 207/197/1225 221/241/1226 202/209/1227
f 219/358/1228 205/361/1229 201/359/1230
f 194/243/1231 223/242/1232 192/249/1233
f 183/414/1234 224/415/1235 222/98/1236
f 222/98/1237 185/416/1238 183/414/1239
f 9/10/1240 222/253/1241 224/312/1242
f 224/312/1243 10/313/1244 9/10/1245
f 9/10/1246 10/313/1247 161/314/1248
f 161/314/1249 129/11/1250 9/10/1251
f 124/268/1252 129/11/1253 161/314/1254
f 161/314/1255 22/315/1256 124/268/1257
f 126/428/1258 124/426/1259 22/433/1260
f 22/433/1261 226/434/1262 126/428/1263
f 19/403/1264 126/402/1265 226/408/1266
f 226/408/1267 20/409/1268 19/403/1269
f 19/403/1270 20/409/1271 155/410/1272
f 155/410/1273 156/125/1274 19/403/1275
f 223/128/1276 156/125/1277 155/410/1278
f 155/410/1279 225/411/1280 223/128/1281
f 186/417/1282 192/249/1283 223/242/1284
f 222/98/1285 191/27/1286 185/416/1287
f 186/417/1288 223/242/1289 225/418/1290
f 225/418/1291 184/419/1292 186/417/1293
f 176/420/1294 175/421/1295 224/415/1296
f 224/415/1297 183/414/1298 176/420/1299
f 178/422/1300 177/423/1301 225/418/1302
f 224/415/1303 175/421/1304 178/422/1305
f 178/422/1306 225/418/1307 224/415/1308
f 194/243/1309 193/20/1310 201/195/1311
f 201/195/1312 199/240/1313 194/243/1314
f 177/423/1315 176/420/1316 183/414/1317
f 183/414/1318 184/419/1319 177/423/1320
f 191/27/1321 192/249/1322 186/417/1323
f 186/417/1324 185/416/1325 191/27/1326
f 184/419/1327 225/418/1328 177/423/1329
f 216/432/1330 127/430/1331 227/427/1332
f 122/110/1333 217/208/1334 222/98/1335
f 117/424/1336 119/211/1337 124/426/1338
f 15/40/1339 35/97/1340 36/101/1341
f 36/101/1342 31/95/1343 15/40/1344
f 34/107/1345 6/9/1346 28/99/1347
f 28/99/1348 33/106/1349 34/107/1350
