# This file uses feet as units for non-parametric coordinates.

g default
v 0.000000 1.000011 -0.000010
v 0.000000 6.723309 -0.000010
v -1.402222 7.395210 -0.000010
v 0.000000 1.000011 54.238190
v 0.000000 12.295307 -0.000010
v 0.000000 10.082912 -0.000010
v -2.235718 13.295307 1.443991
v -2.235718 13.295303 52.794289
v -2.235718 1.708309 1.443991
v -1.402222 9.411011 -0.000010
v 0.000000 12.295303 54.238190
v -1.000000 0.000011 0.999990
v -0.784729 13.295307 0.619890
v -0.784729 13.295307 53.618290
v -2.235718 1.708309 52.794289
v -1.000000 0.000011 53.238190
v 0.000000 6.723309 52.652790
v -1.402222 7.395210 52.652790
v -1.402222 9.411011 52.652790
v 0.000000 10.082912 52.652790
v -39.388260 1.000011 54.238190
v -39.388260 12.295303 54.238190
v -39.388260 1.000011 -0.000010
v -37.986038 7.395210 -0.000010
v -39.388260 6.723309 -0.000010
v -38.388260 0.000011 53.238190
v -38.388260 0.000011 0.999990
v -39.388260 10.082912 52.652790
v -39.388260 10.082912 -0.000010
v -37.101456 13.295303 52.794289
v -38.603531 13.295307 53.618290
v -37.101456 1.708309 52.794289
v -37.986038 9.411011 -0.000010
v -39.388260 12.295307 -0.000010
v -39.388260 6.723309 52.652790
v -37.101456 1.708309 1.443991
v -38.603531 13.295307 0.619890
v -37.101456 13.295307 1.443991
v -37.986038 9.411011 52.652790
v -37.986038 7.395210 52.652790
v -24.455597 6.223652 56.691536
v -15.302460 6.223652 56.691528
v -25.596405 7.268253 55.465988
v -24.356598 7.268250 56.797890
v -15.401459 7.268250 56.797890
v -14.161911 7.268253 55.465988
v -16.667267 6.539654 55.465988
v -23.090973 6.539654 55.465988
v -23.090973 7.097446 55.465988
v -16.667267 7.097446 55.465988
v -14.471786 6.368946 56.464989
v -14.931137 6.223652 56.586784
v -24.878510 6.368946 56.726387
v -25.163361 6.223652 56.371269
v -14.879684 7.268253 56.726387
v -14.594833 7.413548 56.371277
v -25.286407 7.268253 56.464989
v -24.827057 7.413544 56.586777
v -24.356598 6.539654 55.465988
v -24.356598 7.097446 55.465988
v -15.401459 6.539654 55.465988
v -15.401459 7.097446 55.465988
v -23.090973 6.539654 53.928490
v -24.356598 6.539654 53.928490
v -24.356598 7.097446 53.928490
v -23.090973 7.097446 53.928490
v -16.667267 7.097446 53.928490
v -15.401459 7.097446 53.928490
v -15.401459 6.539654 53.928490
v -16.667267 6.539654 53.928490
v -24.356598 6.368946 56.797890
v -25.596405 6.368946 55.465988
v -25.455597 6.259541 55.465988
v -14.161911 6.368946 55.465988
v -14.306076 6.241833 55.465988
v -15.401459 6.368946 56.797890
v -25.452240 7.395359 55.465988
v -24.455597 7.413544 56.691536
v -15.302460 7.413544 56.691528
v -14.306076 7.395359 55.465988
v -14.594833 6.223652 56.371277
v -14.879684 6.368946 56.726387
v -24.827057 6.223652 56.586777
v -25.286407 6.368946 56.464989
v -14.931137 7.413544 56.586784
v -14.471786 7.268253 56.464989
v -25.163361 7.413548 56.371269
v -24.878510 7.268253 56.726387
vt 0.033937 0.858577
vt 0.802969 0.054050
vt 0.806725 0.071143
vt 0.802969 0.069330
vt 0.803179 0.987606
vt 0.361556 0.162490
vt 0.027851 0.854174
vt 0.027851 0.709527
vt 0.033937 0.709527
vt 0.747294 0.466719
vt 0.782296 0.615599
vt 0.747294 0.620171
vt 0.333086 0.002015
vt 0.751864 0.615599
vt 0.069753 0.501846
vt 0.802969 0.078265
vt 0.806725 0.076582
vt 0.803179 0.882067
vt 0.018656 0.854174
vt 0.002858 0.858577
vt 0.122991 0.711482
vt 0.069753 0.649342
vt 0.126876 0.711482
vt 0.214726 0.954320
vt 0.218481 0.956133
vt 0.218481 0.961572
vt 0.214726 0.963255
vt 0.802969 0.084222
vt 0.361556 0.059022
vt 0.002858 0.709527
vt 0.018656 0.709527
vt 0.000139 0.855857
vt 0.833351 0.882067
vt 0.364145 0.056303
vt 0.333086 0.032447
vt 0.368032 0.165404
vt 0.000139 0.712247
vt 0.036656 0.711211
vt 0.036656 0.856893
vt 0.126876 0.858977
vt 0.122991 0.858977
vt 0.065868 0.649342
vt 0.037578 0.335134
vt 0.065868 0.501846
vt 0.833351 0.987606
vt 0.800459 0.985404
vt 0.002728 0.335017
vt 0.908379 0.054050
vt 0.904623 0.071143
vt 0.908379 0.084222
vt 0.218851 0.162490
vt 0.216131 0.165210
vt 0.002728 0.188558
vt 0.008815 0.188558
vt 0.008815 0.330744
vt 0.017879 0.330744
vt 0.239202 0.032447
vt 0.744057 0.622632
vt 0.239202 0.002015
vt 0.114688 0.711454
vt 0.906307 0.086942
vt 0.805041 0.086942
vt 0.017879 0.188558
vt 0.033289 0.188558
vt 0.033289 0.335017
vt 0.000139 0.333334
vt 0.391959 0.082429
vt 0.744057 0.464259
vt 0.262452 0.999861
vt 0.391959 0.051609
vt 0.118703 0.711454
vt 0.118703 0.858949
vt 0.114688 0.858949
vt 0.908379 0.069330
vt 0.216131 0.059024
vt 0.218851 0.061743
vt 0.800459 0.884139
vt 0.131164 0.859005
vt 0.131164 0.711509
vt 0.135049 0.711509
vt 0.135049 0.859005
vt 0.000139 0.190242
vt 0.798680 0.153480
vt 0.663746 0.153480
vt 0.253517 0.999861
vt 0.255330 0.996235
vt 0.260769 0.996235
vt 0.908379 0.078265
vt 0.904623 0.076582
vt 0.037578 0.198517
vt 0.068398 0.198517
vt 0.068398 0.335134
vt 0.853998 0.466719
vt 0.857106 0.464259
vt 0.857106 0.622632
vt 0.853998 0.620171
vt 0.103148 0.195369
vt 0.108457 0.195369
vt 0.108457 0.335354
vt 0.103148 0.335354
vt 0.663746 0.059596
vt 0.798680 0.059596
vt 0.751864 0.521715
vt 0.782296 0.521715
vt 0.528576 0.051609
vt 0.528576 0.082429
vt 0.112746 0.335386
vt 0.112746 0.195402
vt 0.118055 0.195402
vt 0.118055 0.335386
vt 0.365442 0.162685
vt 0.365442 0.061937
vt 0.368032 0.059218
vt 0.361556 0.061743
vt 0.220794 0.162490
vt 0.220794 0.061743
vt 0.218075 0.056303
vt 0.220794 0.059022
vt 0.886155 0.896437
vt 0.879181 0.890759
vt 0.879167 0.838620
vt 0.886141 0.832919
vt 0.875998 0.890813
vt 0.869025 0.896493
vt 0.869018 0.832995
vt 0.875990 0.838675
vt 0.879785 0.892863
vt 0.881022 0.894739
vt 0.879774 0.836520
vt 0.881007 0.834640
vt 0.866273 0.846173
vt 0.866273 0.882805
vt 0.863092 0.882805
vt 0.863092 0.846173
vt 0.875392 0.892912
vt 0.874159 0.894794
vt 0.875387 0.836571
vt 0.874150 0.834694
vt 0.878119 0.890253
vt 0.878105 0.839135
vt 0.877053 0.839181
vt 0.877059 0.890298
vt 0.867247 0.831886
vt 0.867972 0.832708
vt 0.866273 0.838956
vt 0.863092 0.838956
vt 0.861495 0.832689
vt 0.888158 0.894475
vt 0.862119 0.831886
vt 0.863092 0.890023
vt 0.879739 0.932925
vt 0.886655 0.932925
vt 0.886655 0.936244
vt 0.879739 0.936244
vt 0.886599 0.927149
vt 0.879683 0.927149
vt 0.879683 0.923829
vt 0.886599 0.923829
vt 0.875078 0.981556
vt 0.872922 0.981556
vt 0.872922 0.968620
vt 0.875078 0.968620
vt 0.872922 0.967575
vt 0.872922 0.962739
vt 0.886008 0.962739
vt 0.886008 0.967575
vt 0.894029 0.956909
vt 0.894029 0.959111
vt 0.881366 0.959111
vt 0.881366 0.956909
vt 0.871877 0.975966
vt 0.867092 0.975966
vt 0.867092 0.962739
vt 0.871877 0.962739
vt 0.889256 0.975402
vt 0.887053 0.975402
vt 0.887053 0.962739
vt 0.889256 0.962739
vt 0.880320 0.951079
vt 0.880320 0.955863
vt 0.867092 0.955863
vt 0.867092 0.951079
vt 0.895050 0.951079
vt 0.895050 0.953117
vt 0.881366 0.953117
vt 0.881366 0.951079
vt 0.867092 0.961693
vt 0.867092 0.956909
vt 0.880320 0.956909
vt 0.880320 0.961693
vt 0.878667 0.893316
vt 0.886060 0.897546
vt 0.880290 0.895703
vt 0.878659 0.836057
vt 0.880290 0.833667
vt 0.886073 0.831886
vt 0.876507 0.893373
vt 0.874883 0.895764
vt 0.869120 0.897603
vt 0.876505 0.836118
vt 0.869112 0.831886
vt 0.874883 0.833731
vt 0.866273 0.890023
vt 0.892328 0.843578
vt 0.897439 0.843997
vt 0.893270 0.894894
vt 0.867972 0.896270
vt 0.867247 0.897092
vt 0.893024 0.897888
vt 0.887913 0.897469
vt 0.862119 0.897092
vt 0.861394 0.896270
vt 0.892573 0.840584
vt 0.897685 0.841003
vt 0.892799 0.900641
vt 0.892312 0.906586
vt 0.887201 0.906167
vt 0.887688 0.900222
vt 0.892799 0.837831
vt 0.893286 0.831886
vt 0.898397 0.832304
vt 0.897910 0.838249
vn 0.000000 -0.000000 1.000000
vn 0.000000 -0.000000 1.000000
vn 0.000000 -0.000000 1.000000
vn 0.000000 -0.000000 1.000000
vn 0.000000 -0.000000 1.000000
vn 0.000000 -0.000000 1.000000
vn 0.000000 0.000000 -1.000000
vn 0.000000 0.000000 -1.000000
vn 0.000000 0.000000 -1.000000
vn 1.000000 0.000000 0.000000
vn 1.000000 0.000000 0.000000
vn 1.000000 0.000000 0.000000
vn 1.000000 0.000000 0.000000
vn 1.000000 0.000000 0.000000
vn 1.000000 0.000000 0.000000
vn 0.000000 1.000000 0.000000
vn 0.000000 1.000000 0.000000
vn 0.000000 1.000000 0.000000
vn 0.000000 1.000000 0.000000
vn 0.000000 1.000000 0.000000
vn 0.000000 1.000000 0.000000
vn -1.000000 0.000000 0.000000
vn -1.000000 0.000000 0.000000
vn -1.000000 0.000000 0.000000
vn -1.000000 0.000000 0.000000
vn -1.000000 0.000000 0.000000
vn -1.000000 0.000000 0.000000
vn 0.000000 0.000000 -1.000000
vn 0.000000 0.000000 -1.000000
vn 0.000000 0.000000 -1.000000
vn 1.000000 0.000000 0.000000
vn 1.000000 0.000000 0.000000
vn 1.000000 0.000000 0.000000
vn 1.000000 0.000000 0.000000
vn 1.000000 0.000000 0.000000
vn 1.000000 0.000000 0.000000
vn 0.000000 0.000000 -1.000000
vn 0.000000 0.000000 -1.000000
vn 0.000000 0.000000 -1.000000
vn 0.000000 0.000000 -1.000000
vn 0.000000 0.000000 -1.000000
vn 0.000000 0.000000 -1.000000
vn 0.432122 -0.901815 -0.000000
vn 0.432122 -0.901815 -0.000000
vn 0.432122 -0.901815 -0.000000
vn 0.432122 -0.901815 -0.000000
vn 0.432122 -0.901815 -0.000000
vn 0.432122 -0.901815 -0.000000
vn 0.000000 0.526878 -0.849941
vn 0.000000 0.526878 -0.849941
vn 0.000000 0.526878 -0.849941
vn 0.000000 0.526878 -0.849941
vn 0.000000 0.526878 -0.849941
vn 0.000000 0.526878 -0.849941
vn 0.707107 -0.707107 -0.000000
vn 0.707107 -0.707107 -0.000000
vn 0.707107 -0.707107 -0.000000
vn 0.707107 -0.707107 -0.000000
vn 0.707107 -0.707107 -0.000000
vn 0.707107 -0.707107 -0.000000
vn 0.000000 -0.707107 -0.707107
vn 0.000000 -0.707107 -0.707107
vn 0.000000 -0.707107 -0.707107
vn 0.000000 -0.707107 -0.707107
vn 0.000000 -0.707107 -0.707107
vn 0.000000 -0.707107 -0.707107
vn 1.000000 0.000000 0.000000
vn 1.000000 0.000000 0.000000
vn 1.000000 0.000000 0.000000
vn 1.000000 0.000000 0.000000
vn 1.000000 0.000000 0.000000
vn 1.000000 0.000000 0.000000
vn 0.432122 0.901815 0.000000
vn 0.432122 0.901815 0.000000
vn 0.432122 0.901815 0.000000
vn 0.432122 0.901815 0.000000
vn 0.432122 0.901815 0.000000
vn 0.432122 0.901815 0.000000
vn 0.786695 0.617342 0.000000
vn 0.786695 0.617342 0.000000
vn 0.786695 0.617342 0.000000
vn 0.786695 0.617342 0.000000
vn 0.786695 0.617342 0.000000
vn 0.786695 0.617342 0.000000
vn 1.000000 0.000000 0.000000
vn 1.000000 0.000000 0.000000
vn 1.000000 0.000000 0.000000
vn 1.000000 0.000000 0.000000
vn 1.000000 0.000000 0.000000
vn 1.000000 0.000000 0.000000
vn 0.000000 0.000000 -1.000000
vn 0.000000 0.000000 -1.000000
vn 0.000000 0.000000 -1.000000
vn 0.000000 0.000000 -1.000000
vn 0.000000 0.000000 -1.000000
vn 0.000000 0.000000 -1.000000
vn 0.000000 1.000000 0.000000
vn 0.000000 1.000000 0.000000
vn 0.000000 1.000000 0.000000
vn 0.000000 1.000000 0.000000
vn 0.000000 1.000000 0.000000
vn 0.000000 1.000000 0.000000
vn 0.000000 -0.000000 1.000000
vn 0.000000 -0.000000 1.000000
vn 0.000000 -0.000000 1.000000
vn 0.000000 -0.000000 1.000000
vn 0.000000 -0.000000 1.000000
vn 0.000000 -0.000000 1.000000
vn 0.000000 -0.707107 0.707107
vn 0.000000 -0.707107 0.707107
vn 0.000000 -0.707107 0.707107
vn 0.000000 -0.707107 0.707107
vn 0.000000 -0.707107 0.707107
vn 0.000000 -0.707107 0.707107
vn 0.000000 1.000000 0.000000
vn 0.000000 1.000000 0.000000
vn 0.000000 1.000000 0.000000
vn 0.000000 1.000000 0.000000
vn 0.000000 1.000000 0.000000
vn 0.000000 1.000000 0.000000
vn 0.000000 0.526878 0.849941
vn 0.000000 0.526878 0.849941
vn 0.000000 0.526878 0.849941
vn 0.000000 0.526878 0.849941
vn 0.000000 0.526878 0.849941
vn 0.000000 0.526878 0.849941
vn 0.000000 0.000000 -1.000000
vn 0.000000 0.000000 -1.000000
vn 0.000000 0.000000 -1.000000
vn -1.000000 0.000000 0.000000
vn -1.000000 0.000000 0.000000
vn -1.000000 0.000000 0.000000
vn -1.000000 0.000000 0.000000
vn -1.000000 0.000000 0.000000
vn -1.000000 0.000000 0.000000
vn 0.000000 1.000000 0.000000
vn 0.000000 1.000000 0.000000
vn 0.000000 1.000000 0.000000
vn 0.000000 1.000000 0.000000
vn 0.000000 1.000000 0.000000
vn 0.000000 1.000000 0.000000
vn 1.000000 0.000000 0.000000
vn 1.000000 0.000000 0.000000
vn 1.000000 0.000000 0.000000
vn 1.000000 0.000000 0.000000
vn 1.000000 0.000000 0.000000
vn 1.000000 0.000000 0.000000
vn 0.000000 0.000000 -1.000000
vn 0.000000 0.000000 -1.000000
vn 0.000000 0.000000 -1.000000
vn -1.000000 0.000000 0.000000
vn -1.000000 0.000000 0.000000
vn -1.000000 0.000000 0.000000
vn -1.000000 0.000000 0.000000
vn -1.000000 0.000000 0.000000
vn -1.000000 0.000000 0.000000
vn 0.000000 1.000000 0.000000
vn 0.000000 1.000000 0.000000
vn 0.000000 1.000000 0.000000
vn 0.000000 1.000000 0.000000
vn 0.000000 1.000000 0.000000
vn 0.000000 1.000000 0.000000
vn -0.432122 -0.901815 -0.000000
vn -0.432122 -0.901815 -0.000000
vn -0.432122 -0.901815 -0.000000
vn -0.432122 -0.901815 -0.000000
vn -0.432122 -0.901815 -0.000000
vn -0.432122 -0.901815 -0.000000
vn -0.707107 -0.707107 -0.000000
vn -0.707107 -0.707107 -0.000000
vn -0.707107 -0.707107 -0.000000
vn -0.707107 -0.707107 -0.000000
vn -0.707107 -0.707107 -0.000000
vn -0.707107 -0.707107 -0.000000
vn -1.000000 0.000000 0.000000
vn -1.000000 0.000000 0.000000
vn -1.000000 0.000000 0.000000
vn -1.000000 0.000000 0.000000
vn -1.000000 0.000000 0.000000
vn -1.000000 0.000000 0.000000
vn -0.432122 0.901815 0.000000
vn -0.432122 0.901815 0.000000
vn -0.432122 0.901815 0.000000
vn -0.432122 0.901815 0.000000
vn -0.432122 0.901815 0.000000
vn -0.432122 0.901815 0.000000
vn -0.786695 0.617342 0.000000
vn -0.786695 0.617342 0.000000
vn -0.786695 0.617342 0.000000
vn -0.786695 0.617342 0.000000
vn -0.786695 0.617342 0.000000
vn -0.786695 0.617342 0.000000
vn -1.000000 0.000000 0.000000
vn -1.000000 0.000000 0.000000
vn -1.000000 0.000000 0.000000
vn -1.000000 0.000000 0.000000
vn -1.000000 0.000000 0.000000
vn -1.000000 0.000000 0.000000
vn 0.000000 0.000000 -1.000000
vn 0.000000 0.000000 -1.000000
vn 0.000000 0.000000 -1.000000
vn 0.000000 0.000000 -1.000000
vn 0.000000 0.000000 -1.000000
vn 0.000000 0.000000 -1.000000
vn 0.000000 -1.000000 -0.000000
vn 0.000000 -1.000000 -0.000000
vn 0.000000 -1.000000 -0.000000
vn 0.000000 -1.000000 -0.000000
vn 0.000000 -1.000000 -0.000000
vn 0.000000 -1.000000 -0.000000
vn 0.000000 0.000000 -1.000000
vn 0.000000 0.000000 -1.000000
vn 0.000000 0.000000 -1.000000
vn 0.000000 0.000000 -1.000000
vn 0.000000 0.000000 -1.000000
vn 0.000000 0.000000 -1.000000
vn 0.000000 0.000000 -1.000000
vn 0.000000 0.000000 -1.000000
vn 0.000000 0.000000 -1.000000
vn 0.000000 0.000000 -1.000000
vn 0.000000 0.000000 -1.000000
vn 0.000000 0.000000 -1.000000
vn 0.000000 0.000000 -1.000000
vn 0.000000 0.000000 -1.000000
vn 0.000000 0.000000 -1.000000
vn 0.000000 0.000000 -1.000000
vn 0.000000 0.000000 -1.000000
vn 0.000000 0.000000 -1.000000
vn -0.000000 -0.999890 -0.014833
vn -0.000000 -0.999890 -0.014833
vn -0.000000 -0.999890 -0.014833
vn -0.001588 -0.999607 -0.027977
vn -0.001588 -0.999607 -0.027977
vn -0.001588 -0.999607 -0.027977
vn 0.000000 0.999890 -0.014840
vn 0.000000 0.999890 -0.014840
vn 0.000000 0.999890 -0.014840
vn -0.000000 0.999890 -0.014839
vn -0.000000 0.999890 -0.014839
vn -0.000000 0.999890 -0.014839
vn 0.000000 -0.000000 1.000000
vn 0.000000 -0.000000 1.000000
vn 0.000000 -0.000000 1.000000
vn 0.000000 -0.000000 1.000000
vn 0.000000 -0.000000 1.000000
vn 0.000000 -0.000000 1.000000
vn 0.000000 0.000000 -1.000000
vn 0.000000 0.000000 -1.000000
vn 0.000000 0.000000 -1.000000
vn 0.000000 0.000000 -1.000000
vn 0.000000 0.000000 -1.000000
vn 0.000000 0.000000 -1.000000
vn -0.005429 -0.999800 -0.019246
vn -0.005429 -0.999800 -0.019246
vn -0.005429 -0.999800 -0.019246
vn -0.016168 -0.999551 -0.025231
vn -0.016168 -0.999551 -0.025231
vn -0.016168 -0.999551 -0.025231
vn 0.031974 -0.998243 -0.049896
vn 0.031974 -0.998243 -0.049896
vn 0.031974 -0.998243 -0.049896
vn 0.010719 -0.999220 -0.038007
vn 0.010719 -0.999220 -0.038007
vn 0.010719 -0.999220 -0.038007
vn -0.016175 0.999551 -0.025242
vn -0.016175 0.999551 -0.025242
vn -0.016175 0.999551 -0.025242
vn -0.005431 0.999800 -0.019254
vn -0.005431 0.999800 -0.019254
vn -0.005431 0.999800 -0.019254
vn 0.005430 0.999800 -0.019254
vn 0.005430 0.999800 -0.019254
vn 0.005430 0.999800 -0.019254
vn 0.016177 0.999550 -0.025245
vn 0.016177 0.999550 -0.025245
vn 0.016177 0.999550 -0.025245
vn 0.000000 0.000000 -1.000000
vn 0.000000 0.000000 -1.000000
vn 0.000000 0.000000 -1.000000
vn 0.000000 0.000000 -1.000000
vn 0.000000 0.000000 -1.000000
vn 0.000000 0.000000 -1.000000
vn 0.000000 0.000000 -1.000000
vn 0.000000 0.000000 -1.000000
vn 0.000000 0.000000 -1.000000
vn 0.000000 0.000000 -1.000000
vn 0.000000 0.000000 -1.000000
vn 0.000000 0.000000 -1.000000
vn 0.000000 0.000000 -1.000000
vn 0.000000 0.000000 -1.000000
vn 0.000000 0.000000 -1.000000
vn 0.000000 0.000000 -1.000000
vn 0.000000 0.000000 -1.000000
vn 0.000000 0.000000 -1.000000
vn 0.000000 0.000000 -1.000000
vn 0.000000 0.000000 -1.000000
vn 0.000000 0.000000 -1.000000
vn 0.000000 0.000000 -1.000000
vn 0.000000 0.000000 -1.000000
vn 0.000000 0.000000 -1.000000
vn 0.000000 0.000000 -1.000000
vn 0.000000 0.000000 -1.000000
vn 0.000000 0.000000 -1.000000
vn 0.000000 0.000000 -1.000000
vn 0.000000 0.000000 -1.000000
vn 0.000000 0.000000 -1.000000
vn 0.000000 0.000000 -1.000000
vn 0.000000 0.000000 -1.000000
vn 0.000000 0.000000 -1.000000
vn 0.000000 0.000000 -1.000000
vn 0.000000 0.000000 -1.000000
vn 0.000000 0.000000 -1.000000
vn 0.000000 0.000000 -1.000000
vn 0.000000 0.000000 -1.000000
vn 0.000000 0.000000 -1.000000
vn 0.000000 0.000000 -1.000000
vn 0.000000 0.000000 -1.000000
vn 0.000000 0.000000 -1.000000
vn 0.000000 0.000000 -1.000000
vn 0.000000 0.000000 -1.000000
vn 0.000000 0.000000 -1.000000
vn 0.000000 0.000000 -1.000000
vn 0.000000 0.000000 -1.000000
vn 0.000000 0.000000 -1.000000
vn 0.000000 0.000000 -1.000000
vn 0.000000 0.000000 -1.000000
vn 0.000000 0.000000 -1.000000
vn 0.000000 0.000000 -1.000000
vn 0.000000 0.000000 -1.000000
vn 0.000000 0.000000 -1.000000
vn 0.000000 0.000000 -1.000000
vn 0.000000 0.000000 -1.000000
vn 0.000000 0.000000 -1.000000
vn 0.000000 0.000000 -1.000000
vn 0.000000 0.000000 -1.000000
vn 0.000000 0.000000 -1.000000
vn 1.000000 0.000000 0.000000
vn 1.000000 0.000000 0.000000
vn 1.000000 0.000000 0.000000
vn 1.000000 0.000000 0.000000
vn 1.000000 0.000000 0.000000
vn 1.000000 0.000000 0.000000
vn 0.000000 -1.000000 -0.000000
vn 0.000000 -1.000000 -0.000000
vn 0.000000 -1.000000 -0.000000
vn 0.000000 -1.000000 -0.000000
vn 0.000000 -1.000000 -0.000000
vn 0.000000 -1.000000 -0.000000
vn -1.000000 0.000000 0.000000
vn -1.000000 0.000000 0.000000
vn -1.000000 0.000000 0.000000
vn -1.000000 0.000000 0.000000
vn -1.000000 0.000000 0.000000
vn -1.000000 0.000000 0.000000
vn 0.000000 1.000000 0.000000
vn 0.000000 1.000000 0.000000
vn 0.000000 1.000000 0.000000
vn 0.000000 1.000000 0.000000
vn 0.000000 1.000000 0.000000
vn 0.000000 1.000000 0.000000
vn -1.000000 0.000000 0.000000
vn -1.000000 0.000000 0.000000
vn -1.000000 0.000000 0.000000
vn -1.000000 0.000000 0.000000
vn -1.000000 0.000000 0.000000
vn -1.000000 0.000000 0.000000
vn 0.000000 1.000000 0.000000
vn 0.000000 1.000000 0.000000
vn 0.000000 1.000000 0.000000
vn 0.000000 1.000000 0.000000
vn 0.000000 1.000000 0.000000
vn 0.000000 1.000000 0.000000
vn 1.000000 0.000000 0.000000
vn 1.000000 0.000000 0.000000
vn 1.000000 0.000000 0.000000
vn 1.000000 0.000000 0.000000
vn 1.000000 0.000000 0.000000
vn 1.000000 0.000000 0.000000
vn 0.000000 -1.000000 -0.000000
vn 0.000000 -1.000000 -0.000000
vn 0.000000 -1.000000 -0.000000
vn 0.000000 -1.000000 -0.000000
vn 0.000000 -1.000000 -0.000000
vn 0.000000 -1.000000 -0.000000
vn 0.135769 -0.000000 0.990741
vn 0.135769 -0.000000 0.990741
vn 0.135769 -0.000000 0.990741
vn 0.135769 -0.000000 0.990741
vn 0.135769 -0.000000 0.990741
vn 0.135769 -0.000000 0.990741
vn -0.135734 -0.000000 0.990745
vn -0.135734 -0.000000 0.990745
vn -0.135734 -0.000000 0.990745
vn -0.135734 -0.000000 0.990745
vn -0.135734 -0.000000 0.990745
vn -0.135734 -0.000000 0.990745
vn 0.955107 -0.000000 0.296260
vn 0.955107 -0.000000 0.296260
vn 0.955107 -0.000000 0.296260
vn 0.955107 -0.000000 0.296260
vn 0.955107 -0.000000 0.296260
vn 0.955107 -0.000000 0.296260
vn -0.955074 -0.000000 0.296367
vn -0.955074 -0.000000 0.296367
vn -0.955074 -0.000000 0.296367
vn -0.955074 -0.000000 0.296367
vn -0.955074 -0.000000 0.296367
vn -0.955074 -0.000000 0.296367
vn -0.539557 -0.000000 0.841949
vn -0.539557 -0.000000 0.841949
vn -0.539557 -0.000000 0.841949
vn -0.539557 -0.000000 0.841949
vn -0.539557 -0.000000 0.841949
vn -0.539557 -0.000000 0.841949
vn 0.539557 -0.000000 0.841949
vn 0.539557 -0.000000 0.841949
vn 0.539557 -0.000000 0.841949
vn 0.539557 -0.000000 0.841949
vn 0.539557 -0.000000 0.841949
vn 0.539557 -0.000000 0.841949
vn 0.000001 -0.590658 0.806922
vn 0.000001 -0.590658 0.806922
vn 0.000001 -0.590658 0.806922
vn 0.000000 -0.590686 0.806902
vn 0.000000 -0.590686 0.806902
vn 0.000000 -0.590686 0.806902
vn 0.000001 0.590685 0.806902
vn 0.000001 0.590685 0.806902
vn 0.000001 0.590685 0.806902
vn 0.000000 0.590658 0.806922
vn 0.000000 0.590658 0.806922
vn 0.000000 0.590658 0.806922
vn 0.240913 -0.461048 0.854047
vn 0.240913 -0.461048 0.854047
vn 0.240912 -0.461048 0.854047
vn 0.096002 -0.707110 0.700556
vn 0.096002 -0.707110 0.700556
vn 0.096002 -0.707110 0.700556
vn 0.679049 -0.705633 0.202423
vn 0.679049 -0.705633 0.202423
vn 0.679049 -0.705633 0.202423
vn 0.647863 -0.734771 0.200958
vn 0.647863 -0.734771 0.200958
vn 0.647863 -0.734771 0.200958
vn 0.381503 -0.707123 0.595343
vn 0.381503 -0.707123 0.595343
vn 0.381503 -0.707123 0.595343
vn 0.381528 -0.707100 0.595354
vn 0.381528 -0.707100 0.595354
vn 0.381528 -0.707100 0.595354
vn -0.381508 -0.707113 0.595351
vn -0.381508 -0.707113 0.595351
vn -0.381508 -0.707113 0.595351
vn -0.381508 -0.707136 0.595323
vn -0.381508 -0.707137 0.595323
vn -0.381508 -0.707137 0.595323
vn -0.605193 -0.778901 0.164485
vn -0.605193 -0.778901 0.164485
vn -0.605193 -0.778901 0.164485
vn -0.675339 -0.707107 0.209563
vn -0.675339 -0.707107 0.209563
vn -0.675339 -0.707107 0.209563
vn -0.189934 -0.714391 0.673477
vn -0.189934 -0.714391 0.673477
vn -0.189934 -0.714391 0.673477
vn -0.114702 -0.534688 0.837229
vn -0.114702 -0.534688 0.837229
vn -0.114702 -0.534688 0.837229
vn 0.381517 0.707097 0.595364
vn 0.381517 0.707097 0.595364
vn 0.381517 0.707097 0.595364
vn 0.381517 0.707121 0.595336
vn 0.381517 0.707121 0.595336
vn 0.381517 0.707121 0.595336
vn 0.649000 0.736105 0.192220
vn 0.649000 0.736105 0.192220
vn 0.649000 0.736105 0.192220
vn 0.675382 0.707087 0.209494
vn 0.675382 0.707087 0.209494
vn 0.675382 0.707087 0.209494
vn 0.189978 0.714375 0.673481
vn 0.189978 0.714375 0.673481
vn 0.189978 0.714375 0.673481
vn 0.114730 0.534703 0.837215
vn 0.114730 0.534703 0.837215
vn 0.114730 0.534703 0.837215
vn -0.240863 0.461047 0.854061
vn -0.240863 0.461047 0.854061
vn -0.240863 0.461047 0.854061
vn -0.095976 0.707126 0.700544
vn -0.095976 0.707126 0.700544
vn -0.095976 0.707126 0.700544
vn -0.679006 0.705653 0.202496
vn -0.679006 0.705653 0.202496
vn -0.679006 0.705653 0.202496
vn -0.647832 0.734780 0.201027
vn -0.647832 0.734780 0.201027
vn -0.647832 0.734780 0.201027
vn -0.381495 0.707138 0.595330
vn -0.381495 0.707138 0.595330
vn -0.381495 0.707138 0.595330
vn -0.381520 0.707116 0.595341
vn -0.381519 0.707116 0.595341
vn -0.381519 0.707116 0.595341
s off
g SM_Desk_03c
f 11/5/1 22/18/2 21/33/3
f 21/33/4 4/45/5 11/5/6
f 1/2/7 3/3/8 2/4/9
f 11/1/10 20/7/11 6/8/12
f 6/8/13 5/9/14 11/1/15
f 7/10/16 8/12/17 14/58/18
f 14/58/19 13/68/20 7/10/21
f 9/43/22 15/90/23 8/91/24
f 8/91/25 7/92/26 9/43/27
f 6/16/28 10/17/29 5/28/30
f 17/19/31 4/20/32 1/30/33
f 1/30/34 2/31/35 17/19/36
f 1/2/37 23/48/38 24/49/39
f 24/49/40 3/3/41 1/2/42
f 6/15/43 20/22/44 19/42/45
f 19/42/46 10/44/47 6/15/48
f 5/28/49 34/50/50 37/61/51
f 37/61/52 13/62/53 5/28/54
f 1/30/55 4/20/56 16/32/57
f 16/32/58 12/37/59 1/30/60
f 12/111/61 27/112/62 23/113/63
f 23/113/64 1/36/65 12/111/66
f 3/97/67 10/98/68 19/99/69
f 19/99/70 18/100/71 3/97/72
f 2/21/73 3/23/74 18/40/75
f 18/40/76 17/41/77 2/21/78
f 5/9/79 13/38/80 14/39/81
f 14/39/82 11/1/83 5/9/84
f 17/19/85 20/7/86 11/1/87
f 11/1/88 4/20/89 17/19/90
f 17/24/91 18/25/92 19/26/93
f 19/26/94 20/27/95 17/24/96
f 38/93/97 7/10/98 13/68/99
f 13/68/100 37/94/101 38/93/102
f 9/11/103 7/14/104 38/103/105
f 38/103/106 36/104/107 9/11/108
f 16/51/109 4/52/110 21/75/111
f 21/75/112 26/76/113 16/51/114
f 15/83/115 9/84/116 36/101/117
f 36/101/118 32/102/119 15/83/120
f 14/46/121 31/77/122 22/18/123
f 22/18/124 11/5/125 14/46/126
f 25/74/127 24/49/128 23/48/129
f 22/47/130 34/53/131 29/54/132
f 29/54/133 28/55/134 22/47/135
f 38/93/136 37/94/137 31/95/138
f 31/95/139 30/96/140 38/93/141
f 36/67/142 38/70/143 30/105/144
f 30/105/145 32/106/146 36/67/147
f 29/88/148 34/50/149 33/89/150
f 35/56/151 25/63/152 23/64/153
f 23/64/154 21/65/155 35/56/156
f 14/58/157 8/12/158 30/96/159
f 30/96/160 31/95/161 14/58/162
f 29/60/163 33/71/164 39/72/165
f 39/72/166 28/73/167 29/60/168
f 23/34/169 27/29/170 26/118/171
f 26/118/172 21/117/173 23/34/174
f 24/107/175 40/108/176 39/109/177
f 39/109/178 33/110/179 24/107/180
f 25/78/181 35/79/182 40/80/183
f 40/80/184 24/81/185 25/78/186
f 34/53/187 22/47/188 31/66/189
f 31/66/190 37/82/191 34/53/192
f 35/56/193 21/65/194 22/47/195
f 22/47/196 28/55/197 35/56/198
f 35/69/199 28/85/200 39/86/201
f 39/86/202 40/87/203 35/69/204
f 16/115/205 26/116/206 27/114/207
f 27/114/208 12/6/209 16/115/210
f 10/17/211 33/89/212 34/50/213
f 34/50/214 5/28/215 10/17/216
f 10/17/217 3/3/218 24/49/219
f 24/49/220 33/89/221 10/17/222
f 32/13/223 30/35/224 8/57/225
f 8/57/226 15/59/227 32/13/228
f 75/119/229 42/120/230 41/121/231
f 41/121/232 73/122/233 75/119/234
f 79/123/235 80/124/236 77/125/237
f 77/125/238 78/126/239 79/123/240
f 45/148/241 44/204/242 71/205/243
f 71/205/244 76/206/245 45/148/246
f 49/131/247 50/132/248 47/133/249
f 47/133/250 48/134/251 49/131/252
f 52/127/253 42/120/254 75/119/255
f 75/119/256 81/128/257 52/127/258
f 83/129/259 54/130/260 73/122/261
f 73/122/262 41/121/263 83/129/264
f 85/135/265 56/136/266 80/124/267
f 80/124/268 79/123/269 85/135/270
f 58/137/271 78/126/272 77/125/273
f 77/125/274 87/138/275 58/137/276
f 59/146/277 73/147/278 72/149/279
f 72/149/280 43/143/281 77/144/282
f 59/146/283 72/149/284 77/144/285
f 59/146/286 77/144/287 60/145/288
f 46/208/289 74/211/290 75/212/291
f 46/208/292 75/212/293 61/150/294
f 46/208/295 61/150/296 62/203/297
f 46/208/298 62/203/299 80/207/300
f 65/153/301 66/154/302 63/151/303
f 63/151/304 64/152/305 65/153/306
f 69/157/307 70/158/308 67/155/309
f 67/155/310 68/156/311 69/157/312
f 77/144/313 80/207/314 50/132/315
f 50/132/316 49/131/317 77/144/318
f 75/212/319 73/147/320 48/134/321
f 48/134/322 47/133/323 75/212/324
f 60/145/325 77/144/326 49/131/327
f 48/134/328 73/147/329 59/146/330
f 61/150/331 75/212/332 47/133/333
f 50/132/334 80/207/335 62/203/336
f 49/161/337 48/162/338 63/159/339
f 63/159/340 66/160/341 49/161/342
f 48/165/343 59/166/344 64/163/345
f 64/163/346 63/164/347 48/165/348
f 59/169/349 60/170/350 65/167/351
f 65/167/352 64/168/353 59/169/354
f 60/173/355 49/174/356 66/171/357
f 66/171/358 65/172/359 60/173/360
f 47/177/361 50/178/362 67/175/363
f 67/175/364 70/176/365 47/177/366
f 50/181/367 62/182/368 68/179/369
f 68/179/370 67/180/371 50/181/372
f 62/185/373 61/186/374 69/183/375
f 69/183/376 68/184/377 62/185/378
f 61/189/379 47/190/380 70/187/381
f 70/187/382 69/188/383 61/189/384
f 45/148/385 76/206/386 82/209/387
f 82/209/388 55/210/389 45/148/390
f 71/205/391 44/204/392 88/213/393
f 88/213/394 53/214/395 71/205/396
f 51/215/397 74/216/398 46/217/399
f 46/217/400 86/218/401 51/215/402
f 57/219/403 43/220/404 72/221/405
f 72/221/406 84/222/407 57/219/408
f 53/214/409 88/213/410 57/219/411
f 57/219/412 84/222/413 53/214/414
f 55/210/415 82/209/416 51/215/417
f 51/215/418 86/218/419 55/210/420
f 71/140/421 41/121/422 42/120/423
f 42/120/424 76/139/425 71/140/426
f 45/142/427 79/123/428 78/126/429
f 78/126/430 44/141/431 45/142/432
f 76/139/433 42/120/434 52/127/435
f 52/127/436 82/191/437 76/139/438
f 51/193/439 81/128/440 75/119/441
f 75/119/442 74/192/443 51/193/444
f 82/191/445 52/127/446 81/128/447
f 81/128/448 51/193/449 82/191/450
f 84/195/451 54/130/452 83/129/453
f 83/129/454 53/194/455 84/195/456
f 72/196/457 73/122/458 54/130/459
f 54/130/460 84/195/461 72/196/462
f 53/194/463 83/129/464 41/121/465
f 41/121/466 71/140/467 53/194/468
f 86/198/469 56/136/470 85/135/471
f 85/135/472 55/197/473 86/198/474
f 46/199/475 80/124/476 56/136/477
f 56/136/478 86/198/479 46/199/480
f 55/197/481 85/135/482 79/123/483
f 79/123/484 45/142/485 55/197/486
f 44/141/487 78/126/488 58/137/489
f 58/137/490 88/200/491 44/141/492
f 57/202/493 87/138/494 77/125/495
f 77/125/496 43/201/497 57/202/498
f 88/200/499 58/137/500 87/138/501
f 87/138/502 57/202/503 88/200/504
