# This file uses feet as units for non-parametric coordinates.

g default
v -67.272552 -0.000004 53.525688
v -67.985077 7.343895 -0.000008
v -67.985077 3.984295 -0.000008
v -67.985077 0.712494 54.238197
v -67.985077 0.712494 -0.000008
v -66.582855 4.656197 -0.000008
v -66.582855 6.671997 -0.000008
v -67.138611 9.428192 0.457298
v -65.960022 9.428192 1.443893
v -66.260040 2.640694 1.443893
v -67.272552 -0.000004 0.712494
v -67.685059 8.715698 -0.000008
v -66.260040 2.640694 52.794197
v -66.260040 9.428192 52.794197
v -67.438629 9.428192 53.780800
v -67.985077 8.715698 54.238197
v -67.985077 7.343895 52.576286
v -66.582855 6.671997 52.576286
v -66.582855 4.656197 52.576286
v -67.985077 3.984295 52.576286
v 0.000000 0.712494 -0.000008
v 0.000000 3.984295 -0.000008
v -1.402161 4.656197 -0.000008
v -0.712463 -0.000004 0.712494
v 0.000000 8.715698 -0.000008
v 0.000000 7.343895 -0.000008
v 0.000000 7.343895 52.576286
v -0.546387 9.428192 0.457298
v -1.799988 9.428192 1.443893
v -0.546387 9.428192 53.780800
v -1.799988 9.428192 52.794197
v -1.799988 2.640694 1.443893
v -1.799988 2.640694 52.794197
v -1.402161 6.671997 -0.000008
v 0.000000 0.712494 54.238197
v 0.000000 3.984295 52.576286
v 0.000000 8.715698 54.238197
v -1.402161 6.671997 52.576286
v -0.712463 -0.000004 53.525688
v -1.402161 4.656197 52.576286
v -35.664429 6.682312 55.298576
v -36.169312 5.926613 55.298576
v -34.877014 7.208412 55.298576
v -35.664429 3.250015 55.298576
v -34.877014 2.723816 55.298576
v -36.169312 4.005615 55.298576
v -33.019714 2.723717 55.298576
v -31.727112 4.005615 55.298576
v -33.948120 2.539017 55.298576
v -31.727112 5.926613 55.298576
v -33.019409 7.208412 55.298576
v -33.948120 7.393112 55.298576
v -32.232056 3.250015 55.298576
v -32.232056 6.682312 55.298576
v -36.534729 6.037514 55.045082
v -35.927917 6.945816 55.045082
v -35.927917 6.945816 53.609886
v -36.534729 6.037514 53.609886
v -35.019653 7.552719 55.045082
v -35.019653 7.552719 53.609886
v -36.534729 3.894814 55.045082
v -36.534729 3.894814 53.609978
v -35.927917 2.986412 53.609978
v -35.927917 2.986412 55.045082
v -35.019653 2.379517 53.609978
v -35.019653 2.379517 55.045082
v -33.948120 2.166420 55.045082
v -33.948120 2.166420 53.609978
v -32.876831 2.379517 53.609978
v -32.876831 2.379517 55.045082
v -32.876831 7.552719 55.045082
v -32.876831 7.552719 53.609886
v -33.948120 7.765915 53.609886
v -33.948120 7.765915 55.045082
v -31.361633 3.894814 55.045082
v -31.968567 2.986412 55.045082
v -31.968567 2.986412 53.609978
v -31.361633 3.894814 53.609978
v -31.361633 6.037514 55.045082
v -31.361633 6.037514 53.609886
v -31.968567 6.945816 53.609886
v -31.968567 6.945816 55.045082
vt 0.090686 0.198634
vt 0.090686 0.335252
vt 0.072686 0.335252
vt 0.917481 0.812572
vt 0.072686 0.198634
vt 0.605223 0.805384
vt 0.042887 0.709014
vt 0.046772 0.709014
vt 0.046772 0.854178
vt 0.043031 0.858721
vt 0.055966 0.709014
vt 0.065031 0.709014
vt 0.065031 0.858711
vt 0.055966 0.854178
vt 0.040945 0.710309
vt 0.041340 0.857416
vt 0.175149 0.502240
vt 0.098183 0.188090
vt 0.098183 0.335327
vt 0.175149 0.649476
vt 0.068896 0.711345
vt 0.068826 0.857223
vt 0.762593 0.818134
vt 0.924906 0.816183
vt 0.905546 0.817338
vt 0.917376 0.633436
vt 0.902966 0.820451
vt 0.765312 0.821242
vt 0.905528 0.997283
vt 0.902942 0.993880
vt 0.762833 0.996411
vt 0.926879 0.820081
vt 0.916131 0.816191
vt 0.934129 0.816183
vt 0.937884 0.817014
vt 0.765500 0.993010
vt 0.932313 0.820079
vt 0.216897 0.036735
vt 0.387670 0.036735
vt 0.605223 0.627458
vt 0.746373 0.627458
vt 0.746373 0.805384
vt 0.746014 0.625013
vt 0.229087 0.968882
vt 0.229086 0.977822
vt 0.225331 0.976004
vt 0.225326 0.970595
vt 0.750713 0.807703
vt 0.602516 0.621775
vt 0.919293 0.631791
vt 0.919753 0.814360
vt 0.940789 0.631793
vt 0.940975 0.814001
vt 0.937933 1.001240
vt 0.932302 0.997424
vt 0.926749 0.997493
vt 0.939827 0.818568
vt 0.941558 0.998469
vt 0.909782 0.816995
vt 0.916164 1.001232
vt 0.909917 0.997929
vt 0.924897 1.001476
vt 0.934311 1.001312
vt 0.963208 0.815596
vt 0.076010 0.857853
vt 0.945079 0.815596
vt 0.075806 0.712213
vt 0.076830 0.716624
vt 0.076830 0.858810
vt 0.085895 0.858810
vt 0.171264 0.649476
vt 0.171264 0.502240
vt 0.094299 0.335327
vt 0.085895 0.716624
vt 0.094299 0.188090
vt 0.094830 0.712222
vt 0.094830 0.858810
vt 0.076266 0.857646
vt 0.080398 0.713106
vt 0.122343 0.335418
vt 0.122343 0.195563
vt 0.127653 0.195563
vt 0.127653 0.335418
vt 0.603280 0.623889
vt 0.603280 0.452317
vt 0.739768 0.452317
vt 0.739768 0.623889
vt 0.075147 0.502127
vt 0.079161 0.502127
vt 0.079161 0.649363
vt 0.075147 0.649363
vt 0.388469 0.054735
vt 0.216897 0.054735
vt 0.137250 0.335451
vt 0.131941 0.335451
vt 0.131941 0.195596
vt 0.137250 0.195596
vt 0.149522 0.512772
vt 0.167652 0.512772
vt 0.167652 0.649390
vt 0.149522 0.649390
vt 0.242922 0.993214
vt 0.245255 0.989269
vt 0.250682 0.989119
vt 0.252561 0.992925
vt 0.085254 0.649385
vt 0.081239 0.649385
vt 0.081239 0.502149
vt 0.085254 0.502149
vt 0.945079 0.644024
vt 0.963208 0.644024
vt 0.746338 0.630353
vt 0.748911 0.805878
vt 0.750841 0.626151
vt 0.911849 0.814907
vt 0.914154 1.002174
vt 0.602486 0.624141
vt 0.745557 0.627663
vt 0.066883 0.709337
vt 0.066954 0.859099
vt 0.905555 0.817329
vt 0.902958 0.820447
vt 0.905786 0.996829
vt 0.902966 0.993450
vt 0.078983 0.683012
vt 0.081055 0.681588
vt 0.077559 0.685084
vt 0.088436 0.683012
vt 0.089861 0.685084
vt 0.086365 0.681588
vt 0.089861 0.690264
vt 0.086365 0.693760
vt 0.090379 0.687674
vt 0.081055 0.693760
vt 0.077559 0.690264
vt 0.077041 0.687674
vt 0.088436 0.692336
vt 0.078983 0.692336
vt 0.249229 0.999861
vt 0.246639 0.999861
vt 0.246639 0.995847
vt 0.249229 0.995847
vt 0.244049 0.999861
vt 0.244049 0.995847
vt 0.224528 0.986249
vt 0.224528 0.982105
vt 0.227118 0.982105
vt 0.227118 0.986249
vt 0.229578 0.982105
vt 0.229578 0.986249
vt 0.232686 0.986249
vt 0.232686 0.982105
vt 0.235665 0.982105
vt 0.235665 0.986249
vt 0.238092 0.999861
vt 0.238092 0.995847
vt 0.241071 0.995847
vt 0.241071 0.999861
vt 0.240845 0.986249
vt 0.238255 0.986249
vt 0.238255 0.982105
vt 0.240845 0.982105
vt 0.103434 0.694796
vt 0.103434 0.690652
vt 0.106154 0.690652
vt 0.106154 0.694796
vt 0.235502 0.999861
vt 0.235502 0.995847
vt 0.080796 0.680681
vt 0.078336 0.682235
vt 0.086624 0.680681
vt 0.089084 0.682235
vt 0.090767 0.684696
vt 0.091285 0.687674
vt 0.090767 0.690652
vt 0.089084 0.693113
vt 0.086624 0.694796
vt 0.080796 0.694796
vt 0.078336 0.693113
vt 0.076652 0.690652
vt 0.076005 0.687674
vt 0.076652 0.684696
vt 0.099146 0.689099
vt 0.099146 0.694796
vt 0.095390 0.694796
vt 0.095390 0.689099
vt 0.000139 0.680319
vt 0.000139 0.674621
vt 0.003894 0.674621
vt 0.003894 0.680319
vn 0.000000 0.000000 -1.000000
vn 0.000000 0.000000 -1.000000
vn 0.000000 0.000000 -1.000000
vn -0.999968 0.008014 -0.000203
vn -0.976895 0.213650 -0.005404
vn -0.977625 0.210289 -0.005319
vn -0.977625 0.210289 -0.005319
vn -1.000000 0.000000 0.000000
vn -0.999968 0.008014 -0.000203
vn 0.000000 1.000000 0.000000
vn 0.000000 1.000000 0.000000
vn 0.000000 1.000000 0.000000
vn 0.000000 1.000000 0.000000
vn 0.000000 1.000000 0.000000
vn 0.000000 1.000000 0.000000
vn 0.000000 1.000000 0.000000
vn 0.000000 1.000000 0.000000
vn 0.000000 1.000000 0.000000
vn 0.000000 1.000000 0.000000
vn 0.000000 1.000000 0.000000
vn 0.000000 1.000000 0.000000
vn 0.999167 -0.040467 0.005349
vn 0.999008 -0.044158 0.005837
vn 0.999993 -0.003698 0.000489
vn 0.999993 -0.003698 0.000489
vn 1.000000 0.000000 0.000000
vn 0.999167 -0.040467 0.005349
vn 0.000000 0.000000 -1.000000
vn 0.000000 0.000000 -1.000000
vn 0.000000 0.000000 -1.000000
vn -1.000000 0.000000 0.000000
vn -1.000000 0.000000 0.000000
vn -1.000000 0.000000 0.000000
vn -1.000000 0.000000 0.000000
vn -1.000000 0.000000 0.000000
vn -1.000000 0.000000 0.000000
vn 0.000000 -1.000000 -0.000000
vn 0.000000 -1.000000 -0.000000
vn 0.000000 -1.000000 -0.000000
vn 0.000000 -1.000000 -0.000000
vn 0.000000 -1.000000 -0.000000
vn 0.000000 -1.000000 -0.000000
vn 0.000000 0.000000 -1.000000
vn 0.000000 0.000000 -1.000000
vn 0.000000 0.000000 -1.000000
vn 0.000000 0.000000 -1.000000
vn 0.000000 0.000000 -1.000000
vn 0.000000 0.000000 -1.000000
vn 0.000000 0.000000 -1.000000
vn 0.000000 0.000000 -1.000000
vn 0.000000 0.000000 -1.000000
vn 0.000000 0.000000 -1.000000
vn 0.000000 0.000000 -1.000000
vn 0.000000 0.000000 -1.000000
vn -0.432120 -0.901816 -0.000000
vn -0.432120 -0.901816 -0.000000
vn -0.432120 -0.901816 -0.000000
vn -0.432120 -0.901816 -0.000000
vn -0.432120 -0.901816 -0.000000
vn -0.432120 -0.901816 -0.000000
vn -0.794828 0.606818 -0.004397
vn -0.792106 0.610367 -0.004457
vn -0.792148 0.610313 -0.004456
vn -0.792148 0.610313 -0.004456
vn -0.794851 0.606789 -0.004397
vn -0.794828 0.606818 -0.004397
vn -1.000000 0.000000 0.000000
vn -1.000000 0.000000 0.000000
vn -1.000000 0.000000 0.000000
vn -1.000000 0.000000 0.000000
vn -1.000000 0.000000 0.000000
vn -1.000000 0.000000 0.000000
vn -0.432122 0.901815 0.000000
vn -0.432122 0.901815 0.000000
vn -0.432122 0.901815 0.000000
vn -0.432122 0.901815 0.000000
vn -0.432122 0.901815 0.000000
vn -0.432122 0.901815 0.000000
vn -0.707093 -0.707120 -0.000000
vn -0.707094 -0.707120 -0.000000
vn -0.707094 -0.707120 -0.000000
vn -0.707094 -0.707120 -0.000000
vn -0.707094 -0.707120 -0.000000
vn -0.707093 -0.707120 -0.000000
vn -1.000000 0.000000 0.000000
vn -1.000000 0.000000 0.000000
vn -1.000000 0.000000 0.000000
vn -1.000000 0.000000 0.000000
vn -1.000000 0.000000 0.000000
vn -1.000000 0.000000 0.000000
vn 0.000000 0.000000 -1.000000
vn 0.000000 0.000000 -1.000000
vn 0.000000 0.000000 -1.000000
vn 0.000000 0.000000 -1.000000
vn 0.000000 0.000000 -1.000000
vn 0.000000 0.000000 -1.000000
vn 0.000000 0.000000 -1.000000
vn 0.000000 0.000000 -1.000000
vn 0.000000 0.000000 -1.000000
vn 0.000000 0.000000 -1.000000
vn 0.000000 0.000000 -1.000000
vn 0.000000 0.000000 -1.000000
vn 0.000000 0.540151 -0.841568
vn 0.000000 0.540151 -0.841568
vn 0.000000 0.540151 -0.841568
vn 0.000000 0.540151 -0.841568
vn 0.000000 0.540151 -0.841568
vn 0.000000 0.540151 -0.841568
vn 0.000000 -0.707109 -0.707105
vn 0.000000 -0.707109 -0.707105
vn 0.000000 -0.707109 -0.707105
vn 0.000000 -0.707109 -0.707105
vn 0.000000 -0.707109 -0.707105
vn 0.000000 -0.707109 -0.707105
vn 0.000000 0.000000 -1.000000
vn 0.000000 0.000000 -1.000000
vn 0.000000 0.000000 -1.000000
vn 1.000000 0.000000 0.000000
vn 1.000000 0.000000 0.000000
vn 1.000000 0.000000 0.000000
vn 1.000000 0.000000 0.000000
vn 1.000000 0.000000 0.000000
vn 1.000000 0.000000 0.000000
vn 0.000000 1.000000 0.000000
vn 0.000000 1.000000 0.000000
vn 0.000000 1.000000 0.000000
vn 0.000000 1.000000 0.000000
vn 0.000000 1.000000 0.000000
vn 0.000000 1.000000 0.000000
vn -1.000000 0.000000 0.000000
vn -1.000000 0.000000 0.000000
vn -1.000000 0.000000 0.000000
vn -1.000000 0.000000 0.000000
vn -1.000000 0.000000 0.000000
vn -1.000000 0.000000 0.000000
vn 0.000000 1.000000 0.000000
vn 0.000000 1.000000 0.000000
vn 0.000000 1.000000 0.000000
vn 0.000000 1.000000 0.000000
vn 0.000000 1.000000 0.000000
vn 0.000000 1.000000 0.000000
vn 0.000000 1.000000 0.000000
vn 0.000000 1.000000 0.000000
vn 0.000000 1.000000 0.000000
vn 0.000000 1.000000 0.000000
vn 0.000000 1.000000 0.000000
vn 0.000000 1.000000 0.000000
vn 0.000000 -0.000000 1.000000
vn 0.000000 -0.000000 1.000000
vn 0.000000 -0.000000 1.000000
vn 0.000000 -0.000000 1.000000
vn 0.000000 -0.000000 1.000000
vn 0.000000 -0.000000 1.000000
vn 0.000000 0.000000 -1.000000
vn 0.000000 0.000000 -1.000000
vn 0.000000 0.000000 -1.000000
vn 1.000000 0.000000 0.000000
vn 1.000000 0.000000 0.000000
vn 1.000000 0.000000 0.000000
vn 1.000000 0.000000 0.000000
vn 1.000000 0.000000 0.000000
vn 1.000000 0.000000 0.000000
vn 0.432135 -0.901809 -0.000000
vn 0.432135 -0.901809 -0.000000
vn 0.432135 -0.901809 -0.000000
vn 0.432135 -0.901809 -0.000000
vn 0.432135 -0.901809 -0.000000
vn 0.432135 -0.901809 -0.000000
vn 0.793530 0.608531 0.000000
vn 0.793530 0.608531 0.000000
vn 0.793530 0.608531 0.000000
vn 0.793530 0.608531 0.000000
vn 0.793530 0.608531 0.000000
vn 0.793530 0.608531 0.000000
vn 0.000000 -0.707112 0.707101
vn 0.000000 -0.707112 0.707101
vn 0.000000 -0.707112 0.707101
vn 0.000000 -0.707112 0.707101
vn 0.000000 -0.707112 0.707101
vn 0.000000 -0.707112 0.707101
vn 0.000000 0.540227 0.841519
vn 0.000000 0.540227 0.841519
vn 0.000000 0.540227 0.841519
vn 0.000000 0.540227 0.841519
vn 0.000000 0.540227 0.841519
vn 0.000000 0.540227 0.841519
vn 1.000000 0.000000 0.000000
vn 1.000000 0.000000 0.000000
vn 1.000000 0.000000 0.000000
vn 1.000000 0.000000 0.000000
vn 1.000000 0.000000 0.000000
vn 1.000000 0.000000 0.000000
vn 0.432138 0.901808 0.000000
vn 0.432137 0.901808 0.000000
vn 0.432138 0.901808 0.000000
vn 0.432138 0.901808 0.000000
vn 0.432137 0.901808 0.000000
vn 0.432138 0.901808 0.000000
vn 0.707124 -0.707090 -0.000000
vn 0.707124 -0.707090 -0.000000
vn 0.707124 -0.707090 -0.000000
vn 0.707124 -0.707090 -0.000000
vn 0.707124 -0.707090 -0.000000
vn 0.707124 -0.707090 -0.000000
vn 1.000000 0.000000 0.000000
vn 1.000000 0.000000 0.000000
vn 1.000000 0.000000 0.000000
vn 1.000000 0.000000 0.000000
vn 1.000000 0.000000 0.000000
vn 1.000000 0.000000 0.000000
vn 0.000000 0.000000 -1.000000
vn 0.000000 0.000000 -1.000000
vn 0.000000 0.000000 -1.000000
vn 0.000000 0.000000 -1.000000
vn 0.000000 0.000000 -1.000000
vn 0.000000 0.000000 -1.000000
vn 0.000000 -0.000000 1.000000
vn 0.000000 -0.000000 1.000000
vn 0.000000 -0.000000 1.000000
vn 0.000000 -0.000000 1.000000
vn 0.000000 -0.000000 1.000000
vn 0.000000 -0.000000 1.000000
vn 0.000000 0.000000 -1.000000
vn 0.000000 0.000000 -1.000000
vn 0.000000 0.000000 -1.000000
vn 0.000000 0.000000 -1.000000
vn 0.000000 0.000000 -1.000000
vn 0.000000 0.000000 -1.000000
vn -0.231304 0.231292 0.944988
vn -0.322303 0.097749 0.941576
vn -0.125153 0.302184 0.944998
vn -0.231267 -0.231251 0.945007
vn -0.125172 -0.302182 0.944996
vn -0.322313 -0.097760 0.941572
vn -0.322313 -0.097760 0.941572
vn -0.000004 -0.327128 0.944980
vn 0.125142 -0.302182 0.945000
vn 0.125142 -0.302182 0.945000
vn 0.322281 -0.097787 0.941580
vn -0.322313 -0.097760 0.941572
vn -0.322313 -0.097760 0.941572
vn 0.322281 -0.097787 0.941580
vn 0.322267 0.097756 0.941588
vn 0.322267 0.097756 0.941588
vn -0.322303 0.097749 0.941576
vn -0.322313 -0.097760 0.941572
vn 0.125182 0.302173 0.944998
vn -0.000010 0.326993 0.945027
vn -0.322303 0.097749 0.941576
vn -0.322303 0.097749 0.941576
vn 0.322267 0.097756 0.941588
vn 0.125182 0.302173 0.944998
vn -0.125153 0.302184 0.944998
vn -0.322303 0.097749 0.941576
vn -0.000010 0.326993 0.945027
vn -0.322313 -0.097760 0.941572
vn -0.125172 -0.302182 0.944996
vn -0.000004 -0.327128 0.944980
vn 0.231270 -0.231254 0.945006
vn 0.322281 -0.097787 0.941580
vn 0.125142 -0.302182 0.945000
vn 0.322267 0.097756 0.941588
vn 0.231293 0.231289 0.944991
vn 0.125182 0.302173 0.944998
vn -0.707138 0.707075 0.000000
vn -0.831510 0.555509 0.000000
vn -0.831510 0.555509 0.000000
vn -0.831510 0.555509 0.000000
vn -0.707138 0.707075 0.000000
vn -0.707138 0.707075 0.000000
vn -0.382713 0.923867 0.000000
vn -0.707138 0.707075 0.000000
vn -0.707138 0.707075 0.000000
vn -0.707138 0.707075 0.000000
vn -0.382713 0.923867 0.000000
vn -0.382713 0.923867 0.000000
vn -0.707154 -0.707060 -0.000000
vn -0.707154 -0.707060 -0.000000
vn -0.831539 -0.555467 -0.000000
vn -0.831539 -0.555467 -0.000000
vn -0.831539 -0.555467 -0.000000
vn -0.707154 -0.707060 -0.000000
vn -0.382669 -0.923885 -0.000000
vn -0.382669 -0.923885 -0.000000
vn -0.707154 -0.707060 -0.000000
vn -0.707154 -0.707060 -0.000000
vn -0.707154 -0.707060 -0.000000
vn -0.382669 -0.923885 -0.000000
vn 0.382690 -0.923877 -0.000000
vn 0.382690 -0.923877 -0.000000
vn 0.000022 -1.000000 -0.000000
vn 0.000022 -1.000000 -0.000000
vn 0.000022 -1.000000 -0.000000
vn 0.382690 -0.923877 -0.000000
vn 0.000022 1.000000 0.000000
vn 0.000022 1.000000 0.000000
vn 0.382733 0.923859 0.000000
vn 0.382733 0.923859 0.000000
vn 0.382733 0.923859 0.000000
vn 0.000022 1.000000 0.000000
vn 0.000022 1.000000 0.000000
vn -0.382713 0.923867 0.000000
vn -0.382713 0.923867 0.000000
vn -0.382713 0.923867 0.000000
vn 0.000022 1.000000 0.000000
vn 0.000022 1.000000 0.000000
vn -0.382669 -0.923885 -0.000000
vn 0.000022 -1.000000 -0.000000
vn 0.000022 -1.000000 -0.000000
vn 0.000022 -1.000000 -0.000000
vn -0.382669 -0.923885 -0.000000
vn -0.382669 -0.923885 -0.000000
vn 0.707121 -0.707092 -0.000000
vn 0.831487 -0.555544 -0.000000
vn 0.831487 -0.555544 -0.000000
vn 0.831487 -0.555544 -0.000000
vn 0.707121 -0.707092 -0.000000
vn 0.707121 -0.707092 -0.000000
vn 0.382690 -0.923877 -0.000000
vn 0.707121 -0.707092 -0.000000
vn 0.707121 -0.707092 -0.000000
vn 0.707121 -0.707092 -0.000000
vn 0.382690 -0.923877 -0.000000
vn 0.382690 -0.923877 -0.000000
vn 0.831459 0.555586 0.000000
vn 0.831459 0.555586 0.000000
vn 0.831459 0.555586 0.000000
vn 0.831459 0.555586 0.000000
vn 0.831459 0.555586 0.000000
vn 0.831459 0.555586 0.000000
vn 0.555583 0.831461 0.000000
vn 0.382733 0.923859 0.000000
vn 0.382733 0.923859 0.000000
vn 0.382733 0.923859 0.000000
vn 0.555583 0.831461 0.000000
vn 0.555583 0.831461 0.000000
vn -0.231304 0.231292 0.944988
vn -0.397724 0.397705 0.826829
vn -0.529238 0.160537 0.833148
vn -0.529238 0.160537 0.833148
vn -0.322303 0.097749 0.941576
vn -0.231304 0.231292 0.944988
vn -0.322303 0.097749 0.941576
vn -0.529238 0.160537 0.833148
vn -0.529278 -0.160515 0.833126
vn -0.529278 -0.160515 0.833126
vn -0.322313 -0.097760 0.941572
vn -0.322303 0.097749 0.941576
vn -0.322313 -0.097760 0.941572
vn -0.529278 -0.160515 0.833126
vn -0.397682 -0.397681 0.826861
vn -0.397682 -0.397681 0.826861
vn -0.231267 -0.231251 0.945007
vn -0.322313 -0.097760 0.941572
vn -0.231267 -0.231251 0.945007
vn -0.397682 -0.397681 0.826861
vn -0.215231 -0.519603 0.826855
vn -0.215231 -0.519603 0.826855
vn -0.125172 -0.302182 0.944996
vn -0.231267 -0.231251 0.945007
vn -0.125172 -0.302182 0.944996
vn -0.215231 -0.519603 0.826855
vn -0.000001 -0.562495 0.826801
vn -0.000001 -0.562495 0.826801
vn -0.000004 -0.327128 0.944980
vn -0.125172 -0.302182 0.944996
vn -0.000004 -0.327128 0.944980
vn -0.000001 -0.562495 0.826801
vn 0.215274 -0.519594 0.826849
vn 0.215274 -0.519594 0.826849
vn 0.125142 -0.302182 0.945000
vn -0.000004 -0.327128 0.944980
vn 0.125142 -0.302182 0.945000
vn 0.215274 -0.519594 0.826849
vn 0.397666 -0.397669 0.826874
vn 0.397666 -0.397669 0.826874
vn 0.231270 -0.231254 0.945006
vn 0.125142 -0.302182 0.945000
vn 0.231270 -0.231254 0.945006
vn 0.397666 -0.397669 0.826874
vn 0.529199 -0.160526 0.833175
vn 0.529199 -0.160526 0.833175
vn 0.322281 -0.097787 0.941580
vn 0.231270 -0.231254 0.945006
vn 0.322281 -0.097787 0.941580
vn 0.529199 -0.160526 0.833175
vn 0.529180 0.160536 0.833185
vn 0.529180 0.160536 0.833185
vn 0.322267 0.097756 0.941588
vn 0.322281 -0.097787 0.941580
vn 0.322267 0.097756 0.941588
vn 0.529180 0.160536 0.833185
vn 0.397718 0.397717 0.826826
vn 0.397718 0.397717 0.826826
vn 0.231293 0.231289 0.944991
vn 0.322267 0.097756 0.941588
vn 0.231293 0.231289 0.944991
vn 0.397718 0.397717 0.826826
vn 0.215256 0.519619 0.826838
vn 0.215256 0.519619 0.826838
vn 0.125182 0.302173 0.944998
vn 0.231293 0.231289 0.944991
vn 0.125182 0.302173 0.944998
vn 0.215256 0.519619 0.826838
vn -0.000011 0.562311 0.826926
vn -0.000011 0.562311 0.826926
vn -0.000010 0.326993 0.945027
vn 0.125182 0.302173 0.944998
vn -0.000010 0.326993 0.945027
vn -0.000011 0.562311 0.826926
vn -0.215219 0.519588 0.826867
vn -0.215219 0.519588 0.826867
vn -0.125153 0.302184 0.944998
vn -0.000010 0.326993 0.945027
vn -0.125153 0.302184 0.944998
vn -0.215219 0.519588 0.826867
vn -0.397724 0.397705 0.826829
vn -0.397724 0.397705 0.826829
vn -0.231304 0.231292 0.944988
vn -0.125153 0.302184 0.944998
vn -1.000000 0.000000 0.000000
vn -1.000000 0.000000 0.000000
vn -1.000000 0.000000 0.000000
vn -1.000000 0.000000 0.000000
vn -1.000000 0.000000 0.000000
vn -1.000000 0.000000 0.000000
vn 1.000000 0.000000 0.000000
vn 1.000000 0.000000 0.000000
vn 1.000000 0.000000 0.000000
vn 1.000000 0.000000 0.000000
vn 1.000000 0.000000 0.000000
vn 1.000000 0.000000 0.000000
s off
g SM_Desk_03b
f 3/24/1 6/32/2 5/33/3
f 16/10/4 12/7/5 2/8/6
f 2/8/7 17/9/8 16/10/9
f 9/28/10 8/23/11 15/25/12
f 15/25/13 14/27/14 9/28/15
f 14/122/16 15/121/17 30/123/18
f 30/123/19 31/124/20 14/122/21
f 10/5/22 9/1/23 14/2/24
f 14/2/25 13/3/26 10/5/27
f 2/34/28 12/35/29 7/37/30
f 20/14/31 3/11/32 5/12/33
f 5/12/34 4/13/35 20/14/36
f 1/42/37 11/6/38 24/40/39
f 24/40/40 39/41/41 1/42/42
f 34/55/43 7/37/44 12/35/45
f 12/35/46 25/54/47 34/55/48
f 6/32/49 7/37/50 34/55/51
f 34/55/52 23/56/53 6/32/54
f 2/72/55 7/17/56 18/20/57
f 18/20/58 17/71/59 2/72/60
f 15/16/61 8/15/62 12/7/63
f 12/7/64 16/10/65 15/16/66
f 19/83/67 18/80/68 7/81/69
f 7/81/70 6/82/71 19/83/72
f 20/75/73 19/18/74 6/19/75
f 6/19/76 3/73/77 20/75/78
f 1/22/79 4/120/80 5/119/81
f 5/119/82 11/21/83 1/22/84
f 4/13/85 16/10/86 17/9/87
f 17/9/88 20/14/89 4/13/90
f 19/47/91 20/44/92 17/45/93
f 17/45/94 18/46/95 19/47/96
f 31/110/97 33/111/98 13/64/99
f 13/64/100 14/66/101 31/110/102
f 25/54/103 12/35/104 8/57/105
f 8/57/106 28/58/107 25/54/108
f 21/116/109 24/61/110 11/59/111
f 11/59/112 5/115/113 21/116/114
f 21/60/115 23/56/116 22/62/117
f 37/67/118 27/68/119 26/69/120
f 26/69/121 25/65/122 37/67/123
f 29/36/124 31/30/125 30/29/126
f 30/29/127 28/31/128 29/36/129
f 32/99/130 33/100/131 31/101/132
f 31/101/133 29/98/134 32/99/135
f 33/87/136 32/84/137 10/85/138
f 10/85/139 13/86/140 33/87/141
f 9/28/142 29/36/143 28/31/144
f 28/31/145 8/23/146 9/28/147
f 32/93/148 29/38/149 9/39/150
f 9/39/151 10/92/152 32/93/153
f 26/63/154 34/55/155 25/54/156
f 36/74/157 35/76/158 21/77/159
f 21/77/160 22/70/161 36/74/162
f 26/89/163 27/90/164 38/91/165
f 38/91/166 34/88/167 26/89/168
f 30/79/169 37/67/170 25/65/171
f 25/65/172 28/78/173 30/79/174
f 39/112/175 35/114/176 4/48/177
f 4/48/178 1/113/179 39/112/180
f 16/50/181 37/51/182 30/4/183
f 30/4/184 15/26/185 16/50/186
f 40/95/187 23/96/188 34/97/189
f 34/97/190 38/94/191 40/95/192
f 36/107/193 22/108/194 23/109/195
f 23/109/196 40/106/197 36/107/198
f 39/118/199 24/117/200 21/49/201
f 21/49/202 35/43/203 39/118/204
f 35/76/205 36/74/206 27/68/207
f 27/68/208 37/67/209 35/76/210
f 40/103/211 38/104/212 27/105/213
f 27/105/214 36/102/215 40/103/216
f 35/53/217 37/51/218 16/50/219
f 16/50/220 4/52/221 35/53/222
f 21/60/223 5/33/224 6/32/225
f 6/32/226 23/56/227 21/60/228
f 41/125/229 42/126/230 43/127/231
f 44/128/232 45/129/233 46/130/234
f 46/130/235 49/133/236 47/131/237
f 47/131/238 48/132/239 46/130/240
f 46/130/241 48/132/242 50/134/243
f 50/134/244 42/126/245 46/130/246
f 51/135/247 52/136/248 42/126/249
f 42/126/250 50/134/251 51/135/252
f 43/127/253 42/126/254 52/136/255
f 46/130/256 45/129/257 49/133/258
f 53/137/259 48/132/260 47/131/261
f 50/134/262 54/138/263 51/135/264
f 57/141/265 58/142/266 55/139/267
f 55/139/268 56/140/269 57/141/270
f 60/144/271 57/141/272 56/140/273
f 56/140/274 59/143/275 60/144/276
f 63/147/277 64/148/278 61/145/279
f 61/145/280 62/146/281 63/147/282
f 65/149/283 66/150/284 64/148/285
f 64/148/286 63/147/287 65/149/288
f 69/153/289 70/154/290 67/151/291
f 67/151/292 68/152/293 69/153/294
f 73/157/295 74/158/296 71/155/297
f 71/155/298 72/156/299 73/157/300
f 73/157/301 60/144/302 59/143/303
f 59/143/304 74/158/305 73/157/306
f 65/149/307 68/152/308 67/151/309
f 67/151/310 66/150/311 65/149/312
f 77/161/313 78/162/314 75/159/315
f 75/159/316 76/160/317 77/161/318
f 69/153/319 77/161/320 76/160/321
f 76/160/322 70/154/323 69/153/324
f 81/165/325 82/166/326 79/163/327
f 79/163/328 80/164/329 81/165/330
f 81/168/331 72/156/332 71/155/333
f 71/155/334 82/167/335 81/168/336
f 41/125/337 56/170/338 55/169/339
f 55/169/340 42/126/341 41/125/342
f 42/126/343 55/169/344 61/171/345
f 61/171/346 46/130/347 42/126/348
f 46/130/349 61/171/350 64/172/351
f 64/172/352 44/128/353 46/130/354
f 44/128/355 64/172/356 66/173/357
f 66/173/358 45/129/359 44/128/360
f 45/129/361 66/173/362 67/174/363
f 67/174/364 49/133/365 45/129/366
f 49/133/367 67/174/368 70/175/369
f 70/175/370 47/131/371 49/133/372
f 47/131/373 70/175/374 76/176/375
f 76/176/376 53/137/377 47/131/378
f 53/137/379 76/176/380 75/177/381
f 75/177/382 48/132/383 53/137/384
f 48/132/385 75/177/386 79/178/387
f 79/178/388 50/134/389 48/132/390
f 50/134/391 79/178/392 82/179/393
f 82/179/394 54/138/395 50/134/396
f 54/138/397 82/179/398 71/180/399
f 71/180/400 51/135/401 54/138/402
f 51/135/403 71/180/404 74/181/405
f 74/181/406 52/136/407 51/135/408
f 52/136/409 74/181/410 59/182/411
f 59/182/412 43/127/413 52/136/414
f 43/127/415 59/182/416 56/170/417
f 56/170/418 41/125/419 43/127/420
f 61/185/421 55/186/422 58/183/423
f 58/183/424 62/184/425 61/185/426
f 79/189/427 75/190/428 78/187/429
f 78/187/430 80/188/431 79/189/432
