# This file uses feet as units for non-parametric coordinates.

g default
v -0.989535 -33.173241 0.509332
v -1.614658 -34.320595 0.831094
v -1.614658 -37.779968 0.831094
v -0.989535 -38.927322 0.509331
v -0.000000 -39.353928 -0.000000
v 0.989535 -38.927322 -0.509332
v 1.614658 -37.779968 -0.831094
v 1.614658 -34.320595 -0.831094
v 0.989535 -33.173241 -0.509332
v 0.000000 -32.746635 0.000000
v 0.257888 -33.406647 0.501028
v -0.969664 -34.377113 1.144493
v -0.969664 -37.723442 1.144492
v 0.257888 -38.693909 0.501028
v 1.494897 -37.723442 -0.124062
v 1.494898 -34.377113 -0.124062
v -0.257888 -33.406647 -0.501028
v -1.494898 -34.377113 0.124062
v -1.494897 -37.723442 0.124062
v -0.257888 -38.693909 -0.501028
v 0.969664 -37.723442 -1.144492
v 0.969664 -34.377113 -1.144493
v -0.847393 -28.880846 -0.557391
v -1.222355 -30.001474 -1.194753
v -1.016719 -33.441208 -1.473396
v -0.505133 -34.602272 -1.020114
v 0.222038 -35.058029 -0.190835
v 0.898383 -34.665276 0.706654
v 1.273345 -33.544647 1.344016
v 1.067709 -30.104918 1.622659
v 0.556124 -28.943850 1.169377
v -0.171048 -28.488100 0.340097
v -0.568274 -29.208239 0.640132
v -1.392169 -30.135283 -0.506592
v -1.192269 -33.462540 -0.776747
v -0.252548 -34.465347 0.213800
v 0.555287 -33.541267 1.373137
v 0.355647 -30.214056 1.643707
v 0.303539 -29.080774 -0.064538
v -0.504296 -30.004850 -1.223874
v -0.304658 -33.332054 -1.494444
v 0.619264 -34.337883 -0.490868
v 1.443158 -33.410828 0.655856
v 1.243259 -30.083574 0.926009
v -0.989535 -25.759550 0.509332
v -1.614658 -26.906908 0.831094
v -1.614658 -30.366278 0.831094
v -0.989535 -31.513632 0.509331
v 0.000000 -31.940241 -0.000000
v 0.989535 -31.513632 -0.509331
v 1.614658 -30.366278 -0.831094
v 1.614658 -26.906908 -0.831094
v 0.989535 -25.759550 -0.509332
v -0.000000 -25.332945 -0.000000
v 0.257888 -25.992960 0.501028
v -0.969664 -26.963423 1.144493
v -0.969664 -30.309752 1.144492
v 0.257888 -31.280222 0.501028
v 1.494898 -30.309752 -0.124062
v 1.494898 -26.963423 -0.124062
v -0.257888 -25.992960 -0.501028
v -1.494898 -26.963423 0.124062
v -1.494898 -30.309752 0.124062
v -0.257888 -31.280222 -0.501028
v 0.969664 -30.309752 -1.144492
v 0.969664 -26.963423 -1.144493
v -0.748087 -21.526503 -0.823993
v -1.220679 -22.673861 -1.344537
v -1.220679 -26.133230 -1.344537
v -0.748087 -27.280584 -0.823993
v 0.000000 -27.707193 -0.000000
v 0.748087 -27.280584 0.823992
v 1.220679 -26.133230 1.344537
v 1.220679 -22.673861 1.344537
v 0.748087 -21.526503 0.823993
v 0.000000 -21.099894 -0.000000
v -0.417210 -21.759912 0.378777
v -1.356462 -22.730375 -0.640407
v -1.356462 -26.076704 -0.640407
v -0.417210 -27.047174 0.378776
v 0.506743 -26.076704 1.411850
v 0.506743 -22.730375 1.411851
v 0.417210 -21.759912 -0.378777
v -0.506743 -22.730375 -1.411851
v -0.506743 -26.076704 -1.411850
v 0.417209 -27.047174 -0.378776
v 1.356462 -26.076704 0.640407
v 1.356462 -22.730375 0.640407
v -0.207404 -18.234192 -0.148956
v -0.849984 -19.204681 0.487247
v -1.133318 -22.575201 1.162462
v -0.674805 -23.841333 0.970792
v 0.164283 -24.488340 0.396334
v 1.070843 -24.302633 -0.342597
v 1.713423 -23.332144 -0.978801
v 1.996757 -19.961622 -1.654015
v 1.538244 -18.695488 -1.462345
v 0.699157 -18.048481 -0.887887
v 0.992753 -18.623184 -0.321243
v -0.164753 -19.279703 0.691578
v -0.438731 -22.539927 1.346517
v 0.563640 -23.775854 0.709713
v 1.733974 -23.116358 -0.287735
v 2.007841 -19.855782 -0.942056
v 0.299799 -18.760965 -1.201267
v -0.870534 -19.420454 -0.203820
v -1.144400 -22.681032 0.450502
v -0.129313 -23.913637 -0.170310
v 1.028194 -23.257109 -1.183132
v 1.302171 -19.996883 -1.838072
v -0.210714 -15.313221 -1.040487
v -0.745002 -16.433357 -1.552476
v -0.899711 -19.888805 -1.559437
v -0.467337 -21.060804 -1.051457
v 0.278971 -21.527346 -0.244807
v 1.062962 -21.141584 0.563174
v 1.597251 -20.021446 1.075164
v 1.751960 -16.565996 1.082124
v 1.319585 -15.393999 0.574145
v 0.573277 -14.927460 -0.232505
v 0.135935 -15.566328 0.154129
v -0.867450 -16.484739 -0.845709
v -1.017555 -19.827251 -0.852307
v -0.100366 -20.847618 0.144313
v 0.888152 -19.928247 1.158407
v 1.038092 -16.585714 1.164946
v 0.952615 -15.607183 -0.621626
v -0.035903 -16.526548 -1.635719
v -0.185844 -19.869080 -1.642258
v 0.716313 -20.888475 -0.631441
v 1.719698 -19.970057 0.368397
v 1.869805 -16.627541 0.374994
v -0.329174 -11.162750 0.330569
v -0.997195 -12.277925 0.663596
v -1.151999 -15.733368 0.656979
v -0.585658 -16.910336 0.319097
v 0.372629 -17.384615 -0.212898
v 1.368437 -17.006582 -0.742968
v 2.036457 -15.891405 -1.075995
v 2.191261 -12.435963 -1.069377
v 1.624920 -11.258995 -0.731496
v 0.666633 -10.784716 -0.199501
v 0.906168 -11.459158 0.294426
v -0.348642 -12.368740 0.962670
v -0.498590 -15.711271 0.956110
v 0.670142 -16.740465 0.283615
v 1.934705 -15.831585 -0.366488
v 2.084800 -12.489071 -0.359900
v 0.369120 -11.428862 -0.696014
v -0.895442 -12.337738 -0.045911
v -1.045537 -15.680252 -0.052498
v 0.133095 -16.710169 -0.706824
v 1.387905 -15.800581 -1.375068
v 1.537852 -12.458052 -1.368510
v -0.113117 -7.375257 -1.111276
v -0.516756 -8.547398 -1.642084
v -0.437775 -12.004772 -1.564851
v 0.017686 -13.126045 -0.983525
v 0.707228 -13.512810 -0.093968
v 1.377663 -13.046812 0.777004
v 1.781301 -11.874670 1.307813
v 1.702321 -8.417295 1.230580
v 1.246860 -7.296026 0.649254
v 0.557318 -6.909258 -0.240304
v 0.126214 -7.571814 0.118687
v -0.706850 -8.591333 -0.949837
v -0.630287 -11.935726 -0.875072
v 0.246557 -12.856064 0.236142
v 1.063237 -11.836674 1.317315
v 0.986751 -8.492277 1.242520
v 1.017989 -7.566002 -0.570414
v 0.201309 -8.585386 -1.651587
v 0.277794 -11.929781 -1.576791
v 1.138331 -12.850252 -0.452958
v 1.971395 -11.830725 0.615566
v 1.894833 -8.486330 0.540801
v -0.546280 -4.445086 0.711750
v -1.109671 -5.624992 1.045696
v -0.935779 -9.079382 1.059954
v -0.258161 -10.190928 0.735964
v 0.745246 -10.563723 0.217107
v 1.706500 -10.084450 -0.305577
v 2.269892 -8.904543 -0.639523
v 2.095999 -5.450154 -0.653781
v 1.418381 -4.338610 -0.329791
v 0.414975 -3.965815 0.189065
v 0.710728 -4.607049 0.689799
v -0.459359 -5.642279 1.351732
v -0.290921 -8.983791 1.365721
v 0.975870 -9.886757 0.712376
v 2.155667 -8.850670 0.068714
v 1.987059 -5.509177 0.054695
v 0.184350 -4.642776 -0.306203
v -0.995447 -5.678858 0.337459
v -0.826839 -9.020350 0.351478
v 0.449493 -9.922485 -0.283626
v 1.619579 -8.887249 -0.945559
v 1.451141 -5.545734 -0.959549
v -0.473761 -0.449200 -0.764388
v -0.752935 -1.608019 -1.391819
v -0.494648 -5.055449 -1.471183
v -0.044635 -6.183424 -0.896744
v 0.564253 -6.584572 0.044691
v 1.109787 -6.135374 1.005908
v 1.388960 -4.976553 1.633339
v 1.130674 -1.529124 1.712703
v 0.680660 -0.401151 1.138264
v 0.071773 0.000000 0.196828
v -0.359448 -0.707625 0.474005
v -1.014610 -1.705937 -0.727875
v -0.763812 -5.040636 -0.804908
v 0.036036 -5.976547 0.351778
v 0.673556 -4.980586 1.564208
v 0.422995 -1.645859 1.641542
v 0.599989 -0.608022 -0.110258
v -0.037531 -1.603977 -1.322688
v 0.213029 -4.938704 -1.400022
v 0.995473 -5.876944 -0.232485
v 1.650635 -4.878626 0.969395
v 1.399837 -1.543927 1.046427
vt 0.911637 0.307380
vt 0.906078 0.303768
vt 0.910848 0.302563
vt 0.913797 0.307008
vt 0.911637 0.319198
vt 0.913797 0.319569
vt 0.906078 0.322810
vt 0.910848 0.324014
vt 0.906078 0.325712
vt 0.901308 0.324014
vt 0.900520 0.319198
vt 0.898360 0.319569
vt 0.900520 0.307380
vt 0.898360 0.307008
vt 0.901308 0.302563
vt 0.906078 0.300865
vt 0.970399 0.234791
vt 0.964840 0.238403
vt 0.962680 0.238032
vt 0.965629 0.233586
vt 0.964840 0.250221
vt 0.962680 0.250593
vt 0.970399 0.253833
vt 0.965629 0.255038
vt 0.970399 0.256736
vt 0.975169 0.255038
vt 0.975957 0.250221
vt 0.978117 0.250593
vt 0.975957 0.238403
vt 0.978117 0.238032
vt 0.975169 0.233586
vt 0.970399 0.231888
vt 0.911637 0.307380
vt 0.906078 0.303768
vt 0.910848 0.302563
vt 0.913797 0.307008
vt 0.911637 0.319198
vt 0.913797 0.319569
vt 0.906078 0.322810
vt 0.910848 0.324014
vt 0.906078 0.325712
vt 0.901308 0.324014
vt 0.900520 0.319198
vt 0.898360 0.319569
vt 0.900520 0.307380
vt 0.898360 0.307008
vt 0.901308 0.302563
vt 0.906078 0.300865
vt 0.970399 0.234791
vt 0.964840 0.238403
vt 0.962680 0.238032
vt 0.965629 0.233586
vt 0.964840 0.250221
vt 0.962680 0.250593
vt 0.970399 0.253833
vt 0.965629 0.255038
vt 0.970399 0.256736
vt 0.975169 0.255038
vt 0.975957 0.250221
vt 0.978117 0.250593
vt 0.975957 0.238403
vt 0.978117 0.238032
vt 0.975169 0.233586
vt 0.970399 0.231888
vt 0.911637 0.307380
vt 0.906078 0.303768
vt 0.910848 0.302563
vt 0.913797 0.307008
vt 0.911637 0.319198
vt 0.913797 0.319569
vt 0.906078 0.322810
vt 0.910848 0.324014
vt 0.906078 0.325712
vt 0.901308 0.324014
vt 0.900520 0.319198
vt 0.898360 0.319569
vt 0.900520 0.307380
vt 0.898360 0.307008
vt 0.901308 0.302563
vt 0.906078 0.300865
vt 0.970399 0.234791
vt 0.964840 0.238403
vt 0.962680 0.238032
vt 0.965629 0.233586
vt 0.964840 0.250221
vt 0.962680 0.250593
vt 0.970399 0.253833
vt 0.965629 0.255038
vt 0.970399 0.256736
vt 0.975169 0.255038
vt 0.975957 0.250221
vt 0.978117 0.250593
vt 0.975957 0.238403
vt 0.978117 0.238032
vt 0.975169 0.233586
vt 0.970399 0.231888
vt 0.911637 0.307380
vt 0.906078 0.303768
vt 0.910848 0.302563
vt 0.913797 0.307008
vt 0.911637 0.319198
vt 0.913797 0.319569
vt 0.906078 0.322810
vt 0.910848 0.324014
vt 0.906078 0.325712
vt 0.901308 0.324014
vt 0.900520 0.319198
vt 0.898360 0.319569
vt 0.900520 0.307380
vt 0.898360 0.307008
vt 0.901308 0.302563
vt 0.906078 0.300865
vt 0.970399 0.234791
vt 0.964840 0.238403
vt 0.962680 0.238032
vt 0.965629 0.233586
vt 0.964840 0.250221
vt 0.962680 0.250593
vt 0.970399 0.253833
vt 0.965629 0.255038
vt 0.970399 0.256736
vt 0.975169 0.255038
vt 0.975957 0.250221
vt 0.978117 0.250593
vt 0.975957 0.238403
vt 0.978117 0.238032
vt 0.975169 0.233586
vt 0.970399 0.231888
vt 0.911637 0.307380
vt 0.906078 0.303768
vt 0.910848 0.302563
vt 0.913797 0.307008
vt 0.911637 0.319198
vt 0.913797 0.319569
vt 0.906078 0.322810
vt 0.910848 0.324014
vt 0.906078 0.325712
vt 0.901308 0.324014
vt 0.900520 0.319198
vt 0.898360 0.319569
vt 0.900520 0.307380
vt 0.898360 0.307008
vt 0.901308 0.302563
vt 0.906078 0.300865
vt 0.970399 0.234791
vt 0.964840 0.238403
vt 0.962680 0.238032
vt 0.965629 0.233586
vt 0.964840 0.250221
vt 0.962680 0.250593
vt 0.970399 0.253833
vt 0.965629 0.255038
vt 0.970399 0.256736
vt 0.975169 0.255038
vt 0.975957 0.250221
vt 0.978117 0.250593
vt 0.975957 0.238403
vt 0.978117 0.238032
vt 0.975169 0.233586
vt 0.970399 0.231888
vt 0.911637 0.307380
vt 0.906078 0.303768
vt 0.910848 0.302563
vt 0.913797 0.307008
vt 0.911637 0.319198
vt 0.913797 0.319569
vt 0.906078 0.322810
vt 0.910848 0.324014
vt 0.906078 0.325712
vt 0.901308 0.324014
vt 0.900520 0.319198
vt 0.898360 0.319569
vt 0.900520 0.307380
vt 0.898360 0.307008
vt 0.901308 0.302563
vt 0.906078 0.300865
vt 0.970399 0.234791
vt 0.964840 0.238403
vt 0.962680 0.238032
vt 0.965629 0.233586
vt 0.964840 0.250221
vt 0.962680 0.250593
vt 0.970399 0.253833
vt 0.965629 0.255038
vt 0.970399 0.256736
vt 0.975169 0.255038
vt 0.975957 0.250221
vt 0.978117 0.250593
vt 0.975957 0.238403
vt 0.978117 0.238032
vt 0.975169 0.233586
vt 0.970399 0.231888
vt 0.911637 0.307380
vt 0.906078 0.303768
vt 0.910848 0.302563
vt 0.913797 0.307008
vt 0.911637 0.319198
vt 0.913797 0.319569
vt 0.906078 0.322810
vt 0.910848 0.324014
vt 0.906078 0.325712
vt 0.901308 0.324014
vt 0.900520 0.319198
vt 0.898360 0.319569
vt 0.900520 0.307380
vt 0.898360 0.307008
vt 0.901308 0.302563
vt 0.906078 0.300865
vt 0.970399 0.234791
vt 0.964840 0.238403
vt 0.962680 0.238032
vt 0.965629 0.233586
vt 0.964840 0.250221
vt 0.962680 0.250593
vt 0.970399 0.253833
vt 0.965629 0.255038
vt 0.970399 0.256736
vt 0.975169 0.255038
vt 0.975957 0.250221
vt 0.978117 0.250593
vt 0.975957 0.238403
vt 0.978117 0.238032
vt 0.975169 0.233586
vt 0.970399 0.231888
vt 0.911637 0.307380
vt 0.906078 0.303768
vt 0.910848 0.302563
vt 0.913797 0.307008
vt 0.911637 0.319198
vt 0.913797 0.319569
vt 0.906078 0.322810
vt 0.910848 0.324014
vt 0.906078 0.325712
vt 0.901308 0.324014
vt 0.900520 0.319198
vt 0.898360 0.319569
vt 0.900520 0.307380
vt 0.898360 0.307008
vt 0.901308 0.302563
vt 0.906078 0.300865
vt 0.970399 0.234791
vt 0.964840 0.238403
vt 0.962680 0.238032
vt 0.965629 0.233586
vt 0.964840 0.250221
vt 0.962680 0.250593
vt 0.970399 0.253833
vt 0.965629 0.255038
vt 0.970399 0.256736
vt 0.975169 0.255038
vt 0.975957 0.250221
vt 0.978117 0.250593
vt 0.975957 0.238403
vt 0.978117 0.238032
vt 0.975169 0.233586
vt 0.970399 0.231888
vt 0.911637 0.307380
vt 0.906078 0.303768
vt 0.910848 0.302563
vt 0.913797 0.307008
vt 0.911637 0.319198
vt 0.913797 0.319569
vt 0.906078 0.322810
vt 0.910848 0.324014
vt 0.906078 0.325712
vt 0.901308 0.324014
vt 0.900520 0.319198
vt 0.898360 0.319569
vt 0.900520 0.307380
vt 0.898360 0.307008
vt 0.901308 0.302563
vt 0.906078 0.300865
vt 0.970399 0.234791
vt 0.964840 0.238403
vt 0.962680 0.238032
vt 0.965629 0.233586
vt 0.964840 0.250221
vt 0.962680 0.250593
vt 0.970399 0.253833
vt 0.965629 0.255038
vt 0.970399 0.256736
vt 0.975169 0.255038
vt 0.975957 0.250221
vt 0.978117 0.250593
vt 0.975957 0.238403
vt 0.978117 0.238032
vt 0.975169 0.233586
vt 0.970399 0.231888
vt 0.911637 0.307380
vt 0.906078 0.303768
vt 0.910848 0.302563
vt 0.913797 0.307008
vt 0.911637 0.319198
vt 0.913797 0.319569
vt 0.906078 0.322810
vt 0.910848 0.324014
vt 0.906078 0.325712
vt 0.901308 0.324014
vt 0.900520 0.319198
vt 0.898360 0.319569
vt 0.900520 0.307380
vt 0.898360 0.307008
vt 0.901308 0.302563
vt 0.906078 0.300865
vt 0.970399 0.234791
vt 0.964840 0.238403
vt 0.962680 0.238032
vt 0.965629 0.233586
vt 0.964840 0.250221
vt 0.962680 0.250593
vt 0.970399 0.253833
vt 0.965629 0.255038
vt 0.970399 0.256736
vt 0.975169 0.255038
vt 0.975957 0.250221
vt 0.978117 0.250593
vt 0.975957 0.238403
vt 0.978117 0.238032
vt 0.975169 0.233586
vt 0.970399 0.231888
vn 0.456521 0.070270 0.886934
vn -0.046326 0.488024 0.871600
vn 0.324476 0.039303 0.945077
vn -0.333356 0.153989 0.930140
vn 0.324476 -0.039303 0.945077
vn 0.324476 0.039303 0.945077
vn -0.333354 -0.153991 0.930141
vn -0.333356 0.153989 0.930140
vn 0.456521 -0.070271 0.886933
vn 0.324476 -0.039303 0.945077
vn -0.046324 -0.488023 0.871600
vn -0.333354 -0.153991 0.930141
vn 0.456521 -0.070271 0.886933
vn -0.046324 -0.488023 0.871600
vn 0.348055 -0.649310 0.676206
vn 0.456521 -0.070271 0.886933
vn 0.348055 -0.649310 0.676206
vn 0.736251 -0.488022 0.468796
vn 0.456521 -0.070271 0.886933
vn 0.736251 -0.488022 0.468796
vn 0.580572 -0.039303 0.813260
vn 0.950687 -0.153991 0.269222
vn 0.580572 0.039303 0.813260
vn 0.580572 -0.039303 0.813260
vn 0.950689 0.153989 0.269218
vn 0.950687 -0.153991 0.269222
vn 0.456521 0.070270 0.886934
vn 0.580572 0.039303 0.813260
vn 0.736252 0.488024 0.468792
vn 0.950689 0.153989 0.269218
vn 0.456521 0.070270 0.886934
vn 0.736252 0.488024 0.468792
vn 0.348053 0.649310 0.676206
vn 0.456521 0.070270 0.886934
vn 0.348053 0.649310 0.676206
vn -0.046326 0.488024 0.871600
vn -0.456521 0.070270 -0.886934
vn -0.580572 0.039303 -0.813260
vn -0.736251 0.488024 -0.468793
vn -0.950688 0.153989 -0.269219
vn -0.580572 0.039303 -0.813260
vn -0.580572 -0.039303 -0.813260
vn -0.950688 0.153989 -0.269219
vn -0.950687 -0.153991 -0.269222
vn -0.456521 -0.070271 -0.886933
vn -0.736251 -0.488022 -0.468796
vn -0.580572 -0.039303 -0.813260
vn -0.950687 -0.153991 -0.269222
vn -0.456521 -0.070271 -0.886933
vn -0.348055 -0.649309 -0.676207
vn -0.736251 -0.488022 -0.468796
vn -0.456521 -0.070271 -0.886933
vn 0.046324 -0.488023 -0.871600
vn -0.348055 -0.649309 -0.676207
vn -0.456521 -0.070271 -0.886933
vn -0.324476 -0.039303 -0.945077
vn 0.046324 -0.488023 -0.871600
vn 0.333354 -0.153991 -0.930141
vn -0.324476 -0.039303 -0.945077
vn -0.324476 0.039303 -0.945077
vn 0.333354 -0.153991 -0.930141
vn 0.333356 0.153989 -0.930140
vn -0.456521 0.070270 -0.886934
vn 0.046326 0.488023 -0.871600
vn -0.324476 0.039303 -0.945077
vn 0.333356 0.153989 -0.930140
vn -0.456521 0.070270 -0.886934
vn -0.348053 0.649311 -0.676206
vn 0.046326 0.488023 -0.871600
vn -0.456521 0.070270 -0.886934
vn -0.736251 0.488024 -0.468793
vn -0.348053 0.649311 -0.676206
vn 0.456521 -0.070271 0.886933
vn 0.580572 -0.039303 0.813260
vn 0.324476 -0.039303 0.945077
vn 0.324476 0.039303 0.945077
vn 0.456521 0.070270 0.886934
vn 0.580572 0.039303 0.813260
vn -0.456521 0.070270 -0.886934
vn -0.324476 0.039303 -0.945077
vn -0.580572 0.039303 -0.813260
vn -0.580572 -0.039303 -0.813260
vn -0.456521 -0.070271 -0.886933
vn -0.324476 -0.039303 -0.945077
vn -0.776187 -0.026790 0.629934
vn -0.889916 0.421520 0.174274
vn -0.858886 -0.053480 0.509367
vn -0.986619 0.107847 -0.122279
vn -0.853523 -0.131871 0.504092
vn -0.858886 -0.053480 0.509367
vn -0.967938 -0.198155 -0.154370
vn -0.986619 0.107847 -0.122279
vn -0.768094 -0.166757 0.618243
vn -0.853523 -0.131871 0.504092
vn -0.831131 -0.549541 0.085011
vn -0.967938 -0.198155 -0.154370
vn -0.768094 -0.166757 0.618243
vn -0.831131 -0.549541 0.085011
vn -0.547413 -0.724407 0.419015
vn -0.768094 -0.166757 0.618243
vn -0.547413 -0.724407 0.419015
vn -0.273665 -0.572607 0.772805
vn -0.768094 -0.166757 0.618243
vn -0.273665 -0.572607 0.772805
vn -0.672465 -0.139108 0.726939
vn -0.054772 -0.235329 0.970371
vn -0.672465 -0.139108 0.726939
vn -0.054772 -0.235329 0.970371
vn -0.676514 -0.060789 0.733916
vn -0.078191 0.071204 0.994392
vn -0.776187 -0.026790 0.629934
vn -0.676514 -0.060789 0.733916
vn -0.337206 0.399197 0.852605
vn -0.078191 0.071204 0.994392
vn -0.776187 -0.026790 0.629934
vn -0.337206 0.399197 0.852605
vn -0.628696 0.568057 0.531087
vn -0.776187 -0.026790 0.629934
vn -0.628696 0.568057 0.531087
vn -0.889916 0.421520 0.174274
vn 0.768094 0.166757 -0.618243
vn 0.672465 0.139108 -0.726939
vn 0.273662 0.572609 -0.772805
vn 0.054769 0.235328 -0.970372
vn 0.672465 0.139108 -0.726939
vn 0.676514 0.060789 -0.733917
vn 0.054769 0.235328 -0.970372
vn 0.078195 -0.071205 -0.994392
vn 0.776187 0.026789 -0.629933
vn 0.337209 -0.399192 -0.852605
vn 0.676514 0.060789 -0.733917
vn 0.078195 -0.071205 -0.994392
vn 0.776187 0.026789 -0.629933
vn 0.628699 -0.568052 -0.531089
vn 0.337209 -0.399192 -0.852605
vn 0.776187 0.026789 -0.629933
vn 0.889917 -0.421516 -0.174275
vn 0.628699 -0.568052 -0.531089
vn 0.776187 0.026789 -0.629933
vn 0.858886 0.053480 -0.509366
vn 0.889917 -0.421516 -0.174275
vn 0.986619 -0.107848 0.122276
vn 0.853523 0.131871 -0.504092
vn 0.967938 0.198152 0.154373
vn 0.858886 0.053480 -0.509366
vn 0.986619 -0.107848 0.122276
vn 0.768094 0.166757 -0.618243
vn 0.831129 0.549543 -0.085008
vn 0.853523 0.131871 -0.504092
vn 0.967938 0.198152 0.154373
vn 0.768094 0.166757 -0.618243
vn 0.547409 0.724411 -0.419013
vn 0.831129 0.549543 -0.085008
vn 0.768094 0.166757 -0.618243
vn 0.273662 0.572609 -0.772805
vn 0.547409 0.724411 -0.419013
vn -0.768094 -0.166757 0.618243
vn -0.672465 -0.139108 0.726939
vn -0.853523 -0.131871 0.504092
vn -0.676514 -0.060789 0.733916
vn -0.776187 -0.026790 0.629934
vn -0.858886 -0.053480 0.509367
vn 0.768094 0.166757 -0.618243
vn 0.853523 0.131871 -0.504092
vn 0.672465 0.139108 -0.726939
vn 0.676514 0.060789 -0.733917
vn 0.776187 0.026789 -0.629933
vn 0.858886 0.053480 -0.509366
vn 0.456520 0.070270 0.886934
vn -0.046327 0.488024 0.871600
vn 0.324476 0.039303 0.945077
vn -0.333356 0.153989 0.930140
vn 0.324476 -0.039303 0.945077
vn 0.324476 0.039303 0.945077
vn -0.333354 -0.153990 0.930141
vn -0.333356 0.153989 0.930140
vn 0.456520 -0.070271 0.886934
vn 0.324476 -0.039303 0.945077
vn -0.046324 -0.488022 0.871601
vn -0.333354 -0.153990 0.930141
vn 0.456520 -0.070271 0.886934
vn -0.046324 -0.488022 0.871601
vn 0.348054 -0.649309 0.676207
vn 0.456520 -0.070271 0.886934
vn 0.348054 -0.649309 0.676207
vn 0.736251 -0.488022 0.468795
vn 0.456520 -0.070271 0.886934
vn 0.736251 -0.488022 0.468795
vn 0.580572 -0.039303 0.813260
vn 0.950688 -0.153991 0.269221
vn 0.580571 0.039303 0.813260
vn 0.580572 -0.039303 0.813260
vn 0.950688 0.153989 0.269220
vn 0.950688 -0.153991 0.269221
vn 0.456520 0.070270 0.886934
vn 0.580571 0.039303 0.813260
vn 0.736250 0.488023 0.468796
vn 0.950688 0.153989 0.269220
vn 0.456520 0.070270 0.886934
vn 0.736250 0.488023 0.468796
vn 0.348053 0.649309 0.676208
vn 0.456520 0.070270 0.886934
vn 0.348053 0.649309 0.676208
vn -0.046327 0.488024 0.871600
vn -0.456521 0.070270 -0.886933
vn -0.580572 0.039303 -0.813260
vn -0.736251 0.488024 -0.468794
vn -0.950688 0.153989 -0.269220
vn -0.580572 0.039303 -0.813260
vn -0.580572 -0.039303 -0.813260
vn -0.950688 0.153989 -0.269220
vn -0.950687 -0.153991 -0.269222
vn -0.456521 -0.070271 -0.886933
vn -0.736251 -0.488022 -0.468796
vn -0.580572 -0.039303 -0.813260
vn -0.950687 -0.153991 -0.269222
vn -0.456521 -0.070271 -0.886933
vn -0.348055 -0.649310 -0.676205
vn -0.736251 -0.488022 -0.468796
vn -0.456521 -0.070271 -0.886933
vn 0.046324 -0.488022 -0.871601
vn -0.348055 -0.649310 -0.676205
vn -0.456521 -0.070271 -0.886933
vn -0.324476 -0.039303 -0.945077
vn 0.046324 -0.488022 -0.871601
vn 0.333353 -0.153990 -0.930141
vn -0.324476 -0.039303 -0.945077
vn -0.324476 0.039303 -0.945077
vn 0.333353 -0.153990 -0.930141
vn 0.333356 0.153989 -0.930140
vn -0.456521 0.070270 -0.886933
vn 0.046327 0.488024 -0.871600
vn -0.324476 0.039303 -0.945077
vn 0.333356 0.153989 -0.930140
vn -0.456521 0.070270 -0.886933
vn -0.348053 0.649311 -0.676206
vn 0.046327 0.488024 -0.871600
vn -0.456521 0.070270 -0.886933
vn -0.736251 0.488024 -0.468794
vn -0.348053 0.649311 -0.676206
vn 0.456520 -0.070271 0.886934
vn 0.580572 -0.039303 0.813260
vn 0.324476 -0.039303 0.945077
vn 0.324476 0.039303 0.945077
vn 0.456520 0.070270 0.886934
vn 0.580571 0.039303 0.813260
vn -0.456521 0.070270 -0.886933
vn -0.324476 0.039303 -0.945077
vn -0.580572 0.039303 -0.813260
vn -0.580572 -0.039303 -0.813260
vn -0.456521 -0.070271 -0.886933
vn -0.324476 -0.039303 -0.945077
vn -0.738556 0.070270 0.670520
vn -0.853891 0.488024 0.180840
vn -0.828894 0.039303 0.558024
vn -0.984726 0.153989 -0.081259
vn -0.828894 -0.039303 0.558023
vn -0.828894 0.039303 0.558024
vn -0.984725 -0.153991 -0.081257
vn -0.984726 0.153989 -0.081259
vn -0.738556 -0.070271 0.670520
vn -0.828894 -0.039303 0.558023
vn -0.853892 -0.488022 0.180840
vn -0.984725 -0.153991 -0.081257
vn -0.738556 -0.070271 0.670520
vn -0.853892 -0.488022 0.180840
vn -0.563082 -0.649311 0.511209
vn -0.738556 -0.070271 0.670520
vn -0.563082 -0.649311 0.511209
vn -0.262267 -0.488023 0.832496
vn -0.738556 -0.070271 0.670520
vn -0.262267 -0.488023 0.832496
vn -0.635286 -0.039303 0.771276
vn -0.013992 -0.153991 0.987973
vn -0.635286 0.039303 0.771276
vn -0.635286 -0.039303 0.771276
vn -0.013989 0.153989 0.987974
vn -0.013992 -0.153991 0.987973
vn -0.738556 0.070270 0.670520
vn -0.635286 0.039303 0.771276
vn -0.262264 0.488024 0.832496
vn -0.013989 0.153989 0.987974
vn -0.738556 0.070270 0.670520
vn -0.262264 0.488024 0.832496
vn -0.563079 0.649309 0.511214
vn -0.738556 0.070270 0.670520
vn -0.563079 0.649309 0.511214
vn -0.853891 0.488024 0.180840
vn 0.738556 0.070270 -0.670520
vn 0.635286 0.039303 -0.771276
vn 0.262264 0.488025 -0.832496
vn 0.013990 0.153989 -0.987974
vn 0.635286 0.039303 -0.771276
vn 0.635286 -0.039303 -0.771276
vn 0.013990 0.153989 -0.987974
vn 0.013992 -0.153991 -0.987973
vn 0.738556 -0.070271 -0.670520
vn 0.262267 -0.488023 -0.832496
vn 0.635286 -0.039303 -0.771276
vn 0.013992 -0.153991 -0.987973
vn 0.738556 -0.070271 -0.670520
vn 0.563082 -0.649311 -0.511208
vn 0.262267 -0.488023 -0.832496
vn 0.738556 -0.070271 -0.670520
vn 0.853892 -0.488022 -0.180841
vn 0.563082 -0.649311 -0.511208
vn 0.738556 -0.070271 -0.670520
vn 0.828894 -0.039303 -0.558024
vn 0.853892 -0.488022 -0.180841
vn 0.984725 -0.153991 0.081257
vn 0.828894 -0.039303 -0.558024
vn 0.828894 0.039303 -0.558024
vn 0.984725 -0.153991 0.081257
vn 0.984726 0.153989 0.081259
vn 0.738556 0.070270 -0.670520
vn 0.853891 0.488024 -0.180840
vn 0.828894 0.039303 -0.558024
vn 0.984726 0.153989 0.081259
vn 0.738556 0.070270 -0.670520
vn 0.563079 0.649308 -0.511215
vn 0.853891 0.488024 -0.180840
vn 0.738556 0.070270 -0.670520
vn 0.262264 0.488025 -0.832496
vn 0.563079 0.649308 -0.511215
vn -0.738556 -0.070271 0.670520
vn -0.635286 -0.039303 0.771276
vn -0.828894 -0.039303 0.558023
vn -0.828894 0.039303 0.558024
vn -0.738556 0.070270 0.670520
vn -0.635286 0.039303 0.771276
vn 0.738556 0.070270 -0.670520
vn 0.828894 0.039303 -0.558024
vn 0.635286 0.039303 -0.771276
vn 0.635286 -0.039303 -0.771276
vn 0.738556 -0.070271 -0.670520
vn 0.828894 -0.039303 -0.558024
vn 0.620831 0.172946 0.764629
vn 0.164839 0.642036 0.748744
vn 0.498783 0.169324 0.850027
vn -0.138533 0.355365 0.924405
vn 0.492485 0.092084 0.865436
vn 0.498783 0.169324 0.850027
vn -0.165035 0.052999 0.984863
vn -0.138533 0.355365 0.924405
vn 0.606784 0.036227 0.794041
vn 0.492485 0.092084 0.865436
vn 0.072911 -0.313274 0.946860
vn -0.165035 0.052999 0.984863
vn 0.606784 0.036227 0.794041
vn 0.072911 -0.313274 0.946860
vn 0.408020 -0.549410 0.729156
vn 0.606784 0.036227 0.794041
vn 0.408020 -0.549410 0.729156
vn 0.762915 -0.476343 0.437101
vn 0.606784 0.036227 0.794041
vn 0.762915 -0.476343 0.437101
vn 0.718975 0.038532 0.693967
vn 0.966658 -0.215159 0.138850
vn 0.723744 0.116326 0.680193
vn 0.718975 0.038532 0.693967
vn 0.994434 0.083069 0.064806
vn 0.966658 -0.215159 0.138850
vn 0.620831 0.172946 0.764629
vn 0.723744 0.116326 0.680193
vn 0.853049 0.473204 0.219968
vn 0.994434 0.083069 0.064806
vn 0.620831 0.172946 0.764629
vn 0.853049 0.473204 0.219968
vn 0.527878 0.717603 0.454302
vn 0.620831 0.172946 0.764629
vn 0.527878 0.717603 0.454302
vn 0.164839 0.642036 0.748744
vn -0.606784 -0.036227 -0.794041
vn -0.718974 -0.038532 -0.693968
vn -0.762916 0.476349 -0.437094
vn -0.966659 0.215158 -0.138844
vn -0.723744 -0.116326 -0.680193
vn -0.994434 -0.083071 -0.064808
vn -0.718974 -0.038532 -0.693968
vn -0.966659 0.215158 -0.138844
vn -0.620831 -0.172947 -0.764629
vn -0.853049 -0.473202 -0.219970
vn -0.723744 -0.116326 -0.680193
vn -0.994434 -0.083071 -0.064808
vn -0.620831 -0.172947 -0.764629
vn -0.527879 -0.717602 -0.454303
vn -0.853049 -0.473202 -0.219970
vn -0.620831 -0.172947 -0.764629
vn -0.164843 -0.642033 -0.748746
vn -0.527879 -0.717602 -0.454303
vn -0.620831 -0.172947 -0.764629
vn -0.498782 -0.169324 -0.850027
vn -0.164843 -0.642033 -0.748746
vn 0.138528 -0.355366 -0.924405
vn -0.498782 -0.169324 -0.850027
vn -0.492485 -0.092084 -0.865436
vn 0.138528 -0.355366 -0.924405
vn 0.165038 -0.053002 -0.984862
vn -0.606784 -0.036227 -0.794041
vn -0.072908 0.313278 -0.946859
vn -0.492485 -0.092084 -0.865436
vn 0.165038 -0.053002 -0.984862
vn -0.606784 -0.036227 -0.794041
vn -0.408020 0.549412 -0.729154
vn -0.072908 0.313278 -0.946859
vn -0.606784 -0.036227 -0.794041
vn -0.762916 0.476349 -0.437094
vn -0.408020 0.549412 -0.729154
vn 0.606784 0.036227 0.794041
vn 0.718975 0.038532 0.693967
vn 0.492485 0.092084 0.865436
vn 0.723744 0.116326 0.680193
vn 0.620831 0.172946 0.764629
vn 0.498783 0.169324 0.850027
vn -0.606784 -0.036227 -0.794041
vn -0.492485 -0.092084 -0.865436
vn -0.718974 -0.038532 -0.693968
vn -0.723744 -0.116326 -0.680193
vn -0.620831 -0.172947 -0.764629
vn -0.498782 -0.169324 -0.850027
vn -0.719552 0.101196 0.687026
vn -0.826191 0.526297 0.201046
vn -0.813796 0.074780 0.576319
vn -0.978410 0.197907 -0.059557
vn -0.813796 0.074780 0.576319
vn -0.978410 0.197907 -0.059557
vn -0.817384 -0.003763 0.576081
vn -0.992163 -0.109844 -0.059550
vn -0.726235 -0.039195 0.686328
vn -0.817384 -0.003763 0.576081
vn -0.871325 -0.448900 0.198193
vn -0.992163 -0.109844 -0.059550
vn -0.726235 -0.039195 0.686328
vn -0.871325 -0.448900 0.198193
vn -0.582351 -0.623570 0.521563
vn -0.726235 -0.039195 0.686328
vn -0.582351 -0.623570 0.521563
vn -0.268414 -0.477824 0.836444
vn -0.726235 -0.039195 0.686328
vn -0.268414 -0.477824 0.836444
vn -0.619053 -0.013086 0.785240
vn -0.000937 -0.157037 0.987592
vn -0.615993 0.065487 0.785025
vn -0.619053 -0.013086 0.785240
vn 0.016209 0.150494 0.988478
vn -0.000937 -0.157037 0.987592
vn -0.719552 0.101196 0.687026
vn -0.615993 0.065487 0.785025
vn -0.218830 0.497067 0.839665
vn 0.016209 0.150494 0.988478
vn -0.719552 0.101196 0.687026
vn -0.218830 0.497067 0.839665
vn -0.519641 0.673713 0.525438
vn -0.719552 0.101196 0.687026
vn -0.519641 0.673713 0.525438
vn -0.826191 0.526297 0.201046
vn 0.726235 0.039194 -0.686328
vn 0.619054 0.013086 -0.785240
vn 0.268412 0.477827 -0.836443
vn 0.000935 0.157036 -0.987593
vn 0.615993 -0.065487 -0.785025
vn -0.016206 -0.150495 -0.988478
vn 0.619054 0.013086 -0.785240
vn 0.000935 0.157036 -0.987593
vn 0.719552 -0.101197 -0.687026
vn 0.218833 -0.497064 -0.839666
vn 0.615993 -0.065487 -0.785025
vn -0.016206 -0.150495 -0.988478
vn 0.719552 -0.101197 -0.687026
vn 0.519641 -0.673711 -0.525440
vn 0.218833 -0.497064 -0.839666
vn 0.719552 -0.101197 -0.687026
vn 0.826193 -0.526295 -0.201047
vn 0.519641 -0.673711 -0.525440
vn 0.719552 -0.101197 -0.687026
vn 0.813796 -0.074780 -0.576319
vn 0.826193 -0.526295 -0.201047
vn 0.978410 -0.197908 0.059556
vn 0.813796 -0.074780 -0.576319
vn 0.817384 0.003763 -0.576081
vn 0.978410 -0.197908 0.059556
vn 0.992163 0.109843 0.059553
vn 0.726235 0.039194 -0.686328
vn 0.871324 0.448904 -0.198190
vn 0.817384 0.003763 -0.576081
vn 0.992163 0.109843 0.059553
vn 0.726235 0.039194 -0.686328
vn 0.582349 0.623572 -0.521562
vn 0.871324 0.448904 -0.198190
vn 0.726235 0.039194 -0.686328
vn 0.268412 0.477827 -0.836443
vn 0.582349 0.623572 -0.521562
vn -0.726235 -0.039195 0.686328
vn -0.619053 -0.013086 0.785240
vn -0.817384 -0.003763 0.576081
vn -0.615993 0.065487 0.785025
vn -0.719552 0.101196 0.687026
vn -0.813796 0.074780 0.576319
vn 0.726235 0.039194 -0.686328
vn 0.817384 0.003763 -0.576081
vn 0.619054 0.013086 -0.785240
vn 0.615993 -0.065487 -0.785025
vn 0.719552 -0.101197 -0.687026
vn 0.813796 -0.074780 -0.576319
vn 0.478803 0.047198 0.876652
vn -0.002276 0.486842 0.873487
vn 0.346250 0.021951 0.937886
vn -0.304051 0.166836 0.937933
vn 0.343239 -0.056622 0.937540
vn 0.346250 0.021951 0.937886
vn -0.320870 -0.140708 0.936613
vn -0.304051 0.166836 0.937933
vn 0.471912 -0.093176 0.876708
vn 0.343239 -0.056622 0.937540
vn -0.052055 -0.488027 0.871275
vn -0.320870 -0.140708 0.936613
vn 0.471912 -0.093176 0.876708
vn -0.052055 -0.488027 0.871275
vn 0.330667 -0.667203 0.667457
vn 0.471912 -0.093176 0.876708
vn 0.330667 -0.667203 0.667457
vn 0.722550 -0.522805 0.452324
vn 0.471912 -0.093176 0.876708
vn 0.722550 -0.522805 0.452324
vn 0.595886 -0.067698 0.800211
vn 0.948485 -0.197163 0.247998
vn 0.599386 0.010848 0.800387
vn 0.595886 -0.067698 0.800211
vn 0.962317 0.110575 0.248435
vn 0.948485 -0.197163 0.247998
vn 0.478803 0.047198 0.876652
vn 0.599386 0.010848 0.800387
vn 0.768473 0.452334 0.452596
vn 0.962317 0.110575 0.248435
vn 0.478803 0.047198 0.876652
vn 0.768473 0.452334 0.452596
vn 0.393958 0.630027 0.669226
vn 0.478803 0.047198 0.876652
vn 0.393958 0.630027 0.669226
vn -0.002276 0.486842 0.873487
vn -0.471912 0.093175 -0.876708
vn -0.595886 0.067698 -0.800211
vn -0.722550 0.522808 -0.452319
vn -0.948486 0.197162 -0.247996
vn -0.595886 0.067698 -0.800211
vn -0.599386 -0.010848 -0.800386
vn -0.948486 0.197162 -0.247996
vn -0.962316 -0.110576 -0.248438
vn -0.478804 -0.047198 -0.876652
vn -0.768473 -0.452332 -0.452598
vn -0.599386 -0.010848 -0.800386
vn -0.962316 -0.110576 -0.248438
vn -0.478804 -0.047198 -0.876652
vn -0.393960 -0.630024 -0.669227
vn -0.768473 -0.452332 -0.452598
vn -0.478804 -0.047198 -0.876652
vn 0.002273 -0.486838 -0.873489
vn -0.393960 -0.630024 -0.669227
vn -0.478804 -0.047198 -0.876652
vn -0.346249 -0.021951 -0.937886
vn 0.002273 -0.486838 -0.873489
vn 0.304048 -0.166838 -0.937934
vn -0.343240 0.056622 -0.937540
vn 0.320873 0.140706 -0.936612
vn -0.346249 -0.021951 -0.937886
vn 0.304048 -0.166838 -0.937934
vn -0.471912 0.093175 -0.876708
vn 0.052058 0.488030 -0.871273
vn -0.343240 0.056622 -0.937540
vn 0.320873 0.140706 -0.936612
vn -0.471912 0.093175 -0.876708
vn -0.330667 0.667208 -0.667453
vn 0.052058 0.488030 -0.871273
vn -0.471912 0.093175 -0.876708
vn -0.722550 0.522808 -0.452319
vn -0.330667 0.667208 -0.667453
vn 0.471912 -0.093176 0.876708
vn 0.595886 -0.067698 0.800211
vn 0.343239 -0.056622 0.937540
vn 0.599386 0.010848 0.800387
vn 0.478803 0.047198 0.876652
vn 0.346250 0.021951 0.937886
vn -0.471912 0.093175 -0.876708
vn -0.343240 0.056622 -0.937540
vn -0.595886 0.067698 -0.800211
vn -0.599386 -0.010848 -0.800386
vn -0.478804 -0.047198 -0.876652
vn -0.346249 -0.021951 -0.937886
vn -0.791096 0.065814 0.608141
vn -0.876908 0.470064 0.100365
vn -0.871256 0.030338 0.489891
vn -0.978363 0.127815 -0.162693
vn -0.871256 0.030338 0.489891
vn -0.978363 0.127815 -0.162693
vn -0.869551 -0.048243 0.491482
vn -0.971416 -0.180009 -0.154749
vn -0.787543 -0.074632 0.611724
vn -0.869551 -0.048243 0.491482
vn -0.853712 -0.505451 0.125280
vn -0.971416 -0.180009 -0.154749
vn -0.787543 -0.074632 0.611724
vn -0.853712 -0.505451 0.125280
vn -0.585562 -0.652507 0.480990
vn -0.787543 -0.074632 0.611724
vn -0.585562 -0.652507 0.480990
vn -0.314661 -0.476911 0.820697
vn -0.787543 -0.074632 0.611724
vn -0.314661 -0.476911 0.820697
vn -0.693620 -0.039117 0.719278
vn -0.088203 -0.133598 0.987103
vn -0.693620 -0.039117 0.719278
vn -0.088203 -0.133598 0.987103
vn -0.695210 0.039468 0.717722
vn -0.096843 0.174195 0.979938
vn -0.791096 0.065814 0.608141
vn -0.695210 0.039468 0.717722
vn -0.340458 0.498562 0.797198
vn -0.096843 0.174195 0.979938
vn -0.791096 0.065814 0.608141
vn -0.340458 0.498562 0.797198
vn -0.617950 0.645376 0.449030
vn -0.791096 0.065814 0.608141
vn -0.617950 0.645376 0.449030
vn -0.876908 0.470064 0.100365
vn 0.787543 0.074632 -0.611724
vn 0.693620 0.039117 -0.719278
vn 0.314658 0.476914 -0.820697
vn 0.088200 0.133597 -0.987103
vn 0.693620 0.039117 -0.719278
vn 0.695210 -0.039468 -0.717723
vn 0.088200 0.133597 -0.987103
vn 0.096846 -0.174197 -0.979937
vn 0.791096 -0.065814 -0.608141
vn 0.340461 -0.498557 -0.797199
vn 0.695210 -0.039468 -0.717723
vn 0.096846 -0.174197 -0.979937
vn 0.791096 -0.065814 -0.608141
vn 0.617951 -0.645375 -0.449029
vn 0.340461 -0.498557 -0.797199
vn 0.791096 -0.065814 -0.608141
vn 0.876909 -0.470061 -0.100369
vn 0.617951 -0.645375 -0.449029
vn 0.791096 -0.065814 -0.608141
vn 0.871256 -0.030338 -0.489891
vn 0.876909 -0.470061 -0.100369
vn 0.978363 -0.127817 0.162690
vn 0.871256 -0.030338 -0.489891
vn 0.869550 0.048243 -0.491482
vn 0.978363 -0.127817 0.162690
vn 0.971416 0.180007 0.154753
vn 0.787543 0.074632 -0.611724
vn 0.853710 0.505455 -0.125276
vn 0.869550 0.048243 -0.491482
vn 0.971416 0.180007 0.154753
vn 0.787543 0.074632 -0.611724
vn 0.585562 0.652509 -0.480988
vn 0.853710 0.505455 -0.125276
vn 0.787543 0.074632 -0.611724
vn 0.314658 0.476914 -0.820697
vn 0.585562 0.652509 -0.480988
vn -0.787543 -0.074632 0.611724
vn -0.693620 -0.039117 0.719278
vn -0.869551 -0.048243 0.491482
vn -0.871256 0.030338 0.489891
vn -0.791096 0.065814 0.608141
vn -0.695210 0.039468 0.717722
vn 0.787543 0.074632 -0.611724
vn 0.869550 0.048243 -0.491482
vn 0.693620 0.039117 -0.719278
vn 0.871256 -0.030338 -0.489891
vn 0.791096 -0.065814 -0.608141
vn 0.695210 -0.039468 -0.717723
vn 0.462051 0.097274 0.881502
vn -0.064367 0.489242 0.869770
vn 0.333012 0.060129 0.941003
vn -0.331728 0.140359 0.932875
vn 0.333012 0.060129 0.941003
vn -0.331728 0.140359 0.932875
vn 0.336383 -0.018435 0.941545
vn -0.312786 -0.167064 0.935016
vn 0.469786 -0.043057 0.881730
vn 0.336383 -0.018435 0.941545
vn -0.008423 -0.485314 0.874300
vn -0.312786 -0.167064 0.935016
vn 0.469786 -0.043057 0.881730
vn -0.008423 -0.485314 0.874300
vn 0.390623 -0.626510 0.674461
vn 0.469786 -0.043057 0.881730
vn 0.390623 -0.626510 0.674461
vn 0.766228 -0.447164 0.461452
vn 0.469786 -0.043057 0.881730
vn 0.766228 -0.447164 0.461452
vn 0.590940 -0.006149 0.806692
vn 0.960221 -0.104839 0.258815
vn 0.586991 0.072380 0.806351
vn 0.590940 -0.006149 0.806692
vn 0.944720 0.202837 0.257607
vn 0.960221 -0.104839 0.258815
vn 0.462051 0.097274 0.881502
vn 0.586991 0.072380 0.806351
vn 0.714689 0.527745 0.459026
vn 0.944720 0.202837 0.257607
vn 0.462051 0.097274 0.881502
vn 0.714689 0.527745 0.459026
vn 0.319543 0.670355 0.669714
vn 0.462051 0.097274 0.881502
vn 0.319543 0.670355 0.669714
vn -0.064367 0.489242 0.869770
vn -0.469786 0.043056 -0.881730
vn -0.590940 0.006150 -0.806692
vn -0.766228 0.447167 -0.461449
vn -0.960221 0.104838 -0.258813
vn -0.590940 0.006150 -0.806692
vn -0.586992 -0.072380 -0.806351
vn -0.960221 0.104838 -0.258813
vn -0.944719 -0.202839 -0.257610
vn -0.462051 -0.097275 -0.881502
vn -0.714689 -0.527742 -0.459030
vn -0.586992 -0.072380 -0.806351
vn -0.944719 -0.202839 -0.257610
vn -0.462051 -0.097275 -0.881502
vn -0.319543 -0.670352 -0.669716
vn -0.714689 -0.527742 -0.459030
vn -0.462051 -0.097275 -0.881502
vn 0.064365 -0.489239 -0.869772
vn -0.319543 -0.670352 -0.669716
vn -0.462051 -0.097275 -0.881502
vn -0.333012 -0.060128 -0.941004
vn 0.064365 -0.489239 -0.869772
vn 0.331726 -0.140361 -0.932876
vn -0.333012 -0.060128 -0.941004
vn -0.336383 0.018435 -0.941545
vn 0.331726 -0.140361 -0.932876
vn 0.312789 0.167062 -0.935015
vn -0.469786 0.043056 -0.881730
vn 0.008426 0.485317 -0.874298
vn -0.336383 0.018435 -0.941545
vn 0.312789 0.167062 -0.935015
vn -0.469786 0.043056 -0.881730
vn -0.390623 0.626513 -0.674459
vn 0.008426 0.485317 -0.874298
vn -0.469786 0.043056 -0.881730
vn -0.766228 0.447167 -0.461449
vn -0.390623 0.626513 -0.674459
vn 0.469786 -0.043057 0.881730
vn 0.590940 -0.006149 0.806692
vn 0.336383 -0.018435 0.941545
vn 0.333012 0.060129 0.941003
vn 0.462051 0.097274 0.881502
vn 0.586991 0.072380 0.806351
vn -0.469786 0.043056 -0.881730
vn -0.336383 0.018435 -0.941545
vn -0.590940 0.006150 -0.806692
vn -0.333012 -0.060128 -0.941004
vn -0.462051 -0.097275 -0.881502
vn -0.586992 -0.072380 -0.806351
vn -0.854871 -0.005506 0.518811
vn -0.907479 0.419191 0.027592
vn -0.919900 -0.038799 0.390230
vn -0.960850 0.089783 -0.262120
vn -0.913723 -0.117231 0.389060
vn -0.919900 -0.038799 0.390230
vn -0.937096 -0.217315 -0.273177
vn -0.960850 0.089783 -0.262120
vn -0.844185 -0.145699 0.515872
vn -0.913723 -0.117231 0.389060
vn -0.832333 -0.554274 0.001402
vn -0.937096 -0.217315 -0.273177
vn -0.844185 -0.145699 0.515872
vn -0.832333 -0.554274 0.001402
vn -0.595391 -0.708546 0.378778
vn -0.844185 -0.145699 0.515872
vn -0.595391 -0.708546 0.378778
vn -0.372869 -0.536750 0.756881
vn -0.844185 -0.145699 0.515872
vn -0.372869 -0.536750 0.756881
vn -0.764669 -0.111710 0.634667
vn -0.185581 -0.189012 0.964279
vn -0.764669 -0.111710 0.634667
vn -0.185581 -0.189012 0.964279
vn -0.769937 -0.033235 0.637254
vn -0.214024 0.117768 0.969703
vn -0.854871 -0.005506 0.518811
vn -0.769937 -0.033235 0.637254
vn -0.453717 0.436272 0.777051
vn -0.214024 0.117768 0.969703
vn -0.854871 -0.005506 0.518811
vn -0.453717 0.436272 0.777051
vn -0.698852 0.586336 0.409653
vn -0.854871 -0.005506 0.518811
vn -0.698852 0.586336 0.409653
vn -0.907479 0.419191 0.027592
vn 0.844185 0.145699 -0.515872
vn 0.764669 0.111710 -0.634667
vn 0.372865 0.536752 -0.756881
vn 0.185578 0.189011 -0.964280
vn 0.764669 0.111710 -0.634667
vn 0.769937 0.033235 -0.637254
vn 0.185578 0.189011 -0.964280
vn 0.214027 -0.117769 -0.969702
vn 0.854871 0.005505 -0.518811
vn 0.453721 -0.436268 -0.777050
vn 0.769937 0.033235 -0.637254
vn 0.214027 -0.117769 -0.969702
vn 0.854871 0.005505 -0.518811
vn 0.698854 -0.586334 -0.409653
vn 0.453721 -0.436268 -0.777050
vn 0.854871 0.005505 -0.518811
vn 0.907480 -0.419187 -0.027595
vn 0.698854 -0.586334 -0.409653
vn 0.854871 0.005505 -0.518811
vn 0.919900 0.038799 -0.390229
vn 0.907480 -0.419187 -0.027595
vn 0.960851 -0.089784 0.262117
vn 0.913722 0.117231 -0.389061
vn 0.937095 0.217314 0.273180
vn 0.919900 0.038799 -0.390229
vn 0.960851 -0.089784 0.262117
vn 0.844185 0.145699 -0.515872
vn 0.832331 0.554277 -0.001398
vn 0.913722 0.117231 -0.389061
vn 0.937095 0.217314 0.273180
vn 0.844185 0.145699 -0.515872
vn 0.595389 0.708547 -0.378778
vn 0.832331 0.554277 -0.001398
vn 0.844185 0.145699 -0.515872
vn 0.372865 0.536752 -0.756881
vn 0.595389 0.708547 -0.378778
vn -0.844185 -0.145699 0.515872
vn -0.764669 -0.111710 0.634667
vn -0.913723 -0.117231 0.389060
vn -0.919900 -0.038799 0.390230
vn -0.854871 -0.005506 0.518811
vn -0.769937 -0.033235 0.637254
vn 0.844185 0.145699 -0.515872
vn 0.913722 0.117231 -0.389061
vn 0.764669 0.111710 -0.634667
vn 0.919900 0.038799 -0.390229
vn 0.854871 0.005505 -0.518811
vn 0.769937 0.033235 -0.637254
s 1
g SM_Chandelier_02d
f 11/2/1 1/3/2 12/1/3
f 12/1/3 1/3/2 2/4/4
s 2
f 13/5/5 12/1/6 3/6/7
f 3/6/7 12/1/6 2/4/8
s 3
f 14/7/9 13/5/10 4/8/11
f 4/8/11 13/5/10 3/6/12
s off
f 14/7/13 4/8/14 5/9/15
f 14/7/16 5/9/17 6/10/18
s 4
f 14/7/19 6/10/20 15/11/21
f 15/11/21 6/10/20 7/12/22
s 5
f 16/13/23 15/11/24 8/14/25
f 8/14/25 15/11/24 7/12/26
s 6
f 11/2/27 16/13/28 9/15/29
f 9/15/29 16/13/28 8/14/30
s off
f 11/2/31 9/15/32 10/16/33
f 11/2/34 10/16/35 1/3/36
s 7
f 17/17/37 18/18/38 1/20/39
f 1/20/39 18/18/38 2/19/40
s 8
f 18/18/41 19/21/42 2/19/43
f 2/19/43 19/21/42 3/22/44
s 9
f 20/23/45 4/24/46 19/21/47
f 19/21/47 4/24/46 3/22/48
s off
f 20/23/49 5/25/50 4/24/51
f 20/23/52 6/26/53 5/25/54
s 10
f 20/23/55 21/27/56 6/26/57
f 6/26/57 21/27/56 7/28/58
s 11
f 21/27/59 22/29/60 7/28/61
f 7/28/61 22/29/60 8/30/62
s 12
f 17/17/63 9/31/64 22/29/65
f 22/29/65 9/31/64 8/30/66
s off
f 17/17/67 10/32/68 9/31/69
f 17/17/70 1/20/71 10/32/72
s 13
f 14/7/73 15/11/74 13/5/75
f 13/5/75 15/11/74 12/1/76
f 12/1/76 15/11/74 11/2/77
f 15/11/74 16/13/78 11/2/77
s 14
f 17/17/79 22/29/80 18/18/81
f 18/18/81 22/29/80 19/21/82
f 19/21/82 22/29/80 20/23/83
f 22/29/80 21/27/84 20/23/83
s 15
f 33/34/85 23/35/86 34/33/87
f 34/33/87 23/35/86 24/36/88
s 16
f 35/37/89 34/33/90 25/38/91
f 25/38/91 34/33/90 24/36/92
s 17
f 36/39/93 35/37/94 26/40/95
f 26/40/95 35/37/94 25/38/96
s off
f 36/39/97 26/40/98 27/41/99
f 36/39/100 27/41/101 28/42/102
s 18
f 36/39/103 28/42/104 37/43/105
f 37/43/105 28/42/104 29/44/106
s 19
f 37/43/107 29/44/108 38/45/109
f 38/45/109 29/44/108 30/46/110
s 20
f 33/34/111 38/45/112 31/47/113
f 31/47/113 38/45/112 30/46/114
s off
f 33/34/115 31/47/116 32/48/117
f 33/34/118 32/48/119 23/35/120
s 21
f 39/49/121 40/50/122 23/52/123
f 23/52/123 40/50/122 24/51/124
s 22
f 40/50/125 41/53/126 24/51/127
f 24/51/127 41/53/126 25/54/128
s 23
f 42/55/129 26/56/130 41/53/131
f 41/53/131 26/56/130 25/54/132
s off
f 42/55/133 27/57/134 26/56/135
f 42/55/136 28/58/137 27/57/138
s 24
f 42/55/139 43/59/140 28/58/141
f 28/58/141 43/59/140 29/60/142
s 25
f 44/61/143 30/62/144 43/59/145
f 43/59/145 30/62/144 29/60/146
s 26
f 39/49/147 31/63/148 44/61/149
f 44/61/149 31/63/148 30/62/150
s off
f 39/49/151 32/64/152 31/63/153
f 39/49/154 23/52/155 32/64/156
s 27
f 36/39/157 37/43/158 35/37/159
f 37/43/158 38/45/160 35/37/159
f 38/45/160 33/34/161 35/37/159
f 34/33/162 35/37/159 33/34/161
s 28
f 39/49/163 44/61/164 40/50/165
f 40/50/165 44/61/164 41/53/166
f 41/53/166 44/61/164 42/55/167
f 44/61/164 43/59/168 42/55/167
s 29
f 55/66/169 45/67/170 56/65/171
f 56/65/171 45/67/170 46/68/172
s 30
f 57/69/173 56/65/174 47/70/175
f 47/70/175 56/65/174 46/68/176
s 31
f 58/71/177 57/69/178 48/72/179
f 48/72/179 57/69/178 47/70/180
s off
f 58/71/181 48/72/182 49/73/183
f 58/71/184 49/73/185 50/74/186
s 32
f 58/71/187 50/74/188 59/75/189
f 59/75/189 50/74/188 51/76/190
s 33
f 60/77/191 59/75/192 52/78/193
f 52/78/193 59/75/192 51/76/194
s 34
f 55/66/195 60/77/196 53/79/197
f 53/79/197 60/77/196 52/78/198
s off
f 55/66/199 53/79/200 54/80/201
f 55/66/202 54/80/203 45/67/204
s 35
f 61/81/205 62/82/206 45/84/207
f 45/84/207 62/82/206 46/83/208
s 36
f 62/82/209 63/85/210 46/83/211
f 46/83/211 63/85/210 47/86/212
s 37
f 64/87/213 48/88/214 63/85/215
f 63/85/215 48/88/214 47/86/216
s off
f 64/87/217 49/89/218 48/88/219
f 64/87/220 50/90/221 49/89/222
s 38
f 64/87/223 65/91/224 50/90/225
f 50/90/225 65/91/224 51/92/226
s 39
f 65/91/227 66/93/228 51/92/229
f 51/92/229 66/93/228 52/94/230
s 40
f 61/81/231 53/95/232 66/93/233
f 66/93/233 53/95/232 52/94/234
s off
f 61/81/235 54/96/236 53/95/237
f 61/81/238 45/84/239 54/96/240
s 41
f 58/71/241 59/75/242 57/69/243
f 57/69/243 59/75/242 56/65/244
f 56/65/244 59/75/242 55/66/245
f 59/75/242 60/77/246 55/66/245
s 42
f 61/81/247 66/93/248 62/82/249
f 62/82/249 66/93/248 63/85/250
f 63/85/250 66/93/248 64/87/251
f 66/93/248 65/91/252 64/87/251
s 43
f 77/98/253 67/99/254 78/97/255
f 78/97/255 67/99/254 68/100/256
s 44
f 79/101/257 78/97/258 69/102/259
f 69/102/259 78/97/258 68/100/260
s 45
f 80/103/261 79/101/262 70/104/263
f 70/104/263 79/101/262 69/102/264
s off
f 80/103/265 70/104/266 71/105/267
f 80/103/268 71/105/269 72/106/270
s 46
f 80/103/271 72/106/272 81/107/273
f 81/107/273 72/106/272 73/108/274
s 47
f 82/109/275 81/107/276 74/110/277
f 74/110/277 81/107/276 73/108/278
s 48
f 77/98/279 82/109/280 75/111/281
f 75/111/281 82/109/280 74/110/282
s off
f 77/98/283 75/111/284 76/112/285
f 77/98/286 76/112/287 67/99/288
s 49
f 83/113/289 84/114/290 67/116/291
f 67/116/291 84/114/290 68/115/292
s 50
f 84/114/293 85/117/294 68/115/295
f 68/115/295 85/117/294 69/118/296
s 51
f 86/119/297 70/120/298 85/117/299
f 85/117/299 70/120/298 69/118/300
s off
f 86/119/301 71/121/302 70/120/303
f 86/119/304 72/122/305 71/121/306
s 52
f 86/119/307 87/123/308 72/122/309
f 72/122/309 87/123/308 73/124/310
s 53
f 87/123/311 88/125/312 73/124/313
f 73/124/313 88/125/312 74/126/314
s 54
f 83/113/315 75/127/316 88/125/317
f 88/125/317 75/127/316 74/126/318
s off
f 83/113/319 76/128/320 75/127/321
f 83/113/322 67/116/323 76/128/324
s 55
f 80/103/325 81/107/326 79/101/327
f 79/101/327 81/107/326 78/97/328
f 78/97/328 81/107/326 77/98/329
f 81/107/326 82/109/330 77/98/329
s 56
f 83/113/331 88/125/332 84/114/333
f 84/114/333 88/125/332 85/117/334
f 85/117/334 88/125/332 86/119/335
f 88/125/332 87/123/336 86/119/335
s 57
f 99/130/337 89/131/338 100/129/339
f 100/129/339 89/131/338 90/132/340
s 58
f 101/133/341 100/129/342 91/134/343
f 91/134/343 100/129/342 90/132/344
s 59
f 102/135/345 101/133/346 92/136/347
f 92/136/347 101/133/346 91/134/348
s off
f 102/135/349 92/136/350 93/137/351
f 102/135/352 93/137/353 94/138/354
s 60
f 102/135/355 94/138/356 103/139/357
f 103/139/357 94/138/356 95/140/358
s 61
f 104/141/359 103/139/360 96/142/361
f 96/142/361 103/139/360 95/140/362
s 62
f 99/130/363 104/141/364 97/143/365
f 97/143/365 104/141/364 96/142/366
s off
f 99/130/367 97/143/368 98/144/369
f 99/130/370 98/144/371 89/131/372
s 63
f 105/145/373 106/146/374 89/148/375
f 89/148/375 106/146/374 90/147/376
s 64
f 107/149/377 91/150/378 106/146/379
f 106/146/379 91/150/378 90/147/380
s 65
f 108/151/381 92/152/382 107/149/383
f 107/149/383 92/152/382 91/150/384
s off
f 108/151/385 93/153/386 92/152/387
f 108/151/388 94/154/389 93/153/390
s 66
f 108/151/391 109/155/392 94/154/393
f 94/154/393 109/155/392 95/156/394
s 67
f 109/155/395 110/157/396 95/156/397
f 95/156/397 110/157/396 96/158/398
s 68
f 105/145/399 97/159/400 110/157/401
f 110/157/401 97/159/400 96/158/402
s off
f 105/145/403 98/160/404 97/159/405
f 105/145/406 89/148/407 98/160/408
s 69
f 102/135/409 103/139/410 101/133/411
f 103/139/410 104/141/412 101/133/411
f 104/141/412 99/130/413 101/133/411
f 100/129/414 101/133/411 99/130/413
s 70
f 105/145/415 110/157/416 106/146/417
f 106/146/417 110/157/416 107/149/418
f 107/149/418 110/157/416 108/151/419
f 110/157/416 109/155/420 108/151/419
s 71
f 121/162/421 111/163/422 122/161/423
f 122/161/423 111/163/422 112/164/424
s 72
f 122/161/425 112/164/426 123/165/427
f 123/165/427 112/164/426 113/166/428
s 73
f 124/167/429 123/165/430 114/168/431
f 114/168/431 123/165/430 113/166/432
s off
f 124/167/433 114/168/434 115/169/435
f 124/167/436 115/169/437 116/170/438
s 74
f 124/167/439 116/170/440 125/171/441
f 125/171/441 116/170/440 117/172/442
s 75
f 126/173/443 125/171/444 118/174/445
f 118/174/445 125/171/444 117/172/446
s 76
f 121/162/447 126/173/448 119/175/449
f 119/175/449 126/173/448 118/174/450
s off
f 121/162/451 119/175/452 120/176/453
f 121/162/454 120/176/455 111/163/456
s 77
f 127/177/457 128/178/458 111/180/459
f 111/180/459 128/178/458 112/179/460
s 78
f 129/181/461 113/182/462 128/178/463
f 128/178/463 113/182/462 112/179/464
s 79
f 130/183/465 114/184/466 129/181/467
f 129/181/467 114/184/466 113/182/468
s off
f 130/183/469 115/185/470 114/184/471
f 130/183/472 116/186/473 115/185/474
s 80
f 130/183/475 131/187/476 116/186/477
f 116/186/477 131/187/476 117/188/478
s 81
f 131/187/479 132/189/480 117/188/481
f 117/188/481 132/189/480 118/190/482
s 82
f 127/177/483 119/191/484 132/189/485
f 132/189/485 119/191/484 118/190/486
s off
f 127/177/487 120/192/488 119/191/489
f 127/177/490 111/180/491 120/192/492
s 83
f 124/167/493 125/171/494 123/165/495
f 125/171/494 126/173/496 123/165/495
f 126/173/496 121/162/497 123/165/495
f 122/161/498 123/165/495 121/162/497
s 84
f 127/177/499 132/189/500 128/178/501
f 128/178/501 132/189/500 129/181/502
f 129/181/502 132/189/500 130/183/503
f 132/189/500 131/187/504 130/183/503
s 85
f 143/194/505 133/195/506 144/193/507
f 144/193/507 133/195/506 134/196/508
s 86
f 145/197/509 144/193/510 135/198/511
f 135/198/511 144/193/510 134/196/512
s 87
f 146/199/513 145/197/514 136/200/515
f 136/200/515 145/197/514 135/198/516
s off
f 146/199/517 136/200/518 137/201/519
f 146/199/520 137/201/521 138/202/522
s 88
f 146/199/523 138/202/524 147/203/525
f 147/203/525 138/202/524 139/204/526
s 89
f 148/205/527 147/203/528 140/206/529
f 140/206/529 147/203/528 139/204/530
s 90
f 143/194/531 148/205/532 141/207/533
f 141/207/533 148/205/532 140/206/534
s off
f 143/194/535 141/207/536 142/208/537
f 143/194/538 142/208/539 133/195/540
s 91
f 149/209/541 150/210/542 133/212/543
f 133/212/543 150/210/542 134/211/544
s 92
f 150/210/545 151/213/546 134/211/547
f 134/211/547 151/213/546 135/214/548
s 93
f 152/215/549 136/216/550 151/213/551
f 151/213/551 136/216/550 135/214/552
s off
f 152/215/553 137/217/554 136/216/555
f 152/215/556 138/218/557 137/217/558
s 94
f 152/215/559 153/219/560 138/218/561
f 138/218/561 153/219/560 139/220/562
s 95
f 154/221/563 140/222/564 153/219/565
f 153/219/565 140/222/564 139/220/566
s 96
f 149/209/567 141/223/568 154/221/569
f 154/221/569 141/223/568 140/222/570
s off
f 149/209/571 142/224/572 141/223/573
f 149/209/574 133/212/575 142/224/576
s 97
f 146/199/577 147/203/578 145/197/579
f 147/203/578 148/205/580 145/197/579
f 148/205/580 143/194/581 145/197/579
f 144/193/582 145/197/579 143/194/581
s 98
f 149/209/583 154/221/584 150/210/585
f 150/210/585 154/221/584 151/213/586
f 151/213/586 154/221/584 152/215/587
f 154/221/584 153/219/588 152/215/587
s 99
f 165/226/589 155/227/590 166/225/591
f 166/225/591 155/227/590 156/228/592
s 100
f 166/225/593 156/228/594 167/229/595
f 167/229/595 156/228/594 157/230/596
s 101
f 168/231/597 167/229/598 158/232/599
f 158/232/599 167/229/598 157/230/600
s off
f 168/231/601 158/232/602 159/233/603
f 168/231/604 159/233/605 160/234/606
s 102
f 168/231/607 160/234/608 169/235/609
f 169/235/609 160/234/608 161/236/610
s 103
f 169/235/611 161/236/612 170/237/613
f 170/237/613 161/236/612 162/238/614
s 104
f 165/226/615 170/237/616 163/239/617
f 163/239/617 170/237/616 162/238/618
s off
f 165/226/619 163/239/620 164/240/621
f 165/226/622 164/240/623 155/227/624
s 105
f 171/241/625 172/242/626 155/244/627
f 155/244/627 172/242/626 156/243/628
s 106
f 172/242/629 173/245/630 156/243/631
f 156/243/631 173/245/630 157/246/632
s 107
f 174/247/633 158/248/634 173/245/635
f 173/245/635 158/248/634 157/246/636
s off
f 174/247/637 159/249/638 158/248/639
f 174/247/640 160/250/641 159/249/642
s 108
f 174/247/643 175/251/644 160/250/645
f 160/250/645 175/251/644 161/252/646
s 109
f 175/251/647 176/253/648 161/252/649
f 161/252/649 176/253/648 162/254/650
s 110
f 171/241/651 163/255/652 176/253/653
f 176/253/653 163/255/652 162/254/654
s off
f 171/241/655 164/256/656 163/255/657
f 171/241/658 155/244/659 164/256/660
s 111
f 168/231/661 169/235/662 167/229/663
f 167/229/663 169/235/662 166/225/664
f 166/225/664 169/235/662 165/226/665
f 169/235/662 170/237/666 165/226/665
s 112
f 171/241/667 176/253/668 172/242/669
f 176/253/668 175/251/670 172/242/669
f 175/251/670 174/247/671 172/242/669
f 172/242/669 174/247/671 173/245/672
s 113
f 187/258/673 177/259/674 188/257/675
f 188/257/675 177/259/674 178/260/676
s 114
f 188/257/677 178/260/678 189/261/679
f 189/261/679 178/260/678 179/262/680
s 115
f 190/263/681 189/261/682 180/264/683
f 180/264/683 189/261/682 179/262/684
s off
f 190/263/685 180/264/686 181/265/687
f 190/263/688 181/265/689 182/266/690
s 116
f 190/263/691 182/266/692 191/267/693
f 191/267/693 182/266/692 183/268/694
s 117
f 192/269/695 191/267/696 184/270/697
f 184/270/697 191/267/696 183/268/698
s 118
f 187/258/699 192/269/700 185/271/701
f 185/271/701 192/269/700 184/270/702
s off
f 187/258/703 185/271/704 186/272/705
f 187/258/706 186/272/707 177/259/708
s 119
f 193/273/709 194/274/710 177/276/711
f 177/276/711 194/274/710 178/275/712
s 120
f 194/274/713 195/277/714 178/275/715
f 178/275/715 195/277/714 179/278/716
s 121
f 196/279/717 180/280/718 195/277/719
f 195/277/719 180/280/718 179/278/720
s off
f 196/279/721 181/281/722 180/280/723
f 196/279/724 182/282/725 181/281/726
s 122
f 196/279/727 197/283/728 182/282/729
f 182/282/729 197/283/728 183/284/730
s 123
f 197/283/731 198/285/732 183/284/733
f 183/284/733 198/285/732 184/286/734
s 124
f 193/273/735 185/287/736 198/285/737
f 198/285/737 185/287/736 184/286/738
s off
f 193/273/739 186/288/740 185/287/741
f 193/273/742 177/276/743 186/288/744
s 125
f 190/263/745 191/267/746 189/261/747
f 189/261/747 191/267/746 188/257/748
f 188/257/748 191/267/746 187/258/749
f 191/267/746 192/269/750 187/258/749
s 126
f 193/273/751 198/285/752 194/274/753
f 198/285/752 197/283/754 194/274/753
f 197/283/754 196/279/755 194/274/753
f 194/274/753 196/279/755 195/277/756
s 127
f 209/290/757 199/291/758 210/289/759
f 210/289/759 199/291/758 200/292/760
s 128
f 211/293/761 210/289/762 201/294/763
f 201/294/763 210/289/762 200/292/764
s 129
f 212/295/765 211/293/766 202/296/767
f 202/296/767 211/293/766 201/294/768
s off
f 212/295/769 202/296/770 203/297/771
f 212/295/772 203/297/773 204/298/774
s 130
f 212/295/775 204/298/776 213/299/777
f 213/299/777 204/298/776 205/300/778
s 131
f 213/299/779 205/300/780 214/301/781
f 214/301/781 205/300/780 206/302/782
s 132
f 209/290/783 214/301/784 207/303/785
f 207/303/785 214/301/784 206/302/786
s off
f 209/290/787 207/303/788 208/304/789
f 209/290/790 208/304/791 199/291/792
s 133
f 215/305/793 216/306/794 199/308/795
f 199/308/795 216/306/794 200/307/796
s 134
f 216/306/797 217/309/798 200/307/799
f 200/307/799 217/309/798 201/310/800
s 135
f 218/311/801 202/312/802 217/309/803
f 217/309/803 202/312/802 201/310/804
s off
f 218/311/805 203/313/806 202/312/807
f 218/311/808 204/314/809 203/313/810
s 136
f 218/311/811 219/315/812 204/314/813
f 204/314/813 219/315/812 205/316/814
s 137
f 220/317/815 206/318/816 219/315/817
f 219/315/817 206/318/816 205/316/818
s 138
f 215/305/819 207/319/820 220/317/821
f 220/317/821 207/319/820 206/318/822
s off
f 215/305/823 208/320/824 207/319/825
f 215/305/826 199/308/827 208/320/828
s 139
f 212/295/829 213/299/830 211/293/831
f 211/293/831 213/299/830 210/289/832
f 210/289/832 213/299/830 209/290/833
f 213/299/830 214/301/834 209/290/833
s 140
f 215/305/835 220/317/836 216/306/837
f 220/317/836 219/315/838 216/306/837
f 219/315/838 218/311/839 216/306/837
f 216/306/837 218/311/839 217/309/840
