# This file uses feet as units for non-parametric coordinates.

g default
v 10.061630 0.000000 -3.269216
v 6.218430 0.000000 -8.558933
v 0.000000 0.000000 -10.579415
v -6.218430 0.000000 -8.558918
v -10.061615 0.000000 -3.269216
v -10.061615 0.000000 3.269223
v -6.218430 0.000000 8.558933
v 0.000000 0.000000 10.579415
v 6.218430 0.000000 8.558933
v 10.061615 0.000000 3.269223
v 0.000000 -9.715790 0.000004
v 10.061630 -2.951691 -3.269216
v 6.218430 -2.951691 -8.558933
v 0.000000 -2.951691 -10.579415
v -6.218430 -2.951691 -8.558918
v -10.061615 -2.951691 -3.269216
v -10.061615 -2.951691 3.269223
v -6.218430 -2.951691 8.558933
v 0.000000 -2.951691 10.579415
v 6.218430 -2.951691 8.558933
v 10.061615 -2.951691 3.269223
v 8.432190 -3.297943 -2.739778
v 5.211365 -3.297943 -7.172854
v 0.000000 -3.297943 -8.866118
v -5.211365 -3.297943 -7.172839
v -8.432175 -3.297943 -2.739778
v -8.432175 -3.297943 2.739786
v -5.211365 -3.297943 7.172847
v 0.000000 -3.297943 8.866118
v 5.211365 -3.297943 7.172847
v 8.432175 -3.297943 2.739786
v 5.971390 -5.777649 -1.940244
v 3.690521 -5.777649 -5.079570
v 0.000000 -5.777649 -6.278686
v -3.690521 -5.777649 -5.079555
v -5.971375 -5.777649 -1.940221
v -5.971375 -5.777649 1.940229
v -3.690521 -5.777649 5.079562
v 0.000000 -5.777649 6.278686
v 3.690521 -5.777649 5.079562
v 5.971375 -5.777649 1.940229
v 4.937012 -5.777649 -1.604159
v 3.051224 -5.777649 -4.199679
v 0.000000 -5.777649 -5.191082
v -3.051224 -5.777649 -4.199671
v -4.936996 -5.777649 -1.604136
v -4.936996 -5.777649 1.604144
v -3.051239 -5.777649 4.199671
v 0.000000 -5.777649 5.191082
v 3.051224 -5.777649 4.199671
v 4.936996 -5.777649 1.604136
v 2.719025 -9.715790 -0.883391
v 1.680420 -9.715790 -2.313013
v 0.000000 -9.715790 -2.858949
v -1.680466 -9.715790 -2.312944
v -2.719009 -9.715790 -0.883486
v -2.719009 -9.715790 0.883503
v -1.680481 -9.715790 2.312935
v 0.000000 -9.715790 2.858949
v 1.680466 -9.715759 2.312892
v 2.719009 -9.715790 0.883468
v -0.989535 -43.654663 0.509332
v -1.614658 -44.802021 0.831094
v -1.614658 -48.261391 0.831094
v -0.989535 -49.408745 0.509331
v -0.000000 -49.835354 -0.000000
v 0.989535 -49.408745 -0.509332
v 1.614658 -48.261391 -0.831094
v 1.614658 -44.802021 -0.831094
v 0.989535 -43.654663 -0.509332
v 0.000000 -43.228058 0.000000
v 0.257888 -43.888073 0.501028
v -0.969664 -44.858536 1.144493
v -0.969664 -48.204865 1.144492
v 0.257888 -49.175335 0.501028
v 1.494897 -48.204865 -0.124062
v 1.494898 -44.858536 -0.124062
v -0.257888 -43.888073 -0.501028
v -1.494898 -44.858536 0.124062
v -1.494897 -48.204865 0.124062
v -0.257888 -49.175335 -0.501028
v 0.969664 -48.204865 -1.144492
v 0.969664 -44.858536 -1.144493
v -0.748087 -46.790894 -0.823993
v -1.220679 -47.938251 -1.344537
v -1.205950 -51.521988 -1.328313
v 1.205950 -51.521988 1.328313
v 1.220679 -47.938251 1.344537
v 0.748087 -46.790894 0.823993
v 0.000000 -46.364288 -0.000000
v -0.417219 -47.024326 0.378784
v -1.356468 -47.994801 -0.640405
v -1.348541 -51.412354 -0.637643
v 0.504755 -51.412354 1.403700
v 0.506740 -47.994801 1.411857
v 0.417219 -47.024326 -0.378785
v -0.506740 -47.994801 -1.411857
v -0.504755 -51.412354 -1.403700
v 1.348541 -51.412354 0.637643
v 1.356469 -47.994801 0.640405
v -0.847393 -39.362270 -0.557391
v -1.222355 -40.482899 -1.194753
v -1.016719 -43.922630 -1.473396
v -0.505133 -45.083698 -1.020114
v 0.222038 -45.539452 -0.190835
v 0.898383 -45.146702 0.706654
v 1.273345 -44.026073 1.344016
v 1.067709 -40.586342 1.622659
v 0.556124 -39.425274 1.169377
v -0.171048 -38.969524 0.340097
v -0.568274 -39.689663 0.640132
v -1.392169 -40.616707 -0.506592
v -1.192269 -43.943962 -0.776747
v -0.252548 -44.946770 0.213800
v 0.555287 -44.022690 1.373137
v 0.355647 -40.695480 1.643707
v 0.303539 -39.562199 -0.064538
v -0.504296 -40.486275 -1.223874
v -0.304658 -43.813480 -1.494444
v 0.619264 -44.819305 -0.490868
v 1.443158 -43.892254 0.655856
v 1.243259 -40.564999 0.926009
v -0.989535 -36.240974 0.509332
v -1.614658 -37.388332 0.831094
v -1.614658 -40.847702 0.831094
v -0.989535 -41.995056 0.509331
v 0.000000 -42.421665 -0.000000
v 0.989535 -41.995056 -0.509331
v 1.614658 -40.847702 -0.831094
v 1.614658 -37.388332 -0.831094
v 0.989535 -36.240974 -0.509332
v -0.000000 -35.814369 -0.000000
v 0.257888 -36.474384 0.501028
v -0.969664 -37.444847 1.144493
v -0.969664 -40.791176 1.144492
v 0.257888 -41.761646 0.501028
v 1.494898 -40.791176 -0.124062
v 1.494898 -37.444847 -0.124062
v -0.257888 -36.474384 -0.501028
v -1.494898 -37.444847 0.124062
v -1.494898 -40.791176 0.124062
v -0.257888 -41.761646 -0.501028
v 0.969664 -40.791176 -1.144492
v 0.969664 -37.444847 -1.144493
v -0.748087 -32.007927 -0.823993
v -1.220679 -33.155285 -1.344537
v -1.220679 -36.614655 -1.344537
v -0.748087 -37.762009 -0.823993
v 0.000000 -38.188618 -0.000000
v 0.748087 -37.762009 0.823992
v 1.220679 -36.614655 1.344537
v 1.220679 -33.155285 1.344537
v 0.748087 -32.007927 0.823993
v 0.000000 -31.581318 -0.000000
v -0.417210 -32.241337 0.378777
v -1.356462 -33.211800 -0.640407
v -1.356462 -36.558128 -0.640407
v -0.417210 -37.528599 0.378776
v 0.506743 -36.558128 1.411850
v 0.506743 -33.211800 1.411851
v 0.417210 -32.241337 -0.378777
v -0.506743 -33.211800 -1.411851
v -0.506743 -36.558128 -1.411850
v 0.417209 -37.528599 -0.378776
v 1.356462 -36.558128 0.640407
v 1.356462 -33.211800 0.640407
v -0.207404 -28.715616 -0.148956
v -0.849984 -29.686106 0.487247
v -1.133318 -33.056625 1.162462
v -0.674805 -34.322758 0.970792
v 0.164283 -34.969765 0.396334
v 1.070843 -34.784058 -0.342597
v 1.713423 -33.813568 -0.978801
v 1.996757 -30.443047 -1.654015
v 1.538244 -29.176912 -1.462345
v 0.699157 -28.529905 -0.887887
v 0.992753 -29.104609 -0.321243
v -0.164753 -29.761127 0.691578
v -0.438731 -33.021351 1.346517
v 0.563640 -34.257278 0.709713
v 1.733974 -33.597782 -0.287735
v 2.007841 -30.337206 -0.942056
v 0.299799 -29.242390 -1.201267
v -0.870534 -29.901878 -0.203820
v -1.144400 -33.162457 0.450502
v -0.129313 -34.395061 -0.170310
v 1.028194 -33.738533 -1.183132
v 1.302171 -30.478308 -1.838072
v -0.210714 -25.794645 -1.040487
v -0.745002 -26.914782 -1.552476
v -0.899711 -30.370230 -1.559437
v -0.467337 -31.542229 -1.051457
v 0.278971 -32.008770 -0.244807
v 1.062962 -31.623009 0.563174
v 1.597251 -30.502871 1.075164
v 1.751960 -27.047421 1.082124
v 1.319585 -25.875423 0.574145
v 0.573277 -25.408884 -0.232505
v 0.135935 -26.047752 0.154129
v -0.867450 -26.966164 -0.845709
v -1.017555 -30.308676 -0.852307
v -0.100366 -31.329042 0.144313
v 0.888152 -30.409672 1.158407
v 1.038092 -27.067139 1.164946
v 0.952615 -26.088608 -0.621626
v -0.035903 -27.007973 -1.635719
v -0.185844 -30.350504 -1.642258
v 0.716313 -31.369900 -0.631441
v 1.719698 -30.451481 0.368397
v 1.869805 -27.108965 0.374994
v -0.329174 -21.644175 0.330569
v -0.997195 -22.759350 0.663596
v -1.151999 -26.214792 0.656979
v -0.585658 -27.391760 0.319097
v 0.372629 -27.866039 -0.212898
v 1.368437 -27.488007 -0.742968
v 2.036457 -26.372829 -1.075995
v 2.191261 -22.917387 -1.069377
v 1.624920 -21.740419 -0.731496
v 0.666633 -21.266140 -0.199501
v 0.906168 -21.940582 0.294426
v -0.348642 -22.850164 0.962670
v -0.498590 -26.192696 0.956110
v 0.670142 -27.221889 0.283615
v 1.934705 -26.313009 -0.366488
v 2.084800 -22.970495 -0.359900
v 0.369120 -21.910286 -0.696014
v -0.895442 -22.819162 -0.045911
v -1.045537 -26.161676 -0.052498
v 0.133095 -27.191593 -0.706824
v 1.387905 -26.282005 -1.375068
v 1.537852 -22.939476 -1.368510
v -0.113117 -17.856682 -1.111276
v -0.516756 -19.028822 -1.642084
v -0.437775 -22.486197 -1.564851
v 0.017686 -23.607470 -0.983525
v 0.707228 -23.994234 -0.093968
v 1.377663 -23.528236 0.777004
v 1.781301 -22.356094 1.307813
v 1.702321 -18.898720 1.230580
v 1.246860 -17.777451 0.649254
v 0.557318 -17.390682 -0.240304
v 0.126214 -18.053238 0.118687
v -0.706850 -19.072758 -0.949837
v -0.630287 -22.417150 -0.875072
v 0.246557 -23.337488 0.236142
v 1.063237 -22.318098 1.317315
v 0.986751 -18.973701 1.242520
v 1.017989 -18.047426 -0.570414
v 0.201309 -19.066811 -1.651587
v 0.277794 -22.411205 -1.576791
v 1.138331 -23.331676 -0.452958
v 1.971395 -22.312149 0.615566
v 1.894833 -18.967754 0.540801
v -0.546280 -14.926511 0.711750
v -1.109671 -16.106417 1.045696
v -0.935779 -19.560806 1.059954
v -0.258161 -20.672352 0.735964
v 0.745246 -21.045147 0.217107
v 1.706500 -20.565874 -0.305577
v 2.269892 -19.385967 -0.639523
v 2.095999 -15.931579 -0.653781
v 1.418381 -14.820034 -0.329791
v 0.414975 -14.447239 0.189065
v 0.710728 -15.088473 0.689799
v -0.459359 -16.123703 1.351732
v -0.290921 -19.465216 1.365721
v 0.975870 -20.368181 0.712376
v 2.155667 -19.332094 0.068714
v 1.987059 -15.990602 0.054695
v 0.184350 -15.124201 -0.306203
v -0.995447 -16.160282 0.337459
v -0.826839 -19.501774 0.351478
v 0.449493 -20.403910 -0.283626
v 1.619579 -19.368673 -0.945559
v 1.451141 -16.027159 -0.959549
v -0.473761 -10.930624 -0.764388
v -0.752935 -12.089443 -1.391819
v -0.494648 -15.536873 -1.471183
v -0.044635 -16.664848 -0.896744
v 0.564253 -17.065996 0.044691
v 1.109787 -16.616798 1.005908
v 1.388960 -15.457977 1.633339
v 1.130674 -12.010549 1.712703
v 0.680660 -10.882575 1.138264
v 0.071773 -10.481424 0.196828
v -0.359448 -11.189050 0.474005
v -1.014610 -12.187362 -0.727875
v -0.763812 -15.522060 -0.804908
v 0.036036 -16.457972 0.351778
v 0.673556 -15.462010 1.564208
v 0.422995 -12.127283 1.641542
v 0.599989 -11.089446 -0.110258
v -0.037531 -12.085402 -1.322688
v 0.213029 -15.420128 -1.400022
v 0.995473 -16.358368 -0.232485
v 1.650635 -15.360050 0.969395
v 1.399837 -12.025352 1.046427
v -1.772279 -8.960793 0.737510
v -1.524870 -12.532948 0.660994
v -0.767715 -13.613450 0.438382
v 0.328176 -13.940634 0.117615
v 1.361628 -13.417327 -0.183910
v 1.949255 -12.210935 -0.354303
v 1.659737 -8.640388 -0.265479
v -1.207607 -9.032816 1.165570
v -0.956578 -12.438925 1.092757
v 0.437884 -13.283548 0.673410
v 1.694856 -12.193757 0.317991
v 1.429887 -8.788483 0.395619
v -1.527179 -9.031309 0.072509
v -1.278597 -12.437422 -0.008706
v 0.121627 -13.282079 -0.408360
v 1.372788 -12.192253 -0.783661
v 1.109881 -8.786973 -0.698999
vt 0.850429 0.029787
vt 0.861460 0.029787
vt 0.855764 0.046954
vt 0.848427 0.046954
vt 0.778600 0.029787
vt 0.780603 0.046954
vt 0.840988 0.029787
vt 0.840257 0.046954
vt 0.805736 0.029787
vt 0.814515 0.029787
vt 0.814515 0.046954
vt 0.805877 0.046954
vt 0.823293 0.029787
vt 0.823152 0.046954
vt 0.796957 0.029787
vt 0.797259 0.046954
vt 0.742060 0.303989
vt 0.766054 0.303989
vt 0.766054 0.314821
vt 0.742060 0.314821
vt 0.550108 0.303989
vt 0.550108 0.314821
vt 0.718066 0.303989
vt 0.718066 0.314821
vt 0.622090 0.303989
vt 0.646084 0.303989
vt 0.646084 0.314821
vt 0.622090 0.314821
vt 0.670078 0.303989
vt 0.670078 0.314821
vt 0.598096 0.303989
vt 0.598096 0.314821
vt 0.661561 0.207576
vt 0.683245 0.207576
vt 0.197261 0.220923
vt 0.180907 0.220923
vt 0.705005 0.207576
vt 0.213569 0.220923
vt 0.942989 0.169592
vt 0.942989 0.181836
vt 0.639617 0.207576
vt 0.164367 0.220923
vt 0.726765 0.207576
vt 0.229875 0.220923
vt 0.942989 0.157347
vt 0.946975 0.169592
vt 0.946975 0.181836
vt 0.942989 0.194080
vt 0.618482 0.207576
vt 0.147527 0.220923
vt 0.748449 0.207576
vt 0.246230 0.220923
vt 0.942989 0.145103
vt 0.946975 0.157347
vt 0.946975 0.194080
vt 0.942989 0.206319
vt 0.813715 0.207576
vt 0.298528 0.220923
vt 0.770393 0.207576
vt 0.262770 0.220923
vt 0.942989 0.132859
vt 0.946975 0.145103
vt 0.946975 0.206324
vt 0.942989 0.094783
vt 0.791530 0.207576
vt 0.279610 0.220923
vt 0.942989 0.120615
vt 0.946975 0.132859
vt 0.946975 0.096066
vt 0.942989 0.108377
vt 0.946975 0.120615
vt 0.946975 0.108371
vt 0.803095 0.184018
vt 0.793117 0.187260
vt 0.799284 0.178772
vt 0.803095 0.190502
vt 0.793117 0.176768
vt 0.799284 0.195747
vt 0.786951 0.178772
vt 0.793117 0.197751
vt 0.783139 0.184018
vt 0.786951 0.195747
vt 0.783139 0.190502
vt 0.788042 0.029787
vt 0.788772 0.046954
vt 0.832072 0.029787
vt 0.831770 0.046954
vt 0.574102 0.303989
vt 0.574102 0.314821
vt 0.694072 0.303989
vt 0.694072 0.314821
vt 0.683249 0.213833
vt 0.661549 0.213833
vt 0.639647 0.213833
vt 0.618516 0.213833
vt 0.596295 0.207576
vt 0.598283 0.213833
vt 0.811727 0.213833
vt 0.791496 0.213833
vt 0.770363 0.213833
vt 0.748461 0.213833
vt 0.726762 0.213833
vt 0.705005 0.213833
vt 0.197250 0.234171
vt 0.180887 0.234171
vt 0.164449 0.234171
vt 0.147919 0.234171
vt 0.128609 0.220923
vt 0.132343 0.234171
vt 0.294794 0.234171
vt 0.279218 0.234171
vt 0.262688 0.234171
vt 0.246250 0.234171
vt 0.229886 0.234171
vt 0.213569 0.234171
vt 0.767569 0.029787
vt 0.773265 0.046954
vt 0.526113 0.303989
vt 0.526113 0.314821
vt 0.942989 0.219912
vt 0.946975 0.218629
vt 0.911637 0.307380
vt 0.906078 0.303768
vt 0.910848 0.302563
vt 0.913797 0.307008
vt 0.911637 0.319198
vt 0.913797 0.319569
vt 0.906078 0.322810
vt 0.910848 0.324014
vt 0.906078 0.325712
vt 0.901308 0.324014
vt 0.900520 0.319198
vt 0.898360 0.319569
vt 0.900520 0.307380
vt 0.898360 0.307008
vt 0.901308 0.302563
vt 0.906078 0.300865
vt 0.970399 0.234791
vt 0.964840 0.238403
vt 0.962680 0.238032
vt 0.965629 0.233586
vt 0.964840 0.250221
vt 0.962680 0.250593
vt 0.970399 0.253833
vt 0.965629 0.255038
vt 0.970399 0.256736
vt 0.975169 0.255038
vt 0.975957 0.250221
vt 0.978117 0.250593
vt 0.975957 0.238403
vt 0.978117 0.238032
vt 0.975169 0.233586
vt 0.970399 0.231888
vt 0.911637 0.307380
vt 0.906078 0.303768
vt 0.910848 0.302563
vt 0.913797 0.307008
vt 0.911637 0.319198
vt 0.913797 0.319569
vt 0.900520 0.307380
vt 0.900520 0.319198
vt 0.898360 0.319569
vt 0.898360 0.307008
vt 0.901308 0.302563
vt 0.906078 0.300865
vt 0.970399 0.234791
vt 0.964840 0.238403
vt 0.962680 0.238032
vt 0.965629 0.233586
vt 0.964840 0.250221
vt 0.962680 0.250593
vt 0.975957 0.250221
vt 0.975957 0.238403
vt 0.978117 0.238032
vt 0.978117 0.250593
vt 0.975169 0.233586
vt 0.970399 0.231888
vt 0.911637 0.307380
vt 0.906078 0.303768
vt 0.910848 0.302563
vt 0.913797 0.307008
vt 0.911637 0.319198
vt 0.913797 0.319569
vt 0.906078 0.322810
vt 0.910848 0.324014
vt 0.906078 0.325712
vt 0.901308 0.324014
vt 0.900520 0.319198
vt 0.898360 0.319569
vt 0.900520 0.307380
vt 0.898360 0.307008
vt 0.901308 0.302563
vt 0.906078 0.300865
vt 0.970399 0.234791
vt 0.964840 0.238403
vt 0.962680 0.238032
vt 0.965629 0.233586
vt 0.964840 0.250221
vt 0.962680 0.250593
vt 0.970399 0.253833
vt 0.965629 0.255038
vt 0.970399 0.256736
vt 0.975169 0.255038
vt 0.975957 0.250221
vt 0.978117 0.250593
vt 0.975957 0.238403
vt 0.978117 0.238032
vt 0.975169 0.233586
vt 0.970399 0.231888
vt 0.911637 0.307380
vt 0.906078 0.303768
vt 0.910848 0.302563
vt 0.913797 0.307008
vt 0.911637 0.319198
vt 0.913797 0.319569
vt 0.906078 0.322810
vt 0.910848 0.324014
vt 0.906078 0.325712
vt 0.901308 0.324014
vt 0.900520 0.319198
vt 0.898360 0.319569
vt 0.900520 0.307380
vt 0.898360 0.307008
vt 0.901308 0.302563
vt 0.906078 0.300865
vt 0.970399 0.234791
vt 0.964840 0.238403
vt 0.962680 0.238032
vt 0.965629 0.233586
vt 0.964840 0.250221
vt 0.962680 0.250593
vt 0.970399 0.253833
vt 0.965629 0.255038
vt 0.970399 0.256736
vt 0.975169 0.255038
vt 0.975957 0.250221
vt 0.978117 0.250593
vt 0.975957 0.238403
vt 0.978117 0.238032
vt 0.975169 0.233586
vt 0.970399 0.231888
vt 0.911637 0.307380
vt 0.906078 0.303768
vt 0.910848 0.302563
vt 0.913797 0.307008
vt 0.911637 0.319198
vt 0.913797 0.319569
vt 0.906078 0.322810
vt 0.910848 0.324014
vt 0.906078 0.325712
vt 0.901308 0.324014
vt 0.900520 0.319198
vt 0.898360 0.319569
vt 0.900520 0.307380
vt 0.898360 0.307008
vt 0.901308 0.302563
vt 0.906078 0.300865
vt 0.970399 0.234791
vt 0.964840 0.238403
vt 0.962680 0.238032
vt 0.965629 0.233586
vt 0.964840 0.250221
vt 0.962680 0.250593
vt 0.970399 0.253833
vt 0.965629 0.255038
vt 0.970399 0.256736
vt 0.975169 0.255038
vt 0.975957 0.250221
vt 0.978117 0.250593
vt 0.975957 0.238403
vt 0.978117 0.238032
vt 0.975169 0.233586
vt 0.970399 0.231888
vt 0.911637 0.307380
vt 0.906078 0.303768
vt 0.910848 0.302563
vt 0.913797 0.307008
vt 0.911637 0.319198
vt 0.913797 0.319569
vt 0.906078 0.322810
vt 0.910848 0.324014
vt 0.906078 0.325712
vt 0.901308 0.324014
vt 0.900520 0.319198
vt 0.898360 0.319569
vt 0.900520 0.307380
vt 0.898360 0.307008
vt 0.901308 0.302563
vt 0.906078 0.300865
vt 0.970399 0.234791
vt 0.964840 0.238403
vt 0.962680 0.238032
vt 0.965629 0.233586
vt 0.964840 0.250221
vt 0.962680 0.250593
vt 0.970399 0.253833
vt 0.965629 0.255038
vt 0.970399 0.256736
vt 0.975169 0.255038
vt 0.975957 0.250221
vt 0.978117 0.250593
vt 0.975957 0.238403
vt 0.978117 0.238032
vt 0.975169 0.233586
vt 0.970399 0.231888
vt 0.911637 0.307380
vt 0.906078 0.303768
vt 0.910848 0.302563
vt 0.913797 0.307008
vt 0.911637 0.319198
vt 0.913797 0.319569
vt 0.906078 0.322810
vt 0.910848 0.324014
vt 0.906078 0.325712
vt 0.901308 0.324014
vt 0.900520 0.319198
vt 0.898360 0.319569
vt 0.900520 0.307380
vt 0.898360 0.307008
vt 0.901308 0.302563
vt 0.906078 0.300865
vt 0.970399 0.234791
vt 0.964840 0.238403
vt 0.962680 0.238032
vt 0.965629 0.233586
vt 0.964840 0.250221
vt 0.962680 0.250593
vt 0.970399 0.253833
vt 0.965629 0.255038
vt 0.970399 0.256736
vt 0.975169 0.255038
vt 0.975957 0.250221
vt 0.978117 0.250593
vt 0.975957 0.238403
vt 0.978117 0.238032
vt 0.975169 0.233586
vt 0.970399 0.231888
vt 0.911637 0.307380
vt 0.906078 0.303768
vt 0.910848 0.302563
vt 0.913797 0.307008
vt 0.911637 0.319198
vt 0.913797 0.319569
vt 0.906078 0.322810
vt 0.910848 0.324014
vt 0.906078 0.325712
vt 0.901308 0.324014
vt 0.900520 0.319198
vt 0.898360 0.319569
vt 0.900520 0.307380
vt 0.898360 0.307008
vt 0.901308 0.302563
vt 0.906078 0.300865
vt 0.970399 0.234791
vt 0.964840 0.238403
vt 0.962680 0.238032
vt 0.965629 0.233586
vt 0.964840 0.250221
vt 0.962680 0.250593
vt 0.970399 0.253833
vt 0.965629 0.255038
vt 0.970399 0.256736
vt 0.975169 0.255038
vt 0.975957 0.250221
vt 0.978117 0.250593
vt 0.975957 0.238403
vt 0.978117 0.238032
vt 0.975169 0.233586
vt 0.970399 0.231888
vt 0.911637 0.307380
vt 0.906078 0.303768
vt 0.910848 0.302563
vt 0.913797 0.307008
vt 0.911637 0.319198
vt 0.913797 0.319569
vt 0.906078 0.322810
vt 0.910848 0.324014
vt 0.906078 0.325712
vt 0.901308 0.324014
vt 0.900520 0.319198
vt 0.898360 0.319569
vt 0.900520 0.307380
vt 0.898360 0.307008
vt 0.901308 0.302563
vt 0.906078 0.300865
vt 0.970399 0.234791
vt 0.964840 0.238403
vt 0.962680 0.238032
vt 0.965629 0.233586
vt 0.964840 0.250221
vt 0.962680 0.250593
vt 0.970399 0.253833
vt 0.965629 0.255038
vt 0.970399 0.256736
vt 0.975169 0.255038
vt 0.975957 0.250221
vt 0.978117 0.250593
vt 0.975957 0.238403
vt 0.978117 0.238032
vt 0.975169 0.233586
vt 0.970399 0.231888
vt 0.911637 0.307380
vt 0.906078 0.303768
vt 0.910848 0.302563
vt 0.913797 0.307008
vt 0.911637 0.319198
vt 0.913797 0.319569
vt 0.906078 0.322810
vt 0.910848 0.324014
vt 0.906078 0.325712
vt 0.901308 0.324014
vt 0.900520 0.319198
vt 0.898360 0.319569
vt 0.900520 0.307380
vt 0.898360 0.307008
vt 0.901308 0.302563
vt 0.906078 0.300865
vt 0.970399 0.234791
vt 0.964840 0.238403
vt 0.962680 0.238032
vt 0.965629 0.233586
vt 0.964840 0.250221
vt 0.962680 0.250593
vt 0.970399 0.253833
vt 0.965629 0.255038
vt 0.970399 0.256736
vt 0.975169 0.255038
vt 0.975957 0.250221
vt 0.978117 0.250593
vt 0.975957 0.238403
vt 0.978117 0.238032
vt 0.975169 0.233586
vt 0.970399 0.231888
vt 0.911637 0.307380
vt 0.906078 0.303768
vt 0.910848 0.302563
vt 0.913797 0.307008
vt 0.911637 0.319198
vt 0.913797 0.319569
vt 0.906078 0.322810
vt 0.910848 0.324014
vt 0.906078 0.325712
vt 0.901308 0.324014
vt 0.900520 0.319198
vt 0.898360 0.319569
vt 0.900520 0.307380
vt 0.898360 0.307008
vt 0.901308 0.302563
vt 0.906078 0.300865
vt 0.970399 0.234791
vt 0.964840 0.238403
vt 0.962680 0.238032
vt 0.965629 0.233586
vt 0.964840 0.250221
vt 0.962680 0.250593
vt 0.970399 0.253833
vt 0.965629 0.255038
vt 0.970399 0.256736
vt 0.975169 0.255038
vt 0.975957 0.250221
vt 0.978117 0.250593
vt 0.975957 0.238403
vt 0.978117 0.238032
vt 0.975169 0.233586
vt 0.970399 0.231888
vt 0.911637 0.319198
vt 0.911637 0.307380
vt 0.913797 0.307008
vt 0.913797 0.319569
vt 0.906078 0.322810
vt 0.910848 0.324014
vt 0.906078 0.325712
vt 0.901308 0.324014
vt 0.900520 0.319198
vt 0.898360 0.319569
vt 0.900520 0.307380
vt 0.898360 0.307008
vt 0.964840 0.238403
vt 0.964840 0.250221
vt 0.962680 0.250593
vt 0.962680 0.238032
vt 0.970399 0.253833
vt 0.965629 0.255038
vt 0.970399 0.256736
vt 0.975169 0.255038
vt 0.975957 0.250221
vt 0.978117 0.250593
vt 0.975957 0.238403
vt 0.978117 0.238032
vn 0.116436 -0.980183 -0.160260
vn 0.188397 -0.980183 -0.061214
vn 0.116435 -0.980183 -0.160260
vn 0.188397 -0.980183 -0.061214
vn -0.000000 -0.980183 -0.198092
vn 0.116436 -0.980183 -0.160260
vn -0.000000 -0.980183 -0.198092
vn 0.116435 -0.980183 -0.160260
vn -0.116436 -0.980183 -0.160260
vn -0.000000 -0.980183 -0.198092
vn -0.116436 -0.980183 -0.160260
vn -0.000000 -0.980183 -0.198092
vn -0.188397 -0.980183 -0.061214
vn -0.116436 -0.980183 -0.160260
vn -0.188397 -0.980183 -0.061214
vn -0.116436 -0.980183 -0.160260
vn -0.188397 -0.980183 0.061214
vn -0.188397 -0.980183 -0.061214
vn -0.188397 -0.980183 0.061214
vn -0.188397 -0.980183 -0.061214
vn -0.116436 -0.980184 0.160259
vn -0.188397 -0.980183 0.061214
vn -0.116435 -0.980184 0.160260
vn -0.188397 -0.980183 0.061214
vn 0.000000 -0.980183 0.198092
vn -0.116436 -0.980184 0.160259
vn 0.000000 -0.980183 0.198092
vn -0.116435 -0.980184 0.160260
vn 0.116436 -0.980184 0.160259
vn 0.000000 -0.980183 0.198092
vn 0.116435 -0.980184 0.160260
vn 0.000000 -0.980183 0.198092
vn 0.188397 -0.980183 0.061214
vn 0.116436 -0.980184 0.160259
vn 0.188397 -0.980183 0.061214
vn 0.116435 -0.980184 0.160260
vn 0.188397 -0.980183 -0.061214
vn 0.188397 -0.980183 0.061214
vn 0.188397 -0.980183 -0.061214
vn 0.188397 -0.980183 0.061214
vn 0.406698 -0.721976 -0.559774
vn 0.658053 -0.721977 -0.213812
vn 0.406698 -0.721976 -0.559774
vn 0.658052 -0.721977 -0.213814
vn -0.000001 -0.721977 -0.691917
vn 0.406698 -0.721976 -0.559774
vn -0.000001 -0.721977 -0.691917
vn 0.406698 -0.721976 -0.559774
vn -0.406699 -0.721977 -0.559773
vn -0.000001 -0.721977 -0.691917
vn -0.406700 -0.721977 -0.559772
vn -0.000001 -0.721977 -0.691917
vn -0.658053 -0.721977 -0.213813
vn -0.406699 -0.721977 -0.559773
vn -0.658052 -0.721977 -0.213814
vn -0.406700 -0.721977 -0.559772
vn -0.658053 -0.721977 0.213814
vn -0.658053 -0.721977 -0.213813
vn -0.658052 -0.721977 0.213814
vn -0.658052 -0.721977 -0.213814
vn -0.406698 -0.721977 0.559773
vn -0.658053 -0.721977 0.213814
vn -0.406699 -0.721977 0.559773
vn -0.658052 -0.721977 0.213814
vn 0.000000 -0.721977 0.691917
vn -0.406698 -0.721977 0.559773
vn 0.000000 -0.721977 0.691917
vn -0.406699 -0.721977 0.559773
vn 0.406698 -0.721977 0.559773
vn 0.000000 -0.721977 0.691917
vn 0.406699 -0.721977 0.559773
vn 0.000000 -0.721977 0.691917
vn 0.658052 -0.721977 0.213814
vn 0.406698 -0.721977 0.559773
vn 0.658052 -0.721977 0.213815
vn 0.406699 -0.721977 0.559773
vn 0.658053 -0.721977 -0.213812
vn 0.658052 -0.721977 0.213814
vn 0.658052 -0.721977 -0.213814
vn 0.658052 -0.721977 0.213815
vn 0.505760 -0.509546 -0.696110
vn 0.818329 -0.509548 -0.265894
vn 0.505757 -0.509546 -0.696112
vn 0.818331 -0.509548 -0.265886
vn -0.000007 -0.509543 -0.860445
vn 0.505760 -0.509546 -0.696110
vn -0.000008 -0.509543 -0.860445
vn 0.505757 -0.509546 -0.696112
vn -0.505755 -0.509544 -0.696115
vn -0.000007 -0.509543 -0.860445
vn -0.505757 -0.509544 -0.696114
vn -0.000008 -0.509543 -0.860445
vn -0.818333 -0.509544 -0.265887
vn -0.505755 -0.509544 -0.696115
vn -0.818332 -0.509544 -0.265888
vn -0.505757 -0.509544 -0.696114
vn -0.818333 -0.509544 0.265886
vn -0.818333 -0.509544 -0.265887
vn -0.818333 -0.509544 0.265887
vn -0.818332 -0.509544 -0.265888
vn -0.505754 -0.509545 0.696116
vn -0.818333 -0.509544 0.265886
vn -0.505756 -0.509545 0.696115
vn -0.818333 -0.509544 0.265887
vn 0.000005 -0.509549 0.860442
vn -0.505754 -0.509545 0.696116
vn 0.000005 -0.509549 0.860442
vn -0.505756 -0.509545 0.696115
vn 0.505754 -0.509548 0.696113
vn 0.000005 -0.509549 0.860442
vn 0.505758 -0.509548 0.696110
vn 0.000005 -0.509549 0.860442
vn 0.818329 -0.509547 0.265895
vn 0.505754 -0.509548 0.696113
vn 0.818329 -0.509547 0.265894
vn 0.505758 -0.509548 0.696110
vn 0.818329 -0.509548 -0.265894
vn 0.818329 -0.509547 0.265895
vn 0.818331 -0.509548 -0.265886
vn 0.818329 -0.509547 0.265894
vn 0.587785 0.000000 -0.809017
vn 0.951057 0.000000 -0.309016
vn 0.587785 0.000000 -0.809017
vn 0.951057 0.000000 -0.309016
vn -0.000001 0.000000 -1.000000
vn 0.587785 0.000000 -0.809017
vn -0.000001 0.000000 -1.000000
vn 0.587785 0.000000 -0.809017
vn -0.587786 0.000000 -0.809017
vn -0.000001 0.000000 -1.000000
vn -0.587786 0.000000 -0.809017
vn -0.000001 0.000000 -1.000000
vn -0.951057 0.000000 -0.309016
vn -0.587786 0.000000 -0.809017
vn -0.951057 0.000000 -0.309016
vn -0.587786 0.000000 -0.809017
vn -0.951057 0.000000 0.309016
vn -0.951057 0.000000 -0.309016
vn -0.951057 0.000000 0.309016
vn -0.951057 0.000000 -0.309016
vn -0.587785 0.000000 0.809017
vn -0.951057 0.000000 0.309016
vn -0.587785 0.000000 0.809017
vn -0.951057 0.000000 0.309016
vn 0.000000 0.000000 1.000000
vn -0.587785 0.000000 0.809017
vn 0.000000 0.000000 1.000000
vn -0.587785 0.000000 0.809017
vn 0.587785 0.000000 0.809017
vn 0.000000 0.000000 1.000000
vn 0.587785 0.000000 0.809017
vn 0.000000 0.000000 1.000000
vn 0.951056 0.000000 0.309017
vn 0.587785 0.000000 0.809017
vn 0.951056 0.000000 0.309017
vn 0.587785 0.000000 0.809017
vn 0.951057 0.000000 -0.309016
vn 0.951056 0.000000 0.309017
vn 0.951057 0.000000 -0.309016
vn 0.951056 0.000000 0.309017
vn 0.000000 -1.000000 -0.000000
vn 0.000001 -1.000000 0.000002
vn 0.000000 -1.000000 -0.000000
vn 0.000000 -1.000000 -0.000000
vn 0.000001 -1.000000 0.000002
vn 0.000000 -1.000000 0.000000
vn 0.000000 -1.000000 0.000000
vn 0.000001 -1.000000 0.000002
vn 0.000000 -1.000000 -0.000000
vn 0.000000 -1.000000 -0.000000
vn 0.000001 -1.000000 0.000002
vn 0.000000 -1.000000 -0.000000
vn 0.000000 -1.000000 -0.000000
vn 0.000001 -1.000000 0.000002
vn 0.000000 -1.000000 0.000000
vn 0.000000 -1.000000 0.000000
vn 0.000001 -1.000000 0.000002
vn 0.000000 -1.000000 0.000000
vn 0.000000 -1.000000 0.000000
vn 0.000001 -1.000000 0.000002
vn 0.000009 -1.000000 0.000000
vn 0.000009 -1.000000 0.000000
vn 0.000001 -1.000000 0.000002
vn 0.000006 -1.000000 0.000009
vn 0.000006 -1.000000 0.000009
vn 0.000001 -1.000000 0.000002
vn -0.000003 -1.000000 0.000009
vn -0.000003 -1.000000 0.000009
vn 0.000001 -1.000000 0.000002
vn 0.000000 -1.000000 -0.000000
vn 0.000000 -1.000000 0.000000
vn 0.000000 -1.000000 0.000000
vn 0.000000 -1.000000 0.000000
vn 0.000000 -1.000000 0.000000
vn 0.000000 -1.000000 -0.000000
vn 0.000000 -1.000000 0.000000
vn 0.000000 -1.000000 -0.000000
vn 0.000000 -1.000000 0.000000
vn 0.000000 -1.000000 -0.000000
vn 0.000000 -1.000000 -0.000000
vn 0.000000 -1.000000 -0.000000
vn 0.000000 -1.000000 -0.000000
vn 0.000000 -1.000000 -0.000000
vn 0.000000 -1.000000 -0.000000
vn 0.000000 -1.000000 -0.000000
vn 0.000000 -1.000000 -0.000000
vn 0.000000 -1.000000 0.000000
vn 0.000000 -1.000000 -0.000000
vn 0.000000 -1.000000 0.000000
vn 0.000000 -1.000000 -0.000000
vn 0.000000 -1.000000 0.000000
vn 0.000000 -1.000000 0.000000
vn 0.000000 -1.000000 0.000000
vn 0.000000 -1.000000 0.000000
vn 0.000000 -1.000000 0.000000
vn 0.000000 -1.000000 0.000000
vn 0.000000 -1.000000 0.000000
vn 0.000000 -1.000000 0.000000
vn 0.000000 -1.000000 0.000000
vn 0.000000 -1.000000 0.000000
vn 0.000000 -1.000000 0.000000
vn 0.000000 -1.000000 0.000000
vn 0.000000 -1.000000 0.000000
vn 0.000000 -1.000000 0.000000
vn 0.000000 -1.000000 0.000000
vn 0.000000 -1.000000 0.000000
vn 0.000000 -1.000000 0.000000
vn 0.000000 -1.000000 0.000000
vn 0.000000 -1.000000 0.000000
vn 0.000000 -1.000000 0.000000
vn 0.456521 0.070270 0.886934
vn -0.046326 0.488024 0.871600
vn 0.324476 0.039303 0.945077
vn -0.333356 0.153989 0.930140
vn 0.324476 -0.039303 0.945077
vn 0.324476 0.039303 0.945077
vn -0.333354 -0.153991 0.930141
vn -0.333356 0.153989 0.930140
vn 0.456521 -0.070271 0.886933
vn 0.324476 -0.039303 0.945077
vn -0.046324 -0.488023 0.871600
vn -0.333354 -0.153991 0.930141
vn 0.456521 -0.070271 0.886933
vn -0.046324 -0.488023 0.871600
vn 0.348055 -0.649310 0.676206
vn 0.456521 -0.070271 0.886933
vn 0.348055 -0.649310 0.676206
vn 0.736251 -0.488022 0.468796
vn 0.456521 -0.070271 0.886933
vn 0.736251 -0.488022 0.468796
vn 0.580572 -0.039303 0.813260
vn 0.950687 -0.153991 0.269222
vn 0.580572 0.039303 0.813260
vn 0.580572 -0.039303 0.813260
vn 0.950689 0.153989 0.269218
vn 0.950687 -0.153991 0.269222
vn 0.456521 0.070270 0.886934
vn 0.580572 0.039303 0.813260
vn 0.736252 0.488024 0.468792
vn 0.950689 0.153989 0.269218
vn 0.456521 0.070270 0.886934
vn 0.736252 0.488024 0.468792
vn 0.348053 0.649310 0.676206
vn 0.456521 0.070270 0.886934
vn 0.348053 0.649310 0.676206
vn -0.046326 0.488024 0.871600
vn -0.456521 0.070270 -0.886934
vn -0.580572 0.039303 -0.813260
vn -0.736251 0.488024 -0.468793
vn -0.950688 0.153989 -0.269219
vn -0.580572 0.039303 -0.813260
vn -0.580572 -0.039303 -0.813260
vn -0.950688 0.153989 -0.269219
vn -0.950687 -0.153991 -0.269222
vn -0.456521 -0.070271 -0.886933
vn -0.736251 -0.488022 -0.468796
vn -0.580572 -0.039303 -0.813260
vn -0.950687 -0.153991 -0.269222
vn -0.456521 -0.070271 -0.886933
vn -0.348055 -0.649309 -0.676207
vn -0.736251 -0.488022 -0.468796
vn -0.456521 -0.070271 -0.886933
vn 0.046324 -0.488023 -0.871600
vn -0.348055 -0.649309 -0.676207
vn -0.456521 -0.070271 -0.886933
vn -0.324476 -0.039303 -0.945077
vn 0.046324 -0.488023 -0.871600
vn 0.333354 -0.153991 -0.930141
vn -0.324476 -0.039303 -0.945077
vn -0.324476 0.039303 -0.945077
vn 0.333354 -0.153991 -0.930141
vn 0.333356 0.153989 -0.930140
vn -0.456521 0.070270 -0.886934
vn 0.046326 0.488023 -0.871600
vn -0.324476 0.039303 -0.945077
vn 0.333356 0.153989 -0.930140
vn -0.456521 0.070270 -0.886934
vn -0.348053 0.649311 -0.676206
vn 0.046326 0.488023 -0.871600
vn -0.456521 0.070270 -0.886934
vn -0.736251 0.488024 -0.468793
vn -0.348053 0.649311 -0.676206
vn 0.456521 -0.070271 0.886933
vn 0.580572 -0.039303 0.813260
vn 0.324476 -0.039303 0.945077
vn 0.324476 0.039303 0.945077
vn 0.456521 0.070270 0.886934
vn 0.580572 0.039303 0.813260
vn -0.456521 0.070270 -0.886934
vn -0.324476 0.039303 -0.945077
vn -0.580572 0.039303 -0.813260
vn -0.580572 -0.039303 -0.813260
vn -0.456521 -0.070271 -0.886933
vn -0.324476 -0.039303 -0.945077
vn -0.738172 0.077280 0.670172
vn -0.853893 0.488018 0.180846
vn -0.837533 0.042497 0.544731
vn -0.984899 0.149606 -0.087135
vn -0.837533 0.042497 0.544731
vn -0.984899 0.149606 -0.087135
vn -0.846092 -0.000547 0.533036
vn -0.980679 -0.003704 -0.195587
vn -0.622887 0.042497 0.781156
vn -0.612072 -0.000547 0.790802
vn -0.008157 0.149605 0.988712
vn 0.100196 -0.003704 0.994961
vn -0.738172 0.077280 0.670172
vn -0.622887 0.042497 0.781156
vn -0.262269 0.488017 0.832499
vn -0.008157 0.149605 0.988712
vn -0.738172 0.077280 0.670172
vn -0.262269 0.488017 0.832499
vn -0.563085 0.649311 0.511205
vn -0.738172 0.077280 0.670172
vn -0.563085 0.649311 0.511205
vn -0.853893 0.488018 0.180846
vn 0.738172 0.077280 -0.670172
vn 0.622887 0.042497 -0.781156
vn 0.262269 0.488016 -0.832499
vn 0.008157 0.149605 -0.988712
vn 0.622887 0.042497 -0.781156
vn 0.612072 -0.000547 -0.790802
vn 0.008157 0.149605 -0.988712
vn -0.100196 -0.003704 -0.994961
vn 0.837533 0.042497 -0.544732
vn 0.984899 0.149606 0.087135
vn 0.846092 -0.000547 -0.533037
vn 0.980679 -0.003704 0.195587
vn 0.738172 0.077280 -0.670172
vn 0.853893 0.488018 -0.180847
vn 0.837533 0.042497 -0.544732
vn 0.984899 0.149606 0.087135
vn 0.738172 0.077280 -0.670172
vn 0.563084 0.649310 -0.511208
vn 0.853893 0.488018 -0.180847
vn 0.738172 0.077280 -0.670172
vn 0.262269 0.488016 -0.832499
vn 0.563084 0.649310 -0.511208
vn -0.846092 -0.000547 0.533036
vn -0.612072 -0.000547 0.790802
vn -0.837533 0.042497 0.544731
vn -0.738172 0.077280 0.670172
vn -0.622887 0.042497 0.781156
vn 0.846092 -0.000547 -0.533037
vn 0.612072 -0.000547 -0.790802
vn 0.837533 0.042497 -0.544732
vn 0.738172 0.077280 -0.670172
vn 0.622887 0.042497 -0.781156
vn -0.776187 -0.026790 0.629934
vn -0.889916 0.421520 0.174274
vn -0.858886 -0.053480 0.509367
vn -0.986619 0.107847 -0.122279
vn -0.853523 -0.131871 0.504092
vn -0.858886 -0.053480 0.509367
vn -0.967938 -0.198155 -0.154370
vn -0.986619 0.107847 -0.122279
vn -0.768094 -0.166757 0.618243
vn -0.853523 -0.131871 0.504092
vn -0.831131 -0.549541 0.085011
vn -0.967938 -0.198155 -0.154370
vn -0.768094 -0.166757 0.618243
vn -0.831131 -0.549541 0.085011
vn -0.547413 -0.724407 0.419015
vn -0.768094 -0.166757 0.618243
vn -0.547413 -0.724407 0.419015
vn -0.273665 -0.572607 0.772805
vn -0.768094 -0.166757 0.618243
vn -0.273665 -0.572607 0.772805
vn -0.672465 -0.139108 0.726939
vn -0.054772 -0.235329 0.970371
vn -0.672465 -0.139108 0.726939
vn -0.054772 -0.235329 0.970371
vn -0.676514 -0.060789 0.733916
vn -0.078191 0.071204 0.994392
vn -0.776187 -0.026790 0.629934
vn -0.676514 -0.060789 0.733916
vn -0.337206 0.399197 0.852605
vn -0.078191 0.071204 0.994392
vn -0.776187 -0.026790 0.629934
vn -0.337206 0.399197 0.852605
vn -0.628696 0.568057 0.531087
vn -0.776187 -0.026790 0.629934
vn -0.628696 0.568057 0.531087
vn -0.889916 0.421520 0.174274
vn 0.768094 0.166757 -0.618243
vn 0.672465 0.139108 -0.726939
vn 0.273662 0.572609 -0.772805
vn 0.054769 0.235328 -0.970372
vn 0.672465 0.139108 -0.726939
vn 0.676514 0.060789 -0.733917
vn 0.054769 0.235328 -0.970372
vn 0.078195 -0.071205 -0.994392
vn 0.776187 0.026789 -0.629933
vn 0.337209 -0.399192 -0.852605
vn 0.676514 0.060789 -0.733917
vn 0.078195 -0.071205 -0.994392
vn 0.776187 0.026789 -0.629933
vn 0.628699 -0.568052 -0.531089
vn 0.337209 -0.399192 -0.852605
vn 0.776187 0.026789 -0.629933
vn 0.889917 -0.421516 -0.174275
vn 0.628699 -0.568052 -0.531089
vn 0.776187 0.026789 -0.629933
vn 0.858886 0.053480 -0.509366
vn 0.889917 -0.421516 -0.174275
vn 0.986619 -0.107848 0.122276
vn 0.853523 0.131871 -0.504092
vn 0.967938 0.198152 0.154373
vn 0.858886 0.053480 -0.509366
vn 0.986619 -0.107848 0.122276
vn 0.768094 0.166757 -0.618243
vn 0.831129 0.549543 -0.085008
vn 0.853523 0.131871 -0.504092
vn 0.967938 0.198152 0.154373
vn 0.768094 0.166757 -0.618243
vn 0.547409 0.724411 -0.419013
vn 0.831129 0.549543 -0.085008
vn 0.768094 0.166757 -0.618243
vn 0.273662 0.572609 -0.772805
vn 0.547409 0.724411 -0.419013
vn -0.768094 -0.166757 0.618243
vn -0.672465 -0.139108 0.726939
vn -0.853523 -0.131871 0.504092
vn -0.676514 -0.060789 0.733916
vn -0.776187 -0.026790 0.629934
vn -0.858886 -0.053480 0.509367
vn 0.768094 0.166757 -0.618243
vn 0.853523 0.131871 -0.504092
vn 0.672465 0.139108 -0.726939
vn 0.676514 0.060789 -0.733917
vn 0.776187 0.026789 -0.629933
vn 0.858886 0.053480 -0.509366
vn 0.456520 0.070270 0.886934
vn -0.046327 0.488024 0.871600
vn 0.324476 0.039303 0.945077
vn -0.333356 0.153989 0.930140
vn 0.324476 -0.039303 0.945077
vn 0.324476 0.039303 0.945077
vn -0.333354 -0.153990 0.930141
vn -0.333356 0.153989 0.930140
vn 0.456520 -0.070271 0.886934
vn 0.324476 -0.039303 0.945077
vn -0.046324 -0.488022 0.871601
vn -0.333354 -0.153990 0.930141
vn 0.456520 -0.070271 0.886934
vn -0.046324 -0.488022 0.871601
vn 0.348054 -0.649309 0.676207
vn 0.456520 -0.070271 0.886934
vn 0.348054 -0.649309 0.676207
vn 0.736251 -0.488022 0.468795
vn 0.456520 -0.070271 0.886934
vn 0.736251 -0.488022 0.468795
vn 0.580572 -0.039303 0.813260
vn 0.950688 -0.153991 0.269221
vn 0.580571 0.039303 0.813260
vn 0.580572 -0.039303 0.813260
vn 0.950688 0.153989 0.269220
vn 0.950688 -0.153991 0.269221
vn 0.456520 0.070270 0.886934
vn 0.580571 0.039303 0.813260
vn 0.736250 0.488023 0.468796
vn 0.950688 0.153989 0.269220
vn 0.456520 0.070270 0.886934
vn 0.736250 0.488023 0.468796
vn 0.348053 0.649309 0.676208
vn 0.456520 0.070270 0.886934
vn 0.348053 0.649309 0.676208
vn -0.046327 0.488024 0.871600
vn -0.456521 0.070270 -0.886933
vn -0.580572 0.039303 -0.813260
vn -0.736251 0.488024 -0.468794
vn -0.950688 0.153989 -0.269220
vn -0.580572 0.039303 -0.813260
vn -0.580572 -0.039303 -0.813260
vn -0.950688 0.153989 -0.269220
vn -0.950687 -0.153991 -0.269222
vn -0.456521 -0.070271 -0.886933
vn -0.736251 -0.488022 -0.468796
vn -0.580572 -0.039303 -0.813260
vn -0.950687 -0.153991 -0.269222
vn -0.456521 -0.070271 -0.886933
vn -0.348055 -0.649310 -0.676205
vn -0.736251 -0.488022 -0.468796
vn -0.456521 -0.070271 -0.886933
vn 0.046324 -0.488022 -0.871601
vn -0.348055 -0.649310 -0.676205
vn -0.456521 -0.070271 -0.886933
vn -0.324476 -0.039303 -0.945077
vn 0.046324 -0.488022 -0.871601
vn 0.333353 -0.153990 -0.930141
vn -0.324476 -0.039303 -0.945077
vn -0.324476 0.039303 -0.945077
vn 0.333353 -0.153990 -0.930141
vn 0.333356 0.153989 -0.930140
vn -0.456521 0.070270 -0.886933
vn 0.046327 0.488024 -0.871600
vn -0.324476 0.039303 -0.945077
vn 0.333356 0.153989 -0.930140
vn -0.456521 0.070270 -0.886933
vn -0.348053 0.649311 -0.676206
vn 0.046327 0.488024 -0.871600
vn -0.456521 0.070270 -0.886933
vn -0.736251 0.488024 -0.468794
vn -0.348053 0.649311 -0.676206
vn 0.456520 -0.070271 0.886934
vn 0.580572 -0.039303 0.813260
vn 0.324476 -0.039303 0.945077
vn 0.324476 0.039303 0.945077
vn 0.456520 0.070270 0.886934
vn 0.580571 0.039303 0.813260
vn -0.456521 0.070270 -0.886933
vn -0.324476 0.039303 -0.945077
vn -0.580572 0.039303 -0.813260
vn -0.580572 -0.039303 -0.813260
vn -0.456521 -0.070271 -0.886933
vn -0.324476 -0.039303 -0.945077
vn -0.738556 0.070270 0.670520
vn -0.853891 0.488024 0.180840
vn -0.828894 0.039303 0.558024
vn -0.984726 0.153989 -0.081259
vn -0.828894 -0.039303 0.558023
vn -0.828894 0.039303 0.558024
vn -0.984725 -0.153991 -0.081257
vn -0.984726 0.153989 -0.081259
vn -0.738556 -0.070271 0.670520
vn -0.828894 -0.039303 0.558023
vn -0.853892 -0.488022 0.180840
vn -0.984725 -0.153991 -0.081257
vn -0.738556 -0.070271 0.670520
vn -0.853892 -0.488022 0.180840
vn -0.563082 -0.649311 0.511209
vn -0.738556 -0.070271 0.670520
vn -0.563082 -0.649311 0.511209
vn -0.262267 -0.488023 0.832496
vn -0.738556 -0.070271 0.670520
vn -0.262267 -0.488023 0.832496
vn -0.635286 -0.039303 0.771276
vn -0.013992 -0.153991 0.987973
vn -0.635286 0.039303 0.771276
vn -0.635286 -0.039303 0.771276
vn -0.013989 0.153989 0.987974
vn -0.013992 -0.153991 0.987973
vn -0.738556 0.070270 0.670520
vn -0.635286 0.039303 0.771276
vn -0.262264 0.488024 0.832496
vn -0.013989 0.153989 0.987974
vn -0.738556 0.070270 0.670520
vn -0.262264 0.488024 0.832496
vn -0.563079 0.649309 0.511214
vn -0.738556 0.070270 0.670520
vn -0.563079 0.649309 0.511214
vn -0.853891 0.488024 0.180840
vn 0.738556 0.070270 -0.670520
vn 0.635286 0.039303 -0.771276
vn 0.262264 0.488025 -0.832496
vn 0.013990 0.153989 -0.987974
vn 0.635286 0.039303 -0.771276
vn 0.635286 -0.039303 -0.771276
vn 0.013990 0.153989 -0.987974
vn 0.013992 -0.153991 -0.987973
vn 0.738556 -0.070271 -0.670520
vn 0.262267 -0.488023 -0.832496
vn 0.635286 -0.039303 -0.771276
vn 0.013992 -0.153991 -0.987973
vn 0.738556 -0.070271 -0.670520
vn 0.563082 -0.649311 -0.511208
vn 0.262267 -0.488023 -0.832496
vn 0.738556 -0.070271 -0.670520
vn 0.853892 -0.488022 -0.180841
vn 0.563082 -0.649311 -0.511208
vn 0.738556 -0.070271 -0.670520
vn 0.828894 -0.039303 -0.558024
vn 0.853892 -0.488022 -0.180841
vn 0.984725 -0.153991 0.081257
vn 0.828894 -0.039303 -0.558024
vn 0.828894 0.039303 -0.558024
vn 0.984725 -0.153991 0.081257
vn 0.984726 0.153989 0.081259
vn 0.738556 0.070270 -0.670520
vn 0.853891 0.488024 -0.180840
vn 0.828894 0.039303 -0.558024
vn 0.984726 0.153989 0.081259
vn 0.738556 0.070270 -0.670520
vn 0.563079 0.649308 -0.511215
vn 0.853891 0.488024 -0.180840
vn 0.738556 0.070270 -0.670520
vn 0.262264 0.488025 -0.832496
vn 0.563079 0.649308 -0.511215
vn -0.738556 -0.070271 0.670520
vn -0.635286 -0.039303 0.771276
vn -0.828894 -0.039303 0.558023
vn -0.828894 0.039303 0.558024
vn -0.738556 0.070270 0.670520
vn -0.635286 0.039303 0.771276
vn 0.738556 0.070270 -0.670520
vn 0.828894 0.039303 -0.558024
vn 0.635286 0.039303 -0.771276
vn 0.635286 -0.039303 -0.771276
vn 0.738556 -0.070271 -0.670520
vn 0.828894 -0.039303 -0.558024
vn 0.620831 0.172946 0.764629
vn 0.164839 0.642036 0.748744
vn 0.498783 0.169324 0.850027
vn -0.138533 0.355365 0.924405
vn 0.492485 0.092084 0.865436
vn 0.498783 0.169324 0.850027
vn -0.165035 0.052999 0.984863
vn -0.138533 0.355365 0.924405
vn 0.606784 0.036227 0.794041
vn 0.492485 0.092084 0.865436
vn 0.072911 -0.313274 0.946860
vn -0.165035 0.052999 0.984863
vn 0.606784 0.036227 0.794041
vn 0.072911 -0.313274 0.946860
vn 0.408020 -0.549410 0.729156
vn 0.606784 0.036227 0.794041
vn 0.408020 -0.549410 0.729156
vn 0.762915 -0.476343 0.437101
vn 0.606784 0.036227 0.794041
vn 0.762915 -0.476343 0.437101
vn 0.718975 0.038532 0.693967
vn 0.966658 -0.215159 0.138850
vn 0.723744 0.116326 0.680193
vn 0.718975 0.038532 0.693967
vn 0.994434 0.083069 0.064806
vn 0.966658 -0.215159 0.138850
vn 0.620831 0.172946 0.764629
vn 0.723744 0.116326 0.680193
vn 0.853049 0.473204 0.219968
vn 0.994434 0.083069 0.064806
vn 0.620831 0.172946 0.764629
vn 0.853049 0.473204 0.219968
vn 0.527878 0.717603 0.454302
vn 0.620831 0.172946 0.764629
vn 0.527878 0.717603 0.454302
vn 0.164839 0.642036 0.748744
vn -0.606784 -0.036227 -0.794041
vn -0.718974 -0.038532 -0.693968
vn -0.762916 0.476349 -0.437094
vn -0.966659 0.215158 -0.138844
vn -0.723744 -0.116326 -0.680193
vn -0.994434 -0.083071 -0.064808
vn -0.718974 -0.038532 -0.693968
vn -0.966659 0.215158 -0.138844
vn -0.620831 -0.172947 -0.764629
vn -0.853049 -0.473202 -0.219970
vn -0.723744 -0.116326 -0.680193
vn -0.994434 -0.083071 -0.064808
vn -0.620831 -0.172947 -0.764629
vn -0.527879 -0.717602 -0.454303
vn -0.853049 -0.473202 -0.219970
vn -0.620831 -0.172947 -0.764629
vn -0.164843 -0.642033 -0.748746
vn -0.527879 -0.717602 -0.454303
vn -0.620831 -0.172947 -0.764629
vn -0.498782 -0.169324 -0.850027
vn -0.164843 -0.642033 -0.748746
vn 0.138528 -0.355366 -0.924405
vn -0.498782 -0.169324 -0.850027
vn -0.492485 -0.092084 -0.865436
vn 0.138528 -0.355366 -0.924405
vn 0.165038 -0.053002 -0.984862
vn -0.606784 -0.036227 -0.794041
vn -0.072908 0.313278 -0.946859
vn -0.492485 -0.092084 -0.865436
vn 0.165038 -0.053002 -0.984862
vn -0.606784 -0.036227 -0.794041
vn -0.408020 0.549412 -0.729154
vn -0.072908 0.313278 -0.946859
vn -0.606784 -0.036227 -0.794041
vn -0.762916 0.476349 -0.437094
vn -0.408020 0.549412 -0.729154
vn 0.606784 0.036227 0.794041
vn 0.718975 0.038532 0.693967
vn 0.492485 0.092084 0.865436
vn 0.723744 0.116326 0.680193
vn 0.620831 0.172946 0.764629
vn 0.498783 0.169324 0.850027
vn -0.606784 -0.036227 -0.794041
vn -0.492485 -0.092084 -0.865436
vn -0.718974 -0.038532 -0.693968
vn -0.723744 -0.116326 -0.680193
vn -0.620831 -0.172947 -0.764629
vn -0.498782 -0.169324 -0.850027
vn -0.719552 0.101196 0.687026
vn -0.826191 0.526297 0.201046
vn -0.813796 0.074780 0.576319
vn -0.978410 0.197907 -0.059557
vn -0.813796 0.074780 0.576319
vn -0.978410 0.197907 -0.059557
vn -0.817384 -0.003763 0.576081
vn -0.992163 -0.109844 -0.059550
vn -0.726235 -0.039195 0.686328
vn -0.817384 -0.003763 0.576081
vn -0.871325 -0.448900 0.198193
vn -0.992163 -0.109844 -0.059550
vn -0.726235 -0.039195 0.686328
vn -0.871325 -0.448900 0.198193
vn -0.582351 -0.623570 0.521563
vn -0.726235 -0.039195 0.686328
vn -0.582351 -0.623570 0.521563
vn -0.268414 -0.477824 0.836444
vn -0.726235 -0.039195 0.686328
vn -0.268414 -0.477824 0.836444
vn -0.619053 -0.013086 0.785240
vn -0.000937 -0.157037 0.987592
vn -0.615993 0.065487 0.785025
vn -0.619053 -0.013086 0.785240
vn 0.016209 0.150494 0.988478
vn -0.000937 -0.157037 0.987592
vn -0.719552 0.101196 0.687026
vn -0.615993 0.065487 0.785025
vn -0.218830 0.497067 0.839665
vn 0.016209 0.150494 0.988478
vn -0.719552 0.101196 0.687026
vn -0.218830 0.497067 0.839665
vn -0.519641 0.673713 0.525438
vn -0.719552 0.101196 0.687026
vn -0.519641 0.673713 0.525438
vn -0.826191 0.526297 0.201046
vn 0.726235 0.039194 -0.686328
vn 0.619054 0.013086 -0.785240
vn 0.268412 0.477827 -0.836443
vn 0.000935 0.157036 -0.987593
vn 0.615993 -0.065487 -0.785025
vn -0.016206 -0.150495 -0.988478
vn 0.619054 0.013086 -0.785240
vn 0.000935 0.157036 -0.987593
vn 0.719552 -0.101197 -0.687026
vn 0.218833 -0.497064 -0.839666
vn 0.615993 -0.065487 -0.785025
vn -0.016206 -0.150495 -0.988478
vn 0.719552 -0.101197 -0.687026
vn 0.519641 -0.673711 -0.525440
vn 0.218833 -0.497064 -0.839666
vn 0.719552 -0.101197 -0.687026
vn 0.826193 -0.526295 -0.201047
vn 0.519641 -0.673711 -0.525440
vn 0.719552 -0.101197 -0.687026
vn 0.813796 -0.074780 -0.576319
vn 0.826193 -0.526295 -0.201047
vn 0.978410 -0.197908 0.059556
vn 0.813796 -0.074780 -0.576319
vn 0.817384 0.003763 -0.576081
vn 0.978410 -0.197908 0.059556
vn 0.992163 0.109843 0.059553
vn 0.726235 0.039194 -0.686328
vn 0.871324 0.448904 -0.198190
vn 0.817384 0.003763 -0.576081
vn 0.992163 0.109843 0.059553
vn 0.726235 0.039194 -0.686328
vn 0.582349 0.623572 -0.521562
vn 0.871324 0.448904 -0.198190
vn 0.726235 0.039194 -0.686328
vn 0.268412 0.477827 -0.836443
vn 0.582349 0.623572 -0.521562
vn -0.726235 -0.039195 0.686328
vn -0.619053 -0.013086 0.785240
vn -0.817384 -0.003763 0.576081
vn -0.615993 0.065487 0.785025
vn -0.719552 0.101196 0.687026
vn -0.813796 0.074780 0.576319
vn 0.726235 0.039194 -0.686328
vn 0.817384 0.003763 -0.576081
vn 0.619054 0.013086 -0.785240
vn 0.615993 -0.065487 -0.785025
vn 0.719552 -0.101197 -0.687026
vn 0.813796 -0.074780 -0.576319
vn 0.478803 0.047198 0.876652
vn -0.002276 0.486842 0.873487
vn 0.346250 0.021951 0.937886
vn -0.304051 0.166836 0.937933
vn 0.343239 -0.056622 0.937540
vn 0.346250 0.021951 0.937886
vn -0.320870 -0.140708 0.936613
vn -0.304051 0.166836 0.937933
vn 0.471912 -0.093176 0.876708
vn 0.343239 -0.056622 0.937540
vn -0.052055 -0.488027 0.871275
vn -0.320870 -0.140708 0.936613
vn 0.471912 -0.093176 0.876708
vn -0.052055 -0.488027 0.871275
vn 0.330667 -0.667203 0.667457
vn 0.471912 -0.093176 0.876708
vn 0.330667 -0.667203 0.667457
vn 0.722550 -0.522805 0.452324
vn 0.471912 -0.093176 0.876708
vn 0.722550 -0.522805 0.452324
vn 0.595886 -0.067698 0.800211
vn 0.948485 -0.197163 0.247998
vn 0.599386 0.010848 0.800387
vn 0.595886 -0.067698 0.800211
vn 0.962317 0.110575 0.248435
vn 0.948485 -0.197163 0.247998
vn 0.478803 0.047198 0.876652
vn 0.599386 0.010848 0.800387
vn 0.768473 0.452334 0.452596
vn 0.962317 0.110575 0.248435
vn 0.478803 0.047198 0.876652
vn 0.768473 0.452334 0.452596
vn 0.393958 0.630027 0.669226
vn 0.478803 0.047198 0.876652
vn 0.393958 0.630027 0.669226
vn -0.002276 0.486842 0.873487
vn -0.471912 0.093175 -0.876708
vn -0.595886 0.067698 -0.800211
vn -0.722550 0.522808 -0.452319
vn -0.948486 0.197162 -0.247996
vn -0.595886 0.067698 -0.800211
vn -0.599386 -0.010848 -0.800386
vn -0.948486 0.197162 -0.247996
vn -0.962316 -0.110576 -0.248438
vn -0.478804 -0.047198 -0.876652
vn -0.768473 -0.452332 -0.452598
vn -0.599386 -0.010848 -0.800386
vn -0.962316 -0.110576 -0.248438
vn -0.478804 -0.047198 -0.876652
vn -0.393960 -0.630024 -0.669227
vn -0.768473 -0.452332 -0.452598
vn -0.478804 -0.047198 -0.876652
vn 0.002273 -0.486838 -0.873489
vn -0.393960 -0.630024 -0.669227
vn -0.478804 -0.047198 -0.876652
vn -0.346249 -0.021951 -0.937886
vn 0.002273 -0.486838 -0.873489
vn 0.304048 -0.166838 -0.937934
vn -0.343240 0.056622 -0.937540
vn 0.320873 0.140706 -0.936612
vn -0.346249 -0.021951 -0.937886
vn 0.304048 -0.166838 -0.937934
vn -0.471912 0.093175 -0.876708
vn 0.052058 0.488030 -0.871273
vn -0.343240 0.056622 -0.937540
vn 0.320873 0.140706 -0.936612
vn -0.471912 0.093175 -0.876708
vn -0.330667 0.667208 -0.667453
vn 0.052058 0.488030 -0.871273
vn -0.471912 0.093175 -0.876708
vn -0.722550 0.522808 -0.452319
vn -0.330667 0.667208 -0.667453
vn 0.471912 -0.093176 0.876708
vn 0.595886 -0.067698 0.800211
vn 0.343239 -0.056622 0.937540
vn 0.599386 0.010848 0.800387
vn 0.478803 0.047198 0.876652
vn 0.346250 0.021951 0.937886
vn -0.471912 0.093175 -0.876708
vn -0.343240 0.056622 -0.937540
vn -0.595886 0.067698 -0.800211
vn -0.599386 -0.010848 -0.800386
vn -0.478804 -0.047198 -0.876652
vn -0.346249 -0.021951 -0.937886
vn -0.791096 0.065814 0.608141
vn -0.876908 0.470064 0.100365
vn -0.871256 0.030338 0.489891
vn -0.978363 0.127815 -0.162693
vn -0.871256 0.030338 0.489891
vn -0.978363 0.127815 -0.162693
vn -0.869551 -0.048243 0.491482
vn -0.971416 -0.180009 -0.154749
vn -0.787543 -0.074632 0.611724
vn -0.869551 -0.048243 0.491482
vn -0.853712 -0.505451 0.125280
vn -0.971416 -0.180009 -0.154749
vn -0.787543 -0.074632 0.611724
vn -0.853712 -0.505451 0.125280
vn -0.585562 -0.652507 0.480990
vn -0.787543 -0.074632 0.611724
vn -0.585562 -0.652507 0.480990
vn -0.314661 -0.476911 0.820697
vn -0.787543 -0.074632 0.611724
vn -0.314661 -0.476911 0.820697
vn -0.693620 -0.039117 0.719278
vn -0.088203 -0.133598 0.987103
vn -0.693620 -0.039117 0.719278
vn -0.088203 -0.133598 0.987103
vn -0.695210 0.039468 0.717722
vn -0.096843 0.174195 0.979938
vn -0.791096 0.065814 0.608141
vn -0.695210 0.039468 0.717722
vn -0.340458 0.498562 0.797198
vn -0.096843 0.174195 0.979938
vn -0.791096 0.065814 0.608141
vn -0.340458 0.498562 0.797198
vn -0.617950 0.645376 0.449030
vn -0.791096 0.065814 0.608141
vn -0.617950 0.645376 0.449030
vn -0.876908 0.470064 0.100365
vn 0.787543 0.074632 -0.611724
vn 0.693620 0.039117 -0.719278
vn 0.314658 0.476914 -0.820697
vn 0.088200 0.133597 -0.987103
vn 0.693620 0.039117 -0.719278
vn 0.695210 -0.039468 -0.717723
vn 0.088200 0.133597 -0.987103
vn 0.096846 -0.174197 -0.979937
vn 0.791096 -0.065814 -0.608141
vn 0.340461 -0.498557 -0.797199
vn 0.695210 -0.039468 -0.717723
vn 0.096846 -0.174197 -0.979937
vn 0.791096 -0.065814 -0.608141
vn 0.617951 -0.645375 -0.449029
vn 0.340461 -0.498557 -0.797199
vn 0.791096 -0.065814 -0.608141
vn 0.876909 -0.470061 -0.100369
vn 0.617951 -0.645375 -0.449029
vn 0.791096 -0.065814 -0.608141
vn 0.871256 -0.030338 -0.489891
vn 0.876909 -0.470061 -0.100369
vn 0.978363 -0.127817 0.162690
vn 0.871256 -0.030338 -0.489891
vn 0.869550 0.048243 -0.491482
vn 0.978363 -0.127817 0.162690
vn 0.971416 0.180007 0.154753
vn 0.787543 0.074632 -0.611724
vn 0.853710 0.505455 -0.125276
vn 0.869550 0.048243 -0.491482
vn 0.971416 0.180007 0.154753
vn 0.787543 0.074632 -0.611724
vn 0.585562 0.652509 -0.480988
vn 0.853710 0.505455 -0.125276
vn 0.787543 0.074632 -0.611724
vn 0.314658 0.476914 -0.820697
vn 0.585562 0.652509 -0.480988
vn -0.787543 -0.074632 0.611724
vn -0.693620 -0.039117 0.719278
vn -0.869551 -0.048243 0.491482
vn -0.871256 0.030338 0.489891
vn -0.791096 0.065814 0.608141
vn -0.695210 0.039468 0.717722
vn 0.787543 0.074632 -0.611724
vn 0.869550 0.048243 -0.491482
vn 0.693620 0.039117 -0.719278
vn 0.871256 -0.030338 -0.489891
vn 0.791096 -0.065814 -0.608141
vn 0.695210 -0.039468 -0.717723
vn 0.462051 0.097274 0.881502
vn -0.064367 0.489242 0.869770
vn 0.333012 0.060129 0.941003
vn -0.331728 0.140359 0.932875
vn 0.333012 0.060129 0.941003
vn -0.331728 0.140359 0.932875
vn 0.336383 -0.018435 0.941545
vn -0.312786 -0.167064 0.935016
vn 0.469786 -0.043057 0.881730
vn 0.336383 -0.018435 0.941545
vn -0.008423 -0.485314 0.874300
vn -0.312786 -0.167064 0.935016
vn 0.469786 -0.043057 0.881730
vn -0.008423 -0.485314 0.874300
vn 0.390623 -0.626510 0.674461
vn 0.469786 -0.043057 0.881730
vn 0.390623 -0.626510 0.674461
vn 0.766228 -0.447164 0.461452
vn 0.469786 -0.043057 0.881730
vn 0.766228 -0.447164 0.461452
vn 0.590940 -0.006149 0.806692
vn 0.960221 -0.104839 0.258815
vn 0.586991 0.072380 0.806351
vn 0.590940 -0.006149 0.806692
vn 0.944720 0.202837 0.257607
vn 0.960221 -0.104839 0.258815
vn 0.462051 0.097274 0.881502
vn 0.586991 0.072380 0.806351
vn 0.714689 0.527745 0.459026
vn 0.944720 0.202837 0.257607
vn 0.462051 0.097274 0.881502
vn 0.714689 0.527745 0.459026
vn 0.319543 0.670355 0.669714
vn 0.462051 0.097274 0.881502
vn 0.319543 0.670355 0.669714
vn -0.064367 0.489242 0.869770
vn -0.469786 0.043056 -0.881730
vn -0.590940 0.006150 -0.806692
vn -0.766228 0.447167 -0.461449
vn -0.960221 0.104838 -0.258813
vn -0.590940 0.006150 -0.806692
vn -0.586992 -0.072380 -0.806351
vn -0.960221 0.104838 -0.258813
vn -0.944719 -0.202839 -0.257610
vn -0.462051 -0.097275 -0.881502
vn -0.714689 -0.527742 -0.459030
vn -0.586992 -0.072380 -0.806351
vn -0.944719 -0.202839 -0.257610
vn -0.462051 -0.097275 -0.881502
vn -0.319543 -0.670352 -0.669716
vn -0.714689 -0.527742 -0.459030
vn -0.462051 -0.097275 -0.881502
vn 0.064365 -0.489239 -0.869772
vn -0.319543 -0.670352 -0.669716
vn -0.462051 -0.097275 -0.881502
vn -0.333012 -0.060128 -0.941004
vn 0.064365 -0.489239 -0.869772
vn 0.331726 -0.140361 -0.932876
vn -0.333012 -0.060128 -0.941004
vn -0.336383 0.018435 -0.941545
vn 0.331726 -0.140361 -0.932876
vn 0.312789 0.167062 -0.935015
vn -0.469786 0.043056 -0.881730
vn 0.008426 0.485317 -0.874298
vn -0.336383 0.018435 -0.941545
vn 0.312789 0.167062 -0.935015
vn -0.469786 0.043056 -0.881730
vn -0.390623 0.626513 -0.674459
vn 0.008426 0.485317 -0.874298
vn -0.469786 0.043056 -0.881730
vn -0.766228 0.447167 -0.461449
vn -0.390623 0.626513 -0.674459
vn 0.469786 -0.043057 0.881730
vn 0.590940 -0.006149 0.806692
vn 0.336383 -0.018435 0.941545
vn 0.333012 0.060129 0.941003
vn 0.462051 0.097274 0.881502
vn 0.586991 0.072380 0.806351
vn -0.469786 0.043056 -0.881730
vn -0.336383 0.018435 -0.941545
vn -0.590940 0.006150 -0.806692
vn -0.333012 -0.060128 -0.941004
vn -0.462051 -0.097275 -0.881502
vn -0.586992 -0.072380 -0.806351
vn -0.854871 -0.005506 0.518811
vn -0.907479 0.419191 0.027592
vn -0.919900 -0.038799 0.390230
vn -0.960850 0.089783 -0.262120
vn -0.913723 -0.117231 0.389060
vn -0.919900 -0.038799 0.390230
vn -0.937096 -0.217315 -0.273177
vn -0.960850 0.089783 -0.262120
vn -0.844185 -0.145699 0.515872
vn -0.913723 -0.117231 0.389060
vn -0.832333 -0.554274 0.001402
vn -0.937096 -0.217315 -0.273177
vn -0.844185 -0.145699 0.515872
vn -0.832333 -0.554274 0.001402
vn -0.595391 -0.708546 0.378778
vn -0.844185 -0.145699 0.515872
vn -0.595391 -0.708546 0.378778
vn -0.372869 -0.536750 0.756881
vn -0.844185 -0.145699 0.515872
vn -0.372869 -0.536750 0.756881
vn -0.764669 -0.111710 0.634667
vn -0.185581 -0.189012 0.964279
vn -0.764669 -0.111710 0.634667
vn -0.185581 -0.189012 0.964279
vn -0.769937 -0.033235 0.637254
vn -0.214024 0.117768 0.969703
vn -0.854871 -0.005506 0.518811
vn -0.769937 -0.033235 0.637254
vn -0.453717 0.436272 0.777051
vn -0.214024 0.117768 0.969703
vn -0.854871 -0.005506 0.518811
vn -0.453717 0.436272 0.777051
vn -0.698852 0.586336 0.409653
vn -0.854871 -0.005506 0.518811
vn -0.698852 0.586336 0.409653
vn -0.907479 0.419191 0.027592
vn 0.844185 0.145699 -0.515872
vn 0.764669 0.111710 -0.634667
vn 0.372865 0.536752 -0.756881
vn 0.185578 0.189011 -0.964280
vn 0.764669 0.111710 -0.634667
vn 0.769937 0.033235 -0.637254
vn 0.185578 0.189011 -0.964280
vn 0.214027 -0.117769 -0.969702
vn 0.854871 0.005505 -0.518811
vn 0.453721 -0.436268 -0.777050
vn 0.769937 0.033235 -0.637254
vn 0.214027 -0.117769 -0.969702
vn 0.854871 0.005505 -0.518811
vn 0.698854 -0.586334 -0.409653
vn 0.453721 -0.436268 -0.777050
vn 0.854871 0.005505 -0.518811
vn 0.907480 -0.419187 -0.027595
vn 0.698854 -0.586334 -0.409653
vn 0.854871 0.005505 -0.518811
vn 0.919900 0.038799 -0.390229
vn 0.907480 -0.419187 -0.027595
vn 0.960851 -0.089784 0.262117
vn 0.913722 0.117231 -0.389061
vn 0.937095 0.217314 0.273180
vn 0.919900 0.038799 -0.390229
vn 0.960851 -0.089784 0.262117
vn 0.844185 0.145699 -0.515872
vn 0.832331 0.554277 -0.001398
vn 0.913722 0.117231 -0.389061
vn 0.937095 0.217314 0.273180
vn 0.844185 0.145699 -0.515872
vn 0.595389 0.708547 -0.378778
vn 0.832331 0.554277 -0.001398
vn 0.844185 0.145699 -0.515872
vn 0.372865 0.536752 -0.756881
vn 0.595389 0.708547 -0.378778
vn -0.844185 -0.145699 0.515872
vn -0.764669 -0.111710 0.634667
vn -0.913723 -0.117231 0.389060
vn -0.919900 -0.038799 0.390230
vn -0.854871 -0.005506 0.518811
vn -0.769937 -0.033235 0.637254
vn 0.844185 0.145699 -0.515872
vn 0.913722 0.117231 -0.389061
vn 0.764669 0.111710 -0.634667
vn 0.919900 0.038799 -0.390229
vn 0.854871 0.005505 -0.518811
vn 0.769937 0.033235 -0.637254
vn 0.126847 -0.056060 0.990337
vn 0.111276 -0.014106 0.993689
vn -0.494174 -0.207747 0.844176
vn -0.602703 -0.060077 0.795701
vn 0.286156 -0.078085 0.954996
vn 0.126847 -0.056060 0.990337
vn -0.168510 -0.522518 0.835810
vn -0.494174 -0.207747 0.844176
vn 0.286156 -0.078085 0.954996
vn -0.168510 -0.522518 0.835810
vn 0.266721 -0.647983 0.713427
vn 0.286156 -0.078085 0.954996
vn 0.266721 -0.647983 0.713427
vn 0.672295 -0.451930 0.586326
vn 0.286156 -0.078085 0.954996
vn 0.672295 -0.451930 0.586326
vn 0.432343 -0.030996 0.901176
vn 0.895292 -0.091921 0.435893
vn 0.432343 -0.030996 0.901176
vn 0.895292 -0.091921 0.435893
vn 0.444142 0.013228 0.895859
vn 0.935777 0.066118 0.346339
vn -0.426640 -0.053844 -0.902817
vn -0.871174 -0.206276 -0.445540
vn -0.441503 -0.011894 -0.897181
vn -0.936447 -0.058742 -0.345856
vn -0.273379 -0.075854 -0.958911
vn -0.592487 -0.520768 -0.614622
vn -0.426640 -0.053844 -0.902817
vn -0.871174 -0.206276 -0.445540
vn -0.273379 -0.075854 -0.958911
vn -0.160024 -0.646181 -0.746219
vn -0.592487 -0.520768 -0.614622
vn -0.273379 -0.075854 -0.958911
vn 0.250229 -0.450207 -0.857146
vn -0.160024 -0.646181 -0.746219
vn -0.273379 -0.075854 -0.958911
vn -0.121178 -0.028778 -0.992213
vn 0.250229 -0.450207 -0.857146
vn 0.519412 -0.090466 -0.849722
vn -0.121178 -0.028778 -0.992213
vn -0.108383 0.015435 -0.993989
vn 0.519412 -0.090466 -0.849722
vn 0.601925 0.067456 -0.795698
vn 0.444142 0.013228 0.895859
vn 0.111276 -0.014106 0.993689
vn 0.432343 -0.030996 0.901176
vn 0.286156 -0.078085 0.954996
vn 0.126847 -0.056060 0.990337
vn -0.108383 0.015435 -0.993989
vn -0.121178 -0.028778 -0.992213
vn -0.441503 -0.011894 -0.897181
vn -0.273379 -0.075854 -0.958911
vn -0.426640 -0.053844 -0.902817
s 1
g SM_Chandelier_02c
f 13/33/1 12/34/2 23/93/3
f 23/93/3 12/34/2 22/92/4
s 2
f 14/41/5 13/33/6 24/94/7
f 24/94/7 13/33/6 23/93/8
s 3
f 15/49/9 14/41/10 25/95/11
f 25/95/11 14/41/10 24/94/12
s 4
f 16/96/13 15/49/14 26/97/15
f 26/97/15 15/49/14 25/95/16
s 5
f 17/65/17 16/57/18 27/99/19
f 27/99/19 16/57/18 26/98/20
s 6
f 18/59/21 17/65/22 28/100/23
f 28/100/23 17/65/22 27/99/24
s 7
f 19/51/25 18/59/26 29/101/27
f 29/101/27 18/59/26 28/100/28
s 8
f 20/43/29 19/51/30 30/102/31
f 30/102/31 19/51/30 29/101/32
s 9
f 21/37/33 20/43/34 31/103/35
f 31/103/35 20/43/34 30/102/36
s 10
f 12/34/37 21/37/38 22/92/39
f 22/92/39 21/37/38 31/103/40
s 11
f 23/36/41 22/35/42 33/105/43
f 33/105/43 22/35/42 32/104/44
s 12
f 24/42/45 23/36/46 34/106/47
f 34/106/47 23/36/46 33/105/48
s 13
f 25/50/49 24/42/50 35/107/51
f 35/107/51 24/42/50 34/106/52
s 14
f 26/108/53 25/50/54 36/109/55
f 36/109/55 25/50/54 35/107/56
s 15
f 27/66/57 26/58/58 37/111/59
f 37/111/59 26/58/58 36/110/60
s 16
f 28/60/61 27/66/62 38/112/63
f 38/112/63 27/66/62 37/111/64
s 17
f 29/52/65 28/60/66 39/113/67
f 39/113/67 28/60/66 38/112/68
s 18
f 30/44/69 29/52/70 40/114/71
f 40/114/71 29/52/70 39/113/72
s 19
f 31/38/73 30/44/74 41/115/75
f 41/115/75 30/44/74 40/114/76
s 20
f 22/35/77 31/38/78 32/104/79
f 32/104/79 31/38/78 41/115/80
s 21
f 43/15/81 42/9/82 53/16/83
f 53/16/83 42/9/82 52/12/84
s 22
f 44/84/85 43/15/86 54/85/87
f 54/85/87 43/15/86 53/16/88
s 23
f 45/5/89 44/84/90 55/6/91
f 55/6/91 44/84/90 54/85/92
s 24
f 46/116/93 45/5/94 56/117/95
f 56/117/95 45/5/94 55/6/96
s 25
f 47/1/97 46/2/98 57/4/99
f 57/4/99 46/2/98 56/3/100
s 26
f 48/7/101 47/1/102 58/8/103
f 58/8/103 47/1/102 57/4/104
s 27
f 49/86/105 48/7/106 59/87/107
f 59/87/107 48/7/106 58/8/108
s 28
f 50/13/109 49/86/110 60/14/111
f 60/14/111 49/86/110 59/87/112
s 29
f 51/10/113 50/13/114 61/11/115
f 61/11/115 50/13/114 60/14/116
s 30
f 42/9/117 51/10/118 52/12/119
f 52/12/119 51/10/118 61/11/120
s 31
f 2/31/121 1/25/122 13/32/123
f 13/32/123 1/25/122 12/28/124
s 32
f 3/88/125 2/31/126 14/89/127
f 14/89/127 2/31/126 13/32/128
s 33
f 4/21/129 3/88/130 15/22/131
f 15/22/131 3/88/130 14/89/132
s 34
f 5/118/133 4/21/134 16/119/135
f 16/119/135 4/21/134 15/22/136
s 35
f 6/17/137 5/18/138 17/20/139
f 17/20/139 5/18/138 16/19/140
s 36
f 7/23/141 6/17/142 18/24/143
f 18/24/143 6/17/142 17/20/144
s 37
f 8/90/145 7/23/146 19/91/147
f 19/91/147 7/23/146 18/24/148
s 38
f 9/29/149 8/90/150 20/30/151
f 20/30/151 8/90/150 19/91/152
s 39
f 10/26/153 9/29/154 21/27/155
f 21/27/155 9/29/154 20/30/156
s 40
f 1/25/157 10/26/158 12/28/159
f 12/28/159 10/26/158 21/27/160
s off
f 52/73/161 11/74/162 53/75/163
f 53/75/164 11/74/165 54/77/166
f 54/77/167 11/74/168 55/79/169
f 55/79/170 11/74/171 56/81/172
f 56/81/173 11/74/174 57/83/175
f 57/83/176 11/74/177 58/82/178
f 58/82/179 11/74/180 59/80/181
f 59/80/182 11/74/183 60/78/184
f 60/78/185 11/74/186 61/76/187
f 61/76/188 11/74/189 52/73/190
s 41
f 33/40/191 32/39/192 43/47/193
f 43/47/193 32/39/192 42/46/194
s 42
f 34/48/195 33/40/196 44/55/197
f 44/55/197 33/40/196 43/47/198
s 43
f 35/56/199 34/48/200 45/63/201
f 45/63/201 34/48/200 44/55/202
s 44
f 36/120/203 35/56/204 46/121/205
f 46/121/205 35/56/204 45/63/206
s 45
f 37/70/207 36/64/208 47/72/209
f 47/72/209 36/64/208 46/69/210
s 46
f 38/67/211 37/70/212 48/71/213
f 48/71/213 37/70/212 47/72/214
s 47
f 39/61/215 38/67/216 49/68/217
f 49/68/217 38/67/216 48/71/218
s 48
f 40/53/219 39/61/220 50/62/221
f 50/62/221 39/61/220 49/68/222
s 49
f 41/45/223 40/53/224 51/54/225
f 51/54/225 40/53/224 50/62/226
s 50
f 32/39/227 41/45/228 42/46/229
f 42/46/229 41/45/228 51/54/230
s 51
f 72/123/231 62/124/232 73/122/233
f 73/122/233 62/124/232 63/125/234
s 52
f 74/126/235 73/122/236 64/127/237
f 64/127/237 73/122/236 63/125/238
s 53
f 75/128/239 74/126/240 65/129/241
f 65/129/241 74/126/240 64/127/242
s off
f 75/128/243 65/129/244 66/130/245
f 75/128/246 66/130/247 67/131/248
s 54
f 75/128/249 67/131/250 76/132/251
f 76/132/251 67/131/250 68/133/252
s 55
f 77/134/253 76/132/254 69/135/255
f 69/135/255 76/132/254 68/133/256
s 56
f 72/123/257 77/134/258 70/136/259
f 70/136/259 77/134/258 69/135/260
s off
f 72/123/261 70/136/262 71/137/263
f 72/123/264 71/137/265 62/124/266
s 57
f 78/138/267 79/139/268 62/141/269
f 62/141/269 79/139/268 63/140/270
s 58
f 79/139/271 80/142/272 63/140/273
f 63/140/273 80/142/272 64/143/274
s 59
f 81/144/275 65/145/276 80/142/277
f 80/142/277 65/145/276 64/143/278
s off
f 81/144/279 66/146/280 65/145/281
f 81/144/282 67/147/283 66/146/284
s 60
f 81/144/285 82/148/286 67/147/287
f 67/147/287 82/148/286 68/149/288
s 61
f 82/148/289 83/150/290 68/149/291
f 68/149/291 83/150/290 69/151/292
s 62
f 78/138/293 70/152/294 83/150/295
f 83/150/295 70/152/294 69/151/296
s off
f 78/138/297 71/153/298 70/152/299
f 78/138/300 62/141/301 71/153/302
s 63
f 75/128/303 76/132/304 74/126/305
f 74/126/305 76/132/304 73/122/306
f 73/122/306 76/132/304 72/123/307
f 76/132/304 77/134/308 72/123/307
s 64
f 78/138/309 83/150/310 79/139/311
f 79/139/311 83/150/310 80/142/312
f 80/142/312 83/150/310 81/144/313
f 83/150/310 82/148/314 81/144/313
s 65
f 91/155/315 84/156/316 92/154/317
f 92/154/317 84/156/316 85/157/318
s 66
f 92/154/319 85/157/320 93/158/321
f 93/158/321 85/157/320 86/159/322
s 67
f 95/160/323 94/161/324 88/163/325
f 88/163/325 94/161/324 87/162/326
s 68
f 91/155/327 95/160/328 89/164/329
f 89/164/329 95/160/328 88/163/330
s off
f 91/155/331 89/164/332 90/165/333
f 91/155/334 90/165/335 84/156/336
s 69
f 96/166/337 97/167/338 84/169/339
f 84/169/339 97/167/338 85/168/340
s 70
f 97/167/341 98/170/342 85/168/343
f 85/168/343 98/170/342 86/171/344
s 71
f 100/173/345 88/174/346 99/172/347
f 99/172/347 88/174/346 87/175/348
s 72
f 96/166/349 89/176/350 100/173/351
f 100/173/351 89/176/350 88/174/352
s off
f 96/166/353 90/177/354 89/176/355
f 96/166/356 84/169/357 90/177/358
s 73
f 93/158/359 94/161/360 92/154/361
f 92/154/361 94/161/360 91/155/362
f 94/161/360 95/160/363 91/155/362
s 74
f 99/172/364 98/170/365 100/173/366
f 100/173/366 98/170/365 96/166/367
f 97/167/368 96/166/367 98/170/365
s 75
f 111/179/369 101/180/370 112/178/371
f 112/178/371 101/180/370 102/181/372
s 76
f 113/182/373 112/178/374 103/183/375
f 103/183/375 112/178/374 102/181/376
s 77
f 114/184/377 113/182/378 104/185/379
f 104/185/379 113/182/378 103/183/380
s off
f 114/184/381 104/185/382 105/186/383
f 114/184/384 105/186/385 106/187/386
s 78
f 114/184/387 106/187/388 115/188/389
f 115/188/389 106/187/388 107/189/390
s 79
f 115/188/391 107/189/392 116/190/393
f 116/190/393 107/189/392 108/191/394
s 80
f 111/179/395 116/190/396 109/192/397
f 109/192/397 116/190/396 108/191/398
s off
f 111/179/399 109/192/400 110/193/401
f 111/179/402 110/193/403 101/180/404
s 81
f 117/194/405 118/195/406 101/197/407
f 101/197/407 118/195/406 102/196/408
s 82
f 118/195/409 119/198/410 102/196/411
f 102/196/411 119/198/410 103/199/412
s 83
f 120/200/413 104/201/414 119/198/415
f 119/198/415 104/201/414 103/199/416
s off
f 120/200/417 105/202/418 104/201/419
f 120/200/420 106/203/421 105/202/422
s 84
f 120/200/423 121/204/424 106/203/425
f 106/203/425 121/204/424 107/205/426
s 85
f 122/206/427 108/207/428 121/204/429
f 121/204/429 108/207/428 107/205/430
s 86
f 117/194/431 109/208/432 122/206/433
f 122/206/433 109/208/432 108/207/434
s off
f 117/194/435 110/209/436 109/208/437
f 117/194/438 101/197/439 110/209/440
s 87
f 114/184/441 115/188/442 113/182/443
f 115/188/442 116/190/444 113/182/443
f 116/190/444 111/179/445 113/182/443
f 112/178/446 113/182/443 111/179/445
s 88
f 117/194/447 122/206/448 118/195/449
f 118/195/449 122/206/448 119/198/450
f 119/198/450 122/206/448 120/200/451
f 122/206/448 121/204/452 120/200/451
s 89
f 133/211/453 123/212/454 134/210/455
f 134/210/455 123/212/454 124/213/456
s 90
f 135/214/457 134/210/458 125/215/459
f 125/215/459 134/210/458 124/213/460
s 91
f 136/216/461 135/214/462 126/217/463
f 126/217/463 135/214/462 125/215/464
s off
f 136/216/465 126/217/466 127/218/467
f 136/216/468 127/218/469 128/219/470
s 92
f 136/216/471 128/219/472 137/220/473
f 137/220/473 128/219/472 129/221/474
s 93
f 138/222/475 137/220/476 130/223/477
f 130/223/477 137/220/476 129/221/478
s 94
f 133/211/479 138/222/480 131/224/481
f 131/224/481 138/222/480 130/223/482
s off
f 133/211/483 131/224/484 132/225/485
f 133/211/486 132/225/487 123/212/488
s 95
f 139/226/489 140/227/490 123/229/491
f 123/229/491 140/227/490 124/228/492
s 96
f 140/227/493 141/230/494 124/228/495
f 124/228/495 141/230/494 125/231/496
s 97
f 142/232/497 126/233/498 141/230/499
f 141/230/499 126/233/498 125/231/500
s off
f 142/232/501 127/234/502 126/233/503
f 142/232/504 128/235/505 127/234/506
s 98
f 142/232/507 143/236/508 128/235/509
f 128/235/509 143/236/508 129/237/510
s 99
f 143/236/511 144/238/512 129/237/513
f 129/237/513 144/238/512 130/239/514
s 100
f 139/226/515 131/240/516 144/238/517
f 144/238/517 131/240/516 130/239/518
s off
f 139/226/519 132/241/520 131/240/521
f 139/226/522 123/229/523 132/241/524
s 101
f 136/216/525 137/220/526 135/214/527
f 135/214/527 137/220/526 134/210/528
f 134/210/528 137/220/526 133/211/529
f 137/220/526 138/222/530 133/211/529
s 102
f 139/226/531 144/238/532 140/227/533
f 140/227/533 144/238/532 141/230/534
f 141/230/534 144/238/532 142/232/535
f 144/238/532 143/236/536 142/232/535
s 103
f 155/243/537 145/244/538 156/242/539
f 156/242/539 145/244/538 146/245/540
s 104
f 157/246/541 156/242/542 147/247/543
f 147/247/543 156/242/542 146/245/544
s 105
f 158/248/545 157/246/546 148/249/547
f 148/249/547 157/246/546 147/247/548
s off
f 158/248/549 148/249/550 149/250/551
f 158/248/552 149/250/553 150/251/554
s 106
f 158/248/555 150/251/556 159/252/557
f 159/252/557 150/251/556 151/253/558
s 107
f 160/254/559 159/252/560 152/255/561
f 152/255/561 159/252/560 151/253/562
s 108
f 155/243/563 160/254/564 153/256/565
f 153/256/565 160/254/564 152/255/566
s off
f 155/243/567 153/256/568 154/257/569
f 155/243/570 154/257/571 145/244/572
s 109
f 161/258/573 162/259/574 145/261/575
f 145/261/575 162/259/574 146/260/576
s 110
f 162/259/577 163/262/578 146/260/579
f 146/260/579 163/262/578 147/263/580
s 111
f 164/264/581 148/265/582 163/262/583
f 163/262/583 148/265/582 147/263/584
s off
f 164/264/585 149/266/586 148/265/587
f 164/264/588 150/267/589 149/266/590
s 112
f 164/264/591 165/268/592 150/267/593
f 150/267/593 165/268/592 151/269/594
s 113
f 165/268/595 166/270/596 151/269/597
f 151/269/597 166/270/596 152/271/598
s 114
f 161/258/599 153/272/600 166/270/601
f 166/270/601 153/272/600 152/271/602
s off
f 161/258/603 154/273/604 153/272/605
f 161/258/606 145/261/607 154/273/608
s 115
f 158/248/609 159/252/610 157/246/611
f 157/246/611 159/252/610 156/242/612
f 156/242/612 159/252/610 155/243/613
f 159/252/610 160/254/614 155/243/613
s 116
f 161/258/615 166/270/616 162/259/617
f 162/259/617 166/270/616 163/262/618
f 163/262/618 166/270/616 164/264/619
f 166/270/616 165/268/620 164/264/619
s 117
f 177/275/621 167/276/622 178/274/623
f 178/274/623 167/276/622 168/277/624
s 118
f 179/278/625 178/274/626 169/279/627
f 169/279/627 178/274/626 168/277/628
s 119
f 180/280/629 179/278/630 170/281/631
f 170/281/631 179/278/630 169/279/632
s off
f 180/280/633 170/281/634 171/282/635
f 180/280/636 171/282/637 172/283/638
s 120
f 180/280/639 172/283/640 181/284/641
f 181/284/641 172/283/640 173/285/642
s 121
f 182/286/643 181/284/644 174/287/645
f 174/287/645 181/284/644 173/285/646
s 122
f 177/275/647 182/286/648 175/288/649
f 175/288/649 182/286/648 174/287/650
s off
f 177/275/651 175/288/652 176/289/653
f 177/275/654 176/289/655 167/276/656
s 123
f 183/290/657 184/291/658 167/293/659
f 167/293/659 184/291/658 168/292/660
s 124
f 185/294/661 169/295/662 184/291/663
f 184/291/663 169/295/662 168/292/664
s 125
f 186/296/665 170/297/666 185/294/667
f 185/294/667 170/297/666 169/295/668
s off
f 186/296/669 171/298/670 170/297/671
f 186/296/672 172/299/673 171/298/674
s 126
f 186/296/675 187/300/676 172/299/677
f 172/299/677 187/300/676 173/301/678
s 127
f 187/300/679 188/302/680 173/301/681
f 173/301/681 188/302/680 174/303/682
s 128
f 183/290/683 175/304/684 188/302/685
f 188/302/685 175/304/684 174/303/686
s off
f 183/290/687 176/305/688 175/304/689
f 183/290/690 167/293/691 176/305/692
s 129
f 180/280/693 181/284/694 179/278/695
f 181/284/694 182/286/696 179/278/695
f 182/286/696 177/275/697 179/278/695
f 178/274/698 179/278/695 177/275/697
s 130
f 183/290/699 188/302/700 184/291/701
f 184/291/701 188/302/700 185/294/702
f 185/294/702 188/302/700 186/296/703
f 188/302/700 187/300/704 186/296/703
s 131
f 199/307/705 189/308/706 200/306/707
f 200/306/707 189/308/706 190/309/708
s 132
f 200/306/709 190/309/710 201/310/711
f 201/310/711 190/309/710 191/311/712
s 133
f 202/312/713 201/310/714 192/313/715
f 192/313/715 201/310/714 191/311/716
s off
f 202/312/717 192/313/718 193/314/719
f 202/312/720 193/314/721 194/315/722
s 134
f 202/312/723 194/315/724 203/316/725
f 203/316/725 194/315/724 195/317/726
s 135
f 204/318/727 203/316/728 196/319/729
f 196/319/729 203/316/728 195/317/730
s 136
f 199/307/731 204/318/732 197/320/733
f 197/320/733 204/318/732 196/319/734
s off
f 199/307/735 197/320/736 198/321/737
f 199/307/738 198/321/739 189/308/740
s 137
f 205/322/741 206/323/742 189/325/743
f 189/325/743 206/323/742 190/324/744
s 138
f 207/326/745 191/327/746 206/323/747
f 206/323/747 191/327/746 190/324/748
s 139
f 208/328/749 192/329/750 207/326/751
f 207/326/751 192/329/750 191/327/752
s off
f 208/328/753 193/330/754 192/329/755
f 208/328/756 194/331/757 193/330/758
s 140
f 208/328/759 209/332/760 194/331/761
f 194/331/761 209/332/760 195/333/762
s 141
f 209/332/763 210/334/764 195/333/765
f 195/333/765 210/334/764 196/335/766
s 142
f 205/322/767 197/336/768 210/334/769
f 210/334/769 197/336/768 196/335/770
s off
f 205/322/771 198/337/772 197/336/773
f 205/322/774 189/325/775 198/337/776
s 143
f 202/312/777 203/316/778 201/310/779
f 203/316/778 204/318/780 201/310/779
f 204/318/780 199/307/781 201/310/779
f 200/306/782 201/310/779 199/307/781
s 144
f 205/322/783 210/334/784 206/323/785
f 206/323/785 210/334/784 207/326/786
f 207/326/786 210/334/784 208/328/787
f 210/334/784 209/332/788 208/328/787
s 145
f 221/339/789 211/340/790 222/338/791
f 222/338/791 211/340/790 212/341/792
s 146
f 223/342/793 222/338/794 213/343/795
f 213/343/795 222/338/794 212/341/796
s 147
f 224/344/797 223/342/798 214/345/799
f 214/345/799 223/342/798 213/343/800
s off
f 224/344/801 214/345/802 215/346/803
f 224/344/804 215/346/805 216/347/806
s 148
f 224/344/807 216/347/808 225/348/809
f 225/348/809 216/347/808 217/349/810
s 149
f 226/350/811 225/348/812 218/351/813
f 218/351/813 225/348/812 217/349/814
s 150
f 221/339/815 226/350/816 219/352/817
f 219/352/817 226/350/816 218/351/818
s off
f 221/339/819 219/352/820 220/353/821
f 221/339/822 220/353/823 211/340/824
s 151
f 227/354/825 228/355/826 211/357/827
f 211/357/827 228/355/826 212/356/828
s 152
f 228/355/829 229/358/830 212/356/831
f 212/356/831 229/358/830 213/359/832
s 153
f 230/360/833 214/361/834 229/358/835
f 229/358/835 214/361/834 213/359/836
s off
f 230/360/837 215/362/838 214/361/839
f 230/360/840 216/363/841 215/362/842
s 154
f 230/360/843 231/364/844 216/363/845
f 216/363/845 231/364/844 217/365/846
s 155
f 232/366/847 218/367/848 231/364/849
f 231/364/849 218/367/848 217/365/850
s 156
f 227/354/851 219/368/852 232/366/853
f 232/366/853 219/368/852 218/367/854
s off
f 227/354/855 220/369/856 219/368/857
f 227/354/858 211/357/859 220/369/860
s 157
f 224/344/861 225/348/862 223/342/863
f 225/348/862 226/350/864 223/342/863
f 226/350/864 221/339/865 223/342/863
f 222/338/866 223/342/863 221/339/865
s 158
f 227/354/867 232/366/868 228/355/869
f 228/355/869 232/366/868 229/358/870
f 229/358/870 232/366/868 230/360/871
f 232/366/868 231/364/872 230/360/871
s 159
f 243/371/873 233/372/874 244/370/875
f 244/370/875 233/372/874 234/373/876
s 160
f 244/370/877 234/373/878 245/374/879
f 245/374/879 234/373/878 235/375/880
s 161
f 246/376/881 245/374/882 236/377/883
f 236/377/883 245/374/882 235/375/884
s off
f 246/376/885 236/377/886 237/378/887
f 246/376/888 237/378/889 238/379/890
s 162
f 246/376/891 238/379/892 247/380/893
f 247/380/893 238/379/892 239/381/894
s 163
f 247/380/895 239/381/896 248/382/897
f 248/382/897 239/381/896 240/383/898
s 164
f 243/371/899 248/382/900 241/384/901
f 241/384/901 248/382/900 240/383/902
s off
f 243/371/903 241/384/904 242/385/905
f 243/371/906 242/385/907 233/372/908
s 165
f 249/386/909 250/387/910 233/389/911
f 233/389/911 250/387/910 234/388/912
s 166
f 250/387/913 251/390/914 234/388/915
f 234/388/915 251/390/914 235/391/916
s 167
f 252/392/917 236/393/918 251/390/919
f 251/390/919 236/393/918 235/391/920
s off
f 252/392/921 237/394/922 236/393/923
f 252/392/924 238/395/925 237/394/926
s 168
f 252/392/927 253/396/928 238/395/929
f 238/395/929 253/396/928 239/397/930
s 169
f 253/396/931 254/398/932 239/397/933
f 239/397/933 254/398/932 240/399/934
s 170
f 249/386/935 241/400/936 254/398/937
f 254/398/937 241/400/936 240/399/938
s off
f 249/386/939 242/401/940 241/400/941
f 249/386/942 233/389/943 242/401/944
s 171
f 246/376/945 247/380/946 245/374/947
f 245/374/947 247/380/946 244/370/948
f 244/370/948 247/380/946 243/371/949
f 247/380/946 248/382/950 243/371/949
s 172
f 249/386/951 254/398/952 250/387/953
f 254/398/952 253/396/954 250/387/953
f 253/396/954 252/392/955 250/387/953
f 250/387/953 252/392/955 251/390/956
s 173
f 265/403/957 255/404/958 266/402/959
f 266/402/959 255/404/958 256/405/960
s 174
f 266/402/961 256/405/962 267/406/963
f 267/406/963 256/405/962 257/407/964
s 175
f 268/408/965 267/406/966 258/409/967
f 258/409/967 267/406/966 257/407/968
s off
f 268/408/969 258/409/970 259/410/971
f 268/408/972 259/410/973 260/411/974
s 176
f 268/408/975 260/411/976 269/412/977
f 269/412/977 260/411/976 261/413/978
s 177
f 270/414/979 269/412/980 262/415/981
f 262/415/981 269/412/980 261/413/982
s 178
f 265/403/983 270/414/984 263/416/985
f 263/416/985 270/414/984 262/415/986
s off
f 265/403/987 263/416/988 264/417/989
f 265/403/990 264/417/991 255/404/992
s 179
f 271/418/993 272/419/994 255/421/995
f 255/421/995 272/419/994 256/420/996
s 180
f 272/419/997 273/422/998 256/420/999
f 256/420/999 273/422/998 257/423/1000
s 181
f 274/424/1001 258/425/1002 273/422/1003
f 273/422/1003 258/425/1002 257/423/1004
s off
f 274/424/1005 259/426/1006 258/425/1007
f 274/424/1008 260/427/1009 259/426/1010
s 182
f 274/424/1011 275/428/1012 260/427/1013
f 260/427/1013 275/428/1012 261/429/1014
s 183
f 275/428/1015 276/430/1016 261/429/1017
f 261/429/1017 276/430/1016 262/431/1018
s 184
f 271/418/1019 263/432/1020 276/430/1021
f 276/430/1021 263/432/1020 262/431/1022
s off
f 271/418/1023 264/433/1024 263/432/1025
f 271/418/1026 255/421/1027 264/433/1028
s 185
f 268/408/1029 269/412/1030 267/406/1031
f 267/406/1031 269/412/1030 266/402/1032
f 266/402/1032 269/412/1030 265/403/1033
f 269/412/1030 270/414/1034 265/403/1033
s 186
f 271/418/1035 276/430/1036 272/419/1037
f 276/430/1036 275/428/1038 272/419/1037
f 275/428/1038 274/424/1039 272/419/1037
f 272/419/1037 274/424/1039 273/422/1040
s 187
f 287/435/1041 277/436/1042 288/434/1043
f 288/434/1043 277/436/1042 278/437/1044
s 188
f 289/438/1045 288/434/1046 279/439/1047
f 279/439/1047 288/434/1046 278/437/1048
s 189
f 290/440/1049 289/438/1050 280/441/1051
f 280/441/1051 289/438/1050 279/439/1052
s off
f 290/440/1053 280/441/1054 281/442/1055
f 290/440/1056 281/442/1057 282/443/1058
s 190
f 290/440/1059 282/443/1060 291/444/1061
f 291/444/1061 282/443/1060 283/445/1062
s 191
f 291/444/1063 283/445/1064 292/446/1065
f 292/446/1065 283/445/1064 284/447/1066
s 192
f 287/435/1067 292/446/1068 285/448/1069
f 285/448/1069 292/446/1068 284/447/1070
s off
f 287/435/1071 285/448/1072 286/449/1073
f 287/435/1074 286/449/1075 277/436/1076
s 193
f 293/450/1077 294/451/1078 277/453/1079
f 277/453/1079 294/451/1078 278/452/1080
s 194
f 294/451/1081 295/454/1082 278/452/1083
f 278/452/1083 295/454/1082 279/455/1084
s 195
f 296/456/1085 280/457/1086 295/454/1087
f 295/454/1087 280/457/1086 279/455/1088
s off
f 296/456/1089 281/458/1090 280/457/1091
f 296/456/1092 282/459/1093 281/458/1094
s 196
f 296/456/1095 297/460/1096 282/459/1097
f 282/459/1097 297/460/1096 283/461/1098
s 197
f 298/462/1099 284/463/1100 297/460/1101
f 297/460/1101 284/463/1100 283/461/1102
s 198
f 293/450/1103 285/464/1104 298/462/1105
f 298/462/1105 285/464/1104 284/463/1106
s off
f 293/450/1107 286/465/1108 285/464/1109
f 293/450/1110 277/453/1111 286/465/1112
s 199
f 290/440/1113 291/444/1114 289/438/1115
f 289/438/1115 291/444/1114 288/434/1116
f 288/434/1116 291/444/1114 287/435/1117
f 291/444/1114 292/446/1118 287/435/1117
s 200
f 293/450/1119 298/462/1120 294/451/1121
f 298/462/1120 297/460/1122 294/451/1121
f 297/460/1122 296/456/1123 294/451/1121
f 294/451/1121 296/456/1123 295/454/1124
s 201
f 307/466/1125 306/467/1126 300/469/1127
f 300/469/1127 306/467/1126 299/468/1128
s 202
f 308/470/1129 307/466/1130 301/471/1131
f 301/471/1131 307/466/1130 300/469/1132
s off
f 308/470/1133 301/471/1134 302/472/1135
f 308/470/1136 302/472/1137 303/473/1138
s 203
f 308/470/1139 303/473/1140 309/474/1141
f 309/474/1141 303/473/1140 304/475/1142
s 204
f 309/474/1143 304/475/1144 310/476/1145
f 310/476/1145 304/475/1144 305/477/1146
s 205
f 312/479/1147 300/480/1148 311/478/1149
f 311/478/1149 300/480/1148 299/481/1150
s 206
f 313/482/1151 301/483/1152 312/479/1153
f 312/479/1153 301/483/1152 300/480/1154
s off
f 313/482/1155 302/484/1156 301/483/1157
f 313/482/1158 303/485/1159 302/484/1160
s 207
f 313/482/1161 314/486/1162 303/485/1163
f 303/485/1163 314/486/1162 304/487/1164
s 208
f 314/486/1165 315/488/1166 304/487/1167
f 304/487/1167 315/488/1166 305/489/1168
s 209
f 310/476/1169 306/467/1170 309/474/1171
f 309/474/1171 306/467/1170 308/470/1172
f 306/467/1170 307/466/1173 308/470/1172
s 210
f 315/488/1174 314/486/1175 311/478/1176
f 314/486/1175 313/482/1177 311/478/1176
f 311/478/1176 313/482/1177 312/479/1178
