# This file uses feet as units for non-parametric coordinates.

g default
v 25.513844 49.690105 -18.282675
v -25.466679 49.690105 -18.282675
v 26.894375 49.690105 34.894875
v -26.840168 49.690105 34.894875
v -10.812399 42.546329 34.894875
v 10.866667 42.546329 34.894875
v -9.438940 42.546329 -18.282675
v 9.486076 42.546329 -18.282675
v 25.884808 42.546329 -3.472053
v 26.465359 42.546329 20.084255
v -25.980782 42.546329 -3.472053
v -26.675247 42.546329 20.084255
v 23.001617 42.546329 -2.483035
v 8.415810 42.546329 -15.618452
v 22.630714 42.546329 -15.618452
v -8.368673 42.546329 -15.618452
v -23.097591 42.546329 -2.483035
v -22.583519 42.546329 -15.618452
v 24.011246 42.546329 32.230652
v 9.796341 42.546329 32.230652
v 23.582199 42.546329 19.095238
v -23.792053 42.546329 19.095238
v -9.742132 42.546329 32.230652
v -23.957035 42.546329 32.230652
v 25.513844 38.533752 -18.282675
v 12.106024 38.533752 -18.282675
v 22.630714 38.533752 -15.618452
v 11.035727 38.533752 -15.618452
v 25.884808 38.533752 -4.621925
v 23.001617 38.533752 -3.632917
v -25.980782 38.533752 -4.621925
v -25.466679 38.533752 -18.282675
v -22.583519 38.533752 -15.618452
v -23.097591 38.533752 -3.632917
v -10.971977 38.533752 -18.282675
v -9.901680 38.533752 -15.618452
v 26.894375 38.533752 34.894875
v 13.486555 38.533752 34.894875
v 12.416288 38.533752 32.230652
v 24.011246 38.533752 32.230652
v 26.465359 38.533752 21.951416
v 23.582199 38.533752 20.962400
v -12.345436 38.533752 34.894875
v -26.840168 38.533752 34.894875
v -23.957035 38.533752 32.230652
v -11.275167 38.533752 32.230652
v -26.675247 38.533752 21.951416
v -23.792053 38.533752 20.962400
v 21.400486 42.546329 -14.270655
v -21.260189 42.546329 -14.270655
v 22.781075 42.546329 30.418833
v -22.633705 42.546329 30.418833
v 21.424728 49.690105 -14.293020
v -21.284435 49.690105 -14.293020
v 22.805260 49.690105 30.441196
v -22.657890 49.690105 30.441196
v 22.796631 47.149544 30.433247
v -22.649292 47.149544 30.433247
v -21.275833 47.149544 -14.285067
v 21.416100 47.149544 -14.285067
v 21.409641 45.236183 -14.279074
v -21.269348 45.236183 -14.279074
v -22.642807 45.236183 30.427254
v 22.790173 45.236183 30.427254
v 26.464745 0.000000 33.629757
v 22.851460 0.000000 33.629757
v 27.566887 38.891117 29.941132
v 21.749348 38.891117 29.941132
v 27.566887 38.891117 35.306553
v 21.749348 38.891117 35.306553
v 26.464745 0.000000 36.962212
v 22.851460 0.000000 36.962212
v 27.566887 49.738213 29.941132
v 21.749348 49.738213 29.941132
v 21.749348 49.738213 35.306553
v 27.566887 49.738213 35.306553
v -25.835411 49.662022 34.953518
v -26.972507 49.662022 33.903709
v -26.972507 51.748146 34.115219
v -26.065285 51.748146 34.953518
v 23.754543 49.662022 -14.401712
v 25.682110 49.662022 -12.339533
v 25.682110 51.748146 -12.551039
v 23.984417 51.748146 -14.401712
v 27.034409 49.662022 33.903709
v 25.897251 49.662022 34.953518
v 26.127125 51.748146 34.953518
v 27.034409 51.748146 34.115219
v -26.428406 49.662022 -12.036547
v -24.385963 49.662022 -14.401712
v -24.615837 51.748146 -14.401712
v -26.428406 51.748146 -12.248055
v -23.662823 52.731728 -13.767321
v -25.740902 52.731728 -11.369379
v 24.994576 52.731728 -11.672365
v 23.031349 52.731728 -13.767321
v 26.346901 52.731728 33.236546
v 25.174141 52.731728 34.319122
v -26.285061 52.731728 33.236546
v -25.112240 52.731728 34.319122
v -21.467258 54.387535 -9.018082
v -14.181341 55.542568 -2.294886
v 21.522202 54.387535 -9.018082
v 14.828754 55.542568 -2.294886
v 22.874500 54.387535 31.114925
v 15.588610 55.542568 24.391737
v -22.812656 54.387535 31.114925
v -15.526739 55.542568 24.391737
v -23.139709 49.662022 31.568947
v -22.297909 49.662022 -9.472097
v 21.393322 49.662022 -9.472097
v 22.745651 49.662022 31.568947
v -25.702217 52.731728 33.774521
v -26.521683 51.748146 34.531807
v -26.407421 49.662022 34.425404
v 26.494007 49.662022 34.402641
v 26.603218 51.748146 34.513626
v 25.789536 52.731728 33.751053
v 24.433189 52.731728 -12.934757
v 25.270969 51.748146 -13.675140
v 25.140831 49.662022 -13.583370
v -25.088936 52.731728 -12.894474
v -25.905823 51.748146 -13.654137
v -25.793789 49.662022 -13.545673
v -27.202644 50.133324 34.143002
v -26.658516 50.133324 -12.261976
v -26.033466 50.133324 -13.762373
v -24.635620 50.133324 -14.623087
v 24.004169 50.133324 -14.623087
v 25.382030 50.133324 -13.798653
v 25.912251 50.133324 -12.564960
v 27.264545 50.133324 34.143002
v 26.733391 50.133324 34.633415
v 26.146935 50.133324 35.174889
v -26.085037 50.133324 35.174889
v -26.647243 50.133324 34.655785
v -14.873192 62.391888 -17.537344
v -16.743378 61.372486 -14.862577
v -15.463343 60.044395 -14.646040
v 19.602177 114.932114 -31.718983
v 21.747234 116.700508 -29.973843
v 20.498161 118.895378 -30.589462
v 14.932831 62.398293 -17.539141
v 15.502995 60.044395 -14.646040
v 16.817986 61.259663 -14.862577
v -19.253082 114.908775 -31.765541
v -20.601624 118.895378 -30.589462
v -21.692551 116.700508 -29.973843
v -19.794777 118.565224 -29.433067
v -21.110443 116.145386 -28.754349
v 21.165184 116.145386 -28.754349
v 19.691315 118.565224 -29.433067
v 16.198750 61.879669 -14.097008
v 15.439129 60.882694 -13.817375
v -16.144012 61.879669 -14.097008
v -15.384390 60.882694 -13.817375
v -18.170635 114.619240 -26.535454
v -12.002211 108.726051 -23.633274
v 18.225372 114.619240 -26.535454
v 12.056919 108.726051 -23.633274
v 13.949648 64.261215 -12.974163
v 9.230494 70.751114 -13.545244
v -13.894938 64.261215 -12.974163
v -9.175814 70.751114 -13.545244
v 16.817986 61.025513 -16.332336
v 21.747234 116.201248 -31.369240
v 20.365761 118.528671 -32.022053
v -20.469223 118.528671 -32.022053
v -21.692551 116.201248 -31.369240
v -16.743378 61.138336 -16.332336
v -15.362053 59.677700 -16.078619
v 15.401676 59.677700 -16.078619
v -15.766533 61.384228 -13.958050
v -16.297249 60.432762 -14.754969
v -16.246944 60.132744 -16.206266
v 16.316593 60.152355 -16.211763
v 16.364758 60.449501 -14.759668
v 15.837708 61.405838 -13.964123
v 20.990578 117.728233 -28.912643
v 21.699860 118.156029 -30.096420
v 21.624928 117.731789 -31.672676
v -21.031139 117.649544 -28.890575
v -21.722725 118.095062 -30.079338
v -21.658154 117.660393 -31.826374
v 17.201424 60.906677 -16.310852
v 17.201424 60.796768 -16.754892
v 22.020046 117.847961 -31.728714
v 20.561295 118.774986 -32.105480
v 21.984856 117.648811 -32.147732
v 20.499100 118.602837 -32.532082
v -20.662174 118.780716 -32.106728
v -20.600037 118.608566 -32.533310
v -22.052479 117.777679 -31.881584
v -22.103077 116.237015 -31.386810
v -22.022190 117.573624 -32.299232
v -22.103077 116.002640 -31.795963
v -17.126812 61.019508 -16.310852
v -17.126812 60.909592 -16.754902
v -16.595303 59.923035 -16.169695
v -15.536249 59.388691 -16.008703
v -16.571705 59.782204 -16.605072
v -15.488672 59.216545 -16.435301
v 15.528296 59.216545 -16.435301
v 15.575844 59.388699 -16.008703
v 16.664982 59.942654 -16.175192
v 16.642384 59.803158 -16.610945
v 22.156116 116.241615 -31.388893
v 22.156116 116.007240 -31.798038
v -17.122616 89.363106 -25.398258
v -19.682480 89.203857 -25.033283
v -19.682480 89.377686 -24.607162
v -19.285103 89.417114 -24.608570
v -19.285103 89.787422 -23.177006
v -18.694691 89.749039 -22.178322
v -16.090797 90.123695 -20.492571
v -10.627344 90.253983 -19.279884
v 10.682053 90.253983 -19.279892
v 16.145538 90.123695 -20.492571
v 18.749371 89.749039 -22.178322
v 19.349529 89.732552 -23.177006
v 19.349529 89.362244 -24.608570
v 19.746025 89.325165 -24.608223
v 19.745968 89.151337 -25.034351
v 17.330856 89.378197 -25.375229
v 23.189400 49.748055 -17.703714
v -23.189400 49.748055 -17.703714
v 29.643082 113.246010 -34.598583
v -29.643082 113.246010 -34.598583
v 29.643082 113.246010 -32.138878
v -29.643082 113.246010 -32.138878
v 23.189400 49.748055 -15.244009
v -23.189400 49.748055 -15.244009
v -22.901150 113.246010 -34.598583
v -22.901150 113.246010 -32.138878
v 22.911217 113.246002 -34.598583
v 22.911217 113.246002 -32.138878
v 17.521900 58.475430 -20.017963
v -17.941906 58.475430 -20.017963
v -17.941906 58.475430 -17.558239
v 17.521900 58.475430 -17.558239
v -23.478062 119.413773 -32.813854
v -17.922329 58.557205 -16.785284
v 17.513889 58.557205 -16.785284
v 23.423382 119.413773 -32.813854
v -17.922329 58.557205 -20.933622
v -23.478062 119.413773 -36.962212
v 23.423382 119.413773 -36.962212
v 17.513889 58.557205 -20.933622
v -22.993191 0.000000 33.629757
v -26.606476 0.000000 33.629757
v -21.891079 38.891117 29.941132
v -27.708591 38.891117 29.941132
v -21.891079 38.891117 35.306553
v -27.708591 38.891117 35.306553
v -22.993191 0.000000 36.962212
v -26.606476 0.000000 36.962212
v -21.891079 49.738213 29.941132
v -27.708591 49.738213 29.941132
v -27.708591 49.738213 35.306553
v -21.891079 49.738213 35.306553
v -23.640636 -0.000000 -22.773346
v -27.253922 -0.000000 -22.773346
v -20.357662 38.879826 -18.893459
v -26.175201 38.879826 -18.893459
v -20.357662 38.879826 -13.528042
v -26.175201 38.879826 -13.528042
v -23.640636 -0.000000 -19.440897
v -27.253922 -0.000000 -19.440897
v -20.357662 49.726913 -18.893459
v -26.175201 49.726913 -18.893459
v -26.175201 49.726913 -13.528042
v -20.357662 49.726913 -13.528042
v -23.194508 80.146042 -27.114594
v -29.012135 78.441429 -26.636486
v -23.194508 81.472649 -21.932005
v -29.012135 79.768044 -21.453888
v 26.492214 38.879826 -18.893459
v 20.674675 38.879826 -18.893459
v 23.957649 -0.000000 -22.773346
v 27.570908 -0.000000 -22.773346
v 23.511524 81.472649 -21.932005
v 23.511524 80.146042 -27.114594
v 29.329121 78.441429 -26.636486
v 29.329121 79.768044 -21.453888
v 20.674675 38.879826 -13.528042
v 26.492214 38.879826 -13.528042
v 27.570908 -0.000000 -19.440897
v 23.957649 -0.000000 -19.440897
v 20.674675 49.726913 -18.893459
v 26.492214 49.726913 -18.893459
v 26.492214 49.726913 -13.528042
v 20.674675 49.726913 -13.528042
vt 0.484625 0.428668
vt 0.484625 0.492426
vt 0.470914 0.478716
vt 0.470914 0.423579
vt 0.409236 0.480480
vt 0.414325 0.494190
vt 0.931264 0.924169
vt 0.933710 0.862491
vt 0.947420 0.867581
vt 0.944975 0.937879
vt 0.876050 0.937879
vt 0.870960 0.924169
vt 0.646666 0.586955
vt 0.591529 0.586955
vt 0.577819 0.573245
vt 0.641576 0.573245
vt 0.593569 0.644942
vt 0.579859 0.639853
vt 0.954916 0.948209
vt 0.954916 0.887902
vt 0.968626 0.892992
vt 0.968626 0.961919
vt 0.896928 0.947424
vt 0.902018 0.961135
vt 0.431630 0.573626
vt 0.436720 0.559915
vt 0.529631 0.559915
vt 0.534720 0.573626
vt 0.196695 0.538115
vt 0.191989 0.551962
vt 0.080896 0.551749
vt 0.075427 0.538185
vt 0.506575 0.626555
vt 0.511665 0.640266
vt 0.421670 0.640266
vt 0.426759 0.626556
vt 0.664577 0.244441
vt 0.677863 0.238328
vt 0.689797 0.358994
vt 0.675740 0.354958
vt 0.348559 0.948172
vt 0.272341 0.986655
vt 0.272342 0.926557
vt 0.336101 0.926557
vt 0.433931 0.394961
vt 0.489067 0.394961
vt 0.489068 0.416576
vt 0.421472 0.416576
vt 0.937380 0.598182
vt 0.937380 0.574382
vt 0.952476 0.574382
vt 0.952476 0.598182
vt 0.938895 0.535913
vt 0.924508 0.535913
vt 0.924508 0.513233
vt 0.938895 0.513233
vt 0.135469 0.726940
vt 0.157088 0.726940
vt 0.157088 0.788628
vt 0.135469 0.794547
vt 0.077780 0.687733
vt 0.056160 0.693652
vt 0.017669 0.617418
vt 0.077780 0.617418
vt 0.063168 0.721552
vt 0.084790 0.727471
vt 0.084790 0.789172
vt 0.063167 0.789172
vt 0.904878 0.536700
vt 0.904878 0.514020
vt 0.919264 0.514020
vt 0.919264 0.536700
vt 0.514773 0.986655
vt 0.438555 0.948172
vt 0.445845 0.926557
vt 0.514773 0.926557
vt 0.877936 0.536903
vt 0.863435 0.536903
vt 0.863435 0.514043
vt 0.877936 0.514043
vt 0.482142 0.366606
vt 0.489432 0.388221
vt 0.421837 0.388221
vt 0.421837 0.366606
vt 0.263771 0.991749
vt 0.187553 0.953266
vt 0.200012 0.931651
vt 0.263771 0.931651
vt 0.813094 0.536638
vt 0.798001 0.536638
vt 0.798001 0.512841
vt 0.813094 0.512841
vt 0.155091 0.928215
vt 0.167550 0.949830
vt 0.099954 0.949830
vt 0.099954 0.928215
vt 0.129936 0.698049
vt 0.091448 0.621819
vt 0.151555 0.621819
vt 0.151555 0.688439
vt 0.262542 0.587422
vt 0.330156 0.587422
vt 0.320545 0.609043
vt 0.262542 0.609043
vt 0.834550 0.513048
vt 0.834550 0.536283
vt 0.819812 0.536283
vt 0.819812 0.513048
vt 0.084461 0.953266
vt 0.008244 0.991749
vt 0.008244 0.931651
vt 0.077171 0.931651
vt 0.385793 0.467950
vt 0.385793 0.446335
vt 0.453388 0.446335
vt 0.446098 0.467950
vt 0.899747 0.513381
vt 0.899747 0.536241
vt 0.885247 0.536241
vt 0.885247 0.513381
vt 0.077780 0.891138
vt 0.017669 0.891138
vt 0.056159 0.814903
vt 0.077780 0.824514
vt 0.856361 0.511920
vt 0.856361 0.535153
vt 0.841624 0.535153
vt 0.841624 0.511920
vt 0.307399 0.574144
vt 0.297790 0.552529
vt 0.365388 0.552528
vt 0.365388 0.574144
vt 0.359163 0.626556
vt 0.365013 0.619620
vt 0.652391 0.184531
vt 0.657699 0.177173
vt 0.252868 0.559009
vt 0.259627 0.552526
vt 0.567879 0.619620
vt 0.574171 0.626556
vt 0.591377 0.550592
vt 0.597227 0.559915
vt 0.676355 0.413351
vt 0.682894 0.422205
vt 0.375416 0.550592
vt 0.369124 0.559915
vt 0.022799 0.558876
vt 0.013304 0.552845
vt 0.295138 0.580688
vt 0.079174 0.580688
vt 0.079131 0.566197
vt 0.295181 0.566198
vt 0.563121 0.615515
vt 0.333092 0.615514
vt 0.333049 0.601022
vt 0.563164 0.601022
vt 0.895542 0.398239
vt 0.692591 0.398239
vt 0.692635 0.383749
vt 0.895499 0.383749
vt 0.334951 0.579210
vt 0.565059 0.579210
vt 0.565016 0.593703
vt 0.334994 0.593703
vt 0.129936 0.819292
vt 0.091448 0.895522
vt 0.247708 0.502942
vt 0.503235 0.502942
vt 0.483789 0.525861
vt 0.267596 0.525862
vt 0.772638 0.954355
vt 0.795557 0.973801
vt 0.521897 0.967235
vt 0.542429 0.947790
vt 0.237829 0.586330
vt 0.257274 0.606862
vt 0.014844 0.606862
vt 0.034732 0.586330
vt 0.805335 0.941993
vt 0.531689 0.934989
vt 0.555563 0.916258
vt 0.785812 0.921114
vt 0.151555 0.895522
vt 0.151555 0.825210
vt 0.203396 0.532103
vt 0.406412 0.532104
vt 0.406453 0.545789
vt 0.203355 0.545789
vt 0.981604 0.326784
vt 0.981604 0.557039
vt 0.967916 0.556998
vt 0.967916 0.326826
vt 0.692532 0.363625
vt 0.908642 0.363625
vt 0.908683 0.377311
vt 0.692491 0.377311
vt 0.962898 0.833277
vt 0.962898 0.603022
vt 0.976586 0.603063
vt 0.976586 0.833236
vt 0.767274 0.200193
vt 0.761858 0.010382
vt 0.940106 0.010382
vt 0.934717 0.200193
vt 0.852122 0.296127
vt 0.775267 0.296127
vt 0.772794 0.209008
vt 0.854607 0.209008
vt 0.690569 0.433478
vt 0.690569 0.416269
vt 0.900391 0.411020
vt 0.900391 0.438727
vt 0.375472 0.396398
vt 0.375472 0.368735
vt 0.403082 0.368735
vt 0.403082 0.396398
vt 0.748885 0.468484
vt 0.748885 0.440811
vt 0.958452 0.446054
vt 0.958452 0.463241
vt 0.286211 0.496613
vt 0.286211 0.479431
vt 0.303361 0.479431
vt 0.303361 0.496613
vt 0.508852 0.530794
vt 0.508852 0.513642
vt 0.718376 0.522164
vt 0.718376 0.549778
vt 0.694238 0.507044
vt 0.694238 0.489893
vt 0.903764 0.470908
vt 0.903764 0.498523
vt 0.958912 0.411020
vt 0.958912 0.438727
vt 0.776814 0.522164
vt 0.776814 0.549778
vt 0.690434 0.468484
vt 0.690434 0.440811
vt 0.962203 0.470908
vt 0.962203 0.498523
vt 0.658585 0.872209
vt 0.905728 0.871990
vt 0.907832 0.880398
vt 0.656572 0.880758
vt 0.658420 0.908807
vt 0.671833 0.889585
vt 0.891875 0.889914
vt 0.904719 0.908678
vt 0.930879 0.842893
vt 0.934223 0.627205
vt 0.955713 0.613112
vt 0.951114 0.856102
vt 0.629678 0.614464
vt 0.629678 0.837221
vt 0.611897 0.852521
vt 0.611897 0.601378
vt 0.898601 0.559257
vt 0.887229 0.585195
vt 0.675126 0.585937
vt 0.664899 0.560074
vt 0.907467 0.905831
vt 0.614672 0.598600
vt 0.905346 0.563532
vt 0.953389 0.606464
vt 0.948373 0.858600
vt 0.614791 0.855418
vt 0.658080 0.564595
vt 0.650302 0.907280
vt 0.648247 0.594188
vt 0.644352 0.598007
vt 0.642256 0.595914
vt 0.648682 0.591640
vt 0.918428 0.591701
vt 0.918866 0.594232
vt 0.922916 0.598295
vt 0.925202 0.596346
vt 0.926061 0.602001
vt 0.928689 0.602532
vt 0.925669 0.864869
vt 0.922651 0.865593
vt 0.918346 0.874709
vt 0.916743 0.873395
vt 0.907050 0.883381
vt 0.657374 0.883761
vt 0.645662 0.874889
vt 0.647258 0.873568
vt 0.640192 0.863435
vt 0.637142 0.862593
vt 0.641047 0.601926
vt 0.638398 0.602398
vt 0.915304 0.601368
vt 0.651793 0.601387
vt 0.908985 0.606982
vt 0.658106 0.607006
vt 0.858961 0.661808
vt 0.855764 0.804121
vt 0.714306 0.803995
vt 0.708124 0.661798
vt 0.650573 0.603543
vt 0.656938 0.609588
vt 0.672030 0.625086
vt 0.654260 0.611361
vt 0.648537 0.605198
vt 0.916552 0.603603
vt 0.910186 0.609596
vt 0.918531 0.605156
vt 0.910378 0.867543
vt 0.913986 0.863254
vt 0.907891 0.857305
vt 0.912778 0.611269
vt 0.904691 0.862045
vt 0.895047 0.625060
vt 0.649060 0.861438
vt 0.664372 0.866080
vt 0.899834 0.865948
vt 0.655356 0.855573
vt 0.653973 0.867054
vt 0.659238 0.861509
vt 0.677517 0.840632
vt 0.889493 0.840840
vt 0.209025 0.665352
vt 0.208236 0.885446
vt 0.201262 0.886949
vt 0.202202 0.664099
vt 0.382680 0.721890
vt 0.382561 0.827960
vt 0.273586 0.835397
vt 0.273758 0.714627
vt 0.382623 0.885443
vt 0.383074 0.889148
vt 0.219434 0.903057
vt 0.218917 0.899337
vt 0.200066 0.888120
vt 0.208151 0.895260
vt 0.206243 0.898112
vt 0.196275 0.888236
vt 0.200913 0.662903
vt 0.197191 0.662829
vt 0.218851 0.650591
vt 0.208254 0.654897
vt 0.206310 0.652102
vt 0.219324 0.646864
vt 0.382930 0.660602
vt 0.382504 0.664319
vt 0.565066 0.687626
vt 0.561094 0.682507
vt 0.563428 0.680093
vt 0.568715 0.687158
vt 0.568707 0.862486
vt 0.565063 0.862013
vt 0.560834 0.867302
vt 0.563109 0.869764
vt 0.555289 0.678812
vt 0.555666 0.675106
vt 0.555465 0.870774
vt 0.555844 0.874463
vt 0.396247 0.910146
vt 0.396830 0.897876
vt 0.541970 0.886545
vt 0.550079 0.898593
vt 0.208865 0.893602
vt 0.187320 0.674892
vt 0.166792 0.667892
vt 0.172127 0.662786
vt 0.187451 0.873960
vt 0.166760 0.880804
vt 0.219279 0.652584
vt 0.209023 0.656518
vt 0.547818 0.668865
vt 0.556501 0.656783
vt 0.565469 0.658838
vt 0.382336 0.666285
vt 0.563579 0.688993
vt 0.560061 0.684292
vt 0.580312 0.853430
vt 0.598065 0.859291
vt 0.594903 0.862058
vt 0.563577 0.860644
vt 0.580277 0.702025
vt 0.598065 0.696190
vt 0.559886 0.865514
vt 0.594786 0.693341
vt 0.554491 0.680750
vt 0.241032 0.638907
vt 0.227612 0.627312
vt 0.231279 0.625807
vt 0.554647 0.868842
vt 0.243591 0.909840
vt 0.233831 0.922344
vt 0.230431 0.920875
vt 0.219353 0.897339
vt 0.559144 0.896249
vt 0.172548 0.886390
vt 0.382449 0.883477
vt 0.398303 0.641716
vt 0.398589 0.654293
vt 0.557021 0.691854
vt 0.555160 0.689648
vt 0.551848 0.694716
vt 0.549999 0.694431
vt 0.535322 0.705847
vt 0.549279 0.692903
vt 0.552573 0.688039
vt 0.555162 0.859979
vt 0.557020 0.857765
vt 0.552802 0.861615
vt 0.549868 0.855218
vt 0.548933 0.856647
vt 0.497680 0.729558
vt 0.535142 0.843760
vt 0.497617 0.820109
vt 0.551817 0.854964
vt 0.219020 0.889945
vt 0.381380 0.876164
vt 0.213034 0.887458
vt 0.224310 0.883893
vt 0.382216 0.870640
vt 0.217891 0.882751
vt 0.219068 0.660028
vt 0.213575 0.662682
vt 0.218525 0.667327
vt 0.224433 0.666139
vt 0.237345 0.682787
vt 0.214372 0.670892
vt 0.381295 0.673654
vt 0.382447 0.679157
vt 0.382289 0.694004
vt 0.213700 0.879662
vt 0.237097 0.867455
vt 0.382075 0.855929
vt 0.269507 0.482402
vt 0.269507 0.495059
vt 0.237497 0.495059
vt 0.237497 0.482402
vt 0.020070 0.477251
vt 0.023065 0.464927
vt 0.376687 0.461198
vt 0.373692 0.473522
vt 0.739386 0.353132
vt 0.708213 0.005690
vt 0.740730 0.005690
vt 0.766761 0.305379
vt 0.373129 0.443100
vt 0.376062 0.455440
vt 0.022461 0.449939
vt 0.019528 0.437599
vt 0.473661 0.351590
vt 0.441144 0.351590
vt 0.472318 0.004148
vt 0.499693 0.051902
vt 0.727511 0.351590
vt 0.694945 0.351590
vt 0.670991 0.051902
vt 0.696338 0.004148
vt 0.197340 0.482402
vt 0.229398 0.482402
vt 0.229398 0.495059
vt 0.197340 0.495059
vt 0.963406 0.353132
vt 0.938060 0.305379
vt 0.962014 0.005690
vt 0.994580 0.005690
vt 0.200568 0.361313
vt 0.200568 0.348655
vt 0.421114 0.348654
vt 0.421114 0.361313
vt 0.257646 0.337229
vt 0.230817 0.004331
vt 0.457301 0.004331
vt 0.428764 0.337229
vt 0.242314 0.522690
vt 0.019280 0.522690
vt 0.019280 0.501342
vt 0.242314 0.501342
vt 0.020415 0.335859
vt 0.047243 0.002961
vt 0.218361 0.002961
vt 0.246898 0.335859
vt 0.328551 0.377966
vt 0.023660 0.373184
vt 0.023168 0.369206
vt 0.361732 0.373656
vt 0.023055 0.353150
vt 0.192198 0.353150
vt 0.192160 0.357140
vt 0.023148 0.357140
vt 0.023569 0.421015
vt 0.328748 0.417759
vt 0.361936 0.422239
vt 0.023056 0.424995
vt 0.026592 0.385519
vt 0.331482 0.390301
vt 0.366676 0.394459
vt 0.028113 0.390009
vt 0.331744 0.405427
vt 0.026565 0.408685
vt 0.028109 0.404199
vt 0.366990 0.401443
vt 0.187677 0.494335
vt 0.018674 0.494335
vt 0.018767 0.489613
vt 0.187639 0.489613
vt 0.690569 0.433478
vt 0.690569 0.416269
vt 0.900391 0.411020
vt 0.900391 0.438727
vt 0.375472 0.396398
vt 0.375472 0.368735
vt 0.403082 0.368735
vt 0.403082 0.396398
vt 0.748885 0.468484
vt 0.748885 0.440811
vt 0.958452 0.446054
vt 0.958452 0.463241
vt 0.286211 0.496613
vt 0.286211 0.479431
vt 0.303361 0.479431
vt 0.303361 0.496613
vt 0.508852 0.530794
vt 0.508852 0.513642
vt 0.718376 0.522164
vt 0.718376 0.549778
vt 0.694238 0.507044
vt 0.694238 0.489893
vt 0.903764 0.470908
vt 0.903764 0.498523
vt 0.958912 0.411020
vt 0.958912 0.438727
vt 0.776814 0.522164
vt 0.776814 0.549778
vt 0.690434 0.468484
vt 0.690434 0.440811
vt 0.962203 0.470908
vt 0.962203 0.498523
vt 0.557666 0.272613
vt 0.529787 0.272613
vt 0.545519 0.061549
vt 0.562835 0.061549
vt 0.376063 0.434874
vt 0.376063 0.406970
vt 0.405006 0.409544
vt 0.405006 0.437448
vt 0.492229 0.294632
vt 0.520140 0.294632
vt 0.525315 0.505935
vt 0.507980 0.505935
vt 0.325170 0.497099
vt 0.308022 0.497099
vt 0.308022 0.479919
vt 0.325170 0.479919
vt 0.666399 0.491010
vt 0.615971 0.285295
vt 0.643476 0.282643
vt 0.683483 0.489363
vt 0.596149 0.269142
vt 0.568504 0.269142
vt 0.598970 0.059439
vt 0.616141 0.059439
vt 0.529787 0.331498
vt 0.557666 0.331498
vt 0.637864 0.224435
vt 0.610359 0.227087
vt 0.492229 0.235681
vt 0.520140 0.235681
vt 0.596149 0.327648
vt 0.568504 0.327648
vt 0.543382 0.496632
vt 0.571260 0.487378
vt 0.662701 0.066520
vt 0.635446 0.061963
vt 0.611806 0.498872
vt 0.638509 0.491717
vt 0.505839 0.063150
vt 0.533750 0.072414
vt 0.557666 0.272613
vt 0.562835 0.061549
vt 0.545519 0.061549
vt 0.529787 0.272613
vt 0.376063 0.434874
vt 0.405006 0.437448
vt 0.405006 0.409544
vt 0.376063 0.406970
vt 0.492229 0.294632
vt 0.507980 0.505935
vt 0.525315 0.505935
vt 0.520140 0.294632
vt 0.325170 0.497099
vt 0.325170 0.479919
vt 0.308022 0.479919
vt 0.308022 0.497099
vt 0.666399 0.491010
vt 0.683483 0.489363
vt 0.643476 0.282643
vt 0.615971 0.285295
vt 0.596149 0.269142
vt 0.616141 0.059439
vt 0.598970 0.059439
vt 0.568504 0.269142
vt 0.529787 0.331498
vt 0.557666 0.331498
vt 0.637864 0.224435
vt 0.610359 0.227087
vt 0.520140 0.235681
vt 0.492229 0.235681
vt 0.568504 0.327648
vt 0.596149 0.327648
vt 0.543382 0.496632
vt 0.571260 0.487378
vt 0.662701 0.066520
vt 0.635446 0.061963
vt 0.611806 0.498872
vt 0.638509 0.491717
vt 0.533750 0.072414
vt 0.505839 0.063150
vn 0.000000 -1.000000 0.000001
vn 0.000000 -1.000000 0.000001
vn 0.000000 -1.000000 0.000001
vn 0.000000 -1.000000 0.000001
vn 0.000000 -1.000000 0.000000
vn 0.000000 -1.000000 0.000000
vn 0.000000 -1.000000 0.000000
vn 0.000000 -1.000000 0.000000
vn 0.000000 -1.000000 0.000000
vn 0.000000 -1.000000 0.000000
vn 0.000000 -1.000000 0.000000
vn 0.000000 -1.000000 0.000000
vn 0.000000 -1.000000 0.000002
vn 0.000000 -1.000000 0.000002
vn 0.000000 -1.000000 0.000002
vn 0.000000 -1.000000 0.000002
vn -0.000000 -1.000000 -0.000001
vn -0.000000 -1.000000 -0.000001
vn -0.000000 -1.000000 -0.000001
vn -0.000000 -1.000000 -0.000001
vn -0.000000 -1.000000 -0.000000
vn -0.000000 -1.000000 -0.000000
vn -0.000000 -1.000000 -0.000000
vn -0.000000 -1.000000 -0.000000
vn -0.000000 -1.000000 -0.000001
vn -0.000000 -1.000000 -0.000001
vn -0.000000 -1.000000 -0.000001
vn -0.000000 -1.000000 -0.000001
vn 0.000000 -1.000000 0.000000
vn 0.000000 -1.000000 0.000000
vn 0.000000 -1.000000 0.000000
vn 0.000000 -1.000000 0.000000
vn 0.000000 -1.000000 0.000000
vn 0.000000 -1.000000 0.000000
vn 0.000000 -1.000000 0.000000
vn 0.000000 -1.000000 0.000000
vn 0.000000 -1.000000 0.000000
vn 0.000000 -1.000000 0.000000
vn 0.000000 -1.000000 0.000000
vn 0.000000 -1.000000 0.000000
vn 0.000000 -1.000000 0.000001
vn 0.000000 -1.000000 0.000001
vn 0.000000 -1.000000 0.000001
vn 0.000000 -1.000000 0.000001
vn -0.000000 -1.000000 -0.000000
vn -0.000000 -1.000000 -0.000000
vn -0.000000 -1.000000 -0.000000
vn -0.000000 -1.000000 -0.000000
vn -0.000000 0.000000 -1.000000
vn -0.000000 0.000000 -1.000000
vn -0.000000 0.000000 -1.000000
vn -0.000000 0.000000 -1.000000
vn 0.000000 0.000000 1.000000
vn 0.000000 0.000000 1.000000
vn 0.000000 0.000000 1.000000
vn 0.000000 0.000000 1.000000
vn -0.793626 -0.518182 -0.318818
vn -0.793626 -0.518182 -0.318818
vn -0.793626 -0.518182 -0.318818
vn -0.793626 -0.518182 -0.318818
vn 0.313167 -0.261623 0.912951
vn 0.313167 -0.261623 0.912951
vn 0.313167 -0.261623 0.912951
vn 0.313167 -0.261623 0.912951
vn -0.999555 -0.004230 0.029516
vn -0.999555 -0.004230 0.029516
vn -0.999555 -0.004230 0.029516
vn -0.999555 -0.004230 0.029516
vn -0.999369 0.002685 -0.035417
vn -0.999422 0.013555 -0.031177
vn -0.999369 0.002685 -0.035417
vn -0.999422 0.013555 -0.031177
vn 0.999146 -0.005859 0.040893
vn 0.999146 -0.005859 0.040893
vn 0.999146 -0.005859 0.040893
vn 0.999146 -0.005859 0.040893
vn -0.313167 -0.261623 0.912951
vn -0.313167 -0.261623 0.912951
vn -0.313167 -0.261623 0.912951
vn -0.313167 -0.261623 0.912951
vn 0.000000 0.000000 -1.000000
vn 0.000000 0.000000 -1.000000
vn 0.000000 0.000000 -1.000000
vn 0.000000 0.000000 -1.000000
vn 0.874590 -0.334141 -0.351344
vn 0.874590 -0.334141 -0.351344
vn 0.874590 -0.334141 -0.351344
vn 0.874590 -0.334141 -0.351344
vn 0.000000 0.000000 1.000000
vn 0.000000 0.000000 1.000000
vn 0.000000 0.000000 1.000000
vn 0.000000 0.000000 1.000000
vn 0.000000 0.000000 1.000000
vn 0.000000 0.000000 1.000000
vn 0.000000 0.000000 1.000000
vn 0.000000 0.000000 1.000000
vn -0.793626 -0.518179 0.318824
vn -0.793626 -0.518179 0.318824
vn -0.793626 -0.518179 0.318824
vn -0.793626 -0.518179 0.318824
vn -0.000000 0.000000 -1.000000
vn -0.000000 0.000000 -1.000000
vn -0.000000 0.000000 -1.000000
vn -0.000000 0.000000 -1.000000
vn 0.999607 -0.003874 -0.027751
vn 0.999545 -0.003687 -0.029952
vn 0.999607 -0.003874 -0.027751
vn 0.999545 -0.003687 -0.029952
vn -0.999349 0.008176 0.035140
vn -0.999349 0.008176 0.035140
vn -0.999349 0.008176 0.035140
vn -0.999349 0.008176 0.035140
vn 0.296978 -0.402855 -0.865744
vn 0.296978 -0.402855 -0.865744
vn 0.296978 -0.402855 -0.865744
vn 0.296978 -0.402855 -0.865744
vn 0.000000 0.000000 1.000000
vn 0.000000 0.000000 1.000000
vn 0.000000 0.000000 1.000000
vn 0.000000 0.000000 1.000000
vn -0.000000 0.000000 -1.000000
vn -0.000000 0.000000 -1.000000
vn -0.000000 0.000000 -1.000000
vn -0.000000 0.000000 -1.000000
vn 0.874590 -0.334144 0.351340
vn 0.874590 -0.334144 0.351340
vn 0.874590 -0.334144 0.351340
vn 0.874590 -0.334144 0.351340
vn -0.999749 0.011504 -0.019227
vn -0.999749 0.011504 -0.019227
vn -0.999933 -0.001418 -0.011519
vn -0.999933 -0.001418 -0.011519
vn -0.296975 -0.402855 -0.865744
vn -0.296975 -0.402855 -0.865744
vn -0.296975 -0.402855 -0.865744
vn -0.296975 -0.402855 -0.865744
vn 0.999904 0.003145 0.013520
vn 0.999904 0.003145 0.013520
vn 0.999904 0.003145 0.013520
vn 0.999904 0.003145 0.013520
vn -0.000000 -1.000000 -0.000006
vn -0.000000 -1.000000 -0.000006
vn -0.000000 -1.000000 -0.000006
vn 0.000000 -1.000000 0.000000
vn 0.000000 -1.000000 0.000000
vn 0.000000 -1.000000 0.000000
vn 0.000000 -1.000000 0.000000
vn 0.000000 -1.000000 0.000000
vn 0.000000 -1.000000 0.000000
vn 0.000000 -1.000000 0.000000
vn 0.000000 -1.000000 0.000000
vn 0.000000 -1.000000 0.000000
vn 0.000000 -1.000000 0.000000
vn 0.000000 -1.000000 0.000000
vn 0.000000 -1.000000 0.000000
vn 0.000000 -1.000000 0.000000
vn 0.000000 -1.000000 0.000000
vn 0.000000 -1.000000 0.000000
vn 0.000000 -1.000000 0.000000
vn 0.000000 -1.000000 0.000000
vn 0.000000 -1.000000 0.000000
vn -0.000000 -1.000000 -0.000000
vn -0.000000 -1.000000 -0.000000
vn -0.000000 -1.000000 -0.000000
vn -0.000000 -1.000000 -0.000001
vn -0.000000 -1.000000 -0.000001
vn -0.000000 -1.000000 -0.000001
vn -0.000000 -1.000000 -0.000001
vn 0.000000 -1.000000 0.000000
vn 0.000000 -1.000000 0.000000
vn 0.000000 -1.000000 0.000000
vn 0.000000 -1.000000 0.000000
vn 0.000000 -1.000000 0.000001
vn 0.000000 -1.000000 0.000001
vn 0.000000 -1.000000 0.000001
vn 0.000000 -1.000000 0.000001
vn 0.000000 -1.000000 0.000000
vn 0.000000 -1.000000 0.000000
vn 0.000000 -1.000000 0.000000
vn 0.000000 -1.000000 0.000000
vn -0.000000 0.003130 -0.999995
vn -0.000000 0.003130 -0.999995
vn -0.000000 0.003130 -0.999995
vn -0.000000 0.003130 -0.999995
vn 0.999523 0.003393 0.030714
vn 0.999523 0.003393 0.030714
vn 0.707971 -0.705906 0.021755
vn 0.707971 -0.705906 0.021755
vn 0.000000 0.003130 0.999995
vn 0.000000 0.003130 0.999995
vn 0.000000 0.003130 0.999995
vn 0.000000 0.003130 0.999995
vn -0.999518 0.003393 0.030872
vn -0.999518 0.003393 0.030872
vn -0.999518 0.003393 0.030872
vn -0.999518 0.003393 0.030872
vn -0.999749 0.011504 -0.019227
vn -0.999422 0.013555 -0.031177
vn -0.999749 0.011504 -0.019227
vn -0.999422 0.013555 -0.031177
vn 0.000000 0.000000 -1.000000
vn 0.000000 0.000000 -1.000000
vn -0.000000 0.000000 -1.000000
vn -0.000000 0.000000 -1.000000
vn 0.999607 -0.003874 -0.027751
vn 0.999673 -0.001062 -0.025556
vn 0.999607 -0.003874 -0.027751
vn 0.999673 -0.001062 -0.025556
vn 0.000000 0.000000 1.000000
vn 0.000000 0.000000 1.000000
vn 0.000000 0.000000 1.000000
vn 0.000000 0.000000 1.000000
vn 0.000000 1.000000 0.000000
vn 0.000000 1.000000 0.000000
vn 0.000000 1.000000 0.000000
vn 0.000000 1.000000 0.000000
vn 0.000000 1.000000 0.000000
vn 0.000000 1.000000 0.000000
vn 0.000000 1.000000 0.000000
vn 0.000000 1.000000 0.000000
vn 0.000000 1.000000 0.000000
vn 0.000000 1.000000 0.000000
vn 0.000000 1.000000 0.000000
vn 0.000000 1.000000 0.000000
vn 0.000000 1.000000 0.000000
vn 0.000000 1.000000 0.000000
vn 0.000000 1.000000 0.000000
vn 0.000000 1.000000 0.000000
vn 0.999673 -0.001062 -0.025556
vn 0.999673 -0.001062 -0.025556
vn 0.999671 0.001938 -0.025564
vn 0.999671 0.001938 -0.025564
vn 0.000000 0.003130 0.999995
vn 0.000000 0.003130 0.999995
vn 0.000000 0.003130 0.999995
vn 0.000000 0.003130 0.999995
vn 0.999523 0.003383 0.030693
vn 0.999523 0.003383 0.030693
vn 0.999523 0.003383 0.030693
vn 0.999523 0.003383 0.030693
vn -0.000000 0.003129 -0.999995
vn -0.000000 0.003129 -0.999995
vn -0.000000 0.003129 -0.999995
vn -0.000000 0.003129 -0.999995
vn -0.999518 0.003394 0.030851
vn -0.999518 0.003394 0.030851
vn -0.999518 0.003394 0.030851
vn -0.999518 0.003394 0.030851
vn -0.000000 -1.000000 -0.000000
vn -0.000000 -1.000000 -0.000000
vn 0.707971 -0.705906 0.021755
vn 0.707971 -0.705906 0.021755
vn 0.000000 1.000000 0.000000
vn 0.000000 1.000000 0.000000
vn 0.000000 1.000000 0.000000
vn 0.000000 1.000000 0.000000
vn -0.000000 -0.094421 -0.995532
vn -0.000000 -0.094421 -0.995532
vn -0.000000 -0.047263 -0.998882
vn -0.000000 -0.047263 -0.998882
vn 0.000000 1.000000 0.000000
vn 0.000000 1.000000 0.000000
vn 0.000000 1.000000 0.000000
vn 0.000000 1.000000 0.000000
vn 0.000000 0.021271 0.999774
vn 0.000000 0.021271 0.999774
vn 0.000000 0.042533 0.999095
vn 0.000000 0.042533 0.999095
vn 0.000000 -1.000000 0.000000
vn 0.000000 -1.000000 0.000000
vn 0.000000 -1.000000 0.000000
vn 0.000000 -1.000000 0.000000
vn -0.999599 -0.028327 0.000000
vn -0.999900 -0.014165 0.000000
vn -0.999599 -0.028327 0.000000
vn -0.999900 -0.014165 0.000000
vn 0.999599 -0.028328 -0.000000
vn 0.999599 -0.028328 -0.000000
vn 0.999900 -0.014165 -0.000000
vn 0.999900 -0.014165 -0.000000
vn -0.000000 -0.047263 -0.998882
vn -0.000000 -0.047263 -0.998882
vn -0.000000 0.000000 -1.000000
vn -0.000000 0.000000 -1.000000
vn -0.999900 -0.014165 0.000000
vn -0.999900 -0.014165 0.000000
vn -1.000000 0.000000 0.000000
vn -1.000000 0.000000 0.000000
vn 0.000000 0.021271 0.999774
vn 0.000000 0.021271 0.999774
vn 0.000000 0.000000 1.000000
vn 0.000000 0.000000 1.000000
vn 0.999900 -0.014165 -0.000000
vn 0.999900 -0.014165 -0.000000
vn 1.000000 0.000000 -0.000000
vn 1.000000 0.000000 -0.000000
vn -0.232053 0.409660 -0.882230
vn 0.227236 0.408608 -0.883970
vn -0.258100 -0.200613 -0.945060
vn 0.252483 -0.199336 -0.946846
vn -0.000000 -1.000000 -0.000000
vn -0.000000 -1.000000 -0.000000
vn 0.000000 -1.000000 0.000003
vn -0.000000 -1.000000 -0.000000
vn 0.000000 -1.000000 0.000000
vn 0.000000 -1.000000 0.000000
vn 0.000000 -1.000000 0.000000
vn 0.000000 -1.000000 0.000000
vn -0.000000 -1.000000 -0.000000
vn 0.000000 -1.000000 0.000000
vn -0.000000 -1.000000 -0.000004
vn 0.000000 -1.000000 0.000000
vn 0.000000 -1.000000 0.000000
vn 0.000000 -1.000000 0.000000
vn -0.000000 -1.000000 -0.000000
vn -0.000000 -1.000000 -0.000000
vn 0.000000 -1.000000 0.000003
vn -0.000000 -1.000000 -0.000000
vn -0.000000 -1.000000 -0.000001
vn -0.000000 -1.000000 -0.000000
vn -0.000000 -1.000000 -0.000004
vn -0.000000 -1.000000 -0.000001
vn 0.000000 -1.000000 0.000000
vn 0.000000 -1.000000 0.000001
vn 0.000000 -1.000000 0.000000
vn 0.000000 -1.000000 0.000000
vn 0.000000 -1.000000 0.000001
vn 0.000000 -1.000000 0.000000
vn 0.000000 -1.000000 0.000000
vn 0.000000 -1.000000 0.000000
vn 0.000000 -1.000000 0.000000
vn 0.000000 -1.000000 0.000000
vn 0.000000 -1.000000 0.000000
vn 0.000000 -1.000000 0.000000
vn -0.000000 -1.000000 -0.000000
vn -0.000000 -1.000000 -0.000000
vn 0.000000 -1.000000 0.000000
vn -0.000000 -1.000000 -0.000000
vn -0.000000 -1.000000 -0.000000
vn 0.000000 -1.000000 0.000000
vn -0.656929 -0.249776 0.711376
vn -0.554597 -0.575841 0.600691
vn -0.347700 -0.214077 0.912840
vn -0.293235 -0.529265 0.796173
vn 0.293216 -0.529271 0.796176
vn 0.347686 -0.214074 0.912845
vn -0.293235 -0.529265 0.796173
vn -0.347700 -0.214077 0.912840
vn 0.656921 -0.249770 0.711386
vn 0.347686 -0.214074 0.912845
vn 0.554587 -0.575847 0.600695
vn 0.293216 -0.529271 0.796176
vn 0.902485 -0.221375 0.369477
vn 0.656921 -0.249770 0.711386
vn 0.780043 -0.544424 0.308441
vn 0.554587 -0.575847 0.600695
vn 0.847919 -0.497652 -0.182690
vn 0.959715 -0.194504 -0.202771
vn 0.780043 -0.544424 0.308441
vn 0.902485 -0.221375 0.369477
vn 0.732114 -0.243120 -0.636318
vn 0.959715 -0.194504 -0.202771
vn 0.619472 -0.566705 -0.543231
vn 0.847919 -0.497652 -0.182690
vn 0.732114 -0.243120 -0.636318
vn 0.619472 -0.566705 -0.543231
vn 0.252483 -0.199336 -0.946846
vn 0.219272 -0.504149 -0.835316
vn -0.258100 -0.200613 -0.945060
vn 0.252483 -0.199336 -0.946846
vn -0.223995 -0.505772 -0.833080
vn 0.219272 -0.504149 -0.835316
vn -0.738649 -0.242460 -0.628976
vn -0.258100 -0.200613 -0.945060
vn -0.626534 -0.566442 -0.535349
vn -0.223995 -0.505772 -0.833080
vn -0.738649 -0.242460 -0.628976
vn -0.626534 -0.566442 -0.535349
vn -0.962376 -0.193334 -0.190933
vn -0.850929 -0.496841 -0.170497
vn -0.899331 -0.220621 0.377531
vn -0.962376 -0.193334 -0.190933
vn -0.777984 -0.543079 0.315920
vn -0.850929 -0.496841 -0.170497
vn -0.554597 -0.575841 0.600691
vn -0.656929 -0.249776 0.711376
vn -0.777984 -0.543079 0.315920
vn -0.899331 -0.220621 0.377531
vn 0.312776 0.427326 0.848271
vn -0.312781 0.427324 0.848270
vn 0.347686 -0.214074 0.912845
vn -0.347700 -0.214077 0.912840
vn -0.312781 0.427324 0.848270
vn 0.312776 0.427326 0.848271
vn -0.187949 0.816579 0.545779
vn 0.187949 0.816576 0.545783
vn 0.054678 0.996788 -0.058513
vn -0.052497 0.996884 -0.058884
vn 0.054689 0.996984 0.055067
vn -0.052509 0.997123 0.054670
vn -0.347700 -0.214077 0.912840
vn -0.312781 0.427324 0.848270
vn -0.656929 -0.249776 0.711376
vn -0.602512 0.459767 0.652375
vn -0.602512 0.459767 0.652375
vn -0.312781 0.427324 0.848270
vn -0.361569 0.846122 0.391594
vn -0.187949 0.816579 0.545779
vn -0.361569 0.846122 0.391594
vn -0.184359 0.961705 0.202821
vn -0.509711 0.836862 0.199641
vn -0.509711 0.836862 0.199641
vn -0.829567 0.444423 0.338092
vn -0.361569 0.846122 0.391594
vn -0.602512 0.459767 0.652375
vn -0.602512 0.459767 0.652375
vn -0.829567 0.444423 0.338092
vn -0.656929 -0.249776 0.711376
vn -0.899331 -0.220621 0.377531
vn -0.184359 0.961705 0.202821
vn -0.361569 0.846122 0.391594
vn -0.187949 0.816579 0.545779
vn 0.602504 0.459772 0.652379
vn 0.312776 0.427326 0.848271
vn 0.656921 -0.249770 0.711386
vn 0.347686 -0.214074 0.912845
vn 0.187949 0.816576 0.545783
vn 0.312776 0.427326 0.848271
vn 0.361573 0.846120 0.391595
vn 0.602504 0.459772 0.652379
vn 0.902485 -0.221375 0.369477
vn 0.832014 0.445756 0.330234
vn 0.656921 -0.249770 0.711386
vn 0.602504 0.459772 0.652379
vn 0.670359 0.464080 -0.579007
vn 0.732114 -0.243120 -0.636318
vn 0.227236 0.408608 -0.883970
vn 0.252483 -0.199336 -0.946846
vn 0.732114 -0.243120 -0.636318
vn 0.670359 0.464080 -0.579007
vn 0.959715 -0.194504 -0.202771
vn 0.894418 0.408866 -0.181235
vn 0.894418 0.408866 -0.181235
vn 0.832014 0.445756 0.330234
vn 0.959715 -0.194504 -0.202771
vn 0.902485 -0.221375 0.369477
vn 0.576316 0.808940 -0.116086
vn 0.519220 0.832219 0.194479
vn 0.894418 0.408866 -0.181235
vn 0.832014 0.445756 0.330234
vn 0.602504 0.459772 0.652379
vn 0.832014 0.445756 0.330234
vn 0.361573 0.846120 0.391595
vn 0.519220 0.832219 0.194479
vn 0.576316 0.808940 -0.116086
vn 0.894418 0.408866 -0.181235
vn 0.385066 0.861093 -0.332028
vn 0.670359 0.464080 -0.579007
vn 0.054689 0.996984 0.055067
vn -0.052509 0.997123 0.054670
vn 0.192050 0.960264 0.202510
vn -0.184359 0.961705 0.202821
vn 0.192050 0.960264 0.202510
vn -0.184359 0.961705 0.202821
vn 0.187949 0.816576 0.545783
vn -0.187949 0.816579 0.545779
vn 0.361573 0.846120 0.391595
vn 0.192050 0.960264 0.202510
vn 0.187949 0.816576 0.545783
vn 0.192050 0.960264 0.202510
vn 0.361573 0.846120 0.391595
vn 0.519220 0.832219 0.194479
vn -0.829567 0.444423 0.338092
vn -0.896300 0.409025 -0.171305
vn -0.899331 -0.220621 0.377531
vn -0.962376 -0.193334 -0.190933
vn -0.134136 0.836272 -0.531654
vn 0.134057 0.832549 -0.537485
vn -0.232053 0.409660 -0.882230
vn 0.227236 0.408608 -0.883970
vn -0.509711 0.836862 0.199641
vn -0.561897 0.820436 -0.105629
vn -0.829567 0.444423 0.338092
vn -0.896300 0.409025 -0.171305
vn -0.962376 -0.193334 -0.190933
vn -0.896300 0.409025 -0.171305
vn -0.738649 -0.242460 -0.628976
vn -0.675624 0.463797 -0.573084
vn -0.675624 0.463797 -0.573084
vn -0.896300 0.409025 -0.171305
vn -0.378040 0.868631 -0.320259
vn -0.561897 0.820436 -0.105629
vn -0.378040 0.868631 -0.320259
vn -0.170516 0.973461 -0.152637
vn -0.134136 0.836272 -0.531654
vn -0.134136 0.836272 -0.531654
vn -0.232053 0.409660 -0.882230
vn -0.378040 0.868631 -0.320259
vn -0.675624 0.463797 -0.573084
vn -0.675624 0.463797 -0.573084
vn -0.232053 0.409660 -0.882230
vn -0.738649 -0.242460 -0.628976
vn -0.258100 -0.200613 -0.945060
vn -0.052497 0.996884 -0.058884
vn -0.170516 0.973461 -0.152637
vn -0.052509 0.997123 0.054670
vn -0.184359 0.961705 0.202821
vn -0.184359 0.961705 0.202821
vn -0.170516 0.973461 -0.152637
vn -0.509711 0.836862 0.199641
vn -0.561897 0.820436 -0.105629
vn 0.134057 0.832549 -0.537485
vn 0.385066 0.861093 -0.332028
vn 0.227236 0.408608 -0.883970
vn 0.670359 0.464080 -0.579007
vn 0.054678 0.996788 -0.058513
vn 0.185310 0.969508 -0.160359
vn -0.052497 0.996884 -0.058884
vn -0.170516 0.973461 -0.152637
vn -0.134136 0.836272 -0.531654
vn -0.170516 0.973461 -0.152637
vn 0.134057 0.832549 -0.537485
vn 0.185310 0.969508 -0.160359
vn 0.185310 0.969508 -0.160359
vn 0.385066 0.861093 -0.332028
vn 0.134057 0.832549 -0.537485
vn 0.054678 0.996788 -0.058513
vn 0.054689 0.996984 0.055067
vn 0.185310 0.969508 -0.160359
vn 0.192050 0.960264 0.202510
vn 0.576316 0.808940 -0.116086
vn 0.185310 0.969508 -0.160359
vn 0.519220 0.832219 0.194479
vn 0.192050 0.960264 0.202510
vn 0.385066 0.861093 -0.332028
vn 0.185310 0.969508 -0.160359
vn 0.576316 0.808940 -0.116086
vn -0.170516 0.973461 -0.152637
vn -0.378040 0.868631 -0.320259
vn -0.561897 0.820436 -0.105629
vn -0.268561 0.959940 0.079941
vn 0.245312 0.966904 0.070129
vn -0.236481 0.828000 0.508423
vn 0.196180 0.853662 0.482468
vn -0.115115 0.246490 0.962284
vn 0.115114 0.246490 0.962284
vn -0.078046 0.297696 0.951465
vn 0.078046 0.297696 0.951465
vn 0.996216 -0.080543 0.032661
vn 0.999760 -0.001490 -0.021858
vn 0.709845 0.124749 0.693223
vn 0.726049 0.156210 0.669665
vn 0.625714 0.541191 0.561778
vn 0.858424 0.443648 -0.257460
vn 0.208671 0.883534 0.419314
vn 0.296415 0.868159 -0.398042
vn -0.242791 0.863980 0.441124
vn 0.208671 0.883534 0.419314
vn -0.306056 0.864685 -0.398308
vn 0.296415 0.868159 -0.398042
vn -0.640813 0.513793 0.570417
vn -0.878306 0.412926 -0.240978
vn -0.719324 0.173212 0.672733
vn -0.999618 -0.027049 -0.005656
vn -0.996168 -0.081029 0.032927
vn -0.709409 0.124870 0.693647
vn -0.999618 -0.027049 -0.005656
vn -0.719324 0.173212 0.672733
vn -0.483920 -0.315170 0.816388
vn -0.721103 -0.665946 0.191118
vn -0.169624 -0.442465 0.880598
vn -0.243775 -0.911851 0.330307
vn 0.245378 -0.911647 0.329681
vn 0.170688 -0.442269 0.880491
vn -0.243775 -0.911851 0.330307
vn -0.169624 -0.442465 0.880598
vn 0.475796 -0.325981 0.816918
vn 0.170688 -0.442269 0.880491
vn 0.703019 -0.683624 0.196016
vn 0.245378 -0.911647 0.329681
vn -0.721103 -0.665946 0.191118
vn -0.483920 -0.315170 0.816388
vn -0.963898 -0.258665 0.063190
vn -0.676017 -0.033872 0.736107
vn 0.669565 -0.046652 0.741287
vn 0.475796 -0.325981 0.816918
vn 0.956330 -0.283618 0.070666
vn 0.703019 -0.683624 0.196016
vn 0.625714 0.541191 0.561778
vn 0.726049 0.156210 0.669665
vn 0.858424 0.443648 -0.257460
vn 0.999760 -0.001490 -0.021858
vn -0.878306 0.412926 -0.240978
vn -0.640813 0.513793 0.570417
vn -0.306056 0.864685 -0.398308
vn -0.242791 0.863980 0.441124
vn 0.104834 -0.268415 -0.957582
vn 0.061628 -0.225083 -0.972389
vn 0.104834 -0.268415 -0.957582
vn 0.074217 -0.226080 -0.971277
vn 0.196180 0.853662 0.482468
vn 0.600202 0.525799 0.602738
vn 0.208671 0.883534 0.419314
vn 0.625714 0.541191 0.561778
vn 0.061628 -0.225083 -0.972389
vn 0.049019 -0.224048 -0.973345
vn 0.076170 -0.220277 -0.972459
vn -0.236481 0.828000 0.508423
vn 0.196180 0.853662 0.482468
vn -0.242791 0.863980 0.441124
vn 0.208671 0.883534 0.419314
vn 0.061628 -0.225083 -0.972389
vn -0.054388 -0.241848 -0.968789
vn 0.049019 -0.224048 -0.973345
vn -0.004936 -0.208263 -0.978060
vn -0.718034 0.161757 0.676951
vn -0.621417 0.491581 0.610074
vn -0.719324 0.173212 0.672733
vn -0.640813 0.513793 0.570417
vn -0.054388 -0.241848 -0.968789
vn -0.103657 -0.274558 -0.955967
vn -0.057608 -0.253261 -0.965681
vn -0.713517 0.123819 0.689611
vn -0.718034 0.161757 0.676951
vn -0.709409 0.124870 0.693647
vn -0.719324 0.173212 0.672733
vn -0.172042 -0.493847 0.852360
vn -0.494424 -0.339124 0.800338
vn -0.169624 -0.442465 0.880598
vn -0.483920 -0.315170 0.816388
vn -0.084534 -0.291132 -0.952941
vn -0.010524 -0.326009 -0.945308
vn -0.104964 -0.273271 -0.956193
vn 0.173278 -0.493512 0.852303
vn -0.172042 -0.493847 0.852360
vn 0.170688 -0.442269 0.880491
vn -0.169624 -0.442465 0.880598
vn 0.076415 -0.293883 -0.952782
vn 0.010772 -0.325974 -0.945318
vn -0.084534 -0.291132 -0.952941
vn -0.010524 -0.326009 -0.945308
vn 0.173278 -0.493512 0.852303
vn 0.170688 -0.442269 0.880491
vn 0.484715 -0.353438 0.800083
vn 0.475796 -0.325981 0.816918
vn 0.076415 -0.293883 -0.952782
vn 0.094583 -0.279442 -0.955493
vn 0.010772 -0.325974 -0.945318
vn -0.494424 -0.339124 0.800338
vn -0.684126 -0.035891 0.728480
vn -0.483920 -0.315170 0.816388
vn -0.676017 -0.033872 0.736107
vn -0.084534 -0.291132 -0.952941
vn -0.104964 -0.273271 -0.956193
vn -0.158047 -0.254252 -0.954137
vn 0.669565 -0.046652 0.741287
vn 0.677314 -0.052135 0.733845
vn 0.475796 -0.325981 0.816918
vn 0.484715 -0.353438 0.800083
vn 0.076415 -0.293883 -0.952782
vn 0.141687 -0.260185 -0.955107
vn 0.094583 -0.279442 -0.955493
vn 0.723113 0.145256 0.675284
vn 0.726049 0.156210 0.669665
vn 0.600202 0.525799 0.602738
vn 0.625714 0.541191 0.561778
vn 0.061628 -0.225083 -0.972389
vn 0.076170 -0.220277 -0.972459
vn 0.074217 -0.226080 -0.971277
vn -0.236481 0.828000 0.508423
vn -0.242791 0.863980 0.441124
vn -0.621417 0.491581 0.610074
vn -0.640813 0.513793 0.570417
vn -0.054388 -0.241848 -0.968789
vn -0.057608 -0.253261 -0.965681
vn -0.004936 -0.208263 -0.978060
vn 0.713901 0.123693 0.689235
vn 0.709845 0.124749 0.693223
vn 0.723113 0.145256 0.675284
vn 0.726049 0.156210 0.669665
vn -0.103657 -0.274558 -0.955967
vn -0.054388 -0.241848 -0.968789
vn -0.115384 -0.269407 -0.956089
vn -0.115384 -0.269407 -0.956089
vn -0.689596 -0.560103 0.459068
vn -0.494424 -0.339124 0.800338
vn -0.259356 -0.823370 0.504774
vn -0.172042 -0.493847 0.852360
vn -0.503749 -0.215065 0.836651
vn -0.689596 -0.560103 0.459068
vn -0.241553 -0.395255 0.886243
vn -0.259356 -0.823370 0.504774
vn -0.277427 0.031840 0.960219
vn -0.503749 -0.215065 0.836651
vn -0.241553 -0.395255 0.886243
vn -0.638318 -0.010240 0.769704
vn -0.914501 -0.184828 0.359899
vn -0.503749 -0.215065 0.836651
vn -0.689596 -0.560103 0.459068
vn -0.494424 -0.339124 0.800338
vn -0.689596 -0.560103 0.459068
vn -0.684126 -0.035891 0.728480
vn -0.914501 -0.184828 0.359899
vn -0.503749 -0.215065 0.836651
vn -0.277427 0.031840 0.960219
vn -0.638318 -0.010240 0.769704
vn 0.673167 -0.575585 0.464272
vn 0.261126 -0.823288 0.503994
vn 0.484715 -0.353438 0.800083
vn 0.173278 -0.493512 0.852303
vn 0.905681 -0.203845 0.371737
vn 0.673167 -0.575585 0.464272
vn 0.677314 -0.052135 0.733845
vn 0.484715 -0.353438 0.800083
vn 0.673167 -0.575585 0.464272
vn 0.905681 -0.203845 0.371737
vn 0.497239 -0.217752 0.839844
vn 0.630981 -0.012792 0.775693
vn 0.173278 -0.493512 0.852303
vn 0.261126 -0.823288 0.503994
vn -0.172042 -0.493847 0.852360
vn -0.259356 -0.823370 0.504774
vn -0.076041 0.210762 0.974575
vn -0.277427 0.031840 0.960219
vn 0.076041 0.210762 0.974575
vn 0.277428 0.031839 0.960219
vn -0.241553 -0.395255 0.886243
vn -0.259356 -0.823370 0.504774
vn 0.242439 -0.395460 0.885909
vn 0.261126 -0.823288 0.503994
vn 0.277428 0.031839 0.960219
vn -0.277427 0.031840 0.960219
vn 0.242439 -0.395460 0.885909
vn -0.241553 -0.395255 0.886243
vn 0.261126 -0.823288 0.503994
vn 0.673167 -0.575585 0.464272
vn 0.242439 -0.395460 0.885909
vn 0.497239 -0.217752 0.839844
vn 0.497239 -0.217752 0.839844
vn 0.277428 0.031839 0.960219
vn 0.242439 -0.395460 0.885909
vn 0.277428 0.031839 0.960219
vn 0.497239 -0.217752 0.839844
vn 0.630981 -0.012792 0.775693
vn 0.967528 0.030674 0.250897
vn 0.960910 -0.010871 0.276648
vn 0.723113 0.145256 0.675284
vn 0.713901 0.123693 0.689235
vn 0.196180 0.853662 0.482468
vn 0.245312 0.966904 0.070129
vn 0.600202 0.525799 0.602738
vn 0.823767 0.527513 0.207700
vn 0.823767 0.527513 0.207700
vn 0.967528 0.030674 0.250897
vn 0.600202 0.525799 0.602738
vn 0.723113 0.145256 0.675284
vn 0.724558 0.118585 0.678935
vn 0.960910 -0.010871 0.276648
vn 0.727614 0.115291 0.676229
vn 0.967528 0.030674 0.250897
vn 0.727614 0.115291 0.676229
vn 0.967528 0.030674 0.250897
vn 0.497691 0.462623 0.733679
vn 0.823767 0.527513 0.207700
vn -0.718034 0.161757 0.676951
vn -0.968378 0.002476 0.249475
vn -0.621417 0.491581 0.610074
vn -0.850641 0.478610 0.217582
vn -0.850641 0.478610 0.217582
vn -0.968378 0.002476 0.249475
vn -0.524038 0.429561 0.735433
vn -0.737039 0.091244 0.669662
vn -0.524038 0.429561 0.735433
vn -0.247331 0.364800 0.897635
vn -0.111708 0.769126 0.629259
vn -0.268561 0.959940 0.079941
vn -0.850641 0.478610 0.217582
vn -0.111708 0.769126 0.629259
vn -0.524038 0.429561 0.735433
vn -0.850641 0.478610 0.217582
vn -0.268561 0.959940 0.079941
vn -0.621417 0.491581 0.610074
vn -0.236481 0.828000 0.508423
vn -0.713517 0.123819 0.689611
vn -0.961388 -0.011706 0.274948
vn -0.718034 0.161757 0.676951
vn -0.968378 0.002476 0.249475
vn -0.725875 0.118055 0.677620
vn -0.737039 0.091244 0.669662
vn -0.961388 -0.011706 0.274948
vn -0.968378 0.002476 0.249475
vn -0.115115 0.246490 0.962284
vn -0.078046 0.297696 0.951465
vn -0.399742 0.204893 0.893435
vn -0.247331 0.364800 0.897635
vn -0.399742 0.204893 0.893435
vn -0.247331 0.364800 0.897635
vn -0.725875 0.118055 0.677620
vn -0.737039 0.091244 0.669662
vn -0.268561 0.959940 0.079941
vn -0.111708 0.769126 0.629259
vn 0.245312 0.966904 0.070129
vn 0.097594 0.776188 0.622903
vn 0.097594 0.776188 0.622903
vn 0.497691 0.462623 0.733679
vn 0.245312 0.966904 0.070129
vn 0.823767 0.527513 0.207700
vn 0.240853 0.372186 0.896364
vn -0.247331 0.364800 0.897635
vn 0.078046 0.297696 0.951465
vn -0.078046 0.297696 0.951465
vn -0.111708 0.769126 0.629259
vn -0.247331 0.364800 0.897635
vn 0.097594 0.776188 0.622903
vn 0.240853 0.372186 0.896364
vn 0.240853 0.372186 0.896364
vn 0.497691 0.462623 0.733679
vn 0.097594 0.776188 0.622903
vn 0.115114 0.246490 0.962284
vn 0.399743 0.204893 0.893434
vn 0.078046 0.297696 0.951465
vn 0.240853 0.372186 0.896364
vn 0.399743 0.204893 0.893434
vn 0.724558 0.118585 0.678935
vn 0.240853 0.372186 0.896364
vn 0.727614 0.115291 0.676229
vn 0.497691 0.462623 0.733679
vn 0.240853 0.372186 0.896364
vn 0.727614 0.115291 0.676229
vn -0.247331 0.364800 0.897635
vn -0.524038 0.429561 0.735433
vn -0.737039 0.091244 0.669662
vn -0.158047 -0.254252 -0.954137
vn -0.115384 -0.269407 -0.956089
vn -0.084534 -0.291132 -0.952941
vn -0.115384 -0.269407 -0.956089
vn -0.963898 -0.258665 0.063190
vn -0.676017 -0.033872 0.736107
vn -0.996168 -0.081029 0.032927
vn -0.709409 0.124870 0.693647
vn -0.713517 0.123819 0.689611
vn -0.709409 0.124870 0.693647
vn -0.684126 -0.035891 0.728480
vn -0.676017 -0.033872 0.736107
vn -0.914501 -0.184828 0.359899
vn -0.961388 -0.011706 0.274948
vn -0.684126 -0.035891 0.728480
vn -0.713517 0.123819 0.689611
vn -0.638318 -0.010240 0.769704
vn -0.725875 0.118055 0.677620
vn -0.914501 -0.184828 0.359899
vn -0.961388 -0.011706 0.274948
vn -0.638318 -0.010240 0.769704
vn -0.277427 0.031840 0.960219
vn -0.725875 0.118055 0.677620
vn -0.399742 0.204893 0.893435
vn -0.277427 0.031840 0.960219
vn -0.076041 0.210762 0.974575
vn -0.399742 0.204893 0.893435
vn -0.115115 0.246490 0.962284
vn -0.076041 0.210762 0.974575
vn 0.076041 0.210762 0.974575
vn -0.115115 0.246490 0.962284
vn 0.115114 0.246490 0.962284
vn 0.115114 0.246490 0.962284
vn 0.076041 0.210762 0.974575
vn 0.399743 0.204893 0.893434
vn 0.277428 0.031839 0.960219
vn 0.399743 0.204893 0.893434
vn 0.277428 0.031839 0.960219
vn 0.724558 0.118585 0.678935
vn 0.630981 -0.012792 0.775693
vn 0.960910 -0.010871 0.276648
vn 0.724558 0.118585 0.678935
vn 0.905681 -0.203845 0.371737
vn 0.630981 -0.012792 0.775693
vn 0.713901 0.123693 0.689235
vn 0.960910 -0.010871 0.276648
vn 0.677314 -0.052135 0.733845
vn 0.905681 -0.203845 0.371737
vn 0.713901 0.123693 0.689235
vn 0.677314 -0.052135 0.733845
vn 0.709845 0.124749 0.693223
vn 0.669565 -0.046652 0.741287
vn 0.956330 -0.283618 0.070666
vn 0.996216 -0.080543 0.032661
vn 0.669565 -0.046652 0.741287
vn 0.709845 0.124749 0.693223
vn 0.141687 -0.260185 -0.955107
vn 0.076415 -0.293883 -0.952782
vn 0.104834 -0.268415 -0.957582
vn 0.104834 -0.268415 -0.957582
vn -0.000001 1.000000 0.000000
vn -0.000001 1.000000 0.000000
vn -0.000001 1.000000 0.000000
vn -0.000001 1.000000 0.000000
vn 0.994875 -0.101115 -0.000000
vn 0.994875 -0.101115 -0.000000
vn 0.994875 -0.101115 -0.000000
vn 0.994875 -0.101115 -0.000000
vn 0.000307 0.256719 0.966486
vn 0.000614 0.257126 0.966378
vn 0.000307 0.256719 0.966486
vn 0.000614 0.257126 0.966378
vn -0.994875 -0.101115 0.000000
vn -0.994875 -0.101115 0.000000
vn -0.994875 -0.101115 0.000000
vn -0.994875 -0.101115 0.000000
vn -0.000613 -0.257126 -0.966378
vn -0.000613 -0.257126 -0.966378
vn -0.000306 -0.256720 -0.966486
vn -0.000306 -0.256720 -0.966486
vn 0.000634 -0.257126 -0.966378
vn 0.000317 -0.256720 -0.966486
vn 0.000634 -0.257126 -0.966378
vn 0.000317 -0.256720 -0.966486
vn 0.000000 1.000000 0.000000
vn 0.000000 1.000000 0.000000
vn 0.000000 1.000000 0.000000
vn 0.000000 1.000000 0.000000
vn -0.000318 0.256719 0.966486
vn -0.000318 0.256719 0.966486
vn -0.000635 0.257126 0.966378
vn -0.000635 0.257126 0.966378
vn 0.000307 0.256719 0.966486
vn 0.000307 0.256719 0.966486
vn -0.000318 0.256719 0.966486
vn -0.000318 0.256719 0.966486
vn 0.000000 -1.000000 0.000000
vn 0.000000 -1.000000 0.000000
vn 0.000000 -1.000000 0.000000
vn 0.000000 -1.000000 0.000000
vn -0.000306 -0.256720 -0.966486
vn 0.000317 -0.256720 -0.966486
vn -0.000306 -0.256720 -0.966486
vn 0.000317 -0.256720 -0.966486
vn -0.000000 -0.254697 -0.967021
vn -0.000000 -0.254697 -0.967021
vn -0.000000 -0.254697 -0.967021
vn -0.000000 -0.254697 -0.967021
vn 0.000000 1.000000 0.000000
vn 0.000000 1.000000 0.000000
vn 0.000000 1.000000 0.000000
vn 0.000000 1.000000 0.000000
vn 0.000000 0.254697 0.967021
vn 0.000000 0.254697 0.967021
vn 0.000000 0.254697 0.967021
vn 0.000000 0.254697 0.967021
vn -0.996019 -0.088923 0.006245
vn -0.996019 -0.088923 0.006245
vn -0.996019 -0.088923 0.006245
vn -0.996019 -0.088923 0.006245
vn 0.000000 -0.994450 0.105206
vn 0.000000 -0.994450 0.105206
vn 0.000000 -0.994450 0.105206
vn 0.000000 -0.994450 0.105206
vn 0.994861 -0.081204 0.060482
vn 0.994861 -0.081204 0.060482
vn 0.994861 -0.081204 0.060482
vn 0.994861 -0.081204 0.060482
vn -0.995706 -0.092330 -0.006733
vn -0.995706 -0.092330 -0.006733
vn -0.995706 -0.092330 -0.006733
vn -0.995706 -0.092330 -0.006733
vn 0.991343 -0.114078 -0.064997
vn 0.991343 -0.114078 -0.064997
vn 0.991343 -0.114078 -0.064997
vn 0.991343 -0.114078 -0.064997
vn -0.000000 -0.996036 -0.088955
vn -0.000000 -0.996036 -0.088955
vn -0.000000 -0.996036 -0.088955
vn -0.000000 -0.996036 -0.088955
vn -0.995654 -0.093130 0.000000
vn -0.995654 -0.093130 0.000000
vn -0.995654 -0.093130 0.000000
vn -0.995654 -0.093130 0.000000
vn 0.996570 -0.082755 -0.000000
vn 0.996570 -0.082755 -0.000000
vn 0.996570 -0.082755 -0.000000
vn 0.996570 -0.082755 -0.000000
vn -0.000000 -0.094421 -0.995532
vn -0.000000 -0.094421 -0.995532
vn -0.000000 -0.047263 -0.998882
vn -0.000000 -0.047263 -0.998882
vn 0.000000 1.000000 0.000000
vn 0.000000 1.000000 0.000000
vn 0.000000 1.000000 0.000000
vn 0.000000 1.000000 0.000000
vn 0.000000 0.021271 0.999774
vn 0.000000 0.021271 0.999774
vn 0.000000 0.042533 0.999095
vn 0.000000 0.042533 0.999095
vn 0.000000 -1.000000 0.000000
vn 0.000000 -1.000000 0.000000
vn 0.000000 -1.000000 0.000000
vn 0.000000 -1.000000 0.000000
vn -0.999599 -0.028327 0.000000
vn -0.999900 -0.014165 0.000000
vn -0.999599 -0.028327 0.000000
vn -0.999900 -0.014165 0.000000
vn 0.999599 -0.028327 -0.000000
vn 0.999599 -0.028327 -0.000000
vn 0.999900 -0.014165 -0.000000
vn 0.999900 -0.014165 -0.000000
vn -0.000000 -0.047263 -0.998882
vn -0.000000 -0.047263 -0.998882
vn -0.000000 0.000000 -1.000000
vn -0.000000 0.000000 -1.000000
vn -0.999900 -0.014165 0.000000
vn -0.999900 -0.014165 0.000000
vn -1.000000 0.000000 0.000000
vn -1.000000 0.000000 0.000000
vn 0.000000 0.021271 0.999774
vn 0.000000 0.021271 0.999774
vn 0.000000 0.000000 1.000000
vn 0.000000 0.000000 1.000000
vn 0.999900 -0.014165 -0.000000
vn 0.999900 -0.014165 -0.000000
vn 1.000000 0.000000 -0.000000
vn 1.000000 0.000000 -0.000000
vn -0.000000 0.049711 -0.998764
vn -0.000000 0.099299 -0.995058
vn -0.000000 0.049711 -0.998764
vn -0.000000 0.099299 -0.995058
vn -0.291063 0.926821 -0.237244
vn -0.291063 0.926821 -0.237244
vn -0.291063 0.926821 -0.237244
vn -0.291063 0.926821 -0.237244
vn 0.000000 -0.075390 0.997154
vn 0.000000 -0.075390 0.997154
vn 0.000000 -0.150352 0.988633
vn 0.000000 -0.150352 0.988633
vn 0.000000 -1.000000 0.000000
vn 0.000000 -1.000000 0.000000
vn 0.000000 -1.000000 0.000000
vn 0.000000 -1.000000 0.000000
vn -0.999904 0.013868 0.000000
vn -0.999904 0.013868 0.000000
vn -0.999615 0.027734 0.000000
vn -0.999615 0.027734 0.000000
vn 0.999113 -0.042107 -0.000000
vn 0.996454 -0.084140 -0.000000
vn 0.999113 -0.042107 -0.000000
vn 0.996454 -0.084140 -0.000000
vn -0.000740 -0.131526 -0.991312
vn -0.000000 0.049711 -0.998764
vn -0.000740 -0.131526 -0.991312
vn -0.000000 0.049711 -0.998764
vn -0.998898 -0.046562 0.005856
vn -0.999904 0.013868 0.000000
vn -0.998898 -0.046562 0.005856
vn -0.999904 0.013868 0.000000
vn 0.000000 -0.075390 0.997154
vn 0.001141 0.128933 0.991653
vn 0.000000 -0.075390 0.997154
vn 0.001141 0.128933 0.991653
vn 0.999113 -0.042107 -0.000000
vn 0.999015 0.044019 -0.005536
vn 0.999113 -0.042107 -0.000000
vn 0.999015 0.044019 -0.005536
vn -0.001466 -0.260768 -0.965401
vn -0.000740 -0.131526 -0.991312
vn -0.001466 -0.260768 -0.965401
vn -0.000740 -0.131526 -0.991312
vn -0.995595 -0.093022 0.011699
vn -0.998898 -0.046562 0.005856
vn -0.995595 -0.093022 0.011699
vn -0.998898 -0.046562 0.005856
vn 0.999015 0.044019 -0.005536
vn 0.999015 0.044019 -0.005536
vn 0.996063 0.087951 -0.011061
vn 0.996063 0.087951 -0.011061
vn 0.001141 0.128933 0.991653
vn 0.001141 0.128933 0.991653
vn 0.002263 0.255713 0.966750
vn 0.002263 0.255713 0.966750
vn -0.000000 0.099299 -0.995058
vn -0.000000 0.099299 -0.995058
vn -0.000000 0.049711 -0.998764
vn -0.000000 0.049711 -0.998764
vn 0.291065 0.926821 -0.237243
vn 0.291065 0.926821 -0.237243
vn 0.291065 0.926821 -0.237243
vn 0.291065 0.926821 -0.237243
vn 0.000000 -0.075390 0.997154
vn 0.000000 -0.150351 0.988633
vn 0.000000 -0.075390 0.997154
vn 0.000000 -0.150351 0.988633
vn 0.000000 -1.000000 0.000000
vn 0.000000 -1.000000 0.000000
vn 0.000000 -1.000000 0.000000
vn 0.000000 -1.000000 0.000000
vn 0.999615 0.027734 -0.000000
vn 0.999904 0.013868 -0.000000
vn 0.999615 0.027734 -0.000000
vn 0.999904 0.013868 -0.000000
vn -0.996454 -0.084140 0.000000
vn -0.996454 -0.084140 0.000000
vn -0.999113 -0.042107 0.000000
vn -0.999113 -0.042107 0.000000
vn 0.000740 -0.131526 -0.991312
vn 0.000740 -0.131526 -0.991312
vn -0.000000 0.049711 -0.998764
vn -0.000000 0.049711 -0.998764
vn 0.998898 -0.046562 0.005856
vn 0.998898 -0.046562 0.005856
vn 0.999904 0.013868 -0.000000
vn 0.999904 0.013868 -0.000000
vn 0.000000 -0.075390 0.997154
vn 0.000000 -0.075390 0.997154
vn -0.001141 0.128933 0.991653
vn -0.001141 0.128933 0.991653
vn -0.999113 -0.042107 0.000000
vn -0.999113 -0.042107 0.000000
vn -0.999015 0.044019 -0.005536
vn -0.999015 0.044019 -0.005536
vn 0.001466 -0.260767 -0.965401
vn 0.001466 -0.260767 -0.965401
vn 0.000740 -0.131526 -0.991312
vn 0.000740 -0.131526 -0.991312
vn 0.995595 -0.093021 0.011699
vn 0.995595 -0.093021 0.011699
vn 0.998898 -0.046562 0.005856
vn 0.998898 -0.046562 0.005856
vn -0.996063 0.087951 -0.011061
vn -0.999015 0.044019 -0.005536
vn -0.996063 0.087951 -0.011061
vn -0.999015 0.044019 -0.005536
vn -0.001141 0.128933 0.991653
vn -0.002263 0.255713 0.966750
vn -0.001141 0.128933 0.991653
vn -0.002263 0.255713 0.966750
s 1
g SM_Chair_06
f 25/2/1 27/3/2 26/1/3
f 26/1/3 27/3/2 28/4/4
s 2
f 30/5/5 27/3/6 29/6/7
f 29/6/7 27/3/6 25/2/8
s 3
f 34/8/9 31/9/10 33/7/11
f 33/7/11 31/9/10 32/10/12
s 4
f 36/12/13 33/7/14 35/11/15
f 35/11/15 33/7/14 32/10/16
s 5
f 39/13/17 40/14/18 38/16/19
f 38/16/19 40/14/18 37/15/20
s 6
f 42/17/21 41/18/22 40/14/23
f 40/14/23 41/18/22 37/15/24
s 7
f 46/20/25 43/21/26 45/19/27
f 45/19/27 43/21/26 44/22/28
s 8
f 48/23/29 45/19/30 47/24/31
f 47/24/31 45/19/30 44/22/32
s 9
f 5/25/33 23/26/34 6/28/35
f 6/28/35 23/26/34 20/27/36
s 10
f 17/30/37 22/31/38 11/29/39
f 11/29/39 22/31/38 12/32/40
s 11
f 16/33/41 7/34/42 14/36/43
f 14/36/43 7/34/42 8/35/44
s 12
f 13/37/45 9/38/46 21/40/47
f 21/40/47 9/38/46 10/39/48
s 13
f 1/42/49 25/43/50 8/41/51
f 8/41/51 25/43/50 26/44/52
s 14
f 27/46/53 15/47/54 28/45/55
f 28/45/55 15/47/54 14/48/56
s 15
f 26/50/57 28/51/58 8/49/59
f 8/49/59 28/51/58 14/52/60
s 16
f 29/54/61 9/55/62 30/53/63
f 30/53/63 9/55/62 13/56/64
s 17
f 27/58/65 30/59/66 15/57/67
f 15/57/67 30/59/66 13/60/68
s 18
f 31/61/69 11/62/70 32/64/71
f 32/64/71 11/62/70 2/63/72
s 19
f 17/65/73 34/66/74 18/68/75
f 18/68/75 34/66/74 33/67/76
s 20
f 17/70/77 11/71/78 34/69/79
f 34/69/79 11/71/78 31/72/80
s 21
f 2/73/81 7/74/82 32/76/83
f 32/76/83 7/74/82 35/75/84
s 22
f 16/78/85 36/79/86 7/77/87
f 7/77/87 36/79/86 35/80/88
s 23
f 16/82/89 18/83/90 36/81/91
f 36/81/91 18/83/90 33/84/92
s 24
f 3/85/93 6/86/94 37/88/95
f 37/88/95 6/86/94 38/87/96
s 25
f 20/90/97 39/91/98 6/89/99
f 6/89/99 39/91/98 38/92/100
s 26
f 20/94/101 19/95/102 39/93/103
f 39/93/103 19/95/102 40/96/104
s 27
f 3/98/105 37/99/106 10/97/107
f 10/97/107 37/99/106 41/100/108
s 28
f 21/102/109 42/103/110 19/101/111
f 19/101/111 42/103/110 40/104/112
s 29
f 21/106/113 10/107/114 42/105/115
f 42/105/115 10/107/114 41/108/116
s 30
f 4/110/117 44/111/118 5/109/119
f 5/109/119 44/111/118 43/112/120
s 31
f 45/113/121 24/114/122 46/116/123
f 46/116/123 24/114/122 23/115/124
s 32
f 23/118/125 5/119/126 46/117/127
f 46/117/127 5/119/126 43/120/128
s 33
f 4/122/129 12/123/130 44/121/131
f 44/121/131 12/123/130 47/124/132
s 34
f 47/125/133 12/126/134 48/128/135
f 48/128/135 12/126/134 22/127/136
s 35
f 22/130/137 24/131/138 48/129/139
f 48/129/139 24/131/138 45/132/140
s off
f 15/133/141 49/134/142 14/36/143
f 49/135/144 15/136/145 13/37/146
f 50/137/147 17/30/148 18/138/149
f 16/33/150 50/139/151 18/140/152
f 51/141/153 19/142/154 20/27/155
f 51/143/156 21/40/157 19/144/158
f 52/145/159 23/26/160 24/146/161
f 52/147/162 24/148/163 22/31/164
s 36
f 23/26/165 52/145/166 20/27/167
f 20/27/167 52/145/166 51/141/168
s 37
f 50/137/169 52/147/170 17/30/171
f 17/30/171 52/147/170 22/31/172
s 38
f 49/134/173 50/139/174 14/36/175
f 14/36/175 50/139/174 16/33/176
s 39
f 49/135/177 13/37/178 51/143/179
f 51/143/179 13/37/178 21/40/180
s 40
f 51/149/181 52/150/182 64/152/183
f 64/152/183 52/150/182 63/151/184
s 41
f 52/153/185 50/154/186 63/156/187
f 63/156/187 50/154/186 62/155/188
s 42
f 61/157/189 62/158/190 49/160/191
f 49/160/191 62/158/190 50/159/192
s 43
f 64/161/193 61/162/194 51/164/195
f 51/164/195 61/162/194 49/163/196
s 44
f 4/122/197 2/63/198 12/123/199
f 12/123/199 2/63/198 11/62/200
s 45
f 7/74/201 2/73/202 8/41/203
f 8/41/203 2/73/202 1/42/204
s 46
f 10/97/205 9/165/206 3/98/207
f 3/98/207 9/165/206 1/166/208
s 47
f 6/86/209 3/85/210 5/109/211
f 5/109/211 3/85/210 4/110/212
s 48
f 4/167/213 3/168/214 56/170/215
f 56/170/215 3/168/214 55/169/216
s 49
f 3/172/217 1/173/218 55/171/219
f 55/171/219 1/173/218 53/174/220
s 50
f 53/175/221 1/176/222 54/178/223
f 54/178/223 1/176/222 2/177/224
s 51
f 4/180/225 56/181/226 2/179/227
f 2/179/227 56/181/226 54/182/228
s 52
f 1/166/229 9/165/230 25/183/231
f 25/183/231 9/165/230 29/184/232
s 53
f 59/185/233 60/186/234 54/188/235
f 54/188/235 60/186/234 53/187/236
s 54
f 54/189/237 56/190/238 59/192/239
f 59/192/239 56/190/238 58/191/240
s 55
f 57/193/241 58/194/242 55/196/243
f 55/196/243 58/194/242 56/195/244
s 56
f 55/197/245 53/198/246 57/200/247
f 57/200/247 53/198/246 60/199/248
s 57
f 61/201/249 64/202/250 62/204/251
f 62/204/251 64/202/250 63/203/252
s 58
f 60/205/253 59/206/254 57/208/255
f 57/208/255 59/206/254 58/207/256
s 59
f 65/209/257 66/210/258 67/212/259
f 67/212/259 66/210/258 68/211/260
s 60
f 73/213/261 74/214/262 76/216/263
f 76/216/263 74/214/262 75/215/264
s 61
f 69/217/265 70/218/266 71/220/267
f 71/220/267 70/218/266 72/219/268
s 62
f 71/221/269 72/222/270 65/224/271
f 65/224/271 72/222/270 66/223/272
s 63
f 72/226/273 70/227/274 66/225/275
f 66/225/275 70/227/274 68/228/276
s 64
f 71/229/277 65/230/278 69/232/279
f 69/232/279 65/230/278 67/231/280
s 65
f 67/212/281 68/211/282 73/234/283
f 73/234/283 68/211/282 74/233/284
s 66
f 68/228/285 70/227/286 74/236/287
f 74/236/287 70/227/286 75/235/288
s 67
f 70/218/289 69/217/290 75/238/291
f 75/238/291 69/217/290 76/237/292
s 68
f 69/232/293 67/231/294 76/240/295
f 76/240/295 67/231/294 73/239/296
s 69
f 91/241/297 84/242/298 128/244/299
f 128/244/299 84/242/298 129/243/300
s 70
f 89/245/301 110/246/302 78/248/303
f 78/248/303 110/246/302 109/247/304
s 71
f 112/249/305 111/250/306 85/252/307
f 85/252/307 111/250/306 82/251/308
s 72
f 109/253/309 112/254/310 77/256/311
f 77/256/311 112/254/310 86/255/312
s 73
f 81/257/313 111/258/314 90/260/315
f 90/260/315 111/258/314 110/259/316
s off
f 78/248/317 109/247/318 115/261/319
f 109/253/320 77/256/321 115/262/322
f 81/257/323 121/263/324 111/258/325
f 111/250/326 121/264/327 82/251/328
f 85/252/329 116/265/330 112/249/331
f 112/254/332 116/266/333 86/255/334
f 90/260/335 110/259/336 124/267/337
f 110/246/338 89/245/339 124/268/340
s 74
f 136/270/341 115/271/342 135/269/343
f 135/269/343 115/271/342 77/272/344
s 75
f 86/273/345 134/274/346 77/272/347
f 77/272/347 134/274/346 135/269/348
s 76
f 133/275/349 134/274/350 116/276/351
f 116/276/351 134/274/350 86/273/352
s 77
f 132/277/353 133/275/354 85/278/355
f 85/278/355 133/275/354 116/276/356
s 78
f 82/279/357 131/280/358 85/278/359
f 85/278/359 131/280/358 132/277/360
s 79
f 130/282/361 131/280/362 121/281/363
f 121/281/363 131/280/362 82/279/364
s 80
f 130/282/365 121/281/366 129/243/367
f 129/243/367 121/281/366 81/283/368
s 81
f 128/244/369 129/243/370 90/284/371
f 90/284/371 129/243/370 81/283/372
s 82
f 127/286/373 128/244/374 124/285/375
f 124/285/375 128/244/374 90/284/376
s 83
f 127/286/377 124/285/378 126/287/379
f 126/287/379 124/285/378 89/288/380
s 84
f 125/289/381 126/287/382 78/290/383
f 78/290/383 126/287/382 89/288/384
s 85
f 115/271/385 136/270/386 78/290/387
f 78/290/387 136/270/386 125/289/388
s 86
f 87/291/389 80/292/390 134/274/391
f 134/274/391 80/292/390 135/269/392
s 87
f 80/292/393 87/291/394 100/294/395
f 100/294/395 87/291/394 98/293/396
s 88
f 104/296/397 102/297/398 106/295/399
f 106/295/399 102/297/398 108/298/400
s 89
f 135/269/401 80/292/402 136/270/403
f 136/270/403 80/292/402 114/299/404
s 90
f 114/299/405 80/292/406 113/300/407
f 113/300/407 80/292/406 100/294/408
s off
f 113/300/409 107/301/410 99/302/411
s 91
f 99/302/412 79/303/413 113/300/414
f 113/300/414 79/303/413 114/299/415
s 92
f 114/299/416 79/303/417 136/270/418
f 136/270/418 79/303/417 125/289/419
s off
f 107/301/420 113/300/421 100/294/422
s 93
f 117/304/423 87/291/424 133/275/425
f 133/275/425 87/291/424 134/274/426
s 94
f 98/293/427 87/291/428 118/305/429
f 118/305/429 87/291/428 117/304/430
s 95
f 132/277/431 88/306/432 133/275/433
f 133/275/433 88/306/432 117/304/434
s 96
f 120/307/435 130/282/436 84/242/437
f 84/242/437 130/282/436 129/243/438
s 97
f 130/282/439 120/307/440 131/280/441
f 131/280/441 120/307/440 83/308/442
s 98
f 83/308/443 88/306/444 131/280/445
f 131/280/445 88/306/444 132/277/446
s 99
f 95/309/447 97/310/448 83/308/449
f 83/308/449 97/310/448 88/306/450
s 100
f 117/304/451 88/306/452 118/305/453
f 118/305/453 88/306/452 97/310/454
s 101
f 95/309/455 83/308/456 119/311/457
f 119/311/457 83/308/456 120/307/458
s 102
f 106/295/459 108/298/460 105/312/461
f 105/312/461 108/298/460 107/301/462
s 103
f 105/312/463 107/301/464 98/293/465
f 98/293/465 107/301/464 100/294/466
s off
f 118/305/467 105/312/468 98/293/469
f 105/312/470 118/305/471 97/310/472
s 104
f 79/303/473 92/313/474 125/289/475
f 125/289/475 92/313/474 126/287/476
s 105
f 93/314/477 96/315/478 91/241/479
f 91/241/479 96/315/478 84/242/480
s 106
f 99/302/481 94/316/482 79/303/483
f 79/303/483 94/316/482 92/313/484
s 107
f 126/287/485 92/313/486 127/286/487
f 127/286/487 92/313/486 123/317/488
s 108
f 123/317/489 92/313/490 122/318/491
f 122/318/491 92/313/490 94/316/492
s off
f 122/318/493 101/319/494 93/314/495
s 109
f 93/314/496 91/241/497 122/318/498
f 122/318/498 91/241/497 123/317/499
s 110
f 123/317/500 91/241/501 127/286/502
f 127/286/502 91/241/501 128/244/503
s 111
f 102/297/504 101/319/505 108/298/506
f 108/298/506 101/319/505 107/301/507
s 112
f 107/301/508 101/319/509 99/302/510
f 99/302/510 101/319/509 94/316/511
s 113
f 96/315/512 119/311/513 84/242/514
f 84/242/514 119/311/513 120/307/515
s 114
f 104/296/516 103/320/517 102/297/518
f 102/297/518 103/320/517 101/319/519
s 115
f 93/314/520 101/319/521 96/315/522
f 96/315/522 101/319/521 103/320/523
s off
f 103/320/524 119/311/525 96/315/526
s 116
f 104/296/527 106/295/528 103/320/529
f 103/320/529 106/295/528 105/312/530
s 117
f 95/309/531 103/320/532 97/310/533
f 97/310/533 103/320/532 105/312/534
s off
f 119/311/535 103/320/536 95/309/537
f 101/319/538 122/318/539 94/316/540
s 118
f 147/321/541 142/322/542 168/324/543
f 168/324/543 142/322/542 167/323/544
s 119
f 216/325/545 217/326/546 158/328/547
f 158/328/547 217/326/546 160/327/548
s 120
f 223/330/549 208/331/550 222/329/551
f 222/329/551 208/331/550 207/332/552
s 121
f 187/334/553 189/335/554 188/333/555
f 188/333/555 189/335/554 190/336/556
s 122
f 191/337/557 188/333/558 192/338/559
f 192/338/559 188/333/558 190/336/560
s 123
f 193/340/561 195/341/562 194/339/563
f 194/339/563 195/341/562 196/342/564
s 124
f 210/343/565 211/344/566 196/342/567
f 196/342/567 211/344/566 194/339/568
s 125
f 199/346/569 201/347/570 200/345/571
f 200/345/571 201/347/570 202/348/572
s 126
f 203/349/573 204/350/574 202/348/575
f 202/348/575 204/350/574 200/345/576
s 127
f 205/351/577 204/350/578 206/352/579
f 206/352/579 204/350/578 203/349/580
s 128
f 201/347/581 199/346/582 198/354/583
f 198/354/583 199/346/582 197/353/584
s 129
f 185/355/585 205/351/586 186/356/587
f 186/356/587 205/351/586 206/352/588
s 130
f 187/334/589 207/332/590 189/335/591
f 189/335/591 207/332/590 208/331/592
s 131
f 195/341/593 193/340/594 192/338/595
f 192/338/595 193/340/594 191/337/596
s 132
f 224/358/597 140/359/598 223/357/599
f 223/357/599 140/359/598 208/360/600
s 133
f 167/323/601 181/361/602 188/333/603
f 188/333/603 181/361/602 187/334/604
s off
f 140/362/605 190/363/606 189/364/607
s 134
f 168/324/608 167/323/609 191/337/610
f 191/337/610 167/323/609 188/333/611
s 135
f 140/362/612 146/365/613 190/363/614
f 190/363/614 146/365/613 192/366/615
s 136
f 169/367/616 184/368/617 194/339/618
f 194/339/618 184/368/617 193/340/619
s off
f 146/369/620 196/370/621 195/371/622
s 137
f 212/372/623 169/367/624 211/344/625
f 211/344/625 169/367/624 194/339/626
s 138
f 171/373/627 175/374/628 200/345/629
f 200/345/629 175/374/628 199/346/630
s off
f 137/375/631 202/376/632 201/377/633
s 139
f 172/378/634 171/373/635 204/350/636
f 204/350/636 171/373/635 200/345/637
s 140
f 143/379/638 203/380/639 137/375/640
f 137/375/640 203/380/639 202/376/641
s 141
f 172/378/642 204/350/643 176/381/644
f 176/381/644 204/350/643 205/351/645
s off
f 143/379/646 206/382/647 203/380/648
s 142
f 175/374/649 170/383/650 199/346/651
f 199/346/651 170/383/650 197/353/652
s off
f 137/384/653 201/385/654 198/386/655
s 143
f 185/355/656 165/387/657 205/351/658
f 205/351/658 165/387/657 176/381/659
s off
f 143/388/660 186/389/661 206/390/662
s 144
f 166/391/663 207/332/664 181/361/665
f 181/361/665 207/332/664 187/334/666
s off
f 140/359/667 189/392/668 208/360/669
s 145
f 168/324/670 191/337/671 184/368/672
f 184/368/672 191/337/671 193/340/673
s off
f 146/365/674 195/393/675 192/366/676
s 146
f 221/394/677 222/329/678 166/391/679
f 166/391/679 222/329/678 207/332/680
s 147
f 196/370/681 146/369/682 210/395/683
f 210/395/683 146/369/682 209/396/684
s 148
f 174/398/685 175/374/686 139/397/687
f 139/397/687 175/374/686 171/373/688
s 149
f 173/400/689 174/398/690 156/399/691
f 156/399/691 174/398/690 139/397/692
s off
f 163/401/693 173/400/694 156/399/695
s 150
f 155/402/696 138/403/697 173/400/698
f 173/400/698 138/403/697 174/398/699
s 151
f 175/374/700 174/398/701 170/383/702
f 170/383/702 174/398/701 138/403/703
s off
f 173/400/704 163/401/705 155/402/706
s 152
f 177/404/707 144/405/708 176/381/709
f 176/381/709 144/405/708 172/378/710
s 153
f 145/406/711 177/404/712 165/387/713
f 165/387/713 177/404/712 176/381/714
s 154
f 177/404/715 145/406/716 178/407/717
f 178/407/717 145/406/716 153/408/718
s 155
f 172/378/719 144/405/720 171/373/721
f 171/373/721 144/405/720 139/397/722
s 156
f 164/409/723 163/401/724 162/411/725
f 162/411/725 163/401/724 161/410/726
s 157
f 156/399/727 139/397/728 154/412/729
f 154/412/729 139/397/728 144/405/730
s 158
f 161/410/731 163/401/732 154/412/733
f 154/412/733 163/401/732 156/399/734
s 159
f 144/405/735 177/404/736 154/412/737
f 154/412/737 177/404/736 178/407/738
s off
f 178/407/739 161/410/740 154/412/741
f 161/410/742 178/407/743 153/408/744
s 160
f 141/413/745 220/414/746 166/391/747
f 166/391/747 220/414/746 221/394/748
s 161
f 167/323/749 142/322/750 181/361/751
f 181/361/751 142/322/750 180/415/752
s 162
f 180/415/753 141/413/754 181/361/755
f 181/361/755 141/413/754 166/391/756
s 163
f 219/417/757 220/414/758 151/416/759
f 151/416/759 220/414/758 141/413/760
s 164
f 151/416/761 141/413/762 179/418/763
f 179/418/763 141/413/762 180/415/764
s 165
f 169/367/765 148/419/766 184/368/767
f 184/368/767 148/419/766 183/420/768
s 166
f 183/420/769 148/419/770 182/421/771
f 182/421/771 148/419/770 150/422/772
s off
f 182/421/773 157/423/774 149/424/775
s 167
f 147/321/776 183/420/777 149/424/778
f 149/424/778 183/420/777 182/421/779
s 168
f 183/420/780 147/321/781 184/368/782
f 184/368/782 147/321/781 168/324/783
s 169
f 212/372/784 213/425/785 169/367/786
f 169/367/786 213/425/785 148/419/787
s 170
f 214/426/788 150/422/789 213/425/790
f 213/425/790 150/422/789 148/419/791
s 171
f 216/325/792 158/328/793 215/427/794
f 215/427/794 158/328/793 157/423/795
s 172
f 215/427/796 157/423/797 214/426/798
f 214/426/798 157/423/797 150/422/799
s 173
f 147/321/800 149/424/801 142/322/802
f 142/322/802 149/424/801 152/428/803
s 174
f 152/428/804 179/418/805 142/322/806
f 142/322/806 179/418/805 180/415/807
s 175
f 159/429/808 157/423/809 160/327/810
f 160/327/810 157/423/809 158/328/811
s 176
f 149/424/812 157/423/813 152/428/814
f 152/428/814 157/423/813 159/429/815
s off
f 159/429/816 179/418/817 152/428/818
s 177
f 217/326/819 218/430/820 160/327/821
f 160/327/821 218/430/820 159/429/822
s 178
f 218/430/823 219/417/824 159/429/825
f 159/429/825 219/417/824 151/416/826
s off
f 179/418/827 159/429/828 151/416/829
f 157/423/830 182/421/831 150/422/832
s 179
f 198/386/833 210/395/834 137/384/835
f 137/384/835 210/395/834 209/396/836
s 180
f 198/354/837 197/353/838 210/343/839
f 210/343/839 197/353/838 211/344/840
s 181
f 212/372/841 211/344/842 170/383/843
f 170/383/843 211/344/842 197/353/844
s 182
f 138/403/845 213/425/846 170/383/847
f 170/383/847 213/425/846 212/372/848
s 183
f 155/402/849 214/426/850 138/403/851
f 138/403/851 214/426/850 213/425/852
s 184
f 155/402/853 163/401/854 214/426/855
f 214/426/855 163/401/854 215/427/856
s 185
f 163/401/857 164/409/858 215/427/859
f 215/427/859 164/409/858 216/325/860
s 186
f 164/409/861 162/411/862 216/325/863
f 216/325/863 162/411/862 217/326/864
s 187
f 217/326/865 162/411/866 218/430/867
f 218/430/867 162/411/866 161/410/868
s 188
f 218/430/869 161/410/870 219/417/871
f 219/417/871 161/410/870 153/408/872
s 189
f 220/414/873 219/417/874 145/406/875
f 145/406/875 219/417/874 153/408/876
s 190
f 221/394/877 220/414/878 165/387/879
f 165/387/879 220/414/878 145/406/880
s 191
f 221/394/881 165/387/882 222/329/883
f 222/329/883 165/387/882 185/355/884
s 192
f 186/356/885 223/330/886 185/355/887
f 185/355/887 223/330/886 222/329/888
s 193
f 186/389/889 143/388/890 223/357/891
f 223/357/891 143/388/890 224/358/892
s 194
f 229/431/893 227/432/894 236/434/895
f 236/434/895 227/432/894 235/433/896
s 195
f 231/435/897 225/436/898 229/438/899
f 229/438/899 225/436/898 227/437/900
s 196
f 231/439/901 229/440/902 240/442/903
f 240/442/903 229/440/902 236/441/904
s 197
f 228/444/905 226/445/906 230/443/907
f 230/443/907 226/445/906 232/446/908
s 198
f 235/447/909 227/448/910 237/450/911
f 237/450/911 227/448/910 225/449/912
s 199
f 233/452/913 238/453/914 228/451/915
f 228/451/915 238/453/914 226/454/916
s 200
f 230/455/917 234/456/918 228/458/919
f 228/458/919 234/456/918 233/457/920
s 201
f 232/459/921 239/460/922 230/462/923
f 230/462/923 239/460/922 234/461/924
s 202
f 231/439/925 240/442/926 232/459/927
f 232/459/927 240/442/926 239/460/928
s 203
f 232/463/929 226/464/930 231/466/931
f 231/466/931 226/464/930 225/465/932
s 204
f 225/449/933 226/454/934 237/450/935
f 237/450/935 226/454/934 238/453/936
s 205
f 245/467/937 246/468/938 248/470/939
f 248/470/939 246/468/938 247/469/940
s 206
f 247/471/941 246/472/942 244/474/943
f 244/474/943 246/472/942 241/473/944
s 207
f 242/476/945 243/477/946 241/475/947
f 241/475/947 243/477/946 244/478/948
s 208
f 239/480/949 242/481/950 234/479/951
f 234/479/951 242/481/950 241/482/952
s 209
f 239/483/953 240/484/954 242/486/955
f 242/486/955 240/484/954 243/485/956
s 210
f 240/487/957 236/488/958 243/490/959
f 243/490/959 236/488/958 244/489/960
s 211
f 238/491/961 233/492/962 245/494/963
f 245/494/963 233/492/962 246/493/964
s 212
f 237/496/965 248/497/966 235/495/967
f 235/495/967 248/497/966 247/498/968
s 213
f 237/499/969 238/500/970 248/502/971
f 248/502/971 238/500/970 245/501/972
s 214
f 234/479/973 241/482/974 233/492/975
f 233/492/975 241/482/974 246/493/976
s 215
f 236/488/977 235/495/978 244/489/979
f 244/489/979 235/495/978 247/498/980
s 216
f 249/503/981 250/504/982 251/506/983
f 251/506/983 250/504/982 252/505/984
s 217
f 257/507/985 258/508/986 260/510/987
f 260/510/987 258/508/986 259/509/988
s 218
f 253/511/989 254/512/990 255/514/991
f 255/514/991 254/512/990 256/513/992
s 219
f 255/515/993 256/516/994 249/518/995
f 249/518/995 256/516/994 250/517/996
s 220
f 256/520/997 254/521/998 250/519/999
f 250/519/999 254/521/998 252/522/1000
s 221
f 255/523/1001 249/524/1002 253/526/1003
f 253/526/1003 249/524/1002 251/525/1004
s 222
f 251/506/1005 252/505/1006 257/528/1007
f 257/528/1007 252/505/1006 258/527/1008
s 223
f 252/522/1009 254/521/1010 258/530/1011
f 258/530/1011 254/521/1010 259/529/1012
s 224
f 254/512/1013 253/511/1014 259/532/1015
f 259/532/1015 253/511/1014 260/531/1016
s 225
f 253/526/1017 251/525/1018 260/534/1019
f 260/534/1019 251/525/1018 257/533/1020
s 226
f 263/536/1021 261/537/1022 264/535/1023
f 264/535/1023 261/537/1022 262/538/1024
s 227
f 273/540/1025 274/541/1026 275/539/1027
f 275/539/1027 274/541/1026 276/542/1028
s 228
f 265/543/1029 266/544/1030 267/546/1031
f 267/546/1031 266/544/1030 268/545/1032
s 229
f 261/547/1033 267/548/1034 262/550/1035
f 262/550/1035 267/548/1034 268/549/1036
s 230
f 266/552/1037 264/553/1038 268/551/1039
f 268/551/1039 264/553/1038 262/554/1040
s 231
f 265/556/1041 267/557/1042 263/555/1043
f 263/555/1043 267/557/1042 261/558/1044
s 232
f 269/559/1045 263/536/1046 270/560/1047
f 270/560/1047 263/536/1046 264/535/1048
s 233
f 270/561/1049 264/553/1050 271/562/1051
f 271/562/1051 264/553/1050 266/552/1052
s 234
f 265/543/1053 272/563/1054 266/544/1055
f 266/544/1055 272/563/1054 271/564/1056
s 235
f 263/555/1057 269/565/1058 265/556/1059
f 265/556/1059 269/565/1058 272/566/1060
s 236
f 273/567/1061 269/559/1062 274/568/1063
f 274/568/1063 269/559/1062 270/560/1064
s 237
f 274/569/1065 270/561/1066 276/570/1067
f 276/570/1067 270/561/1066 271/562/1068
s 238
f 272/566/1069 269/565/1070 275/571/1071
f 275/571/1071 269/565/1070 273/572/1072
s 239
f 271/564/1073 272/563/1074 276/574/1075
f 276/574/1075 272/563/1074 275/573/1076
s 240
f 280/576/1077 279/577/1078 277/575/1079
f 277/575/1079 279/577/1078 278/578/1080
s 241
f 284/580/1081 283/581/1082 281/579/1083
f 281/579/1083 283/581/1082 282/582/1084
s 242
f 285/583/1085 288/584/1086 286/586/1087
f 286/586/1087 288/584/1086 287/585/1088
s 243
f 279/587/1089 280/588/1090 288/590/1091
f 288/590/1091 280/588/1090 287/589/1092
s 244
f 280/592/1093 277/593/1094 287/591/1095
f 287/591/1095 277/593/1094 286/594/1096
s 245
f 279/596/1097 288/597/1098 278/595/1099
f 278/595/1099 288/597/1098 285/598/1100
s 246
f 289/599/1101 290/600/1102 278/578/1103
f 278/578/1103 290/600/1102 277/575/1104
s 247
f 290/601/1105 291/602/1106 277/593/1107
f 277/593/1107 291/602/1106 286/594/1108
s 248
f 285/583/1109 286/586/1110 292/604/1111
f 292/604/1111 286/586/1110 291/603/1112
s 249
f 278/595/1113 285/598/1114 289/606/1115
f 289/606/1115 285/598/1114 292/605/1116
s 250
f 282/607/1117 283/608/1118 289/599/1119
f 289/599/1119 283/608/1118 290/600/1120
s 251
f 283/609/1121 284/610/1122 290/601/1123
f 290/601/1123 284/610/1122 291/602/1124
s 252
f 282/612/1125 289/606/1126 281/611/1127
f 281/611/1127 289/606/1126 292/605/1128
s 253
f 291/603/1129 284/613/1130 292/604/1131
f 292/604/1131 284/613/1130 281/614/1132
