# This file uses feet as units for non-parametric coordinates.

g default
v 0.310087 4.306381 22.806036
v 0.310089 4.306381 -22.887432
v 0.310087 35.332924 22.806036
v 0.310089 35.332924 -22.887432
v 0.562277 4.306376 22.806036
v 0.562279 4.306376 -22.887432
v 0.562284 35.332920 22.806036
v 0.562279 35.332920 -22.887432
v 0.809067 4.429502 22.846752
v 0.809067 0.000000 22.846737
v -0.000015 -0.000002 22.846737
v -0.000015 4.429502 22.846752
v 0.809082 4.429506 -22.846737
v 0.000000 4.429506 -22.846737
v 0.000000 0.000004 -22.846737
v 0.809082 0.000004 -22.846737
v 0.809067 38.910049 22.846745
v 0.809067 35.209793 22.846737
v -0.000015 35.209793 22.846737
v -0.000015 38.910049 22.846745
v 0.809082 38.910049 -22.846714
v 0.000000 38.910049 -22.846714
v 0.000000 35.209797 -22.846714
v 0.809082 35.209797 -22.846714
v 0.785908 37.078945 -1.163303
v 0.785908 37.666958 -1.007450
v 0.785908 38.097424 -0.581638
v 0.785908 38.254986 0.000011
v 0.785908 38.097427 0.581676
v 0.785908 37.666958 1.007488
v 0.785908 37.078945 1.163342
v 0.785908 36.490917 1.007488
v 0.785908 36.060452 0.581676
v 0.785912 35.902885 0.000011
v 0.785908 36.060452 -0.581638
v 0.785908 36.490917 -1.007450
v 1.310505 37.078945 -1.099491
v 1.310505 37.634701 -0.952183
v 1.310505 38.041546 -0.549732
v 1.310505 38.190456 0.000011
v 1.310505 38.041550 0.549770
v 1.310505 37.634701 0.952206
v 1.310505 37.078945 1.099514
v 1.310505 36.523174 0.952206
v 1.310505 36.116329 0.549770
v 1.310505 35.967419 0.000011
v 1.310505 36.116329 -0.549732
v 1.310505 36.523174 -0.952183
vt 0.008654 0.007479
vt 0.995351 0.007479
vt 0.995351 0.670214
vt 0.008654 0.670214
vt 0.675613 0.731663
vt 0.012869 0.731663
vt 0.012869 0.726218
vt 0.675613 0.726218
vt 0.012459 0.694419
vt 0.675195 0.694418
vt 0.675195 0.699864
vt 0.012459 0.699864
vt 0.008654 1.007479
vt 0.995351 1.007479
vt 0.995351 1.670214
vt 0.008654 1.670214
vt 0.294420 0.924961
vt 0.294420 0.905765
vt 0.481987 0.905765
vt 0.481987 0.924961
vt 0.294420 0.929364
vt 0.481987 0.929364
vt 0.481987 0.947469
vt 0.294420 0.947469
vt 0.294420 0.952021
vt 0.481987 0.952021
vt 0.488522 0.929395
vt 0.488522 0.947389
vt 0.281316 0.945251
vt 0.281316 0.927257
vt 0.294420 0.923759
vt 0.481987 0.923759
vt 0.294420 0.928283
vt 0.481987 0.928283
vt 0.284553 0.927257
vt 0.284553 0.945251
vt 0.485028 0.929395
vt 0.485028 0.947389
vt 0.481987 0.948698
vt 0.294420 0.948698
vt 0.679893 0.939077
vt 0.679893 0.924046
vt 0.690757 0.923147
vt 0.690757 0.938178
vt 0.492241 0.939077
vt 0.696951 0.938844
vt 0.696951 0.923812
vt 0.492241 0.924046
vt 0.492241 0.944116
vt 0.492241 0.961530
vt 0.679893 0.944116
vt 0.679893 0.961530
vt 0.492241 0.918906
vt 0.679893 0.918906
vt 0.687434 0.938178
vt 0.687434 0.923147
vt 0.700274 0.938844
vt 0.700274 0.923812
vt 0.679893 0.940793
vt 0.492241 0.940793
vt 0.679893 0.922229
vt 0.492241 0.922229
vt 0.492241 0.946499
vt 0.679893 0.946498
vt 0.822764 0.922355
vt 0.822764 0.917734
vt 0.441349 0.269100
vt 0.446173 0.267807
vt 0.450996 0.269100
vt 0.807695 0.922355
vt 0.802650 0.922355
vt 0.797600 0.922355
vt 0.454527 0.272630
vt 0.787512 0.922355
vt 0.782486 0.922355
vt 0.455820 0.277454
vt 0.772466 0.922355
vt 0.767417 0.922355
vt 0.454527 0.282277
vt 0.817719 0.922355
vt 0.812669 0.922355
vt 0.450996 0.285808
vt 0.797600 0.917734
vt 0.802650 0.917734
vt 0.792627 0.922355
vt 0.782486 0.917734
vt 0.787512 0.917734
vt 0.777513 0.922355
vt 0.767417 0.917734
vt 0.772466 0.917734
vt 0.762444 0.922355
vt 0.812669 0.917734
vt 0.817719 0.917734
vt 0.792627 0.917734
vt 0.446173 0.287101
vt 0.441349 0.285808
vt 0.437819 0.282277
vt 0.436526 0.277454
vt 0.437819 0.272630
vt 0.807695 0.917734
vt 0.777513 0.917734
vt 0.762444 0.917734
vn 1.000000 -0.000000 0.000000
vn 1.000000 -0.000000 0.000000
vn 1.000000 -0.000000 0.000000
vn 1.000000 -0.000000 0.000000
vn 1.000000 -0.000000 0.000000
vn 1.000000 -0.000000 0.000000
vn 0.000000 0.000000 -1.000000
vn 0.000000 0.000000 -1.000000
vn 0.000000 0.000000 -1.000000
vn 0.000000 0.000000 -1.000000
vn 0.000000 0.000000 -1.000000
vn 0.000000 0.000000 -1.000000
vn -0.000000 -0.000000 1.000000
vn -0.000000 -0.000000 1.000000
vn -0.000000 -0.000000 1.000000
vn -0.000000 -0.000000 1.000000
vn -0.000000 -0.000000 1.000000
vn -0.000000 -0.000000 1.000000
vn -1.000000 -0.000000 -0.000000
vn -1.000000 -0.000000 -0.000000
vn -1.000000 -0.000000 -0.000000
vn -1.000000 -0.000000 -0.000000
vn -1.000000 -0.000000 -0.000000
vn -1.000000 -0.000000 -0.000000
vn -0.000000 -0.000003 1.000000
vn -0.000000 -0.000003 1.000000
vn -0.000000 -0.000003 1.000000
vn -0.000000 -0.000003 1.000000
vn -0.000000 -0.000003 1.000000
vn -0.000000 -0.000003 1.000000
vn 1.000000 -0.000000 0.000000
vn 1.000000 -0.000000 0.000000
vn 1.000000 -0.000000 0.000000
vn 1.000000 -0.000000 0.000000
vn 1.000000 -0.000000 0.000000
vn 1.000000 -0.000000 0.000000
vn -1.000000 0.000000 -0.000000
vn -1.000000 0.000000 -0.000000
vn -1.000000 0.000000 -0.000000
vn -1.000000 0.000000 -0.000000
vn -1.000000 0.000000 -0.000000
vn -1.000000 0.000000 -0.000000
vn 0.000000 1.000000 0.000000
vn 0.000000 1.000000 0.000000
vn 0.000000 1.000000 0.000000
vn 0.000000 1.000000 0.000000
vn 0.000000 1.000000 0.000000
vn 0.000000 1.000000 0.000000
vn 0.000000 0.000000 -1.000000
vn 0.000000 0.000000 -1.000000
vn 0.000000 0.000000 -1.000000
vn 0.000000 0.000000 -1.000000
vn 0.000000 0.000000 -1.000000
vn 0.000000 0.000000 -1.000000
vn -0.000000 -1.000000 -0.000000
vn -0.000000 -1.000000 -0.000000
vn -0.000000 -1.000000 -0.000000
vn -0.000000 -1.000000 -0.000000
vn -0.000000 -1.000000 -0.000000
vn -0.000000 -1.000000 -0.000000
vn -0.000000 -0.000002 1.000000
vn -0.000000 -0.000002 1.000000
vn -0.000000 -0.000002 1.000000
vn -0.000000 -0.000002 1.000000
vn -0.000000 -0.000002 1.000000
vn -0.000000 -0.000002 1.000000
vn 1.000000 -0.000001 0.000000
vn 1.000000 -0.000001 0.000000
vn 1.000000 -0.000001 0.000000
vn 1.000000 -0.000001 0.000000
vn 1.000000 -0.000001 0.000000
vn 1.000000 -0.000001 0.000000
vn -1.000000 0.000001 -0.000000
vn -1.000000 0.000001 -0.000000
vn -1.000000 0.000001 -0.000000
vn -1.000000 0.000001 -0.000000
vn -1.000000 0.000001 -0.000000
vn -1.000000 0.000001 -0.000000
vn 0.000000 1.000000 0.000000
vn 0.000000 1.000000 0.000000
vn 0.000000 1.000000 0.000000
vn 0.000000 1.000000 0.000000
vn 0.000000 1.000000 0.000000
vn 0.000000 1.000000 0.000000
vn 0.000000 0.000000 -1.000000
vn 0.000000 0.000000 -1.000000
vn 0.000000 0.000000 -1.000000
vn 0.000000 0.000000 -1.000000
vn 0.000000 0.000000 -1.000000
vn 0.000000 0.000000 -1.000000
vn -0.000000 -1.000000 -0.000000
vn -0.000000 -1.000000 -0.000000
vn -0.000000 -1.000000 -0.000000
vn -0.000000 -1.000000 -0.000000
vn -0.000000 -1.000000 -0.000000
vn -0.000000 -1.000000 -0.000000
vn 0.121083 0.492281 -0.861973
vn 0.120753 0.000003 -0.992683
vn 0.120753 0.000003 -0.992683
vn 0.120753 0.000003 -0.992683
vn 0.121086 0.492282 -0.861973
vn 0.121083 0.492281 -0.861973
vn 0.121741 0.857230 -0.500335
vn 0.121083 0.492281 -0.861973
vn 0.121086 0.492282 -0.861973
vn 0.121086 0.492282 -0.861973
vn 0.121743 0.857231 -0.500333
vn 0.121741 0.857230 -0.500335
vn 0.122079 0.992520 -0.000005
vn 0.121741 0.857230 -0.500335
vn 0.121743 0.857231 -0.500333
vn 0.121743 0.857231 -0.500333
vn 0.122078 0.992520 -0.000004
vn 0.122079 0.992520 -0.000005
vn 0.121743 0.857226 0.500342
vn 0.122079 0.992520 -0.000005
vn 0.122078 0.992520 -0.000004
vn 0.122078 0.992520 -0.000004
vn 0.121746 0.857230 0.500335
vn 0.121743 0.857226 0.500342
vn 0.121106 0.492281 0.861970
vn 0.121743 0.857226 0.500342
vn 0.121746 0.857230 0.500335
vn 0.121746 0.857230 0.500335
vn 0.121108 0.492281 0.861970
vn 0.121106 0.492281 0.861970
vn 0.120782 -0.000003 0.992679
vn 0.121106 0.492281 0.861970
vn 0.121108 0.492281 0.861970
vn 0.121108 0.492281 0.861970
vn 0.120782 -0.000003 0.992679
vn 0.120782 -0.000003 0.992679
vn 0.121108 -0.492274 0.861974
vn 0.120782 -0.000003 0.992679
vn 0.120782 -0.000003 0.992679
vn 0.120782 -0.000003 0.992679
vn 0.121106 -0.492274 0.861974
vn 0.121108 -0.492274 0.861974
vn 0.121746 -0.857229 0.500336
vn 0.121108 -0.492274 0.861974
vn 0.121106 -0.492274 0.861974
vn 0.121106 -0.492274 0.861974
vn 0.121743 -0.857233 0.500330
vn 0.121746 -0.857229 0.500336
vn 0.122079 -0.992520 -0.000002
vn 0.121746 -0.857229 0.500336
vn 0.121743 -0.857233 0.500330
vn 0.121743 -0.857233 0.500330
vn 0.122079 -0.992520 -0.000002
vn 0.122079 -0.992520 -0.000002
vn 0.121743 -0.857230 -0.500336
vn 0.122079 -0.992520 -0.000002
vn 0.122079 -0.992520 -0.000002
vn 0.122079 -0.992520 -0.000002
vn 0.121741 -0.857231 -0.500334
vn 0.121743 -0.857230 -0.500336
vn 0.121086 -0.492284 -0.861971
vn 0.121743 -0.857230 -0.500336
vn 0.121741 -0.857231 -0.500334
vn 0.121741 -0.857231 -0.500334
vn 0.121083 -0.492284 -0.861972
vn 0.121086 -0.492284 -0.861971
vn 0.120753 0.000003 -0.992683
vn 0.121086 -0.492284 -0.861971
vn 0.121083 -0.492284 -0.861972
vn 0.121083 -0.492284 -0.861972
vn 0.120753 0.000003 -0.992683
vn 0.120753 0.000003 -0.992683
vn 1.000000 -0.000000 0.000000
vn 1.000000 -0.000000 0.000000
vn 1.000000 -0.000000 0.000001
vn 1.000000 -0.000000 0.000001
vn 1.000000 -0.000006 0.000002
vn 1.000000 0.000002 0.000001
vn 1.000000 0.000002 0.000001
vn 1.000000 -0.000002 -0.000006
vn 1.000000 0.000000 -0.000000
vn 1.000000 -0.000000 0.000001
vn 1.000000 0.000002 0.000001
vn 1.000000 0.000000 -0.000000
vn 1.000000 0.000000 -0.000000
vn 1.000000 -0.000000 0.000000
vn 1.000000 -0.000000 0.000000
vn 1.000000 -0.000000 0.000000
vn 1.000000 -0.000000 0.000000
vn 1.000000 -0.000000 0.000000
vn 1.000000 0.000000 -0.000000
vn 1.000000 -0.000000 0.000000
vn 1.000000 -0.000000 0.000000
vn 1.000000 -0.000000 0.000001
vn 1.000000 0.000000 -0.000000
vn 1.000000 -0.000000 0.000000
vn 1.000000 -0.000000 0.000000
vn 1.000000 -0.000000 0.000001
vn 1.000000 -0.000000 0.000000
vn 1.000000 -0.000000 0.000000
vn 1.000000 -0.000000 0.000000
vn 1.000000 -0.000000 0.000000
s off
g SM_Jukebox_01c
f 5/1/1 6/2/2 8/3/3
f 8/3/4 7/4/5 5/1/6
f 2/5/7 4/6/8 8/7/9
f 8/7/10 6/8/11 2/5/12
f 3/9/13 1/10/14 5/11/15
f 5/11/16 7/12/17 3/9/18
f 1/13/19 3/16/20 4/15/21
f 4/15/22 2/14/23 1/13/24
f 11/30/25 10/35/26 9/36/27
f 9/36/28 12/29/29 11/30/30
f 13/23/31 9/24/32 10/21/33
f 10/21/34 16/22/35 13/23/36
f 14/19/37 15/32/38 11/31/39
f 11/31/40 12/18/41 14/19/42
f 13/39/43 14/26/44 12/25/45
f 12/25/46 9/40/47 13/39/48
f 15/27/49 14/28/50 13/38/51
f 13/38/52 16/37/53 15/27/54
f 11/17/55 15/20/56 16/34/57
f 16/34/58 10/33/59 11/17/60
f 19/47/61 18/58/62 17/57/63
f 17/57/64 20/46/65 19/47/66
f 21/41/67 17/45/68 18/48/69
f 18/48/70 24/42/71 21/41/72
f 22/64/73 23/52/74 19/50/75
f 19/50/76 20/63/77 22/64/78
f 21/59/79 22/51/80 20/49/81
f 20/49/82 17/60/83 21/59/84
f 23/43/85 22/44/86 21/55/87
f 21/55/88 24/56/89 23/43/90
f 19/53/91 23/54/92 24/61/93
f 24/61/94 18/62/95 19/53/96
f 38/84/97 37/100/98 25/70/99
f 25/70/100 26/71/101 38/84/102
f 39/83/103 38/84/104 26/71/105
f 26/71/106 27/72/107 39/83/108
f 40/94/109 39/83/110 27/72/111
f 27/72/112 28/85/113 40/94/114
f 41/87/115 40/94/116 28/85/117
f 28/85/118 29/74/119 41/87/120
f 42/86/121 41/87/122 29/74/123
f 29/74/124 30/75/125 42/86/126
f 43/101/127 42/86/128 30/75/129
f 30/75/130 31/88/131 43/101/132
f 44/90/133 43/101/134 31/88/135
f 31/88/136 32/77/137 44/90/138
f 45/89/139 44/90/140 32/77/141
f 32/77/142 33/78/143 45/89/144
f 46/102/145 45/89/146 33/78/147
f 33/78/148 34/91/149 46/102/150
f 47/93/151 46/66/152 34/65/153
f 34/65/154 35/80/155 47/93/156
f 48/92/157 47/93/158 35/80/159
f 35/80/160 36/81/161 48/92/162
f 37/100/163 48/92/164 36/81/165
f 36/81/166 25/70/167 37/100/168
f 37/76/169 38/79/170 39/82/171
f 39/82/172 40/95/173 41/96/174
f 41/96/175 42/97/176 43/98/177
f 39/82/178 41/96/179 43/98/180
f 43/98/181 44/99/182 45/67/183
f 45/67/184 46/68/185 47/69/186
f 43/98/187 45/67/188 47/69/189
f 39/82/190 43/98/191 47/69/192
f 37/76/193 39/82/194 47/69/195
f 37/76/196 47/69/197 48/73/198
