# This file uses feet as units for non-parametric coordinates.

g default
v 99.712601 9.628681 -4.862320
v 99.620529 9.628681 -33.231155
v 99.590622 129.586945 -33.231155
v 99.712601 129.586945 -4.862320
v 65.206390 129.586945 29.643845
v 65.206390 9.628681 29.643845
v 76.851593 9.628681 28.298141
v 76.851593 129.586945 28.298141
v 86.744598 9.628681 24.014572
v 86.744537 129.586945 24.014572
v 98.366776 129.586945 6.782944
v 98.366776 9.628681 6.782944
v 53.357204 129.586945 -33.231155
v 53.357204 129.586945 29.643845
v 64.899323 0.002281 24.099045
v 89.484894 0.002281 13.562424
v 75.435944 0.002281 22.928360
v 53.357204 9.628681 29.643845
v 94.083328 9.628681 16.675766
v 94.083328 129.586945 16.675766
v 83.631195 0.002281 19.416122
v 94.167801 0.002281 -5.169449
v 95.494431 0.002281 -33.231155
v 95.494431 8.945782 -33.231155
v 94.167801 8.945782 -5.169449
v 75.435944 8.945782 22.928360
v 64.899323 8.945782 24.099045
v 83.631195 8.945782 19.416122
v 92.997086 0.002281 5.367233
v 92.997086 8.945782 5.367233
v 89.484894 8.945782 13.562424
v 95.494431 14.371483 -33.231155
v 53.357204 0.002281 24.099045
v 53.357204 8.945782 24.099045
v 52.821026 132.155426 31.890244
v 52.850857 131.311386 32.303299
v 52.831219 132.666367 -32.705093
v 52.833309 132.653412 30.957382
v 53.357204 0.002281 29.643845
v -53.347858 0.002281 29.643845
v -53.347858 0.002281 24.099045
v 95.494431 124.101944 -33.231155
v 94.167801 14.371483 11.634445
v 94.167801 123.157455 11.634445
v 94.167801 123.629700 11.162216
v 94.167801 124.101944 10.689987
v -89.475357 0.002281 13.562424
v -92.987564 0.002281 5.367233
v -94.158279 0.002281 -5.169449
v -95.587265 0.002281 -33.231155
v -94.158279 124.101944 10.689987
v -95.587265 124.101944 -33.231155
v -99.683456 129.586945 -33.231155
v -99.713364 9.628681 -33.231155
v -99.703079 9.628681 -4.862320
v -99.703079 129.586945 -4.862320
v -76.842056 9.628681 28.298141
v -65.196854 9.628681 29.643845
v -65.196854 129.586945 29.643845
v -76.842178 129.586945 28.298141
v -86.735062 9.628681 24.014572
v -86.735062 129.586945 24.014572
v -98.357254 9.628681 6.782944
v -98.357254 129.586945 6.782944
v -53.347858 129.586945 29.643845
v -53.347858 129.586945 -33.231155
v -64.889847 0.002281 24.099045
v -75.426468 0.002281 22.928360
v -53.347858 9.628681 29.643845
v -94.073746 9.628681 16.675766
v -94.073746 129.586945 16.675766
v -83.621658 0.002281 19.416122
v -94.158279 8.945782 -5.169449
v -95.587265 8.945782 -33.231155
v -64.889847 8.945782 24.099045
v -75.426468 8.945782 22.928360
v -83.621658 8.945782 19.416122
v -92.987564 8.945782 5.367233
v -89.475357 8.945782 13.562424
v -95.587265 14.371483 -33.231155
v -53.347858 8.945782 24.099045
v -51.720387 133.584442 31.199570
v 51.729916 133.584442 31.199570
v 51.729916 133.584442 -32.548233
v -51.720387 133.584442 -32.548233
v -51.720387 10.311581 33.231155
v 51.729916 10.311581 33.231155
v 51.729916 131.552856 33.231155
v -51.720387 131.552856 33.231155
v -52.821735 132.666367 -32.705093
v -52.838520 10.137962 32.319138
v -52.841389 131.311401 32.303299
v -52.811543 132.155441 31.890244
v -52.823811 132.653427 30.957382
v -94.158279 14.371483 11.634445
v -94.158279 123.157455 11.634445
v -94.158279 123.629700 11.162216
v 52.848003 10.137962 32.319138
v -51.720387 132.857758 32.504471
v 51.729916 132.857758 32.504471
vt 0.820247 0.485487
vt 0.886607 0.485487
vt 0.886607 0.741043
vt 0.820130 0.741043
vt 0.690704 0.741043
vt 0.690704 0.485487
vt 0.718119 0.485487
vt 0.718119 0.741043
vt 0.743298 0.485487
vt 0.743298 0.741043
vt 0.792715 0.741043
vt 0.792715 0.485487
vt 0.257081 0.920436
vt 0.253669 0.986796
vt 0.148717 0.986796
vt 0.176367 0.839839
vt 0.148717 0.839839
vt 0.203664 0.842898
vt 0.525777 0.931385
vt 0.550368 0.988921
vt 0.528483 0.955976
vt 0.662937 0.741043
vt 0.662937 0.485487
vt 0.767536 0.485487
vt 0.767536 0.741043
vt 0.536719 0.975154
vt 0.930048 0.862201
vt 0.930048 0.796665
vt 0.950991 0.796665
vt 0.950991 0.862201
vt 0.930048 0.972919
vt 0.930048 0.948093
vt 0.950991 0.948093
vt 0.950991 0.972919
vt 0.930048 0.927267
vt 0.950991 0.927267
vt 0.930048 0.887028
vt 0.950991 0.887028
vt 0.930048 0.907853
vt 0.950991 0.907853
vt 0.253904 0.893256
vt 0.243903 0.870078
vt 0.226725 0.852899
vt 0.128827 0.598557
vt 0.063290 0.598321
vt 0.063290 0.588556
vt 0.129650 0.585497
vt 0.197657 0.667035
vt 0.194716 0.642326
vt 0.207423 0.638914
vt 0.210718 0.666093
vt 0.186362 0.623265
vt 0.197187 0.615853
vt 0.172714 0.609617
vt 0.180008 0.598674
vt 0.153535 0.601381
vt 0.156830 0.588673
vt 0.022728 0.999863
vt 0.021080 0.990215
vt 0.033788 0.990215
vt 0.525777 0.904324
vt 0.950991 0.999863
vt 0.930048 0.999863
vt 0.210953 0.693861
vt 0.197893 0.693979
vt 0.876526 0.194108
vt 0.881780 0.188101
vt 0.882747 0.190075
vt 0.729465 0.194108
vt 0.730696 0.186906
vt 0.879598 0.186936
vt 0.902813 0.750307
vt 0.902813 0.999863
vt 0.889753 0.999863
vt 0.889753 0.750307
vt 0.153975 0.807545
vt 0.155622 0.820487
vt 0.133149 0.820487
vt 0.133149 0.807545
vt 0.265459 0.990215
vt 0.278284 0.999745
vt 0.994705 0.511244
vt 0.994705 0.742916
vt 0.889753 0.742916
vt 0.889753 0.513238
vt 0.889753 0.511244
vt 0.891962 0.511244
vt 0.525777 0.654768
vt 0.550368 0.570289
vt 0.594137 0.999863
vt 0.569546 0.997039
vt 0.569546 0.562052
vt 0.594137 0.559346
vt 0.659791 0.999863
vt 0.659791 0.559346
vt 0.000137 0.459663
vt 0.000137 0.356920
vt 0.440654 0.356920
vt 0.440654 0.459663
vt 0.662937 0.999863
vt 0.662937 0.744189
vt 0.729414 0.744189
vt 0.729414 0.999863
vt 0.831543 0.744189
vt 0.858957 0.744189
vt 0.858957 0.999863
vt 0.831543 0.999863
vt 0.806364 0.744189
vt 0.806364 0.999863
vt 0.756829 0.744189
vt 0.756829 0.999863
vt 0.117921 0.839721
vt 0.145571 0.839721
vt 0.145571 0.986796
vt 0.037207 0.920436
vt 0.040619 0.986796
vt 0.090624 0.842898
vt 0.525777 0.627824
vt 0.528483 0.603115
vt 0.886607 0.744189
vt 0.886607 0.999863
vt 0.782008 0.744189
vt 0.782008 0.999863
vt 0.536719 0.583937
vt 0.926902 0.862201
vt 0.905959 0.862201
vt 0.905959 0.796548
vt 0.926902 0.796548
vt 0.926902 0.972801
vt 0.905959 0.972801
vt 0.905959 0.948093
vt 0.926902 0.948093
vt 0.905959 0.927149
vt 0.926902 0.927149
vt 0.926902 0.887028
vt 0.905959 0.887028
vt 0.000137 0.990215
vt 0.000137 0.549698
vt 0.021080 0.549698
vt 0.905959 0.907853
vt 0.926902 0.907853
vt 0.040266 0.893256
vt 0.050385 0.870078
vt 0.067563 0.852899
vt 0.200748 0.773780
vt 0.213808 0.773074
vt 0.210749 0.839434
vt 0.200983 0.839434
vt 0.132388 0.705067
vt 0.133211 0.692006
vt 0.160391 0.695301
vt 0.156978 0.708008
vt 0.183452 0.705419
vt 0.176157 0.716244
vt 0.200630 0.722715
vt 0.189805 0.730010
vt 0.210631 0.745777
vt 0.197924 0.749189
vt 0.033788 0.549698
vt 0.022728 0.540050
vt 0.926902 0.999863
vt 0.905959 0.999863
vt 0.105326 0.704831
vt 0.105444 0.691771
vt 0.715083 0.453546
vt 0.715083 0.211585
vt 0.864114 0.211585
vt 0.864114 0.453546
vt 0.446894 0.453546
vt 0.446894 0.211585
vt 0.705992 0.211585
vt 0.705992 0.453546
vt 0.285625 0.646389
vt 0.287814 0.648976
vt 0.287814 0.890937
vt 0.285625 0.893497
vt 0.586256 0.204961
vt 0.587447 0.198704
vt 0.870865 0.198741
vt 0.866832 0.204961
vt 0.872839 0.199707
vt 0.874004 0.201889
vt 0.037207 0.856334
vt 0.037207 0.606778
vt 0.059680 0.606778
vt 0.059680 0.856334
vt 0.134678 0.823633
vt 0.155622 0.823633
vt 0.155622 0.836576
vt 0.133149 0.836576
vt 0.265459 0.549698
vt 0.278284 0.540168
vt 0.278284 0.645120
vt 0.522631 0.999863
vt 0.292954 0.999863
vt 0.292954 0.559346
vt 0.522631 0.559346
vt 0.994478 0.483957
vt 0.891736 0.483957
vt 0.889526 0.483957
vt 0.889526 0.481963
vt 0.889526 0.252286
vt 0.994478 0.252286
vt 0.000137 0.351565
vt 0.000137 0.246613
vt 0.440654 0.246613
vt 0.440654 0.351565
vt 0.255722 0.884956
vt 0.253568 0.882328
vt 0.253568 0.640367
vt 0.255722 0.637770
vt 0.278284 0.894675
vt 0.710333 0.453546
vt 0.710333 0.211585
vt 0.706500 0.207115
vt 0.710735 0.207186
vt 0.446964 0.207186
vt 0.715132 0.207160
vt 0.864114 0.207168
vt 0.000137 0.354711
vt 0.440654 0.354711
vt 0.864016 0.457949
vt 0.714673 0.457984
vt 0.705956 0.457974
vt 0.446894 0.457965
vt 0.709848 0.457913
vt 0.290960 0.999863
vt 0.290960 0.559346
vt 0.874034 0.350792
vt 0.866832 0.352022
vt 0.882784 0.473493
vt 0.876526 0.474684
vt 0.262040 0.636629
vt 0.262040 0.886184
vn 0.999991 0.000037 -0.004144
vn 0.998467 -0.000000 0.055351
vn 0.998442 0.000106 0.055799
vn 0.998442 0.000106 0.055799
vn 0.999995 0.000249 -0.003245
vn 0.999991 0.000037 -0.004144
vn 0.258852 -0.000000 0.965917
vn 0.258853 0.000000 0.965917
vn 0.057492 -0.000000 0.998346
vn 0.057492 -0.000000 0.998346
vn 0.057492 -0.000000 0.998346
vn 0.258852 -0.000000 0.965917
vn 0.562173 0.000000 0.827020
vn 0.562172 0.000000 0.827020
vn 0.258853 0.000000 0.965917
vn 0.258853 0.000000 0.965917
vn 0.258852 -0.000000 0.965917
vn 0.562173 0.000000 0.827020
vn 0.998442 0.000106 0.055799
vn 0.998467 -0.000000 0.055351
vn 0.965916 -0.000000 0.258855
vn 0.965916 -0.000000 0.258855
vn 0.965916 -0.000000 0.258855
vn 0.998442 0.000106 0.055799
vn 0.000000 1.000000 0.000000
vn 0.000000 1.000000 0.000000
vn 0.000000 1.000000 0.000000
vn 0.000000 1.000000 0.000000
vn 0.000000 1.000000 0.000000
vn 0.000000 1.000000 0.000000
vn 0.000000 1.000000 0.000000
vn 0.000000 1.000000 0.000000
vn 0.000000 1.000000 0.000000
vn 0.000000 1.000000 0.000000
vn 0.000000 1.000000 0.000000
vn 0.000000 1.000000 0.000000
vn 0.000000 -1.000000 -0.000000
vn 0.000000 -1.000000 -0.000000
vn 0.000000 -1.000000 -0.000000
vn 0.057492 -0.000000 0.998346
vn 0.057492 -0.000000 0.998346
vn 0.000000 -0.000000 1.000000
vn 0.000000 -0.000000 1.000000
vn 0.000000 -0.000000 1.000000
vn 0.057492 -0.000000 0.998346
vn 0.827023 0.000000 0.562168
vn 0.827022 -0.000000 0.562169
vn 0.562172 0.000000 0.827020
vn 0.562172 0.000000 0.827020
vn 0.562173 0.000000 0.827020
vn 0.827023 0.000000 0.562168
vn 0.965916 -0.000000 0.258855
vn 0.965916 -0.000000 0.258855
vn 0.827022 -0.000000 0.562169
vn 0.827022 -0.000000 0.562169
vn 0.827023 0.000000 0.562168
vn 0.965916 -0.000000 0.258855
vn 0.000000 -1.000000 -0.000000
vn 0.000000 -1.000000 -0.000000
vn 0.000000 -1.000000 -0.000000
vn 0.998884 -0.000000 0.047223
vn 0.996885 -0.000000 0.078865
vn 0.996885 -0.000000 0.078865
vn 0.996885 -0.000000 0.078865
vn 0.998884 -0.000000 0.047223
vn 0.998884 -0.000000 0.047223
vn 0.254926 -0.000000 0.966960
vn 0.055298 -0.000000 0.998470
vn 0.055298 -0.000000 0.998470
vn 0.055298 -0.000000 0.998470
vn 0.254926 -0.000000 0.966961
vn 0.254926 -0.000000 0.966960
vn 0.560628 -0.000000 0.828068
vn 0.254926 -0.000000 0.966960
vn 0.254926 -0.000000 0.966961
vn 0.254926 -0.000000 0.966961
vn 0.560628 -0.000000 0.828068
vn 0.560628 -0.000000 0.828068
vn 0.996885 -0.000000 0.078865
vn 0.966960 -0.000000 0.254927
vn 0.966960 -0.000000 0.254927
vn 0.966960 -0.000000 0.254927
vn 0.996885 -0.000000 0.078865
vn 0.996885 -0.000000 0.078865
vn 0.828068 -0.000000 0.560628
vn 0.560628 -0.000000 0.828068
vn 0.560628 -0.000000 0.828068
vn 0.560628 -0.000000 0.828068
vn 0.828068 -0.000000 0.560628
vn 0.828068 -0.000000 0.560628
vn 0.966960 -0.000000 0.254927
vn 0.828068 -0.000000 0.560628
vn 0.828068 -0.000000 0.560628
vn 0.828068 -0.000000 0.560628
vn 0.966960 -0.000000 0.254927
vn 0.966960 -0.000000 0.254927
vn 0.000000 1.000000 0.000000
vn 0.000000 1.000000 0.000000
vn 0.000000 1.000000 0.000000
vn 0.000000 1.000000 0.000000
vn 0.000000 1.000000 0.000000
vn 0.000000 1.000000 0.000000
vn 0.000000 1.000000 0.000000
vn 0.000000 1.000000 0.000000
vn 0.000000 1.000000 0.000000
vn 0.158173 -0.987389 0.006706
vn 0.122030 -0.992504 0.006650
vn 0.123753 -0.992288 0.007024
vn 0.123753 -0.992288 0.007024
vn 0.163281 -0.986549 0.007719
vn 0.158173 -0.987389 0.006706
vn 0.031355 -0.992543 0.117790
vn 0.007008 -0.992524 0.121851
vn 0.006961 -0.992504 0.122011
vn 0.006961 -0.992504 0.122011
vn 0.031325 -0.992508 0.118100
vn 0.031355 -0.992543 0.117790
vn 0.068418 -0.992540 0.100912
vn 0.031355 -0.992543 0.117790
vn 0.031325 -0.992508 0.118100
vn 0.031325 -0.992508 0.118100
vn 0.068426 -0.992524 0.101068
vn 0.068418 -0.992540 0.100912
vn 0.100954 -0.992523 0.068596
vn 0.068418 -0.992540 0.100912
vn 0.068426 -0.992524 0.101068
vn 0.068426 -0.992524 0.101068
vn 0.100855 -0.992539 0.068512
vn 0.100954 -0.992523 0.068596
vn 0.118066 -0.992507 0.031466
vn 0.100954 -0.992523 0.068596
vn 0.100855 -0.992539 0.068512
vn 0.100855 -0.992539 0.068512
vn 0.117817 -0.992542 0.031290
vn 0.118066 -0.992507 0.031466
vn 0.122030 -0.992504 0.006650
vn 0.118066 -0.992507 0.031466
vn 0.117817 -0.992542 0.031290
vn 0.117817 -0.992542 0.031290
vn 0.123753 -0.992288 0.007024
vn 0.122030 -0.992504 0.006650
vn 0.000000 0.000000 -1.000000
vn 0.000000 0.000000 -1.000000
vn 0.000000 0.000000 -1.000000
vn 0.000000 -1.000000 -0.000000
vn 0.000000 -1.000000 -0.000000
vn 0.000000 -1.000000 -0.000000
vn 0.000000 -0.000000 1.000000
vn 0.000000 -0.000000 1.000000
vn 0.055298 -0.000000 0.998470
vn 0.055298 -0.000000 0.998470
vn 0.055298 -0.000000 0.998470
vn 0.000000 -0.000000 1.000000
vn 0.000000 -0.992501 0.122237
vn 0.000000 -0.992501 0.122237
vn 0.006961 -0.992504 0.122011
vn 0.006961 -0.992504 0.122011
vn 0.007008 -0.992524 0.121851
vn 0.000000 -0.992501 0.122237
vn 0.991410 0.085719 0.098786
vn 0.987877 0.115835 0.103347
vn 0.987034 0.060588 0.148640
vn 0.985724 0.168369 0.000002
vn 0.985724 0.168368 0.000002
vn 0.987776 0.148631 0.046986
vn 0.987776 0.148631 0.046986
vn 0.991410 0.085719 0.098786
vn 0.985724 0.168369 0.000002
vn 0.000000 -1.000000 -0.000000
vn 0.000000 -1.000000 -0.000000
vn 0.000000 -1.000000 -0.000000
vn 0.000000 -1.000000 -0.000000
vn 0.000000 -1.000000 -0.000000
vn 0.000000 -1.000000 -0.000000
vn 1.000000 0.000000 0.000000
vn 1.000000 0.000000 0.000000
vn 1.000000 0.000000 0.000000
vn 1.000000 0.000000 0.000000
vn 1.000000 0.000000 0.000000
vn 1.000000 0.000000 0.000000
vn 0.000000 0.000000 -1.000000
vn 0.000000 0.000000 -1.000000
vn 0.000000 0.000000 -1.000000
vn 0.000000 0.000000 -1.000000
vn 0.000000 0.000000 -1.000000
vn 0.000000 0.000000 -1.000000
vn -0.999556 -0.000301 -0.029796
vn -0.999563 0.000000 -0.029556
vn -0.999563 -0.000032 -0.029552
vn -0.999563 -0.000032 -0.029552
vn -1.000000 0.000000 0.000000
vn -0.999718 -0.007512 -0.022525
vn -0.999556 -0.000301 -0.029796
vn -0.999563 -0.000032 -0.029552
vn -0.999718 -0.007512 -0.022525
vn -0.999556 -0.000301 -0.029796
vn -0.999718 -0.007512 -0.022525
vn -0.999089 -0.030176 -0.030177
vn 0.000000 -1.000000 -0.000000
vn 0.000000 -1.000000 -0.000000
vn 0.000000 -1.000000 -0.000000
vn 0.000000 -1.000000 -0.000000
vn 0.000000 -1.000000 -0.000000
vn 0.000000 -1.000000 -0.000000
vn 0.000000 -1.000000 -0.000000
vn 0.000000 -1.000000 -0.000000
vn 0.000000 -1.000000 -0.000000
vn 0.000000 -1.000000 -0.000000
vn 0.000000 -1.000000 -0.000000
vn 0.000000 -1.000000 -0.000000
vn 0.000000 -1.000000 -0.000000
vn 0.000000 -1.000000 -0.000000
vn 0.000000 -1.000000 -0.000000
vn 0.000000 -1.000000 -0.000000
vn 0.000000 -1.000000 -0.000000
vn 0.000000 -1.000000 -0.000000
vn 0.000000 -1.000000 -0.000000
vn 0.000000 -1.000000 -0.000000
vn 0.000000 -1.000000 -0.000000
vn 0.000000 -1.000000 -0.000000
vn 0.000000 -1.000000 -0.000000
vn 0.000000 -1.000000 -0.000000
vn 0.000000 -0.925378 -0.379045
vn 0.000000 -0.925493 -0.378765
vn 0.000000 -1.000000 -0.000000
vn 0.000000 -1.000000 -0.000000
vn 0.000000 -1.000000 -0.000000
vn 0.000000 -0.925378 -0.379045
vn -0.998340 0.000106 0.057600
vn -0.998366 -0.000000 0.057152
vn -1.000000 0.000037 -0.000536
vn -1.000000 0.000037 -0.000536
vn -1.000000 0.000249 0.000363
vn -0.998340 0.000106 0.057600
vn -0.057492 -0.000000 0.998346
vn -0.258853 -0.000000 0.965917
vn -0.258852 -0.000000 0.965917
vn -0.258852 -0.000000 0.965917
vn -0.057492 -0.000000 0.998346
vn -0.057492 -0.000000 0.998346
vn -0.258853 -0.000000 0.965917
vn -0.562176 -0.000000 0.827018
vn -0.562174 -0.000000 0.827019
vn -0.562174 -0.000000 0.827019
vn -0.258852 -0.000000 0.965917
vn -0.258853 -0.000000 0.965917
vn -0.965916 -0.000000 0.258857
vn -0.998366 -0.000000 0.057152
vn -0.998340 0.000106 0.057600
vn -0.998340 0.000106 0.057600
vn -0.965916 -0.000000 0.258857
vn -0.965916 -0.000000 0.258857
vn 0.000000 1.000000 0.000000
vn 0.000000 1.000000 0.000000
vn 0.000000 1.000000 0.000000
vn 0.000000 1.000000 0.000000
vn 0.000000 1.000000 0.000000
vn 0.000000 1.000000 0.000000
vn 0.000000 1.000000 0.000000
vn 0.000000 1.000000 0.000000
vn 0.000000 1.000000 0.000000
vn 0.000000 1.000000 0.000000
vn 0.000000 1.000000 0.000000
vn 0.000000 1.000000 0.000000
vn 0.000000 -1.000000 -0.000000
vn 0.000000 -1.000000 -0.000000
vn 0.000000 -1.000000 -0.000000
vn 0.000000 -0.000000 1.000000
vn -0.057492 -0.000000 0.998346
vn -0.057492 -0.000000 0.998346
vn -0.057492 -0.000000 0.998346
vn 0.000000 -0.000000 1.000000
vn 0.000000 -0.000000 1.000000
vn -0.562176 -0.000000 0.827018
vn -0.827023 -0.000000 0.562168
vn -0.827023 -0.000000 0.562168
vn -0.827023 -0.000000 0.562168
vn -0.562174 -0.000000 0.827019
vn -0.562176 -0.000000 0.827018
vn -0.827023 -0.000000 0.562168
vn -0.965916 -0.000000 0.258857
vn -0.965916 -0.000000 0.258857
vn -0.965916 -0.000000 0.258857
vn -0.827023 -0.000000 0.562168
vn -0.827023 -0.000000 0.562168
vn 0.000000 -1.000000 -0.000000
vn 0.000000 -1.000000 -0.000000
vn 0.000000 -1.000000 -0.000000
vn -0.998706 -0.000000 0.050857
vn -0.998706 -0.000000 0.050857
vn -0.996740 -0.000000 0.080679
vn -0.996740 -0.000000 0.080679
vn -0.996740 -0.000000 0.080679
vn -0.998706 -0.000000 0.050857
vn -0.254928 -0.000000 0.966960
vn -0.254928 -0.000000 0.966960
vn -0.055298 -0.000000 0.998470
vn -0.055298 -0.000000 0.998470
vn -0.055298 -0.000000 0.998470
vn -0.254928 -0.000000 0.966960
vn -0.560629 -0.000000 0.828067
vn -0.560629 -0.000000 0.828067
vn -0.254928 -0.000000 0.966960
vn -0.254928 -0.000000 0.966960
vn -0.254928 -0.000000 0.966960
vn -0.560629 -0.000000 0.828067
vn -0.996740 -0.000000 0.080679
vn -0.996740 -0.000000 0.080679
vn -0.966960 -0.000000 0.254927
vn -0.966960 -0.000000 0.254927
vn -0.966960 -0.000000 0.254927
vn -0.996740 -0.000000 0.080679
vn 0.000000 0.000000 -1.000000
vn 0.000000 0.000000 -1.000000
vn 0.000000 0.000000 -1.000000
vn 0.000000 0.000000 -1.000000
vn 0.000000 0.000000 -1.000000
vn 0.000000 0.000000 -1.000000
vn -0.828068 -0.000000 0.560628
vn -0.828068 -0.000000 0.560628
vn -0.560629 -0.000000 0.828067
vn -0.560629 -0.000000 0.828067
vn -0.560629 -0.000000 0.828067
vn -0.828068 -0.000000 0.560628
vn -0.966960 -0.000000 0.254927
vn -0.966960 -0.000000 0.254927
vn -0.828068 -0.000000 0.560628
vn -0.828068 -0.000000 0.560628
vn -0.828068 -0.000000 0.560628
vn -0.966960 -0.000000 0.254927
vn 0.000000 1.000000 0.000000
vn 0.000000 1.000000 0.000000
vn 0.000000 1.000000 0.000000
vn 0.000000 1.000000 0.000000
vn 0.000000 1.000000 0.000000
vn 0.000000 1.000000 0.000000
vn 0.000000 1.000000 0.000000
vn 0.000000 1.000000 0.000000
vn 0.000000 1.000000 0.000000
vn -0.158160 -0.987387 0.007281
vn -0.163280 -0.986545 0.008315
vn -0.123742 -0.992288 0.007256
vn -0.123742 -0.992288 0.007256
vn -0.122018 -0.992504 0.006863
vn -0.158160 -0.987387 0.007281
vn -0.031355 -0.992543 0.117791
vn -0.031326 -0.992508 0.118100
vn -0.006961 -0.992504 0.122011
vn -0.006961 -0.992504 0.122011
vn -0.007008 -0.992524 0.121852
vn -0.031355 -0.992543 0.117791
vn -0.068418 -0.992540 0.100912
vn -0.068427 -0.992524 0.101068
vn -0.031326 -0.992508 0.118100
vn -0.031326 -0.992508 0.118100
vn -0.031355 -0.992543 0.117791
vn -0.068418 -0.992540 0.100912
vn -0.100954 -0.992523 0.068596
vn -0.100855 -0.992539 0.068513
vn -0.068427 -0.992524 0.101068
vn -0.068427 -0.992524 0.101068
vn -0.068418 -0.992540 0.100912
vn -0.100954 -0.992523 0.068596
vn -0.118066 -0.992507 0.031466
vn -0.117817 -0.992542 0.031290
vn -0.100855 -0.992539 0.068513
vn -0.100855 -0.992539 0.068513
vn -0.100954 -0.992523 0.068596
vn -0.118066 -0.992507 0.031466
vn -0.122018 -0.992504 0.006863
vn -0.123742 -0.992288 0.007256
vn -0.117817 -0.992542 0.031290
vn -0.117817 -0.992542 0.031290
vn -0.118066 -0.992507 0.031466
vn -0.122018 -0.992504 0.006863
vn 0.000000 0.000000 -1.000000
vn 0.000000 0.000000 -1.000000
vn 0.000000 0.000000 -1.000000
vn 0.000000 0.000000 -1.000000
vn 0.000000 0.000000 -1.000000
vn 0.000000 0.000000 -1.000000
vn 0.000000 0.000000 -1.000000
vn 0.000000 0.000000 -1.000000
vn 0.000000 0.000000 -1.000000
vn 0.000000 -1.000000 -0.000000
vn 0.000000 -1.000000 -0.000000
vn 0.000000 -1.000000 -0.000000
vn 0.000000 -0.000000 1.000000
vn -0.055298 -0.000000 0.998470
vn -0.055298 -0.000000 0.998470
vn -0.055298 -0.000000 0.998470
vn 0.000000 -0.000000 1.000000
vn 0.000000 -0.000000 1.000000
vn 0.000000 -0.992501 0.122237
vn -0.007008 -0.992524 0.121852
vn -0.006961 -0.992504 0.122011
vn -0.006961 -0.992504 0.122011
vn 0.000000 -0.992501 0.122237
vn 0.000000 -0.992501 0.122237
vn 0.333692 0.912418 0.236943
vn 0.351942 0.936022 0.000073
vn -0.351885 0.936043 0.000000
vn -0.351885 0.936043 0.000000
vn -0.333664 0.912421 0.236974
vn 0.333692 0.912418 0.236943
vn 0.347773 -0.000000 0.937579
vn 0.329630 0.237324 0.913795
vn -0.329630 0.237305 0.913800
vn -0.329630 0.237305 0.913800
vn -0.347792 0.000047 0.937572
vn 0.347773 -0.000000 0.937579
vn 0.000000 0.168417 -0.985716
vn 0.000000 0.168417 -0.985716
vn 0.000000 0.168399 -0.985719
vn 0.000000 0.168399 -0.985719
vn 0.000000 0.168399 -0.985719
vn 0.000000 0.168417 -0.985716
vn -0.982355 0.000000 0.187027
vn -0.987028 0.060606 0.148672
vn -0.991406 0.085742 0.098810
vn -0.991406 0.085742 0.098810
vn -0.982355 -0.000000 0.187027
vn -0.982355 0.000000 0.187027
vn -0.991406 0.085742 0.098810
vn -0.987871 0.115873 0.103362
vn -0.987769 0.148676 0.046991
vn 0.000000 -0.000000 1.000000
vn 0.000000 -0.000000 1.000000
vn 0.000000 -0.000000 1.000000
vn 0.000000 -0.000000 1.000000
vn 0.000000 -0.000000 1.000000
vn 0.000000 -0.000000 1.000000
vn -1.000000 0.000000 0.000000
vn -1.000000 0.000000 0.000000
vn -1.000000 0.000000 0.000000
vn -1.000000 0.000000 0.000000
vn -1.000000 0.000000 0.000000
vn -1.000000 0.000000 0.000000
vn 0.000000 0.000000 -1.000000
vn 0.000000 0.000000 -1.000000
vn 0.000000 0.052169 -0.998638
vn 0.000000 -0.382672 -0.923884
vn 0.000000 -0.382671 -0.923885
vn 0.000000 0.000000 -1.000000
vn 0.000000 0.000000 -1.000000
vn 0.000000 0.000000 -1.000000
vn 0.000000 -0.382672 -0.923884
vn 0.000000 0.000000 -1.000000
vn 0.000000 0.000000 -1.000000
vn 0.000000 0.000000 -1.000000
vn 0.000000 0.000000 -1.000000
vn 0.000000 0.000000 -1.000000
vn 0.000000 0.000000 -1.000000
vn 0.999485 -0.000324 -0.032092
vn 0.998943 -0.032500 -0.032501
vn 0.999673 -0.008091 -0.024262
vn 0.999673 -0.008091 -0.024262
vn 1.000000 0.000000 0.000000
vn 0.999493 -0.000034 -0.031830
vn 0.999485 -0.000324 -0.032092
vn 0.999673 -0.008091 -0.024262
vn 0.999493 -0.000034 -0.031830
vn 0.999485 -0.000324 -0.032092
vn 0.999493 -0.000034 -0.031830
vn 0.999493 0.000000 -0.031834
vn 0.000000 1.000000 0.000000
vn 0.000000 1.000000 0.000000
vn 0.000000 1.000000 0.000000
vn 0.000000 1.000000 0.000000
vn 0.000000 1.000000 0.000000
vn 0.000000 1.000000 0.000000
vn 0.000000 -0.982358 0.187009
vn 0.000000 -0.982358 0.187009
vn 0.000000 -0.982359 0.187007
vn 0.000000 -0.982359 0.187007
vn 0.000000 -0.982359 0.187007
vn 0.000000 -0.982358 0.187009
vn 0.000000 0.052170 -0.998638
vn 0.000000 0.000000 -1.000000
vn 0.000000 0.000000 -1.000000
vn 0.000000 0.000000 -1.000000
vn 0.000000 0.000000 -1.000000
vn 0.000000 0.052169 -0.998638
vn 0.000000 0.052169 -0.998638
vn 0.000000 0.052170 -0.998638
vn 0.000000 0.000000 -1.000000
vn -0.333664 0.912421 0.236974
vn -0.330136 0.668476 0.666446
vn 0.330147 0.668472 0.666444
vn 0.330147 0.668472 0.666444
vn 0.333692 0.912418 0.236943
vn -0.333664 0.912421 0.236974
vn 0.329630 0.237324 0.913795
vn 0.330147 0.668472 0.666444
vn -0.330136 0.668476 0.666446
vn -0.330136 0.668476 0.666446
vn -0.329630 0.237305 0.913800
vn 0.329630 0.237324 0.913795
vn 0.645971 0.184416 0.740751
vn 0.648386 0.525777 0.550595
vn 0.330147 0.668472 0.666444
vn 0.330147 0.668472 0.666444
vn 0.329630 0.237324 0.913795
vn 0.645971 0.184416 0.740751
vn 0.632129 0.000001 0.774863
vn 0.645971 0.184416 0.740751
vn 0.329630 0.237324 0.913795
vn 0.329630 0.237324 0.913795
vn 0.347773 -0.000000 0.937579
vn 0.632129 0.000001 0.774863
vn 0.655958 0.731182 0.187328
vn 0.640329 0.768101 0.000135
vn 0.351942 0.936022 0.000073
vn 0.351942 0.936022 0.000073
vn 0.333692 0.912418 0.236943
vn 0.655958 0.731182 0.187328
vn 0.655958 0.731182 0.187328
vn 0.333692 0.912418 0.236943
vn 0.330147 0.668472 0.666444
vn 0.330147 0.668472 0.666444
vn 0.648386 0.525777 0.550595
vn 0.655958 0.731182 0.187328
vn 0.000000 -0.925493 -0.378765
vn 0.000000 -0.925378 -0.379045
vn 0.000000 -0.707095 -0.707118
vn 0.000000 -0.707095 -0.707118
vn 0.000000 -0.707095 -0.707118
vn 0.000000 -0.925493 -0.378765
vn -0.333664 0.912421 0.236974
vn -0.351885 0.936043 0.000000
vn -0.640373 0.768064 0.000002
vn -0.640373 0.768064 0.000002
vn -0.655969 0.731155 0.187395
vn -0.333664 0.912421 0.236974
vn -0.347792 0.000047 0.937572
vn -0.329630 0.237305 0.913800
vn -0.645931 0.184380 0.740795
vn -0.645931 0.184380 0.740795
vn -0.632075 0.000086 0.774907
vn -0.347792 0.000047 0.937572
vn -0.645931 0.184380 0.740795
vn -0.329630 0.237305 0.913800
vn -0.330136 0.668476 0.666446
vn -0.330136 0.668476 0.666446
vn -0.648366 0.525795 0.550600
vn -0.645931 0.184380 0.740795
vn -0.655969 0.731155 0.187395
vn -0.648366 0.525795 0.550600
vn -0.330136 0.668476 0.666446
vn -0.330136 0.668476 0.666446
vn -0.333664 0.912421 0.236974
vn -0.655969 0.731155 0.187395
vn 0.000000 -0.382671 -0.923885
vn 0.000000 -0.382672 -0.923884
vn 0.000000 -0.707090 -0.707124
vn 0.000000 -0.707090 -0.707124
vn 0.000000 -0.707090 -0.707124
vn 0.000000 -0.382671 -0.923885
vn -0.985717 0.168412 0.000000
vn -0.985717 0.168411 0.000000
vn -0.991406 0.085742 0.098810
vn -0.991406 0.085742 0.098810
vn -0.987769 0.148676 0.046991
vn -0.985717 0.168412 0.000000
vn -0.987028 0.060606 0.148672
vn -0.987871 0.115873 0.103362
vn -0.991406 0.085742 0.098810
vn 0.987776 0.148631 0.046986
vn 0.987877 0.115835 0.103347
vn 0.991410 0.085719 0.098786
vn 0.982364 0.000000 0.186979
vn 0.982364 -0.000000 0.186978
vn 0.991410 0.085719 0.098786
vn 0.991410 0.085719 0.098786
vn 0.987034 0.060588 0.148640
vn 0.982364 0.000000 0.186979
vn 0.000000 -0.982359 0.187006
vn 0.000000 -0.982359 0.187006
vn 0.000000 -0.982359 0.187007
vn 0.000000 -0.982359 0.187007
vn 0.000000 -0.982359 0.187007
vn 0.000000 -0.982359 0.187006
vn 0.000000 0.052170 -0.998638
vn 0.000000 0.052169 -0.998638
vn 0.000000 0.168399 -0.985719
vn 0.000000 0.168399 -0.985719
vn 0.000000 0.168399 -0.985719
vn 0.000000 0.052170 -0.998638
s off
g SM_BarSet_01a
f 3/3/1 4/4/2 1/1/3
f 1/1/4 2/2/5 3/3/6
f 7/7/7 8/8/8 5/5/9
f 5/5/10 6/6/11 7/7/12
f 9/9/13 10/10/14 8/8/15
f 8/8/16 7/7/17 9/9/18
f 1/1/19 4/4/20 11/11/21
f 11/11/22 12/12/23 1/1/24
f 13/15/25 5/16/26 4/13/27
f 4/13/28 3/14/29 13/15/30
f 5/16/31 13/15/32 14/17/33
f 4/13/34 5/16/35 8/18/36
f 15/19/37 16/20/38 17/21/39
f 6/6/40 5/5/41 14/22/42
f 14/22/43 18/23/44 6/6/45
f 19/24/46 20/25/47 10/10/48
f 10/10/49 9/9/50 19/24/51
f 12/12/52 11/11/53 20/25/54
f 20/25/55 19/24/56 12/12/57
f 17/21/58 16/20/59 21/26/60
f 24/29/61 25/30/62 22/27/63
f 22/27/64 23/28/65 24/29/66
f 26/33/67 27/34/68 15/31/69
f 15/31/70 17/32/71 26/33/72
f 28/36/73 26/33/74 17/32/75
f 17/32/76 21/35/77 28/36/78
f 25/30/79 30/38/80 29/37/81
f 29/37/82 22/27/83 25/30/84
f 31/40/85 28/36/86 21/35/87
f 21/35/88 16/39/89 31/40/90
f 30/38/91 31/40/92 16/39/93
f 16/39/94 29/37/95 30/38/96
f 4/13/97 8/18/98 11/41/99
f 8/18/100 20/42/101 11/41/102
f 8/18/103 10/43/104 20/42/105
f 2/46/106 1/47/107 25/44/108
f 25/44/109 24/45/110 2/46/111
f 7/50/112 6/51/113 27/48/114
f 27/48/115 26/49/116 7/50/117
f 9/53/118 7/50/119 26/49/120
f 26/49/121 28/52/122 9/53/123
f 19/55/124 9/53/125 28/52/126
f 28/52/127 31/54/128 19/55/129
f 12/57/130 19/55/131 31/54/132
f 31/54/133 30/56/134 12/57/135
f 1/47/136 12/57/137 30/56/138
f 30/56/139 25/44/140 1/47/141
f 2/58/142 24/59/143 32/60/144
f 16/20/145 15/19/146 33/61/147
f 34/62/148 33/63/149 15/31/150
f 15/31/151 27/34/152 34/62/153
f 18/64/154 34/65/155 27/48/156
f 27/48/157 6/51/158 18/64/159
f 14/66/160 35/67/161 36/68/162
f 13/69/163 37/70/164 38/71/165
f 38/71/166 14/66/167 13/69/168
f 41/74/169 33/75/170 39/72/171
f 39/72/172 40/73/173 41/74/174
f 39/78/175 33/79/176 34/76/177
f 34/76/178 18/77/179 39/78/180
f 2/58/181 32/60/182 42/80/183
f 42/80/184 3/81/185 2/58/186
f 42/82/187 32/83/188 43/84/189
f 43/84/190 44/85/191 45/86/192
f 42/82/193 43/84/194 45/86/195
f 42/82/196 45/86/197 46/87/198
f 41/88/199 47/89/200 16/20/201
f 16/20/202 33/61/203 41/88/204
f 48/92/205 49/93/206 22/90/207
f 22/90/208 29/91/209 48/92/210
f 49/93/211 50/95/212 23/94/213
f 23/94/214 22/90/215 49/93/216
f 47/89/217 48/92/218 29/91/219
f 29/91/220 16/20/221 47/89/222
f 46/97/223 51/98/224 52/99/225
f 52/99/226 42/96/227 46/97/228
f 55/102/229 56/103/230 53/100/231
f 53/100/232 54/101/233 55/102/234
f 59/106/235 60/107/236 57/104/237
f 57/104/238 58/105/239 59/106/240
f 60/107/241 62/109/242 61/108/243
f 61/108/244 57/104/245 60/107/246
f 64/111/247 56/103/248 55/102/249
f 55/102/250 63/110/251 64/111/252
f 59/112/253 65/113/254 66/114/255
f 66/114/256 56/115/257 59/112/258
f 66/114/259 53/116/260 56/115/261
f 56/115/262 60/117/263 59/112/264
f 67/118/265 68/119/266 47/89/267
f 65/121/268 59/106/269 58/105/270
f 58/105/271 69/120/272 65/121/273
f 62/109/274 71/123/275 70/122/276
f 70/122/277 61/108/278 62/109/279
f 71/123/280 64/111/281 63/110/282
f 63/110/283 70/122/284 71/123/285
f 68/119/286 72/124/287 47/89/288
f 74/127/289 50/128/290 49/125/291
f 49/125/292 73/126/293 74/127/294
f 76/131/295 68/132/296 67/129/297
f 67/129/298 75/130/299 76/131/300
f 77/133/301 72/134/302 68/132/303
f 68/132/304 76/131/305 77/133/306
f 73/126/307 49/125/308 48/135/309
f 48/135/310 78/136/311 73/126/312
f 50/138/313 74/139/314 24/59/315
f 24/59/316 23/137/317 50/138/318
f 79/140/319 47/141/320 72/134/321
f 72/134/322 77/133/323 79/140/324
f 78/136/325 48/135/326 47/141/327
f 47/141/328 79/140/329 78/136/330
f 56/115/331 64/142/332 60/117/333
f 60/117/334 64/142/335 71/143/336
f 60/117/337 71/143/338 62/144/339
f 54/147/340 74/148/341 73/145/342
f 73/145/343 55/146/344 54/147/345
f 57/151/346 76/152/347 75/149/348
f 75/149/349 58/150/350 57/151/351
f 61/153/352 77/154/353 76/152/354
f 76/152/355 57/151/356 61/153/357
f 70/155/358 79/156/359 77/154/360
f 77/154/361 61/153/362 70/155/363
f 63/157/364 78/158/365 79/156/366
f 79/156/367 70/155/368 63/157/369
f 55/146/370 73/145/371 78/158/372
f 78/158/373 63/157/374 55/146/375
f 24/59/376 74/139/377 80/159/378
f 80/159/379 32/60/380 24/59/381
f 54/160/382 80/159/383 74/139/384
f 41/88/385 67/118/386 47/89/387
f 81/162/388 75/130/389 67/129/390
f 67/129/391 41/161/392 81/162/393
f 69/164/394 58/150/395 75/149/396
f 75/149/397 81/163/398 69/164/399
f 83/166/400 84/167/401 85/168/402
f 85/168/403 82/165/404 83/166/405
f 87/170/406 88/171/407 89/172/408
f 89/172/409 86/169/410 87/170/411
f 85/174/412 84/175/413 37/176/414
f 37/176/415 90/173/416 85/174/417
f 91/178/418 92/179/419 65/180/420
f 65/180/421 69/177/422 91/178/423
f 65/180/424 93/181/425 94/182/426
f 18/185/427 69/186/428 40/183/429
f 40/183/430 39/184/431 18/185/432
f 40/189/433 69/190/434 81/187/435
f 81/187/436 41/188/437 40/189/438
f 52/191/439 53/192/440 66/193/441
f 96/195/442 44/196/443 43/197/444
f 43/197/445 95/194/446 96/195/447
f 52/191/448 80/159/449 54/160/450
f 54/160/451 53/192/452 52/191/453
f 52/198/454 51/199/455 97/200/456
f 97/200/457 96/201/458 95/202/459
f 52/198/460 97/200/461 95/202/462
f 52/198/463 95/202/464 80/203/465
f 43/206/466 32/207/467 80/204/468
f 80/204/469 95/205/470 43/206/471
f 87/209/472 86/210/473 91/211/474
f 91/211/475 98/208/476 87/209/477
f 13/212/478 3/81/479 42/80/480
f 42/80/481 52/191/482 66/193/483
f 66/193/484 13/212/485 42/80/486
f 82/165/487 99/213/488 100/214/489
f 100/214/490 83/166/491 82/165/492
f 88/171/493 100/214/494 99/213/495
f 99/213/496 89/172/497 88/171/498
f 36/215/499 35/216/500 100/214/501
f 100/214/502 88/171/503 36/215/504
f 98/217/505 36/215/506 88/171/507
f 88/171/508 87/170/509 98/217/510
f 38/218/511 37/219/512 84/167/513
f 84/167/514 83/166/515 38/218/516
f 38/218/517 83/166/518 100/214/519
f 100/214/520 35/216/521 38/218/522
f 51/98/523 46/97/524 45/220/525
f 45/220/526 97/221/527 51/98/528
f 82/165/529 85/168/530 90/222/531
f 90/222/532 94/223/533 82/165/534
f 86/169/535 89/172/536 92/224/537
f 92/224/538 91/225/539 86/169/540
f 92/224/541 89/172/542 99/213/543
f 99/213/544 93/226/545 92/224/546
f 94/223/547 93/226/548 99/213/549
f 99/213/550 82/165/551 94/223/552
f 44/196/553 96/195/554 97/227/555
f 97/227/556 45/228/557 44/196/558
f 90/229/559 66/230/560 65/180/561
f 65/180/562 94/182/563 90/229/564
f 92/179/565 93/181/566 65/180/567
f 38/71/568 35/67/569 14/66/570
f 98/231/571 18/232/572 14/66/573
f 14/66/574 36/68/575 98/231/576
f 69/233/577 18/234/578 98/208/579
f 98/208/580 91/211/581 69/233/582
f 13/212/583 66/193/584 90/173/585
f 90/173/586 37/176/587 13/212/588
