# This file uses feet as units for non-parametric coordinates.

g default
v -48.350609 5.745865 -3.314880
v -47.682243 3.396210 -4.288139
v -45.856232 1.676140 -5.000618
v -43.361855 1.046555 -5.261398
v -48.350616 5.086494 -0.000008
v -47.682247 2.543243 -0.000008
v -45.856236 0.681458 -0.000008
v -43.361855 0.000000 -0.000008
v -48.350609 7.623596 -6.125107
v -47.682243 5.825249 -7.923454
v -45.856232 4.508766 -9.239937
v -43.361855 4.026901 -9.721802
v -48.350616 10.433823 -8.002838
v -47.682247 9.460564 -10.352493
v -45.856236 8.748085 -12.072563
v -43.361855 8.487305 -12.702148
v -48.350616 13.748711 -8.662209
v -47.682247 13.748703 -11.205460
v -45.856236 13.748703 -13.067245
v -43.361855 13.748703 -13.748703
v -48.350616 17.063599 -8.002846
v -47.682247 18.036850 -10.352501
v -45.856236 18.749329 -12.072571
v -43.361855 19.010109 -12.702156
v -48.350616 19.873810 -6.125122
v -47.682247 21.672157 -7.923470
v -45.856236 22.988632 -9.239952
v -43.361855 23.470497 -9.721817
v -48.350590 21.751549 -3.314896
v -47.682220 24.101204 -4.288155
v -45.856209 25.821274 -5.000633
v -43.361824 26.450859 -5.261414
v -48.350616 22.410927 -0.000008
v -47.682247 24.954170 -0.000008
v -45.856239 26.815956 -0.000008
v -43.361858 27.497414 -0.000008
v -48.350590 21.751549 3.314873
v -47.682220 24.101204 4.288132
v -45.856209 25.821274 5.000610
v -43.361824 26.450859 5.261391
v -48.350590 19.873825 6.125099
v -47.682220 21.672173 7.923447
v -45.856209 22.988647 9.239929
v -43.361828 23.470512 9.721794
v -48.350616 17.063591 8.002831
v -47.682247 18.036850 10.352478
v -45.856239 18.749329 12.072548
v -43.361858 19.010109 12.702133
v -48.350616 13.748711 8.662209
v -47.682247 13.748711 11.205460
v -45.856236 13.748711 13.067245
v -43.361855 13.748711 13.748703
v -48.350616 10.433823 8.002831
v -47.682247 9.460571 10.352486
v -45.856236 8.748093 12.072556
v -43.361855 8.487312 12.702141
v -48.350616 7.623596 6.125107
v -47.682247 5.825249 7.923454
v -45.856236 4.508766 9.239937
v -43.361855 4.026901 9.721802
v -48.350609 5.745872 3.314880
v -47.682243 3.396217 4.288139
v -45.856232 1.676147 5.000618
v -43.361855 1.046562 5.261398
v 48.350594 5.745865 -3.314880
v 47.682220 3.396210 -4.288139
v 45.856209 1.676140 -5.000618
v 43.361824 1.046555 -5.261398
v 48.350616 7.623596 -6.125114
v 47.682251 5.825249 -7.923462
v 45.856239 4.508766 -9.239937
v 43.361862 4.026901 -9.721802
v 48.350586 10.433815 -8.002838
v 47.682220 9.460556 -10.352493
v 45.856201 8.748077 -12.072563
v 43.361824 8.487297 -12.702148
v 48.350594 13.748703 -8.662209
v 47.682220 13.748695 -11.205460
v 45.856209 13.748695 -13.067245
v 43.361824 13.748695 -13.748703
v 48.350616 17.063591 -8.002846
v 47.682251 18.036850 -10.352501
v 45.856239 18.749321 -12.072571
v 43.361862 19.010101 -12.702156
v 48.350594 19.873802 -6.125122
v 47.682220 21.672150 -7.923470
v 45.856209 22.988632 -9.239952
v 43.361824 23.470497 -9.721817
v 48.350616 21.751549 -3.314896
v 47.682251 24.101196 -4.288155
v 45.856232 25.821266 -5.000633
v 43.361855 26.450851 -5.261414
v 48.350616 22.410919 -0.000008
v 47.682251 24.954163 -0.000008
v 45.856232 26.815956 -0.000008
v 43.361855 27.497414 -0.000008
v 48.350609 21.751541 3.314873
v 47.682243 24.101196 4.288132
v 45.856232 25.821266 5.000610
v 43.361855 26.450851 5.261391
v 48.350616 19.873817 6.125099
v 47.682251 21.672165 7.923447
v 45.856239 22.988647 9.239929
v 43.361862 23.470512 9.721794
v 48.350586 17.063591 8.002823
v 47.682220 18.036850 10.352478
v 45.856201 18.749329 12.072548
v 43.361824 19.010109 12.702133
v 48.350609 13.748703 8.662201
v 47.682243 13.748703 11.205452
v 45.856232 13.748703 13.067238
v 43.361855 13.748703 13.748703
v 48.350616 10.433830 8.002831
v 47.682251 9.460571 10.352486
v 45.856232 8.748093 12.072556
v 43.361855 8.487312 12.702141
v 48.350609 7.623596 6.125099
v 47.682243 5.825249 7.923447
v 45.856232 4.508766 9.239937
v 43.361855 4.026901 9.721802
v 48.350616 5.745872 3.314880
v 47.682251 3.396217 4.288139
v 45.856232 1.676147 5.000618
v 43.361855 1.046562 5.261398
v 48.350616 5.086494 -0.000008
v 47.682251 2.543243 -0.000008
v 45.856239 0.681458 -0.000008
v 43.361862 0.000000 -0.000008
vt 0.001953 0.865788
vt 0.011672 0.865788
vt 0.011672 0.647052
vt 0.001953 0.647052
vt 0.001953 0.851468
vt 0.011672 0.851468
vt 0.019647 0.865788
vt 0.019647 0.647052
vt 0.011672 0.660661
vt 0.001953 0.660661
vt 0.001953 0.836937
vt 0.011672 0.836937
vt 0.019647 0.851468
vt 0.019647 0.660661
vt 0.011672 0.674982
vt 0.001953 0.674982
vt 0.001953 0.822270
vt 0.011672 0.822270
vt 0.019647 0.836937
vt 0.019647 0.674982
vt 0.011672 0.689511
vt 0.001953 0.689511
vt 0.001953 0.807552
vt 0.011672 0.807552
vt 0.019647 0.822270
vt 0.019647 0.689511
vt 0.011672 0.704181
vt 0.001953 0.704181
vt 0.001953 0.792799
vt 0.011672 0.792799
vt 0.019647 0.807552
vt 0.019647 0.704181
vt 0.011672 0.718897
vt 0.001953 0.718897
vt 0.001953 0.778017
vt 0.011672 0.778017
vt 0.019647 0.792799
vt 0.019647 0.718897
vt 0.011672 0.733651
vt 0.001953 0.733651
vt 0.001953 0.763225
vt 0.011672 0.763225
vt 0.019647 0.778017
vt 0.019647 0.733651
vt 0.011672 0.748433
vt 0.001953 0.748433
vt 0.019647 0.763225
vt 0.019647 0.748433
vt 0.290333 0.865788
vt 0.280615 0.865788
vt 0.280615 0.851468
vt 0.290333 0.851468
vt 0.272639 0.865788
vt 0.272639 0.851468
vt 0.280615 0.836937
vt 0.290333 0.836937
vt 0.290333 0.660661
vt 0.280615 0.660661
vt 0.272639 0.836937
vt 0.280615 0.822270
vt 0.290333 0.822270
vt 0.290333 0.674982
vt 0.280615 0.674982
vt 0.272639 0.660661
vt 0.272639 0.822270
vt 0.280615 0.807552
vt 0.290333 0.807552
vt 0.290333 0.689511
vt 0.280615 0.689511
vt 0.272639 0.674982
vt 0.272639 0.807552
vt 0.280615 0.792799
vt 0.290333 0.792799
vt 0.290333 0.704181
vt 0.280615 0.704181
vt 0.272639 0.689511
vt 0.272639 0.792799
vt 0.280615 0.778017
vt 0.290333 0.778017
vt 0.290333 0.718897
vt 0.280615 0.718897
vt 0.272639 0.704181
vt 0.272639 0.778017
vt 0.280615 0.763225
vt 0.290333 0.763225
vt 0.290333 0.733651
vt 0.280615 0.733651
vt 0.272639 0.718897
vt 0.272639 0.763225
vt 0.280615 0.748433
vt 0.290333 0.748433
vt 0.272639 0.733651
vt 0.272639 0.748433
vt 0.265404 0.748433
vt 0.265404 0.763225
vt 0.026883 0.763225
vt 0.026883 0.748433
vt 0.265404 0.778017
vt 0.026883 0.778017
vt 0.026883 0.733651
vt 0.265404 0.733651
vt 0.265404 0.792799
vt 0.026883 0.792799
vt 0.265404 0.718897
vt 0.026883 0.718897
vt 0.265404 0.807552
vt 0.026883 0.807552
vt 0.265404 0.865788
vt 0.026883 0.647052
vt 0.026883 0.865788
vt 0.265404 0.660661
vt 0.026883 0.660661
vt 0.265404 0.851468
vt 0.026883 0.851468
vt 0.265404 0.674982
vt 0.026883 0.674982
vt 0.265404 0.836937
vt 0.026883 0.836937
vt 0.265404 0.689511
vt 0.026883 0.689511
vt 0.265404 0.704181
vt 0.026883 0.704181
vt 0.265404 0.822270
vt 0.026883 0.822270
vt 0.265404 0.647052
vt 0.272639 0.647052
vt 0.280615 0.647052
vt 0.290333 0.647052
vt 0.265404 0.879398
vt 0.026883 0.879398
vt 0.272639 0.879398
vt 0.280615 0.879398
vt 0.290333 0.879398
vt 0.019647 0.879398
vt 0.011672 0.879398
vt 0.001953 0.879398
vt 0.416311 0.913238
vt 0.418512 0.902175
vt 0.424778 0.892798
vt 0.434156 0.886531
vt 0.445218 0.884331
vt 0.456280 0.886531
vt 0.465658 0.892798
vt 0.471924 0.902175
vt 0.474124 0.913238
vt 0.471924 0.924300
vt 0.465658 0.933677
vt 0.456280 0.939944
vt 0.445218 0.942144
vt 0.434156 0.939944
vt 0.424778 0.933677
vt 0.418512 0.924300
vt 0.528278 0.895668
vt 0.534544 0.905046
vt 0.536745 0.916108
vt 0.534545 0.927170
vt 0.528278 0.936548
vt 0.518900 0.942815
vt 0.507838 0.945015
vt 0.496776 0.942815
vt 0.487398 0.936548
vt 0.481132 0.927170
vt 0.478931 0.916108
vt 0.481132 0.905046
vt 0.487398 0.895668
vt 0.496776 0.889402
vt 0.507838 0.887201
vt 0.518900 0.889402
vn 0.007216 0.000000 0.999974
vn 0.007216 0.382674 0.923855
vn -0.007216 0.000001 0.999974
vn -0.007216 0.382674 0.923855
vn 0.007216 0.707088 0.707088
vn -0.007216 0.707088 0.707089
vn -0.007216 0.923856 0.382673
vn 0.007216 0.923856 0.382673
vn 0.007216 0.999974 -0.000000
vn -0.007216 0.999974 0.000000
vn 0.007216 0.923855 -0.382674
vn -0.007216 0.923855 -0.382674
vn 0.007216 0.707088 -0.707089
vn -0.007216 0.707088 -0.707089
vn 0.007216 0.382672 -0.923856
vn -0.007216 0.382672 -0.923856
vn 0.007216 -0.000000 -0.999974
vn -0.007216 -0.000001 -0.999974
vn 0.007216 -0.382674 -0.923855
vn -0.007216 -0.382674 -0.923855
vn 0.007216 -0.707089 -0.707088
vn -0.007216 -0.707089 -0.707088
vn 0.007216 -0.923855 -0.382674
vn -0.007216 -0.923855 -0.382674
vn 0.007216 -0.999974 0.000001
vn -0.007216 -0.999974 0.000001
vn 0.007216 -0.923856 0.382673
vn -0.007216 -0.923856 0.382673
vn 0.007216 -0.707088 0.707089
vn -0.007216 -0.707088 0.707089
vn 0.007216 -0.382673 0.923856
vn -0.007216 -0.382673 0.923856
vn -0.480938 -0.810016 -0.335520
vn -0.480938 -0.876755 0.000001
vn -0.999910 -0.012418 -0.005144
vn -0.842214 -0.498104 -0.206322
vn -0.999910 -0.013442 0.000000
vn -0.842213 -0.539144 0.000000
vn -0.480938 -0.810016 0.335520
vn -0.999910 -0.012418 0.005144
vn -0.842213 -0.498105 0.206321
vn -0.480938 -0.619959 -0.619959
vn -0.842214 -0.381233 -0.381232
vn -0.999910 -0.009504 -0.009505
vn -0.480938 -0.335520 -0.810016
vn -0.842214 -0.206322 -0.498104
vn -0.999910 -0.005143 -0.012419
vn -0.480937 -0.000000 -0.876755
vn -0.842214 -0.000000 -0.539144
vn -0.999910 0.000001 -0.013442
vn -0.480937 0.335519 -0.810016
vn -0.842214 0.206321 -0.498105
vn -0.999910 0.005145 -0.012419
vn -0.480938 0.619960 -0.619959
vn -0.842214 0.381234 -0.381231
vn -0.999910 0.009506 -0.009505
vn -0.480936 0.810016 -0.335521
vn -0.842213 0.498105 -0.206323
vn -0.999910 0.012420 -0.005144
vn -0.480938 0.876755 0.000000
vn -0.842215 0.539142 0.000000
vn -0.999910 0.013443 0.000000
vn -0.480936 0.810016 0.335521
vn -0.842213 0.498103 0.206324
vn -0.999910 0.012420 0.005145
vn -0.480937 0.619960 0.619959
vn -0.842213 0.381235 0.381231
vn -0.999910 0.009506 0.009505
vn -0.480938 0.335521 0.810015
vn -0.842214 0.206324 0.498102
vn -0.999910 0.005145 0.012419
vn -0.480937 0.000001 0.876755
vn -0.842213 0.000000 0.539144
vn -0.999910 0.000001 0.013443
vn -0.480938 -0.335519 0.810016
vn -0.842214 -0.206321 0.498104
vn -0.999910 -0.005143 0.012419
vn -0.480938 -0.619959 0.619960
vn -0.842214 -0.381233 0.381232
vn -0.999910 -0.009504 0.009505
vn 0.480936 -0.810016 -0.335520
vn 0.480938 -0.619959 -0.619959
vn 0.999910 -0.012419 -0.005145
vn 0.842213 -0.498106 -0.206322
vn 0.999910 -0.009505 -0.009506
vn 0.842214 -0.381232 -0.381232
vn 0.480936 -0.335519 -0.810017
vn 0.999910 -0.005144 -0.012420
vn 0.842213 -0.206319 -0.498106
vn 0.480937 -0.000002 -0.876755
vn 0.999910 -0.000000 -0.013443
vn 0.842213 -0.000004 -0.539145
vn 0.480938 0.335518 -0.810016
vn 0.999910 0.005144 -0.012420
vn 0.842214 0.206320 -0.498104
vn 0.480936 0.619960 -0.619960
vn 0.999910 0.009505 -0.009506
vn 0.842213 0.381234 -0.381234
vn 0.480938 0.810015 -0.335521
vn 0.999910 0.012419 -0.005145
vn 0.842214 0.498103 -0.206324
vn 0.480938 0.876755 0.000000
vn 0.999910 0.013442 -0.000000
vn 0.842213 0.539144 0.000001
vn 0.480938 0.810016 0.335519
vn 0.999910 0.012419 0.005144
vn 0.842214 0.498104 0.206321
vn 0.480939 0.619958 0.619960
vn 0.999910 0.009505 0.009505
vn 0.842214 0.381230 0.381233
vn 0.480937 0.335519 0.810017
vn 0.999910 0.005144 0.012419
vn 0.842213 0.206322 0.498106
vn 0.480939 0.000002 0.876754
vn 0.999910 0.000000 0.013442
vn 0.842214 0.000003 0.539144
vn 0.480938 -0.335519 0.810016
vn 0.999910 -0.005144 0.012419
vn 0.842214 -0.206321 0.498104
vn 0.480938 -0.619959 0.619960
vn 0.999910 -0.009505 0.009505
vn 0.842213 -0.381233 0.381233
vn 0.480938 -0.810016 0.335520
vn 0.999910 -0.012419 0.005144
vn 0.842214 -0.498104 0.206322
vn 0.480938 -0.876755 -0.000001
vn 0.999910 -0.013442 -0.000001
vn 0.842214 -0.539144 -0.000002
s 1
g SM_Bed_02a
f 112/121/1 108/104/2 52/122/3
f 52/122/3 108/104/2 48/105/4
f 108/104/2 104/101/5 48/105/4
f 48/105/4 104/101/5 44/100/6
f 44/100/6 104/101/5 40/97/7
f 40/97/7 104/101/5 100/94/8
f 100/94/8 96/95/9 40/97/7
f 40/97/7 96/95/9 36/96/10
f 96/95/9 92/98/11 36/96/10
f 36/96/10 92/98/11 32/99/12
f 92/98/11 88/102/13 32/99/12
f 32/99/12 88/102/13 28/103/14
f 88/102/13 84/106/15 28/103/14
f 28/103/14 84/106/15 24/107/16
f 84/106/15 80/123/17 24/107/16
f 24/107/16 80/123/17 20/124/18
f 80/123/17 76/117/19 20/124/18
f 20/124/18 76/117/19 16/118/20
f 76/117/19 72/113/21 16/118/20
f 16/118/20 72/113/21 12/114/22
f 72/113/21 68/108/23 12/114/22
f 12/114/22 68/108/23 4/110/24
f 68/108/23 128/129/25 4/110/24
f 4/110/24 128/129/25 8/130/26
f 128/125/25 124/111/27 8/109/26
f 8/109/26 124/111/27 64/112/28
f 124/111/27 120/115/29 64/112/28
f 64/112/28 120/115/29 60/116/30
f 120/115/29 116/119/31 60/116/30
f 60/116/30 116/119/31 56/120/32
f 116/119/31 112/121/1 56/120/32
f 56/120/32 112/121/1 52/122/3
f 3/7/33 4/110/24 7/134/34
f 7/134/34 4/110/24 8/130/26
f 1/1/35 2/2/36 5/136/37
f 5/136/37 2/2/36 6/135/38
f 2/2/36 3/7/33 6/135/38
f 6/135/38 3/7/33 7/134/34
f 7/8/34 8/109/26 63/14/39
f 63/14/39 8/109/26 64/112/28
f 5/4/37 6/3/38 61/10/40
f 61/10/40 6/3/38 62/9/41
f 6/3/38 7/8/34 62/9/41
f 62/9/41 7/8/34 63/14/39
f 4/110/24 3/7/33 12/114/22
f 12/114/22 3/7/33 11/13/42
f 3/7/33 2/2/36 11/13/42
f 11/13/42 2/2/36 10/6/43
f 2/2/36 1/1/35 10/6/43
f 10/6/43 1/1/35 9/5/44
f 12/114/22 11/13/42 16/118/20
f 16/118/20 11/13/42 15/19/45
f 11/13/42 10/6/43 15/19/45
f 15/19/45 10/6/43 14/12/46
f 10/6/43 9/5/44 14/12/46
f 14/12/46 9/5/44 13/11/47
f 16/118/20 15/19/45 20/124/18
f 20/124/18 15/19/45 19/25/48
f 15/19/45 14/12/46 19/25/48
f 19/25/48 14/12/46 18/18/49
f 14/12/46 13/11/47 18/18/49
f 18/18/49 13/11/47 17/17/50
f 20/124/18 19/25/48 24/107/16
f 24/107/16 19/25/48 23/31/51
f 19/25/48 18/18/49 23/31/51
f 23/31/51 18/18/49 22/24/52
f 18/18/49 17/17/50 22/24/52
f 22/24/52 17/17/50 21/23/53
f 24/107/16 23/31/51 28/103/14
f 28/103/14 23/31/51 27/37/54
f 23/31/51 22/24/52 27/37/54
f 27/37/54 22/24/52 26/30/55
f 22/24/52 21/23/53 26/30/55
f 26/30/55 21/23/53 25/29/56
f 28/103/14 27/37/54 32/99/12
f 32/99/12 27/37/54 31/43/57
f 27/37/54 26/30/55 31/43/57
f 31/43/57 26/30/55 30/36/58
f 26/30/55 25/29/56 30/36/58
f 30/36/58 25/29/56 29/35/59
f 32/99/12 31/43/57 36/96/10
f 36/96/10 31/43/57 35/47/60
f 31/43/57 30/36/58 35/47/60
f 35/47/60 30/36/58 34/42/61
f 30/36/58 29/35/59 34/42/61
f 34/42/61 29/35/59 33/41/62
f 36/96/10 35/47/60 40/97/7
f 40/97/7 35/47/60 39/48/63
f 35/47/60 34/42/61 39/48/63
f 39/48/63 34/42/61 38/45/64
f 34/42/61 33/41/62 38/45/64
f 38/45/64 33/41/62 37/46/65
f 40/97/7 39/48/63 44/100/6
f 44/100/6 39/48/63 43/44/66
f 39/48/63 38/45/64 43/44/66
f 43/44/66 38/45/64 42/39/67
f 38/45/64 37/46/65 42/39/67
f 42/39/67 37/46/65 41/40/68
f 44/100/6 43/44/66 48/105/4
f 48/105/4 43/44/66 47/38/69
f 43/44/66 42/39/67 47/38/69
f 47/38/69 42/39/67 46/33/70
f 42/39/67 41/40/68 46/33/70
f 46/33/70 41/40/68 45/34/71
f 48/105/4 47/38/69 52/122/3
f 52/122/3 47/38/69 51/32/72
f 47/38/69 46/33/70 51/32/72
f 51/32/72 46/33/70 50/27/73
f 46/33/70 45/34/71 50/27/73
f 50/27/73 45/34/71 49/28/74
f 52/122/3 51/32/72 56/120/32
f 56/120/32 51/32/72 55/26/75
f 51/32/72 50/27/73 55/26/75
f 55/26/75 50/27/73 54/21/76
f 50/27/73 49/28/74 54/21/76
f 54/21/76 49/28/74 53/22/77
f 56/120/32 55/26/75 60/116/30
f 60/116/30 55/26/75 59/20/78
f 55/26/75 54/21/76 59/20/78
f 59/20/78 54/21/76 58/15/79
f 54/21/76 53/22/77 58/15/79
f 58/15/79 53/22/77 57/16/80
f 60/116/30 59/20/78 64/112/28
f 64/112/28 59/20/78 63/14/39
f 59/20/78 58/15/79 63/14/39
f 63/14/39 58/15/79 62/9/41
f 58/15/79 57/16/80 62/9/41
f 62/9/41 57/16/80 61/10/40
f 67/53/81 68/108/23 71/54/82
f 71/54/82 68/108/23 72/113/21
f 65/49/83 66/50/84 69/52/85
f 69/52/85 66/50/84 70/51/86
f 66/50/84 67/53/81 70/51/86
f 70/51/86 67/53/81 71/54/82
f 71/54/82 72/113/21 75/59/87
f 75/59/87 72/113/21 76/117/19
f 69/52/85 70/51/86 73/56/88
f 73/56/88 70/51/86 74/55/89
f 70/51/86 71/54/82 74/55/89
f 74/55/89 71/54/82 75/59/87
f 75/59/87 76/117/19 79/65/90
f 79/65/90 76/117/19 80/123/17
f 73/56/88 74/55/89 77/61/91
f 77/61/91 74/55/89 78/60/92
f 74/55/89 75/59/87 78/60/92
f 78/60/92 75/59/87 79/65/90
f 79/65/90 80/123/17 83/71/93
f 83/71/93 80/123/17 84/106/15
f 77/61/91 78/60/92 81/67/94
f 81/67/94 78/60/92 82/66/95
f 78/60/92 79/65/90 82/66/95
f 82/66/95 79/65/90 83/71/93
f 83/71/93 84/106/15 87/77/96
f 87/77/96 84/106/15 88/102/13
f 81/67/94 82/66/95 85/73/97
f 85/73/97 82/66/95 86/72/98
f 82/66/95 83/71/93 86/72/98
f 86/72/98 83/71/93 87/77/96
f 87/77/96 88/102/13 91/83/99
f 91/83/99 88/102/13 92/98/11
f 85/73/97 86/72/98 89/79/100
f 89/79/100 86/72/98 90/78/101
f 86/72/98 87/77/96 90/78/101
f 90/78/101 87/77/96 91/83/99
f 91/83/99 92/98/11 95/89/102
f 95/89/102 92/98/11 96/95/9
f 89/79/100 90/78/101 93/85/103
f 93/85/103 90/78/101 94/84/104
f 90/78/101 91/83/99 94/84/104
f 94/84/104 91/83/99 95/89/102
f 95/89/102 96/95/9 99/93/105
f 99/93/105 96/95/9 100/94/8
f 93/85/103 94/84/104 97/91/106
f 97/91/106 94/84/104 98/90/107
f 94/84/104 95/89/102 98/90/107
f 98/90/107 95/89/102 99/93/105
f 99/93/105 100/94/8 103/92/108
f 103/92/108 100/94/8 104/101/5
f 97/91/106 98/90/107 101/86/109
f 101/86/109 98/90/107 102/87/110
f 98/90/107 99/93/105 102/87/110
f 102/87/110 99/93/105 103/92/108
f 103/92/108 104/101/5 107/88/111
f 107/88/111 104/101/5 108/104/2
f 101/86/109 102/87/110 105/80/112
f 105/80/112 102/87/110 106/81/113
f 102/87/110 103/92/108 106/81/113
f 106/81/113 103/92/108 107/88/111
f 107/88/111 108/104/2 111/82/114
f 111/82/114 108/104/2 112/121/1
f 105/80/112 106/81/113 109/74/115
f 109/74/115 106/81/113 110/75/116
f 106/81/113 107/88/111 110/75/116
f 110/75/116 107/88/111 111/82/114
f 111/82/114 112/121/1 115/76/117
f 115/76/117 112/121/1 116/119/31
f 109/74/115 110/75/116 113/68/118
f 113/68/118 110/75/116 114/69/119
f 110/75/116 111/82/114 114/69/119
f 114/69/119 111/82/114 115/76/117
f 115/76/117 116/119/31 119/70/120
f 119/70/120 116/119/31 120/115/29
f 113/68/118 114/69/119 117/62/121
f 117/62/121 114/69/119 118/63/122
f 114/69/119 115/76/117 118/63/122
f 118/63/122 115/76/117 119/70/120
f 119/70/120 120/115/29 123/64/123
f 123/64/123 120/115/29 124/111/27
f 117/62/121 118/63/122 121/57/124
f 121/57/124 118/63/122 122/58/125
f 118/63/122 119/70/120 122/58/125
f 122/58/125 119/70/120 123/64/123
f 123/64/123 124/111/27 127/126/126
f 127/126/126 124/111/27 128/125/25
f 121/57/124 122/58/125 125/128/127
f 125/128/127 122/58/125 126/127/128
f 122/58/125 123/64/123 126/127/128
f 126/127/128 123/64/123 127/126/126
f 68/108/23 67/53/81 128/129/25
f 128/129/25 67/53/81 127/131/126
f 67/53/81 66/50/84 127/131/126
f 127/131/126 66/50/84 126/132/128
f 66/50/84 65/49/83 126/132/128
f 126/132/128 65/49/83 125/133/127
f 5/137/37 61/138/40 1/152/35
f 61/138/40 57/139/80 1/152/35
f 57/139/80 53/140/77 1/152/35
f 53/140/77 49/141/74 1/152/35
f 49/141/74 45/142/71 1/152/35
f 45/142/71 41/143/68 1/152/35
f 41/143/68 37/144/65 1/152/35
f 37/144/65 33/145/62 1/152/35
f 33/145/62 29/146/59 1/152/35
f 29/146/59 25/147/56 1/152/35
f 25/147/56 21/148/53 1/152/35
f 21/148/53 17/149/50 1/152/35
f 17/149/50 13/150/47 1/152/35
f 13/150/47 9/151/44 1/152/35
f 69/153/85 73/154/88 65/168/83
f 73/154/88 77/155/91 65/168/83
f 77/155/91 81/156/94 65/168/83
f 81/156/94 85/157/97 65/168/83
f 85/157/97 89/158/100 65/168/83
f 89/158/100 93/159/103 65/168/83
f 93/159/103 97/160/106 65/168/83
f 97/160/106 101/161/109 65/168/83
f 101/161/109 105/162/112 65/168/83
f 105/162/112 109/163/115 65/168/83
f 109/163/115 113/164/118 65/168/83
f 113/164/118 117/165/121 65/168/83
f 117/165/121 121/166/124 65/168/83
f 121/166/124 125/167/127 65/168/83
