# This file uses feet as units for non-parametric coordinates.

g default
v -22.854977 16.110474 2.163605
v -29.883896 8.469687 3.410217
v 0.797210 2.030056 -0.547424
v 4.479900 15.622088 -2.939728
v 27.694002 2.910530 -11.894928
v -15.184227 11.110753 -29.679230
v 28.288380 3.557119 -0.126404
v -20.118435 1.898584 -0.864136
v 14.977521 17.282084 -14.178802
v -19.889441 1.522480 -19.851685
v -28.824186 13.022491 9.549713
v 6.994672 7.870551 28.262909
v 14.139536 1.063584 -0.206573
v 23.395535 15.312428 5.788422
v 13.643843 12.323524 -28.747894
v -8.860653 16.997898 -15.972443
v 0.135990 15.458873 -13.033142
v -10.073440 3.552443 25.802307
v 4.261792 0.304834 -16.072998
v 16.375420 11.362205 28.609863
v -15.248439 1.093976 -21.259155
v 29.691223 10.723768 29.830078
v 10.108932 2.580850 -25.303497
v 3.920480 14.511288 22.775513
v 26.390179 2.503685 -0.056213
v 27.990038 13.734190 -11.236359
v -22.988228 1.988064 8.767761
v 19.464867 2.931654 -25.510284
v -14.302572 5.731314 28.583405
v 8.698921 16.267555 -0.237640
v -16.814945 0.482344 13.501678
v -19.419838 16.837267 -1.031219
v 29.901892 4.216038 10.568573
v -25.486908 4.416903 -25.655426
v -0.527641 9.550652 28.304901
v 3.743295 16.560003 -17.174713
v -29.967373 9.024263 15.424072
v 0.610443 7.799569 -29.145599
v -22.446865 15.004879 16.994934
v 12.990067 -0.059583 12.946594
v -13.547724 14.568555 -25.041138
v -0.113313 15.810132 17.169952
v 27.173712 5.629202 29.240784
v 0.680413 1.463398 -17.129669
v 20.819405 16.150763 -7.669830
v -14.381630 14.520682 24.320160
v -0.115218 1.296852 15.696686
v -9.556128 6.282849 -29.239136
v -15.197117 16.810688 11.800690
v 26.429832 13.686029 -0.122467
v -19.690231 16.710144 -11.722382
v -28.260939 4.423571 -1.208771
v 13.311551 16.933176 8.984375
v 16.112776 9.314831 -30.232330
v -0.229559 2.018854 20.094177
v -27.315405 14.430733 -1.132843
v 30.886362 8.174263 18.141296
v -14.824606 0.374276 -16.649628
v -23.941753 16.186777 -7.977600
v 11.383822 15.988644 20.939789
v -6.290982 0.659904 6.252533
v 18.775414 16.784834 -17.657928
v 14.622144 5.278936 -28.935822
v -8.397940 1.561401 -0.492157
v 7.398470 16.453892 5.065674
v 29.376640 6.383219 -30.048645
v -15.359555 11.689722 28.419189
v 20.682236 4.405247 27.803375
v 0.721524 9.338101 -29.274689
v 25.333715 1.488016 -4.333557
v -8.200974 16.496895 17.511200
v 29.095926 11.691835 22.752960
v -14.030976 9.154322 29.373444
v 3.439920 14.283816 -24.893799
v -21.842888 1.371996 -10.952637
v -28.046324 14.020103 -10.366516
v 13.900145 16.860752 -2.891907
v 29.425692 8.538324 -31.187225
v -7.250041 0.258656 -8.289368
v -28.836418 11.519739 23.868958
v -6.446049 2.780241 -24.986481
v 0.197139 13.950096 -0.533386
v -26.922691 3.351946 -1.193359
v 26.915529 2.050713 13.916534
v 23.153393 10.970898 -29.288116
v 11.736159 11.516903 27.655975
v 4.013172 0.689840 7.601044
v 30.544773 8.358856 -17.429688
v -7.828295 15.433179 -0.909241
v 14.192176 13.828266 -27.099518
v -7.637103 0.184545 -17.951294
v 28.794662 13.036049 10.296661
v 3.304223 15.947657 5.574249
v -30.270771 9.298552 -17.129517
v 20.238060 0.713375 0.107178
v -18.165874 2.195065 22.364807
v 29.068510 9.626204 31.187225
v -10.813715 0.746433 19.126648
v 6.287172 0.465451 -9.257507
v -24.808294 12.776621 22.672729
v -19.359066 12.937176 -26.504913
v 3.709341 1.334769 19.361938
v 4.995499 16.574516 14.635712
v 10.285885 0.063802 -15.508606
v 28.834435 12.922985 -17.513794
v -29.501656 5.534998 18.550690
v 23.751963 3.230070 24.764282
v 30.300732 6.710316 -17.902679
v 6.093136 0.309165 -19.137573
v -24.106590 14.805502 -19.534912
v -24.027416 5.680677 27.571259
v 30.631493 9.438850 -29.704468
v 21.735989 15.279779 16.916809
v -0.340256 7.341239 27.442841
v -30.280779 7.828457 -23.819580
v -11.322296 15.778947 21.071808
v 28.356689 7.098349 30.988678
v 3.651063 1.681532 -0.504517
v -29.600945 9.823486 2.206299
v -26.542057 4.471807 22.706146
v 29.093399 10.890991 4.237976
v -29.483646 6.250822 3.825195
v -29.163357 11.400761 -24.384277
v 15.832561 14.104512 24.868378
v 28.910925 7.067406 -0.244629
v -4.939964 16.563004 -9.794312
v -22.688807 9.505625 -30.287994
v -30.248077 6.947571 28.661041
v 23.120245 8.316225 -30.074768
v 30.716393 7.424671 29.567932
v -28.266666 4.190104 -10.652802
v -19.452755 15.586679 -19.967316
v 23.740490 15.461729 -13.909241
v 17.454693 15.327559 21.871002
v 29.009075 3.595734 17.829651
v -30.167892 8.672495 23.672302
v 16.412897 5.858212 28.894897
v -5.850848 16.058113 3.927185
v -28.953659 9.668541 -30.920044
v -30.101152 7.877180 15.377991
v -13.120772 1.206888 -0.685760
v -0.237313 14.595200 22.390289
v 0.550299 13.706451 -24.091034
v 30.771811 9.599791 30.056671
v -29.084778 8.520855 -1.309204
v 4.520652 2.329725 -23.880615
v -0.339830 4.548473 25.303650
v 8.783724 17.272316 -14.716492
v -20.931269 9.187801 29.511200
v -0.288057 3.018453 22.911774
v 22.086464 1.873999 -18.229889
v 29.570536 12.095182 -16.652893
v -29.819014 8.263247 -11.910950
v 25.615360 11.458811 28.327850
v -4.670827 1.434137 -21.961456
v 21.723961 0.538046 -4.432312
v 22.518433 12.712276 -26.224884
v 12.859341 9.364238 29.119934
v -29.657045 7.713444 -30.684723
v 0.126834 1.359443 9.841461
v -17.764072 17.280045 -6.460114
v -15.448951 7.691243 29.460846
v 20.379627 15.458303 -21.513580
v 30.833197 8.394169 -29.940155
v 5.548431 0.374217 15.207977
v -30.314444 7.873062 -17.584900
v -27.775473 13.723129 12.426666
v 18.939941 16.315754 4.936066
v 0.762252 6.698840 -28.647339
v 19.278000 0.490923 13.674347
v 13.080371 0.592167 -19.538727
v -28.410559 12.875412 -1.195953
v 26.803831 3.434286 -20.249023
v 20.121670 15.938759 -0.019562
v -13.720687 0.000000 -8.543732
v 2.932594 5.982255 26.733704
v -0.626781 10.772560 27.620148
v 15.481167 16.281960 -21.601318
v 4.942330 15.858582 -22.263428
v 15.081517 7.817239 -30.103027
v -26.243870 3.170042 -19.179016
v -30.101370 7.794533 29.417725
v -6.259182 0.802541 -4.264893
v 0.461257 15.231507 -20.195343
v 24.692673 2.099264 -0.000275
v -21.624615 11.020792 28.272827
v 0.023457 15.550593 9.927032
v 22.980907 6.029131 -29.352875
v -4.146033 15.057465 -23.230438
v 7.789636 0.705358 19.009888
v -28.993578 5.326887 -10.494446
v -29.857454 9.217091 10.902802
v -6.368108 13.086138 -26.963745
v 7.150786 9.699307 28.532684
v -11.129274 16.947147 10.293365
v -16.573290 1.377756 -0.739777
v 16.560501 16.858644 -5.377045
v 16.939808 16.244663 16.585419
v -8.312040 16.568272 -19.437469
v -30.764826 9.000887 28.069672
v 27.613813 12.918819 -0.135254
v 17.416174 2.073877 22.949524
v -21.441151 4.573448 -27.694122
v -26.630030 12.549351 -24.523132
v -29.616924 6.422855 -29.865692
v -12.301681 17.148914 -11.586029
v 26.709145 2.851894 19.925873
v 29.429829 10.295181 -29.866974
v 0.651759 10.360563 -28.610443
v 0.672320 1.508309 -8.231842
v -28.964863 5.522617 -25.652557
v -28.350101 4.129944 10.626923
v -17.473372 3.354010 25.482788
v 25.322870 13.558950 20.585388
v -16.007954 7.809540 -30.413452
v -29.157982 7.211365 -1.338623
v 30.490219 7.678905 9.437988
v 30.651787 7.452137 -29.657196
v -11.894541 1.491731 22.071838
v -30.277121 9.274780 -24.083282
v 12.450792 16.655483 17.402924
v 11.938221 17.142509 -18.150848
v 29.654726 8.020943 31.181488
v -8.465357 0.354875 15.048859
v 25.826200 4.714399 -26.770416
v 27.154724 13.571445 17.123047
v -30.394018 7.619633 22.557953
v 22.952070 9.082811 30.335327
v 29.506739 11.885738 9.145813
v -28.664450 10.621651 28.638580
v -26.226665 15.160404 -11.538483
v -0.328481 8.272763 28.184174
v -4.115579 0.434769 -14.058044
v 29.660593 7.460428 -5.694916
v -26.768658 3.445871 12.562897
v 16.867216 16.681736 9.663879
v 20.458027 11.645731 28.333221
v 7.363780 0.235497 9.690186
v -13.145557 13.168170 -27.576782
v 14.337114 15.254972 -24.325836
v 15.278509 7.689227 29.495178
v 16.434410 0.539705 17.709808
v -16.064060 16.696497 -1.012939
v 8.942702 1.117950 -0.354767
v 30.884899 8.334711 22.832397
v -28.701164 5.077375 13.876709
v -29.477789 9.229271 29.681824
v -14.303641 4.795940 -28.503815
v 7.470472 4.160535 -27.095764
v -29.254183 12.200583 -18.343231
v -15.635611 9.192250 -30.404022
v 0.625123 2.351547 -21.613068
v 8.793897 1.714008 22.073151
v -14.166152 17.440050 -4.832672
v 30.854971 6.419727 18.487488
v -13.243816 0.130618 11.211487
v -24.108057 15.217606 11.909607
v -21.972672 7.694382 -30.486145
v 29.150501 9.333948 -30.825500
v -25.269905 2.399639 -13.744263
v -28.690868 10.887341 -29.253479
v -27.678862 13.529840 16.751373
v -19.265955 2.593092 -24.263641
v 13.760289 16.071955 0.013214
v -16.612574 15.312908 21.320679
v -30.606651 9.548903 -30.275146
v -29.261812 12.395208 15.150513
v -22.510302 11.227720 -29.034912
v 5.062802 4.152983 25.216187
v -30.855707 7.527086 -29.536652
v -20.584934 5.943193 28.782715
v -29.241518 11.771503 11.866943
v 0.697002 4.693983 -26.075623
v -13.926250 16.233244 18.261627
v 25.646320 14.437473 -17.546539
v 22.494848 12.489605 25.755981
v 22.275980 4.631718 -27.884949
v 24.278421 1.255281 11.464264
v -9.743384 -0.059752 -13.131775
v -25.377716 2.901873 16.754456
v -19.372265 16.352686 11.167816
v 26.706566 12.371449 23.552063
v -21.081917 1.566418 17.084351
v 26.535484 14.283335 9.243134
v -14.603110 2.144851 -24.374451
v -22.868269 12.071642 25.767975
v 15.483586 0.006235 -10.033691
v 28.877695 4.357828 -20.278625
v 10.703045 -0.021342 -7.019440
v -29.603182 5.949820 -18.516754
v -9.405657 13.664210 25.194305
v -26.980755 14.526995 9.040222
v 29.256363 10.774597 -4.705475
v -28.497393 4.328836 18.149811
v 14.053121 0.058237 -5.217743
v 10.284930 14.586109 23.742035
v 29.542202 4.905249 -17.747925
v -12.561602 16.752502 -17.809967
v -23.089602 2.604475 -21.890839
v 4.120506 12.334081 26.289215
v 0.155941 14.966609 -8.954865
v 30.191837 5.121202 18.996155
v -17.564884 16.905388 4.727142
v 14.661175 10.899087 -29.766998
v -28.158026 13.328608 -18.381958
v 8.209039 9.262308 -29.848694
v 23.437069 9.522560 -30.060364
v 23.733318 1.690466 17.938568
v -29.765568 10.565151 23.519104
v 29.456127 7.620142 -30.971222
v 20.692144 2.428957 -23.715179
v 30.294044 10.677959 19.699249
v 11.468388 0.078656 -12.021454
v -23.245148 5.930233 -29.870117
v 27.386236 12.972353 -20.388824
v 13.836170 1.481399 -22.719666
v -7.330378 16.489002 -4.949707
v 1.969144 15.596698 -21.292328
v 7.142251 16.398994 17.918793
v -11.685004 16.898447 4.908417
v -15.857097 17.114861 -12.803009
v -29.114374 12.206755 -11.668365
v 30.171104 10.905552 -17.279175
v -28.348537 6.122375 27.731781
v -29.894623 8.246437 10.900513
v -17.013538 0.364243 -10.088165
v 18.773767 1.131853 -18.019012
v 20.486238 11.204035 -29.527191
v -29.109848 5.170374 -21.309570
v -29.509808 5.790396 11.820892
v 7.951252 3.037999 24.129150
v 24.449003 1.433142 -8.875397
v -12.591019 2.401370 24.323944
v -11.216960 0.081247 -6.097839
v 29.141937 11.738434 -22.935455
v 28.552563 10.901836 -0.241821
v 24.681793 10.790783 29.624329
v -18.389301 15.947529 16.262146
v 23.360092 5.872122 29.635773
v 17.171225 13.884225 -26.691986
v 17.982290 15.046673 -24.201904
v -27.992825 4.307171 20.634460
v -11.025681 0.972462 -21.386932
v -30.886362 7.829412 27.184204
v -20.169052 16.520706 -14.406525
v 5.322394 0.746947 -5.536926
v 14.828480 6.432622 -29.752106
v -14.371503 17.123735 2.656952
v -27.402813 3.390656 -13.987244
v -15.967961 4.188078 26.943817
v 29.114006 3.247234 13.116486
v -9.392548 16.026581 -21.808319
v 6.484650 6.398289 -29.114899
v 12.282335 17.350491 -11.693481
v -19.153851 1.612713 19.612885
v -29.205616 5.703415 6.888794
v -5.844095 4.256582 -26.894409
v 7.655886 17.103764 -11.768707
v 28.102865 10.965940 30.048859
v 25.843494 14.464655 3.684113
v -26.643246 3.174395 9.858185
v 21.692636 7.451679 30.153656
v 5.856445 10.717715 -28.923309
v -12.631350 6.044160 -29.601715
v 23.604088 11.790833 -27.916138
v -29.983578 10.099657 28.503693
v -5.027602 6.646776 -29.262421
v 4.533399 16.542467 -19.492462
v -29.800983 6.416761 -24.241669
v 29.863167 6.813530 30.181549
v -3.516626 16.286629 -17.517883
v -29.780762 9.755617 -12.248138
v 28.839565 5.576860 28.292023
v 24.152702 14.909330 13.280579
v -22.026178 1.634903 -16.912262
v 6.995439 0.805355 -21.262695
v 3.715075 2.129983 21.751678
v -15.924109 10.248037 29.301117
v -25.702953 14.805157 -17.535431
v 18.933979 0.190689 -3.346649
v 4.834007 0.330623 11.970001
v -9.312315 0.188588 8.502350
v -11.639631 11.258122 28.263794
v -9.234715 14.756769 -24.821075
v 11.804823 5.870021 28.052612
v -20.735865 7.728514 29.445282
v 7.387218 7.807844 -29.593964
v -28.943417 9.778452 -1.278412
vt 0.358622 0.764288
vt 0.362701 0.717426
vt 0.382533 0.728852
vt 0.481489 0.766237
vt 0.486677 0.802748
vt 0.469341 0.799423
vt 0.426857 0.872815
vt 0.406724 0.870821
vt 0.406842 0.859298
vt 0.301135 0.828954
vt 0.304968 0.764538
vt 0.312907 0.764119
vt 0.507004 0.767665
vt 0.458829 0.656775
vt 0.444253 0.669799
vt 0.409118 0.657839
vt 0.490668 0.841731
vt 0.499852 0.856303
vt 0.477142 0.849854
vt 0.517145 0.801865
vt 0.512186 0.802278
vt 0.513320 0.767755
vt 0.380477 0.676336
vt 0.335437 0.662434
vt 0.350843 0.656357
vt 0.394458 0.736220
vt 0.396099 0.765179
vt 0.377149 0.764715
vt 0.330967 0.828996
vt 0.313602 0.837107
vt 0.322193 0.795878
vt 0.357622 0.869679
vt 0.382881 0.861777
vt 0.386770 0.872218
vt 0.494745 0.661098
vt 0.472808 0.682777
vt 0.470392 0.670943
vt 0.438931 0.764924
vt 0.406285 0.765293
vt 0.408483 0.728278
vt 0.431505 0.778650
vt 0.406752 0.792622
vt 0.330389 0.865146
vt 0.340565 0.854932
vt 0.373472 0.853711
vt 0.406839 0.824477
vt 0.393588 0.820381
vt 0.432356 0.852724
vt 0.460712 0.849776
vt 0.459885 0.866991
vt 0.443831 0.809870
vt 0.424080 0.813230
vt 0.435098 0.792921
vt 0.312749 0.713083
vt 0.319432 0.763861
vt 0.359003 0.782322
vt 0.354208 0.799314
vt 0.341642 0.775829
vt 0.503747 0.679413
vt 0.384056 0.838381
vt 0.360400 0.844004
vt 0.342884 0.827801
vt 0.331794 0.779815
vt 0.468448 0.714602
vt 0.491538 0.731164
vt 0.431530 0.740727
vt 0.298836 0.724924
vt 0.482314 0.656112
vt 0.336629 0.763316
vt 0.322410 0.722211
vt 0.340467 0.714678
vt 0.350641 0.700635
vt 0.347079 0.681466
vt 0.380925 0.696115
vt 0.296817 0.653612
vt 0.305565 0.659750
vt 0.304322 0.698403
vt 0.324600 0.699099
vt 0.324544 0.674250
vt 0.436580 0.826563
vt 0.407090 0.841038
vt 0.450849 0.684634
vt 0.447128 0.695253
vt 0.409546 0.691181
vt 0.409727 0.670230
vt 0.485308 0.863684
vt 0.515772 0.877958
vt 0.491954 0.872660
vt 0.514830 0.872632
vt 0.511656 0.695601
vt 0.509099 0.686826
vt 0.517746 0.656576
vt 0.438975 0.709625
vt 0.409205 0.707270
vt 0.461443 0.822249
vt 0.479231 0.833943
vt 0.462861 0.838398
vt 0.448274 0.838723
vt 0.426181 0.841185
vt 0.455903 0.722924
vt 0.468495 0.765796
vt 0.305378 0.837801
vt 0.304144 0.874137
vt 0.297927 0.873852
vt 0.317407 0.861169
vt 0.336297 0.848353
vt 0.442183 0.732660
vt 0.455975 0.765600
vt 0.457772 0.793917
vt 0.449054 0.785282
vt 0.325553 0.654023
vt 0.313625 0.691443
vt 0.318616 0.779643
vt 0.310078 0.807292
vt 0.486974 0.823834
vt 0.513076 0.857145
vt 0.502474 0.832629
vt 0.392929 0.848618
vt 0.303659 0.715678
vt 0.391406 0.720796
vt 0.483490 0.701416
vt 0.476385 0.692670
vt 0.386549 0.796383
vt 0.368347 0.806167
vt 0.370850 0.788611
vt 0.395375 0.694332
vt 0.388846 0.709442
vt 0.377421 0.684863
vt 0.387120 0.830884
vt 0.362993 0.832535
vt 0.372586 0.818336
vt 0.512731 0.723915
vt 0.505530 0.726876
vt 0.311556 0.656299
vt 0.306378 0.648201
vt 0.301128 0.652115
vt 0.300176 0.646242
vt 0.499663 0.701676
vt 0.510555 0.660546
vt 0.507483 0.814222
vt 0.499122 0.813069
vt 0.297896 0.693212
vt 0.398373 0.663209
vt 0.409685 0.680412
vt 0.395351 0.685430
vt 0.453237 0.676120
vt 0.520773 0.872906
vt 0.303205 0.879648
vt 0.390709 0.671220
vt 0.367290 0.659036
vt 0.514416 0.841343
vt 0.517951 0.652506
vt 0.522496 0.661076
vt 0.517158 0.693493
vt 0.327650 0.872452
vt 0.518515 0.831423
vt 0.505986 0.716763
vt 0.465015 0.664896
vt 0.515146 0.711258
vt 0.389939 0.783216
vt 0.453923 0.872886
vt 0.600863 0.748962
vt 0.430082 0.861133
vt 0.518316 0.852619
vt 0.603608 0.730057
vt 0.643314 0.732944
vt 0.615045 0.784945
vt 0.642622 0.769923
vt 0.622898 0.802167
vt 0.591123 0.855680
vt 0.570267 0.862080
vt 0.570901 0.837111
vt 0.611913 0.676323
vt 0.643253 0.664766
vt 0.643719 0.687723
vt 0.735448 0.666616
vt 0.744304 0.660434
vt 0.739385 0.684035
vt 0.615956 0.864890
vt 0.640672 0.876194
vt 0.584587 0.875853
vt 0.596702 0.653355
vt 0.604554 0.662354
vt 0.727029 0.748821
vt 0.710540 0.751850
vt 0.703158 0.734930
vt 0.739419 0.845734
vt 0.720396 0.866693
vt 0.712144 0.847065
vt 0.724568 0.873869
vt 0.746206 0.856148
vt 0.746631 0.882609
vt 0.548515 0.828781
vt 0.534174 0.855287
vt 0.538503 0.832641
vt 0.579944 0.748874
vt 0.560225 0.757314
vt 0.574443 0.725430
vt 0.641642 0.799368
vt 0.658119 0.778911
vt 0.668675 0.810581
vt 0.694768 0.846133
vt 0.690479 0.856143
vt 0.657838 0.847379
vt 0.621503 0.753160
vt 0.654895 0.748430
vt 0.673470 0.769698
vt 0.690301 0.658110
vt 0.725828 0.654797
vt 0.702756 0.664891
vt 0.658530 0.686831
vt 0.659712 0.672233
vt 0.681012 0.684361
vt 0.669375 0.750627
vt 0.661659 0.716701
vt 0.690576 0.737162
vt 0.736436 0.756586
vt 0.714718 0.769919
vt 0.748587 0.686439
vt 0.749769 0.660846
vt 0.755319 0.696874
vt 0.716002 0.797823
vt 0.739684 0.770889
vt 0.570637 0.807715
vt 0.555542 0.794186
vt 0.578013 0.789155
vt 0.596778 0.807719
vt 0.590860 0.783819
vt 0.654172 0.829245
vt 0.608419 0.823395
vt 0.627235 0.829642
vt 0.687373 0.874912
vt 0.659225 0.877412
vt 0.651998 0.857818
vt 0.545529 0.731178
vt 0.542217 0.768778
vt 0.536810 0.728641
vt 0.641377 0.840234
vt 0.624359 0.850299
vt 0.605941 0.843904
vt 0.641138 0.855860
vt 0.643693 0.706935
vt 0.615019 0.705130
vt 0.684609 0.695230
vt 0.684908 0.810855
vt 0.691757 0.779902
vt 0.700962 0.789052
vt 0.682842 0.833342
vt 0.656797 0.837408
vt 0.672291 0.821024
vt 0.564451 0.703551
vt 0.556860 0.681261
vt 0.586271 0.690106
vt 0.557060 0.721475
vt 0.578965 0.707525
vt 0.604618 0.692175
vt 0.742493 0.812141
vt 0.584180 0.811694
vt 0.724139 0.676322
vt 0.733972 0.695292
vt 0.705532 0.692094
vt 0.686432 0.667247
vt 0.572559 0.769419
vt 0.687966 0.707710
vt 0.720719 0.709112
vt 0.703594 0.710594
vt 0.641205 0.814038
vt 0.689619 0.867070
vt 0.725601 0.820707
vt 0.706709 0.832760
vt 0.693932 0.819920
vt 0.691636 0.769188
vt 0.572158 0.652881
vt 0.589803 0.656840
vt 0.564550 0.670321
vt 0.569479 0.660792
vt 0.594432 0.679795
vt 0.589498 0.724077
vt 0.595111 0.701591
vt 0.740656 0.707567
vt 0.748276 0.731933
vt 0.738903 0.736095
vt 0.647243 0.843989
vt 0.538500 0.802969
vt 0.546457 0.807146
vt 0.536761 0.706713
vt 0.542263 0.675055
vt 0.544848 0.702172
vt 0.703330 0.856340
vt 0.643840 0.659878
vt 0.712502 0.880318
vt 0.558627 0.872446
vt 0.592155 0.865779
vt 0.732158 0.661263
vt 0.748149 0.654322
vt 0.755129 0.659146
vt 0.544497 0.658008
vt 0.669453 0.705447
vt 0.732495 0.834341
vt 0.744978 0.771052
vt 0.750106 0.832518
vt 0.544250 0.854953
vt 0.554225 0.835875
vt 0.568838 0.817224
vt 0.745992 0.887738
vt 0.722923 0.879992
vt 0.729629 0.721808
vt 0.557566 0.880005
vt 0.535059 0.879814
vt 0.536574 0.872594
vt 0.700315 0.680779
vt 0.717111 0.666555
vt 0.595319 0.829502
vt 0.745514 0.835210
vt 0.541438 0.651852
vt 0.752182 0.883005
vt 0.700343 0.866030
vt 0.614360 0.770208
vt 0.584741 0.769670
vt 0.535140 0.768721
vt 0.670454 0.660159
vt 0.609979 0.835555
vt 0.591574 0.662628
vt 0.606113 0.855188
vt 0.534780 0.657283
vt 0.539840 0.657420
vt 0.640805 0.880499
vt 0.753370 0.736065
vt 0.537222 0.675225
vt 0.528892 0.877366
vt 0.542693 0.718097
vt 0.533150 0.719007
vt 0.690721 0.881444
vt 0.532775 0.833104
vt 0.591059 0.756612
vt 0.356960 0.874736
vt 0.442906 0.872348
vt 0.743675 0.953867
vt 0.704382 0.958062
vt 0.704301 0.953463
vt 0.742471 0.959216
vt 0.691688 0.953416
vt 0.741478 0.944798
vt 0.704465 0.962831
vt 0.761067 0.955475
vt 0.704006 0.942127
vt 0.687357 0.958185
vt 0.703939 0.973408
vt 0.762699 0.960507
vt 0.665742 0.941464
vt 0.660784 0.958991
vt 0.660788 0.955516
vt 0.736679 0.937398
vt 0.765236 0.944514
vt 0.685924 0.966042
vt 0.737247 0.970057
vt 0.784891 0.960648
vt 0.765918 0.967837
vt 0.644801 0.960272
vt 0.785824 0.955469
vt 0.675082 0.968290
vt 0.786304 0.966000
vt 0.657407 0.946105
vt 0.644630 0.956169
vt 0.786801 0.946886
vt 0.661888 0.974909
vt 0.804839 0.961532
vt 0.657537 0.967802
vt 0.615164 0.957455
vt 0.807351 0.954769
vt 0.645639 0.943859
vt 0.650212 0.971422
vt 0.619102 0.961337
vt 0.615719 0.950568
vt 0.810359 0.961088
vt 0.633573 0.968942
vt 0.602622 0.960721
vt 0.599671 0.956686
vt 0.594848 0.960305
vt 0.593309 0.955653
vt 0.586619 0.978909
vt 0.629894 0.982726
vt 0.586026 0.988017
vt 0.630614 0.979062
vt 0.583716 0.992696
vt 0.541131 0.987574
vt 0.629769 0.975738
vt 0.636126 0.979710
vt 0.524481 0.996450
vt 0.544694 0.975743
vt 0.588255 0.973006
vt 0.635889 0.982699
vt 0.524852 0.988425
vt 0.587602 0.966064
vt 0.635691 0.976618
vt 0.524801 0.974335
vt 0.524504 0.961427
vt 0.508558 0.988274
vt 0.490976 0.991751
vt 0.489571 0.976472
vt 0.485753 0.963895
vt 0.458657 0.978309
vt 0.457451 0.972131
vt 0.453169 0.987446
vt 0.455611 0.966993
vt 0.442102 0.978867
vt 0.416677 0.983351
vt 0.418189 0.975890
vt 0.411999 0.978077
vt 0.410701 0.983162
vt 0.576624 0.900180
vt 0.548274 0.897921
vt 0.572197 0.894327
vt 0.552872 0.901206
vt 0.550367 0.892271
vt 0.599500 0.899775
vt 0.570912 0.906249
vt 0.595640 0.906686
vt 0.608338 0.894085
vt 0.612142 0.907291
vt 0.629204 0.900157
vt 0.628693 0.893541
vt 0.643846 0.908510
vt 0.655464 0.898743
vt 0.655430 0.902978
vt 0.656122 0.894149
vt 0.704365 0.894334
vt 0.709522 0.899437
vt 0.705394 0.907043
vt 0.729101 0.894201
vt 0.728370 0.899421
vt 0.727782 0.906229
vt 0.759647 0.894279
vt 0.761821 0.899508
vt 0.665519 0.919111
vt 0.704819 0.923452
vt 0.645446 0.923345
vt 0.681614 0.917407
vt 0.645062 0.928860
vt 0.644925 0.919032
vt 0.692682 0.916747
vt 0.703486 0.928364
vt 0.618225 0.928479
vt 0.624546 0.918035
vt 0.730525 0.916286
vt 0.726058 0.922990
vt 0.701761 0.935637
vt 0.621225 0.923260
vt 0.626812 0.934360
vt 0.728572 0.929494
vt 0.593796 0.923297
vt 0.595308 0.934446
vt 0.753380 0.923061
vt 0.750893 0.929984
vt 0.590109 0.928616
vt 0.594736 0.918227
vt 0.565050 0.925036
vt 0.574495 0.935695
vt 0.756925 0.929481
vt 0.563947 0.929371
vt 0.565700 0.916521
vt 0.543691 0.928808
vt 0.565117 0.935158
vt 0.542525 0.922609
vt 0.542517 0.925865
vn 0.098433 0.993791 -0.051879
vn 0.075225 0.997118 0.009885
vn 0.018091 0.998373 -0.054078
vn -0.033720 -0.999316 -0.015207
vn 0.007233 -0.999967 0.003621
vn -0.034972 -0.997935 -0.053870
vn -0.189965 -0.981717 0.012022
vn -0.247007 -0.968340 0.036114
vn -0.171343 -0.984810 0.028123
vn 0.087306 -0.513622 -0.853563
vn -0.008567 -0.706094 -0.708067
vn -0.007837 -0.832178 -0.554453
vn 0.863093 -0.504967 0.008851
vn 0.795751 -0.604483 -0.037154
vn 0.426942 -0.904176 -0.013632
vn 0.180416 0.969275 0.167198
vn -0.004082 0.999402 -0.034340
vn 0.182350 0.981593 0.056775
vn -0.981802 0.174146 0.075754
vn -0.996873 0.079007 0.001752
vn -0.987415 0.158152 0.000616
vn -0.103548 0.921158 -0.375160
vn -0.110383 0.909551 -0.400666
vn -0.131037 0.951608 -0.277978
vn 0.072716 0.809669 0.582364
vn 0.042220 0.717456 0.695323
vn 0.052479 0.900848 0.430950
vn 0.056202 0.956784 0.285318
vn 0.055340 0.907223 0.416994
vn 0.278807 0.942447 0.184554
vn -0.327067 -0.944920 0.012401
vn 0.092026 -0.542238 0.835170
vn 0.114867 -0.744527 0.657636
vn 0.061312 -0.609891 0.790110
vn 0.104281 0.745572 -0.658216
vn 0.040216 0.701108 -0.711920
vn 0.022237 0.547144 -0.836743
vn 0.998476 0.028492 0.047262
vn 0.897638 0.428891 -0.101479
vn 0.964768 0.260058 0.039905
vn -0.253453 -0.940983 -0.224304
vn -0.200564 -0.932001 -0.301909
vn -0.143719 -0.924567 -0.352874
vn -0.938678 -0.342178 0.042387
vn -0.729552 -0.683710 0.017172
vn -0.832319 -0.554220 -0.009220
vn -0.876419 0.481546 0.001713
vn -0.927193 0.374579 -0.001931
vn -0.965637 0.253418 -0.057668
vn 0.078783 0.111927 0.990589
vn 0.084577 0.598270 0.796818
vn -0.079069 -0.821050 0.565353
vn -0.008060 -0.852200 0.523154
vn -0.108552 -0.677231 0.727719
vn 0.874488 0.484878 0.012799
vn 0.999958 -0.005609 -0.007279
vn 0.986573 0.158933 -0.037600
vn -0.143327 -0.985968 -0.085579
vn -0.123527 -0.992215 -0.015801
vn -0.056291 -0.998413 -0.001875
vn 0.237526 -0.964246 -0.117518
vn 0.310198 -0.938220 -0.153364
vn 0.252824 -0.963872 -0.083854
vn 0.252941 0.967481 0.000539
vn 0.114107 0.992302 -0.048135
vn 0.152153 0.988020 0.025818
vn 0.346205 0.900172 -0.264258
vn 0.292528 0.876531 -0.382258
vn 0.297664 0.910627 -0.286627
vn 0.174992 0.933388 -0.313312
vn 0.316862 0.923847 -0.214722
vn 0.255358 0.916999 -0.306440
vn -0.006455 -0.750148 -0.661238
vn -0.110621 -0.758951 -0.641682
vn -0.101660 -0.585985 -0.803920
vn -0.338928 0.930992 -0.135581
vn -0.674077 0.730684 -0.108263
vn -0.570000 0.811756 -0.127091
vn -0.103696 0.994300 0.024780
vn -0.272001 0.962296 0.001248
vn -0.178078 0.981381 0.071963
vn -0.029003 0.994552 0.100129
vn -0.249990 0.961933 0.110409
vn -0.169666 0.983106 0.068675
vn 0.045785 0.961169 -0.272137
vn -0.010171 0.914042 -0.405491
vn -0.070603 0.921616 -0.381627
vn -0.167004 -0.914707 0.367996
vn -0.175458 -0.932334 0.316178
vn -0.133472 -0.889862 0.436270
vn 0.069773 -0.997553 0.004352
vn 0.016150 -0.999815 -0.010454
vn -0.013659 -0.998757 -0.047934
vn 0.101580 -0.984054 0.146008
vn 0.018326 -0.998161 0.057774
vn 0.173213 0.976553 -0.127835
vn -0.222590 0.968214 -0.114085
vn -0.112257 0.993675 -0.002790
vn 0.062419 -0.821712 -0.566474
vn 0.062957 -0.877824 -0.474828
vn -0.026429 -0.855081 -0.517820
vn 0.003148 -0.995415 -0.095595
vn -0.186033 -0.982380 -0.017898
vn -0.110857 -0.225574 0.967898
vn 0.186497 -0.103703 0.976967
vn -0.111152 0.254475 0.960670
vn -0.125893 0.259745 0.957436
vn -0.076488 0.624438 0.777320
vn 0.091051 -0.854853 -0.510818
vn -0.015254 -0.879140 -0.476319
vn 0.011506 -0.799997 -0.599894
vn 0.009486 -0.999743 -0.020580
vn 0.156921 -0.987606 -0.003213
vn 0.118701 -0.991082 0.060555
vn -0.088898 0.913000 0.398156
vn -0.072767 0.790572 0.608031
vn -0.051301 0.843276 0.535027
vn -0.083045 0.995591 -0.043616
vn -0.089655 0.995924 0.009918
vn -0.000709 0.999733 -0.023089
vn 0.369651 -0.928902 0.022349
vn 0.277001 -0.960870 0.000465
vn -0.015968 -0.994165 0.106680
vn 0.100200 -0.993237 -0.058662
vn 0.035038 -0.995996 0.082249
vn 0.417272 0.905316 -0.079292
vn 0.217299 0.976007 0.013858
vn 0.541317 0.835750 0.092184
vn 0.520707 0.837179 0.167319
vn -0.219880 -0.931029 0.291270
vn -0.986451 -0.151900 0.061968
vn -0.066031 -0.939076 -0.337306
vn 0.047478 -0.939391 -0.339545
vn 0.159908 -0.980740 -0.112153
vn 0.192025 -0.981351 -0.008759
vn -0.979504 0.200922 -0.014242
vn -0.946525 -0.320583 -0.036281
vn -0.999169 -0.014647 -0.038045
vn -0.978241 -0.207104 -0.012351
vn 0.272929 0.961141 0.041455
vn 0.395818 0.918318 0.004429
vn -0.146693 -0.988818 0.026851
vn -0.240079 -0.970326 -0.028795
vn 0.145781 -0.982268 -0.117888
vn -0.169883 0.983732 -0.058413
vn -0.293461 0.955924 0.009527
vn -0.114567 0.993411 -0.002884
vn 0.050967 0.998546 -0.017576
vn 0.068572 0.992758 0.098639
vn 0.894745 -0.436859 -0.092666
vn 0.973031 -0.230490 0.009226
vn -0.975562 -0.213222 0.053057
vn -0.894485 -0.446342 0.025986
vn 0.040673 -0.212597 -0.976293
vn 0.027487 -0.176599 -0.983899
vn -0.245713 0.969301 0.008958
vn 0.068748 0.996980 -0.036129
vn 0.171498 0.983135 -0.063516
vn -0.060003 -0.639451 0.766487
vn -0.036759 0.418286 -0.907571
vn -0.080015 0.182010 -0.980036
vn -0.107674 0.649136 -0.753013
vn -0.069206 0.680169 -0.729781
vn -0.143170 0.799078 -0.583932
vn -0.424727 0.904467 0.039324
vn -0.492690 0.869806 0.026362
vn 0.108367 -0.994003 -0.014686
vn 0.225965 -0.974108 -0.007351
vn 0.121732 -0.992198 0.026913
vn 0.066446 -0.979729 0.188988
vn 0.034646 -0.936010 0.350264
vn -0.040112 -0.981124 0.189176
vn -0.006075 0.986198 -0.165460
vn 0.128988 0.918200 -0.374526
vn -0.008790 0.955546 -0.294709
vn 0.016004 0.852012 -0.523277
vn 0.006568 0.994977 0.099888
vn 0.073759 0.991685 0.105452
vn -0.024229 0.951520 0.306630
vn 0.912388 -0.387719 0.131231
vn 0.469535 -0.854140 0.223567
vn 0.566440 -0.814438 0.125845
vn 0.184629 -0.968549 0.166811
vn 0.158919 -0.941351 0.297664
vn 0.060604 -0.989025 -0.134746
vn 0.002243 -0.945078 -0.326837
vn -0.005913 0.999326 0.036223
vn -0.013662 0.993575 0.112353
vn 0.125490 0.990881 0.049066
vn -0.005850 0.985823 -0.167685
vn -0.104725 0.981144 -0.162450
vn -0.064371 0.997216 -0.037644
vn -0.241933 0.950256 0.196167
vn -0.207643 0.935884 0.284614
vn -0.179939 0.939812 0.290474
vn -0.259652 0.962049 0.083922
vn 0.022264 -0.949455 0.313113
vn 0.015113 -0.983282 0.181462
vn 0.028641 -0.969726 0.242512
vn 0.059014 -0.730458 0.680403
vn -0.119357 -0.897788 -0.423946
vn -0.121610 -0.288519 -0.949720
vn -0.022252 -0.688080 -0.725294
vn -0.283684 -0.843814 -0.455523
vn -0.160475 0.977212 0.138938
vn 0.027925 0.947318 0.319075
vn 0.541293 0.839471 0.047862
vn 0.942797 0.321017 0.089896
vn -0.057170 0.995378 -0.077170
vn -0.597485 -0.801700 0.016993
vn -0.381227 -0.908054 0.173507
vn -0.437433 -0.783213 0.441848
vn 0.166306 0.927185 0.335663
vn 0.269963 0.934315 0.232756
vn 0.164539 0.942410 0.291187
vn -0.072809 0.698140 0.712249
vn -0.025257 -0.408197 -0.912545
vn -0.027020 -0.158710 -0.986955
vn 0.864259 -0.492379 -0.103055
vn 0.957179 -0.287839 0.030934
vn 0.076336 -0.994164 0.076233
vn 0.004580 -0.996756 0.080355
vn -0.178166 0.983072 0.042730
vn 0.994512 0.002810 -0.104590
vn 0.998129 -0.050304 -0.034759
vn 0.963512 0.220052 -0.152384
vn -0.103053 -0.990929 -0.086251
vn -0.175152 -0.972283 -0.154881
vn -0.090991 -0.972178 -0.215850
vn 0.008912 -0.951324 -0.308062
vn 0.128263 -0.935701 -0.328652
vn -0.972027 0.233415 0.026092
vn -0.935462 0.350276 0.047085
vn -0.879070 0.476076 -0.024242
vn 0.025788 0.995668 0.089334
vn 0.232471 0.965031 0.121126
vn 0.149702 0.983848 0.098143
vn 0.070994 0.996641 0.040835
vn -0.032092 0.818223 -0.574004
vn -0.068363 -0.997451 -0.020436
vn -0.116540 -0.993183 0.002443
vn 0.316296 0.948632 -0.007296
vn 0.197583 0.975895 -0.092677
vn 0.090050 0.995915 -0.006728
vn 0.570676 -0.813983 -0.108450
vn 0.350186 -0.848515 -0.396726
vn 0.221626 -0.938371 -0.265220
vn 0.199624 -0.951155 -0.235490
vn 0.047196 -0.997402 -0.054428
vn 0.001423 -0.999999 -0.000822
vn -0.088199 -0.994816 0.050615
vn 0.005627 -0.991638 0.128932
vn 0.034766 0.999359 0.008500
vn -0.053670 -0.191857 -0.979954
vn -0.027075 -0.517294 -0.855379
vn -0.006053 0.275617 0.961248
vn 0.010072 0.345896 0.938219
vn -0.147505 0.916954 0.370726
vn -0.078450 0.775542 0.626402
vn -0.053579 0.888388 0.455956
vn -0.063435 -0.625423 0.777703
vn 0.335555 -0.922960 0.188542
vn 0.440186 -0.896633 0.047803
vn 0.599391 -0.800310 -0.015335
vn -0.060838 0.995976 0.065810
vn -0.068731 0.987783 0.139859
vn 0.448616 0.887994 0.101046
vn 0.667294 0.744793 0.000968
vn 0.384756 0.922910 0.014120
vn 0.030756 0.190058 -0.981291
vn 0.051746 -0.195511 0.979336
vn 0.004114 -0.179552 0.983740
vn -0.295827 0.911619 -0.285373
vn -0.223481 -0.971878 -0.074230
vn -0.457264 -0.879285 -0.133292
vn -0.393992 -0.910873 -0.122802
vn -0.715369 0.698744 0.001912
vn -0.389960 0.919034 -0.057509
vn 0.026263 -0.417518 -0.908289
vn 0.008942 0.540721 -0.841154
vn -0.050566 0.248489 -0.967314
vn 0.037998 0.706984 -0.706208
vn -0.893221 0.449569 0.006682
vn -0.399914 0.898907 0.178982
vn -0.392083 0.906016 0.159393
vn -0.982892 0.183205 -0.018933
vn -0.911818 0.410558 0.005488
vn -0.161039 -0.852660 -0.497029
vn -0.665121 -0.746564 0.016019
vn -0.898640 -0.438587 -0.009354
vn 0.596470 -0.802507 -0.014373
vn 0.099996 0.625483 -0.773803
vn -0.004446 0.104050 -0.994562
vn 0.189621 0.900039 -0.392394
vn 0.034501 0.222492 0.974324
vn -0.143248 -0.989655 -0.007953
vn 0.976278 0.215820 0.017385
vn 0.990709 -0.108268 0.082304
vn 0.930648 0.357028 -0.080154
vn 0.046658 0.196502 -0.979393
vn -0.028670 0.756276 -0.653624
vn -0.005324 0.784108 -0.620602
vn -0.249877 -0.964116 0.089671
vn -0.163341 -0.965695 0.201873
vn -0.089345 0.652861 0.752190
vn 0.003674 0.228122 0.973626
vn 0.922822 0.352952 0.154350
vn -0.121144 -0.991814 0.040361
vn -0.018311 -0.999603 -0.021399
vn -0.066136 -0.995745 0.064166
vn -0.134553 0.863356 0.486325
vn -0.957518 0.287646 0.020481
vn 0.038352 0.385299 -0.921995
vn 0.023313 -0.131879 -0.990992
vn -0.038134 0.314765 -0.948403
vn -0.128916 -0.966572 0.221630
vn -0.059283 -0.994659 0.084488
vn -0.040231 -0.907627 0.417846
vn -0.075494 0.980875 0.179400
vn -0.115102 -0.980643 -0.158399
vn 0.083582 -0.984990 -0.151027
vn 0.027397 -0.998792 -0.040785
vn 0.371973 0.917502 -0.140806
vn 0.733322 0.679853 0.006234
vn 0.857386 0.513729 0.031160
vn -0.376032 -0.926526 0.012274
vn 0.099363 -0.868581 0.485483
vn -0.313818 0.922693 -0.223953
vn -0.217529 0.942402 -0.254088
vn -0.169728 0.978189 -0.119747
vn -0.981042 -0.188127 -0.046536
vn -0.876884 -0.479689 -0.031203
vn -0.996235 -0.053003 -0.068598
vn -0.971150 0.227380 -0.071871
vn -0.936791 -0.349888 -0.001169
vn -0.939259 0.323477 0.114693
vn 0.994893 0.009286 -0.100509
vn 0.263989 0.963253 0.049540
vn 0.043622 -0.364689 0.930107
vn -0.129038 -0.616512 0.776700
vn -0.132830 -0.150870 0.979589
vn -0.102903 -0.323596 0.940583
vn -0.973464 -0.213881 -0.081376
vn -0.862726 0.454247 -0.222179
vn -0.020822 -0.433665 0.900834
vn 0.446590 -0.748659 0.489966
vn -0.332720 -0.941505 0.053533
vn -0.998407 -0.046141 -0.032479
vn -0.925405 -0.378966 0.003043
vn -0.783679 -0.621127 -0.006911
vn -0.218642 0.905673 -0.363253
vn 0.029105 0.863449 0.503595
vn 0.064011 0.869271 0.490175
vn -0.167355 -0.921802 0.349676
vn -0.545479 -0.838015 -0.013580
vn -0.342475 -0.939489 -0.008445
vn -0.068256 0.982077 -0.175685
vn 0.597270 0.797869 -0.081694
vn 0.841422 -0.534970 0.076262
vn -0.074621 -0.612955 0.786586
vn -0.934516 0.355475 -0.017790
vn 0.045282 -0.900043 0.433442
vn -0.087535 -0.899511 0.428039
vn -0.096077 0.158628 0.982653
vn 0.025141 -0.894201 0.446958
vn 0.137441 0.833789 -0.534702
vn 0.159883 0.986222 0.042461
vn 0.088656 0.994437 0.056887
vn 0.026708 0.055423 -0.998106
vn -0.986398 -0.158916 0.042018
vn -0.064246 -0.212823 -0.974976
vn -0.086974 -0.771083 0.630766
vn -0.047042 0.289038 0.956161
vn -0.653169 -0.754906 -0.059048
vn -0.196615 -0.381909 0.903044
vn 0.075003 0.977229 -0.198491
vn -0.033920 0.767829 0.639756
vn 0.055598 0.877480 -0.476380
vn -0.878619 -0.477334 0.013438
vn -0.644885 0.728185 0.232101
vn 0.081125 -0.565912 -0.820464
vn -0.426145 -0.904386 0.022028
vn -0.013181 -0.785411 0.618835
vn -0.155327 -0.982634 0.101507
vn 0.115899 -0.782480 -0.611794
vn -0.512814 0.856695 0.055637
vn 0.076589 0.992896 -0.091064
vn 0.078487 -0.580931 -0.810160
s 1
g SM_Bed_02b
f 320/162/1 195/165/2 187/166/3
f 13/1/4 40/2/5 238/3/6
f 8/4/7 75/5/8 326/6/9
f 367/7/10 169/8/11 273/9/12
f 297/10/13 7/11/14 25/12/15
f 317/167/16 82/168/17 126/169/18
f 372/338/19 145/339/20 388/340/21
f 41/170/22 101/171/23 132/172/24
f 291/173/25 177/174/26 142/175/27
f 154/176/28 359/177/29 282/178/30
f 83/13/31 75/5/8 8/4/7
f 29/14/32 18/15/33 114/16/34
f 193/179/35 209/180/36 6/181/37
f 88/381/38 112/382/39 323/383/40
f 299/17/41 34/18/42 263/19/43
f 191/20/44 131/21/45 52/22/46
f 11/350/47 172/346/48 119/342/49
f 73/182/50 177/174/26 383/183/51
f 331/23/52 68/24/53 137/25/54
f 312/404/55 245/406/56 57/402/57
f 87/26/58 118/27/59 244/28/60
f 151/29/61 173/30/62 332/31/63
f 14/184/64 168/185/65 236/186/66
f 315/187/67 157/188/68 163/189/69
f 365/190/70 335/191/71 208/192/72
f 63/32/73 249/33/74 353/34/75
f 379/193/76 123/194/77 305/195/78
f 303/196/79 1/197/80 281/198/81
f 301/199/82 4/200/83 358/201/84
f 178/202/85 240/203/86 179/204/87
f 111/35/88 96/36/89 213/37/90
f 64/38/91 3/39/92 160/40/93
f 3/39/92 183/41/94 210/42/95
f 138/205/96 187/166/3 82/168/17
f 93/206/97 30/207/98 82/168/17
f 277/43/99 28/44/100 23/45/101
f 210/42/95 44/46/102 19/47/103
f 362/411/104 223/412/105 228/413/106
f 158/208/107 228/209/106 20/210/108
f 81/48/109 285/49/110 248/50/111
f 279/51/112 233/52/113 79/53/114
f 24/211/115 300/212/116 296/213/117
f 65/214/118 103/215/119 53/216/120
f 25/12/15 84/54/121 185/55/122
f 295/56/123 287/57/124 380/58/125
f 14/184/64 360/217/126 174/218/127
f 72/219/128 22/220/129 312/221/55
f 111/35/88 120/59/130 96/36/89
f 191/356/44 52/348/46 153/341/131
f 376/60/132 23/45/101 316/61/133
f 287/57/124 327/62/134 156/63/135
f 119/342/49 192/352/136 11/350/47
f 122/355/137 2/347/138 216/344/139
f 45/222/140 174/218/127 50/223/141
f 4/200/83 30/207/98 358/201/84
f 31/64/142 27/65/143 8/4/7
f 64/38/91 160/40/93 61/66/144
f 51/224/145 59/225/146 161/226/147
f 126/169/18 206/227/148 254/228/149
f 33/67/150 25/12/15 7/11/14
f 245/406/56 255/403/151 57/402/57
f 166/349/152 290/358/153 153/341/131
f 367/435/10 215/436/154 38/437/155
f 301/199/82 358/201/84 36/229/156
f 16/230/157 126/169/18 371/231/158
f 111/35/88 213/37/90 271/68/159
f 304/452/160 306/443/161 363/449/162
f 15/232/163 363/233/162 74/234/164
f 292/235/165 56/236/166 11/237/47
f 383/183/51 177/174/26 291/173/25
f 95/69/167 278/70/168 170/71/169
f 242/72/170 202/73/171 190/74/172
f 184/238/173 189/239/174 352/240/175
f 209/180/36 193/179/35 143/241/176
f 142/175/27 42/242/177 71/243/178
f 42/242/177 24/211/115 60/244/179
f 130/75/180 373/76/181 135/77/182
f 308/78/183 107/79/184 242/72/170
f 91/80/185 252/81/186 44/46/102
f 354/245/187 77/246/188 197/247/189
f 222/248/190 368/249/191 148/250/192
f 39/251/193 100/252/194 265/253/195
f 281/198/81 1/197/80 257/254/196
f 219/82/197 98/83/198 55/84/199
f 18/15/33 147/85/200 114/16/34
f 34/18/42 203/86/201 263/19/43
f 159/87/202 314/88/203 205/89/204
f 281/198/81 39/251/193 338/255/205
f 116/256/206 142/175/27 71/243/178
f 45/222/140 50/223/141 26/257/207
f 293/386/208 88/381/38 323/383/40
f 51/224/145 161/226/147 321/258/209
f 41/170/22 132/172/24 352/240/175
f 27/65/143 83/13/31 8/4/7
f 294/90/210 342/91/211 128/92/212
f 276/259/213 214/260/214 134/261/215
f 20/210/108 296/213/117 86/262/216
f 347/456/217 353/444/75 180/451/218
f 297/394/13 218/387/219 108/391/220
f 55/84/199 224/93/221 47/94/222
f 40/2/5 190/74/172 238/3/6
f 56/236/166 1/197/80 32/263/223
f 292/235/165 1/197/80 56/236/166
f 217/400/224 125/396/225 121/398/226
f 33/401/150 7/397/14 217/400/224
f 58/95/227 10/96/228 21/97/229
f 91/80/185 343/98/230 155/99/231
f 59/225/146 56/236/166 32/263/223
f 94/345/232 322/343/233 250/354/234
f 53/216/120 103/215/119 221/264/235
f 113/265/236 236/186/66 198/266/237
f 36/229/156 184/238/173 17/267/238
f 90/268/239 74/234/164 179/204/87
f 55/84/199 98/83/198 224/93/221
f 256/100/240 31/64/142 196/101/241
f 45/222/140 133/269/242 62/270/243
f 9/271/244 197/247/189 62/270/243
f 288/102/245 66/103/246 218/104/219
f 225/105/247 173/30/62 311/106/248
f 382/107/249 141/108/250 64/38/91
f 196/101/241 175/109/251 334/110/252
f 264/272/253 30/207/98 53/216/120
f 129/457/254 188/461/255 347/456/217
f 277/43/99 23/45/101 63/32/73
f 149/273/256 73/182/50 378/274/257
f 286/275/258 186/276/259 46/277/260
f 137/25/54 68/24/53 339/111/261
f 373/76/181 107/79/184 207/112/262
f 70/113/263 5/114/264 25/12/15
f 185/55/122 95/69/167 156/63/135
f 71/243/178 49/278/265 274/279/266
f 195/165/2 303/196/79 49/278/265
f 226/280/267 92/281/268 284/282/269
f 134/261/215 214/260/214 113/265/236
f 38/437/155 215/436/154 69/439/270
f 306/443/161 38/437/155 69/439/270
f 29/429/32 114/425/34 162/428/271
f 386/431/272 271/432/159 162/428/271
f 179/204/87 74/234/164 318/283/273
f 143/241/176 189/239/174 184/238/173
f 75/5/8 375/115/274 326/6/9
f 211/116/275 299/17/41 181/117/276
f 76/284/277 56/236/166 231/285/278
f 231/285/278 379/193/76 305/195/78
f 174/218/127 197/247/189 77/246/188
f 310/464/279 188/461/255 129/457/254
f 259/462/280 307/460/281 85/463/282
f 183/41/94 79/53/114 210/42/95
f 141/108/250 334/110/252 64/38/91
f 267/286/283 80/287/284 262/288/285
f 267/371/283 37/364/286 309/374/287
f 146/118/288 23/45/101 376/60/132
f 353/34/75 249/33/74 273/9/12
f 131/21/45 83/13/31 52/22/46
f 52/348/46 212/366/289 356/361/290
f 351/119/291 84/54/121 25/12/15
f 373/76/181 207/112/262 135/77/182
f 328/458/292 54/455/293 304/452/160
f 163/189/69 157/188/68 341/289/294
f 81/48/109 155/99/231 285/49/110
f 86/262/216 158/208/107 20/210/108
f 73/182/50 35/290/295 177/174/26
f 3/39/92 87/26/58 160/40/93
f 160/40/93 381/120/296 47/94/222
f 336/393/297 125/396/225 234/390/298
f 297/394/13 108/391/220 7/397/14
f 138/205/96 320/162/1 187/166/3
f 90/268/239 15/232/163 74/234/164
f 90/268/239 328/291/292 15/232/163
f 58/95/227 21/97/229 91/80/185
f 175/109/251 279/51/112 334/110/252
f 284/282/269 92/281/268 360/217/126
f 217/400/224 121/398/226 229/399/299
f 65/214/118 93/206/97 103/215/119
f 82/168/17 187/166/3 93/206/97
f 69/439/270 215/436/154 251/442/300
f 6/181/37 268/292/301 239/293/302
f 95/69/167 40/2/5 13/1/4
f 283/121/303 31/64/142 355/122/304
f 98/83/198 31/64/142 256/100/240
f 337/294/305 97/295/306 359/177/29
f 144/296/307 312/221/55 22/220/129
f 219/82/197 355/122/304 98/83/198
f 355/122/304 31/64/142 98/83/198
f 99/123/308 210/42/95 19/47/103
f 99/123/308 313/124/309 289/125/310
f 80/287/284 100/252/194 39/251/193
f 186/276/259 286/275/258 230/297/311
f 123/365/77 220/360/312 250/354/234
f 127/450/313 258/446/314 139/454/315
f 102/126/316 55/84/199 165/127/317
f 253/128/318 68/24/53 331/23/52
f 93/206/97 187/166/3 103/215/119
f 42/242/177 319/298/319 103/215/119
f 109/129/320 171/130/321 104/131/322
f 19/47/103 313/124/309 99/123/308
f 275/299/323 315/187/67 163/189/69
f 26/257/207 201/300/324 152/301/325
f 83/13/31 212/132/289 52/22/46
f 27/65/143 361/133/326 83/13/31
f 68/24/53 107/79/184 43/134/327
f 202/73/171 68/24/53 253/128/318
f 7/397/14 108/391/220 234/390/298
f 108/391/220 218/387/219 88/381/38
f 252/81/186 109/129/320 19/47/103
f 109/129/320 104/131/322 19/47/103
f 204/302/328 110/303/329 132/172/24
f 379/193/76 231/285/278 345/304/330
f 140/359/331 106/376/332 227/373/333
f 136/369/334 344/377/335 200/378/336
f 88/381/38 164/384/337 112/382/39
f 259/305/280 85/306/282 208/192/72
f 226/280/267 284/282/269 374/307/338
f 374/307/338 14/184/64 236/186/66
f 114/425/34 232/424/339 162/428/271
f 385/420/340 241/416/341 12/421/342
f 153/341/131 145/339/20 372/338/19
f 270/367/343 220/360/312 266/370/344
f 46/277/260 142/175/27 116/256/206
f 265/253/195 286/275/258 46/277/260
f 95/69/167 13/1/4 380/58/125
f 26/257/207 50/223/141 201/300/324
f 117/135/345 370/136/346 223/137/105
f 339/111/261 68/24/53 43/134/327
f 119/342/49 388/340/21 145/339/20
f 280/138/347 342/91/211 294/90/210
f 342/91/211 283/121/303 355/122/304
f 92/281/268 201/300/324 50/223/141
f 73/427/50 232/424/339 35/426/295
f 241/416/341 158/419/107 12/421/342
f 122/355/137 325/351/348 2/347/138
f 330/368/349 246/372/350 140/359/331
f 268/292/301 127/308/313 139/309/315
f 101/171/23 261/310/351 132/172/24
f 124/311/352 237/312/353 134/261/215
f 24/211/115 296/213/117 60/244/179
f 7/397/14 125/396/225 217/400/224
f 7/397/14 234/390/298 125/396/225
f 82/168/17 301/199/82 126/169/18
f 126/169/18 301/199/82 17/267/238
f 127/308/313 268/292/301 6/181/37
f 69/439/270 251/442/300 6/447/37
f 324/139/354 111/35/88 271/68/159
f 120/59/130 111/35/88 324/139/354
f 307/460/281 54/455/293 328/458/292
f 129/457/254 347/456/217 180/451/218
f 370/136/346 130/75/180 223/137/105
f 349/140/355 260/141/356 83/13/31
f 260/141/356 181/117/276 375/115/274
f 298/313/357 132/172/24 345/304/330
f 132/172/24 110/303/329 345/304/330
f 133/269/242 45/222/140 26/257/207
f 26/257/207 105/314/358 275/299/323
f 60/244/179 124/311/352 134/261/215
f 198/266/237 236/186/66 221/264/235
f 130/75/180 135/77/182 302/142/359
f 33/67/150 351/119/291 25/12/15
f 140/359/331 227/373/333 136/369/334
f 176/143/360 114/16/34 147/85/200
f 114/425/34 176/423/360 12/421/342
f 266/370/344 220/360/312 123/365/77
f 261/310/351 204/302/328 132/172/24
f 192/352/136 37/364/286 272/363/361
f 8/4/7 196/101/241 31/64/142
f 74/234/164 143/241/176 318/283/273
f 209/180/36 143/241/176 74/234/164
f 22/220/129 97/295/306 144/296/307
f 216/344/139 2/347/138 145/339/20
f 252/81/186 146/118/288 376/60/132
f 150/144/362 55/84/199 377/145/363
f 148/250/192 354/245/187 222/248/190
f 358/201/84 77/246/188 354/245/187
f 247/315/364 186/276/259 230/297/311
f 37/364/286 136/369/334 309/374/287
f 150/144/362 333/146/365 55/84/199
f 173/30/62 151/29/61 311/106/248
f 376/60/132 316/61/133 171/130/321
f 42/242/177 103/215/119 187/166/3
f 26/257/207 152/301/325 105/314/358
f 152/301/325 112/316/39 105/314/358
f 153/341/131 216/344/139 145/339/20
f 154/176/28 337/294/305 359/177/29
f 237/312/353 276/259/213 134/261/215
f 70/113/263 185/55/122 156/63/135
f 156/63/135 151/29/61 332/31/63
f 340/317/366 157/188/68 328/291/292
f 365/190/70 208/192/72 85/306/282
f 159/87/202 205/89/204 270/147/343
f 254/228/149 317/167/16 126/169/18
f 159/375/202 270/367/343 266/370/344
f 161/226/147 59/225/146 32/263/223
f 89/318/367 254/228/149 243/319/368
f 163/189/69 341/289/294 178/202/85
f 275/299/323 163/189/69 62/270/243
f 112/382/39 164/384/337 78/388/369
f 218/104/219 66/103/246 310/148/279
f 87/26/58 381/120/296 160/40/93
f 244/28/60 238/3/6 87/26/58
f 220/360/312 270/367/343 115/357/370
f 257/254/196 1/197/80 292/235/165
f 262/288/285 80/287/284 39/251/193
f 386/431/272 162/428/271 149/430/256
f 149/430/256 162/428/271 73/427/50
f 162/428/271 232/424/339 73/427/50
f 38/437/155 169/440/11 367/435/10
f 387/448/371 353/444/75 38/437/155
f 95/69/167 170/71/169 40/2/5
f 40/2/5 242/72/170 190/74/172
f 327/62/134 171/130/321 311/106/248
f 327/62/134 287/57/124 171/130/321
f 172/320/48 56/236/166 76/284/277
f 332/31/63 173/30/62 5/114/264
f 288/102/245 173/30/62 66/103/246
f 175/109/251 58/95/227 279/51/112
f 375/115/274 58/95/227 326/6/9
f 269/149/372 385/150/340 176/143/360
f 176/423/360 385/420/340 12/421/342
f 86/262/216 177/174/26 194/321/373
f 296/213/117 300/212/116 86/262/216
f 163/189/69 178/202/85 62/270/243
f 62/270/243 222/248/190 9/271/244
f 179/204/87 318/283/273 368/249/191
f 179/204/87 368/249/191 222/248/190
f 306/443/161 387/448/371 38/437/155
f 54/455/293 129/457/254 180/451/218
f 329/151/374 181/117/276 349/140/355
f 349/140/355 181/117/276 260/141/356
f 271/68/159 182/152/375 128/92/212
f 344/153/335 106/154/332 128/92/212
f 371/231/158 184/238/173 199/322/376
f 185/55/122 278/70/168 95/69/167
f 67/323/377 46/277/260 186/276/259
f 186/276/259 149/273/256 67/323/377
f 42/242/177 187/166/3 71/243/178
f 66/103/246 188/155/255 310/148/279
f 277/43/99 225/105/247 28/44/100
f 352/240/175 384/324/378 41/170/22
f 239/293/302 193/179/35 6/181/37
f 56/236/166 172/320/48 11/237/47
f 165/127/317 190/74/172 102/126/316
f 190/74/172 202/73/171 253/128/318
f 166/349/152 369/362/379 290/358/153
f 290/156/153 329/151/374 131/21/45
f 140/359/331 136/369/334 37/364/286
f 356/361/290 140/359/331 325/351/348
f 143/241/176 193/179/35 384/324/378
f 384/324/378 193/179/35 239/293/302
f 194/321/373 177/174/26 35/290/295
f 71/243/178 195/165/2 49/278/265
f 71/243/178 187/166/3 195/165/2
f 197/247/189 45/222/140 62/270/243
f 45/222/140 197/247/189 174/218/127
f 221/264/235 134/261/215 198/266/237
f 134/261/215 113/265/236 198/266/237
f 16/230/157 371/231/158 199/322/376
f 345/304/330 321/258/209 298/313/357
f 200/325/336 247/315/364 366/326/380
f 121/398/226 201/389/324 229/399/299
f 201/389/324 293/386/208 323/383/40
f 107/79/184 68/24/53 202/73/171
f 107/79/184 202/73/171 242/72/170
f 364/441/381 314/445/203 215/436/154
f 248/50/111 285/49/110 314/88/203
f 204/302/328 261/310/351 123/194/77
f 379/193/76 204/302/328 123/194/77
f 203/86/201 34/18/42 205/89/204
f 34/18/42 299/17/41 211/116/275
f 206/227/148 126/169/18 16/230/157
f 321/258/209 16/230/157 298/313/357
f 207/112/262 84/54/121 135/77/182
f 278/70/168 308/78/183 170/71/169
f 112/316/39 259/305/280 208/192/72
f 112/316/39 208/192/72 335/191/71
f 69/327/270 6/181/37 209/180/36
f 306/443/161 69/439/270 363/449/162
f 79/53/114 233/52/113 210/42/95
f 205/89/204 211/116/275 270/147/343
f 205/89/204 34/18/42 211/116/275
f 246/372/350 106/376/332 140/359/331
f 235/157/382 280/138/347 294/90/210
f 350/158/383 18/15/33 29/14/32
f 150/144/362 18/15/33 333/146/365
f 113/265/236 214/260/214 226/280/267
f 282/178/30 22/220/129 72/219/128
f 139/454/315 258/446/314 159/453/202
f 164/384/337 218/387/219 78/388/369
f 164/384/337 88/381/38 218/387/219
f 213/37/90 96/36/89 333/146/365
f 350/158/383 333/146/365 18/15/33
f 196/101/241 8/4/7 326/6/9
f 220/360/312 115/357/370 94/345/232
f 250/354/234 220/360/312 94/345/232
f 221/264/235 60/244/179 134/261/215
f 319/298/319 42/242/177 60/244/179
f 62/270/243 178/202/85 222/248/190
f 178/202/85 179/204/87 222/248/190
f 293/386/208 234/390/298 88/381/38
f 228/209/106 97/295/306 337/294/305
f 47/94/222 224/93/221 382/107/249
f 382/107/249 256/100/240 141/108/250
f 223/409/105 130/408/180 144/407/307
f 66/103/246 225/105/247 277/43/99
f 173/30/62 225/105/247 66/103/246
f 214/260/214 72/219/128 226/280/267
f 226/280/267 72/219/128 92/281/268
f 344/153/335 128/92/212 182/152/375
f 200/378/336 344/377/335 182/379/375
f 229/328/299 201/300/324 92/281/268
f 72/219/128 312/221/55 92/281/268
f 100/252/194 80/287/284 230/297/311
f 309/329/287 80/287/284 267/286/283
f 231/285/278 56/236/166 59/225/146
f 231/285/278 59/225/146 51/224/145
f 12/421/342 158/419/107 194/422/373
f 232/424/339 114/425/34 12/421/342
f 91/80/185 44/46/102 233/52/113
f 210/42/95 233/52/113 44/46/102
f 246/159/350 235/157/382 294/90/210
f 83/13/31 361/133/326 212/132/289
f 236/186/66 53/216/120 221/264/235
f 168/185/65 53/216/120 236/186/66
f 20/210/108 237/312/353 124/311/352
f 228/209/106 337/294/305 20/210/108
f 238/3/6 381/120/296 87/26/58
f 238/3/6 190/74/172 165/127/317
f 384/324/378 239/293/302 41/170/22
f 239/293/302 101/171/23 41/170/22
f 90/268/239 179/204/87 240/203/86
f 90/268/239 340/317/366 328/291/292
f 137/418/54 339/417/261 362/411/104
f 223/412/105 362/411/104 117/414/345
f 170/71/169 308/78/183 242/72/170
f 170/71/169 242/72/170 40/2/5
f 195/165/2 320/162/1 303/196/79
f 346/160/384 99/123/308 289/125/310
f 346/160/384 210/42/95 99/123/308
f 245/406/56 130/408/180 302/405/359
f 130/408/180 245/406/56 144/407/307
f 212/366/289 246/372/350 330/368/349
f 235/157/382 246/159/350 212/132/289
f 186/276/259 247/315/364 149/273/256
f 364/161/381 248/50/111 314/88/203
f 357/163/385 248/50/111 364/161/381
f 57/402/57 217/400/224 229/399/299
f 249/33/74 23/45/101 273/9/12
f 63/32/73 23/45/101 249/33/74
f 241/416/341 228/413/106 158/419/107
f 250/354/234 322/343/233 76/353/277
f 231/285/278 305/195/78 76/284/277
f 251/442/300 127/450/313 6/447/37
f 251/442/300 258/446/314 127/450/313
f 81/48/109 252/81/186 155/99/231
f 155/99/231 252/81/186 91/80/185
f 377/145/363 190/74/172 253/128/318
f 253/128/318 331/23/52 377/145/363
f 32/263/223 254/228/149 161/226/147
f 161/226/147 254/228/149 321/258/209
f 217/400/224 255/403/151 33/401/150
f 302/142/359 351/119/291 33/67/150
f 98/83/198 256/100/240 224/93/221
f 224/93/221 256/100/240 382/107/249
f 257/254/196 262/288/285 39/251/193
f 257/254/196 39/251/193 281/198/81
f 314/445/203 159/453/202 258/446/314
f 78/388/369 259/392/280 112/382/39
f 78/465/369 129/457/254 259/462/280
f 75/5/8 260/141/356 375/115/274
f 260/141/356 75/5/8 83/13/31
f 268/292/301 139/309/315 261/310/351
f 266/330/344 123/194/77 261/310/351
f 167/331/386 262/288/285 257/254/196
f 262/288/285 167/331/386 267/286/283
f 299/17/41 263/19/43 21/97/229
f 155/99/231 343/98/230 285/49/110
f 61/66/144 160/40/93 47/94/222
f 168/185/65 264/272/253 53/216/120
f 265/253/195 46/277/260 116/256/206
f 116/256/206 71/243/178 274/279/266
f 139/309/315 266/330/344 261/310/351
f 139/454/315 159/453/202 266/459/344
f 272/332/361 267/286/283 167/331/386
f 272/363/361 37/364/286 267/371/283
f 239/293/302 268/292/301 101/171/23
f 268/292/301 261/310/351 101/171/23
f 269/149/372 150/144/362 377/145/363
f 176/143/360 147/85/200 269/149/372
f 115/357/370 270/367/343 369/362/379
f 162/428/271 271/432/159 29/429/32
f 29/14/32 271/68/159 350/158/383
f 167/331/386 11/237/47 272/332/361
f 192/352/136 272/363/361 11/350/47
f 252/81/186 81/48/109 357/163/385
f 81/48/109 248/50/111 357/163/385
f 265/253/195 116/256/206 274/279/266
f 39/251/193 265/253/195 338/255/205
f 133/269/242 275/299/323 62/270/243
f 275/299/323 133/269/242 26/257/207
f 276/259/213 154/176/28 214/260/214
f 237/312/353 154/176/28 276/259/213
f 66/103/246 277/43/99 188/155/255
f 188/155/255 277/43/99 63/32/73
f 84/54/121 308/78/183 278/70/168
f 278/70/168 185/55/122 84/54/121
f 279/51/112 58/95/227 91/80/185
f 279/51/112 91/80/185 233/52/113
f 27/65/143 280/138/347 235/157/382
f 31/64/142 283/121/303 27/65/143
f 49/278/265 303/196/79 281/198/81
f 49/278/265 281/198/81 338/255/205
f 214/260/214 282/178/30 72/219/128
f 214/260/214 154/176/28 282/178/30
f 115/357/370 369/362/379 166/349/152
f 13/1/4 238/3/6 244/28/60
f 216/344/139 52/348/46 122/355/137
f 280/138/347 283/121/303 342/91/211
f 283/121/303 280/138/347 27/65/143
f 284/282/269 14/184/64 374/307/338
f 284/282/269 360/217/126 14/184/64
f 263/19/43 285/49/110 21/97/229
f 285/49/110 263/19/43 203/86/201
f 100/252/194 286/275/258 265/253/195
f 286/275/258 100/252/194 230/297/311
f 313/124/309 171/130/321 287/57/124
f 313/124/309 287/57/124 289/125/310
f 5/114/264 173/30/62 288/102/245
f 25/12/15 5/114/264 297/10/13
f 244/28/60 295/56/123 13/1/4
f 13/1/4 295/56/123 380/58/125
f 290/358/153 191/356/44 153/341/131
f 131/21/45 191/20/44 290/156/153
f 67/323/377 291/173/25 46/277/260
f 46/277/260 291/173/25 142/175/27
f 257/254/196 292/235/165 167/331/386
f 167/331/386 292/235/165 11/237/47
f 336/393/297 234/390/298 293/386/208
f 201/389/324 336/393/297 293/386/208
f 246/159/350 294/90/210 106/154/332
f 106/154/332 294/90/210 128/92/212
f 289/125/310 295/56/123 244/28/60
f 289/125/310 287/57/124 295/56/123
f 60/244/179 296/213/117 124/311/352
f 124/311/352 296/213/117 20/210/108
f 297/10/13 288/102/245 218/104/219
f 5/114/264 288/102/245 297/10/13
f 298/313/357 352/240/175 132/172/24
f 16/230/157 199/322/376 298/313/357
f 273/9/12 146/118/288 252/81/186
f 273/9/12 23/45/101 146/118/288
f 181/117/276 299/17/41 375/115/274
f 299/17/41 21/97/229 10/96/228
f 165/127/317 55/84/199 47/94/222
f 86/262/216 300/212/116 177/174/26
f 215/436/154 258/446/314 251/442/300
f 33/401/150 255/403/151 302/405/359
f 302/405/359 255/403/151 245/406/56
f 32/263/223 303/196/79 243/319/368
f 1/197/80 303/196/79 32/263/223
f 304/333/160 363/233/162 15/232/163
f 15/232/163 328/291/292 304/333/160
f 76/284/277 305/195/78 250/334/234
f 305/195/78 123/194/77 250/334/234
f 36/229/156 17/267/238 301/199/82
f 54/455/293 306/443/161 304/452/160
f 180/451/218 306/443/161 54/455/293
f 259/462/280 129/457/254 307/460/281
f 307/460/281 129/457/254 54/455/293
f 4/200/83 82/168/17 30/207/98
f 82/168/17 4/200/83 301/199/82
f 84/54/121 207/112/262 308/78/183
f 107/79/184 308/78/183 207/112/262
f 309/329/287 200/325/336 366/326/380
f 80/287/284 309/329/287 366/326/380
f 94/345/232 115/357/370 166/349/152
f 310/464/279 129/457/254 78/465/369
f 218/387/219 310/395/279 78/388/369
f 316/61/133 311/106/248 171/130/321
f 225/105/247 311/106/248 28/44/100
f 177/174/26 300/212/116 24/211/115
f 142/175/27 24/211/115 42/242/177
f 200/378/336 182/379/375 247/380/364
f 312/221/55 229/328/299 92/281/268
f 312/404/55 57/402/57 229/399/299
f 234/390/298 108/391/220 88/381/38
f 19/47/103 104/131/322 313/124/309
f 171/130/321 313/124/309 104/131/322
f 314/88/203 203/86/201 205/89/204
f 314/88/203 285/49/110 203/86/201
f 105/314/358 315/187/67 275/299/323
f 105/314/358 112/316/39 335/191/71
f 70/113/263 25/12/15 185/55/122
f 23/45/101 28/44/100 316/61/133
f 311/106/248 316/61/133 28/44/100
f 82/168/17 317/167/16 89/318/367
f 317/167/16 254/228/149 89/318/367
f 143/241/176 184/238/173 318/283/273
f 318/283/273 184/238/173 36/229/156
f 138/205/96 82/168/17 89/318/367
f 320/162/1 138/205/96 89/318/367
f 319/298/319 60/244/179 221/264/235
f 103/215/119 319/298/319 221/264/235
f 243/319/368 303/196/79 348/335/387
f 89/318/367 243/319/368 348/335/387
f 97/410/306 223/409/105 144/407/307
f 223/412/105 97/415/306 228/413/106
f 206/227/148 16/230/157 321/258/209
f 321/258/209 254/228/149 206/227/148
f 322/343/233 172/346/48 76/353/277
f 201/389/324 323/383/40 152/385/325
f 323/383/40 112/382/39 152/385/325
f 324/139/354 271/68/159 128/92/212
f 342/91/211 324/139/354 128/92/212
f 358/201/84 30/207/98 77/246/188
f 325/351/348 140/359/331 192/352/136
f 325/351/348 192/352/136 2/347/138
f 2/347/138 192/352/136 119/342/49
f 196/101/241 326/6/9 175/109/251
f 326/6/9 58/95/227 175/109/251
f 52/348/46 216/344/139 153/341/131
f 156/63/135 327/62/134 151/29/61
f 311/106/248 151/29/61 327/62/134
f 328/291/292 365/190/70 85/306/282
f 307/460/281 328/458/292 85/463/282
f 329/151/374 211/116/275 181/117/276
f 369/164/379 270/147/343 211/116/275
f 212/366/289 330/368/349 356/361/290
f 356/361/290 330/368/349 140/359/331
f 269/149/372 331/23/52 385/150/340
f 377/145/363 331/23/52 269/149/372
f 332/31/63 5/114/264 70/113/263
f 156/63/135 332/31/63 70/113/263
f 96/36/89 219/82/197 333/146/365
f 333/146/365 219/82/197 55/84/199
f 334/110/252 279/51/112 79/53/114
f 334/110/252 79/53/114 183/41/94
f 315/187/67 335/191/71 365/190/70
f 335/191/71 315/187/67 105/314/358
f 201/389/324 121/398/226 336/393/297
f 336/393/297 121/398/226 125/396/225
f 20/210/108 337/294/305 237/312/353
f 337/294/305 154/176/28 237/312/353
f 30/207/98 65/214/118 53/216/120
f 30/207/98 93/206/97 65/214/118
f 338/255/205 274/279/266 49/278/265
f 338/255/205 265/253/195 274/279/266
f 147/85/200 18/15/33 150/144/362
f 339/417/261 117/414/345 362/411/104
f 339/111/261 43/134/327 117/135/345
f 240/203/86 340/317/366 90/268/239
f 178/202/85 341/289/294 240/203/86
f 341/289/294 157/188/68 340/317/366
f 341/289/294 340/317/366 240/203/86
f 252/81/186 19/47/103 44/46/102
f 342/91/211 120/59/130 324/139/354
f 120/59/130 342/91/211 355/122/304
f 168/185/65 14/184/64 174/218/127
f 174/218/127 264/272/253 168/185/65
f 91/80/185 21/97/229 343/98/230
f 343/98/230 21/97/229 285/49/110
f 183/41/94 64/38/91 334/110/252
f 64/38/91 183/41/94 3/39/92
f 227/373/333 106/376/332 344/377/335
f 227/373/333 344/377/335 136/369/334
f 345/304/330 51/224/145 321/258/209
f 231/285/278 51/224/145 345/304/330
f 346/160/384 289/125/310 244/28/60
f 118/27/59 346/160/384 244/28/60
f 188/155/255 63/32/73 347/336/217
f 347/336/217 63/32/73 353/34/75
f 86/262/216 194/321/373 158/208/107
f 320/162/1 348/335/387 303/196/79
f 320/162/1 89/318/367 348/335/387
f 196/101/241 141/108/250 256/100/240
f 131/21/45 349/140/355 83/13/31
f 329/151/374 349/140/355 131/21/45
f 213/37/90 350/158/383 271/68/159
f 350/158/383 213/37/90 333/146/365
f 174/218/127 77/246/188 264/272/253
f 77/246/188 30/207/98 264/272/253
f 314/445/203 258/446/314 215/436/154
f 135/77/182 351/119/291 302/142/359
f 135/77/182 84/54/121 351/119/291
f 269/149/372 147/85/200 150/144/362
f 199/322/376 352/240/175 298/313/357
f 199/322/376 184/238/173 352/240/175
f 353/444/75 169/440/11 38/437/155
f 169/8/11 353/34/75 273/9/12
f 222/248/190 354/245/187 9/271/244
f 354/245/187 197/247/189 9/271/244
f 120/59/130 355/122/304 96/36/89
f 96/36/89 355/122/304 219/82/197
f 309/374/287 136/369/334 200/378/336
f 52/348/46 356/361/290 122/355/137
f 122/355/137 356/361/290 325/351/348
f 148/250/192 358/201/84 354/245/187
f 148/250/192 36/229/156 358/201/84
f 282/178/30 359/177/29 22/220/129
f 359/177/29 97/295/306 22/220/129
f 360/217/126 50/223/141 174/218/127
f 92/281/268 50/223/141 360/217/126
f 27/65/143 235/157/382 361/133/326
f 361/133/326 235/157/382 212/132/289
f 137/418/54 362/411/104 241/416/341
f 241/416/341 362/411/104 228/413/106
f 363/233/162 69/327/270 209/180/36
f 74/234/164 363/233/162 209/180/36
f 48/438/388 364/441/381 215/436/154
f 357/163/385 364/161/381 48/337/388
f 315/187/67 365/190/70 157/188/68
f 157/188/68 365/190/70 328/291/292
f 366/326/380 247/315/364 230/297/311
f 230/297/311 80/287/284 366/326/380
f 48/438/388 215/436/154 367/435/10
f 367/7/10 357/163/385 48/337/388
f 368/249/191 36/229/156 148/250/192
f 368/249/191 318/283/273 36/229/156
f 369/164/379 211/116/275 329/151/374
f 369/164/379 329/151/374 290/156/153
f 373/76/181 130/75/180 370/136/346
f 117/135/345 43/134/327 370/136/346
f 32/263/223 243/319/368 254/228/149
f 126/169/18 17/267/238 371/231/158
f 184/238/173 371/231/158 17/267/238
f 3/39/92 118/27/59 87/26/58
f 153/341/131 372/338/19 94/345/232
f 94/345/232 372/338/19 322/343/233
f 43/134/327 373/76/181 370/136/346
f 43/134/327 107/79/184 373/76/181
f 94/345/232 166/349/152 153/341/131
f 177/174/26 24/211/115 142/175/27
f 113/265/236 226/280/267 374/307/338
f 113/265/236 374/307/338 236/186/66
f 367/7/10 273/9/12 357/163/385
f 357/163/385 273/9/12 252/81/186
f 375/115/274 299/17/41 10/96/228
f 375/115/274 10/96/228 58/95/227
f 109/129/320 376/60/132 171/130/321
f 252/81/186 376/60/132 109/129/320
f 102/126/316 190/74/172 377/145/363
f 377/145/363 55/84/199 102/126/316
f 378/274/257 73/182/50 383/183/51
f 67/323/377 149/273/256 378/274/257
f 110/303/329 379/193/76 345/304/330
f 110/303/329 204/302/328 379/193/76
f 380/58/125 287/57/124 156/63/135
f 156/63/135 95/69/167 380/58/125
f 238/3/6 165/127/317 381/120/296
f 165/127/317 47/94/222 381/120/296
f 47/94/222 382/107/249 61/66/144
f 61/66/144 382/107/249 64/38/91
f 378/274/257 383/183/51 67/323/377
f 67/323/377 383/183/51 291/173/25
f 189/239/174 143/241/176 384/324/378
f 189/239/174 384/324/378 352/240/175
f 385/420/340 137/418/54 241/416/341
f 331/23/52 137/25/54 385/150/340
f 57/402/57 255/403/151 217/400/224
f 312/404/55 144/407/307 245/406/56
f 232/424/339 194/422/373 35/426/295
f 12/421/342 194/422/373 232/424/339
f 3/39/92 210/42/95 118/27/59
f 210/42/95 346/160/384 118/27/59
f 2/347/138 119/342/49 145/339/20
f 196/101/241 334/110/252 141/108/250
f 140/359/331 37/364/286 192/352/136
f 247/433/364 386/431/272 149/430/256
f 182/434/375 386/431/272 247/433/364
f 182/434/375 271/432/159 386/431/272
f 180/451/218 387/448/371 306/443/161
f 180/451/218 353/444/75 387/448/371
f 119/342/49 172/346/48 388/340/21
f 388/340/21 172/346/48 322/343/233
f 372/338/19 388/340/21 322/343/233
