# This file uses feet as units for non-parametric coordinates.

g default
v -37.942616 36.209499 2.180950
v -37.942616 36.209499 1.543545
v -37.305206 36.209499 2.180950
v -37.305214 36.209499 1.543545
v -37.942616 24.452927 1.543545
v -37.942616 24.452927 2.180950
v -37.305206 24.452927 2.180950
v -37.305214 24.452927 1.543545
v -38.048851 24.452930 1.862247
v -37.623913 24.452930 2.287182
v -37.198975 24.452930 1.862247
v -38.048851 36.209496 1.862247
v -37.623913 36.209496 2.287182
v -37.198975 36.209496 1.862247
v -36.983826 21.950569 -1.711895
v -36.983826 22.587971 -1.711895
v -36.346416 21.950569 -1.711895
v -36.346416 22.587971 -1.711895
v -36.983826 38.711861 -1.711895
v -36.983826 38.074455 -1.711895
v -36.346416 38.711861 -1.711895
v -36.346416 38.074455 -1.711895
v -36.983822 38.074451 1.014797
v -36.983822 38.711861 1.333500
v -36.346416 38.074451 1.014797
v -36.346416 38.711861 1.333500
v -37.090061 38.393158 -1.711895
v -36.240181 38.393158 -1.711895
v -36.665123 38.818092 -1.711895
v -36.983822 23.200050 1.543545
v -36.983822 22.881350 2.180950
v -36.346416 23.200050 1.543545
v -36.346416 22.881350 2.180950
v -36.983822 21.950569 1.333500
v -36.983822 22.587971 1.014797
v -36.346416 21.950569 1.333500
v -36.346416 22.587971 1.014797
v -37.090061 22.269268 -1.711895
v -36.240181 22.269268 -1.711895
v -36.665123 21.844334 -1.711895
v -36.983822 37.781075 2.180950
v -36.983822 37.462376 1.543545
v -36.346416 37.781078 2.180950
v -36.346416 37.462372 1.543545
v -37.090061 23.040699 1.862247
v -36.240181 23.040699 1.862247
v -36.665123 22.828232 2.287182
v -37.090061 22.269270 1.174152
v -36.240181 22.269270 1.174152
v -36.665123 21.844334 1.386623
v -37.090061 37.621727 1.862247
v -36.240181 37.621727 1.862247
v -36.665123 37.834194 2.287182
v -37.090061 38.393158 1.174152
v -36.240181 38.393158 1.174152
v -36.665123 38.818092 1.386623
v -36.046036 36.209499 2.180950
v -36.046036 36.209499 1.543545
v -35.408630 36.209499 2.180950
v -35.408630 36.209499 1.543545
v -36.046036 24.452927 1.543545
v -36.046036 24.452927 2.180950
v -35.408630 24.452927 2.180950
v -35.408630 24.452927 1.543537
v -36.152271 24.452930 1.862247
v -35.727333 24.452930 2.287182
v -35.302391 24.452930 1.862247
v -35.727333 36.209496 2.287182
v -35.302391 36.209499 1.862247
v -36.152271 36.209499 1.862247
v -41.396751 11.181438 -1.823540
v -0.048134 11.181438 -1.823540
v -41.396751 11.181438 -0.065857
v -0.048134 11.181438 -0.065857
v -41.396751 49.480984 -0.065857
v -0.048134 49.480984 -0.065857
v -41.396751 49.480984 -1.823540
v -0.048134 49.480984 -1.823540
v -0.917854 41.978085 0.081779
v -0.202217 41.978085 0.081779
v -0.917854 41.978088 -0.081787
v -0.202217 41.978088 -0.081787
v -0.917854 35.960983 0.081779
v -0.202217 35.960983 0.081779
v -0.917854 35.960983 -0.081787
v -0.202217 35.960983 -0.081787
v -0.202217 40.774666 0.081787
v -0.154488 40.774666 0.154488
v 0.000000 40.774666 0.218483
v -0.202217 40.774666 -0.081779
v 0.154488 40.774666 0.154488
v -0.154488 40.774666 -0.154488
v -0.202217 39.789063 -0.081787
v -0.202217 39.571243 0.081779
v 0.218483 40.774666 0.000000
v 0.000000 40.774666 -0.218475
v -0.202217 39.571247 -0.081787
v -0.154488 39.571247 0.154488
v 0.154488 40.774666 -0.154488
v -0.154488 39.571247 -0.154495
v 0.000000 39.571247 0.218475
v 0.000000 39.571247 -0.218483
v 0.154488 39.571247 0.154488
v 0.154488 39.571243 -0.154495
v 0.218483 39.571247 0.000000
v -0.202217 37.164406 0.081779
v -0.154488 37.164406 0.154488
v 0.000000 37.164406 0.218475
v -0.202217 37.164406 -0.081787
v 0.154488 37.164406 0.154488
v -0.154488 37.164406 -0.154495
v -0.202217 38.367825 -0.081779
v -0.202217 38.367825 0.081779
v 0.218483 37.164406 -0.000008
v 0.000000 37.164406 -0.218483
v -0.154488 38.367825 0.154488
v 0.154488 37.164406 -0.154915
v -0.154488 38.367825 -0.154488
v 0.000000 38.367825 0.218483
v 0.000000 38.367825 -0.218483
v 0.154488 38.367825 0.154488
v 0.154488 38.367825 -0.154488
v 0.218483 38.367825 0.000000
v -0.917854 22.247599 0.081779
v -0.202217 22.247599 0.081779
v -0.917854 22.247601 -0.081787
v -0.202217 22.247601 -0.081787
v -0.917854 16.230499 0.081779
v -0.202217 16.230499 0.081779
v -0.917854 16.230499 -0.081787
v -0.202217 16.230499 -0.081787
v -0.202217 17.433918 0.081779
v -0.154488 17.433920 0.154488
v 0.000000 17.433920 0.218475
v -0.202217 17.433920 -0.081787
v 0.154488 17.433920 0.154488
v -0.154488 17.433920 -0.154495
v -0.202217 18.637339 -0.081779
v -0.202217 18.637339 0.081779
v 0.218483 17.433920 -0.000008
v 0.000000 17.433918 -0.218483
v -0.154488 18.637339 0.154488
v 0.154488 17.433920 -0.154915
v -0.154488 18.637339 -0.154488
v 0.000000 18.637339 0.218483
v 0.000000 18.637339 -0.218483
v 0.154488 18.637339 0.154488
v 0.154488 18.637339 -0.154488
v 0.218483 18.637339 0.000000
v -0.202217 21.044180 0.081787
v -0.154488 21.044182 0.154488
v 0.000000 21.044180 0.218483
v -0.202217 21.044180 -0.081779
v 0.154488 21.044182 0.154488
v -0.154488 21.044180 -0.154488
v -0.202217 20.058578 -0.081787
v -0.202217 19.840759 0.081779
v 0.218483 21.044182 0.000000
v 0.000000 21.044180 -0.218475
v -0.202217 19.840761 -0.081787
v -0.154488 19.840761 0.154488
v 0.154488 21.044180 -0.154488
v -0.154488 19.840761 -0.154495
v 0.000000 19.840761 0.218475
v 0.000000 19.840761 -0.218483
v 0.154488 19.840761 0.154488
v 0.154488 19.840759 -0.154495
v 0.218483 19.840761 0.000000
v -39.833336 27.420841 -0.003628
v -33.496910 27.420841 -0.003628
v -39.833336 33.757271 -0.003628
v -33.496910 33.757271 -0.003628
vt 0.578012 0.362468
vt 0.578012 0.289835
vt 0.580087 0.362467
vt 0.580087 0.289836
vt 0.582162 0.362467
vt 0.582162 0.289837
vt 0.584237 0.362466
vt 0.584237 0.289837
vt 0.586313 0.362466
vt 0.586313 0.289838
vt 0.575937 0.362469
vt 0.573861 0.362469
vt 0.575937 0.289835
vt 0.573861 0.289835
vt 0.590251 0.362465
vt 0.590251 0.289839
vt 0.571481 0.283412
vt 0.571481 0.279482
vt 0.573447 0.284067
vt 0.573447 0.278827
vt 0.575412 0.283412
vt 0.576067 0.281447
vt 0.575412 0.279482
vt 0.586468 0.283306
vt 0.584504 0.283961
vt 0.586468 0.279377
vt 0.584504 0.278723
vt 0.582540 0.283306
vt 0.581885 0.281342
vt 0.582540 0.279377
vt 0.598822 0.233213
vt 0.599483 0.226073
vt 0.601002 0.232354
vt 0.601698 0.226572
vt 0.603103 0.231512
vt 0.603631 0.227044
vt 0.605148 0.231239
vt 0.605392 0.227260
vt 0.607190 0.231514
vt 0.607166 0.227265
vt 0.609141 0.227043
vt 0.609286 0.232357
vt 0.611391 0.226865
vt 0.611450 0.233208
vt 0.615730 0.227241
vt 0.615610 0.233183
vt 0.601003 0.323057
vt 0.603104 0.323900
vt 0.605148 0.324171
vt 0.607191 0.323896
vt 0.609286 0.323053
vt 0.611450 0.322201
vt 0.602186 0.209212
vt 0.604326 0.209286
vt 0.600042 0.209136
vt 0.612905 0.209745
vt 0.617041 0.210024
vt 0.608588 0.209491
vt 0.610740 0.209621
vt 0.606455 0.209371
vt 0.611392 0.328546
vt 0.609142 0.328367
vt 0.607166 0.328144
vt 0.615731 0.328169
vt 0.615611 0.322226
vt 0.601698 0.328838
vt 0.599484 0.329337
vt 0.598822 0.322198
vt 0.603631 0.328366
vt 0.610740 0.345789
vt 0.612905 0.345665
vt 0.608588 0.345919
vt 0.605392 0.328150
vt 0.602186 0.346198
vt 0.604326 0.346124
vt 0.600042 0.346273
vt 0.617041 0.345386
vt 0.606455 0.346039
vt 0.563365 0.289931
vt 0.563305 0.362776
vt 0.561269 0.289929
vt 0.561209 0.362775
vt 0.565385 0.290041
vt 0.565401 0.362776
vt 0.567416 0.290039
vt 0.567498 0.362775
vt 0.586165 0.281208
vt 0.585709 0.279646
vt 0.585709 0.282771
vt 0.584342 0.283292
vt 0.582974 0.279646
vt 0.582519 0.281208
vt 0.582974 0.282771
vt 0.559193 0.289981
vt 0.559113 0.362774
vt 0.557117 0.289924
vt 0.557016 0.362771
vt 0.573571 0.362766
vt 0.569594 0.362772
vt 0.573424 0.289917
vt 0.569448 0.289927
vt 0.565913 0.283565
vt 0.563946 0.284221
vt 0.565913 0.279633
vt 0.563946 0.278977
vt 0.561980 0.283565
vt 0.561325 0.281599
vt 0.561980 0.279633
vt 0.361449 0.004503
vt 0.361449 0.179103
vt 0.368933 0.004503
vt 0.368933 0.179103
vt 0.354433 0.011264
vt 0.353983 0.169339
vt 0.206785 0.010843
vt 0.206334 0.168918
vt 0.371525 0.004503
vt 0.371525 0.179103
vt 0.379010 0.004503
vt 0.379010 0.179103
vt 0.211367 0.346028
vt 0.211367 0.182944
vt 0.203883 0.346028
vt 0.203883 0.182944
vt 0.201900 0.346028
vt 0.201900 0.182944
vt 0.194416 0.346028
vt 0.194416 0.182944
vt 0.201589 0.009175
vt 0.356298 0.010141
vt 0.200546 0.176201
vt 0.355255 0.177166
vt 0.558462 0.486731
vt 0.546655 0.486731
vt 0.558462 0.387460
vt 0.546655 0.387460
vt 0.576683 0.486515
vt 0.573989 0.486515
vt 0.576683 0.387441
vt 0.573989 0.387441
vt 0.582932 0.387555
vt 0.582932 0.486576
vt 0.580236 0.387555
vt 0.580236 0.486576
vt 0.621732 0.436544
vt 0.621732 0.448119
vt 0.619090 0.436544
vt 0.619090 0.448119
vt 0.534447 0.387426
vt 0.534447 0.486703
vt 0.522640 0.387426
vt 0.522640 0.486703
vt 0.619090 0.460352
vt 0.619090 0.448784
vt 0.621740 0.460352
vt 0.621740 0.448784
vt 0.586100 0.456224
vt 0.587524 0.456224
vt 0.586100 0.475931
vt 0.587524 0.459792
vt 0.587524 0.475931
vt 0.583360 0.456224
vt 0.583360 0.475931
vt 0.611429 0.436802
vt 0.614184 0.436802
vt 0.611429 0.456623
vt 0.614184 0.456623
vt 0.608674 0.436802
vt 0.608674 0.456623
vt 0.605922 0.436802
vt 0.605922 0.456623
vt 0.603164 0.436802
vt 0.603164 0.456623
vt 0.600412 0.436802
vt 0.600412 0.456623
vt 0.598980 0.436802
vt 0.598980 0.456623
vt 0.618763 0.436300
vt 0.618763 0.456009
vt 0.617339 0.436300
vt 0.617339 0.456009
vt 0.614599 0.436300
vt 0.614602 0.456009
vt 0.595826 0.435865
vt 0.598580 0.435865
vt 0.595807 0.455686
vt 0.598562 0.455686
vt 0.593065 0.435865
vt 0.593054 0.455686
vt 0.590307 0.435865
vt 0.590302 0.455686
vt 0.587550 0.435865
vt 0.587550 0.455686
vt 0.584794 0.435865
vt 0.584799 0.455686
vt 0.583366 0.455686
vt 0.583360 0.435865
vt 0.558462 0.486731
vt 0.546655 0.486731
vt 0.558462 0.387460
vt 0.546655 0.387460
vt 0.576683 0.486515
vt 0.573989 0.486515
vt 0.576683 0.387441
vt 0.573989 0.387441
vt 0.582932 0.387555
vt 0.582932 0.486576
vt 0.580236 0.387555
vt 0.580236 0.486576
vt 0.621732 0.436544
vt 0.621732 0.448119
vt 0.619090 0.436544
vt 0.619090 0.448119
vt 0.534447 0.387426
vt 0.534447 0.486703
vt 0.522640 0.387426
vt 0.522640 0.486703
vt 0.619090 0.460352
vt 0.619090 0.448784
vt 0.621740 0.460352
vt 0.621740 0.448784
vt 0.618763 0.436300
vt 0.618763 0.456009
vt 0.617339 0.436300
vt 0.617339 0.456009
vt 0.614599 0.436300
vt 0.614602 0.456009
vt 0.595826 0.435865
vt 0.598580 0.435865
vt 0.595807 0.455686
vt 0.598562 0.455686
vt 0.593065 0.435865
vt 0.593054 0.455686
vt 0.590307 0.435865
vt 0.590302 0.455686
vt 0.587550 0.435865
vt 0.587550 0.455686
vt 0.584794 0.435865
vt 0.584799 0.455686
vt 0.583366 0.455686
vt 0.583360 0.435865
vt 0.586100 0.456224
vt 0.587524 0.456224
vt 0.586100 0.475931
vt 0.587524 0.459792
vt 0.587524 0.475931
vt 0.583360 0.456224
vt 0.583360 0.475931
vt 0.611429 0.436802
vt 0.614184 0.436802
vt 0.611429 0.456623
vt 0.614184 0.456623
vt 0.608674 0.436802
vt 0.608674 0.456623
vt 0.605922 0.436802
vt 0.605922 0.456623
vt 0.603164 0.436802
vt 0.603164 0.456623
vt 0.600412 0.436802
vt 0.600412 0.456623
vt 0.598980 0.436802
vt 0.598980 0.456623
vt 0.506814 0.206378
vt 0.550396 0.206378
vt 0.506814 0.249960
vt 0.550396 0.249960
vn -0.707103 0.000000 0.707111
vn -0.707108 0.000000 0.707105
vn -0.000000 0.000000 1.000000
vn -0.000000 0.000000 1.000000
vn -0.707108 0.000000 0.707105
vn 0.000000 0.000000 1.000000
vn -0.000000 0.000000 1.000000
vn 0.000000 0.000000 1.000000
vn 0.707102 0.000000 0.707111
vn 0.707102 0.000000 0.707111
vn 0.000000 0.000000 1.000000
vn 0.707108 0.000000 0.707106
vn 1.000000 0.000000 -0.000010
vn 1.000000 0.000000 -0.000014
vn 0.393915 0.000000 -0.919147
vn 0.393915 0.000000 -0.919147
vn 1.000000 0.000000 -0.000014
vn 0.393916 0.000000 -0.919146
vn 0.707102 0.000000 0.707111
vn 0.707108 0.000000 0.707106
vn 1.000000 0.000000 -0.000010
vn 1.000000 0.000000 -0.000010
vn 0.707108 0.000000 0.707106
vn 1.000000 0.000000 -0.000014
vn -1.000000 0.000000 0.000000
vn -0.948682 0.000000 -0.316233
vn -1.000000 0.000000 0.000002
vn -1.000000 0.000000 0.000002
vn -0.948682 0.000000 -0.316233
vn -0.948682 0.000000 -0.316231
vn -0.707103 0.000000 0.707111
vn -1.000000 0.000000 0.000000
vn -0.707108 0.000000 0.707105
vn -0.707108 0.000000 0.707105
vn -1.000000 0.000000 0.000000
vn -1.000000 0.000000 0.000002
vn 0.000000 0.000000 -1.000000
vn 0.393915 0.000000 -0.919147
vn 0.000000 0.000000 -1.000000
vn 0.000000 0.000000 -1.000000
vn 0.393915 0.000000 -0.919147
vn 0.393916 0.000000 -0.919146
vn 0.000000 -1.000000 0.000014
vn 0.000000 -1.000000 0.000014
vn 0.000000 -1.000000 0.000001
vn 0.000000 -1.000000 0.000014
vn -0.000000 -1.000000 0.000006
vn 0.000000 -1.000000 0.000001
vn 0.000000 -1.000000 0.000001
vn -0.000000 -1.000000 0.000006
vn 0.000002 -1.000000 -0.000007
vn 0.000002 -1.000000 -0.000007
vn -0.000000 -1.000000 0.000006
vn 0.000006 -1.000000 0.000003
vn 0.000006 -1.000000 0.000003
vn -0.000000 -1.000000 0.000006
vn -0.000018 -1.000000 -0.000021
vn 0.000000 1.000000 0.000019
vn 0.000000 1.000000 -0.000003
vn 0.000000 1.000000 0.000002
vn 0.000000 1.000000 0.000002
vn 0.000000 1.000000 -0.000003
vn -0.000000 1.000000 -0.000001
vn 0.000000 1.000000 -0.000003
vn 0.000002 1.000000 -0.000005
vn -0.000000 1.000000 -0.000001
vn 0.000002 1.000000 -0.000005
vn 0.000006 1.000000 0.000019
vn -0.000000 1.000000 -0.000001
vn 0.000006 1.000000 0.000019
vn -0.000018 1.000000 0.000000
vn -0.000000 1.000000 -0.000001
vn -0.950091 0.009791 -0.311821
vn -0.955676 0.288484 -0.058825
vn -0.995841 -0.003383 0.091048
vn -0.995841 -0.003383 0.091048
vn -0.955676 0.288484 -0.058825
vn -0.995609 -0.091309 0.020647
vn -0.995841 -0.003383 0.091048
vn -0.995609 -0.091309 0.020647
vn -0.634264 -0.040041 0.772079
vn -0.634264 -0.040041 0.772079
vn -0.995609 -0.091309 0.020647
vn -0.662471 -0.727810 0.177269
vn -0.634264 -0.040041 0.772079
vn -0.662471 -0.727810 0.177269
vn -0.000001 -0.055811 0.998441
vn -0.000001 -0.055811 0.998441
vn -0.662471 -0.727810 0.177269
vn -0.000000 -0.970082 0.242777
vn 0.634257 -0.040041 0.772084
vn -0.000001 -0.055811 0.998441
vn 0.662455 -0.727825 0.177269
vn 0.662455 -0.727825 0.177269
vn -0.000001 -0.055811 0.998441
vn -0.000000 -0.970082 0.242777
vn 0.662455 -0.727825 0.177269
vn 0.995607 -0.091324 0.020646
vn 0.634257 -0.040041 0.772084
vn 0.634257 -0.040041 0.772084
vn 0.995607 -0.091324 0.020646
vn 0.995841 -0.003382 0.091044
vn 0.995607 -0.091324 0.020646
vn 0.520428 0.838745 -0.160193
vn 0.995841 -0.003382 0.091044
vn 0.995841 -0.003382 0.091044
vn 0.520428 0.838745 -0.160193
vn 0.477588 0.030563 -0.878052
vn 0.000000 0.982780 -0.184780
vn 0.000000 0.035525 -0.999369
vn 0.520428 0.838745 -0.160193
vn 0.520428 0.838745 -0.160193
vn 0.000000 0.035525 -0.999369
vn 0.477588 0.030563 -0.878052
vn -0.995841 -0.003383 0.091048
vn -0.634264 -0.040041 0.772079
vn -0.995268 0.003361 0.097106
vn -0.995268 0.003361 0.097106
vn -0.634264 -0.040041 0.772079
vn -0.639001 0.039914 0.768169
vn -0.000001 -0.055811 0.998441
vn 0.000009 0.056176 0.998421
vn -0.634264 -0.040041 0.772079
vn -0.634264 -0.040041 0.772079
vn 0.000009 0.056176 0.998421
vn -0.639001 0.039914 0.768169
vn -0.000001 -0.055811 0.998441
vn 0.634257 -0.040041 0.772084
vn 0.000009 0.056176 0.998421
vn 0.000009 0.056176 0.998421
vn 0.634257 -0.040041 0.772084
vn 0.639002 0.039914 0.768169
vn 0.995841 -0.003382 0.091044
vn 0.477588 0.030563 -0.878052
vn 0.995269 0.003361 0.097101
vn 0.995269 0.003361 0.097101
vn 0.477588 0.030563 -0.878052
vn 0.471348 -0.030794 -0.881410
vn 0.995841 -0.003382 0.091044
vn 0.995269 0.003361 0.097101
vn 0.634257 -0.040041 0.772084
vn 0.634257 -0.040041 0.772084
vn 0.995269 0.003361 0.097101
vn 0.639002 0.039914 0.768169
vn -0.999962 -0.008711 0.000001
vn -0.698258 -0.715846 0.000001
vn -0.995609 -0.091309 0.020647
vn -0.995609 -0.091309 0.020647
vn -0.698258 -0.715846 0.000001
vn -0.662471 -0.727810 0.177269
vn -0.995609 -0.091309 0.020647
vn -0.955676 0.288484 -0.058825
vn -0.999962 -0.008711 0.000001
vn -0.999962 -0.008711 0.000001
vn -0.955676 0.288484 -0.058825
vn -0.948682 0.316233 0.000001
vn 0.393914 0.919148 0.000000
vn 0.000000 1.000000 0.000000
vn 0.520428 0.838745 -0.160193
vn 0.520428 0.838745 -0.160193
vn 0.000000 1.000000 0.000000
vn 0.000000 0.982780 -0.184780
vn 0.662455 -0.727825 0.177269
vn 0.698273 -0.715832 0.000000
vn 0.995607 -0.091324 0.020646
vn 0.995607 -0.091324 0.020646
vn 0.698273 -0.715832 0.000000
vn 0.999962 -0.008694 0.000000
vn 0.995607 -0.091324 0.020646
vn 0.999962 -0.008694 0.000000
vn 0.520428 0.838745 -0.160193
vn 0.520428 0.838745 -0.160193
vn 0.999962 -0.008694 0.000000
vn 0.393914 0.919148 0.000000
vn 0.698273 -0.715832 0.000000
vn 0.662455 -0.727825 0.177269
vn 0.000000 -1.000000 0.000000
vn 0.000000 -1.000000 0.000000
vn 0.662455 -0.727825 0.177269
vn -0.000000 -0.970082 0.242777
vn -0.000000 -0.970082 0.242777
vn -0.662471 -0.727810 0.177269
vn 0.000000 -1.000000 0.000000
vn 0.000000 -1.000000 0.000000
vn -0.662471 -0.727810 0.177269
vn -0.698258 -0.715846 0.000001
vn 0.471348 -0.030794 -0.881410
vn 0.520436 -0.838740 -0.160195
vn 0.995269 0.003361 0.097101
vn 0.995269 0.003361 0.097101
vn 0.520436 -0.838740 -0.160195
vn 0.995607 0.091322 0.020647
vn 0.995269 0.003361 0.097101
vn 0.995607 0.091322 0.020647
vn 0.639002 0.039914 0.768169
vn 0.639002 0.039914 0.768169
vn 0.995607 0.091322 0.020647
vn 0.662453 0.727826 0.177269
vn 0.520436 -0.838740 -0.160195
vn 0.471348 -0.030794 -0.881410
vn -0.000001 -0.982780 -0.184782
vn -0.000001 -0.982780 -0.184782
vn 0.471348 -0.030794 -0.881410
vn -0.000000 -0.035525 -0.999369
vn -0.995608 0.091313 0.020648
vn -0.955677 -0.288480 -0.058823
vn -0.995268 0.003361 0.097106
vn -0.995268 0.003361 0.097106
vn -0.955677 -0.288480 -0.058823
vn -0.950122 -0.009996 -0.311718
vn -0.662467 0.727814 0.177272
vn -0.995608 0.091313 0.020648
vn -0.639001 0.039914 0.768169
vn -0.639001 0.039914 0.768169
vn -0.995608 0.091313 0.020648
vn -0.995268 0.003361 0.097106
vn 0.995607 0.091322 0.020647
vn 0.520436 -0.838740 -0.160195
vn 0.999962 0.008694 -0.000000
vn 0.999962 0.008694 -0.000000
vn 0.520436 -0.838740 -0.160195
vn 0.393915 -0.919147 -0.000001
vn 0.662453 0.727826 0.177269
vn 0.995607 0.091322 0.020647
vn 0.698273 0.715831 0.000000
vn 0.698273 0.715831 0.000000
vn 0.995607 0.091322 0.020647
vn 0.999962 0.008694 -0.000000
vn 0.000002 0.970082 0.242780
vn -0.662467 0.727814 0.177272
vn 0.000009 0.056176 0.998421
vn 0.000009 0.056176 0.998421
vn -0.662467 0.727814 0.177272
vn -0.639001 0.039914 0.768169
vn 0.639002 0.039914 0.768169
vn 0.662453 0.727826 0.177269
vn 0.000009 0.056176 0.998421
vn 0.000009 0.056176 0.998421
vn 0.662453 0.727826 0.177269
vn 0.000002 0.970082 0.242780
vn -0.995841 -0.003383 0.091048
vn -0.995268 0.003361 0.097106
vn -0.950091 0.009791 -0.311821
vn -0.950091 0.009791 -0.311821
vn -0.995268 0.003361 0.097106
vn -0.950122 -0.009996 -0.311718
vn -0.000000 -0.035525 -0.999369
vn 0.471348 -0.030794 -0.881410
vn 0.000000 0.035525 -0.999369
vn 0.000000 0.035525 -0.999369
vn 0.471348 -0.030794 -0.881410
vn 0.477588 0.030563 -0.878052
vn -0.999962 0.008711 0.000000
vn -0.995608 0.091313 0.020648
vn -0.698257 0.715847 0.000000
vn -0.698257 0.715847 0.000000
vn -0.995608 0.091313 0.020648
vn -0.662467 0.727814 0.177272
vn -0.948682 -0.316233 0.000000
vn -0.955677 -0.288480 -0.058823
vn -0.999962 0.008711 0.000000
vn -0.999962 0.008711 0.000000
vn -0.955677 -0.288480 -0.058823
vn -0.995608 0.091313 0.020648
vn 0.000000 -1.000000 0.000000
vn 0.393915 -0.919147 -0.000001
vn -0.000001 -0.982780 -0.184782
vn -0.000001 -0.982780 -0.184782
vn 0.393915 -0.919147 -0.000001
vn 0.520436 -0.838740 -0.160195
vn 0.698273 0.715831 0.000000
vn 0.000000 1.000000 0.000000
vn 0.662453 0.727826 0.177269
vn 0.662453 0.727826 0.177269
vn 0.000000 1.000000 0.000000
vn 0.000002 0.970082 0.242780
vn -0.698257 0.715847 0.000000
vn -0.662467 0.727814 0.177272
vn 0.000000 1.000000 0.000000
vn 0.000000 1.000000 0.000000
vn -0.662467 0.727814 0.177272
vn 0.000002 0.970082 0.242780
vn 0.000000 0.000000 1.000000
vn -0.000000 0.000000 1.000000
vn -0.707102 0.000000 0.707111
vn -0.707102 0.000000 0.707111
vn -0.000000 0.000000 1.000000
vn -0.707101 0.000000 0.707112
vn 0.707099 0.000000 0.707115
vn 0.707099 0.000000 0.707115
vn 0.000000 0.000000 1.000000
vn 0.000000 0.000000 1.000000
vn 0.707099 0.000000 0.707115
vn -0.000000 0.000000 1.000000
vn 1.000000 0.000000 0.000002
vn 1.000000 -0.000000 0.000000
vn 0.707099 0.000000 0.707115
vn 0.707099 0.000000 0.707115
vn 1.000000 -0.000000 0.000000
vn 0.707099 0.000000 0.707115
vn -0.000036 -1.000000 0.000000
vn 0.000000 -1.000000 0.000003
vn 0.000009 -1.000000 0.000000
vn 0.000009 -1.000000 0.000000
vn 0.000000 -1.000000 0.000003
vn 0.000000 -1.000000 0.000002
vn 0.000000 -1.000000 0.000002
vn 0.000000 -1.000000 0.000003
vn -0.000000 -1.000000 0.000003
vn 0.000036 -1.000000 0.000000
vn -0.000009 -1.000000 0.000000
vn -0.000000 -1.000000 0.000003
vn 0.000000 -1.000000 0.000002
vn -0.000000 -1.000000 0.000003
vn -0.000009 -1.000000 0.000000
vn -1.000000 0.000000 0.000002
vn -1.000000 0.000000 0.000000
vn -0.948682 0.000000 -0.316231
vn -0.948682 0.000000 -0.316231
vn -1.000000 0.000000 0.000000
vn -0.948685 0.000000 -0.316224
vn 0.000000 0.000000 -1.000000
vn 0.393915 -0.000000 -0.919147
vn 0.000000 0.000001 -1.000000
vn 0.000000 0.000001 -1.000000
vn 0.393915 -0.000000 -0.919147
vn 0.393924 0.000001 -0.919143
vn 0.000000 1.000000 0.000000
vn 0.000000 1.000000 0.000000
vn 0.000000 1.000000 0.000001
vn 0.000000 1.000000 0.000001
vn 0.000000 1.000000 0.000000
vn -0.000000 1.000000 0.000004
vn 0.000000 1.000000 0.000000
vn 0.000002 1.000000 0.000005
vn -0.000000 1.000000 0.000004
vn 0.000002 1.000000 0.000005
vn 0.000005 1.000000 0.000019
vn -0.000000 1.000000 0.000004
vn 0.000005 1.000000 0.000019
vn -0.000013 1.000000 0.000000
vn -0.000000 1.000000 0.000004
vn 0.393915 -0.000000 -0.919147
vn 1.000000 -0.000000 0.000000
vn 0.393924 0.000001 -0.919143
vn 0.393924 0.000001 -0.919143
vn 1.000000 -0.000000 0.000000
vn 1.000000 0.000000 0.000002
vn -0.707101 0.000000 0.707112
vn -1.000000 0.000000 0.000000
vn -0.707102 0.000000 0.707111
vn -0.707102 0.000000 0.707111
vn -1.000000 0.000000 0.000000
vn -1.000000 0.000000 0.000002
vn 0.000000 -1.000000 0.000000
vn 0.000000 -1.000000 0.000000
vn 0.000000 -1.000000 0.000000
vn 0.000000 -1.000000 0.000000
vn 0.000000 -1.000000 0.000000
vn 0.000000 -1.000000 0.000000
vn 0.000000 0.000000 1.000000
vn 0.000000 0.000000 1.000000
vn 0.000000 0.000000 1.000000
vn 0.000000 0.000000 1.000000
vn 0.000000 0.000000 1.000000
vn 0.000000 0.000000 1.000000
vn 0.000000 1.000000 0.000000
vn 0.000000 1.000000 0.000000
vn 0.000000 1.000000 0.000000
vn 0.000000 1.000000 0.000000
vn 0.000000 1.000000 0.000000
vn 0.000000 1.000000 0.000000
vn 1.000000 0.000000 0.000000
vn 1.000000 0.000000 0.000000
vn 1.000000 0.000000 0.000000
vn 1.000000 0.000000 0.000000
vn 1.000000 0.000000 0.000000
vn 1.000000 0.000000 0.000000
vn -1.000000 0.000000 0.000000
vn -1.000000 0.000000 0.000000
vn -1.000000 0.000000 0.000000
vn -1.000000 0.000000 0.000000
vn -1.000000 0.000000 0.000000
vn -1.000000 0.000000 0.000000
vn 0.000000 0.000000 -1.000000
vn 0.000000 0.000000 -1.000000
vn 0.000000 0.000000 -1.000000
vn 0.000000 0.000000 -1.000000
vn 0.000000 0.000000 -1.000000
vn 0.000000 0.000000 -1.000000
vn 0.000000 0.000000 1.000000
vn 0.000000 0.000000 1.000000
vn 0.000000 0.000000 1.000000
vn 0.000000 0.000000 1.000000
vn 0.000000 0.000000 1.000000
vn 0.000000 0.000000 1.000000
vn -1.000000 0.000000 0.000000
vn -1.000000 0.000000 0.000000
vn -1.000000 0.000000 0.000000
vn -1.000000 0.000000 0.000000
vn -1.000000 0.000000 0.000000
vn -1.000000 0.000000 0.000000
vn 1.000000 0.000000 0.000000
vn 1.000000 0.000000 0.000000
vn 1.000000 0.000000 0.000000
vn 1.000000 0.000000 0.000000
vn 1.000000 0.000000 0.000000
vn 1.000000 0.000000 0.000000
vn 0.000000 -1.000000 0.000000
vn 0.000000 -1.000000 0.000000
vn 0.000000 -1.000000 0.000000
vn 0.000000 -1.000000 0.000000
vn 0.000000 -1.000000 0.000000
vn 0.000000 -1.000000 0.000000
vn 0.000000 0.000000 -1.000000
vn 0.000000 0.000000 -1.000000
vn 0.000000 0.000000 -1.000000
vn 0.000000 0.000000 -1.000000
vn 0.000000 0.000000 -1.000000
vn 0.000000 0.000000 -1.000000
vn 0.000000 1.000000 0.000065
vn 0.000000 1.000000 0.000009
vn 0.000000 1.000000 0.000056
vn 0.000000 1.000000 0.000056
vn 0.000000 1.000000 0.000009
vn 0.000000 1.000000 0.000000
vn -0.560038 0.000002 -0.828467
vn -0.835978 -0.000004 -0.548763
vn -0.538208 0.000007 -0.842812
vn -0.835978 -0.000004 -0.548763
vn -0.835999 0.000001 -0.548732
vn -0.538208 0.000007 -0.842812
vn -0.835999 0.000001 -0.548732
vn -0.835975 0.000011 -0.548767
vn -0.538208 0.000007 -0.842812
vn -0.382664 0.000005 -0.923888
vn -0.560038 0.000002 -0.828467
vn -0.382667 0.000005 -0.923886
vn -0.382667 0.000005 -0.923886
vn -0.560038 0.000002 -0.828467
vn -0.538208 0.000007 -0.842812
vn 0.707100 0.000004 -0.707113
vn 0.382663 0.000007 -0.923888
vn 0.707105 0.000003 -0.707108
vn 0.707105 0.000003 -0.707108
vn 0.382663 0.000007 -0.923888
vn 0.382667 0.000005 -0.923886
vn 1.000000 0.000000 -0.000003
vn 0.707100 0.000004 -0.707113
vn 1.000000 0.000000 -0.000001
vn 1.000000 0.000000 -0.000001
vn 0.707100 0.000004 -0.707113
vn 0.707105 0.000003 -0.707108
vn 0.707093 -0.000002 0.707120
vn 1.000000 0.000000 -0.000003
vn 0.707105 0.000000 0.707108
vn 0.707105 0.000000 0.707108
vn 1.000000 0.000000 -0.000003
vn 1.000000 0.000000 -0.000001
vn -0.000002 -0.000003 1.000000
vn 0.707093 -0.000002 0.707120
vn -0.000002 -0.000005 1.000000
vn -0.000002 -0.000005 1.000000
vn 0.707093 -0.000002 0.707120
vn 0.707105 0.000000 0.707108
vn -0.560046 0.000000 0.828462
vn -0.000002 -0.000003 1.000000
vn -0.560023 -0.000010 0.828477
vn -0.560023 -0.000010 0.828477
vn -0.000002 -0.000003 1.000000
vn -0.000002 -0.000005 1.000000
vn -0.560046 0.000000 0.828462
vn -0.560023 -0.000010 0.828477
vn -0.835985 -0.000000 0.548753
vn -0.835985 -0.000000 0.548753
vn -0.560023 -0.000010 0.828477
vn -0.835934 -0.000011 0.548830
vn -0.835957 0.000000 -0.548795
vn -0.835978 0.000005 -0.548763
vn -0.560025 0.000000 -0.828476
vn -0.560025 0.000000 -0.828476
vn -0.835978 0.000005 -0.548763
vn -0.560057 0.000002 -0.828454
vn -0.382667 0.000000 -0.923886
vn -0.560025 0.000000 -0.828476
vn -0.382694 0.000000 -0.923875
vn -0.382694 0.000000 -0.923875
vn -0.560025 0.000000 -0.828476
vn -0.560057 0.000002 -0.828454
vn 0.706992 0.000184 -0.707221
vn 0.380719 0.000297 -0.924691
vn 0.707085 0.000087 -0.707128
vn 0.707085 0.000087 -0.707128
vn 0.380719 0.000297 -0.924691
vn 0.382696 0.000000 -0.923874
vn 1.000000 0.000001 -0.000001
vn 0.706992 0.000184 -0.707221
vn 1.000000 0.000066 0.000002
vn 1.000000 0.000066 0.000002
vn 0.706992 0.000184 -0.707221
vn 0.707085 0.000087 -0.707128
vn 0.707116 -0.000002 0.707097
vn 1.000000 0.000001 -0.000001
vn 0.707104 0.000000 0.707109
vn 0.707104 0.000000 0.707109
vn 1.000000 0.000001 -0.000001
vn 1.000000 0.000066 0.000002
vn -0.000002 -0.000003 1.000000
vn 0.707116 -0.000002 0.707097
vn -0.000002 -0.000005 1.000000
vn -0.000002 -0.000005 1.000000
vn 0.707116 -0.000002 0.707097
vn 0.707104 0.000000 0.707109
vn -0.560042 0.000000 0.828465
vn -0.000002 -0.000003 1.000000
vn -0.560055 -0.000006 0.828455
vn -0.560055 -0.000006 0.828455
vn -0.000002 -0.000003 1.000000
vn -0.000002 -0.000005 1.000000
vn -0.835979 0.000000 0.548762
vn -0.835979 0.000000 0.548762
vn -0.560055 -0.000006 0.828455
vn -0.560055 -0.000006 0.828455
vn -0.835979 0.000000 0.548762
vn -0.560042 0.000000 0.828465
vn 0.000000 0.000000 1.000000
vn 0.000000 0.000000 1.000000
vn 0.000000 0.000000 1.000000
vn 0.000000 0.000000 1.000000
vn 0.000000 0.000000 1.000000
vn 0.000000 0.000000 1.000000
vn -1.000000 0.000000 0.000000
vn -1.000000 0.000000 0.000000
vn -1.000000 0.000000 0.000000
vn -1.000000 0.000000 0.000000
vn -1.000000 0.000000 0.000000
vn -1.000000 0.000000 0.000000
vn 1.000000 0.000000 0.000000
vn 1.000000 0.000000 0.000000
vn 1.000000 0.000000 0.000000
vn 1.000000 0.000000 0.000000
vn 1.000000 0.000000 0.000000
vn 1.000000 0.000000 0.000000
vn 0.000000 -1.000000 0.000000
vn 0.000000 -1.000000 0.000000
vn 0.000000 -1.000000 0.000000
vn 0.000000 -1.000000 0.000000
vn 0.000000 -1.000000 0.000000
vn 0.000000 -1.000000 0.000000
vn 0.000000 0.000000 -1.000000
vn 0.000000 0.000000 -1.000000
vn 0.000000 0.000000 -1.000000
vn 0.000000 0.000000 -1.000000
vn 0.000000 0.000000 -1.000000
vn 0.000000 0.000000 -1.000000
vn 0.000000 1.000000 0.000016
vn 0.000000 1.000000 0.000002
vn 0.000000 1.000000 0.000014
vn 0.000000 1.000000 0.000014
vn 0.000000 1.000000 0.000002
vn 0.000000 1.000000 0.000000
vn -0.835957 0.000000 -0.548795
vn -0.835978 0.000005 -0.548762
vn -0.560038 0.000000 -0.828467
vn -0.560038 0.000000 -0.828467
vn -0.835978 0.000005 -0.548762
vn -0.560059 0.000002 -0.828453
vn -0.382696 0.000000 -0.923874
vn -0.560038 0.000000 -0.828467
vn -0.382698 0.000000 -0.923874
vn -0.382698 0.000000 -0.923874
vn -0.560038 0.000000 -0.828467
vn -0.560059 0.000002 -0.828453
vn 0.706988 0.000184 -0.707225
vn 0.380719 0.000297 -0.924691
vn 0.707096 0.000087 -0.707118
vn 0.707096 0.000087 -0.707118
vn 0.380719 0.000297 -0.924691
vn 0.382730 0.000000 -0.923860
vn 1.000000 0.000001 -0.000002
vn 0.706988 0.000184 -0.707225
vn 1.000000 0.000066 0.000002
vn 1.000000 0.000066 0.000002
vn 0.706988 0.000184 -0.707225
vn 0.707096 0.000087 -0.707118
vn 0.707114 -0.000002 0.707099
vn 1.000000 0.000001 -0.000002
vn 0.707106 0.000000 0.707108
vn 0.707106 0.000000 0.707108
vn 1.000000 0.000001 -0.000002
vn 1.000000 0.000066 0.000002
vn -0.000002 -0.000003 1.000000
vn 0.707114 -0.000002 0.707099
vn -0.000002 -0.000005 1.000000
vn -0.000002 -0.000005 1.000000
vn 0.707114 -0.000002 0.707099
vn 0.707106 0.000000 0.707108
vn -0.560039 0.000000 0.828467
vn -0.000002 -0.000003 1.000000
vn -0.560056 -0.000006 0.828455
vn -0.560056 -0.000006 0.828455
vn -0.000002 -0.000003 1.000000
vn -0.000002 -0.000005 1.000000
vn -0.835980 0.000000 0.548761
vn -0.835978 0.000000 0.548762
vn -0.560056 -0.000006 0.828455
vn -0.560056 -0.000006 0.828455
vn -0.835978 0.000000 0.548762
vn -0.560039 0.000000 0.828467
vn -0.560039 0.000002 -0.828466
vn -0.835979 -0.000004 -0.548762
vn -0.538207 0.000007 -0.842813
vn -0.835979 -0.000004 -0.548762
vn -0.835881 0.000001 -0.548910
vn -0.538207 0.000007 -0.842813
vn -0.835881 0.000001 -0.548910
vn -0.835977 0.000011 -0.548765
vn -0.538207 0.000007 -0.842813
vn -0.382665 0.000005 -0.923887
vn -0.560039 0.000002 -0.828466
vn -0.382665 0.000005 -0.923887
vn -0.382665 0.000005 -0.923887
vn -0.560039 0.000002 -0.828466
vn -0.538207 0.000007 -0.842813
vn 0.707101 0.000004 -0.707113
vn 0.382664 0.000007 -0.923888
vn 0.707097 0.000003 -0.707116
vn 0.707097 0.000003 -0.707116
vn 0.382664 0.000007 -0.923888
vn 0.382665 0.000005 -0.923887
vn 1.000000 0.000000 -0.000003
vn 0.707101 0.000004 -0.707113
vn 1.000000 0.000000 0.000004
vn 1.000000 0.000000 0.000004
vn 0.707101 0.000004 -0.707113
vn 0.707097 0.000003 -0.707116
vn 0.707095 -0.000002 0.707119
vn 1.000000 0.000000 -0.000003
vn 0.707111 0.000000 0.707103
vn 0.707111 0.000000 0.707103
vn 1.000000 0.000000 -0.000003
vn 1.000000 0.000000 0.000004
vn -0.000003 -0.000003 1.000000
vn 0.707095 -0.000002 0.707119
vn -0.000003 -0.000005 1.000000
vn -0.000003 -0.000005 1.000000
vn 0.707095 -0.000002 0.707119
vn 0.707111 0.000000 0.707103
vn -0.560037 0.000000 0.828467
vn -0.000003 -0.000003 1.000000
vn -0.560034 -0.000010 0.828470
vn -0.560034 -0.000010 0.828470
vn -0.000003 -0.000003 1.000000
vn -0.000003 -0.000005 1.000000
vn -0.560037 0.000000 0.828467
vn -0.560034 -0.000010 0.828470
vn -0.835970 -0.000000 0.548776
vn -0.835970 -0.000000 0.548776
vn -0.560034 -0.000010 0.828470
vn -0.835934 -0.000011 0.548830
vn 0.000000 0.000000 1.000000
vn 0.000000 0.000000 1.000000
vn 0.000000 0.000000 1.000000
vn 0.000000 0.000000 1.000000
vn 0.000000 0.000000 1.000000
vn 0.000000 0.000000 1.000000
s off
g SM_Shelf_Cab_01f
f 1/1/1 6/2/2 13/3/3
f 13/3/4 6/2/5 10/4/6
f 13/3/7 10/4/8 3/5/9
f 3/5/10 10/4/11 7/6/12
f 14/7/13 11/8/14 4/9/15
f 4/9/16 11/8/17 8/10/18
f 3/5/19 7/6/20 14/7/21
f 14/7/22 7/6/23 11/8/24
f 12/11/25 2/12/26 9/13/27
f 9/13/28 2/12/29 5/14/30
f 1/1/31 12/11/32 6/2/33
f 6/2/34 12/11/35 9/13/36
f 2/15/37 4/9/38 5/16/39
f 5/16/40 4/9/41 8/10/42
f 5/17/43 8/18/44 9/19/45
f 8/18/46 11/20/47 9/19/48
f 9/19/49 11/20/50 6/21/51
f 6/21/52 11/20/53 10/22/54
f 10/22/55 11/20/56 7/23/57
f 2/24/58 12/25/59 4/26/60
f 4/26/61 12/25/62 14/27/63
f 12/25/64 1/28/65 14/27/66
f 1/28/67 13/29/68 14/27/69
f 13/29/70 3/30/71 14/27/72
f 30/31/73 35/32/74 45/33/75
f 45/33/76 35/32/77 48/34/78
f 45/33/79 48/34/80 31/35/81
f 31/35/82 48/34/83 34/36/84
f 31/35/85 34/36/86 47/37/87
f 47/37/88 34/36/89 50/38/90
f 33/39/91 47/37/92 36/40/93
f 36/40/94 47/37/95 50/38/96
f 36/40/97 49/41/98 33/39/99
f 33/39/100 49/41/101 46/42/102
f 49/41/103 37/43/104 46/42/105
f 46/42/106 37/43/107 32/44/108
f 35/45/109 30/46/110 37/43/111
f 37/43/112 30/46/113 32/44/114
f 45/33/115 31/35/116 51/47/117
f 51/47/118 31/35/119 41/48/120
f 47/37/121 53/49/122 31/35/123
f 31/35/124 53/49/125 41/48/126
f 47/37/127 33/39/128 53/49/129
f 53/49/130 33/39/131 43/50/132
f 46/42/133 32/44/134 52/51/135
f 52/51/136 32/44/137 44/52/138
f 46/42/139 52/51/140 33/39/141
f 33/39/142 52/51/143 43/50/144
f 38/53/145 15/54/146 48/34/147
f 48/34/148 15/54/149 34/36/150
f 48/34/151 35/32/152 38/53/153
f 38/53/154 35/32/155 16/55/156
f 18/56/157 16/57/158 37/43/159
f 37/43/160 16/57/161 35/45/162
f 36/40/163 17/58/164 49/41/165
f 49/41/166 17/58/167 39/59/168
f 49/41/169 39/59/170 37/43/171
f 37/43/172 39/59/173 18/56/174
f 17/58/175 36/40/176 40/60/177
f 40/60/178 36/40/179 50/38/180
f 50/38/181 34/36/182 40/60/183
f 40/60/184 34/36/185 15/54/186
f 44/52/187 25/61/188 52/51/189
f 52/51/190 25/61/191 55/62/192
f 52/51/193 55/62/194 43/50/195
f 43/50/196 55/62/197 26/63/198
f 25/61/199 44/52/200 23/64/201
f 23/64/202 44/52/203 42/65/204
f 54/66/205 23/67/206 51/47/207
f 51/47/208 23/67/209 42/68/210
f 24/69/211 54/66/212 41/48/213
f 41/48/214 54/66/215 51/47/216
f 55/62/217 25/61/218 28/70/219
f 28/70/220 25/61/221 22/71/222
f 26/63/223 55/62/224 21/72/225
f 21/72/226 55/62/227 28/70/228
f 56/73/229 24/69/230 53/49/231
f 53/49/232 24/69/233 41/48/234
f 43/50/235 26/63/236 53/49/237
f 53/49/238 26/63/239 56/73/240
f 45/33/241 51/47/242 30/31/243
f 30/31/244 51/47/245 42/68/246
f 42/65/247 44/52/248 30/46/249
f 30/46/250 44/52/251 32/44/252
f 27/74/253 54/66/254 19/75/255
f 19/75/256 54/66/257 24/69/258
f 20/76/259 23/67/260 27/74/261
f 27/74/262 23/67/263 54/66/264
f 20/77/265 22/71/266 23/64/267
f 23/64/268 22/71/269 25/61/270
f 21/72/271 29/78/272 26/63/273
f 26/63/274 29/78/275 56/73/276
f 19/75/277 24/69/278 29/78/279
f 29/78/280 24/69/281 56/73/282
f 66/79/283 68/80/284 62/81/285
f 62/81/286 68/80/287 57/82/288
f 63/83/289 59/84/290 66/79/291
f 66/79/292 59/84/293 68/80/294
f 67/85/295 69/86/296 63/83/297
f 63/83/298 69/86/299 59/84/300
f 65/87/301 61/88/302 62/89/303
f 62/89/304 61/88/305 66/90/306
f 66/90/307 61/88/308 64/91/309
f 67/92/310 63/93/311 64/91/312
f 66/90/313 64/91/314 63/93/315
f 65/94/316 70/95/317 61/96/318
f 61/96/319 70/95/320 58/97/321
f 58/98/322 60/99/323 61/100/324
f 61/100/325 60/99/326 64/101/327
f 58/102/328 70/103/329 60/104/330
f 60/104/331 70/103/332 69/105/333
f 70/103/334 57/106/335 69/105/336
f 57/106/337 68/107/338 69/105/339
f 68/107/340 59/108/341 69/105/342
f 60/99/343 69/86/344 64/101/345
f 64/101/346 69/86/347 67/85/348
f 57/82/349 70/95/350 62/81/351
f 62/81/352 70/95/353 65/94/354
f 71/109/355 72/110/356 73/111/357
f 73/111/358 72/110/359 74/112/360
f 73/113/361 74/114/362 75/115/363
f 75/115/364 74/114/365 76/116/366
f 75/117/367 76/118/368 77/119/369
f 77/119/370 76/118/371 78/120/372
f 76/121/373 74/122/374 78/123/375
f 78/123/376 74/122/377 72/124/378
f 77/125/379 71/126/380 75/127/381
f 75/127/382 71/126/383 73/128/384
f 78/129/385 72/130/386 77/131/387
f 77/131/388 72/130/389 71/132/390
f 80/133/391 79/134/392 84/135/393
f 84/135/394 79/134/395 83/136/396
f 79/137/397 81/138/398 83/139/399
f 83/139/400 81/138/401 85/140/402
f 86/141/403 82/142/404 84/143/405
f 84/143/406 82/142/407 80/144/408
f 84/145/409 83/146/410 86/147/411
f 86/147/412 83/146/413 85/148/414
f 82/149/415 86/150/416 81/151/417
f 81/151/418 86/150/419 85/152/420
f 79/153/421 80/154/422 81/155/423
f 81/155/424 80/154/425 82/156/426
f 100/157/427 97/158/428 92/159/429
f 97/158/430 93/160/431 92/159/432
f 93/160/433 90/161/434 92/159/435
f 102/162/436 100/157/437 96/163/438
f 96/163/439 100/157/440 92/159/441
f 104/164/442 102/165/443 99/166/444
f 99/166/445 102/165/446 96/167/447
f 105/168/448 104/164/449 95/169/450
f 95/169/451 104/164/452 99/166/453
f 103/170/454 105/168/455 91/171/456
f 91/171/457 105/168/458 95/169/459
f 101/172/460 103/170/461 89/173/462
f 89/173/463 103/170/464 91/171/465
f 98/174/466 101/172/467 88/175/468
f 88/175/469 101/172/470 89/173/471
f 98/174/472 88/175/473 94/176/474
f 94/176/475 88/175/476 87/177/477
f 109/178/478 112/179/479 111/180/480
f 111/180/481 112/179/482 118/181/483
f 115/182/484 111/180/485 120/183/486
f 120/183/487 111/180/488 118/181/489
f 117/184/490 115/185/491 122/186/492
f 122/186/493 115/185/494 120/187/495
f 114/188/496 117/184/497 123/189/498
f 123/189/499 117/184/500 122/186/501
f 110/190/502 114/188/503 121/191/504
f 121/191/505 114/188/506 123/189/507
f 108/192/508 110/190/509 119/193/510
f 119/193/511 110/190/512 121/191/513
f 107/194/514 108/192/515 116/195/516
f 116/195/517 108/192/518 119/193/519
f 113/196/520 106/197/521 116/195/522
f 116/195/523 106/197/524 107/194/525
f 125/198/526 124/199/527 129/200/528
f 129/200/529 124/199/530 128/201/531
f 124/202/532 126/203/533 128/204/534
f 128/204/535 126/203/536 130/205/537
f 131/206/538 127/207/539 129/208/540
f 129/208/541 127/207/542 125/209/543
f 129/210/544 128/211/545 131/212/546
f 131/212/547 128/211/548 130/213/549
f 127/214/550 131/215/551 126/216/552
f 126/216/553 131/215/554 130/217/555
f 124/218/556 125/219/557 126/220/558
f 126/220/559 125/219/560 127/221/561
f 135/222/562 138/223/563 137/224/564
f 137/224/565 138/223/566 144/225/567
f 141/226/568 137/224/569 146/227/570
f 146/227/571 137/224/572 144/225/573
f 143/228/574 141/229/575 148/230/576
f 148/230/577 141/229/578 146/231/579
f 140/232/580 143/228/581 149/233/582
f 149/233/583 143/228/584 148/230/585
f 136/234/586 140/232/587 147/235/588
f 147/235/589 140/232/590 149/233/591
f 134/236/592 136/234/593 145/237/594
f 145/237/595 136/234/596 147/235/597
f 133/238/598 134/236/599 142/239/600
f 142/239/601 134/236/602 145/237/603
f 139/240/604 132/241/605 142/239/606
f 142/239/607 132/241/608 133/238/609
f 163/242/610 160/243/611 155/244/612
f 160/243/613 156/245/614 155/244/615
f 156/245/616 153/246/617 155/244/618
f 165/247/619 163/242/620 159/248/621
f 159/248/622 163/242/623 155/244/624
f 167/249/625 165/250/626 162/251/627
f 162/251/628 165/250/629 159/252/630
f 168/253/631 167/249/632 158/254/633
f 158/254/634 167/249/635 162/251/636
f 166/255/637 168/253/638 154/256/639
f 154/256/640 168/253/641 158/254/642
f 164/257/643 166/255/644 152/258/645
f 152/258/646 166/255/647 154/256/648
f 161/259/649 164/257/650 151/260/651
f 151/260/652 164/257/653 152/258/654
f 161/259/655 151/260/656 157/261/657
f 157/261/658 151/260/659 150/262/660
f 169/263/661 170/264/662 171/265/663
f 171/265/664 170/264/665 172/266/666
