# This file uses feet as units for non-parametric coordinates.

g default
v 0.913589 23.499870 0.081779
v 0.913589 29.516968 0.081779
v 0.913589 29.516968 -0.081787
v 0.913589 23.499870 -0.081787
v 0.202213 29.516968 0.081779
v 0.202213 29.516968 -0.081787
v 0.202213 23.499870 0.081779
v 0.202213 23.499870 -0.081787
v -0.202213 28.313553 0.081787
v -0.154489 28.313553 0.154488
v 0.000000 28.313553 0.218483
v -0.202213 28.313553 -0.081779
v 0.154489 28.313553 0.154488
v -0.154489 28.313553 -0.154488
v -0.202213 27.327950 -0.081787
v -0.202213 27.110130 0.081779
v 0.218481 28.313553 0.000000
v 0.000000 28.313553 -0.218475
v -0.202213 27.110130 -0.081787
v -0.154489 27.110130 0.154488
v 0.154489 28.313553 -0.154488
v -0.154489 27.110130 -0.154495
v 0.000000 27.110130 0.218475
v 0.000000 27.110130 -0.218483
v 0.154489 27.110130 0.154488
v 0.154489 27.110130 -0.154495
v 0.218481 27.110130 0.000000
v -0.202213 24.703293 0.081779
v -0.154489 24.703293 0.154488
v 0.000000 24.703293 0.218475
v -0.202213 24.703293 -0.081787
v 0.154489 24.703293 0.154488
v -0.154489 24.703293 -0.154495
v -0.202213 25.906708 -0.081779
v -0.202213 25.906708 0.081779
v 0.218481 24.703293 -0.000008
v 0.000000 24.703293 -0.218483
v -0.154489 25.906708 0.154488
v 0.154489 24.703293 -0.154915
v -0.154489 25.906708 -0.154488
v 0.000000 25.906708 0.218483
v 0.000000 25.906708 -0.218483
v 0.154489 25.906708 0.154488
v 0.154489 25.906708 -0.154488
v 0.218481 25.906708 0.000000
v 9.609871 16.550011 -0.833984
v 9.609871 16.969238 -0.833984
v 10.029112 16.550011 -0.833984
v 10.029112 16.969238 -0.833984
v 9.609871 27.574371 -0.833984
v 9.609871 27.155128 -0.833984
v 10.029112 27.574371 -0.833984
v 10.029112 27.155128 -0.833984
v 9.609873 27.155136 0.959435
v 9.609873 27.574371 1.169056
v 10.029112 27.155136 0.959435
v 10.029112 27.574371 1.169056
v 9.539997 27.364754 -0.833984
v 10.098986 27.364754 -0.833984
v 9.819490 27.644241 -0.833984
v 9.609873 17.371826 1.307209
v 9.609873 17.162209 1.726448
v 10.029112 17.371826 1.307209
v 10.029112 17.162209 1.726448
v 9.609873 16.550011 1.169056
v 9.609873 16.969238 0.959435
v 10.029112 16.550011 1.169056
v 10.029112 16.969238 0.959435
v 9.539997 16.759628 -0.833984
v 10.098986 16.759628 -0.833984
v 9.819490 16.480133 -0.833984
v 9.609873 26.962166 1.726448
v 9.609873 26.752548 1.307209
v 10.029112 26.962173 1.726448
v 10.029112 26.752548 1.307209
v 9.539997 17.267014 1.516827
v 10.098986 17.267014 1.516827
v 9.819490 17.127274 1.796318
v 9.539997 16.759628 1.064247
v 10.098986 16.759628 1.064247
v 9.819490 16.480133 1.203995
v 9.539997 26.857361 1.516827
v 10.098986 26.857361 1.516827
v 9.819490 26.997101 1.796318
v 9.539997 27.364754 1.064247
v 10.098986 27.364754 1.064247
v 9.819490 27.644241 1.203995
v 0.010928 0.000000 -0.073238
v 0.010928 0.000000 -1.458515
v 7.439662 44.305664 -0.073238
v 5.420115 43.598999 -0.073238
v 3.608447 42.460648 -0.073238
v 2.095507 40.947693 -0.073238
v 0.957163 39.136032 -0.073238
v 0.250491 37.116486 -0.073238
v 0.010928 34.990326 -0.073238
v 9.565836 44.545227 -0.073238
v 0.010928 34.990326 -1.458515
v 0.250491 37.116486 -1.458515
v 0.957163 39.136032 -1.458515
v 2.095507 40.947693 -1.458515
v 3.608447 42.460648 -1.458515
v 5.420115 43.598999 -1.458515
v 7.439662 44.305664 -1.458515
v 9.565836 44.545227 -1.458515
v 12.218990 44.545227 -0.073238
v 12.218990 44.545227 -1.458515
v 12.218990 0.000000 -1.458515
v 12.218990 0.000000 -0.073238
v -0.202213 8.583069 0.080818
v -0.154489 8.583069 0.153519
v 0.000000 8.583069 0.217514
v -0.202213 8.583069 -0.082748
v 0.154489 8.583069 0.153519
v -0.154489 8.583069 -0.155457
v -0.202213 7.597466 -0.082756
v -0.202213 7.379646 0.080811
v 0.218481 8.583069 -0.000969
v 0.000000 8.583069 -0.219444
v -0.202213 7.379646 -0.082756
v -0.154489 7.379646 0.153519
v 0.154489 8.583069 -0.155457
v -0.154489 7.379646 -0.155464
v 0.000000 7.379646 0.217506
v 0.000000 7.379646 -0.219452
v 0.154489 7.379646 0.153519
v 0.154489 7.379646 -0.155464
v 0.218481 7.379646 -0.000969
v 0.913589 3.769386 0.080811
v 0.913589 9.786484 0.080811
v 0.913589 9.786484 -0.082756
v 0.913589 3.769386 -0.082756
v 0.202213 9.786484 0.080811
v 0.202213 9.786484 -0.082756
v 0.202213 3.769386 0.080811
v 0.202213 3.769386 -0.082756
v -0.202213 4.972809 0.080811
v -0.154489 4.972809 0.153519
v 0.000000 4.972809 0.217506
v -0.202213 4.972809 -0.082756
v 0.154489 4.972809 0.153519
v -0.154489 4.972809 -0.155464
v -0.202213 6.176224 -0.082748
v -0.202213 6.176224 0.080811
v 0.218481 4.972809 -0.000977
v 0.000000 4.972809 -0.219452
v -0.154489 6.176224 0.153519
v 0.154489 4.972809 -0.155884
v -0.154489 6.176224 -0.155457
v 0.000000 6.176224 0.217514
v 0.000000 6.176224 -0.219452
v 0.154489 6.176224 0.153519
v 0.154489 6.176224 -0.155457
v 0.218481 6.176224 -0.000969
vt 0.595465 0.467503
vt 0.595465 0.456312
vt 0.598041 0.467503
vt 0.598041 0.456312
vt 0.534550 0.387479
vt 0.546286 0.387479
vt 0.534550 0.486754
vt 0.546286 0.486754
vt 0.570497 0.486630
vt 0.558760 0.486630
vt 0.570497 0.387360
vt 0.558760 0.387360
vt 0.592341 0.456240
vt 0.594987 0.456240
vt 0.592341 0.467752
vt 0.594987 0.467752
vt 0.570865 0.486496
vt 0.570865 0.387402
vt 0.573559 0.486496
vt 0.573559 0.387402
vt 0.579807 0.387471
vt 0.579807 0.486504
vt 0.577113 0.387471
vt 0.577113 0.486504
vt 0.586100 0.456224
vt 0.587524 0.456224
vt 0.586100 0.475931
vt 0.587524 0.459792
vt 0.587524 0.475931
vt 0.583360 0.456224
vt 0.583360 0.475931
vt 0.611429 0.436802
vt 0.614184 0.436802
vt 0.611429 0.456623
vt 0.614184 0.456623
vt 0.608674 0.436802
vt 0.608674 0.456623
vt 0.605922 0.436802
vt 0.605922 0.456623
vt 0.603164 0.436802
vt 0.603164 0.456623
vt 0.600412 0.436802
vt 0.600412 0.456623
vt 0.598980 0.436802
vt 0.598980 0.456623
vt 0.618763 0.436300
vt 0.618763 0.456009
vt 0.617339 0.436300
vt 0.617339 0.456009
vt 0.614599 0.436300
vt 0.614602 0.456009
vt 0.595826 0.435865
vt 0.598580 0.435865
vt 0.595807 0.455686
vt 0.598562 0.455686
vt 0.593065 0.435865
vt 0.593054 0.455686
vt 0.590307 0.435865
vt 0.590302 0.455686
vt 0.587550 0.435865
vt 0.587550 0.455686
vt 0.584794 0.435865
vt 0.584799 0.455686
vt 0.583366 0.455686
vt 0.583360 0.435865
vt 0.598822 0.233213
vt 0.599483 0.226073
vt 0.601002 0.232354
vt 0.601698 0.226572
vt 0.603103 0.231512
vt 0.603631 0.227044
vt 0.605148 0.231239
vt 0.605392 0.227260
vt 0.607190 0.231514
vt 0.607166 0.227265
vt 0.609141 0.227043
vt 0.609286 0.232357
vt 0.611391 0.226865
vt 0.611450 0.233208
vt 0.615730 0.227241
vt 0.615610 0.233183
vt 0.601003 0.323057
vt 0.603104 0.323900
vt 0.605148 0.324171
vt 0.607191 0.323896
vt 0.609286 0.323053
vt 0.611450 0.322201
vt 0.602186 0.209212
vt 0.604326 0.209286
vt 0.600042 0.209136
vt 0.612905 0.209745
vt 0.617041 0.210024
vt 0.608588 0.209491
vt 0.610740 0.209621
vt 0.606455 0.209371
vt 0.611392 0.328546
vt 0.609142 0.328367
vt 0.607166 0.328144
vt 0.615731 0.328169
vt 0.615611 0.322226
vt 0.601698 0.328838
vt 0.599484 0.329337
vt 0.598822 0.322198
vt 0.603631 0.328366
vt 0.610740 0.345789
vt 0.612905 0.345665
vt 0.608588 0.345919
vt 0.605392 0.328150
vt 0.602186 0.346198
vt 0.604326 0.346124
vt 0.600042 0.346273
vt 0.617041 0.345386
vt 0.606455 0.346039
vt 0.600736 0.719731
vt 0.595791 0.719731
vt 0.600736 0.710259
vt 0.595791 0.710259
vt 0.600736 0.898122
vt 0.595791 0.898122
vt 0.600736 0.773202
vt 0.595791 0.773202
vt 0.595791 0.765563
vt 0.600736 0.765563
vt 0.595791 0.757925
vt 0.600736 0.757925
vt 0.595791 0.750286
vt 0.600736 0.750286
vt 0.595791 0.742647
vt 0.600736 0.742647
vt 0.595791 0.735009
vt 0.600736 0.735009
vt 0.595791 0.727370
vt 0.600736 0.727370
vt 0.657547 0.951497
vt 0.657547 0.907913
vt 0.662493 0.951497
vt 0.662493 0.907913
vt 0.601194 0.710503
vt 0.644778 0.710503
vt 0.601194 0.835423
vt 0.644778 0.869535
vt 0.635306 0.869535
vt 0.627715 0.868680
vt 0.620505 0.866157
vt 0.614037 0.862093
vt 0.608636 0.856692
vt 0.604572 0.850224
vt 0.602049 0.843014
vt 0.645095 0.710502
vt 0.650040 0.710502
vt 0.645095 0.869534
vt 0.650040 0.869534
vt 0.606385 0.724763
vt 0.606384 0.825978
vt 0.641699 0.724763
vt 0.641699 0.853617
vt 0.634023 0.853617
vt 0.627873 0.852924
vt 0.622032 0.850880
vt 0.616791 0.847587
vt 0.612415 0.843211
vt 0.609122 0.837970
vt 0.607077 0.832129
vt 0.586100 0.456224
vt 0.587524 0.456224
vt 0.586100 0.475931
vt 0.587524 0.459792
vt 0.587524 0.475931
vt 0.583360 0.456224
vt 0.583360 0.475931
vt 0.611429 0.436802
vt 0.614184 0.436802
vt 0.611429 0.456623
vt 0.614184 0.456623
vt 0.608674 0.436802
vt 0.608674 0.456623
vt 0.605922 0.436802
vt 0.605922 0.456623
vt 0.603164 0.436802
vt 0.603164 0.456623
vt 0.600412 0.436802
vt 0.600412 0.456623
vt 0.598980 0.436802
vt 0.598980 0.456623
vt 0.595465 0.467503
vt 0.595465 0.456312
vt 0.598041 0.467503
vt 0.598041 0.456312
vt 0.534550 0.387479
vt 0.546286 0.387479
vt 0.534550 0.486754
vt 0.546286 0.486754
vt 0.570497 0.486630
vt 0.558760 0.486630
vt 0.570497 0.387360
vt 0.558760 0.387360
vt 0.592341 0.456240
vt 0.594987 0.456240
vt 0.592341 0.467752
vt 0.594987 0.467752
vt 0.570865 0.486496
vt 0.570865 0.387402
vt 0.573559 0.486496
vt 0.573559 0.387402
vt 0.579807 0.387471
vt 0.579807 0.486504
vt 0.577113 0.387471
vt 0.577113 0.486504
vt 0.618763 0.436300
vt 0.618763 0.456009
vt 0.617339 0.436300
vt 0.617339 0.456009
vt 0.614599 0.436300
vt 0.614602 0.456009
vt 0.595826 0.435865
vt 0.598580 0.435865
vt 0.595807 0.455686
vt 0.598562 0.455686
vt 0.593065 0.435865
vt 0.593054 0.455686
vt 0.590307 0.435865
vt 0.590302 0.455686
vt 0.587550 0.435865
vt 0.587550 0.455686
vt 0.584794 0.435865
vt 0.584799 0.455686
vt 0.583366 0.455686
vt 0.583360 0.435865
vn 0.000000 1.000000 0.000000
vn 0.000000 1.000000 0.000000
vn 0.000000 1.000000 0.000000
vn 0.000000 1.000000 0.000000
vn 0.000000 1.000000 0.000000
vn 0.000000 1.000000 0.000000
vn 0.000000 0.000000 1.000000
vn 0.000000 0.000000 1.000000
vn 0.000000 0.000000 1.000000
vn 0.000000 0.000000 1.000000
vn 0.000000 0.000000 1.000000
vn 0.000000 0.000000 1.000000
vn 0.000000 0.000000 -1.000000
vn 0.000000 0.000000 -1.000000
vn 0.000000 0.000000 -1.000000
vn 0.000000 0.000000 -1.000000
vn 0.000000 0.000000 -1.000000
vn 0.000000 0.000000 -1.000000
vn 0.000000 -1.000000 0.000000
vn 0.000000 -1.000000 0.000000
vn 0.000000 -1.000000 0.000000
vn 0.000000 -1.000000 0.000000
vn 0.000000 -1.000000 0.000000
vn 0.000000 -1.000000 0.000000
vn 1.000000 0.000000 0.000000
vn 1.000000 0.000000 0.000000
vn 1.000000 0.000000 0.000000
vn 1.000000 0.000000 0.000000
vn 1.000000 0.000000 0.000000
vn 1.000000 0.000000 0.000000
vn -1.000000 0.000000 0.000000
vn -1.000000 0.000000 0.000000
vn -1.000000 0.000000 0.000000
vn -1.000000 0.000000 0.000000
vn -1.000000 0.000000 0.000000
vn -1.000000 0.000000 0.000000
vn -0.560049 0.000005 -0.828459
vn -0.836006 0.000004 -0.548720
vn -0.538210 0.000005 -0.842811
vn -0.836006 0.000004 -0.548720
vn -0.835895 0.000000 -0.548889
vn -0.538210 0.000005 -0.842811
vn -0.835895 0.000000 -0.548889
vn -0.836008 0.000004 -0.548717
vn -0.538210 0.000005 -0.842811
vn -0.382665 0.000006 -0.923887
vn -0.560049 0.000005 -0.828459
vn -0.382659 0.000006 -0.923890
vn -0.382659 0.000006 -0.923890
vn -0.560049 0.000005 -0.828459
vn -0.538210 0.000005 -0.842811
vn 0.707117 0.000003 -0.707097
vn 0.382665 0.000006 -0.923887
vn 0.707094 0.000004 -0.707120
vn 0.707094 0.000004 -0.707120
vn 0.382665 0.000006 -0.923887
vn 0.382659 0.000006 -0.923890
vn 1.000000 0.000000 0.000000
vn 0.707117 0.000003 -0.707097
vn 1.000000 0.000001 0.000000
vn 1.000000 0.000001 0.000000
vn 0.707117 0.000003 -0.707097
vn 0.707094 0.000004 -0.707120
vn 0.707100 -0.000003 0.707114
vn 1.000000 0.000000 0.000000
vn 0.707103 0.000000 0.707111
vn 0.707103 0.000000 0.707111
vn 1.000000 0.000000 0.000000
vn 1.000000 0.000001 0.000000
vn -0.000002 -0.000003 1.000000
vn 0.707100 -0.000003 0.707114
vn -0.000002 -0.000003 1.000000
vn -0.000002 -0.000003 1.000000
vn 0.707100 -0.000003 0.707114
vn 0.707103 0.000000 0.707111
vn -0.560049 0.000000 0.828460
vn -0.000002 -0.000003 1.000000
vn -0.560026 -0.000005 0.828475
vn -0.560026 -0.000005 0.828475
vn -0.000002 -0.000003 1.000000
vn -0.000002 -0.000003 1.000000
vn -0.560049 0.000000 0.828460
vn -0.560026 -0.000005 0.828475
vn -0.836001 -0.000000 0.548728
vn -0.836001 -0.000000 0.548728
vn -0.560026 -0.000005 0.828475
vn -0.835959 -0.000004 0.548792
vn -0.836007 0.000004 -0.548719
vn -0.835990 0.000003 -0.548744
vn -0.560045 0.000002 -0.828462
vn -0.560045 0.000002 -0.828462
vn -0.835990 0.000003 -0.548744
vn -0.560052 0.000005 -0.828457
vn -0.382659 0.000000 -0.923890
vn -0.560045 0.000002 -0.828462
vn -0.382694 0.000005 -0.923875
vn -0.382694 0.000005 -0.923875
vn -0.560045 0.000002 -0.828462
vn -0.560052 0.000005 -0.828457
vn 0.706991 0.000185 -0.707223
vn 0.380711 0.000299 -0.924694
vn 0.707092 0.000089 -0.707122
vn 0.707092 0.000089 -0.707122
vn 0.380711 0.000299 -0.924694
vn 0.382698 0.000000 -0.923874
vn 1.000000 0.000001 -0.000001
vn 0.706991 0.000185 -0.707223
vn 1.000000 0.000066 0.000002
vn 1.000000 0.000066 0.000002
vn 0.706991 0.000185 -0.707223
vn 0.707092 0.000089 -0.707122
vn 0.707106 -0.000003 0.707108
vn 1.000000 0.000001 -0.000001
vn 0.707110 -0.000001 0.707103
vn 0.707110 -0.000001 0.707103
vn 1.000000 0.000001 -0.000001
vn 1.000000 0.000066 0.000002
vn -0.000002 -0.000003 1.000000
vn 0.707106 -0.000003 0.707108
vn -0.000002 -0.000003 1.000000
vn -0.000002 -0.000003 1.000000
vn 0.707106 -0.000003 0.707108
vn 0.707110 -0.000001 0.707103
vn -0.560050 0.000000 0.828459
vn -0.000002 -0.000003 1.000000
vn -0.560044 -0.000004 0.828463
vn -0.560044 -0.000004 0.828463
vn -0.000002 -0.000003 1.000000
vn -0.000002 -0.000003 1.000000
vn -0.835985 0.000000 0.548752
vn -0.836006 0.000000 0.548720
vn -0.560044 -0.000004 0.828463
vn -0.560044 -0.000004 0.828463
vn -0.836006 0.000000 0.548720
vn -0.560050 0.000000 0.828459
vn -0.950094 0.009791 -0.311811
vn -0.955666 0.288517 -0.058826
vn -0.995841 -0.003383 0.091047
vn -0.995841 -0.003383 0.091047
vn -0.955666 0.288517 -0.058826
vn -0.995608 -0.091316 0.020647
vn -0.995841 -0.003383 0.091047
vn -0.995608 -0.091316 0.020647
vn -0.634265 -0.040041 0.772078
vn -0.634265 -0.040041 0.772078
vn -0.995608 -0.091316 0.020647
vn -0.662464 -0.727816 0.177272
vn -0.634265 -0.040041 0.772078
vn -0.662464 -0.727816 0.177272
vn -0.000000 -0.055810 0.998441
vn -0.000000 -0.055810 0.998441
vn -0.662464 -0.727816 0.177272
vn 0.000003 -0.970084 0.242771
vn 0.634260 -0.040041 0.772082
vn -0.000000 -0.055810 0.998441
vn 0.662465 -0.727816 0.177269
vn 0.662465 -0.727816 0.177269
vn -0.000000 -0.055810 0.998441
vn 0.000003 -0.970084 0.242771
vn 0.662465 -0.727816 0.177269
vn 0.995608 -0.091312 0.020646
vn 0.634260 -0.040041 0.772082
vn 0.634260 -0.040041 0.772082
vn 0.995608 -0.091312 0.020646
vn 0.995841 -0.003383 0.091043
vn 0.995608 -0.091312 0.020646
vn 0.520415 0.838752 -0.160195
vn 0.995841 -0.003383 0.091043
vn 0.995841 -0.003383 0.091043
vn 0.520415 0.838752 -0.160195
vn 0.477591 0.030563 -0.878051
vn 0.000000 0.982780 -0.184779
vn 0.000000 0.035525 -0.999369
vn 0.520415 0.838752 -0.160195
vn 0.520415 0.838752 -0.160195
vn 0.000000 0.035525 -0.999369
vn 0.477591 0.030563 -0.878051
vn -0.995841 -0.003383 0.091047
vn -0.634265 -0.040041 0.772078
vn -0.995268 0.003362 0.097107
vn -0.995268 0.003362 0.097107
vn -0.634265 -0.040041 0.772078
vn -0.639001 0.039915 0.768170
vn -0.000000 -0.055810 0.998441
vn -0.000001 0.056175 0.998421
vn -0.634265 -0.040041 0.772078
vn -0.634265 -0.040041 0.772078
vn -0.000001 0.056175 0.998421
vn -0.639001 0.039915 0.768170
vn -0.000000 -0.055810 0.998441
vn 0.634260 -0.040041 0.772082
vn -0.000001 0.056175 0.998421
vn -0.000001 0.056175 0.998421
vn 0.634260 -0.040041 0.772082
vn 0.638994 0.039916 0.768175
vn 0.995841 -0.003383 0.091043
vn 0.477591 0.030563 -0.878051
vn 0.995268 0.003361 0.097112
vn 0.995268 0.003361 0.097112
vn 0.477591 0.030563 -0.878051
vn 0.471332 -0.030795 -0.881418
vn 0.995841 -0.003383 0.091043
vn 0.995268 0.003361 0.097112
vn 0.634260 -0.040041 0.772082
vn 0.634260 -0.040041 0.772082
vn 0.995268 0.003361 0.097112
vn 0.638994 0.039916 0.768175
vn -0.999962 -0.008706 0.000001
vn -0.698276 -0.715829 0.000000
vn -0.995608 -0.091316 0.020647
vn -0.995608 -0.091316 0.020647
vn -0.698276 -0.715829 0.000000
vn -0.662464 -0.727816 0.177272
vn -0.995608 -0.091316 0.020647
vn -0.955666 0.288517 -0.058826
vn -0.999962 -0.008706 0.000001
vn -0.999962 -0.008706 0.000001
vn -0.955666 0.288517 -0.058826
vn -0.948679 0.316242 0.000002
vn 0.393904 0.919152 0.000000
vn 0.000000 1.000000 0.000000
vn 0.520415 0.838752 -0.160195
vn 0.520415 0.838752 -0.160195
vn 0.000000 1.000000 0.000000
vn 0.000000 0.982780 -0.184779
vn 0.662465 -0.727816 0.177269
vn 0.698273 -0.715831 0.000000
vn 0.995608 -0.091312 0.020646
vn 0.995608 -0.091312 0.020646
vn 0.698273 -0.715831 0.000000
vn 0.999962 -0.008707 0.000000
vn 0.995608 -0.091312 0.020646
vn 0.999962 -0.008707 0.000000
vn 0.520415 0.838752 -0.160195
vn 0.520415 0.838752 -0.160195
vn 0.999962 -0.008707 0.000000
vn 0.393904 0.919152 0.000000
vn 0.698273 -0.715831 0.000000
vn 0.662465 -0.727816 0.177269
vn 0.000000 -1.000000 0.000000
vn 0.000000 -1.000000 0.000000
vn 0.662465 -0.727816 0.177269
vn 0.000003 -0.970084 0.242771
vn 0.000003 -0.970084 0.242771
vn -0.662464 -0.727816 0.177272
vn 0.000000 -1.000000 0.000000
vn 0.000000 -1.000000 0.000000
vn -0.662464 -0.727816 0.177272
vn -0.698276 -0.715829 0.000000
vn 0.471332 -0.030795 -0.881418
vn 0.520430 -0.838744 -0.160192
vn 0.995268 0.003361 0.097112
vn 0.995268 0.003361 0.097112
vn 0.520430 -0.838744 -0.160192
vn 0.995608 0.091312 0.020646
vn 0.995268 0.003361 0.097112
vn 0.995608 0.091312 0.020646
vn 0.638994 0.039916 0.768175
vn 0.638994 0.039916 0.768175
vn 0.995608 0.091312 0.020646
vn 0.662452 0.727827 0.177271
vn 0.520430 -0.838744 -0.160192
vn 0.471332 -0.030795 -0.881418
vn 0.000000 -0.982780 -0.184782
vn 0.000000 -0.982780 -0.184782
vn 0.471332 -0.030795 -0.881418
vn 0.000000 -0.035525 -0.999369
vn -0.995608 0.091314 0.020646
vn -0.955669 -0.288507 -0.058825
vn -0.995268 0.003362 0.097107
vn -0.995268 0.003362 0.097107
vn -0.955669 -0.288507 -0.058825
vn -0.950118 -0.009996 -0.311731
vn -0.662456 0.727824 0.177271
vn -0.995608 0.091314 0.020646
vn -0.639001 0.039915 0.768170
vn -0.639001 0.039915 0.768170
vn -0.995608 0.091314 0.020646
vn -0.995268 0.003362 0.097107
vn 0.995608 0.091312 0.020646
vn 0.520430 -0.838744 -0.160192
vn 0.999962 0.008706 0.000000
vn 0.999962 0.008706 0.000000
vn 0.520430 -0.838744 -0.160192
vn 0.393926 -0.919142 0.000004
vn 0.662452 0.727827 0.177271
vn 0.995608 0.091312 0.020646
vn 0.698263 0.715841 0.000000
vn 0.698263 0.715841 0.000000
vn 0.995608 0.091312 0.020646
vn 0.999962 0.008706 0.000000
vn 0.000000 0.970082 0.242777
vn -0.662456 0.727824 0.177271
vn -0.000001 0.056175 0.998421
vn -0.000001 0.056175 0.998421
vn -0.662456 0.727824 0.177271
vn -0.639001 0.039915 0.768170
vn 0.638994 0.039916 0.768175
vn 0.662452 0.727827 0.177271
vn -0.000001 0.056175 0.998421
vn -0.000001 0.056175 0.998421
vn 0.662452 0.727827 0.177271
vn 0.000000 0.970082 0.242777
vn -0.995841 -0.003383 0.091047
vn -0.995268 0.003362 0.097107
vn -0.950094 0.009791 -0.311811
vn -0.950094 0.009791 -0.311811
vn -0.995268 0.003362 0.097107
vn -0.950118 -0.009996 -0.311731
vn 0.000000 -0.035525 -0.999369
vn 0.471332 -0.030795 -0.881418
vn 0.000000 0.035525 -0.999369
vn 0.000000 0.035525 -0.999369
vn 0.471332 -0.030795 -0.881418
vn 0.477591 0.030563 -0.878051
vn -0.999962 0.008706 0.000002
vn -0.995608 0.091314 0.020646
vn -0.698266 0.715839 0.000000
vn -0.698266 0.715839 0.000000
vn -0.995608 0.091314 0.020646
vn -0.662456 0.727824 0.177271
vn -0.948685 -0.316222 0.000005
vn -0.955669 -0.288507 -0.058825
vn -0.999962 0.008706 0.000002
vn -0.999962 0.008706 0.000002
vn -0.955669 -0.288507 -0.058825
vn -0.995608 0.091314 0.020646
vn 0.000000 -1.000000 0.000006
vn 0.393926 -0.919142 0.000004
vn 0.000000 -0.982780 -0.184782
vn 0.000000 -0.982780 -0.184782
vn 0.393926 -0.919142 0.000004
vn 0.520430 -0.838744 -0.160192
vn 0.698263 0.715841 0.000000
vn 0.000000 1.000000 0.000000
vn 0.662452 0.727827 0.177271
vn 0.662452 0.727827 0.177271
vn 0.000000 1.000000 0.000000
vn 0.000000 0.970082 0.242777
vn -0.698266 0.715839 0.000000
vn -0.662456 0.727824 0.177271
vn 0.000000 1.000000 0.000000
vn 0.000000 1.000000 0.000000
vn -0.662456 0.727824 0.177271
vn 0.000000 0.970082 0.242777
vn -0.050062 0.998746 0.000000
vn -0.050062 0.998746 0.000000
vn 0.000000 1.000000 0.000000
vn 0.000000 1.000000 0.000000
vn -0.050062 0.998746 0.000000
vn 0.000000 1.000000 0.000000
vn -1.000000 0.000000 0.000000
vn -1.000000 0.000000 0.000000
vn -0.999979 0.006454 0.000000
vn -0.999979 0.006454 0.000000
vn -1.000000 0.000000 0.000000
vn -0.999979 0.006454 0.000000
vn -0.999979 0.006454 0.000000
vn -0.974928 0.222522 0.000000
vn -0.999979 0.006454 0.000000
vn -0.999979 0.006454 0.000000
vn -0.974928 0.222522 0.000000
vn -0.974928 0.222522 0.000000
vn -0.974928 0.222522 0.000000
vn -0.900968 0.433885 0.000000
vn -0.974928 0.222522 0.000000
vn -0.974928 0.222522 0.000000
vn -0.900968 0.433885 0.000000
vn -0.900968 0.433885 0.000000
vn -0.900968 0.433885 0.000000
vn -0.781832 0.623489 0.000000
vn -0.900968 0.433885 0.000000
vn -0.900968 0.433885 0.000000
vn -0.781832 0.623489 0.000000
vn -0.781833 0.623488 0.000000
vn -0.781832 0.623489 0.000000
vn -0.623492 0.781829 0.000000
vn -0.781833 0.623488 0.000000
vn -0.781833 0.623488 0.000000
vn -0.623492 0.781829 0.000000
vn -0.623492 0.781830 0.000000
vn -0.623492 0.781829 0.000000
vn -0.433884 0.900969 0.000000
vn -0.623492 0.781830 0.000000
vn -0.623492 0.781830 0.000000
vn -0.433884 0.900969 0.000000
vn -0.433883 0.900969 0.000000
vn -0.433884 0.900969 0.000000
vn -0.222520 0.974928 0.000000
vn -0.433883 0.900969 0.000000
vn -0.433883 0.900969 0.000000
vn -0.222520 0.974928 0.000000
vn -0.222520 0.974928 0.000000
vn -0.222520 0.974928 0.000000
vn -0.050062 0.998746 0.000000
vn -0.222520 0.974928 0.000000
vn -0.222520 0.974928 0.000000
vn -0.050062 0.998746 0.000000
vn -0.050062 0.998746 0.000000
vn 0.000000 -1.000000 0.000000
vn 0.000000 -1.000000 0.000000
vn 0.000000 -1.000000 0.000000
vn 0.000000 -1.000000 0.000000
vn 0.000000 -1.000000 0.000000
vn 0.000000 -1.000000 0.000000
vn 0.000000 0.000000 1.000000
vn 0.000000 0.000000 1.000000
vn 0.000000 0.000000 1.000000
vn 0.000000 0.000000 1.000000
vn 0.000000 0.000000 1.000000
vn 0.000000 0.000000 1.000000
vn 0.000000 0.000000 1.000000
vn 0.000000 0.000000 1.000000
vn 0.000000 0.000000 1.000000
vn 0.000000 0.000000 1.000000
vn 0.000000 0.000000 1.000000
vn 0.000000 0.000000 1.000000
vn 0.000000 0.000000 1.000000
vn 0.000000 0.000000 1.000000
vn 0.000000 0.000000 1.000000
vn 0.000000 0.000000 1.000000
vn 0.000000 0.000000 1.000000
vn 0.000000 0.000000 1.000000
vn 0.000000 0.000000 1.000000
vn 0.000000 0.000000 1.000000
vn 0.000000 0.000000 1.000000
vn 0.000000 0.000000 1.000000
vn 0.000000 0.000000 1.000000
vn 0.000000 0.000000 1.000000
vn 0.000000 0.000000 1.000000
vn 0.000000 0.000000 1.000000
vn 0.000000 0.000000 1.000000
vn 1.000000 0.000000 0.000000
vn 1.000000 0.000000 0.000000
vn 1.000000 0.000000 0.000000
vn 1.000000 0.000000 0.000000
vn 1.000000 0.000000 0.000000
vn 1.000000 0.000000 0.000000
vn 0.000000 0.000000 -1.000000
vn 0.000000 0.000000 -1.000000
vn 0.000000 0.000000 -1.000000
vn 0.000000 0.000000 -1.000000
vn 0.000000 0.000000 -1.000000
vn 0.000000 0.000000 -1.000000
vn 0.000000 0.000000 -1.000000
vn 0.000000 0.000000 -1.000000
vn 0.000002 0.000000 -1.000000
vn 0.000002 0.000000 -1.000000
vn 0.000000 0.000000 -1.000000
vn 0.000002 0.000000 -1.000000
vn 0.000002 0.000000 -1.000000
vn 0.000000 0.000000 -1.000000
vn -0.000001 0.000000 -1.000000
vn -0.000001 0.000000 -1.000000
vn 0.000000 0.000000 -1.000000
vn -0.000000 0.000000 -1.000000
vn -0.000000 0.000000 -1.000000
vn 0.000000 0.000000 -1.000000
vn -0.000002 0.000000 -1.000000
vn -0.000002 0.000000 -1.000000
vn 0.000000 0.000000 -1.000000
vn 0.000001 0.000000 -1.000000
vn 0.000000 0.000000 -1.000000
vn 0.000001 0.000000 -1.000000
vn 0.000000 0.000000 -1.000000
vn -0.560035 0.000005 -0.828469
vn -0.835989 0.000004 -0.548746
vn -0.538228 0.000005 -0.842799
vn -0.835989 0.000004 -0.548746
vn -0.836002 0.000000 -0.548727
vn -0.538228 0.000005 -0.842799
vn -0.836002 0.000000 -0.548727
vn -0.836003 0.000004 -0.548725
vn -0.538228 0.000005 -0.842799
vn -0.382665 0.000006 -0.923887
vn -0.560035 0.000005 -0.828469
vn -0.382689 0.000006 -0.923877
vn -0.382689 0.000006 -0.923877
vn -0.560035 0.000005 -0.828469
vn -0.538228 0.000005 -0.842799
vn 0.707118 0.000003 -0.707096
vn 0.382694 0.000006 -0.923875
vn 0.707096 0.000004 -0.707118
vn 0.707096 0.000004 -0.707118
vn 0.382694 0.000006 -0.923875
vn 0.382659 0.000006 -0.923890
vn 1.000000 0.000000 0.000000
vn 0.707118 0.000003 -0.707096
vn 1.000000 0.000001 -0.000000
vn 1.000000 0.000001 -0.000000
vn 0.707118 0.000003 -0.707096
vn 0.707096 0.000004 -0.707118
vn 0.707109 -0.000003 0.707105
vn 1.000000 0.000000 0.000000
vn 0.707104 0.000000 0.707109
vn 0.707104 0.000000 0.707109
vn 1.000000 0.000000 0.000000
vn 1.000000 0.000001 -0.000000
vn 0.000017 -0.000003 1.000000
vn 0.707109 -0.000003 0.707105
vn -0.000020 -0.000003 1.000000
vn -0.000020 -0.000003 1.000000
vn 0.707109 -0.000003 0.707105
vn 0.707104 0.000000 0.707109
vn -0.560032 0.000000 0.828471
vn 0.000017 -0.000003 1.000000
vn -0.560058 -0.000005 0.828453
vn -0.560058 -0.000005 0.828453
vn 0.000017 -0.000003 1.000000
vn -0.000020 -0.000003 1.000000
vn -0.560032 0.000000 0.828471
vn -0.560058 -0.000005 0.828453
vn -0.835985 -0.000000 0.548752
vn -0.835985 -0.000000 0.548752
vn -0.560058 -0.000005 0.828453
vn -0.835981 -0.000004 0.548758
vn 0.000000 1.000000 0.000000
vn 0.000000 1.000000 0.000000
vn 0.000000 1.000000 0.000000
vn 0.000000 1.000000 0.000000
vn 0.000000 1.000000 0.000000
vn 0.000000 1.000000 0.000000
vn 0.000000 0.000000 1.000000
vn 0.000000 0.000000 1.000000
vn 0.000000 0.000000 1.000000
vn 0.000000 0.000000 1.000000
vn 0.000000 0.000000 1.000000
vn 0.000000 0.000000 1.000000
vn 0.000000 0.000000 -1.000000
vn 0.000000 0.000000 -1.000000
vn 0.000000 0.000000 -1.000000
vn 0.000000 0.000000 -1.000000
vn 0.000000 0.000000 -1.000000
vn 0.000000 0.000000 -1.000000
vn 0.000000 -1.000000 0.000000
vn 0.000000 -1.000000 0.000000
vn 0.000000 -1.000000 0.000000
vn 0.000000 -1.000000 0.000000
vn 0.000000 -1.000000 0.000000
vn 0.000000 -1.000000 0.000000
vn 1.000000 0.000000 0.000000
vn 1.000000 0.000000 0.000000
vn 1.000000 0.000000 0.000000
vn 1.000000 0.000000 0.000000
vn 1.000000 0.000000 0.000000
vn 1.000000 0.000000 0.000000
vn -1.000000 0.000000 0.000000
vn -1.000000 0.000000 0.000000
vn -1.000000 0.000000 0.000000
vn -1.000000 0.000000 0.000000
vn -1.000000 0.000000 0.000000
vn -1.000000 0.000000 0.000000
vn -0.835989 0.000004 -0.548746
vn -0.836006 0.000003 -0.548720
vn -0.560033 0.000002 -0.828471
vn -0.560033 0.000002 -0.828471
vn -0.836006 0.000003 -0.548720
vn -0.560066 0.000005 -0.828448
vn -0.382662 0.000000 -0.923888
vn -0.560033 0.000002 -0.828471
vn -0.382692 0.000005 -0.923876
vn -0.382692 0.000005 -0.923876
vn -0.560033 0.000002 -0.828471
vn -0.560066 0.000005 -0.828448
vn 0.706994 0.000185 -0.707220
vn 0.380714 0.000299 -0.924693
vn 0.707091 0.000089 -0.707123
vn 0.707091 0.000089 -0.707123
vn 0.380714 0.000299 -0.924693
vn 0.382694 0.000000 -0.923875
vn 1.000000 0.000001 -0.000002
vn 0.706994 0.000185 -0.707220
vn 1.000000 0.000066 0.000001
vn 1.000000 0.000066 0.000001
vn 0.706994 0.000185 -0.707220
vn 0.707091 0.000089 -0.707123
vn 0.707108 -0.000003 0.707106
vn 1.000000 0.000001 -0.000002
vn 0.707109 -0.000001 0.707105
vn 0.707109 -0.000001 0.707105
vn 1.000000 0.000001 -0.000002
vn 1.000000 0.000066 0.000001
vn -0.000002 -0.000003 1.000000
vn 0.707108 -0.000003 0.707106
vn -0.000002 -0.000003 1.000000
vn -0.000002 -0.000003 1.000000
vn 0.707108 -0.000003 0.707106
vn 0.707109 -0.000001 0.707105
vn -0.560032 0.000000 0.828471
vn -0.000002 -0.000003 1.000000
vn -0.560063 -0.000004 0.828450
vn -0.560063 -0.000004 0.828450
vn -0.000002 -0.000003 1.000000
vn -0.000002 -0.000003 1.000000
vn -0.836007 0.000000 0.548719
vn -0.835986 0.000000 0.548751
vn -0.560063 -0.000004 0.828450
vn -0.560063 -0.000004 0.828450
vn -0.835986 0.000000 0.548751
vn -0.560032 0.000000 0.828471
s off
g SM_Shelf_Cab_01a
f 5/1/1 2/2/2 6/3/3
f 6/3/4 2/2/5 3/4/6
f 7/5/7 1/6/8 5/7/9
f 5/7/10 1/6/11 2/8/12
f 4/9/13 8/10/14 3/11/15
f 3/11/16 8/10/17 6/12/18
f 4/13/19 1/14/20 8/15/21
f 8/15/22 1/14/23 7/16/24
f 2/17/25 1/18/26 3/19/27
f 3/19/28 1/18/29 4/20/30
f 7/21/31 5/22/32 8/23/33
f 8/23/34 5/22/35 6/24/36
f 22/25/37 19/26/38 14/27/39
f 19/26/40 15/28/41 14/27/42
f 15/28/43 12/29/44 14/27/45
f 24/30/46 22/25/47 18/31/48
f 18/31/49 22/25/50 14/27/51
f 26/32/52 24/33/53 21/34/54
f 21/34/55 24/33/56 18/35/57
f 27/36/58 26/32/59 17/37/60
f 17/37/61 26/32/62 21/34/63
f 25/38/64 27/36/65 13/39/66
f 13/39/67 27/36/68 17/37/69
f 23/40/70 25/38/71 11/41/72
f 11/41/73 25/38/74 13/39/75
f 20/42/76 23/40/77 10/43/78
f 10/43/79 23/40/80 11/41/81
f 20/42/82 10/43/83 16/44/84
f 16/44/85 10/43/86 9/45/87
f 31/46/88 34/47/89 33/48/90
f 33/48/91 34/47/92 40/49/93
f 37/50/94 33/48/95 42/51/96
f 42/51/97 33/48/98 40/49/99
f 39/52/100 37/53/101 44/54/102
f 44/54/103 37/53/104 42/55/105
f 36/56/106 39/52/107 45/57/108
f 45/57/109 39/52/110 44/54/111
f 32/58/112 36/56/113 43/59/114
f 43/59/115 36/56/116 45/57/117
f 30/60/118 32/58/119 41/61/120
f 41/61/121 32/58/122 43/59/123
f 29/62/124 30/60/125 38/63/126
f 38/63/127 30/60/128 41/61/129
f 35/64/130 28/65/131 38/63/132
f 38/63/133 28/65/134 29/62/135
f 61/66/136 66/67/137 76/68/138
f 76/68/139 66/67/140 79/69/141
f 76/68/142 79/69/143 62/70/144
f 62/70/145 79/69/146 65/71/147
f 62/70/148 65/71/149 78/72/150
f 78/72/151 65/71/152 81/73/153
f 64/74/154 78/72/155 67/75/156
f 67/75/157 78/72/158 81/73/159
f 67/75/160 80/76/161 64/74/162
f 64/74/163 80/76/164 77/77/165
f 80/76/166 68/78/167 77/77/168
f 77/77/169 68/78/170 63/79/171
f 66/80/172 61/81/173 68/78/174
f 68/78/175 61/81/176 63/79/177
f 76/68/178 62/70/179 82/82/180
f 82/82/181 62/70/182 72/83/183
f 78/72/184 84/84/185 62/70/186
f 62/70/187 84/84/188 72/83/189
f 78/72/190 64/74/191 84/84/192
f 84/84/193 64/74/194 74/85/195
f 77/77/196 63/79/197 83/86/198
f 83/86/199 63/79/200 75/87/201
f 77/77/202 83/86/203 64/74/204
f 64/74/205 83/86/206 74/85/207
f 69/88/208 46/89/209 79/69/210
f 79/69/211 46/89/212 65/71/213
f 79/69/214 66/67/215 69/88/216
f 69/88/217 66/67/218 47/90/219
f 49/91/220 47/92/221 68/78/222
f 68/78/223 47/92/224 66/80/225
f 67/75/226 48/93/227 80/76/228
f 80/76/229 48/93/230 70/94/231
f 80/76/232 70/94/233 68/78/234
f 68/78/235 70/94/236 49/91/237
f 48/93/238 67/75/239 71/95/240
f 71/95/241 67/75/242 81/73/243
f 81/73/244 65/71/245 71/95/246
f 71/95/247 65/71/248 46/89/249
f 75/87/250 56/96/251 83/86/252
f 83/86/253 56/96/254 86/97/255
f 83/86/256 86/97/257 74/85/258
f 74/85/259 86/97/260 57/98/261
f 56/96/262 75/87/263 54/99/264
f 54/99/265 75/87/266 73/100/267
f 85/101/268 54/102/269 82/82/270
f 82/82/271 54/102/272 73/103/273
f 55/104/274 85/101/275 72/83/276
f 72/83/277 85/101/278 82/82/279
f 86/97/280 56/96/281 59/105/282
f 59/105/283 56/96/284 53/106/285
f 57/98/286 86/97/287 52/107/288
f 52/107/289 86/97/290 59/105/291
f 87/108/292 55/104/293 84/84/294
f 84/84/295 55/104/296 72/83/297
f 74/85/298 57/98/299 84/84/300
f 84/84/301 57/98/302 87/108/303
f 76/68/304 82/82/305 61/66/306
f 61/66/307 82/82/308 73/103/309
f 73/100/310 75/87/311 61/81/312
f 61/81/313 75/87/314 63/79/315
f 58/109/316 85/101/317 50/110/318
f 50/110/319 85/101/320 55/104/321
f 51/111/322 54/102/323 58/109/324
f 58/109/325 54/102/326 85/101/327
f 51/112/328 53/106/329 54/99/330
f 54/99/331 53/106/332 56/96/333
f 52/107/334 60/113/335 57/98/336
f 57/98/337 60/113/338 87/108/339
f 50/110/340 55/104/341 60/113/342
f 60/113/343 55/104/344 87/108/345
f 105/114/346 97/115/347 107/116/348
f 107/116/349 97/115/350 106/117/351
f 89/118/352 88/119/353 98/120/354
f 98/120/355 88/119/356 96/121/357
f 96/121/358 95/122/359 98/120/360
f 98/120/361 95/122/362 99/123/363
f 95/122/364 94/124/365 99/123/366
f 99/123/367 94/124/368 100/125/369
f 94/124/370 93/126/371 100/125/372
f 100/125/373 93/126/374 101/127/375
f 93/126/376 92/128/377 101/127/378
f 101/127/379 92/128/380 102/129/381
f 92/128/382 91/130/383 102/129/384
f 102/129/385 91/130/386 103/131/387
f 91/130/388 90/132/389 103/131/390
f 103/131/391 90/132/392 104/133/393
f 90/132/394 97/115/395 104/133/396
f 104/133/397 97/115/398 105/114/399
f 89/134/400 108/135/401 88/136/402
f 88/136/403 108/135/404 109/137/405
f 88/138/406 109/139/407 96/140/408
f 106/141/409 97/142/410 109/139/411
f 97/142/412 90/143/413 109/139/414
f 90/143/415 91/144/416 109/139/417
f 91/144/418 92/145/419 109/139/420
f 92/145/421 93/146/422 109/139/423
f 93/146/424 94/147/425 109/139/426
f 94/147/427 95/148/428 109/139/429
f 95/148/430 96/140/431 109/139/432
f 109/149/433 108/150/434 106/151/435
f 106/151/436 108/150/437 107/152/438
f 89/153/439 98/154/440 108/155/441
f 107/156/442 108/155/443 105/157/444
f 105/157/445 108/155/446 104/158/447
f 104/158/448 108/155/449 103/159/450
f 103/159/451 108/155/452 102/160/453
f 102/160/454 108/155/455 101/161/456
f 101/161/457 108/155/458 100/162/459
f 100/162/460 108/155/461 99/163/462
f 98/154/463 99/163/464 108/155/465
f 123/164/466 120/165/467 115/166/468
f 120/165/469 116/167/470 115/166/471
f 116/167/472 113/168/473 115/166/474
f 125/169/475 123/164/476 119/170/477
f 119/170/478 123/164/479 115/166/480
f 127/171/481 125/172/482 122/173/483
f 122/173/484 125/172/485 119/174/486
f 128/175/487 127/171/488 118/176/489
f 118/176/490 127/171/491 122/173/492
f 126/177/493 128/175/494 114/178/495
f 114/178/496 128/175/497 118/176/498
f 124/179/499 126/177/500 112/180/501
f 112/180/502 126/177/503 114/178/504
f 121/181/505 124/179/506 111/182/507
f 111/182/508 124/179/509 112/180/510
f 121/181/511 111/182/512 117/183/513
f 117/183/514 111/182/515 110/184/516
f 133/185/517 130/186/518 134/187/519
f 134/187/520 130/186/521 131/188/522
f 135/189/523 129/190/524 133/191/525
f 133/191/526 129/190/527 130/192/528
f 132/193/529 136/194/530 131/195/531
f 131/195/532 136/194/533 134/196/534
f 132/197/535 129/198/536 136/199/537
f 136/199/538 129/198/539 135/200/540
f 130/201/541 129/202/542 131/203/543
f 131/203/544 129/202/545 132/204/546
f 135/205/547 133/206/548 136/207/549
f 136/207/550 133/206/551 134/208/552
f 140/209/553 143/210/554 142/211/555
f 142/211/556 143/210/557 149/212/558
f 146/213/559 142/211/560 151/214/561
f 151/214/562 142/211/563 149/212/564
f 148/215/565 146/216/566 153/217/567
f 153/217/568 146/216/569 151/218/570
f 145/219/571 148/215/572 154/220/573
f 154/220/574 148/215/575 153/217/576
f 141/221/577 145/219/578 152/222/579
f 152/222/580 145/219/581 154/220/582
f 139/223/583 141/221/584 150/224/585
f 150/224/586 141/221/587 152/222/588
f 138/225/589 139/223/590 147/226/591
f 147/226/592 139/223/593 150/224/594
f 144/227/595 137/228/596 147/226/597
f 147/226/598 137/228/599 138/225/600
