# This file uses feet as units for non-parametric coordinates.

g default
v 0.000000 -0.200966 43.465313
v 82.364761 -0.200966 43.465313
v 0.000000 -0.200966 45.222996
v 82.364761 -0.200966 45.222996
v 82.364761 12.654465 45.222996
v 0.000000 12.654465 45.222996
v 0.000000 12.654465 43.465313
v 82.364761 12.654465 43.465313
v 32.635490 6.400185 43.988033
v 33.272892 6.400185 43.988033
v 32.635490 5.762779 43.988033
v 33.272892 5.762779 43.988033
v 49.396782 6.400185 43.988033
v 48.759377 6.400185 43.988033
v 49.396782 5.762779 43.988033
v 48.759377 5.762779 43.988033
v 48.759373 6.400185 46.714725
v 49.396782 6.400185 47.033428
v 48.759373 5.762779 46.714725
v 49.396782 5.762779 47.033428
v 49.078079 6.506416 43.988033
v 49.078079 5.656540 43.988033
v 49.503014 6.081482 43.988033
v 33.884972 6.400185 47.243473
v 33.566269 6.400177 47.880878
v 33.884972 5.762779 47.243473
v 33.566269 5.762772 47.880878
v 32.635490 6.400185 47.033428
v 33.272892 6.400185 46.714725
v 32.635490 5.762779 47.033428
v 33.272892 5.762779 46.714725
v 32.954189 6.506416 43.988033
v 32.954189 5.656548 43.988033
v 32.529255 6.081490 43.988033
v 48.465996 6.400185 47.880878
v 48.147297 6.400185 47.243473
v 48.466000 5.762779 47.880878
v 48.147293 5.762779 47.243473
v 33.725620 6.506416 47.562176
v 33.725620 5.656540 47.562176
v 33.513153 6.081482 47.987110
v 32.954189 6.506424 46.874081
v 32.954189 5.656540 46.874081
v 32.529255 6.081490 47.086552
v 48.306648 6.506416 47.562176
v 48.306648 5.656540 47.562176
v 48.519115 6.081482 47.987110
v 49.078079 6.506416 46.874081
v 49.078079 5.656540 46.874081
v 49.503014 6.081482 47.086552
v 46.894421 7.358971 47.880878
v 46.894421 7.358971 47.243473
v 46.894421 6.721565 47.880878
v 46.894421 6.721573 47.243473
v 35.137848 7.358978 47.243473
v 35.137848 7.358978 47.880878
v 35.137848 6.721565 47.880878
v 35.137848 6.721573 47.243473
v 35.137852 7.465218 47.562176
v 35.137852 7.040276 47.987110
v 35.137852 6.615334 47.562176
v 46.894417 7.465210 47.562176
v 46.894417 7.040276 47.987110
v 46.894417 6.615334 47.562176
v 46.894421 5.462395 47.880878
v 46.894421 5.462395 47.243473
v 46.894421 4.824989 47.880878
v 46.894421 4.824989 47.243473
v 35.137848 5.462395 47.243473
v 35.137848 5.462395 47.880878
v 35.137848 4.824989 47.880878
v 35.137848 4.824989 47.243465
v 35.137852 5.568626 47.562176
v 35.137852 5.143692 47.987110
v 35.137852 4.718750 47.562176
v 46.894417 5.143692 47.987110
v 46.894421 4.718750 47.562176
v 46.894421 5.568626 47.562176
v 0.750357 0.000000 43.454487
v 81.586418 0.000000 43.454487
v 0.750357 0.000000 0.000000
v 81.586418 0.000000 0.000000
v 2.824579 1.998375 2.548985
v 79.512169 1.998375 2.548985
v 2.824579 1.998375 43.454487
v 79.512169 1.998375 43.454487
v 81.586418 4.949371 35.256149
v 82.395912 4.949371 35.256149
v 81.586418 6.221832 35.256149
v 82.395912 6.221832 35.256149
v 81.586418 6.221832 2.899054
v 82.395912 6.221832 2.899054
v 81.586418 4.949371 2.899054
v 82.395912 4.949371 2.899054
v -0.059129 4.949371 35.256149
v 0.750357 4.949371 35.256149
v -0.059129 6.221832 35.256149
v 0.750357 6.221832 35.256149
v -0.059129 6.221832 2.899054
v 0.750357 6.221832 2.899054
v -0.059129 4.949371 2.899054
v 0.750357 4.949371 2.899054
v 37.817772 2.913269 45.258636
v 44.154198 2.913269 45.258636
v 37.817772 9.249695 45.258636
v 44.154198 9.249695 45.258636
v 81.586418 9.543678 43.454487
v 81.301811 9.877113 43.454487
v 81.350647 9.877113 0.000000
v 81.586418 9.543678 0.000000
v 0.986130 9.877113 43.454487
v 0.750357 9.406166 43.454487
v 0.750357 9.543678 0.000000
v 1.083791 9.877113 0.010791
v 0.986130 9.877113 0.000000
v 79.845604 9.877113 2.215550
v 79.512169 9.543678 2.548985
v 79.845604 9.877113 43.454487
v 79.512169 9.543678 43.454487
v 2.491145 9.877113 2.215550
v 2.824579 9.543678 2.548985
v 2.824579 9.789482 43.454487
v 2.361247 9.877113 43.454487
vt 0.682163 0.962994
vt 0.996475 0.962994
vt 0.682163 0.969702
vt 0.996475 0.969702
vt 0.652856 0.911363
vt 0.652856 0.964101
vt 0.338534 0.911363
vt 0.338534 0.964101
vt 0.939564 0.896018
vt 0.939564 0.889311
vt 0.992296 0.896018
vt 0.992296 0.889311
vt 0.322559 0.369513
vt 0.322559 0.362806
vt 0.375290 0.369513
vt 0.375290 0.362806
vt 0.998044 0.954173
vt 0.998044 0.960881
vt 0.683728 0.954173
vt 0.683728 0.960881
vt 0.341465 0.913749
vt 0.649486 0.913749
vt 0.341465 0.961825
vt 0.649486 0.961825
vt 0.598822 0.233213
vt 0.599483 0.226073
vt 0.601002 0.232354
vt 0.601698 0.226572
vt 0.603103 0.231512
vt 0.603631 0.227044
vt 0.605148 0.231239
vt 0.605392 0.227260
vt 0.607190 0.231514
vt 0.607166 0.227265
vt 0.609141 0.227043
vt 0.609286 0.232357
vt 0.611391 0.226865
vt 0.611450 0.233208
vt 0.615730 0.227241
vt 0.615610 0.233183
vt 0.601003 0.323057
vt 0.603104 0.323900
vt 0.605148 0.324171
vt 0.607191 0.323896
vt 0.609286 0.323053
vt 0.611450 0.322201
vt 0.602186 0.209212
vt 0.604326 0.209286
vt 0.600042 0.209136
vt 0.612905 0.209745
vt 0.617041 0.210024
vt 0.608588 0.209491
vt 0.610740 0.209621
vt 0.606455 0.209371
vt 0.611392 0.328546
vt 0.609142 0.328367
vt 0.607166 0.328144
vt 0.615731 0.328169
vt 0.615611 0.322226
vt 0.601698 0.328838
vt 0.599484 0.329337
vt 0.598822 0.322198
vt 0.603631 0.328366
vt 0.610740 0.345789
vt 0.612905 0.345665
vt 0.608588 0.345919
vt 0.605392 0.328150
vt 0.602186 0.346198
vt 0.604326 0.346124
vt 0.600042 0.346273
vt 0.617041 0.345386
vt 0.606455 0.346039
vt 0.578012 0.362468
vt 0.578012 0.289835
vt 0.580087 0.362467
vt 0.580087 0.289836
vt 0.582162 0.362467
vt 0.582162 0.289837
vt 0.584237 0.362466
vt 0.584237 0.289837
vt 0.586313 0.362466
vt 0.586313 0.289838
vt 0.575937 0.362469
vt 0.573861 0.362469
vt 0.575937 0.289835
vt 0.573861 0.289835
vt 0.590251 0.362465
vt 0.590251 0.289839
vt 0.571481 0.283412
vt 0.571481 0.279482
vt 0.573447 0.284067
vt 0.573447 0.278827
vt 0.575412 0.283412
vt 0.576067 0.281447
vt 0.575412 0.279482
vt 0.586468 0.283306
vt 0.584504 0.283961
vt 0.586468 0.279377
vt 0.584504 0.278723
vt 0.582540 0.283306
vt 0.581885 0.281342
vt 0.582540 0.279377
vt 0.563365 0.289931
vt 0.563305 0.362776
vt 0.561269 0.289929
vt 0.561209 0.362775
vt 0.565385 0.290041
vt 0.565401 0.362776
vt 0.567416 0.290039
vt 0.567498 0.362775
vt 0.586165 0.281208
vt 0.585709 0.279646
vt 0.585709 0.282771
vt 0.584342 0.283292
vt 0.582974 0.279646
vt 0.582519 0.281208
vt 0.582974 0.282771
vt 0.559193 0.289981
vt 0.559113 0.362774
vt 0.557117 0.289924
vt 0.557016 0.362771
vt 0.573571 0.362766
vt 0.569594 0.362772
vt 0.573424 0.289917
vt 0.569448 0.289927
vt 0.565913 0.283565
vt 0.563946 0.284221
vt 0.565913 0.279633
vt 0.563946 0.278977
vt 0.561980 0.283565
vt 0.561325 0.281599
vt 0.561980 0.279633
vt 0.583344 0.217314
vt 0.583344 0.249018
vt 0.566432 0.217314
vt 0.566432 0.249018
vt 0.567537 0.256049
vt 0.567537 0.222629
vt 0.585502 0.256049
vt 0.585502 0.222629
vt 0.334415 0.515477
vt 0.334415 0.518143
vt 0.330225 0.515477
vt 0.330225 0.518143
vt 0.334415 0.504037
vt 0.334415 0.506703
vt 0.227872 0.504037
vt 0.227872 0.506703
vt 0.334415 0.507348
vt 0.334415 0.510013
vt 0.227872 0.507347
vt 0.227872 0.510013
vt 0.227872 0.510638
vt 0.334415 0.510638
vt 0.227872 0.514828
vt 0.334415 0.514828
vt 0.334415 0.515477
vt 0.334415 0.518143
vt 0.330225 0.515478
vt 0.330225 0.518143
vt 0.334415 0.504037
vt 0.334415 0.506703
vt 0.227872 0.504037
vt 0.227872 0.506703
vt 0.334415 0.507347
vt 0.334415 0.510013
vt 0.227872 0.507347
vt 0.227872 0.510013
vt 0.227872 0.510638
vt 0.334415 0.510638
vt 0.227872 0.514828
vt 0.334415 0.514828
vt 0.506814 0.206378
vt 0.550396 0.206378
vt 0.506814 0.249960
vt 0.550396 0.249960
vt 0.691856 0.433495
vt 0.702991 0.433507
vt 0.708846 0.382160
vt 0.720043 0.382160
vt 0.718970 0.457549
vt 0.709904 0.457549
vt 0.691856 0.382541
vt 0.708846 0.331206
vt 0.703365 0.433511
vt 0.703438 0.382541
vt 0.720427 0.331206
vt 0.720429 0.382147
vt 0.730644 0.361579
vt 0.682679 0.361579
vt 0.730644 0.451501
vt 0.682679 0.451501
vt 0.682679 0.361188
vt 0.682680 0.359481
vt 0.731035 0.361188
vt 0.733620 0.453542
vt 0.731035 0.451892
vt 0.682679 0.453657
vt 0.742620 0.344448
vt 0.733773 0.344448
vt 0.742620 0.434370
vt 0.733773 0.434370
vt 0.718751 0.409584
vt 0.709904 0.409584
vt 0.720498 0.383080
vt 0.720498 0.431045
vt 0.711650 0.383080
vt 0.711650 0.431045
vt 0.733633 0.359423
vt 0.733633 0.453657
vt 0.703047 0.382541
vt 0.719875 0.331206
vt 0.720425 0.382147
vt 0.720428 0.382160
vt 0.682679 0.452045
vn 0.000000 -1.000000 0.000000
vn 0.000000 -1.000000 0.000000
vn 0.000000 -1.000000 0.000000
vn 0.000000 -1.000000 0.000000
vn 0.000000 -1.000000 0.000000
vn 0.000000 -1.000000 0.000000
vn 0.000000 0.000000 1.000000
vn 0.000000 0.000000 1.000000
vn 0.000000 0.000000 1.000000
vn 0.000000 0.000000 1.000000
vn 0.000000 0.000000 1.000000
vn 0.000000 0.000000 1.000000
vn 1.000000 0.000000 0.000000
vn 1.000000 0.000000 0.000000
vn 1.000000 0.000000 0.000000
vn 1.000000 0.000000 0.000000
vn 1.000000 0.000000 0.000000
vn 1.000000 0.000000 0.000000
vn -1.000000 0.000000 0.000000
vn -1.000000 0.000000 0.000000
vn -1.000000 0.000000 0.000000
vn -1.000000 0.000000 0.000000
vn -1.000000 0.000000 0.000000
vn -1.000000 0.000000 0.000000
vn 0.000000 1.000000 0.000000
vn 0.000000 1.000000 0.000000
vn 0.000000 1.000000 0.000000
vn 0.000000 1.000000 0.000000
vn 0.000000 1.000000 0.000000
vn 0.000000 1.000000 0.000000
vn 0.000000 0.000000 -1.000000
vn 0.000000 0.000000 -1.000000
vn 0.000000 0.000000 -1.000000
vn 0.000000 0.000000 -1.000000
vn 0.000000 0.000000 -1.000000
vn 0.000000 0.000000 -1.000000
vn 0.009791 0.950099 -0.311796
vn 0.288508 0.955669 -0.058824
vn -0.003383 0.995840 0.091058
vn -0.003383 0.995840 0.091058
vn 0.288508 0.955669 -0.058824
vn -0.091310 0.995608 0.020648
vn -0.003383 0.995840 0.091058
vn -0.091310 0.995608 0.020648
vn -0.040041 0.634266 0.772077
vn -0.040041 0.634266 0.772077
vn -0.091310 0.995608 0.020648
vn -0.727812 0.662469 0.177270
vn -0.040041 0.634266 0.772077
vn -0.727812 0.662469 0.177270
vn -0.055810 -0.000001 0.998441
vn -0.055810 -0.000001 0.998441
vn -0.727812 0.662469 0.177270
vn -0.970082 -0.000000 0.242777
vn -0.040042 -0.634256 0.772085
vn -0.055810 -0.000001 0.998441
vn -0.727826 -0.662454 0.177271
vn -0.727826 -0.662454 0.177271
vn -0.055810 -0.000001 0.998441
vn -0.970082 -0.000000 0.242777
vn -0.727826 -0.662454 0.177271
vn -0.091312 -0.995608 0.020645
vn -0.040042 -0.634256 0.772085
vn -0.040042 -0.634256 0.772085
vn -0.091312 -0.995608 0.020645
vn -0.003382 -0.995842 0.091033
vn -0.091312 -0.995608 0.020645
vn 0.838744 -0.520430 -0.160193
vn -0.003382 -0.995842 0.091033
vn -0.003382 -0.995842 0.091033
vn 0.838744 -0.520430 -0.160193
vn 0.030563 -0.477588 -0.878052
vn 0.982780 0.000000 -0.184780
vn 0.035525 0.000000 -0.999369
vn 0.838744 -0.520430 -0.160193
vn 0.838744 -0.520430 -0.160193
vn 0.035525 0.000000 -0.999369
vn 0.030563 -0.477588 -0.878052
vn -0.003383 0.995840 0.091058
vn -0.040041 0.634266 0.772077
vn 0.003361 0.995269 0.097100
vn 0.003361 0.995269 0.097100
vn -0.040041 0.634266 0.772077
vn 0.039914 0.639004 0.768167
vn -0.055810 -0.000001 0.998441
vn 0.056177 -0.000001 0.998421
vn -0.040041 0.634266 0.772077
vn -0.040041 0.634266 0.772077
vn 0.056177 -0.000001 0.998421
vn 0.039914 0.639004 0.768167
vn -0.055810 -0.000001 0.998441
vn -0.040042 -0.634256 0.772085
vn 0.056177 -0.000001 0.998421
vn 0.056177 -0.000001 0.998421
vn -0.040042 -0.634256 0.772085
vn 0.039915 -0.638999 0.768171
vn -0.003382 -0.995842 0.091033
vn 0.030563 -0.477588 -0.878052
vn 0.003362 -0.995268 0.097106
vn 0.003362 -0.995268 0.097106
vn 0.030563 -0.477588 -0.878052
vn -0.030794 -0.471340 -0.881414
vn -0.003382 -0.995842 0.091033
vn 0.003362 -0.995268 0.097106
vn -0.040042 -0.634256 0.772085
vn -0.040042 -0.634256 0.772085
vn 0.003362 -0.995268 0.097106
vn 0.039915 -0.638999 0.768171
vn -0.008704 0.999962 -0.000001
vn -0.715824 0.698281 -0.000001
vn -0.091310 0.995608 0.020648
vn -0.091310 0.995608 0.020648
vn -0.715824 0.698281 -0.000001
vn -0.727812 0.662469 0.177270
vn -0.091310 0.995608 0.020648
vn 0.288508 0.955669 -0.058824
vn -0.008704 0.999962 -0.000001
vn -0.008704 0.999962 -0.000001
vn 0.288508 0.955669 -0.058824
vn 0.316222 0.948685 0.000000
vn 0.919145 -0.393920 0.000000
vn 1.000000 0.000000 0.000000
vn 0.838744 -0.520430 -0.160193
vn 0.838744 -0.520430 -0.160193
vn 1.000000 0.000000 0.000000
vn 0.982780 0.000000 -0.184780
vn -0.727826 -0.662454 0.177271
vn -0.715837 -0.698268 -0.000001
vn -0.091312 -0.995608 0.020645
vn -0.091312 -0.995608 0.020645
vn -0.715837 -0.698268 -0.000001
vn -0.008704 -0.999962 -0.000001
vn -0.091312 -0.995608 0.020645
vn -0.008704 -0.999962 -0.000001
vn 0.838744 -0.520430 -0.160193
vn 0.838744 -0.520430 -0.160193
vn -0.008704 -0.999962 -0.000001
vn 0.919145 -0.393920 0.000000
vn -0.715837 -0.698268 -0.000001
vn -0.727826 -0.662454 0.177271
vn -1.000000 0.000000 0.000000
vn -1.000000 0.000000 0.000000
vn -0.727826 -0.662454 0.177271
vn -0.970082 -0.000000 0.242777
vn -0.970082 -0.000000 0.242777
vn -0.727812 0.662469 0.177270
vn -1.000000 0.000000 0.000000
vn -1.000000 0.000000 0.000000
vn -0.727812 0.662469 0.177270
vn -0.715824 0.698281 -0.000001
vn -0.030794 -0.471340 -0.881414
vn -0.838744 -0.520430 -0.160193
vn 0.003362 -0.995268 0.097106
vn 0.003362 -0.995268 0.097106
vn -0.838744 -0.520430 -0.160193
vn 0.091311 -0.995608 0.020647
vn 0.003362 -0.995268 0.097106
vn 0.091311 -0.995608 0.020647
vn 0.039915 -0.638999 0.768171
vn 0.039915 -0.638999 0.768171
vn 0.091311 -0.995608 0.020647
vn 0.727819 -0.662462 0.177270
vn -0.838744 -0.520430 -0.160193
vn -0.030794 -0.471340 -0.881414
vn -0.982780 0.000001 -0.184780
vn -0.982780 0.000001 -0.184780
vn -0.030794 -0.471340 -0.881414
vn -0.035525 0.000000 -0.999369
vn 0.091302 0.995609 0.020646
vn -0.288487 0.955675 -0.058820
vn 0.003361 0.995269 0.097100
vn 0.003361 0.995269 0.097100
vn -0.288487 0.955675 -0.058820
vn -0.009996 0.950127 -0.311702
vn 0.727817 0.662464 0.177269
vn 0.091302 0.995609 0.020646
vn 0.039914 0.639004 0.768167
vn 0.039914 0.639004 0.768167
vn 0.091302 0.995609 0.020646
vn 0.003361 0.995269 0.097100
vn 0.091311 -0.995608 0.020647
vn -0.838744 -0.520430 -0.160193
vn 0.008706 -0.999962 -0.000000
vn 0.008706 -0.999962 -0.000000
vn -0.838744 -0.520430 -0.160193
vn -0.919149 -0.393911 -0.000001
vn 0.727819 -0.662462 0.177270
vn 0.091311 -0.995608 0.020647
vn 0.715835 -0.698269 0.000000
vn 0.715835 -0.698269 0.000000
vn 0.091311 -0.995608 0.020647
vn 0.008706 -0.999962 -0.000000
vn 0.970082 -0.000002 0.242778
vn 0.727817 0.662464 0.177269
vn 0.056177 -0.000001 0.998421
vn 0.056177 -0.000001 0.998421
vn 0.727817 0.662464 0.177269
vn 0.039914 0.639004 0.768167
vn 0.039915 -0.638999 0.768171
vn 0.727819 -0.662462 0.177270
vn 0.056177 -0.000001 0.998421
vn 0.056177 -0.000001 0.998421
vn 0.727819 -0.662462 0.177270
vn 0.970082 -0.000002 0.242778
vn -0.003383 0.995840 0.091058
vn 0.003361 0.995269 0.097100
vn 0.009791 0.950099 -0.311796
vn 0.009791 0.950099 -0.311796
vn 0.003361 0.995269 0.097100
vn -0.009996 0.950127 -0.311702
vn -0.035525 0.000000 -0.999369
vn -0.030794 -0.471340 -0.881414
vn 0.035525 0.000000 -0.999369
vn 0.035525 0.000000 -0.999369
vn -0.030794 -0.471340 -0.881414
vn 0.030563 -0.477588 -0.878052
vn 0.008705 0.999962 -0.000000
vn 0.091302 0.995609 0.020646
vn 0.715830 0.698275 0.000000
vn 0.715830 0.698275 0.000000
vn 0.091302 0.995609 0.020646
vn 0.727817 0.662464 0.177269
vn -0.316227 0.948684 -0.000001
vn -0.288487 0.955675 -0.058820
vn 0.008705 0.999962 -0.000000
vn 0.008705 0.999962 -0.000000
vn -0.288487 0.955675 -0.058820
vn 0.091302 0.995609 0.020646
vn -1.000000 0.000000 -0.000001
vn -0.919149 -0.393911 -0.000001
vn -0.982780 0.000001 -0.184780
vn -0.982780 0.000001 -0.184780
vn -0.919149 -0.393911 -0.000001
vn -0.838744 -0.520430 -0.160193
vn 0.715835 -0.698269 0.000000
vn 1.000000 -0.000000 0.000000
vn 0.727819 -0.662462 0.177270
vn 0.727819 -0.662462 0.177270
vn 1.000000 -0.000000 0.000000
vn 0.970082 -0.000002 0.242778
vn 0.715830 0.698275 0.000000
vn 0.727817 0.662464 0.177269
vn 1.000000 -0.000000 0.000000
vn 1.000000 -0.000000 0.000000
vn 0.727817 0.662464 0.177269
vn 0.970082 -0.000002 0.242778
vn 0.000001 0.707107 0.707106
vn 0.000000 0.707099 0.707114
vn 0.000000 0.000000 1.000000
vn 0.000000 0.000000 1.000000
vn 0.000000 0.707099 0.707114
vn 0.000000 -0.000000 1.000000
vn 0.000000 0.000000 1.000000
vn 0.000000 -0.000000 1.000000
vn 0.000000 -0.707102 0.707112
vn 0.000000 -0.707102 0.707112
vn 0.000000 -0.000000 1.000000
vn 0.000000 -0.707100 0.707114
vn 0.000000 -1.000000 -0.000014
vn 0.000000 -1.000000 -0.000010
vn -0.000000 -0.393918 -0.919146
vn -0.000000 -0.393918 -0.919146
vn 0.000000 -1.000000 -0.000010
vn 0.000000 -0.393915 -0.919147
vn 0.000000 -0.707102 0.707112
vn 0.000000 -0.707100 0.707114
vn 0.000000 -1.000000 -0.000014
vn 0.000000 -1.000000 -0.000014
vn 0.000000 -0.707100 0.707114
vn 0.000000 -1.000000 -0.000010
vn 0.000001 1.000000 -0.000002
vn 0.000000 0.948678 -0.316244
vn 0.000001 1.000000 0.000002
vn 0.000001 1.000000 0.000002
vn 0.000000 0.948678 -0.316244
vn 0.000001 0.948679 -0.316240
vn 0.000001 0.707107 0.707106
vn 0.000001 1.000000 -0.000002
vn 0.000000 0.707099 0.707114
vn 0.000000 0.707099 0.707114
vn 0.000001 1.000000 -0.000002
vn 0.000001 1.000000 0.000002
vn -0.000000 0.000000 -1.000000
vn -0.000000 -0.393918 -0.919146
vn -0.000000 0.000000 -1.000000
vn -0.000000 0.000000 -1.000000
vn -0.000000 -0.393918 -0.919146
vn 0.000000 -0.393915 -0.919147
vn -1.000000 0.000000 0.000012
vn -1.000000 0.000000 0.000012
vn -1.000000 0.000000 -0.000001
vn -1.000000 0.000000 0.000012
vn -1.000000 0.000000 0.000005
vn -1.000000 0.000000 -0.000001
vn -1.000000 0.000000 -0.000001
vn -1.000000 0.000000 0.000005
vn -1.000000 -0.000002 -0.000007
vn -1.000000 -0.000002 -0.000007
vn -1.000000 0.000000 0.000005
vn -1.000000 -0.000005 0.000006
vn -1.000000 -0.000005 0.000006
vn -1.000000 0.000000 0.000005
vn -1.000000 0.000016 -0.000018
vn 1.000000 0.000000 0.000012
vn 1.000000 0.000000 -0.000001
vn 1.000000 0.000000 0.000012
vn 1.000000 0.000000 0.000012
vn 1.000000 0.000000 -0.000001
vn 1.000000 0.000002 0.000005
vn 1.000000 0.000000 -0.000001
vn 1.000000 -0.000003 -0.000007
vn 1.000000 0.000002 0.000005
vn 1.000000 -0.000003 -0.000007
vn 1.000000 -0.000005 0.000006
vn 1.000000 0.000002 0.000005
vn 1.000000 -0.000005 0.000006
vn 1.000000 0.000042 -0.000018
vn 1.000000 0.000002 0.000005
vn 0.000000 -0.000000 1.000000
vn 0.000000 0.000000 1.000000
vn 0.000000 0.707106 0.707107
vn 0.000000 0.707106 0.707107
vn 0.000000 0.000000 1.000000
vn 0.000000 0.707109 0.707105
vn 0.000000 -0.707101 0.707113
vn 0.000000 -0.707102 0.707112
vn 0.000000 -0.000000 1.000000
vn 0.000000 -0.000000 1.000000
vn 0.000000 -0.707102 0.707112
vn 0.000000 0.000000 1.000000
vn 0.000000 -1.000000 0.000000
vn 0.000000 -1.000000 0.000000
vn 0.000000 -0.707101 0.707113
vn 0.000000 -0.707101 0.707113
vn 0.000000 -1.000000 0.000000
vn 0.000000 -0.707102 0.707112
vn -1.000000 0.000000 0.000000
vn -1.000000 0.000001 0.000004
vn -1.000000 0.000011 0.000000
vn -1.000000 0.000011 0.000000
vn -1.000000 0.000001 0.000004
vn -1.000000 0.000004 0.000003
vn -1.000000 0.000004 0.000003
vn -1.000000 0.000001 0.000004
vn -1.000000 -0.000000 0.000004
vn -1.000000 -0.000028 0.000000
vn -1.000000 0.000005 0.000000
vn -1.000000 -0.000000 0.000004
vn -1.000000 0.000004 0.000003
vn -1.000000 -0.000000 0.000004
vn -1.000000 0.000005 0.000000
vn 0.000000 1.000000 0.000000
vn 0.000000 1.000000 0.000000
vn 0.000000 0.948685 -0.316223
vn 0.000000 0.948685 -0.316223
vn 0.000000 1.000000 0.000000
vn 0.000000 0.948686 -0.316220
vn 0.000000 0.000000 -1.000000
vn 0.000000 -0.393917 -0.919146
vn 0.000000 0.000012 -1.000000
vn 0.000000 0.000012 -1.000000
vn 0.000000 -0.393917 -0.919146
vn 0.000000 -0.393915 -0.919147
vn 1.000000 0.000000 0.000000
vn 1.000000 0.000000 0.000000
vn 1.000000 0.000000 0.000000
vn 1.000000 0.000000 0.000000
vn 1.000000 0.000000 0.000000
vn 1.000000 0.000001 0.000002
vn 1.000000 0.000000 0.000000
vn 1.000000 -0.000005 0.000004
vn 1.000000 0.000001 0.000002
vn 1.000000 -0.000005 0.000004
vn 1.000000 -0.000015 0.000014
vn 1.000000 0.000001 0.000002
vn 1.000000 -0.000015 0.000014
vn 1.000000 0.000042 -0.000004
vn 1.000000 0.000001 0.000002
vn 0.000000 -0.393917 -0.919146
vn 0.000000 -1.000000 0.000000
vn 0.000000 -0.393915 -0.919147
vn 0.000000 -0.393915 -0.919147
vn 0.000000 -1.000000 0.000000
vn 0.000000 -1.000000 0.000000
vn 0.000000 0.707109 0.707105
vn 0.000000 1.000000 0.000000
vn 0.000000 0.707106 0.707107
vn 0.000000 0.707106 0.707107
vn 0.000000 1.000000 0.000000
vn 0.000000 1.000000 0.000000
vn 0.000000 1.000000 0.000000
vn 0.000000 1.000000 0.000000
vn 0.000000 1.000000 0.000000
vn 0.000000 1.000000 0.000000
vn 0.000000 1.000000 0.000000
vn 0.000000 1.000000 0.000000
vn 0.000000 -1.000000 0.000000
vn 0.000000 -1.000000 0.000000
vn 0.000000 -1.000000 0.000000
vn 0.000000 -1.000000 0.000000
vn 0.000000 -1.000000 0.000000
vn 0.000000 -1.000000 0.000000
vn 1.000000 0.000000 0.000000
vn 1.000000 0.000000 0.000000
vn 0.998704 0.050898 0.000037
vn 0.998704 0.050898 0.000037
vn 0.998704 0.050898 0.000037
vn 1.000000 0.000000 0.000000
vn -1.000000 0.000000 0.000000
vn -1.000000 0.000000 0.000000
vn -0.998516 0.054453 -0.000000
vn -0.998461 0.055461 -0.000000
vn -0.998516 0.054453 -0.000000
vn -1.000000 0.000000 0.000000
vn 1.000000 0.000000 0.000000
vn 0.995212 0.097743 -0.000211
vn 1.000000 0.000000 0.000000
vn 0.000000 0.000000 1.000000
vn 0.000000 0.000000 1.000000
vn 0.000000 0.000000 1.000000
vn 0.000000 0.000000 1.000000
vn 0.000000 0.000000 1.000000
vn 0.000000 0.000000 1.000000
vn 0.000000 1.000000 0.000000
vn 0.000000 1.000000 0.000000
vn 0.000000 1.000000 0.000000
vn 0.000000 1.000000 0.000000
vn 0.000000 1.000000 0.000000
vn 0.000000 1.000000 0.000000
vn 0.000000 -1.000000 0.000000
vn 0.000000 -1.000000 0.000000
vn 0.000000 -1.000000 0.000000
vn 0.000000 -1.000000 0.000000
vn 0.000000 -1.000000 0.000000
vn 0.000000 -1.000000 0.000000
vn 1.000000 0.000000 0.000000
vn 1.000000 0.000000 0.000000
vn 1.000000 0.000000 0.000000
vn 1.000000 0.000000 0.000000
vn 1.000000 0.000000 0.000000
vn 1.000000 0.000000 0.000000
vn 0.000000 0.000000 1.000000
vn 0.000000 0.000000 1.000000
vn 0.000000 0.000000 1.000000
vn 0.000000 0.000000 1.000000
vn 0.000000 0.000000 1.000000
vn 0.000000 0.000000 1.000000
vn 0.000000 1.000000 0.000000
vn 0.000000 1.000000 0.000000
vn 0.000000 1.000000 0.000000
vn 0.000000 1.000000 0.000000
vn 0.000000 1.000000 0.000000
vn 0.000000 1.000000 0.000000
vn 0.000000 -1.000000 0.000000
vn 0.000000 -1.000000 0.000000
vn 0.000000 -1.000000 0.000000
vn 0.000000 -1.000000 0.000000
vn 0.000000 -1.000000 0.000000
vn 0.000000 -1.000000 0.000000
vn -1.000000 0.000000 0.000000
vn -1.000000 0.000000 0.000000
vn -1.000000 0.000000 0.000000
vn -1.000000 0.000000 0.000000
vn -1.000000 0.000000 0.000000
vn -1.000000 0.000000 0.000000
vn 0.000000 0.000000 1.000000
vn 0.000000 0.000000 1.000000
vn 0.000000 0.000000 1.000000
vn 0.000000 0.000000 1.000000
vn 0.000000 0.000000 1.000000
vn 0.000000 0.000000 1.000000
vn 0.788383 0.615185 0.000443
vn 0.998704 0.050898 0.000037
vn 0.788382 0.615185 0.000443
vn 0.998704 0.050898 0.000037
vn -0.998461 0.055461 -0.000000
vn -0.816294 0.577637 -0.000003
vn -0.998516 0.054453 -0.000000
vn -0.816294 0.577637 -0.000003
vn -0.134933 0.990855 0.000000
vn -0.994011 0.109278 0.000000
vn -0.298911 0.954281 0.000000
vn -0.996695 0.081241 0.000000
vn 0.000000 0.109303 0.994009
vn 0.000000 0.993731 0.111799
vn 0.000000 0.109303 0.994009
vn 0.000000 0.993045 0.117738
vn 0.087533 0.996162 -0.000356
vn 0.189785 0.981825 -0.000773
vn 0.990848 0.134986 -0.000291
vn 0.995212 0.097743 -0.000211
vn -0.134933 0.990855 0.000000
vn -0.298911 0.954281 0.000000
vn 0.000000 1.000000 0.000000
vn -0.134933 0.990855 0.000000
vn 0.000000 1.000000 0.000000
vn 0.000000 1.000000 0.000000
vn 0.000000 0.993731 0.111799
vn 0.000000 1.000000 0.000001
vn 0.000000 0.993045 0.117738
vn 0.000000 1.000000 0.000000
vn 0.000000 1.000000 0.000000
vn 0.087533 0.996162 -0.000356
vn 0.087533 0.996162 -0.000356
vn 0.000000 1.000000 0.000000
vn 0.189785 0.981825 -0.000773
vn 0.000000 0.109303 0.994009
vn 0.000000 0.109303 0.994009
vn 0.000000 0.000000 1.000000
vn 0.000000 0.000000 1.000000
vn 0.000000 0.109303 0.994009
vn 0.000000 0.000000 1.000000
vn 0.990848 0.134986 -0.000291
vn 0.995212 0.097743 -0.000211
vn 1.000000 0.000000 0.000000
vn -0.996695 0.081241 0.000000
vn -0.994011 0.109278 0.000000
vn -1.000000 0.000000 0.000000
vn -1.000000 0.000000 0.000000
vn -0.994011 0.109278 0.000000
vn -1.000000 0.000000 0.000000
vn 0.000000 1.000000 0.000001
vn 0.000000 1.000000 0.000001
vn 0.000000 1.000000 0.000001
vn 0.000000 0.993731 0.111799
vn -0.109497 0.077426 0.990967
vn -0.109497 0.077426 0.990967
vn -0.109497 0.077426 0.990967
s off
g SM_Shelf_Cab_01d
f 1/1/1 2/2/2 3/3/3
f 3/3/4 2/2/5 4/4/6
f 4/5/7 5/6/8 3/7/9
f 3/7/10 5/6/11 6/8/12
f 8/9/13 5/10/14 2/11/15
f 2/11/16 5/10/17 4/12/18
f 6/13/19 7/14/20 3/15/21
f 3/15/22 7/14/23 1/16/24
f 5/17/25 8/18/26 6/19/27
f 6/19/28 8/18/29 7/20/30
f 7/21/31 8/22/32 1/23/33
f 1/23/34 8/22/35 2/24/36
f 24/25/37 29/26/38 39/27/39
f 39/27/40 29/26/41 42/28/42
f 39/27/43 42/28/44 25/29/45
f 25/29/46 42/28/47 28/30/48
f 25/29/49 28/30/50 41/31/51
f 41/31/52 28/30/53 44/32/54
f 27/33/55 41/31/56 30/34/57
f 30/34/58 41/31/59 44/32/60
f 30/34/61 43/35/62 27/33/63
f 27/33/64 43/35/65 40/36/66
f 43/35/67 31/37/68 40/36/69
f 40/36/70 31/37/71 26/38/72
f 29/39/73 24/40/74 31/37/75
f 31/37/76 24/40/77 26/38/78
f 39/27/79 25/29/80 45/41/81
f 45/41/82 25/29/83 35/42/84
f 41/31/85 47/43/86 25/29/87
f 25/29/88 47/43/89 35/42/90
f 41/31/91 27/33/92 47/43/93
f 47/43/94 27/33/95 37/44/96
f 40/36/97 26/38/98 46/45/99
f 46/45/100 26/38/101 38/46/102
f 40/36/103 46/45/104 27/33/105
f 27/33/106 46/45/107 37/44/108
f 32/47/109 9/48/110 42/28/111
f 42/28/112 9/48/113 28/30/114
f 42/28/115 29/26/116 32/47/117
f 32/47/118 29/26/119 10/49/120
f 12/50/121 10/51/122 31/37/123
f 31/37/124 10/51/125 29/39/126
f 30/34/127 11/52/128 43/35/129
f 43/35/130 11/52/131 33/53/132
f 43/35/133 33/53/134 31/37/135
f 31/37/136 33/53/137 12/50/138
f 11/52/139 30/34/140 34/54/141
f 34/54/142 30/34/143 44/32/144
f 44/32/145 28/30/146 34/54/147
f 34/54/148 28/30/149 9/48/150
f 38/46/151 19/55/152 46/45/153
f 46/45/154 19/55/155 49/56/156
f 46/45/157 49/56/158 37/44/159
f 37/44/160 49/56/161 20/57/162
f 19/55/163 38/46/164 17/58/165
f 17/58/166 38/46/167 36/59/168
f 48/60/169 17/61/170 45/41/171
f 45/41/172 17/61/173 36/62/174
f 18/63/175 48/60/176 35/42/177
f 35/42/178 48/60/179 45/41/180
f 49/56/181 19/55/182 22/64/183
f 22/64/184 19/55/185 16/65/186
f 20/57/187 49/56/188 15/66/189
f 15/66/190 49/56/191 22/64/192
f 50/67/193 18/63/194 47/43/195
f 47/43/196 18/63/197 35/42/198
f 37/44/199 20/57/200 47/43/201
f 47/43/202 20/57/203 50/67/204
f 39/27/205 45/41/206 24/25/207
f 24/25/208 45/41/209 36/62/210
f 36/59/211 38/46/212 24/40/213
f 24/40/214 38/46/215 26/38/216
f 21/68/217 48/60/218 13/69/219
f 13/69/220 48/60/221 18/63/222
f 14/70/223 17/61/224 21/68/225
f 21/68/226 17/61/227 48/60/228
f 14/71/229 16/65/230 17/58/231
f 17/58/232 16/65/233 19/55/234
f 15/66/235 23/72/236 20/57/237
f 20/57/238 23/72/239 50/67/240
f 13/69/241 18/63/242 23/72/243
f 23/72/244 18/63/245 50/67/246
f 51/73/247 56/74/248 63/75/249
f 63/75/250 56/74/251 60/76/252
f 63/75/253 60/76/254 53/77/255
f 53/77/256 60/76/257 57/78/258
f 64/79/259 61/80/260 54/81/261
f 54/81/262 61/80/263 58/82/264
f 53/77/265 57/78/266 64/79/267
f 64/79/268 57/78/269 61/80/270
f 62/83/271 52/84/272 59/85/273
f 59/85/274 52/84/275 55/86/276
f 51/73/277 62/83/278 56/74/279
f 56/74/280 62/83/281 59/85/282
f 52/87/283 54/81/284 55/88/285
f 55/88/286 54/81/287 58/82/288
f 55/89/289 58/90/290 59/91/291
f 58/90/292 61/92/293 59/91/294
f 59/91/295 61/92/296 56/93/297
f 56/93/298 61/92/299 60/94/300
f 60/94/301 61/92/302 57/95/303
f 52/96/304 62/97/305 54/98/306
f 54/98/307 62/97/308 64/99/309
f 62/97/310 51/100/311 64/99/312
f 51/100/313 63/101/314 64/99/315
f 63/101/316 53/102/317 64/99/318
f 74/103/319 76/104/320 70/105/321
f 70/105/322 76/104/323 65/106/324
f 71/107/325 67/108/326 74/103/327
f 74/103/328 67/108/329 76/104/330
f 75/109/331 77/110/332 71/107/333
f 71/107/334 77/110/335 67/108/336
f 73/111/337 69/112/338 70/113/339
f 70/113/340 69/112/341 74/114/342
f 74/114/343 69/112/344 72/115/345
f 75/116/346 71/117/347 72/115/348
f 74/114/349 72/115/350 71/117/351
f 73/118/352 78/119/353 69/120/354
f 69/120/355 78/119/356 66/121/357
f 66/122/358 68/123/359 69/124/360
f 69/124/361 68/123/362 72/125/363
f 66/126/364 78/127/365 68/128/366
f 68/128/367 78/127/368 77/129/369
f 78/127/370 65/130/371 77/129/372
f 65/130/373 76/131/374 77/129/375
f 76/131/376 67/132/377 77/129/378
f 68/123/379 77/110/380 72/125/381
f 72/125/382 77/110/383 75/109/384
f 65/106/385 78/119/386 70/105/387
f 70/105/388 78/119/389 73/118/390
f 84/133/391 83/134/392 86/135/393
f 86/135/394 83/134/395 85/136/396
f 81/137/397 82/138/398 79/139/399
f 79/139/400 82/138/401 80/140/402
f 80/177/403 82/183/404 107/178/405
f 110/211/406 107/178/407 82/183/408
f 81/179/409 79/184/410 113/180/411
f 112/212/412 113/180/413 79/184/414
f 83/204/415 122/181/416 85/182/417
f 87/141/418 88/142/419 89/143/420
f 89/143/421 88/142/422 90/144/423
f 89/145/424 90/146/425 91/147/426
f 91/147/427 90/146/428 92/148/429
f 93/149/430 94/150/431 87/151/432
f 87/151/433 94/150/434 88/152/435
f 88/153/436 94/154/437 90/155/438
f 90/155/439 94/154/440 92/156/441
f 95/157/442 96/158/443 97/159/444
f 97/159/445 96/158/446 98/160/447
f 97/161/448 98/162/449 99/163/450
f 99/163/451 98/162/452 100/164/453
f 101/165/454 102/166/455 95/167/456
f 95/167/457 102/166/458 96/168/459
f 101/169/460 95/170/461 99/171/462
f 99/171/463 95/170/464 97/172/465
f 103/173/466 104/174/467 105/175/468
f 105/175/469 104/174/470 106/176/471
s 1
f 108/185/472 107/178/473 109/186/474
f 109/186/474 107/178/473 110/211/475
s 2
f 112/212/476 111/187/477 113/180/478
f 113/180/478 111/187/477 114/188/479
s 3
f 116/195/480 117/189/481 118/193/482
f 118/193/482 117/189/481 119/190/483
s 4
f 117/189/484 116/195/485 121/191/486
f 121/191/486 116/195/485 120/197/487
s 5
f 120/197/488 123/215/489 121/191/490
f 121/191/490 123/215/489 122/192/491
s off
f 116/195/492 118/193/493 108/194/494
f 116/195/495 108/194/496 109/209/497
f 116/195/498 114/196/499 120/197/500
f 114/196/501 111/198/502 120/197/503
f 120/197/504 111/198/505 123/215/506
f 117/199/507 121/201/508 84/200/509
f 84/200/510 121/201/511 83/202/512
f 121/203/513 122/181/514 83/204/515
f 119/205/516 117/206/517 86/207/518
f 86/207/519 117/206/520 84/208/521
s 6
f 115/210/522 114/196/523 109/209/524
f 109/209/524 114/196/523 116/195/525
s off
f 113/180/526 114/213/527 115/214/528
