# This file uses feet as units for non-parametric coordinates.

g default
v -39.707382 25.028061 2.180950
v -39.707382 25.028061 1.543545
v -39.069977 25.028061 2.180950
v -39.069977 25.028061 1.543545
v -39.707382 13.271488 1.543545
v -39.707382 13.271488 2.180950
v -39.069977 13.271488 2.180950
v -39.069977 13.271488 1.543537
v -39.813614 13.271492 1.862247
v -39.388680 13.271492 2.287182
v -38.963737 13.271492 1.862247
v -39.388680 25.028057 2.287182
v -38.963737 25.028061 1.862247
v -39.813614 25.028061 1.862247
v -41.603958 25.028061 2.180950
v -41.603958 25.028061 1.543545
v -40.966553 25.028061 2.180950
v -40.966560 25.028061 1.543545
v -41.603958 13.271488 1.543545
v -41.603958 13.271488 2.180950
v -40.966553 13.271488 2.180950
v -40.966560 13.271488 1.543545
v -41.710197 13.271492 1.862247
v -41.285263 13.271492 2.287182
v -40.860321 13.271492 1.862247
v -41.710197 25.028057 1.862247
v -41.285263 25.028057 2.287182
v -40.860321 25.028057 1.862247
v -40.645172 10.769131 -1.711895
v -40.645172 11.406532 -1.711895
v -40.007767 10.769131 -1.711895
v -40.007767 11.406532 -1.711895
v -40.645172 27.530422 -1.711895
v -40.645172 26.893017 -1.711895
v -40.007767 27.530422 -1.711895
v -40.007767 26.893017 -1.711895
v -40.645172 26.893013 1.014797
v -40.645172 27.530422 1.333500
v -40.007767 26.893013 1.014797
v -40.007767 27.530422 1.333500
v -40.751404 27.211720 -1.711895
v -39.901527 27.211720 -1.711895
v -40.326469 27.636654 -1.711895
v -40.645172 12.018612 1.543545
v -40.645172 11.699911 2.180950
v -40.007767 12.018612 1.543545
v -40.007767 11.699911 2.180950
v -40.645172 10.769131 1.333500
v -40.645172 11.406532 1.014797
v -40.007767 10.769131 1.333500
v -40.007767 11.406532 1.014797
v -40.751404 11.087830 -1.711895
v -39.901527 11.087830 -1.711895
v -40.326469 10.662895 -1.711895
v -40.645172 26.599636 2.180950
v -40.645172 26.280937 1.543545
v -40.007767 26.599640 2.180950
v -40.007767 26.280933 1.543545
v -40.751404 11.859261 1.862247
v -39.901527 11.859261 1.862247
v -40.326469 11.646793 2.287182
v -40.751404 11.087831 1.174152
v -39.901527 11.087831 1.174152
v -40.326469 10.662895 1.386623
v -40.751404 26.440289 1.862247
v -39.901527 26.440289 1.862247
v -40.326469 26.652756 2.287182
v -40.751404 27.211720 1.174152
v -39.901527 27.211720 1.174152
v -40.326469 27.636654 1.386623
v -0.011093 0.000000 -1.823540
v -44.671959 0.000000 -1.823540
v -0.011093 0.000000 -0.065857
v -44.671959 0.000000 -0.065857
v -0.011093 38.299545 -0.065857
v -44.671959 38.299545 -0.065857
v -0.011093 38.299545 -1.823540
v -44.671959 38.299545 -1.823540
v -0.917862 30.796646 0.081779
v -0.202209 30.796646 0.081779
v -0.917862 30.796650 -0.081787
v -0.202209 30.796650 -0.081787
v -0.917862 24.779545 0.081779
v -0.202209 24.779545 0.081779
v -0.917862 24.779545 -0.081787
v -0.202209 24.779545 -0.081787
v -0.202209 29.593227 0.081787
v -0.154495 29.593227 0.154488
v 0.000000 29.593227 0.218483
v -0.202209 29.593227 -0.081779
v 0.154495 29.593227 0.154488
v -0.154495 29.593227 -0.154488
v -0.202209 28.607624 -0.081787
v -0.202209 28.389805 0.081779
v 0.218475 29.593227 0.000000
v 0.000000 29.593227 -0.218475
v -0.202209 28.389809 -0.081787
v -0.154495 28.389809 0.154488
v 0.154495 29.593227 -0.154488
v -0.154495 28.389809 -0.154495
v 0.000000 28.389809 0.218475
v 0.000000 28.389809 -0.218483
v 0.154495 28.389809 0.154488
v 0.154495 28.389805 -0.154495
v 0.218475 28.389809 0.000000
v -0.202209 25.982967 0.081779
v -0.154495 25.982967 0.154488
v 0.000000 25.982967 0.218475
v -0.202209 25.982967 -0.081787
v 0.154495 25.982967 0.154488
v -0.154495 25.982967 -0.154495
v -0.202209 27.186386 -0.081779
v -0.202209 27.186386 0.081779
v 0.218475 25.982967 -0.000008
v 0.000000 25.982967 -0.218483
v -0.154495 27.186386 0.154488
v 0.154495 25.982967 -0.154915
v -0.154495 27.186386 -0.154488
v 0.000000 27.186386 0.218483
v 0.000000 27.186386 -0.218483
v 0.154495 27.186386 0.154488
v 0.154495 27.186386 -0.154488
v 0.218475 27.186386 0.000000
v -0.917862 11.066160 0.081779
v -0.202209 11.066160 0.081779
v -0.917862 11.066162 -0.081787
v -0.202209 11.066162 -0.081787
v -0.917862 5.049061 0.081779
v -0.202209 5.049061 0.081779
v -0.917862 5.049061 -0.081787
v -0.202209 5.049061 -0.081787
v -0.202209 9.862741 0.081787
v -0.154495 9.862743 0.154488
v 0.000000 9.862741 0.218483
v -0.202209 9.862741 -0.081779
v 0.154495 9.862743 0.154488
v -0.154495 9.862741 -0.154488
v -0.202209 8.877140 -0.081787
v -0.202209 8.659321 0.081779
v 0.218475 9.862743 0.000000
v 0.000000 9.862741 -0.218475
v -0.202209 8.659323 -0.081787
v -0.154495 8.659323 0.154488
v 0.154495 9.862741 -0.154488
v -0.154495 8.659323 -0.154495
v 0.000000 8.659323 0.218475
v 0.000000 8.659323 -0.218483
v 0.154495 8.659323 0.154488
v 0.154495 8.659321 -0.154495
v 0.218475 8.659323 0.000000
v -0.202209 6.252480 0.081779
v -0.154495 6.252481 0.154488
v 0.000000 6.252481 0.218475
v -0.202209 6.252481 -0.081787
v 0.154495 6.252481 0.154488
v -0.154495 6.252481 -0.154495
v -0.202209 7.455900 -0.081779
v -0.202209 7.455900 0.081779
v 0.218475 6.252481 -0.000008
v 0.000000 6.252480 -0.218483
v -0.154495 7.455900 0.154488
v 0.154495 6.252481 -0.154915
v -0.154495 7.455900 -0.154488
v 0.000000 7.455900 0.218483
v 0.000000 7.455900 -0.218483
v 0.154495 7.455900 0.154488
v 0.154495 7.455900 -0.154488
v 0.218475 7.455900 0.000000
v -43.494682 16.239403 -0.003628
v -37.158257 16.239403 -0.003628
v -43.494682 22.575832 -0.003628
v -37.158257 22.575832 -0.003628
vt 0.563365 0.289931
vt 0.563305 0.362776
vt 0.561269 0.289929
vt 0.561209 0.362775
vt 0.565385 0.290041
vt 0.565401 0.362776
vt 0.567416 0.290039
vt 0.567498 0.362775
vt 0.586165 0.281208
vt 0.585709 0.279646
vt 0.585709 0.282771
vt 0.584342 0.283292
vt 0.582974 0.279646
vt 0.582519 0.281208
vt 0.582974 0.282771
vt 0.559193 0.289981
vt 0.559113 0.362774
vt 0.557117 0.289924
vt 0.557016 0.362771
vt 0.573571 0.362766
vt 0.569594 0.362772
vt 0.573424 0.289917
vt 0.569448 0.289927
vt 0.565913 0.283565
vt 0.563946 0.284221
vt 0.565913 0.279633
vt 0.563946 0.278977
vt 0.561980 0.283565
vt 0.561325 0.281599
vt 0.561980 0.279633
vt 0.578012 0.362468
vt 0.578012 0.289835
vt 0.580087 0.362467
vt 0.580087 0.289836
vt 0.582162 0.362467
vt 0.582162 0.289837
vt 0.584237 0.362466
vt 0.584237 0.289837
vt 0.586313 0.362466
vt 0.586313 0.289838
vt 0.575937 0.362469
vt 0.573861 0.362469
vt 0.575937 0.289835
vt 0.573861 0.289835
vt 0.590251 0.362465
vt 0.590251 0.289839
vt 0.571481 0.283412
vt 0.571481 0.279482
vt 0.573447 0.284067
vt 0.573447 0.278827
vt 0.575412 0.283412
vt 0.576067 0.281447
vt 0.575412 0.279482
vt 0.586468 0.283306
vt 0.584504 0.283961
vt 0.586468 0.279377
vt 0.584504 0.278723
vt 0.582540 0.283306
vt 0.581885 0.281342
vt 0.582540 0.279377
vt 0.598822 0.233213
vt 0.599483 0.226073
vt 0.601002 0.232354
vt 0.601698 0.226572
vt 0.603103 0.231512
vt 0.603631 0.227044
vt 0.605148 0.231239
vt 0.605392 0.227260
vt 0.607190 0.231514
vt 0.607166 0.227265
vt 0.609141 0.227043
vt 0.609286 0.232357
vt 0.611391 0.226865
vt 0.611450 0.233208
vt 0.615730 0.227241
vt 0.615610 0.233183
vt 0.601003 0.323057
vt 0.603104 0.323900
vt 0.605148 0.324171
vt 0.607191 0.323896
vt 0.609286 0.323053
vt 0.611450 0.322201
vt 0.602186 0.209212
vt 0.604326 0.209286
vt 0.600042 0.209136
vt 0.612905 0.209745
vt 0.617041 0.210024
vt 0.608588 0.209491
vt 0.610740 0.209621
vt 0.606455 0.209371
vt 0.611392 0.328546
vt 0.609142 0.328367
vt 0.607166 0.328144
vt 0.615731 0.328169
vt 0.615611 0.322226
vt 0.601698 0.328838
vt 0.599484 0.329337
vt 0.598822 0.322198
vt 0.603631 0.328366
vt 0.610740 0.345789
vt 0.612905 0.345665
vt 0.608588 0.345919
vt 0.605392 0.328150
vt 0.602186 0.346198
vt 0.604326 0.346124
vt 0.600042 0.346273
vt 0.617041 0.345386
vt 0.606455 0.346039
vt 0.361449 0.004503
vt 0.368933 0.004503
vt 0.361449 0.179103
vt 0.368933 0.179103
vt 0.195760 0.004503
vt 0.358844 0.004503
vt 0.195760 0.179103
vt 0.358844 0.179103
vt 0.371525 0.004503
vt 0.379010 0.004503
vt 0.371525 0.179103
vt 0.379010 0.179103
vt 0.211367 0.346028
vt 0.203883 0.346028
vt 0.211367 0.182944
vt 0.203883 0.182944
vt 0.201900 0.346028
vt 0.194416 0.346028
vt 0.201900 0.182944
vt 0.194416 0.182944
vt 0.208232 0.174059
vt 0.209277 0.006710
vt 0.351745 0.174955
vt 0.352789 0.007606
vt 0.558462 0.486731
vt 0.546655 0.486731
vt 0.558462 0.387460
vt 0.546655 0.387460
vt 0.576683 0.486515
vt 0.573989 0.486515
vt 0.576683 0.387441
vt 0.573989 0.387441
vt 0.582932 0.387555
vt 0.582932 0.486576
vt 0.580236 0.387555
vt 0.580236 0.486576
vt 0.621732 0.436544
vt 0.621732 0.448119
vt 0.619090 0.436544
vt 0.619090 0.448119
vt 0.534447 0.387426
vt 0.534447 0.486703
vt 0.522640 0.387426
vt 0.522640 0.486703
vt 0.619090 0.460352
vt 0.619090 0.448784
vt 0.621740 0.460352
vt 0.621740 0.448784
vt 0.586100 0.456224
vt 0.587524 0.456224
vt 0.586100 0.475931
vt 0.587524 0.459792
vt 0.587524 0.475931
vt 0.583360 0.456224
vt 0.583360 0.475931
vt 0.611429 0.436802
vt 0.614184 0.436802
vt 0.611429 0.456623
vt 0.614184 0.456623
vt 0.608674 0.436802
vt 0.608674 0.456623
vt 0.605922 0.436802
vt 0.605922 0.456623
vt 0.603164 0.436802
vt 0.603164 0.456623
vt 0.600412 0.436802
vt 0.600412 0.456623
vt 0.598980 0.436802
vt 0.598980 0.456623
vt 0.618763 0.436300
vt 0.618763 0.456009
vt 0.617339 0.436300
vt 0.617339 0.456009
vt 0.614599 0.436300
vt 0.614602 0.456009
vt 0.595826 0.435865
vt 0.598580 0.435865
vt 0.595807 0.455686
vt 0.598562 0.455686
vt 0.593065 0.435865
vt 0.593054 0.455686
vt 0.590307 0.435865
vt 0.590302 0.455686
vt 0.587550 0.435865
vt 0.587550 0.455686
vt 0.584794 0.435865
vt 0.584799 0.455686
vt 0.583366 0.455686
vt 0.583360 0.435865
vt 0.558462 0.486731
vt 0.546655 0.486731
vt 0.558462 0.387460
vt 0.546655 0.387460
vt 0.576683 0.486515
vt 0.573989 0.486515
vt 0.576683 0.387441
vt 0.573989 0.387441
vt 0.582932 0.387555
vt 0.582932 0.486576
vt 0.580236 0.387555
vt 0.580236 0.486576
vt 0.621732 0.436544
vt 0.621732 0.448119
vt 0.619090 0.436544
vt 0.619090 0.448119
vt 0.534447 0.387426
vt 0.534447 0.486703
vt 0.522640 0.387426
vt 0.522640 0.486703
vt 0.619090 0.460352
vt 0.619090 0.448784
vt 0.621740 0.460352
vt 0.621740 0.448784
vt 0.586100 0.456224
vt 0.587524 0.456224
vt 0.586100 0.475931
vt 0.587524 0.459792
vt 0.587524 0.475931
vt 0.583360 0.456224
vt 0.583360 0.475931
vt 0.611429 0.436802
vt 0.614184 0.436802
vt 0.611429 0.456623
vt 0.614184 0.456623
vt 0.608674 0.436802
vt 0.608674 0.456623
vt 0.605922 0.436802
vt 0.605922 0.456623
vt 0.603164 0.436802
vt 0.603164 0.456623
vt 0.600412 0.436802
vt 0.600412 0.456623
vt 0.598980 0.436802
vt 0.598980 0.456623
vt 0.618763 0.436300
vt 0.618763 0.456009
vt 0.617339 0.436300
vt 0.617339 0.456009
vt 0.614599 0.436300
vt 0.614602 0.456009
vt 0.595826 0.435865
vt 0.598580 0.435865
vt 0.595807 0.455686
vt 0.598562 0.455686
vt 0.593065 0.435865
vt 0.593054 0.455686
vt 0.590307 0.435865
vt 0.590302 0.455686
vt 0.587550 0.435865
vt 0.587550 0.455686
vt 0.584794 0.435865
vt 0.584799 0.455686
vt 0.583366 0.455686
vt 0.583360 0.435865
vt 0.506814 0.206378
vt 0.550396 0.206378
vt 0.506814 0.249960
vt 0.550396 0.249960
vn 0.000000 0.000000 1.000000
vn -0.000000 0.000000 1.000000
vn -0.707106 0.000000 0.707108
vn -0.707106 0.000000 0.707108
vn -0.000000 0.000000 1.000000
vn -0.707105 0.000000 0.707109
vn 0.707099 0.000000 0.707115
vn 0.707099 0.000000 0.707115
vn 0.000000 0.000000 1.000000
vn 0.000000 0.000000 1.000000
vn 0.707099 0.000000 0.707115
vn -0.000000 0.000000 1.000000
vn 1.000000 0.000000 0.000002
vn 1.000000 0.000000 0.000000
vn 0.707099 0.000000 0.707115
vn 0.707099 0.000000 0.707115
vn 1.000000 0.000000 0.000000
vn 0.707099 0.000000 0.707115
vn -0.000036 -1.000000 0.000000
vn 0.000000 -1.000000 0.000003
vn 0.000009 -1.000000 0.000000
vn 0.000009 -1.000000 0.000000
vn 0.000000 -1.000000 0.000003
vn -0.000000 -1.000000 0.000002
vn -0.000000 -1.000000 0.000002
vn 0.000000 -1.000000 0.000003
vn -0.000000 -1.000000 0.000003
vn 0.000036 -1.000000 0.000000
vn -0.000009 -1.000000 0.000000
vn -0.000000 -1.000000 0.000003
vn -0.000000 -1.000000 0.000002
vn -0.000000 -1.000000 0.000003
vn -0.000009 -1.000000 0.000000
vn -1.000000 0.000000 0.000002
vn -1.000000 0.000000 0.000000
vn -0.948686 0.000000 -0.316221
vn -0.948686 0.000000 -0.316221
vn -1.000000 0.000000 0.000000
vn -0.948688 0.000000 -0.316214
vn 0.000000 0.000000 -1.000000
vn 0.393915 0.000000 -0.919147
vn 0.000000 0.000001 -1.000000
vn 0.000000 0.000001 -1.000000
vn 0.393915 0.000000 -0.919147
vn 0.393924 0.000001 -0.919143
vn 0.000000 1.000000 -0.000019
vn 0.000000 1.000000 0.000003
vn 0.000000 1.000000 -0.000002
vn 0.000000 1.000000 -0.000002
vn 0.000000 1.000000 0.000003
vn -0.000000 1.000000 0.000006
vn 0.000000 1.000000 0.000003
vn 0.000002 1.000000 0.000016
vn -0.000000 1.000000 0.000006
vn 0.000002 1.000000 0.000016
vn 0.000005 1.000000 0.000019
vn -0.000000 1.000000 0.000006
vn 0.000005 1.000000 0.000019
vn -0.000013 1.000000 0.000000
vn -0.000000 1.000000 0.000006
vn 0.393915 0.000000 -0.919147
vn 1.000000 0.000000 0.000000
vn 0.393924 0.000001 -0.919143
vn 0.393924 0.000001 -0.919143
vn 1.000000 0.000000 0.000000
vn 1.000000 0.000000 0.000002
vn -0.707105 0.000000 0.707109
vn -1.000000 0.000000 0.000000
vn -0.707106 0.000000 0.707108
vn -0.707106 0.000000 0.707108
vn -1.000000 0.000000 0.000000
vn -1.000000 0.000000 0.000002
vn -0.707106 0.000000 0.707107
vn -0.707111 0.000000 0.707102
vn 0.000000 0.000000 1.000000
vn 0.000000 0.000000 1.000000
vn -0.707111 0.000000 0.707102
vn 0.000000 0.000000 1.000000
vn 0.000000 0.000000 1.000000
vn 0.000000 0.000000 1.000000
vn 0.707099 0.000000 0.707114
vn 0.707099 0.000000 0.707114
vn 0.000000 0.000000 1.000000
vn 0.707104 0.000000 0.707109
vn 1.000000 0.000000 -0.000010
vn 1.000000 0.000000 -0.000014
vn 0.393917 0.000000 -0.919146
vn 0.393917 0.000000 -0.919146
vn 1.000000 0.000000 -0.000014
vn 0.393918 0.000000 -0.919146
vn 0.707099 0.000000 0.707114
vn 0.707104 0.000000 0.707109
vn 1.000000 0.000000 -0.000010
vn 1.000000 0.000000 -0.000010
vn 0.707104 0.000000 0.707109
vn 1.000000 0.000000 -0.000014
vn -1.000000 0.000000 0.000000
vn -0.948678 0.000000 -0.316243
vn -1.000000 0.000000 0.000002
vn -1.000000 0.000000 0.000002
vn -0.948678 0.000000 -0.316243
vn -0.948679 0.000000 -0.316242
vn -0.707106 0.000000 0.707107
vn -1.000000 0.000000 0.000000
vn -0.707111 0.000000 0.707102
vn -0.707111 0.000000 0.707102
vn -1.000000 0.000000 0.000000
vn -1.000000 0.000000 0.000002
vn 0.000000 0.000000 -1.000000
vn 0.393917 0.000000 -0.919146
vn 0.000000 0.000000 -1.000000
vn 0.000000 0.000000 -1.000000
vn 0.393917 0.000000 -0.919146
vn 0.393918 0.000000 -0.919146
vn 0.000000 -1.000000 0.000016
vn 0.000000 -1.000000 0.000014
vn 0.000000 -1.000000 0.000000
vn 0.000000 -1.000000 0.000014
vn -0.000000 -1.000000 0.000005
vn 0.000000 -1.000000 0.000000
vn 0.000000 -1.000000 0.000000
vn -0.000000 -1.000000 0.000005
vn 0.000002 -1.000000 -0.000007
vn 0.000002 -1.000000 -0.000007
vn -0.000000 -1.000000 0.000005
vn 0.000006 -1.000000 0.000006
vn 0.000006 -1.000000 0.000006
vn -0.000000 -1.000000 0.000005
vn -0.000018 -1.000000 -0.000032
vn 0.000000 1.000000 0.000019
vn 0.000000 1.000000 0.000005
vn 0.000000 1.000000 0.000002
vn 0.000000 1.000000 0.000002
vn 0.000000 1.000000 0.000005
vn -0.000000 1.000000 -0.000001
vn 0.000000 1.000000 0.000005
vn 0.000002 1.000000 0.000000
vn -0.000000 1.000000 -0.000001
vn 0.000002 1.000000 0.000000
vn 0.000006 1.000000 0.000000
vn -0.000000 1.000000 -0.000001
vn 0.000006 1.000000 0.000000
vn -0.000018 1.000000 0.000000
vn -0.000000 1.000000 -0.000001
vn -0.950097 0.009790 -0.311801
vn -0.955675 0.288488 -0.058821
vn -0.995841 -0.003383 0.091042
vn -0.995841 -0.003383 0.091042
vn -0.955675 0.288488 -0.058821
vn -0.995610 -0.091290 0.020645
vn -0.995841 -0.003383 0.091042
vn -0.995610 -0.091290 0.020645
vn -0.634264 -0.040040 0.772079
vn -0.634264 -0.040040 0.772079
vn -0.995610 -0.091290 0.020645
vn -0.662479 -0.727802 0.177272
vn -0.634264 -0.040040 0.772079
vn -0.662479 -0.727802 0.177272
vn -0.000002 -0.055810 0.998441
vn -0.000002 -0.055810 0.998441
vn -0.662479 -0.727802 0.177272
vn -0.000003 -0.970083 0.242775
vn 0.634259 -0.040041 0.772083
vn -0.000002 -0.055810 0.998441
vn 0.662461 -0.727820 0.177268
vn 0.662461 -0.727820 0.177268
vn -0.000002 -0.055810 0.998441
vn -0.000003 -0.970083 0.242775
vn 0.662461 -0.727820 0.177268
vn 0.995611 -0.091280 0.020646
vn 0.634259 -0.040041 0.772083
vn 0.634259 -0.040041 0.772083
vn 0.995611 -0.091280 0.020646
vn 0.995841 -0.003383 0.091047
vn 0.995611 -0.091280 0.020646
vn 0.520423 0.838748 -0.160192
vn 0.995841 -0.003383 0.091047
vn 0.995841 -0.003383 0.091047
vn 0.520423 0.838748 -0.160192
vn 0.477585 0.030563 -0.878054
vn 0.000000 0.982780 -0.184780
vn 0.000000 0.035525 -0.999369
vn 0.520423 0.838748 -0.160192
vn 0.520423 0.838748 -0.160192
vn 0.000000 0.035525 -0.999369
vn 0.477585 0.030563 -0.878054
vn -0.995841 -0.003383 0.091042
vn -0.634264 -0.040040 0.772079
vn -0.995269 0.003361 0.097100
vn -0.995269 0.003361 0.097100
vn -0.634264 -0.040040 0.772079
vn -0.639002 0.039913 0.768169
vn -0.000002 -0.055810 0.998441
vn 0.000009 0.056176 0.998421
vn -0.634264 -0.040040 0.772079
vn -0.634264 -0.040040 0.772079
vn 0.000009 0.056176 0.998421
vn -0.639002 0.039913 0.768169
vn -0.000002 -0.055810 0.998441
vn 0.634259 -0.040041 0.772083
vn 0.000009 0.056176 0.998421
vn 0.000009 0.056176 0.998421
vn 0.634259 -0.040041 0.772083
vn 0.639003 0.039914 0.768168
vn 0.995841 -0.003383 0.091047
vn 0.477585 0.030563 -0.878054
vn 0.995269 0.003362 0.097104
vn 0.995269 0.003362 0.097104
vn 0.477585 0.030563 -0.878054
vn 0.471345 -0.030794 -0.881411
vn 0.995841 -0.003383 0.091047
vn 0.995269 0.003362 0.097104
vn 0.634259 -0.040041 0.772083
vn 0.634259 -0.040041 0.772083
vn 0.995269 0.003362 0.097104
vn 0.639003 0.039914 0.768168
vn -0.999962 -0.008728 0.000000
vn -0.698259 -0.715845 0.000000
vn -0.995610 -0.091290 0.020645
vn -0.995610 -0.091290 0.020645
vn -0.698259 -0.715845 0.000000
vn -0.662479 -0.727802 0.177272
vn -0.995610 -0.091290 0.020645
vn -0.955675 0.288488 -0.058821
vn -0.999962 -0.008728 0.000000
vn -0.999962 -0.008728 0.000000
vn -0.955675 0.288488 -0.058821
vn -0.948682 0.316233 0.000000
vn 0.393923 0.919143 0.000000
vn 0.000000 1.000000 0.000000
vn 0.520423 0.838748 -0.160192
vn 0.520423 0.838748 -0.160192
vn 0.000000 1.000000 0.000000
vn 0.000000 0.982780 -0.184780
vn 0.662461 -0.727820 0.177268
vn 0.698259 -0.715846 0.000000
vn 0.995611 -0.091280 0.020646
vn 0.995611 -0.091280 0.020646
vn 0.698259 -0.715846 0.000000
vn 0.999962 -0.008742 0.000000
vn 0.995611 -0.091280 0.020646
vn 0.999962 -0.008742 0.000000
vn 0.520423 0.838748 -0.160192
vn 0.520423 0.838748 -0.160192
vn 0.999962 -0.008742 0.000000
vn 0.393923 0.919143 0.000000
vn 0.698259 -0.715846 0.000000
vn 0.662461 -0.727820 0.177268
vn -0.000000 -1.000000 0.000000
vn -0.000000 -1.000000 0.000000
vn 0.662461 -0.727820 0.177268
vn -0.000003 -0.970083 0.242775
vn -0.000003 -0.970083 0.242775
vn -0.662479 -0.727802 0.177272
vn -0.000000 -1.000000 0.000000
vn -0.000000 -1.000000 0.000000
vn -0.662479 -0.727802 0.177272
vn -0.698259 -0.715845 0.000000
vn 0.471345 -0.030794 -0.881411
vn 0.520425 -0.838747 -0.160193
vn 0.995269 0.003362 0.097104
vn 0.995269 0.003362 0.097104
vn 0.520425 -0.838747 -0.160193
vn 0.995611 0.091278 0.020648
vn 0.995269 0.003362 0.097104
vn 0.995611 0.091278 0.020648
vn 0.639003 0.039914 0.768168
vn 0.639003 0.039914 0.768168
vn 0.995611 0.091278 0.020648
vn 0.662458 0.727822 0.177271
vn 0.520425 -0.838747 -0.160193
vn 0.471345 -0.030794 -0.881411
vn -0.000001 -0.982779 -0.184783
vn -0.000001 -0.982779 -0.184783
vn 0.471345 -0.030794 -0.881411
vn -0.000000 -0.035525 -0.999369
vn -0.995610 0.091292 0.020646
vn -0.955676 -0.288484 -0.058819
vn -0.995269 0.003361 0.097100
vn -0.995269 0.003361 0.097100
vn -0.955676 -0.288484 -0.058819
vn -0.950129 -0.009996 -0.311698
vn -0.662475 0.727806 0.177272
vn -0.995610 0.091292 0.020646
vn -0.639002 0.039913 0.768169
vn -0.639002 0.039913 0.768169
vn -0.995610 0.091292 0.020646
vn -0.995269 0.003361 0.097100
vn 0.995611 0.091278 0.020648
vn 0.520425 -0.838747 -0.160193
vn 0.999962 0.008741 -0.000000
vn 0.999962 0.008741 -0.000000
vn 0.520425 -0.838747 -0.160193
vn 0.393924 -0.919143 -0.000001
vn 0.662458 0.727822 0.177271
vn 0.995611 0.091278 0.020648
vn 0.698259 0.715846 0.000000
vn 0.698259 0.715846 0.000000
vn 0.995611 0.091278 0.020648
vn 0.999962 0.008741 -0.000000
vn 0.000002 0.970082 0.242778
vn -0.662475 0.727806 0.177272
vn 0.000009 0.056176 0.998421
vn 0.000009 0.056176 0.998421
vn -0.662475 0.727806 0.177272
vn -0.639002 0.039913 0.768169
vn 0.639003 0.039914 0.768168
vn 0.662458 0.727822 0.177271
vn 0.000009 0.056176 0.998421
vn 0.000009 0.056176 0.998421
vn 0.662458 0.727822 0.177271
vn 0.000002 0.970082 0.242778
vn -0.995841 -0.003383 0.091042
vn -0.995269 0.003361 0.097100
vn -0.950097 0.009790 -0.311801
vn -0.950097 0.009790 -0.311801
vn -0.995269 0.003361 0.097100
vn -0.950129 -0.009996 -0.311698
vn -0.000000 -0.035525 -0.999369
vn 0.471345 -0.030794 -0.881411
vn 0.000000 0.035525 -0.999369
vn 0.000000 0.035525 -0.999369
vn 0.471345 -0.030794 -0.881411
vn 0.477585 0.030563 -0.878054
vn -0.999962 0.008728 0.000000
vn -0.995610 0.091292 0.020646
vn -0.698258 0.715846 0.000000
vn -0.698258 0.715846 0.000000
vn -0.995610 0.091292 0.020646
vn -0.662475 0.727806 0.177272
vn -0.948682 -0.316233 0.000000
vn -0.955676 -0.288484 -0.058819
vn -0.999962 0.008728 0.000000
vn -0.999962 0.008728 0.000000
vn -0.955676 -0.288484 -0.058819
vn -0.995610 0.091292 0.020646
vn 0.000000 -1.000000 0.000000
vn 0.393924 -0.919143 -0.000001
vn -0.000001 -0.982779 -0.184783
vn -0.000001 -0.982779 -0.184783
vn 0.393924 -0.919143 -0.000001
vn 0.520425 -0.838747 -0.160193
vn 0.698259 0.715846 0.000000
vn 0.000000 1.000000 0.000000
vn 0.662458 0.727822 0.177271
vn 0.662458 0.727822 0.177271
vn 0.000000 1.000000 0.000000
vn 0.000002 0.970082 0.242778
vn -0.698258 0.715846 0.000000
vn -0.662475 0.727806 0.177272
vn 0.000000 1.000000 0.000000
vn 0.000000 1.000000 0.000000
vn -0.662475 0.727806 0.177272
vn 0.000002 0.970082 0.242778
vn 0.000000 -1.000000 0.000000
vn 0.000000 -1.000000 0.000000
vn 0.000000 -1.000000 0.000000
vn 0.000000 -1.000000 0.000000
vn 0.000000 -1.000000 0.000000
vn 0.000000 -1.000000 0.000000
vn 0.000000 0.000000 1.000000
vn 0.000000 0.000000 1.000000
vn 0.000000 0.000000 1.000000
vn 0.000000 0.000000 1.000000
vn 0.000000 0.000000 1.000000
vn 0.000000 0.000000 1.000000
vn 0.000000 1.000000 0.000000
vn 0.000000 1.000000 0.000000
vn 0.000000 1.000000 0.000000
vn 0.000000 1.000000 0.000000
vn 0.000000 1.000000 0.000000
vn 0.000000 1.000000 0.000000
vn -1.000000 0.000000 0.000000
vn -1.000000 0.000000 0.000000
vn -1.000000 0.000000 0.000000
vn -1.000000 0.000000 0.000000
vn -1.000000 0.000000 0.000000
vn -1.000000 0.000000 0.000000
vn 1.000000 0.000000 0.000000
vn 1.000000 0.000000 0.000000
vn 1.000000 0.000000 0.000000
vn 1.000000 0.000000 0.000000
vn 1.000000 0.000000 0.000000
vn 1.000000 0.000000 0.000000
vn 0.000000 0.000000 -1.000000
vn 0.000000 0.000000 -1.000000
vn 0.000000 0.000000 -1.000000
vn 0.000000 0.000000 -1.000000
vn 0.000000 0.000000 -1.000000
vn 0.000000 0.000000 -1.000000
vn 0.000000 0.000000 1.000000
vn 0.000000 0.000000 1.000000
vn 0.000000 0.000000 1.000000
vn 0.000000 0.000000 1.000000
vn 0.000000 0.000000 1.000000
vn 0.000000 0.000000 1.000000
vn -1.000000 0.000000 0.000000
vn -1.000000 0.000000 0.000000
vn -1.000000 0.000000 0.000000
vn -1.000000 0.000000 0.000000
vn -1.000000 0.000000 0.000000
vn -1.000000 0.000000 0.000000
vn 1.000000 0.000000 0.000000
vn 1.000000 0.000000 0.000000
vn 1.000000 0.000000 0.000000
vn 1.000000 0.000000 0.000000
vn 1.000000 0.000000 0.000000
vn 1.000000 0.000000 0.000000
vn 0.000000 -1.000000 0.000000
vn 0.000000 -1.000000 0.000000
vn 0.000000 -1.000000 0.000000
vn 0.000000 -1.000000 0.000000
vn 0.000000 -1.000000 0.000000
vn 0.000000 -1.000000 0.000000
vn 0.000000 0.000000 -1.000000
vn 0.000000 0.000000 -1.000000
vn 0.000000 0.000000 -1.000000
vn 0.000000 0.000000 -1.000000
vn 0.000000 0.000000 -1.000000
vn 0.000000 0.000000 -1.000000
vn 0.000000 1.000000 0.000065
vn 0.000000 1.000000 0.000009
vn 0.000000 1.000000 0.000056
vn 0.000000 1.000000 0.000056
vn 0.000000 1.000000 0.000009
vn 0.000000 1.000000 0.000000
vn -0.560052 0.000006 -0.828458
vn -0.836059 0.000005 -0.548640
vn -0.538217 0.000007 -0.842806
vn -0.836059 0.000005 -0.548640
vn -0.836079 0.000000 -0.548609
vn -0.538217 0.000007 -0.842806
vn -0.836079 0.000000 -0.548609
vn -0.836056 0.000000 -0.548645
vn -0.538217 0.000007 -0.842806
vn -0.382647 0.000005 -0.923895
vn -0.560052 0.000006 -0.828458
vn -0.382650 0.000009 -0.923893
vn -0.382650 0.000009 -0.923893
vn -0.560052 0.000006 -0.828458
vn -0.538217 0.000007 -0.842806
vn 0.707112 0.000004 -0.707102
vn 0.382646 0.000007 -0.923895
vn 0.707117 0.000000 -0.707096
vn 0.707117 0.000000 -0.707096
vn 0.382646 0.000007 -0.923895
vn 0.382650 0.000000 -0.923893
vn 1.000000 0.000000 -0.000003
vn 0.707112 0.000004 -0.707102
vn 1.000000 0.000000 -0.000001
vn 1.000000 0.000000 -0.000001
vn 0.707112 0.000004 -0.707102
vn 0.707117 0.000000 -0.707096
vn 0.707105 -0.000002 0.707109
vn 1.000000 0.000000 -0.000003
vn 0.707118 0.000000 0.707096
vn 0.707118 0.000000 0.707096
vn 1.000000 0.000000 -0.000003
vn 1.000000 0.000000 -0.000001
vn -0.000002 -0.000003 1.000000
vn 0.707105 -0.000002 0.707109
vn -0.000002 -0.000005 1.000000
vn -0.000002 -0.000005 1.000000
vn 0.707105 -0.000002 0.707109
vn 0.707118 0.000000 0.707096
vn -0.560060 0.000000 0.828452
vn -0.000002 -0.000003 1.000000
vn -0.560037 -0.000006 0.828467
vn -0.560037 -0.000006 0.828467
vn -0.000002 -0.000003 1.000000
vn -0.000002 -0.000005 1.000000
vn -0.560060 0.000000 0.828452
vn -0.560037 -0.000006 0.828467
vn -0.836065 -0.000000 0.548630
vn -0.836065 -0.000000 0.548630
vn -0.560037 -0.000006 0.828467
vn -0.836014 -0.000002 0.548707
vn -0.836039 0.000000 -0.548671
vn -0.836058 0.000005 -0.548642
vn -0.560038 0.000001 -0.828467
vn -0.560038 0.000001 -0.828467
vn -0.836058 0.000005 -0.548642
vn -0.560072 0.000008 -0.828444
vn -0.382649 0.000000 -0.923894
vn -0.560038 0.000001 -0.828467
vn -0.382678 0.000009 -0.923882
vn -0.382678 0.000009 -0.923882
vn -0.560038 0.000001 -0.828467
vn -0.560072 0.000008 -0.828444
vn 0.707003 0.000191 -0.707210
vn 0.380701 0.000302 -0.924698
vn 0.707099 0.000088 -0.707115
vn 0.707099 0.000088 -0.707115
vn 0.380701 0.000302 -0.924698
vn 0.382681 0.000000 -0.923881
vn 1.000000 0.000006 -0.000001
vn 0.707003 0.000191 -0.707210
vn 1.000000 0.000056 0.000002
vn 1.000000 0.000056 0.000002
vn 0.707003 0.000191 -0.707210
vn 0.707099 0.000088 -0.707115
vn 0.707128 -0.000002 0.707086
vn 1.000000 0.000006 -0.000001
vn 0.707118 -0.000009 0.707096
vn 0.707118 -0.000009 0.707096
vn 1.000000 0.000006 -0.000001
vn 1.000000 0.000056 0.000002
vn -0.000002 -0.000003 1.000000
vn 0.707128 -0.000002 0.707086
vn -0.000002 -0.000005 1.000000
vn -0.000002 -0.000005 1.000000
vn 0.707128 -0.000002 0.707086
vn 0.707118 -0.000009 0.707096
vn -0.560054 0.000000 0.828456
vn -0.000002 -0.000003 1.000000
vn -0.560070 -0.000006 0.828445
vn -0.560070 -0.000006 0.828445
vn -0.000002 -0.000003 1.000000
vn -0.000002 -0.000005 1.000000
vn -0.836058 0.000000 0.548641
vn -0.836060 0.000000 0.548637
vn -0.560070 -0.000006 0.828445
vn -0.560070 -0.000006 0.828445
vn -0.836060 0.000000 0.548637
vn -0.560054 0.000000 0.828456
vn 0.000000 0.000000 1.000000
vn 0.000000 0.000000 1.000000
vn 0.000000 0.000000 1.000000
vn 0.000000 0.000000 1.000000
vn 0.000000 0.000000 1.000000
vn 0.000000 0.000000 1.000000
vn -1.000000 0.000000 0.000000
vn -1.000000 0.000000 0.000000
vn -1.000000 0.000000 0.000000
vn -1.000000 0.000000 0.000000
vn -1.000000 0.000000 0.000000
vn -1.000000 0.000000 0.000000
vn 1.000000 0.000000 0.000000
vn 1.000000 0.000000 0.000000
vn 1.000000 0.000000 0.000000
vn 1.000000 0.000000 0.000000
vn 1.000000 0.000000 0.000000
vn 1.000000 0.000000 0.000000
vn 0.000000 -1.000000 0.000000
vn 0.000000 -1.000000 0.000000
vn 0.000000 -1.000000 0.000000
vn 0.000000 -1.000000 0.000000
vn 0.000000 -1.000000 0.000000
vn 0.000000 -1.000000 0.000000
vn 0.000000 0.000000 -1.000000
vn 0.000000 0.000000 -1.000000
vn 0.000000 0.000000 -1.000000
vn 0.000000 0.000000 -1.000000
vn 0.000000 0.000000 -1.000000
vn 0.000000 0.000000 -1.000000
vn 0.000000 1.000000 0.000016
vn 0.000000 1.000000 0.000002
vn 0.000000 1.000000 0.000014
vn 0.000000 1.000000 0.000014
vn 0.000000 1.000000 0.000002
vn 0.000000 1.000000 0.000000
vn -0.560054 0.000006 -0.828456
vn -0.836058 0.000005 -0.548640
vn -0.538216 0.000007 -0.842807
vn -0.836058 0.000005 -0.548640
vn -0.835965 0.000000 -0.548783
vn -0.538216 0.000007 -0.842807
vn -0.835965 0.000000 -0.548783
vn -0.836057 0.000000 -0.548643
vn -0.538216 0.000007 -0.842807
vn -0.382649 0.000005 -0.923894
vn -0.560054 0.000006 -0.828456
vn -0.382649 0.000009 -0.923894
vn -0.382649 0.000009 -0.923894
vn -0.560054 0.000006 -0.828456
vn -0.538216 0.000007 -0.842807
vn 0.707113 0.000004 -0.707100
vn 0.382648 0.000007 -0.923894
vn 0.707109 0.000000 -0.707105
vn 0.707109 0.000000 -0.707105
vn 0.382648 0.000007 -0.923894
vn 0.382649 0.000000 -0.923894
vn 1.000000 0.000000 -0.000002
vn 0.707113 0.000004 -0.707100
vn 1.000000 0.000000 0.000004
vn 1.000000 0.000000 0.000004
vn 0.707113 0.000004 -0.707100
vn 0.707109 0.000000 -0.707105
vn 0.707107 -0.000002 0.707107
vn 1.000000 0.000000 -0.000002
vn 0.707123 0.000000 0.707091
vn 0.707123 0.000000 0.707091
vn 1.000000 0.000000 -0.000002
vn 1.000000 0.000000 0.000004
vn -0.000003 -0.000003 1.000000
vn 0.707107 -0.000002 0.707107
vn -0.000003 -0.000005 1.000000
vn -0.000003 -0.000005 1.000000
vn 0.707107 -0.000002 0.707107
vn 0.707123 0.000000 0.707091
vn -0.560052 0.000000 0.828457
vn -0.000003 -0.000003 1.000000
vn -0.560048 -0.000006 0.828460
vn -0.560048 -0.000006 0.828460
vn -0.000003 -0.000003 1.000000
vn -0.000003 -0.000005 1.000000
vn -0.560052 0.000000 0.828457
vn -0.560048 -0.000006 0.828460
vn -0.836050 -0.000000 0.548653
vn -0.836050 -0.000000 0.548653
vn -0.560048 -0.000006 0.828460
vn -0.836015 -0.000002 0.548707
vn -0.836038 0.000000 -0.548672
vn -0.836059 0.000005 -0.548640
vn -0.560053 0.000001 -0.828457
vn -0.560053 0.000001 -0.828457
vn -0.836059 0.000005 -0.548640
vn -0.560073 0.000008 -0.828443
vn -0.382680 0.000000 -0.923881
vn -0.560053 0.000001 -0.828457
vn -0.382682 0.000009 -0.923880
vn -0.382682 0.000009 -0.923880
vn -0.560053 0.000001 -0.828457
vn -0.560073 0.000008 -0.828443
vn 0.707001 0.000191 -0.707212
vn 0.380703 0.000302 -0.924697
vn 0.707108 0.000088 -0.707105
vn 0.707108 0.000088 -0.707105
vn 0.380703 0.000302 -0.924697
vn 0.382714 0.000000 -0.923867
vn 1.000000 0.000006 -0.000002
vn 0.707001 0.000191 -0.707212
vn 1.000000 0.000056 0.000002
vn 1.000000 0.000056 0.000002
vn 0.707001 0.000191 -0.707212
vn 0.707108 0.000088 -0.707105
vn 0.707127 -0.000002 0.707086
vn 1.000000 0.000006 -0.000002
vn 0.707118 -0.000009 0.707095
vn 0.707118 -0.000009 0.707095
vn 1.000000 0.000006 -0.000002
vn 1.000000 0.000056 0.000002
vn -0.000002 -0.000003 1.000000
vn 0.707127 -0.000002 0.707086
vn -0.000002 -0.000005 1.000000
vn -0.000002 -0.000005 1.000000
vn 0.707127 -0.000002 0.707086
vn 0.707118 -0.000009 0.707095
vn -0.560053 0.000000 0.828457
vn -0.000002 -0.000003 1.000000
vn -0.560071 -0.000006 0.828445
vn -0.560071 -0.000006 0.828445
vn -0.000002 -0.000003 1.000000
vn -0.000002 -0.000005 1.000000
vn -0.836060 0.000000 0.548638
vn -0.836059 0.000000 0.548640
vn -0.560071 -0.000006 0.828445
vn -0.560071 -0.000006 0.828445
vn -0.836059 0.000000 0.548640
vn -0.560053 0.000000 0.828457
vn 0.000000 0.000000 1.000000
vn 0.000000 0.000000 1.000000
vn 0.000000 0.000000 1.000000
vn 0.000000 0.000000 1.000000
vn 0.000000 0.000000 1.000000
vn 0.000000 0.000000 1.000000
s off
g SM_Shelf_Cab_01e
f 10/1/1 12/2/2 6/3/3
f 6/3/4 12/2/5 1/4/6
f 7/5/7 3/6/8 10/1/9
f 10/1/10 3/6/11 12/2/12
f 11/7/13 13/8/14 7/5/15
f 7/5/16 13/8/17 3/6/18
f 9/9/19 5/10/20 6/11/21
f 6/11/22 5/10/23 10/12/24
f 10/12/25 5/10/26 8/13/27
f 11/14/28 7/15/29 8/13/30
f 10/12/31 8/13/32 7/15/33
f 9/16/34 14/17/35 5/18/36
f 5/18/37 14/17/38 2/19/39
f 2/20/40 4/21/41 5/22/42
f 5/22/43 4/21/44 8/23/45
f 2/24/46 14/25/47 4/26/48
f 4/26/49 14/25/50 13/27/51
f 14/25/52 1/28/53 13/27/54
f 1/28/55 12/29/56 13/27/57
f 12/29/58 3/30/59 13/27/60
f 4/21/61 13/8/62 8/23/63
f 8/23/64 13/8/65 11/7/66
f 1/4/67 14/17/68 6/3/69
f 6/3/70 14/17/71 9/16/72
f 15/31/73 20/32/74 27/33/75
f 27/33/76 20/32/77 24/34/78
f 27/33/79 24/34/80 17/35/81
f 17/35/82 24/34/83 21/36/84
f 28/37/85 25/38/86 18/39/87
f 18/39/88 25/38/89 22/40/90
f 17/35/91 21/36/92 28/37/93
f 28/37/94 21/36/95 25/38/96
f 26/41/97 16/42/98 23/43/99
f 23/43/100 16/42/101 19/44/102
f 15/31/103 26/41/104 20/32/105
f 20/32/106 26/41/107 23/43/108
f 16/45/109 18/39/110 19/46/111
f 19/46/112 18/39/113 22/40/114
f 19/47/115 22/48/116 23/49/117
f 22/48/118 25/50/119 23/49/120
f 23/49/121 25/50/122 20/51/123
f 20/51/124 25/50/125 24/52/126
f 24/52/127 25/50/128 21/53/129
f 16/54/130 26/55/131 18/56/132
f 18/56/133 26/55/134 28/57/135
f 26/55/136 15/58/137 28/57/138
f 15/58/139 27/59/140 28/57/141
f 27/59/142 17/60/143 28/57/144
f 44/61/145 49/62/146 59/63/147
f 59/63/148 49/62/149 62/64/150
f 59/63/151 62/64/152 45/65/153
f 45/65/154 62/64/155 48/66/156
f 45/65/157 48/66/158 61/67/159
f 61/67/160 48/66/161 64/68/162
f 47/69/163 61/67/164 50/70/165
f 50/70/166 61/67/167 64/68/168
f 50/70/169 63/71/170 47/69/171
f 47/69/172 63/71/173 60/72/174
f 63/71/175 51/73/176 60/72/177
f 60/72/178 51/73/179 46/74/180
f 49/75/181 44/76/182 51/73/183
f 51/73/184 44/76/185 46/74/186
f 59/63/187 45/65/188 65/77/189
f 65/77/190 45/65/191 55/78/192
f 61/67/193 67/79/194 45/65/195
f 45/65/196 67/79/197 55/78/198
f 61/67/199 47/69/200 67/79/201
f 67/79/202 47/69/203 57/80/204
f 60/72/205 46/74/206 66/81/207
f 66/81/208 46/74/209 58/82/210
f 60/72/211 66/81/212 47/69/213
f 47/69/214 66/81/215 57/80/216
f 52/83/217 29/84/218 62/64/219
f 62/64/220 29/84/221 48/66/222
f 62/64/223 49/62/224 52/83/225
f 52/83/226 49/62/227 30/85/228
f 32/86/229 30/87/230 51/73/231
f 51/73/232 30/87/233 49/75/234
f 50/70/235 31/88/236 63/71/237
f 63/71/238 31/88/239 53/89/240
f 63/71/241 53/89/242 51/73/243
f 51/73/244 53/89/245 32/86/246
f 31/88/247 50/70/248 54/90/249
f 54/90/250 50/70/251 64/68/252
f 64/68/253 48/66/254 54/90/255
f 54/90/256 48/66/257 29/84/258
f 58/82/259 39/91/260 66/81/261
f 66/81/262 39/91/263 69/92/264
f 66/81/265 69/92/266 57/80/267
f 57/80/268 69/92/269 40/93/270
f 39/91/271 58/82/272 37/94/273
f 37/94/274 58/82/275 56/95/276
f 68/96/277 37/97/278 65/77/279
f 65/77/280 37/97/281 56/98/282
f 38/99/283 68/96/284 55/78/285
f 55/78/286 68/96/287 65/77/288
f 69/92/289 39/91/290 42/100/291
f 42/100/292 39/91/293 36/101/294
f 40/93/295 69/92/296 35/102/297
f 35/102/298 69/92/299 42/100/300
f 70/103/301 38/99/302 67/79/303
f 67/79/304 38/99/305 55/78/306
f 57/80/307 40/93/308 67/79/309
f 67/79/310 40/93/311 70/103/312
f 59/63/313 65/77/314 44/61/315
f 44/61/316 65/77/317 56/98/318
f 56/95/319 58/82/320 44/76/321
f 44/76/322 58/82/323 46/74/324
f 41/104/325 68/96/326 33/105/327
f 33/105/328 68/96/329 38/99/330
f 34/106/331 37/97/332 41/104/333
f 41/104/334 37/97/335 68/96/336
f 34/107/337 36/101/338 37/94/339
f 37/94/340 36/101/341 39/91/342
f 35/102/343 43/108/344 40/93/345
f 40/93/346 43/108/347 70/103/348
f 33/105/349 38/99/350 43/108/351
f 43/108/352 38/99/353 70/103/354
f 71/109/355 73/110/356 72/111/357
f 72/111/358 73/110/359 74/112/360
f 73/113/361 75/114/362 74/115/363
f 74/115/364 75/114/365 76/116/366
f 75/117/367 77/118/368 76/119/369
f 76/119/370 77/118/371 78/120/372
f 76/121/373 78/122/374 74/123/375
f 74/123/376 78/122/377 72/124/378
f 77/125/379 75/126/380 71/127/381
f 71/127/382 75/126/383 73/128/384
f 78/129/385 77/130/386 72/131/387
f 72/131/388 77/130/389 71/132/390
f 80/133/391 79/134/392 84/135/393
f 84/135/394 79/134/395 83/136/396
f 79/137/397 81/138/398 83/139/399
f 83/139/400 81/138/401 85/140/402
f 86/141/403 82/142/404 84/143/405
f 84/143/406 82/142/407 80/144/408
f 84/145/409 83/146/410 86/147/411
f 86/147/412 83/146/413 85/148/414
f 82/149/415 86/150/416 81/151/417
f 81/151/418 86/150/419 85/152/420
f 79/153/421 80/154/422 81/155/423
f 81/155/424 80/154/425 82/156/426
f 100/157/427 97/158/428 92/159/429
f 97/158/430 93/160/431 92/159/432
f 93/160/433 90/161/434 92/159/435
f 102/162/436 100/157/437 96/163/438
f 96/163/439 100/157/440 92/159/441
f 104/164/442 102/165/443 99/166/444
f 99/166/445 102/165/446 96/167/447
f 105/168/448 104/164/449 95/169/450
f 95/169/451 104/164/452 99/166/453
f 103/170/454 105/168/455 91/171/456
f 91/171/457 105/168/458 95/169/459
f 101/172/460 103/170/461 89/173/462
f 89/173/463 103/170/464 91/171/465
f 98/174/466 101/172/467 88/175/468
f 88/175/469 101/172/470 89/173/471
f 98/174/472 88/175/473 94/176/474
f 94/176/475 88/175/476 87/177/477
f 109/178/478 112/179/479 111/180/480
f 111/180/481 112/179/482 118/181/483
f 115/182/484 111/180/485 120/183/486
f 120/183/487 111/180/488 118/181/489
f 117/184/490 115/185/491 122/186/492
f 122/186/493 115/185/494 120/187/495
f 114/188/496 117/184/497 123/189/498
f 123/189/499 117/184/500 122/186/501
f 110/190/502 114/188/503 121/191/504
f 121/191/505 114/188/506 123/189/507
f 108/192/508 110/190/509 119/193/510
f 119/193/511 110/190/512 121/191/513
f 107/194/514 108/192/515 116/195/516
f 116/195/517 108/192/518 119/193/519
f 113/196/520 106/197/521 116/195/522
f 116/195/523 106/197/524 107/194/525
f 125/198/526 124/199/527 129/200/528
f 129/200/529 124/199/530 128/201/531
f 124/202/532 126/203/533 128/204/534
f 128/204/535 126/203/536 130/205/537
f 131/206/538 127/207/539 129/208/540
f 129/208/541 127/207/542 125/209/543
f 129/210/544 128/211/545 131/212/546
f 131/212/547 128/211/548 130/213/549
f 127/214/550 131/215/551 126/216/552
f 126/216/553 131/215/554 130/217/555
f 124/218/556 125/219/557 126/220/558
f 126/220/559 125/219/560 127/221/561
f 145/222/562 142/223/563 137/224/564
f 142/223/565 138/225/566 137/224/567
f 138/225/568 135/226/569 137/224/570
f 147/227/571 145/222/572 141/228/573
f 141/228/574 145/222/575 137/224/576
f 149/229/577 147/230/578 144/231/579
f 144/231/580 147/230/581 141/232/582
f 150/233/583 149/229/584 140/234/585
f 140/234/586 149/229/587 144/231/588
f 148/235/589 150/233/590 136/236/591
f 136/236/592 150/233/593 140/234/594
f 146/237/595 148/235/596 134/238/597
f 134/238/598 148/235/599 136/236/600
f 143/239/601 146/237/602 133/240/603
f 133/240/604 146/237/605 134/238/606
f 143/239/607 133/240/608 139/241/609
f 139/241/610 133/240/611 132/242/612
f 154/243/613 157/244/614 156/245/615
f 156/245/616 157/244/617 163/246/618
f 160/247/619 156/245/620 165/248/621
f 165/248/622 156/245/623 163/246/624
f 162/249/625 160/250/626 167/251/627
f 167/251/628 160/250/629 165/252/630
f 159/253/631 162/249/632 168/254/633
f 168/254/634 162/249/635 167/251/636
f 155/255/637 159/253/638 166/256/639
f 166/256/640 159/253/641 168/254/642
f 153/257/643 155/255/644 164/258/645
f 164/258/646 155/255/647 166/256/648
f 152/259/649 153/257/650 161/260/651
f 161/260/652 153/257/653 164/258/654
f 158/261/655 151/262/656 161/260/657
f 161/260/658 151/262/659 152/259/660
f 169/263/661 170/264/662 171/265/663
f 171/265/664 170/264/665 172/266/666
