# This file uses feet as units for non-parametric coordinates.

g default
v 0.000000 -0.200966 43.465313
v 44.660858 -0.200966 43.465317
v 0.000000 -0.200966 45.223000
v 44.660858 -0.200966 45.223000
v 44.660858 12.654465 45.223000
v 0.000000 12.654465 45.223000
v 0.000000 12.654465 43.465313
v 44.660858 12.654465 43.465317
v 14.335678 6.400185 43.988033
v 14.973083 6.400185 43.988033
v 14.335678 5.762779 43.988033
v 14.973083 5.762779 43.988033
v 31.096977 6.400185 43.988033
v 30.459572 6.400185 43.988033
v 31.096970 5.762779 43.988033
v 30.459564 5.762779 43.988033
v 30.459564 6.400185 46.714725
v 31.096970 6.400185 47.033428
v 30.459564 5.762779 46.714725
v 31.096970 5.762779 47.033428
v 30.778275 6.506416 43.988033
v 30.778275 5.656540 43.988033
v 31.203209 6.081482 43.988033
v 15.585159 6.400185 47.243473
v 15.266464 6.400177 47.880878
v 15.585159 5.762779 47.243473
v 15.266464 5.762772 47.880878
v 14.335678 6.400185 47.033428
v 14.973083 6.400185 46.714725
v 14.335678 5.762779 47.033428
v 14.973083 5.762779 46.714725
v 14.654381 6.506416 43.988033
v 14.654381 5.656548 43.988033
v 14.229446 6.081490 43.988033
v 30.166183 6.400185 47.880878
v 29.847488 6.400185 47.243473
v 30.166199 5.762779 47.880878
v 29.847488 5.762779 47.243473
v 15.425812 6.506416 47.562176
v 15.425812 5.656540 47.562176
v 15.213348 6.081482 47.987110
v 14.654388 6.506424 46.874081
v 14.654388 5.656540 46.874081
v 14.229446 6.081490 47.086552
v 30.006836 6.506416 47.562176
v 30.006844 5.656540 47.562176
v 30.219307 6.081482 47.987110
v 30.778275 6.506416 46.874081
v 30.778275 5.656540 46.874081
v 31.203209 6.081482 47.086552
v 28.594620 7.358971 47.880878
v 28.594620 7.358971 47.243473
v 28.594612 6.721565 47.880878
v 28.594612 6.721573 47.243473
v 16.838043 7.358978 47.243473
v 16.838043 7.358978 47.880878
v 16.838043 6.721565 47.880878
v 16.838043 6.721573 47.243473
v 16.838043 7.465218 47.562176
v 16.838043 7.040276 47.987110
v 16.838043 6.615334 47.562176
v 28.594612 7.465210 47.562176
v 28.594604 7.040276 47.987110
v 28.594612 6.615334 47.562176
v 28.594612 5.462395 47.880878
v 28.594612 5.462395 47.243473
v 28.594612 4.824989 47.880878
v 28.594612 4.824989 47.243473
v 16.838043 5.462395 47.243473
v 16.838043 5.462395 47.880878
v 16.838043 4.824989 47.880878
v 16.838043 4.824989 47.243465
v 16.838043 5.568626 47.562176
v 16.838043 5.143692 47.987110
v 16.838043 4.718750 47.562176
v 28.594612 5.143692 47.987110
v 28.594612 4.718750 47.562176
v 28.594620 5.568626 47.562176
v 0.659470 0.000000 43.454487
v 43.934952 0.000000 43.454487
v 0.659470 0.000000 0.000000
v 43.934952 0.000000 0.000000
v 2.733688 1.998375 2.548985
v 41.860703 1.998375 2.548985
v 2.733688 1.998375 43.454487
v 41.860703 1.998375 43.454487
v 43.934952 4.949371 35.256149
v 44.744446 4.949371 35.256149
v 43.934952 6.221832 35.256149
v 44.744446 6.221832 35.256149
v 43.934952 6.221832 2.899054
v 44.744446 6.221832 2.899054
v 43.934952 4.949371 2.899054
v 44.744446 4.949371 2.899054
v -0.150017 4.949371 35.256149
v 0.659470 4.949371 35.256149
v -0.150017 6.221832 35.256149
v 0.659470 6.221832 35.256149
v -0.150017 6.221832 2.899054
v 0.659470 6.221832 2.899054
v -0.150017 4.949371 2.899054
v 0.659470 4.949371 2.899054
v 19.715935 2.913269 45.258636
v 26.052361 2.913269 45.258636
v 19.715935 9.249695 45.258636
v 26.052361 9.249695 45.258636
v 43.934952 9.543678 43.454487
v 43.650345 9.877113 43.454487
v 43.699173 9.877113 0.000000
v 43.934952 9.543678 0.000000
v 0.895241 9.877113 43.454487
v 0.659470 9.406166 43.454487
v 0.659470 9.775070 0.000000
v 0.992905 9.877113 0.020628
v 42.194138 9.877113 2.215550
v 41.860703 9.543678 2.548985
v 42.194138 9.877113 43.454487
v 41.860703 9.543678 43.454487
v 2.400253 9.877113 2.215550
v 2.733688 9.543678 2.548985
v 2.733688 9.641342 43.454487
v 2.270355 9.877113 43.454487
vt 0.613546 0.175852
vt 0.613546 0.005418
vt 0.620254 0.175852
vt 0.620254 0.005418
vt 0.561077 0.004164
vt 0.610136 0.004164
vt 0.561077 0.174598
vt 0.610136 0.174598
vt 0.882588 0.896018
vt 0.882588 0.889311
vt 0.931638 0.896018
vt 0.931638 0.889311
vt 0.265646 0.369513
vt 0.265646 0.362806
vt 0.314696 0.369513
vt 0.314696 0.362806
vt 0.623086 0.003695
vt 0.629794 0.003695
vt 0.623086 0.174120
vt 0.629794 0.174120
vt 0.606044 0.155943
vt 0.564929 0.155943
vt 0.606044 0.013107
vt 0.564929 0.013107
vt 0.598822 0.233213
vt 0.599483 0.226073
vt 0.601002 0.232354
vt 0.601698 0.226572
vt 0.603103 0.231512
vt 0.603631 0.227044
vt 0.605148 0.231239
vt 0.605392 0.227260
vt 0.607190 0.231514
vt 0.607166 0.227265
vt 0.609141 0.227043
vt 0.609286 0.232357
vt 0.611391 0.226865
vt 0.611450 0.233208
vt 0.615730 0.227241
vt 0.615610 0.233183
vt 0.601003 0.323057
vt 0.603104 0.323900
vt 0.605148 0.324171
vt 0.607191 0.323896
vt 0.609286 0.323053
vt 0.611450 0.322201
vt 0.602186 0.209212
vt 0.604326 0.209286
vt 0.600042 0.209136
vt 0.612905 0.209745
vt 0.617041 0.210024
vt 0.608588 0.209491
vt 0.610740 0.209621
vt 0.606455 0.209371
vt 0.611392 0.328546
vt 0.609142 0.328367
vt 0.607166 0.328144
vt 0.615731 0.328169
vt 0.615611 0.322226
vt 0.601698 0.328838
vt 0.599484 0.329337
vt 0.598822 0.322198
vt 0.603631 0.328366
vt 0.610740 0.345789
vt 0.612905 0.345665
vt 0.608588 0.345919
vt 0.605392 0.328150
vt 0.602186 0.346198
vt 0.604326 0.346124
vt 0.600042 0.346273
vt 0.617041 0.345386
vt 0.606455 0.346039
vt 0.578012 0.362468
vt 0.578012 0.289835
vt 0.580087 0.362467
vt 0.580087 0.289836
vt 0.582162 0.362467
vt 0.582162 0.289837
vt 0.584237 0.362466
vt 0.584237 0.289837
vt 0.586313 0.362466
vt 0.586313 0.289838
vt 0.575937 0.362469
vt 0.573861 0.362469
vt 0.575937 0.289835
vt 0.573861 0.289835
vt 0.590251 0.362465
vt 0.590251 0.289839
vt 0.571481 0.283412
vt 0.571481 0.279482
vt 0.573447 0.284067
vt 0.573447 0.278827
vt 0.575412 0.283412
vt 0.576067 0.281447
vt 0.575412 0.279482
vt 0.586468 0.283306
vt 0.584504 0.283961
vt 0.586468 0.279377
vt 0.584504 0.278723
vt 0.582540 0.283306
vt 0.581885 0.281342
vt 0.582540 0.279377
vt 0.563365 0.289931
vt 0.563305 0.362776
vt 0.561269 0.289929
vt 0.561209 0.362775
vt 0.565385 0.290041
vt 0.565401 0.362776
vt 0.567416 0.290039
vt 0.567498 0.362775
vt 0.586165 0.281208
vt 0.585709 0.279646
vt 0.585709 0.282771
vt 0.584342 0.283292
vt 0.582974 0.279646
vt 0.582519 0.281208
vt 0.582974 0.282771
vt 0.559193 0.289981
vt 0.559113 0.362774
vt 0.557117 0.289924
vt 0.557016 0.362771
vt 0.573571 0.362766
vt 0.569594 0.362772
vt 0.573424 0.289917
vt 0.569448 0.289927
vt 0.565913 0.283565
vt 0.563946 0.284221
vt 0.565913 0.279633
vt 0.563946 0.278977
vt 0.561980 0.283565
vt 0.561325 0.281599
vt 0.561980 0.279633
vt 0.591643 0.277028
vt 0.558013 0.277028
vt 0.591643 0.241870
vt 0.558013 0.241870
vt 0.558013 0.204123
vt 0.595208 0.204123
vt 0.558013 0.241471
vt 0.595208 0.241471
vt 0.334415 0.515477
vt 0.334415 0.518143
vt 0.330225 0.515477
vt 0.330225 0.518143
vt 0.334415 0.504037
vt 0.334415 0.506703
vt 0.227872 0.504037
vt 0.227872 0.506703
vt 0.334415 0.507348
vt 0.334415 0.510013
vt 0.227872 0.507347
vt 0.227872 0.510013
vt 0.227872 0.510638
vt 0.334415 0.510638
vt 0.227872 0.514828
vt 0.334415 0.514828
vt 0.334415 0.515477
vt 0.334415 0.518143
vt 0.330225 0.515477
vt 0.330225 0.518143
vt 0.334415 0.504037
vt 0.334415 0.506703
vt 0.227872 0.504037
vt 0.227872 0.506703
vt 0.334415 0.507348
vt 0.334415 0.510013
vt 0.227872 0.507347
vt 0.227872 0.510013
vt 0.227872 0.510638
vt 0.334415 0.510638
vt 0.227872 0.514828
vt 0.334415 0.514828
vt 0.506814 0.206378
vt 0.550396 0.206378
vt 0.506814 0.249960
vt 0.550396 0.249960
vt 0.851573 0.333566
vt 0.874720 0.333591
vt 0.827825 0.346054
vt 0.851449 0.346053
vt 0.913174 0.327574
vt 0.894543 0.327574
vt 0.851573 0.227637
vt 0.827825 0.240124
vt 0.875498 0.333599
vt 0.875650 0.227637
vt 0.851924 0.240124
vt 0.851844 0.346003
vt 0.877103 0.328522
vt 0.876290 0.327709
vt 0.876290 0.227994
vt 0.887698 0.232971
vt 0.888510 0.329011
vt 0.887698 0.328351
vt 0.887050 0.327383
vt 0.887050 0.227668
vt 0.877103 0.227994
vt 0.880653 0.227996
vt 0.880772 0.333923
vt 0.888463 0.238368
vt 0.893866 0.331937
vt 0.882807 0.333546
vt 0.886238 0.328195
vt 0.882569 0.227668
vt 0.846219 0.347087
vt 0.827825 0.347087
vt 0.846219 0.442467
vt 0.827825 0.442467
vt 0.912936 0.227859
vt 0.894543 0.227859
vt 0.912936 0.329177
vt 0.912936 0.428893
vt 0.894543 0.329177
vt 0.894543 0.428893
vt 0.893911 0.228475
vt 0.874838 0.227637
vt 0.850755 0.240124
vt 0.885921 0.227668
vn 0.000000 -1.000000 0.000000
vn 0.000000 -1.000000 0.000000
vn 0.000000 -1.000000 0.000000
vn 0.000000 -1.000000 0.000000
vn 0.000000 -1.000000 0.000000
vn 0.000000 -1.000000 0.000000
vn 0.000000 0.000000 1.000000
vn 0.000000 0.000000 1.000000
vn 0.000000 0.000000 1.000000
vn 0.000000 0.000000 1.000000
vn 0.000000 0.000000 1.000000
vn 0.000000 0.000000 1.000000
vn 1.000000 0.000000 0.000000
vn 1.000000 0.000000 0.000000
vn 1.000000 0.000000 0.000000
vn 1.000000 0.000000 0.000000
vn 1.000000 0.000000 0.000000
vn 1.000000 0.000000 0.000000
vn -1.000000 0.000000 0.000000
vn -1.000000 0.000000 0.000000
vn -1.000000 0.000000 0.000000
vn -1.000000 0.000000 0.000000
vn -1.000000 0.000000 0.000000
vn -1.000000 0.000000 0.000000
vn 0.000000 1.000000 0.000000
vn 0.000000 1.000000 0.000000
vn 0.000000 1.000000 0.000000
vn 0.000000 1.000000 0.000000
vn 0.000000 1.000000 0.000000
vn 0.000000 1.000000 0.000000
vn 0.000000 0.000000 -1.000000
vn 0.000000 0.000000 -1.000000
vn 0.000000 0.000000 -1.000000
vn 0.000000 0.000000 -1.000000
vn 0.000000 0.000000 -1.000000
vn 0.000000 0.000000 -1.000000
vn 0.009791 0.950098 -0.311797
vn 0.288512 0.955668 -0.058825
vn -0.003383 0.995840 0.091056
vn -0.003383 0.995840 0.091056
vn 0.288512 0.955668 -0.058825
vn -0.091310 0.995609 0.020648
vn -0.003383 0.995840 0.091056
vn -0.091310 0.995609 0.020648
vn -0.040041 0.634268 0.772075
vn -0.040041 0.634268 0.772075
vn -0.091310 0.995609 0.020648
vn -0.727811 0.662470 0.177269
vn -0.040041 0.634268 0.772075
vn -0.727811 0.662470 0.177269
vn -0.055810 -0.000001 0.998441
vn -0.055810 -0.000001 0.998441
vn -0.727811 0.662470 0.177269
vn -0.970082 -0.000000 0.242779
vn -0.040041 -0.634257 0.772084
vn -0.055810 -0.000001 0.998441
vn -0.727823 -0.662457 0.177270
vn -0.727823 -0.662457 0.177270
vn -0.055810 -0.000001 0.998441
vn -0.970082 -0.000000 0.242779
vn -0.727823 -0.662457 0.177270
vn -0.091312 -0.995608 0.020645
vn -0.040041 -0.634257 0.772084
vn -0.040041 -0.634257 0.772084
vn -0.091312 -0.995608 0.020645
vn -0.003382 -0.995842 0.091031
vn -0.091312 -0.995608 0.020645
vn 0.838750 -0.520420 -0.160194
vn -0.003382 -0.995842 0.091031
vn -0.003382 -0.995842 0.091031
vn 0.838750 -0.520420 -0.160194
vn 0.030563 -0.477585 -0.878054
vn 0.982780 0.000000 -0.184779
vn 0.035525 0.000000 -0.999369
vn 0.838750 -0.520420 -0.160194
vn 0.838750 -0.520420 -0.160194
vn 0.035525 0.000000 -0.999369
vn 0.030563 -0.477585 -0.878054
vn -0.003383 0.995840 0.091056
vn -0.040041 0.634268 0.772075
vn 0.003361 0.995269 0.097099
vn 0.003361 0.995269 0.097099
vn -0.040041 0.634268 0.772075
vn 0.039914 0.639002 0.768169
vn -0.055810 -0.000001 0.998441
vn 0.056176 -0.000003 0.998421
vn -0.040041 0.634268 0.772075
vn -0.040041 0.634268 0.772075
vn 0.056176 -0.000003 0.998421
vn 0.039914 0.639002 0.768169
vn -0.055810 -0.000001 0.998441
vn -0.040041 -0.634257 0.772084
vn 0.056176 -0.000003 0.998421
vn 0.056176 -0.000003 0.998421
vn -0.040041 -0.634257 0.772084
vn 0.039916 -0.639000 0.768170
vn -0.003382 -0.995842 0.091031
vn 0.030563 -0.477585 -0.878054
vn 0.003362 -0.995268 0.097108
vn 0.003362 -0.995268 0.097108
vn 0.030563 -0.477585 -0.878054
vn -0.030794 -0.471341 -0.881413
vn -0.003382 -0.995842 0.091031
vn 0.003362 -0.995268 0.097108
vn -0.040041 -0.634257 0.772084
vn -0.040041 -0.634257 0.772084
vn 0.003362 -0.995268 0.097108
vn 0.039916 -0.639000 0.768170
vn -0.008705 0.999962 -0.000001
vn -0.715823 0.698282 -0.000001
vn -0.091310 0.995609 0.020648
vn -0.091310 0.995609 0.020648
vn -0.715823 0.698282 -0.000001
vn -0.727811 0.662470 0.177269
vn -0.091310 0.995609 0.020648
vn 0.288512 0.955668 -0.058825
vn -0.008705 0.999962 -0.000001
vn -0.008705 0.999962 -0.000001
vn 0.288512 0.955668 -0.058825
vn 0.316222 0.948685 0.000000
vn 0.919145 -0.393920 0.000000
vn 1.000000 0.000000 0.000000
vn 0.838750 -0.520420 -0.160194
vn 0.838750 -0.520420 -0.160194
vn 1.000000 0.000000 0.000000
vn 0.982780 0.000000 -0.184779
vn -0.727823 -0.662457 0.177270
vn -0.715836 -0.698269 -0.000001
vn -0.091312 -0.995608 0.020645
vn -0.091312 -0.995608 0.020645
vn -0.715836 -0.698269 -0.000001
vn -0.008705 -0.999962 -0.000001
vn -0.091312 -0.995608 0.020645
vn -0.008705 -0.999962 -0.000001
vn 0.838750 -0.520420 -0.160194
vn 0.838750 -0.520420 -0.160194
vn -0.008705 -0.999962 -0.000001
vn 0.919145 -0.393920 0.000000
vn -0.715836 -0.698269 -0.000001
vn -0.727823 -0.662457 0.177270
vn -1.000000 0.000000 0.000000
vn -1.000000 0.000000 0.000000
vn -0.727823 -0.662457 0.177270
vn -0.970082 -0.000000 0.242779
vn -0.970082 -0.000000 0.242779
vn -0.727811 0.662470 0.177269
vn -1.000000 0.000000 0.000000
vn -1.000000 0.000000 0.000000
vn -0.727811 0.662470 0.177269
vn -0.715823 0.698282 -0.000001
vn -0.030794 -0.471341 -0.881413
vn -0.838738 -0.520441 -0.160190
vn 0.003362 -0.995268 0.097108
vn 0.003362 -0.995268 0.097108
vn -0.838738 -0.520441 -0.160190
vn 0.091312 -0.995608 0.020647
vn 0.003362 -0.995268 0.097108
vn 0.091312 -0.995608 0.020647
vn 0.039916 -0.639000 0.768170
vn 0.039916 -0.639000 0.768170
vn 0.091312 -0.995608 0.020647
vn 0.727820 -0.662460 0.177271
vn -0.838738 -0.520441 -0.160190
vn -0.030794 -0.471341 -0.881413
vn -0.982780 0.000001 -0.184779
vn -0.982780 0.000001 -0.184779
vn -0.030794 -0.471341 -0.881413
vn -0.035525 0.000000 -0.999369
vn 0.091306 0.995609 0.020646
vn -0.288480 0.955678 -0.058820
vn 0.003361 0.995269 0.097099
vn 0.003361 0.995269 0.097099
vn -0.288480 0.955678 -0.058820
vn -0.009996 0.950127 -0.311702
vn 0.727815 0.662465 0.177271
vn 0.091306 0.995609 0.020646
vn 0.039914 0.639002 0.768169
vn 0.039914 0.639002 0.768169
vn 0.091306 0.995609 0.020646
vn 0.003361 0.995269 0.097099
vn 0.091312 -0.995608 0.020647
vn -0.838738 -0.520441 -0.160190
vn 0.008706 -0.999962 0.000000
vn 0.008706 -0.999962 0.000000
vn -0.838738 -0.520441 -0.160190
vn -0.919146 -0.393918 -0.000002
vn 0.727820 -0.662460 0.177271
vn 0.091312 -0.995608 0.020647
vn 0.715836 -0.698269 0.000000
vn 0.715836 -0.698269 0.000000
vn 0.091312 -0.995608 0.020647
vn 0.008706 -0.999962 0.000000
vn 0.970082 0.000000 0.242777
vn 0.727815 0.662465 0.177271
vn 0.056176 -0.000003 0.998421
vn 0.056176 -0.000003 0.998421
vn 0.727815 0.662465 0.177271
vn 0.039914 0.639002 0.768169
vn 0.039916 -0.639000 0.768170
vn 0.727820 -0.662460 0.177271
vn 0.056176 -0.000003 0.998421
vn 0.056176 -0.000003 0.998421
vn 0.727820 -0.662460 0.177271
vn 0.970082 0.000000 0.242777
vn -0.003383 0.995840 0.091056
vn 0.003361 0.995269 0.097099
vn 0.009791 0.950098 -0.311797
vn 0.009791 0.950098 -0.311797
vn 0.003361 0.995269 0.097099
vn -0.009996 0.950127 -0.311702
vn -0.035525 0.000000 -0.999369
vn -0.030794 -0.471341 -0.881413
vn 0.035525 0.000000 -0.999369
vn 0.035525 0.000000 -0.999369
vn -0.030794 -0.471341 -0.881413
vn 0.030563 -0.477585 -0.878054
vn 0.008706 0.999962 -0.000000
vn 0.091306 0.995609 0.020646
vn 0.715830 0.698274 0.000001
vn 0.715830 0.698274 0.000001
vn 0.091306 0.995609 0.020646
vn 0.727815 0.662465 0.177271
vn -0.316222 0.948685 -0.000001
vn -0.288480 0.955678 -0.058820
vn 0.008706 0.999962 -0.000000
vn 0.008706 0.999962 -0.000000
vn -0.288480 0.955678 -0.058820
vn 0.091306 0.995609 0.020646
vn -1.000000 0.000009 -0.000003
vn -0.919146 -0.393918 -0.000002
vn -0.982780 0.000001 -0.184779
vn -0.982780 0.000001 -0.184779
vn -0.919146 -0.393918 -0.000002
vn -0.838738 -0.520441 -0.160190
vn 0.715836 -0.698269 0.000000
vn 1.000000 -0.000007 0.000001
vn 0.727820 -0.662460 0.177271
vn 0.727820 -0.662460 0.177271
vn 1.000000 -0.000007 0.000001
vn 0.970082 0.000000 0.242777
vn 0.715830 0.698274 0.000001
vn 0.727815 0.662465 0.177271
vn 1.000000 -0.000007 0.000001
vn 1.000000 -0.000007 0.000001
vn 0.727815 0.662465 0.177271
vn 0.970082 0.000000 0.242777
vn 0.000001 0.707109 0.707104
vn 0.000000 0.707101 0.707112
vn 0.000000 0.000003 1.000000
vn 0.000000 0.000003 1.000000
vn 0.000000 0.707101 0.707112
vn 0.000000 -0.000000 1.000000
vn 0.000000 0.000003 1.000000
vn 0.000000 -0.000000 1.000000
vn 0.000000 -0.707103 0.707111
vn 0.000000 -0.707103 0.707111
vn 0.000000 -0.000000 1.000000
vn 0.000000 -0.707101 0.707112
vn 0.000000 -1.000000 -0.000012
vn 0.000000 -1.000000 -0.000012
vn -0.000000 -0.393918 -0.919145
vn -0.000000 -0.393918 -0.919145
vn 0.000000 -1.000000 -0.000012
vn 0.000000 -0.393917 -0.919146
vn 0.000000 -0.707103 0.707111
vn 0.000000 -0.707101 0.707112
vn 0.000000 -1.000000 -0.000012
vn 0.000000 -1.000000 -0.000012
vn 0.000000 -0.707101 0.707112
vn 0.000000 -1.000000 -0.000012
vn 0.000001 1.000000 0.000000
vn 0.000000 0.948680 -0.316238
vn 0.000001 1.000000 -0.000000
vn 0.000001 1.000000 -0.000000
vn 0.000000 0.948680 -0.316238
vn 0.000001 0.948679 -0.316241
vn 0.000001 0.707109 0.707104
vn 0.000001 1.000000 0.000000
vn 0.000000 0.707101 0.707112
vn 0.000000 0.707101 0.707112
vn 0.000001 1.000000 0.000000
vn 0.000001 1.000000 -0.000000
vn -0.000000 0.000000 -1.000000
vn -0.000000 -0.393918 -0.919145
vn -0.000000 0.000000 -1.000000
vn -0.000000 0.000000 -1.000000
vn -0.000000 -0.393918 -0.919145
vn 0.000000 -0.393917 -0.919146
vn -1.000000 0.000000 0.000000
vn -1.000000 0.000000 0.000000
vn -1.000000 0.000000 0.000000
vn -1.000000 0.000000 0.000000
vn -1.000000 0.000000 0.000000
vn -1.000000 0.000000 0.000000
vn -1.000000 0.000000 0.000000
vn -1.000000 0.000000 0.000000
vn -1.000000 -0.000001 0.000000
vn -1.000000 -0.000001 0.000000
vn -1.000000 0.000000 0.000000
vn -1.000000 -0.000002 0.000000
vn -1.000000 -0.000002 0.000000
vn -1.000000 0.000000 0.000000
vn -1.000000 0.000005 0.000000
vn 1.000000 -0.000009 0.000028
vn 1.000000 -0.000003 -0.000005
vn 1.000000 -0.000002 0.000005
vn 1.000000 -0.000002 0.000005
vn 1.000000 -0.000003 -0.000005
vn 1.000000 -0.000002 0.000001
vn 1.000000 -0.000003 -0.000005
vn 1.000000 -0.000008 -0.000006
vn 1.000000 -0.000002 0.000001
vn 1.000000 -0.000008 -0.000006
vn 1.000000 -0.000026 0.000043
vn 1.000000 -0.000002 0.000001
vn 1.000000 -0.000026 0.000043
vn 1.000000 0.000021 -0.000009
vn 1.000000 -0.000002 0.000001
vn 0.000000 -0.000000 1.000000
vn 0.000000 0.000000 1.000000
vn 0.000000 0.707107 0.707107
vn 0.000000 0.707107 0.707107
vn 0.000000 0.000000 1.000000
vn 0.000000 0.707110 0.707103
vn 0.000000 -0.707101 0.707113
vn 0.000000 -0.707101 0.707113
vn 0.000000 -0.000000 1.000000
vn 0.000000 -0.000000 1.000000
vn 0.000000 -0.707101 0.707113
vn 0.000000 0.000000 1.000000
vn 0.000000 -1.000000 -0.000000
vn 0.000000 -1.000000 0.000000
vn 0.000000 -0.707101 0.707113
vn 0.000000 -0.707101 0.707113
vn 0.000000 -1.000000 0.000000
vn 0.000000 -0.707101 0.707113
vn -1.000000 0.000000 0.000000
vn -1.000000 0.000003 0.000000
vn -1.000000 -0.000007 0.000000
vn -1.000000 -0.000007 0.000000
vn -1.000000 0.000003 0.000000
vn -1.000000 -0.000000 0.000000
vn -1.000000 -0.000000 0.000000
vn -1.000000 0.000003 0.000000
vn -1.000000 0.000003 0.000000
vn -1.000000 0.000000 0.000000
vn -1.000000 -0.000002 0.000000
vn -1.000000 0.000003 0.000000
vn -1.000000 -0.000000 0.000000
vn -1.000000 0.000003 0.000000
vn -1.000000 -0.000002 0.000000
vn 0.000000 1.000000 0.000000
vn 0.000000 1.000000 -0.000000
vn 0.000000 0.948686 -0.316220
vn 0.000000 0.948686 -0.316220
vn 0.000000 1.000000 -0.000000
vn 0.000000 0.948686 -0.316220
vn 0.000000 0.000000 -1.000000
vn 0.000000 -0.393917 -0.919146
vn 0.000000 0.000012 -1.000000
vn 0.000000 0.000012 -1.000000
vn 0.000000 -0.393917 -0.919146
vn 0.000000 -0.393917 -0.919146
vn 1.000000 0.000000 -0.000024
vn 1.000000 -0.000005 0.000004
vn 1.000000 -0.000006 -0.000007
vn 1.000000 -0.000006 -0.000007
vn 1.000000 -0.000005 0.000004
vn 1.000000 -0.000006 0.000002
vn 1.000000 -0.000005 0.000004
vn 1.000000 -0.000005 0.000016
vn 1.000000 -0.000006 0.000002
vn 1.000000 -0.000005 0.000016
vn 1.000000 0.000000 0.000000
vn 1.000000 -0.000006 0.000002
vn 1.000000 0.000000 0.000000
vn 1.000000 0.000000 0.000000
vn 1.000000 -0.000006 0.000002
vn 0.000000 -0.393917 -0.919146
vn 0.000000 -1.000000 0.000000
vn 0.000000 -0.393917 -0.919146
vn 0.000000 -0.393917 -0.919146
vn 0.000000 -1.000000 0.000000
vn 0.000000 -1.000000 -0.000000
vn 0.000000 0.707110 0.707103
vn 0.000000 1.000000 -0.000000
vn 0.000000 0.707107 0.707107
vn 0.000000 0.707107 0.707107
vn 0.000000 1.000000 -0.000000
vn 0.000000 1.000000 0.000000
vn 0.000000 1.000000 0.000000
vn 0.000000 1.000000 0.000000
vn 0.000000 1.000000 0.000000
vn 0.000000 1.000000 0.000000
vn 0.000000 1.000000 0.000000
vn 0.000000 1.000000 0.000000
vn 0.000000 -1.000000 0.000000
vn 0.000000 -1.000000 0.000000
vn 0.000000 -1.000000 0.000000
vn 0.000000 -1.000000 0.000000
vn 0.000000 -1.000000 0.000000
vn 0.000000 -1.000000 0.000000
vn 1.000000 0.000000 0.000000
vn 1.000000 0.000000 0.000000
vn 0.998704 0.050899 0.000037
vn 0.998704 0.050899 0.000037
vn 0.998704 0.050899 0.000037
vn 1.000000 0.000000 0.000000
vn -1.000000 0.000000 0.000000
vn -1.000000 0.000000 0.000000
vn -0.998564 0.053577 0.000167
vn -0.998409 0.056391 0.000176
vn -0.998564 0.053577 0.000167
vn -1.000000 0.000000 0.000000
vn 1.000000 0.000000 0.000000
vn 0.995253 0.097322 -0.000006
vn 1.000000 0.000000 0.000000
vn 0.000000 0.000000 1.000000
vn 0.000000 0.000000 1.000000
vn 0.000000 0.000000 1.000000
vn 0.000000 0.000000 1.000000
vn 0.000000 0.000000 1.000000
vn 0.000000 0.000000 1.000000
vn 0.000000 1.000000 0.000000
vn 0.000000 1.000000 0.000000
vn 0.000000 1.000000 0.000000
vn 0.000000 1.000000 0.000000
vn 0.000000 1.000000 0.000000
vn 0.000000 1.000000 0.000000
vn 0.000000 -1.000000 0.000000
vn 0.000000 -1.000000 0.000000
vn 0.000000 -1.000000 0.000000
vn 0.000000 -1.000000 0.000000
vn 0.000000 -1.000000 0.000000
vn 0.000000 -1.000000 0.000000
vn 1.000000 0.000000 0.000000
vn 1.000000 0.000000 0.000000
vn 1.000000 0.000000 0.000000
vn 1.000000 0.000000 0.000000
vn 1.000000 0.000000 0.000000
vn 1.000000 0.000000 0.000000
vn 0.000000 0.000000 1.000000
vn 0.000000 0.000000 1.000000
vn 0.000000 0.000000 1.000000
vn 0.000000 0.000000 1.000000
vn 0.000000 0.000000 1.000000
vn 0.000000 0.000000 1.000000
vn 0.000000 1.000000 0.000000
vn 0.000000 1.000000 0.000000
vn 0.000000 1.000000 0.000000
vn 0.000000 1.000000 0.000000
vn 0.000000 1.000000 0.000000
vn 0.000000 1.000000 0.000000
vn 0.000000 -1.000000 0.000000
vn 0.000000 -1.000000 0.000000
vn 0.000000 -1.000000 0.000000
vn 0.000000 -1.000000 0.000000
vn 0.000000 -1.000000 0.000000
vn 0.000000 -1.000000 0.000000
vn -1.000000 0.000000 0.000000
vn -1.000000 0.000000 0.000000
vn -1.000000 0.000000 0.000000
vn -1.000000 0.000000 0.000000
vn -1.000000 0.000000 0.000000
vn -1.000000 0.000000 0.000000
vn 0.000000 0.000000 1.000000
vn 0.000000 0.000000 1.000000
vn 0.000000 0.000000 1.000000
vn 0.000000 0.000000 1.000000
vn 0.000000 0.000000 1.000000
vn 0.000000 0.000000 1.000000
vn 0.788373 0.615198 0.000443
vn 0.998704 0.050899 0.000037
vn 0.788373 0.615198 0.000443
vn 0.998704 0.050899 0.000037
vn -0.998409 0.056391 0.000176
vn -0.709483 0.704719 0.002195
vn -0.998564 0.053577 0.000167
vn -0.709483 0.704719 0.002195
vn -0.134935 0.990855 0.000000
vn -0.994011 0.109277 0.000000
vn -0.298912 0.954281 0.000000
vn -0.996695 0.081240 0.000000
vn 0.000000 0.109702 0.993965
vn 0.000000 0.994068 0.108761
vn 0.000000 0.109702 0.993965
vn 0.000000 0.993052 0.117679
vn 0.117861 0.993030 -0.000010
vn 0.252448 0.967610 -0.000021
vn 0.991232 0.132133 -0.000008
vn 0.995253 0.097322 -0.000006
vn -0.134935 0.990855 0.000000
vn -0.298912 0.954281 0.000000
vn 0.000000 1.000000 0.000000
vn -0.134935 0.990855 0.000000
vn 0.000000 1.000000 0.000000
vn 0.000000 1.000000 0.000000
vn 0.000000 0.994068 0.108761
vn 0.000000 1.000000 0.000000
vn 0.000000 0.993052 0.117679
vn 0.000000 1.000000 0.000000
vn 0.000000 1.000000 0.000000
vn 0.117861 0.993030 -0.000010
vn 0.117861 0.993030 -0.000010
vn 0.000000 1.000000 0.000000
vn 0.252448 0.967610 -0.000021
vn 0.000000 0.109702 0.993965
vn 0.000000 0.109702 0.993965
vn 0.000000 0.000000 1.000000
vn 0.000000 0.000000 1.000000
vn 0.000000 0.109702 0.993965
vn 0.000000 0.000000 1.000000
vn 0.991232 0.132133 -0.000008
vn 0.995253 0.097322 -0.000006
vn 1.000000 0.000000 0.000000
vn -0.996695 0.081240 0.000000
vn -0.994011 0.109277 0.000000
vn -1.000000 0.000000 0.000000
vn -1.000000 0.000000 0.000000
vn -0.994011 0.109277 0.000000
vn -1.000000 0.000000 0.000000
vn 0.000000 1.000000 0.000000
vn 0.000000 1.000000 0.000000
vn 0.000000 0.994068 0.108761
s off
g SM_Shelf_Cab_01c
f 1/1/1 2/2/2 3/3/3
f 3/3/4 2/2/5 4/4/6
f 4/5/7 5/6/8 3/7/9
f 3/7/10 5/6/11 6/8/12
f 8/9/13 5/10/14 2/11/15
f 2/11/16 5/10/17 4/12/18
f 6/13/19 7/14/20 3/15/21
f 3/15/22 7/14/23 1/16/24
f 5/17/25 8/18/26 6/19/27
f 6/19/28 8/18/29 7/20/30
f 8/21/31 2/22/32 7/23/33
f 7/23/34 2/22/35 1/24/36
f 24/25/37 29/26/38 39/27/39
f 39/27/40 29/26/41 42/28/42
f 39/27/43 42/28/44 25/29/45
f 25/29/46 42/28/47 28/30/48
f 25/29/49 28/30/50 41/31/51
f 41/31/52 28/30/53 44/32/54
f 27/33/55 41/31/56 30/34/57
f 30/34/58 41/31/59 44/32/60
f 30/34/61 43/35/62 27/33/63
f 27/33/64 43/35/65 40/36/66
f 43/35/67 31/37/68 40/36/69
f 40/36/70 31/37/71 26/38/72
f 29/39/73 24/40/74 31/37/75
f 31/37/76 24/40/77 26/38/78
f 39/27/79 25/29/80 45/41/81
f 45/41/82 25/29/83 35/42/84
f 41/31/85 47/43/86 25/29/87
f 25/29/88 47/43/89 35/42/90
f 41/31/91 27/33/92 47/43/93
f 47/43/94 27/33/95 37/44/96
f 40/36/97 26/38/98 46/45/99
f 46/45/100 26/38/101 38/46/102
f 40/36/103 46/45/104 27/33/105
f 27/33/106 46/45/107 37/44/108
f 32/47/109 9/48/110 42/28/111
f 42/28/112 9/48/113 28/30/114
f 42/28/115 29/26/116 32/47/117
f 32/47/118 29/26/119 10/49/120
f 12/50/121 10/51/122 31/37/123
f 31/37/124 10/51/125 29/39/126
f 30/34/127 11/52/128 43/35/129
f 43/35/130 11/52/131 33/53/132
f 43/35/133 33/53/134 31/37/135
f 31/37/136 33/53/137 12/50/138
f 11/52/139 30/34/140 34/54/141
f 34/54/142 30/34/143 44/32/144
f 44/32/145 28/30/146 34/54/147
f 34/54/148 28/30/149 9/48/150
f 38/46/151 19/55/152 46/45/153
f 46/45/154 19/55/155 49/56/156
f 46/45/157 49/56/158 37/44/159
f 37/44/160 49/56/161 20/57/162
f 19/55/163 38/46/164 17/58/165
f 17/58/166 38/46/167 36/59/168
f 48/60/169 17/61/170 45/41/171
f 45/41/172 17/61/173 36/62/174
f 18/63/175 48/60/176 35/42/177
f 35/42/178 48/60/179 45/41/180
f 49/56/181 19/55/182 22/64/183
f 22/64/184 19/55/185 16/65/186
f 20/57/187 49/56/188 15/66/189
f 15/66/190 49/56/191 22/64/192
f 50/67/193 18/63/194 47/43/195
f 47/43/196 18/63/197 35/42/198
f 37/44/199 20/57/200 47/43/201
f 47/43/202 20/57/203 50/67/204
f 39/27/205 45/41/206 24/25/207
f 24/25/208 45/41/209 36/62/210
f 36/59/211 38/46/212 24/40/213
f 24/40/214 38/46/215 26/38/216
f 21/68/217 48/60/218 13/69/219
f 13/69/220 48/60/221 18/63/222
f 14/70/223 17/61/224 21/68/225
f 21/68/226 17/61/227 48/60/228
f 14/71/229 16/65/230 17/58/231
f 17/58/232 16/65/233 19/55/234
f 15/66/235 23/72/236 20/57/237
f 20/57/238 23/72/239 50/67/240
f 13/69/241 18/63/242 23/72/243
f 23/72/244 18/63/245 50/67/246
f 51/73/247 56/74/248 63/75/249
f 63/75/250 56/74/251 60/76/252
f 63/75/253 60/76/254 53/77/255
f 53/77/256 60/76/257 57/78/258
f 64/79/259 61/80/260 54/81/261
f 54/81/262 61/80/263 58/82/264
f 53/77/265 57/78/266 64/79/267
f 64/79/268 57/78/269 61/80/270
f 62/83/271 52/84/272 59/85/273
f 59/85/274 52/84/275 55/86/276
f 51/73/277 62/83/278 56/74/279
f 56/74/280 62/83/281 59/85/282
f 52/87/283 54/81/284 55/88/285
f 55/88/286 54/81/287 58/82/288
f 55/89/289 58/90/290 59/91/291
f 58/90/292 61/92/293 59/91/294
f 59/91/295 61/92/296 56/93/297
f 56/93/298 61/92/299 60/94/300
f 60/94/301 61/92/302 57/95/303
f 52/96/304 62/97/305 54/98/306
f 54/98/307 62/97/308 64/99/309
f 62/97/310 51/100/311 64/99/312
f 51/100/313 63/101/314 64/99/315
f 63/101/316 53/102/317 64/99/318
f 74/103/319 76/104/320 70/105/321
f 70/105/322 76/104/323 65/106/324
f 71/107/325 67/108/326 74/103/327
f 74/103/328 67/108/329 76/104/330
f 75/109/331 77/110/332 71/107/333
f 71/107/334 77/110/335 67/108/336
f 73/111/337 69/112/338 70/113/339
f 70/113/340 69/112/341 74/114/342
f 74/114/343 69/112/344 72/115/345
f 75/116/346 71/117/347 72/115/348
f 74/114/349 72/115/350 71/117/351
f 73/118/352 78/119/353 69/120/354
f 69/120/355 78/119/356 66/121/357
f 66/122/358 68/123/359 69/124/360
f 69/124/361 68/123/362 72/125/363
f 66/126/364 78/127/365 68/128/366
f 68/128/367 78/127/368 77/129/369
f 78/127/370 65/130/371 77/129/372
f 65/130/373 76/131/374 77/129/375
f 76/131/376 67/132/377 77/129/378
f 68/123/379 77/110/380 72/125/381
f 72/125/382 77/110/383 75/109/384
f 65/106/385 78/119/386 70/105/387
f 70/105/388 78/119/389 73/118/390
f 84/133/391 83/134/392 86/135/393
f 86/135/394 83/134/395 85/136/396
f 81/137/397 82/138/398 79/139/399
f 79/139/400 82/138/401 80/140/402
f 80/177/403 82/183/404 107/178/405
f 110/216/406 107/178/407 82/183/408
f 81/179/409 79/184/410 113/180/411
f 112/217/412 113/180/413 79/184/414
f 83/210/415 121/181/416 85/182/417
f 87/141/418 88/142/419 89/143/420
f 89/143/421 88/142/422 90/144/423
f 89/145/424 90/146/425 91/147/426
f 91/147/427 90/146/428 92/148/429
f 93/149/430 94/150/431 87/151/432
f 87/151/433 94/150/434 88/152/435
f 88/153/436 94/154/437 90/155/438
f 90/155/439 94/154/440 92/156/441
f 95/157/442 96/158/443 97/159/444
f 97/159/445 96/158/446 98/160/447
f 97/161/448 98/162/449 99/163/450
f 99/163/451 98/162/452 100/164/453
f 101/165/454 102/166/455 95/167/456
f 95/167/457 102/166/458 96/168/459
f 101/169/460 95/170/461 99/171/462
f 99/171/463 95/170/464 97/172/465
f 103/173/466 104/174/467 105/175/468
f 105/175/469 104/174/470 106/176/471
s 1
f 108/185/472 107/178/473 109/186/474
f 109/186/474 107/178/473 110/216/475
s 2
f 112/217/476 111/187/477 113/180/478
f 113/180/478 111/187/477 114/188/479
s 3
f 115/189/480 116/190/481 117/197/482
f 117/197/482 116/190/481 118/191/483
s 4
f 116/192/484 115/200/485 120/194/486
f 120/194/486 115/200/485 119/193/487
s 5
f 119/203/488 122/218/489 120/195/490
f 120/195/490 122/218/489 121/196/491
s off
f 115/189/492 117/197/493 108/198/494
f 115/189/495 108/198/496 109/199/497
f 115/200/498 114/201/499 119/193/500
f 114/202/501 111/204/502 119/203/503
f 119/203/504 111/204/505 122/218/506
f 116/205/507 120/207/508 84/206/509
f 84/206/510 120/207/511 83/208/512
f 120/209/513 121/181/514 83/210/515
f 118/211/516 116/212/517 86/213/518
f 86/213/519 116/212/520 84/214/521
f 109/215/522 114/201/523 115/200/524
