# This file uses feet as units for non-parametric coordinates.

g default
v 41.140694 11.181438 -1.823540
v 0.136396 11.181438 -1.823540
v 41.140694 11.181438 -0.065857
v 0.136396 11.181438 -0.065857
v 41.140694 49.480984 -0.065857
v 0.136396 49.480984 -0.065857
v 41.140694 49.480984 -1.823540
v 0.136396 49.480984 -1.823540
v 36.111473 21.950569 -1.711895
v 36.111473 22.587971 -1.711895
v 36.748882 21.950569 -1.711895
v 36.748882 22.587971 -1.711895
v 36.111473 38.711861 -1.711895
v 36.111473 38.074455 -1.711895
v 36.748882 38.711861 -1.711895
v 36.748882 38.074455 -1.711895
v 36.111477 38.074451 1.014797
v 36.111477 38.711861 1.333500
v 36.748882 38.074451 1.014797
v 36.748882 38.711861 1.333500
v 36.005238 38.393158 -1.711895
v 36.855118 38.393158 -1.711895
v 36.430176 38.818092 -1.711895
v 36.111477 23.200050 1.543545
v 36.111477 22.881350 2.180950
v 36.748882 23.200050 1.543545
v 36.748882 22.881350 2.180950
v 36.111477 21.950569 1.333500
v 36.111477 22.587971 1.014797
v 36.748882 21.950569 1.333500
v 36.748882 22.587971 1.014797
v 36.005238 22.269268 -1.711895
v 36.855118 22.269268 -1.711895
v 36.430176 21.844334 -1.711895
v 36.111477 37.781075 2.180950
v 36.111477 37.462376 1.543545
v 36.748882 37.781078 2.180950
v 36.748882 37.462372 1.543545
v 36.005238 23.040699 1.862247
v 36.855118 23.040699 1.862247
v 36.430176 22.828232 2.287182
v 36.005238 22.269270 1.174152
v 36.855118 22.269270 1.174152
v 36.430176 21.844334 1.386623
v 36.005238 37.621727 1.862247
v 36.855118 37.621727 1.862247
v 36.430176 37.834194 2.287182
v 36.005238 38.393158 1.174152
v 36.855118 38.393158 1.174152
v 36.430176 38.818092 1.386623
v 35.152683 36.209499 2.180950
v 35.152683 36.209499 1.543545
v 35.790092 36.209499 2.180950
v 35.790085 36.209499 1.543545
v 35.152683 24.452927 1.543545
v 35.152683 24.452927 2.180950
v 35.790092 24.452927 2.180950
v 35.790085 24.452927 1.543545
v 35.046448 24.452930 1.862247
v 35.471386 24.452930 2.287182
v 35.896324 24.452930 1.862247
v 35.046448 36.209496 1.862247
v 35.471386 36.209496 2.287182
v 35.896324 36.209496 1.862247
v 37.049263 36.209499 2.180950
v 37.049263 36.209499 1.543545
v 37.686668 36.209499 2.180950
v 37.686668 36.209499 1.543545
v 37.049263 24.452927 1.543545
v 37.049263 24.452927 2.180950
v 37.686668 24.452927 2.180950
v 37.686668 24.452927 1.543537
v 36.943027 24.452930 1.862247
v 37.367966 24.452930 2.287182
v 37.792908 24.452930 1.862247
v 37.367966 36.209496 2.287182
v 37.792908 36.209499 1.862247
v 36.943027 36.209499 1.862247
v 0.913589 35.960983 0.081779
v 0.913589 41.978085 0.081779
v 0.913589 41.978088 -0.081787
v 0.913589 35.960983 -0.081787
v 0.202213 41.978085 0.081779
v 0.202213 41.978088 -0.081787
v 0.202213 35.960983 0.081779
v 0.202213 35.960983 -0.081787
v -0.202213 40.774666 0.081787
v -0.154489 40.774666 0.154488
v 0.000000 40.774666 0.218483
v -0.202213 40.774666 -0.081779
v 0.154489 40.774666 0.154488
v -0.154489 40.774666 -0.154488
v -0.202213 39.789063 -0.081787
v -0.202213 39.571243 0.081779
v 0.218481 40.774666 0.000000
v 0.000000 40.774666 -0.218475
v -0.202213 39.571247 -0.081787
v -0.154489 39.571247 0.154488
v 0.154489 40.774666 -0.154488
v -0.154489 39.571247 -0.154495
v 0.000000 39.571247 0.218475
v 0.000000 39.571247 -0.218483
v 0.154489 39.571247 0.154488
v 0.154489 39.571243 -0.154495
v 0.218481 39.571247 0.000000
v -0.202213 37.164406 0.081779
v -0.154489 37.164406 0.154488
v 0.000000 37.164406 0.218475
v -0.202213 37.164406 -0.081787
v 0.154489 37.164406 0.154488
v -0.154489 37.164406 -0.154495
v -0.202213 38.367825 -0.081779
v -0.202213 38.367825 0.081779
v 0.218481 37.164406 -0.000008
v 0.000000 37.164406 -0.218483
v -0.154489 38.367825 0.154488
v 0.154489 37.164406 -0.154915
v -0.154489 38.367825 -0.154488
v 0.000000 38.367825 0.218483
v 0.000000 38.367825 -0.218483
v 0.154489 38.367825 0.154488
v 0.154489 38.367825 -0.154488
v 0.218481 38.367825 0.000000
v 0.913589 16.230499 0.081779
v 0.913589 22.247599 0.081779
v 0.913589 22.247601 -0.081787
v 0.913589 16.230499 -0.081787
v 0.202213 22.247599 0.081779
v 0.202213 22.247601 -0.081787
v 0.202213 16.230499 0.081779
v 0.202213 16.230499 -0.081787
v -0.202213 21.044180 0.081787
v -0.154489 21.044182 0.154488
v 0.000000 21.044180 0.218483
v -0.202213 21.044180 -0.081779
v 0.154489 21.044182 0.154488
v -0.154489 21.044180 -0.154488
v -0.202213 20.058578 -0.081787
v -0.202213 19.840759 0.081779
v 0.218481 21.044182 0.000000
v 0.000000 21.044180 -0.218475
v -0.202213 19.840761 -0.081787
v -0.154489 19.840761 0.154488
v 0.154489 21.044180 -0.154488
v -0.154489 19.840761 -0.154495
v 0.000000 19.840761 0.218475
v 0.000000 19.840761 -0.218483
v 0.154489 19.840761 0.154488
v 0.154489 19.840759 -0.154495
v 0.218481 19.840761 0.000000
v -0.202213 17.433918 0.081779
v -0.154489 17.433920 0.154488
v 0.000000 17.433920 0.218475
v -0.202213 17.433920 -0.081787
v 0.154489 17.433920 0.154488
v -0.154489 17.433920 -0.154495
v -0.202213 18.637339 -0.081779
v -0.202213 18.637339 0.081779
v 0.218481 17.433920 -0.000008
v 0.000000 17.433918 -0.218483
v -0.154489 18.637339 0.154488
v 0.154489 17.433920 -0.154915
v -0.154489 18.637339 -0.154488
v 0.000000 18.637339 0.218483
v 0.000000 18.637339 -0.218483
v 0.154489 18.637339 0.154488
v 0.154489 18.637339 -0.154488
v 0.218481 18.637339 0.000000
v 33.261963 27.420841 -0.003628
v 39.598389 27.420841 -0.003628
v 33.261963 33.757271 -0.003628
v 39.598389 33.757271 -0.003628
vt 0.361449 0.004503
vt 0.368933 0.004503
vt 0.361449 0.179103
vt 0.368933 0.179103
vt 0.195760 0.004503
vt 0.358844 0.004503
vt 0.195760 0.179103
vt 0.358844 0.179103
vt 0.371525 0.004503
vt 0.379010 0.004503
vt 0.371525 0.179103
vt 0.379010 0.179103
vt 0.211367 0.346028
vt 0.203883 0.346028
vt 0.211367 0.182944
vt 0.203883 0.182944
vt 0.201900 0.346028
vt 0.194416 0.346028
vt 0.201900 0.182944
vt 0.194416 0.182944
vt 0.197219 0.172846
vt 0.198253 0.007211
vt 0.351928 0.173812
vt 0.352962 0.008177
vt 0.598822 0.233213
vt 0.599483 0.226073
vt 0.601002 0.232354
vt 0.601698 0.226572
vt 0.603103 0.231512
vt 0.603631 0.227044
vt 0.605148 0.231239
vt 0.605392 0.227260
vt 0.607190 0.231514
vt 0.607166 0.227265
vt 0.609141 0.227043
vt 0.609286 0.232357
vt 0.611391 0.226865
vt 0.611450 0.233208
vt 0.615730 0.227241
vt 0.615610 0.233183
vt 0.601003 0.323057
vt 0.603104 0.323900
vt 0.605148 0.324171
vt 0.607191 0.323896
vt 0.609286 0.323053
vt 0.611450 0.322201
vt 0.602186 0.209212
vt 0.604326 0.209286
vt 0.600042 0.209136
vt 0.612905 0.209745
vt 0.617041 0.210024
vt 0.608588 0.209491
vt 0.610740 0.209621
vt 0.606455 0.209371
vt 0.611392 0.328546
vt 0.609142 0.328367
vt 0.607166 0.328144
vt 0.615731 0.328169
vt 0.615611 0.322226
vt 0.601698 0.328838
vt 0.599484 0.329337
vt 0.598822 0.322198
vt 0.603631 0.328366
vt 0.610740 0.345789
vt 0.612905 0.345665
vt 0.608588 0.345919
vt 0.605392 0.328150
vt 0.602186 0.346198
vt 0.604326 0.346124
vt 0.600042 0.346273
vt 0.617041 0.345386
vt 0.606455 0.346039
vt 0.578012 0.362468
vt 0.578012 0.289835
vt 0.580087 0.362467
vt 0.580087 0.289836
vt 0.582162 0.362467
vt 0.582162 0.289837
vt 0.584237 0.362466
vt 0.584237 0.289837
vt 0.586313 0.362466
vt 0.586313 0.289838
vt 0.575937 0.362469
vt 0.573861 0.362469
vt 0.575937 0.289835
vt 0.573861 0.289835
vt 0.590251 0.362465
vt 0.590251 0.289839
vt 0.571481 0.283412
vt 0.571481 0.279482
vt 0.573447 0.284067
vt 0.573447 0.278827
vt 0.575412 0.283412
vt 0.576067 0.281447
vt 0.575412 0.279482
vt 0.586468 0.283306
vt 0.584504 0.283961
vt 0.586468 0.279377
vt 0.584504 0.278723
vt 0.582540 0.283306
vt 0.581885 0.281342
vt 0.582540 0.279377
vt 0.563365 0.289931
vt 0.563305 0.362776
vt 0.561269 0.289929
vt 0.561209 0.362775
vt 0.565385 0.290041
vt 0.565401 0.362776
vt 0.567416 0.290039
vt 0.567498 0.362775
vt 0.586165 0.281208
vt 0.585709 0.279646
vt 0.585709 0.282771
vt 0.584342 0.283292
vt 0.582974 0.279646
vt 0.582519 0.281208
vt 0.582974 0.282771
vt 0.559193 0.289981
vt 0.559113 0.362774
vt 0.557117 0.289924
vt 0.557016 0.362771
vt 0.573571 0.362766
vt 0.569594 0.362772
vt 0.573424 0.289917
vt 0.569448 0.289927
vt 0.565913 0.283565
vt 0.563946 0.284221
vt 0.565913 0.279633
vt 0.563946 0.278977
vt 0.561980 0.283565
vt 0.561325 0.281599
vt 0.561980 0.279633
vt 0.595465 0.467503
vt 0.595465 0.456312
vt 0.598041 0.467503
vt 0.598041 0.456312
vt 0.534550 0.387479
vt 0.546286 0.387479
vt 0.534550 0.486754
vt 0.546286 0.486754
vt 0.570497 0.486630
vt 0.558760 0.486630
vt 0.570497 0.387360
vt 0.558760 0.387360
vt 0.592341 0.456240
vt 0.594987 0.456240
vt 0.592341 0.467752
vt 0.594987 0.467752
vt 0.570865 0.486496
vt 0.570865 0.387402
vt 0.573559 0.486496
vt 0.573559 0.387402
vt 0.579807 0.387471
vt 0.579807 0.486504
vt 0.577113 0.387471
vt 0.577113 0.486504
vt 0.587524 0.456224
vt 0.587524 0.459792
vt 0.586100 0.456224
vt 0.586100 0.475931
vt 0.587524 0.475931
vt 0.583360 0.456224
vt 0.583360 0.475931
vt 0.611429 0.436802
vt 0.614184 0.436802
vt 0.611429 0.456623
vt 0.614184 0.456623
vt 0.608674 0.436802
vt 0.608674 0.456623
vt 0.605922 0.436802
vt 0.605922 0.456623
vt 0.603164 0.436802
vt 0.603164 0.456623
vt 0.600412 0.436802
vt 0.600412 0.456623
vt 0.598980 0.436802
vt 0.598980 0.456623
vt 0.618763 0.436300
vt 0.618763 0.456009
vt 0.617339 0.436300
vt 0.617339 0.456009
vt 0.614599 0.436300
vt 0.614602 0.456009
vt 0.595826 0.435865
vt 0.598580 0.435865
vt 0.595807 0.455686
vt 0.598562 0.455686
vt 0.593065 0.435865
vt 0.593054 0.455686
vt 0.590307 0.435865
vt 0.590302 0.455686
vt 0.587550 0.435865
vt 0.587550 0.455686
vt 0.584794 0.435865
vt 0.584799 0.455686
vt 0.583366 0.455686
vt 0.583360 0.435865
vt 0.595465 0.467503
vt 0.595465 0.456312
vt 0.598041 0.467503
vt 0.598041 0.456312
vt 0.534550 0.387479
vt 0.546286 0.387479
vt 0.534550 0.486754
vt 0.546286 0.486754
vt 0.570497 0.486630
vt 0.558760 0.486630
vt 0.570497 0.387360
vt 0.558760 0.387360
vt 0.592341 0.456240
vt 0.594987 0.456240
vt 0.592341 0.467752
vt 0.594987 0.467752
vt 0.570865 0.486496
vt 0.570865 0.387402
vt 0.573559 0.486496
vt 0.573559 0.387402
vt 0.579807 0.387471
vt 0.579807 0.486504
vt 0.577113 0.387471
vt 0.577113 0.486504
vt 0.586100 0.456224
vt 0.587524 0.456224
vt 0.586100 0.475931
vt 0.587524 0.459792
vt 0.587524 0.475931
vt 0.583360 0.456224
vt 0.583360 0.475931
vt 0.611429 0.436802
vt 0.614184 0.436802
vt 0.611429 0.456623
vt 0.614184 0.456623
vt 0.608674 0.436802
vt 0.608674 0.456623
vt 0.605922 0.436802
vt 0.605922 0.456623
vt 0.603164 0.436802
vt 0.603164 0.456623
vt 0.600412 0.436802
vt 0.600412 0.456623
vt 0.598980 0.436802
vt 0.598980 0.456623
vt 0.618763 0.436300
vt 0.618763 0.456009
vt 0.617339 0.436300
vt 0.617339 0.456009
vt 0.614599 0.436300
vt 0.614602 0.456009
vt 0.595826 0.435865
vt 0.598580 0.435865
vt 0.595807 0.455686
vt 0.598562 0.455686
vt 0.593065 0.435865
vt 0.593054 0.455686
vt 0.590307 0.435865
vt 0.590302 0.455686
vt 0.587550 0.435865
vt 0.587550 0.455686
vt 0.584794 0.435865
vt 0.584799 0.455686
vt 0.583366 0.455686
vt 0.583360 0.435865
vt 0.506814 0.206378
vt 0.550396 0.206378
vt 0.506814 0.249960
vt 0.550396 0.249960
vn 0.000000 -1.000000 0.000000
vn 0.000000 -1.000000 0.000000
vn 0.000000 -1.000000 0.000000
vn 0.000000 -1.000000 0.000000
vn 0.000000 -1.000000 0.000000
vn 0.000000 -1.000000 0.000000
vn 0.000000 0.000000 1.000000
vn 0.000000 0.000000 1.000000
vn 0.000000 0.000000 1.000000
vn 0.000000 0.000000 1.000000
vn 0.000000 0.000000 1.000000
vn 0.000000 0.000000 1.000000
vn 0.000000 1.000000 0.000000
vn 0.000000 1.000000 0.000000
vn 0.000000 1.000000 0.000000
vn 0.000000 1.000000 0.000000
vn 0.000000 1.000000 0.000000
vn 0.000000 1.000000 0.000000
vn -1.000000 0.000000 0.000000
vn -1.000000 0.000000 0.000000
vn -1.000000 0.000000 0.000000
vn -1.000000 0.000000 0.000000
vn -1.000000 0.000000 0.000000
vn -1.000000 0.000000 0.000000
vn 1.000000 0.000000 0.000000
vn 1.000000 0.000000 0.000000
vn 1.000000 0.000000 0.000000
vn 1.000000 0.000000 0.000000
vn 1.000000 0.000000 0.000000
vn 1.000000 0.000000 0.000000
vn 0.000000 0.000000 -1.000000
vn 0.000000 0.000000 -1.000000
vn 0.000000 0.000000 -1.000000
vn 0.000000 0.000000 -1.000000
vn 0.000000 0.000000 -1.000000
vn 0.000000 0.000000 -1.000000
vn -0.950091 0.009792 -0.311821
vn -0.955666 0.288519 -0.058825
vn -0.995841 -0.003383 0.091048
vn -0.995841 -0.003383 0.091048
vn -0.955666 0.288519 -0.058825
vn -0.995610 -0.091295 0.020647
vn -0.995841 -0.003383 0.091048
vn -0.995610 -0.091295 0.020647
vn -0.634264 -0.040042 0.772079
vn -0.634264 -0.040042 0.772079
vn -0.995610 -0.091295 0.020647
vn -0.662474 -0.727808 0.177270
vn -0.634264 -0.040042 0.772079
vn -0.662474 -0.727808 0.177270
vn -0.000001 -0.055811 0.998441
vn -0.000001 -0.055811 0.998441
vn -0.662474 -0.727808 0.177270
vn 0.000000 -0.970082 0.242776
vn 0.634257 -0.040041 0.772084
vn -0.000001 -0.055811 0.998441
vn 0.662459 -0.727822 0.177269
vn 0.662459 -0.727822 0.177269
vn -0.000001 -0.055811 0.998441
vn 0.000000 -0.970082 0.242776
vn 0.662459 -0.727822 0.177269
vn 0.995608 -0.091315 0.020645
vn 0.634257 -0.040041 0.772084
vn 0.634257 -0.040041 0.772084
vn 0.995608 -0.091315 0.020645
vn 0.995841 -0.003382 0.091044
vn 0.995608 -0.091315 0.020645
vn 0.520431 0.838743 -0.160193
vn 0.995841 -0.003382 0.091044
vn 0.995841 -0.003382 0.091044
vn 0.520431 0.838743 -0.160193
vn 0.477588 0.030563 -0.878052
vn 0.000000 0.982780 -0.184780
vn 0.000000 0.035525 -0.999369
vn 0.520431 0.838743 -0.160193
vn 0.520431 0.838743 -0.160193
vn 0.000000 0.035525 -0.999369
vn 0.477588 0.030563 -0.878052
vn -0.995841 -0.003383 0.091048
vn -0.634264 -0.040042 0.772079
vn -0.995268 0.003362 0.097106
vn -0.995268 0.003362 0.097106
vn -0.634264 -0.040042 0.772079
vn -0.639001 0.039915 0.768169
vn -0.000001 -0.055811 0.998441
vn 0.000009 0.056177 0.998421
vn -0.634264 -0.040042 0.772079
vn -0.634264 -0.040042 0.772079
vn 0.000009 0.056177 0.998421
vn -0.639001 0.039915 0.768169
vn -0.000001 -0.055811 0.998441
vn 0.634257 -0.040041 0.772084
vn 0.000009 0.056177 0.998421
vn 0.000009 0.056177 0.998421
vn 0.634257 -0.040041 0.772084
vn 0.639002 0.039914 0.768169
vn 0.995841 -0.003382 0.091044
vn 0.477588 0.030563 -0.878052
vn 0.995269 0.003361 0.097101
vn 0.995269 0.003361 0.097101
vn 0.477588 0.030563 -0.878052
vn 0.471348 -0.030794 -0.881410
vn 0.995841 -0.003382 0.091044
vn 0.995269 0.003361 0.097101
vn 0.634257 -0.040041 0.772084
vn 0.634257 -0.040041 0.772084
vn 0.995269 0.003361 0.097101
vn 0.639002 0.039914 0.768169
vn -0.999962 -0.008726 0.000001
vn -0.698258 -0.715846 0.000001
vn -0.995610 -0.091295 0.020647
vn -0.995610 -0.091295 0.020647
vn -0.698258 -0.715846 0.000001
vn -0.662474 -0.727808 0.177270
vn -0.995610 -0.091295 0.020647
vn -0.955666 0.288519 -0.058825
vn -0.999962 -0.008726 0.000001
vn -0.999962 -0.008726 0.000001
vn -0.955666 0.288519 -0.058825
vn -0.948687 0.316218 0.000001
vn 0.393914 0.919148 0.000000
vn 0.000000 1.000000 0.000000
vn 0.520431 0.838743 -0.160193
vn 0.520431 0.838743 -0.160193
vn 0.000000 1.000000 0.000000
vn 0.000000 0.982780 -0.184780
vn 0.662459 -0.727822 0.177269
vn 0.698270 -0.715835 0.000000
vn 0.995608 -0.091315 0.020645
vn 0.995608 -0.091315 0.020645
vn 0.698270 -0.715835 0.000000
vn 0.999962 -0.008702 0.000000
vn 0.995608 -0.091315 0.020645
vn 0.999962 -0.008702 0.000000
vn 0.520431 0.838743 -0.160193
vn 0.520431 0.838743 -0.160193
vn 0.999962 -0.008702 0.000000
vn 0.393914 0.919148 0.000000
vn 0.698270 -0.715835 0.000000
vn 0.662459 -0.727822 0.177269
vn 0.000000 -1.000000 0.000000
vn 0.000000 -1.000000 0.000000
vn 0.662459 -0.727822 0.177269
vn 0.000000 -0.970082 0.242776
vn 0.000000 -0.970082 0.242776
vn -0.662474 -0.727808 0.177270
vn 0.000000 -1.000000 0.000000
vn 0.000000 -1.000000 0.000000
vn -0.662474 -0.727808 0.177270
vn -0.698258 -0.715846 0.000001
vn 0.471348 -0.030794 -0.881410
vn 0.520435 -0.838740 -0.160195
vn 0.995269 0.003361 0.097101
vn 0.995269 0.003361 0.097101
vn 0.520435 -0.838740 -0.160195
vn 0.995608 0.091315 0.020647
vn 0.995269 0.003361 0.097101
vn 0.995608 0.091315 0.020647
vn 0.639002 0.039914 0.768169
vn 0.639002 0.039914 0.768169
vn 0.995608 0.091315 0.020647
vn 0.662455 0.727825 0.177270
vn 0.520435 -0.838740 -0.160195
vn 0.471348 -0.030794 -0.881410
vn -0.000001 -0.982780 -0.184782
vn -0.000001 -0.982780 -0.184782
vn 0.471348 -0.030794 -0.881410
vn -0.000000 -0.035525 -0.999369
vn -0.995610 0.091295 0.020648
vn -0.955667 -0.288515 -0.058823
vn -0.995268 0.003362 0.097106
vn -0.995268 0.003362 0.097106
vn -0.955667 -0.288515 -0.058823
vn -0.950122 -0.009997 -0.311718
vn -0.662470 0.727811 0.177272
vn -0.995610 0.091295 0.020648
vn -0.639001 0.039915 0.768169
vn -0.639001 0.039915 0.768169
vn -0.995610 0.091295 0.020648
vn -0.995268 0.003362 0.097106
vn 0.995608 0.091315 0.020647
vn 0.520435 -0.838740 -0.160195
vn 0.999962 0.008702 -0.000000
vn 0.999962 0.008702 -0.000000
vn 0.520435 -0.838740 -0.160195
vn 0.393915 -0.919147 -0.000001
vn 0.662455 0.727825 0.177270
vn 0.995608 0.091315 0.020647
vn 0.698270 0.715835 0.000000
vn 0.698270 0.715835 0.000000
vn 0.995608 0.091315 0.020647
vn 0.999962 0.008702 -0.000000
vn 0.000000 0.970081 0.242780
vn -0.662470 0.727811 0.177272
vn 0.000009 0.056177 0.998421
vn 0.000009 0.056177 0.998421
vn -0.662470 0.727811 0.177272
vn -0.639001 0.039915 0.768169
vn 0.639002 0.039914 0.768169
vn 0.662455 0.727825 0.177270
vn 0.000009 0.056177 0.998421
vn 0.000009 0.056177 0.998421
vn 0.662455 0.727825 0.177270
vn 0.000000 0.970081 0.242780
vn -0.995841 -0.003383 0.091048
vn -0.995268 0.003362 0.097106
vn -0.950091 0.009792 -0.311821
vn -0.950091 0.009792 -0.311821
vn -0.995268 0.003362 0.097106
vn -0.950122 -0.009997 -0.311718
vn -0.000000 -0.035525 -0.999369
vn 0.471348 -0.030794 -0.881410
vn 0.000000 0.035525 -0.999369
vn 0.000000 0.035525 -0.999369
vn 0.471348 -0.030794 -0.881410
vn 0.477588 0.030563 -0.878052
vn -0.999962 0.008726 0.000000
vn -0.995610 0.091295 0.020648
vn -0.698258 0.715846 0.000000
vn -0.698258 0.715846 0.000000
vn -0.995610 0.091295 0.020648
vn -0.662470 0.727811 0.177272
vn -0.948687 -0.316218 0.000000
vn -0.955667 -0.288515 -0.058823
vn -0.999962 0.008726 0.000000
vn -0.999962 0.008726 0.000000
vn -0.955667 -0.288515 -0.058823
vn -0.995610 0.091295 0.020648
vn 0.000000 -1.000000 0.000000
vn 0.393915 -0.919147 -0.000001
vn -0.000001 -0.982780 -0.184782
vn -0.000001 -0.982780 -0.184782
vn 0.393915 -0.919147 -0.000001
vn 0.520435 -0.838740 -0.160195
vn 0.698270 0.715835 0.000000
vn -0.000000 1.000000 0.000000
vn 0.662455 0.727825 0.177270
vn 0.662455 0.727825 0.177270
vn -0.000000 1.000000 0.000000
vn 0.000000 0.970081 0.242780
vn -0.698258 0.715846 0.000000
vn -0.662470 0.727811 0.177272
vn -0.000000 1.000000 0.000000
vn -0.000000 1.000000 0.000000
vn -0.662470 0.727811 0.177272
vn 0.000000 0.970081 0.242780
vn -0.707103 0.000000 0.707111
vn -0.707108 0.000000 0.707105
vn -0.000000 0.000000 1.000000
vn -0.000000 0.000000 1.000000
vn -0.707108 0.000000 0.707105
vn 0.000000 0.000000 1.000000
vn -0.000000 0.000000 1.000000
vn 0.000000 0.000000 1.000000
vn 0.707102 0.000000 0.707111
vn 0.707102 0.000000 0.707111
vn 0.000000 0.000000 1.000000
vn 0.707108 0.000000 0.707106
vn 1.000000 0.000000 -0.000010
vn 1.000000 0.000000 -0.000014
vn 0.393915 0.000000 -0.919147
vn 0.393915 0.000000 -0.919147
vn 1.000000 0.000000 -0.000014
vn 0.393916 0.000000 -0.919146
vn 0.707102 0.000000 0.707111
vn 0.707108 0.000000 0.707106
vn 1.000000 0.000000 -0.000010
vn 1.000000 0.000000 -0.000010
vn 0.707108 0.000000 0.707106
vn 1.000000 0.000000 -0.000014
vn -1.000000 0.000000 0.000000
vn -0.948682 0.000000 -0.316233
vn -1.000000 0.000000 0.000002
vn -1.000000 0.000000 0.000002
vn -0.948682 0.000000 -0.316233
vn -0.948682 0.000000 -0.316231
vn -0.707103 0.000000 0.707111
vn -1.000000 0.000000 0.000000
vn -0.707108 0.000000 0.707105
vn -0.707108 0.000000 0.707105
vn -1.000000 0.000000 0.000000
vn -1.000000 0.000000 0.000002
vn 0.000000 0.000000 -1.000000
vn 0.393915 0.000000 -0.919147
vn 0.000000 0.000000 -1.000000
vn 0.000000 0.000000 -1.000000
vn 0.393915 0.000000 -0.919147
vn 0.393916 0.000000 -0.919146
vn 0.000000 -1.000000 0.000014
vn 0.000000 -1.000000 0.000014
vn 0.000000 -1.000000 0.000001
vn 0.000000 -1.000000 0.000014
vn -0.000000 -1.000000 0.000006
vn 0.000000 -1.000000 0.000001
vn 0.000000 -1.000000 0.000001
vn -0.000000 -1.000000 0.000006
vn 0.000002 -1.000000 -0.000007
vn 0.000002 -1.000000 -0.000007
vn -0.000000 -1.000000 0.000006
vn 0.000006 -1.000000 0.000003
vn 0.000006 -1.000000 0.000003
vn -0.000000 -1.000000 0.000006
vn -0.000018 -1.000000 -0.000021
vn 0.000000 1.000000 0.000019
vn 0.000000 1.000000 -0.000003
vn 0.000000 1.000000 0.000002
vn 0.000000 1.000000 0.000002
vn 0.000000 1.000000 -0.000003
vn -0.000000 1.000000 -0.000001
vn 0.000000 1.000000 -0.000003
vn 0.000002 1.000000 -0.000005
vn -0.000000 1.000000 -0.000001
vn 0.000002 1.000000 -0.000005
vn 0.000006 1.000000 0.000019
vn -0.000000 1.000000 -0.000001
vn 0.000006 1.000000 0.000019
vn -0.000018 1.000000 0.000000
vn -0.000000 1.000000 -0.000001
vn 0.000000 0.000000 1.000000
vn -0.000000 0.000000 1.000000
vn -0.707102 0.000000 0.707111
vn -0.707102 0.000000 0.707111
vn -0.000000 0.000000 1.000000
vn -0.707101 0.000000 0.707112
vn 0.707099 0.000000 0.707115
vn 0.707099 0.000000 0.707115
vn 0.000000 0.000000 1.000000
vn 0.000000 0.000000 1.000000
vn 0.707099 0.000000 0.707115
vn -0.000000 0.000000 1.000000
vn 1.000000 0.000000 0.000002
vn 1.000000 0.000000 0.000000
vn 0.707099 0.000000 0.707115
vn 0.707099 0.000000 0.707115
vn 1.000000 0.000000 0.000000
vn 0.707099 0.000000 0.707115
vn -0.000036 -1.000000 0.000000
vn 0.000000 -1.000000 0.000003
vn 0.000009 -1.000000 0.000000
vn 0.000009 -1.000000 0.000000
vn 0.000000 -1.000000 0.000003
vn -0.000000 -1.000000 0.000002
vn -0.000000 -1.000000 0.000002
vn 0.000000 -1.000000 0.000003
vn -0.000000 -1.000000 0.000003
vn 0.000036 -1.000000 0.000000
vn -0.000009 -1.000000 0.000000
vn -0.000000 -1.000000 0.000003
vn -0.000000 -1.000000 0.000002
vn -0.000000 -1.000000 0.000003
vn -0.000009 -1.000000 0.000000
vn -1.000000 0.000000 0.000002
vn -1.000000 0.000000 0.000000
vn -0.948682 0.000000 -0.316231
vn -0.948682 0.000000 -0.316231
vn -1.000000 0.000000 0.000000
vn -0.948685 0.000000 -0.316224
vn 0.000000 0.000000 -1.000000
vn 0.393915 0.000000 -0.919147
vn 0.000000 0.000001 -1.000000
vn 0.000000 0.000001 -1.000000
vn 0.393915 0.000000 -0.919147
vn 0.393924 0.000001 -0.919143
vn 0.000000 1.000000 0.000000
vn 0.000000 1.000000 0.000000
vn 0.000000 1.000000 0.000001
vn 0.000000 1.000000 0.000001
vn 0.000000 1.000000 0.000000
vn -0.000000 1.000000 0.000004
vn 0.000000 1.000000 0.000000
vn 0.000002 1.000000 0.000005
vn -0.000000 1.000000 0.000004
vn 0.000002 1.000000 0.000005
vn 0.000005 1.000000 0.000019
vn -0.000000 1.000000 0.000004
vn 0.000005 1.000000 0.000019
vn -0.000013 1.000000 0.000000
vn -0.000000 1.000000 0.000004
vn 0.393915 0.000000 -0.919147
vn 1.000000 0.000000 0.000000
vn 0.393924 0.000001 -0.919143
vn 0.393924 0.000001 -0.919143
vn 1.000000 0.000000 0.000000
vn 1.000000 0.000000 0.000002
vn -0.707101 0.000000 0.707112
vn -1.000000 0.000000 0.000000
vn -0.707102 0.000000 0.707111
vn -0.707102 0.000000 0.707111
vn -1.000000 0.000000 0.000000
vn -1.000000 0.000000 0.000002
vn 0.000000 1.000000 0.000033
vn 0.000000 1.000000 0.000005
vn 0.000000 1.000000 0.000028
vn 0.000000 1.000000 0.000028
vn 0.000000 1.000000 0.000005
vn 0.000000 1.000000 0.000000
vn 0.000000 0.000000 1.000000
vn 0.000000 0.000000 1.000000
vn 0.000000 0.000000 1.000000
vn 0.000000 0.000000 1.000000
vn 0.000000 0.000000 1.000000
vn 0.000000 0.000000 1.000000
vn 0.000000 0.000000 -1.000000
vn 0.000000 0.000000 -1.000000
vn 0.000000 0.000000 -1.000000
vn 0.000000 0.000000 -1.000000
vn 0.000000 0.000000 -1.000000
vn 0.000000 0.000000 -1.000000
vn 0.000000 -1.000000 0.000000
vn 0.000000 -1.000000 0.000000
vn 0.000000 -1.000000 0.000000
vn 0.000000 -1.000000 0.000000
vn 0.000000 -1.000000 0.000000
vn 0.000000 -1.000000 0.000000
vn 1.000000 0.000000 0.000000
vn 1.000000 0.000000 0.000000
vn 1.000000 0.000000 0.000000
vn 1.000000 0.000000 0.000000
vn 1.000000 0.000000 0.000000
vn 1.000000 0.000000 0.000000
vn -1.000000 0.000000 0.000000
vn -1.000000 0.000000 0.000000
vn -1.000000 0.000000 0.000000
vn -1.000000 0.000000 0.000000
vn -1.000000 0.000000 0.000000
vn -1.000000 0.000000 0.000000
vn -0.836000 0.000000 -0.548729
vn -0.836007 0.000003 -0.548719
vn -0.468619 0.000005 -0.883400
vn -0.468619 0.000005 -0.883400
vn -0.836007 0.000003 -0.548719
vn -0.539289 0.000006 -0.842121
vn -0.836007 0.000003 -0.548719
vn -0.836005 0.000005 -0.548723
vn -0.539289 0.000006 -0.842121
vn -0.382660 0.000006 -0.923889
vn -0.468619 0.000005 -0.883400
vn -0.382662 0.000006 -0.923888
vn -0.382662 0.000006 -0.923888
vn -0.468619 0.000005 -0.883400
vn -0.539289 0.000006 -0.842121
vn 0.707103 0.000003 -0.707110
vn 0.382659 0.000006 -0.923890
vn 0.707107 0.000004 -0.707107
vn 0.707107 0.000004 -0.707107
vn 0.382659 0.000006 -0.923890
vn 0.382662 0.000006 -0.923888
vn 1.000000 0.000000 -0.000003
vn 0.707103 0.000003 -0.707110
vn 1.000000 0.000001 -0.000001
vn 1.000000 0.000001 -0.000001
vn 0.707103 0.000003 -0.707110
vn 0.707107 0.000004 -0.707107
vn 0.707096 -0.000003 0.707117
vn 1.000000 0.000000 -0.000003
vn 0.707107 0.000000 0.707107
vn 0.707107 0.000000 0.707107
vn 1.000000 0.000000 -0.000003
vn 1.000000 0.000001 -0.000001
vn -0.000002 -0.000004 1.000000
vn 0.707096 -0.000003 0.707117
vn -0.000002 -0.000003 1.000000
vn -0.000002 -0.000003 1.000000
vn 0.707096 -0.000003 0.707117
vn 0.707107 0.000000 0.707107
vn -0.560054 0.000000 0.828456
vn -0.000002 -0.000004 1.000000
vn -0.560030 -0.000005 0.828472
vn -0.560030 -0.000005 0.828472
vn -0.000002 -0.000004 1.000000
vn -0.000002 -0.000003 1.000000
vn -0.560054 0.000000 0.828456
vn -0.560030 -0.000005 0.828472
vn -0.836011 -0.000000 0.548713
vn -0.836011 -0.000000 0.548713
vn -0.560030 -0.000005 0.828472
vn -0.835961 -0.000004 0.548789
vn -0.835987 0.000003 -0.548749
vn -0.836006 0.000004 -0.548720
vn -0.560032 0.000002 -0.828471
vn -0.560032 0.000002 -0.828471
vn -0.836006 0.000004 -0.548720
vn -0.560064 0.000005 -0.828449
vn -0.382662 0.000000 -0.923888
vn -0.560032 0.000002 -0.828471
vn -0.382690 0.000005 -0.923877
vn -0.382690 0.000005 -0.923877
vn -0.560032 0.000002 -0.828471
vn -0.560064 0.000005 -0.828449
vn 0.706994 0.000185 -0.707219
vn 0.380714 0.000299 -0.924693
vn 0.707088 0.000089 -0.707126
vn 0.707088 0.000089 -0.707126
vn 0.380714 0.000299 -0.924693
vn 0.382693 0.000000 -0.923876
vn 1.000000 0.000001 -0.000001
vn 0.706994 0.000185 -0.707219
vn 1.000000 0.000066 0.000002
vn 1.000000 0.000066 0.000002
vn 0.706994 0.000185 -0.707219
vn 0.707088 0.000089 -0.707126
vn 0.707119 -0.000003 0.707095
vn 1.000000 0.000001 -0.000001
vn 0.707107 -0.000001 0.707107
vn 0.707107 -0.000001 0.707107
vn 1.000000 0.000001 -0.000001
vn 1.000000 0.000066 0.000002
vn -0.000002 -0.000004 1.000000
vn 0.707119 -0.000003 0.707095
vn -0.000002 -0.000003 1.000000
vn -0.000002 -0.000003 1.000000
vn 0.707119 -0.000003 0.707095
vn 0.707107 -0.000001 0.707107
vn -0.560049 0.000000 0.828460
vn -0.000002 -0.000004 1.000000
vn -0.560063 -0.000004 0.828450
vn -0.560063 -0.000004 0.828450
vn -0.000002 -0.000004 1.000000
vn -0.000002 -0.000003 1.000000
vn -0.836004 0.000000 0.548723
vn -0.836007 0.000000 0.548719
vn -0.560063 -0.000004 0.828450
vn -0.560063 -0.000004 0.828450
vn -0.836007 0.000000 0.548719
vn -0.560049 0.000000 0.828460
vn 0.000000 1.000000 0.000016
vn 0.000000 1.000000 0.000002
vn 0.000000 1.000000 0.000014
vn 0.000000 1.000000 0.000014
vn 0.000000 1.000000 0.000002
vn 0.000000 1.000000 0.000000
vn 0.000000 0.000000 1.000000
vn 0.000000 0.000000 1.000000
vn 0.000000 0.000000 1.000000
vn 0.000000 0.000000 1.000000
vn 0.000000 0.000000 1.000000
vn 0.000000 0.000000 1.000000
vn 0.000000 0.000000 -1.000000
vn 0.000000 0.000000 -1.000000
vn 0.000000 0.000000 -1.000000
vn 0.000000 0.000000 -1.000000
vn 0.000000 0.000000 -1.000000
vn 0.000000 0.000000 -1.000000
vn 0.000000 -1.000000 0.000000
vn 0.000000 -1.000000 0.000000
vn 0.000000 -1.000000 0.000000
vn 0.000000 -1.000000 0.000000
vn 0.000000 -1.000000 0.000000
vn 0.000000 -1.000000 0.000000
vn 1.000000 0.000000 0.000000
vn 1.000000 0.000000 0.000000
vn 1.000000 0.000000 0.000000
vn 1.000000 0.000000 0.000000
vn 1.000000 0.000000 0.000000
vn 1.000000 0.000000 0.000000
vn -1.000000 0.000000 0.000000
vn -1.000000 0.000000 0.000000
vn -1.000000 0.000000 0.000000
vn -1.000000 0.000000 0.000000
vn -1.000000 0.000000 0.000000
vn -1.000000 0.000000 0.000000
vn -0.560046 0.000005 -0.828461
vn -0.836007 0.000003 -0.548719
vn -0.538213 0.000006 -0.842809
vn -0.836007 0.000003 -0.548719
vn -0.835913 0.000001 -0.548862
vn -0.538213 0.000006 -0.842809
vn -0.835913 0.000001 -0.548862
vn -0.836005 0.000005 -0.548722
vn -0.538213 0.000006 -0.842809
vn -0.382661 0.000006 -0.923889
vn -0.560046 0.000005 -0.828461
vn -0.382662 0.000006 -0.923888
vn -0.382662 0.000006 -0.923888
vn -0.560046 0.000005 -0.828461
vn -0.538213 0.000006 -0.842809
vn 0.707104 0.000003 -0.707110
vn 0.382661 0.000006 -0.923889
vn 0.707100 0.000004 -0.707114
vn 0.707100 0.000004 -0.707114
vn 0.382661 0.000006 -0.923889
vn 0.382662 0.000006 -0.923888
vn 1.000000 0.000000 -0.000002
vn 0.707104 0.000003 -0.707110
vn 1.000000 0.000001 0.000004
vn 1.000000 0.000001 0.000004
vn 0.707104 0.000003 -0.707110
vn 0.707100 0.000004 -0.707114
vn 0.707097 -0.000003 0.707116
vn 1.000000 0.000000 -0.000002
vn 0.707113 0.000000 0.707101
vn 0.707113 0.000000 0.707101
vn 1.000000 0.000000 -0.000002
vn 1.000000 0.000001 0.000004
vn -0.000003 -0.000004 1.000000
vn 0.707097 -0.000003 0.707116
vn -0.000003 -0.000003 1.000000
vn -0.000003 -0.000003 1.000000
vn 0.707097 -0.000003 0.707116
vn 0.707113 0.000000 0.707101
vn -0.560045 0.000000 0.828462
vn -0.000003 -0.000004 1.000000
vn -0.560040 -0.000005 0.828465
vn -0.560040 -0.000005 0.828465
vn -0.000003 -0.000004 1.000000
vn -0.000003 -0.000003 1.000000
vn -0.560045 0.000000 0.828462
vn -0.560040 -0.000005 0.828465
vn -0.835996 -0.000000 0.548735
vn -0.835996 -0.000000 0.548735
vn -0.560040 -0.000005 0.828465
vn -0.835961 -0.000004 0.548789
vn -0.835986 0.000003 -0.548751
vn -0.836007 0.000004 -0.548719
vn -0.560045 0.000002 -0.828462
vn -0.560045 0.000002 -0.828462
vn -0.836007 0.000004 -0.548719
vn -0.560065 0.000005 -0.828448
vn -0.382693 0.000000 -0.923876
vn -0.560045 0.000002 -0.828462
vn -0.382694 0.000005 -0.923875
vn -0.382694 0.000005 -0.923875
vn -0.560045 0.000002 -0.828462
vn -0.560065 0.000005 -0.828448
vn 0.706991 0.000185 -0.707222
vn 0.380716 0.000299 -0.924692
vn 0.707098 0.000089 -0.707115
vn 0.707098 0.000089 -0.707115
vn 0.380716 0.000299 -0.924692
vn 0.382726 0.000000 -0.923862
vn 1.000000 0.000001 -0.000002
vn 0.706991 0.000185 -0.707222
vn 1.000000 0.000066 0.000002
vn 1.000000 0.000066 0.000002
vn 0.706991 0.000185 -0.707222
vn 0.707098 0.000089 -0.707115
vn 0.707117 -0.000003 0.707096
vn 1.000000 0.000001 -0.000002
vn 0.707108 -0.000001 0.707106
vn 0.707108 -0.000001 0.707106
vn 1.000000 0.000001 -0.000002
vn 1.000000 0.000066 0.000002
vn -0.000002 -0.000004 1.000000
vn 0.707117 -0.000003 0.707096
vn -0.000002 -0.000003 1.000000
vn -0.000002 -0.000003 1.000000
vn 0.707117 -0.000003 0.707096
vn 0.707108 -0.000001 0.707106
vn -0.560046 0.000000 0.828462
vn -0.000002 -0.000004 1.000000
vn -0.560064 -0.000004 0.828450
vn -0.560064 -0.000004 0.828450
vn -0.000002 -0.000004 1.000000
vn -0.000002 -0.000003 1.000000
vn -0.836006 0.000000 0.548721
vn -0.836005 0.000000 0.548722
vn -0.560064 -0.000004 0.828450
vn -0.560064 -0.000004 0.828450
vn -0.836005 0.000000 0.548722
vn -0.560046 0.000000 0.828462
vn 0.000000 0.000000 1.000000
vn 0.000000 0.000000 1.000000
vn 0.000000 0.000000 1.000000
vn 0.000000 0.000000 1.000000
vn 0.000000 0.000000 1.000000
vn 0.000000 0.000000 1.000000
s off
g SM_Shelf_Cab_01g
f 1/1/1 3/2/2 2/3/3
f 2/3/4 3/2/5 4/4/6
f 3/5/7 5/6/8 4/7/9
f 4/7/10 5/6/11 6/8/12
f 5/9/13 7/10/14 6/11/15
f 6/11/16 7/10/17 8/12/18
f 6/13/19 8/14/20 4/15/21
f 4/15/22 8/14/23 2/16/24
f 7/17/25 5/18/26 1/19/27
f 1/19/28 5/18/29 3/20/30
f 8/21/31 7/22/32 2/23/33
f 2/23/34 7/22/35 1/24/36
f 24/25/37 29/26/38 39/27/39
f 39/27/40 29/26/41 42/28/42
f 39/27/43 42/28/44 25/29/45
f 25/29/46 42/28/47 28/30/48
f 25/29/49 28/30/50 41/31/51
f 41/31/52 28/30/53 44/32/54
f 27/33/55 41/31/56 30/34/57
f 30/34/58 41/31/59 44/32/60
f 30/34/61 43/35/62 27/33/63
f 27/33/64 43/35/65 40/36/66
f 43/35/67 31/37/68 40/36/69
f 40/36/70 31/37/71 26/38/72
f 29/39/73 24/40/74 31/37/75
f 31/37/76 24/40/77 26/38/78
f 39/27/79 25/29/80 45/41/81
f 45/41/82 25/29/83 35/42/84
f 41/31/85 47/43/86 25/29/87
f 25/29/88 47/43/89 35/42/90
f 41/31/91 27/33/92 47/43/93
f 47/43/94 27/33/95 37/44/96
f 40/36/97 26/38/98 46/45/99
f 46/45/100 26/38/101 38/46/102
f 40/36/103 46/45/104 27/33/105
f 27/33/106 46/45/107 37/44/108
f 32/47/109 9/48/110 42/28/111
f 42/28/112 9/48/113 28/30/114
f 42/28/115 29/26/116 32/47/117
f 32/47/118 29/26/119 10/49/120
f 12/50/121 10/51/122 31/37/123
f 31/37/124 10/51/125 29/39/126
f 30/34/127 11/52/128 43/35/129
f 43/35/130 11/52/131 33/53/132
f 43/35/133 33/53/134 31/37/135
f 31/37/136 33/53/137 12/50/138
f 11/52/139 30/34/140 34/54/141
f 34/54/142 30/34/143 44/32/144
f 44/32/145 28/30/146 34/54/147
f 34/54/148 28/30/149 9/48/150
f 38/46/151 19/55/152 46/45/153
f 46/45/154 19/55/155 49/56/156
f 46/45/157 49/56/158 37/44/159
f 37/44/160 49/56/161 20/57/162
f 19/55/163 38/46/164 17/58/165
f 17/58/166 38/46/167 36/59/168
f 48/60/169 17/61/170 45/41/171
f 45/41/172 17/61/173 36/62/174
f 18/63/175 48/60/176 35/42/177
f 35/42/178 48/60/179 45/41/180
f 49/56/181 19/55/182 22/64/183
f 22/64/184 19/55/185 16/65/186
f 20/57/187 49/56/188 15/66/189
f 15/66/190 49/56/191 22/64/192
f 50/67/193 18/63/194 47/43/195
f 47/43/196 18/63/197 35/42/198
f 37/44/199 20/57/200 47/43/201
f 47/43/202 20/57/203 50/67/204
f 39/27/205 45/41/206 24/25/207
f 24/25/208 45/41/209 36/62/210
f 36/59/211 38/46/212 24/40/213
f 24/40/214 38/46/215 26/38/216
f 21/68/217 48/60/218 13/69/219
f 13/69/220 48/60/221 18/63/222
f 14/70/223 17/61/224 21/68/225
f 21/68/226 17/61/227 48/60/228
f 14/71/229 16/65/230 17/58/231
f 17/58/232 16/65/233 19/55/234
f 15/66/235 23/72/236 20/57/237
f 20/57/238 23/72/239 50/67/240
f 13/69/241 18/63/242 23/72/243
f 23/72/244 18/63/245 50/67/246
f 51/73/247 56/74/248 63/75/249
f 63/75/250 56/74/251 60/76/252
f 63/75/253 60/76/254 53/77/255
f 53/77/256 60/76/257 57/78/258
f 64/79/259 61/80/260 54/81/261
f 54/81/262 61/80/263 58/82/264
f 53/77/265 57/78/266 64/79/267
f 64/79/268 57/78/269 61/80/270
f 62/83/271 52/84/272 59/85/273
f 59/85/274 52/84/275 55/86/276
f 51/73/277 62/83/278 56/74/279
f 56/74/280 62/83/281 59/85/282
f 52/87/283 54/81/284 55/88/285
f 55/88/286 54/81/287 58/82/288
f 55/89/289 58/90/290 59/91/291
f 58/90/292 61/92/293 59/91/294
f 59/91/295 61/92/296 56/93/297
f 56/93/298 61/92/299 60/94/300
f 60/94/301 61/92/302 57/95/303
f 52/96/304 62/97/305 54/98/306
f 54/98/307 62/97/308 64/99/309
f 62/97/310 51/100/311 64/99/312
f 51/100/313 63/101/314 64/99/315
f 63/101/316 53/102/317 64/99/318
f 74/103/319 76/104/320 70/105/321
f 70/105/322 76/104/323 65/106/324
f 71/107/325 67/108/326 74/103/327
f 74/103/328 67/108/329 76/104/330
f 75/109/331 77/110/332 71/107/333
f 71/107/334 77/110/335 67/108/336
f 73/111/337 69/112/338 70/113/339
f 70/113/340 69/112/341 74/114/342
f 74/114/343 69/112/344 72/115/345
f 75/116/346 71/117/347 72/115/348
f 74/114/349 72/115/350 71/117/351
f 73/118/352 78/119/353 69/120/354
f 69/120/355 78/119/356 66/121/357
f 66/122/358 68/123/359 69/124/360
f 69/124/361 68/123/362 72/125/363
f 66/126/364 78/127/365 68/128/366
f 68/128/367 78/127/368 77/129/369
f 78/127/370 65/130/371 77/129/372
f 65/130/373 76/131/374 77/129/375
f 76/131/376 67/132/377 77/129/378
f 68/123/379 77/110/380 72/125/381
f 72/125/382 77/110/383 75/109/384
f 65/106/385 78/119/386 70/105/387
f 70/105/388 78/119/389 73/118/390
f 83/133/391 80/134/392 84/135/393
f 84/135/394 80/134/395 81/136/396
f 85/137/397 79/138/398 83/139/399
f 83/139/400 79/138/401 80/140/402
f 82/141/403 86/142/404 81/143/405
f 81/143/406 86/142/407 84/144/408
f 82/145/409 79/146/410 86/147/411
f 86/147/412 79/146/413 85/148/414
f 80/149/415 79/150/416 81/151/417
f 81/151/418 79/150/419 82/152/420
f 85/153/421 83/154/422 86/155/423
f 86/155/424 83/154/425 84/156/426
f 97/157/427 93/158/428 100/159/429
f 100/159/430 93/158/431 92/160/432
f 93/158/433 90/161/434 92/160/435
f 102/162/436 100/159/437 96/163/438
f 96/163/439 100/159/440 92/160/441
f 104/164/442 102/165/443 99/166/444
f 99/166/445 102/165/446 96/167/447
f 105/168/448 104/164/449 95/169/450
f 95/169/451 104/164/452 99/166/453
f 103/170/454 105/168/455 91/171/456
f 91/171/457 105/168/458 95/169/459
f 101/172/460 103/170/461 89/173/462
f 89/173/463 103/170/464 91/171/465
f 98/174/466 101/172/467 88/175/468
f 88/175/469 101/172/470 89/173/471
f 98/174/472 88/175/473 94/176/474
f 94/176/475 88/175/476 87/177/477
f 109/178/478 112/179/479 111/180/480
f 111/180/481 112/179/482 118/181/483
f 115/182/484 111/180/485 120/183/486
f 120/183/487 111/180/488 118/181/489
f 117/184/490 115/185/491 122/186/492
f 122/186/493 115/185/494 120/187/495
f 114/188/496 117/184/497 123/189/498
f 123/189/499 117/184/500 122/186/501
f 110/190/502 114/188/503 121/191/504
f 121/191/505 114/188/506 123/189/507
f 108/192/508 110/190/509 119/193/510
f 119/193/511 110/190/512 121/191/513
f 107/194/514 108/192/515 116/195/516
f 116/195/517 108/192/518 119/193/519
f 113/196/520 106/197/521 116/195/522
f 116/195/523 106/197/524 107/194/525
f 128/198/526 125/199/527 129/200/528
f 129/200/529 125/199/530 126/201/531
f 130/202/532 124/203/533 128/204/534
f 128/204/535 124/203/536 125/205/537
f 127/206/538 131/207/539 126/208/540
f 126/208/541 131/207/542 129/209/543
f 127/210/544 124/211/545 131/212/546
f 131/212/547 124/211/548 130/213/549
f 125/214/550 124/215/551 126/216/552
f 126/216/553 124/215/554 127/217/555
f 130/218/556 128/219/557 131/220/558
f 131/220/559 128/219/560 129/221/561
f 145/222/562 142/223/563 137/224/564
f 142/223/565 138/225/566 137/224/567
f 138/225/568 135/226/569 137/224/570
f 147/227/571 145/222/572 141/228/573
f 141/228/574 145/222/575 137/224/576
f 149/229/577 147/230/578 144/231/579
f 144/231/580 147/230/581 141/232/582
f 150/233/583 149/229/584 140/234/585
f 140/234/586 149/229/587 144/231/588
f 148/235/589 150/233/590 136/236/591
f 136/236/592 150/233/593 140/234/594
f 146/237/595 148/235/596 134/238/597
f 134/238/598 148/235/599 136/236/600
f 143/239/601 146/237/602 133/240/603
f 133/240/604 146/237/605 134/238/606
f 143/239/607 133/240/608 139/241/609
f 139/241/610 133/240/611 132/242/612
f 154/243/613 157/244/614 156/245/615
f 156/245/616 157/244/617 163/246/618
f 160/247/619 156/245/620 165/248/621
f 165/248/622 156/245/623 163/246/624
f 162/249/625 160/250/626 167/251/627
f 167/251/628 160/250/629 165/252/630
f 159/253/631 162/249/632 168/254/633
f 168/254/634 162/249/635 167/251/636
f 155/255/637 159/253/638 166/256/639
f 166/256/640 159/253/641 168/254/642
f 153/257/643 155/255/644 164/258/645
f 164/258/646 155/255/647 166/256/648
f 152/259/649 153/257/650 161/260/651
f 161/260/652 153/257/653 164/258/654
f 158/261/655 151/262/656 161/260/657
f 161/260/658 151/262/659 152/259/660
f 169/263/661 170/264/662 171/265/663
f 171/265/664 170/264/665 172/266/666
