# This file uses feet as units for non-parametric coordinates.

g default
v 67.118042 -1.130234 -16.486000
v 67.115845 -0.554184 -16.982933
v 67.115143 -0.057243 -16.406891
v 67.117340 -0.633286 -15.909950
v 67.582809 -1.351158 -16.502922
v 67.579704 -0.536507 -17.205704
v 67.578705 0.166275 -16.391045
v 67.581810 -0.648376 -15.688263
v 66.924324 -0.594276 -16.446213
v 66.881287 10.692612 -1.235657
v 67.671036 10.692612 -1.235657
v 66.881287 12.814651 -1.235657
v 67.671036 12.814651 -1.235657
v 67.374397 -0.493576 -17.711510
v 68.164146 -0.493576 -17.711510
v 67.374397 -1.936218 -16.546234
v 68.164146 -1.936218 -16.546234
v 68.355598 0.000000 0.000000
v 68.355598 0.000000 -1.385277
v 68.355598 44.621613 0.000000
v 68.355598 44.621613 -1.385277
v 0.000000 44.621613 0.000000
v 0.000000 44.621613 -1.385277
v 0.000000 0.000000 0.000000
v 0.000000 0.000000 -1.385277
v 1.218103 10.692612 -1.235661
v 0.428354 10.692612 -1.235661
v 1.218103 12.814651 -1.235661
v 0.428354 12.814651 -1.235661
v 0.724993 -0.493576 -17.711514
v -0.064756 -0.493576 -17.711514
v 0.724993 -1.936218 -16.546238
v -0.064756 -1.936218 -16.546238
v 0.981348 -1.130234 -16.486004
v 0.983545 -0.554184 -16.982937
v 0.984247 -0.057243 -16.406895
v 0.982050 -0.633286 -15.909954
v 0.516581 -1.351158 -16.502926
v 0.519686 -0.536507 -17.205708
v 0.520685 0.166275 -16.391048
v 0.517580 -0.648376 -15.688267
v 1.175066 -0.594276 -16.446217
v 27.767530 40.573471 -0.760746
v 28.186766 40.573471 -0.760746
v 27.767530 40.154236 -0.760746
v 28.186766 40.154236 -0.760746
v 38.791893 40.573471 -0.760746
v 38.372650 40.573471 -0.760746
v 38.791893 40.154236 -0.760746
v 38.372650 40.154236 -0.760746
v 38.372650 40.573471 1.032673
v 38.791893 40.573471 1.242294
v 38.372650 40.154236 1.032673
v 38.791893 40.154236 1.242294
v 38.582275 40.643341 -0.760746
v 38.582275 40.084351 -0.760746
v 38.861763 40.363861 -0.760746
v 28.589346 40.573471 1.380447
v 28.379728 40.573471 1.799686
v 28.589346 40.154236 1.380447
v 28.379728 40.154236 1.799686
v 27.767530 40.573471 1.242294
v 28.186766 40.573471 1.032673
v 27.767530 40.154236 1.242294
v 28.186766 40.154236 1.032673
v 27.977144 40.643341 -0.760746
v 27.977144 40.084351 -0.760746
v 27.697657 40.363846 -0.760746
v 38.179688 40.573471 1.799686
v 37.970070 40.573471 1.380447
v 38.179688 40.154236 1.799686
v 37.970070 40.154236 1.380447
v 28.484537 40.643341 1.590065
v 28.484537 40.084351 1.590065
v 28.344793 40.363861 1.869556
v 27.977148 40.643341 1.137486
v 27.977148 40.084351 1.137486
v 27.697657 40.363846 1.277233
v 38.074883 40.643341 1.590065
v 38.074883 40.084351 1.590065
v 38.214622 40.363846 1.869556
v 38.582275 40.643341 1.137486
v 38.582275 40.084351 1.137486
v 38.861763 40.363861 1.277233
vt 0.532168 0.165351
vt 0.534372 0.162648
vt 0.532225 0.168191
vt 0.536828 0.162546
vt 0.532064 0.160132
vt 0.532007 0.157293
vt 0.529860 0.162835
vt 0.527404 0.162937
vt 0.532115 0.162742
vt 0.544320 0.151247
vt 0.547938 0.151175
vt 0.544437 0.162088
vt 0.548437 0.161974
vt 0.540507 0.060868
vt 0.544090 0.060977
vt 0.539805 0.157026
vt 0.543422 0.157140
vt 0.539258 0.166364
vt 0.543208 0.166497
vt 0.548475 0.061375
vt 0.544903 0.061441
vt 0.528295 0.158404
vt 0.519800 0.158246
vt 0.529055 0.067479
vt 0.521608 0.061230
vt 0.528900 0.156968
vt 0.530881 0.066061
vt 0.537396 0.157065
vt 0.538513 0.060040
vt 0.333073 0.528619
vt 0.333073 0.789480
vt 0.162787 0.528619
vt 0.162787 0.789480
vt 0.736184 0.933817
vt 0.736184 0.928531
vt 0.997041 0.933817
vt 0.997041 0.928531
vt 0.826212 0.898851
vt 0.996495 0.898851
vt 0.826212 0.904137
vt 0.996495 0.904137
vt 0.736915 0.940972
vt 0.736915 0.935686
vt 0.997769 0.940972
vt 0.997769 0.935686
vt 0.504047 0.199731
vt 0.504047 0.370009
vt 0.498760 0.199731
vt 0.498760 0.370009
vt 0.317645 0.765294
vt 0.177876 0.765294
vt 0.317645 0.551181
vt 0.177876 0.551181
vt 0.544320 0.151247
vt 0.544437 0.162088
vt 0.547938 0.151175
vt 0.548437 0.161974
vt 0.540507 0.060868
vt 0.539805 0.157026
vt 0.544090 0.060977
vt 0.543422 0.157140
vt 0.539258 0.166364
vt 0.543208 0.166497
vt 0.544903 0.061441
vt 0.548475 0.061375
vt 0.521608 0.061230
vt 0.519800 0.158246
vt 0.529055 0.067479
vt 0.528295 0.158404
vt 0.528900 0.156968
vt 0.537396 0.157065
vt 0.530881 0.066061
vt 0.538513 0.060040
vt 0.532168 0.165351
vt 0.532225 0.168191
vt 0.534372 0.162648
vt 0.536828 0.162546
vt 0.532064 0.160132
vt 0.532007 0.157293
vt 0.529860 0.162835
vt 0.527404 0.162937
vt 0.532115 0.162742
vt 0.598822 0.233213
vt 0.599483 0.226073
vt 0.601002 0.232354
vt 0.601698 0.226572
vt 0.603103 0.231512
vt 0.603631 0.227044
vt 0.605148 0.231239
vt 0.605392 0.227260
vt 0.607190 0.231514
vt 0.607166 0.227265
vt 0.609141 0.227043
vt 0.609286 0.232357
vt 0.611391 0.226865
vt 0.611450 0.233208
vt 0.615730 0.227241
vt 0.615610 0.233183
vt 0.601003 0.323057
vt 0.603104 0.323900
vt 0.605148 0.324171
vt 0.607191 0.323896
vt 0.609286 0.323053
vt 0.611450 0.322201
vt 0.602186 0.209212
vt 0.604326 0.209286
vt 0.600042 0.209136
vt 0.612905 0.209745
vt 0.617041 0.210024
vt 0.608588 0.209491
vt 0.610740 0.209621
vt 0.606455 0.209371
vt 0.611392 0.328546
vt 0.609142 0.328367
vt 0.607166 0.328144
vt 0.615731 0.328169
vt 0.615611 0.322226
vt 0.601698 0.328838
vt 0.599484 0.329337
vt 0.598822 0.322198
vt 0.603631 0.328366
vt 0.610740 0.345789
vt 0.612905 0.345665
vt 0.608588 0.345919
vt 0.605392 0.328150
vt 0.602186 0.346198
vt 0.604326 0.346124
vt 0.600042 0.346273
vt 0.617041 0.345386
vt 0.606455 0.346039
vn -0.620496 -0.783545 0.032281
vn -0.623552 -0.033293 -0.781073
vn -0.428530 -0.903248 0.022475
vn -0.428530 -0.903248 0.022475
vn -0.623552 -0.033293 -0.781073
vn -0.432082 -0.023171 -0.901537
vn -0.623552 -0.033293 -0.781073
vn -0.624949 0.780057 -0.030820
vn -0.432082 -0.023171 -0.901537
vn -0.432082 -0.023171 -0.901537
vn -0.624949 0.780057 -0.030820
vn -0.433635 0.900833 -0.021443
vn -0.624949 0.780057 -0.030820
vn -0.621888 0.029810 0.782538
vn -0.433635 0.900833 -0.021443
vn -0.433635 0.900833 -0.021443
vn -0.621888 0.029810 0.782538
vn -0.430096 0.020737 0.902545
vn -0.621888 0.029810 0.782538
vn -0.620496 -0.783545 0.032281
vn -0.430096 0.020737 0.902545
vn -0.430096 0.020737 0.902545
vn -0.620496 -0.783545 0.032281
vn -0.428530 -0.903248 0.022475
vn -0.623552 -0.033293 -0.781073
vn -0.620496 -0.783545 0.032281
vn -0.999995 -0.002793 0.001191
vn -0.624949 0.780057 -0.030820
vn -0.623552 -0.033293 -0.781073
vn -0.999995 -0.002793 0.001191
vn -0.621888 0.029810 0.782538
vn -0.624949 0.780057 -0.030820
vn -0.999995 -0.002793 0.001191
vn -0.620496 -0.783545 0.032281
vn -0.621888 0.029810 0.782538
vn -0.999995 -0.002793 0.001191
vn 0.000000 -0.719341 0.694657
vn 0.000000 -0.720919 0.693020
vn 0.000000 0.000000 1.000000
vn 0.000000 0.000000 1.000000
vn 0.000000 -0.720919 0.693020
vn 0.000000 0.000000 1.000000
vn 0.000000 0.777921 -0.628362
vn 0.000000 0.777921 -0.628362
vn 0.000000 0.721032 -0.692902
vn 0.000000 0.721032 -0.692902
vn 0.000000 0.777921 -0.628362
vn 0.000000 0.719245 -0.694757
vn 0.000000 0.721032 -0.692902
vn 0.000000 0.719245 -0.694757
vn 0.000000 -0.628358 -0.777924
vn 0.000000 -0.628358 -0.777924
vn 0.000000 0.719245 -0.694757
vn 0.000000 -0.628356 -0.777926
vn 0.000000 -0.771440 0.636303
vn 0.000000 -0.720919 0.693020
vn 0.000000 -0.771439 0.636303
vn 0.000000 -0.771439 0.636303
vn 0.000000 -0.720919 0.693020
vn 0.000000 -0.719341 0.694657
vn 0.999691 0.015611 0.019323
vn 0.999693 0.014825 0.019856
vn 0.999566 0.000676 0.029457
vn 0.999566 0.000676 0.029457
vn 0.999693 0.014825 0.019856
vn 0.999552 0.000000 0.029916
vn -0.999692 -0.015608 -0.019323
vn -0.999566 -0.000676 -0.029457
vn -0.999693 -0.014822 -0.019856
vn -0.999693 -0.014822 -0.019856
vn -0.999566 -0.000676 -0.029457
vn -0.999552 0.000000 -0.029916
vn 0.000000 0.000000 1.000000
vn 0.000000 0.000000 1.000000
vn 0.000000 0.000000 1.000000
vn 0.000000 0.000000 1.000000
vn 0.000000 0.000000 1.000000
vn 0.000000 0.000000 1.000000
vn 0.000000 -1.000000 0.000000
vn 0.000000 -1.000000 0.000000
vn 0.000000 -1.000000 0.000000
vn 0.000000 -1.000000 0.000000
vn 0.000000 -1.000000 0.000000
vn 0.000000 -1.000000 0.000000
vn 1.000000 0.000000 0.000000
vn 1.000000 0.000000 0.000000
vn 1.000000 0.000000 0.000000
vn 1.000000 0.000000 0.000000
vn 1.000000 0.000000 0.000000
vn 1.000000 0.000000 0.000000
vn 0.000000 1.000000 0.000000
vn 0.000000 1.000000 0.000000
vn 0.000000 1.000000 0.000000
vn 0.000000 1.000000 0.000000
vn 0.000000 1.000000 0.000000
vn 0.000000 1.000000 0.000000
vn -1.000000 0.000000 0.000000
vn -1.000000 0.000000 0.000000
vn -1.000000 0.000000 0.000000
vn -1.000000 0.000000 0.000000
vn -1.000000 0.000000 0.000000
vn -1.000000 0.000000 0.000000
vn 0.000000 0.000000 -1.000000
vn 0.000000 0.000000 -1.000000
vn 0.000000 0.000000 -1.000000
vn 0.000000 0.000000 -1.000000
vn 0.000000 0.000000 -1.000000
vn 0.000000 0.000000 -1.000000
vn 0.000000 -0.719346 0.694652
vn 0.000000 0.000000 1.000000
vn 0.000000 -0.720924 0.693014
vn 0.000000 -0.720924 0.693014
vn 0.000000 0.000000 1.000000
vn 0.000000 0.000000 1.000000
vn 0.000000 0.777923 -0.628360
vn 0.000000 0.721027 -0.692907
vn 0.000000 0.777923 -0.628360
vn 0.000000 0.777923 -0.628360
vn 0.000000 0.721027 -0.692907
vn 0.000000 0.719240 -0.694762
vn 0.000000 0.721027 -0.692907
vn 0.000000 -0.628357 -0.777925
vn 0.000000 0.719240 -0.694762
vn 0.000000 0.719240 -0.694762
vn 0.000000 -0.628357 -0.777925
vn 0.000000 -0.628358 -0.777924
vn 0.000000 -0.719346 0.694652
vn 0.000000 -0.720924 0.693014
vn 0.000000 -0.771433 0.636310
vn 0.000000 -0.771433 0.636310
vn 0.000000 -0.720924 0.693014
vn 0.000000 -0.771433 0.636310
vn -0.999552 0.000000 0.029916
vn -0.999693 0.014823 0.019856
vn -0.999566 0.000676 0.029457
vn -0.999566 0.000676 0.029457
vn -0.999693 0.014823 0.019856
vn -0.999691 0.015608 0.019323
vn 0.999691 -0.015607 -0.019323
vn 0.999693 -0.014822 -0.019856
vn 0.999566 -0.000676 -0.029457
vn 0.999566 -0.000676 -0.029457
vn 0.999693 -0.014822 -0.019856
vn 0.999552 0.000000 -0.029916
vn 0.620501 -0.783542 0.032275
vn 0.428540 -0.903243 0.022469
vn 0.623553 -0.033284 -0.781072
vn 0.623553 -0.033284 -0.781072
vn 0.428540 -0.903243 0.022469
vn 0.432084 -0.023166 -0.901536
vn 0.623553 -0.033284 -0.781072
vn 0.432084 -0.023166 -0.901536
vn 0.624940 0.780065 -0.030817
vn 0.624940 0.780065 -0.030817
vn 0.432084 -0.023166 -0.901536
vn 0.433630 0.900836 -0.021439
vn 0.624940 0.780065 -0.030817
vn 0.433630 0.900836 -0.021439
vn 0.621892 0.029809 0.782536
vn 0.621892 0.029809 0.782536
vn 0.433630 0.900836 -0.021439
vn 0.430100 0.020744 0.902543
vn 0.621892 0.029809 0.782536
vn 0.430100 0.020744 0.902543
vn 0.620501 -0.783542 0.032275
vn 0.620501 -0.783542 0.032275
vn 0.430100 0.020744 0.902543
vn 0.428540 -0.903243 0.022469
vn 0.623553 -0.033284 -0.781072
vn 0.999995 -0.002790 0.001190
vn 0.620501 -0.783542 0.032275
vn 0.624940 0.780065 -0.030817
vn 0.999995 -0.002790 0.001190
vn 0.623553 -0.033284 -0.781072
vn 0.621892 0.029809 0.782536
vn 0.999995 -0.002790 0.001190
vn 0.624940 0.780065 -0.030817
vn 0.620501 -0.783542 0.032275
vn 0.999995 -0.002790 0.001190
vn 0.621892 0.029809 0.782536
vn 0.009791 0.950084 -0.311841
vn 0.288480 0.955677 -0.058832
vn -0.003383 0.995841 0.091048
vn -0.003383 0.995841 0.091048
vn 0.288480 0.955677 -0.058832
vn -0.091304 0.995610 0.020622
vn -0.003383 0.995841 0.091048
vn -0.091304 0.995610 0.020622
vn -0.040041 0.634272 0.772072
vn -0.040041 0.634272 0.772072
vn -0.091304 0.995610 0.020622
vn -0.727825 0.662462 0.177242
vn -0.040041 0.634272 0.772072
vn -0.727825 0.662462 0.177242
vn -0.055810 0.000007 0.998442
vn -0.055810 0.000007 0.998442
vn -0.727825 0.662462 0.177242
vn -0.970083 0.000000 0.242773
vn -0.040042 -0.634229 0.772108
vn -0.055810 0.000007 0.998442
vn -0.727816 -0.662463 0.177278
vn -0.727816 -0.662463 0.177278
vn -0.055810 0.000007 0.998442
vn -0.970083 0.000000 0.242773
vn -0.727816 -0.662463 0.177278
vn -0.091321 -0.995608 0.020636
vn -0.040042 -0.634229 0.772108
vn -0.040042 -0.634229 0.772108
vn -0.091321 -0.995608 0.020636
vn -0.003383 -0.995840 0.091059
vn -0.091321 -0.995608 0.020636
vn 0.838745 -0.520427 -0.160195
vn -0.003383 -0.995840 0.091059
vn -0.003383 -0.995840 0.091059
vn 0.838745 -0.520427 -0.160195
vn 0.030562 -0.477573 -0.878060
vn 0.982781 0.000000 -0.184773
vn 0.035524 0.000000 -0.999369
vn 0.838745 -0.520427 -0.160195
vn 0.838745 -0.520427 -0.160195
vn 0.035524 0.000000 -0.999369
vn 0.030562 -0.477573 -0.878060
vn -0.003383 0.995841 0.091048
vn -0.040041 0.634272 0.772072
vn 0.003361 0.995272 0.097069
vn 0.003361 0.995272 0.097069
vn -0.040041 0.634272 0.772072
vn 0.039915 0.639008 0.768164
vn -0.055810 0.000007 0.998442
vn 0.056179 0.000000 0.998421
vn -0.040041 0.634272 0.772072
vn -0.040041 0.634272 0.772072
vn 0.056179 0.000000 0.998421
vn 0.039915 0.639008 0.768164
vn -0.055810 0.000007 0.998442
vn -0.040042 -0.634229 0.772108
vn 0.056179 0.000000 0.998421
vn 0.056179 0.000000 0.998421
vn -0.040042 -0.634229 0.772108
vn 0.039918 -0.639037 0.768139
vn -0.003383 -0.995840 0.091059
vn 0.030562 -0.477573 -0.878060
vn 0.003362 -0.995268 0.097109
vn 0.003362 -0.995268 0.097109
vn 0.030562 -0.477573 -0.878060
vn -0.030795 -0.471338 -0.881415
vn -0.003383 -0.995840 0.091059
vn 0.003362 -0.995268 0.097109
vn -0.040042 -0.634229 0.772108
vn -0.040042 -0.634229 0.772108
vn 0.003362 -0.995268 0.097109
vn 0.039918 -0.639037 0.768139
vn -0.008706 0.999962 -0.000004
vn -0.715841 0.698264 -0.000004
vn -0.091304 0.995610 0.020622
vn -0.091304 0.995610 0.020622
vn -0.715841 0.698264 -0.000004
vn -0.727825 0.662462 0.177242
vn -0.091304 0.995610 0.020622
vn 0.288480 0.955677 -0.058832
vn -0.008706 0.999962 -0.000004
vn -0.008706 0.999962 -0.000004
vn 0.288480 0.955677 -0.058832
vn 0.316218 0.948686 0.000000
vn 0.919149 -0.393909 0.000000
vn 1.000000 0.000000 0.000000
vn 0.838745 -0.520427 -0.160195
vn 0.838745 -0.520427 -0.160195
vn 1.000000 0.000000 0.000000
vn 0.982781 0.000000 -0.184773
vn -0.727816 -0.662463 0.177278
vn -0.715840 -0.698265 -0.000000
vn -0.091321 -0.995608 0.020636
vn -0.091321 -0.995608 0.020636
vn -0.715840 -0.698265 -0.000000
vn -0.008708 -0.999962 -0.000000
vn -0.091321 -0.995608 0.020636
vn -0.008708 -0.999962 -0.000000
vn 0.838745 -0.520427 -0.160195
vn 0.838745 -0.520427 -0.160195
vn -0.008708 -0.999962 -0.000000
vn 0.919149 -0.393909 0.000000
vn -0.715840 -0.698265 -0.000000
vn -0.727816 -0.662463 0.177278
vn -1.000000 -0.000000 0.000000
vn -1.000000 -0.000000 0.000000
vn -0.727816 -0.662463 0.177278
vn -0.970083 0.000000 0.242773
vn -0.970083 0.000000 0.242773
vn -0.727825 0.662462 0.177242
vn -1.000000 -0.000000 0.000000
vn -1.000000 -0.000000 0.000000
vn -0.727825 0.662462 0.177242
vn -0.715841 0.698264 -0.000004
vn -0.030795 -0.471338 -0.881415
vn -0.838748 -0.520421 -0.160202
vn 0.003362 -0.995268 0.097109
vn 0.003362 -0.995268 0.097109
vn -0.838748 -0.520421 -0.160202
vn 0.091318 -0.995608 0.020651
vn 0.003362 -0.995268 0.097109
vn 0.091318 -0.995608 0.020651
vn 0.039918 -0.639037 0.768139
vn 0.039918 -0.639037 0.768139
vn 0.091318 -0.995608 0.020651
vn 0.727828 -0.662445 0.177292
vn -0.838748 -0.520421 -0.160202
vn -0.030795 -0.471338 -0.881415
vn -0.982780 0.000002 -0.184783
vn -0.982780 0.000002 -0.184783
vn -0.030795 -0.471338 -0.881415
vn -0.035527 0.000001 -0.999369
vn 0.091303 0.995609 0.020635
vn -0.288484 0.955676 -0.058832
vn 0.003361 0.995272 0.097069
vn 0.003361 0.995272 0.097069
vn -0.288484 0.955676 -0.058832
vn -0.009996 0.950150 -0.311633
vn 0.727804 0.662482 0.177255
vn 0.091303 0.995609 0.020635
vn 0.039915 0.639008 0.768164
vn 0.039915 0.639008 0.768164
vn 0.091303 0.995609 0.020635
vn 0.003361 0.995272 0.097069
vn 0.091318 -0.995608 0.020651
vn -0.838748 -0.520421 -0.160202
vn 0.008707 -0.999962 0.000000
vn 0.008707 -0.999962 0.000000
vn -0.838748 -0.520421 -0.160202
vn -0.919144 -0.393923 0.000000
vn 0.727828 -0.662445 0.177292
vn 0.091318 -0.995608 0.020651
vn 0.715859 -0.698245 0.000000
vn 0.715859 -0.698245 0.000000
vn 0.091318 -0.995608 0.020651
vn 0.008707 -0.999962 0.000000
vn 0.970079 0.000000 0.242787
vn 0.727804 0.662482 0.177255
vn 0.056179 0.000000 0.998421
vn 0.056179 0.000000 0.998421
vn 0.727804 0.662482 0.177255
vn 0.039915 0.639008 0.768164
vn 0.039918 -0.639037 0.768139
vn 0.727828 -0.662445 0.177292
vn 0.056179 0.000000 0.998421
vn 0.056179 0.000000 0.998421
vn 0.727828 -0.662445 0.177292
vn 0.970079 0.000000 0.242787
vn -0.003383 0.995841 0.091048
vn 0.003361 0.995272 0.097069
vn 0.009791 0.950084 -0.311841
vn 0.009791 0.950084 -0.311841
vn 0.003361 0.995272 0.097069
vn -0.009996 0.950150 -0.311633
vn -0.035527 0.000001 -0.999369
vn -0.030795 -0.471338 -0.881415
vn 0.035524 0.000000 -0.999369
vn 0.035524 0.000000 -0.999369
vn -0.030795 -0.471338 -0.881415
vn 0.030562 -0.477573 -0.878060
vn 0.008705 0.999962 0.000000
vn 0.091303 0.995609 0.020635
vn 0.715822 0.698283 0.000000
vn 0.715822 0.698283 0.000000
vn 0.091303 0.995609 0.020635
vn 0.727804 0.662482 0.177255
vn -0.316207 0.948690 0.000000
vn -0.288484 0.955676 -0.058832
vn 0.008705 0.999962 0.000000
vn 0.008705 0.999962 0.000000
vn -0.288484 0.955676 -0.058832
vn 0.091303 0.995609 0.020635
vn -1.000000 0.000000 0.000000
vn -0.919144 -0.393923 0.000000
vn -0.982780 0.000002 -0.184783
vn -0.982780 0.000002 -0.184783
vn -0.919144 -0.393923 0.000000
vn -0.838748 -0.520421 -0.160202
vn 0.715859 -0.698245 0.000000
vn 1.000000 -0.000000 0.000000
vn 0.727828 -0.662445 0.177292
vn 0.727828 -0.662445 0.177292
vn 1.000000 -0.000000 0.000000
vn 0.970079 0.000000 0.242787
vn 0.715822 0.698283 0.000000
vn 0.727804 0.662482 0.177255
vn 1.000000 -0.000000 0.000000
vn 1.000000 -0.000000 0.000000
vn 0.727804 0.662482 0.177255
vn 0.970079 0.000000 0.242787
s off
g SM_Shelf_Cab_01b
f 1/1/1 2/2/2 5/3/3
f 5/3/4 2/2/5 6/4/6
f 2/2/7 3/5/8 6/4/9
f 6/4/10 3/5/11 7/6/12
f 3/5/13 4/7/14 7/6/15
f 7/6/16 4/7/17 8/8/18
f 4/7/19 1/1/20 8/8/21
f 8/8/22 1/1/23 5/3/24
f 2/2/25 1/1/26 9/9/27
f 3/5/28 2/2/29 9/9/30
f 4/7/31 3/5/32 9/9/33
f 1/1/34 4/7/35 9/9/36
f 10/10/37 11/11/38 12/12/39
f 12/12/40 11/11/41 13/13/42
f 12/14/43 13/15/44 14/16/45
f 14/16/46 13/15/47 15/17/48
f 14/16/49 15/17/50 16/18/51
f 16/18/52 15/17/53 17/19/54
f 17/20/55 11/11/56 16/21/57
f 16/21/58 11/11/59 10/10/60
f 17/22/61 15/23/62 11/24/63
f 11/24/64 15/23/65 13/25/66
f 16/26/67 10/27/68 14/28/69
f 14/28/70 10/27/71 12/29/72
f 20/30/73 22/31/74 18/32/75
f 18/32/76 22/31/77 24/33/78
f 24/34/79 25/35/80 18/36/81
f 18/36/82 25/35/83 19/37/84
f 20/38/85 18/39/86 21/40/87
f 21/40/88 18/39/89 19/41/90
f 23/42/91 22/43/92 21/44/93
f 21/44/94 22/43/95 20/45/96
f 24/46/97 22/47/98 25/48/99
f 25/48/100 22/47/101 23/49/102
f 25/50/103 23/51/104 19/52/105
f 19/52/106 23/51/107 21/53/108
f 26/54/109 28/55/110 27/56/111
f 27/56/112 28/55/113 29/57/114
f 28/58/115 30/59/116 29/60/117
f 29/60/118 30/59/119 31/61/120
f 30/59/121 32/62/122 31/61/123
f 31/61/124 32/62/125 33/63/126
f 26/54/127 27/56/128 32/64/129
f 32/64/130 27/56/131 33/65/132
f 29/66/133 31/67/134 27/68/135
f 27/68/136 31/67/137 33/69/138
f 32/70/139 30/71/140 26/72/141
f 26/72/142 30/71/143 28/73/144
f 34/74/145 38/75/146 35/76/147
f 35/76/148 38/75/149 39/77/150
f 35/76/151 39/77/152 36/78/153
f 36/78/154 39/77/155 40/79/156
f 36/78/157 40/79/158 37/80/159
f 37/80/160 40/79/161 41/81/162
f 37/80/163 41/81/164 34/74/165
f 34/74/166 41/81/167 38/75/168
f 35/76/169 42/82/170 34/74/171
f 36/78/172 42/82/173 35/76/174
f 37/80/175 42/82/176 36/78/177
f 34/74/178 42/82/179 37/80/180
f 58/83/181 63/84/182 73/85/183
f 73/85/184 63/84/185 76/86/186
f 73/85/187 76/86/188 59/87/189
f 59/87/190 76/86/191 62/88/192
f 59/87/193 62/88/194 75/89/195
f 75/89/196 62/88/197 78/90/198
f 61/91/199 75/89/200 64/92/201
f 64/92/202 75/89/203 78/90/204
f 64/92/205 77/93/206 61/91/207
f 61/91/208 77/93/209 74/94/210
f 77/93/211 65/95/212 74/94/213
f 74/94/214 65/95/215 60/96/216
f 63/97/217 58/98/218 65/95/219
f 65/95/220 58/98/221 60/96/222
f 73/85/223 59/87/224 79/99/225
f 79/99/226 59/87/227 69/100/228
f 75/89/229 81/101/230 59/87/231
f 59/87/232 81/101/233 69/100/234
f 75/89/235 61/91/236 81/101/237
f 81/101/238 61/91/239 71/102/240
f 74/94/241 60/96/242 80/103/243
f 80/103/244 60/96/245 72/104/246
f 74/94/247 80/103/248 61/91/249
f 61/91/250 80/103/251 71/102/252
f 66/105/253 43/106/254 76/86/255
f 76/86/256 43/106/257 62/88/258
f 76/86/259 63/84/260 66/105/261
f 66/105/262 63/84/263 44/107/264
f 46/108/265 44/109/266 65/95/267
f 65/95/268 44/109/269 63/97/270
f 64/92/271 45/110/272 77/93/273
f 77/93/274 45/110/275 67/111/276
f 77/93/277 67/111/278 65/95/279
f 65/95/280 67/111/281 46/108/282
f 45/110/283 64/92/284 68/112/285
f 68/112/286 64/92/287 78/90/288
f 78/90/289 62/88/290 68/112/291
f 68/112/292 62/88/293 43/106/294
f 72/104/295 53/113/296 80/103/297
f 80/103/298 53/113/299 83/114/300
f 80/103/301 83/114/302 71/102/303
f 71/102/304 83/114/305 54/115/306
f 53/113/307 72/104/308 51/116/309
f 51/116/310 72/104/311 70/117/312
f 82/118/313 51/119/314 79/99/315
f 79/99/316 51/119/317 70/120/318
f 52/121/319 82/118/320 69/100/321
f 69/100/322 82/118/323 79/99/324
f 83/114/325 53/113/326 56/122/327
f 56/122/328 53/113/329 50/123/330
f 54/115/331 83/114/332 49/124/333
f 49/124/334 83/114/335 56/122/336
f 84/125/337 52/121/338 81/101/339
f 81/101/340 52/121/341 69/100/342
f 71/102/343 54/115/344 81/101/345
f 81/101/346 54/115/347 84/125/348
f 73/85/349 79/99/350 58/83/351
f 58/83/352 79/99/353 70/120/354
f 70/117/355 72/104/356 58/98/357
f 58/98/358 72/104/359 60/96/360
f 55/126/361 82/118/362 47/127/363
f 47/127/364 82/118/365 52/121/366
f 48/128/367 51/119/368 55/126/369
f 55/126/370 51/119/371 82/118/372
f 48/129/373 50/123/374 51/116/375
f 51/116/376 50/123/377 53/113/378
f 49/124/379 57/130/380 54/115/381
f 54/115/382 57/130/383 84/125/384
f 47/127/385 52/121/386 57/130/387
f 57/130/388 52/121/389 84/125/390
