# This file uses feet as units for non-parametric coordinates.

g default
v 47.854294 -0.466187 0.177593
v 49.854336 -0.466187 0.177597
v 47.854294 17.114937 0.177593
v 49.854317 17.114937 0.177603
v 47.854332 -0.466186 -34.284893
v 49.854362 -0.466186 -34.284893
v 49.854351 17.114937 -34.284893
v 47.854332 17.114937 -34.284901
v 52.728306 8.393106 -26.720276
v 52.578075 8.755797 -26.720276
v 52.215385 8.906031 -26.720276
v 51.852692 8.755797 -26.720276
v 51.702461 8.393106 -26.720276
v 51.852692 8.030420 -26.720276
v 52.215385 7.880187 -26.720276
v 52.578075 8.030420 -26.720276
v 52.728306 8.393107 -7.349298
v 52.578079 8.755797 -7.349298
v 52.215385 8.906026 -7.349298
v 51.852699 8.755797 -7.349298
v 51.702461 8.393107 -7.349298
v 51.852699 8.030416 -7.349298
v 52.215385 7.880187 -7.349298
v 52.578079 8.030416 -7.349298
v 51.842522 8.393107 -8.970516
v 51.842522 8.670236 -9.130516
v 51.842522 8.670236 -9.450516
v 51.842522 8.393107 -9.610516
v 51.842522 8.115977 -9.450516
v 51.842522 8.115977 -9.130516
v 49.817909 8.393107 -8.970516
v 49.817909 8.670236 -9.130516
v 49.817909 8.670236 -9.450516
v 49.817909 8.393107 -9.610516
v 49.817909 8.115977 -9.450516
v 49.817909 8.115977 -9.130516
v 51.842518 8.393106 -24.507185
v 51.842518 8.670236 -24.667183
v 49.817902 8.670236 -24.667183
v 49.817902 8.393106 -24.507185
v 51.842518 8.670236 -24.987185
v 49.817902 8.670236 -24.987185
v 51.842518 8.393106 -25.147184
v 49.817902 8.393106 -25.147194
v 51.842518 8.115977 -24.987185
v 49.817902 8.115977 -24.987185
v 51.842518 8.115977 -24.667183
v 49.817902 8.115977 -24.667183
v 47.854294 0.000000 0.000002
v 47.854298 16.796726 0.000002
v 47.854298 16.796722 -1.933688
v 4.674061 7.268909 -32.158718
v 47.854294 7.268908 -1.933691
v 4.674061 16.796719 -1.933693
v 4.674061 7.268909 -1.933693
v 47.854286 16.796726 -32.158714
v 47.854286 7.268908 -32.158726
v 2.689003 16.796719 0.000002
v 4.674061 16.796719 -1.933688
v 4.674058 16.796719 -32.158714
v 4.674063 7.268909 -1.933690
v 2.688998 0.000000 0.000000
v 2.688998 0.000000 -34.092400
v 47.854286 0.000000 -34.092403
v 47.854286 16.796730 -34.092392
v 2.689000 16.796722 -34.092400
vt 0.812254 0.291925
vt 0.812254 0.283759
vt 0.004112 0.202394
vt 0.884035 0.283759
vt 0.884035 0.291925
vt 0.004112 0.130614
vt 0.144814 0.130614
vt 0.144814 0.202394
vt 1.857216 0.295966
vt 1.857216 0.304131
vt 1.716514 0.304132
vt 1.716514 0.295966
vt 1.571494 0.304131
vt 1.571494 0.295966
vt 1.712197 0.295966
vt 1.712197 0.304132
vt 1.993428 0.227004
vt 1.923076 0.227004
vt 1.923076 0.206590
vt 1.993428 0.206590
vt 1.812254 0.291925
vt 1.812254 0.283759
vt 1.884035 0.283759
vt 1.884035 0.291925
vt 1.587456 0.209985
vt 1.587456 0.232716
vt 1.743599 0.232716
vt 1.743599 0.209985
vt 1.587456 0.229469
vt 1.743599 0.229469
vt 1.587456 0.226222
vt 1.743599 0.226222
vt 1.587456 0.222974
vt 1.743599 0.222974
vt 1.587456 0.219726
vt 1.743599 0.219726
vt 1.587456 0.216480
vt 1.743599 0.216480
vt 1.587456 0.213233
vt 1.743599 0.213233
vt 1.977804 0.141102
vt 1.977804 0.143776
vt 1.961649 0.143776
vt 1.961649 0.141102
vt 1.977804 0.146450
vt 1.961649 0.146450
vt 1.933563 0.087859
vt 1.961649 0.133080
vt 1.977804 0.135754
vt 1.961649 0.135754
vt 1.977804 0.138428
vt 1.961649 0.138428
vt 1.936523 0.086632
vt 1.939485 0.087859
vt 1.940712 0.090820
vt 1.939485 0.093782
vt 1.936523 0.095009
vt 1.933563 0.093782
vt 1.932335 0.090820
vt 1.953407 0.090820
vt 1.952180 0.093782
vt 1.949219 0.095009
vt 1.946257 0.093782
vt 1.945030 0.090820
vt 1.946257 0.087859
vt 1.949219 0.086632
vt 1.952180 0.087859
vt 1.587456 0.206737
vt 1.743599 0.206737
vt 1.977804 0.130406
vt 1.977804 0.133080
vt 1.961649 0.130406
vt 1.977804 0.133080
vt 1.977804 0.141102
vt 1.977804 0.143776
vt 1.961649 0.143776
vt 1.961649 0.141102
vt 1.977804 0.146450
vt 1.961649 0.146450
vt 1.977804 0.130406
vt 1.977804 0.133080
vt 1.961649 0.133080
vt 1.961649 0.130406
vt 1.977804 0.133080
vt 1.977804 0.135754
vt 1.961649 0.135754
vt 1.977804 0.138428
vt 1.961649 0.138428
vt 0.073616 0.241021
vt 0.004020 0.241021
vt 0.004020 0.206733
vt 0.073616 0.206733
vt 0.498806 0.942675
vt 0.590869 0.942675
vt 0.590869 0.976964
vt 0.498806 0.976964
vt 0.139493 0.237769
vt 0.077792 0.237769
vt 0.231750 0.237769
vt 0.077792 0.206567
vt 0.139493 0.206567
vt 0.143739 0.237769
vt 0.143739 0.206567
vt 0.231750 0.206567
vt 1.942272 0.357198
vt 1.850209 0.357198
vt 1.850209 0.353251
vt 1.938220 0.353251
vt 1.231750 0.237769
vt 1.143739 0.237769
vt 1.143739 0.206567
vt 1.231750 0.206567
vt 1.231750 0.237769
vt 1.143739 0.237769
vt 1.143739 0.206567
vt 1.231750 0.206567
vt 1.904899 0.332691
vt 1.974495 0.332691
vt 1.970548 0.336743
vt 1.908846 0.336743
vt 1.942272 0.357198
vt 1.850209 0.357198
vt 1.850209 0.353251
vt 1.938220 0.353251
vt 1.333313 0.192228
vt 1.245301 0.192228
vt 1.245301 0.130526
vt 1.333313 0.130526
vt 1.241100 0.200081
vt 1.149037 0.200081
vt 1.149037 0.130485
vt 1.241100 0.130485
vt 1.498806 0.942675
vt 1.590869 0.942675
vt 1.590869 0.976964
vt 1.498806 0.976964
vn -0.000002 -0.000000 1.000000
vn -0.000003 -0.000000 1.000000
vn -0.000005 -0.000000 1.000000
vn 1.000000 0.000001 0.000001
vn 1.000000 0.000001 0.000001
vn 1.000000 0.000001 0.000001
vn 0.000000 1.000000 -0.000000
vn 0.000000 1.000000 -0.000000
vn 0.000000 1.000000 -0.000000
vn 0.000000 -1.000000 -0.000000
vn 0.000000 -1.000000 -0.000000
vn 0.000000 -1.000000 -0.000000
vn -1.000000 0.000000 -0.000001
vn -1.000000 0.000000 -0.000001
vn -1.000000 0.000000 -0.000001
vn 0.000002 0.000000 -1.000000
vn 0.000002 0.000000 -1.000000
vn 0.000000 0.000000 -1.000000
vn 1.000000 -0.000003 -0.000000
vn 0.707106 0.707107 -0.000000
vn 1.000000 0.000000 -0.000000
vn 0.707107 0.707107 -0.000000
vn -0.000000 1.000000 0.000000
vn 0.707106 0.707107 -0.000000
vn 0.000000 1.000000 0.000000
vn -0.707103 0.707110 0.000000
vn -0.000000 1.000000 0.000000
vn -0.707110 0.707103 0.000000
vn -1.000000 -0.000001 0.000000
vn -0.707103 0.707110 0.000000
vn -1.000000 -0.000002 0.000000
vn -0.707102 -0.707111 -0.000000
vn -1.000000 -0.000001 0.000000
vn -0.707110 -0.707104 0.000000
vn 0.000000 -1.000000 -0.000000
vn -0.707102 -0.707111 -0.000000
vn -0.000001 -1.000000 -0.000000
vn 0.707107 -0.707106 -0.000000
vn 0.000000 -1.000000 -0.000000
vn 0.707105 -0.707109 -0.000000
vn 1.000000 0.000000 -0.000000
vn 0.707107 -0.707106 -0.000000
vn 0.000000 0.000000 -1.000000
vn 0.000000 0.000000 -1.000000
vn 0.000000 0.000000 -1.000000
vn 0.000000 -0.000000 1.000000
vn 0.000000 -0.000000 1.000000
vn 0.000000 -0.000000 1.000000
vn 0.000000 0.000000 1.000000
vn 0.000000 0.866025 0.500001
vn 0.000000 -0.000000 1.000000
vn 0.000000 0.866025 0.500001
vn 0.000000 0.866025 -0.500001
vn 0.000000 0.866025 0.500001
vn 0.000000 0.866025 -0.500001
vn 0.000000 0.000000 -1.000000
vn 0.000000 0.866025 -0.500001
vn 0.000000 -0.000000 -1.000000
vn 0.000000 -0.866025 -0.500001
vn 0.000000 0.000000 -1.000000
vn 0.000000 -0.866025 -0.500001
vn 0.000000 -0.866025 0.500001
vn 0.000000 -0.866025 -0.500001
vn 0.000000 -0.866025 0.500001
vn 0.000000 -0.000000 1.000000
vn 0.000000 -0.866025 0.500001
vn 0.000000 0.000000 1.000000
vn 0.000000 0.866025 0.500001
vn 0.000000 -0.000000 1.000000
vn 0.000000 0.866025 0.500001
vn 0.000000 0.866032 -0.499990
vn 0.000000 0.866025 0.500001
vn 0.000002 0.866026 -0.500000
vn 0.000003 -0.000001 -1.000000
vn 0.000000 0.866032 -0.499990
vn 0.000003 -0.000001 -1.000000
vn 0.000002 -0.866031 -0.499991
vn 0.000003 -0.000001 -1.000000
vn 0.000000 -0.866025 -0.500001
vn 0.000000 -0.866025 0.500001
vn 0.000002 -0.866031 -0.499991
vn 0.000000 -0.866025 0.500001
vn 0.000000 -0.000000 1.000000
vn 0.000000 -0.866025 0.500001
vn -1.000000 0.000000 0.000000
vn -1.000000 0.000000 0.000000
vn -1.000000 0.000000 0.000000
vn -0.000000 -0.000000 1.000000
vn -0.000000 -0.000000 1.000000
vn 0.000000 -0.000000 1.000000
vn 1.000000 0.000000 -0.000000
vn 1.000000 0.000000 -0.000000
vn 1.000000 0.000000 -0.000000
vn 0.000000 0.000000 -1.000000
vn -0.000000 0.000000 -1.000000
vn 0.000000 0.000000 -1.000000
vn -0.000000 1.000000 0.000003
vn -0.000000 1.000000 0.000003
vn -0.000000 1.000000 0.000003
vn -0.000000 -0.000000 1.000000
vn -0.000000 -0.000000 1.000000
vn -0.000000 -0.000000 1.000000
vn 0.000000 -0.000000 1.000000
vn 0.000000 -0.000000 1.000000
vn 0.000000 -0.000001 1.000000
vn 0.000002 1.000000 0.000000
vn 0.000000 1.000000 0.000000
vn 0.000002 1.000000 -0.000000
vn -0.000000 1.000000 -0.000000
vn -0.000000 1.000000 -0.000002
vn -0.000000 1.000000 -0.000000
vn 0.000000 1.000000 0.000000
vn 0.000000 1.000000 -0.000000
vn 0.000000 1.000000 -0.000000
vn 0.000000 -1.000000 -0.000000
vn 0.000000 -1.000000 -0.000000
vn 0.000000 -1.000000 -0.000000
vn 0.000000 -0.000000 -1.000000
vn -0.000000 0.000000 -1.000000
vn -0.000000 0.000001 -1.000000
vn -0.000003 -0.000000 1.000000
vn -0.000005 -0.000000 1.000000
vn -0.000005 -0.000000 1.000000
vn 1.000000 0.000001 0.000001
vn 1.000000 0.000001 0.000001
vn 1.000000 0.000001 0.000001
vn 0.000000 1.000000 -0.000000
vn 0.000000 1.000000 -0.000000
vn 0.000000 1.000000 -0.000000
vn 0.000000 -1.000000 -0.000000
vn 0.000000 -1.000000 -0.000000
vn 0.000000 -1.000000 -0.000000
vn -1.000000 0.000000 -0.000001
vn -1.000000 0.000000 -0.000001
vn -1.000000 0.000000 -0.000001
vn 0.000000 0.000000 -1.000000
vn 0.000000 0.000000 -1.000000
vn 0.000002 0.000000 -1.000000
vn 1.000000 -0.000003 -0.000000
vn 0.707107 0.707107 -0.000000
vn 0.707106 0.707107 -0.000000
vn 0.707107 0.707107 -0.000000
vn 0.000000 1.000000 0.000000
vn -0.000000 1.000000 0.000000
vn 0.000000 1.000000 0.000000
vn -0.707110 0.707103 0.000000
vn -0.707103 0.707110 0.000000
vn -0.707110 0.707103 0.000000
vn -1.000000 -0.000002 0.000000
vn -1.000000 -0.000001 0.000000
vn -1.000000 -0.000002 0.000000
vn -0.707110 -0.707104 0.000000
vn -0.707102 -0.707111 -0.000000
vn -0.707110 -0.707104 0.000000
vn -0.000001 -1.000000 -0.000000
vn 0.000000 -1.000000 -0.000000
vn -0.000001 -1.000000 -0.000000
vn 0.707105 -0.707109 -0.000000
vn 0.707107 -0.707106 -0.000000
vn 0.707105 -0.707109 -0.000000
vn 1.000000 -0.000003 -0.000000
vn 1.000000 0.000000 -0.000000
vn 0.000000 0.000000 -1.000000
vn 0.000000 0.000000 -1.000000
vn 0.000000 0.000000 -1.000000
vn 0.000000 0.000000 -1.000000
vn 0.000000 0.000000 -1.000000
vn 0.000000 0.000000 -1.000000
vn 0.000000 0.000000 -1.000000
vn 0.000000 0.000000 -1.000000
vn 0.000000 0.000000 -1.000000
vn 0.000000 0.000000 -1.000000
vn 0.000000 0.000000 -1.000000
vn 0.000000 0.000000 -1.000000
vn 0.000000 0.000000 -1.000000
vn 0.000000 0.000000 -1.000000
vn 0.000000 0.000000 -1.000000
vn 0.000000 -0.000000 1.000000
vn 0.000000 -0.000000 1.000000
vn 0.000000 -0.000000 1.000000
vn 0.000000 -0.000000 1.000000
vn 0.000000 -0.000000 1.000000
vn 0.000000 -0.000000 1.000000
vn 0.000000 -0.000000 1.000000
vn 0.000000 -0.000000 1.000000
vn 0.000000 -0.000000 1.000000
vn 0.000000 -0.000000 1.000000
vn 0.000000 -0.000000 1.000000
vn 0.000000 -0.000000 1.000000
vn 0.000000 -0.000000 1.000000
vn 0.000000 -0.000000 1.000000
vn 0.000000 -0.000000 1.000000
vn 0.000000 0.000000 1.000000
vn 0.000000 0.866025 0.500001
vn 0.000000 0.866025 0.500001
vn 0.000000 0.866025 0.500001
vn 0.000000 0.866025 -0.500001
vn 0.000000 0.866025 -0.500001
vn 0.000000 0.866025 -0.500001
vn 0.000000 -0.000000 -1.000000
vn 0.000000 0.000000 -1.000000
vn 0.000000 -0.000000 -1.000000
vn 0.000000 -0.866025 -0.500001
vn 0.000000 -0.866025 -0.500001
vn 0.000000 -0.866025 -0.500001
vn 0.000000 -0.866025 0.500001
vn 0.000000 -0.866025 0.500001
vn 0.000000 -0.866025 0.500001
vn 0.000000 0.000000 1.000000
vn 0.000000 -0.000000 1.000000
vn 0.000000 0.000000 1.000000
vn 0.000000 0.866025 0.500001
vn 0.000000 0.866025 0.500001
vn 0.000000 0.866025 0.500001
vn 0.000002 0.866026 -0.500000
vn 0.000000 0.866032 -0.499990
vn 0.000002 0.866026 -0.500000
vn 0.000003 -0.000001 -1.000000
vn 0.000003 -0.000001 -1.000000
vn 0.000003 -0.000001 -1.000000
vn 0.000000 -0.866025 -0.500001
vn 0.000002 -0.866031 -0.499991
vn 0.000000 -0.866025 -0.500001
vn 0.000000 -0.866025 0.500001
vn 0.000000 -0.866025 0.500001
vn 0.000000 -0.866025 0.500001
vn 0.000000 0.000000 1.000000
vn 0.000000 -0.000000 1.000000
vn -1.000000 0.000000 0.000000
vn -1.000000 0.000000 0.000000
vn -1.000000 0.000000 0.000000
vn -0.000000 -0.000000 1.000000
vn -0.000000 0.000000 1.000000
vn -0.000000 -0.000000 1.000000
vn 1.000000 0.000000 -0.000000
vn 1.000000 0.000000 -0.000000
vn 1.000000 0.000000 -0.000000
vn 0.000000 0.000000 -1.000000
vn -0.000000 0.000000 -1.000000
vn -0.000000 0.000000 -1.000000
vn -0.000000 1.000000 0.000003
vn -0.000000 1.000000 0.000003
vn -0.000000 1.000000 0.000003
vn -0.000000 -0.000000 1.000000
vn -0.000000 -0.000000 1.000000
vn -0.000000 -0.000000 1.000000
vn 0.000000 -0.000000 1.000000
vn 0.000000 -0.000001 1.000000
vn 0.000000 -0.000001 1.000000
vn 0.000002 1.000000 0.000000
vn 0.000000 1.000000 0.000000
vn 0.000000 1.000000 0.000000
vn -0.000000 1.000000 -0.000000
vn -0.000000 1.000000 -0.000003
vn -0.000000 1.000000 -0.000002
vn 0.000000 1.000000 -0.000000
vn 0.000000 1.000000 -0.000000
vn 0.000000 1.000000 -0.000000
vn 0.000000 -1.000000 -0.000000
vn 0.000000 -1.000000 -0.000000
vn 0.000000 -1.000000 -0.000000
vn 0.000000 -0.000000 -1.000000
vn 0.000000 -0.000000 -1.000000
vn -0.000000 0.000000 -1.000000
s off
g SM_Dresser_03f
f 1/1/1 2/2/2 3/5/3
f 6/3/4 4/7/5 2/8/6
f 3/9/7 7/11/8 8/12/9
f 5/13/10 2/15/11 1/16/12
f 3/17/13 5/19/14 1/20/15
f 8/24/16 7/23/17 6/22/18
f 9/25/19 18/69/20 17/28/21
f 10/26/22 19/30/23 18/27/24
f 11/29/25 20/32/26 19/30/27
f 12/31/28 21/34/29 20/32/30
f 13/33/31 22/36/32 21/34/33
f 14/35/34 23/38/35 22/36/36
f 15/37/37 24/40/38 23/38/39
f 16/39/40 17/28/41 24/40/42
f 16/47/43 15/53/44 9/59/45
f 17/60/46 18/61/47 24/67/48
f 25/41/49 32/43/50 31/44/51
f 26/42/52 33/46/53 32/43/54
f 27/70/55 34/48/56 33/72/57
f 28/73/58 35/50/59 34/48/60
f 29/49/61 36/52/62 35/50/63
f 30/51/64 31/44/65 36/52/66
f 37/74/67 39/76/68 40/77/69
f 38/75/70 42/79/71 39/76/72
f 41/80/73 44/82/74 42/83/75
f 43/84/76 46/86/77 44/82/78
f 45/85/79 48/88/80 46/86/81
f 47/87/82 40/77/83 48/88/84
f 63/89/85 58/91/86 66/92/87
f 62/93/88 50/95/89 58/96/90
f 60/97/91 61/100/92 52/101/93
f 59/99/94 53/103/95 61/104/96
f 66/105/97 56/107/98 65/106/99
f 54/109/100 53/111/101 51/110/102
f 60/113/103 52/116/104 57/115/105
f 66/117/106 59/119/107 60/120/108
f 58/121/109 51/123/110 59/124/111
f 61/125/112 53/126/113 52/128/114
f 49/129/115 62/130/116 63/131/117
f 63/133/118 65/135/119 64/134/120
f 2/2/121 4/4/122 3/5/123
f 6/3/124 7/6/125 4/7/126
f 3/9/127 4/10/128 7/11/129
f 5/13/130 6/14/131 2/15/132
f 3/17/133 8/18/134 5/19/135
f 6/22/136 5/21/137 8/24/138
f 9/25/139 10/68/140 18/69/141
f 10/26/142 11/29/143 19/30/144
f 11/29/145 12/31/146 20/32/147
f 12/31/148 13/33/149 21/34/150
f 13/33/151 14/35/152 22/36/153
f 14/35/154 15/37/155 23/38/156
f 15/37/157 16/39/158 24/40/159
f 16/39/160 9/25/161 17/28/162
f 15/53/163 14/54/164 13/55/165
f 13/55/166 12/56/167 11/57/168
f 11/57/169 10/58/170 9/59/171
f 13/55/172 11/57/173 9/59/174
f 15/53/175 13/55/176 9/59/177
f 18/61/178 19/62/179 20/63/180
f 20/63/181 21/64/182 22/65/183
f 22/65/184 23/66/185 24/67/186
f 20/63/187 22/65/188 24/67/189
f 18/61/190 20/63/191 24/67/192
f 25/41/193 26/42/194 32/43/195
f 26/42/196 27/45/197 33/46/198
f 27/70/199 28/71/200 34/48/201
f 28/73/202 29/49/203 35/50/204
f 29/49/205 30/51/206 36/52/207
f 30/51/208 25/41/209 31/44/210
f 37/74/211 38/75/212 39/76/213
f 38/75/214 41/78/215 42/79/216
f 41/80/217 43/81/218 44/82/219
f 43/84/220 45/85/221 46/86/222
f 45/85/223 47/87/224 48/88/225
f 47/87/226 37/74/227 40/77/228
f 63/89/229 62/90/230 58/91/231
f 62/93/232 49/94/233 50/95/234
f 60/97/235 59/98/236 61/100/237
f 59/99/238 51/102/239 53/103/240
f 66/105/241 60/108/242 56/107/243
f 54/109/244 55/112/245 53/111/246
f 60/113/247 57/115/248 56/114/249
f 66/117/250 58/118/251 59/119/252
f 58/121/253 50/122/254 51/123/255
f 53/126/256 57/127/257 52/128/258
f 49/129/259 63/131/260 64/132/261
f 63/133/262 66/136/263 65/135/264
