# This file uses feet as units for non-parametric coordinates.

g default
v 47.854294 -0.317125 0.177591
v 47.854294 10.835138 0.177591
v 49.854317 10.835138 0.177601
v 49.854336 -0.317127 0.177595
v 47.854332 -0.317125 -34.284897
v 49.854370 -0.317125 -34.284897
v 49.854351 10.835140 -34.284897
v 47.854332 10.835138 -34.284897
v 52.728310 5.327744 -26.720278
v 52.578072 5.690434 -26.720278
v 52.215385 5.840660 -26.720278
v 51.852692 5.690434 -26.720278
v 51.702465 5.327744 -26.720278
v 51.852692 4.965050 -26.720278
v 52.215385 4.814823 -26.720278
v 52.578072 4.965050 -26.720278
v 52.728310 5.327736 -7.349299
v 52.578079 5.690430 -7.349299
v 52.215389 5.840660 -7.349299
v 51.852699 5.690430 -7.349299
v 51.702465 5.327736 -7.349299
v 51.852699 4.965050 -7.349299
v 52.215389 4.814819 -7.349299
v 52.578079 4.965050 -7.349299
v 51.842525 5.327736 -8.970518
v 51.842525 5.604866 -9.130518
v 51.842525 5.604866 -9.450518
v 51.842525 5.327736 -9.610518
v 51.842525 5.050613 -9.450518
v 51.842525 5.050613 -9.130518
v 49.817909 5.327736 -8.970518
v 49.817909 5.604866 -9.130518
v 49.817909 5.604866 -9.450518
v 49.817909 5.327736 -9.610518
v 49.817909 5.050613 -9.450518
v 49.817909 5.050613 -9.130518
v 51.842522 5.327736 -24.507187
v 51.842522 5.604866 -24.667185
v 49.817902 5.604866 -24.667185
v 49.817902 5.327736 -24.507187
v 51.842522 5.604866 -24.987186
v 49.817902 5.604866 -24.987186
v 51.842522 5.327736 -25.147186
v 49.817902 5.327736 -25.147196
v 51.842522 5.050613 -24.987186
v 49.817902 5.050613 -24.987186
v 51.842522 5.050613 -24.667187
v 49.817902 5.050613 -24.667187
v 47.854294 0.000000 0.000000
v 47.854298 10.552395 0.000000
v 2.689000 0.000005 -0.000003
v 2.688998 0.000002 -34.092400
v 47.854301 2.626699 -1.933695
v 47.854286 10.552399 -32.158714
v 47.854298 2.626701 -32.158726
v 4.674053 2.626698 -32.158722
v 2.689003 10.552383 0.000000
v 4.674056 10.552385 -1.933695
v 4.674053 10.552391 -32.158726
v 47.854294 10.552393 -1.933695
v 4.674056 2.626696 -1.933695
v 47.854286 0.000004 -34.092407
v 47.854286 10.552402 -34.092400
v 2.688995 10.552391 -34.092403
vt 0.933289 0.291925
vt 0.149417 0.942669
vt 0.149417 0.988201
vt 0.933289 0.283759
vt 0.008714 0.988201
vt 0.008714 0.942669
vt 0.978821 0.283759
vt 0.978821 0.291925
vt 1.857216 0.295966
vt 1.857216 0.304131
vt 1.716514 0.304132
vt 1.716514 0.295966
vt 1.571494 0.304131
vt 1.571494 0.295966
vt 1.712197 0.295966
vt 1.712197 0.304132
vt 1.993428 0.227004
vt 1.923076 0.227004
vt 1.923076 0.206590
vt 1.993428 0.206590
vt 1.933289 0.291925
vt 1.933289 0.283759
vt 1.978821 0.283759
vt 1.978821 0.291925
vt 1.587456 0.209985
vt 1.587456 0.232716
vt 1.743599 0.232716
vt 1.743599 0.209985
vt 1.587456 0.229469
vt 1.743599 0.229469
vt 1.587456 0.226222
vt 1.743599 0.226222
vt 1.587456 0.222974
vt 1.743599 0.222974
vt 1.587456 0.219726
vt 1.743599 0.219726
vt 1.587456 0.216480
vt 1.743599 0.216480
vt 1.587456 0.213233
vt 1.743599 0.213233
vt 1.977804 0.141102
vt 1.977804 0.143776
vt 1.961649 0.143776
vt 1.961649 0.141102
vt 1.977804 0.146450
vt 1.961649 0.146450
vt 1.933563 0.087859
vt 1.961649 0.133080
vt 1.977804 0.135754
vt 1.961649 0.135754
vt 1.977804 0.138428
vt 1.961649 0.138428
vt 1.936523 0.086632
vt 1.939485 0.087859
vt 1.940712 0.090820
vt 1.939485 0.093782
vt 1.936523 0.095009
vt 1.933563 0.093782
vt 1.932335 0.090820
vt 1.953407 0.090820
vt 1.952180 0.093782
vt 1.949219 0.095009
vt 1.946257 0.093782
vt 1.945030 0.090820
vt 1.946257 0.087859
vt 1.949219 0.086632
vt 1.952180 0.087859
vt 1.587456 0.206737
vt 1.743599 0.206737
vt 1.977804 0.130406
vt 1.977804 0.133080
vt 1.961649 0.130406
vt 1.977804 0.133080
vt 1.977804 0.141102
vt 1.977804 0.143776
vt 1.961649 0.143776
vt 1.961649 0.141102
vt 1.977804 0.146450
vt 1.961649 0.146450
vt 1.977804 0.130406
vt 1.977804 0.133080
vt 1.961649 0.133080
vt 1.961649 0.130406
vt 1.977804 0.133080
vt 1.977804 0.135754
vt 1.961649 0.135754
vt 1.977804 0.138428
vt 1.961649 0.138428
vt 0.918831 0.228300
vt 0.849235 0.228300
vt 0.849235 0.206759
vt 0.918831 0.206759
vt 0.004017 0.245333
vt 0.096081 0.245333
vt 0.096081 0.266874
vt 0.004017 0.266874
vt 1.241100 0.200081
vt 1.149037 0.200081
vt 1.149037 0.130485
vt 1.241100 0.130485
vt 1.942272 0.357198
vt 1.850209 0.357198
vt 1.850209 0.353251
vt 1.938220 0.353251
vt 1.139493 0.237769
vt 1.077792 0.237769
vt 1.077792 0.206567
vt 1.139493 0.206567
vt 1.231750 0.237769
vt 1.143739 0.237769
vt 1.143739 0.206567
vt 1.231750 0.206567
vt 1.231750 0.237769
vt 1.143739 0.237769
vt 1.143739 0.206567
vt 1.231750 0.206567
vt 1.904899 0.332691
vt 1.974495 0.332691
vt 1.970548 0.336743
vt 1.908846 0.336743
vt 1.942272 0.357198
vt 1.850209 0.357198
vt 1.850209 0.353251
vt 1.938220 0.353251
vt 1.333313 0.192228
vt 1.245301 0.192228
vt 1.245301 0.130526
vt 1.333313 0.130526
vt 1.004017 0.245333
vt 1.096081 0.245333
vt 1.096081 0.266874
vt 1.004017 0.266874
vn -0.000002 -0.000000 1.000000
vn -0.000003 -0.000000 1.000000
vn -0.000005 -0.000000 1.000000
vn 1.000000 0.000002 0.000001
vn 1.000000 0.000002 0.000001
vn 1.000000 0.000002 0.000001
vn 0.000000 1.000000 0.000000
vn 0.000000 1.000000 0.000000
vn 0.000000 1.000000 0.000000
vn 0.000000 -1.000000 -0.000000
vn 0.000000 -1.000000 -0.000000
vn 0.000000 -1.000000 -0.000000
vn -1.000000 0.000000 -0.000001
vn -1.000000 0.000000 -0.000001
vn -1.000000 0.000000 -0.000001
vn 0.000002 0.000000 -1.000000
vn 0.000002 0.000000 -1.000000
vn 0.000000 0.000000 -1.000000
vn 1.000000 -0.000000 -0.000000
vn 0.707111 0.707103 0.000000
vn 1.000000 -0.000002 -0.000000
vn 0.707103 0.707110 -0.000000
vn -0.000001 1.000000 0.000000
vn 0.707111 0.707103 0.000000
vn 0.000000 1.000000 0.000000
vn -0.707107 0.707107 0.000000
vn -0.000001 1.000000 0.000000
vn -0.707106 0.707107 0.000000
vn -1.000000 -0.000003 0.000000
vn -0.707107 0.707107 0.000000
vn -1.000000 0.000000 0.000000
vn -0.707105 -0.707109 0.000000
vn -1.000000 -0.000003 0.000000
vn -0.707107 -0.707106 0.000000
vn 0.000001 -1.000000 -0.000000
vn -0.707105 -0.707109 0.000000
vn -0.000000 -1.000000 -0.000000
vn 0.707110 -0.707104 -0.000000
vn 0.000001 -1.000000 -0.000000
vn 0.707102 -0.707111 -0.000000
vn 1.000000 -0.000002 -0.000000
vn 0.707110 -0.707104 -0.000000
vn 0.000000 0.000000 -1.000000
vn 0.000000 0.000000 -1.000000
vn 0.000000 0.000000 -1.000000
vn 0.000000 -0.000000 1.000000
vn 0.000000 -0.000000 1.000000
vn 0.000000 -0.000000 1.000000
vn 0.000000 -0.000004 1.000000
vn 0.000000 0.866025 0.500001
vn 0.000000 -0.000004 1.000000
vn 0.000000 0.866025 0.500001
vn 0.000000 0.866025 -0.500001
vn 0.000000 0.866025 0.500001
vn 0.000000 0.866025 -0.500001
vn 0.000000 -0.000004 -1.000000
vn 0.000000 0.866025 -0.500001
vn 0.000000 -0.000004 -1.000000
vn 0.000000 -0.866027 -0.499998
vn 0.000000 -0.000004 -1.000000
vn 0.000000 -0.866027 -0.499998
vn 0.000000 -0.866027 0.499998
vn 0.000000 -0.866027 -0.499998
vn 0.000000 -0.866027 0.499998
vn 0.000000 -0.000004 1.000000
vn 0.000000 -0.866027 0.499998
vn 0.000000 -0.000004 1.000000
vn 0.000000 0.866025 0.500001
vn 0.000000 -0.000004 1.000000
vn 0.000000 0.866025 0.500001
vn 0.000000 0.866032 -0.499990
vn 0.000000 0.866025 0.500001
vn 0.000002 0.866026 -0.500000
vn 0.000003 -0.000005 -1.000000
vn 0.000000 0.866032 -0.499990
vn 0.000003 -0.000005 -1.000000
vn 0.000002 -0.866033 -0.499988
vn 0.000003 -0.000005 -1.000000
vn 0.000000 -0.866027 -0.499998
vn 0.000000 -0.866027 0.499998
vn 0.000002 -0.866033 -0.499988
vn 0.000000 -0.866027 0.499998
vn 0.000000 -0.000004 1.000000
vn 0.000000 -0.866027 0.499998
vn -1.000000 -0.000000 0.000000
vn -1.000000 0.000000 0.000000
vn -1.000000 -0.000000 0.000000
vn -0.000000 -0.000000 1.000000
vn -0.000000 -0.000000 1.000000
vn 0.000000 -0.000000 1.000000
vn 0.000000 -1.000000 -0.000000
vn -0.000000 -1.000000 0.000000
vn 0.000000 -1.000000 -0.000000
vn -0.000000 1.000000 0.000000
vn -0.000000 1.000000 0.000002
vn -0.000000 1.000000 0.000003
vn 1.000000 0.000000 -0.000000
vn 1.000000 0.000000 -0.000000
vn 1.000000 0.000000 -0.000000
vn 0.000000 0.000000 -1.000000
vn 0.000000 0.000000 -1.000000
vn 0.000000 0.000000 -1.000000
vn -0.000000 -0.000000 1.000000
vn -0.000000 -0.000001 1.000000
vn -0.000000 -0.000001 1.000000
vn -0.000000 1.000000 0.000000
vn 0.000000 1.000000 0.000000
vn -0.000000 1.000000 0.000000
vn -0.000000 1.000000 -0.000000
vn -0.000000 1.000000 -0.000000
vn -0.000000 1.000000 -0.000000
vn -0.000000 1.000000 0.000000
vn -0.000000 1.000000 0.000000
vn -0.000000 1.000000 0.000000
vn 0.000000 -0.000000 -1.000000
vn -0.000000 0.000001 -1.000000
vn -0.000000 0.000001 -1.000000
vn -0.000003 -0.000000 1.000000
vn -0.000005 -0.000000 1.000000
vn -0.000005 -0.000000 1.000000
vn 1.000000 0.000002 0.000001
vn 1.000000 0.000002 0.000001
vn 1.000000 0.000002 0.000001
vn 0.000000 1.000000 0.000000
vn 0.000000 1.000000 0.000000
vn 0.000000 1.000000 0.000000
vn 0.000000 -1.000000 -0.000000
vn 0.000000 -1.000000 -0.000000
vn 0.000000 -1.000000 -0.000000
vn -1.000000 0.000000 -0.000001
vn -1.000000 0.000000 -0.000001
vn -1.000000 0.000000 -0.000001
vn 0.000000 0.000000 -1.000000
vn 0.000000 0.000000 -1.000000
vn 0.000002 0.000000 -1.000000
vn 1.000000 -0.000000 -0.000000
vn 0.707103 0.707110 -0.000000
vn 0.707111 0.707103 0.000000
vn 0.707103 0.707110 -0.000000
vn 0.000000 1.000000 0.000000
vn -0.000001 1.000000 0.000000
vn 0.000000 1.000000 0.000000
vn -0.707106 0.707107 0.000000
vn -0.707107 0.707107 0.000000
vn -0.707106 0.707107 0.000000
vn -1.000000 0.000000 0.000000
vn -1.000000 -0.000003 0.000000
vn -1.000000 0.000000 0.000000
vn -0.707107 -0.707106 0.000000
vn -0.707105 -0.707109 0.000000
vn -0.707107 -0.707106 0.000000
vn -0.000000 -1.000000 -0.000000
vn 0.000001 -1.000000 -0.000000
vn -0.000000 -1.000000 -0.000000
vn 0.707102 -0.707111 -0.000000
vn 0.707110 -0.707104 -0.000000
vn 0.707102 -0.707111 -0.000000
vn 1.000000 -0.000000 -0.000000
vn 1.000000 -0.000002 -0.000000
vn 0.000000 0.000000 -1.000000
vn 0.000000 0.000000 -1.000000
vn 0.000000 0.000000 -1.000000
vn 0.000000 0.000000 -1.000000
vn 0.000000 0.000000 -1.000000
vn 0.000000 0.000000 -1.000000
vn 0.000000 0.000000 -1.000000
vn 0.000000 0.000000 -1.000000
vn 0.000000 0.000000 -1.000000
vn 0.000000 0.000000 -1.000000
vn 0.000000 0.000000 -1.000000
vn 0.000000 0.000000 -1.000000
vn 0.000000 0.000000 -1.000000
vn 0.000000 0.000000 -1.000000
vn 0.000000 0.000000 -1.000000
vn 0.000000 -0.000000 1.000000
vn 0.000000 -0.000000 1.000000
vn 0.000000 -0.000000 1.000000
vn 0.000000 -0.000000 1.000000
vn 0.000000 -0.000000 1.000000
vn 0.000000 -0.000000 1.000000
vn 0.000000 -0.000000 1.000000
vn 0.000000 -0.000000 1.000000
vn 0.000000 -0.000000 1.000000
vn 0.000000 -0.000000 1.000000
vn 0.000000 -0.000000 1.000000
vn 0.000000 -0.000000 1.000000
vn 0.000000 -0.000000 1.000000
vn 0.000000 -0.000000 1.000000
vn 0.000000 -0.000000 1.000000
vn 0.000000 -0.000004 1.000000
vn 0.000000 0.866025 0.500001
vn 0.000000 0.866025 0.500001
vn 0.000000 0.866025 0.500001
vn 0.000000 0.866025 -0.500001
vn 0.000000 0.866025 -0.500001
vn 0.000000 0.866025 -0.500001
vn 0.000000 -0.000004 -1.000000
vn 0.000000 -0.000004 -1.000000
vn 0.000000 -0.000004 -1.000000
vn 0.000000 -0.866027 -0.499998
vn 0.000000 -0.866027 -0.499998
vn 0.000000 -0.866027 -0.499998
vn 0.000000 -0.866027 0.499998
vn 0.000000 -0.866027 0.499998
vn 0.000000 -0.866027 0.499998
vn 0.000000 -0.000004 1.000000
vn 0.000000 -0.000004 1.000000
vn 0.000000 -0.000004 1.000000
vn 0.000000 0.866025 0.500001
vn 0.000000 0.866025 0.500001
vn 0.000000 0.866025 0.500001
vn 0.000002 0.866026 -0.500000
vn 0.000000 0.866032 -0.499990
vn 0.000002 0.866026 -0.500000
vn 0.000003 -0.000005 -1.000000
vn 0.000003 -0.000005 -1.000000
vn 0.000003 -0.000005 -1.000000
vn 0.000000 -0.866027 -0.499998
vn 0.000002 -0.866033 -0.499988
vn 0.000000 -0.866027 -0.499998
vn 0.000000 -0.866027 0.499998
vn 0.000000 -0.866027 0.499998
vn 0.000000 -0.866027 0.499998
vn 0.000000 -0.000004 1.000000
vn 0.000000 -0.000004 1.000000
vn -1.000000 -0.000000 0.000000
vn -1.000000 0.000000 0.000000
vn -1.000000 0.000000 0.000000
vn -0.000000 -0.000000 1.000000
vn -0.000000 0.000000 1.000000
vn -0.000000 -0.000000 1.000000
vn 0.000000 -1.000000 -0.000000
vn 0.000000 -1.000000 -0.000000
vn 0.000000 -1.000000 -0.000000
vn -0.000000 1.000000 0.000000
vn -0.000000 1.000000 0.000000
vn -0.000000 1.000000 0.000002
vn 1.000000 0.000000 -0.000000
vn 1.000000 0.000000 -0.000000
vn 1.000000 0.000000 -0.000000
vn 0.000000 0.000000 -1.000000
vn 0.000000 0.000000 -1.000000
vn 0.000000 0.000000 -1.000000
vn -0.000000 -0.000000 1.000000
vn 0.000000 -0.000000 1.000000
vn -0.000000 -0.000001 1.000000
vn -0.000000 1.000000 0.000000
vn 0.000000 1.000000 0.000000
vn 0.000000 1.000000 0.000000
vn -0.000000 1.000000 -0.000000
vn -0.000000 1.000000 0.000000
vn -0.000000 1.000000 -0.000000
vn -0.000000 1.000000 0.000000
vn -0.000000 1.000000 0.000000
vn -0.000000 1.000000 0.000000
vn 0.000000 -0.000000 -1.000000
vn 0.000000 -0.000000 -1.000000
vn -0.000000 0.000001 -1.000000
s off
g SM_Dresser_03d
f 1/1/1 4/4/2 2/8/3
f 6/2/4 3/5/5 4/6/6
f 2/9/7 7/11/8 8/12/9
f 5/13/10 4/15/11 1/16/12
f 2/17/13 5/19/14 1/20/15
f 8/24/16 7/23/17 6/22/18
f 9/25/19 18/69/20 17/28/21
f 10/26/22 19/30/23 18/27/24
f 11/29/25 20/32/26 19/30/27
f 12/31/28 21/34/29 20/32/30
f 13/33/31 22/36/32 21/34/33
f 14/35/34 23/38/35 22/36/36
f 15/37/37 24/40/38 23/38/39
f 16/39/40 17/28/41 24/40/42
f 16/47/43 15/53/44 9/59/45
f 17/60/46 18/61/47 24/67/48
f 25/41/49 32/43/50 31/44/51
f 26/42/52 33/46/53 32/43/54
f 27/70/55 34/48/56 33/72/57
f 28/73/58 35/50/59 34/48/60
f 29/49/61 36/52/62 35/50/63
f 30/51/64 31/44/65 36/52/66
f 37/74/67 39/76/68 40/77/69
f 38/75/70 42/79/71 39/76/72
f 41/80/73 44/82/74 42/83/75
f 43/84/76 46/86/77 44/82/78
f 45/85/79 48/88/80 46/86/81
f 47/87/82 40/77/83 48/88/84
f 52/89/85 57/91/86 64/92/87
f 51/93/88 50/95/89 57/96/90
f 49/97/91 51/98/92 52/99/93
f 64/101/94 54/103/95 63/102/96
f 59/105/97 61/107/98 56/108/99
f 58/109/100 53/111/101 61/112/102
f 59/113/103 55/115/104 54/114/105
f 64/117/106 58/119/107 59/120/108
f 57/121/109 60/123/110 58/124/111
f 61/125/112 53/126/113 56/128/114
f 52/129/115 63/131/116 62/130/117
f 4/4/118 3/7/119 2/8/120
f 6/2/121 7/3/122 3/5/123
f 2/9/124 3/10/125 7/11/126
f 5/13/127 6/14/128 4/15/129
f 2/17/130 8/18/131 5/19/132
f 6/22/133 5/21/134 8/24/135
f 9/25/136 10/68/137 18/69/138
f 10/26/139 11/29/140 19/30/141
f 11/29/142 12/31/143 20/32/144
f 12/31/145 13/33/146 21/34/147
f 13/33/148 14/35/149 22/36/150
f 14/35/151 15/37/152 23/38/153
f 15/37/154 16/39/155 24/40/156
f 16/39/157 9/25/158 17/28/159
f 15/53/160 14/54/161 13/55/162
f 13/55/163 12/56/164 11/57/165
f 11/57/166 10/58/167 9/59/168
f 13/55/169 11/57/170 9/59/171
f 15/53/172 13/55/173 9/59/174
f 18/61/175 19/62/176 20/63/177
f 20/63/178 21/64/179 22/65/180
f 22/65/181 23/66/182 24/67/183
f 20/63/184 22/65/185 24/67/186
f 18/61/187 20/63/188 24/67/189
f 25/41/190 26/42/191 32/43/192
f 26/42/193 27/45/194 33/46/195
f 27/70/196 28/71/197 34/48/198
f 28/73/199 29/49/200 35/50/201
f 29/49/202 30/51/203 36/52/204
f 30/51/205 25/41/206 31/44/207
f 37/74/208 38/75/209 39/76/210
f 38/75/211 41/78/212 42/79/213
f 41/80/214 43/81/215 44/82/216
f 43/84/217 45/85/218 46/86/219
f 45/85/220 47/87/221 48/88/222
f 47/87/223 37/74/224 40/77/225
f 52/89/226 51/90/227 57/91/228
f 51/93/229 49/94/230 50/95/231
f 49/97/232 52/99/233 62/100/234
f 64/101/235 59/104/236 54/103/237
f 59/105/238 58/106/239 61/107/240
f 58/109/241 60/110/242 53/111/243
f 59/113/244 56/116/245 55/115/246
f 64/117/247 57/118/248 58/119/249
f 57/121/250 50/122/251 60/123/252
f 53/126/253 55/127/254 56/128/255
f 52/129/256 64/132/257 63/131/258
