# This file uses feet as units for non-parametric coordinates.

g default
v 1.999998 0.090802 -0.000002
v 1.999996 0.090801 -60.000000
v 0.000000 0.090802 -0.000002
v -0.000006 0.090801 -60.000000
v 1.999998 60.000004 0.000000
v 1.999996 60.000000 -60.000000
v 0.000000 60.000004 0.000000
v -0.000006 60.000000 -60.000000
vt 0.742752 0.124444
vt 0.742752 0.116278
vt 0.987717 0.116278
vt 0.987717 0.124444
vt 0.446986 0.628940
vt 0.691953 0.628940
vt 0.691953 0.873907
vt 0.446986 0.873907
vt 0.661545 0.308173
vt 0.661545 0.316339
vt 0.416580 0.316339
vt 0.416580 0.308173
vt 0.737869 0.253350
vt 0.737869 0.245185
vt 0.982834 0.245185
vt 0.982834 0.253350
vt 0.003944 0.003943
vt 0.126427 0.003943
vt 0.126427 0.126428
vt 0.003944 0.126428
vt 0.567307 0.304132
vt 0.322341 0.304132
vt 0.322341 0.295966
vt 0.567307 0.295966
vn 0.000000 -1.000000 -0.000000
vn 0.000000 -1.000000 -0.000000
vn 0.000000 -1.000000 -0.000000
vn 0.000000 1.000000 0.000000
vn 0.000000 1.000000 0.000000
vn 0.000000 1.000000 0.000000
vn 1.000000 0.000000 -0.000000
vn 1.000000 0.000000 -0.000000
vn 1.000000 0.000000 -0.000000
vn 0.000000 0.000000 -1.000000
vn 0.000000 0.000000 -1.000000
vn 0.000000 0.000000 -1.000000
vn -1.000000 -0.000000 0.000000
vn -1.000000 -0.000000 0.000000
vn -1.000000 -0.000000 0.000000
vn 0.000000 -0.000000 1.000000
vn 0.000000 -0.000000 1.000000
vn 0.000000 -0.000000 1.000000
vn 0.000000 -1.000000 -0.000000
vn 0.000000 -1.000000 -0.000000
vn 0.000000 -1.000000 -0.000000
vn 0.000000 1.000000 0.000000
vn 0.000000 1.000000 0.000000
vn 0.000000 1.000000 0.000000
vn 1.000000 0.000000 -0.000000
vn 1.000000 0.000000 -0.000000
vn 1.000000 0.000000 -0.000000
vn 0.000000 0.000000 -1.000000
vn 0.000000 0.000000 -1.000000
vn 0.000000 0.000000 -1.000000
vn -1.000000 -0.000000 0.000000
vn -1.000000 -0.000000 0.000000
vn -1.000000 -0.000000 0.000000
vn 0.000000 -0.000000 1.000000
vn 0.000000 -0.000000 1.000000
vn 0.000000 -0.000000 1.000000
s off
g SM_Dresser_03b
f 1/9/1 3/10/2 4/11/3
f 5/21/4 6/22/5 8/23/6
f 1/5/7 2/6/8 6/7/9
f 2/13/10 4/14/11 8/15/12
f 4/17/13 3/18/14 7/19/15
f 3/1/16 1/2/17 5/3/18
f 4/11/19 2/12/20 1/9/21
f 8/23/22 7/24/23 5/21/24
f 6/7/25 5/8/26 1/5/27
f 8/15/28 6/16/29 2/13/30
f 7/19/31 8/20/32 4/17/33
f 5/3/34 7/4/35 3/1/36
