# This file uses feet as units for non-parametric coordinates.

g default
v 47.854294 -0.142364 0.177595
v 49.854340 -0.142366 0.177599
v 47.854294 9.615124 0.177595
v 49.854317 9.615128 0.177605
v 47.854332 -0.142365 -34.284893
v 49.854370 -0.142365 -34.284893
v 49.854355 9.615122 -34.284889
v 47.854332 9.615124 -34.284893
v 52.728310 4.805113 -26.720272
v 52.578075 5.167807 -26.720272
v 52.215385 5.318037 -26.720272
v 51.852695 5.167807 -26.720272
v 51.702461 4.805113 -26.720272
v 51.852695 4.442427 -26.720274
v 52.215385 4.292196 -26.720274
v 52.578075 4.442427 -26.720274
v 52.728310 4.805113 -7.349296
v 52.578075 5.167807 -7.349296
v 52.215385 5.318030 -7.349296
v 51.852695 5.167807 -7.349296
v 51.702461 4.805113 -7.349296
v 51.852695 4.442420 -7.349296
v 52.215385 4.292197 -7.349296
v 52.578075 4.442420 -7.349296
v 51.842522 4.805113 -8.970514
v 51.842522 5.082247 -9.130514
v 51.842522 5.082247 -9.450514
v 51.842522 4.805113 -9.610514
v 51.842522 4.527983 -9.450514
v 51.842522 4.527983 -9.130514
v 49.817905 4.805113 -8.970514
v 49.817905 5.082247 -9.130514
v 49.817905 5.082247 -9.450514
v 49.817905 4.805113 -9.610514
v 49.817905 4.527983 -9.450514
v 49.817905 4.527983 -9.130514
v 51.842522 4.802118 -24.507181
v 51.842522 5.079248 -24.667181
v 49.817905 5.079248 -24.667181
v 49.817905 4.802118 -24.507181
v 51.842522 5.079248 -24.987181
v 49.817905 5.079248 -24.987181
v 51.842522 4.802118 -25.147181
v 49.817905 4.802118 -25.147190
v 51.842522 4.524988 -24.987181
v 49.817905 4.524988 -24.987181
v 51.842522 4.524988 -24.667181
v 49.817905 4.524988 -24.667181
v 47.854294 0.000002 0.000004
v 2.689003 0.000002 0.000004
v 2.689003 9.437567 0.000004
v 47.854305 9.437567 0.000004
v 4.674053 9.437571 -32.158714
v 4.674061 9.437563 -1.933686
v 47.854294 9.437571 -1.933686
v 4.674061 1.511881 -1.933686
v 47.854294 1.511881 -1.933686
v 2.688995 0.000002 -34.092392
v 47.854286 0.000006 -34.092392
v 47.854286 9.437574 -34.092388
v 2.688995 9.437571 -34.092392
v 47.854286 9.437571 -32.158714
v 47.854286 1.511881 -32.158707
v 4.674058 1.511881 -32.158722
vt 0.888277 0.291925
vt 0.298195 0.939238
vt 0.298195 0.980066
vt 0.888277 0.283759
vt 0.157493 0.980066
vt 0.157493 0.939238
vt 0.857216 0.295966
vt 0.571494 0.304131
vt 0.571494 0.295966
vt 0.712197 0.295966
vt 0.712197 0.304132
vt 0.993428 0.227004
vt 0.923076 0.227004
vt 0.923076 0.206590
vt 0.993428 0.206590
vt 0.857216 0.304131
vt 0.716514 0.304132
vt 0.716514 0.295966
vt 0.929105 0.283759
vt 0.929105 0.291925
vt 1.888278 0.291925
vt 1.888278 0.283759
vt 1.929105 0.283759
vt 1.929105 0.291925
vt 0.587456 0.209985
vt 0.587456 0.232716
vt 0.743599 0.232716
vt 0.743599 0.209985
vt 0.587456 0.229469
vt 0.743599 0.229469
vt 0.587456 0.226222
vt 0.743599 0.226222
vt 0.587456 0.222974
vt 0.743599 0.222974
vt 0.587456 0.219726
vt 0.743599 0.219726
vt 0.587456 0.216480
vt 0.743599 0.216480
vt 0.587456 0.213233
vt 0.743599 0.213233
vt 0.977804 0.141102
vt 0.977804 0.143776
vt 0.961649 0.143776
vt 0.961649 0.141102
vt 0.977804 0.146450
vt 0.961649 0.146450
vt 0.933562 0.087859
vt 0.961649 0.133080
vt 0.977804 0.135754
vt 0.961649 0.135754
vt 0.977804 0.138428
vt 0.961649 0.138428
vt 0.936523 0.086632
vt 0.939485 0.087859
vt 0.940712 0.090820
vt 0.939485 0.093782
vt 0.936523 0.095009
vt 0.933562 0.093782
vt 0.932335 0.090820
vt 0.953407 0.090820
vt 0.952180 0.093782
vt 0.949219 0.095009
vt 0.946257 0.093782
vt 0.945030 0.090820
vt 0.946257 0.087859
vt 0.949219 0.086632
vt 0.952180 0.087859
vt 0.587456 0.206737
vt 0.743599 0.206737
vt 0.977804 0.130406
vt 0.977804 0.133080
vt 0.961649 0.130406
vt 0.977804 0.133080
vt 1.977804 0.141102
vt 1.977804 0.143776
vt 1.961649 0.143776
vt 1.961649 0.141102
vt 1.977804 0.146450
vt 1.961649 0.146450
vt 1.977804 0.130406
vt 1.977804 0.133080
vt 1.961649 0.133080
vt 1.961649 0.130406
vt 1.977804 0.133080
vt 1.977804 0.135754
vt 1.961649 0.135754
vt 1.977804 0.138428
vt 1.961649 0.138428
vt 0.241100 0.200081
vt 0.149037 0.200081
vt 0.149037 0.130485
vt 0.241100 0.130485
vt 0.577523 0.264515
vt 0.507927 0.264515
vt 0.507927 0.245250
vt 0.577523 0.245250
vt 0.673717 0.264516
vt 0.581654 0.264516
vt 0.581654 0.245250
vt 0.673717 0.245250
vt 0.904899 0.332691
vt 0.942272 0.357198
vt 0.938219 0.353251
vt 0.908846 0.336743
vt 0.850209 0.357198
vt 0.850209 0.353251
vt 0.333313 0.192228
vt 0.245301 0.192228
vt 0.245301 0.130526
vt 0.333313 0.130526
vt 0.974495 0.332691
vt 0.970548 0.336743
vt 1.673717 0.264516
vt 1.581654 0.264516
vt 1.581654 0.245250
vt 1.673717 0.245250
vt 1.942272 0.357198
vt 1.850209 0.357198
vt 1.850209 0.353251
vt 1.938220 0.353251
vt 1.139493 0.237769
vt 1.077792 0.237769
vt 1.077792 0.206567
vt 1.139493 0.206567
vt 1.231750 0.237769
vt 1.143739 0.237769
vt 1.143739 0.206567
vt 1.231750 0.206567
vt 1.231750 0.237769
vt 1.143739 0.237769
vt 1.143739 0.206567
vt 1.231750 0.206567
vn 0.000000 1.000000 -0.000000
vn 0.000000 1.000000 -0.000000
vn 0.000000 1.000000 -0.000000
vn -0.000002 -0.000000 1.000000
vn -0.000003 -0.000000 1.000000
vn -0.000005 -0.000000 1.000000
vn 1.000000 0.000002 0.000001
vn 1.000000 0.000002 0.000001
vn 1.000000 0.000002 0.000001
vn 0.000000 -1.000000 -0.000000
vn 0.000000 -1.000000 -0.000000
vn 0.000000 -1.000000 -0.000000
vn -1.000000 0.000000 -0.000001
vn -1.000000 0.000000 -0.000001
vn -1.000000 0.000000 -0.000001
vn 0.000002 0.000000 -1.000000
vn 0.000002 0.000000 -1.000000
vn 0.000000 0.000000 -1.000000
vn 1.000000 -0.000002 -0.000000
vn 0.707103 0.707111 0.000000
vn 1.000000 0.000000 -0.000000
vn 0.707107 0.707107 0.000000
vn -0.000000 1.000000 0.000000
vn 0.707103 0.707111 0.000000
vn 0.000000 1.000000 0.000000
vn -0.707103 0.707111 0.000000
vn -0.000000 1.000000 0.000000
vn -0.707107 0.707107 0.000000
vn -1.000000 -0.000000 -0.000000
vn -0.707103 0.707111 0.000000
vn -1.000000 -0.000002 -0.000000
vn -0.707103 -0.707111 -0.000000
vn -1.000000 -0.000000 -0.000000
vn -0.707105 -0.707108 -0.000000
vn 0.000000 -1.000000 -0.000000
vn -0.707103 -0.707111 -0.000000
vn -0.000000 -1.000000 -0.000000
vn 0.707103 -0.707111 -0.000000
vn 0.000000 -1.000000 -0.000000
vn 0.707105 -0.707108 -0.000000
vn 1.000000 0.000000 -0.000000
vn 0.707103 -0.707111 -0.000000
vn 0.000000 0.000000 -1.000000
vn 0.000000 0.000000 -1.000000
vn 0.000000 0.000000 -1.000000
vn 0.000000 -0.000000 1.000000
vn 0.000000 -0.000000 1.000000
vn 0.000000 -0.000000 1.000000
vn 0.000000 0.000000 1.000000
vn 0.000000 0.866025 0.500001
vn 0.000000 -0.000000 1.000000
vn 0.000000 0.866025 0.500001
vn 0.000000 0.866025 -0.500001
vn 0.000000 0.866025 0.500001
vn 0.000000 0.866025 -0.500001
vn 0.000000 0.000000 -1.000000
vn 0.000000 0.866025 -0.500001
vn 0.000000 -0.000000 -1.000000
vn 0.000000 -0.866025 -0.500001
vn 0.000000 0.000000 -1.000000
vn 0.000000 -0.866025 -0.500001
vn 0.000000 -0.866025 0.500001
vn 0.000000 -0.866025 -0.500001
vn 0.000000 -0.866025 0.500001
vn 0.000000 -0.000000 1.000000
vn 0.000000 -0.866025 0.500001
vn 0.000000 0.000000 1.000000
vn 0.000000 0.866025 0.500001
vn 0.000000 -0.000000 1.000000
vn 0.000000 0.866025 0.500001
vn 0.000000 0.866032 -0.499990
vn 0.000000 0.866025 0.500001
vn 0.000002 0.866026 -0.500000
vn 0.000003 -0.000001 -1.000000
vn 0.000000 0.866032 -0.499990
vn 0.000003 -0.000001 -1.000000
vn 0.000002 -0.866031 -0.499991
vn 0.000003 -0.000001 -1.000000
vn 0.000000 -0.866025 -0.500001
vn 0.000000 -0.866025 0.500001
vn 0.000002 -0.866031 -0.499991
vn 0.000000 -0.866025 0.500001
vn 0.000000 -0.000000 1.000000
vn 0.000000 -0.866025 0.500001
vn 0.000000 -1.000000 -0.000000
vn 0.000000 -1.000000 -0.000000
vn 0.000000 -1.000000 -0.000000
vn -1.000000 -0.000000 0.000000
vn -1.000000 -0.000000 0.000000
vn -1.000000 -0.000000 0.000000
vn 0.000000 -0.000000 1.000000
vn 0.000000 -0.000000 1.000000
vn 0.000000 -0.000000 1.000000
vn -0.000000 1.000000 0.000000
vn 0.000000 1.000000 0.000000
vn -0.000000 1.000000 0.000000
vn -0.000000 1.000000 -0.000000
vn -0.000000 1.000000 -0.000000
vn -0.000000 1.000000 -0.000000
vn 0.000000 1.000000 0.000000
vn 0.000000 1.000000 0.000000
vn 0.000000 1.000000 0.000000
vn 0.000000 0.000000 -1.000000
vn 0.000000 0.000000 -1.000000
vn 0.000000 0.000000 -1.000000
vn -0.000000 1.000000 0.000000
vn -0.000000 1.000000 0.000002
vn -0.000000 1.000000 0.000003
vn 1.000000 0.000001 -0.000000
vn 1.000000 0.000000 -0.000000
vn 1.000000 0.000001 -0.000000
vn 0.000000 0.000000 -1.000000
vn 0.000000 0.000000 -1.000000
vn 0.000000 0.000000 -1.000000
vn -0.000000 -0.000001 1.000000
vn -0.000000 -0.000000 1.000000
vn 0.000000 -0.000000 1.000000
vn 0.000000 1.000000 -0.000000
vn 0.000000 1.000000 -0.000000
vn 0.000000 1.000000 -0.000000
vn -0.000003 -0.000000 1.000000
vn -0.000005 -0.000000 1.000000
vn -0.000005 -0.000000 1.000000
vn 1.000000 0.000002 0.000001
vn 1.000000 0.000001 0.000001
vn 1.000000 0.000002 0.000001
vn 0.000000 -1.000000 -0.000000
vn 0.000000 -1.000000 -0.000000
vn 0.000000 -1.000000 -0.000000
vn -1.000000 0.000000 -0.000001
vn -1.000000 0.000000 -0.000001
vn -1.000000 0.000000 -0.000001
vn 0.000000 0.000000 -1.000000
vn 0.000000 0.000000 -1.000000
vn 0.000002 0.000000 -1.000000
vn 1.000000 -0.000002 -0.000000
vn 0.707107 0.707107 0.000000
vn 0.707103 0.707111 0.000000
vn 0.707107 0.707107 0.000000
vn 0.000000 1.000000 0.000000
vn -0.000000 1.000000 0.000000
vn 0.000000 1.000000 0.000000
vn -0.707107 0.707107 0.000000
vn -0.707103 0.707111 0.000000
vn -0.707107 0.707107 0.000000
vn -1.000000 -0.000002 -0.000000
vn -1.000000 -0.000000 -0.000000
vn -1.000000 -0.000002 -0.000000
vn -0.707105 -0.707108 -0.000000
vn -0.707103 -0.707111 -0.000000
vn -0.707105 -0.707108 -0.000000
vn -0.000000 -1.000000 -0.000000
vn 0.000000 -1.000000 -0.000000
vn -0.000000 -1.000000 -0.000000
vn 0.707105 -0.707108 -0.000000
vn 0.707103 -0.707111 -0.000000
vn 0.707105 -0.707108 -0.000000
vn 1.000000 -0.000002 -0.000000
vn 1.000000 0.000000 -0.000000
vn 0.000000 0.000000 -1.000000
vn 0.000000 0.000000 -1.000000
vn 0.000000 0.000000 -1.000000
vn 0.000000 0.000000 -1.000000
vn 0.000000 0.000000 -1.000000
vn 0.000000 0.000000 -1.000000
vn 0.000000 0.000000 -1.000000
vn 0.000000 0.000000 -1.000000
vn 0.000000 0.000000 -1.000000
vn 0.000000 0.000000 -1.000000
vn 0.000000 0.000000 -1.000000
vn 0.000000 0.000000 -1.000000
vn 0.000000 0.000000 -1.000000
vn 0.000000 0.000000 -1.000000
vn 0.000000 0.000000 -1.000000
vn 0.000000 -0.000000 1.000000
vn 0.000000 -0.000000 1.000000
vn 0.000000 -0.000000 1.000000
vn 0.000000 -0.000000 1.000000
vn 0.000000 -0.000000 1.000000
vn 0.000000 -0.000000 1.000000
vn 0.000000 -0.000000 1.000000
vn 0.000000 -0.000000 1.000000
vn 0.000000 -0.000000 1.000000
vn 0.000000 -0.000000 1.000000
vn 0.000000 -0.000000 1.000000
vn 0.000000 -0.000000 1.000000
vn 0.000000 -0.000000 1.000000
vn 0.000000 -0.000000 1.000000
vn 0.000000 -0.000000 1.000000
vn 0.000000 0.000000 1.000000
vn 0.000000 0.866025 0.500001
vn 0.000000 0.866025 0.500001
vn 0.000000 0.866025 0.500001
vn 0.000000 0.866025 -0.500001
vn 0.000000 0.866025 -0.500001
vn 0.000000 0.866025 -0.500001
vn 0.000000 -0.000000 -1.000000
vn 0.000000 0.000000 -1.000000
vn 0.000000 -0.000000 -1.000000
vn 0.000000 -0.866025 -0.500001
vn 0.000000 -0.866025 -0.500001
vn 0.000000 -0.866025 -0.500001
vn 0.000000 -0.866025 0.500001
vn 0.000000 -0.866025 0.500001
vn 0.000000 -0.866025 0.500001
vn 0.000000 0.000000 1.000000
vn 0.000000 -0.000000 1.000000
vn 0.000000 0.000000 1.000000
vn 0.000000 0.866025 0.500001
vn 0.000000 0.866025 0.500001
vn 0.000000 0.866025 0.500001
vn 0.000002 0.866026 -0.500000
vn 0.000000 0.866032 -0.499990
vn 0.000002 0.866026 -0.500000
vn 0.000003 -0.000001 -1.000000
vn 0.000003 -0.000001 -1.000000
vn 0.000003 -0.000001 -1.000000
vn 0.000000 -0.866025 -0.500001
vn 0.000002 -0.866031 -0.499991
vn 0.000000 -0.866025 -0.500001
vn 0.000000 -0.866025 0.500001
vn 0.000000 -0.866025 0.500001
vn 0.000000 -0.866025 0.500001
vn 0.000000 0.000000 1.000000
vn 0.000000 -0.000000 1.000000
vn 0.000000 -1.000000 -0.000000
vn 0.000000 -1.000000 -0.000000
vn 0.000000 -1.000000 -0.000000
vn -1.000000 -0.000000 0.000000
vn -1.000000 -0.000000 0.000000
vn -1.000000 -0.000000 0.000000
vn 0.000000 -0.000000 1.000000
vn 0.000000 -0.000000 1.000000
vn 0.000000 -0.000000 1.000000
vn -0.000000 1.000000 0.000000
vn 0.000000 1.000000 0.000000
vn 0.000000 1.000000 0.000000
vn -0.000000 1.000000 -0.000000
vn -0.000000 1.000000 0.000000
vn -0.000000 1.000000 -0.000000
vn 0.000000 1.000000 0.000000
vn 0.000000 1.000000 0.000000
vn 0.000000 1.000000 0.000000
vn 0.000000 0.000000 -1.000000
vn 0.000000 0.000000 -1.000000
vn 0.000000 0.000000 -1.000000
vn -0.000000 1.000000 0.000000
vn 0.000000 1.000000 0.000000
vn -0.000000 1.000000 0.000002
vn 1.000000 0.000001 -0.000000
vn 1.000000 0.000000 -0.000000
vn 1.000000 0.000000 -0.000000
vn 0.000000 0.000000 -1.000000
vn 0.000000 0.000000 -1.000000
vn 0.000000 0.000000 -1.000000
vn -0.000000 -0.000001 1.000000
vn -0.000000 -0.000001 1.000000
vn -0.000000 -0.000000 1.000000
s off
g SM_Dresser_03c
f 3/7/1 7/17/2 8/18/3
f 1/1/4 2/4/5 3/20/6
f 6/2/7 4/5/8 2/6/9
f 5/8/10 2/10/11 1/11/12
f 3/12/13 5/14/14 1/15/15
f 8/24/16 7/23/17 6/22/18
f 9/25/19 18/69/20 17/28/21
f 10/26/22 19/30/23 18/27/24
f 11/29/25 20/32/26 19/30/27
f 12/31/28 21/34/29 20/32/30
f 13/33/31 22/36/32 21/34/33
f 14/35/34 23/38/35 22/36/36
f 15/37/37 24/40/38 23/38/39
f 16/39/40 17/28/41 24/40/42
f 16/47/43 15/53/44 9/59/45
f 17/60/46 18/61/47 24/67/48
f 25/41/49 32/43/50 31/44/51
f 26/42/52 33/46/53 32/43/54
f 27/70/55 34/48/56 33/72/57
f 28/73/58 35/50/59 34/48/60
f 29/49/61 36/52/62 35/50/63
f 30/51/64 31/44/65 36/52/66
f 37/74/67 39/76/68 40/77/69
f 38/75/70 42/79/71 39/76/72
f 41/80/73 44/82/74 42/83/75
f 43/84/76 46/86/77 44/82/78
f 45/85/79 48/88/80 46/86/81
f 47/87/82 40/77/83 48/88/84
f 49/89/85 58/91/86 59/92/87
f 58/93/88 51/95/89 61/96/90
f 50/97/91 52/99/92 51/100/93
f 61/101/94 54/112/95 53/104/96
f 51/102/97 55/106/98 54/103/99
f 56/107/100 57/108/101 64/110/102
f 58/113/103 60/115/104 59/114/105
f 61/117/106 62/119/107 60/118/108
f 53/121/109 56/123/110 64/124/111
f 54/125/112 57/127/113 56/128/114
f 53/129/115 63/131/116 62/130/117
f 3/7/118 4/16/119 7/17/120
f 2/4/121 4/19/122 3/20/123
f 6/2/124 7/3/125 4/5/126
f 5/8/127 6/9/128 2/10/129
f 3/12/130 8/13/131 5/14/132
f 6/22/133 5/21/134 8/24/135
f 9/25/136 10/68/137 18/69/138
f 10/26/139 11/29/140 19/30/141
f 11/29/142 12/31/143 20/32/144
f 12/31/145 13/33/146 21/34/147
f 13/33/148 14/35/149 22/36/150
f 14/35/151 15/37/152 23/38/153
f 15/37/154 16/39/155 24/40/156
f 16/39/157 9/25/158 17/28/159
f 15/53/160 14/54/161 13/55/162
f 13/55/163 12/56/164 11/57/165
f 11/57/166 10/58/167 9/59/168
f 13/55/169 11/57/170 9/59/171
f 15/53/172 13/55/173 9/59/174
f 18/61/175 19/62/176 20/63/177
f 20/63/178 21/64/179 22/65/180
f 22/65/181 23/66/182 24/67/183
f 20/63/184 22/65/185 24/67/186
f 18/61/187 20/63/188 24/67/189
f 25/41/190 26/42/191 32/43/192
f 26/42/193 27/45/194 33/46/195
f 27/70/196 28/71/197 34/48/198
f 28/73/199 29/49/200 35/50/201
f 29/49/202 30/51/203 36/52/204
f 30/51/205 25/41/206 31/44/207
f 37/74/208 38/75/209 39/76/210
f 38/75/211 41/78/212 42/79/213
f 41/80/214 43/81/215 44/82/216
f 43/84/217 45/85/218 46/86/219
f 45/85/220 47/87/221 48/88/222
f 47/87/223 37/74/224 40/77/225
f 49/89/226 50/90/227 58/91/228
f 58/93/229 50/94/230 51/95/231
f 50/97/232 49/98/233 52/99/234
f 61/101/235 51/111/236 54/112/237
f 51/102/238 52/105/239 55/106/240
f 57/108/241 63/109/242 64/110/243
f 58/113/244 61/116/245 60/115/246
f 61/117/247 53/120/248 62/119/249
f 53/121/250 54/122/251 56/123/252
f 54/125/253 55/126/254 57/127/255
f 53/129/256 64/132/257 63/131/258
