# This file uses feet as units for non-parametric coordinates.

g default
v 47.854294 13.145401 0.177595
v 49.854317 13.145401 0.177605
v 49.854370 13.145399 -34.284897
v 47.854332 13.145399 -34.284889
v 47.854332 -0.302906 -34.284889
v 49.854378 -0.302906 -34.284897
v 49.854340 -0.302907 0.177600
v 47.854294 -0.302906 0.177594
v 52.728310 6.489983 -26.720272
v 52.578075 6.852674 -26.720272
v 52.215385 7.002907 -26.720272
v 51.852695 6.852674 -26.720272
v 51.702461 6.489983 -26.720272
v 51.852695 6.127293 -26.720272
v 52.215385 5.977064 -26.720272
v 52.578075 6.127293 -26.720272
v 52.728310 6.489985 -7.349296
v 52.578075 6.852675 -7.349296
v 52.215385 7.002905 -7.349296
v 51.852695 6.852675 -7.349296
v 51.702461 6.489985 -7.349296
v 51.852695 6.127291 -7.349296
v 52.215385 5.977061 -7.349296
v 52.578075 6.127291 -7.349296
v 51.842522 6.489985 -8.970514
v 51.842522 6.767111 -9.130515
v 51.842522 6.767111 -9.450515
v 51.842522 6.489985 -9.610515
v 51.842522 6.212859 -9.450515
v 51.842522 6.212859 -9.130515
v 49.817905 6.489985 -8.970514
v 49.817905 6.767111 -9.130515
v 49.817905 6.767111 -9.450515
v 49.817905 6.489985 -9.610515
v 49.817905 6.212859 -9.450515
v 49.817905 6.212859 -9.130515
v 51.842522 6.489983 -24.507183
v 51.842522 6.767113 -24.667179
v 49.817905 6.767113 -24.667179
v 49.817905 6.489983 -24.507183
v 51.842522 6.767113 -24.987179
v 49.817905 6.767113 -24.987179
v 51.842522 6.489983 -25.147182
v 49.817905 6.489983 -25.147190
v 51.842522 6.212858 -24.987183
v 49.817905 6.212858 -24.987183
v 51.842522 6.212858 -24.667183
v 49.817905 6.212858 -24.667183
v 47.854294 0.000002 0.000005
v 2.689000 -0.000000 0.000000
v 47.854294 12.804804 0.000004
v 47.854294 4.879120 -1.933691
v 47.854286 12.804811 -32.158710
v 47.854286 4.879122 -32.158722
v 4.674058 4.879118 -32.158718
v 2.689003 12.804800 0.000004
v 4.674061 12.804794 -1.933691
v 4.674053 12.804796 -32.158718
v 47.854294 12.804806 -1.933691
v 4.674061 4.879113 -1.933691
v 2.688998 0.000000 -34.092396
v 47.854286 0.000002 -34.092400
v 47.854286 12.804815 -34.092392
v 2.689000 12.804808 -34.092400
vt 0.922498 0.279229
vt 0.653037 0.185412
vt 0.653037 0.130506
vt 0.922498 0.271064
vt 0.793740 0.130506
vt 0.793740 0.185412
vt 0.977404 0.271064
vt 0.977404 0.279229
vt 1.857216 0.295966
vt 1.857216 0.304131
vt 1.716514 0.304132
vt 1.716514 0.295966
vt 1.571494 0.304131
vt 1.571494 0.295966
vt 1.712197 0.295966
vt 1.712197 0.304132
vt 1.993428 0.227004
vt 1.923076 0.227004
vt 1.923076 0.206590
vt 1.993428 0.206590
vt 1.922498 0.279229
vt 1.922498 0.271064
vt 1.977404 0.271064
vt 1.977404 0.279229
vt 1.587456 0.209985
vt 1.587456 0.232716
vt 1.743599 0.232716
vt 1.743599 0.209985
vt 1.587456 0.229469
vt 1.743599 0.229469
vt 1.587456 0.226222
vt 1.743599 0.226222
vt 1.587456 0.222974
vt 1.743599 0.222974
vt 1.587456 0.219726
vt 1.743599 0.219726
vt 1.587456 0.216480
vt 1.743599 0.216480
vt 1.587456 0.213233
vt 1.743599 0.213233
vt 1.977804 0.141102
vt 1.977804 0.143776
vt 1.961649 0.143776
vt 1.961649 0.141102
vt 1.977804 0.146450
vt 1.961649 0.146450
vt 1.933563 0.087859
vt 1.961649 0.133080
vt 1.977804 0.135754
vt 1.961649 0.135754
vt 1.977804 0.138428
vt 1.961649 0.138428
vt 1.936523 0.086632
vt 1.939485 0.087859
vt 1.940712 0.090820
vt 1.939485 0.093782
vt 1.936523 0.095009
vt 1.933563 0.093782
vt 1.932335 0.090820
vt 1.953407 0.090820
vt 1.952180 0.093782
vt 1.949219 0.095009
vt 1.946257 0.093782
vt 1.945030 0.090820
vt 1.946257 0.087859
vt 1.949219 0.086632
vt 1.952180 0.087859
vt 1.587456 0.206737
vt 1.743599 0.206737
vt 1.977804 0.130406
vt 1.977804 0.133080
vt 1.961649 0.130406
vt 1.977804 0.133080
vt 1.977804 0.141102
vt 1.977804 0.143776
vt 1.961649 0.143776
vt 1.961649 0.141102
vt 1.977804 0.146450
vt 1.961649 0.146450
vt 1.977804 0.130406
vt 1.977804 0.133080
vt 1.961649 0.133080
vt 1.961649 0.130406
vt 1.977804 0.133080
vt 1.977804 0.135754
vt 1.961649 0.135754
vt 1.977804 0.138428
vt 1.961649 0.138428
vt 0.487191 0.232796
vt 0.417594 0.232796
vt 0.417594 0.206657
vt 0.487191 0.206657
vt 0.583385 0.232796
vt 0.491322 0.232796
vt 0.491322 0.206657
vt 0.583385 0.206657
vt 1.241100 0.200081
vt 1.149037 0.200081
vt 1.149037 0.130485
vt 1.241100 0.130485
vt 1.942272 0.357198
vt 1.850209 0.357198
vt 1.850209 0.353251
vt 1.938220 0.353251
vt 1.139493 0.237769
vt 1.077792 0.237769
vt 1.077792 0.206567
vt 1.139493 0.206567
vt 1.231750 0.237769
vt 1.143739 0.237769
vt 1.143739 0.206567
vt 1.231750 0.206567
vt 1.231750 0.237769
vt 1.143739 0.237769
vt 1.143739 0.206567
vt 1.231750 0.206567
vt 1.904899 0.332691
vt 1.974495 0.332691
vt 1.970548 0.336743
vt 1.908846 0.336743
vt 1.942272 0.357198
vt 1.850209 0.357198
vt 1.850209 0.353251
vt 1.938220 0.353251
vt 1.333313 0.192228
vt 1.245301 0.192228
vt 1.245301 0.130526
vt 1.333313 0.130526
vt 1.583385 0.232796
vt 1.491322 0.232796
vt 1.491322 0.206657
vt 1.583385 0.206657
vn -0.000002 -0.000000 1.000000
vn -0.000003 -0.000000 1.000000
vn -0.000005 -0.000000 1.000000
vn 1.000000 0.000001 0.000001
vn 1.000000 0.000001 0.000001
vn 1.000000 0.000001 0.000001
vn 0.000000 1.000000 0.000000
vn 0.000000 1.000000 0.000000
vn 0.000000 1.000000 0.000000
vn 0.000000 -1.000000 -0.000000
vn 0.000000 -1.000000 -0.000000
vn 0.000000 -1.000000 -0.000000
vn -1.000000 0.000000 -0.000001
vn -1.000000 0.000000 -0.000001
vn -1.000000 0.000000 -0.000001
vn -0.000005 -0.000000 -1.000000
vn -0.000005 -0.000000 -1.000000
vn -0.000005 -0.000000 -1.000000
vn 1.000000 -0.000000 -0.000000
vn 0.707107 0.707107 0.000000
vn 1.000000 0.000000 0.000000
vn 0.707107 0.707107 0.000000
vn -0.000000 1.000000 0.000000
vn 0.707107 0.707107 0.000000
vn 0.000000 1.000000 0.000000
vn -0.707107 0.707107 0.000000
vn -0.000000 1.000000 0.000000
vn -0.707107 0.707107 0.000000
vn -1.000000 -0.000000 -0.000000
vn -0.707107 0.707107 0.000000
vn -1.000000 0.000000 0.000000
vn -0.707107 -0.707107 -0.000000
vn -1.000000 -0.000000 -0.000000
vn -0.707103 -0.707111 -0.000000
vn 0.000000 -1.000000 -0.000000
vn -0.707107 -0.707107 -0.000000
vn -0.000000 -1.000000 -0.000000
vn 0.707107 -0.707107 -0.000000
vn 0.000000 -1.000000 -0.000000
vn 0.707103 -0.707111 -0.000000
vn 1.000000 0.000000 0.000000
vn 0.707107 -0.707107 -0.000000
vn 0.000000 0.000000 -1.000000
vn 0.000000 0.000000 -1.000000
vn 0.000000 0.000000 -1.000000
vn 0.000000 -0.000000 1.000000
vn 0.000000 -0.000000 1.000000
vn 0.000000 -0.000000 1.000000
vn 0.000000 -0.000004 1.000000
vn 0.000000 0.866025 0.500001
vn 0.000000 -0.000004 1.000000
vn 0.000000 0.866025 0.500001
vn 0.000000 0.866025 -0.500001
vn 0.000000 0.866025 0.500001
vn 0.000000 0.866025 -0.500001
vn 0.000000 -0.000004 -1.000000
vn 0.000000 0.866025 -0.500001
vn 0.000000 -0.000004 -1.000000
vn 0.000000 -0.866027 -0.499998
vn 0.000000 -0.000004 -1.000000
vn 0.000000 -0.866027 -0.499998
vn 0.000000 -0.866027 0.499998
vn 0.000000 -0.866027 -0.499998
vn 0.000000 -0.866027 0.499998
vn 0.000000 -0.000004 1.000000
vn 0.000000 -0.866027 0.499998
vn 0.000000 -0.000004 1.000000
vn 0.000000 0.866025 0.500001
vn 0.000000 -0.000004 1.000000
vn 0.000000 0.866025 0.500001
vn 0.000000 0.866032 -0.499990
vn 0.000000 0.866025 0.500001
vn 0.000002 0.866026 -0.500000
vn 0.000003 -0.000005 -1.000000
vn 0.000000 0.866032 -0.499990
vn 0.000003 -0.000005 -1.000000
vn 0.000002 -0.866033 -0.499988
vn 0.000003 -0.000005 -1.000000
vn 0.000000 -0.866027 -0.499998
vn 0.000000 -0.866027 0.499998
vn 0.000002 -0.866033 -0.499988
vn 0.000000 -0.866027 0.499998
vn 0.000000 -0.000004 1.000000
vn 0.000000 -0.866027 0.499998
vn -1.000000 0.000000 0.000000
vn -1.000000 0.000000 0.000000
vn -1.000000 0.000000 0.000000
vn -0.000000 -0.000000 1.000000
vn -0.000000 -0.000000 1.000000
vn 0.000000 -0.000000 1.000000
vn 0.000000 -1.000000 -0.000000
vn 0.000000 -1.000000 -0.000000
vn 0.000000 -1.000000 -0.000000
vn -0.000000 1.000000 0.000005
vn -0.000000 1.000000 0.000003
vn -0.000000 1.000000 0.000003
vn 1.000000 0.000001 -0.000000
vn 1.000000 0.000000 -0.000000
vn 1.000000 0.000001 -0.000000
vn 0.000000 0.000000 -1.000000
vn 0.000000 0.000000 -1.000000
vn 0.000000 0.000000 -1.000000
vn -0.000000 -0.000000 1.000000
vn -0.000000 -0.000001 1.000000
vn -0.000000 -0.000001 1.000000
vn 0.000005 1.000000 0.000000
vn 0.000003 1.000000 0.000000
vn 0.000005 1.000000 -0.000000
vn -0.000000 1.000000 -0.000003
vn -0.000000 1.000000 -0.000000
vn -0.000000 1.000000 -0.000003
vn -0.000000 1.000000 0.000000
vn -0.000000 1.000000 0.000000
vn -0.000000 1.000000 0.000000
vn 0.000000 -0.000000 -1.000000
vn -0.000000 0.000001 -1.000000
vn -0.000000 0.000001 -1.000000
vn -0.000003 -0.000000 1.000000
vn -0.000005 -0.000000 1.000000
vn -0.000005 -0.000000 1.000000
vn 1.000000 0.000001 0.000001
vn 1.000000 0.000001 0.000001
vn 1.000000 0.000001 0.000001
vn 0.000000 1.000000 0.000000
vn 0.000000 1.000000 0.000000
vn 0.000000 1.000000 0.000000
vn 0.000000 -1.000000 -0.000000
vn 0.000000 -1.000000 -0.000000
vn 0.000000 -1.000000 -0.000000
vn -1.000000 0.000000 -0.000001
vn -1.000000 0.000000 -0.000001
vn -1.000000 0.000000 -0.000001
vn -0.000005 -0.000000 -1.000000
vn -0.000005 0.000000 -1.000000
vn -0.000005 -0.000000 -1.000000
vn 1.000000 -0.000000 -0.000000
vn 0.707107 0.707107 0.000000
vn 0.707107 0.707107 0.000000
vn 0.707107 0.707107 0.000000
vn 0.000000 1.000000 0.000000
vn -0.000000 1.000000 0.000000
vn 0.000000 1.000000 0.000000
vn -0.707107 0.707107 0.000000
vn -0.707107 0.707107 0.000000
vn -0.707107 0.707107 0.000000
vn -1.000000 0.000000 0.000000
vn -1.000000 -0.000000 -0.000000
vn -1.000000 0.000000 0.000000
vn -0.707103 -0.707111 -0.000000
vn -0.707107 -0.707107 -0.000000
vn -0.707103 -0.707111 -0.000000
vn -0.000000 -1.000000 -0.000000
vn 0.000000 -1.000000 -0.000000
vn -0.000000 -1.000000 -0.000000
vn 0.707103 -0.707111 -0.000000
vn 0.707107 -0.707107 -0.000000
vn 0.707103 -0.707111 -0.000000
vn 1.000000 -0.000000 -0.000000
vn 1.000000 0.000000 0.000000
vn 0.000000 0.000000 -1.000000
vn 0.000000 0.000000 -1.000000
vn 0.000000 0.000000 -1.000000
vn 0.000000 0.000000 -1.000000
vn 0.000000 0.000000 -1.000000
vn 0.000000 0.000000 -1.000000
vn 0.000000 0.000000 -1.000000
vn 0.000000 0.000000 -1.000000
vn 0.000000 0.000000 -1.000000
vn 0.000000 0.000000 -1.000000
vn 0.000000 0.000000 -1.000000
vn 0.000000 0.000000 -1.000000
vn 0.000000 0.000000 -1.000000
vn 0.000000 0.000000 -1.000000
vn 0.000000 0.000000 -1.000000
vn 0.000000 -0.000000 1.000000
vn 0.000000 -0.000000 1.000000
vn 0.000000 -0.000000 1.000000
vn 0.000000 -0.000000 1.000000
vn 0.000000 -0.000000 1.000000
vn 0.000000 -0.000000 1.000000
vn 0.000000 -0.000000 1.000000
vn 0.000000 -0.000000 1.000000
vn 0.000000 -0.000000 1.000000
vn 0.000000 -0.000000 1.000000
vn 0.000000 -0.000000 1.000000
vn 0.000000 -0.000000 1.000000
vn 0.000000 -0.000000 1.000000
vn 0.000000 -0.000000 1.000000
vn 0.000000 -0.000000 1.000000
vn 0.000000 -0.000004 1.000000
vn 0.000000 0.866025 0.500001
vn 0.000000 0.866025 0.500001
vn 0.000000 0.866025 0.500001
vn 0.000000 0.866025 -0.500001
vn 0.000000 0.866025 -0.500001
vn 0.000000 0.866025 -0.500001
vn 0.000000 -0.000004 -1.000000
vn 0.000000 -0.000004 -1.000000
vn 0.000000 -0.000004 -1.000000
vn 0.000000 -0.866027 -0.499998
vn 0.000000 -0.866027 -0.499998
vn 0.000000 -0.866027 -0.499998
vn 0.000000 -0.866027 0.499998
vn 0.000000 -0.866027 0.499998
vn 0.000000 -0.866027 0.499998
vn 0.000000 -0.000004 1.000000
vn 0.000000 -0.000004 1.000000
vn 0.000000 -0.000004 1.000000
vn 0.000000 0.866025 0.500001
vn 0.000000 0.866025 0.500001
vn 0.000000 0.866025 0.500001
vn 0.000002 0.866026 -0.500000
vn 0.000000 0.866032 -0.499990
vn 0.000002 0.866026 -0.500000
vn 0.000003 -0.000005 -1.000000
vn 0.000003 -0.000005 -1.000000
vn 0.000003 -0.000005 -1.000000
vn 0.000000 -0.866027 -0.499998
vn 0.000002 -0.866033 -0.499988
vn 0.000000 -0.866027 -0.499998
vn 0.000000 -0.866027 0.499998
vn 0.000000 -0.866027 0.499998
vn 0.000000 -0.866027 0.499998
vn 0.000000 -0.000004 1.000000
vn 0.000000 -0.000004 1.000000
vn -1.000000 0.000000 0.000000
vn -1.000000 0.000000 0.000000
vn -1.000000 0.000000 0.000000
vn -0.000000 -0.000000 1.000000
vn -0.000000 -0.000000 1.000000
vn -0.000000 -0.000000 1.000000
vn 0.000000 -1.000000 -0.000000
vn 0.000000 -1.000000 -0.000000
vn 0.000000 -1.000000 -0.000000
vn -0.000000 1.000000 0.000005
vn -0.000000 1.000000 0.000005
vn -0.000000 1.000000 0.000003
vn 1.000000 0.000001 -0.000000
vn 1.000000 0.000000 -0.000000
vn 1.000000 0.000000 -0.000000
vn 0.000000 0.000000 -1.000000
vn 0.000000 0.000000 -1.000000
vn 0.000000 0.000000 -1.000000
vn -0.000000 -0.000000 1.000000
vn 0.000000 -0.000000 1.000000
vn -0.000000 -0.000001 1.000000
vn 0.000005 1.000000 0.000000
vn 0.000003 1.000000 0.000000
vn 0.000003 1.000000 0.000000
vn -0.000000 1.000000 -0.000003
vn -0.000000 1.000000 0.000000
vn -0.000000 1.000000 -0.000000
vn -0.000000 1.000000 0.000000
vn -0.000000 1.000000 0.000000
vn -0.000000 1.000000 0.000000
vn 0.000000 -0.000000 -1.000000
vn 0.000000 -0.000000 -1.000000
vn -0.000000 0.000001 -1.000000
s off
g SM_Dresser_03e
f 8/1/1 7/4/2 1/8/3
f 6/2/4 2/5/5 7/6/6
f 1/9/7 3/11/8 4/12/9
f 5/13/10 7/15/11 8/16/12
f 1/17/13 5/19/14 8/20/15
f 4/24/16 3/23/17 6/22/18
f 9/25/19 18/69/20 17/28/21
f 10/26/22 19/30/23 18/27/24
f 11/29/25 20/32/26 19/30/27
f 12/31/28 21/34/29 20/32/30
f 13/33/31 22/36/32 21/34/33
f 14/35/34 23/38/35 22/36/36
f 15/37/37 24/40/38 23/38/39
f 16/39/40 17/28/41 24/40/42
f 16/47/43 15/53/44 9/59/45
f 17/60/46 18/61/47 24/67/48
f 25/41/49 32/43/50 31/44/51
f 26/42/52 33/46/53 32/43/54
f 27/70/55 34/48/56 33/72/57
f 28/73/58 35/50/59 34/48/60
f 29/49/61 36/52/62 35/50/63
f 30/51/64 31/44/65 36/52/66
f 37/74/67 39/76/68 40/77/69
f 38/75/70 42/79/71 39/76/72
f 41/80/73 44/82/74 42/83/75
f 43/84/76 46/86/77 44/82/78
f 45/85/79 48/88/80 46/86/81
f 47/87/82 40/77/83 48/88/84
f 61/89/85 56/91/86 64/92/87
f 50/93/88 51/95/89 56/96/90
f 49/97/91 50/98/92 61/99/93
f 64/101/94 53/103/95 63/102/96
f 58/105/97 60/107/98 55/108/99
f 57/109/100 52/111/101 60/112/102
f 58/113/103 54/115/104 53/114/105
f 64/117/106 57/119/107 58/120/108
f 56/121/109 59/123/110 57/124/111
f 60/125/112 52/126/113 55/128/114
f 61/129/115 63/131/116 62/130/117
f 7/4/118 2/7/119 1/8/120
f 6/2/121 3/3/122 2/5/123
f 1/9/124 2/10/125 3/11/126
f 5/13/127 6/14/128 7/15/129
f 1/17/130 4/18/131 5/19/132
f 6/22/133 5/21/134 4/24/135
f 9/25/136 10/68/137 18/69/138
f 10/26/139 11/29/140 19/30/141
f 11/29/142 12/31/143 20/32/144
f 12/31/145 13/33/146 21/34/147
f 13/33/148 14/35/149 22/36/150
f 14/35/151 15/37/152 23/38/153
f 15/37/154 16/39/155 24/40/156
f 16/39/157 9/25/158 17/28/159
f 15/53/160 14/54/161 13/55/162
f 13/55/163 12/56/164 11/57/165
f 11/57/166 10/58/167 9/59/168
f 13/55/169 11/57/170 9/59/171
f 15/53/172 13/55/173 9/59/174
f 18/61/175 19/62/176 20/63/177
f 20/63/178 21/64/179 22/65/180
f 22/65/181 23/66/182 24/67/183
f 20/63/184 22/65/185 24/67/186
f 18/61/187 20/63/188 24/67/189
f 25/41/190 26/42/191 32/43/192
f 26/42/193 27/45/194 33/46/195
f 27/70/196 28/71/197 34/48/198
f 28/73/199 29/49/200 35/50/201
f 29/49/202 30/51/203 36/52/204
f 30/51/205 25/41/206 31/44/207
f 37/74/208 38/75/209 39/76/210
f 38/75/211 41/78/212 42/79/213
f 41/80/214 43/81/215 44/82/216
f 43/84/217 45/85/218 46/86/219
f 45/85/220 47/87/221 48/88/222
f 47/87/223 37/74/224 40/77/225
f 61/89/226 50/90/227 56/91/228
f 50/93/229 49/94/230 51/95/231
f 49/97/232 61/99/233 62/100/234
f 64/101/235 58/104/236 53/103/237
f 58/105/238 57/106/239 60/107/240
f 57/109/241 59/110/242 52/111/243
f 58/113/244 55/116/245 54/115/246
f 64/117/247 56/118/248 57/119/249
f 56/121/250 51/122/251 59/123/252
f 52/126/253 54/127/254 55/128/255
f 61/129/256 64/132/257 63/131/258
