# This file uses feet as units for non-parametric coordinates.

g default
v 1.400007 -70.225616 -6.888725
v 1.400003 -94.943970 6.888725
v 1.400002 -94.943970 -6.888725
v 1.400007 -70.225616 6.888725
v 1.400007 -73.762024 -3.803719
v 1.400007 -73.762024 3.803719
v 1.400003 -91.407562 3.803719
v 1.400003 -91.407562 -3.803719
v -1.400007 -94.943970 -6.888725
v -1.400003 -70.225616 6.888725
v -1.400007 -94.943970 6.888725
v -1.400003 -70.225616 -6.888725
v -1.400003 -73.762024 -3.803719
v -1.400003 -73.762024 3.803719
v -1.400007 -91.407562 3.803719
v -1.400007 -91.407562 -3.803719
v -6.888725 -87.710022 -1.400009
v 6.888725 -112.428398 -1.400002
v -6.888725 -112.428398 -1.400002
v 6.888725 -87.710022 -1.400009
v -3.803722 -91.246445 -1.400009
v 3.803722 -91.246445 -1.400009
v 3.803722 -108.891983 -1.400002
v -3.803722 -108.891983 -1.400002
v -6.888725 -112.428398 1.400009
v 6.888725 -87.710022 1.400002
v 6.888725 -112.428398 1.400009
v -6.888725 -87.710022 1.400002
v -3.803722 -91.246445 1.400002
v 3.803722 -91.246445 1.400002
v 3.803722 -108.891983 1.400009
v -3.803722 -108.891983 1.400009
v -1.400006 -35.049316 6.888725
v -1.400004 -59.767700 -6.888725
v -1.400002 -59.767700 6.888725
v -1.400008 -35.049316 -6.888725
v -1.400006 -38.585739 3.803722
v -1.400007 -38.585739 -3.803722
v -1.400004 -56.231277 -3.803722
v -1.400003 -56.231277 3.803722
v 1.400008 -59.767700 6.888725
v 1.400002 -35.049316 -6.888725
v 1.400006 -59.767700 -6.888725
v 1.400004 -35.049316 6.888725
v 1.400004 -38.585739 3.803722
v 1.400002 -38.585739 -3.803722
v 1.400006 -56.231277 -3.803722
v 1.400007 -56.231277 3.803722
v 6.888725 -52.533752 1.400005
v -6.888725 -77.252106 1.400002
v 6.888725 -77.252106 1.400002
v -6.888725 -52.533752 1.400005
v 3.803722 -56.070160 1.400005
v -3.803722 -56.070160 1.400005
v -3.803722 -73.715698 1.400002
v 3.803722 -73.715698 1.400002
v 6.888725 -77.252106 -1.400009
v -6.888725 -52.533752 -1.400002
v -6.888725 -77.252106 -1.400009
v 6.888725 -52.533752 -1.400002
v 3.803722 -56.070160 -1.400002
v -3.803722 -56.070160 -1.400002
v -3.803722 -73.715698 -1.400009
v 3.803722 -73.715698 -1.400009
v -1.400006 0.000000 6.888725
v -1.400004 -24.718384 -6.888725
v -1.400002 -24.718384 6.888725
v -1.400008 0.000000 -6.888725
v -1.400006 -3.536407 3.803722
v -1.400007 -3.536407 -3.803721
v -1.400004 -21.181961 -3.803722
v -1.400003 -21.181961 3.803722
v 1.400008 -24.718384 6.888725
v 1.400002 0.000000 -6.888725
v 1.400006 -24.718384 -6.888725
v 1.400004 0.000000 6.888725
v 1.400004 -3.536407 3.803722
v 1.400002 -3.536407 -3.803722
v 1.400006 -21.181961 -3.803722
v 1.400007 -21.181961 3.803722
v -6.888725 -17.484436 -1.400005
v 6.888725 -42.202789 -1.400005
v -6.888725 -42.202789 -1.400002
v 6.888725 -17.484436 -1.400007
v -3.803722 -21.020844 -1.400007
v 3.803722 -21.020844 -1.400007
v 3.803722 -38.666382 -1.400002
v -3.803722 -38.666382 -1.400002
v -6.888725 -42.202789 1.400009
v 6.888725 -17.484436 1.400002
v 6.888725 -42.202789 1.400005
v -6.888725 -17.484436 1.400003
v -3.803722 -21.020844 1.400003
v 3.803723 -21.020844 1.400003
v 3.803723 -38.666382 1.400005
v -3.803722 -38.666382 1.400005
vt 1.714546 0.303019
vt 1.641431 0.420679
vt 1.825270 0.920823
vt 1.714546 0.360026
vt 1.702960 0.360026
vt 1.702960 0.303019
vt 1.641431 0.318402
vt 1.195948 0.831146
vt 1.212056 0.831146
vt 1.825270 0.952301
vt 1.810637 0.965065
vt 1.212056 0.904158
vt 1.360752 0.713215
vt 1.360752 0.786227
vt 1.349166 0.786227
vt 1.349166 0.713215
vt 1.656813 0.420679
vt 1.656813 0.318402
vt 1.668399 0.318402
vt 1.668399 0.420679
vt 1.836333 0.939100
vt 1.867810 0.939100
vt 1.867810 0.950686
vt 1.836333 0.950686
vt 1.183183 0.845779
vt 1.151706 0.845779
vt 1.138941 0.831146
vt 1.138941 0.933424
vt 1.151706 0.918791
vt 1.183183 0.918791
vt 1.195948 0.933424
vt 1.810637 0.908058
vt 1.898281 0.952301
vt 1.898281 0.920823
vt 1.912914 0.908058
vt 1.912914 0.965065
vt 1.653016 0.318402
vt 1.653016 0.420679
vt 1.200470 0.904158
vt 1.200470 0.831146
vt 1.714546 0.303019
vt 1.641431 0.420679
vt 1.825270 0.920823
vt 1.714546 0.360026
vt 1.702960 0.360026
vt 1.702960 0.303019
vt 1.641431 0.318402
vt 1.195948 0.831146
vt 1.212056 0.831146
vt 1.825270 0.952301
vt 1.810637 0.965065
vt 1.212056 0.904158
vt 1.360752 0.713215
vt 1.360752 0.786227
vt 1.349166 0.786227
vt 1.349166 0.713215
vt 1.656813 0.420679
vt 1.656813 0.318402
vt 1.668399 0.318402
vt 1.668399 0.420679
vt 1.836333 0.939100
vt 1.867810 0.939100
vt 1.867810 0.950686
vt 1.836333 0.950686
vt 1.183183 0.845779
vt 1.151706 0.845779
vt 1.138941 0.831146
vt 1.138941 0.933424
vt 1.151706 0.918791
vt 1.183183 0.918791
vt 1.195948 0.933424
vt 1.810637 0.908058
vt 1.898281 0.952301
vt 1.898281 0.920823
vt 1.912914 0.908058
vt 1.912914 0.965065
vt 1.653016 0.318402
vt 1.653016 0.420679
vt 1.200470 0.904158
vt 1.200470 0.831146
vt 1.714546 0.303019
vt 1.641431 0.420679
vt 1.825270 0.920823
vt 1.714546 0.360026
vt 1.702960 0.360026
vt 1.702960 0.303019
vt 1.641431 0.318402
vt 1.195948 0.831146
vt 1.212056 0.831146
vt 1.825270 0.952301
vt 1.810637 0.965065
vt 1.212056 0.904158
vt 1.360752 0.713215
vt 1.360752 0.786227
vt 1.349166 0.786227
vt 1.349166 0.713215
vt 1.656813 0.420679
vt 1.656813 0.318402
vt 1.668399 0.318402
vt 1.668399 0.420679
vt 1.836333 0.939100
vt 1.867810 0.939100
vt 1.867810 0.950686
vt 1.836333 0.950686
vt 1.183183 0.845779
vt 1.151706 0.845779
vt 1.138941 0.831146
vt 1.138941 0.933424
vt 1.151706 0.918791
vt 1.183183 0.918791
vt 1.195948 0.933424
vt 1.810637 0.908058
vt 1.898281 0.952301
vt 1.898281 0.920823
vt 1.912914 0.908058
vt 1.912914 0.965065
vt 1.653016 0.318402
vt 1.653016 0.420679
vt 1.200470 0.904158
vt 1.200470 0.831146
vt 0.714546 0.303019
vt 0.641431 0.420679
vt 0.825270 0.920823
vt 0.714546 0.360026
vt 0.702960 0.360026
vt 0.702960 0.303019
vt 0.641431 0.318402
vt 0.195948 0.831146
vt 0.212056 0.831146
vt 0.825270 0.952301
vt 0.810637 0.965065
vt 0.212056 0.904158
vt 0.360752 0.713215
vt 0.360752 0.786227
vt 0.349166 0.786227
vt 0.349166 0.713215
vt 0.656813 0.420679
vt 0.656813 0.318402
vt 0.668399 0.318402
vt 0.668399 0.420679
vt 0.836333 0.939100
vt 0.867810 0.939100
vt 0.867810 0.950686
vt 0.836333 0.950686
vt 0.183183 0.845779
vt 0.151706 0.845779
vt 0.138941 0.831146
vt 0.138941 0.933424
vt 0.151706 0.918791
vt 0.183183 0.918791
vt 0.195948 0.933424
vt 0.810637 0.908058
vt 0.898281 0.952301
vt 0.898281 0.920823
vt 0.912914 0.908058
vt 0.912914 0.965065
vt 0.653016 0.318402
vt 0.653016 0.420679
vt 0.200470 0.904158
vt 0.200470 0.831146
vt 1.714546 0.303019
vt 1.641431 0.420679
vt 1.825270 0.920823
vt 1.714546 0.360026
vt 1.702960 0.360026
vt 1.702960 0.303019
vt 1.641431 0.318402
vt 1.195948 0.831146
vt 1.212056 0.831146
vt 1.825270 0.952301
vt 1.810637 0.965065
vt 1.212056 0.904158
vt 1.360752 0.713215
vt 1.360752 0.786227
vt 1.349166 0.786227
vt 1.349166 0.713215
vt 1.656813 0.420679
vt 1.656813 0.318402
vt 1.668399 0.318402
vt 1.668399 0.420679
vt 1.836333 0.939100
vt 1.867810 0.939100
vt 1.867810 0.950686
vt 1.836333 0.950686
vt 1.183183 0.845779
vt 1.151706 0.845779
vt 1.138941 0.831146
vt 1.138941 0.933424
vt 1.151706 0.918791
vt 1.183183 0.918791
vt 1.195948 0.933424
vt 1.810637 0.908058
vt 1.898281 0.952301
vt 1.898281 0.920823
vt 1.912914 0.908058
vt 1.912914 0.965065
vt 1.653016 0.318402
vt 1.653016 0.420679
vt 1.200470 0.904158
vt 1.200470 0.831146
vt 1.714546 0.303019
vt 1.641431 0.420679
vt 1.825270 0.920823
vt 1.714546 0.360026
vt 1.702960 0.360026
vt 1.702960 0.303019
vt 1.641431 0.318402
vt 1.195948 0.831146
vt 1.212056 0.831146
vt 1.825270 0.952301
vt 1.810637 0.965065
vt 1.212056 0.904158
vt 1.360752 0.713215
vt 1.360752 0.786227
vt 1.349166 0.786227
vt 1.349166 0.713215
vt 1.656813 0.420679
vt 1.656813 0.318402
vt 1.668399 0.318402
vt 1.668399 0.420679
vt 1.836333 0.939100
vt 1.867810 0.939100
vt 1.867810 0.950686
vt 1.836333 0.950686
vt 1.183183 0.845779
vt 1.151706 0.845779
vt 1.138941 0.831146
vt 1.138941 0.933424
vt 1.151706 0.918791
vt 1.183183 0.918791
vt 1.195948 0.933424
vt 1.810637 0.908058
vt 1.898281 0.952301
vt 1.898281 0.920823
vt 1.912914 0.908058
vt 1.912914 0.965065
vt 1.653016 0.318402
vt 1.653016 0.420679
vt 1.200470 0.904158
vt 1.200470 0.831146
vn 1.000000 -0.000000 -0.000000
vn 1.000000 -0.000000 -0.000000
vn 1.000000 -0.000000 -0.000000
vn 1.000000 -0.000000 -0.000000
vn 1.000000 -0.000000 -0.000000
vn 1.000000 -0.000000 -0.000000
vn 1.000000 -0.000000 -0.000000
vn 1.000000 -0.000000 -0.000000
vn 1.000000 -0.000000 -0.000000
vn 1.000000 -0.000000 -0.000000
vn 1.000000 -0.000000 -0.000000
vn 1.000000 -0.000000 -0.000000
vn 1.000000 -0.000000 -0.000000
vn 1.000000 -0.000000 -0.000000
vn 1.000000 -0.000000 -0.000000
vn 1.000000 -0.000000 -0.000000
vn 1.000000 -0.000000 -0.000000
vn 1.000000 -0.000000 -0.000000
vn 1.000000 -0.000000 -0.000000
vn 1.000000 -0.000000 -0.000000
vn 1.000000 -0.000000 -0.000000
vn 1.000000 -0.000000 -0.000000
vn 1.000000 -0.000000 -0.000000
vn 1.000000 -0.000000 -0.000000
vn -1.000000 0.000000 -0.000000
vn -1.000000 0.000000 0.000000
vn -1.000000 0.000000 0.000000
vn -1.000000 0.000000 0.000000
vn -1.000000 0.000000 0.000000
vn -1.000000 0.000000 -0.000000
vn -1.000000 0.000000 -0.000000
vn -1.000000 0.000000 0.000000
vn -1.000000 0.000000 0.000000
vn -1.000000 0.000000 0.000000
vn -1.000000 0.000000 0.000000
vn -1.000000 0.000000 -0.000000
vn -1.000000 0.000000 0.000000
vn -1.000000 0.000000 0.000000
vn -1.000000 0.000000 0.000000
vn -1.000000 0.000000 0.000000
vn -1.000000 0.000000 -0.000000
vn -1.000000 0.000000 0.000000
vn -1.000000 0.000000 0.000000
vn -1.000000 0.000000 0.000000
vn -1.000000 0.000000 0.000000
vn -1.000000 0.000000 0.000000
vn -1.000000 0.000000 -0.000000
vn -1.000000 0.000000 0.000000
vn 0.000000 -1.000000 -0.000000
vn 0.000000 -1.000000 -0.000000
vn 0.000000 -1.000000 -0.000000
vn 0.000000 -1.000000 -0.000000
vn 0.000000 -1.000000 -0.000000
vn 0.000000 -1.000000 -0.000000
vn 0.000000 -1.000000 -0.000000
vn 0.000000 -1.000000 -0.000000
vn 0.000000 -1.000000 -0.000000
vn 0.000000 -1.000000 -0.000000
vn 0.000000 -1.000000 -0.000000
vn 0.000000 -1.000000 -0.000000
vn 0.000000 -0.000000 1.000000
vn 0.000000 -0.000000 1.000000
vn 0.000000 -0.000000 1.000000
vn 0.000000 -0.000000 1.000000
vn 0.000000 -0.000000 1.000000
vn 0.000000 -0.000000 1.000000
vn 0.000000 0.000000 -1.000000
vn 0.000000 0.000000 -1.000000
vn 0.000000 0.000000 -1.000000
vn 0.000000 0.000000 -1.000000
vn 0.000000 0.000000 -1.000000
vn 0.000000 0.000000 -1.000000
vn 0.000000 0.000000 -1.000000
vn 0.000000 0.000000 -1.000000
vn 0.000000 0.000000 -1.000000
vn 0.000000 0.000000 -1.000000
vn 0.000000 0.000000 -1.000000
vn 0.000000 0.000000 -1.000000
vn 0.000000 -0.000000 1.000000
vn 0.000000 -0.000000 1.000000
vn 0.000000 -0.000000 1.000000
vn 0.000000 -0.000000 1.000000
vn 0.000000 -0.000000 1.000000
vn 0.000000 -0.000000 1.000000
vn 0.000000 -0.000000 -1.000000
vn 0.000000 -0.000000 -1.000000
vn 0.000000 -0.000000 -1.000000
vn 0.000000 -0.000000 -1.000000
vn 0.000000 -0.000000 -1.000000
vn 0.000000 -0.000000 -1.000000
vn 0.000000 -0.000000 -1.000000
vn 0.000000 -0.000000 -1.000000
vn 0.000000 -0.000000 -1.000000
vn 0.000000 -0.000000 -1.000000
vn 0.000000 -0.000000 -1.000000
vn 0.000000 -0.000000 -1.000000
vn 0.000000 -0.000000 -1.000000
vn 0.000000 -0.000000 -1.000000
vn 0.000000 -0.000000 -1.000000
vn 0.000000 -0.000000 -1.000000
vn 0.000000 -0.000000 -1.000000
vn 0.000000 -0.000000 -1.000000
vn 0.000000 -0.000000 -1.000000
vn 0.000000 -0.000000 -1.000000
vn 0.000000 -0.000000 -1.000000
vn 0.000000 -0.000000 -1.000000
vn 0.000000 -0.000000 -1.000000
vn 0.000000 -0.000000 -1.000000
vn -0.000000 0.000000 1.000000
vn -0.000000 0.000000 1.000000
vn -0.000000 0.000000 1.000000
vn -0.000000 0.000000 1.000000
vn -0.000000 0.000000 1.000000
vn -0.000000 0.000000 1.000000
vn -0.000000 0.000000 1.000000
vn -0.000000 0.000000 1.000000
vn -0.000000 0.000000 1.000000
vn -0.000000 0.000000 1.000000
vn -0.000000 0.000000 1.000000
vn -0.000000 0.000000 1.000000
vn -0.000000 0.000000 1.000000
vn -0.000000 0.000000 1.000000
vn -0.000000 0.000000 1.000000
vn -0.000000 0.000000 1.000000
vn -0.000000 0.000000 1.000000
vn -0.000000 0.000000 1.000000
vn -0.000000 0.000000 1.000000
vn -0.000000 0.000000 1.000000
vn -0.000000 0.000000 1.000000
vn -0.000000 0.000000 1.000000
vn -0.000000 0.000000 1.000000
vn -0.000000 0.000000 1.000000
vn 0.000000 -1.000000 -0.000000
vn 0.000000 -1.000000 -0.000000
vn 0.000000 -1.000000 -0.000000
vn 0.000000 -1.000000 -0.000000
vn 0.000000 -1.000000 -0.000000
vn 0.000000 -1.000000 -0.000000
vn 0.000000 -1.000000 -0.000000
vn 0.000000 -1.000000 -0.000000
vn 0.000000 -1.000000 -0.000000
vn 0.000000 -1.000000 -0.000000
vn 0.000000 -1.000000 -0.000000
vn 0.000000 -1.000000 -0.000000
vn 1.000000 0.000000 0.000000
vn 1.000000 0.000000 0.000000
vn 1.000000 0.000000 0.000000
vn 1.000000 0.000000 0.000000
vn 1.000000 0.000000 0.000000
vn 1.000000 0.000000 0.000000
vn -1.000000 0.000000 0.000000
vn -1.000000 0.000000 0.000000
vn -1.000000 0.000000 0.000000
vn -1.000000 0.000000 0.000000
vn -1.000000 0.000000 0.000000
vn -1.000000 0.000000 0.000000
vn -1.000000 0.000000 0.000000
vn -1.000000 0.000000 0.000000
vn -1.000000 0.000000 0.000000
vn -1.000000 0.000000 0.000000
vn -1.000000 0.000000 0.000000
vn -1.000000 0.000000 0.000000
vn 1.000000 0.000000 0.000000
vn 1.000000 0.000000 0.000000
vn 1.000000 0.000000 0.000000
vn 1.000000 0.000000 0.000000
vn 1.000000 0.000000 0.000000
vn 1.000000 0.000000 0.000000
vn -1.000000 -0.000000 0.000000
vn -1.000000 -0.000000 0.000000
vn -1.000000 -0.000000 0.000000
vn -1.000000 -0.000000 0.000000
vn -1.000000 -0.000000 0.000000
vn -1.000000 -0.000000 0.000000
vn -1.000000 -0.000000 0.000000
vn -1.000000 -0.000000 0.000000
vn -1.000000 -0.000000 0.000000
vn -1.000000 -0.000000 0.000000
vn -1.000000 -0.000000 0.000000
vn -1.000000 -0.000000 0.000000
vn -1.000000 -0.000000 0.000000
vn -1.000000 -0.000000 0.000000
vn -1.000000 -0.000000 0.000000
vn -1.000000 -0.000000 0.000000
vn -1.000000 -0.000000 0.000000
vn -1.000000 -0.000000 0.000000
vn -1.000000 -0.000000 0.000000
vn -1.000000 -0.000000 0.000000
vn -1.000000 -0.000000 0.000000
vn -1.000000 -0.000000 0.000000
vn -1.000000 -0.000000 0.000000
vn -1.000000 -0.000000 0.000000
vn 1.000000 0.000000 -0.000000
vn 1.000000 0.000000 -0.000000
vn 1.000000 0.000000 -0.000000
vn 1.000000 0.000000 -0.000000
vn 1.000000 0.000000 -0.000000
vn 1.000000 0.000000 -0.000000
vn 1.000000 0.000000 -0.000000
vn 1.000000 0.000000 -0.000000
vn 1.000000 0.000000 -0.000000
vn 1.000000 0.000000 -0.000000
vn 1.000000 0.000000 -0.000000
vn 1.000000 0.000000 -0.000000
vn 1.000000 0.000000 -0.000000
vn 1.000000 0.000000 -0.000000
vn 1.000000 0.000000 -0.000000
vn 1.000000 0.000000 -0.000000
vn 1.000000 0.000000 -0.000000
vn 1.000000 0.000000 -0.000000
vn 1.000000 0.000000 -0.000000
vn 1.000000 0.000000 -0.000000
vn 1.000000 0.000000 -0.000000
vn 1.000000 0.000000 -0.000000
vn 1.000000 0.000000 -0.000000
vn 1.000000 0.000000 -0.000000
vn 0.000000 -1.000000 -0.000000
vn 0.000000 -1.000000 -0.000000
vn 0.000000 -1.000000 -0.000000
vn 0.000000 -1.000000 -0.000000
vn 0.000000 -1.000000 -0.000000
vn 0.000000 -1.000000 -0.000000
vn 0.000000 -1.000000 -0.000000
vn 0.000000 -1.000000 -0.000000
vn 0.000000 -1.000000 -0.000000
vn 0.000000 -1.000000 -0.000000
vn 0.000000 -1.000000 -0.000000
vn 0.000000 -1.000000 -0.000000
vn 0.000000 0.000000 -1.000000
vn 0.000000 0.000000 -1.000000
vn 0.000000 0.000000 -1.000000
vn 0.000000 0.000000 -1.000000
vn 0.000000 0.000000 -1.000000
vn 0.000000 0.000000 -1.000000
vn 0.000000 0.000000 1.000000
vn 0.000000 0.000000 1.000000
vn 0.000000 0.000000 1.000000
vn 0.000000 0.000000 1.000000
vn 0.000000 0.000000 1.000000
vn 0.000000 0.000000 1.000000
vn 0.000000 -0.000000 1.000000
vn 0.000000 -0.000000 1.000000
vn 0.000000 -0.000000 1.000000
vn 0.000000 -0.000000 1.000000
vn 0.000000 -0.000000 1.000000
vn 0.000000 -0.000000 1.000000
vn 0.000000 0.000000 -1.000000
vn 0.000000 0.000000 -1.000000
vn 0.000000 0.000000 -1.000000
vn 0.000000 0.000000 -1.000000
vn 0.000000 0.000000 -1.000000
vn 0.000000 0.000000 -1.000000
vn -0.000000 -0.000000 1.000000
vn -0.000000 -0.000000 1.000000
vn 0.000000 -0.000000 1.000000
vn 0.000000 -0.000000 1.000000
vn 0.000000 -0.000000 1.000000
vn -0.000000 -0.000000 1.000000
vn -0.000000 -0.000000 1.000000
vn -0.000000 -0.000000 1.000000
vn 0.000000 -0.000000 1.000000
vn 0.000000 -0.000000 1.000000
vn 0.000000 -0.000000 1.000000
vn -0.000000 -0.000000 1.000000
vn 0.000000 -0.000000 1.000000
vn 0.000000 -0.000000 1.000000
vn -0.000000 -0.000000 1.000000
vn -0.000000 -0.000000 1.000000
vn -0.000000 -0.000000 1.000000
vn 0.000000 -0.000000 1.000000
vn 0.000000 -0.000000 1.000000
vn 0.000000 -0.000000 1.000000
vn -0.000000 -0.000000 1.000000
vn -0.000000 -0.000000 1.000000
vn -0.000000 -0.000000 1.000000
vn 0.000000 -0.000000 1.000000
vn 0.000000 0.000000 -1.000000
vn 0.000000 0.000000 -1.000000
vn -0.000000 0.000000 -1.000000
vn -0.000000 0.000000 -1.000000
vn -0.000000 0.000000 -1.000000
vn 0.000000 0.000000 -1.000000
vn 0.000000 0.000000 -1.000000
vn 0.000000 0.000000 -1.000000
vn -0.000000 0.000000 -1.000000
vn -0.000000 0.000000 -1.000000
vn -0.000000 0.000000 -1.000000
vn 0.000000 0.000000 -1.000000
vn -0.000000 0.000000 -1.000000
vn -0.000000 0.000000 -1.000000
vn 0.000000 0.000000 -1.000000
vn 0.000000 0.000000 -1.000000
vn 0.000000 0.000000 -1.000000
vn -0.000000 0.000000 -1.000000
vn -0.000000 0.000000 -1.000000
vn -0.000000 0.000000 -1.000000
vn 0.000000 0.000000 -1.000000
vn 0.000000 0.000000 -1.000000
vn 0.000000 0.000000 -1.000000
vn -0.000000 0.000000 -1.000000
vn 0.000000 -1.000000 -0.000000
vn 0.000000 -1.000000 -0.000000
vn 0.000000 -1.000000 -0.000000
vn 0.000000 -1.000000 -0.000000
vn 0.000000 -1.000000 -0.000000
vn 0.000000 -1.000000 -0.000000
vn 0.000000 -1.000000 -0.000000
vn 0.000000 -1.000000 -0.000000
vn 0.000000 -1.000000 -0.000000
vn 0.000000 -1.000000 -0.000000
vn 0.000000 -1.000000 -0.000000
vn 0.000000 -1.000000 -0.000000
vn -1.000000 0.000000 0.000000
vn -1.000000 0.000000 0.000000
vn -1.000000 0.000000 0.000000
vn -1.000000 0.000000 0.000000
vn -1.000000 0.000000 0.000000
vn -1.000000 0.000000 0.000000
vn 1.000000 0.000000 0.000000
vn 1.000000 0.000000 0.000000
vn 1.000000 0.000000 0.000000
vn 1.000000 0.000000 0.000000
vn 1.000000 0.000000 0.000000
vn 1.000000 0.000000 0.000000
vn 1.000000 0.000000 0.000000
vn 1.000000 0.000000 0.000000
vn 1.000000 0.000000 0.000000
vn 1.000000 0.000000 0.000000
vn 1.000000 0.000000 0.000000
vn 1.000000 0.000000 0.000000
vn -1.000000 0.000000 0.000000
vn -1.000000 0.000000 0.000000
vn -1.000000 0.000000 0.000000
vn -1.000000 0.000000 0.000000
vn -1.000000 0.000000 0.000000
vn -1.000000 0.000000 0.000000
vn -1.000000 -0.000000 0.000000
vn -1.000000 -0.000000 0.000000
vn -1.000000 -0.000000 0.000000
vn -1.000000 -0.000000 0.000000
vn -1.000000 -0.000000 0.000000
vn -1.000000 -0.000000 0.000000
vn -1.000000 -0.000000 0.000000
vn -1.000000 -0.000000 0.000000
vn -1.000000 -0.000000 0.000000
vn -1.000000 -0.000000 0.000000
vn -1.000000 -0.000000 0.000000
vn -1.000000 -0.000000 0.000000
vn -1.000000 -0.000000 0.000000
vn -1.000000 -0.000000 0.000000
vn -1.000000 -0.000000 0.000000
vn -1.000000 -0.000000 0.000000
vn -1.000000 -0.000000 0.000000
vn -1.000000 -0.000000 0.000000
vn -1.000000 -0.000000 0.000000
vn -1.000000 -0.000000 0.000000
vn -1.000000 -0.000000 0.000000
vn -1.000000 -0.000000 0.000000
vn -1.000000 -0.000000 0.000000
vn -1.000000 -0.000000 0.000000
vn 1.000000 0.000000 -0.000000
vn 1.000000 0.000000 -0.000000
vn 1.000000 0.000000 -0.000000
vn 1.000000 0.000000 -0.000000
vn 1.000000 0.000000 -0.000000
vn 1.000000 0.000000 -0.000000
vn 1.000000 0.000000 -0.000000
vn 1.000000 0.000000 -0.000000
vn 1.000000 0.000000 -0.000000
vn 1.000000 0.000000 -0.000000
vn 1.000000 0.000000 -0.000000
vn 1.000000 0.000000 -0.000000
vn 1.000000 0.000000 -0.000000
vn 1.000000 0.000000 -0.000000
vn 1.000000 0.000000 -0.000000
vn 1.000000 0.000000 -0.000000
vn 1.000000 0.000000 -0.000000
vn 1.000000 0.000000 -0.000000
vn 1.000000 0.000000 -0.000000
vn 1.000000 0.000000 -0.000000
vn 1.000000 0.000000 -0.000000
vn 1.000000 0.000000 -0.000000
vn 1.000000 0.000000 -0.000000
vn 1.000000 0.000000 -0.000000
vn 0.000000 -1.000000 -0.000000
vn 0.000000 -1.000000 -0.000000
vn 0.000000 -1.000000 -0.000000
vn 0.000000 -1.000000 -0.000000
vn 0.000000 -1.000000 -0.000000
vn 0.000000 -1.000000 -0.000000
vn 0.000000 -1.000000 -0.000000
vn 0.000000 -1.000000 -0.000000
vn 0.000000 -1.000000 -0.000000
vn 0.000000 -1.000000 -0.000000
vn 0.000000 -1.000000 -0.000000
vn 0.000000 -1.000000 -0.000000
vn 0.000000 0.000000 -1.000000
vn 0.000000 0.000000 -1.000000
vn 0.000000 0.000000 -1.000000
vn 0.000000 0.000000 -1.000000
vn 0.000000 0.000000 -1.000000
vn 0.000000 0.000000 -1.000000
vn 0.000000 0.000000 1.000000
vn 0.000000 0.000000 1.000000
vn 0.000000 0.000000 1.000000
vn 0.000000 0.000000 1.000000
vn 0.000000 0.000000 1.000000
vn 0.000000 0.000000 1.000000
vn 0.000000 -0.000000 1.000000
vn 0.000000 -0.000000 1.000000
vn 0.000000 -0.000000 1.000000
vn 0.000000 -0.000000 1.000000
vn 0.000000 -0.000000 1.000000
vn 0.000000 -0.000000 1.000000
vn 0.000000 0.000000 -1.000000
vn 0.000000 0.000000 -1.000000
vn 0.000000 0.000000 -1.000000
vn 0.000000 0.000000 -1.000000
vn 0.000000 0.000000 -1.000000
vn 0.000000 0.000000 -1.000000
vn -0.000000 -0.000000 -1.000000
vn -0.000000 -0.000000 -1.000000
vn -0.000000 -0.000000 -1.000000
vn -0.000000 -0.000000 -1.000000
vn -0.000000 -0.000000 -1.000000
vn -0.000000 -0.000000 -1.000000
vn -0.000000 -0.000000 -1.000000
vn -0.000000 -0.000000 -1.000000
vn -0.000000 -0.000000 -1.000000
vn -0.000000 -0.000000 -1.000000
vn -0.000000 -0.000000 -1.000000
vn -0.000000 -0.000000 -1.000000
vn -0.000000 -0.000000 -1.000000
vn -0.000000 -0.000000 -1.000000
vn -0.000000 -0.000000 -1.000000
vn -0.000000 -0.000000 -1.000000
vn -0.000000 -0.000000 -1.000000
vn -0.000000 -0.000000 -1.000000
vn -0.000000 -0.000000 -1.000000
vn -0.000000 -0.000000 -1.000000
vn -0.000000 -0.000000 -1.000000
vn -0.000000 -0.000000 -1.000000
vn -0.000000 -0.000000 -1.000000
vn -0.000000 -0.000000 -1.000000
vn 0.000000 0.000000 1.000000
vn 0.000000 0.000000 1.000000
vn 0.000000 0.000000 1.000000
vn 0.000000 0.000000 1.000000
vn 0.000000 0.000000 1.000000
vn 0.000000 0.000000 1.000000
vn 0.000000 0.000000 1.000000
vn 0.000000 0.000000 1.000000
vn 0.000000 0.000000 1.000000
vn 0.000000 0.000000 1.000000
vn 0.000000 0.000000 1.000000
vn 0.000000 0.000000 1.000000
vn 0.000000 0.000000 1.000000
vn 0.000000 0.000000 1.000000
vn 0.000000 0.000000 1.000000
vn 0.000000 0.000000 1.000000
vn 0.000000 0.000000 1.000000
vn 0.000000 0.000000 1.000000
vn 0.000000 0.000000 1.000000
vn 0.000000 0.000000 1.000000
vn 0.000000 0.000000 1.000000
vn 0.000000 0.000000 1.000000
vn 0.000000 0.000000 1.000000
vn 0.000000 0.000000 1.000000
vn 0.000000 -1.000000 -0.000000
vn 0.000000 -1.000000 -0.000000
vn 0.000000 -1.000000 -0.000000
vn 0.000000 -1.000000 -0.000000
vn 0.000000 -1.000000 -0.000000
vn 0.000000 -1.000000 -0.000000
vn 0.000000 -1.000000 -0.000000
vn 0.000000 -1.000000 -0.000000
vn 0.000000 -1.000000 -0.000000
vn 0.000000 -1.000000 -0.000000
vn 0.000000 -1.000000 -0.000000
vn 0.000000 -1.000000 -0.000000
vn 1.000000 0.000000 0.000000
vn 1.000000 0.000000 0.000000
vn 1.000000 0.000000 0.000000
vn 1.000000 0.000000 0.000000
vn 1.000000 0.000000 0.000000
vn 1.000000 0.000000 0.000000
vn -1.000000 0.000000 0.000000
vn -1.000000 0.000000 0.000000
vn -1.000000 0.000000 0.000000
vn -1.000000 0.000000 0.000000
vn -1.000000 0.000000 0.000000
vn -1.000000 0.000000 0.000000
vn -1.000000 0.000000 0.000000
vn -1.000000 0.000000 0.000000
vn -1.000000 0.000000 0.000000
vn -1.000000 0.000000 0.000000
vn -1.000000 0.000000 0.000000
vn -1.000000 0.000000 0.000000
vn 1.000000 0.000000 0.000000
vn 1.000000 0.000000 0.000000
vn 1.000000 0.000000 0.000000
vn 1.000000 0.000000 0.000000
vn 1.000000 0.000000 0.000000
vn 1.000000 0.000000 0.000000
s off
g SM_Chandelier_01b
f 4/8/1 6/25/2 5/26/3
f 5/26/4 1/27/5 4/8/6
f 3/28/7 8/29/8 7/30/9
f 7/30/10 2/31/11 3/28/12
f 2/31/13 7/30/14 6/25/15
f 6/25/16 4/8/17 2/31/18
f 1/27/19 5/26/20 8/29/21
f 8/29/22 3/28/23 1/27/24
f 14/10/25 10/11/26 12/32/27
f 12/32/28 13/3/29 14/10/30
f 16/34/31 9/35/32 11/36/33
f 11/36/34 15/33/35 16/34/36
f 15/33/37 11/36/38 10/11/39
f 10/11/40 14/10/41 15/33/42
f 13/3/43 12/32/44 9/35/45
f 9/35/46 16/34/47 13/3/48
f 5/21/49 6/22/50 14/23/51
f 14/23/52 13/24/53 5/21/54
f 2/4/55 11/5/56 9/6/57
f 9/6/58 3/1/59 2/4/60
f 4/18/61 10/19/62 11/20/63
f 11/20/64 2/17/65 4/18/66
f 7/14/67 15/15/68 14/16/69
f 14/16/70 6/13/71 7/14/72
f 3/7/73 9/37/74 12/38/75
f 12/38/76 1/2/77 3/7/78
f 5/12/79 13/39/80 16/40/81
f 16/40/82 8/9/83 5/12/84
f 20/48/85 22/65/86 21/66/87
f 21/66/88 17/67/89 20/48/90
f 19/68/91 24/69/92 23/70/93
f 23/70/94 18/71/95 19/68/96
f 18/71/97 23/70/98 22/65/99
f 22/65/100 20/48/101 18/71/102
f 17/67/103 21/66/104 24/69/105
f 24/69/106 19/68/107 17/67/108
f 30/50/109 26/51/110 28/72/111
f 28/72/112 29/43/113 30/50/114
f 32/74/115 25/75/116 27/76/117
f 27/76/118 31/73/119 32/74/120
f 31/73/121 27/76/122 26/51/123
f 26/51/124 30/50/125 31/73/126
f 29/43/127 28/72/128 25/75/129
f 25/75/130 32/74/131 29/43/132
f 21/61/133 22/62/134 30/63/135
f 30/63/136 29/64/137 21/61/138
f 18/44/139 27/45/140 25/46/141
f 25/46/142 19/41/143 18/44/144
f 20/58/145 26/59/146 27/60/147
f 27/60/148 18/57/149 20/58/150
f 23/54/151 31/55/152 30/56/153
f 30/56/154 22/53/155 23/54/156
f 19/47/157 25/77/158 28/78/159
f 28/78/160 17/42/161 19/47/162
f 21/52/163 29/79/164 32/80/165
f 32/80/166 24/49/167 21/52/168
f 36/88/169 38/105/170 37/106/171
f 37/106/172 33/107/173 36/88/174
f 35/108/175 40/109/176 39/110/177
f 39/110/178 34/111/179 35/108/180
f 34/111/181 39/110/182 38/105/183
f 38/105/184 36/88/185 34/111/186
f 33/107/187 37/106/188 40/109/189
f 40/109/190 35/108/191 33/107/192
f 46/90/193 42/91/194 44/112/195
f 44/112/196 45/83/197 46/90/198
f 48/114/199 41/115/200 43/116/201
f 43/116/202 47/113/203 48/114/204
f 47/113/205 43/116/206 42/91/207
f 42/91/208 46/90/209 47/113/210
f 45/83/211 44/112/212 41/115/213
f 41/115/214 48/114/215 45/83/216
f 37/101/217 38/102/218 46/103/219
f 46/103/220 45/104/221 37/101/222
f 34/84/223 43/85/224 41/86/225
f 41/86/226 35/81/227 34/84/228
f 36/98/229 42/99/230 43/100/231
f 43/100/232 34/97/233 36/98/234
f 39/94/235 47/95/236 46/96/237
f 46/96/238 38/93/239 39/94/240
f 35/87/241 41/117/242 44/118/243
f 44/118/244 33/82/245 35/87/246
f 37/92/247 45/119/248 48/120/249
f 48/120/250 40/89/251 37/92/252
f 52/128/253 54/145/254 53/146/255
f 53/146/256 49/147/257 52/128/258
f 51/148/259 56/149/260 55/150/261
f 55/150/262 50/151/263 51/148/264
f 50/151/265 55/150/266 54/145/267
f 54/145/268 52/128/269 50/151/270
f 49/147/271 53/146/272 56/149/273
f 56/149/274 51/148/275 49/147/276
f 62/130/277 58/131/278 60/152/279
f 60/152/280 61/123/281 62/130/282
f 64/154/283 57/155/284 59/156/285
f 59/156/286 63/153/287 64/154/288
f 63/153/289 59/156/290 58/131/291
f 58/131/292 62/130/293 63/153/294
f 61/123/295 60/152/296 57/155/297
f 57/155/298 64/154/299 61/123/300
f 53/141/301 54/142/302 62/143/303
f 62/143/304 61/144/305 53/141/306
f 50/124/307 59/125/308 57/126/309
f 57/126/310 51/121/311 50/124/312
f 52/138/313 58/139/314 59/140/315
f 59/140/316 50/137/317 52/138/318
f 55/134/319 63/135/320 62/136/321
f 62/136/322 54/133/323 55/134/324
f 51/127/325 57/157/326 60/158/327
f 60/158/328 49/122/329 51/127/330
f 53/132/331 61/159/332 64/160/333
f 64/160/334 56/129/335 53/132/336
f 68/168/337 70/185/338 69/186/339
f 69/186/340 65/187/341 68/168/342
f 67/188/343 72/189/344 71/190/345
f 71/190/346 66/191/347 67/188/348
f 66/191/349 71/190/350 70/185/351
f 70/185/352 68/168/353 66/191/354
f 65/187/355 69/186/356 72/189/357
f 72/189/358 67/188/359 65/187/360
f 78/170/361 74/171/362 76/192/363
f 76/192/364 77/163/365 78/170/366
f 80/194/367 73/195/368 75/196/369
f 75/196/370 79/193/371 80/194/372
f 79/193/373 75/196/374 74/171/375
f 74/171/376 78/170/377 79/193/378
f 77/163/379 76/192/380 73/195/381
f 73/195/382 80/194/383 77/163/384
f 69/181/385 70/182/386 78/183/387
f 78/183/388 77/184/389 69/181/390
f 66/164/391 75/165/392 73/166/393
f 73/166/394 67/161/395 66/164/396
f 68/178/397 74/179/398 75/180/399
f 75/180/400 66/177/401 68/178/402
f 71/174/403 79/175/404 78/176/405
f 78/176/406 70/173/407 71/174/408
f 67/167/409 73/197/410 76/198/411
f 76/198/412 65/162/413 67/167/414
f 69/172/415 77/199/416 80/200/417
f 80/200/418 72/169/419 69/172/420
f 84/208/421 86/225/422 85/226/423
f 85/226/424 81/227/425 84/208/426
f 83/228/427 88/229/428 87/230/429
f 87/230/430 82/231/431 83/228/432
f 82/231/433 87/230/434 86/225/435
f 86/225/436 84/208/437 82/231/438
f 81/227/439 85/226/440 88/229/441
f 88/229/442 83/228/443 81/227/444
f 94/210/445 90/211/446 92/232/447
f 92/232/448 93/203/449 94/210/450
f 96/234/451 89/235/452 91/236/453
f 91/236/454 95/233/455 96/234/456
f 95/233/457 91/236/458 90/211/459
f 90/211/460 94/210/461 95/233/462
f 93/203/463 92/232/464 89/235/465
f 89/235/466 96/234/467 93/203/468
f 85/221/469 86/222/470 94/223/471
f 94/223/472 93/224/473 85/221/474
f 82/204/475 91/205/476 89/206/477
f 89/206/478 83/201/479 82/204/480
f 84/218/481 90/219/482 91/220/483
f 91/220/484 82/217/485 84/218/486
f 87/214/487 95/215/488 94/216/489
f 94/216/490 86/213/491 87/214/492
f 83/207/493 89/237/494 92/238/495
f 92/238/496 81/202/497 83/207/498
f 85/212/499 93/239/500 96/240/501
f 96/240/502 88/209/503 85/212/504
