# This file uses feet as units for non-parametric coordinates.

g default
v 36.049690 62.690342 -35.094288
v 36.049690 28.636963 -35.094288
v 36.049690 62.690342 33.033455
v 36.049690 28.636963 33.033455
v -29.010302 47.514336 27.339582
v -28.696365 47.474888 38.419601
v -12.935903 47.007069 40.802792
v -13.847677 48.881947 26.771351
v -29.121090 43.177975 39.328377
v -29.655111 41.624653 26.279957
v -12.588576 42.643475 40.519768
v -29.148170 34.397449 39.237991
v -12.599735 34.511932 40.452847
v -26.222754 47.313416 40.719593
v -26.940178 42.447750 40.258797
v -27.698421 34.455166 40.132339
v -29.630507 34.695675 25.178839
v -28.785952 28.452089 38.656380
v -27.676815 28.490042 40.085297
v -13.150573 28.682449 40.458534
v -28.041031 28.471460 26.223221
v -29.963346 35.378296 1.644245
v -29.126387 28.255018 4.074810
v -30.022547 40.958393 0.335590
v -29.417154 47.757927 -2.117536
v -29.365683 34.671223 -20.309689
v -28.977797 28.416096 -20.433771
v -29.385441 41.348751 -20.570183
v -29.123043 47.783833 -20.298546
v -28.024956 47.780067 -22.035963
v -28.013586 41.637810 -22.082642
v -28.238153 34.235855 -21.947887
v -27.850521 28.581165 -21.939386
v -13.041537 34.483826 -22.432531
v -12.219706 28.585472 -22.477245
v -13.361808 40.798080 -22.522211
v -14.777511 47.510975 -22.685387
v 12.876073 34.468025 -22.430073
v 13.028732 28.801847 -22.511139
v 12.833736 40.969742 -22.523766
v 12.311155 47.683086 -22.876862
v 26.969351 48.016865 -22.472034
v 27.248907 42.483757 -22.206701
v 27.584015 35.004036 -22.021906
v 27.408087 29.027811 -22.249474
v 28.749580 42.901733 -21.101435
v 28.357901 48.236309 -20.740322
v 28.863918 35.077641 -20.996424
v 28.819223 29.038679 -21.095909
v 28.668325 48.737675 -3.960898
v 29.318239 43.250954 -3.985895
v 29.331718 35.082333 -4.693283
v 29.350958 28.740292 -4.932456
v 29.427090 34.719158 25.226763
v 29.547121 28.734964 25.477211
v 29.266588 43.628670 23.682577
v 28.609646 48.525200 24.056568
v 29.031542 33.135811 38.577896
v 28.749765 28.948944 38.831070
v 29.187269 39.286053 38.794941
v 28.218246 48.346024 38.655437
v 27.593088 39.614632 40.180656
v 26.511461 48.073833 40.029427
v 27.810793 33.398380 39.804638
v 27.674540 29.122210 40.036655
v 28.362310 29.194771 39.527283
v 28.649622 33.417706 39.380085
v 28.404852 39.445099 39.455570
v 27.725134 48.232430 39.532227
v -28.275713 47.371506 39.839657
v -28.204536 42.845665 39.990704
v -28.531734 34.424995 39.758804
v -28.508757 28.490959 39.388348
v 10.767716 41.944832 40.787655
v 11.176264 47.347355 40.519985
v 10.568791 35.088997 40.738541
v 10.508888 28.881720 40.504570
v 10.458130 49.372620 26.349581
v 12.530814 49.481594 -3.847967
v -12.014818 49.083546 -3.509205
v -14.175093 27.785469 26.859474
v 11.676867 27.675972 26.100866
v 12.896105 27.577963 -6.728875
v -15.780476 27.790255 0.295443
v -27.760529 87.803482 -21.029333
v -26.462332 88.698082 -21.377695
v -26.928051 87.627106 -26.021004
v -27.976404 87.300957 -25.785830
v -27.018160 86.376152 -32.123661
v -28.071068 86.139557 -31.774269
v -26.305490 83.673409 -38.005959
v -27.564291 83.313698 -37.699055
v -28.986870 85.056015 -31.728397
v -27.770487 82.102844 -36.733986
v -28.803299 86.523239 -25.326435
v -28.510088 86.452553 -20.710703
v -29.044296 71.259048 -34.034260
v -29.438963 72.634995 -28.875759
v -29.464663 73.985840 -23.412668
v -28.721102 75.380394 -17.559698
v -28.887962 60.080875 -31.236597
v -27.462355 47.919750 -28.454115
v -29.042656 48.152191 -25.220757
v -29.330811 48.830982 -17.611996
v -28.360334 50.745220 -11.587495
v -26.971600 48.785320 -11.666580
v -28.712801 47.964275 -17.289665
v -27.906281 47.230495 -25.400616
v -26.455969 47.111485 -28.171373
v -9.792930 46.919662 -28.357584
v -9.792272 46.392788 -24.119482
v -9.870361 47.453434 -15.496641
v -9.888249 48.704655 -11.282696
v 10.674757 47.297840 -14.539558
v 10.504684 48.376820 -11.131196
v 10.891454 46.050774 -23.420959
v 10.791674 46.668941 -28.355824
v 26.677406 47.530449 -28.463575
v 27.229643 47.030815 -24.521763
v 27.230396 48.210247 -15.065316
v 26.457836 49.055687 -11.673425
v 28.900276 49.250843 -15.388833
v 28.535126 50.935272 -11.773521
v 28.827328 48.196217 -24.502102
v 27.454718 48.854179 -28.629662
v 28.531595 65.894493 -32.985744
v 29.230118 66.280563 -28.333982
v 29.370451 66.336449 -20.717386
v 29.103546 66.473648 -15.507943
v 29.257988 75.382156 -24.022148
v 28.946939 76.708069 -17.915255
v 29.243610 74.351997 -28.949020
v 28.485237 73.784668 -35.347584
v 27.770445 81.861679 -37.522007
v 29.275408 83.044411 -31.567720
v 29.274569 84.577766 -26.251173
v 28.603884 86.487724 -20.995945
v 28.826262 85.216988 -31.697845
v 28.783995 86.369034 -26.500799
v 26.966078 83.102699 -37.899670
v 27.455456 88.061844 -21.751362
v 26.221561 88.472145 -22.012789
v 27.670191 87.107079 -27.252207
v 27.822292 86.113365 -31.981579
v 25.929270 83.701950 -38.041943
v 12.256489 87.845901 -25.577742
v 11.978965 88.459824 -21.550667
v 12.377684 86.720703 -31.301828
v 12.282333 83.971825 -38.064701
v -9.981996 84.205345 -38.077164
v -9.034574 87.187874 -30.995403
v -9.175293 88.025253 -26.852503
v -9.102585 89.021347 -21.927345
v -10.392136 77.625549 -16.548935
v 13.453171 78.829643 -17.170982
v 12.045637 66.017525 -13.822569
v -10.625302 65.624153 -13.597610
v 15.126431 71.741051 -34.625336
v -10.904228 70.555931 -34.249256
v 15.102107 60.327461 -31.529600
v -11.160301 61.265980 -31.729160
v -28.596674 84.042717 -34.147976
v -28.076139 85.244911 -34.590977
v -26.939318 85.649925 -34.819595
v -28.970133 66.165413 -32.707054
v -28.547453 65.040237 -15.320392
v -29.445074 66.690369 -21.275675
v -29.420643 66.455139 -27.563828
v -29.736263 66.545799 -27.673740
v -29.724594 67.103912 -21.581841
v -28.787039 67.151840 -15.684228
v 29.928606 66.992966 -21.125496
v 29.841188 67.457901 -28.378544
v 28.515001 67.590958 -33.349014
v -9.584400 85.964836 -35.533798
v 12.328267 85.660225 -35.431423
v 26.820860 85.201897 -35.812172
v 27.823797 84.441780 -35.664635
v 28.569912 82.854164 -34.983551
v -26.621450 84.684288 -36.633862
v -27.818645 84.299194 -36.370354
v -28.182852 83.096573 -35.659744
v 27.387794 49.446003 -11.679485
v 28.307907 48.489986 -15.254217
v 28.265001 47.383427 -24.510283
v 27.233747 47.975510 -28.560553
v -27.792170 49.523163 -11.634539
v -29.300402 48.262398 -17.420258
v -28.703899 47.550900 -25.327745
v -27.200924 47.385929 -28.285927
v -24.463726 46.602768 -31.063656
v -24.463726 42.007504 -29.804935
v -24.463726 47.357201 -28.309418
v -24.463726 42.761936 -27.050699
v 24.432587 47.357201 -28.309418
v 24.432587 42.761936 -27.050699
v 24.432587 46.602768 -31.063656
v 24.432587 42.007504 -29.804935
v -24.463726 29.160048 -26.374269
v -29.337111 24.288660 -25.039913
v -24.463726 29.959562 -23.455446
v -29.337111 25.088175 -22.121092
v 24.432587 29.959560 -23.455446
v 29.305971 25.088171 -22.121094
v 24.432587 29.160048 -26.374271
v 29.305971 24.288658 -25.039915
v -29.337111 82.634300 -37.883907
v -24.463726 77.762909 -36.549553
v -29.337111 81.834770 -40.802792
v -24.463726 76.963394 -39.468437
v 29.305971 82.634300 -37.883911
v 24.432587 77.762909 -36.549553
v 29.305971 81.834770 -40.802792
v 24.432587 76.963394 -39.468441
v -24.463726 64.165833 -35.878174
v -24.463726 59.559055 -34.616299
v -24.463726 64.922150 -33.117050
v -24.463726 60.315369 -31.855179
v 24.432587 64.922150 -33.117050
v 24.432587 60.315369 -31.855179
v 24.432587 64.165833 -35.878174
v 24.432587 59.559055 -34.616299
v -29.337111 25.961607 31.255733
v -29.337111 25.961607 36.185524
v -29.337111 28.754303 31.255733
v -29.337111 28.754303 36.185524
v 29.305971 28.754303 31.255733
v 29.305971 28.754303 36.185524
v 29.305971 25.961607 31.255733
v 29.305971 25.961607 36.185524
v -29.337111 25.961607 6.476302
v -29.337111 25.961607 11.406092
v -29.337111 28.754303 6.476302
v -29.337111 28.754303 11.406092
v 29.305971 28.754303 6.476302
v 29.305971 28.754303 11.406092
v 29.305971 25.961607 6.476302
v 29.305971 25.961607 11.406092
v -29.337111 25.961607 -19.854609
v -29.337111 25.961607 -14.924818
v -29.337111 28.754303 -19.854609
v -29.337111 28.754303 -14.924818
v 29.305971 28.754303 -19.854609
v 29.305971 28.754303 -14.924818
v 29.305971 25.961607 -19.854609
v 29.305971 25.961607 -14.924818
v -37.423035 24.761133 -38.809753
v -37.423035 24.761133 36.748905
v -37.423035 66.566139 -38.809753
v -37.423035 66.566139 36.748905
v -29.305975 66.566139 -38.809753
v -29.305975 66.566139 36.748905
v -29.305975 24.761133 -38.809753
v -29.305975 24.761133 36.748905
v -37.423035 28.636959 -35.094288
v -37.423035 28.636959 33.033455
v -37.423035 62.690338 33.033455
v -37.423035 62.690338 -35.094288
v -29.305975 62.690338 -35.094288
v -29.305975 62.690338 33.033455
v -29.305975 28.636959 33.033455
v -29.305975 28.636959 -35.094288
v 29.305971 24.761133 -38.809753
v 29.305971 24.761133 36.748905
v 29.305971 66.566139 -38.809753
v 29.305971 66.566139 36.748905
v 37.423035 66.566139 -38.809753
v 37.423035 66.566139 36.748905
v 37.423035 24.761133 -38.809753
v 37.423035 24.761133 36.748905
v 29.305971 28.636959 -35.094288
v 29.305971 28.636959 33.033455
v 29.305971 62.690338 33.033455
v 29.305971 62.690338 -35.094288
v 37.423035 62.690338 -35.094288
v 37.423035 62.690338 33.033455
v 37.423035 28.636959 33.033455
v 37.423035 28.636959 -35.094288
v -36.675606 0.000000 -36.474709
v -36.675606 0.000000 33.390339
v -36.675606 24.761141 -36.474709
v -36.675606 24.761141 33.390339
v -30.053404 24.761141 -36.474709
v -30.053404 24.761141 33.390339
v -30.053404 0.000000 -36.474709
v -30.053404 0.000000 33.390339
v -36.675606 3.253433 -33.297653
v -36.675606 3.253433 30.213278
v -36.675606 24.761141 30.213284
v -36.675606 24.761141 -33.297653
v -30.053404 24.761141 30.213284
v -30.053404 24.761141 -33.297653
v -30.053404 3.253433 30.213278
v -30.053404 3.253433 -33.297653
v 30.053400 0.000000 -36.474709
v 30.053400 0.000000 33.390339
v 30.053400 24.761141 -36.474709
v 30.053400 24.761141 33.390339
v 36.675606 24.761141 -36.474709
v 36.675606 24.761141 33.390339
v 36.675606 0.000000 -36.474709
v 36.675606 0.000000 33.390339
v 30.053400 3.253433 -33.297653
v 30.053400 3.253433 30.213278
v 30.053400 24.761141 30.213284
v 30.053400 24.761141 -33.297653
v 36.675606 24.761141 30.213284
v 36.675606 24.761141 -33.297653
v 36.675606 3.253433 30.213278
v 36.675606 3.253433 -33.297653
v 35.955681 62.690342 -35.094288
v 35.955681 28.636963 -35.094288
v 35.955681 62.690342 33.033455
v 35.955681 28.636963 33.033455
v -35.894730 62.690342 -35.094288
v -35.894730 28.636963 -35.094288
v -35.894730 62.690342 33.033455
v -35.894730 28.636963 33.033455
v -35.945389 62.690342 33.033455
v -35.945389 62.690342 -35.094288
v -35.945389 28.636963 -35.094288
v -35.945389 28.636963 33.033455
vt 0.241202 0.732227
vt 0.514472 0.732227
vt 0.241204 0.586911
vt 0.514471 0.586911
vt 0.206629 0.087029
vt 0.256148 0.096397
vt 0.203153 0.151754
vt 0.258849 0.156114
vt 0.189190 0.059360
vt 0.237819 0.065744
vt 0.192853 0.083737
vt 0.235616 0.083737
vt 0.248310 0.083737
vt 0.248904 0.062853
vt 0.307414 0.083737
vt 0.308918 0.064584
vt 0.308855 0.027232
vt 0.245281 0.026206
vt 0.256172 0.089545
vt 0.250895 0.087134
vt 0.240811 0.083737
vt 0.243039 0.064235
vt 0.240246 0.026199
vt 0.237268 0.026392
vt 0.184728 0.028952
vt 0.239178 0.002930
vt 0.243672 0.002930
vt 0.306648 0.002930
vt 0.188892 0.002930
vt 0.235608 0.002930
vt 0.094230 0.031628
vt 0.103571 0.002930
vt 0.089209 0.055923
vt 0.080100 0.083737
vt 0.009817 0.002930
vt 0.009367 0.027877
vt 0.008461 0.057461
vt 0.010994 0.083737
vt 0.002930 0.059430
vt 0.002930 0.083737
vt 0.002930 0.024426
vt 0.002930 0.002930
vt 0.894045 0.002930
vt 0.952008 0.002930
vt 0.897102 0.027629
vt 0.960672 0.025773
vt 0.959320 0.058576
vt 0.898269 0.055466
vt 0.903855 0.083739
vt 0.962524 0.083739
vt 0.787294 0.026703
vt 0.787114 0.002930
vt 0.786885 0.055377
vt 0.788206 0.083739
vt 0.725062 0.083739
vt 0.726390 0.060304
vt 0.725469 0.027250
vt 0.725055 0.002930
vt 0.715577 0.083739
vt 0.718347 0.061647
vt 0.718235 0.027642
vt 0.716743 0.002930
vt 0.651975 0.062541
vt 0.651761 0.083739
vt 0.654573 0.027998
vt 0.655056 0.002930
vt 0.538515 0.002930
vt 0.539653 0.026218
vt 0.545236 0.064488
vt 0.543161 0.083739
vt 0.486662 0.018745
vt 0.487845 0.002930
vt 0.487021 0.045426
vt 0.487859 0.083739
vt 0.477212 0.083739
vt 0.477949 0.047148
vt 0.482859 0.083739
vt 0.482624 0.045938
vt 0.483097 0.019895
vt 0.479051 0.019718
vt 0.480435 0.002930
vt 0.484404 0.002930
vt 0.411220 0.083737
vt 0.408660 0.060351
vt 0.407285 0.029236
vt 0.406749 0.002930
vt 0.258849 0.260961
vt 0.201747 0.258900
vt 0.257487 0.334333
vt 0.194441 0.337280
vt 0.258834 0.328602
vt 0.077562 0.337280
vt 0.079219 0.268237
vt 0.080238 0.160872
vt 0.085054 0.086925
vt 0.002930 0.149793
vt 0.003263 0.091543
vt 0.002930 0.266818
vt 0.003329 0.331315
vt 0.015477 0.337280
vt 0.611556 0.470969
vt 0.660500 0.466485
vt 0.611580 0.561583
vt 0.663127 0.566159
vt 0.663076 0.413019
vt 0.612296 0.414011
vt 0.665005 0.633482
vt 0.612118 0.628685
vt 0.775924 0.633447
vt 0.782631 0.571021
vt 0.757682 0.460592
vt 0.839889 0.571206
vt 0.839816 0.475726
vt 0.744387 0.410182
vt 0.839466 0.415711
vt 0.834188 0.410566
vt 0.615426 0.410902
vt 0.618584 0.410280
vt 0.833861 0.626623
vt 0.834129 0.633482
vt 0.614379 0.631796
vt 0.617425 0.633153
vt 0.007080 0.087632
vt 0.254850 0.336491
vt 0.011372 0.406993
vt 0.005098 0.406994
vt 0.010706 0.388181
vt 0.005890 0.387994
vt 0.009980 0.364346
vt 0.005222 0.363581
vt 0.003678 0.345530
vt 0.008775 0.346117
vt 0.004042 0.352955
vt 0.009173 0.353205
vt 0.017030 0.345976
vt 0.016435 0.352485
vt 0.016012 0.363030
vt 0.016004 0.388911
vt 0.015946 0.406994
vt 0.073053 0.360352
vt 0.073000 0.383194
vt 0.072685 0.406994
vt 0.073270 0.340469
vt 0.099962 0.340469
vt 0.103423 0.358557
vt 0.107160 0.383558
vt 0.113113 0.406072
vt 0.200723 0.406994
vt 0.196306 0.406994
vt 0.193545 0.384040
vt 0.191572 0.383745
vt 0.192614 0.352318
vt 0.195427 0.351532
vt 0.196587 0.340469
vt 0.199664 0.340469
vt 0.273262 0.340468
vt 0.273489 0.356570
vt 0.273008 0.391014
vt 0.272771 0.406994
vt 0.358679 0.394325
vt 0.359496 0.406994
vt 0.360193 0.359451
vt 0.359107 0.340469
vt 0.431650 0.340468
vt 0.429797 0.355583
vt 0.427890 0.393699
vt 0.424672 0.406993
vt 0.433085 0.393246
vt 0.436787 0.392923
vt 0.430420 0.406993
vt 0.434516 0.406993
vt 0.435185 0.356633
vt 0.439024 0.357380
vt 0.436686 0.340469
vt 0.440274 0.340469
vt 0.521073 0.358327
vt 0.524164 0.340709
vt 0.513732 0.387329
vt 0.508529 0.406772
vt 0.516898 0.387152
vt 0.557594 0.406994
vt 0.557889 0.383645
vt 0.525328 0.358225
vt 0.558955 0.363739
vt 0.531939 0.340908
vt 0.564715 0.340468
vt 0.603656 0.350832
vt 0.605051 0.340468
vt 0.598784 0.363399
vt 0.599311 0.384716
vt 0.602743 0.406994
vt 0.607883 0.365501
vt 0.607434 0.385831
vt 0.612485 0.350231
vt 0.613638 0.340468
vt 0.612840 0.406994
vt 0.619586 0.406994
vt 0.613786 0.384308
vt 0.613812 0.365495
vt 0.619206 0.350323
vt 0.620966 0.340469
vt 0.678493 0.392309
vt 0.679920 0.406994
vt 0.677543 0.369172
vt 0.677465 0.340469
vt 0.675186 0.353778
vt 0.770258 0.340468
vt 0.766009 0.352573
vt 0.765834 0.370413
vt 0.766687 0.386885
vt 0.766495 0.406994
vt 0.835870 0.406994
vt 0.835870 0.387777
vt 0.835870 0.364307
vt 0.830119 0.340469
vt 0.827445 0.348136
vt 0.002075 0.704678
vt 0.077454 0.711200
vt 0.012163 0.760622
vt 0.083412 0.762034
vt 0.006773 0.756833
vt 0.169798 0.757864
vt 0.175006 0.715049
vt 0.238486 0.706705
vt 0.228240 0.757335
vt 0.237949 0.748232
vt 0.233282 0.755327
vt 0.168481 0.661686
vt 0.238645 0.662359
vt 0.075724 0.661336
vt 0.001193 0.669705
vt 0.077627 0.592321
vt 0.002040 0.602063
vt 0.004271 0.597071
vt 0.161251 0.589655
vt 0.235341 0.599478
vt 0.226754 0.591929
vt 0.230580 0.593484
vt 0.590135 0.635942
vt 0.673596 0.637567
vt 0.585691 0.688263
vt 0.681052 0.685030
vt 0.519532 0.683682
vt 0.528530 0.635942
vt 0.522978 0.643019
vt 0.525505 0.637034
vt 0.724606 0.641150
vt 0.728864 0.680080
vt 0.727319 0.643520
vt 0.729284 0.653953
vt 0.680188 0.730131
vt 0.728497 0.703425
vt 0.583303 0.724955
vt 0.518863 0.725216
vt 0.519215 0.703386
vt 0.585879 0.780280
vt 0.664751 0.781816
vt 0.520822 0.775298
vt 0.519910 0.773651
vt 0.730065 0.709827
vt 0.726310 0.777065
vt 0.727242 0.771122
vt 0.726854 0.773595
vt 0.003610 0.751264
vt 0.833758 0.353466
vt 0.104030 0.359170
vt 0.129534 0.340468
vt 0.188484 0.353473
vt 0.192069 0.340469
vt 0.109309 0.384217
vt 0.188675 0.383311
vt 0.122192 0.405488
vt 0.189821 0.406993
vt 0.002013 0.661850
vt 0.009210 0.340468
vt 0.002930 0.340469
vt 0.017959 0.340469
vt 0.007575 0.594015
vt 0.518572 0.771234
vt 0.734127 0.773285
vt 0.734127 0.753121
vt 0.924532 0.773285
vt 0.924532 0.753121
vt 0.924532 0.729767
vt 0.924532 0.749932
vt 0.734127 0.729767
vt 0.734127 0.749932
vt 0.569290 0.841774
vt 0.759696 0.841774
vt 0.569290 0.853859
vt 0.759696 0.853859
vt 0.569290 0.857048
vt 0.759696 0.857048
vt 0.569290 0.869134
vt 0.759696 0.869134
vt 0.474360 0.310648
vt 0.493338 0.332025
vt 0.283955 0.310648
vt 0.264977 0.332025
vt 0.711049 0.310648
vt 0.730026 0.332024
vt 0.520643 0.310648
vt 0.501665 0.332024
vt 0.328376 0.548785
vt 0.556736 0.548785
vt 0.328376 0.561593
vt 0.556736 0.561593
vt 0.019836 0.799113
vt 0.210242 0.799113
vt 0.019836 0.811921
vt 0.210242 0.811921
vt 0.569290 0.822897
vt 0.588734 0.802033
vt 0.798976 0.822897
vt 0.779532 0.802033
vt 0.294563 0.843360
vt 0.314007 0.822496
vt 0.524248 0.843360
vt 0.504805 0.822496
vt 0.019836 0.815110
vt 0.206037 0.815110
vt 0.019836 0.827610
vt 0.206037 0.827610
vt 0.277657 0.758576
vt 0.501807 0.758576
vt 0.277657 0.771076
vt 0.501807 0.771076
vt 0.294563 0.819307
vt 0.313540 0.797931
vt 0.522923 0.819307
vt 0.503946 0.797931
vt 0.239618 0.756119
vt 0.258595 0.734743
vt 0.467978 0.756119
vt 0.449001 0.734743
vt 0.019836 0.783116
vt 0.210242 0.783116
vt 0.019836 0.795924
vt 0.210242 0.795924
vt 0.024063 0.548785
vt 0.252422 0.548785
vt 0.024063 0.561593
vt 0.252422 0.561593
vt 0.504805 0.870601
vt 0.524248 0.891465
vt 0.314006 0.870601
vt 0.294563 0.891465
vt 0.504805 0.846548
vt 0.524248 0.867412
vt 0.314007 0.846548
vt 0.294563 0.867412
vt 0.277657 0.948427
vt 0.501807 0.948426
vt 0.277657 0.960926
vt 0.501807 0.960926
vt 0.569290 0.826085
vt 0.755491 0.826085
vt 0.569290 0.838585
vt 0.755491 0.838585
vt 0.924533 0.682960
vt 0.924533 0.703175
vt 0.734127 0.682960
vt 0.734127 0.703175
vt 0.734127 0.726579
vt 0.734127 0.706364
vt 0.924532 0.726579
vt 0.924532 0.706364
vt 0.019836 0.846103
vt 0.210242 0.846103
vt 0.019836 0.858219
vt 0.210242 0.858219
vt 0.019836 0.830798
vt 0.210242 0.830798
vt 0.019836 0.842915
vt 0.210242 0.842915
vt 0.930658 0.911453
vt 0.930658 0.926189
vt 0.607330 0.911453
vt 0.607330 0.926189
vt 0.600985 0.930502
vt 0.600985 0.945238
vt 0.277657 0.930502
vt 0.277657 0.945238
vt 0.383321 0.989892
vt 0.759342 0.989892
vt 0.383321 0.997070
vt 0.759342 0.997070
vt 0.277657 0.979526
vt 0.653680 0.979526
vt 0.277657 0.986704
vt 0.653680 0.986704
vt 0.930659 0.929377
vt 0.930659 0.944113
vt 0.607330 0.929377
vt 0.607330 0.944113
vt 0.930658 0.893529
vt 0.930658 0.908264
vt 0.607330 0.893529
vt 0.607330 0.908264
vt 0.277657 0.969159
vt 0.653678 0.969159
vt 0.277657 0.976337
vt 0.653678 0.976337
vt 0.510118 0.958793
vt 0.886142 0.958793
vt 0.510118 0.965971
vt 0.886142 0.965971
vt 0.277657 0.927313
vt 0.277657 0.912578
vt 0.600986 0.927313
vt 0.600986 0.912578
vt 0.277657 0.909389
vt 0.277657 0.894653
vt 0.600985 0.909389
vt 0.600985 0.894653
vt 0.510118 0.948426
vt 0.886140 0.948426
vt 0.510118 0.955604
vt 0.886140 0.955604
vt 0.002930 0.989892
vt 0.378951 0.989892
vt 0.002930 0.997070
vt 0.378951 0.997070
vt 0.264977 0.265061
vt 0.517893 0.265061
vt 0.264977 0.307460
vt 0.517893 0.307460
vt 0.286110 0.106336
vt 0.539025 0.106336
vt 0.286110 0.148735
vt 0.539026 0.148735
vt 0.328376 0.545596
vt 0.328376 0.502495
vt 0.466029 0.545596
vt 0.466029 0.502496
vt 0.734127 0.679771
vt 0.734127 0.636670
vt 0.871780 0.679771
vt 0.871780 0.636671
vt 0.307243 0.410182
vt 0.604456 0.410182
vt 0.321857 0.426402
vt 0.589843 0.426402
vt 0.604456 0.585127
vt 0.589841 0.568908
vt 0.307243 0.585127
vt 0.321858 0.568908
vt 0.264977 0.086927
vt 0.562191 0.086927
vt 0.279593 0.103147
vt 0.547577 0.103147
vt 0.562191 0.261872
vt 0.547577 0.245653
vt 0.264977 0.261872
vt 0.279593 0.245653
vt 0.848244 0.450220
vt 0.960373 0.450220
vt 0.848244 0.493320
vt 0.960373 0.493320
vt 0.590423 0.197510
vt 0.818466 0.197510
vt 0.590423 0.239909
vt 0.818466 0.239909
vt 0.839791 0.311351
vt 0.951919 0.311351
vt 0.839791 0.354452
vt 0.951920 0.354452
vt 0.590423 0.106336
vt 0.818467 0.106335
vt 0.590424 0.148734
vt 0.818467 0.148734
vt 0.286110 0.197511
vt 0.539026 0.197511
vt 0.286110 0.239909
vt 0.539026 0.239909
vt 0.286110 0.151923
vt 0.539025 0.151923
vt 0.286110 0.194322
vt 0.539026 0.194322
vt 0.755260 0.308162
vt 0.755260 0.265061
vt 0.892913 0.308162
vt 0.892913 0.265062
vt 0.024063 0.545596
vt 0.024063 0.502495
vt 0.161716 0.545596
vt 0.161716 0.502496
vt 0.569290 0.086927
vt 0.866504 0.086927
vt 0.583905 0.103147
vt 0.851891 0.103147
vt 0.866504 0.261872
vt 0.851889 0.245653
vt 0.569290 0.261872
vt 0.583906 0.245653
vt 0.002930 0.410182
vt 0.300143 0.410182
vt 0.017545 0.426403
vt 0.285529 0.426403
vt 0.300143 0.585127
vt 0.285529 0.568908
vt 0.002930 0.585127
vt 0.017545 0.568908
vt 0.844018 0.357641
vt 0.956147 0.357641
vt 0.844018 0.400742
vt 0.956147 0.400742
vt 0.522798 0.265061
vt 0.750841 0.265061
vt 0.522798 0.307459
vt 0.750841 0.307459
vt 0.844018 0.403930
vt 0.956146 0.403930
vt 0.844018 0.447031
vt 0.956147 0.447031
vt 0.590423 0.151924
vt 0.818467 0.151923
vt 0.590424 0.194322
vt 0.818467 0.194322
vt 0.328376 0.466043
vt 0.571562 0.466043
vt 0.328376 0.499306
vt 0.571562 0.499306
vt 0.959792 0.086927
vt 0.959792 0.120191
vt 0.873604 0.086927
vt 0.873605 0.120191
vt 0.959792 0.196284
vt 0.959792 0.229547
vt 0.873604 0.196284
vt 0.873604 0.229547
vt 0.552384 0.785004
vt 0.822723 0.785004
vt 0.564678 0.798844
vt 0.810430 0.798844
vt 0.822723 0.890340
vt 0.810430 0.890340
vt 0.552384 0.890340
vt 0.564678 0.890340
vt 0.277657 0.780902
vt 0.289950 0.794742
vt 0.277657 0.886241
vt 0.289950 0.886241
vt 0.548003 0.780902
vt 0.535709 0.794742
vt 0.548003 0.886241
vt 0.535710 0.886241
vt 0.848244 0.496509
vt 0.923108 0.496509
vt 0.848244 0.529773
vt 0.923108 0.529773
vt 0.024063 0.466043
vt 0.245131 0.466043
vt 0.024063 0.499306
vt 0.245131 0.499306
vt 0.848244 0.532961
vt 0.923108 0.532961
vt 0.848244 0.566225
vt 0.923108 0.566225
vt 0.328376 0.429590
vt 0.571562 0.429590
vt 0.328376 0.462854
vt 0.571562 0.462854
vt 0.959792 0.159832
vt 0.959792 0.193095
vt 0.873604 0.159832
vt 0.873605 0.193095
vt 0.959792 0.123380
vt 0.959792 0.156643
vt 0.873604 0.123380
vt 0.873604 0.156643
vt 0.002930 0.874614
vt 0.273269 0.874614
vt 0.015224 0.888455
vt 0.260976 0.888455
vt 0.273269 0.979950
vt 0.260976 0.979950
vt 0.002930 0.979950
vt 0.015224 0.979950
vt 0.002930 0.766087
vt 0.015223 0.779927
vt 0.002930 0.871426
vt 0.015223 0.871426
vt 0.273276 0.766087
vt 0.260982 0.779927
vt 0.273276 0.871426
vt 0.260983 0.871426
vt 0.848244 0.569414
vt 0.923108 0.569414
vt 0.848244 0.602677
vt 0.923108 0.602677
vt 0.024063 0.429591
vt 0.245131 0.429591
vt 0.024063 0.462855
vt 0.245131 0.462855
vt 0.167766 0.502495
vt 0.242630 0.502495
vt 0.167766 0.535759
vt 0.242630 0.535759
vt 0.241202 0.732227
vt 0.241204 0.586911
vt 0.514472 0.732227
vt 0.514471 0.586911
vt 0.241202 0.732227
vt 0.514472 0.732227
vt 0.241204 0.586911
vt 0.514471 0.586911
vt 0.241202 0.732227
vt 0.241204 0.586911
vt 0.514472 0.732227
vt 0.514471 0.586911
vn 1.000000 0.000000 0.000000
vn 1.000000 0.000000 0.000000
vn 1.000000 0.000000 0.000000
vn 1.000000 0.000000 0.000000
vn 1.000000 0.000000 0.000000
vn 1.000000 0.000000 0.000000
vn -0.088740 0.995919 0.016472
vn -0.034143 0.996683 0.073876
vn -0.040236 0.998425 0.039090
vn -0.040236 0.998425 0.039090
vn -0.034143 0.996683 0.073876
vn -0.003181 0.990890 0.134634
vn -0.998683 0.047085 0.020385
vn -0.994174 0.036255 0.101506
vn -0.994427 0.103921 0.017779
vn -0.994427 0.103921 0.017779
vn -0.994174 0.036255 0.101506
vn -0.992635 0.109208 0.052443
vn -0.048200 -0.082080 0.995459
vn -0.035565 -0.035302 0.998744
vn -0.011516 -0.055574 0.998388
vn -0.011516 -0.055574 0.998388
vn -0.035565 -0.035302 0.998744
vn -0.014546 -0.029135 0.999470
vn -0.014546 -0.029135 0.999470
vn -0.035565 -0.035302 0.998744
vn -0.012661 -0.006031 0.999902
vn -0.012661 -0.006031 0.999902
vn -0.035565 -0.035302 0.998744
vn -0.046756 -0.008834 0.998867
vn 0.028492 0.999547 0.009747
vn -0.088740 0.995919 0.016472
vn 0.250248 0.968175 -0.003644
vn -0.655875 0.077513 0.750879
vn -0.409747 -0.013670 0.912097
vn -0.048200 -0.082080 0.995459
vn -0.048200 -0.082080 0.995459
vn -0.409747 -0.013670 0.912097
vn -0.035565 -0.035302 0.998744
vn -0.046756 -0.008834 0.998867
vn -0.035565 -0.035302 0.998744
vn -0.524893 -0.006190 0.851146
vn -0.524893 -0.006190 0.851146
vn -0.035565 -0.035302 0.998744
vn -0.409747 -0.013670 0.912097
vn -0.994174 0.036255 0.101506
vn -0.998683 0.047085 0.020385
vn -0.997150 -0.049287 0.057122
vn -0.997150 -0.049287 0.057122
vn -0.998683 0.047085 0.020385
vn -0.993439 -0.110675 0.028812
vn -0.783123 -0.069235 0.618001
vn -0.067621 -0.010800 0.997653
vn -0.524893 -0.006190 0.851146
vn -0.524893 -0.006190 0.851146
vn -0.067621 -0.010800 0.997653
vn -0.046756 -0.008834 0.998867
vn -0.067621 -0.010800 0.997653
vn -0.010495 0.000865 0.999945
vn -0.046756 -0.008834 0.998867
vn -0.046756 -0.008834 0.998867
vn -0.010495 0.000865 0.999945
vn -0.012661 -0.006031 0.999902
vn -0.993439 -0.110675 0.028812
vn -0.974011 -0.224132 0.032661
vn -0.997150 -0.049287 0.057122
vn -0.997150 -0.049287 0.057122
vn -0.974011 -0.224132 0.032661
vn -0.997634 -0.057024 -0.038404
vn -0.997828 -0.065868 -0.001357
vn -0.992051 -0.125663 0.006648
vn -0.993439 -0.110675 0.028812
vn -0.993439 -0.110675 0.028812
vn -0.992051 -0.125663 0.006648
vn -0.974011 -0.224132 0.032661
vn -0.993439 -0.110675 0.028812
vn -0.998683 0.047085 0.020385
vn -0.997828 -0.065868 -0.001357
vn -0.997828 -0.065868 -0.001357
vn -0.998683 0.047085 0.020385
vn -0.998975 0.045150 -0.003231
vn -0.998683 0.047085 0.020385
vn -0.994427 0.103921 0.017779
vn -0.998975 0.045150 -0.003231
vn -0.998975 0.045150 -0.003231
vn -0.994427 0.103921 0.017779
vn -0.996528 0.082961 -0.007018
vn -0.992051 -0.125663 0.006648
vn -0.997828 -0.065868 -0.001357
vn -0.995321 -0.074679 -0.061315
vn -0.995321 -0.074679 -0.061315
vn -0.997828 -0.065868 -0.001357
vn -0.996565 -0.032578 -0.076134
vn -0.997828 -0.065868 -0.001357
vn -0.998975 0.045150 -0.003231
vn -0.996565 -0.032578 -0.076134
vn -0.996565 -0.032578 -0.076134
vn -0.998975 0.045150 -0.003231
vn -0.995803 0.021366 -0.088991
vn -0.996831 0.039411 -0.069097
vn -0.995803 0.021366 -0.088991
vn -0.996528 0.082961 -0.007018
vn -0.996528 0.082961 -0.007018
vn -0.995803 0.021366 -0.088991
vn -0.998975 0.045150 -0.003231
vn -0.995803 0.021366 -0.088991
vn -0.996831 0.039411 -0.069097
vn -0.127145 -0.008642 -0.991847
vn -0.127145 -0.008642 -0.991847
vn -0.996831 0.039411 -0.069097
vn -0.166118 0.007186 -0.986080
vn -0.995803 0.021366 -0.088991
vn -0.127145 -0.008642 -0.991847
vn -0.996565 -0.032578 -0.076134
vn -0.996565 -0.032578 -0.076134
vn -0.127145 -0.008642 -0.991847
vn -0.138589 -0.012035 -0.990277
vn -0.996565 -0.032578 -0.076134
vn -0.138589 -0.012035 -0.990277
vn -0.995321 -0.074679 -0.061315
vn -0.995321 -0.074679 -0.061315
vn -0.138589 -0.012035 -0.990277
vn -0.119008 -0.008151 -0.992860
vn -0.011717 0.006508 -0.999910
vn -0.119008 -0.008151 -0.992860
vn -0.012476 -0.005415 -0.999908
vn -0.012476 -0.005415 -0.999908
vn -0.119008 -0.008151 -0.992860
vn -0.138589 -0.012035 -0.990277
vn -0.127145 -0.008642 -0.991847
vn -0.012871 -0.022717 -0.999659
vn -0.138589 -0.012035 -0.990277
vn -0.138589 -0.012035 -0.990277
vn -0.012871 -0.022717 -0.999659
vn -0.012476 -0.005415 -0.999908
vn -0.012871 -0.022717 -0.999659
vn -0.127145 -0.008642 -0.991847
vn -0.018359 -0.024575 -0.999529
vn -0.018359 -0.024575 -0.999529
vn -0.127145 -0.008642 -0.991847
vn -0.166118 0.007186 -0.986080
vn -0.012476 -0.005415 -0.999908
vn 0.008482 -0.000144 -0.999964
vn -0.011717 0.006508 -0.999910
vn -0.011717 0.006508 -0.999910
vn 0.008482 -0.000144 -0.999964
vn 0.005670 0.014458 -0.999879
vn 0.008482 -0.000144 -0.999964
vn -0.012476 -0.005415 -0.999908
vn 0.010382 -0.033046 -0.999400
vn 0.010382 -0.033046 -0.999400
vn -0.012476 -0.005415 -0.999908
vn -0.012871 -0.022717 -0.999659
vn 0.010382 -0.033046 -0.999400
vn -0.012871 -0.022717 -0.999659
vn 0.009182 -0.048922 -0.998760
vn 0.009182 -0.048922 -0.998760
vn -0.012871 -0.022717 -0.999659
vn -0.018359 -0.024575 -0.999529
vn 0.009182 -0.048922 -0.998760
vn 0.116772 -0.033715 -0.992586
vn 0.010382 -0.033046 -0.999400
vn 0.010382 -0.033046 -0.999400
vn 0.116772 -0.033715 -0.992586
vn 0.095420 -0.030781 -0.994961
vn 0.095420 -0.030781 -0.994961
vn 0.092948 0.005377 -0.995656
vn 0.010382 -0.033046 -0.999400
vn 0.010382 -0.033046 -0.999400
vn 0.092948 0.005377 -0.995656
vn 0.008482 -0.000144 -0.999964
vn 0.005670 0.014458 -0.999879
vn 0.008482 -0.000144 -0.999964
vn 0.090715 0.030702 -0.995404
vn 0.090715 0.030702 -0.995404
vn 0.008482 -0.000144 -0.999964
vn 0.092948 0.005377 -0.995656
vn 0.991654 0.086968 -0.095177
vn 0.992965 0.034936 -0.113138
vn 0.116772 -0.033715 -0.992586
vn 0.116772 -0.033715 -0.992586
vn 0.992965 0.034936 -0.113138
vn 0.095420 -0.030781 -0.994961
vn 0.092948 0.005377 -0.995656
vn 0.095420 -0.030781 -0.994961
vn 0.994956 0.006484 -0.100102
vn 0.994956 0.006484 -0.100102
vn 0.095420 -0.030781 -0.994961
vn 0.992965 0.034936 -0.113138
vn 0.994956 0.006484 -0.100102
vn 0.993835 -0.005288 -0.110743
vn 0.092948 0.005377 -0.995656
vn 0.092948 0.005377 -0.995656
vn 0.993835 -0.005288 -0.110743
vn 0.090715 0.030702 -0.995404
vn 0.992965 0.034936 -0.113138
vn 0.991654 0.086968 -0.095177
vn 0.998835 0.047207 -0.009991
vn 0.998835 0.047207 -0.009991
vn 0.991654 0.086968 -0.095177
vn 0.992906 0.118637 -0.007883
vn 0.998835 0.047207 -0.009991
vn 0.999916 0.004820 -0.012059
vn 0.992965 0.034936 -0.113138
vn 0.992965 0.034936 -0.113138
vn 0.999916 0.004820 -0.012059
vn 0.994956 0.006484 -0.100102
vn 0.993835 -0.005288 -0.110743
vn 0.994956 0.006484 -0.100102
vn 0.999909 0.003963 -0.012920
vn 0.999909 0.003963 -0.012920
vn 0.994956 0.006484 -0.100102
vn 0.999916 0.004820 -0.012059
vn 0.999842 0.016582 0.006405
vn 0.999909 0.003963 -0.012920
vn 0.999852 0.016797 0.003696
vn 0.999852 0.016797 0.003696
vn 0.999909 0.003963 -0.012920
vn 0.999916 0.004820 -0.012059
vn 0.998835 0.047207 -0.009991
vn 0.998142 0.060581 0.006547
vn 0.999916 0.004820 -0.012059
vn 0.999916 0.004820 -0.012059
vn 0.998142 0.060581 0.006547
vn 0.999852 0.016797 0.003696
vn 0.998835 0.047207 -0.009991
vn 0.992906 0.118637 -0.007883
vn 0.998142 0.060581 0.006547
vn 0.998142 0.060581 0.006547
vn 0.992906 0.118637 -0.007883
vn 0.991168 0.132050 0.012175
vn 0.999852 0.016797 0.003696
vn 0.997645 -0.031543 0.060905
vn 0.999842 0.016582 0.006405
vn 0.999842 0.016582 0.006405
vn 0.997645 -0.031543 0.060905
vn 0.994605 -0.061903 0.083246
vn 0.997645 -0.031543 0.060905
vn 0.999852 0.016797 0.003696
vn 0.996013 0.051045 0.073163
vn 0.996013 0.051045 0.073163
vn 0.999852 0.016797 0.003696
vn 0.998142 0.060581 0.006547
vn 0.996013 0.051045 0.073163
vn 0.998142 0.060581 0.006547
vn 0.992002 0.107580 0.066016
vn 0.992002 0.107580 0.066016
vn 0.998142 0.060581 0.006547
vn 0.991168 0.132050 0.012175
vn 0.064045 0.029011 0.997525
vn 0.083638 -0.010231 0.996444
vn 0.644996 0.066241 0.761310
vn 0.644996 0.066241 0.761310
vn 0.083638 -0.010231 0.996444
vn 0.661141 0.036812 0.749358
vn 0.708124 -0.017794 0.705863
vn 0.661141 0.036812 0.749358
vn 0.064432 -0.017951 0.997761
vn 0.064432 -0.017951 0.997761
vn 0.661141 0.036812 0.749358
vn 0.083638 -0.010231 0.996444
vn 0.050592 0.052502 0.997339
vn 0.741534 -0.004660 0.670899
vn 0.064432 -0.017951 0.997761
vn 0.064432 -0.017951 0.997761
vn 0.741534 -0.004660 0.670899
vn 0.708124 -0.017794 0.705863
vn 0.708124 -0.017794 0.705863
vn 0.741534 -0.004660 0.670899
vn 0.997645 -0.031543 0.060905
vn 0.997645 -0.031543 0.060905
vn 0.741534 -0.004660 0.670899
vn 0.994605 -0.061903 0.083246
vn 0.997645 -0.031543 0.060905
vn 0.996013 0.051045 0.073163
vn 0.708124 -0.017794 0.705863
vn 0.708124 -0.017794 0.705863
vn 0.996013 0.051045 0.073163
vn 0.661141 0.036812 0.749358
vn 0.644996 0.066241 0.761310
vn 0.661141 0.036812 0.749358
vn 0.992002 0.107580 0.066016
vn 0.992002 0.107580 0.066016
vn 0.661141 0.036812 0.749358
vn 0.996013 0.051045 0.073163
vn -0.409747 -0.013670 0.912097
vn -0.655875 0.077513 0.750879
vn -0.994174 0.036255 0.101506
vn -0.994174 0.036255 0.101506
vn -0.655875 0.077513 0.750879
vn -0.992635 0.109208 0.052443
vn -0.524893 -0.006190 0.851146
vn -0.409747 -0.013670 0.912097
vn -0.997150 -0.049287 0.057122
vn -0.997150 -0.049287 0.057122
vn -0.409747 -0.013670 0.912097
vn -0.994174 0.036255 0.101506
vn -0.997634 -0.057024 -0.038404
vn -0.783123 -0.069235 0.618001
vn -0.997150 -0.049287 0.057122
vn -0.997150 -0.049287 0.057122
vn -0.783123 -0.069235 0.618001
vn -0.524893 -0.006190 0.851146
vn 0.018886 0.048051 0.998666
vn -0.011516 -0.055574 0.998388
vn 0.013082 0.013661 0.999821
vn 0.013082 0.013661 0.999821
vn -0.011516 -0.055574 0.998388
vn -0.014546 -0.029135 0.999470
vn -0.012661 -0.006031 0.999902
vn 0.011169 -0.023611 0.999659
vn -0.014546 -0.029135 0.999470
vn -0.014546 -0.029135 0.999470
vn 0.011169 -0.023611 0.999659
vn 0.013082 0.013661 0.999821
vn -0.010495 0.000865 0.999945
vn 0.013683 -0.030161 0.999451
vn -0.012661 -0.006031 0.999902
vn -0.012661 -0.006031 0.999902
vn 0.013683 -0.030161 0.999451
vn 0.011169 -0.023611 0.999659
vn 0.018886 0.048051 0.998666
vn 0.013082 0.013661 0.999821
vn 0.064045 0.029011 0.997525
vn 0.064045 0.029011 0.997525
vn 0.013082 0.013661 0.999821
vn 0.083638 -0.010231 0.996444
vn 0.064432 -0.017951 0.997761
vn 0.083638 -0.010231 0.996444
vn 0.011169 -0.023611 0.999659
vn 0.011169 -0.023611 0.999659
vn 0.083638 -0.010231 0.996444
vn 0.013082 0.013661 0.999821
vn 0.011169 -0.023611 0.999659
vn 0.013683 -0.030161 0.999451
vn 0.064432 -0.017951 0.997761
vn 0.064432 -0.017951 0.997761
vn 0.013683 -0.030161 0.999451
vn 0.050592 0.052502 0.997339
vn -0.024183 0.989479 0.142644
vn 0.003351 0.999142 0.041292
vn -0.003181 0.990890 0.134634
vn -0.003181 0.990890 0.134634
vn 0.003351 0.999142 0.041292
vn -0.040236 0.998425 0.039090
vn -0.132067 0.991177 0.011203
vn 0.048058 0.998725 0.015436
vn 0.011015 0.997329 0.072210
vn -0.024183 0.989479 0.142644
vn 0.011015 0.997329 0.072210
vn 0.003351 0.999142 0.041292
vn 0.003351 0.999142 0.041292
vn 0.011015 0.997329 0.072210
vn 0.048058 0.998725 0.015436
vn 0.045718 0.998883 -0.011970
vn 0.004912 0.999566 -0.029058
vn 0.048058 0.998725 0.015436
vn 0.048058 0.998725 0.015436
vn 0.004912 0.999566 -0.029058
vn 0.003351 0.999142 0.041292
vn -0.040236 0.998425 0.039090
vn 0.003351 0.999142 0.041292
vn -0.033541 0.999137 -0.024494
vn -0.033541 0.999137 -0.024494
vn 0.003351 0.999142 0.041292
vn 0.004912 0.999566 -0.029058
vn -0.088740 0.995919 0.016472
vn -0.040236 0.998425 0.039090
vn -0.078165 0.996940 0.000928
vn -0.078165 0.996940 0.000928
vn -0.040236 0.998425 0.039090
vn -0.033541 0.999137 -0.024494
vn 0.001459 0.996636 -0.081941
vn -0.032837 0.998642 -0.040445
vn -0.033541 0.999137 -0.024494
vn -0.033541 0.999137 -0.024494
vn -0.032837 0.998642 -0.040445
vn -0.078165 0.996940 0.000928
vn -0.015330 0.995817 -0.090071
vn 0.004912 0.999566 -0.029058
vn 0.006628 0.997566 -0.069412
vn 0.006628 0.997566 -0.069412
vn 0.004912 0.999566 -0.029058
vn 0.045718 0.998883 -0.011970
vn 0.004912 0.999566 -0.029058
vn -0.015330 0.995817 -0.090071
vn -0.033541 0.999137 -0.024494
vn -0.033541 0.999137 -0.024494
vn -0.015330 0.995817 -0.090071
vn 0.001459 0.996636 -0.081941
vn 0.045718 0.998883 -0.011970
vn -0.122647 0.992073 -0.027373
vn 0.006628 0.997566 -0.069412
vn 0.009433 -0.997834 0.065106
vn -0.012001 -0.999690 0.021841
vn 0.006812 -0.996712 0.080745
vn 0.006812 -0.996712 0.080745
vn -0.012001 -0.999690 0.021841
vn 0.018584 -0.999538 0.024037
vn -0.049749 -0.998724 0.008751
vn -0.012001 -0.999690 0.021841
vn -0.018483 -0.999287 0.032913
vn -0.018483 -0.999287 0.032913
vn -0.012001 -0.999690 0.021841
vn 0.009433 -0.997834 0.065106
vn 0.059437 -0.998184 0.009766
vn 0.043428 -0.997524 0.055307
vn 0.018584 -0.999538 0.024037
vn 0.018584 -0.999538 0.024037
vn 0.043428 -0.997524 0.055307
vn 0.006812 -0.996712 0.080745
vn 0.059437 -0.998184 0.009766
vn 0.018584 -0.999538 0.024037
vn 0.068335 -0.997656 -0.003509
vn 0.068335 -0.997656 -0.003509
vn 0.018584 -0.999538 0.024037
vn 0.019258 -0.999638 -0.018771
vn -0.012001 -0.999690 0.021841
vn -0.015221 -0.999826 -0.010770
vn 0.018584 -0.999538 0.024037
vn 0.018584 -0.999538 0.024037
vn -0.015221 -0.999826 -0.010770
vn 0.019258 -0.999638 -0.018771
vn 0.013467 -0.996931 -0.077119
vn 0.019258 -0.999638 -0.018771
vn -0.005097 -0.999079 -0.042609
vn -0.005097 -0.999079 -0.042609
vn 0.019258 -0.999638 -0.018771
vn -0.015221 -0.999826 -0.010770
vn -0.015221 -0.999826 -0.010770
vn -0.012001 -0.999690 0.021841
vn -0.037726 -0.999288 -0.000003
vn -0.037726 -0.999288 -0.000003
vn -0.012001 -0.999690 0.021841
vn -0.049749 -0.998724 0.008751
vn -0.003567 -0.993745 -0.111620
vn -0.005097 -0.999079 -0.042609
vn -0.007065 -0.999578 -0.028177
vn -0.005097 -0.999079 -0.042609
vn -0.015221 -0.999826 -0.010770
vn -0.007065 -0.999578 -0.028177
vn -0.007065 -0.999578 -0.028177
vn -0.015221 -0.999826 -0.010770
vn -0.037726 -0.999288 -0.000003
vn -0.018483 -0.999287 0.032913
vn 0.005295 -0.999985 0.001669
vn -0.049749 -0.998724 0.008751
vn 0.005295 -0.999985 0.001669
vn 0.123667 -0.992307 0.005863
vn -0.049749 -0.998724 0.008751
vn 0.013467 -0.996931 -0.077119
vn 0.015894 -0.999824 -0.010024
vn 0.048061 -0.997758 -0.046576
vn 0.013467 -0.996931 -0.077119
vn 0.048061 -0.997758 -0.046576
vn 0.019258 -0.999638 -0.018771
vn 0.019258 -0.999638 -0.018771
vn 0.048061 -0.997758 -0.046576
vn 0.068335 -0.997656 -0.003509
vn 0.043428 -0.997524 0.055307
vn 0.059437 -0.998184 0.009766
vn 0.057083 -0.997666 0.037464
vn 0.059437 -0.998184 0.009766
vn -0.561326 -0.827347 -0.020260
vn 0.057083 -0.997666 0.037464
vn -0.078165 0.996940 0.000928
vn -0.032837 0.998642 -0.040445
vn 0.005832 0.999982 0.001519
vn -0.034143 0.996683 0.073876
vn -0.088740 0.995919 0.016472
vn 0.028492 0.999547 0.009747
vn -0.213902 0.976835 0.006254
vn 0.048058 0.998725 0.015436
vn -0.132067 0.991177 0.011203
vn -0.731282 0.682062 -0.004314
vn -0.071602 0.975351 -0.208721
vn -0.560467 0.817167 -0.134589
vn -0.560467 0.817167 -0.134589
vn -0.071602 0.975351 -0.208721
vn -0.050535 0.976796 -0.208125
vn -0.560467 0.817167 -0.134589
vn -0.050535 0.976796 -0.208125
vn -0.566895 0.804170 -0.178719
vn -0.566895 0.804170 -0.178719
vn -0.050535 0.976796 -0.208125
vn -0.045343 0.974230 -0.220953
vn -0.054450 0.846074 -0.530278
vn -0.731659 0.506380 -0.456350
vn -0.052010 0.938831 -0.340427
vn -0.052010 0.938831 -0.340427
vn -0.731659 0.506380 -0.456350
vn -0.690135 0.645311 -0.327547
vn -0.974529 0.012385 -0.223920
vn -0.979136 0.014485 -0.202690
vn -0.731659 0.506380 -0.456350
vn -0.731659 0.506380 -0.456350
vn -0.979136 0.014485 -0.202690
vn -0.690135 0.645311 -0.327547
vn -0.566895 0.804170 -0.178719
vn -0.994264 0.095021 -0.049094
vn -0.560467 0.817167 -0.134589
vn -0.560467 0.817167 -0.134589
vn -0.994264 0.095021 -0.049094
vn -0.992399 0.120547 0.024770
vn -0.560467 0.817167 -0.134589
vn -0.992399 0.120547 0.024770
vn -0.731282 0.682062 -0.004314
vn -0.731282 0.682062 -0.004314
vn -0.992399 0.120547 0.024770
vn -0.992394 0.094811 0.078516
vn -0.997875 0.035187 -0.054832
vn -0.994264 0.095021 -0.049094
vn -0.979136 0.014485 -0.202690
vn -0.992399 0.120547 0.024770
vn -0.994264 0.095021 -0.049094
vn -0.997657 0.049380 0.047342
vn -0.997657 0.049380 0.047342
vn -0.994264 0.095021 -0.049094
vn -0.997875 0.035187 -0.054832
vn -0.991217 0.053140 0.121099
vn -0.992394 0.094811 0.078516
vn -0.997657 0.049380 0.047342
vn -0.997657 0.049380 0.047342
vn -0.992394 0.094811 0.078516
vn -0.992399 0.120547 0.024770
vn -0.995684 0.029760 -0.087907
vn -0.994613 -0.018460 -0.102006
vn -0.997875 0.035187 -0.054832
vn -0.997875 0.035187 -0.054832
vn -0.994613 -0.018460 -0.102006
vn -0.997918 -0.016154 -0.062445
vn -0.997875 0.035187 -0.054832
vn -0.997918 -0.016154 -0.062445
vn -0.997657 0.049380 0.047342
vn -0.997657 0.049380 0.047342
vn -0.997918 -0.016154 -0.062445
vn -0.996683 0.011428 0.080578
vn -0.997657 0.049380 0.047342
vn -0.996683 0.011428 0.080578
vn -0.991217 0.053140 0.121099
vn -0.991217 0.053140 0.121099
vn -0.996683 0.011428 0.080578
vn -0.988746 0.011056 0.149194
vn -0.067936 -0.981688 0.177968
vn -0.784075 -0.548968 0.289586
vn -0.064792 -0.990671 0.119887
vn -0.064792 -0.990671 0.119887
vn -0.784075 -0.548968 0.289586
vn -0.824065 -0.547924 0.143862
vn -0.824065 -0.547924 0.143862
vn -0.630759 -0.772968 -0.068296
vn -0.064792 -0.990671 0.119887
vn -0.064792 -0.990671 0.119887
vn -0.630759 -0.772968 -0.068296
vn -0.066165 -0.995534 0.067331
vn -0.630759 -0.772968 -0.068296
vn -0.551884 -0.797124 -0.244985
vn -0.066165 -0.995534 0.067331
vn -0.066165 -0.995534 0.067331
vn -0.551884 -0.797124 -0.244985
vn -0.049368 -0.998751 -0.007684
vn -0.012399 -0.992285 -0.123357
vn -0.025510 -0.998733 0.043386
vn -0.049368 -0.998751 -0.007684
vn -0.049368 -0.998751 -0.007684
vn -0.025510 -0.998733 0.043386
vn -0.066165 -0.995534 0.067331
vn -0.024656 -0.984581 0.173181
vn -0.064792 -0.990671 0.119887
vn -0.025510 -0.998733 0.043386
vn -0.025510 -0.998733 0.043386
vn -0.064792 -0.990671 0.119887
vn -0.066165 -0.995534 0.067331
vn -0.064792 -0.990671 0.119887
vn -0.024656 -0.984581 0.173181
vn -0.067936 -0.981688 0.177968
vn -0.067936 -0.981688 0.177968
vn -0.024656 -0.984581 0.173181
vn -0.014529 -0.958550 0.284555
vn 0.016388 -0.982370 0.186225
vn 0.008804 -0.953680 0.300694
vn -0.024656 -0.984581 0.173181
vn -0.024656 -0.984581 0.173181
vn 0.008804 -0.953680 0.300694
vn -0.014529 -0.958550 0.284555
vn -0.025510 -0.998733 0.043386
vn 0.018862 -0.998680 0.047778
vn -0.024656 -0.984581 0.173181
vn -0.024656 -0.984581 0.173181
vn 0.018862 -0.998680 0.047778
vn 0.016388 -0.982370 0.186225
vn -0.012399 -0.992285 -0.123357
vn 0.016129 -0.992082 -0.124556
vn -0.025510 -0.998733 0.043386
vn -0.025510 -0.998733 0.043386
vn 0.016129 -0.992082 -0.124556
vn 0.018862 -0.998680 0.047778
vn 0.016129 -0.992082 -0.124556
vn 0.073154 -0.988285 -0.133946
vn 0.018862 -0.998680 0.047778
vn 0.018862 -0.998680 0.047778
vn 0.073154 -0.988285 -0.133946
vn 0.079920 -0.995755 0.045670
vn 0.016388 -0.982370 0.186225
vn 0.018862 -0.998680 0.047778
vn 0.078614 -0.983831 0.160922
vn 0.078614 -0.983831 0.160922
vn 0.018862 -0.998680 0.047778
vn 0.079920 -0.995755 0.045670
vn 0.008804 -0.953680 0.300694
vn 0.016388 -0.982370 0.186225
vn 0.074986 -0.961818 0.263218
vn 0.074986 -0.961818 0.263218
vn 0.016388 -0.982370 0.186225
vn 0.078614 -0.983831 0.160922
vn 0.542002 -0.823913 0.165533
vn 0.997555 -0.060997 0.034116
vn 0.628334 -0.701213 0.336892
vn 0.628334 -0.701213 0.336892
vn 0.997555 -0.060997 0.034116
vn 0.990374 -0.056510 0.126358
vn 0.585625 -0.810477 -0.013029
vn 0.992926 -0.075571 -0.091577
vn 0.542002 -0.823913 0.165533
vn 0.542002 -0.823913 0.165533
vn 0.992926 -0.075571 -0.091577
vn 0.997555 -0.060997 0.034116
vn 0.585625 -0.810477 -0.013029
vn 0.786640 -0.544208 -0.291607
vn 0.992926 -0.075571 -0.091577
vn 0.992926 -0.075571 -0.091577
vn 0.786640 -0.544208 -0.291607
vn 0.948307 -0.097603 -0.301974
vn 0.992926 -0.075571 -0.091577
vn 0.948307 -0.097603 -0.301974
vn 0.993071 -0.086545 -0.079504
vn 0.993071 -0.086545 -0.079504
vn 0.948307 -0.097603 -0.301974
vn 0.983684 -0.097708 -0.151058
vn 0.997555 -0.060997 0.034116
vn 0.992926 -0.075571 -0.091577
vn 0.998817 -0.048181 0.006596
vn 0.998817 -0.048181 0.006596
vn 0.992926 -0.075571 -0.091577
vn 0.993071 -0.086545 -0.079504
vn 0.998817 -0.048181 0.006596
vn 0.996263 0.006283 0.086149
vn 0.997555 -0.060997 0.034116
vn 0.997555 -0.060997 0.034116
vn 0.996263 0.006283 0.086149
vn 0.990374 -0.056510 0.126358
vn 0.996263 0.006283 0.086149
vn 0.998087 0.004538 0.061664
vn 0.996117 0.053085 0.070235
vn 0.996117 0.053085 0.070235
vn 0.998087 0.004538 0.061664
vn 0.998864 0.044036 0.018185
vn 0.998087 0.004538 0.061664
vn 0.994968 -0.000207 -0.100195
vn 0.998864 0.044036 0.018185
vn 0.998864 0.044036 0.018185
vn 0.994968 -0.000207 -0.100195
vn 0.996889 0.015369 -0.077306
vn 0.994968 -0.000207 -0.100195
vn 0.980662 0.006339 -0.195605
vn 0.996889 0.015369 -0.077306
vn 0.996889 0.015369 -0.077306
vn 0.980662 0.006339 -0.195605
vn 0.991930 -0.014624 -0.125942
vn 0.996889 0.015369 -0.077306
vn 0.991930 -0.014624 -0.125942
vn 0.975303 0.032736 -0.218432
vn 0.975303 0.032736 -0.218432
vn 0.991930 -0.014624 -0.125942
vn 0.942505 0.053882 -0.329820
vn 0.995948 0.010274 -0.089347
vn 0.997457 0.060661 0.037406
vn 0.996889 0.015369 -0.077306
vn 0.996889 0.015369 -0.077306
vn 0.997457 0.060661 0.037406
vn 0.998864 0.044036 0.018185
vn 0.998864 0.044036 0.018185
vn 0.997457 0.060661 0.037406
vn 0.996117 0.053085 0.070235
vn 0.996117 0.053085 0.070235
vn 0.997457 0.060661 0.037406
vn 0.985488 0.143909 0.090024
vn 0.995948 0.010274 -0.089347
vn 0.897097 0.412769 -0.157603
vn 0.997457 0.060661 0.037406
vn 0.997457 0.060661 0.037406
vn 0.897097 0.412769 -0.157603
vn 0.853116 0.518103 -0.061338
vn 0.975303 0.032736 -0.218432
vn 0.942505 0.053882 -0.329820
vn 0.782349 0.484099 -0.391891
vn 0.782349 0.484099 -0.391891
vn 0.942505 0.053882 -0.329820
vn 0.658097 0.494417 -0.567856
vn 0.997457 0.060661 0.037406
vn 0.853116 0.518103 -0.061338
vn 0.985488 0.143909 0.090024
vn 0.985488 0.143909 0.090024
vn 0.853116 0.518103 -0.061338
vn 0.645386 0.761698 -0.057396
vn 0.039012 0.972189 -0.230927
vn 0.645386 0.761698 -0.057396
vn 0.083774 0.972672 -0.216543
vn 0.083774 0.972672 -0.216543
vn 0.645386 0.761698 -0.057396
vn 0.853116 0.518103 -0.061338
vn 0.853116 0.518103 -0.061338
vn 0.897097 0.412769 -0.157603
vn 0.083774 0.972672 -0.216543
vn 0.083774 0.972672 -0.216543
vn 0.897097 0.412769 -0.157603
vn 0.090489 0.970428 -0.223788
vn 0.782349 0.484099 -0.391891
vn 0.658097 0.494417 -0.567856
vn 0.063324 0.931576 -0.357989
vn 0.063324 0.931576 -0.357989
vn 0.658097 0.494417 -0.567856
vn 0.040218 0.823444 -0.565970
vn 0.083774 0.972672 -0.216543
vn 0.019140 0.983288 -0.181047
vn 0.039012 0.972189 -0.230927
vn 0.039012 0.972189 -0.230927
vn 0.019140 0.983288 -0.181047
vn 0.015833 0.988616 -0.149623
vn 0.090489 0.970428 -0.223788
vn 0.021384 0.976109 -0.216225
vn 0.083774 0.972672 -0.216543
vn 0.083774 0.972672 -0.216543
vn 0.021384 0.976109 -0.216225
vn 0.019140 0.983288 -0.181047
vn 0.015197 0.840525 -0.541559
vn 0.018196 0.927020 -0.374571
vn 0.040218 0.823444 -0.565970
vn 0.040218 0.823444 -0.565970
vn 0.018196 0.927020 -0.374571
vn 0.063324 0.931576 -0.357989
vn -0.007072 0.822545 -0.568655
vn -0.005217 0.921884 -0.387432
vn 0.015197 0.840525 -0.541559
vn 0.015197 0.840525 -0.541559
vn -0.005217 0.921884 -0.387432
vn 0.018196 0.927020 -0.374571
vn 0.021384 0.976109 -0.216225
vn -0.002839 0.973653 -0.228017
vn 0.019140 0.983288 -0.181047
vn 0.019140 0.983288 -0.181047
vn -0.002839 0.973653 -0.228017
vn -0.002144 0.979959 -0.199190
vn -0.002144 0.979959 -0.199190
vn 0.000378 0.980683 -0.195602
vn 0.019140 0.983288 -0.181047
vn 0.019140 0.983288 -0.181047
vn 0.000378 0.980683 -0.195602
vn 0.015833 0.988616 -0.149623
vn 0.000378 0.980683 -0.195602
vn -0.002144 0.979959 -0.199190
vn -0.071602 0.975351 -0.208721
vn -0.071602 0.975351 -0.208721
vn -0.002144 0.979959 -0.199190
vn -0.050535 0.976796 -0.208125
vn -0.045343 0.974230 -0.220953
vn -0.050535 0.976796 -0.208125
vn -0.002839 0.973653 -0.228017
vn -0.002839 0.973653 -0.228017
vn -0.050535 0.976796 -0.208125
vn -0.002144 0.979959 -0.199190
vn -0.048518 0.798782 -0.599661
vn -0.054450 0.846074 -0.530278
vn -0.007072 0.822545 -0.568655
vn -0.007072 0.822545 -0.568655
vn -0.054450 0.846074 -0.530278
vn -0.005217 0.921884 -0.387432
vn -0.087683 0.260385 0.961515
vn -0.020907 0.321318 0.946741
vn -0.046524 0.335188 0.941002
vn -0.046524 0.335188 0.941002
vn -0.020907 0.321318 0.946741
vn 0.008752 0.424258 0.905499
vn 0.062533 0.263980 0.962499
vn -0.087683 0.260385 0.961515
vn -0.046524 0.335188 0.941002
vn 0.007151 0.414881 0.909848
vn 0.008752 0.424258 0.905499
vn 0.035333 0.321089 0.946390
vn 0.035333 0.321089 0.946390
vn 0.008752 0.424258 0.905499
vn -0.020907 0.321318 0.946741
vn 0.083631 0.283672 0.955268
vn 0.063906 0.368168 0.927561
vn 0.035333 0.321089 0.946390
vn 0.035333 0.321089 0.946390
vn 0.063906 0.368168 0.927561
vn 0.007151 0.414881 0.909848
vn 0.083631 0.283672 0.955268
vn -0.221359 0.285929 0.932333
vn -0.117871 0.303930 0.945375
vn 0.031890 0.200701 0.979133
vn 0.087113 0.232562 0.968672
vn 0.035333 0.321089 0.946390
vn 0.035333 0.321089 0.946390
vn 0.087113 0.232562 0.968672
vn 0.083631 0.283672 0.955268
vn -0.023756 0.192047 0.981098
vn 0.031890 0.200701 0.979133
vn -0.020907 0.321318 0.946741
vn -0.020907 0.321318 0.946741
vn 0.031890 0.200701 0.979133
vn 0.035333 0.321089 0.946390
vn -0.094015 0.211183 0.972915
vn -0.023756 0.192047 0.981098
vn -0.087683 0.260385 0.961515
vn -0.087683 0.260385 0.961515
vn -0.023756 0.192047 0.981098
vn -0.020907 0.321318 0.946741
vn -0.003548 0.135055 0.990832
vn -0.048120 0.181043 0.982297
vn -0.021993 -0.051888 0.998411
vn 0.031890 0.200701 0.979133
vn -0.023756 0.192047 0.981098
vn 0.007238 0.146446 0.989192
vn 0.007238 0.146446 0.989192
vn -0.023756 0.192047 0.981098
vn -0.003548 0.135055 0.990832
vn 0.087113 0.232562 0.968672
vn 0.031890 0.200701 0.979133
vn 0.047883 0.181372 0.982248
vn 0.047883 0.181372 0.982248
vn 0.031890 0.200701 0.979133
vn 0.007238 0.146446 0.989192
vn 0.007238 0.146446 0.989192
vn 0.036965 -0.072597 0.996676
vn 0.030141 0.036302 0.998886
vn 0.000459 -0.270056 -0.962845
vn -0.002335 -0.270930 -0.962596
vn -0.006156 -0.269441 -0.962997
vn -0.006156 -0.269441 -0.962997
vn -0.002335 -0.270930 -0.962596
vn -0.001015 -0.267417 -0.963580
vn -0.024618 -0.285218 -0.958147
vn -0.023241 -0.286624 -0.957761
vn -0.006156 -0.269441 -0.962997
vn -0.006156 -0.269441 -0.962997
vn -0.023241 -0.286624 -0.957761
vn 0.000459 -0.270056 -0.962845
vn -0.024618 -0.285218 -0.958147
vn -0.552912 -0.148306 -0.819935
vn -0.023241 -0.286624 -0.957761
vn -0.552912 -0.148306 -0.819935
vn -0.013212 -0.621832 -0.783039
vn -0.023241 -0.286624 -0.957761
vn -0.002335 -0.270930 -0.962596
vn -0.007853 -0.268374 -0.963283
vn -0.001015 -0.267417 -0.963580
vn -0.001015 -0.267417 -0.963580
vn -0.007853 -0.268374 -0.963283
vn -0.008933 -0.280412 -0.959838
vn -0.007853 -0.268374 -0.963283
vn -0.013989 -0.266254 -0.963801
vn -0.008933 -0.280412 -0.959838
vn 0.060545 -0.254478 -0.965182
vn -0.008933 -0.280412 -0.959838
vn -0.013989 -0.266254 -0.963801
vn -0.000092 -0.242213 -0.970223
vn -0.001015 -0.267417 -0.963580
vn 0.001692 -0.275658 -0.961254
vn 0.001692 -0.275658 -0.961254
vn -0.001015 -0.267417 -0.963580
vn -0.008933 -0.280412 -0.959838
vn -0.007402 -0.242666 -0.970082
vn -0.006156 -0.269441 -0.962997
vn -0.000092 -0.242213 -0.970223
vn -0.000092 -0.242213 -0.970223
vn -0.006156 -0.269441 -0.962997
vn -0.001015 -0.267417 -0.963580
vn -0.007402 -0.242666 -0.970082
vn -0.011349 -0.232993 -0.972412
vn -0.016716 -0.247769 -0.968675
vn -0.007199 -0.229425 -0.973300
vn -0.007402 -0.242666 -0.970082
vn 0.000801 -0.227254 -0.973835
vn 0.000801 -0.227254 -0.973835
vn -0.007402 -0.242666 -0.970082
vn -0.000092 -0.242213 -0.970223
vn -0.007199 -0.229425 -0.973300
vn -0.010634 -0.230836 -0.972935
vn -0.007402 -0.242666 -0.970082
vn -0.007402 -0.242666 -0.970082
vn -0.010634 -0.230836 -0.972935
vn -0.011349 -0.232993 -0.972412
vn -0.010634 -0.230836 -0.972935
vn 0.075887 -0.216160 -0.973404
vn -0.011349 -0.232993 -0.972412
vn -0.008211 -0.234166 -0.972162
vn 0.000101 -0.233453 -0.972368
vn -0.000092 -0.242213 -0.970223
vn -0.000092 -0.242213 -0.970223
vn 0.000101 -0.233453 -0.972368
vn 0.000801 -0.227254 -0.973835
vn -0.008211 -0.234166 -0.972162
vn 0.667532 -0.223733 -0.710172
vn 0.050366 -0.242885 -0.968747
vn 0.083631 0.283672 0.955268
vn -0.117871 0.303930 0.945375
vn 0.063906 0.368168 0.927561
vn -0.087102 0.274214 0.957716
vn -0.087683 0.260385 0.961515
vn 0.062533 0.263980 0.962499
vn -0.979136 0.014485 -0.202690
vn -0.994264 0.095021 -0.049094
vn -0.690135 0.645311 -0.327547
vn -0.690135 0.645311 -0.327547
vn -0.994264 0.095021 -0.049094
vn -0.566895 0.804170 -0.178719
vn -0.052010 0.938831 -0.340427
vn -0.690135 0.645311 -0.327547
vn -0.045343 0.974230 -0.220953
vn -0.045343 0.974230 -0.220953
vn -0.690135 0.645311 -0.327547
vn -0.566895 0.804170 -0.178719
vn -0.002839 0.973653 -0.228017
vn -0.052010 0.938831 -0.340427
vn -0.045343 0.974230 -0.220953
vn -0.997875 0.035187 -0.054832
vn -0.979136 0.014485 -0.202690
vn -0.974529 0.012385 -0.223920
vn -0.998438 -0.047510 -0.029407
vn -0.993275 -0.041986 -0.107901
vn -0.991714 -0.068130 -0.108913
vn -0.991714 -0.068130 -0.108913
vn -0.993275 -0.041986 -0.107901
vn -0.883603 -0.212077 -0.417456
vn -0.998438 -0.047510 -0.029407
vn -0.991714 -0.068130 -0.108913
vn -0.998622 -0.018784 0.048996
vn -0.998622 -0.018784 0.048996
vn -0.991714 -0.068130 -0.108913
vn -0.999051 -0.000577 0.043555
vn -0.998622 -0.018784 0.048996
vn -0.999051 -0.000577 0.043555
vn -0.988020 0.018731 0.153182
vn -0.988020 0.018731 0.153182
vn -0.999051 -0.000577 0.043555
vn -0.987093 -0.003458 0.160108
vn -0.997918 -0.016154 -0.062445
vn -0.994613 -0.018460 -0.102006
vn -0.998438 -0.047510 -0.029407
vn -0.997918 -0.016154 -0.062445
vn -0.998438 -0.047510 -0.029407
vn -0.996683 0.011428 0.080578
vn -0.996683 0.011428 0.080578
vn -0.998438 -0.047510 -0.029407
vn -0.998622 -0.018784 0.048996
vn -0.996683 0.011428 0.080578
vn -0.998622 -0.018784 0.048996
vn -0.988746 0.011056 0.149194
vn -0.988746 0.011056 0.149194
vn -0.998622 -0.018784 0.048996
vn -0.988020 0.018731 0.153182
vn 0.998817 -0.048181 0.006596
vn 0.998087 0.004538 0.061664
vn 0.996263 0.006283 0.086149
vn 0.994968 -0.000207 -0.100195
vn 0.998087 0.004538 0.061664
vn 0.993071 -0.086545 -0.079504
vn 0.993071 -0.086545 -0.079504
vn 0.998087 0.004538 0.061664
vn 0.998817 -0.048181 0.006596
vn 0.980662 0.006339 -0.195605
vn 0.994968 -0.000207 -0.100195
vn 0.983684 -0.097708 -0.151058
vn 0.983684 -0.097708 -0.151058
vn 0.994968 -0.000207 -0.100195
vn 0.993071 -0.086545 -0.079504
vn -0.005217 0.921884 -0.387432
vn -0.052010 0.938831 -0.340427
vn -0.002839 0.973653 -0.228017
vn -0.005217 0.921884 -0.387432
vn -0.002839 0.973653 -0.228017
vn 0.018196 0.927020 -0.374571
vn 0.018196 0.927020 -0.374571
vn -0.002839 0.973653 -0.228017
vn 0.021384 0.976109 -0.216225
vn 0.018196 0.927020 -0.374571
vn 0.021384 0.976109 -0.216225
vn 0.063324 0.931576 -0.357989
vn 0.063324 0.931576 -0.357989
vn 0.021384 0.976109 -0.216225
vn 0.090489 0.970428 -0.223788
vn 0.897097 0.412769 -0.157603
vn 0.782349 0.484099 -0.391891
vn 0.090489 0.970428 -0.223788
vn 0.090489 0.970428 -0.223788
vn 0.782349 0.484099 -0.391891
vn 0.063324 0.931576 -0.357989
vn 0.995948 0.010274 -0.089347
vn 0.975303 0.032736 -0.218432
vn 0.897097 0.412769 -0.157603
vn 0.897097 0.412769 -0.157603
vn 0.975303 0.032736 -0.218432
vn 0.782349 0.484099 -0.391891
vn 0.995948 0.010274 -0.089347
vn 0.996889 0.015369 -0.077306
vn 0.975303 0.032736 -0.218432
vn -0.100615 0.237923 0.966059
vn -0.023756 0.192047 0.981098
vn -0.094015 0.211183 0.972915
vn -0.100615 0.237923 0.966059
vn -0.048120 0.181043 0.982297
vn -0.023756 0.192047 0.981098
vn -0.023756 0.192047 0.981098
vn -0.048120 0.181043 0.982297
vn -0.003548 0.135055 0.990832
vn -0.007402 -0.242666 -0.970082
vn -0.016716 -0.247769 -0.968675
vn -0.006156 -0.269441 -0.962997
vn -0.006156 -0.269441 -0.962997
vn -0.016716 -0.247769 -0.968675
vn -0.024618 -0.285218 -0.958147
vn -0.000092 -0.242213 -0.970223
vn 0.001692 -0.275658 -0.961254
vn -0.008211 -0.234166 -0.972162
vn -0.998438 -0.047510 -0.029407
vn -0.994613 -0.018460 -0.102006
vn -0.993275 -0.041986 -0.107901
vn -0.731659 0.506380 -0.456350
vn -0.054450 0.846074 -0.530278
vn -0.739589 0.433319 -0.515017
vn -0.739589 0.433319 -0.515017
vn -0.054450 0.846074 -0.530278
vn -0.048518 0.798782 -0.599661
vn -0.931375 0.006995 -0.363994
vn -0.974529 0.012385 -0.223920
vn -0.739589 0.433319 -0.515017
vn -0.739589 0.433319 -0.515017
vn -0.974529 0.012385 -0.223920
vn -0.731659 0.506380 -0.456350
vn -0.997875 0.035187 -0.054832
vn -0.974529 0.012385 -0.223920
vn -0.995684 0.029760 -0.087907
vn -0.995684 0.029760 -0.087907
vn -0.974529 0.012385 -0.223920
vn -0.931375 0.006995 -0.363994
vn -0.005217 0.921884 -0.387432
vn -0.054450 0.846074 -0.530278
vn -0.052010 0.938831 -0.340427
vn 0.074986 -0.961818 0.263218
vn 0.078614 -0.983831 0.160922
vn 0.628334 -0.701213 0.336892
vn 0.628334 -0.701213 0.336892
vn 0.078614 -0.983831 0.160922
vn 0.542002 -0.823913 0.165533
vn 0.078614 -0.983831 0.160922
vn 0.079920 -0.995755 0.045670
vn 0.542002 -0.823913 0.165533
vn 0.542002 -0.823913 0.165533
vn 0.079920 -0.995755 0.045670
vn 0.585625 -0.810477 -0.013029
vn 0.073154 -0.988285 -0.133946
vn 0.786640 -0.544208 -0.291607
vn 0.079920 -0.995755 0.045670
vn 0.079920 -0.995755 0.045670
vn 0.786640 -0.544208 -0.291607
vn 0.585625 -0.810477 -0.013029
vn 0.007238 0.146446 0.989192
vn 0.030141 0.036302 0.998886
vn 0.047883 0.181372 0.982248
vn -0.824065 -0.547924 0.143862
vn -0.784075 -0.548968 0.289586
vn -0.999051 -0.000577 0.043555
vn -0.999051 -0.000577 0.043555
vn -0.784075 -0.548968 0.289586
vn -0.987093 -0.003458 0.160108
vn -0.999051 -0.000577 0.043555
vn -0.991714 -0.068130 -0.108913
vn -0.824065 -0.547924 0.143862
vn -0.824065 -0.547924 0.143862
vn -0.991714 -0.068130 -0.108913
vn -0.630759 -0.772968 -0.068296
vn -0.991714 -0.068130 -0.108913
vn -0.883603 -0.212077 -0.417456
vn -0.630759 -0.772968 -0.068296
vn -0.630759 -0.772968 -0.068296
vn -0.883603 -0.212077 -0.417456
vn -0.551884 -0.797124 -0.244985
vn -0.003548 0.135055 0.990832
vn -0.021993 -0.051888 0.998411
vn -0.022737 -0.068599 0.997385
vn -0.008211 -0.234166 -0.972162
vn 0.050366 -0.242885 -0.968747
vn 0.000101 -0.233453 -0.972368
vn -0.011349 -0.232993 -0.972412
vn 0.075887 -0.216160 -0.973404
vn 0.221391 -0.192776 -0.955941
vn 0.000000 0.264185 0.964472
vn 0.000000 0.264185 0.964472
vn 0.000000 0.264185 0.964472
vn 0.000000 0.264185 0.964472
vn 0.000000 0.264185 0.964472
vn 0.000000 0.264185 0.964472
vn 0.000000 -0.264185 -0.964472
vn 0.000000 -0.264185 -0.964472
vn 0.000000 -0.264185 -0.964472
vn 0.000000 -0.264185 -0.964472
vn 0.000000 -0.264185 -0.964472
vn 0.000000 -0.264185 -0.964472
vn 0.000000 -0.964472 0.264187
vn 0.000000 -0.964472 0.264187
vn 0.000000 -0.964472 0.264187
vn 0.000000 -0.964472 0.264187
vn 0.000000 -0.964472 0.264187
vn 0.000000 -0.964472 0.264187
vn 0.000000 0.964473 -0.264183
vn 0.000000 0.964472 -0.264186
vn 0.000000 0.964473 -0.264183
vn 0.000000 0.964473 -0.264183
vn 0.000000 0.964472 -0.264186
vn 0.000000 0.964472 -0.264187
vn 0.000000 0.264185 0.964472
vn 0.000000 0.264185 0.964472
vn 0.000000 0.264185 0.964472
vn 0.000000 0.264185 0.964472
vn 0.000000 0.264185 0.964472
vn 0.000000 0.264185 0.964472
vn 0.000000 -0.264186 -0.964472
vn 0.000000 -0.264186 -0.964472
vn 0.000001 -0.264185 -0.964472
vn 0.000001 -0.264185 -0.964472
vn 0.000000 -0.264186 -0.964472
vn 0.000001 -0.264185 -0.964472
vn 0.000000 -0.964472 0.264185
vn 0.000000 -0.964472 0.264185
vn 0.000000 -0.964472 0.264185
vn 0.000000 -0.964472 0.264185
vn 0.000000 -0.964472 0.264185
vn 0.000000 -0.964472 0.264185
vn 0.000000 0.964473 -0.264183
vn 0.000000 0.964472 -0.264185
vn 0.000000 0.964473 -0.264183
vn 0.000000 0.964473 -0.264183
vn 0.000000 0.964472 -0.264185
vn 0.000000 0.964472 -0.264185
vn 0.000000 0.264185 0.964472
vn 0.000000 0.264185 0.964472
vn -0.000001 0.264185 0.964472
vn -0.000001 0.264185 0.964472
vn 0.000000 0.264185 0.964472
vn -0.000001 0.264185 0.964472
vn 0.000000 -0.264186 -0.964472
vn 0.000000 -0.264186 -0.964472
vn 0.000001 -0.264185 -0.964472
vn 0.000001 -0.264185 -0.964472
vn 0.000000 -0.264186 -0.964472
vn 0.000001 -0.264185 -0.964472
vn 1.000000 0.000000 0.000000
vn 1.000000 0.000000 0.000000
vn 1.000000 0.000000 0.000000
vn 1.000000 0.000000 0.000000
vn 1.000000 0.000000 0.000000
vn 1.000000 0.000000 0.000000
vn -1.000000 0.000000 0.000000
vn -1.000000 0.000000 0.000000
vn -1.000000 0.000000 0.000000
vn -1.000000 0.000000 0.000000
vn -1.000000 0.000000 0.000000
vn -1.000000 0.000000 0.000000
vn -0.000001 0.264185 0.964472
vn -0.000001 0.264185 0.964472
vn 0.000000 0.264185 0.964472
vn 0.000000 0.264185 0.964472
vn -0.000001 0.264185 0.964472
vn 0.000000 0.264185 0.964472
vn 0.000001 -0.264186 -0.964472
vn 0.000001 -0.264186 -0.964472
vn 0.000000 -0.264186 -0.964472
vn 0.000000 -0.264186 -0.964472
vn 0.000001 -0.264186 -0.964472
vn 0.000000 -0.264186 -0.964472
vn 0.000000 -0.964473 0.264183
vn 0.000000 -0.964474 0.264179
vn 0.000000 -0.964473 0.264183
vn 0.000000 -0.964473 0.264183
vn 0.000000 -0.964474 0.264179
vn 0.000000 -0.964474 0.264179
vn 0.000000 0.964472 -0.264184
vn -0.000000 0.964471 -0.264189
vn -0.000000 0.964472 -0.264184
vn -0.000000 0.964472 -0.264184
vn -0.000000 0.964471 -0.264189
vn -0.000000 0.964471 -0.264189
vn 0.000000 0.264185 0.964472
vn 0.000000 0.264185 0.964472
vn 0.000000 0.264185 0.964472
vn 0.000000 0.264185 0.964472
vn 0.000000 0.264185 0.964472
vn 0.000000 0.264185 0.964472
vn 0.000001 -0.264186 -0.964472
vn 0.000001 -0.264186 -0.964472
vn 0.000000 -0.264186 -0.964472
vn 0.000000 -0.264186 -0.964472
vn 0.000001 -0.264186 -0.964472
vn 0.000000 -0.264186 -0.964472
vn 1.000000 0.000000 0.000000
vn 1.000000 0.000000 0.000000
vn 1.000000 0.000000 0.000000
vn 1.000000 0.000000 0.000000
vn 1.000000 0.000000 0.000000
vn 1.000000 0.000000 0.000000
vn -1.000000 0.000000 0.000000
vn -1.000000 0.000000 0.000000
vn -1.000000 0.000000 0.000000
vn -1.000000 0.000000 0.000000
vn -1.000000 0.000000 0.000000
vn -1.000000 0.000000 0.000000
vn 0.000000 0.264185 0.964472
vn 0.000000 0.264185 0.964472
vn 0.000000 0.264185 0.964472
vn 0.000000 0.264185 0.964472
vn 0.000000 0.264185 0.964472
vn 0.000000 0.264185 0.964472
vn 0.000000 -0.264185 -0.964472
vn 0.000000 -0.264185 -0.964472
vn 0.000000 -0.264186 -0.964472
vn 0.000000 -0.264186 -0.964472
vn 0.000000 -0.264185 -0.964472
vn 0.000000 -0.264186 -0.964472
vn 0.000000 -0.964473 0.264181
vn 0.000000 -0.964472 0.264187
vn 0.000000 -0.964473 0.264181
vn 0.000000 -0.964473 0.264181
vn 0.000000 -0.964472 0.264187
vn 0.000000 -0.964471 0.264187
vn 0.000000 0.964472 -0.264184
vn 0.000000 0.964472 -0.264184
vn 0.000000 0.964472 -0.264184
vn 0.000000 0.964472 -0.264184
vn 0.000000 0.964472 -0.264184
vn 0.000000 0.964472 -0.264184
vn 0.000000 1.000000 0.000000
vn 0.000000 1.000000 0.000000
vn 0.000000 1.000000 0.000000
vn 0.000000 1.000000 0.000000
vn 0.000000 1.000000 0.000000
vn 0.000000 1.000000 0.000000
vn 0.000000 -1.000000 0.000000
vn 0.000000 -1.000000 0.000000
vn 0.000000 -1.000000 0.000000
vn 0.000000 -1.000000 0.000000
vn 0.000000 -1.000000 0.000000
vn 0.000000 -1.000000 0.000000
vn 0.000000 0.000000 1.000000
vn 0.000000 0.000000 1.000000
vn 0.000000 0.000000 1.000000
vn 0.000000 0.000000 1.000000
vn 0.000000 0.000000 1.000000
vn 0.000000 0.000000 1.000000
vn 0.000000 0.000000 -1.000000
vn 0.000000 0.000000 -1.000000
vn 0.000000 0.000000 -1.000000
vn 0.000000 0.000000 -1.000000
vn 0.000000 0.000000 -1.000000
vn 0.000000 0.000000 -1.000000
vn 0.000000 1.000000 0.000000
vn 0.000000 1.000000 0.000000
vn 0.000000 1.000000 0.000000
vn 0.000000 1.000000 0.000000
vn 0.000000 1.000000 0.000000
vn 0.000000 1.000000 0.000000
vn 0.000000 -1.000000 0.000000
vn 0.000000 -1.000000 0.000000
vn 0.000000 -1.000000 0.000000
vn 0.000000 -1.000000 0.000000
vn 0.000000 -1.000000 0.000000
vn 0.000000 -1.000000 0.000000
vn 0.000000 0.000000 1.000000
vn 0.000000 0.000000 1.000000
vn 0.000000 0.000000 1.000000
vn 0.000000 0.000000 1.000000
vn 0.000000 0.000000 1.000000
vn 0.000000 0.000000 1.000000
vn 0.000000 0.000000 -1.000000
vn 0.000000 0.000000 -1.000000
vn 0.000000 0.000000 -1.000000
vn 0.000000 0.000000 -1.000000
vn 0.000000 0.000000 -1.000000
vn 0.000000 0.000000 -1.000000
vn 0.000000 1.000000 0.000000
vn 0.000000 1.000000 0.000000
vn 0.000000 1.000000 0.000000
vn 0.000000 1.000000 0.000000
vn 0.000000 1.000000 0.000000
vn 0.000000 1.000000 0.000000
vn 0.000000 -1.000000 0.000000
vn 0.000000 -1.000000 0.000000
vn 0.000000 -1.000000 0.000000
vn 0.000000 -1.000000 0.000000
vn 0.000000 -1.000000 0.000000
vn 0.000000 -1.000000 0.000000
vn 0.000000 0.000000 1.000000
vn 0.000000 0.000000 1.000000
vn 0.000000 0.000000 1.000000
vn 0.000000 0.000000 1.000000
vn 0.000000 0.000000 1.000000
vn 0.000000 0.000000 1.000000
vn 0.000000 0.000000 -1.000000
vn 0.000000 0.000000 -1.000000
vn 0.000000 0.000000 -1.000000
vn 0.000000 0.000000 -1.000000
vn 0.000000 0.000000 -1.000000
vn 0.000000 0.000000 -1.000000
vn 0.000000 1.000000 0.000000
vn 0.000000 1.000000 0.000000
vn 0.000000 1.000000 0.000000
vn 0.000000 1.000000 0.000000
vn 0.000000 1.000000 0.000000
vn 0.000000 1.000000 0.000000
vn 0.000000 -1.000000 0.000000
vn 0.000000 -1.000000 0.000000
vn 0.000000 -1.000000 0.000000
vn 0.000000 -1.000000 0.000000
vn 0.000000 -1.000000 0.000000
vn 0.000000 -1.000000 0.000000
vn 0.000000 0.000000 1.000000
vn 0.000000 0.000000 1.000000
vn 0.000000 0.000000 1.000000
vn 0.000000 0.000000 1.000000
vn 0.000000 0.000000 1.000000
vn 0.000000 0.000000 1.000000
vn 0.000000 0.000000 -1.000000
vn 0.000000 0.000000 -1.000000
vn 0.000000 0.000000 -1.000000
vn 0.000000 0.000000 -1.000000
vn 0.000000 0.000000 -1.000000
vn 0.000000 0.000000 -1.000000
vn -1.000000 0.000000 0.000000
vn -1.000000 -0.000001 0.000000
vn -1.000000 0.000000 0.000000
vn -1.000000 0.000000 0.000000
vn -1.000000 -0.000001 0.000000
vn -1.000000 -0.000001 0.000000
vn -1.000000 -0.000001 0.000000
vn -1.000000 0.000000 0.000000
vn -1.000000 -0.000001 0.000000
vn -1.000000 -0.000001 0.000000
vn -1.000000 0.000000 0.000000
vn -1.000000 0.000000 0.000000
vn -1.000000 0.000000 0.000000
vn -1.000000 0.000001 0.000000
vn -1.000000 0.000000 0.000000
vn -1.000000 0.000000 0.000000
vn -1.000000 0.000001 0.000000
vn -1.000000 0.000001 0.000000
vn -1.000000 0.000001 0.000000
vn -1.000000 0.000000 0.000000
vn -1.000000 0.000001 0.000000
vn -1.000000 0.000001 0.000000
vn -1.000000 0.000000 0.000000
vn -1.000000 0.000000 0.000000
vn 1.000000 -0.000000 0.000000
vn 1.000000 -0.000001 0.000000
vn 1.000000 -0.000000 0.000000
vn 1.000000 -0.000000 0.000000
vn 1.000000 -0.000001 0.000000
vn 1.000000 -0.000001 0.000000
vn 1.000000 -0.000001 0.000000
vn 1.000000 0.000001 0.000000
vn 1.000000 -0.000001 0.000000
vn 1.000000 -0.000001 0.000000
vn 1.000000 0.000001 0.000000
vn 1.000000 0.000001 0.000000
vn 1.000000 0.000001 0.000000
vn 1.000000 0.000001 0.000000
vn 1.000000 0.000001 0.000000
vn 1.000000 0.000001 0.000000
vn 1.000000 0.000001 0.000000
vn 1.000000 0.000001 0.000000
vn 1.000000 0.000001 0.000000
vn 1.000000 -0.000000 0.000000
vn 1.000000 0.000001 0.000000
vn 1.000000 0.000001 0.000000
vn 1.000000 -0.000000 0.000000
vn 1.000000 -0.000000 0.000000
vn 0.000000 0.000000 -1.000000
vn 0.000000 0.000000 -1.000000
vn 0.000000 0.000000 -1.000000
vn 0.000000 0.000000 -1.000000
vn 0.000000 0.000000 -1.000000
vn 0.000000 0.000000 -1.000000
vn 0.000000 -1.000000 0.000000
vn 0.000000 -1.000000 0.000000
vn 0.000000 -1.000000 0.000000
vn 0.000000 -1.000000 0.000000
vn 0.000000 -1.000000 0.000000
vn 0.000000 -1.000000 0.000000
vn 0.000000 0.000000 1.000000
vn 0.000000 0.000000 1.000000
vn 0.000000 0.000000 1.000000
vn 0.000000 0.000000 1.000000
vn 0.000000 0.000000 1.000000
vn 0.000000 0.000000 1.000000
vn 0.000000 1.000000 0.000000
vn 0.000000 1.000000 0.000000
vn 0.000000 1.000000 0.000000
vn 0.000000 1.000000 0.000000
vn 0.000000 1.000000 0.000000
vn 0.000000 1.000000 0.000000
vn 0.000000 1.000000 0.000000
vn 0.000000 1.000000 0.000000
vn 0.000000 1.000000 0.000000
vn 0.000000 1.000000 0.000000
vn 0.000000 1.000000 0.000000
vn 0.000000 1.000000 0.000000
vn 0.000000 -1.000000 0.000000
vn 0.000000 -1.000000 0.000000
vn 0.000000 -1.000000 0.000000
vn 0.000000 -1.000000 0.000000
vn 0.000000 -1.000000 0.000000
vn 0.000000 -1.000000 0.000000
vn 0.000000 0.000000 1.000000
vn 0.000000 0.000000 1.000000
vn 0.000000 0.000000 1.000000
vn 0.000000 0.000000 1.000000
vn 0.000000 0.000000 1.000000
vn 0.000000 0.000000 1.000000
vn 0.000000 0.000000 -1.000000
vn 0.000000 0.000000 -1.000000
vn 0.000000 0.000000 -1.000000
vn 0.000000 0.000000 -1.000000
vn 0.000000 0.000000 -1.000000
vn 0.000000 0.000000 -1.000000
vn -1.000000 0.000000 0.000000
vn -1.000000 0.000001 0.000000
vn -1.000000 0.000000 0.000000
vn -1.000000 0.000000 0.000000
vn -1.000000 0.000001 0.000000
vn -1.000000 0.000001 0.000000
vn -1.000000 0.000001 0.000000
vn -1.000000 -0.000001 0.000000
vn -1.000000 0.000001 0.000000
vn -1.000000 0.000001 0.000000
vn -1.000000 -0.000001 0.000000
vn -1.000000 -0.000001 0.000000
vn -1.000000 -0.000001 0.000000
vn -1.000000 -0.000001 0.000000
vn -1.000000 -0.000001 0.000000
vn -1.000000 -0.000001 0.000000
vn -1.000000 -0.000001 0.000000
vn -1.000000 -0.000001 0.000000
vn -1.000000 -0.000001 0.000000
vn -1.000000 0.000000 0.000000
vn -1.000000 -0.000001 0.000000
vn -1.000000 -0.000001 0.000000
vn -1.000000 0.000000 0.000000
vn -1.000000 0.000000 0.000000
vn 1.000000 0.000000 0.000000
vn 1.000000 0.000001 0.000000
vn 1.000000 0.000000 0.000000
vn 1.000000 0.000000 0.000000
vn 1.000000 0.000001 0.000000
vn 1.000000 0.000001 0.000000
vn 1.000000 0.000001 0.000000
vn 1.000000 0.000000 0.000000
vn 1.000000 0.000001 0.000000
vn 1.000000 0.000001 0.000000
vn 1.000000 0.000000 0.000000
vn 1.000000 0.000000 0.000000
vn 1.000000 0.000000 0.000000
vn 1.000000 -0.000001 0.000000
vn 1.000000 0.000000 0.000000
vn 1.000000 0.000000 0.000000
vn 1.000000 -0.000001 0.000000
vn 1.000000 -0.000001 0.000000
vn 1.000000 -0.000001 0.000000
vn 1.000000 0.000000 0.000000
vn 1.000000 -0.000001 0.000000
vn 1.000000 -0.000001 0.000000
vn 1.000000 0.000000 0.000000
vn 1.000000 0.000000 0.000000
vn 0.000000 0.000000 -1.000000
vn 0.000000 0.000000 -1.000000
vn 0.000000 0.000000 -1.000000
vn 0.000000 0.000000 -1.000000
vn 0.000000 0.000000 -1.000000
vn 0.000000 0.000000 -1.000000
vn 0.000000 -1.000000 0.000000
vn 0.000000 -1.000000 0.000000
vn 0.000000 -1.000000 0.000000
vn 0.000000 -1.000000 0.000000
vn 0.000000 -1.000000 0.000000
vn 0.000000 -1.000000 0.000000
vn 0.000000 0.000000 1.000000
vn 0.000000 0.000000 1.000000
vn 0.000000 0.000000 1.000000
vn 0.000000 0.000000 1.000000
vn 0.000000 0.000000 1.000000
vn 0.000000 0.000000 1.000000
vn 0.000000 1.000000 0.000000
vn 0.000000 1.000000 0.000000
vn 0.000000 1.000000 0.000000
vn 0.000000 1.000000 0.000000
vn 0.000000 1.000000 0.000000
vn 0.000000 1.000000 0.000000
vn 0.000000 -1.000000 0.000000
vn 0.000000 -1.000000 0.000000
vn 0.000000 -1.000000 0.000000
vn 0.000000 -1.000000 0.000000
vn 0.000000 -1.000000 0.000000
vn 0.000000 -1.000000 0.000000
vn 0.000000 0.000000 1.000000
vn 0.000000 0.000000 1.000000
vn 0.000000 0.000000 1.000000
vn 0.000000 0.000000 1.000000
vn 0.000000 0.000000 1.000000
vn 0.000000 0.000000 1.000000
vn 0.000000 0.000000 -1.000000
vn 0.000000 0.000000 -1.000000
vn 0.000000 0.000000 -1.000000
vn 0.000000 0.000000 -1.000000
vn 0.000000 0.000000 -1.000000
vn 0.000000 0.000000 -1.000000
vn -1.000000 0.000002 0.000000
vn -1.000000 -0.000003 0.000000
vn -1.000000 0.000002 0.000000
vn -1.000000 0.000002 0.000000
vn -1.000000 -0.000003 0.000000
vn -1.000000 -0.000003 0.000000
vn -1.000000 -0.000003 0.000000
vn -1.000000 0.000000 0.000000
vn -1.000000 -0.000003 0.000000
vn -1.000000 -0.000003 0.000000
vn -1.000000 0.000000 0.000000
vn -1.000000 0.000000 0.000000
vn -1.000000 0.000002 0.000000
vn -1.000000 0.000002 0.000000
vn -1.000000 0.000000 0.000000
vn -1.000000 0.000000 0.000000
vn -1.000000 0.000002 0.000000
vn -1.000000 0.000000 0.000000
vn 1.000000 -0.000000 0.000000
vn 1.000000 -0.000000 0.000000
vn 1.000000 0.000000 0.000000
vn 1.000000 0.000000 0.000000
vn 1.000000 -0.000000 0.000000
vn 1.000000 0.000000 0.000000
vn 1.000000 -0.000000 0.000000
vn 1.000000 -0.000000 0.000000
vn 1.000000 -0.000000 0.000000
vn 1.000000 -0.000000 0.000000
vn 1.000000 -0.000000 0.000000
vn 1.000000 0.000000 0.000000
vn 1.000000 -0.000000 0.000000
vn 1.000000 0.000000 0.000000
vn 1.000000 0.000000 0.000000
vn 1.000000 0.000000 0.000000
vn 1.000000 0.000000 0.000000
vn 1.000000 0.000000 0.000000
vn 0.000000 0.000000 1.000000
vn 0.000000 0.000000 1.000000
vn 0.000000 0.000000 1.000000
vn 0.000000 0.000000 1.000000
vn 0.000000 0.000000 1.000000
vn 0.000000 0.000000 1.000000
vn 0.000000 1.000000 0.000000
vn 0.000000 1.000000 0.000000
vn 0.000000 1.000000 0.000000
vn 0.000000 1.000000 0.000000
vn 0.000000 1.000000 0.000000
vn 0.000000 1.000000 0.000000
vn 0.000000 0.000000 -1.000000
vn 0.000000 0.000000 -1.000000
vn 0.000000 0.000000 -1.000000
vn 0.000000 0.000000 -1.000000
vn 0.000000 0.000000 -1.000000
vn 0.000000 0.000000 -1.000000
vn 0.000000 -1.000000 0.000000
vn 0.000000 -1.000000 0.000000
vn 0.000000 -1.000000 0.000000
vn 0.000000 -1.000000 0.000000
vn 0.000000 -1.000000 0.000000
vn 0.000000 -1.000000 0.000000
vn 0.000000 0.000000 1.000000
vn 0.000000 0.000000 1.000000
vn 0.000000 0.000000 1.000000
vn 0.000000 0.000000 1.000000
vn 0.000000 0.000000 1.000000
vn 0.000000 0.000000 1.000000
vn 0.000000 0.000000 -1.000000
vn 0.000000 0.000000 -1.000000
vn 0.000000 0.000000 -1.000000
vn 0.000000 0.000000 -1.000000
vn 0.000000 0.000000 -1.000000
vn 0.000000 0.000000 -1.000000
vn -1.000000 -0.000002 0.000000
vn -1.000000 0.000001 0.000000
vn -1.000000 -0.000002 0.000000
vn -1.000000 -0.000002 0.000000
vn -1.000000 0.000001 0.000000
vn -1.000000 0.000001 0.000000
vn -1.000000 0.000001 0.000000
vn -1.000000 0.000000 0.000000
vn -1.000000 0.000001 0.000000
vn -1.000000 0.000001 0.000000
vn -1.000000 0.000000 0.000000
vn -1.000000 0.000000 0.000000
vn -1.000000 -0.000002 0.000000
vn -1.000000 -0.000002 0.000000
vn -1.000000 0.000000 0.000000
vn -1.000000 0.000000 0.000000
vn -1.000000 -0.000002 0.000000
vn -1.000000 0.000000 0.000000
vn 1.000000 0.000001 0.000000
vn 1.000000 0.000001 0.000000
vn 1.000000 -0.000000 0.000000
vn 1.000000 -0.000000 0.000000
vn 1.000000 0.000001 0.000000
vn 1.000000 -0.000000 0.000000
vn 1.000000 0.000001 0.000000
vn 1.000000 -0.000002 0.000000
vn 1.000000 0.000001 0.000000
vn 1.000000 0.000001 0.000000
vn 1.000000 -0.000002 0.000000
vn 1.000000 -0.000002 0.000000
vn 1.000000 -0.000002 0.000000
vn 1.000000 0.000000 0.000000
vn 1.000000 -0.000002 0.000000
vn 1.000000 -0.000002 0.000000
vn 1.000000 0.000000 0.000000
vn 1.000000 0.000000 0.000000
vn 0.000000 0.000000 1.000000
vn 0.000000 0.000000 1.000000
vn 0.000000 0.000000 1.000000
vn 0.000000 0.000000 1.000000
vn 0.000000 0.000000 1.000000
vn 0.000000 0.000000 1.000000
vn 0.000000 1.000000 0.000000
vn 0.000000 1.000000 0.000000
vn 0.000000 1.000000 0.000000
vn 0.000000 1.000000 0.000000
vn 0.000000 1.000000 0.000000
vn 0.000000 1.000000 0.000000
vn 0.000000 0.000000 -1.000000
vn 0.000000 0.000000 -1.000000
vn 0.000000 0.000000 -1.000000
vn 0.000000 0.000000 -1.000000
vn 0.000000 0.000000 -1.000000
vn 0.000000 0.000000 -1.000000
vn -1.000000 0.000000 0.000000
vn -1.000000 0.000000 0.000000
vn -1.000000 0.000000 0.000000
vn -1.000000 0.000000 0.000000
vn -1.000000 0.000000 0.000000
vn -1.000000 0.000000 0.000000
vn 1.000000 0.000000 0.000000
vn 1.000000 0.000000 0.000000
vn 1.000000 0.000000 0.000000
vn 1.000000 0.000000 0.000000
vn 1.000000 0.000000 0.000000
vn 1.000000 0.000000 0.000000
vn -1.000000 0.000000 0.000000
vn -1.000000 0.000000 0.000000
vn -1.000000 0.000000 0.000000
vn -1.000000 0.000000 0.000000
vn -1.000000 0.000000 0.000000
vn -1.000000 0.000000 0.000000
s off
g SM_Chair_02
f 1/1/1 3/2/2 2/3/3
f 3/2/4 4/4/5 2/3/6
f 5/5/7 14/6/8 8/7/9
f 8/7/10 14/6/11 7/8/12
f 10/9/13 9/10/14 5/11/15
f 5/11/16 9/10/17 6/12/18
f 14/13/19 15/14/20 7/15/21
f 7/15/22 15/14/23 11/16/24
f 11/16/25 15/14/26 13/17/27
f 13/17/28 15/14/29 16/18/30
f 70/19/31 5/5/32 6/20/33
f 70/21/34 71/22/35 14/13/36
f 14/13/37 71/22/38 15/14/39
f 16/18/40 15/14/41 72/23/42
f 72/23/43 15/14/44 71/22/45
f 9/10/46 10/9/47 12/24/48
f 12/24/49 10/9/50 17/25/51
f 73/26/52 19/27/53 72/23/54
f 72/23/55 19/27/56 16/18/57
f 19/27/58 20/28/59 16/18/60
f 16/18/61 20/28/62 13/17/63
f 17/25/64 21/29/65 12/24/66
f 12/24/67 21/29/68 18/30/69
f 22/31/70 23/32/71 17/25/72
f 17/25/73 23/32/74 21/29/75
f 17/25/76 10/9/77 22/31/78
f 22/31/79 10/9/80 24/33/81
f 10/9/82 5/11/83 24/33/84
f 24/33/85 5/11/86 25/34/87
f 23/32/88 22/31/89 27/35/90
f 27/35/91 22/31/92 26/36/93
f 22/31/94 24/33/95 26/36/96
f 26/36/97 24/33/98 28/37/99
f 29/38/100 28/37/101 25/34/102
f 25/34/103 28/37/104 24/33/105
f 28/37/106 29/38/107 31/39/108
f 31/39/109 29/38/110 30/40/111
f 28/37/112 31/39/113 26/36/114
f 26/36/115 31/39/116 32/41/117
f 26/36/118 32/41/119 27/35/120
f 27/35/121 32/41/122 33/42/123
f 35/43/124 33/44/125 34/45/126
f 34/45/127 33/44/128 32/46/129
f 31/47/130 36/48/131 32/46/132
f 32/46/133 36/48/134 34/45/135
f 36/48/136 31/47/137 37/49/138
f 37/49/139 31/47/140 30/50/141
f 34/45/142 38/51/143 35/43/144
f 35/43/145 38/51/146 39/52/147
f 38/51/148 34/45/149 40/53/150
f 40/53/151 34/45/152 36/48/153
f 40/53/154 36/48/155 41/54/156
f 41/54/157 36/48/158 37/49/159
f 41/54/160 42/55/161 40/53/162
f 40/53/163 42/55/164 43/56/165
f 43/56/166 44/57/167 40/53/168
f 40/53/169 44/57/170 38/51/171
f 39/52/172 38/51/173 45/58/174
f 45/58/175 38/51/176 44/57/177
f 47/59/178 46/60/179 42/55/180
f 42/55/181 46/60/182 43/56/183
f 44/57/184 43/56/185 48/61/186
f 48/61/187 43/56/188 46/60/189
f 48/61/190 49/62/191 44/57/192
f 44/57/193 49/62/194 45/58/195
f 46/60/196 47/59/197 51/63/198
f 51/63/199 47/59/200 50/64/201
f 51/63/202 52/65/203 46/60/204
f 46/60/205 52/65/206 48/61/207
f 49/62/208 48/61/209 53/66/210
f 53/66/211 48/61/212 52/65/213
f 55/67/214 53/66/215 54/68/216
f 54/68/217 53/66/218 52/65/219
f 51/63/220 56/69/221 52/65/222
f 52/65/223 56/69/224 54/68/225
f 51/63/226 50/64/227 56/69/228
f 56/69/229 50/64/230 57/70/231
f 54/68/232 58/71/233 55/67/234
f 55/67/235 58/71/236 59/72/237
f 58/71/238 54/68/239 60/73/240
f 60/73/241 54/68/242 56/69/243
f 60/73/244 56/69/245 61/74/246
f 61/74/247 56/69/248 57/70/249
f 63/75/250 62/76/251 69/77/252
f 69/77/253 62/76/254 68/78/255
f 67/79/256 68/78/257 64/80/258
f 64/80/259 68/78/260 62/76/261
f 65/81/262 66/82/263 64/80/264
f 64/80/265 66/82/266 67/79/267
f 67/79/268 66/82/269 58/71/270
f 58/71/271 66/82/272 59/72/273
f 58/71/274 60/73/275 67/79/276
f 67/79/277 60/73/278 68/78/279
f 69/77/280 68/78/281 61/74/282
f 61/74/283 68/78/284 60/73/285
f 71/22/286 70/21/287 9/10/288
f 9/10/289 70/21/290 6/12/291
f 72/23/292 71/22/293 12/24/294
f 12/24/295 71/22/296 9/10/297
f 18/30/298 73/26/299 12/24/300
f 12/24/301 73/26/302 72/23/303
f 75/83/304 7/15/305 74/84/306
f 74/84/307 7/15/308 11/16/309
f 13/17/310 76/85/311 11/16/312
f 11/16/313 76/85/314 74/84/315
f 20/28/316 77/86/317 13/17/318
f 13/17/319 77/86/320 76/85/321
f 75/83/322 74/84/323 63/75/324
f 63/75/325 74/84/326 62/76/327
f 64/80/328 62/76/329 76/85/330
f 76/85/331 62/76/332 74/84/333
f 76/85/334 77/86/335 64/80/336
f 64/80/337 77/86/338 65/81/339
f 75/87/340 78/88/341 7/8/342
f 7/8/343 78/88/344 8/7/345
f 69/89/346 57/90/347 63/91/348
f 75/87/349 63/91/350 78/88/351
f 78/88/352 63/91/353 57/90/354
f 50/92/355 79/93/356 57/90/357
f 57/90/358 79/93/359 78/88/360
f 8/7/361 78/88/362 80/94/363
f 80/94/364 78/88/365 79/93/366
f 5/5/367 8/7/368 25/95/369
f 25/95/370 8/7/371 80/94/372
f 37/96/373 30/97/374 80/94/375
f 80/94/376 30/97/377 25/95/378
f 41/98/379 79/93/380 42/99/381
f 42/99/382 79/93/383 50/92/384
f 79/93/385 41/98/386 80/94/387
f 80/94/388 41/98/389 37/96/390
f 50/92/391 47/100/392 42/99/393
f 20/101/394 81/102/395 77/103/396
f 77/103/397 81/102/398 82/104/399
f 21/105/400 81/102/401 19/106/402
f 19/106/403 81/102/404 20/101/405
f 55/107/406 65/108/407 82/104/408
f 82/104/409 65/108/410 77/103/411
f 55/107/412 82/104/413 53/109/414
f 53/109/415 82/104/416 83/110/417
f 81/102/418 84/111/419 82/104/420
f 82/104/421 84/111/422 83/110/423
f 39/112/424 83/110/425 35/113/426
f 35/113/427 83/110/428 84/111/429
f 84/111/430 81/102/431 23/114/432
f 23/114/433 81/102/434 21/105/435
f 33/115/436 35/113/437 27/116/438
f 35/113/439 84/111/440 27/116/441
f 27/116/442 84/111/443 23/114/444
f 19/106/445 73/117/446 21/105/447
f 73/117/448 18/118/449 21/105/450
f 39/112/451 45/119/452 49/120/453
f 39/112/454 49/120/455 83/110/456
f 83/110/457 49/120/458 53/109/459
f 65/108/460 55/107/461 66/121/462
f 55/107/463 59/122/464 66/121/465
f 25/95/466 30/97/467 29/123/468
f 14/6/469 5/5/470 70/19/471
f 61/124/472 57/90/473 69/89/474
f 85/125/475 86/126/476 88/127/477
f 88/127/478 86/126/479 87/128/480
f 88/127/481 87/128/482 90/129/483
f 90/129/484 87/128/485 89/130/486
f 180/131/487 181/132/488 164/133/489
f 164/133/490 181/132/491 163/134/492
f 182/135/493 162/136/494 181/132/495
f 181/132/496 162/136/497 163/134/498
f 90/129/499 93/137/500 88/127/501
f 88/127/502 93/137/503 95/138/504
f 88/127/505 95/138/506 85/125/507
f 85/125/508 95/138/509 96/139/510
f 98/140/511 93/137/512 162/136/513
f 95/138/514 93/137/515 99/141/516
f 99/141/517 93/137/518 98/140/519
f 100/142/520 96/139/521 99/141/522
f 99/141/523 96/139/524 95/138/525
f 97/143/526 165/144/527 98/140/528
f 98/140/529 165/144/530 169/145/531
f 98/140/532 169/145/533 99/141/534
f 99/141/535 169/145/536 170/146/537
f 99/141/538 170/146/539 100/142/540
f 100/142/541 170/146/542 171/147/543
f 106/148/544 187/149/545 107/150/546
f 107/150/547 187/149/548 188/151/549
f 188/151/550 189/152/551 107/150/552
f 107/150/553 189/152/554 108/153/555
f 189/152/556 190/154/557 108/153/558
f 108/153/559 190/154/560 109/155/561
f 110/156/562 111/157/563 109/155/564
f 109/155/565 111/157/566 108/153/567
f 112/158/568 107/150/569 111/157/570
f 111/157/571 107/150/572 108/153/573
f 107/150/574 112/158/575 106/148/576
f 106/148/577 112/158/578 113/159/579
f 114/160/580 115/161/581 112/158/582
f 112/158/583 115/161/584 113/159/585
f 111/157/586 116/162/587 112/158/588
f 112/158/589 116/162/590 114/160/591
f 110/156/592 117/163/593 111/157/594
f 111/157/595 117/163/596 116/162/597
f 117/163/598 118/164/599 116/162/600
f 116/162/601 118/164/602 119/165/603
f 114/160/604 116/162/605 120/166/606
f 120/166/607 116/162/608 119/165/609
f 115/161/610 114/160/611 121/167/612
f 121/167/613 114/160/614 120/166/615
f 184/168/616 122/169/617 183/170/618
f 183/170/619 122/169/620 123/171/621
f 185/172/622 124/173/623 184/168/624
f 184/168/625 124/173/626 122/169/627
f 185/172/628 186/174/629 124/173/630
f 124/173/631 186/174/632 125/175/633
f 124/173/634 125/175/635 127/176/636
f 127/176/637 125/175/638 126/177/639
f 122/169/640 124/173/641 128/178/642
f 128/178/643 124/173/644 127/176/645
f 128/178/646 129/179/647 122/169/648
f 122/169/649 129/179/650 123/171/651
f 129/179/652 172/180/653 131/181/654
f 131/181/655 172/180/656 130/182/657
f 172/180/658 173/183/659 130/182/660
f 130/182/661 173/183/662 132/184/663
f 173/183/664 174/185/665 132/184/666
f 132/184/667 174/185/668 133/186/669
f 132/184/670 133/186/671 179/187/672
f 179/187/673 133/186/674 134/188/675
f 135/189/676 136/190/677 132/184/678
f 132/184/679 136/190/680 130/182/681
f 130/182/682 136/190/683 131/181/684
f 131/181/685 136/190/686 137/191/687
f 135/189/688 138/192/689 136/190/690
f 136/190/691 138/192/692 139/193/693
f 179/187/694 134/188/695 178/194/696
f 178/194/697 134/188/698 140/195/699
f 136/190/700 139/193/701 137/191/702
f 137/191/703 139/193/704 141/196/705
f 142/197/706 141/196/707 143/198/708
f 143/198/709 141/196/710 139/193/711
f 139/193/712 138/192/713 143/198/714
f 143/198/715 138/192/716 144/199/717
f 178/194/718 140/195/719 177/200/720
f 177/200/721 140/195/722 145/201/723
f 143/198/724 146/202/725 142/197/726
f 142/197/727 146/202/728 147/203/729
f 144/199/730 148/204/731 143/198/732
f 143/198/733 148/204/734 146/202/735
f 149/205/736 176/206/737 145/201/738
f 145/201/739 176/206/740 177/200/741
f 150/207/742 175/208/743 149/205/744
f 149/205/745 175/208/746 176/206/747
f 148/204/748 151/209/749 146/202/750
f 146/202/751 151/209/752 152/210/753
f 152/210/754 153/211/755 146/202/756
f 146/202/757 153/211/758 147/203/759
f 153/211/760 152/210/761 86/212/762
f 86/212/763 152/210/764 87/213/765
f 89/214/766 87/213/767 151/209/768
f 151/209/769 87/213/770 152/210/771
f 91/215/772 180/216/773 150/207/774
f 150/207/775 180/216/776 175/208/777
f 100/217/778 154/218/779 86/219/780
f 86/219/781 154/218/782 153/220/783
f 85/221/784 100/217/785 86/219/786
f 147/222/787 153/220/788 155/223/789
f 155/223/790 153/220/791 154/218/792
f 131/224/793 142/225/794 155/223/795
f 155/223/796 142/225/797 147/222/798
f 131/224/799 137/226/800 141/227/801
f 156/228/802 129/229/803 155/223/804
f 155/223/805 129/229/806 131/224/807
f 157/230/808 156/228/809 154/218/810
f 154/218/811 156/228/812 155/223/813
f 171/231/814 157/230/815 100/217/816
f 100/217/817 157/230/818 154/218/819
f 113/232/820 105/233/821 187/234/822
f 156/228/823 157/230/824 115/235/825
f 115/235/826 157/230/827 113/232/828
f 129/229/829 156/228/830 123/236/831
f 123/236/832 156/228/833 115/235/834
f 115/235/835 121/237/836 183/238/837
f 150/239/838 149/240/839 159/241/840
f 159/241/841 149/240/842 158/242/843
f 97/243/844 91/244/845 159/241/846
f 159/241/847 91/244/848 150/239/849
f 97/243/850 94/245/851 91/244/852
f 94/245/853 92/246/854 91/244/855
f 149/240/856 145/247/857 158/242/858
f 158/242/859 145/247/860 133/248/861
f 145/247/862 140/249/863 133/248/864
f 134/250/865 133/248/866 140/249/867
f 160/251/868 158/242/869 174/252/870
f 174/252/871 158/242/872 133/248/873
f 161/253/874 159/241/875 160/251/876
f 160/251/877 159/241/878 158/242/879
f 161/253/880 101/254/881 165/255/882
f 110/256/883 161/253/884 117/257/885
f 117/257/886 161/253/887 160/251/888
f 110/256/889 109/258/890 161/253/891
f 161/253/892 109/258/893 101/254/894
f 109/258/895 190/259/896 101/254/897
f 126/260/898 118/261/899 160/251/900
f 160/251/901 118/261/902 117/257/903
f 126/260/904 125/262/905 186/263/906
f 131/224/907 141/227/908 142/225/909
f 96/264/910 100/217/911 85/221/912
f 162/136/913 93/137/914 163/134/915
f 163/134/916 93/137/917 90/129/918
f 164/133/919 163/134/920 89/130/921
f 89/130/922 163/134/923 90/129/924
f 151/209/925 164/265/926 89/214/927
f 98/140/928 162/136/929 182/135/930
f 168/266/931 101/267/932 103/268/933
f 103/268/934 101/267/935 102/269/936
f 168/266/937 103/268/938 167/270/939
f 167/270/940 103/268/941 104/271/942
f 167/270/943 104/271/944 166/272/945
f 166/272/946 104/271/947 105/273/948
f 169/145/949 165/144/950 168/266/951
f 169/145/952 168/266/953 170/146/954
f 170/146/955 168/266/956 167/270/957
f 170/146/958 167/270/959 171/147/960
f 171/147/961 167/270/962 166/272/963
f 128/178/964 172/180/965 129/179/966
f 173/183/967 172/180/968 127/176/969
f 127/176/970 172/180/971 128/178/972
f 174/185/973 173/183/974 126/177/975
f 126/177/976 173/183/977 127/176/978
f 175/208/979 164/265/980 151/209/981
f 175/208/982 151/209/983 176/206/984
f 176/206/985 151/209/986 148/204/987
f 176/206/988 148/204/989 177/200/990
f 177/200/991 148/204/992 144/199/993
f 138/192/994 178/194/995 144/199/996
f 144/199/997 178/194/998 177/200/999
f 135/189/1000 179/187/1001 138/192/1002
f 138/192/1003 179/187/1004 178/194/1005
f 135/189/1006 132/184/1007 179/187/1008
f 166/274/1009 157/230/1010 171/231/1011
f 166/274/1012 105/233/1013 157/230/1014
f 157/230/1015 105/233/1016 113/232/1017
f 161/253/1018 165/255/1019 159/241/1020
f 159/241/1021 165/255/1022 97/243/1023
f 160/251/1024 174/252/1025 126/260/1026
f 168/266/1027 165/144/1028 101/267/1029
f 181/132/1030 180/131/1031 92/275/1032
f 92/275/1033 180/131/1034 91/276/1035
f 94/277/1036 182/135/1037 92/275/1038
f 92/275/1039 182/135/1040 181/132/1041
f 98/140/1042 182/135/1043 97/143/1044
f 97/143/1045 182/135/1046 94/277/1047
f 175/208/1048 180/216/1049 164/265/1050
f 121/167/1051 120/166/1052 183/170/1053
f 183/170/1054 120/166/1055 184/168/1056
f 120/166/1057 119/165/1058 184/168/1059
f 184/168/1060 119/165/1061 185/172/1062
f 118/164/1063 186/174/1064 119/165/1065
f 119/165/1066 186/174/1067 185/172/1068
f 115/235/1069 183/238/1070 123/236/1071
f 188/151/1072 187/149/1073 104/271/1074
f 104/271/1075 187/149/1076 105/273/1077
f 104/271/1078 103/268/1079 188/151/1080
f 188/151/1081 103/268/1082 189/152/1083
f 103/268/1084 102/269/1085 189/152/1086
f 189/152/1087 102/269/1088 190/154/1089
f 113/232/1090 187/234/1091 106/278/1092
f 126/260/1093 186/263/1094 118/261/1095
f 101/254/1096 190/259/1097 102/279/1098
f 193/280/1099 194/281/1100 195/282/1101
f 195/282/1102 194/281/1103 196/283/1104
f 197/284/1105 198/285/1106 191/286/1107
f 191/286/1108 198/285/1109 192/287/1110
f 192/288/1111 198/289/1112 194/290/1113
f 194/290/1114 198/289/1115 196/291/1116
f 197/292/1117 191/293/1118 195/294/1119
f 195/294/1120 191/293/1121 193/295/1122
f 201/296/1123 202/297/1124 203/298/1125
f 203/298/1126 202/297/1127 204/299/1128
f 205/300/1129 206/301/1130 199/302/1131
f 199/302/1132 206/301/1133 200/303/1134
f 200/304/1135 206/305/1136 202/306/1137
f 202/306/1138 206/305/1139 204/307/1140
f 205/308/1141 199/309/1142 203/310/1143
f 203/310/1144 199/309/1145 201/311/1146
f 202/312/1147 201/313/1148 207/314/1149
f 207/314/1150 201/313/1151 208/315/1152
f 209/316/1153 210/317/1154 200/318/1155
f 200/318/1156 210/317/1157 199/319/1158
f 199/320/1159 210/321/1160 201/322/1161
f 201/322/1162 210/321/1163 208/323/1164
f 209/324/1165 200/325/1166 207/326/1167
f 207/326/1168 200/325/1169 202/327/1170
f 207/328/1171 208/329/1172 211/330/1173
f 211/330/1174 208/329/1175 212/331/1176
f 213/332/1177 214/333/1178 209/334/1179
f 209/334/1180 214/333/1181 210/335/1182
f 210/336/1183 214/337/1184 208/338/1185
f 208/338/1186 214/337/1187 212/339/1188
f 213/340/1189 209/341/1190 211/342/1191
f 211/342/1192 209/341/1193 207/343/1194
f 203/344/1195 204/345/1196 212/346/1197
f 212/346/1198 204/345/1199 211/347/1200
f 214/348/1201 213/349/1202 205/350/1203
f 205/350/1204 213/349/1205 206/351/1206
f 206/352/1207 213/353/1208 204/354/1209
f 204/354/1210 213/353/1211 211/355/1212
f 214/356/1213 205/357/1214 212/358/1215
f 212/358/1216 205/357/1217 203/359/1218
f 217/360/1219 218/361/1220 219/362/1221
f 219/362/1222 218/361/1223 220/363/1224
f 221/364/1225 222/365/1226 215/366/1227
f 215/366/1228 222/365/1229 216/367/1230
f 216/368/1231 222/369/1232 218/370/1233
f 218/370/1234 222/369/1235 220/371/1236
f 221/372/1237 215/373/1238 219/374/1239
f 219/374/1240 215/373/1241 217/375/1242
f 225/376/1243 226/377/1244 227/378/1245
f 227/378/1246 226/377/1247 228/379/1248
f 229/380/1249 230/381/1250 223/382/1251
f 223/382/1252 230/381/1253 224/383/1254
f 224/384/1255 230/385/1256 226/386/1257
f 226/386/1258 230/385/1259 228/387/1260
f 229/388/1261 223/389/1262 227/390/1263
f 227/390/1264 223/389/1265 225/391/1266
f 233/392/1267 234/393/1268 235/394/1269
f 235/394/1270 234/393/1271 236/395/1272
f 237/396/1273 238/397/1274 231/398/1275
f 231/398/1276 238/397/1277 232/399/1278
f 232/400/1279 238/401/1280 234/402/1281
f 234/402/1282 238/401/1283 236/403/1284
f 237/404/1285 231/405/1286 235/406/1287
f 235/406/1288 231/405/1289 233/407/1290
f 241/408/1291 242/409/1292 243/410/1293
f 243/410/1294 242/409/1295 244/411/1296
f 245/412/1297 246/413/1298 239/414/1299
f 239/414/1300 246/413/1301 240/415/1302
f 240/416/1303 246/417/1304 242/418/1305
f 242/418/1306 246/417/1307 244/419/1308
f 245/420/1309 239/421/1310 243/422/1311
f 243/422/1312 239/421/1313 241/423/1314
f 249/424/1315 250/425/1316 251/426/1317
f 251/426/1318 250/425/1319 252/427/1320
f 253/428/1321 254/429/1322 247/430/1323
f 247/430/1324 254/429/1325 248/431/1326
f 248/432/1327 254/433/1328 250/434/1329
f 250/434/1330 254/433/1331 252/435/1332
f 253/436/1333 247/437/1334 251/438/1335
f 251/438/1336 247/437/1337 249/439/1338
f 247/440/1339 248/441/1340 255/442/1341
f 255/442/1342 248/441/1343 256/443/1344
f 248/441/1345 250/444/1346 256/443/1347
f 256/443/1348 250/444/1349 257/445/1350
f 250/444/1351 249/446/1352 257/445/1353
f 257/445/1354 249/446/1355 258/447/1356
f 249/446/1357 247/440/1358 258/447/1359
f 258/447/1360 247/440/1361 255/442/1362
f 251/448/1363 252/449/1364 259/450/1365
f 259/450/1366 252/449/1367 260/451/1368
f 252/449/1369 254/452/1370 260/451/1371
f 260/451/1372 254/452/1373 261/453/1374
f 254/452/1375 253/454/1376 261/453/1377
f 261/453/1378 253/454/1379 262/455/1380
f 253/454/1381 251/448/1382 262/455/1383
f 262/455/1384 251/448/1385 259/450/1386
f 256/456/1387 257/457/1388 261/458/1389
f 261/458/1390 257/457/1391 260/459/1392
f 257/460/1393 258/461/1394 260/462/1395
f 260/462/1396 258/461/1397 259/463/1398
f 258/464/1399 255/465/1400 259/466/1401
f 259/466/1402 255/465/1403 262/467/1404
f 255/468/1405 256/469/1406 262/470/1407
f 262/470/1408 256/469/1409 261/471/1410
f 265/472/1411 266/473/1412 267/474/1413
f 267/474/1414 266/473/1415 268/475/1416
f 269/476/1417 270/477/1418 263/478/1419
f 263/478/1420 270/477/1421 264/479/1422
f 264/480/1423 270/481/1424 266/482/1425
f 266/482/1426 270/481/1427 268/483/1428
f 269/484/1429 263/485/1430 267/486/1431
f 267/486/1432 263/485/1433 265/487/1434
f 263/488/1435 264/489/1436 271/490/1437
f 271/490/1438 264/489/1439 272/491/1440
f 264/489/1441 266/492/1442 272/491/1443
f 272/491/1444 266/492/1445 273/493/1446
f 266/492/1447 265/494/1448 273/493/1449
f 273/493/1450 265/494/1451 274/495/1452
f 265/494/1453 263/488/1454 274/495/1455
f 274/495/1456 263/488/1457 271/490/1458
f 267/496/1459 268/497/1460 275/498/1461
f 275/498/1462 268/497/1463 276/499/1464
f 268/497/1465 270/500/1466 276/499/1467
f 276/499/1468 270/500/1469 277/501/1470
f 270/500/1471 269/502/1472 277/501/1473
f 277/501/1474 269/502/1475 278/503/1476
f 269/502/1477 267/496/1478 278/503/1479
f 278/503/1480 267/496/1481 275/498/1482
f 272/504/1483 273/505/1484 277/506/1485
f 277/506/1486 273/505/1487 276/507/1488
f 273/508/1489 274/509/1490 276/510/1491
f 276/510/1492 274/509/1493 275/511/1494
f 274/512/1495 271/513/1496 275/514/1497
f 275/514/1498 271/513/1499 278/515/1500
f 271/516/1501 272/517/1502 278/518/1503
f 278/518/1504 272/517/1505 277/519/1506
f 285/520/1507 286/521/1508 279/522/1509
f 279/522/1510 286/521/1511 280/523/1512
f 280/524/1513 286/525/1514 282/526/1515
f 282/526/1516 286/525/1517 284/527/1518
f 285/528/1519 279/529/1520 283/530/1521
f 283/530/1522 279/529/1523 281/531/1524
f 279/532/1525 280/533/1526 287/534/1527
f 287/534/1528 280/533/1529 288/535/1530
f 280/533/1531 282/536/1532 288/535/1533
f 288/535/1534 282/536/1535 289/537/1536
f 279/532/1537 287/534/1538 281/538/1539
f 281/538/1540 287/534/1541 290/539/1542
f 286/540/1543 293/541/1544 284/542/1545
f 284/542/1546 293/541/1547 291/543/1548
f 286/540/1549 285/544/1550 293/541/1551
f 293/541/1552 285/544/1553 294/545/1554
f 285/544/1555 283/546/1556 294/545/1557
f 294/545/1558 283/546/1559 292/547/1560
f 290/548/1561 287/549/1562 292/550/1563
f 292/550/1564 287/549/1565 294/551/1566
f 287/552/1567 288/553/1568 294/554/1569
f 294/554/1570 288/553/1571 293/555/1572
f 288/556/1573 289/557/1574 293/558/1575
f 293/558/1576 289/557/1577 291/559/1578
f 301/560/1579 302/561/1580 295/562/1581
f 295/562/1582 302/561/1583 296/563/1584
f 296/564/1585 302/565/1586 298/566/1587
f 298/566/1588 302/565/1589 300/567/1590
f 301/568/1591 295/569/1592 299/570/1593
f 299/570/1594 295/569/1595 297/571/1596
f 295/572/1597 296/573/1598 303/574/1599
f 303/574/1600 296/573/1601 304/575/1602
f 296/573/1603 298/576/1604 304/575/1605
f 304/575/1606 298/576/1607 305/577/1608
f 295/572/1609 303/574/1610 297/578/1611
f 297/578/1612 303/574/1613 306/579/1614
f 302/580/1615 309/581/1616 300/582/1617
f 300/582/1618 309/581/1619 307/583/1620
f 302/580/1621 301/584/1622 309/581/1623
f 309/581/1624 301/584/1625 310/585/1626
f 301/584/1627 299/586/1628 310/585/1629
f 310/585/1630 299/586/1631 308/587/1632
f 306/588/1633 303/589/1634 308/590/1635
f 308/590/1636 303/589/1637 310/591/1638
f 303/592/1639 304/593/1640 310/594/1641
f 310/594/1642 304/593/1643 309/595/1644
f 304/596/1645 305/597/1646 309/598/1647
f 309/598/1648 305/597/1649 307/599/1650
f 311/600/1651 312/601/1652 313/602/1653
f 313/602/1654 312/601/1655 314/603/1656
f 315/604/1657 317/605/1658 316/606/1659
f 317/605/1660 318/607/1661 316/606/1662
f 320/608/1663 321/609/1664 319/610/1665
f 319/610/1666 321/609/1667 322/611/1668
