# This file uses feet as units for non-parametric coordinates.

g default
v -18.190111 81.989311 20.792814
v 18.930561 81.989304 20.718403
v -22.412392 81.989304 -16.197935
v 23.200869 81.989311 -16.202293
v -18.174042 88.834099 20.615398
v 22.903595 88.834106 16.595106
v -22.157990 88.834106 -16.171453
v 18.919287 88.834106 -20.178619
v -22.417130 81.989304 16.621555
v 23.158030 81.989311 16.620697
v -18.189690 81.989304 -20.365957
v 18.932507 81.989304 -20.313322
v -22.143536 88.834099 16.593632
v 18.921560 88.834106 20.608446
v -18.171774 88.834099 -20.192745
v 22.890995 88.834106 -16.171423
v -20.683357 81.989311 20.602638
v -21.945021 81.989304 18.979076
v 22.653898 81.989311 18.956907
v 21.333796 81.989311 20.430067
v -21.955488 81.989311 -18.561642
v -20.648609 81.989304 -20.118326
v 21.363192 81.989304 -20.060114
v 22.743938 81.989311 -18.583252
v -21.681993 88.834106 18.837885
v -20.563223 88.834099 20.387760
v 21.268446 88.834106 20.307760
v 22.465496 88.834106 18.857050
v -20.522318 88.834106 -19.888618
v -21.714186 88.834106 -18.430059
v 22.453674 88.834106 -18.428720
v 21.257605 88.834106 -19.866289
v -22.018877 81.323013 16.978493
v -22.015570 81.323006 -16.554958
v -21.611917 81.323013 -18.490587
v -20.745283 81.323013 -19.442953
v -18.780622 81.323006 -19.834660
v 19.203053 81.323006 -19.808292
v 21.174810 81.323013 -19.456095
v 22.100145 81.323006 -18.525864
v 22.488758 81.323006 -16.559628
v 22.477884 81.323006 16.981190
v 22.080151 81.323006 18.937191
v 21.158340 81.323013 19.850395
v 19.201914 81.323013 20.222557
v -18.777357 81.323013 20.235825
v -20.733864 81.323006 19.848164
v -21.609869 81.323013 18.912552
v -19.803675 81.066048 -17.603077
v 20.226263 81.120369 -17.600292
v 20.227932 81.067917 18.024805
v -19.804007 81.064270 18.026199
v 22.544230 89.955765 16.605494
v 22.531521 89.955765 -16.142889
v 22.234951 89.955772 -18.176653
v 21.001436 89.955772 -19.442360
v 18.946394 89.955772 -19.714981
v -17.976036 89.955765 -19.752514
v -20.064543 89.955772 -19.385561
v -21.430983 89.955765 -18.166082
v -21.783520 89.955772 -16.224792
v -21.791500 89.955772 16.577606
v -21.416121 89.955765 18.615765
v -20.171387 89.955765 20.007114
v -17.972801 89.955772 20.139784
v 18.406139 89.955772 20.146536
v 20.915985 89.955772 19.876036
v 22.197214 89.955772 18.597296
v 18.185602 90.832527 -15.628843
v -17.435631 90.816147 -15.627638
v -17.444466 90.912315 16.058575
v 18.184788 90.823334 16.050077
v 0.374021 91.704575 0.319501
v -15.397852 104.369682 -23.822039
v -15.398817 104.377762 -19.616571
v -15.390997 99.505371 -19.117962
v -15.396024 99.498581 -24.364162
v 16.127905 98.994553 -19.626928
v 16.127987 103.803253 -19.115673
v 16.130632 104.336639 -23.816692
v 16.136108 99.494011 -24.392441
v -15.748554 104.255981 -23.714746
v -15.754375 103.705917 -19.167805
v -15.743477 99.057793 -19.726063
v -15.746464 99.603752 -24.263569
v 16.491749 99.602219 -19.167099
v 16.499722 104.271591 -19.722643
v 16.471004 103.702423 -24.250427
v 16.425591 99.116791 -23.704311
v -15.997749 103.544952 -23.558666
v -15.997711 103.544716 -19.881163
v -15.997681 99.764030 -19.881329
v -15.902802 99.773972 -23.548365
v 16.694042 99.767052 -19.884346
v 16.695065 103.544746 -19.881134
v 16.693924 103.541191 -23.554895
v 16.693287 99.769440 -23.552902
v -15.396739 103.810699 -24.370163
v -15.397082 103.811142 -19.066872
v -15.391573 98.991325 -19.626408
v -15.375070 99.129906 -23.791121
v 16.132521 99.498840 -19.077610
v 16.133434 104.360138 -19.619419
v 16.129246 103.804993 -24.334816
v 16.114548 99.106697 -23.794872
v -15.736259 103.702766 -24.252533
v -15.772297 104.281631 -19.721016
v -15.741062 99.604675 -19.182194
v -15.669823 99.137405 -23.700974
v 16.472485 99.066101 -19.727415
v 16.460457 103.700562 -19.200897
v 16.471569 104.241211 -23.712355
v 16.502197 99.600433 -24.284119
v -15.386642 104.185951 -24.195770
v -15.385862 104.182106 -19.247959
v -15.376155 99.173637 -19.295460
v -15.367854 99.214317 -24.103868
v 16.107632 99.199295 -19.321114
v 16.112906 104.134773 -19.295296
v 16.117426 104.156914 -24.166737
v 16.106422 99.205231 -24.112886
v -15.716900 104.105667 -24.115496
v -15.728291 104.113441 -19.316624
v -15.703537 99.211761 -19.333576
v -15.628220 99.263374 -24.054777
v 16.400703 99.238838 -19.360661
v 16.410515 104.076141 -19.353935
v 16.426285 104.086960 -24.096785
v 16.373423 99.257538 -24.060581
v -15.935234 103.160782 -20.264462
v 16.671951 103.160805 -23.175106
v 16.671951 100.150955 -20.264462
v -15.935234 100.150986 -23.175106
v 16.671951 103.160782 -20.264462
v -15.935234 103.160797 -23.175106
v -15.935234 100.150970 -20.264462
v 16.671951 100.150978 -23.175106
v -19.368626 103.160782 -20.264462
v 20.137852 103.160782 -20.264462
v 20.137852 103.160805 -23.175106
v -19.368626 103.160797 -23.175106
v 17.127415 100.150955 -20.264462
v -16.465595 100.150970 -20.264462
v -16.465595 100.150986 -23.175106
v 17.127415 100.150978 -23.175106
v -16.465595 78.334503 -23.175108
v -19.368626 81.186401 17.580858
v 20.137852 81.186401 17.580858
v 20.137852 78.334488 17.580854
v -19.368626 78.334488 17.580854
v -16.465595 81.186401 17.580858
v 17.127407 81.186401 17.580856
v -19.368626 81.186401 -20.264456
v -16.465595 81.186409 -20.264463
v 17.127407 78.334488 17.580854
v -16.465595 78.334496 17.580856
v 20.137852 78.334496 -23.175116
v 17.127415 78.334496 -23.175116
v 20.137852 81.186401 -20.264469
v -19.368626 78.334496 -23.175100
v 17.127415 81.186401 -20.264471
v -19.384357 -0.056999 1.580597
v -16.384357 -0.056999 1.580597
v -19.384357 78.334496 1.580613
v -16.384357 78.334496 1.580613
v -19.384357 -0.056999 4.580597
v -16.384357 -0.056999 4.580597
v -19.384357 78.334496 4.580613
v -16.384357 78.334496 4.580612
v 17.132404 -0.056999 1.580597
v 17.132404 78.334496 1.580613
v 20.132404 78.334496 1.580613
v 20.132404 -0.056999 1.580597
v 17.132404 -0.056999 4.580597
v 20.132404 -0.056999 4.580597
v 20.132404 78.334496 4.580613
v 17.132404 78.334496 4.580612
v -19.384357 -0.056999 -4.441277
v -19.384357 78.334488 -4.441258
v -16.384357 78.334488 -4.441258
v -16.384357 -0.056999 -4.441277
v -19.384357 -0.056999 -1.441269
v -16.384357 -0.056999 -1.441269
v -16.384357 78.334488 -1.441258
v -19.384357 78.334488 -1.441258
v 17.132404 -0.056999 -4.441277
v 17.132404 78.334488 -4.441258
v 20.132404 78.334488 -4.441258
v 20.132404 -0.056999 -4.441277
v 17.132404 -0.056999 -1.441269
v 20.132404 -0.056999 -1.441269
v 20.132404 78.334488 -1.441258
v 17.132404 78.334488 -1.441258
v -22.385908 26.206890 -1.420982
v -22.385908 29.117535 -1.420967
v 23.145794 29.117542 -1.420963
v 23.145794 26.206898 -1.420982
v -22.385908 26.206890 20.411411
v 23.145794 26.206890 20.411411
v 23.145794 29.117535 20.411427
v -22.385908 29.117535 20.411427
v -19.375467 26.206898 1.588840
v 20.135353 26.206905 1.588840
v 20.135353 26.206888 17.401585
v -19.375469 26.206890 17.401592
v 20.135353 29.117550 1.588856
v -19.375467 29.117542 1.588856
v -19.375469 29.117533 17.401600
v 20.135353 29.117533 17.401600
v -22.411821 -0.056992 -17.674248
v -22.411821 -0.057007 23.564041
v 23.132721 -0.057007 23.564041
v 23.132721 2.844231 23.564064
v -19.401381 -0.056992 -14.664429
v -19.401382 -0.057007 20.554222
v 20.122276 2.844254 -14.664406
v 20.122276 2.844231 20.554245
v 23.132721 -0.056999 -1.442131
v -22.411821 -0.056999 -1.442131
v 23.132721 2.844238 -1.442116
v -22.411821 2.844231 -1.442116
v 20.122276 -0.056999 -1.442131
v -19.401381 -0.056999 -1.442131
v -19.401381 2.844238 -1.442116
v 20.122276 2.844238 -1.442116
v 23.132721 -0.056999 1.580589
v -22.411821 -0.056999 1.580589
v 23.132721 2.844238 1.580605
v -22.411821 2.844230 1.580605
v 20.122276 -0.056999 1.580589
v -19.401381 -0.056999 1.580589
v -19.401381 2.844238 1.580605
v 20.122276 2.844238 1.580605
v -22.411821 2.844231 -17.674225
v 23.132721 2.844238 -17.674225
v 23.132721 -0.056992 -17.674248
v -22.411821 2.844231 23.564064
v 20.122276 -0.056992 -14.664429
v 20.122276 -0.057007 20.554222
v -19.401381 2.844238 -14.664406
v -19.401382 2.844231 20.554245
v -18.983107 78.382454 4.521876
v -16.785608 78.382454 4.521876
v -18.844799 77.991867 8.849876
v -16.923916 77.991867 8.849878
v -18.983107 78.382462 9.175867
v -16.923916 78.382454 9.314175
v -16.785608 77.991867 4.996726
v -18.983107 77.991867 4.996726
v -18.844799 73.518814 4.521866
v -16.785608 73.657120 4.521866
v -16.785608 74.115494 4.996725
v -18.983107 74.115494 4.996725
v -18.983107 77.991867 8.711569
v -16.785608 77.991867 8.711571
v -18.844799 78.382454 9.314175
v -16.785608 78.382454 9.175867
v -18.983107 73.657120 4.521866
v -16.923916 73.518814 4.521866
v -16.923916 73.977188 4.996725
v -18.844799 73.977188 4.996725
v 17.658772 77.991867 8.849876
v 19.579655 77.991867 8.849878
v 19.579655 78.382454 9.314175
v 17.658772 78.382454 9.314175
v 17.658772 73.518814 4.521866
v 19.579655 73.518814 4.521866
v 19.579655 73.977188 4.996725
v 17.658772 73.977188 4.996725
v 19.717960 77.991867 4.996726
v 19.717960 77.991867 8.711571
v 17.520466 77.991867 8.711569
v 17.520462 77.991867 4.996726
v 19.717960 78.382454 4.521876
v 19.717960 78.382462 9.175867
v 17.520466 78.382462 9.175867
v 17.520466 78.382454 4.521876
v 19.717960 74.115494 4.996725
v 19.717960 73.657120 4.521866
v 17.520462 74.115494 4.996725
v 17.520466 73.657120 4.521866
v -19.118954 78.576218 -14.714294
v 19.839848 78.576210 -14.714298
v 19.839849 81.477448 -14.714272
v -19.118952 81.477448 -14.714272
v -19.118952 81.477425 -1.583217
v 19.839849 81.477425 -1.583215
v 19.839851 78.576187 -1.583240
v -19.118950 78.576187 -1.583240
v -16.543821 78.576210 -17.724113
v 17.264717 78.576202 -17.724113
v 17.264715 78.576195 1.426583
v -16.543823 78.576195 1.426583
v -16.543821 81.477440 -17.724094
v 17.264717 81.477440 -17.724094
v 17.264715 81.477425 1.426604
v -16.543823 81.477425 1.426602
v 19.717958 78.382454 -4.160411
v 17.520460 78.382454 -4.160411
v 19.579651 77.991867 -8.488412
v 17.658768 77.991867 -8.488413
v 19.717958 78.382454 -8.814402
v 17.658768 78.382454 -8.952710
v 17.520460 77.991867 -4.635261
v 19.717958 77.991867 -4.635261
v 19.579651 73.518814 -4.160401
v 17.520460 73.657120 -4.160401
v 17.520460 74.115494 -4.635261
v 19.717958 74.115494 -4.635260
v 19.717958 77.991867 -8.350104
v 17.520460 77.991867 -8.350105
v 19.579651 78.382454 -8.952709
v 17.520460 78.382454 -8.814403
v 19.717958 73.657120 -4.160401
v 17.658768 73.518814 -4.160400
v 17.658768 73.977188 -4.635261
v 19.579651 73.977188 -4.635260
v -16.923920 77.991867 -8.488418
v -18.844803 77.991867 -8.488419
v -18.844803 78.382454 -8.952716
v -16.923920 78.382454 -8.952715
v -16.923920 73.518814 -4.160406
v -18.844803 73.518814 -4.160406
v -18.844803 73.977180 -4.635266
v -16.923920 73.977180 -4.635265
v -18.983109 77.991867 -4.635266
v -18.983109 77.991867 -8.350110
v -16.785614 77.991867 -8.350110
v -16.785610 77.991867 -4.635266
v -18.983109 78.382454 -4.160417
v -18.983109 78.382454 -8.814407
v -16.785614 78.382454 -8.814407
v -16.785614 78.382454 -4.160416
v -18.983109 74.115494 -4.635266
v -18.983109 73.657120 -4.160407
v -16.785610 74.115494 -4.635265
v -16.785614 73.657120 -4.160406
v 18.091448 27.126259 4.893112
v 19.239500 27.126259 4.893112
v 18.091448 28.274311 4.893108
v 19.239500 28.274311 4.893108
v 18.665474 27.700289 5.162666
v 18.665474 26.706043 4.524891
v 19.659716 27.700287 4.524891
v 18.665474 28.694530 4.524891
v 17.671232 27.700287 4.524891
v 18.665474 26.997250 4.975864
v 19.368509 27.700289 4.975864
v 18.665474 28.403322 4.975864
v 17.962439 27.700289 4.975864
v 19.368509 26.997250 4.524891
v 17.962439 26.997250 4.524891
v 19.368509 28.403320 4.524891
v 17.962439 28.403320 4.524891
v -18.448135 27.126259 4.893112
v -17.300083 27.126259 4.893112
v -18.448135 28.274311 4.893108
v -17.300083 28.274311 4.893108
v -17.874107 27.700289 5.162666
v -17.874107 26.706043 4.524891
v -16.879868 27.700287 4.524891
v -17.874107 28.694530 4.524891
v -18.868351 27.700287 4.524891
v -17.874107 26.997250 4.975864
v -17.171070 27.700289 4.975864
v -17.874107 28.403322 4.975864
v -18.577145 27.700289 4.975864
v -17.171070 26.997250 4.524891
v -18.577145 26.997250 4.524891
v -17.171070 28.403320 4.524891
v -18.577145 28.403320 4.524891
v 18.091448 28.274300 -4.763733
v 18.665474 28.403309 -4.846485
v 18.665474 27.700272 -5.033287
v 17.962439 27.700272 -4.846489
v 19.239500 28.274300 -4.763733
v 19.368509 27.700272 -4.846489
v 19.239500 27.126247 -4.763733
v 18.665474 26.997238 -4.846485
v 18.091448 27.126247 -4.763733
v 18.665474 28.694515 -4.395515
v 19.368509 28.403309 -4.395515
v 17.962439 28.403309 -4.395515
v 19.659716 27.700272 -4.395515
v 19.368509 26.997238 -4.395515
v 18.665474 26.706028 -4.395515
v 17.962439 26.997238 -4.395515
v 17.671232 27.700272 -4.395515
v -18.448135 28.274300 -4.763733
v -17.874107 28.403309 -4.846485
v -17.874107 27.700272 -5.033287
v -18.577145 27.700272 -4.846489
v -17.300083 28.274300 -4.763733
v -17.171070 27.700272 -4.846489
v -17.300083 27.126247 -4.763733
v -17.874107 26.997238 -4.846485
v -18.448135 27.126247 -4.763733
v -17.874107 28.694515 -4.395515
v -17.171070 28.403309 -4.395515
v -18.577145 28.403309 -4.395515
v -16.879868 27.700272 -4.395515
v -17.171070 26.997238 -4.395515
v -17.874107 26.706028 -4.395515
v -18.577145 26.997238 -4.395515
v -18.868351 27.700272 -4.395515
vt 0.307658 0.586103
vt 0.027779 0.586094
vt 0.307701 0.337010
vt 0.343737 0.297740
vt 0.392342 0.297724
vt 0.392431 0.557815
vt 0.343819 0.557825
vt 0.343782 0.020021
vt 0.392328 0.020020
vt 0.392328 0.249850
vt 0.343782 0.249850
vt 0.404819 0.301363
vt 0.453429 0.301364
vt 0.453408 0.561453
vt 0.404804 0.561447
vt 0.404813 0.023650
vt 0.453419 0.023650
vt 0.453419 0.253477
vt 0.404813 0.253476
vt 0.343795 0.280752
vt 0.392309 0.280744
vt 0.343845 0.003076
vt 0.392299 0.003073
vt 0.404847 0.284381
vt 0.453402 0.284377
vt 0.392406 0.574803
vt 0.343850 0.574803
vt 0.343845 0.266791
vt 0.392299 0.266794
vt 0.404865 0.578435
vt 0.453378 0.578439
vt 0.404851 0.270422
vt 0.453390 0.270422
vt 0.392395 0.588759
vt 0.343855 0.588759
vt 0.012362 0.344217
vt 0.012331 0.578881
vt 0.015380 0.330808
vt 0.021491 0.324626
vt 0.034862 0.321526
vt 0.300644 0.321470
vt 0.314167 0.324455
vt 0.320425 0.330724
vt 0.323446 0.344212
vt 0.323407 0.578909
vt 0.320387 0.592418
vt 0.314098 0.598653
vt 0.300613 0.601638
vt 0.034859 0.601563
vt 0.021447 0.598498
vt 0.015342 0.592266
vt 0.027812 0.337002
vt 0.328316 0.270891
vt 0.327992 0.040497
vt 0.325898 0.285142
vt 0.317143 0.293698
vt 0.302957 0.296581
vt 0.043174 0.296892
vt 0.028717 0.293653
vt 0.019003 0.285454
vt 0.016092 0.271911
vt 0.015736 0.041145
vt 0.018547 0.026804
vt 0.027775 0.017972
vt 0.042712 0.015580
vt 0.298730 0.015167
vt 0.316154 0.017942
vt 0.325310 0.026519
vt 0.297211 0.267053
vt 0.296904 0.044723
vt 0.047162 0.267415
vt 0.046842 0.045083
vt 0.172027 0.155305
vt 0.299109 0.608237
vt 0.303069 0.006196
vt 0.040524 0.006506
vt 0.038597 0.608193
vt 0.330593 0.346417
vt 0.337113 0.271893
vt 0.336797 0.039698
vt 0.330529 0.576718
vt 0.038660 0.314891
vt 0.040981 0.305924
vt 0.303653 0.305777
vt 0.299141 0.314891
vt 0.006942 0.576704
vt 0.006942 0.040184
vt 0.007280 0.272429
vt 0.006997 0.346382
vt 0.316328 0.604301
vt 0.320955 0.010814
vt 0.404916 0.592396
vt 0.326685 0.329255
vt 0.453369 0.592394
vt 0.332518 0.289767
vt 0.021442 0.318712
vt 0.023217 0.301114
vt 0.022662 0.011208
vt 0.021436 0.604359
vt 0.326645 0.593833
vt 0.332039 0.021844
vt 0.316321 0.318786
vt 0.321538 0.300884
vt 0.010942 0.329169
vt 0.012170 0.290237
vt 0.011643 0.022306
vt 0.010944 0.593965
vt 0.343817 0.605704
vt 0.392424 0.605704
vt 0.508585 0.456072
vt 0.810439 0.456018
vt 0.810463 0.491705
vt 0.508560 0.491747
vt 0.810462 0.449365
vt 0.508596 0.449068
vt 0.508656 0.412514
vt 0.810461 0.412772
vt 0.508572 0.498704
vt 0.810442 0.498450
vt 0.810407 0.535074
vt 0.508629 0.535272
vt 0.810450 0.406295
vt 0.508713 0.406120
vt 0.508723 0.370716
vt 0.810391 0.370836
vt 0.505236 0.490790
vt 0.505167 0.457051
vt 0.505280 0.448094
vt 0.505434 0.413446
vt 0.505601 0.405167
vt 0.505973 0.371609
vt 0.505511 0.534271
vt 0.505365 0.499684
vt 0.813642 0.413777
vt 0.813543 0.448379
vt 0.813689 0.457047
vt 0.813633 0.490722
vt 0.813600 0.499461
vt 0.813629 0.534059
vt 0.813229 0.371757
vt 0.813498 0.405310
vt 0.810656 0.452613
vt 0.508407 0.452546
vt 0.508381 0.495237
vt 0.810648 0.495090
vt 0.508569 0.409329
vt 0.810644 0.409469
vt 0.821440 0.531266
vt 0.818591 0.534260
vt 0.810654 0.538480
vt 0.508392 0.538480
vt 0.497701 0.531593
vt 0.500788 0.534523
vt 0.821047 0.374510
vt 0.817990 0.371573
vt 0.813891 0.537541
vt 0.505226 0.537627
vt 0.498206 0.374259
vt 0.501516 0.371393
vt 0.508634 0.367968
vt 0.810484 0.367968
vt 0.813411 0.368584
vt 0.505779 0.368510
vt 0.497433 0.416287
vt 0.498206 0.402143
vt 0.500735 0.405192
vt 0.500456 0.413294
vt 0.505131 0.408617
vt 0.505050 0.409979
vt 0.821390 0.416641
vt 0.821047 0.402397
vt 0.818561 0.413635
vt 0.818318 0.405401
vt 0.813971 0.410347
vt 0.813848 0.408664
vt 0.821508 0.459923
vt 0.821390 0.445480
vt 0.818638 0.456886
vt 0.818385 0.448496
vt 0.814061 0.453576
vt 0.813921 0.451738
vt 0.821440 0.502428
vt 0.821508 0.487810
vt 0.818511 0.499420
vt 0.818552 0.490799
vt 0.814042 0.496040
vt 0.814057 0.494152
vt 0.497223 0.487886
vt 0.497701 0.502758
vt 0.500216 0.490893
vt 0.500456 0.499704
vt 0.504833 0.496174
vt 0.504770 0.494322
vt 0.497433 0.445126
vt 0.497223 0.459999
vt 0.500273 0.448139
vt 0.500086 0.456977
vt 0.504752 0.451659
vt 0.504668 0.453459
vt 0.563916 0.252638
vt 0.628801 0.252638
vt 0.628801 0.273026
vt 0.563915 0.272998
vt 0.584223 0.231584
vt 0.607714 0.231555
vt 0.563916 0.098926
vt 0.584222 0.098926
vt 0.607722 0.211173
vt 0.584222 0.211224
vt 0.649189 0.078738
vt 0.955688 0.180892
vt 0.903818 0.181104
vt 0.628801 0.098714
vt 0.543556 0.078977
vt 0.607714 0.098714
vt 0.976650 0.466179
vt 0.955688 0.466179
vt 0.923818 0.466390
vt 0.903818 0.466390
vt 0.996761 0.466179
vt 0.883387 0.466390
vt 0.863572 0.466390
vt 0.935762 0.466179
vt 0.863572 0.201504
vt 0.923818 0.201452
vt 0.996761 0.201241
vt 0.935762 0.201292
vt 0.903818 0.486352
vt 0.976650 0.486142
vt 0.883387 0.486352
vt 0.955688 0.486142
vt 0.976650 0.180892
vt 0.883387 0.181104
vt 0.955688 0.028286
vt 0.903818 0.028286
vt 0.924024 0.028366
vt 0.935147 0.028205
vt 0.649189 0.252638
vt 0.543556 0.252638
vt 0.924024 0.161116
vt 0.935147 0.160954
vt 0.976650 0.007217
vt 0.883387 0.007217
vt 0.587932 0.252638
vt 0.604524 0.273025
vt 0.953598 0.007217
vt 0.604524 0.231554
vt 0.906174 0.028286
vt 0.587932 0.211224
vt 0.604524 0.252637
vt 0.587932 0.272998
vt 0.906439 0.007217
vt 0.587933 0.231584
vt 0.953333 0.028286
vt 0.604533 0.211172
vt 0.552782 0.745318
vt 0.004052 0.745318
vt 0.004052 0.724319
vt 0.552782 0.724319
vt 0.552782 0.766318
vt 0.552782 0.787317
vt 0.004052 0.787318
vt 0.004052 0.766318
vt 0.552782 0.705305
vt 0.004052 0.705304
vt 0.004051 0.684305
vt 0.552782 0.684305
vt 0.552782 0.642306
vt 0.552782 0.663306
vt 0.004051 0.663305
vt 0.004052 0.642306
vt 0.552459 0.859723
vt 0.003729 0.859723
vt 0.003729 0.838724
vt 0.552459 0.838724
vt 0.552459 0.880722
vt 0.552459 0.901722
vt 0.003729 0.901722
vt 0.003729 0.880723
vt 0.552459 0.974019
vt 0.003729 0.974019
vt 0.003729 0.953020
vt 0.552459 0.953020
vt 0.552459 0.911020
vt 0.552459 0.932020
vt 0.003729 0.932020
vt 0.003729 0.911020
vt 0.004052 0.808317
vt 0.552782 0.808317
vt 0.552782 0.621306
vt 0.004052 0.621306
vt 0.552459 0.817724
vt 0.003729 0.817724
vt 0.552459 0.995019
vt 0.003729 0.995019
vt 0.675209 0.036844
vt 0.693829 0.036847
vt 0.693778 0.328116
vt 0.675159 0.328112
vt 0.852112 0.036872
vt 0.852059 0.328141
vt 0.833439 0.328137
vt 0.833492 0.036868
vt 0.937179 0.808946
vt 0.618465 0.808949
vt 0.639537 0.787880
vt 0.916106 0.787878
vt 0.731699 0.056111
vt 0.731655 0.308864
vt 0.713035 0.308861
vt 0.713079 0.056108
vt 0.693775 0.346735
vt 0.618464 0.656125
vt 0.639537 0.677193
vt 0.659912 0.677193
vt 0.795615 0.056119
vt 0.814235 0.056123
vt 0.659912 0.787880
vt 0.814189 0.308876
vt 0.937180 0.656122
vt 0.916107 0.677190
vt 0.693831 0.018227
vt 0.833495 0.018249
vt 0.833436 0.346756
vt 0.895732 0.787878
vt 0.795569 0.308872
vt 0.895733 0.677190
vt 0.619592 0.986259
vt 0.619592 0.965950
vt 0.938398 0.965950
vt 0.938398 0.986258
vt 0.467329 0.328793
vt 0.467304 0.028627
vt 0.486425 0.028625
vt 0.486450 0.328792
vt 0.640664 0.944882
vt 0.917325 0.944882
vt 0.619592 0.852328
vt 0.640664 0.852328
vt 0.506265 0.048465
vt 0.506284 0.308949
vt 0.631323 0.028610
vt 0.631325 0.048453
vt 0.640664 0.924574
vt 0.917325 0.924573
vt 0.943476 0.621556
vt 0.923167 0.621557
vt 0.525386 0.048463
vt 0.525405 0.308948
vt 0.964759 0.664173
vt 0.985068 0.664173
vt 0.631321 0.009487
vt 0.631333 0.347895
vt 0.631330 0.328775
vt 0.938397 0.852328
vt 0.984450 0.517534
vt 0.847770 0.578029
vt 0.938397 0.832020
vt 0.619592 0.832020
vt 0.599283 0.965950
vt 0.958706 0.965950
vt 0.486452 0.347912
vt 0.486424 0.009503
vt 0.847770 0.485475
vt 0.943476 0.529002
vt 0.917324 0.832020
vt 0.984450 0.650347
vt 0.964759 0.796986
vt 0.650448 0.308933
vt 0.650446 0.028608
vt 0.650451 0.328773
vt 0.650448 0.048450
vt 0.640664 0.832020
vt 0.958705 0.852328
vt 0.599283 0.852328
vt 0.964142 0.650347
vt 0.985068 0.796986
vt 0.964142 0.517534
vt 0.631328 0.308935
vt 0.868078 0.485475
vt 0.923167 0.529002
vt 0.868078 0.578029
vt 0.917325 0.852328
vt 0.689707 0.755444
vt 0.716225 0.755444
vt 0.716225 0.763814
vt 0.689707 0.763814
vt 0.750705 0.692613
vt 0.777171 0.692613
vt 0.777171 0.701698
vt 0.750705 0.701698
vt 0.718695 0.702017
vt 0.718695 0.753712
vt 0.687967 0.753712
vt 0.687967 0.702017
vt 0.724180 0.695724
vt 0.724180 0.760493
vt 0.682733 0.759855
vt 0.682733 0.695091
vt 0.779829 0.703363
vt 0.786542 0.696515
vt 0.749055 0.703363
vt 0.742727 0.697444
vt 0.786542 0.762315
vt 0.742727 0.763236
vt 0.779829 0.757335
vt 0.749055 0.757335
vt 0.718646 0.762543
vt 0.687766 0.762012
vt 0.779720 0.693725
vt 0.748761 0.694325
vt 0.681617 0.892329
vt 0.708135 0.892329
vt 0.708135 0.900700
vt 0.681617 0.900700
vt 0.742614 0.829498
vt 0.769081 0.829498
vt 0.769081 0.838583
vt 0.742614 0.838583
vt 0.710604 0.838903
vt 0.710604 0.890598
vt 0.679876 0.890598
vt 0.679876 0.838903
vt 0.716090 0.832609
vt 0.716090 0.897378
vt 0.674643 0.896740
vt 0.674643 0.831977
vt 0.778451 0.899201
vt 0.771739 0.894221
vt 0.771739 0.840248
vt 0.778451 0.833400
vt 0.740964 0.894221
vt 0.740964 0.840248
vt 0.734636 0.900121
vt 0.734636 0.834330
vt 0.771629 0.830611
vt 0.740670 0.831211
vt 0.679676 0.898897
vt 0.710556 0.899428
vt 0.642641 0.965950
vt 0.915348 0.965950
vt 0.915348 0.986258
vt 0.642641 0.986259
vt 0.467283 0.307091
vt 0.467262 0.050329
vt 0.486383 0.050327
vt 0.486404 0.307090
vt 0.660667 0.944882
vt 0.897323 0.944882
vt 0.506222 0.067298
vt 0.506239 0.290116
vt 0.660667 0.924574
vt 0.897323 0.924573
vt 0.525343 0.067297
vt 0.525360 0.290115
vt 0.689707 0.755444
vt 0.716225 0.755444
vt 0.716225 0.763814
vt 0.689707 0.763814
vt 0.750705 0.692613
vt 0.777171 0.692613
vt 0.777171 0.701698
vt 0.750705 0.701698
vt 0.718695 0.702017
vt 0.718695 0.753712
vt 0.687967 0.753712
vt 0.687967 0.702017
vt 0.724180 0.695724
vt 0.724180 0.760493
vt 0.682733 0.759855
vt 0.682733 0.695091
vt 0.779829 0.703363
vt 0.786542 0.696515
vt 0.749055 0.703363
vt 0.742727 0.697444
vt 0.786542 0.762315
vt 0.742727 0.763236
vt 0.779829 0.757335
vt 0.749055 0.757335
vt 0.718646 0.762543
vt 0.687766 0.762012
vt 0.779720 0.693725
vt 0.748761 0.694325
vt 0.681617 0.892329
vt 0.708135 0.892329
vt 0.708135 0.900700
vt 0.681617 0.900700
vt 0.742614 0.829498
vt 0.769081 0.829498
vt 0.769081 0.838583
vt 0.742614 0.838583
vt 0.710604 0.838903
vt 0.710604 0.890598
vt 0.679876 0.890598
vt 0.679876 0.838903
vt 0.716090 0.832609
vt 0.716090 0.897378
vt 0.674643 0.896740
vt 0.674643 0.831977
vt 0.778451 0.899201
vt 0.771739 0.894221
vt 0.771739 0.840248
vt 0.778451 0.833400
vt 0.740964 0.894221
vt 0.740964 0.840248
vt 0.734636 0.900121
vt 0.734636 0.834330
vt 0.771629 0.830611
vt 0.740670 0.831211
vt 0.679676 0.898897
vt 0.710556 0.899428
vt 0.891977 0.504690
vt 0.898462 0.503953
vt 0.898417 0.511025
vt 0.891405 0.511121
vt 0.904981 0.504494
vt 0.905430 0.510930
vt 0.904858 0.517361
vt 0.898374 0.518098
vt 0.891855 0.517557
vt 0.898417 0.496357
vt 0.907321 0.498571
vt 0.889683 0.498600
vt 0.912603 0.511058
vt 0.910525 0.519573
vt 0.898417 0.525695
vt 0.889514 0.523480
vt 0.884232 0.510993
vt 0.890059 0.555973
vt 0.896543 0.555237
vt 0.896499 0.562309
vt 0.889486 0.562405
vt 0.903062 0.555777
vt 0.903512 0.562215
vt 0.902939 0.568645
vt 0.896455 0.569382
vt 0.889936 0.568841
vt 0.896499 0.547640
vt 0.905403 0.549854
vt 0.887764 0.549884
vt 0.910684 0.562342
vt 0.908606 0.570856
vt 0.896499 0.576978
vt 0.887596 0.574764
vt 0.882313 0.562277
vt 0.910848 0.502625
vt 0.886310 0.502479
vt 0.907152 0.523451
vt 0.885987 0.519426
vt 0.908929 0.553909
vt 0.884391 0.553763
vt 0.905234 0.574735
vt 0.884069 0.570710
vt 0.891977 0.504690
vt 0.898462 0.503953
vt 0.898417 0.511025
vt 0.891405 0.511121
vt 0.904981 0.504494
vt 0.905430 0.510930
vt 0.904858 0.517361
vt 0.898374 0.518098
vt 0.891855 0.517557
vt 0.898417 0.496357
vt 0.907321 0.498571
vt 0.889683 0.498600
vt 0.912603 0.511058
vt 0.910525 0.519573
vt 0.910848 0.502625
vt 0.898417 0.525695
vt 0.889514 0.523480
vt 0.907152 0.523451
vt 0.884232 0.510993
vt 0.886310 0.502479
vt 0.885987 0.519426
vt 0.890059 0.555973
vt 0.896543 0.555237
vt 0.896499 0.562309
vt 0.889486 0.562405
vt 0.903062 0.555777
vt 0.903512 0.562215
vt 0.902939 0.568645
vt 0.896455 0.569382
vt 0.889936 0.568841
vt 0.896499 0.547640
vt 0.905403 0.549854
vt 0.887764 0.549884
vt 0.910684 0.562342
vt 0.908606 0.570856
vt 0.908929 0.553909
vt 0.896499 0.576978
vt 0.887596 0.574764
vt 0.905234 0.574735
vt 0.882313 0.562277
vt 0.884391 0.553763
vt 0.884069 0.570710
vn 0.048765 -0.997471 0.051716
vn -0.052664 -0.997232 0.052493
vn 0.042455 -0.998154 -0.043435
vn 0.057582 -0.315745 0.947095
vn 0.065577 0.210647 0.975360
vn -0.037476 -0.324119 0.945274
vn -0.041604 0.204156 0.978054
vn 0.982293 0.164943 -0.088855
vn 0.981516 0.166738 0.093937
vn 0.930302 -0.358082 -0.079475
vn 0.931806 -0.352659 0.085841
vn -0.066348 0.214832 -0.974395
vn 0.060534 0.201348 -0.977647
vn -0.047224 -0.313097 -0.948546
vn 0.053797 -0.314965 -0.947578
vn -0.981127 0.167521 0.096580
vn -0.981172 0.170166 -0.091350
vn -0.969351 -0.230708 0.084452
vn -0.969167 -0.232499 -0.081608
vn 0.439033 -0.298453 0.847452
vn 0.463503 0.212739 0.860179
vn 0.057582 -0.315745 0.947095
vn 0.065577 0.210647 0.975360
vn 0.852711 -0.323283 -0.410332
vn 0.880678 0.177846 -0.439065
vn 0.930302 -0.358082 -0.079475
vn 0.982293 0.164943 -0.088855
vn -0.427147 -0.276727 -0.860795
vn -0.466711 0.234154 -0.852850
vn -0.047224 -0.313097 -0.948546
vn -0.066348 0.214832 -0.974395
vn -0.041604 0.204156 0.978054
vn -0.479707 0.211397 0.851583
vn -0.037476 -0.324119 0.945274
vn -0.432310 -0.296319 0.851648
vn 0.439033 -0.298453 0.847452
vn 0.856732 -0.310364 0.411927
vn 0.463503 0.212739 0.860179
vn 0.878365 0.186781 0.439986
vn 0.856732 -0.310364 0.411927
vn 0.931806 -0.352659 0.085841
vn 0.878365 0.186781 0.439986
vn 0.981516 0.166738 0.093937
vn 0.852711 -0.323283 -0.410332
vn 0.429247 -0.306877 -0.849455
vn 0.880678 0.177846 -0.439065
vn 0.458367 0.200517 -0.865848
vn 0.429247 -0.306877 -0.849455
vn 0.053797 -0.314965 -0.947578
vn 0.458367 0.200517 -0.865848
vn 0.060534 0.201348 -0.977647
vn -0.427147 -0.276727 -0.860795
vn -0.884604 -0.210906 -0.415925
vn -0.466711 0.234154 -0.852850
vn -0.875653 0.207006 -0.436325
vn -0.884604 -0.210906 -0.415925
vn -0.969167 -0.232499 -0.081608
vn -0.875653 0.207006 -0.436325
vn -0.981172 0.170166 -0.091350
vn -0.892121 0.186577 0.411472
vn -0.889232 -0.217572 0.402403
vn -0.479707 0.211397 0.851583
vn -0.432310 -0.296319 0.851648
vn -0.981127 0.167521 0.096580
vn -0.969351 -0.230708 0.084452
vn -0.892121 0.186577 0.411472
vn -0.889232 -0.217572 0.402403
vn -0.969351 -0.230708 0.084452
vn -0.969167 -0.232499 -0.081608
vn -0.580901 -0.810618 0.073848
vn -0.579167 -0.812038 -0.071834
vn -0.969167 -0.232499 -0.081608
vn -0.884604 -0.210906 -0.415925
vn -0.579167 -0.812038 -0.071834
vn -0.551439 -0.784832 -0.282762
vn -0.427147 -0.276727 -0.860795
vn -0.333726 -0.810278 -0.481744
vn -0.884604 -0.210906 -0.415925
vn -0.551439 -0.784832 -0.282762
vn -0.047224 -0.313097 -0.948546
vn -0.047885 -0.867643 -0.494877
vn -0.427147 -0.276727 -0.860795
vn -0.333726 -0.810278 -0.481744
vn 0.053797 -0.314965 -0.947578
vn 0.040046 -0.869465 -0.492369
vn -0.047224 -0.313097 -0.948546
vn -0.047885 -0.867643 -0.494877
vn 0.053797 -0.314965 -0.947578
vn 0.429247 -0.306877 -0.849455
vn 0.040046 -0.869465 -0.492369
vn 0.245569 -0.856469 -0.454045
vn 0.852711 -0.323283 -0.410332
vn 0.433783 -0.864488 -0.253957
vn 0.429247 -0.306877 -0.849455
vn 0.245569 -0.856469 -0.454045
vn 0.930302 -0.358082 -0.079475
vn 0.444127 -0.894463 -0.051845
vn 0.852711 -0.323283 -0.410332
vn 0.433783 -0.864488 -0.253957
vn 0.930302 -0.358082 -0.079475
vn 0.931806 -0.352659 0.085841
vn 0.444127 -0.894463 -0.051845
vn 0.461104 -0.885371 0.059166
vn 0.931806 -0.352659 0.085841
vn 0.856732 -0.310364 0.411927
vn 0.461104 -0.885371 0.059166
vn 0.462083 -0.844193 0.271693
vn 0.856732 -0.310364 0.411927
vn 0.439033 -0.298453 0.847452
vn 0.462083 -0.844193 0.271693
vn 0.263990 -0.841358 0.471621
vn 0.057582 -0.315745 0.947095
vn 0.045161 -0.862807 0.503513
vn 0.439033 -0.298453 0.847452
vn 0.263990 -0.841358 0.471621
vn 0.057582 -0.315745 0.947095
vn -0.037476 -0.324119 0.945274
vn 0.045161 -0.862807 0.503513
vn -0.041396 -0.875473 0.481491
vn -0.037476 -0.324119 0.945274
vn -0.432310 -0.296319 0.851648
vn -0.041396 -0.875473 0.481491
vn -0.321741 -0.826854 0.461297
vn -0.432310 -0.296319 0.851648
vn -0.889232 -0.217572 0.402403
vn -0.321741 -0.826854 0.461297
vn -0.547821 -0.789977 0.275372
vn -0.969351 -0.230708 0.084452
vn -0.580901 -0.810618 0.073848
vn -0.889232 -0.217572 0.402403
vn -0.547821 -0.789977 0.275372
vn -0.580901 -0.810618 0.073848
vn -0.579167 -0.812038 -0.071834
vn -0.052664 -0.997232 0.052493
vn -0.052202 -0.997399 -0.049697
vn -0.579167 -0.812038 -0.071834
vn -0.551439 -0.784832 -0.282762
vn -0.052202 -0.997399 -0.049697
vn -0.551439 -0.784832 -0.282762
vn -0.333726 -0.810278 -0.481744
vn -0.052202 -0.997399 -0.049697
vn -0.333726 -0.810278 -0.481744
vn -0.047885 -0.867643 -0.494877
vn -0.052202 -0.997399 -0.049697
vn -0.047885 -0.867643 -0.494877
vn 0.040046 -0.869465 -0.492369
vn -0.052202 -0.997399 -0.049697
vn 0.042455 -0.998154 -0.043435
vn 0.040046 -0.869465 -0.492369
vn 0.245569 -0.856469 -0.454045
vn 0.042455 -0.998154 -0.043435
vn 0.245569 -0.856469 -0.454045
vn 0.433783 -0.864488 -0.253957
vn 0.042455 -0.998154 -0.043435
vn 0.433783 -0.864488 -0.253957
vn 0.444127 -0.894463 -0.051845
vn 0.042455 -0.998154 -0.043435
vn 0.444127 -0.894463 -0.051845
vn 0.461104 -0.885371 0.059166
vn 0.042455 -0.998154 -0.043435
vn 0.048765 -0.997471 0.051716
vn 0.461104 -0.885371 0.059166
vn 0.462083 -0.844193 0.271693
vn 0.048765 -0.997471 0.051716
vn 0.462083 -0.844193 0.271693
vn 0.263990 -0.841358 0.471621
vn 0.048765 -0.997471 0.051716
vn 0.263990 -0.841358 0.471621
vn 0.045161 -0.862807 0.503513
vn 0.048765 -0.997471 0.051716
vn 0.045161 -0.862807 0.503513
vn -0.041396 -0.875473 0.481491
vn 0.048765 -0.997471 0.051716
vn -0.052664 -0.997232 0.052493
vn -0.041396 -0.875473 0.481491
vn -0.321741 -0.826854 0.461297
vn -0.052664 -0.997232 0.052493
vn -0.321741 -0.826854 0.461297
vn -0.547821 -0.789977 0.275372
vn -0.052664 -0.997232 0.052493
vn -0.547821 -0.789977 0.275372
vn -0.580901 -0.810618 0.073848
vn -0.052664 -0.997232 0.052493
vn 0.982293 0.164943 -0.088855
vn 0.683567 0.727641 -0.057226
vn 0.981516 0.166738 0.093937
vn 0.681496 0.729082 0.063268
vn 0.880678 0.177846 -0.439065
vn 0.642791 0.705483 -0.298520
vn 0.982293 0.164943 -0.088855
vn 0.683567 0.727641 -0.057226
vn 0.458367 0.200517 -0.865848
vn 0.318386 0.728304 -0.606798
vn 0.880678 0.177846 -0.439065
vn 0.642791 0.705483 -0.298520
vn 0.458367 0.200517 -0.865848
vn 0.060534 0.201348 -0.977647
vn 0.318386 0.728304 -0.606798
vn 0.044928 0.757301 -0.651519
vn -0.066348 0.214832 -0.974395
vn -0.046229 0.761934 -0.646003
vn 0.060534 0.201348 -0.977647
vn 0.044928 0.757301 -0.651519
vn -0.466711 0.234154 -0.852850
vn -0.284390 0.759978 -0.584428
vn -0.066348 0.214832 -0.974395
vn -0.046229 0.761934 -0.646003
vn -0.466711 0.234154 -0.852850
vn -0.875653 0.207006 -0.436325
vn -0.284390 0.759978 -0.584428
vn -0.614029 0.727628 -0.305821
vn -0.875653 0.207006 -0.436325
vn -0.981172 0.170166 -0.091350
vn -0.614029 0.727628 -0.305821
vn -0.680641 0.729589 -0.066533
vn -0.981127 0.167521 0.096580
vn -0.686931 0.723661 0.066640
vn -0.981172 0.170166 -0.091350
vn -0.680641 0.729589 -0.066533
vn -0.892121 0.186577 0.411472
vn -0.637300 0.713589 0.290930
vn -0.981127 0.167521 0.096580
vn -0.686931 0.723661 0.066640
vn -0.479707 0.211397 0.851583
vn -0.302283 0.725745 0.617996
vn -0.892121 0.186577 0.411472
vn -0.637300 0.713589 0.290930
vn -0.479707 0.211397 0.851583
vn -0.041604 0.204156 0.978054
vn -0.302283 0.725745 0.617996
vn -0.022470 0.758743 0.651003
vn 0.065577 0.210647 0.975360
vn 0.029885 0.763317 0.645333
vn -0.041604 0.204156 0.978054
vn -0.022470 0.758743 0.651003
vn 0.463503 0.212739 0.860179
vn 0.296084 0.742418 0.600957
vn 0.065577 0.210647 0.975360
vn 0.029885 0.763317 0.645333
vn 0.463503 0.212739 0.860179
vn 0.878365 0.186781 0.439986
vn 0.296084 0.742418 0.600957
vn 0.627055 0.718730 0.300383
vn 0.878365 0.186781 0.439986
vn 0.981516 0.166738 0.093937
vn 0.627055 0.718730 0.300383
vn 0.681496 0.729082 0.063268
vn 0.681496 0.729082 0.063268
vn 0.683567 0.727641 -0.057226
vn 0.084200 0.992196 0.091960
vn 0.083377 0.992529 -0.089078
vn 0.683567 0.727641 -0.057226
vn 0.642791 0.705483 -0.298520
vn 0.083377 0.992529 -0.089078
vn 0.642791 0.705483 -0.298520
vn 0.318386 0.728304 -0.606798
vn 0.083377 0.992529 -0.089078
vn 0.318386 0.728304 -0.606798
vn 0.044928 0.757301 -0.651519
vn 0.083377 0.992529 -0.089078
vn 0.044928 0.757301 -0.651519
vn -0.046229 0.761934 -0.646003
vn 0.083377 0.992529 -0.089078
vn -0.085940 0.992216 -0.090122
vn -0.046229 0.761934 -0.646003
vn -0.284390 0.759978 -0.584428
vn -0.085940 0.992216 -0.090122
vn -0.284390 0.759978 -0.584428
vn -0.614029 0.727628 -0.305821
vn -0.085940 0.992216 -0.090122
vn -0.614029 0.727628 -0.305821
vn -0.680641 0.729589 -0.066533
vn -0.085940 0.992216 -0.090122
vn -0.680641 0.729589 -0.066533
vn -0.686931 0.723661 0.066640
vn -0.085940 0.992216 -0.090122
vn -0.086975 0.991842 0.093194
vn -0.686931 0.723661 0.066640
vn -0.637300 0.713589 0.290930
vn -0.086975 0.991842 0.093194
vn -0.637300 0.713589 0.290930
vn -0.302283 0.725745 0.617996
vn -0.086975 0.991842 0.093194
vn -0.302283 0.725745 0.617996
vn -0.022470 0.758743 0.651003
vn -0.086975 0.991842 0.093194
vn -0.022470 0.758743 0.651003
vn 0.029885 0.763317 0.645333
vn -0.086975 0.991842 0.093194
vn 0.084200 0.992196 0.091960
vn 0.029885 0.763317 0.645333
vn 0.296084 0.742418 0.600957
vn 0.084200 0.992196 0.091960
vn 0.296084 0.742418 0.600957
vn 0.627055 0.718730 0.300383
vn 0.084200 0.992196 0.091960
vn 0.627055 0.718730 0.300383
vn 0.681496 0.729082 0.063268
vn 0.084200 0.992196 0.091960
vn 0.084200 0.992196 0.091960
vn 0.083377 0.992529 -0.089078
vn 0.001029 0.999999 -0.001060
vn 0.083377 0.992529 -0.089078
vn -0.085940 0.992216 -0.090122
vn 0.001029 0.999999 -0.001060
vn -0.085940 0.992216 -0.090122
vn -0.086975 0.991842 0.093194
vn 0.001029 0.999999 -0.001060
vn -0.086975 0.991842 0.093194
vn 0.084200 0.992196 0.091960
vn 0.001029 0.999999 -0.001060
vn -0.052664 -0.997232 0.052493
vn -0.052202 -0.997399 -0.049697
vn 0.042455 -0.998154 -0.043435
vn -0.148841 0.954583 0.258104
vn 0.146901 0.945863 0.289419
vn -0.162148 0.959013 -0.232382
vn 0.151344 0.958755 -0.240591
vn 0.143469 0.246649 0.958426
vn -0.138533 0.228830 0.963559
vn 0.137203 -0.309742 0.940870
vn -0.114597 -0.269401 0.956185
vn -0.168787 0.218062 -0.961228
vn 0.148704 0.232343 -0.961199
vn -0.169150 -0.367125 -0.914663
vn 0.161412 -0.370867 -0.914551
vn 0.103157 -0.956931 0.271369
vn -0.090590 -0.964850 0.246696
vn 0.080881 -0.979393 -0.185062
vn -0.075652 -0.981443 -0.176202
vn -0.995966 -0.087505 0.019855
vn -0.993434 -0.080806 -0.080989
vn -0.986768 0.104773 -0.123736
vn -0.987014 0.106648 0.120127
vn -0.993434 -0.080806 -0.080989
vn -0.995927 0.019550 -0.088019
vn -0.987014 0.106648 0.120127
vn -0.983663 -0.139728 0.113508
vn -0.999841 0.012522 0.012681
vn -0.980349 -0.159692 -0.115821
vn -0.995927 0.019550 -0.088019
vn -0.983663 -0.139728 0.113508
vn -0.999841 0.012522 0.012681
vn -0.995966 -0.087505 0.019855
vn -0.980349 -0.159692 -0.115821
vn -0.986768 0.104773 -0.123736
vn 0.999161 0.028224 -0.029688
vn 0.999124 -0.029518 -0.029661
vn 0.982676 -0.141079 0.120187
vn 0.984950 0.112744 0.131003
vn 0.999159 -0.029495 0.028499
vn 0.986293 0.116562 -0.116790
vn 0.999124 -0.029518 -0.029661
vn 0.984950 0.112744 0.131003
vn 0.999159 -0.029495 0.028499
vn 0.999193 0.028246 0.028572
vn 0.986293 0.116562 -0.116790
vn 0.981235 -0.157022 -0.111903
vn 0.999193 0.028246 0.028572
vn 0.999161 0.028224 -0.029688
vn 0.981235 -0.157022 -0.111903
vn 0.982676 -0.141079 0.120187
vn -0.162148 0.959013 -0.232382
vn -0.687808 0.710097 -0.150604
vn -0.148841 0.954583 0.258104
vn -0.686665 0.708548 0.162638
vn -0.138533 0.228830 0.963559
vn -0.666663 0.141126 0.731877
vn -0.114597 -0.269401 0.956185
vn -0.649754 -0.165723 0.741860
vn -0.090590 -0.964850 0.246696
vn -0.624087 -0.766088 0.153706
vn -0.075652 -0.981443 -0.176202
vn -0.616572 -0.772145 -0.153725
vn -0.713933 -0.261341 -0.649616
vn -0.695097 0.130390 -0.706993
vn -0.169150 -0.367125 -0.914663
vn -0.168787 0.218062 -0.961228
vn 0.137203 -0.309742 0.940870
vn 0.683477 -0.229781 0.692864
vn 0.143469 0.246649 0.958426
vn 0.677675 0.176240 0.713930
vn 0.692890 0.687152 0.218462
vn 0.689053 0.705230 -0.166903
vn 0.146901 0.945863 0.289419
vn 0.151344 0.958755 -0.240591
vn 0.689102 0.164795 -0.705678
vn 0.700659 -0.272114 -0.659569
vn 0.148704 0.232343 -0.961199
vn 0.161412 -0.370867 -0.914551
vn 0.614711 -0.770837 -0.167155
vn 0.639220 -0.742533 0.200109
vn 0.080881 -0.979393 -0.185062
vn 0.103157 -0.956931 0.271369
vn -0.986768 0.104773 -0.123736
vn -0.987014 0.106648 0.120127
vn -0.687808 0.710097 -0.150604
vn -0.686665 0.708548 0.162638
vn -0.666663 0.141126 0.731877
vn -0.987014 0.106648 0.120127
vn -0.649754 -0.165723 0.741860
vn -0.983663 -0.139728 0.113508
vn -0.624087 -0.766088 0.153706
vn -0.983663 -0.139728 0.113508
vn -0.616572 -0.772145 -0.153725
vn -0.980349 -0.159692 -0.115821
vn -0.713933 -0.261341 -0.649616
vn -0.980349 -0.159692 -0.115821
vn -0.695097 0.130390 -0.706993
vn -0.986768 0.104773 -0.123736
vn 0.683477 -0.229781 0.692864
vn 0.982676 -0.141079 0.120187
vn 0.677675 0.176240 0.713930
vn 0.984950 0.112744 0.131003
vn 0.692890 0.687152 0.218462
vn 0.984950 0.112744 0.131003
vn 0.689053 0.705230 -0.166903
vn 0.986293 0.116562 -0.116790
vn 0.986293 0.116562 -0.116790
vn 0.981235 -0.157022 -0.111903
vn 0.689102 0.164795 -0.705678
vn 0.700659 -0.272114 -0.659569
vn 0.981235 -0.157022 -0.111903
vn 0.982676 -0.141079 0.120187
vn 0.614711 -0.770837 -0.167155
vn 0.639220 -0.742533 0.200109
vn 0.143469 0.246649 0.958426
vn 0.152429 0.665626 0.730553
vn -0.138533 0.228830 0.963559
vn -0.152557 0.678100 0.718963
vn -0.168787 0.218062 -0.961228
vn -0.180094 0.686072 -0.704891
vn 0.148704 0.232343 -0.961199
vn 0.162561 0.690188 -0.705134
vn -0.114597 -0.269401 0.956185
vn -0.110146 -0.709026 0.696527
vn 0.137203 -0.309742 0.940870
vn 0.130758 -0.721845 0.679590
vn 0.161412 -0.370867 -0.914551
vn 0.129159 -0.833883 -0.536617
vn -0.169150 -0.367125 -0.914663
vn -0.125951 -0.835086 -0.535508
vn -0.180094 0.686072 -0.704891
vn -0.660714 0.518737 -0.542558
vn -0.162148 0.959013 -0.232382
vn -0.687808 0.710097 -0.150604
vn -0.152557 0.678100 0.718963
vn -0.641300 0.524783 0.559766
vn -0.138533 0.228830 0.963559
vn -0.666663 0.141126 0.731877
vn -0.110146 -0.709026 0.696527
vn -0.588930 -0.568050 0.574874
vn -0.090590 -0.964850 0.246696
vn -0.624087 -0.766088 0.153706
vn -0.125951 -0.835086 -0.535508
vn -0.587641 -0.685484 -0.429872
vn -0.169150 -0.367125 -0.914663
vn -0.713933 -0.261341 -0.649616
vn 0.130758 -0.721845 0.679590
vn 0.594838 -0.595491 0.539962
vn 0.137203 -0.309742 0.940870
vn 0.683477 -0.229781 0.692864
vn 0.152429 0.665626 0.730553
vn 0.619768 0.508013 0.598172
vn 0.146901 0.945863 0.289419
vn 0.692890 0.687152 0.218462
vn 0.162561 0.690188 -0.705134
vn 0.642505 0.537404 -0.546246
vn 0.148704 0.232343 -0.961199
vn 0.689102 0.164795 -0.705678
vn 0.129159 -0.833883 -0.536617
vn 0.574586 -0.689519 -0.440925
vn 0.080881 -0.979393 -0.185062
vn 0.614711 -0.770837 -0.167155
vn -0.687808 0.710097 -0.150604
vn -0.660714 0.518737 -0.542558
vn -0.986768 0.104773 -0.123736
vn -0.666663 0.141126 0.731877
vn -0.641300 0.524783 0.559766
vn -0.987014 0.106648 0.120127
vn -0.624087 -0.766088 0.153706
vn -0.588930 -0.568050 0.574874
vn -0.983663 -0.139728 0.113508
vn -0.713933 -0.261341 -0.649616
vn -0.587641 -0.685484 -0.429872
vn -0.980349 -0.159692 -0.115821
vn 0.683477 -0.229781 0.692864
vn 0.594838 -0.595491 0.539962
vn 0.982676 -0.141079 0.120187
vn 0.692890 0.687152 0.218462
vn 0.619768 0.508013 0.598172
vn 0.984950 0.112744 0.131003
vn 0.689102 0.164795 -0.705678
vn 0.642505 0.537404 -0.546246
vn 0.986293 0.116562 -0.116790
vn 0.614711 -0.770837 -0.167155
vn 0.574586 -0.689519 -0.440925
vn 0.981235 -0.157022 -0.111903
vn 0.152429 0.665626 0.730553
vn 0.146901 0.945863 0.289419
vn -0.152557 0.678100 0.718963
vn -0.148841 0.954583 0.258104
vn -0.180094 0.686072 -0.704891
vn -0.162148 0.959013 -0.232382
vn 0.162561 0.690188 -0.705134
vn 0.151344 0.958755 -0.240591
vn -0.110146 -0.709026 0.696527
vn -0.090590 -0.964850 0.246696
vn 0.130758 -0.721845 0.679590
vn 0.103157 -0.956931 0.271369
vn 0.129159 -0.833883 -0.536617
vn 0.080881 -0.979393 -0.185062
vn -0.125951 -0.835086 -0.535508
vn -0.075652 -0.981443 -0.176202
vn -0.180094 0.686072 -0.704891
vn -0.168787 0.218062 -0.961228
vn -0.660714 0.518737 -0.542558
vn -0.695097 0.130390 -0.706993
vn -0.152557 0.678100 0.718963
vn -0.148841 0.954583 0.258104
vn -0.641300 0.524783 0.559766
vn -0.686665 0.708548 0.162638
vn -0.110146 -0.709026 0.696527
vn -0.114597 -0.269401 0.956185
vn -0.588930 -0.568050 0.574874
vn -0.649754 -0.165723 0.741860
vn -0.125951 -0.835086 -0.535508
vn -0.075652 -0.981443 -0.176202
vn -0.587641 -0.685484 -0.429872
vn -0.616572 -0.772145 -0.153725
vn 0.130758 -0.721845 0.679590
vn 0.103157 -0.956931 0.271369
vn 0.594838 -0.595491 0.539962
vn 0.639220 -0.742533 0.200109
vn 0.152429 0.665626 0.730553
vn 0.143469 0.246649 0.958426
vn 0.619768 0.508013 0.598172
vn 0.677675 0.176240 0.713930
vn 0.162561 0.690188 -0.705134
vn 0.151344 0.958755 -0.240591
vn 0.642505 0.537404 -0.546246
vn 0.689053 0.705230 -0.166903
vn 0.129159 -0.833883 -0.536617
vn 0.161412 -0.370867 -0.914551
vn 0.574586 -0.689519 -0.440925
vn 0.700659 -0.272114 -0.659569
vn -0.660714 0.518737 -0.542558
vn -0.695097 0.130390 -0.706993
vn -0.986768 0.104773 -0.123736
vn -0.641300 0.524783 0.559766
vn -0.686665 0.708548 0.162638
vn -0.987014 0.106648 0.120127
vn -0.588930 -0.568050 0.574874
vn -0.649754 -0.165723 0.741860
vn -0.983663 -0.139728 0.113508
vn -0.587641 -0.685484 -0.429872
vn -0.616572 -0.772145 -0.153725
vn -0.980349 -0.159692 -0.115821
vn 0.594838 -0.595491 0.539962
vn 0.639220 -0.742533 0.200109
vn 0.982676 -0.141079 0.120187
vn 0.619768 0.508013 0.598172
vn 0.677675 0.176240 0.713930
vn 0.984950 0.112744 0.131003
vn 0.642505 0.537404 -0.546246
vn 0.689053 0.705230 -0.166903
vn 0.986293 0.116562 -0.116790
vn 0.574586 -0.689519 -0.440925
vn 0.700659 -0.272114 -0.659569
vn 0.981235 -0.157022 -0.111903
vn 0.000000 1.000000 0.000005
vn 0.000000 1.000000 0.000005
vn 0.000000 1.000000 0.000005
vn 0.000000 1.000000 0.000005
vn 0.000000 -0.000000 1.000000
vn -0.000000 -0.000000 1.000000
vn 0.000000 -0.000000 1.000000
vn -0.000000 -0.000000 1.000000
vn 0.000001 -0.000000 1.000000
vn 0.000001 -0.000000 1.000000
vn 0.000001 -0.000000 1.000000
vn 0.000001 -0.000000 1.000000
vn 0.000000 0.000000 -1.000000
vn -0.000001 0.000000 -1.000000
vn 0.000000 0.000000 -1.000000
vn -0.000001 0.000000 -1.000000
vn -0.000000 0.000000 -1.000000
vn -0.000000 0.000000 -1.000000
vn -0.000000 0.000000 -1.000000
vn -0.000000 0.000000 -1.000000
vn 0.000000 -1.000000 -0.000007
vn 0.000000 -1.000000 -0.000007
vn 0.000000 -1.000000 -0.000007
vn 0.000000 -1.000000 -0.000007
vn 1.000000 0.000000 0.000000
vn 1.000000 0.000000 0.000000
vn 1.000000 0.000000 0.000000
vn 1.000000 0.000000 0.000000
vn 1.000000 0.000000 0.000000
vn 1.000000 0.000000 0.000000
vn 1.000000 0.000000 0.000000
vn 1.000000 0.000000 0.000000
vn -1.000000 0.000000 0.000000
vn -1.000000 0.000000 0.000000
vn -1.000000 0.000000 0.000000
vn -1.000000 0.000000 0.000000
vn -0.000000 -0.000000 1.000000
vn -0.000000 -0.000000 1.000000
vn -0.000000 -0.000001 1.000000
vn -0.000000 -0.000001 1.000000
vn -0.000001 0.000000 -1.000000
vn -0.000001 0.000000 -1.000000
vn -0.000001 0.000000 -1.000000
vn -0.000001 0.000000 -1.000000
vn -1.000000 0.000000 0.000000
vn -1.000000 0.000000 0.000000
vn -1.000000 0.000000 -0.000000
vn -1.000000 0.000000 -0.000000
vn 0.000000 -1.000000 -0.000000
vn 0.000000 -1.000000 -0.000000
vn 0.000000 -1.000000 -0.000000
vn 0.000000 -1.000000 -0.000000
vn 1.000000 0.000000 0.000000
vn 1.000000 0.000000 0.000000
vn 1.000000 0.000000 0.000000
vn 1.000000 0.000000 0.000000
vn 1.000000 0.000000 0.000000
vn 1.000000 0.000000 0.000000
vn 1.000000 0.000000 0.000000
vn 1.000000 0.000000 0.000000
vn -1.000000 0.000000 0.000000
vn -1.000000 0.000000 0.000000
vn -1.000000 0.000000 0.000000
vn -1.000000 0.000000 0.000000
vn 0.000001 -1.000000 -0.000000
vn 0.000001 -1.000000 -0.000000
vn 0.000001 -1.000000 -0.000000
vn 0.000001 -1.000000 -0.000000
vn -1.000000 0.000000 -0.000000
vn -1.000000 0.000000 -0.000000
vn -1.000000 0.000000 -0.000000
vn -1.000000 0.000000 -0.000000
vn -0.000000 -0.000001 1.000000
vn -0.000000 -0.000001 1.000000
vn -0.000000 -0.000001 1.000000
vn -0.000000 -0.000001 1.000000
vn -0.000000 -0.000001 1.000000
vn -0.000000 -0.000001 1.000000
vn -0.000000 -0.000001 1.000000
vn -0.000000 -0.000001 1.000000
vn 0.000000 1.000000 0.000007
vn 0.000000 1.000000 0.000007
vn 0.000000 1.000000 0.000007
vn 0.000000 1.000000 0.000007
vn 0.000001 -0.000000 1.000000
vn 0.000001 -0.000000 1.000000
vn 0.000000 -0.000000 1.000000
vn 0.000000 -0.000000 1.000000
vn 0.000000 0.000000 -1.000000
vn 0.000000 0.000000 -1.000000
vn -0.000000 0.000000 -1.000000
vn -0.000000 0.000000 -1.000000
vn 0.000000 -1.000000 -0.000005
vn 0.000000 -1.000000 -0.000005
vn 0.000000 -1.000000 -0.000005
vn 0.000000 -1.000000 -0.000005
vn 0.000000 0.000000 -1.000000
vn 0.000000 0.000000 -1.000000
vn 0.000000 0.000000 -1.000000
vn 0.000000 0.000000 -1.000000
vn 0.000000 -0.000000 1.000000
vn 0.000000 -0.000000 1.000000
vn 0.000000 -0.000000 1.000000
vn 0.000000 -0.000000 1.000000
vn 1.000000 0.000000 0.000000
vn 1.000000 0.000000 0.000000
vn 1.000000 0.000000 0.000000
vn 1.000000 0.000000 0.000000
vn -1.000000 0.000000 0.000000
vn -1.000000 0.000000 0.000000
vn -1.000000 0.000000 0.000000
vn -1.000000 0.000000 0.000000
vn 0.000000 0.000000 -1.000000
vn 0.000000 0.000000 -1.000000
vn 0.000000 0.000000 -1.000000
vn 0.000000 0.000000 -1.000000
vn -0.000000 -0.000000 1.000000
vn -0.000000 -0.000000 1.000000
vn -0.000000 -0.000000 1.000000
vn -0.000000 -0.000000 1.000000
vn 1.000000 0.000000 0.000000
vn 1.000000 0.000000 0.000000
vn 1.000000 0.000000 0.000000
vn 1.000000 0.000000 0.000000
vn -1.000000 0.000000 0.000000
vn -1.000000 0.000000 0.000000
vn -1.000000 0.000000 0.000000
vn -1.000000 0.000000 0.000000
vn 0.000000 0.000000 -1.000000
vn 0.000000 0.000000 -1.000000
vn 0.000000 0.000000 -1.000000
vn 0.000000 0.000000 -1.000000
vn 0.000000 -0.000000 1.000000
vn 0.000000 -0.000000 1.000000
vn 0.000000 -0.000000 1.000000
vn 0.000000 -0.000000 1.000000
vn 1.000000 0.000000 0.000000
vn 1.000000 0.000000 0.000000
vn 1.000000 0.000000 0.000000
vn 1.000000 0.000000 0.000000
vn -1.000000 0.000000 0.000000
vn -1.000000 0.000000 0.000000
vn -1.000000 0.000000 0.000000
vn -1.000000 0.000000 0.000000
vn 0.000000 0.000000 -1.000000
vn 0.000000 0.000000 -1.000000
vn 0.000000 0.000000 -1.000000
vn 0.000000 0.000000 -1.000000
vn 0.000000 -0.000000 1.000000
vn 0.000000 -0.000000 1.000000
vn 0.000000 -0.000000 1.000000
vn 0.000000 -0.000000 1.000000
vn 1.000000 0.000000 0.000000
vn 1.000000 0.000000 0.000000
vn 1.000000 0.000000 0.000000
vn 1.000000 0.000000 0.000000
vn -1.000000 0.000000 0.000000
vn -1.000000 0.000000 0.000000
vn -1.000000 0.000000 0.000000
vn -1.000000 0.000000 0.000000
vn 0.000000 0.000006 -1.000000
vn 0.000000 0.000006 -1.000000
vn 0.000000 0.000006 -1.000000
vn 0.000000 0.000006 -1.000000
vn -0.000000 -0.000006 1.000000
vn -0.000000 -0.000006 1.000000
vn -0.000000 -0.000006 1.000000
vn -0.000000 -0.000006 1.000000
vn 1.000000 0.000000 0.000000
vn 1.000000 0.000000 0.000000
vn 1.000000 0.000000 0.000000
vn 1.000000 0.000000 0.000000
vn -1.000000 0.000000 0.000000
vn -1.000000 0.000000 0.000000
vn -1.000000 0.000000 0.000000
vn -1.000000 0.000000 0.000000
vn 0.000001 -1.000000 0.000001
vn -0.000001 -1.000000 0.000001
vn 0.000001 -1.000000 0.000001
vn -0.000001 -1.000000 0.000001
vn -0.000001 -1.000000 0.000001
vn -0.000001 -1.000000 -0.000000
vn -0.000001 -1.000000 0.000001
vn -0.000001 -1.000000 -0.000000
vn -0.000001 -1.000000 -0.000000
vn 0.000001 -1.000000 -0.000000
vn -0.000001 -1.000000 -0.000000
vn 0.000001 -1.000000 -0.000000
vn 0.000001 -1.000000 -0.000000
vn 0.000001 -1.000000 0.000001
vn 0.000001 -1.000000 -0.000000
vn 0.000001 -1.000000 0.000001
vn 0.000001 1.000000 -0.000001
vn -0.000001 1.000000 -0.000001
vn 0.000001 1.000000 -0.000001
vn -0.000001 1.000000 -0.000001
vn -0.000001 1.000000 -0.000001
vn -0.000001 1.000000 0.000000
vn -0.000001 1.000000 -0.000001
vn -0.000001 1.000000 0.000000
vn -0.000001 1.000000 0.000000
vn 0.000001 1.000000 0.000000
vn -0.000001 1.000000 0.000000
vn 0.000001 1.000000 0.000000
vn 0.000001 1.000000 0.000000
vn 0.000001 1.000000 -0.000001
vn 0.000001 1.000000 0.000000
vn 0.000001 1.000000 -0.000001
vn 0.000000 -0.000005 1.000000
vn 0.000000 -0.000005 1.000000
vn 0.000000 -0.000005 1.000000
vn 0.000000 -0.000005 1.000000
vn -1.000000 0.000000 0.000000
vn -1.000000 0.000000 0.000000
vn -1.000000 0.000000 0.000000
vn -1.000000 0.000000 0.000000
vn -0.000000 0.000005 -1.000000
vn -0.000000 0.000005 -1.000000
vn -0.000000 0.000005 -1.000000
vn -0.000000 0.000005 -1.000000
vn 1.000000 -0.000000 0.000000
vn 1.000000 -0.000000 0.000000
vn 1.000000 -0.000000 0.000000
vn 1.000000 -0.000000 0.000000
vn 0.000000 0.000008 -1.000000
vn 0.000000 0.000008 -1.000000
vn 0.000000 0.000008 -1.000000
vn 0.000000 0.000008 -1.000000
vn 0.000000 -0.000008 1.000000
vn 0.000000 -0.000008 1.000000
vn 0.000000 -0.000008 1.000000
vn 0.000000 -0.000008 1.000000
vn 0.000001 1.000000 -0.000002
vn -0.000001 1.000000 -0.000002
vn 0.000001 1.000000 -0.000002
vn -0.000001 1.000000 -0.000002
vn -0.000003 1.000000 0.000000
vn -0.000001 1.000000 -0.000002
vn -0.000003 1.000000 0.000000
vn -0.000001 1.000000 -0.000002
vn -0.000001 1.000000 0.000000
vn -0.000000 1.000000 0.000000
vn -0.000001 1.000000 0.000000
vn -0.000000 1.000000 0.000000
vn -0.000000 1.000000 0.000000
vn -0.000000 1.000000 0.000000
vn -0.000000 1.000000 0.000000
vn -0.000000 1.000000 0.000000
vn 0.000000 -0.000007 1.000000
vn 0.000000 -0.000007 1.000000
vn 0.000000 -0.000007 1.000000
vn 0.000000 -0.000007 1.000000
vn -1.000000 0.000000 0.000000
vn -1.000000 0.000000 0.000000
vn -1.000000 0.000000 0.000000
vn -1.000000 0.000000 0.000000
vn -0.000000 0.000007 -1.000000
vn -0.000000 0.000007 -1.000000
vn -0.000000 0.000007 -1.000000
vn -0.000000 0.000007 -1.000000
vn 1.000000 -0.000000 0.000000
vn 1.000000 -0.000000 0.000000
vn 1.000000 -0.000000 0.000000
vn 1.000000 -0.000000 0.000000
vn 1.000000 0.000000 0.000000
vn 1.000000 0.000000 0.000000
vn 1.000000 0.000000 0.000000
vn 1.000000 0.000000 0.000000
vn -1.000000 0.000000 0.000000
vn -1.000000 0.000000 0.000000
vn -1.000000 0.000000 0.000000
vn -1.000000 0.000000 0.000000
vn -0.000001 1.000000 0.000000
vn -0.000001 1.000000 0.000000
vn -0.000001 1.000000 0.000000
vn -0.000001 1.000000 0.000000
vn 0.000001 1.000000 -0.000002
vn 0.000001 1.000000 -0.000002
vn 0.000003 1.000000 0.000001
vn 0.000003 1.000000 0.000001
vn -1.000000 0.000000 0.000000
vn -1.000000 0.000000 0.000000
vn -1.000000 0.000000 0.000000
vn -1.000000 0.000000 0.000000
vn 1.000000 0.000000 0.000000
vn 1.000000 0.000000 0.000000
vn 1.000000 0.000000 0.000000
vn 1.000000 0.000000 0.000000
vn -0.000000 -0.000005 1.000000
vn -0.000000 -0.000005 1.000000
vn -0.000000 -0.000005 1.000000
vn -0.000000 -0.000005 1.000000
vn -0.000000 -0.000005 1.000000
vn -0.000000 -0.000005 1.000000
vn -0.000000 -0.000005 1.000000
vn -0.000000 -0.000005 1.000000
vn 0.000000 0.000005 -1.000000
vn 0.000000 0.000005 -1.000000
vn 0.000000 0.000005 -1.000000
vn 0.000000 0.000005 -1.000000
vn 0.000000 0.000005 -1.000000
vn 0.000000 0.000005 -1.000000
vn 0.000000 0.000005 -1.000000
vn 0.000000 0.000005 -1.000000
vn 1.000000 0.000000 0.000000
vn 1.000000 0.000000 0.000000
vn 1.000000 0.000000 0.000000
vn 1.000000 0.000000 0.000000
vn -1.000000 0.000000 0.000000
vn -1.000000 0.000000 0.000000
vn -1.000000 0.000000 0.000000
vn -1.000000 0.000000 0.000000
vn 0.325204 -0.723641 0.608758
vn 0.218871 -0.746682 0.628141
vn -0.325205 -0.723641 0.608757
vn -0.218871 -0.746683 0.628141
vn 0.246400 -0.697302 0.673095
vn 0.349550 -0.674099 0.650696
vn -0.246401 -0.697302 0.673095
vn -0.349550 -0.674098 0.650697
vn 0.000000 -1.000000 -0.000000
vn 0.000000 -1.000000 -0.000000
vn 0.000000 -1.000000 -0.000000
vn 0.000000 -1.000000 -0.000000
vn 0.962561 -0.207430 0.174499
vn 1.000000 0.000000 0.000000
vn 0.718143 -0.532525 0.447983
vn 1.000000 0.000000 0.000000
vn -0.962561 -0.207430 0.174499
vn -0.718143 -0.532525 0.447982
vn -1.000000 0.000000 0.000000
vn -1.000000 0.000000 0.000000
vn 1.000000 0.000000 0.000000
vn 0.960334 -0.200629 0.193664
vn 1.000000 0.000000 0.000000
vn 0.766688 -0.461924 0.445887
vn -0.000000 -0.000000 1.000000
vn -0.000000 -0.000000 1.000000
vn -0.000000 -0.000000 1.000000
vn -0.000000 -0.000000 1.000000
vn -1.000000 0.000000 0.000000
vn -1.000000 0.000000 0.000000
vn -0.960335 -0.200629 0.193664
vn -0.766689 -0.461923 0.445887
vn 0.246400 -0.697302 0.673095
vn 0.766688 -0.461924 0.445887
vn 0.349550 -0.674099 0.650696
vn 0.960334 -0.200629 0.193664
vn -0.960335 -0.200629 0.193664
vn -0.766689 -0.461923 0.445887
vn -0.349550 -0.674098 0.650697
vn -0.246401 -0.697302 0.673095
vn -0.218871 -0.746683 0.628141
vn -0.718143 -0.532525 0.447982
vn -0.325205 -0.723641 0.608757
vn -0.962561 -0.207430 0.174499
vn 0.962561 -0.207430 0.174499
vn 0.718143 -0.532525 0.447983
vn 0.325204 -0.723641 0.608758
vn 0.218871 -0.746682 0.628141
vn 0.000000 -1.000000 -0.000000
vn 0.000000 -1.000000 -0.000000
vn 0.000000 -1.000000 -0.000000
vn 0.000000 -1.000000 -0.000000
vn -0.000000 -0.000000 1.000000
vn -0.000000 -0.000000 1.000000
vn -0.000000 -0.000000 1.000000
vn -0.000000 -0.000000 1.000000
vn 0.325209 -0.723639 0.608757
vn 0.218873 -0.746682 0.628141
vn -0.325208 -0.723640 0.608757
vn -0.218873 -0.746682 0.628141
vn 0.246402 -0.697302 0.673094
vn 0.349554 -0.674098 0.650695
vn -0.246400 -0.697303 0.673094
vn -0.349551 -0.674099 0.650696
vn 0.000000 -1.000000 -0.000000
vn 0.000000 -1.000000 -0.000000
vn 0.000000 -1.000000 -0.000000
vn 0.000000 -1.000000 -0.000000
vn 0.962561 -0.207428 0.174497
vn 1.000000 0.000000 0.000000
vn 0.718147 -0.532521 0.447980
vn 1.000000 0.000000 0.000000
vn -0.962562 -0.207425 0.174498
vn -0.718146 -0.532521 0.447981
vn -1.000000 0.000003 -0.000004
vn -1.000000 0.000002 -0.000004
vn 1.000000 0.000000 0.000000
vn 0.960335 -0.200627 0.193662
vn 1.000000 0.000000 0.000000
vn 0.766691 -0.461921 0.445885
vn -0.000000 -0.000000 1.000000
vn -0.000000 -0.000000 1.000000
vn -0.000000 -0.000000 1.000000
vn -0.000000 -0.000000 1.000000
vn -1.000000 0.000003 -0.000004
vn -1.000000 0.000002 -0.000004
vn -0.960336 -0.200629 0.193657
vn -0.766689 -0.461925 0.445885
vn 0.246402 -0.697302 0.673094
vn 0.766691 -0.461921 0.445885
vn 0.349554 -0.674098 0.650695
vn 0.960335 -0.200627 0.193662
vn -0.960336 -0.200629 0.193657
vn -0.766689 -0.461925 0.445885
vn -0.349551 -0.674099 0.650696
vn -0.246400 -0.697303 0.673094
vn -0.218873 -0.746682 0.628141
vn -0.718146 -0.532521 0.447981
vn -0.325208 -0.723640 0.608757
vn -0.962562 -0.207425 0.174498
vn 0.962561 -0.207428 0.174497
vn 0.718147 -0.532521 0.447980
vn 0.325209 -0.723639 0.608757
vn 0.218873 -0.746682 0.628141
vn 0.000000 -1.000000 -0.000000
vn 0.000000 -1.000000 -0.000000
vn 0.000000 -1.000000 -0.000000
vn 0.000000 -1.000000 -0.000000
vn -0.000000 -0.000000 1.000000
vn -0.000000 -0.000000 1.000000
vn -0.000000 -0.000000 1.000000
vn -0.000000 -0.000000 1.000000
vn 0.000000 -0.000008 1.000000
vn 0.000000 -0.000008 1.000000
vn 0.000000 -0.000008 1.000000
vn 0.000000 -0.000008 1.000000
vn 0.000000 0.000008 -1.000000
vn 0.000000 0.000008 -1.000000
vn 0.000000 0.000008 -1.000000
vn 0.000000 0.000008 -1.000000
vn -0.000000 -1.000000 0.000004
vn -0.000000 -1.000000 0.000004
vn -0.000000 -1.000000 0.000004
vn -0.000000 -1.000000 0.000004
vn -0.000000 -1.000000 0.000001
vn -0.000000 -1.000000 0.000001
vn -0.000000 -1.000000 0.000001
vn -0.000000 -1.000000 0.000001
vn 0.000000 0.000007 -1.000000
vn 0.000000 0.000007 -1.000000
vn 0.000000 0.000007 -1.000000
vn 0.000000 0.000007 -1.000000
vn -0.000000 -0.000007 1.000000
vn -0.000000 -0.000007 1.000000
vn -0.000000 -0.000007 1.000000
vn -0.000000 -0.000007 1.000000
vn -0.325204 -0.723641 -0.608758
vn -0.218871 -0.746682 -0.628141
vn 0.325205 -0.723641 -0.608758
vn 0.218871 -0.746682 -0.628141
vn -0.246400 -0.697303 -0.673094
vn -0.349550 -0.674099 -0.650696
vn 0.246401 -0.697302 -0.673095
vn 0.349550 -0.674098 -0.650697
vn 0.000000 -1.000000 -0.000000
vn 0.000000 -1.000000 -0.000000
vn 0.000000 -1.000000 -0.000000
vn 0.000000 -1.000000 -0.000000
vn -0.962561 -0.207430 -0.174499
vn -1.000000 0.000000 0.000000
vn -0.718143 -0.532525 -0.447983
vn -1.000000 0.000000 0.000000
vn 0.962561 -0.207430 -0.174499
vn 0.718143 -0.532525 -0.447983
vn 1.000000 0.000000 0.000000
vn 1.000000 0.000000 0.000000
vn -1.000000 0.000000 0.000000
vn -0.960334 -0.200629 -0.193664
vn -1.000000 0.000000 0.000000
vn -0.766689 -0.461924 -0.445887
vn 0.000000 -0.000000 -1.000000
vn 0.000000 -0.000000 -1.000000
vn 0.000000 -0.000000 -1.000000
vn 0.000000 -0.000000 -1.000000
vn 1.000000 0.000000 0.000000
vn 1.000000 0.000000 0.000000
vn 0.960335 -0.200629 -0.193664
vn 0.766689 -0.461923 -0.445887
vn -0.246400 -0.697303 -0.673094
vn -0.766689 -0.461924 -0.445887
vn -0.349550 -0.674099 -0.650696
vn -0.960334 -0.200629 -0.193664
vn 0.960335 -0.200629 -0.193664
vn 0.766689 -0.461923 -0.445887
vn 0.349550 -0.674098 -0.650697
vn 0.246401 -0.697302 -0.673095
vn 0.218871 -0.746682 -0.628141
vn 0.718143 -0.532525 -0.447983
vn 0.325205 -0.723641 -0.608758
vn 0.962561 -0.207430 -0.174499
vn -0.962561 -0.207430 -0.174499
vn -0.718143 -0.532525 -0.447983
vn -0.325204 -0.723641 -0.608758
vn -0.218871 -0.746682 -0.628141
vn 0.000000 -1.000000 -0.000000
vn 0.000000 -1.000000 -0.000000
vn 0.000000 -1.000000 -0.000000
vn 0.000000 -1.000000 -0.000000
vn 0.000000 0.000000 -1.000000
vn 0.000000 0.000000 -1.000000
vn 0.000000 -0.000000 -1.000000
vn 0.000000 -0.000000 -1.000000
vn -0.325210 -0.723639 -0.608757
vn -0.218873 -0.746682 -0.628141
vn 0.325208 -0.723640 -0.608757
vn 0.218873 -0.746682 -0.628141
vn -0.246402 -0.697302 -0.673094
vn -0.349554 -0.674098 -0.650695
vn 0.246401 -0.697303 -0.673094
vn 0.349551 -0.674099 -0.650696
vn 0.000000 -1.000000 -0.000000
vn 0.000000 -1.000000 -0.000000
vn 0.000000 -1.000000 -0.000000
vn 0.000000 -1.000000 -0.000000
vn -0.962562 -0.207427 -0.174497
vn -1.000000 0.000000 0.000000
vn -0.718148 -0.532521 -0.447980
vn -1.000000 0.000000 0.000000
vn 0.962562 -0.207425 -0.174498
vn 0.718146 -0.532521 -0.447981
vn 1.000000 0.000003 0.000004
vn 1.000000 0.000002 0.000004
vn -1.000000 0.000000 0.000000
vn -0.960335 -0.200627 -0.193662
vn -1.000000 0.000000 0.000000
vn -0.766691 -0.461921 -0.445885
vn 0.000000 -0.000000 -1.000000
vn 0.000000 0.000000 -1.000000
vn 0.000000 -0.000000 -1.000000
vn 0.000000 0.000000 -1.000000
vn 1.000000 0.000003 0.000004
vn 1.000000 0.000002 0.000004
vn 0.960336 -0.200629 -0.193657
vn 0.766690 -0.461924 -0.445884
vn -0.246402 -0.697302 -0.673094
vn -0.766691 -0.461921 -0.445885
vn -0.349554 -0.674098 -0.650695
vn -0.960335 -0.200627 -0.193662
vn 0.960336 -0.200629 -0.193657
vn 0.766690 -0.461924 -0.445884
vn 0.349551 -0.674099 -0.650696
vn 0.246401 -0.697303 -0.673094
vn 0.218873 -0.746682 -0.628141
vn 0.718146 -0.532521 -0.447981
vn 0.325208 -0.723640 -0.608757
vn 0.962562 -0.207425 -0.174498
vn -0.962562 -0.207427 -0.174497
vn -0.718148 -0.532521 -0.447980
vn -0.325210 -0.723639 -0.608757
vn -0.218873 -0.746682 -0.628141
vn 0.000000 -1.000000 -0.000000
vn 0.000000 -1.000000 -0.000000
vn 0.000000 -1.000000 -0.000000
vn 0.000000 -1.000000 -0.000000
vn 0.000000 0.000002 -1.000000
vn 0.000000 0.000002 -1.000000
vn 0.000000 0.000000 -1.000000
vn 0.000000 0.000000 -1.000000
vn -0.000000 -0.614944 0.788570
vn 0.000000 0.000000 1.000000
vn -0.500819 -0.500819 0.705947
vn -0.614944 0.000001 0.788571
vn -0.000000 -0.614944 0.788570
vn 0.500819 -0.500819 0.705947
vn 0.000000 0.000000 1.000000
vn 0.614944 0.000001 0.788571
vn 0.000000 0.614943 0.788572
vn 0.000000 0.000000 1.000000
vn 0.500819 0.500818 0.705947
vn 0.614944 0.000001 0.788571
vn 0.000000 0.614943 0.788572
vn -0.500819 0.500818 0.705947
vn 0.000000 0.000000 1.000000
vn -0.614944 0.000001 0.788571
vn -0.000000 -0.614944 0.788570
vn -0.000000 -0.868550 0.495602
vn 0.500819 -0.500819 0.705947
vn 0.608813 -0.608813 0.508620
vn -0.000000 -0.614944 0.788570
vn -0.500819 -0.500819 0.705947
vn -0.000000 -0.868550 0.495602
vn -0.608813 -0.608813 0.508620
vn 0.614944 0.000001 0.788571
vn 0.868550 0.000001 0.495602
vn 0.500819 0.500818 0.705947
vn 0.608813 0.608812 0.508621
vn 0.614944 0.000001 0.788571
vn 0.500819 -0.500819 0.705947
vn 0.868550 0.000001 0.495602
vn 0.608813 -0.608813 0.508620
vn 0.000000 0.614943 0.788572
vn 0.000000 0.868548 0.495605
vn -0.500819 0.500818 0.705947
vn -0.608813 0.608812 0.508621
vn 0.000000 0.614943 0.788572
vn 0.500819 0.500818 0.705947
vn 0.000000 0.868548 0.495605
vn 0.608813 0.608812 0.508621
vn -0.614944 0.000001 0.788571
vn -0.868550 0.000001 0.495602
vn -0.500819 -0.500819 0.705947
vn -0.608813 -0.608813 0.508620
vn -0.614944 0.000001 0.788571
vn -0.500819 0.500818 0.705947
vn -0.868550 0.000001 0.495602
vn -0.608813 0.608812 0.508621
vn 0.000000 -0.614944 0.788571
vn 0.000000 0.000000 1.000000
vn -0.500819 -0.500819 0.705947
vn -0.614944 0.000001 0.788571
vn 0.000000 -0.614944 0.788571
vn 0.500818 -0.500819 0.705947
vn 0.000000 0.000000 1.000000
vn 0.614945 0.000001 0.788570
vn 0.000000 0.614943 0.788572
vn 0.000000 0.000000 1.000000
vn 0.500818 0.500819 0.705947
vn 0.614945 0.000001 0.788570
vn 0.000000 0.614943 0.788572
vn -0.500819 0.500819 0.705947
vn 0.000000 0.000000 1.000000
vn -0.614944 0.000001 0.788571
vn 0.000000 -0.614944 0.788571
vn 0.000000 -0.868550 0.495602
vn 0.500818 -0.500819 0.705947
vn 0.608814 -0.608811 0.508620
vn 0.000000 -0.614944 0.788571
vn -0.500819 -0.500819 0.705947
vn 0.000000 -0.868550 0.495602
vn -0.608813 -0.608813 0.508620
vn 0.614945 0.000001 0.788570
vn 0.868550 0.000001 0.495602
vn 0.500818 0.500819 0.705947
vn 0.608814 0.608810 0.508622
vn 0.614945 0.000001 0.788570
vn 0.500818 -0.500819 0.705947
vn 0.868550 0.000001 0.495602
vn 0.608814 -0.608811 0.508620
vn 0.000000 0.614943 0.788572
vn 0.000000 0.868548 0.495606
vn -0.500819 0.500819 0.705947
vn -0.608813 0.608812 0.508621
vn 0.000000 0.614943 0.788572
vn 0.500818 0.500819 0.705947
vn 0.000000 0.868548 0.495606
vn 0.608814 0.608810 0.508622
vn -0.614944 0.000001 0.788571
vn -0.868550 0.000001 0.495602
vn -0.500819 -0.500819 0.705947
vn -0.608813 -0.608813 0.508620
vn -0.614944 0.000001 0.788571
vn -0.500819 0.500819 0.705947
vn -0.868550 0.000001 0.495602
vn -0.608813 0.608812 0.508621
vn -0.000000 0.614944 -0.788570
vn 0.000000 -0.000001 -1.000000
vn -0.500819 0.500819 -0.705947
vn -0.614944 -0.000001 -0.788571
vn -0.000000 0.614944 -0.788570
vn 0.500819 0.500819 -0.705947
vn 0.000000 -0.000001 -1.000000
vn 0.614944 -0.000001 -0.788571
vn 0.000000 -0.614943 -0.788571
vn 0.000000 -0.000001 -1.000000
vn 0.500819 -0.500819 -0.705947
vn 0.614944 -0.000001 -0.788571
vn 0.000000 -0.614943 -0.788571
vn -0.500819 -0.500819 -0.705947
vn 0.000000 -0.000001 -1.000000
vn -0.614944 -0.000001 -0.788571
vn -0.000000 0.614944 -0.788570
vn -0.000000 0.868550 -0.495602
vn 0.500819 0.500819 -0.705947
vn 0.608813 0.608813 -0.508620
vn -0.000000 0.614944 -0.788570
vn -0.500819 0.500819 -0.705947
vn -0.000000 0.868550 -0.495602
vn -0.608813 0.608813 -0.508620
vn 0.614944 -0.000001 -0.788571
vn 0.868550 -0.000001 -0.495602
vn 0.500819 -0.500819 -0.705947
vn 0.608813 -0.608812 -0.508621
vn 0.614944 -0.000001 -0.788571
vn 0.500819 0.500819 -0.705947
vn 0.868550 -0.000001 -0.495602
vn 0.608813 0.608813 -0.508620
vn 0.000000 -0.614943 -0.788571
vn 0.000000 -0.868548 -0.495605
vn -0.500819 -0.500819 -0.705947
vn -0.608813 -0.608812 -0.508621
vn 0.000000 -0.614943 -0.788571
vn 0.500819 -0.500819 -0.705947
vn 0.000000 -0.868548 -0.495605
vn 0.608813 -0.608812 -0.508621
vn -0.614944 -0.000001 -0.788571
vn -0.868550 -0.000001 -0.495602
vn -0.500819 0.500819 -0.705947
vn -0.608813 0.608813 -0.508620
vn -0.614944 -0.000001 -0.788571
vn -0.500819 -0.500819 -0.705947
vn -0.868550 -0.000001 -0.495602
vn -0.608813 -0.608812 -0.508621
vn 0.000000 0.614944 -0.788571
vn 0.000000 -0.000001 -1.000000
vn -0.500819 0.500819 -0.705947
vn -0.614944 -0.000001 -0.788571
vn 0.000000 0.614944 -0.788571
vn 0.500818 0.500819 -0.705947
vn 0.000000 -0.000001 -1.000000
vn 0.614945 -0.000001 -0.788570
vn 0.000000 -0.614943 -0.788571
vn 0.000000 -0.000001 -1.000000
vn 0.500818 -0.500819 -0.705947
vn 0.614945 -0.000001 -0.788570
vn 0.000000 -0.614943 -0.788571
vn -0.500819 -0.500819 -0.705947
vn 0.000000 -0.000001 -1.000000
vn -0.614944 -0.000001 -0.788571
vn 0.000000 0.614944 -0.788571
vn 0.000000 0.868550 -0.495602
vn 0.500818 0.500819 -0.705947
vn 0.608814 0.608811 -0.508620
vn 0.000000 0.614944 -0.788571
vn -0.500819 0.500819 -0.705947
vn 0.000000 0.868550 -0.495602
vn -0.608813 0.608813 -0.508620
vn 0.614945 -0.000001 -0.788570
vn 0.868550 -0.000001 -0.495602
vn 0.500818 -0.500819 -0.705947
vn 0.608814 -0.608810 -0.508622
vn 0.614945 -0.000001 -0.788570
vn 0.500818 0.500819 -0.705947
vn 0.868550 -0.000001 -0.495602
vn 0.608814 0.608811 -0.508620
vn 0.000000 -0.614943 -0.788571
vn 0.000000 -0.868548 -0.495606
vn -0.500819 -0.500819 -0.705947
vn -0.608813 -0.608812 -0.508621
vn 0.000000 -0.614943 -0.788571
vn 0.500818 -0.500819 -0.705947
vn 0.000000 -0.868548 -0.495606
vn 0.608814 -0.608810 -0.508622
vn -0.614944 -0.000001 -0.788571
vn -0.868550 -0.000001 -0.495602
vn -0.500819 0.500819 -0.705947
vn -0.608813 0.608813 -0.508620
vn -0.614944 -0.000001 -0.788571
vn -0.500819 -0.500819 -0.705947
vn -0.868550 -0.000001 -0.495602
vn -0.608813 -0.608812 -0.508621
s off
g SM_BarStool_01
f 51/1/1 52/2/2 50/3/3
s 1
f 2/4/4 14/5/5 1/7/6
f 1/7/6 14/5/5 5/6/7
s 2
f 16/9/8 6/10/9 4/8/10
f 4/8/10 6/10/9 10/11/11
s 3
f 15/13/12 8/14/13 11/12/14
f 11/12/14 8/14/13 12/15/15
s 4
f 13/17/16 7/18/17 9/16/18
f 9/16/18 7/18/17 3/19/19
s 5
f 20/20/20 27/21/21 2/4/22
f 2/4/22 27/21/21 14/5/23
s 6
f 24/22/24 31/23/25 4/8/26
f 4/8/26 31/23/25 16/9/27
s 7
f 22/24/28 29/25/29 11/12/30
f 11/12/30 29/25/29 15/13/31
s 8
f 5/6/32 26/26/33 1/7/34
f 1/7/34 26/26/33 17/27/35
s 9
f 20/20/36 19/28/37 27/21/38
f 27/21/38 19/28/37 28/29/39
s 10
f 19/28/40 10/11/41 28/29/42
f 28/29/42 10/11/41 6/10/43
s 11
f 24/92/44 23/30/45 31/94/46
f 31/94/46 23/30/45 32/31/47
s 12
f 23/30/48 12/15/49 32/31/50
f 32/31/50 12/15/49 8/14/51
s 13
f 22/24/52 21/32/53 29/25/54
f 29/25/54 21/32/53 30/33/55
s 14
f 21/32/56 3/19/57 30/33/58
f 30/33/58 3/19/57 7/18/59
s 15
f 25/34/60 18/35/61 26/26/62
f 26/26/62 18/35/61 17/27/63
s 16
f 13/109/64 9/108/65 25/34/66
f 25/34/66 9/108/65 18/35/67
s 17
f 9/86/68 3/89/69 33/37/70
f 33/37/70 3/89/69 34/36/71
s 18
f 3/89/72 21/104/73 34/36/74
f 34/36/74 21/104/73 35/38/75
s 19
f 22/96/76 36/39/77 21/104/78
f 21/104/78 36/39/77 35/38/79
s 20
f 11/82/80 37/40/81 22/96/82
f 22/96/82 37/40/81 36/39/83
s 21
f 12/85/84 38/41/85 11/82/86
f 11/82/86 38/41/85 37/40/87
s 22
f 12/85/88 23/102/89 38/41/90
f 38/41/90 23/102/89 39/42/91
s 23
f 24/93/92 40/43/93 23/102/94
f 23/102/94 40/43/93 39/42/95
s 24
f 4/78/96 41/44/97 24/93/98
f 24/93/98 41/44/97 40/43/99
s 25
f 4/78/100 10/81/101 41/44/102
f 41/44/102 10/81/101 42/45/103
s 26
f 10/81/104 19/100/105 42/45/106
f 42/45/106 19/100/105 43/46/107
s 27
f 19/100/108 20/90/109 43/46/110
f 43/46/110 20/90/109 44/47/111
s 28
f 2/74/112 45/48/113 20/90/114
f 20/90/114 45/48/113 44/47/115
s 29
f 2/74/116 1/77/117 45/48/118
f 45/48/118 1/77/117 46/49/119
s 30
f 1/77/120 17/99/121 46/49/122
f 46/49/122 17/99/121 47/50/123
s 31
f 17/99/124 18/107/125 47/50/126
f 47/50/126 18/107/125 48/51/127
s 32
f 9/86/128 33/37/129 18/107/130
f 18/107/130 33/37/129 48/51/131
s 33
f 33/37/132 34/36/133 52/2/134
f 52/2/134 34/36/133 49/52/135
s off
f 34/36/136 35/38/137 49/52/138
f 35/38/139 36/39/140 49/52/141
f 36/39/142 37/40/143 49/52/144
s 34
f 37/40/145 38/41/146 49/52/147
f 49/52/147 38/41/146 50/3/148
s off
f 38/41/149 39/42/150 50/3/151
f 39/42/152 40/43/153 50/3/154
f 40/43/155 41/44/156 50/3/157
s 35
f 41/44/158 42/45/159 50/3/160
f 50/3/160 42/45/159 51/1/161
s off
f 42/45/162 43/46/163 51/1/164
f 43/46/165 44/47/166 51/1/167
f 44/47/168 45/48/169 51/1/170
s 36
f 45/48/171 46/49/172 51/1/173
f 51/1/173 46/49/172 52/2/174
s off
f 46/49/175 47/50/176 52/2/177
f 47/50/178 48/51/179 52/2/180
f 48/51/181 33/37/182 52/2/183
s 37
f 16/79/184 54/53/185 6/80/186
f 6/80/186 54/53/185 53/54/187
s 38
f 31/95/188 55/55/189 16/79/190
f 16/79/190 55/55/189 54/53/191
s 39
f 32/103/192 56/56/193 31/95/194
f 31/95/194 56/56/193 55/55/195
s 40
f 32/103/196 8/84/197 56/56/198
f 56/56/198 8/84/197 57/57/199
s 41
f 15/83/200 58/58/201 8/84/202
f 8/84/202 58/58/201 57/57/203
s 42
f 29/97/204 59/59/205 15/83/206
f 15/83/206 59/59/205 58/58/207
s 43
f 29/97/208 30/105/209 59/59/210
f 59/59/210 30/105/209 60/60/211
s 44
f 30/105/212 7/88/213 60/60/214
f 60/60/214 7/88/213 61/61/215
s 45
f 13/87/216 62/62/217 7/88/218
f 7/88/218 62/62/217 61/61/219
s 46
f 25/106/220 63/63/221 13/87/222
f 13/87/222 63/63/221 62/62/223
s 47
f 26/98/224 64/64/225 25/106/226
f 25/106/226 64/64/225 63/63/227
s 48
f 26/98/228 5/76/229 64/64/230
f 64/64/230 5/76/229 65/65/231
s 49
f 14/75/232 66/66/233 5/76/234
f 5/76/234 66/66/233 65/65/235
s 50
f 27/91/236 67/67/237 14/75/238
f 14/75/238 67/67/237 66/66/239
s 51
f 27/91/240 28/101/241 67/67/242
f 67/67/242 28/101/241 68/68/243
s 52
f 28/101/244 6/80/245 68/68/246
f 68/68/246 6/80/245 53/54/247
s 53
f 53/54/248 54/53/249 72/70/250
f 72/70/250 54/53/249 69/69/251
s off
f 54/53/252 55/55/253 69/69/254
f 55/55/255 56/56/256 69/69/257
f 56/56/258 57/57/259 69/69/260
s 54
f 57/57/261 58/58/262 69/69/263
f 69/69/263 58/58/262 70/71/264
s off
f 58/58/265 59/59/266 70/71/267
f 59/59/268 60/60/269 70/71/270
f 60/60/271 61/61/272 70/71/273
s 55
f 61/61/274 62/62/275 70/71/276
f 70/71/276 62/62/275 71/72/277
s off
f 62/62/278 63/63/279 71/72/280
f 63/63/281 64/64/282 71/72/283
f 64/64/284 65/65/285 71/72/286
s 56
f 65/65/287 66/66/288 71/72/289
f 71/72/289 66/66/288 72/70/290
s off
f 66/66/291 67/67/292 72/70/293
f 67/67/294 68/68/295 72/70/296
f 68/68/297 53/54/298 72/70/299
f 72/70/300 69/69/301 73/73/302
f 69/69/303 70/71/304 73/73/305
f 70/71/306 71/72/307 73/73/308
f 71/72/309 72/70/310 73/73/311
f 52/2/312 49/52/313 50/3/314
s 57
f 75/110/315 103/111/316 74/113/317
f 74/113/317 103/111/316 80/112/318
s 58
f 79/114/319 99/115/320 102/117/321
f 102/117/321 99/115/320 76/116/322
s 59
f 98/118/323 104/119/324 77/121/325
f 77/121/325 104/119/324 81/120/326
s 60
f 78/122/327 100/123/328 105/125/329
f 105/125/329 100/123/328 101/124/330
s 61
f 135/188/331 130/195/332 90/190/333
f 90/190/333 130/195/332 91/197/334
s 62
f 130/194/335 136/164/336 91/196/337
f 91/196/337 136/164/336 92/167/338
s 63
f 133/158/339 93/159/340 136/165/341
f 136/165/341 93/159/340 92/166/342
s 64
f 133/152/343 135/189/344 93/153/345
f 93/153/345 135/189/344 90/191/346
s 65
f 132/170/347 134/177/348 94/172/349
f 94/172/349 134/177/348 95/179/350
s 66
f 131/183/351 96/185/352 134/176/353
f 134/176/353 96/185/352 95/178/354
s 67
f 131/182/355 137/148/356 96/184/357
f 96/184/357 137/148/356 97/149/358
s 68
f 137/154/359 132/171/360 97/155/361
f 97/155/361 132/171/360 94/173/362
s 69
f 74/113/363 82/126/364 75/110/365
f 75/110/365 82/126/364 107/127/366
s 70
f 99/115/367 83/128/368 76/116/369
f 76/116/369 83/128/368 108/129/370
s 71
f 100/123/371 84/130/372 101/124/373
f 101/124/373 84/130/372 109/131/374
s 72
f 85/132/375 106/133/376 77/121/377
f 77/121/377 106/133/376 98/118/378
s 73
f 102/117/379 86/134/380 79/114/381
f 79/114/381 86/134/380 111/135/382
s 74
f 87/136/383 112/137/384 103/111/385
f 103/111/385 112/137/384 80/112/386
s 75
f 88/138/387 113/139/388 104/119/389
f 104/119/389 113/139/388 81/120/390
s 76
f 89/140/391 110/141/392 105/125/393
f 105/125/393 110/141/392 78/122/394
s 77
f 90/190/395 91/197/396 82/126/397
f 82/126/397 91/197/396 107/127/398
s 78
f 83/128/399 91/196/400 108/129/401
f 108/129/401 91/196/400 92/167/402
s 79
f 84/130/403 92/166/404 109/131/405
f 109/131/405 92/166/404 93/159/406
s 80
f 85/132/407 93/153/408 106/133/409
f 106/133/409 93/153/408 90/191/410
s 81
f 86/134/411 94/172/412 111/135/413
f 111/135/413 94/172/412 95/179/414
s 82
f 87/136/415 95/178/416 112/137/417
f 112/137/417 95/178/416 96/185/418
s 83
f 96/184/419 97/149/420 88/138/421
f 88/138/421 97/149/420 113/139/422
s 84
f 97/155/423 94/173/424 89/140/425
f 89/140/425 94/173/424 110/141/426
s 85
f 79/114/427 119/142/428 99/115/429
f 99/115/429 119/142/428 115/143/430
s 86
f 98/118/431 114/144/432 104/119/433
f 104/119/433 114/144/432 120/145/434
s 87
f 76/116/435 116/146/436 102/117/437
f 102/117/437 116/146/436 118/147/438
s 88
f 81/120/439 121/150/440 77/121/441
f 77/121/441 121/150/440 117/151/442
s 89
f 114/144/443 122/193/444 74/113/445
f 74/113/445 122/193/444 82/126/446
s 90
f 115/143/447 123/198/448 99/115/449
f 99/115/449 123/198/448 83/128/450
s 91
f 116/146/451 124/168/452 100/123/453
f 100/123/453 124/168/452 84/130/454
s 92
f 117/151/455 125/157/456 77/121/457
f 77/121/457 125/157/456 85/132/458
s 93
f 118/147/459 126/174/460 102/117/461
f 102/117/461 126/174/460 86/134/462
s 94
f 119/142/463 127/180/464 103/111/465
f 103/111/465 127/180/464 87/136/466
s 95
f 120/145/467 128/186/468 104/119/469
f 104/119/469 128/186/468 88/138/470
s 96
f 121/161/471 129/162/472 105/125/473
f 105/125/473 129/162/472 89/140/474
s off
f 82/126/475 122/193/476 90/190/477
f 83/128/478 123/198/479 91/196/480
f 84/130/481 124/168/482 92/166/483
f 85/132/484 125/157/485 93/153/486
f 86/134/487 126/174/488 94/172/489
f 87/136/490 127/180/491 95/178/492
f 88/138/493 128/186/494 96/184/495
f 89/140/496 129/162/497 97/155/498
s 97
f 119/142/499 103/111/500 115/143/501
f 115/143/501 103/111/500 75/110/502
s 98
f 114/144/503 74/113/504 120/145/505
f 120/145/505 74/113/504 80/112/506
s 99
f 116/146/507 100/123/508 118/147/509
f 118/147/509 100/123/508 78/122/510
s 100
f 121/161/511 105/125/512 117/160/513
f 117/160/513 105/125/512 101/124/514
s 101
f 114/144/515 98/118/516 122/192/517
f 122/192/517 98/118/516 106/133/518
s 102
f 115/143/519 75/110/520 123/199/521
f 123/199/521 75/110/520 107/127/522
s 103
f 116/146/523 76/116/524 124/169/525
f 124/169/525 76/116/524 108/129/526
s 104
f 117/160/527 101/124/528 125/163/529
f 125/163/529 101/124/528 109/131/530
s 105
f 118/147/531 78/122/532 126/175/533
f 126/175/533 78/122/532 110/141/534
s 106
f 119/142/535 79/114/536 127/181/537
f 127/181/537 79/114/536 111/135/538
s 107
f 120/145/539 80/112/540 128/187/541
f 128/187/541 80/112/540 112/137/542
s 108
f 121/150/543 81/120/544 129/156/545
f 129/156/545 81/120/544 113/139/546
s off
f 122/192/547 106/133/548 90/191/549
f 123/199/550 107/127/551 91/197/552
f 124/169/553 108/129/554 92/167/555
f 125/163/556 109/131/557 93/159/558
f 126/175/559 110/141/560 94/173/561
f 127/181/562 111/135/563 95/179/564
f 128/187/565 112/137/566 96/185/567
f 129/156/568 113/139/569 97/149/570
s 109
f 130/244/571 135/251/572 138/200/573
f 138/200/573 135/251/572 141/203/574
s 110
f 132/247/575 142/205/576 134/250/577
f 134/250/577 142/205/576 139/201/578
s 111
f 154/207/579 143/204/580 153/206/581
f 153/206/581 143/204/580 138/200/582
s 112
f 133/248/583 144/235/584 135/252/585
f 135/252/585 144/235/584 141/243/586
s 113
f 158/211/587 145/234/588 157/232/589
f 157/232/589 145/234/588 140/242/590
s 114
f 132/247/591 137/255/592 142/205/593
f 142/205/593 137/255/592 145/208/594
s 115
f 146/212/595 144/235/596 154/240/597
f 154/240/597 144/235/596 143/236/598
s 116
f 139/201/599 159/213/600 140/238/601
f 140/238/601 159/213/600 157/210/602
s 117
f 138/200/603 141/239/604 153/206/605
f 153/206/605 141/239/604 160/214/606
s 118
f 139/201/607 142/205/608 159/213/609
f 159/213/609 142/205/608 161/215/610
s 119
f 141/243/611 144/235/612 160/233/613
f 160/233/613 144/235/612 146/212/614
s 120
f 142/237/615 145/234/616 161/241/617
f 161/241/617 145/234/616 158/211/618
s 121
f 155/217/619 158/211/620 149/216/621
f 149/216/621 158/211/620 157/232/622
s 122
f 146/212/623 154/225/624 156/219/625
f 156/219/625 154/225/624 151/218/626
s 123
f 148/220/627 149/216/628 159/226/629
f 159/226/629 149/216/628 157/232/630
s 124
f 160/233/631 150/221/632 153/224/633
f 153/224/633 150/221/632 147/222/634
s 125
f 160/233/635 146/212/636 150/221/637
f 150/221/637 146/212/636 156/219/638
s 126
f 158/211/639 155/217/640 161/227/641
f 161/227/641 155/217/640 152/223/642
s 127
f 152/231/643 155/217/644 148/229/645
f 148/229/645 155/217/644 149/216/646
s 128
f 156/219/647 151/228/648 150/221/649
f 150/221/649 151/228/648 147/230/650
s 129
f 139/201/651 140/202/652 134/250/653
f 134/250/653 140/202/652 131/245/654
s 130
f 138/200/655 143/204/656 130/244/657
f 130/244/657 143/204/656 136/253/658
s 131
f 137/254/659 131/246/660 145/234/661
f 131/246/660 140/242/662 145/234/661
s 132
f 143/204/663 144/209/664 136/253/665
f 136/253/665 144/209/664 133/249/666
s 133
f 162/256/667 164/257/668 163/259/669
f 163/259/669 164/257/668 165/258/670
s 134
f 166/260/671 167/261/672 168/263/673
f 168/263/673 167/261/672 169/262/674
s 135
f 163/289/675 165/288/676 167/261/677
f 167/261/677 165/288/676 169/262/678
s 136
f 164/257/679 162/256/680 168/263/681
f 168/263/681 162/256/680 166/260/682
s 137
f 170/264/683 171/265/684 173/267/685
f 173/267/685 171/265/684 172/266/686
s 138
f 174/268/687 175/269/688 177/271/689
f 177/271/689 175/269/688 176/270/690
s 139
f 173/267/691 172/266/692 175/269/693
f 175/269/693 172/266/692 176/270/694
s 140
f 171/291/695 170/290/696 177/271/697
f 177/271/697 170/290/696 174/268/698
s 141
f 178/272/699 179/273/700 181/275/701
f 181/275/701 179/273/700 180/274/702
s 142
f 182/276/703 183/277/704 185/279/705
f 185/279/705 183/277/704 184/278/706
s 143
f 181/275/707 180/274/708 183/292/709
f 183/292/709 180/274/708 184/293/710
s 144
f 179/273/711 178/272/712 185/279/713
f 185/279/713 178/272/712 182/276/714
s 145
f 186/280/715 187/281/716 189/283/717
f 189/283/717 187/281/716 188/282/718
s 146
f 190/284/719 191/285/720 193/287/721
f 193/287/721 191/285/720 192/286/722
s 147
f 189/283/723 188/282/724 191/285/725
f 191/285/725 188/282/724 192/286/726
s 148
f 187/281/727 186/280/728 193/295/729
f 193/295/729 186/280/728 190/294/730
s 149
f 194/296/731 195/297/732 197/299/733
f 197/299/733 195/297/732 196/298/734
s 150
f 198/300/735 199/301/736 201/303/737
f 201/303/737 199/301/736 200/302/738
s 151
f 197/312/739 196/298/740 199/324/741
f 199/324/741 196/298/740 200/302/742
s 152
f 195/297/743 194/322/744 201/303/745
f 201/303/745 194/322/744 198/323/746
s 153
f 194/304/747 197/305/748 202/307/749
f 202/307/749 197/305/748 203/306/750
s 154
f 197/305/751 199/313/752 203/306/753
f 203/306/753 199/313/752 204/314/754
s 155
f 199/313/755 198/320/756 204/314/757
f 204/314/757 198/320/756 205/321/758
s 156
f 198/320/759 194/304/760 205/321/761
f 205/321/761 194/304/760 202/307/762
s 157
f 196/298/763 195/297/764 206/310/765
f 206/310/765 195/297/764 207/311/766
s 158
f 195/297/767 201/303/768 207/311/769
f 207/311/769 201/303/768 208/317/770
s 159
f 201/303/771 200/302/772 208/317/773
f 208/317/773 200/302/772 209/319/774
s 160
f 200/302/775 196/298/776 209/319/777
f 209/319/777 196/298/776 206/310/778
s 161
f 202/308/779 203/309/780 207/311/781
f 207/311/781 203/309/780 206/310/782
s 162
f 203/306/783 204/314/784 206/318/785
f 206/318/785 204/314/784 209/315/786
s 163
f 204/326/787 205/316/788 209/319/789
f 209/319/789 205/316/788 208/317/790
s 164
f 205/321/791 202/307/792 208/327/793
f 208/327/793 202/307/792 207/325/794
s 165
f 210/328/795 234/329/796 236/331/797
f 236/331/797 234/329/796 235/330/798
s 166
f 211/332/799 212/333/800 237/335/801
f 237/335/801 212/333/800 213/334/802
s 167
f 235/330/803 234/329/804 216/337/805
f 216/337/805 234/329/804 240/336/806
s 168
f 224/339/807 240/336/808 221/338/809
f 221/338/809 240/336/808 234/329/810
s 169
f 237/335/811 213/334/812 241/341/813
f 241/341/813 213/334/812 217/340/814
s 170
f 233/343/815 217/340/816 228/342/817
f 228/342/817 217/340/816 213/334/818
s 171
f 214/344/819 238/345/820 240/336/821
f 240/336/821 238/345/820 216/337/822
s 172
f 238/365/823 222/346/824 216/381/825
f 216/381/825 222/346/824 225/347/826
s 173
f 239/348/827 215/349/828 217/340/829
f 217/340/829 215/349/828 241/341/830
s 174
f 231/350/831 232/351/832 215/368/833
f 215/368/833 232/351/832 241/377/834
s 175
f 213/334/835 212/363/836 228/342/837
f 228/342/837 212/363/836 226/352/838
s 176
f 211/362/839 237/335/840 227/353/841
f 227/353/841 237/335/840 229/354/842
s 177
f 237/335/843 241/341/844 229/354/845
f 229/354/845 241/341/844 232/379/846
s 178
f 235/330/847 216/337/848 220/355/849
f 220/355/849 216/337/848 225/383/850
s 179
f 239/367/851 217/376/852 230/356/853
f 230/356/853 217/376/852 233/378/854
s 180
f 223/357/855 214/364/856 224/382/857
f 224/382/857 214/364/856 240/380/858
s 181
f 225/383/859 222/366/860 220/355/861
f 220/355/861 222/366/860 218/358/862
s 182
f 223/373/863 224/339/864 219/359/865
f 219/359/865 224/339/864 221/338/866
s 183
f 229/354/867 232/379/868 227/371/869
f 227/371/869 232/379/868 231/369/870
s 184
f 226/370/871 230/372/872 228/342/873
f 228/342/873 230/372/872 233/343/874
s 185
f 236/361/875 235/330/876 218/374/877
f 218/374/877 235/330/876 220/355/878
s 186
f 219/375/879 221/338/880 210/360/881
f 210/360/881 221/338/880 234/329/882
s 187
f 245/385/883 247/386/884 244/384/885
f 244/384/885 247/386/884 256/387/886
s 188
f 259/389/887 260/390/888 250/388/889
f 250/388/889 260/390/888 261/391/890
s 189
f 255/393/891 254/394/892 248/392/893
f 248/392/893 254/394/892 249/395/894
s 190
f 255/393/895 248/392/896 257/397/897
f 257/397/897 248/392/896 243/396/898
s 191
f 254/394/899 246/398/900 249/395/901
f 249/395/901 246/398/900 242/399/902
s 192
f 248/406/903 252/400/904 243/404/905
f 243/404/905 252/400/904 251/401/906
s 193
f 249/407/907 253/402/908 248/406/909
f 248/406/909 253/402/908 252/400/910
s 194
f 249/407/911 242/405/912 253/402/913
f 253/402/913 242/405/912 258/403/914
s 195
f 259/389/915 251/410/916 260/390/917
f 260/390/917 251/410/916 252/400/918
s 196
f 253/402/919 258/411/920 261/391/921
f 261/391/921 258/411/920 250/388/922
s 197
f 256/387/923 246/409/924 244/384/925
f 244/384/925 246/409/924 254/394/926
s 198
f 255/393/927 257/408/928 245/385/929
f 245/385/929 257/408/928 247/386/930
s 199
f 245/385/931 244/384/932 255/393/933
f 255/393/933 244/384/932 254/394/934
s 200
f 261/391/935 260/390/936 253/402/937
f 253/402/937 260/390/936 252/400/938
s 201
f 263/413/939 264/414/940 262/412/941
f 262/412/941 264/414/940 265/415/942
s 202
f 267/417/943 268/418/944 266/416/945
f 266/416/945 268/418/944 269/419/946
s 203
f 271/421/947 272/422/948 270/420/949
f 270/420/949 272/422/948 273/423/950
s 204
f 271/421/951 270/420/952 275/425/953
f 275/425/953 270/420/952 274/424/954
s 205
f 272/422/955 276/426/956 273/423/957
f 273/423/957 276/426/956 277/427/958
s 206
f 270/429/959 278/430/960 274/428/961
f 274/428/961 278/430/960 279/431/962
s 207
f 273/432/963 280/433/964 270/429/965
f 270/429/965 280/433/964 278/430/966
s 208
f 273/432/967 277/434/968 280/433/969
f 280/433/969 277/434/968 281/435/970
s 209
f 267/417/971 279/436/972 268/418/973
f 268/418/973 279/436/972 278/430/974
s 210
f 280/433/975 281/437/976 269/419/977
f 269/419/977 281/437/976 266/416/978
s 211
f 265/415/979 276/438/980 262/412/981
f 262/412/981 276/438/980 272/422/982
s 212
f 271/421/983 275/439/984 263/413/985
f 263/413/985 275/439/984 264/414/986
s 213
f 263/413/987 262/412/988 271/421/989
f 271/421/989 262/412/988 272/422/990
s 214
f 269/419/991 268/418/992 280/433/993
f 280/433/993 268/418/992 278/430/994
s 215
f 283/441/995 284/442/996 282/440/997
f 282/440/997 284/442/996 285/443/998
s 216
f 287/445/999 288/446/1000 286/444/1001
f 286/444/1001 288/446/1000 289/447/1002
s 217
f 282/440/1003 290/448/1004 283/441/1005
f 283/441/1005 290/448/1004 291/449/1006
s 218
f 288/446/1007 292/450/1008 289/447/1009
f 289/447/1009 292/450/1008 293/451/1010
s 219
f 295/453/1011 291/449/1012 294/452/1013
f 294/452/1013 291/449/1012 290/448/1014
s 220
f 297/455/1015 293/451/1016 296/454/1017
f 296/454/1017 293/451/1016 292/450/1018
s 221
f 301/457/1019 303/458/1020 300/456/1021
f 300/456/1021 303/458/1020 312/459/1022
s 222
f 315/461/1023 316/462/1024 306/460/1025
f 306/460/1025 316/462/1024 317/463/1026
s 223
f 311/465/1027 310/466/1028 304/464/1029
f 304/464/1029 310/466/1028 305/467/1030
s 224
f 311/465/1031 304/464/1032 313/469/1033
f 313/469/1033 304/464/1032 299/468/1034
s 225
f 310/466/1035 302/470/1036 305/467/1037
f 305/467/1037 302/470/1036 298/471/1038
s 226
f 304/478/1039 308/472/1040 299/476/1041
f 299/476/1041 308/472/1040 307/473/1042
s 227
f 305/479/1043 309/474/1044 304/478/1045
f 304/478/1045 309/474/1044 308/472/1046
s 228
f 305/479/1047 298/477/1048 309/474/1049
f 309/474/1049 298/477/1048 314/475/1050
s 229
f 315/461/1051 307/482/1052 316/462/1053
f 316/462/1053 307/482/1052 308/472/1054
s 230
f 309/474/1055 314/483/1056 317/463/1057
f 317/463/1057 314/483/1056 306/460/1058
s 231
f 312/459/1059 302/481/1060 300/456/1061
f 300/456/1061 302/481/1060 310/466/1062
s 232
f 311/465/1063 313/480/1064 301/457/1065
f 301/457/1065 313/480/1064 303/458/1066
s 233
f 301/457/1067 300/456/1068 311/465/1069
f 311/465/1069 300/456/1068 310/466/1070
s 234
f 317/463/1071 316/462/1072 309/474/1073
f 309/474/1073 316/462/1072 308/472/1074
s 235
f 319/485/1075 320/486/1076 318/484/1077
f 318/484/1077 320/486/1076 321/487/1078
s 236
f 323/489/1079 324/490/1080 322/488/1081
f 322/488/1081 324/490/1080 325/491/1082
s 237
f 327/493/1083 328/494/1084 326/492/1085
f 326/492/1085 328/494/1084 329/495/1086
s 238
f 327/493/1087 326/492/1088 331/497/1089
f 331/497/1089 326/492/1088 330/496/1090
s 239
f 328/494/1091 332/498/1092 329/495/1093
f 329/495/1093 332/498/1092 333/499/1094
s 240
f 326/501/1095 334/502/1096 330/500/1097
f 330/500/1097 334/502/1096 335/503/1098
s 241
f 329/504/1099 336/505/1100 326/501/1101
f 326/501/1101 336/505/1100 334/502/1102
s 242
f 329/504/1103 333/506/1104 336/505/1105
f 336/505/1105 333/506/1104 337/507/1106
s 243
f 323/489/1107 335/508/1108 324/490/1109
f 324/490/1109 335/508/1108 334/502/1110
s 244
f 336/505/1111 337/509/1112 325/491/1113
f 325/491/1113 337/509/1112 322/488/1114
s 245
f 321/487/1115 332/510/1116 318/484/1117
f 318/484/1117 332/510/1116 328/494/1118
s 246
f 327/493/1119 331/511/1120 319/485/1121
f 319/485/1121 331/511/1120 320/486/1122
s 247
f 319/485/1123 318/484/1124 327/493/1125
f 327/493/1125 318/484/1124 328/494/1126
s 248
f 325/491/1127 324/490/1128 336/505/1129
f 336/505/1129 324/490/1128 334/502/1130
s 249
f 347/513/1131 342/514/1132 338/512/1133
f 338/512/1133 342/514/1132 350/515/1134
s 250
f 347/513/1135 339/516/1136 342/514/1137
f 342/514/1137 339/516/1136 348/517/1138
s 251
f 349/519/1139 342/514/1140 341/518/1141
f 341/518/1141 342/514/1140 348/517/1142
s 252
f 349/519/1143 340/520/1144 342/514/1145
f 342/514/1145 340/520/1144 350/515/1146
s 253
f 347/513/1147 343/521/1148 339/516/1149
f 339/516/1149 343/521/1148 351/522/1150
s 254
f 347/513/1151 338/512/1152 343/521/1153
f 343/521/1153 338/512/1152 352/523/1154
s 255
f 348/517/1155 344/524/1156 341/518/1157
f 341/518/1157 344/524/1156 353/525/1158
s 256
f 348/517/1159 339/516/1160 344/524/1161
f 344/524/1161 339/516/1160 351/546/1162
s 257
f 349/519/1163 345/526/1164 340/520/1165
f 340/520/1165 345/526/1164 354/527/1166
s 258
f 349/519/1167 341/518/1168 345/526/1169
f 345/526/1169 341/518/1168 353/548/1170
s 259
f 350/515/1171 346/528/1172 338/512/1173
f 338/512/1173 346/528/1172 352/547/1174
s 260
f 350/515/1175 340/520/1176 346/528/1177
f 346/528/1177 340/520/1176 354/549/1178
s 261
f 364/530/1179 359/531/1180 355/529/1181
f 355/529/1181 359/531/1180 367/532/1182
s 262
f 364/530/1183 356/533/1184 359/531/1185
f 359/531/1185 356/533/1184 365/534/1186
s 263
f 366/536/1187 359/531/1188 358/535/1189
f 358/535/1189 359/531/1188 365/534/1190
s 264
f 366/536/1191 357/537/1192 359/531/1193
f 359/531/1193 357/537/1192 367/532/1194
s 265
f 364/530/1195 360/538/1196 356/533/1197
f 356/533/1197 360/538/1196 368/539/1198
s 266
f 364/530/1199 355/529/1200 360/538/1201
f 360/538/1201 355/529/1200 369/540/1202
s 267
f 365/534/1203 361/541/1204 358/535/1205
f 358/535/1205 361/541/1204 370/542/1206
s 268
f 365/534/1207 356/533/1208 361/541/1209
f 361/541/1209 356/533/1208 368/550/1210
s 269
f 366/536/1211 362/543/1212 357/537/1213
f 357/537/1213 362/543/1212 371/544/1214
s 270
f 366/536/1215 358/535/1216 362/543/1217
f 362/543/1217 358/535/1216 370/552/1218
s 271
f 367/532/1219 363/545/1220 355/529/1221
f 355/529/1221 363/545/1220 369/551/1222
s 272
f 367/532/1223 357/537/1224 363/545/1225
f 363/545/1225 357/537/1224 371/553/1226
s 273
f 373/555/1227 374/556/1228 372/554/1229
f 372/554/1229 374/556/1228 375/557/1230
s 274
f 373/555/1231 376/558/1232 374/556/1233
f 374/556/1233 376/558/1232 377/559/1234
s 275
f 379/561/1235 374/556/1236 378/560/1237
f 378/560/1237 374/556/1236 377/559/1238
s 276
f 379/561/1239 380/562/1240 374/556/1241
f 374/556/1241 380/562/1240 375/557/1242
s 277
f 373/555/1243 381/563/1244 376/558/1245
f 376/558/1245 381/563/1244 382/564/1246
s 278
f 373/555/1247 372/554/1248 381/563/1249
f 381/563/1249 372/554/1248 383/565/1250
s 279
f 377/559/1251 384/566/1252 378/560/1253
f 378/560/1253 384/566/1252 385/567/1254
s 280
f 377/559/1255 376/558/1256 384/566/1257
f 384/566/1257 376/558/1256 382/568/1258
s 281
f 379/561/1259 386/569/1260 380/562/1261
f 380/562/1261 386/569/1260 387/570/1262
s 282
f 379/561/1263 378/560/1264 386/569/1265
f 386/569/1265 378/560/1264 385/571/1266
s 283
f 375/557/1267 388/572/1268 372/554/1269
f 372/554/1269 388/572/1268 383/573/1270
s 284
f 375/557/1271 380/562/1272 388/572/1273
f 388/572/1273 380/562/1272 387/574/1274
s 285
f 390/576/1275 391/577/1276 389/575/1277
f 389/575/1277 391/577/1276 392/578/1278
s 286
f 390/576/1279 393/579/1280 391/577/1281
f 391/577/1281 393/579/1280 394/580/1282
s 287
f 396/582/1283 391/577/1284 395/581/1285
f 395/581/1285 391/577/1284 394/580/1286
s 288
f 396/582/1287 397/583/1288 391/577/1289
f 391/577/1289 397/583/1288 392/578/1290
s 289
f 390/576/1291 398/584/1292 393/579/1293
f 393/579/1293 398/584/1292 399/585/1294
s 290
f 390/576/1295 389/575/1296 398/584/1297
f 398/584/1297 389/575/1296 400/586/1298
s 291
f 394/580/1299 401/587/1300 395/581/1301
f 395/581/1301 401/587/1300 402/588/1302
s 292
f 394/580/1303 393/579/1304 401/587/1305
f 401/587/1305 393/579/1304 399/589/1306
s 293
f 396/582/1307 403/590/1308 397/583/1309
f 397/583/1309 403/590/1308 404/591/1310
s 294
f 396/582/1311 395/581/1312 403/590/1313
f 403/590/1313 395/581/1312 402/592/1314
s 295
f 392/578/1315 405/593/1316 389/575/1317
f 389/575/1317 405/593/1316 400/594/1318
s 296
f 392/578/1319 397/583/1320 405/593/1321
f 405/593/1321 397/583/1320 404/595/1322
