# This file uses feet as units for non-parametric coordinates.

g default
v 10.563004 7.349555 -0.000061
v 9.759018 7.349555 -4.042298
v 9.759018 77.934753 -4.042301
v 10.563004 77.934753 -0.000064
v 7.469193 7.349555 -7.469300
v 7.469193 77.934753 -7.469303
v 4.042313 7.349555 -9.758972
v 4.042313 77.934753 -9.758976
v 0.000000 7.349555 -10.563049
v 0.000000 77.934753 -10.563053
v -4.042297 7.349555 -9.758972
v -4.042297 77.934753 -9.758976
v -7.469193 7.349555 -7.469300
v -7.469193 77.934753 -7.469303
v -9.759003 7.349555 -4.042298
v -9.759003 77.934753 -4.042301
v -10.562988 7.349555 -0.000061
v -10.562988 77.934753 -0.000064
v -9.759003 7.349555 4.042236
v -9.759003 77.934753 4.042233
v -7.469193 7.349555 7.469116
v -7.469193 77.934753 7.469113
v -4.042297 7.349555 9.758942
v -4.042297 77.934753 9.758938
v 0.000000 7.349555 10.562927
v 0.000000 77.934753 10.562923
v 4.042313 7.349555 9.758942
v 4.042313 77.934753 9.758938
v 7.469193 7.349555 7.469116
v 7.469193 77.934753 7.469113
v 9.759018 7.349555 4.042236
v 9.759018 77.934753 4.042233
v 37.907700 77.583755 -0.000064
v 36.616013 77.583755 -9.811344
v 32.829117 77.583755 -18.953861
v 26.804794 77.583755 -26.804874
v 18.953812 77.583755 -32.829166
v 9.811203 77.583755 -36.616093
v 0.000000 77.583755 -37.907780
v -9.811295 77.583755 -36.616093
v -18.953888 77.583755 -32.829166
v -26.804794 77.583755 -26.804874
v -32.828995 77.583755 -18.953861
v -36.615997 77.583755 -9.811344
v -37.907700 77.583755 -0.000064
v -36.615997 77.583755 9.811214
v -32.829102 77.583755 18.953823
v -26.804794 77.583755 26.804714
v -18.953888 77.583755 32.829037
v -9.811295 77.583755 36.616024
v -0.000092 77.583755 37.907742
v 9.811203 77.583755 36.616024
v 18.953812 77.583755 32.829037
v 26.804794 77.583755 26.804714
v 32.828995 77.583755 18.953823
v 36.616013 77.583755 9.811214
v -9.811295 82.982056 -36.616093
v 0.000000 82.982056 -37.907780
v 9.811295 82.982056 -36.616093
v 18.953812 82.982056 -32.829166
v 26.804794 82.982056 -26.804874
v 32.829117 82.982056 -18.953861
v 36.616013 82.982056 -9.811344
v 37.907700 82.982056 -0.000065
v 36.616013 82.982056 9.811214
v 32.828995 82.982056 18.953823
v 26.804794 82.982056 26.804714
v 18.953812 82.982056 32.829037
v 9.811203 82.982056 36.616024
v -0.000092 82.982056 37.907742
v -9.811295 82.982056 36.616024
v -18.953888 82.982056 32.829037
v -26.804794 82.982056 26.804714
v -32.829102 82.982056 18.953823
v -36.615997 82.982056 9.811214
v -37.907700 82.982056 -0.000065
v -36.615997 82.982056 -9.811344
v -32.828995 82.982056 -18.953861
v -26.804794 82.982056 -26.804874
v -18.953888 82.982056 -32.829166
v 37.520401 83.594452 -0.008549
v 36.241898 83.594452 -9.407658
v 32.493607 83.594452 -18.166386
v 26.530899 83.594452 -25.687565
v 18.760208 83.594452 -31.458744
v 9.711014 83.594452 -35.086552
v 0.000000 83.594452 -36.324100
v -9.710999 83.594452 -35.086552
v -18.760193 83.594452 -31.458744
v -26.530991 83.594452 -25.687565
v -32.493591 83.594452 -18.166386
v -36.241898 83.594452 -9.407658
v -37.520401 83.594452 -0.008549
v -36.241898 83.594452 9.390621
v -32.493698 83.594452 18.149227
v -26.530991 83.594452 25.670437
v -18.760193 83.594452 31.441616
v -9.710999 83.594452 35.069637
v -0.000092 83.594452 36.306942
v 9.710892 83.594452 35.069637
v 18.760117 83.594452 31.441616
v 26.530899 83.594452 25.670437
v 32.493607 83.594452 18.149227
v 36.241898 83.594452 9.390621
v 24.382309 39.870457 0.612242
v 23.551498 39.870457 -5.698244
v 23.551498 41.820755 -5.698244
v 24.382309 41.820755 0.612242
v 21.115707 39.870457 -11.578859
v 21.115707 41.820755 -11.578859
v 17.240891 39.870457 -16.628542
v 17.240891 41.820755 -16.628542
v 12.191116 39.870457 -20.503359
v 12.191116 41.820755 -20.503359
v 6.310593 39.870457 -22.939150
v 6.310593 41.820755 -22.939150
v 0.000000 39.870457 -23.770082
v 0.000000 41.820755 -23.770082
v -6.310593 39.870457 -22.939150
v -6.310593 41.820755 -22.939150
v -12.191193 39.870457 -20.503359
v -12.191193 41.820755 -20.503359
v -17.240891 39.870457 -16.628542
v -17.240891 41.820755 -16.628542
v -21.115692 39.870457 -11.578859
v -21.115692 41.820755 -11.578859
v -23.551498 39.870457 -5.698244
v -23.551498 41.820755 -5.698244
v -24.382294 39.870457 0.612242
v -24.382294 41.820755 0.612242
v -23.551498 39.870457 6.922819
v -23.551498 41.820755 6.922819
v -21.115692 39.870457 12.803434
v -21.115692 41.820755 12.803434
v -17.240891 39.870457 17.853117
v -17.240891 41.820755 17.853117
v -12.191193 39.870457 21.727934
v -12.191193 41.820755 21.727934
v -6.310593 39.870457 24.163725
v -6.310593 41.820755 24.163725
v 0.000000 39.870457 24.994535
v 0.000000 41.820755 24.994535
v 6.310593 39.870457 24.163725
v 6.310593 41.820755 24.163725
v 12.191116 39.870457 21.727934
v 12.191116 41.820755 21.727934
v 17.240891 39.870457 17.853117
v 17.240891 41.820755 17.853117
v 21.115707 39.870457 12.803434
v 21.115707 41.820755 12.803434
v 23.551498 39.870457 6.922941
v 23.551498 41.820755 6.922941
v 20.657120 -0.000145 0.612244
v 19.953201 -0.000145 -4.734192
v 19.953201 9.669155 -4.734192
v 20.657120 9.669155 0.612243
v 17.889603 -0.000145 -9.716248
v 17.889603 9.669155 -9.716248
v 14.606796 -0.000146 -13.994568
v 14.606796 9.669154 -13.994568
v 10.328506 -0.000146 -17.277344
v 10.328506 9.669154 -17.277344
v 5.346390 -0.000146 -19.340942
v 5.346390 9.669154 -19.340942
v 0.000000 -0.000146 -20.044739
v 0.000000 9.669154 -20.044739
v -5.346497 -0.000146 -19.340942
v -5.346497 9.669154 -19.340942
v -10.328598 -0.000146 -17.277344
v -10.328598 9.669154 -17.277344
v -14.606796 -0.000146 -13.994568
v -14.606796 9.669154 -13.994568
v -17.889603 -0.000145 -9.716248
v -17.889603 9.669155 -9.716248
v -19.953293 -0.000145 -4.734192
v -19.953293 9.669155 -4.734192
v -20.657089 -0.000145 0.612244
v -20.657089 9.669155 0.612243
v -19.953293 -0.000145 5.958740
v -19.953293 9.669155 5.958740
v -17.889603 -0.000144 10.940826
v -17.889603 9.669156 10.940826
v -14.606796 -0.000144 15.219025
v -14.606796 9.669156 15.219025
v -10.328598 -0.000144 18.501831
v -10.328598 9.669156 18.501831
v -5.346497 -0.000144 20.565521
v -5.346497 9.669156 20.565521
v 0.000000 -0.000144 21.269318
v 0.000000 9.669156 21.269318
v 5.346390 -0.000144 20.565521
v 5.346390 9.669156 20.565521
v 10.328506 -0.000144 18.501831
v 10.328506 9.669156 18.501831
v 14.606705 -0.000144 15.219025
v 14.606705 9.669156 15.219025
v 17.889511 -0.000144 10.940826
v 17.889511 9.669156 10.940826
v 19.953201 -0.000145 5.958740
v 19.953201 9.669155 5.958740
vt 0.551500 0.316100
vt 0.585400 0.316100
vt 0.585400 0.712200
vt 0.551500 0.712200
vt 0.619200 0.316100
vt 0.619200 0.712200
vt 0.653200 0.316100
vt 0.653200 0.712200
vt 0.687000 0.316100
vt 0.687000 0.712200
vt 0.721000 0.316100
vt 0.721000 0.712200
vt 0.754800 0.316100
vt 0.754800 0.712200
vt 0.788700 0.316100
vt 0.788700 0.712200
vt 0.822600 0.316100
vt 0.822600 0.712200
vt 0.856500 0.316100
vt 0.856500 0.712200
vt 0.890200 0.316100
vt 0.890200 0.712200
vt 0.924000 0.316100
vt 0.924000 0.712200
vt 0.958000 0.316100
vt 0.958000 0.712200
vt 0.991800 0.316100
vt 0.991800 0.712200
vt 0.450000 0.316100
vt 0.483700 0.316100
vt 0.483700 0.712200
vt 0.450000 0.712200
vt 0.517600 0.316100
vt 0.517600 0.712200
vt 0.236500 0.591300
vt 0.287100 0.597800
vt 0.334300 0.617300
vt 0.434600 0.427900
vt 0.413900 0.477900
vt 0.380900 0.521000
vt 0.338000 0.553900
vt 0.287900 0.574700
vt 0.234200 0.581700
vt 0.180500 0.574700
vt 0.130400 0.553900
vt 0.087500 0.521000
vt 0.054500 0.477900
vt 0.033800 0.427900
vt 0.026700 0.374200
vt 0.033800 0.320600
vt 0.054500 0.270500
vt 0.087500 0.227500
vt 0.130400 0.194500
vt 0.180500 0.173800
vt 0.234200 0.166800
vt 0.287900 0.173800
vt 0.338000 0.194500
vt 0.024100 0.666600
vt 0.380900 0.227500
vt 0.413900 0.270500
vt 0.434600 0.320600
vt 0.441700 0.374200
vt 0.189200 0.987400
vt 0.140200 0.967300
vt 0.098100 0.935400
vt 0.065700 0.893800
vt 0.045100 0.845200
vt 0.037700 0.793000
vt 0.043900 0.740700
vt 0.063500 0.691700
vt 0.095000 0.649400
vt 0.136400 0.616600
vt 0.184900 0.595400
vt 0.237400 0.587700
vt 0.289900 0.594300
vt 0.024100 0.708300
vt 0.338900 0.614300
vt 0.381000 0.646300
vt 0.413400 0.687900
vt 0.434100 0.736500
vt 0.441500 0.788600
vt 0.435200 0.841000
vt 0.415700 0.889900
vt 0.384100 0.932300
vt 0.342800 0.965100
vt 0.294200 0.986200
vt 0.241800 0.993900
vt 0.001300 0.708300
vt 0.001300 0.666600
vt 0.024000 0.749900
vt 0.001300 0.749900
vt 0.024000 0.791500
vt 0.001300 0.791500
vt 0.024000 0.833300
vt 0.001200 0.833200
vt 0.024000 0.874900
vt 0.001200 0.874900
vt 0.023900 0.916600
vt 0.001200 0.916600
vt 0.023900 0.958200
vt 0.001100 0.958200
vt 0.023800 0.999900
vt 0.001100 0.999900
vt 0.023000 0.041600
vt 0.000300 0.041700
vt 0.023100 0.083400
vt 0.000400 0.083400
vt 0.023300 0.125000
vt 0.000500 0.125000
vt 0.023400 0.166700
vt 0.000600 0.166700
vt 0.023500 0.208300
vt 0.000700 0.208300
vt 0.023600 0.250000
vt 0.000800 0.250100
vt 0.023700 0.291600
vt 0.000900 0.291700
vt 0.023800 0.333300
vt 0.001000 0.333400
vt 0.023800 0.374900
vt 0.001100 0.375000
vt 0.023900 0.416600
vt 0.001200 0.416600
vt 0.024000 0.458300
vt 0.001200 0.458300
vt 0.024000 0.499900
vt 0.001300 0.499900
vt 0.024000 0.541600
vt 0.001300 0.541600
vt 0.024100 0.583200
vt 0.001300 0.583200
vt 0.024100 0.625000
vt 0.001300 0.625000
vt 0.022900 0.000000
vt 0.000100 0.000100
vt 0.241700 0.990100
vt 0.191700 0.983800
vt 0.145000 0.964400
vt 0.104700 0.933200
vt 0.073600 0.892300
vt 0.053800 0.844400
vt 0.046700 0.792900
vt 0.052700 0.741300
vt 0.071400 0.693000
vt 0.101600 0.651400
vt 0.141200 0.619300
vt 0.187500 0.598900
vt 0.374300 0.648500
vt 0.405400 0.689400
vt 0.425200 0.737200
vt 0.432400 0.788700
vt 0.426400 0.840400
vt 0.407600 0.888600
vt 0.377400 0.930200
vt 0.337800 0.962300
vt 0.291500 0.982700
vt 0.894300 0.724800
vt 0.926500 0.738100
vt 0.547800 0.981500
vt 0.515600 0.968100
vt 0.954100 0.759400
vt 0.488000 0.946900
vt 0.975400 0.787000
vt 0.466800 0.919300
vt 0.988600 0.819200
vt 0.453500 0.887100
vt 0.993200 0.853800
vt 0.448900 0.852500
vt 0.988600 0.888300
vt 0.453500 0.818000
vt 0.975400 0.920500
vt 0.466800 0.785800
vt 0.954100 0.948100
vt 0.488000 0.758200
vt 0.926500 0.969300
vt 0.515600 0.737000
vt 0.894300 0.982700
vt 0.547800 0.723600
vt 0.859700 0.987200
vt 0.582400 0.719100
vt 0.825300 0.982700
vt 0.616900 0.723600
vt 0.793000 0.969300
vt 0.649100 0.737000
vt 0.765300 0.948100
vt 0.676800 0.758200
vt 0.744200 0.920500
vt 0.697900 0.785800
vt 0.730900 0.888300
vt 0.711200 0.818000
vt 0.726300 0.853800
vt 0.715800 0.852500
vt 0.730900 0.819200
vt 0.711200 0.887100
vt 0.463200 0.064700
vt 0.697900 0.919300
vt 0.744200 0.787000
vt 0.765300 0.759400
vt 0.676800 0.946900
vt 0.489900 0.064700
vt 0.793000 0.738100
vt 0.649100 0.968100
vt 0.825300 0.724800
vt 0.616900 0.981500
vt 0.859700 0.720200
vt 0.582400 0.986000
vt 0.489900 0.072900
vt 0.463200 0.072900
vt 0.516700 0.064700
vt 0.516700 0.073000
vt 0.543500 0.064700
vt 0.543500 0.073000
vt 0.570200 0.064700
vt 0.570200 0.073000
vt 0.597000 0.064700
vt 0.597000 0.072900
vt 0.623800 0.064700
vt 0.623800 0.072900
vt 0.650500 0.064700
vt 0.650600 0.072900
vt 0.677400 0.064600
vt 0.677400 0.072900
vt 0.061100 0.065100
vt 0.061100 0.073400
vt 0.088000 0.065000
vt 0.088100 0.073200
vt 0.114900 0.064800
vt 0.114900 0.073100
vt 0.141700 0.064700
vt 0.141700 0.072900
vt 0.168500 0.064600
vt 0.168500 0.072800
vt 0.195200 0.064500
vt 0.195300 0.072700
vt 0.222000 0.064400
vt 0.222000 0.072600
vt 0.248800 0.064400
vt 0.248800 0.072600
vt 0.275500 0.064300
vt 0.275500 0.072500
vt 0.302300 0.064300
vt 0.302300 0.072500
vt 0.329100 0.064300
vt 0.329100 0.072600
vt 0.355900 0.064400
vt 0.355900 0.072600
vt 0.382800 0.064500
vt 0.382700 0.072700
vt 0.409600 0.064500
vt 0.409600 0.072800
vt 0.436400 0.064600
vt 0.436300 0.072900
vt 0.034300 0.065300
vt 0.034300 0.073500
vt 0.632600 0.305000
vt 0.605200 0.293700
vt 0.909600 0.005400
vt 0.936900 0.016700
vt 0.581900 0.275800
vt 0.960300 0.034600
vt 0.563900 0.252400
vt 0.978200 0.058000
vt 0.552600 0.225100
vt 0.989600 0.085300
vt 0.548700 0.195900
vt 0.993400 0.114500
vt 0.552600 0.166600
vt 0.989600 0.143800
vt 0.563900 0.139400
vt 0.978200 0.171100
vt 0.581900 0.115900
vt 0.960300 0.194500
vt 0.605200 0.097900
vt 0.936900 0.212500
vt 0.632600 0.086600
vt 0.909600 0.223800
vt 0.661900 0.082700
vt 0.880300 0.227700
vt 0.691100 0.086600
vt 0.851100 0.223800
vt 0.718400 0.097900
vt 0.823800 0.212500
vt 0.741800 0.115900
vt 0.800400 0.194500
vt 0.759700 0.139400
vt 0.782400 0.171100
vt 0.771000 0.166600
vt 0.771100 0.143800
vt 0.774900 0.195900
vt 0.767300 0.114500
vt 0.771000 0.225100
vt 0.771100 0.085300
vt 0.403400 0.008900
vt 0.782400 0.058000
vt 0.759700 0.252400
vt 0.741800 0.275800
vt 0.800400 0.034600
vt 0.426100 0.008900
vt 0.718400 0.293700
vt 0.823800 0.016700
vt 0.691100 0.305000
vt 0.851100 0.005400
vt 0.661900 0.308900
vt 0.880300 0.001500
vt 0.426100 0.049600
vt 0.403400 0.049600
vt 0.448800 0.008900
vt 0.448800 0.049600
vt 0.471500 0.008900
vt 0.471500 0.049600
vt 0.494200 0.008900
vt 0.494200 0.049600
vt 0.516900 0.008900
vt 0.516900 0.049600
vt 0.539500 0.008900
vt 0.539500 0.049600
vt 0.562300 0.008900
vt 0.562300 0.049600
vt 0.585000 0.008900
vt 0.585000 0.049600
vt 0.062900 0.008900
vt 0.062900 0.049500
vt 0.085500 0.008900
vt 0.085500 0.049500
vt 0.108300 0.008900
vt 0.108200 0.049600
vt 0.131000 0.008900
vt 0.131000 0.049600
vt 0.153700 0.008900
vt 0.153700 0.049600
vt 0.176400 0.008900
vt 0.176400 0.049600
vt 0.199100 0.008900
vt 0.199100 0.049600
vt 0.221800 0.008900
vt 0.221800 0.049600
vt 0.244500 0.008900
vt 0.244500 0.049600
vt 0.267200 0.008900
vt 0.267200 0.049600
vt 0.289900 0.008900
vt 0.289900 0.049600
vt 0.312600 0.008900
vt 0.312600 0.049600
vt 0.335300 0.008900
vt 0.335300 0.049600
vt 0.358000 0.008900
vt 0.358000 0.049600
vt 0.380700 0.008900
vt 0.380700 0.049600
vt 0.040100 0.008900
vt 0.040100 0.049500
vn 0.923877 -0.000000 -0.382690
vn 1.000000 0.000000 0.000000
vn 1.000000 0.000000 0.000000
vn 1.000000 0.000000 0.000000
vn 0.923877 -0.000000 -0.382690
vn 0.923877 -0.000000 -0.382690
vn 0.707107 -0.000000 -0.707107
vn 0.923877 -0.000000 -0.382690
vn 0.923877 -0.000000 -0.382690
vn 0.923877 -0.000000 -0.382690
vn 0.707107 -0.000000 -0.707107
vn 0.707107 -0.000000 -0.707107
vn 0.382690 -0.000000 -0.923877
vn 0.707107 -0.000000 -0.707107
vn 0.707107 -0.000000 -0.707107
vn 0.707107 -0.000000 -0.707107
vn 0.382690 -0.000000 -0.923877
vn 0.382690 -0.000000 -0.923877
vn 0.000000 -0.000000 -1.000000
vn 0.382690 -0.000000 -0.923877
vn 0.382690 -0.000000 -0.923877
vn 0.382690 -0.000000 -0.923877
vn 0.000000 -0.000000 -1.000000
vn 0.000000 -0.000000 -1.000000
vn -0.382690 -0.000000 -0.923877
vn 0.000000 -0.000000 -1.000000
vn 0.000000 -0.000000 -1.000000
vn 0.000000 -0.000000 -1.000000
vn -0.382690 -0.000000 -0.923877
vn -0.382690 -0.000000 -0.923877
vn -0.707107 -0.000000 -0.707107
vn -0.382690 -0.000000 -0.923877
vn -0.382690 -0.000000 -0.923877
vn -0.382690 -0.000000 -0.923877
vn -0.707107 -0.000000 -0.707107
vn -0.707107 -0.000000 -0.707107
vn -0.923877 -0.000000 -0.382690
vn -0.707107 -0.000000 -0.707107
vn -0.707107 -0.000000 -0.707107
vn -0.707107 -0.000000 -0.707107
vn -0.923877 -0.000000 -0.382690
vn -0.923877 -0.000000 -0.382690
vn -1.000000 0.000000 0.000000
vn -0.923877 -0.000000 -0.382690
vn -0.923877 -0.000000 -0.382690
vn -0.923877 -0.000000 -0.382690
vn -1.000000 0.000000 0.000000
vn -1.000000 0.000000 0.000000
vn -0.923877 0.000000 0.382690
vn -1.000000 0.000000 0.000000
vn -1.000000 0.000000 0.000000
vn -1.000000 0.000000 0.000000
vn -0.923877 0.000000 0.382690
vn -0.923877 0.000000 0.382690
vn -0.707107 0.000000 0.707107
vn -0.923877 0.000000 0.382690
vn -0.923877 0.000000 0.382690
vn -0.923877 0.000000 0.382690
vn -0.707107 0.000000 0.707107
vn -0.707107 0.000000 0.707107
vn -0.382690 0.000000 0.923877
vn -0.707107 0.000000 0.707107
vn -0.707107 0.000000 0.707107
vn -0.707107 0.000000 0.707107
vn -0.382690 0.000000 0.923877
vn -0.382690 0.000000 0.923877
vn 0.000000 0.000000 1.000000
vn -0.382690 0.000000 0.923877
vn -0.382690 0.000000 0.923877
vn -0.382690 0.000000 0.923877
vn 0.000000 0.000000 1.000000
vn 0.000000 0.000000 1.000000
vn 0.382690 0.000000 0.923877
vn 0.000000 0.000000 1.000000
vn 0.000000 0.000000 1.000000
vn 0.000000 0.000000 1.000000
vn 0.382690 0.000000 0.923877
vn 0.382690 0.000000 0.923877
vn 0.707107 0.000000 0.707107
vn 0.382690 0.000000 0.923877
vn 0.382690 0.000000 0.923877
vn 0.382690 0.000000 0.923877
vn 0.707107 0.000000 0.707107
vn 0.707107 0.000000 0.707107
vn 0.923877 0.000000 0.382690
vn 0.707107 0.000000 0.707107
vn 0.707107 0.000000 0.707107
vn 0.707107 0.000000 0.707107
vn 0.923877 0.000000 0.382690
vn 0.923877 0.000000 0.382690
vn 1.000000 0.000000 0.000000
vn 0.923877 0.000000 0.382690
vn 0.923877 0.000000 0.382690
vn 0.923877 0.000000 0.382690
vn 1.000000 0.000000 0.000000
vn 1.000000 0.000000 0.000000
vn 0.965929 -0.000000 -0.258808
vn 0.965929 -0.000000 -0.258808
vn 1.000000 0.000000 0.000000
vn 1.000000 0.000000 0.000000
vn 1.000000 0.000000 0.000000
vn 0.965929 -0.000000 -0.258808
vn 0.866019 -0.000000 -0.500011
vn 0.866019 -0.000000 -0.500011
vn 0.965929 -0.000000 -0.258808
vn 0.965929 -0.000000 -0.258808
vn 0.965929 -0.000000 -0.258808
vn 0.866019 -0.000000 -0.500011
vn 0.707107 -0.000000 -0.707107
vn 0.707107 -0.000000 -0.707107
vn 0.866019 -0.000000 -0.500011
vn 0.866019 -0.000000 -0.500011
vn 0.866019 -0.000000 -0.500011
vn 0.707107 -0.000000 -0.707107
vn 0.500011 -0.000000 -0.866019
vn 0.500011 -0.000000 -0.866019
vn 0.707107 -0.000000 -0.707107
vn 0.707107 -0.000000 -0.707107
vn 0.707107 -0.000000 -0.707107
vn 0.500011 -0.000000 -0.866019
vn 0.258808 -0.000000 -0.965929
vn 0.258808 -0.000000 -0.965929
vn 0.500011 -0.000000 -0.866019
vn 0.500011 -0.000000 -0.866019
vn 0.500011 -0.000000 -0.866019
vn 0.258808 -0.000000 -0.965929
vn 0.000000 -0.000000 -1.000000
vn 0.000000 -0.000000 -1.000000
vn 0.258808 -0.000000 -0.965929
vn 0.258808 -0.000000 -0.965929
vn 0.258808 -0.000000 -0.965929
vn 0.000000 -0.000000 -1.000000
vn -0.258808 -0.000000 -0.965929
vn -0.258808 -0.000000 -0.965929
vn 0.000000 -0.000000 -1.000000
vn 0.000000 -0.000000 -1.000000
vn 0.000000 -0.000000 -1.000000
vn -0.258808 -0.000000 -0.965929
vn -0.500011 -0.000000 -0.866019
vn -0.500011 -0.000000 -0.866019
vn -0.258808 -0.000000 -0.965929
vn -0.258808 -0.000000 -0.965929
vn -0.258808 -0.000000 -0.965929
vn -0.500011 -0.000000 -0.866019
vn -0.707107 -0.000000 -0.707107
vn -0.707107 -0.000000 -0.707107
vn -0.500011 -0.000000 -0.866019
vn -0.500011 -0.000000 -0.866019
vn -0.500011 -0.000000 -0.866019
vn -0.707107 -0.000000 -0.707107
vn -0.866019 -0.000000 -0.500011
vn -0.866019 -0.000000 -0.500011
vn -0.707107 -0.000000 -0.707107
vn -0.707107 -0.000000 -0.707107
vn -0.707107 -0.000000 -0.707107
vn -0.866019 -0.000000 -0.500011
vn -0.965929 -0.000000 -0.258808
vn -0.965929 -0.000000 -0.258808
vn -0.866019 -0.000000 -0.500011
vn -0.866019 -0.000000 -0.500011
vn -0.866019 -0.000000 -0.500011
vn -0.965929 -0.000000 -0.258808
vn -1.000000 0.000000 0.000000
vn -1.000000 0.000000 0.000000
vn -0.965929 -0.000000 -0.258808
vn -0.965929 -0.000000 -0.258808
vn -0.965929 -0.000000 -0.258808
vn -1.000000 0.000000 0.000000
vn -0.965929 0.000000 0.258808
vn -0.965929 0.000000 0.258808
vn -1.000000 0.000000 0.000000
vn -1.000000 0.000000 0.000000
vn -1.000000 0.000000 0.000000
vn -0.965929 0.000000 0.258808
vn -0.866019 0.000000 0.500011
vn -0.866019 0.000000 0.500011
vn -0.965929 0.000000 0.258808
vn -0.965929 0.000000 0.258808
vn -0.965929 0.000000 0.258808
vn -0.866019 0.000000 0.500011
vn -0.707107 0.000000 0.707107
vn -0.707107 0.000000 0.707107
vn -0.866019 0.000000 0.500011
vn -0.866019 0.000000 0.500011
vn -0.866019 0.000000 0.500011
vn -0.707107 0.000000 0.707107
vn -0.500011 0.000000 0.866019
vn -0.500011 0.000000 0.866019
vn -0.707107 0.000000 0.707107
vn -0.707107 0.000000 0.707107
vn -0.707107 0.000000 0.707107
vn -0.500011 0.000000 0.866019
vn -0.258808 0.000000 0.965929
vn -0.258808 0.000000 0.965929
vn -0.500011 0.000000 0.866019
vn -0.500011 0.000000 0.866019
vn -0.500011 0.000000 0.866019
vn -0.258808 0.000000 0.965929
vn 0.000000 0.000000 1.000000
vn 0.000000 0.000000 1.000000
vn -0.258808 0.000000 0.965929
vn -0.258808 0.000000 0.965929
vn -0.258808 0.000000 0.965929
vn 0.000000 0.000000 1.000000
vn 0.258808 0.000000 0.965929
vn 0.258808 0.000000 0.965929
vn 0.000000 0.000000 1.000000
vn 0.000000 0.000000 1.000000
vn 0.000000 0.000000 1.000000
vn 0.258808 0.000000 0.965929
vn 0.500011 0.000000 0.866019
vn 0.500011 0.000000 0.866019
vn 0.258808 0.000000 0.965929
vn 0.258808 0.000000 0.965929
vn 0.258808 0.000000 0.965929
vn 0.500011 0.000000 0.866019
vn 0.707107 0.000000 0.707107
vn 0.707107 0.000000 0.707107
vn 0.500011 0.000000 0.866019
vn 0.500011 0.000000 0.866019
vn 0.500011 0.000000 0.866019
vn 0.707107 0.000000 0.707107
vn 0.866019 0.000000 0.500011
vn 0.866019 0.000000 0.500011
vn 0.707107 0.000000 0.707107
vn 0.707107 0.000000 0.707107
vn 0.707107 0.000000 0.707107
vn 0.866019 0.000000 0.500011
vn 0.965929 0.000000 0.258808
vn 0.965929 0.000000 0.258808
vn 0.866019 0.000000 0.500011
vn 0.866019 0.000000 0.500011
vn 0.866019 0.000000 0.500011
vn 0.965929 0.000000 0.258808
vn 1.000000 0.000000 0.000000
vn 1.000000 0.000000 0.000000
vn 0.965929 0.000000 0.258808
vn 0.965929 0.000000 0.258808
vn 0.965929 0.000000 0.258808
vn 1.000000 0.000000 0.000000
vn 0.000000 1.000000 -0.000000
vn 0.000000 1.000000 -0.000000
vn 0.000000 1.000000 -0.000000
vn 0.000000 1.000000 -0.000000
vn 0.000000 1.000000 -0.000000
vn 0.000000 1.000000 -0.000000
vn 0.000000 -1.000000 0.000000
vn 0.000000 -1.000000 0.000000
vn 0.000000 -1.000000 0.000000
vn 0.000000 -1.000000 0.000000
vn 0.000000 -1.000000 0.000000
vn 0.000000 -1.000000 0.000000
vn 0.000000 1.000000 -0.000000
vn 0.000000 1.000000 -0.000000
vn 0.000000 1.000000 -0.000000
vn 0.000000 1.000000 -0.000000
vn 0.000000 1.000000 -0.000000
vn 0.000000 1.000000 -0.000000
vn 0.000000 1.000000 -0.000000
vn 0.000000 1.000000 -0.000000
vn 0.000000 1.000000 -0.000000
vn 0.000000 -1.000000 0.000000
vn 0.000000 -1.000000 0.000000
vn 0.000000 -1.000000 0.000000
vn 0.000000 -1.000000 0.000000
vn 0.000000 -1.000000 0.000000
vn 0.000000 -1.000000 0.000000
vn 0.000000 -1.000000 0.000000
vn 0.000000 -1.000000 0.000000
vn 0.000000 -1.000000 0.000000
vn 0.000000 1.000000 -0.000000
vn 0.000000 1.000000 -0.000000
vn 0.000000 1.000000 -0.000000
vn 0.000000 1.000000 -0.000000
vn 0.000000 1.000000 -0.000000
vn 0.000000 1.000000 -0.000000
vn 0.000000 1.000000 -0.000000
vn 0.000000 1.000000 -0.000000
vn 0.000000 1.000000 -0.000000
vn 0.000000 1.000000 -0.000000
vn 0.000000 1.000000 -0.000000
vn 0.000000 1.000000 -0.000000
vn 0.000000 1.000000 -0.000000
vn 0.000000 1.000000 -0.000000
vn 0.000000 1.000000 -0.000000
vn 0.000000 1.000000 -0.000000
vn 0.000000 1.000000 -0.000000
vn 0.000000 1.000000 -0.000000
vn 0.000000 1.000000 -0.000000
vn 0.000000 1.000000 -0.000000
vn 0.000000 1.000000 -0.000000
vn 0.000000 1.000000 -0.000000
vn 0.000000 1.000000 -0.000000
vn 0.000000 1.000000 -0.000000
vn 0.000000 1.000000 -0.000000
vn 0.000000 1.000000 -0.000000
vn 0.000000 1.000000 -0.000000
vn 0.000000 1.000000 -0.000000
vn 0.000000 1.000000 -0.000000
vn 0.000000 1.000000 -0.000000
vn 0.000000 1.000000 -0.000000
vn 0.000000 1.000000 -0.000000
vn 0.000000 1.000000 -0.000000
vn 0.000000 1.000000 -0.000000
vn 0.000000 1.000000 -0.000000
vn 0.000000 1.000000 -0.000000
vn 0.000000 -1.000000 0.000000
vn 0.000000 -1.000000 0.000000
vn 0.000000 -1.000000 0.000000
vn 0.000000 -1.000000 0.000000
vn 0.000000 -1.000000 0.000000
vn 0.000000 -1.000000 0.000000
vn 0.000000 -1.000000 0.000000
vn 0.000000 -1.000000 0.000000
vn 0.000000 -1.000000 0.000000
vn 0.000000 -1.000000 0.000000
vn 0.000000 -1.000000 0.000000
vn 0.000000 -1.000000 0.000000
vn 0.000000 -1.000000 0.000000
vn 0.000000 -1.000000 0.000000
vn 0.000000 -1.000000 0.000000
vn 0.000000 -1.000000 0.000000
vn 0.000000 -1.000000 0.000000
vn 0.000000 -1.000000 0.000000
vn 0.000000 -1.000000 0.000000
vn 0.000000 -1.000000 0.000000
vn 0.000000 -1.000000 0.000000
vn 0.000000 -1.000000 0.000000
vn 0.000000 -1.000000 0.000000
vn 0.000000 -1.000000 0.000000
vn 0.000000 -1.000000 0.000000
vn 0.000000 -1.000000 0.000000
vn 0.000000 -1.000000 0.000000
vn 0.000000 -1.000000 0.000000
vn 0.000000 -1.000000 0.000000
vn 0.000000 -1.000000 0.000000
vn 0.000000 -1.000000 0.000000
vn 0.000000 -1.000000 0.000000
vn 0.000000 -1.000000 0.000000
vn 0.000000 -1.000000 0.000000
vn 0.000000 -1.000000 0.000000
vn 0.000000 -1.000000 0.000000
vn 0.000000 1.000000 -0.000000
vn 0.000000 1.000000 -0.000000
vn 0.000000 1.000000 -0.000000
vn 0.000000 1.000000 -0.000000
vn 0.000000 1.000000 -0.000000
vn 0.000000 1.000000 -0.000000
vn 0.000000 1.000000 -0.000000
vn 0.000000 1.000000 -0.000000
vn 0.000000 1.000000 -0.000000
vn 0.000000 1.000000 -0.000000
vn 0.000000 1.000000 -0.000000
vn 0.000000 1.000000 -0.000000
vn 0.000000 1.000000 -0.000000
vn 0.000000 1.000000 -0.000000
vn 0.000000 1.000000 -0.000000
vn 0.000000 -1.000000 0.000000
vn 0.000000 -1.000000 0.000000
vn 0.000000 -1.000000 0.000000
vn 0.000000 -1.000000 0.000000
vn 0.000000 -1.000000 0.000000
vn 0.000000 -1.000000 0.000000
vn 0.000000 -1.000000 0.000000
vn 0.000000 -1.000000 0.000000
vn 0.000000 -1.000000 0.000000
vn 0.000000 -1.000000 0.000000
vn 0.000000 -1.000000 0.000000
vn 0.000000 -1.000000 0.000000
vn 0.000000 -1.000000 0.000000
vn 0.000000 -1.000000 0.000000
vn 0.000000 -1.000000 0.000000
vn 0.779942 0.597632 -0.185810
vn 0.844596 0.535397 -0.002700
vn 0.844525 0.535516 -0.000900
vn 0.844525 0.535516 -0.000900
vn 0.753441 0.615934 -0.230113
vn 0.779942 0.597632 -0.185810
vn 0.602689 0.732787 -0.315894
vn 0.779942 0.597632 -0.185810
vn 0.753441 0.615934 -0.230113
vn 0.753441 0.615934 -0.230113
vn 0.547806 0.758809 -0.352304
vn 0.602689 0.732787 -0.315894
vn 0.395908 0.841718 -0.367108
vn 0.602689 0.732787 -0.315894
vn 0.547806 0.758809 -0.352304
vn 0.547806 0.758809 -0.352304
vn 0.348507 0.856418 -0.380908
vn 0.395908 0.841718 -0.367108
vn 0.228494 0.899675 -0.371990
vn 0.395908 0.841718 -0.367108
vn 0.348507 0.856418 -0.380908
vn 0.348507 0.856418 -0.380908
vn 0.200506 0.905325 -0.374411
vn 0.228494 0.899675 -0.371990
vn 0.103500 0.925198 -0.365099
vn 0.228494 0.899675 -0.371990
vn 0.200506 0.905325 -0.374411
vn 0.200506 0.905325 -0.374411
vn 0.091599 0.926689 -0.364496
vn 0.103500 0.925198 -0.365099
vn 0.000700 0.932523 -0.361109
vn 0.103500 0.925198 -0.365099
vn 0.091599 0.926689 -0.364496
vn 0.091599 0.926689 -0.364496
vn 0.000600 0.932523 -0.361109
vn 0.000700 0.932523 -0.361109
vn -0.101303 0.926027 -0.363610
vn 0.000700 0.932523 -0.361109
vn 0.000600 0.932523 -0.361109
vn 0.000600 0.932523 -0.361109
vn -0.091201 0.926014 -0.366306
vn -0.101303 0.926027 -0.363610
vn -0.224191 0.901664 -0.369785
vn -0.101303 0.926027 -0.363610
vn -0.091201 0.926014 -0.366306
vn -0.091201 0.926014 -0.366306
vn -0.202411 0.903650 -0.377421
vn -0.224191 0.901664 -0.369785
vn -0.389599 0.845397 -0.365399
vn -0.224191 0.901664 -0.369785
vn -0.202411 0.903650 -0.377421
vn -0.202411 0.903650 -0.377421
vn -0.353607 0.853116 -0.383607
vn -0.389599 0.845397 -0.365399
vn -0.597216 0.737420 -0.315508
vn -0.389599 0.845397 -0.365399
vn -0.353607 0.853116 -0.383607
vn -0.353607 0.853116 -0.383607
vn -0.554788 0.753584 -0.352593
vn -0.597216 0.737420 -0.315508
vn -0.778299 0.600299 -0.184100
vn -0.597216 0.737420 -0.315508
vn -0.554788 0.753584 -0.352593
vn -0.554788 0.753584 -0.352593
vn -0.757879 0.611483 -0.227394
vn -0.778299 0.600299 -0.184100
vn -0.844554 0.535470 0.000900
vn -0.778299 0.600299 -0.184100
vn -0.757879 0.611483 -0.227394
vn -0.757879 0.611483 -0.227394
vn -0.844477 0.535586 0.002400
vn -0.844554 0.535470 0.000900
vn -0.778166 0.600474 0.184092
vn -0.844554 0.535470 0.000900
vn -0.844477 0.535586 0.002400
vn -0.844477 0.535586 0.002400
vn -0.749921 0.620217 0.230106
vn -0.778166 0.600474 0.184092
vn -0.599402 0.736502 0.313501
vn -0.778166 0.600474 0.184092
vn -0.749921 0.620217 0.230106
vn -0.749921 0.620217 0.230106
vn -0.543301 0.763101 0.350001
vn -0.599402 0.736502 0.313501
vn -0.392787 0.844573 0.363888
vn -0.599402 0.736502 0.313501
vn -0.543301 0.763101 0.350001
vn -0.543301 0.763101 0.350001
vn -0.345101 0.859301 0.377501
vn -0.392787 0.844573 0.363888
vn -0.226503 0.901610 0.368504
vn -0.392787 0.844573 0.363888
vn -0.345101 0.859301 0.377501
vn -0.345101 0.859301 0.377501
vn -0.198598 0.907191 0.370896
vn -0.226503 0.901610 0.368504
vn -0.102603 0.926627 0.361711
vn -0.226503 0.901610 0.368504
vn -0.198598 0.907191 0.370896
vn -0.198598 0.907191 0.370896
vn -0.090700 0.928105 0.361102
vn -0.102603 0.926627 0.361711
vn -0.000700 0.933832 0.357712
vn -0.102603 0.926627 0.361711
vn -0.090700 0.928105 0.361102
vn -0.090700 0.928105 0.361102
vn -0.000600 0.933798 0.357799
vn -0.000700 0.933832 0.357712
vn 0.100402 0.927415 0.360306
vn -0.000700 0.933832 0.357712
vn -0.000600 0.933798 0.357799
vn -0.000600 0.933798 0.357799
vn 0.090304 0.927437 0.362914
vn 0.100402 0.927415 0.360306
vn 0.222207 0.903530 0.366412
vn 0.100402 0.927415 0.360306
vn 0.090304 0.927437 0.362914
vn 0.090304 0.927437 0.362914
vn 0.200507 0.905531 0.373913
vn 0.222207 0.903530 0.366412
vn 0.386497 0.848194 0.362197
vn 0.222207 0.903530 0.366412
vn 0.200507 0.905531 0.373913
vn 0.200507 0.905531 0.373913
vn 0.350287 0.855968 0.380286
vn 0.386497 0.848194 0.362197
vn 0.593798 0.741197 0.313099
vn 0.386497 0.848194 0.362197
vn 0.350287 0.855968 0.380286
vn 0.350287 0.855968 0.380286
vn 0.550313 0.757918 0.350308
vn 0.593798 0.741197 0.313099
vn 0.776519 0.603115 0.182404
vn 0.593798 0.741197 0.313099
vn 0.550313 0.757918 0.350308
vn 0.550313 0.757918 0.350308
vn 0.754431 0.615726 0.227409
vn 0.776519 0.603115 0.182404
vn 0.844596 0.535397 -0.002700
vn 0.776519 0.603115 0.182404
vn 0.754431 0.615726 0.227409
vn 0.754431 0.615726 0.227409
vn 0.844525 0.535516 -0.000900
vn 0.844596 0.535397 -0.002700
vn 0.965929 -0.000000 -0.258808
vn 0.965929 -0.000000 -0.258808
vn 1.000000 0.000000 0.000000
vn 1.000000 0.000000 0.000000
vn 1.000000 0.000000 0.000000
vn 0.965929 -0.000000 -0.258808
vn 0.866019 -0.000000 -0.500011
vn 0.866019 -0.000000 -0.500011
vn 0.965929 -0.000000 -0.258808
vn 0.965929 -0.000000 -0.258808
vn 0.965929 -0.000000 -0.258808
vn 0.866019 -0.000000 -0.500011
vn 0.707107 -0.000000 -0.707107
vn 0.707107 -0.000000 -0.707107
vn 0.866019 -0.000000 -0.500011
vn 0.866019 -0.000000 -0.500011
vn 0.866019 -0.000000 -0.500011
vn 0.707107 -0.000000 -0.707107
vn 0.500011 -0.000000 -0.866019
vn 0.500011 -0.000000 -0.866019
vn 0.707107 -0.000000 -0.707107
vn 0.707107 -0.000000 -0.707107
vn 0.707107 -0.000000 -0.707107
vn 0.500011 -0.000000 -0.866019
vn 0.258808 -0.000000 -0.965929
vn 0.258808 -0.000000 -0.965929
vn 0.500011 -0.000000 -0.866019
vn 0.500011 -0.000000 -0.866019
vn 0.500011 -0.000000 -0.866019
vn 0.258808 -0.000000 -0.965929
vn 0.000000 -0.000000 -1.000000
vn 0.000000 -0.000000 -1.000000
vn 0.258808 -0.000000 -0.965929
vn 0.258808 -0.000000 -0.965929
vn 0.258808 -0.000000 -0.965929
vn 0.000000 -0.000000 -1.000000
vn -0.258808 -0.000000 -0.965929
vn -0.258808 -0.000000 -0.965929
vn 0.000000 -0.000000 -1.000000
vn 0.000000 -0.000000 -1.000000
vn 0.000000 -0.000000 -1.000000
vn -0.258808 -0.000000 -0.965929
vn -0.500011 -0.000000 -0.866019
vn -0.500011 -0.000000 -0.866019
vn -0.258808 -0.000000 -0.965929
vn -0.258808 -0.000000 -0.965929
vn -0.258808 -0.000000 -0.965929
vn -0.500011 -0.000000 -0.866019
vn -0.707107 -0.000000 -0.707107
vn -0.707107 -0.000000 -0.707107
vn -0.500011 -0.000000 -0.866019
vn -0.500011 -0.000000 -0.866019
vn -0.500011 -0.000000 -0.866019
vn -0.707107 -0.000000 -0.707107
vn -0.866019 -0.000000 -0.500011
vn -0.866019 -0.000000 -0.500011
vn -0.707107 -0.000000 -0.707107
vn -0.707107 -0.000000 -0.707107
vn -0.707107 -0.000000 -0.707107
vn -0.866019 -0.000000 -0.500011
vn -0.965929 -0.000000 -0.258808
vn -0.965929 -0.000000 -0.258808
vn -0.866019 -0.000000 -0.500011
vn -0.866019 -0.000000 -0.500011
vn -0.866019 -0.000000 -0.500011
vn -0.965929 -0.000000 -0.258808
vn -1.000000 0.000000 0.000000
vn -1.000000 0.000000 0.000000
vn -0.965929 -0.000000 -0.258808
vn -0.965929 -0.000000 -0.258808
vn -0.965929 -0.000000 -0.258808
vn -1.000000 0.000000 0.000000
vn -0.965929 0.000000 0.258808
vn -0.965929 0.000000 0.258808
vn -1.000000 0.000000 0.000000
vn -1.000000 0.000000 0.000000
vn -1.000000 0.000000 0.000000
vn -0.965929 0.000000 0.258808
vn -0.866019 0.000000 0.500011
vn -0.866019 0.000000 0.500011
vn -0.965929 0.000000 0.258808
vn -0.965929 0.000000 0.258808
vn -0.965929 0.000000 0.258808
vn -0.866019 0.000000 0.500011
vn -0.707107 0.000000 0.707107
vn -0.707107 0.000000 0.707107
vn -0.866019 0.000000 0.500011
vn -0.866019 0.000000 0.500011
vn -0.866019 0.000000 0.500011
vn -0.707107 0.000000 0.707107
vn -0.500011 0.000000 0.866019
vn -0.500011 0.000000 0.866019
vn -0.707107 0.000000 0.707107
vn -0.707107 0.000000 0.707107
vn -0.707107 0.000000 0.707107
vn -0.500011 0.000000 0.866019
vn -0.258808 0.000000 0.965929
vn -0.258808 0.000000 0.965929
vn -0.500011 0.000000 0.866019
vn -0.500011 0.000000 0.866019
vn -0.500011 0.000000 0.866019
vn -0.258808 0.000000 0.965929
vn 0.000000 0.000000 1.000000
vn 0.000000 0.000000 1.000000
vn -0.258808 0.000000 0.965929
vn -0.258808 0.000000 0.965929
vn -0.258808 0.000000 0.965929
vn 0.000000 0.000000 1.000000
vn 0.258808 0.000000 0.965929
vn 0.258808 0.000000 0.965929
vn 0.000000 0.000000 1.000000
vn 0.000000 0.000000 1.000000
vn 0.000000 0.000000 1.000000
vn 0.258808 0.000000 0.965929
vn 0.500011 0.000000 0.866019
vn 0.500011 0.000000 0.866019
vn 0.258808 0.000000 0.965929
vn 0.258808 0.000000 0.965929
vn 0.258808 0.000000 0.965929
vn 0.500011 0.000000 0.866019
vn 0.707107 0.000000 0.707107
vn 0.707107 0.000000 0.707107
vn 0.500011 0.000000 0.866019
vn 0.500011 0.000000 0.866019
vn 0.500011 0.000000 0.866019
vn 0.707107 0.000000 0.707107
vn 0.866019 0.000000 0.500011
vn 0.866019 0.000000 0.500011
vn 0.707107 0.000000 0.707107
vn 0.707107 0.000000 0.707107
vn 0.707107 0.000000 0.707107
vn 0.866019 0.000000 0.500011
vn 0.965929 0.000000 0.258808
vn 0.965929 0.000000 0.258808
vn 0.866019 0.000000 0.500011
vn 0.866019 0.000000 0.500011
vn 0.866019 0.000000 0.500011
vn 0.965929 0.000000 0.258808
vn 1.000000 0.000000 0.000000
vn 1.000000 0.000000 0.000000
vn 0.965929 0.000000 0.258808
vn 0.965929 0.000000 0.258808
vn 0.965929 0.000000 0.258808
vn 1.000000 0.000000 0.000000
vn 0.000000 1.000000 -0.000000
vn 0.000000 1.000000 -0.000000
vn 0.000000 1.000000 -0.000000
vn 0.000000 1.000000 -0.000000
vn 0.000000 1.000000 -0.000000
vn 0.000000 1.000000 -0.000000
vn 0.000000 -1.000000 0.000000
vn 0.000000 -1.000000 0.000000
vn 0.000000 -1.000000 0.000000
vn 0.000000 -1.000000 0.000000
vn 0.000000 -1.000000 0.000000
vn 0.000000 -1.000000 0.000000
vn 0.000000 1.000000 -0.000000
vn 0.000000 1.000000 -0.000000
vn 0.000000 1.000000 -0.000000
vn 0.000000 1.000000 -0.000000
vn 0.000000 1.000000 -0.000000
vn 0.000000 1.000000 -0.000000
vn 0.000000 1.000000 -0.000000
vn 0.000000 1.000000 -0.000000
vn 0.000000 1.000000 -0.000000
vn 0.000000 -1.000000 0.000000
vn 0.000000 -1.000000 0.000000
vn 0.000000 -1.000000 0.000000
vn 0.000000 -1.000000 0.000000
vn 0.000000 -1.000000 0.000000
vn 0.000000 -1.000000 0.000000
vn 0.000000 -1.000000 0.000000
vn 0.000000 -1.000000 0.000000
vn 0.000000 -1.000000 0.000000
vn 0.000000 1.000000 -0.000000
vn 0.000000 1.000000 -0.000000
vn 0.000000 1.000000 -0.000000
vn 0.000000 1.000000 -0.000000
vn 0.000000 1.000000 -0.000000
vn 0.000000 1.000000 -0.000000
vn 0.000000 1.000000 -0.000000
vn 0.000000 1.000000 -0.000000
vn 0.000000 1.000000 -0.000000
vn 0.000000 1.000000 -0.000000
vn 0.000000 1.000000 -0.000000
vn 0.000000 1.000000 -0.000000
vn 0.000000 1.000000 -0.000000
vn 0.000000 1.000000 -0.000000
vn 0.000000 1.000000 -0.000000
vn 0.000000 1.000000 -0.000000
vn 0.000000 1.000000 -0.000000
vn 0.000000 1.000000 -0.000000
vn 0.000000 1.000000 -0.000000
vn 0.000000 1.000000 -0.000000
vn 0.000000 1.000000 -0.000000
vn 0.000000 1.000000 -0.000000
vn 0.000000 1.000000 -0.000000
vn 0.000000 1.000000 -0.000000
vn 0.000000 1.000000 -0.000000
vn 0.000000 1.000000 -0.000000
vn 0.000000 1.000000 -0.000000
vn 0.000000 1.000000 -0.000000
vn 0.000000 1.000000 -0.000000
vn 0.000000 1.000000 -0.000000
vn 0.000000 1.000000 -0.000000
vn 0.000000 1.000000 -0.000000
vn 0.000000 1.000000 -0.000000
vn 0.000000 1.000000 -0.000000
vn 0.000000 1.000000 -0.000000
vn 0.000000 1.000000 -0.000000
vn 0.000000 -1.000000 0.000000
vn 0.000000 -1.000000 0.000000
vn 0.000000 -1.000000 0.000000
vn 0.000000 -1.000000 0.000000
vn 0.000000 -1.000000 0.000000
vn 0.000000 -1.000000 0.000000
vn 0.000000 -1.000000 0.000000
vn 0.000000 -1.000000 0.000000
vn 0.000000 -1.000000 0.000000
vn 0.000000 -1.000000 0.000000
vn 0.000000 -1.000000 0.000000
vn 0.000000 -1.000000 0.000000
vn 0.000000 -1.000000 0.000000
vn 0.000000 -1.000000 0.000000
vn 0.000000 -1.000000 0.000000
vn 0.000000 -1.000000 0.000000
vn 0.000000 -1.000000 0.000000
vn 0.000000 -1.000000 0.000000
vn 0.000000 -1.000000 0.000000
vn 0.000000 -1.000000 0.000000
vn 0.000000 -1.000000 0.000000
vn 0.000000 -1.000000 0.000000
vn 0.000000 -1.000000 0.000000
vn 0.000000 -1.000000 0.000000
vn 0.000000 -1.000000 0.000000
vn 0.000000 -1.000000 0.000000
vn 0.000000 -1.000000 0.000000
vn 0.000000 -1.000000 0.000000
vn 0.000000 -1.000000 0.000000
vn 0.000000 -1.000000 0.000000
vn 0.000000 -1.000000 0.000000
vn 0.000000 -1.000000 0.000000
vn 0.000000 -1.000000 0.000000
vn 0.000000 -1.000000 0.000000
vn 0.000000 -1.000000 0.000000
vn 0.000000 -1.000000 0.000000
vn 0.000000 1.000000 -0.000000
vn 0.000000 1.000000 -0.000000
vn 0.000000 1.000000 -0.000000
vn 0.000000 1.000000 -0.000000
vn 0.000000 1.000000 -0.000000
vn 0.000000 1.000000 -0.000000
vn 0.000000 1.000000 -0.000000
vn 0.000000 1.000000 -0.000000
vn 0.000000 1.000000 -0.000000
vn 0.000000 1.000000 -0.000000
vn 0.000000 1.000000 -0.000000
vn 0.000000 1.000000 -0.000000
vn 0.000000 1.000000 -0.000000
vn 0.000000 1.000000 -0.000000
vn 0.000000 1.000000 -0.000000
vn 0.000000 -1.000000 0.000000
vn 0.000000 -1.000000 0.000000
vn 0.000000 -1.000000 0.000000
vn 0.000000 -1.000000 0.000000
vn 0.000000 -1.000000 0.000000
vn 0.000000 -1.000000 0.000000
vn 0.000000 -1.000000 0.000000
vn 0.000000 -1.000000 0.000000
vn 0.000000 -1.000000 0.000000
vn 0.000000 -1.000000 0.000000
vn 0.000000 -1.000000 0.000000
vn 0.000000 -1.000000 0.000000
vn 0.000000 -1.000000 0.000000
vn 0.000000 -1.000000 0.000000
vn 0.000000 -1.000000 0.000000
vn 0.965929 -0.000000 -0.258808
vn 0.965929 -0.000000 -0.258808
vn 1.000000 0.000000 0.000000
vn 1.000000 0.000000 0.000000
vn 1.000000 0.000000 0.000000
vn 0.965929 -0.000000 -0.258808
vn 0.866019 -0.000000 -0.500011
vn 0.866019 -0.000000 -0.500011
vn 0.965929 -0.000000 -0.258808
vn 0.965929 -0.000000 -0.258808
vn 0.965929 -0.000000 -0.258808
vn 0.866019 -0.000000 -0.500011
vn 0.707107 -0.000000 -0.707107
vn 0.707107 -0.000000 -0.707107
vn 0.866019 -0.000000 -0.500011
vn 0.866019 -0.000000 -0.500011
vn 0.866019 -0.000000 -0.500011
vn 0.707107 -0.000000 -0.707107
vn 0.500011 -0.000000 -0.866019
vn 0.500011 -0.000000 -0.866019
vn 0.707107 -0.000000 -0.707107
vn 0.707107 -0.000000 -0.707107
vn 0.707107 -0.000000 -0.707107
vn 0.500011 -0.000000 -0.866019
vn 0.258808 -0.000000 -0.965929
vn 0.258808 -0.000000 -0.965929
vn 0.500011 -0.000000 -0.866019
vn 0.500011 -0.000000 -0.866019
vn 0.500011 -0.000000 -0.866019
vn 0.258808 -0.000000 -0.965929
vn 0.000000 -0.000000 -1.000000
vn 0.000000 -0.000000 -1.000000
vn 0.258808 -0.000000 -0.965929
vn 0.258808 -0.000000 -0.965929
vn 0.258808 -0.000000 -0.965929
vn 0.000000 -0.000000 -1.000000
vn -0.258808 -0.000000 -0.965929
vn -0.258808 -0.000000 -0.965929
vn 0.000000 -0.000000 -1.000000
vn 0.000000 -0.000000 -1.000000
vn 0.000000 -0.000000 -1.000000
vn -0.258808 -0.000000 -0.965929
vn -0.500011 -0.000000 -0.866019
vn -0.500011 -0.000000 -0.866019
vn -0.258808 -0.000000 -0.965929
vn -0.258808 -0.000000 -0.965929
vn -0.258808 -0.000000 -0.965929
vn -0.500011 -0.000000 -0.866019
vn -0.707107 -0.000000 -0.707107
vn -0.707107 -0.000000 -0.707107
vn -0.500011 -0.000000 -0.866019
vn -0.500011 -0.000000 -0.866019
vn -0.500011 -0.000000 -0.866019
vn -0.707107 -0.000000 -0.707107
vn -0.866019 -0.000000 -0.500011
vn -0.866019 -0.000000 -0.500011
vn -0.707107 -0.000000 -0.707107
vn -0.707107 -0.000000 -0.707107
vn -0.707107 -0.000000 -0.707107
vn -0.866019 -0.000000 -0.500011
vn -0.965929 -0.000000 -0.258808
vn -0.965929 -0.000000 -0.258808
vn -0.866019 -0.000000 -0.500011
vn -0.866019 -0.000000 -0.500011
vn -0.866019 -0.000000 -0.500011
vn -0.965929 -0.000000 -0.258808
vn -1.000000 0.000000 0.000000
vn -1.000000 0.000000 0.000000
vn -0.965929 -0.000000 -0.258808
vn -0.965929 -0.000000 -0.258808
vn -0.965929 -0.000000 -0.258808
vn -1.000000 0.000000 0.000000
vn -0.965929 0.000000 0.258808
vn -0.965929 0.000000 0.258808
vn -1.000000 0.000000 0.000000
vn -1.000000 0.000000 0.000000
vn -1.000000 0.000000 0.000000
vn -0.965929 0.000000 0.258808
vn -0.866019 0.000000 0.500011
vn -0.866019 0.000000 0.500011
vn -0.965929 0.000000 0.258808
vn -0.965929 0.000000 0.258808
vn -0.965929 0.000000 0.258808
vn -0.866019 0.000000 0.500011
vn -0.707107 0.000000 0.707107
vn -0.707107 0.000000 0.707107
vn -0.866019 0.000000 0.500011
vn -0.866019 0.000000 0.500011
vn -0.866019 0.000000 0.500011
vn -0.707107 0.000000 0.707107
vn -0.500011 0.000000 0.866019
vn -0.500011 0.000000 0.866019
vn -0.707107 0.000000 0.707107
vn -0.707107 0.000000 0.707107
vn -0.707107 0.000000 0.707107
vn -0.500011 0.000000 0.866019
vn -0.258808 0.000000 0.965929
vn -0.258808 0.000000 0.965929
vn -0.500011 0.000000 0.866019
vn -0.500011 0.000000 0.866019
vn -0.500011 0.000000 0.866019
vn -0.258808 0.000000 0.965929
vn 0.000000 0.000000 1.000000
vn 0.000000 0.000000 1.000000
vn -0.258808 0.000000 0.965929
vn -0.258808 0.000000 0.965929
vn -0.258808 0.000000 0.965929
vn 0.000000 0.000000 1.000000
vn 0.258808 0.000000 0.965929
vn 0.258808 0.000000 0.965929
vn 0.000000 0.000000 1.000000
vn 0.000000 0.000000 1.000000
vn 0.000000 0.000000 1.000000
vn 0.258808 0.000000 0.965929
vn 0.500011 0.000000 0.866019
vn 0.500011 0.000000 0.866019
vn 0.258808 0.000000 0.965929
vn 0.258808 0.000000 0.965929
vn 0.258808 0.000000 0.965929
vn 0.500011 0.000000 0.866019
vn 0.707107 0.000000 0.707107
vn 0.707107 0.000000 0.707107
vn 0.500011 0.000000 0.866019
vn 0.500011 0.000000 0.866019
vn 0.500011 0.000000 0.866019
vn 0.707107 0.000000 0.707107
vn 0.866019 0.000000 0.500011
vn 0.866019 0.000000 0.500011
vn 0.707107 0.000000 0.707107
vn 0.707107 0.000000 0.707107
vn 0.707107 0.000000 0.707107
vn 0.866019 0.000000 0.500011
vn 0.965929 0.000000 0.258808
vn 0.965929 0.000000 0.258808
vn 0.866019 0.000000 0.500011
vn 0.866019 0.000000 0.500011
vn 0.866019 0.000000 0.500011
vn 0.965929 0.000000 0.258808
vn 1.000000 0.000000 0.000000
vn 1.000000 0.000000 0.000000
vn 0.965929 0.000000 0.258808
vn 0.965929 0.000000 0.258808
vn 0.965929 0.000000 0.258808
vn 1.000000 0.000000 0.000000
vn 0.000000 1.000000 -0.000000
vn 0.000000 1.000000 -0.000000
vn 0.000000 1.000000 -0.000000
vn 0.000000 1.000000 -0.000000
vn 0.000000 1.000000 -0.000000
vn 0.000000 1.000000 -0.000000
vn 0.000000 -1.000000 0.000000
vn 0.000000 -1.000000 0.000000
vn 0.000000 -1.000000 0.000000
vn 0.000000 -1.000000 0.000000
vn 0.000000 -1.000000 0.000000
vn 0.000000 -1.000000 0.000000
vn 0.000000 1.000000 -0.000000
vn 0.000000 1.000000 -0.000000
vn 0.000000 1.000000 -0.000000
vn 0.000000 1.000000 -0.000000
vn 0.000000 1.000000 -0.000000
vn 0.000000 1.000000 -0.000000
vn 0.000000 1.000000 -0.000000
vn 0.000000 1.000000 -0.000000
vn 0.000000 1.000000 -0.000000
vn 0.000000 -1.000000 0.000000
vn 0.000000 -1.000000 0.000000
vn 0.000000 -1.000000 0.000000
vn 0.000000 -1.000000 0.000000
vn 0.000000 -1.000000 0.000000
vn 0.000000 -1.000000 0.000000
vn 0.000000 -1.000000 0.000000
vn 0.000000 -1.000000 0.000000
vn 0.000000 -1.000000 0.000000
vn 0.000000 1.000000 -0.000000
vn 0.000000 1.000000 -0.000000
vn 0.000000 1.000000 -0.000000
vn 0.000000 1.000000 -0.000000
vn 0.000000 1.000000 -0.000000
vn 0.000000 1.000000 -0.000000
vn 0.000000 1.000000 -0.000000
vn 0.000000 1.000000 -0.000000
vn 0.000000 1.000000 -0.000000
vn 0.000000 1.000000 -0.000000
vn 0.000000 1.000000 -0.000000
vn 0.000000 1.000000 -0.000000
vn 0.000000 1.000000 -0.000000
vn 0.000000 1.000000 -0.000000
vn 0.000000 1.000000 -0.000000
vn 0.000000 1.000000 -0.000000
vn 0.000000 1.000000 -0.000000
vn 0.000000 1.000000 -0.000000
vn 0.000000 1.000000 -0.000000
vn 0.000000 1.000000 -0.000000
vn 0.000000 1.000000 -0.000000
vn 0.000000 1.000000 -0.000000
vn 0.000000 1.000000 -0.000000
vn 0.000000 1.000000 -0.000000
vn 0.000000 1.000000 -0.000000
vn 0.000000 1.000000 -0.000000
vn 0.000000 1.000000 -0.000000
vn 0.000000 1.000000 -0.000000
vn 0.000000 1.000000 -0.000000
vn 0.000000 1.000000 -0.000000
vn 0.000000 1.000000 -0.000000
vn 0.000000 1.000000 -0.000000
vn 0.000000 1.000000 -0.000000
vn 0.000000 1.000000 -0.000000
vn 0.000000 1.000000 -0.000000
vn 0.000000 1.000000 -0.000000
vn 0.000000 -1.000000 0.000000
vn 0.000000 -1.000000 0.000000
vn 0.000000 -1.000000 0.000000
vn 0.000000 -1.000000 0.000000
vn 0.000000 -1.000000 0.000000
vn 0.000000 -1.000000 0.000000
vn 0.000000 -1.000000 0.000000
vn 0.000000 -1.000000 0.000000
vn 0.000000 -1.000000 0.000000
vn 0.000000 -1.000000 0.000000
vn 0.000000 -1.000000 0.000000
vn 0.000000 -1.000000 0.000000
vn 0.000000 -1.000000 0.000000
vn 0.000000 -1.000000 0.000000
vn 0.000000 -1.000000 0.000000
vn 0.000000 -1.000000 0.000000
vn 0.000000 -1.000000 0.000000
vn 0.000000 -1.000000 0.000000
vn 0.000000 -1.000000 0.000000
vn 0.000000 -1.000000 0.000000
vn 0.000000 -1.000000 0.000000
vn 0.000000 -1.000000 0.000000
vn 0.000000 -1.000000 0.000000
vn 0.000000 -1.000000 0.000000
vn 0.000000 -1.000000 0.000000
vn 0.000000 -1.000000 0.000000
vn 0.000000 -1.000000 0.000000
vn 0.000000 -1.000000 0.000000
vn 0.000000 -1.000000 0.000000
vn 0.000000 -1.000000 0.000000
vn 0.000000 -1.000000 0.000000
vn 0.000000 -1.000000 0.000000
vn 0.000000 -1.000000 0.000000
vn 0.000000 -1.000000 0.000000
vn 0.000000 -1.000000 0.000000
vn 0.000000 -1.000000 0.000000
vn 0.000000 1.000000 -0.000000
vn 0.000000 1.000000 -0.000000
vn 0.000000 1.000000 -0.000000
vn 0.000000 1.000000 -0.000000
vn 0.000000 1.000000 -0.000000
vn 0.000000 1.000000 -0.000000
vn 0.000000 1.000000 -0.000000
vn 0.000000 1.000000 -0.000000
vn 0.000000 1.000000 -0.000000
vn 0.000000 1.000000 -0.000000
vn 0.000000 1.000000 -0.000000
vn 0.000000 1.000000 -0.000000
vn 0.000000 1.000000 -0.000000
vn 0.000000 1.000000 -0.000000
vn 0.000000 1.000000 -0.000000
vn 0.000000 -1.000000 0.000000
vn 0.000000 -1.000000 0.000000
vn 0.000000 -1.000000 0.000000
vn 0.000000 -1.000000 0.000000
vn 0.000000 -1.000000 0.000000
vn 0.000000 -1.000000 0.000000
vn 0.000000 -1.000000 0.000000
vn 0.000000 -1.000000 0.000000
vn 0.000000 -1.000000 0.000000
vn 0.000000 -1.000000 0.000000
vn 0.000000 -1.000000 0.000000
vn 0.000000 -1.000000 0.000000
vn 0.000000 -1.000000 0.000000
vn 0.000000 -1.000000 0.000000
vn 0.000000 -1.000000 0.000000
s off
g SM_Table_02
f 3/3/1 4/4/2 1/1/3
f 1/1/4 2/2/5 3/3/6
f 6/6/7 3/3/8 2/2/9
f 2/2/10 5/5/11 6/6/12
f 8/8/13 6/6/14 5/5/15
f 5/5/16 7/7/17 8/8/18
f 10/10/19 8/8/20 7/7/21
f 7/7/22 9/9/23 10/10/24
f 12/12/25 10/10/26 9/9/27
f 9/9/28 11/11/29 12/12/30
f 14/14/31 12/12/32 11/11/33
f 11/11/34 13/13/35 14/14/36
f 16/16/37 14/14/38 13/13/39
f 13/13/40 15/15/41 16/16/42
f 18/18/43 16/16/44 15/15/45
f 15/15/46 17/17/47 18/18/48
f 20/20/49 18/18/50 17/17/51
f 17/17/52 19/19/53 20/20/54
f 22/22/55 20/20/56 19/19/57
f 19/19/58 21/21/59 22/22/60
f 24/24/61 22/22/62 21/21/63
f 21/21/64 23/23/65 24/24/66
f 26/26/67 24/24/68 23/23/69
f 23/23/70 25/25/71 26/26/72
f 28/28/73 26/26/74 25/25/75
f 25/25/76 27/27/77 28/28/78
f 30/31/79 28/32/80 27/29/81
f 27/29/82 29/30/83 30/31/84
f 32/34/85 30/31/86 29/30/87
f 29/30/88 31/33/89 32/34/90
f 4/4/91 32/34/92 31/33/93
f 31/33/94 1/1/95 4/4/96
f 34/76/97 63/88/98 64/89/99
f 64/89/100 33/58/101 34/76/102
f 35/90/103 62/91/104 63/88/105
f 63/88/106 34/76/107 35/90/108
f 36/92/109 61/93/110 62/91/111
f 62/91/112 35/90/113 36/92/114
f 37/94/115 60/95/116 61/93/117
f 61/93/118 36/92/119 37/94/120
f 38/96/121 59/97/122 60/95/123
f 60/95/124 37/94/125 38/96/126
f 39/98/127 58/99/128 59/97/129
f 59/97/130 38/96/131 39/98/132
f 40/100/133 57/101/134 58/99/135
f 58/99/136 39/98/137 40/100/138
f 41/102/139 80/103/140 57/101/141
f 57/101/142 40/100/143 41/102/144
f 42/104/145 79/105/146 80/135/147
f 80/135/148 41/134/149 42/104/150
f 43/106/151 78/107/152 79/105/153
f 79/105/154 42/104/155 43/106/156
f 44/108/157 77/109/158 78/107/159
f 78/107/160 43/106/161 44/108/162
f 45/110/163 76/111/164 77/109/165
f 77/109/166 44/108/167 45/110/168
f 46/112/169 75/113/170 76/111/171
f 76/111/172 45/110/173 46/112/174
f 47/114/175 74/115/176 75/113/177
f 75/113/178 46/112/179 47/114/180
f 48/116/181 73/117/182 74/115/183
f 74/115/184 47/114/185 48/116/186
f 49/118/187 72/119/188 73/117/189
f 73/117/190 48/116/191 49/118/192
f 50/120/193 71/121/194 72/119/195
f 72/119/196 49/118/197 50/120/198
f 51/122/199 70/123/200 71/121/201
f 71/121/202 50/120/203 51/122/204
f 52/124/205 69/125/206 70/123/207
f 70/123/208 51/122/209 52/124/210
f 53/126/211 68/127/212 69/125/213
f 69/125/214 52/124/215 53/126/216
f 54/128/217 67/129/218 68/127/219
f 68/127/220 53/126/221 54/128/222
f 55/130/223 66/131/224 67/129/225
f 67/129/226 54/128/227 55/130/228
f 56/132/229 65/133/230 66/131/231
f 66/131/232 55/130/233 56/132/234
f 33/58/235 64/89/236 65/133/237
f 65/133/238 56/132/239 33/58/240
f 83/138/241 85/140/242 81/136/243
f 81/136/244 82/137/245 83/138/246
f 55/39/247 53/41/248 33/62/249
f 33/62/250 56/38/251 55/39/252
f 83/138/253 84/139/254 85/140/255
f 89/144/256 97/149/257 81/136/258
f 81/136/259 85/140/260 89/144/261
f 55/39/262 54/40/263 53/41/264
f 49/45/265 41/53/266 33/62/267
f 33/62/268 53/41/269 49/45/270
f 85/140/271 86/141/272 87/142/273
f 87/142/274 88/143/275 89/144/276
f 89/144/277 85/140/278 87/142/279
f 89/144/280 90/145/281 91/146/282
f 91/146/283 92/147/284 93/35/285
f 93/35/286 89/144/287 91/146/288
f 93/35/289 94/36/290 95/37/291
f 95/37/292 96/148/293 97/149/294
f 97/149/295 93/35/296 95/37/297
f 89/144/298 93/35/299 97/149/300
f 101/153/301 103/155/302 81/136/303
f 81/136/304 97/149/305 101/153/306
f 53/41/307 52/42/308 51/43/309
f 51/43/310 50/44/311 49/45/312
f 49/45/313 53/41/314 51/43/315
f 49/45/316 48/46/317 47/47/318
f 47/47/319 46/48/320 45/49/321
f 45/49/322 49/45/323 47/47/324
f 45/49/325 44/50/326 43/51/327
f 43/51/328 42/52/329 41/53/330
f 41/53/331 45/49/332 43/51/333
f 49/45/334 45/49/335 41/53/336
f 37/57/337 35/60/338 33/62/339
f 33/62/340 41/53/341 37/57/342
f 97/149/343 98/150/344 99/151/345
f 99/151/346 100/152/347 101/153/348
f 101/153/349 97/149/350 99/151/351
f 101/153/352 102/154/353 103/155/354
f 103/155/355 104/156/356 81/136/357
f 41/53/358 40/54/359 39/55/360
f 39/55/361 38/56/362 37/57/363
f 37/57/364 41/53/365 39/55/366
f 37/57/367 36/59/368 35/60/369
f 35/60/370 34/61/371 33/62/372
f 82/137/373 81/136/374 64/87/375
f 64/87/376 63/63/377 82/137/378
f 83/138/379 82/137/380 63/63/381
f 63/63/382 62/64/383 83/138/384
f 84/139/385 83/138/386 62/64/387
f 62/64/388 61/65/389 84/139/390
f 85/140/391 84/139/392 61/65/393
f 61/65/394 60/66/395 85/140/396
f 86/141/397 85/140/398 60/66/399
f 60/66/400 59/67/401 86/141/402
f 87/142/403 86/141/404 59/67/405
f 59/67/406 58/68/407 87/142/408
f 88/143/409 87/142/410 58/68/411
f 58/68/412 57/69/413 88/143/414
f 89/144/415 88/143/416 57/69/417
f 57/69/418 80/70/419 89/144/420
f 90/145/421 89/144/422 80/70/423
f 80/70/424 79/71/425 90/145/426
f 91/146/427 90/145/428 79/71/429
f 79/71/430 78/72/431 91/146/432
f 92/147/433 91/146/434 78/72/435
f 78/72/436 77/73/437 92/147/438
f 93/35/439 92/147/440 77/73/441
f 77/73/442 76/74/443 93/35/444
f 94/36/445 93/35/446 76/74/447
f 76/74/448 75/75/449 94/36/450
f 95/37/451 94/36/452 75/75/453
f 75/75/454 74/77/455 95/37/456
f 96/148/457 95/37/458 74/77/459
f 74/77/460 73/78/461 96/148/462
f 97/149/463 96/148/464 73/78/465
f 73/78/466 72/79/467 97/149/468
f 98/150/469 97/149/470 72/79/471
f 72/79/472 71/80/473 98/150/474
f 99/151/475 98/150/476 71/80/477
f 71/80/478 70/81/479 99/151/480
f 100/152/481 99/151/482 70/81/483
f 70/81/484 69/82/485 100/152/486
f 101/153/487 100/152/488 69/82/489
f 69/82/490 68/83/491 101/153/492
f 102/154/493 101/153/494 68/83/495
f 68/83/496 67/84/497 102/154/498
f 103/155/499 102/154/500 67/84/501
f 67/84/502 66/85/503 103/155/504
f 104/156/505 103/155/506 66/85/507
f 66/85/508 65/86/509 104/156/510
f 81/136/511 104/156/512 65/86/513
f 65/86/514 64/87/515 81/136/516
f 106/200/517 107/207/518 108/208/519
f 108/208/520 105/195/521 106/200/522
f 109/209/523 110/210/524 107/207/525
f 107/207/526 106/200/527 109/209/528
f 111/211/529 112/212/530 110/210/531
f 110/210/532 109/209/533 111/211/534
f 113/213/535 114/214/536 112/212/537
f 112/212/538 111/211/539 113/213/540
f 115/215/541 116/216/542 114/214/543
f 114/214/544 113/213/545 115/215/546
f 117/217/547 118/218/548 116/216/549
f 116/216/550 115/215/551 117/217/552
f 119/219/553 120/220/554 118/218/555
f 118/218/556 117/217/557 119/219/558
f 121/221/559 122/222/560 120/220/561
f 120/220/562 119/219/563 121/221/564
f 123/223/565 124/224/566 122/254/567
f 122/254/568 121/253/569 123/223/570
f 125/225/571 126/226/572 124/224/573
f 124/224/574 123/223/575 125/225/576
f 127/227/577 128/228/578 126/226/579
f 126/226/580 125/225/581 127/227/582
f 129/229/583 130/230/584 128/228/585
f 128/228/586 127/227/587 129/229/588
f 131/231/589 132/232/590 130/230/591
f 130/230/592 129/229/593 131/231/594
f 133/233/595 134/234/596 132/232/597
f 132/232/598 131/231/599 133/233/600
f 135/235/601 136/236/602 134/234/603
f 134/234/604 133/233/605 135/235/606
f 137/237/607 138/238/608 136/236/609
f 136/236/610 135/235/611 137/237/612
f 139/239/613 140/240/614 138/238/615
f 138/238/616 137/237/617 139/239/618
f 141/241/619 142/242/620 140/240/621
f 140/240/622 139/239/623 141/241/624
f 143/243/625 144/244/626 142/242/627
f 142/242/628 141/241/629 143/243/630
f 145/245/631 146/246/632 144/244/633
f 144/244/634 143/243/635 145/245/636
f 147/247/637 148/248/638 146/246/639
f 146/246/640 145/245/641 147/247/642
f 149/249/643 150/250/644 148/248/645
f 148/248/646 147/247/647 149/249/648
f 151/251/649 152/252/650 150/250/651
f 150/250/652 149/249/653 151/251/654
f 105/195/655 108/208/656 152/252/657
f 152/252/658 151/251/659 105/195/660
f 110/160/661 114/164/662 108/206/663
f 108/206/664 107/159/665 110/160/666
f 149/158/667 145/163/668 105/205/669
f 105/205/670 151/157/671 149/158/672
f 110/160/673 112/162/674 114/164/675
f 122/172/676 138/188/677 108/206/678
f 108/206/679 114/164/680 122/172/681
f 149/158/682 147/161/683 145/163/684
f 137/171/685 121/187/686 105/205/687
f 105/205/688 145/163/689 137/171/690
f 114/164/691 116/166/692 118/168/693
f 118/168/694 120/170/695 122/172/696
f 122/172/697 114/164/698 118/168/699
f 122/172/700 124/174/701 126/176/702
f 126/176/703 128/178/704 130/180/705
f 130/180/706 122/172/707 126/176/708
f 130/180/709 132/182/710 134/184/711
f 134/184/712 136/186/713 138/188/714
f 138/188/715 130/180/716 134/184/717
f 122/172/718 130/180/719 138/188/720
f 146/196/721 150/202/722 108/206/723
f 108/206/724 138/188/725 146/196/726
f 145/163/727 143/165/728 141/167/729
f 141/167/730 139/169/731 137/171/732
f 137/171/733 145/163/734 141/167/735
f 137/171/736 135/173/737 133/175/738
f 133/175/739 131/177/740 129/179/741
f 129/179/742 137/171/743 133/175/744
f 129/179/745 127/181/746 125/183/747
f 125/183/748 123/185/749 121/187/750
f 121/187/751 129/179/752 125/183/753
f 137/171/754 129/179/755 121/187/756
f 113/197/757 109/201/758 105/205/759
f 105/205/760 121/187/761 113/197/762
f 138/188/763 140/190/764 142/192/765
f 142/192/766 144/194/767 146/196/768
f 146/196/769 138/188/770 142/192/771
f 146/196/772 148/199/773 150/202/774
f 150/202/775 152/204/776 108/206/777
f 121/187/778 119/189/779 117/191/780
f 117/191/781 115/193/782 113/197/783
f 113/197/784 121/187/785 117/191/786
f 113/197/787 111/198/788 109/201/789
f 109/201/790 106/203/791 105/205/792
f 154/298/793 155/305/794 156/306/795
f 156/306/796 153/293/797 154/298/798
f 157/307/799 158/308/800 155/305/801
f 155/305/802 154/298/803 157/307/804
f 159/309/805 160/310/806 158/308/807
f 158/308/808 157/307/809 159/309/810
f 161/311/811 162/312/812 160/310/813
f 160/310/814 159/309/815 161/311/816
f 163/313/817 164/314/818 162/312/819
f 162/312/820 161/311/821 163/313/822
f 165/315/823 166/316/824 164/314/825
f 164/314/826 163/313/827 165/315/828
f 167/317/829 168/318/830 166/316/831
f 166/316/832 165/315/833 167/317/834
f 169/319/835 170/320/836 168/318/837
f 168/318/838 167/317/839 169/319/840
f 171/321/841 172/322/842 170/352/843
f 170/352/844 169/351/845 171/321/846
f 173/323/847 174/324/848 172/322/849
f 172/322/850 171/321/851 173/323/852
f 175/325/853 176/326/854 174/324/855
f 174/324/856 173/323/857 175/325/858
f 177/327/859 178/328/860 176/326/861
f 176/326/862 175/325/863 177/327/864
f 179/329/865 180/330/866 178/328/867
f 178/328/868 177/327/869 179/329/870
f 181/331/871 182/332/872 180/330/873
f 180/330/874 179/329/875 181/331/876
f 183/333/877 184/334/878 182/332/879
f 182/332/880 181/331/881 183/333/882
f 185/335/883 186/336/884 184/334/885
f 184/334/886 183/333/887 185/335/888
f 187/337/889 188/338/890 186/336/891
f 186/336/892 185/335/893 187/337/894
f 189/339/895 190/340/896 188/338/897
f 188/338/898 187/337/899 189/339/900
f 191/341/901 192/342/902 190/340/903
f 190/340/904 189/339/905 191/341/906
f 193/343/907 194/344/908 192/342/909
f 192/342/910 191/341/911 193/343/912
f 195/345/913 196/346/914 194/344/915
f 194/344/916 193/343/917 195/345/918
f 197/347/919 198/348/920 196/346/921
f 196/346/922 195/345/923 197/347/924
f 199/349/925 200/350/926 198/348/927
f 198/348/928 197/347/929 199/349/930
f 153/293/931 156/306/932 200/350/933
f 200/350/934 199/349/935 153/293/936
f 158/258/937 162/262/938 156/304/939
f 156/304/940 155/257/941 158/258/942
f 197/256/943 193/261/944 153/303/945
f 153/303/946 199/255/947 197/256/948
f 158/258/949 160/260/950 162/262/951
f 170/270/952 186/286/953 156/304/954
f 156/304/955 162/262/956 170/270/957
f 197/256/958 195/259/959 193/261/960
f 185/269/961 169/285/962 153/303/963
f 153/303/964 193/261/965 185/269/966
f 162/262/967 164/264/968 166/266/969
f 166/266/970 168/268/971 170/270/972
f 170/270/973 162/262/974 166/266/975
f 170/270/976 172/272/977 174/274/978
f 174/274/979 176/276/980 178/278/981
f 178/278/982 170/270/983 174/274/984
f 178/278/985 180/280/986 182/282/987
f 182/282/988 184/284/989 186/286/990
f 186/286/991 178/278/992 182/282/993
f 170/270/994 178/278/995 186/286/996
f 194/294/997 198/300/998 156/304/999
f 156/304/1000 186/286/1001 194/294/1002
f 193/261/1003 191/263/1004 189/265/1005
f 189/265/1006 187/267/1007 185/269/1008
f 185/269/1009 193/261/1010 189/265/1011
f 185/269/1012 183/271/1013 181/273/1014
f 181/273/1015 179/275/1016 177/277/1017
f 177/277/1018 185/269/1019 181/273/1020
f 177/277/1021 175/279/1022 173/281/1023
f 173/281/1024 171/283/1025 169/285/1026
f 169/285/1027 177/277/1028 173/281/1029
f 185/269/1030 177/277/1031 169/285/1032
f 161/295/1033 157/299/1034 153/303/1035
f 153/303/1036 169/285/1037 161/295/1038
f 186/286/1039 188/288/1040 190/290/1041
f 190/290/1042 192/292/1043 194/294/1044
f 194/294/1045 186/286/1046 190/290/1047
f 194/294/1048 196/297/1049 198/300/1050
f 198/300/1051 200/302/1052 156/304/1053
f 169/285/1054 167/287/1055 165/289/1056
f 165/289/1057 163/291/1058 161/295/1059
f 161/295/1060 169/285/1061 165/289/1062
f 161/295/1063 159/296/1064 157/299/1065
f 157/299/1066 154/301/1067 153/303/1068
