# This file uses feet as units for non-parametric coordinates.

g default
v 16.628580 4.861824 -3.450641
v 15.296681 4.861824 -6.666136
v 13.177933 4.861824 -9.427346
v 10.416725 4.861824 -11.546101
v 7.201231 4.861824 -12.878000
v 3.750569 4.861824 -13.332294
v 15.417397 6.115733 -3.126107
v 14.210765 6.115733 -6.039184
v 12.291286 6.115733 -8.540698
v 9.789771 6.115733 -10.460184
v 6.876695 6.115733 -11.666818
v 3.750569 6.115733 -12.078381
v 16.325785 5.802257 -3.369509
v 15.025203 5.802257 -6.509398
v 12.956271 5.802257 -9.205687
v 10.259987 5.802257 -11.274618
v 7.120096 5.802257 -12.575210
v 3.750569 5.802257 -13.018814
v 17.082867 4.861824 -0.000001
v 16.769388 5.802257 -0.000001
v 15.828958 6.115733 -0.000001
v 12.437839 6.115733 -2.327734
v 11.539365 6.115733 -4.496848
v 10.110096 6.115733 -6.359511
v 8.247437 6.115733 -7.788780
v 6.078323 6.115733 -8.687258
v 3.750569 6.115733 -8.993715
v 2.114571 6.115733 -12.078380
v 12.226906 6.837982 -2.271212
v 11.363194 6.800977 -4.360641
v 9.942916 6.800977 -6.199019
v 8.099774 6.800977 -7.572190
v 6.022696 6.800977 -8.471034
v 3.747027 6.800977 -8.763644
v 3.685656 7.515122 -7.786240
v 5.748685 7.515122 -7.542802
v 7.630540 7.515122 -6.729142
v 9.246936 7.515122 -5.493638
v 10.466355 7.515122 -3.870671
v 11.234209 7.515122 -2.013430
v 2.114571 4.861824 -13.332292
v 1.950288 4.861824 -14.215195
v 0.894877 4.861824 -14.897346
v 0.000005 4.861824 -15.001847
v 2.114571 5.802257 -13.018811
v 1.979679 6.825577 -12.078379
v 0.894877 7.515122 -12.078379
v 2.114571 6.115733 -8.993715
v 1.946177 6.825577 -8.841240
v 0.941145 7.515122 -7.827673
v 0.000001 7.646162 -7.264533
v 0.000005 7.646162 -12.078387
v 3.652230 7.646163 -7.252879
v 5.609985 7.646162 -6.953563
v 7.343119 7.646163 -6.225662
v 8.842843 7.646163 -5.098963
v 10.010592 7.646163 -3.624591
v 10.695798 7.646163 -1.883704
v 0.894877 7.185835 -13.461563
v 0.000005 7.321237 -13.524940
v 0.894877 6.203764 -14.498297
v 0.000005 6.284677 -14.624717
v 1.979679 6.587697 -13.213436
v 1.968032 5.865720 -13.979615
v 12.744292 6.115733 -0.000001
v 11.492221 7.515122 -0.000001
v 12.527872 6.837651 -0.000001
v 10.937469 7.646163 -0.000000
v 0.000006 7.646162 -0.000005
v 16.628580 4.861824 3.450639
v 15.296681 4.861824 6.666135
v 13.177933 4.861824 9.427346
v 10.416726 4.861824 11.546101
v 7.201231 4.861824 12.878000
v 3.750570 4.861824 13.332294
v 15.417397 6.115733 3.126105
v 14.210765 6.115733 6.039183
v 12.437839 6.115733 2.327733
v 12.291286 6.115733 8.540698
v 11.539365 6.115733 4.496847
v 9.789772 6.115733 10.460184
v 10.110097 6.115733 6.359510
v 6.876696 6.115733 11.666818
v 8.247437 6.115733 7.788780
v 3.750570 6.115733 12.078381
v 6.078324 6.115733 8.687258
v 2.114572 4.861824 13.332292
v 3.750570 6.115733 8.993715
v 2.114572 6.115733 8.993715
v 16.325785 5.802257 3.369508
v 15.025203 5.802257 6.509397
v 12.956271 5.802257 9.205687
v 10.259988 5.802257 11.274618
v 7.120097 5.802257 12.575210
v 3.750570 5.802257 13.018814
v 2.114572 6.115733 12.078380
v 2.114572 5.802257 13.018811
v 12.226906 6.837982 2.271211
v 11.363194 6.800977 4.360640
v 9.942917 6.800977 6.199018
v 8.099775 6.800977 7.572190
v 6.022697 6.800977 8.471034
v 3.747028 6.800977 8.763644
v 1.946178 6.825577 8.841240
v 11.234209 7.515122 2.013429
v 10.466355 7.515122 3.870670
v 9.246937 7.515122 5.493637
v 7.630541 7.515122 6.729142
v 5.748686 7.515122 7.542802
v 3.685657 7.515122 7.786240
v 0.941145 7.515122 7.827673
v 0.000001 7.646162 7.264523
v 3.652230 7.646163 7.252879
v 5.609986 7.646162 6.953563
v 7.343119 7.646163 6.225662
v 8.842843 7.646163 5.098963
v 10.010592 7.646163 3.624590
v 10.695798 7.646163 1.883703
v 1.950289 4.861824 14.215195
v 0.894878 4.861824 14.897346
v 0.000006 4.861824 15.001838
v 1.968034 5.865720 13.979615
v 1.979680 6.587697 13.213436
v 0.894878 6.203764 14.498297
v 0.894878 7.185835 13.461563
v 0.000006 6.284677 14.624707
v 1.979680 6.825577 12.078379
v 0.894878 7.515122 12.078379
v 0.000006 7.646162 12.078378
v 0.000006 7.321237 13.524930
v 7.201231 0.000000 -12.878000
v 1.951023 0.000000 -14.210625
v 13.177933 -0.000000 9.427346
v 10.416726 -0.000000 11.546101
v 7.201231 -0.000000 12.878000
v 0.894878 -0.000000 14.883198
v 0.000006 -0.000000 15.001839
v 0.000006 0.000000 -0.000005
v 15.828958 -6.115733 -0.000001
v 15.417397 -6.115733 -3.126107
v 12.744292 -6.115733 -0.000001
v 14.210765 -6.115733 -6.039184
v 12.437839 -6.115733 -2.327734
v 12.291286 -6.115733 -8.540698
v 11.539365 -6.115733 -4.496848
v 9.789771 -6.115733 -10.460184
v 10.110096 -6.115733 -6.359511
v 6.876695 -6.115733 -11.666818
v 8.247437 -6.115733 -7.788780
v 3.750569 -6.115733 -12.078381
v 6.078323 -6.115733 -8.687258
v 3.750569 -4.861824 -13.332294
v 2.114571 0.000000 -13.332292
v 2.114571 -4.861824 -13.332292
v 3.750569 -6.115733 -8.993715
v 2.114571 -6.115733 -8.993715
v 16.628580 -4.861824 -3.450641
v 16.769388 -5.802257 -0.000001
v 17.082867 -4.861824 -0.000001
v 15.296681 -4.861824 -6.666136
v 16.325785 -5.802257 -3.369509
v 13.177933 -4.861824 -9.427346
v 15.025203 -5.802257 -6.509398
v 10.416725 -4.861824 -11.546101
v 12.956271 -5.802257 -9.205687
v 7.201231 -4.861824 -12.878000
v 10.259987 -5.802257 -11.274618
v 7.120096 -5.802257 -12.575210
v 3.750569 -5.802257 -13.018814
v 2.114571 -6.115733 -12.078380
v 2.114571 -5.802257 -13.018811
v 3.750569 0.000000 -13.332294
v 12.226906 -6.837982 -2.271212
v 12.527872 -6.837651 -0.000001
v 11.363194 -6.800977 -4.360641
v 9.942916 -6.800977 -6.199019
v 8.099774 -6.800977 -7.572190
v 6.022696 -6.800977 -8.471034
v 3.747027 -6.800977 -8.763644
v 1.946177 -6.825577 -8.841240
v 11.234209 -7.515122 -2.013430
v 11.492221 -7.515122 -0.000001
v 10.466355 -7.515122 -3.870671
v 9.246936 -7.515122 -5.493638
v 7.630540 -7.515122 -6.729142
v 5.748685 -7.515122 -7.542802
v 3.685656 -7.515122 -7.786240
v 0.941145 -7.515122 -7.827673
v 0.000001 -7.646162 -7.264533
v 3.652230 -7.646163 -7.252879
v 5.609985 -7.646162 -6.953563
v 7.343119 -7.646163 -6.225662
v 8.842843 -7.646163 -5.098963
v 10.010592 -7.646163 -3.624591
v 10.695798 -7.646163 -1.883704
v 10.937469 -7.646163 -0.000000
v 1.968032 -5.865720 -13.979615
v 1.979679 -6.587697 -13.213436
v 0.894877 -6.203764 -14.498297
v 0.894877 -7.185835 -13.461563
v 0.894877 -4.861824 -14.897346
v 0.000005 -6.284677 -14.624717
v 1.979679 -6.825577 -12.078379
v 0.894877 -7.515122 -12.078379
v 0.000005 -7.646162 -12.078387
v 0.000006 -7.646162 -0.000005
v 0.000005 -7.321237 -13.524940
v 1.950288 -4.861824 -14.215195
v 0.000005 -4.861824 -15.001847
v 15.417397 -6.115733 3.126105
v 12.437839 -6.115733 2.327733
v 14.210765 -6.115733 6.039183
v 11.539365 -6.115733 4.496847
v 12.291286 -6.115733 8.540698
v 10.110097 -6.115733 6.359510
v 9.789772 -6.115733 10.460184
v 8.247437 -6.115733 7.788780
v 6.876696 -6.115733 11.666818
v 6.078324 -6.115733 8.687258
v 3.750570 -6.115733 12.078381
v 3.750570 -4.861824 13.332294
v 2.114572 -4.861824 13.332292
v 2.114572 -0.000000 13.332292
v 3.750570 -6.115733 8.993715
v 2.114572 -6.115733 8.993715
v 16.628580 -4.861824 3.450639
v 15.296681 -4.861824 6.666135
v 16.325785 -5.802257 3.369508
v 13.177933 -4.861824 9.427346
v 15.025203 -5.802257 6.509397
v 10.416726 -4.861824 11.546101
v 12.956271 -5.802257 9.205687
v 7.201231 -4.861824 12.878000
v 10.259988 -5.802257 11.274618
v 7.120097 -5.802257 12.575210
v 2.114572 -6.115733 12.078380
v 3.750570 -5.802257 13.018814
v 2.114572 -5.802257 13.018811
v 3.750570 -0.000000 13.332294
v 12.226906 -6.837982 2.271211
v 11.363194 -6.800977 4.360640
v 9.942917 -6.800977 6.199018
v 8.099775 -6.800977 7.572190
v 6.022697 -6.800977 8.471034
v 3.747028 -6.800977 8.763644
v 1.946178 -6.825577 8.841240
v 11.234209 -7.515122 2.013429
v 10.466355 -7.515122 3.870670
v 9.246937 -7.515122 5.493637
v 7.630541 -7.515122 6.729142
v 5.748686 -7.515122 7.542802
v 3.685657 -7.515122 7.786240
v 0.941145 -7.515122 7.827673
v 3.652230 -7.646163 7.252879
v 0.000001 -7.646162 7.264523
v 5.609986 -7.646162 6.953563
v 7.343119 -7.646163 6.225662
v 8.842843 -7.646163 5.098963
v 10.010592 -7.646163 3.624590
v 10.695798 -7.646163 1.883703
v 1.968034 -5.865720 13.979615
v 1.979680 -6.587697 13.213436
v 0.894878 -6.203764 14.498297
v 0.894878 -7.185835 13.461563
v 0.894878 -4.861824 14.897346
v 0.000006 -6.284677 14.624707
v 1.979680 -6.825577 12.078379
v 0.894878 -7.515122 12.078379
v 0.000006 -7.646162 12.078378
v 0.000006 -7.321237 13.524930
v 1.950289 -4.861824 14.215195
v 0.000006 -4.861824 15.001838
v 17.082867 0.000000 -0.000001
v 16.628580 0.000000 -3.450641
v 15.296681 0.000000 -6.666136
v 13.177933 0.000000 -9.427346
v 10.416725 0.000000 -11.546101
v 0.894877 0.000000 -14.883198
v 0.000005 0.000000 -15.001848
v 16.628580 -0.000000 3.450639
v 15.296681 -0.000000 6.666135
v 1.951024 -0.000000 14.210625
v 0.000003 0.000000 -7.264532
v 0.000004 -0.000000 7.264524
v 0.000006 -0.000000 12.078377
v 0.000005 0.000000 -12.078386
vt 0.118561 0.830333
vt 0.027198 0.830333
vt 0.209982 0.830333
vt 0.300784 0.830333
vt 0.389946 0.830333
vt 0.478211 0.830333
vt 0.563086 0.830333
vt 0.027198 0.890590
vt 0.118561 0.890590
vt 0.209982 0.890590
vt 0.300784 0.890590
vt 0.389946 0.890590
vt 0.478211 0.890590
vt 0.563086 0.890590
vt 0.118561 0.861184
vt 0.027198 0.861184
vt 0.209982 0.861184
vt 0.300784 0.861184
vt 0.389946 0.861184
vt 0.478211 0.861184
vt 0.563086 0.861184
vt 0.027198 0.976439
vt 0.118561 0.976439
vt 0.209982 0.976439
vt 0.300784 0.976439
vt 0.389946 0.976439
vt 0.478211 0.976439
vt 0.563086 0.976439
vt 0.627641 0.890590
vt 0.627641 0.830333
vt 0.627641 0.861184
vt 0.627641 0.976439
vt 0.669733 0.748089
vt 0.651094 0.768470
vt 0.704290 0.724096
vt 0.727759 0.713389
vt 0.059190 0.012449
vt 0.123452 0.032947
vt 0.115124 0.052601
vt 0.053397 0.033637
vt 0.183387 0.064353
vt 0.171684 0.080998
vt 0.236486 0.106018
vt 0.222688 0.121168
vt 0.281910 0.155779
vt 0.265732 0.168965
vt 0.318322 0.212619
vt 0.300410 0.221967
vt 0.344052 0.274448
vt 0.324855 0.281586
vt 0.359592 0.318251
vt 0.341754 0.329722
vt 0.100690 0.088971
vt 0.045695 0.072655
vt 0.151031 0.114804
vt 0.196215 0.149686
vt 0.234999 0.191861
vt 0.266385 0.240239
vt 0.288124 0.294644
vt 0.311961 0.368748
vt 0.303891 0.399136
vt 0.816505 0.970816
vt 0.790971 0.970293
vt 0.856829 0.970935
vt 0.882230 0.970722
vt 0.667224 0.794240
vt 0.686865 0.829438
vt 0.667390 0.824089
vt 0.726988 0.837077
vt 0.752731 0.840137
vt 0.668287 0.918897
vt 0.648895 0.910021
vt 0.225776 0.416819
vt 0.019507 0.416823
vt 0.702499 0.955161
vt 0.726669 0.975792
vt 0.273267 0.299862
vt 0.250489 0.247697
vt 0.221438 0.202006
vt 0.225446 0.313119
vt 0.216947 0.257532
vt 0.196280 0.208322
vt 0.164289 0.165740
vt 0.122427 0.132584
vt 0.072996 0.113129
vt 0.019510 0.106267
vt 0.185110 0.161857
vt 0.143159 0.127831
vt 0.095031 0.103968
vt 0.043183 0.088686
vt 0.729034 0.797903
vt 0.753942 0.795931
vt 0.720276 0.759706
vt 0.744769 0.751976
vt 0.689956 0.798878
vt 0.684197 0.772075
vt 0.118561 0.830333
vt 0.027198 0.830333
vt 0.209982 0.830333
vt 0.300784 0.830333
vt 0.389946 0.830333
vt 0.478211 0.830333
vt 0.563086 0.830333
vt 0.027198 0.890590
vt 0.118561 0.890590
vt 0.027198 0.976439
vt 0.209982 0.890590
vt 0.118561 0.976439
vt 0.300784 0.890590
vt 0.209982 0.976439
vt 0.389946 0.890590
vt 0.300784 0.976439
vt 0.478211 0.890590
vt 0.389946 0.976439
vt 0.563086 0.890590
vt 0.478211 0.976439
vt 0.627641 0.830333
vt 0.563086 0.976439
vt 0.627641 0.976439
vt 0.027198 0.861184
vt 0.118561 0.861184
vt 0.209982 0.861184
vt 0.300784 0.861184
vt 0.389946 0.861184
vt 0.478211 0.861184
vt 0.563086 0.861184
vt 0.627641 0.890590
vt 0.627641 0.861184
vt 0.059190 0.012449
vt 0.115124 0.052601
vt 0.053397 0.033637
vt 0.123452 0.032947
vt 0.171684 0.080998
vt 0.183387 0.064353
vt 0.222688 0.121168
vt 0.236486 0.106018
vt 0.265732 0.168965
vt 0.281910 0.155779
vt 0.300410 0.221967
vt 0.318322 0.212619
vt 0.324855 0.281586
vt 0.344052 0.274448
vt 0.341754 0.329722
vt 0.100690 0.088971
vt 0.045695 0.072655
vt 0.151031 0.114804
vt 0.196215 0.149686
vt 0.234999 0.191861
vt 0.266385 0.240239
vt 0.288124 0.294644
vt 0.311961 0.368748
vt 0.303891 0.399136
vt 0.273267 0.299862
vt 0.250489 0.247697
vt 0.221438 0.202006
vt 0.185110 0.161857
vt 0.143159 0.127831
vt 0.095031 0.103968
vt 0.043183 0.088686
vt 0.816505 0.970816
vt 0.790971 0.970293
vt 0.856829 0.970935
vt 0.882230 0.970722
vt 0.684197 0.772075
vt 0.689956 0.798878
vt 0.667224 0.794240
vt 0.720276 0.759706
vt 0.729034 0.797903
vt 0.704290 0.724096
vt 0.744769 0.751976
vt 0.686865 0.829438
vt 0.667390 0.824089
vt 0.668287 0.918897
vt 0.648895 0.910021
vt 0.702499 0.955161
vt 0.726988 0.837077
vt 0.726669 0.975792
vt 0.359592 0.318251
vt 0.752731 0.840137
vt 0.225776 0.416819
vt 0.019507 0.416823
vt 0.225446 0.313119
vt 0.216947 0.257532
vt 0.196280 0.208322
vt 0.164289 0.165740
vt 0.122427 0.132584
vt 0.072996 0.113129
vt 0.019510 0.106267
vt 0.753942 0.795931
vt 0.651094 0.768470
vt 0.669733 0.748089
vt 0.727759 0.713389
vt 0.368564 0.413775
vt 0.384962 0.325392
vt 0.376579 0.327613
vt 0.368562 0.370976
vt 0.368559 0.342615
vt 0.370473 0.334092
vt 0.368562 0.370976
vt 0.368559 0.342615
vt 0.368564 0.413775
vt 0.384962 0.325392
vt 0.370473 0.334092
vt 0.376579 0.327613
vt 0.072879 0.690700
vt 0.027198 0.690700
vt 0.027198 0.690700
vt 0.164271 0.690700
vt 0.118561 0.690700
vt 0.255383 0.690700
vt 0.209982 0.690700
vt 0.345365 0.690700
vt 0.300784 0.690700
vt 0.434079 0.690700
vt 0.389946 0.690700
vt 0.520649 0.690700
vt 0.478211 0.690700
vt 0.595364 0.690700
vt 0.627641 0.690700
vt 0.791474 0.831935
vt 0.563086 0.690700
vt 0.804240 0.832196
vt 0.836778 0.833172
vt 0.816616 0.833112
vt 0.869383 0.832799
vt 0.856682 0.832906
vt 0.882077 0.831904
vt 0.413604 0.325392
vt 0.072879 0.690700
vt 0.118561 0.690700
vt 0.164271 0.690700
vt 0.209982 0.690700
vt 0.255383 0.690700
vt 0.300784 0.690700
vt 0.345365 0.690700
vt 0.389946 0.690700
vt 0.434079 0.690700
vt 0.478211 0.690700
vt 0.520649 0.690700
vt 0.627641 0.690700
vt 0.791474 0.831935
vt 0.595364 0.690700
vt 0.563086 0.690700
vt 0.804240 0.832196
vt 0.816616 0.833112
vt 0.836778 0.833172
vt 0.856682 0.832905
vt 0.869383 0.832799
vt 0.882077 0.831904
vt 0.413604 0.325392
vt 0.413605 0.351132
vt 0.413606 0.365163
vt 0.413604 0.340884
vt 0.413608 0.386336
vt 0.413604 0.332086
vt 0.413608 0.389331
vt 0.413608 0.392718
vt 0.413609 0.398353
vt 0.413608 0.402840
vt 0.413608 0.413775
vt 0.413608 0.413775
vt 0.413608 0.411051
vt 0.413608 0.408373
vt 0.413608 0.405821
vt 0.413608 0.404032
vt 0.413605 0.351132
vt 0.413604 0.340884
vt 0.413606 0.365163
vt 0.413608 0.386336
vt 0.413604 0.332086
vt 0.413608 0.392718
vt 0.413608 0.389331
vt 0.413609 0.398353
vt 0.413609 0.402840
vt 0.413608 0.411051
vt 0.413608 0.405821
vt 0.413608 0.408373
vt 0.413608 0.404032
vt 0.027198 0.890590
vt 0.118561 0.890590
vt 0.027198 0.976439
vt 0.209982 0.890590
vt 0.118561 0.976439
vt 0.300784 0.890590
vt 0.209982 0.976439
vt 0.389946 0.890590
vt 0.300784 0.976439
vt 0.478211 0.890590
vt 0.389946 0.976439
vt 0.563086 0.890590
vt 0.478211 0.976439
vt 0.563086 0.830333
vt 0.595364 0.690700
vt 0.627641 0.690700
vt 0.627641 0.830333
vt 0.563086 0.976439
vt 0.627641 0.976439
vt 0.118561 0.830333
vt 0.027198 0.861184
vt 0.027198 0.830333
vt 0.209982 0.830333
vt 0.118561 0.861184
vt 0.300784 0.830333
vt 0.209982 0.861184
vt 0.389946 0.830333
vt 0.300784 0.861184
vt 0.478211 0.830333
vt 0.389946 0.861184
vt 0.478211 0.861184
vt 0.563086 0.861184
vt 0.627641 0.890590
vt 0.627641 0.861184
vt 0.563086 0.690700
vt 0.059190 0.012449
vt 0.115124 0.052601
vt 0.053397 0.033637
vt 0.123452 0.032947
vt 0.171684 0.080998
vt 0.183387 0.064353
vt 0.222688 0.121168
vt 0.236486 0.106018
vt 0.265732 0.168965
vt 0.281910 0.155779
vt 0.300410 0.221967
vt 0.318322 0.212619
vt 0.324855 0.281586
vt 0.344052 0.274448
vt 0.341754 0.329722
vt 0.100690 0.088971
vt 0.045695 0.072655
vt 0.151031 0.114804
vt 0.196215 0.149686
vt 0.234999 0.191861
vt 0.266385 0.240239
vt 0.288124 0.294644
vt 0.311961 0.368748
vt 0.303891 0.399136
vt 0.273267 0.299862
vt 0.250489 0.247697
vt 0.221438 0.202006
vt 0.185110 0.161857
vt 0.143159 0.127831
vt 0.095031 0.103968
vt 0.043183 0.088686
vt 0.684197 0.772075
vt 0.689956 0.798878
vt 0.667224 0.794240
vt 0.720276 0.759706
vt 0.729034 0.797903
vt 0.704290 0.724096
vt 0.744769 0.751976
vt 0.686865 0.829438
vt 0.667390 0.824089
vt 0.668287 0.918897
vt 0.648895 0.910021
vt 0.702499 0.955161
vt 0.726988 0.837077
vt 0.726669 0.975792
vt 0.359592 0.318251
vt 0.752731 0.840137
vt 0.225776 0.416819
vt 0.019507 0.416823
vt 0.225446 0.313119
vt 0.216947 0.257532
vt 0.196280 0.208322
vt 0.164289 0.165740
vt 0.122427 0.132584
vt 0.072996 0.113129
vt 0.019510 0.106267
vt 0.753942 0.795931
vt 0.651094 0.768470
vt 0.669733 0.748089
vt 0.727759 0.713389
vt 0.027198 0.890590
vt 0.027198 0.976439
vt 0.118561 0.890590
vt 0.118561 0.976439
vt 0.209982 0.890590
vt 0.209982 0.976439
vt 0.300784 0.890590
vt 0.300784 0.976439
vt 0.389946 0.890590
vt 0.389946 0.976439
vt 0.478211 0.890590
vt 0.478211 0.976439
vt 0.563086 0.890590
vt 0.563086 0.830333
vt 0.627641 0.830333
vt 0.627641 0.690700
vt 0.595364 0.690700
vt 0.563086 0.976439
vt 0.627641 0.976439
vt 0.118561 0.830333
vt 0.027198 0.830333
vt 0.027198 0.861184
vt 0.209982 0.830333
vt 0.118561 0.861184
vt 0.300784 0.830333
vt 0.209982 0.861184
vt 0.389946 0.830333
vt 0.300784 0.861184
vt 0.478211 0.830333
vt 0.389946 0.861184
vt 0.478211 0.861184
vt 0.627641 0.890590
vt 0.563086 0.861184
vt 0.627641 0.861184
vt 0.563086 0.690700
vt 0.059190 0.012449
vt 0.053397 0.033637
vt 0.115124 0.052601
vt 0.123452 0.032947
vt 0.171684 0.080998
vt 0.183387 0.064353
vt 0.222688 0.121168
vt 0.236486 0.106018
vt 0.265732 0.168965
vt 0.281910 0.155779
vt 0.300410 0.221967
vt 0.318322 0.212619
vt 0.324855 0.281586
vt 0.344052 0.274448
vt 0.341754 0.329722
vt 0.045695 0.072655
vt 0.100690 0.088971
vt 0.151031 0.114804
vt 0.196215 0.149686
vt 0.234999 0.191861
vt 0.266385 0.240239
vt 0.288124 0.294644
vt 0.311961 0.368748
vt 0.273267 0.299862
vt 0.303891 0.399136
vt 0.250489 0.247697
vt 0.221438 0.202006
vt 0.185110 0.161857
vt 0.143159 0.127831
vt 0.095031 0.103968
vt 0.043183 0.088686
vt 0.684197 0.772075
vt 0.667224 0.794240
vt 0.689956 0.798878
vt 0.720276 0.759706
vt 0.729034 0.797903
vt 0.704290 0.724096
vt 0.744769 0.751976
vt 0.667390 0.824089
vt 0.686865 0.829438
vt 0.648895 0.910021
vt 0.668287 0.918897
vt 0.702499 0.955161
vt 0.726988 0.837077
vt 0.726669 0.975792
vt 0.359592 0.318251
vt 0.752731 0.840137
vt 0.225776 0.416819
vt 0.225446 0.313119
vt 0.019507 0.416823
vt 0.216947 0.257532
vt 0.196280 0.208322
vt 0.164289 0.165740
vt 0.122427 0.132584
vt 0.072996 0.113129
vt 0.019510 0.106267
vt 0.753942 0.795931
vt 0.651094 0.768470
vt 0.669733 0.748089
vt 0.727759 0.713389
vt 0.368559 0.342615
vt 0.413605 0.351132
vt 0.413606 0.365163
vt 0.368562 0.370976
vt 0.413608 0.386336
vt 0.368564 0.413775
vt 0.413604 0.332086
vt 0.413604 0.340884
vt 0.384962 0.325392
vt 0.370473 0.334092
vt 0.413608 0.389331
vt 0.413608 0.392718
vt 0.376579 0.327613
vt 0.368559 0.342615
vt 0.413605 0.351132
vt 0.413604 0.340884
vt 0.368562 0.370976
vt 0.368564 0.413775
vt 0.413608 0.386336
vt 0.413606 0.365163
vt 0.413604 0.332086
vt 0.413604 0.325392
vt 0.384962 0.325392
vt 0.370473 0.334092
vt 0.413608 0.392718
vt 0.413608 0.389331
vt 0.376579 0.327613
vt 0.072879 0.690700
vt 0.027198 0.690700
vt 0.164271 0.690700
vt 0.118561 0.690700
vt 0.255383 0.690700
vt 0.209982 0.690700
vt 0.345365 0.690700
vt 0.300784 0.690700
vt 0.434079 0.690700
vt 0.389946 0.690700
vt 0.520649 0.690700
vt 0.478211 0.690700
vt 0.804240 0.832196
vt 0.816505 0.970816
vt 0.790971 0.970293
vt 0.791474 0.831935
vt 0.836778 0.833172
vt 0.856829 0.970935
vt 0.816616 0.833112
vt 0.869383 0.832799
vt 0.882230 0.970722
vt 0.856682 0.832906
vt 0.882077 0.831904
vt 0.027198 0.690700
vt 0.072879 0.690700
vt 0.118561 0.690700
vt 0.164271 0.690700
vt 0.209982 0.690700
vt 0.255383 0.690700
vt 0.300784 0.690700
vt 0.345365 0.690700
vt 0.389946 0.690700
vt 0.434079 0.690700
vt 0.478211 0.690700
vt 0.520649 0.690700
vt 0.791474 0.831935
vt 0.790971 0.970293
vt 0.816505 0.970816
vt 0.804240 0.832196
vt 0.816616 0.833112
vt 0.856829 0.970935
vt 0.836778 0.833172
vt 0.856682 0.832905
vt 0.882230 0.970722
vt 0.869383 0.832799
vt 0.882077 0.831904
vt 0.413604 0.325392
vt 0.413609 0.398353
vt 0.413608 0.402840
vt 0.413608 0.413775
vt 0.413608 0.411051
vt 0.413608 0.408373
vt 0.413608 0.405821
vt 0.413608 0.404032
vt 0.413609 0.398353
vt 0.413609 0.402840
vt 0.413608 0.411051
vt 0.413608 0.413775
vt 0.413608 0.405821
vt 0.413608 0.408373
vt 0.413608 0.404032
vt 0.413607 0.370976
vt 0.413607 0.370976
vt 0.413607 0.370976
vt 0.413607 0.370976
vt 0.413604 0.342615
vt 0.413604 0.342615
vt 0.413604 0.342615
vt 0.413604 0.342615
vn 0.173130 0.984899 0.000000
vn 0.167231 0.984899 -0.044809
vn 0.000000 1.000000 0.000000
vn 0.167231 0.984899 -0.044809
vn 0.149935 0.984899 -0.086565
vn 0.000000 1.000000 0.000000
vn 0.149935 0.984899 -0.086565
vn 0.122421 0.984899 -0.122421
vn 0.000000 1.000000 0.000000
vn 0.122421 0.984899 -0.122421
vn 0.086566 0.984899 -0.149936
vn 0.000000 1.000000 0.000000
vn 0.086566 0.984899 -0.149936
vn 0.044809 0.984899 -0.167230
vn 0.000000 1.000000 0.000000
vn 0.044809 0.984899 -0.167230
vn 0.011382 0.985952 -0.166640
vn 0.000000 1.000000 0.000000
vn 0.064170 0.158834 -0.985218
vn 0.065403 0.000000 -0.997859
vn -0.000002 0.160184 -0.987087
vn 0.000000 1.000000 0.000000
vn 0.011382 0.985952 -0.166640
vn 0.000000 1.000000 0.000000
vn 0.953775 0.158116 -0.255563
vn 0.724784 0.688976 -0.000000
vn 0.987420 0.158117 0.000000
vn 0.855132 0.158116 -0.493710
vn 0.700089 0.688975 -0.187588
vn 0.953775 0.158116 -0.255563
vn 0.698212 0.158116 -0.698211
vn 0.627683 0.688975 -0.362392
vn 0.855132 0.158116 -0.493710
vn 0.493710 0.158118 -0.855131
vn 0.512501 0.688975 -0.512500
vn 0.698212 0.158116 -0.698211
vn 0.255564 0.158115 -0.953775
vn 0.362392 0.688976 -0.627681
vn 0.493710 0.158118 -0.855131
vn 0.064170 0.158834 -0.985218
vn 0.187589 0.688974 -0.700089
vn 0.255564 0.158115 -0.953775
vn 0.011382 0.985952 -0.166640
vn 0.046924 0.697469 -0.715077
vn -0.000000 0.987088 -0.160182
vn 0.700089 0.688975 -0.187588
vn 0.173130 0.984899 0.000000
vn 0.724784 0.688976 -0.000000
vn 0.627683 0.688975 -0.362392
vn 0.167231 0.984899 -0.044809
vn 0.700089 0.688975 -0.187588
vn 0.512501 0.688975 -0.512500
vn 0.149935 0.984899 -0.086565
vn 0.627683 0.688975 -0.362392
vn 0.362392 0.688976 -0.627681
vn 0.122421 0.984899 -0.122421
vn 0.512501 0.688975 -0.512500
vn 0.187589 0.688974 -0.700089
vn 0.086566 0.984899 -0.149936
vn 0.362392 0.688976 -0.627681
vn 0.046924 0.697469 -0.715077
vn 0.044809 0.984899 -0.167230
vn 0.187589 0.688974 -0.700089
vn 0.046924 0.697469 -0.715077
vn -0.000002 0.160184 -0.987087
vn -0.000001 0.707108 -0.707105
vn 0.167231 0.984899 -0.044809
vn 0.000000 1.000000 0.000000
vn 0.000000 1.000000 0.000000
vn 0.149935 0.984899 -0.086565
vn 0.000000 1.000000 0.000000
vn 0.000000 1.000000 0.000000
vn 0.122421 0.984899 -0.122421
vn 0.000000 1.000000 0.000000
vn 0.000000 1.000000 0.000000
vn 0.086566 0.984899 -0.149936
vn 0.000000 1.000000 0.000000
vn 0.000000 1.000000 0.000000
vn 0.044809 0.984899 -0.167230
vn 0.000000 1.000000 0.000000
vn 0.000000 1.000000 0.000000
vn 0.011382 0.985952 -0.166640
vn 0.000000 1.000000 0.000000
vn 0.000000 1.000000 0.000000
vn 0.011382 0.985952 -0.166640
vn -0.000000 0.987088 -0.160182
vn 0.000000 1.000000 0.000000
vn 0.953775 0.158116 -0.255563
vn 0.700089 0.688975 -0.187588
vn 0.724784 0.688976 -0.000000
vn 0.855132 0.158116 -0.493710
vn 0.627683 0.688975 -0.362392
vn 0.700089 0.688975 -0.187588
vn 0.698212 0.158116 -0.698211
vn 0.512501 0.688975 -0.512500
vn 0.627683 0.688975 -0.362392
vn 0.493710 0.158118 -0.855131
vn 0.362392 0.688976 -0.627681
vn 0.512501 0.688975 -0.512500
vn 0.255564 0.158115 -0.953775
vn 0.187589 0.688974 -0.700089
vn 0.362392 0.688976 -0.627681
vn 0.064170 0.158834 -0.985218
vn 0.046924 0.697469 -0.715077
vn 0.187589 0.688974 -0.700089
vn 0.046924 0.697469 -0.715077
vn -0.000001 0.707108 -0.707105
vn -0.000000 0.987088 -0.160182
vn 0.700089 0.688975 -0.187588
vn 0.167231 0.984899 -0.044809
vn 0.173130 0.984899 0.000000
vn 0.627683 0.688975 -0.362392
vn 0.149935 0.984899 -0.086565
vn 0.167231 0.984899 -0.044809
vn 0.512501 0.688975 -0.512500
vn 0.122421 0.984899 -0.122421
vn 0.149935 0.984899 -0.086565
vn 0.362392 0.688976 -0.627681
vn 0.086566 0.984899 -0.149936
vn 0.122421 0.984899 -0.122421
vn 0.187589 0.688974 -0.700089
vn 0.044809 0.984899 -0.167230
vn 0.086566 0.984899 -0.149936
vn 0.046924 0.697469 -0.715077
vn 0.011382 0.985952 -0.166640
vn 0.044809 0.984899 -0.167230
vn 0.046924 0.697469 -0.715077
vn 0.064170 0.158834 -0.985218
vn -0.000002 0.160184 -0.987087
vn 0.957744 0.287621 0.000000
vn 0.783516 0.584001 -0.212241
vn 0.811466 0.584400 0.000000
vn 0.923829 0.290621 -0.249156
vn 0.705493 0.579039 -0.408649
vn 0.783516 0.584001 -0.212241
vn 0.821802 0.307656 -0.479571
vn 0.571649 0.580611 -0.579749
vn 0.705493 0.579039 -0.408649
vn 0.665564 0.324285 -0.672208
vn 0.404526 0.593058 -0.696161
vn 0.571649 0.580611 -0.579749
vn 0.474476 0.352306 -0.806692
vn 0.213117 0.575071 -0.789857
vn 0.404526 0.593058 -0.696161
vn 0.244705 0.310640 -0.918489
vn 0.068744 0.588868 -0.805301
vn 0.213117 0.575071 -0.789857
vn 0.078624 0.304513 -0.949258
vn 0.475414 0.764939 -0.434568
vn 0.068744 0.588868 -0.805301
vn 0.811466 0.584400 0.000000
vn 0.395537 0.912446 -0.104844
vn 0.406286 0.913746 -0.000000
vn 0.783516 0.584001 -0.212241
vn 0.367310 0.905134 -0.214045
vn 0.395537 0.912446 -0.104844
vn 0.705493 0.579039 -0.408649
vn 0.301394 0.904666 -0.301233
vn 0.367310 0.905134 -0.214045
vn 0.571649 0.580611 -0.579749
vn 0.215399 0.903579 -0.370335
vn 0.301394 0.904666 -0.301233
vn 0.404526 0.593058 -0.696161
vn 0.111781 0.903392 -0.413991
vn 0.215399 0.903579 -0.370335
vn 0.213117 0.575071 -0.789857
vn 0.028869 0.904138 -0.426264
vn 0.111781 0.903392 -0.413991
vn 0.068744 0.588868 -0.805301
vn 0.130633 0.976194 -0.173146
vn 0.028869 0.904138 -0.426264
vn 0.028869 0.904138 -0.426264
vn 0.091845 0.992541 -0.080165
vn 0.014847 0.971813 -0.235287
vn 0.111781 0.903392 -0.413991
vn 0.014847 0.971813 -0.235287
vn 0.059408 0.977161 -0.204029
vn 0.215399 0.903579 -0.370335
vn 0.059408 0.977161 -0.204029
vn 0.110766 0.975272 -0.191247
vn 0.301394 0.904666 -0.301233
vn 0.110766 0.975272 -0.191247
vn 0.160451 0.973736 -0.161535
vn 0.367310 0.905134 -0.214045
vn 0.160451 0.973736 -0.161535
vn 0.210350 0.969714 -0.124131
vn 0.395537 0.912446 -0.104844
vn 0.210350 0.969714 -0.124131
vn 0.222991 0.973121 -0.057533
vn 0.406286 0.913746 -0.000000
vn 0.222991 0.973121 -0.057533
vn 0.229888 0.973217 0.000000
vn 0.783761 0.297454 -0.545196
vn 0.791268 0.539330 -0.288128
vn 0.986977 0.119762 -0.107397
vn 0.334822 0.488920 -0.805514
vn 0.335706 0.831822 -0.442010
vn 0.783761 0.297454 -0.545196
vn 0.333075 0.127636 -0.934222
vn 0.156076 0.513119 -0.844008
vn 0.334822 0.488920 -0.805514
vn 0.986977 0.119762 -0.107397
vn 0.815378 0.575158 -0.065970
vn 0.981434 0.189448 -0.029943
vn 0.335706 0.831822 -0.442010
vn 0.815378 0.575158 -0.065970
vn 0.791268 0.539330 -0.288128
vn 0.981434 0.189448 -0.029943
vn 0.475414 0.764939 -0.434568
vn 0.667798 0.304330 -0.679285
vn 0.815378 0.575158 -0.065970
vn 0.130633 0.976194 -0.173146
vn 0.475414 0.764939 -0.434568
vn 0.340674 0.933734 -0.109916
vn 0.091845 0.992541 -0.080165
vn 0.130633 0.976194 -0.173146
vn 0.957744 0.287621 0.000000
vn 0.923829 0.290621 -0.249156
vn 0.783516 0.584001 -0.212241
vn 0.923829 0.290621 -0.249156
vn 0.821802 0.307656 -0.479571
vn 0.705493 0.579039 -0.408649
vn 0.821802 0.307656 -0.479571
vn 0.665564 0.324285 -0.672208
vn 0.571649 0.580611 -0.579749
vn 0.665564 0.324285 -0.672208
vn 0.474476 0.352306 -0.806692
vn 0.404526 0.593058 -0.696161
vn 0.474476 0.352306 -0.806692
vn 0.244705 0.310640 -0.918489
vn 0.213117 0.575071 -0.789857
vn 0.244705 0.310640 -0.918489
vn 0.078624 0.304513 -0.949258
vn 0.068744 0.588868 -0.805301
vn 0.078624 0.304513 -0.949258
vn 0.667798 0.304330 -0.679285
vn 0.475414 0.764939 -0.434568
vn 0.986977 0.119762 -0.107397
vn 0.791268 0.539330 -0.288128
vn 0.815378 0.575158 -0.065970
vn 0.981434 0.189448 -0.029943
vn 0.815378 0.575158 -0.065970
vn 0.475414 0.764939 -0.434568
vn 0.340674 0.933734 -0.109916
vn 0.147522 0.982713 -0.111863
vn 0.091845 0.992541 -0.080165
vn -0.000000 1.000000 0.000000
vn -0.000000 1.000000 0.000000
vn 0.000000 1.000000 0.000000
vn 0.000000 1.000000 0.000000
vn -0.000000 1.000000 0.000000
vn -0.000000 1.000000 -0.000000
vn -0.000000 1.000000 -0.000000
vn -0.000000 1.000000 0.000000
vn -0.000000 1.000000 -0.000000
vn -0.000000 1.000000 -0.000000
vn -0.000000 1.000000 0.000000
vn -0.000000 1.000000 0.000000
vn -0.000000 1.000000 0.000000
vn -0.000000 1.000000 0.000000
vn -0.000000 1.000000 0.000000
vn -0.000000 1.000000 0.000000
vn -0.000000 1.000000 0.000000
vn -0.000000 1.000000 0.000000
vn -0.000000 1.000000 0.000000
vn -0.000000 1.000000 0.000000
vn -0.000000 1.000000 -0.000000
vn 0.164585 0.871672 -0.461627
vn 0.147522 0.982713 -0.111863
vn 0.335706 0.831822 -0.442010
vn 0.156076 0.513119 -0.844008
vn 0.335706 0.831822 -0.442010
vn 0.334822 0.488920 -0.805514
vn 0.986977 0.119762 -0.107397
vn 0.984589 0.020091 -0.173725
vn 0.783761 0.297454 -0.545196
vn 0.783761 0.297454 -0.545196
vn 0.810533 0.072474 -0.581192
vn 0.334822 0.488920 -0.805514
vn 0.028869 0.904138 -0.426264
vn 0.130633 0.976194 -0.173146
vn 0.091845 0.992541 -0.080165
vn 0.111781 0.903392 -0.413991
vn 0.028869 0.904138 -0.426264
vn 0.014847 0.971813 -0.235287
vn 0.215399 0.903579 -0.370335
vn 0.111781 0.903392 -0.413991
vn 0.059408 0.977161 -0.204029
vn 0.301394 0.904666 -0.301233
vn 0.215399 0.903579 -0.370335
vn 0.110766 0.975272 -0.191247
vn 0.367310 0.905134 -0.214045
vn 0.301394 0.904666 -0.301233
vn 0.160451 0.973736 -0.161535
vn 0.395537 0.912446 -0.104844
vn 0.367310 0.905134 -0.214045
vn 0.210350 0.969714 -0.124131
vn 0.406286 0.913746 -0.000000
vn 0.395537 0.912446 -0.104844
vn 0.222991 0.973121 -0.057533
vn 0.333075 0.127636 -0.934222
vn 0.115988 0.125852 -0.985245
vn 0.156076 0.513119 -0.844008
vn 0.147522 0.982713 -0.111863
vn 0.340674 0.933734 -0.109916
vn 0.335706 0.831822 -0.442010
vn 0.156076 0.513119 -0.844008
vn 0.164585 0.871672 -0.461627
vn 0.335706 0.831822 -0.442010
vn 0.984589 0.020091 -0.173725
vn 0.810533 0.072474 -0.581192
vn 0.783761 0.297454 -0.545196
vn 0.811466 0.584400 0.000000
vn 0.783516 0.584001 -0.212241
vn 0.395537 0.912446 -0.104844
vn 0.783516 0.584001 -0.212241
vn 0.705493 0.579039 -0.408649
vn 0.367310 0.905134 -0.214045
vn 0.705493 0.579039 -0.408649
vn 0.571649 0.580611 -0.579749
vn 0.301394 0.904666 -0.301233
vn 0.571649 0.580611 -0.579749
vn 0.404526 0.593058 -0.696161
vn 0.215399 0.903579 -0.370335
vn 0.404526 0.593058 -0.696161
vn 0.213117 0.575071 -0.789857
vn 0.111781 0.903392 -0.413991
vn 0.213117 0.575071 -0.789857
vn 0.068744 0.588868 -0.805301
vn 0.028869 0.904138 -0.426264
vn 0.068744 0.588868 -0.805301
vn 0.475414 0.764939 -0.434568
vn 0.130633 0.976194 -0.173146
vn 0.335706 0.831822 -0.442010
vn 0.791268 0.539330 -0.288128
vn 0.783761 0.297454 -0.545196
vn 0.335706 0.831822 -0.442010
vn 0.340674 0.933734 -0.109916
vn 0.815378 0.575158 -0.065970
vn 0.815378 0.575158 -0.065970
vn 0.340674 0.933734 -0.109916
vn 0.130633 0.976194 -0.173146
vn 0.810533 0.072474 -0.581192
vn 0.333075 0.127636 -0.934222
vn 0.334822 0.488920 -0.805514
vn 0.173130 0.984899 0.000000
vn 0.000000 1.000000 0.000000
vn 0.167231 0.984899 0.044809
vn 0.167231 0.984899 0.044809
vn 0.000000 1.000000 0.000000
vn 0.149935 0.984899 0.086565
vn 0.149935 0.984899 0.086565
vn 0.000000 1.000000 0.000000
vn 0.122421 0.984899 0.122421
vn 0.122421 0.984899 0.122421
vn 0.000000 1.000000 0.000000
vn 0.086566 0.984899 0.149936
vn 0.086566 0.984899 0.149936
vn 0.000000 1.000000 0.000000
vn 0.044809 0.984899 0.167230
vn 0.044809 0.984899 0.167230
vn 0.000000 1.000000 0.000000
vn 0.011382 0.985952 0.166640
vn 0.064170 0.158834 0.985218
vn -0.000002 -0.000000 1.000000
vn 0.065403 -0.000000 0.997859
vn 0.000000 1.000000 0.000000
vn 0.000000 1.000000 0.000000
vn 0.011382 0.985952 0.166640
vn 0.953775 0.158116 0.255563
vn 0.987420 0.158117 0.000000
vn 0.724784 0.688976 -0.000000
vn 0.855132 0.158117 0.493710
vn 0.953775 0.158116 0.255563
vn 0.700089 0.688975 0.187588
vn 0.698213 0.158116 0.698211
vn 0.855132 0.158117 0.493710
vn 0.627683 0.688975 0.362392
vn 0.493710 0.158118 0.855131
vn 0.698213 0.158116 0.698211
vn 0.512501 0.688975 0.512500
vn 0.255564 0.158115 0.953775
vn 0.493710 0.158118 0.855131
vn 0.362392 0.688976 0.627681
vn 0.064170 0.158834 0.985218
vn 0.255564 0.158115 0.953775
vn 0.187589 0.688974 0.700089
vn 0.011382 0.985952 0.166640
vn -0.000000 0.987088 0.160182
vn 0.046924 0.697469 0.715077
vn 0.700089 0.688975 0.187588
vn 0.724784 0.688976 -0.000000
vn 0.173130 0.984899 0.000000
vn 0.627683 0.688975 0.362392
vn 0.700089 0.688975 0.187588
vn 0.167231 0.984899 0.044809
vn 0.512501 0.688975 0.512500
vn 0.627683 0.688975 0.362392
vn 0.149935 0.984899 0.086565
vn 0.362392 0.688976 0.627681
vn 0.512501 0.688975 0.512500
vn 0.122421 0.984899 0.122421
vn 0.187589 0.688974 0.700089
vn 0.362392 0.688976 0.627681
vn 0.086566 0.984899 0.149936
vn 0.046924 0.697469 0.715077
vn 0.187589 0.688974 0.700089
vn 0.044809 0.984899 0.167230
vn 0.046924 0.697469 0.715077
vn -0.000001 0.707108 0.707105
vn -0.000002 0.160184 0.987087
vn 0.167231 0.984899 0.044809
vn 0.000000 1.000000 0.000000
vn 0.000000 1.000000 0.000000
vn 0.149935 0.984899 0.086565
vn 0.000000 1.000000 0.000000
vn 0.000000 1.000000 0.000000
vn 0.122421 0.984899 0.122421
vn 0.000000 1.000000 0.000000
vn 0.000000 1.000000 0.000000
vn 0.086566 0.984899 0.149936
vn 0.000000 1.000000 0.000000
vn 0.000000 1.000000 0.000000
vn 0.044809 0.984899 0.167230
vn 0.000000 1.000000 0.000000
vn 0.000000 1.000000 0.000000
vn 0.011382 0.985952 0.166640
vn 0.000000 1.000000 0.000000
vn 0.000000 1.000000 0.000000
vn 0.011382 0.985952 0.166640
vn 0.000000 1.000000 0.000000
vn -0.000000 0.987088 0.160182
vn 0.953775 0.158116 0.255563
vn 0.724784 0.688976 -0.000000
vn 0.700089 0.688975 0.187588
vn 0.855132 0.158117 0.493710
vn 0.700089 0.688975 0.187588
vn 0.627683 0.688975 0.362392
vn 0.698213 0.158116 0.698211
vn 0.627683 0.688975 0.362392
vn 0.512501 0.688975 0.512500
vn 0.493710 0.158118 0.855131
vn 0.512501 0.688975 0.512500
vn 0.362392 0.688976 0.627681
vn 0.255564 0.158115 0.953775
vn 0.362392 0.688976 0.627681
vn 0.187589 0.688974 0.700089
vn 0.064170 0.158834 0.985218
vn 0.187589 0.688974 0.700089
vn 0.046924 0.697469 0.715077
vn 0.046924 0.697469 0.715077
vn -0.000000 0.987088 0.160182
vn -0.000001 0.707108 0.707105
vn 0.700089 0.688975 0.187588
vn 0.173130 0.984899 0.000000
vn 0.167231 0.984899 0.044809
vn 0.627683 0.688975 0.362392
vn 0.167231 0.984899 0.044809
vn 0.149935 0.984899 0.086565
vn 0.512501 0.688975 0.512500
vn 0.149935 0.984899 0.086565
vn 0.122421 0.984899 0.122421
vn 0.362392 0.688976 0.627681
vn 0.122421 0.984899 0.122421
vn 0.086566 0.984899 0.149936
vn 0.187589 0.688974 0.700089
vn 0.086566 0.984899 0.149936
vn 0.044809 0.984899 0.167230
vn 0.046924 0.697469 0.715077
vn 0.044809 0.984899 0.167230
vn 0.011382 0.985952 0.166640
vn 0.046924 0.697469 0.715077
vn -0.000002 0.160184 0.987087
vn 0.064170 0.158834 0.985218
vn 0.957744 0.287621 0.000000
vn 0.811466 0.584400 0.000000
vn 0.783516 0.584001 0.212241
vn 0.923829 0.290621 0.249156
vn 0.783516 0.584001 0.212241
vn 0.705493 0.579039 0.408649
vn 0.821803 0.307656 0.479571
vn 0.705493 0.579039 0.408649
vn 0.571649 0.580611 0.579749
vn 0.665564 0.324285 0.672208
vn 0.571649 0.580611 0.579749
vn 0.404527 0.593058 0.696161
vn 0.474477 0.352306 0.806692
vn 0.404527 0.593058 0.696161
vn 0.213117 0.575071 0.789857
vn 0.244705 0.310640 0.918489
vn 0.213117 0.575071 0.789857
vn 0.068744 0.588868 0.805301
vn 0.078624 0.304513 0.949258
vn 0.068744 0.588868 0.805301
vn 0.475414 0.764939 0.434568
vn 0.811466 0.584400 0.000000
vn 0.406286 0.913746 -0.000000
vn 0.395537 0.912446 0.104844
vn 0.783516 0.584001 0.212241
vn 0.395537 0.912446 0.104844
vn 0.367310 0.905134 0.214045
vn 0.705493 0.579039 0.408649
vn 0.367310 0.905134 0.214045
vn 0.301394 0.904666 0.301233
vn 0.571649 0.580611 0.579749
vn 0.301394 0.904666 0.301233
vn 0.215399 0.903579 0.370335
vn 0.404527 0.593058 0.696161
vn 0.215399 0.903579 0.370335
vn 0.111781 0.903392 0.413991
vn 0.213117 0.575071 0.789857
vn 0.111781 0.903392 0.413991
vn 0.028869 0.904138 0.426264
vn 0.068744 0.588868 0.805301
vn 0.028869 0.904138 0.426264
vn 0.130633 0.976195 0.173145
vn 0.028869 0.904138 0.426264
vn 0.014847 0.971813 0.235287
vn 0.091844 0.992541 0.080165
vn 0.111781 0.903392 0.413991
vn 0.059408 0.977161 0.204029
vn 0.014847 0.971813 0.235287
vn 0.215399 0.903579 0.370335
vn 0.110766 0.975272 0.191246
vn 0.059408 0.977161 0.204029
vn 0.301394 0.904666 0.301233
vn 0.160452 0.973736 0.161535
vn 0.110766 0.975272 0.191246
vn 0.367310 0.905134 0.214045
vn 0.210350 0.969714 0.124131
vn 0.160452 0.973736 0.161535
vn 0.395537 0.912446 0.104844
vn 0.222991 0.973121 0.057533
vn 0.210350 0.969714 0.124131
vn 0.406286 0.913746 -0.000000
vn 0.229888 0.973217 0.000000
vn 0.222991 0.973121 0.057533
vn 0.783762 0.297454 0.545196
vn 0.986977 0.119762 0.107397
vn 0.791268 0.539330 0.288128
vn 0.334818 0.488920 0.805515
vn 0.783762 0.297454 0.545196
vn 0.335704 0.831823 0.442012
vn 0.333070 0.127636 0.934224
vn 0.334818 0.488920 0.805515
vn 0.156068 0.513121 0.844008
vn 0.986977 0.119762 0.107397
vn 0.981434 0.189448 0.029943
vn 0.815378 0.575158 0.065970
vn 0.335704 0.831823 0.442012
vn 0.791268 0.539330 0.288128
vn 0.815378 0.575158 0.065970
vn 0.981434 0.189448 0.029943
vn 0.667798 0.304330 0.679285
vn 0.475414 0.764939 0.434568
vn 0.815378 0.575158 0.065970
vn 0.475414 0.764939 0.434568
vn 0.130633 0.976195 0.173145
vn 0.340674 0.933734 0.109916
vn 0.130633 0.976195 0.173145
vn 0.091844 0.992541 0.080165
vn 0.957744 0.287621 0.000000
vn 0.783516 0.584001 0.212241
vn 0.923829 0.290621 0.249156
vn 0.923829 0.290621 0.249156
vn 0.705493 0.579039 0.408649
vn 0.821803 0.307656 0.479571
vn 0.821803 0.307656 0.479571
vn 0.571649 0.580611 0.579749
vn 0.665564 0.324285 0.672208
vn 0.665564 0.324285 0.672208
vn 0.404527 0.593058 0.696161
vn 0.474477 0.352306 0.806692
vn 0.474477 0.352306 0.806692
vn 0.213117 0.575071 0.789857
vn 0.244705 0.310640 0.918489
vn 0.244705 0.310640 0.918489
vn 0.068744 0.588868 0.805301
vn 0.078624 0.304513 0.949258
vn 0.078624 0.304513 0.949258
vn 0.475414 0.764939 0.434568
vn 0.667798 0.304330 0.679285
vn 0.986977 0.119762 0.107397
vn 0.815378 0.575158 0.065970
vn 0.791268 0.539330 0.288128
vn 0.981434 0.189448 0.029943
vn 0.475414 0.764939 0.434568
vn 0.815378 0.575158 0.065970
vn 0.340674 0.933734 0.109916
vn 0.091844 0.992541 0.080165
vn 0.147521 0.982713 0.111862
vn -0.000000 1.000000 -0.000000
vn 0.000000 1.000000 -0.000000
vn -0.000000 1.000000 0.000000
vn 0.000000 1.000000 -0.000000
vn -0.000000 1.000000 0.000000
vn -0.000000 1.000000 0.000000
vn -0.000000 1.000000 0.000000
vn -0.000000 1.000000 0.000000
vn -0.000000 1.000000 0.000000
vn -0.000000 1.000000 0.000000
vn -0.000000 1.000000 -0.000000
vn -0.000000 1.000000 0.000000
vn -0.000000 1.000000 -0.000000
vn -0.000000 1.000000 -0.000000
vn -0.000000 1.000000 0.000000
vn -0.000000 1.000000 -0.000000
vn -0.000000 1.000000 -0.000000
vn -0.000000 1.000000 0.000000
vn -0.000000 1.000000 -0.000000
vn -0.000000 1.000000 -0.000000
vn -0.000000 1.000000 0.000000
vn 0.164580 0.871674 0.461626
vn 0.335704 0.831823 0.442012
vn 0.147521 0.982713 0.111862
vn 0.156068 0.513121 0.844008
vn 0.334818 0.488920 0.805515
vn 0.335704 0.831823 0.442012
vn 0.986977 0.119762 0.107397
vn 0.783762 0.297454 0.545196
vn 0.984589 0.020091 0.173725
vn 0.783762 0.297454 0.545196
vn 0.334818 0.488920 0.805515
vn 0.810533 0.072474 0.581192
vn 0.028869 0.904138 0.426264
vn 0.091844 0.992541 0.080165
vn 0.130633 0.976195 0.173145
vn 0.111781 0.903392 0.413991
vn 0.014847 0.971813 0.235287
vn 0.028869 0.904138 0.426264
vn 0.215399 0.903579 0.370335
vn 0.059408 0.977161 0.204029
vn 0.111781 0.903392 0.413991
vn 0.301394 0.904666 0.301233
vn 0.110766 0.975272 0.191246
vn 0.215399 0.903579 0.370335
vn 0.367310 0.905134 0.214045
vn 0.160452 0.973736 0.161535
vn 0.301394 0.904666 0.301233
vn 0.395537 0.912446 0.104844
vn 0.210350 0.969714 0.124131
vn 0.367310 0.905134 0.214045
vn 0.406286 0.913746 -0.000000
vn 0.222991 0.973121 0.057533
vn 0.395537 0.912446 0.104844
vn 0.333070 0.127636 0.934224
vn 0.156068 0.513121 0.844008
vn 0.115978 0.125852 0.985246
vn 0.147521 0.982713 0.111862
vn 0.335704 0.831823 0.442012
vn 0.340674 0.933734 0.109916
vn 0.156068 0.513121 0.844008
vn 0.335704 0.831823 0.442012
vn 0.164580 0.871674 0.461626
vn 0.984589 0.020091 0.173725
vn 0.783762 0.297454 0.545196
vn 0.810533 0.072474 0.581192
vn 0.811466 0.584400 0.000000
vn 0.395537 0.912446 0.104844
vn 0.783516 0.584001 0.212241
vn 0.783516 0.584001 0.212241
vn 0.367310 0.905134 0.214045
vn 0.705493 0.579039 0.408649
vn 0.705493 0.579039 0.408649
vn 0.301394 0.904666 0.301233
vn 0.571649 0.580611 0.579749
vn 0.571649 0.580611 0.579749
vn 0.215399 0.903579 0.370335
vn 0.404527 0.593058 0.696161
vn 0.404527 0.593058 0.696161
vn 0.111781 0.903392 0.413991
vn 0.213117 0.575071 0.789857
vn 0.213117 0.575071 0.789857
vn 0.028869 0.904138 0.426264
vn 0.068744 0.588868 0.805301
vn 0.068744 0.588868 0.805301
vn 0.130633 0.976195 0.173145
vn 0.475414 0.764939 0.434568
vn 0.335704 0.831823 0.442012
vn 0.783762 0.297454 0.545196
vn 0.791268 0.539330 0.288128
vn 0.335704 0.831823 0.442012
vn 0.815378 0.575158 0.065970
vn 0.340674 0.933734 0.109916
vn 0.815378 0.575158 0.065970
vn 0.130633 0.976195 0.173145
vn 0.340674 0.933734 0.109916
vn 0.810533 0.072474 0.581192
vn 0.334818 0.488920 0.805515
vn 0.333070 0.127636 0.934224
vn -1.000000 0.000000 -0.000000
vn -1.000000 0.000000 -0.000000
vn -1.000000 -0.000000 -0.000000
vn -1.000000 -0.000000 -0.000000
vn -1.000000 -0.000000 0.000000
vn -1.000000 -0.000000 0.000000
vn -1.000000 0.000000 0.000000
vn -1.000000 0.000000 -0.000000
vn -1.000000 0.000000 0.000000
vn -1.000000 0.000000 0.000000
vn -1.000000 -0.000000 0.000000
vn -1.000000 0.000000 0.000000
vn -1.000000 -0.000000 0.000000
vn -1.000000 -0.000000 0.000000
vn -1.000000 -0.000000 0.000000
vn -1.000000 -0.000000 0.000000
vn -1.000000 -0.000000 0.000000
vn -1.000000 -0.000000 0.000000
vn -1.000000 -0.000000 0.000000
vn -1.000000 -0.000000 0.000000
vn -1.000000 0.000000 0.000000
vn 0.965926 0.000000 -0.258819
vn 0.987420 0.158117 0.000000
vn 1.000000 0.000000 0.000000
vn 0.866026 0.000000 -0.499999
vn 0.953775 0.158116 -0.255563
vn 0.965926 0.000000 -0.258819
vn 0.707107 0.000000 -0.707106
vn 0.855132 0.158116 -0.493710
vn 0.866026 0.000000 -0.499999
vn 0.500000 0.000000 -0.866025
vn 0.698212 0.158116 -0.698211
vn 0.707107 0.000000 -0.707106
vn 0.258820 0.000000 -0.965926
vn 0.493710 0.158118 -0.855131
vn 0.500000 0.000000 -0.866025
vn 0.065403 0.000000 -0.997859
vn 0.064170 0.158834 -0.985218
vn 0.258820 0.000000 -0.965926
vn 0.829180 -0.000000 -0.558981
vn 0.810533 0.072474 -0.581192
vn 0.983105 -0.000000 -0.183042
vn 0.341644 0.000000 -0.939829
vn 0.333075 0.127636 -0.934222
vn 0.829180 -0.000000 -0.558981
vn 0.131439 -0.000000 -0.991324
vn 0.115988 0.125852 -0.985245
vn 0.341644 0.000000 -0.939829
vn 1.000000 0.000000 0.000000
vn 0.953775 0.158116 0.255563
vn 0.965926 -0.000000 0.258819
vn 0.965926 -0.000000 0.258819
vn 0.855132 0.158117 0.493710
vn 0.866026 -0.000000 0.499999
vn 0.866026 -0.000000 0.499999
vn 0.698213 0.158116 0.698211
vn 0.707108 -0.000000 0.707106
vn 0.707108 -0.000000 0.707106
vn 0.493710 0.158118 0.855131
vn 0.500000 -0.000000 0.866025
vn 0.500000 -0.000000 0.866025
vn 0.255564 0.158115 0.953775
vn 0.258820 -0.000000 0.965926
vn 0.258820 -0.000000 0.965926
vn 0.064170 0.158834 0.985218
vn 0.065403 -0.000000 0.997859
vn 0.983105 -0.000000 0.183041
vn 0.810533 0.072474 0.581192
vn 0.829180 -0.000000 0.558981
vn 0.829180 -0.000000 0.558981
vn 0.333070 0.127636 0.934224
vn 0.341639 -0.000000 0.939831
vn 0.341639 -0.000000 0.939831
vn 0.115978 0.125852 0.985246
vn 0.131429 -0.000000 0.991326
vn 0.173130 -0.984899 0.000000
vn 0.000000 -1.000000 -0.000000
vn 0.167231 -0.984899 -0.044809
vn 0.167231 -0.984899 -0.044809
vn 0.000000 -1.000000 -0.000000
vn 0.149935 -0.984899 -0.086565
vn 0.149935 -0.984899 -0.086565
vn 0.000000 -1.000000 -0.000000
vn 0.122421 -0.984899 -0.122421
vn 0.122421 -0.984899 -0.122421
vn 0.000000 -1.000000 -0.000000
vn 0.086566 -0.984899 -0.149936
vn 0.086566 -0.984899 -0.149936
vn 0.000000 -1.000000 -0.000000
vn 0.044809 -0.984899 -0.167230
vn 0.044809 -0.984899 -0.167230
vn 0.000000 -1.000000 -0.000000
vn 0.011382 -0.985952 -0.166640
vn 0.064170 -0.158834 -0.985218
vn -0.000002 -0.160184 -0.987087
vn 0.065403 0.000000 -0.997859
vn 0.000000 -1.000000 -0.000000
vn 0.000000 -1.000000 -0.000000
vn 0.011382 -0.985952 -0.166640
vn 0.953775 -0.158116 -0.255563
vn 0.987420 -0.158117 -0.000000
vn 0.724784 -0.688976 -0.000000
vn 0.855132 -0.158116 -0.493710
vn 0.953775 -0.158116 -0.255563
vn 0.700089 -0.688975 -0.187588
vn 0.698212 -0.158116 -0.698211
vn 0.855132 -0.158116 -0.493710
vn 0.627683 -0.688975 -0.362392
vn 0.493710 -0.158118 -0.855131
vn 0.698212 -0.158116 -0.698211
vn 0.512501 -0.688975 -0.512500
vn 0.255564 -0.158115 -0.953775
vn 0.493710 -0.158118 -0.855131
vn 0.362392 -0.688976 -0.627681
vn 0.064170 -0.158834 -0.985218
vn 0.255564 -0.158115 -0.953775
vn 0.187589 -0.688974 -0.700089
vn 0.011382 -0.985952 -0.166640
vn -0.000000 -0.987088 -0.160182
vn 0.046924 -0.697469 -0.715077
vn 0.700089 -0.688975 -0.187588
vn 0.724784 -0.688976 -0.000000
vn 0.173130 -0.984899 0.000000
vn 0.627683 -0.688975 -0.362392
vn 0.700089 -0.688975 -0.187588
vn 0.167231 -0.984899 -0.044809
vn 0.512501 -0.688975 -0.512500
vn 0.627683 -0.688975 -0.362392
vn 0.149935 -0.984899 -0.086565
vn 0.362392 -0.688976 -0.627681
vn 0.512501 -0.688975 -0.512500
vn 0.122421 -0.984899 -0.122421
vn 0.187589 -0.688974 -0.700089
vn 0.362392 -0.688976 -0.627681
vn 0.086566 -0.984899 -0.149936
vn 0.046924 -0.697469 -0.715077
vn 0.187589 -0.688974 -0.700089
vn 0.044809 -0.984899 -0.167230
vn 0.046924 -0.697469 -0.715077
vn -0.000001 -0.707108 -0.707105
vn -0.000002 -0.160184 -0.987087
vn 0.167231 -0.984899 -0.044809
vn 0.000000 -1.000000 -0.000000
vn 0.000000 -1.000000 -0.000000
vn 0.149935 -0.984899 -0.086565
vn 0.000000 -1.000000 -0.000000
vn 0.000000 -1.000000 -0.000000
vn 0.122421 -0.984899 -0.122421
vn 0.000000 -1.000000 -0.000000
vn 0.000000 -1.000000 -0.000000
vn 0.086566 -0.984899 -0.149936
vn 0.000000 -1.000000 -0.000000
vn 0.000000 -1.000000 -0.000000
vn 0.044809 -0.984899 -0.167230
vn 0.000000 -1.000000 -0.000000
vn 0.000000 -1.000000 -0.000000
vn 0.011382 -0.985952 -0.166640
vn 0.000000 -1.000000 -0.000000
vn 0.000000 -1.000000 -0.000000
vn 0.011382 -0.985952 -0.166640
vn 0.000000 -1.000000 -0.000000
vn -0.000000 -0.987088 -0.160182
vn 0.953775 -0.158116 -0.255563
vn 0.724784 -0.688976 -0.000000
vn 0.700089 -0.688975 -0.187588
vn 0.855132 -0.158116 -0.493710
vn 0.700089 -0.688975 -0.187588
vn 0.627683 -0.688975 -0.362392
vn 0.698212 -0.158116 -0.698211
vn 0.627683 -0.688975 -0.362392
vn 0.512501 -0.688975 -0.512500
vn 0.493710 -0.158118 -0.855131
vn 0.512501 -0.688975 -0.512500
vn 0.362392 -0.688976 -0.627681
vn 0.255564 -0.158115 -0.953775
vn 0.362392 -0.688976 -0.627681
vn 0.187589 -0.688974 -0.700089
vn 0.064170 -0.158834 -0.985218
vn 0.187589 -0.688974 -0.700089
vn 0.046924 -0.697469 -0.715077
vn 0.046924 -0.697469 -0.715077
vn -0.000000 -0.987088 -0.160182
vn -0.000001 -0.707108 -0.707105
vn 0.700089 -0.688975 -0.187588
vn 0.173130 -0.984899 0.000000
vn 0.167231 -0.984899 -0.044809
vn 0.627683 -0.688975 -0.362392
vn 0.167231 -0.984899 -0.044809
vn 0.149935 -0.984899 -0.086565
vn 0.512501 -0.688975 -0.512500
vn 0.149935 -0.984899 -0.086565
vn 0.122421 -0.984899 -0.122421
vn 0.362392 -0.688976 -0.627681
vn 0.122421 -0.984899 -0.122421
vn 0.086566 -0.984899 -0.149936
vn 0.187589 -0.688974 -0.700089
vn 0.086566 -0.984899 -0.149936
vn 0.044809 -0.984899 -0.167230
vn 0.046924 -0.697469 -0.715077
vn 0.044809 -0.984899 -0.167230
vn 0.011382 -0.985952 -0.166640
vn 0.046924 -0.697469 -0.715077
vn -0.000002 -0.160184 -0.987087
vn 0.064170 -0.158834 -0.985218
vn 0.957744 -0.287621 0.000000
vn 0.811466 -0.584400 0.000000
vn 0.783516 -0.584001 -0.212241
vn 0.923829 -0.290621 -0.249156
vn 0.783516 -0.584001 -0.212241
vn 0.705493 -0.579039 -0.408649
vn 0.821802 -0.307656 -0.479571
vn 0.705493 -0.579039 -0.408649
vn 0.571649 -0.580611 -0.579749
vn 0.665564 -0.324285 -0.672208
vn 0.571649 -0.580611 -0.579749
vn 0.404526 -0.593058 -0.696161
vn 0.474476 -0.352306 -0.806692
vn 0.404526 -0.593058 -0.696161
vn 0.213117 -0.575071 -0.789857
vn 0.244705 -0.310640 -0.918489
vn 0.213117 -0.575071 -0.789857
vn 0.068744 -0.588868 -0.805301
vn 0.078624 -0.304513 -0.949258
vn 0.068744 -0.588868 -0.805301
vn 0.475414 -0.764939 -0.434568
vn 0.811466 -0.584400 0.000000
vn 0.406286 -0.913746 -0.000000
vn 0.395537 -0.912446 -0.104844
vn 0.783516 -0.584001 -0.212241
vn 0.395537 -0.912446 -0.104844
vn 0.367310 -0.905134 -0.214045
vn 0.705493 -0.579039 -0.408649
vn 0.367310 -0.905134 -0.214045
vn 0.301394 -0.904666 -0.301233
vn 0.571649 -0.580611 -0.579749
vn 0.301394 -0.904666 -0.301233
vn 0.215399 -0.903579 -0.370335
vn 0.404526 -0.593058 -0.696161
vn 0.215399 -0.903579 -0.370335
vn 0.111781 -0.903392 -0.413991
vn 0.213117 -0.575071 -0.789857
vn 0.111781 -0.903392 -0.413991
vn 0.028869 -0.904138 -0.426264
vn 0.068744 -0.588868 -0.805301
vn 0.028869 -0.904138 -0.426264
vn 0.130633 -0.976194 -0.173146
vn 0.028869 -0.904138 -0.426264
vn 0.014847 -0.971813 -0.235287
vn 0.091845 -0.992541 -0.080165
vn 0.111781 -0.903392 -0.413991
vn 0.059408 -0.977161 -0.204029
vn 0.014847 -0.971813 -0.235287
vn 0.215399 -0.903579 -0.370335
vn 0.110766 -0.975272 -0.191247
vn 0.059408 -0.977161 -0.204029
vn 0.301394 -0.904666 -0.301233
vn 0.160451 -0.973736 -0.161535
vn 0.110766 -0.975272 -0.191247
vn 0.367310 -0.905134 -0.214045
vn 0.210350 -0.969714 -0.124131
vn 0.160451 -0.973736 -0.161535
vn 0.395537 -0.912446 -0.104844
vn 0.222991 -0.973121 -0.057533
vn 0.210350 -0.969714 -0.124131
vn 0.406286 -0.913746 -0.000000
vn 0.229888 -0.973217 0.000000
vn 0.222991 -0.973121 -0.057533
vn 0.783761 -0.297454 -0.545196
vn 0.986977 -0.119762 -0.107397
vn 0.791268 -0.539330 -0.288128
vn 0.334822 -0.488920 -0.805514
vn 0.783761 -0.297454 -0.545196
vn 0.335706 -0.831822 -0.442010
vn 0.333075 -0.127636 -0.934222
vn 0.334822 -0.488920 -0.805514
vn 0.156076 -0.513119 -0.844008
vn 0.986977 -0.119762 -0.107397
vn 0.981434 -0.189448 -0.029943
vn 0.815378 -0.575158 -0.065970
vn 0.335706 -0.831822 -0.442010
vn 0.791268 -0.539330 -0.288128
vn 0.815378 -0.575158 -0.065970
vn 0.981434 -0.189448 -0.029943
vn 0.667798 -0.304330 -0.679285
vn 0.475414 -0.764939 -0.434568
vn 0.815378 -0.575158 -0.065970
vn 0.475414 -0.764939 -0.434568
vn 0.130633 -0.976194 -0.173146
vn 0.340674 -0.933734 -0.109916
vn 0.130633 -0.976194 -0.173146
vn 0.091845 -0.992541 -0.080165
vn 0.957744 -0.287621 0.000000
vn 0.783516 -0.584001 -0.212241
vn 0.923829 -0.290621 -0.249156
vn 0.923829 -0.290621 -0.249156
vn 0.705493 -0.579039 -0.408649
vn 0.821802 -0.307656 -0.479571
vn 0.821802 -0.307656 -0.479571
vn 0.571649 -0.580611 -0.579749
vn 0.665564 -0.324285 -0.672208
vn 0.665564 -0.324285 -0.672208
vn 0.404526 -0.593058 -0.696161
vn 0.474476 -0.352306 -0.806692
vn 0.474476 -0.352306 -0.806692
vn 0.213117 -0.575071 -0.789857
vn 0.244705 -0.310640 -0.918489
vn 0.244705 -0.310640 -0.918489
vn 0.068744 -0.588868 -0.805301
vn 0.078624 -0.304513 -0.949258
vn 0.078624 -0.304513 -0.949258
vn 0.475414 -0.764939 -0.434568
vn 0.667798 -0.304330 -0.679285
vn 0.986977 -0.119762 -0.107397
vn 0.815378 -0.575158 -0.065970
vn 0.791268 -0.539330 -0.288128
vn 0.981434 -0.189448 -0.029943
vn 0.475414 -0.764939 -0.434568
vn 0.815378 -0.575158 -0.065970
vn 0.340674 -0.933734 -0.109916
vn 0.091845 -0.992541 -0.080165
vn 0.147522 -0.982713 -0.111863
vn -0.000000 -1.000000 0.000000
vn 0.000000 -1.000000 0.000000
vn -0.000000 -1.000000 0.000000
vn 0.000000 -1.000000 0.000000
vn -0.000000 -1.000000 -0.000000
vn -0.000000 -1.000000 0.000000
vn -0.000000 -1.000000 -0.000000
vn -0.000000 -1.000000 -0.000000
vn -0.000000 -1.000000 0.000000
vn -0.000000 -1.000000 -0.000000
vn -0.000000 -1.000000 0.000000
vn -0.000000 -1.000000 0.000000
vn -0.000000 -1.000000 0.000000
vn -0.000000 -1.000000 0.000000
vn -0.000000 -1.000000 0.000000
vn -0.000000 -1.000000 0.000000
vn -0.000000 -1.000000 0.000000
vn -0.000000 -1.000000 0.000000
vn -0.000000 -1.000000 0.000000
vn -0.000000 -1.000000 -0.000000
vn -0.000000 -1.000000 0.000000
vn 0.164585 -0.871672 -0.461627
vn 0.335706 -0.831822 -0.442010
vn 0.147522 -0.982713 -0.111863
vn 0.156076 -0.513119 -0.844008
vn 0.334822 -0.488920 -0.805514
vn 0.335706 -0.831822 -0.442010
vn 0.986977 -0.119762 -0.107397
vn 0.783761 -0.297454 -0.545196
vn 0.984589 -0.020091 -0.173725
vn 0.783761 -0.297454 -0.545196
vn 0.334822 -0.488920 -0.805514
vn 0.810533 -0.072474 -0.581192
vn 0.028869 -0.904138 -0.426264
vn 0.091845 -0.992541 -0.080165
vn 0.130633 -0.976194 -0.173146
vn 0.111781 -0.903392 -0.413991
vn 0.014847 -0.971813 -0.235287
vn 0.028869 -0.904138 -0.426264
vn 0.215399 -0.903579 -0.370335
vn 0.059408 -0.977161 -0.204029
vn 0.111781 -0.903392 -0.413991
vn 0.301394 -0.904666 -0.301233
vn 0.110766 -0.975272 -0.191247
vn 0.215399 -0.903579 -0.370335
vn 0.367310 -0.905134 -0.214045
vn 0.160451 -0.973736 -0.161535
vn 0.301394 -0.904666 -0.301233
vn 0.395537 -0.912446 -0.104844
vn 0.210350 -0.969714 -0.124131
vn 0.367310 -0.905134 -0.214045
vn 0.406286 -0.913746 -0.000000
vn 0.222991 -0.973121 -0.057533
vn 0.395537 -0.912446 -0.104844
vn 0.333075 -0.127636 -0.934222
vn 0.156076 -0.513119 -0.844008
vn 0.115988 -0.125852 -0.985245
vn 0.147522 -0.982713 -0.111863
vn 0.335706 -0.831822 -0.442010
vn 0.340674 -0.933734 -0.109916
vn 0.156076 -0.513119 -0.844008
vn 0.335706 -0.831822 -0.442010
vn 0.164585 -0.871672 -0.461627
vn 0.984589 -0.020091 -0.173725
vn 0.783761 -0.297454 -0.545196
vn 0.810533 -0.072474 -0.581192
vn 0.811466 -0.584400 0.000000
vn 0.395537 -0.912446 -0.104844
vn 0.783516 -0.584001 -0.212241
vn 0.783516 -0.584001 -0.212241
vn 0.367310 -0.905134 -0.214045
vn 0.705493 -0.579039 -0.408649
vn 0.705493 -0.579039 -0.408649
vn 0.301394 -0.904666 -0.301233
vn 0.571649 -0.580611 -0.579749
vn 0.571649 -0.580611 -0.579749
vn 0.215399 -0.903579 -0.370335
vn 0.404526 -0.593058 -0.696161
vn 0.404526 -0.593058 -0.696161
vn 0.111781 -0.903392 -0.413991
vn 0.213117 -0.575071 -0.789857
vn 0.213117 -0.575071 -0.789857
vn 0.028869 -0.904138 -0.426264
vn 0.068744 -0.588868 -0.805301
vn 0.068744 -0.588868 -0.805301
vn 0.130633 -0.976194 -0.173146
vn 0.475414 -0.764939 -0.434568
vn 0.335706 -0.831822 -0.442010
vn 0.783761 -0.297454 -0.545196
vn 0.791268 -0.539330 -0.288128
vn 0.335706 -0.831822 -0.442010
vn 0.815378 -0.575158 -0.065970
vn 0.340674 -0.933734 -0.109916
vn 0.815378 -0.575158 -0.065970
vn 0.130633 -0.976194 -0.173146
vn 0.340674 -0.933734 -0.109916
vn 0.810533 -0.072474 -0.581192
vn 0.334822 -0.488920 -0.805514
vn 0.333075 -0.127636 -0.934222
vn 0.173130 -0.984899 0.000000
vn 0.167231 -0.984899 0.044809
vn 0.000000 -1.000000 -0.000000
vn 0.167231 -0.984899 0.044809
vn 0.149935 -0.984899 0.086565
vn 0.000000 -1.000000 -0.000000
vn 0.149935 -0.984899 0.086565
vn 0.122421 -0.984899 0.122421
vn 0.000000 -1.000000 -0.000000
vn 0.122421 -0.984899 0.122421
vn 0.086566 -0.984899 0.149936
vn 0.000000 -1.000000 -0.000000
vn 0.086566 -0.984899 0.149936
vn 0.044809 -0.984899 0.167230
vn 0.000000 -1.000000 -0.000000
vn 0.044809 -0.984899 0.167230
vn 0.011382 -0.985952 0.166640
vn 0.000000 -1.000000 -0.000000
vn 0.064170 -0.158834 0.985218
vn -0.000002 -0.000000 1.000000
vn -0.000002 -0.160184 0.987087
vn 0.000000 -1.000000 -0.000000
vn 0.011382 -0.985952 0.166640
vn 0.000000 -1.000000 -0.000000
vn 0.953775 -0.158116 0.255563
vn 0.724784 -0.688976 -0.000000
vn 0.987420 -0.158117 -0.000000
vn 0.855132 -0.158117 0.493710
vn 0.700089 -0.688975 0.187588
vn 0.953775 -0.158116 0.255563
vn 0.698213 -0.158116 0.698211
vn 0.627683 -0.688975 0.362392
vn 0.855132 -0.158117 0.493710
vn 0.493710 -0.158118 0.855131
vn 0.512501 -0.688975 0.512500
vn 0.698213 -0.158116 0.698211
vn 0.255564 -0.158115 0.953775
vn 0.362392 -0.688976 0.627681
vn 0.493710 -0.158118 0.855131
vn 0.064170 -0.158834 0.985218
vn 0.187589 -0.688974 0.700089
vn 0.255564 -0.158115 0.953775
vn 0.011382 -0.985952 0.166640
vn 0.046924 -0.697469 0.715077
vn -0.000000 -0.987088 0.160182
vn 0.700089 -0.688975 0.187588
vn 0.173130 -0.984899 0.000000
vn 0.724784 -0.688976 -0.000000
vn 0.627683 -0.688975 0.362392
vn 0.167231 -0.984899 0.044809
vn 0.700089 -0.688975 0.187588
vn 0.512501 -0.688975 0.512500
vn 0.149935 -0.984899 0.086565
vn 0.627683 -0.688975 0.362392
vn 0.362392 -0.688976 0.627681
vn 0.122421 -0.984899 0.122421
vn 0.512501 -0.688975 0.512500
vn 0.187589 -0.688974 0.700089
vn 0.086566 -0.984899 0.149936
vn 0.362392 -0.688976 0.627681
vn 0.046924 -0.697469 0.715077
vn 0.044809 -0.984899 0.167230
vn 0.187589 -0.688974 0.700089
vn 0.046924 -0.697469 0.715077
vn -0.000002 -0.160184 0.987087
vn -0.000001 -0.707108 0.707105
vn 0.167231 -0.984899 0.044809
vn 0.000000 -1.000000 -0.000000
vn 0.000000 -1.000000 -0.000000
vn 0.149935 -0.984899 0.086565
vn 0.000000 -1.000000 -0.000000
vn 0.000000 -1.000000 -0.000000
vn 0.122421 -0.984899 0.122421
vn 0.000000 -1.000000 -0.000000
vn 0.000000 -1.000000 -0.000000
vn 0.086566 -0.984899 0.149936
vn 0.000000 -1.000000 -0.000000
vn 0.000000 -1.000000 -0.000000
vn 0.044809 -0.984899 0.167230
vn 0.000000 -1.000000 -0.000000
vn 0.000000 -1.000000 -0.000000
vn 0.011382 -0.985952 0.166640
vn 0.000000 -1.000000 -0.000000
vn 0.000000 -1.000000 -0.000000
vn 0.011382 -0.985952 0.166640
vn -0.000000 -0.987088 0.160182
vn 0.000000 -1.000000 -0.000000
vn 0.953775 -0.158116 0.255563
vn 0.700089 -0.688975 0.187588
vn 0.724784 -0.688976 -0.000000
vn 0.855132 -0.158117 0.493710
vn 0.627683 -0.688975 0.362392
vn 0.700089 -0.688975 0.187588
vn 0.698213 -0.158116 0.698211
vn 0.512501 -0.688975 0.512500
vn 0.627683 -0.688975 0.362392
vn 0.493710 -0.158118 0.855131
vn 0.362392 -0.688976 0.627681
vn 0.512501 -0.688975 0.512500
vn 0.255564 -0.158115 0.953775
vn 0.187589 -0.688974 0.700089
vn 0.362392 -0.688976 0.627681
vn 0.064170 -0.158834 0.985218
vn 0.046924 -0.697469 0.715077
vn 0.187589 -0.688974 0.700089
vn 0.046924 -0.697469 0.715077
vn -0.000001 -0.707108 0.707105
vn -0.000000 -0.987088 0.160182
vn 0.700089 -0.688975 0.187588
vn 0.167231 -0.984899 0.044809
vn 0.173130 -0.984899 0.000000
vn 0.627683 -0.688975 0.362392
vn 0.149935 -0.984899 0.086565
vn 0.167231 -0.984899 0.044809
vn 0.512501 -0.688975 0.512500
vn 0.122421 -0.984899 0.122421
vn 0.149935 -0.984899 0.086565
vn 0.362392 -0.688976 0.627681
vn 0.086566 -0.984899 0.149936
vn 0.122421 -0.984899 0.122421
vn 0.187589 -0.688974 0.700089
vn 0.044809 -0.984899 0.167230
vn 0.086566 -0.984899 0.149936
vn 0.046924 -0.697469 0.715077
vn 0.011382 -0.985952 0.166640
vn 0.044809 -0.984899 0.167230
vn 0.046924 -0.697469 0.715077
vn 0.064170 -0.158834 0.985218
vn -0.000002 -0.160184 0.987087
vn 0.957744 -0.287621 0.000000
vn 0.783516 -0.584001 0.212241
vn 0.811466 -0.584400 0.000000
vn 0.923829 -0.290621 0.249156
vn 0.705493 -0.579039 0.408649
vn 0.783516 -0.584001 0.212241
vn 0.821803 -0.307656 0.479571
vn 0.571649 -0.580611 0.579749
vn 0.705493 -0.579039 0.408649
vn 0.665564 -0.324285 0.672208
vn 0.404527 -0.593058 0.696161
vn 0.571649 -0.580611 0.579749
vn 0.474477 -0.352306 0.806692
vn 0.213117 -0.575071 0.789857
vn 0.404527 -0.593058 0.696161
vn 0.244705 -0.310640 0.918489
vn 0.068744 -0.588868 0.805301
vn 0.213117 -0.575071 0.789857
vn 0.078624 -0.304513 0.949258
vn 0.475414 -0.764939 0.434568
vn 0.068744 -0.588868 0.805301
vn 0.811466 -0.584400 0.000000
vn 0.395537 -0.912446 0.104844
vn 0.406286 -0.913746 -0.000000
vn 0.783516 -0.584001 0.212241
vn 0.367310 -0.905134 0.214045
vn 0.395537 -0.912446 0.104844
vn 0.705493 -0.579039 0.408649
vn 0.301394 -0.904666 0.301233
vn 0.367310 -0.905134 0.214045
vn 0.571649 -0.580611 0.579749
vn 0.215399 -0.903579 0.370335
vn 0.301394 -0.904666 0.301233
vn 0.404527 -0.593058 0.696161
vn 0.111781 -0.903392 0.413991
vn 0.215399 -0.903579 0.370335
vn 0.213117 -0.575071 0.789857
vn 0.028869 -0.904138 0.426264
vn 0.111781 -0.903392 0.413991
vn 0.068744 -0.588868 0.805301
vn 0.130633 -0.976195 0.173145
vn 0.028869 -0.904138 0.426264
vn 0.028869 -0.904138 0.426264
vn 0.091844 -0.992541 0.080165
vn 0.014847 -0.971813 0.235287
vn 0.111781 -0.903392 0.413991
vn 0.014847 -0.971813 0.235287
vn 0.059408 -0.977161 0.204029
vn 0.215399 -0.903579 0.370335
vn 0.059408 -0.977161 0.204029
vn 0.110766 -0.975272 0.191246
vn 0.301394 -0.904666 0.301233
vn 0.110766 -0.975272 0.191246
vn 0.160452 -0.973736 0.161535
vn 0.367310 -0.905134 0.214045
vn 0.160452 -0.973736 0.161535
vn 0.210350 -0.969714 0.124131
vn 0.395537 -0.912446 0.104844
vn 0.210350 -0.969714 0.124131
vn 0.222991 -0.973121 0.057533
vn 0.406286 -0.913746 -0.000000
vn 0.222991 -0.973121 0.057533
vn 0.229888 -0.973217 0.000000
vn 0.783762 -0.297454 0.545196
vn 0.791268 -0.539330 0.288128
vn 0.986977 -0.119762 0.107397
vn 0.334818 -0.488920 0.805515
vn 0.335704 -0.831823 0.442012
vn 0.783762 -0.297454 0.545196
vn 0.333070 -0.127636 0.934224
vn 0.156068 -0.513121 0.844008
vn 0.334818 -0.488920 0.805515
vn 0.986977 -0.119762 0.107397
vn 0.815378 -0.575158 0.065970
vn 0.981434 -0.189448 0.029943
vn 0.335704 -0.831823 0.442012
vn 0.815378 -0.575158 0.065970
vn 0.791268 -0.539330 0.288128
vn 0.981434 -0.189448 0.029943
vn 0.475414 -0.764939 0.434568
vn 0.667798 -0.304330 0.679285
vn 0.815378 -0.575158 0.065970
vn 0.130633 -0.976195 0.173145
vn 0.475414 -0.764939 0.434568
vn 0.340674 -0.933734 0.109916
vn 0.091844 -0.992541 0.080165
vn 0.130633 -0.976195 0.173145
vn 0.957744 -0.287621 0.000000
vn 0.923829 -0.290621 0.249156
vn 0.783516 -0.584001 0.212241
vn 0.923829 -0.290621 0.249156
vn 0.821803 -0.307656 0.479571
vn 0.705493 -0.579039 0.408649
vn 0.821803 -0.307656 0.479571
vn 0.665564 -0.324285 0.672208
vn 0.571649 -0.580611 0.579749
vn 0.665564 -0.324285 0.672208
vn 0.474477 -0.352306 0.806692
vn 0.404527 -0.593058 0.696161
vn 0.474477 -0.352306 0.806692
vn 0.244705 -0.310640 0.918489
vn 0.213117 -0.575071 0.789857
vn 0.244705 -0.310640 0.918489
vn 0.078624 -0.304513 0.949258
vn 0.068744 -0.588868 0.805301
vn 0.078624 -0.304513 0.949258
vn 0.667798 -0.304330 0.679285
vn 0.475414 -0.764939 0.434568
vn 0.986977 -0.119762 0.107397
vn 0.791268 -0.539330 0.288128
vn 0.815378 -0.575158 0.065970
vn 0.981434 -0.189448 0.029943
vn 0.815378 -0.575158 0.065970
vn 0.475414 -0.764939 0.434568
vn 0.340674 -0.933734 0.109916
vn 0.147521 -0.982713 0.111862
vn 0.091844 -0.992541 0.080165
vn -0.000000 -1.000000 -0.000000
vn -0.000000 -1.000000 0.000000
vn 0.000000 -1.000000 -0.000000
vn 0.000000 -1.000000 -0.000000
vn -0.000000 -1.000000 0.000000
vn -0.000000 -1.000000 0.000000
vn -0.000000 -1.000000 0.000000
vn -0.000000 -1.000000 0.000000
vn -0.000000 -1.000000 0.000000
vn -0.000000 -1.000000 0.000000
vn -0.000000 -1.000000 0.000000
vn -0.000000 -1.000000 -0.000000
vn -0.000000 -1.000000 -0.000000
vn -0.000000 -1.000000 0.000000
vn -0.000000 -1.000000 -0.000000
vn -0.000000 -1.000000 -0.000000
vn -0.000000 -1.000000 0.000000
vn -0.000000 -1.000000 -0.000000
vn -0.000000 -1.000000 -0.000000
vn -0.000000 -1.000000 0.000000
vn -0.000000 -1.000000 -0.000000
vn 0.164580 -0.871674 0.461626
vn 0.147521 -0.982713 0.111862
vn 0.335704 -0.831823 0.442012
vn 0.156068 -0.513121 0.844008
vn 0.335704 -0.831823 0.442012
vn 0.334818 -0.488920 0.805515
vn 0.986977 -0.119762 0.107397
vn 0.984589 -0.020091 0.173725
vn 0.783762 -0.297454 0.545196
vn 0.783762 -0.297454 0.545196
vn 0.810533 -0.072474 0.581192
vn 0.334818 -0.488920 0.805515
vn 0.028869 -0.904138 0.426264
vn 0.130633 -0.976195 0.173145
vn 0.091844 -0.992541 0.080165
vn 0.111781 -0.903392 0.413991
vn 0.028869 -0.904138 0.426264
vn 0.014847 -0.971813 0.235287
vn 0.215399 -0.903579 0.370335
vn 0.111781 -0.903392 0.413991
vn 0.059408 -0.977161 0.204029
vn 0.301394 -0.904666 0.301233
vn 0.215399 -0.903579 0.370335
vn 0.110766 -0.975272 0.191246
vn 0.367310 -0.905134 0.214045
vn 0.301394 -0.904666 0.301233
vn 0.160452 -0.973736 0.161535
vn 0.395537 -0.912446 0.104844
vn 0.367310 -0.905134 0.214045
vn 0.210350 -0.969714 0.124131
vn 0.406286 -0.913746 -0.000000
vn 0.395537 -0.912446 0.104844
vn 0.222991 -0.973121 0.057533
vn 0.333070 -0.127636 0.934224
vn 0.115978 -0.125852 0.985246
vn 0.156068 -0.513121 0.844008
vn 0.147521 -0.982713 0.111862
vn 0.340674 -0.933734 0.109916
vn 0.335704 -0.831823 0.442012
vn 0.156068 -0.513121 0.844008
vn 0.164580 -0.871674 0.461626
vn 0.335704 -0.831823 0.442012
vn 0.984589 -0.020091 0.173725
vn 0.810533 -0.072474 0.581192
vn 0.783762 -0.297454 0.545196
vn 0.811466 -0.584400 0.000000
vn 0.783516 -0.584001 0.212241
vn 0.395537 -0.912446 0.104844
vn 0.783516 -0.584001 0.212241
vn 0.705493 -0.579039 0.408649
vn 0.367310 -0.905134 0.214045
vn 0.705493 -0.579039 0.408649
vn 0.571649 -0.580611 0.579749
vn 0.301394 -0.904666 0.301233
vn 0.571649 -0.580611 0.579749
vn 0.404527 -0.593058 0.696161
vn 0.215399 -0.903579 0.370335
vn 0.404527 -0.593058 0.696161
vn 0.213117 -0.575071 0.789857
vn 0.111781 -0.903392 0.413991
vn 0.213117 -0.575071 0.789857
vn 0.068744 -0.588868 0.805301
vn 0.028869 -0.904138 0.426264
vn 0.068744 -0.588868 0.805301
vn 0.475414 -0.764939 0.434568
vn 0.130633 -0.976195 0.173145
vn 0.335704 -0.831823 0.442012
vn 0.791268 -0.539330 0.288128
vn 0.783762 -0.297454 0.545196
vn 0.335704 -0.831823 0.442012
vn 0.340674 -0.933734 0.109916
vn 0.815378 -0.575158 0.065970
vn 0.815378 -0.575158 0.065970
vn 0.340674 -0.933734 0.109916
vn 0.130633 -0.976195 0.173145
vn 0.810533 -0.072474 0.581192
vn 0.333070 -0.127636 0.934224
vn 0.334818 -0.488920 0.805515
vn -1.000000 -0.000000 -0.000000
vn -1.000000 0.000000 -0.000000
vn -1.000000 0.000000 -0.000000
vn -1.000000 0.000000 -0.000000
vn -1.000000 0.000000 -0.000000
vn -1.000000 -0.000000 0.000000
vn -1.000000 -0.000000 0.000000
vn -1.000000 -0.000000 0.000000
vn -1.000000 -0.000000 -0.000000
vn -1.000000 -0.000000 0.000000
vn -1.000000 -0.000000 0.000000
vn -1.000000 0.000000 0.000000
vn -1.000000 0.000000 0.000000
vn -1.000000 -0.000000 0.000000
vn -1.000000 -0.000000 0.000000
vn -1.000000 0.000000 0.000000
vn -1.000000 0.000000 0.000000
vn -1.000000 0.000000 0.000000
vn -1.000000 0.000000 0.000000
vn -1.000000 -0.000000 0.000000
vn -1.000000 0.000000 0.000000
vn 1.000000 0.000000 0.000000
vn 0.987420 -0.158117 -0.000000
vn 0.965926 0.000000 -0.258819
vn 0.965926 0.000000 -0.258819
vn 0.953775 -0.158116 -0.255563
vn 0.866026 0.000000 -0.499999
vn 0.866026 0.000000 -0.499999
vn 0.855132 -0.158116 -0.493710
vn 0.707107 0.000000 -0.707106
vn 0.707107 0.000000 -0.707106
vn 0.698212 -0.158116 -0.698211
vn 0.500000 0.000000 -0.866025
vn 0.500000 0.000000 -0.866025
vn 0.493710 -0.158118 -0.855131
vn 0.258820 0.000000 -0.965926
vn 0.258820 0.000000 -0.965926
vn 0.064170 -0.158834 -0.985218
vn 0.065403 0.000000 -0.997859
vn 0.983105 -0.000000 -0.183042
vn 0.810533 -0.072474 -0.581192
vn 0.829180 -0.000000 -0.558981
vn 0.829180 -0.000000 -0.558981
vn 0.333075 -0.127636 -0.934222
vn 0.341644 0.000000 -0.939829
vn 0.341644 0.000000 -0.939829
vn 0.115988 -0.125852 -0.985245
vn 0.131439 -0.000000 -0.991324
vn 1.000000 0.000000 0.000000
vn 0.953775 -0.158116 0.255563
vn 0.987420 -0.158117 -0.000000
vn 0.965926 -0.000000 0.258819
vn 0.855132 -0.158117 0.493710
vn 0.953775 -0.158116 0.255563
vn 0.866026 -0.000000 0.499999
vn 0.698213 -0.158116 0.698211
vn 0.855132 -0.158117 0.493710
vn 0.707108 -0.000000 0.707106
vn 0.493710 -0.158118 0.855131
vn 0.698213 -0.158116 0.698211
vn 0.500000 -0.000000 0.866025
vn 0.255564 -0.158115 0.953775
vn 0.493710 -0.158118 0.855131
vn 0.258820 -0.000000 0.965926
vn 0.064170 -0.158834 0.985218
vn 0.255564 -0.158115 0.953775
vn 0.983105 -0.000000 0.183041
vn 0.810533 -0.072474 0.581192
vn 0.984589 -0.020091 0.173725
vn 0.829180 -0.000000 0.558981
vn 0.333070 -0.127636 0.934224
vn 0.810533 -0.072474 0.581192
vn 0.341639 -0.000000 0.939831
vn 0.115978 -0.125852 0.985246
vn 0.333070 -0.127636 0.934224
vn -1.000000 -0.000000 0.000000
vn -1.000000 -0.000000 0.000000
vn -1.000000 0.000000 0.000000
vn -1.000000 0.000000 0.000000
vn -1.000000 0.000000 -0.000000
vn -1.000000 0.000000 0.000000
vn -1.000000 -0.000000 0.000000
vn -1.000000 0.000000 0.000000
vn -1.000000 -0.000000 0.000000
vn -1.000000 0.000000 0.000000
vn -1.000000 0.000000 0.000000
vn -1.000000 0.000000 0.000000
vn -1.000000 0.000000 -0.000000
vn -1.000000 -0.000000 0.000000
vn -1.000000 0.000000 -0.000000
vn -1.000000 0.000000 -0.000000
vn -1.000000 -0.000000 0.000000
vn -1.000000 -0.000000 -0.000000
vn 0.065403 0.000000 -0.997859
vn -0.000002 0.000000 -1.000000
vn -0.000002 0.160184 -0.987087
vn 0.064170 0.158834 0.985218
vn -0.000002 0.160184 0.987087
vn -0.000002 -0.000000 1.000000
vn -1.000000 0.000000 -0.000000
vn -1.000000 -0.000000 0.000000
vn -1.000000 -0.000000 -0.000000
vn -1.000000 -0.000000 0.000000
vn -1.000000 0.000000 -0.000000
vn -1.000000 -0.000000 0.000000
vn -1.000000 -0.000000 0.000000
vn -1.000000 -0.000000 0.000000
vn -1.000000 -0.000000 0.000000
vn 0.965926 0.000000 -0.258819
vn 0.953775 0.158116 -0.255563
vn 0.987420 0.158117 0.000000
vn 0.866026 0.000000 -0.499999
vn 0.855132 0.158116 -0.493710
vn 0.953775 0.158116 -0.255563
vn 0.707107 0.000000 -0.707106
vn 0.698212 0.158116 -0.698211
vn 0.855132 0.158116 -0.493710
vn 0.500000 0.000000 -0.866025
vn 0.493710 0.158118 -0.855131
vn 0.698212 0.158116 -0.698211
vn 0.258820 0.000000 -0.965926
vn 0.255564 0.158115 -0.953775
vn 0.493710 0.158118 -0.855131
vn 0.064170 0.158834 -0.985218
vn 0.255564 0.158115 -0.953775
vn 0.258820 0.000000 -0.965926
vn 0.810533 0.072474 -0.581192
vn 0.984589 0.020091 -0.173725
vn 0.983105 -0.000000 -0.183042
vn 0.333075 0.127636 -0.934222
vn 0.810533 0.072474 -0.581192
vn 0.829180 -0.000000 -0.558981
vn 0.115988 0.125852 -0.985245
vn 0.333075 0.127636 -0.934222
vn 0.341644 0.000000 -0.939829
vn 1.000000 0.000000 0.000000
vn 0.987420 0.158117 0.000000
vn 0.953775 0.158116 0.255563
vn 0.965926 -0.000000 0.258819
vn 0.953775 0.158116 0.255563
vn 0.855132 0.158117 0.493710
vn 0.866026 -0.000000 0.499999
vn 0.855132 0.158117 0.493710
vn 0.698213 0.158116 0.698211
vn 0.707108 -0.000000 0.707106
vn 0.698213 0.158116 0.698211
vn 0.493710 0.158118 0.855131
vn 0.500000 -0.000000 0.866025
vn 0.493710 0.158118 0.855131
vn 0.255564 0.158115 0.953775
vn 0.258820 -0.000000 0.965926
vn 0.255564 0.158115 0.953775
vn 0.064170 0.158834 0.985218
vn 0.983105 -0.000000 0.183041
vn 0.984589 0.020091 0.173725
vn 0.810533 0.072474 0.581192
vn 0.829180 -0.000000 0.558981
vn 0.810533 0.072474 0.581192
vn 0.333070 0.127636 0.934224
vn 0.341639 -0.000000 0.939831
vn 0.333070 0.127636 0.934224
vn 0.115978 0.125852 0.985246
vn -0.000002 -0.160184 -0.987087
vn -0.000002 0.000000 -1.000000
vn 0.065403 0.000000 -0.997859
vn 0.064170 -0.158834 0.985218
vn 0.065403 -0.000000 0.997859
vn -0.000002 -0.000000 1.000000
vn -1.000000 0.000000 -0.000000
vn -1.000000 -0.000000 0.000000
vn -1.000000 0.000000 -0.000000
vn -1.000000 0.000000 -0.000000
vn -1.000000 0.000000 -0.000000
vn -1.000000 -0.000000 0.000000
vn -1.000000 0.000000 0.000000
vn -1.000000 0.000000 0.000000
vn -1.000000 -0.000000 0.000000
vn 0.987420 -0.158117 -0.000000
vn 0.953775 -0.158116 -0.255563
vn 0.965926 0.000000 -0.258819
vn 0.953775 -0.158116 -0.255563
vn 0.855132 -0.158116 -0.493710
vn 0.866026 0.000000 -0.499999
vn 0.855132 -0.158116 -0.493710
vn 0.698212 -0.158116 -0.698211
vn 0.707107 0.000000 -0.707106
vn 0.698212 -0.158116 -0.698211
vn 0.493710 -0.158118 -0.855131
vn 0.500000 0.000000 -0.866025
vn 0.493710 -0.158118 -0.855131
vn 0.255564 -0.158115 -0.953775
vn 0.258820 0.000000 -0.965926
vn 0.258820 0.000000 -0.965926
vn 0.255564 -0.158115 -0.953775
vn 0.064170 -0.158834 -0.985218
vn 0.983105 -0.000000 -0.183042
vn 0.984589 -0.020091 -0.173725
vn 0.810533 -0.072474 -0.581192
vn 0.829180 -0.000000 -0.558981
vn 0.810533 -0.072474 -0.581192
vn 0.333075 -0.127636 -0.934222
vn 0.341644 0.000000 -0.939829
vn 0.333075 -0.127636 -0.934222
vn 0.115988 -0.125852 -0.985245
vn 1.000000 0.000000 0.000000
vn 0.965926 -0.000000 0.258819
vn 0.953775 -0.158116 0.255563
vn 0.965926 -0.000000 0.258819
vn 0.866026 -0.000000 0.499999
vn 0.855132 -0.158117 0.493710
vn 0.866026 -0.000000 0.499999
vn 0.707108 -0.000000 0.707106
vn 0.698213 -0.158116 0.698211
vn 0.707108 -0.000000 0.707106
vn 0.500000 -0.000000 0.866025
vn 0.493710 -0.158118 0.855131
vn 0.500000 -0.000000 0.866025
vn 0.258820 -0.000000 0.965926
vn 0.255564 -0.158115 0.953775
vn 0.258820 -0.000000 0.965926
vn 0.065403 -0.000000 0.997859
vn 0.064170 -0.158834 0.985218
vn 0.983105 -0.000000 0.183041
vn 0.829180 -0.000000 0.558981
vn 0.810533 -0.072474 0.581192
vn 0.829180 -0.000000 0.558981
vn 0.341639 -0.000000 0.939831
vn 0.333070 -0.127636 0.934224
vn 0.341639 -0.000000 0.939831
vn 0.131429 -0.000000 0.991326
vn 0.115978 -0.125852 0.985246
vn -1.000000 -0.000000 0.000000
vn -1.000000 0.000000 -0.000000
vn -1.000000 0.000000 0.000000
vn -1.000000 0.000000 -0.000000
vn -1.000000 0.000000 -0.000000
vn -1.000000 0.000000 0.000000
vn -1.000000 -0.000000 0.000000
vn -1.000000 -0.000000 0.000000
vn -1.000000 0.000000 0.000000
vn -1.000000 0.000000 0.000000
vn -1.000000 -0.000000 0.000000
vn -1.000000 0.000000 0.000000
vn -1.000000 0.000000 -0.000000
vn -1.000000 0.000000 0.000000
vn -1.000000 -0.000000 0.000000
vn -1.000000 -0.000000 0.000000
vn -1.000000 -0.000000 0.000000
vn -1.000000 -0.000000 -0.000000
s off
g SM_Lamp_02b
f 21/8/1 7/9/2 65/22/3
f 7/9/4 8/10/5 22/23/6
f 8/10/7 9/11/8 23/24/9
f 9/11/10 10/12/11 24/25/12
f 10/12/13 11/13/14 25/26/15
f 11/13/16 12/14/17 26/27/18
f 6/7/19 172/221/20 41/30/21
f 27/28/22 12/14/23 48/32/24
f 1/1/25 20/16/26 19/2/27
f 2/3/28 13/15/29 1/1/30
f 3/4/31 14/17/32 2/3/33
f 4/5/34 15/18/35 3/4/36
f 5/6/37 16/19/38 4/5/39
f 6/7/40 17/20/41 5/6/42
f 12/14/43 18/21/44 28/29/45
f 13/15/46 21/8/47 20/16/48
f 14/17/49 7/9/50 13/15/51
f 15/18/52 8/10/53 14/17/54
f 16/19/55 9/11/56 15/18/57
f 17/20/58 10/12/59 16/19/60
f 18/21/61 11/13/62 17/20/63
f 18/21/64 41/30/65 45/31/66
f 7/9/67 22/23/68 65/22/69
f 8/10/70 23/24/71 22/23/72
f 9/11/73 24/25/74 23/24/75
f 10/12/76 25/26/77 24/25/78
f 11/13/79 26/27/80 25/26/81
f 12/14/82 27/28/83 26/27/84
f 12/14/85 28/29/86 48/32/87
f 1/1/88 13/15/89 20/16/90
f 2/3/91 14/17/92 13/15/93
f 3/4/94 15/18/95 14/17/96
f 4/5/97 16/19/98 15/18/99
f 5/6/100 17/20/101 16/19/102
f 6/7/103 18/21/104 17/20/105
f 18/21/106 45/31/107 28/29/108
f 13/15/109 7/9/110 21/8/111
f 14/17/112 8/10/113 7/9/114
f 15/18/115 9/11/116 8/10/117
f 16/19/118 10/12/119 9/11/120
f 17/20/121 11/13/122 10/12/123
f 18/21/124 12/14/125 11/13/126
f 18/21/127 6/7/128 41/30/129
f 65/37/130 29/39/131 67/40/132
f 22/38/133 30/42/134 29/39/135
f 23/41/136 31/44/137 30/42/138
f 24/43/139 32/46/140 31/44/141
f 25/45/142 33/48/143 32/46/144
f 26/47/145 34/50/146 33/48/147
f 27/49/148 49/52/149 34/50/150
f 67/40/151 40/53/152 66/54/153
f 29/39/154 39/55/155 40/53/156
f 30/42/157 38/56/158 39/55/159
f 31/44/160 37/57/161 38/56/162
f 32/46/163 36/58/164 37/57/165
f 33/48/166 35/59/167 36/58/168
f 34/50/169 50/60/170 35/59/171
f 35/59/172 51/61/173 53/77/174
f 36/58/175 53/77/176 54/78/177
f 37/57/178 54/78/179 55/79/180
f 38/56/181 55/79/182 56/87/183
f 39/55/184 56/87/185 57/88/186
f 40/53/187 57/88/188 58/89/189
f 66/54/190 58/89/191 68/90/192
f 64/96/193 63/95/194 45/66/195
f 61/93/196 59/91/197 64/96/198
f 43/35/199 62/94/200 61/93/201
f 45/66/202 46/67/203 28/68/204
f 59/91/205 46/67/206 63/95/207
f 28/68/208 49/71/209 48/72/210
f 46/67/211 50/75/212 49/71/213
f 47/69/214 51/76/215 50/75/216
f 65/37/217 22/38/218 29/39/219
f 22/38/220 23/41/221 30/42/222
f 23/41/223 24/43/224 31/44/225
f 24/43/226 25/45/227 32/46/228
f 25/45/229 26/47/230 33/48/231
f 26/47/232 27/49/233 34/50/234
f 27/49/235 48/51/236 49/52/237
f 45/66/238 63/95/239 46/67/240
f 28/68/241 46/67/242 49/71/243
f 47/69/244 52/70/245 51/76/246
f 51/73/247 69/74/248 53/80/249
f 53/80/250 69/74/251 54/81/252
f 54/81/253 69/74/254 55/82/255
f 55/82/256 69/74/257 56/83/258
f 56/83/259 69/74/260 57/84/261
f 57/84/262 69/74/263 58/85/264
f 58/85/265 69/74/266 68/86/267
f 60/92/268 52/70/269 59/91/270
f 62/94/271 59/91/272 61/93/273
f 45/66/274 41/34/275 64/96/276
f 64/96/277 42/33/278 61/93/279
f 35/59/280 50/60/281 51/61/282
f 36/58/283 35/59/284 53/77/285
f 37/57/286 36/58/287 54/78/288
f 38/56/289 37/57/290 55/79/291
f 39/55/292 38/56/293 56/87/294
f 40/53/295 39/55/296 57/88/297
f 66/54/298 40/53/299 58/89/300
f 43/35/301 44/36/302 62/94/303
f 52/70/304 47/69/305 59/91/306
f 62/94/307 60/92/308 59/91/309
f 41/34/310 42/33/311 64/96/312
f 67/40/313 29/39/314 40/53/315
f 29/39/316 30/42/317 39/55/318
f 30/42/319 31/44/320 38/56/321
f 31/44/322 32/46/323 37/57/324
f 32/46/325 33/48/326 36/58/327
f 33/48/328 34/50/329 35/59/330
f 34/50/331 49/52/332 50/60/333
f 59/91/334 63/95/335 64/96/336
f 59/91/337 47/69/338 46/67/339
f 46/67/340 47/69/341 50/75/342
f 42/33/343 43/35/344 61/93/345
f 21/104/346 65/106/347 76/105/348
f 76/105/349 78/108/350 77/107/351
f 77/107/352 80/110/353 79/109/354
f 79/109/355 82/112/356 81/111/357
f 81/111/358 84/114/359 83/113/360
f 83/113/361 86/116/362 85/115/363
f 75/103/364 223/240/365 239/243/366
f 88/118/367 89/119/368 85/115/369
f 70/97/370 19/98/371 20/120/372
f 71/99/373 70/97/374 90/121/375
f 72/100/376 71/99/377 91/122/378
f 73/101/379 72/100/380 92/123/381
f 74/102/382 73/101/383 93/124/384
f 75/103/385 74/102/386 94/125/387
f 85/115/388 96/127/389 95/126/390
f 90/121/391 20/120/392 21/104/393
f 91/122/394 90/121/395 76/105/396
f 92/123/397 91/122/398 77/107/399
f 93/124/400 92/123/401 79/109/402
f 94/125/403 93/124/404 81/111/405
f 95/126/406 94/125/407 83/113/408
f 95/126/409 97/128/410 87/117/411
f 76/105/412 65/106/413 78/108/414
f 77/107/415 78/108/416 80/110/417
f 79/109/418 80/110/419 82/112/420
f 81/111/421 82/112/422 84/114/423
f 83/113/424 84/114/425 86/116/426
f 85/115/427 86/116/428 88/118/429
f 85/115/430 89/119/431 96/127/432
f 70/97/433 20/120/434 90/121/435
f 71/99/436 90/121/437 91/122/438
f 72/100/439 91/122/440 92/123/441
f 73/101/442 92/123/443 93/124/444
f 74/102/445 93/124/446 94/125/447
f 75/103/448 94/125/449 95/126/450
f 95/126/451 96/127/452 97/128/453
f 90/121/454 21/104/455 76/105/456
f 91/122/457 76/105/458 77/107/459
f 92/123/460 77/107/461 79/109/462
f 93/124/463 79/109/464 81/111/465
f 94/125/466 81/111/467 83/113/468
f 95/126/469 83/113/470 85/115/471
f 95/126/472 87/117/473 75/103/474
f 65/129/475 67/131/476 98/130/477
f 78/132/478 98/130/479 99/133/480
f 80/134/481 99/133/482 100/135/483
f 82/136/484 100/135/485 101/137/486
f 84/138/487 101/137/488 102/139/489
f 86/140/490 102/139/491 103/141/492
f 88/142/493 103/141/494 104/143/495
f 67/131/496 66/145/497 105/144/498
f 98/130/499 105/144/500 106/146/501
f 99/133/502 106/146/503 107/147/504
f 100/135/505 107/147/506 108/148/507
f 101/137/508 108/148/509 109/149/510
f 102/139/511 109/149/512 110/150/513
f 103/141/514 110/150/515 111/151/516
f 110/150/517 113/153/518 112/152/519
f 109/149/520 114/154/521 113/153/522
f 108/148/523 115/155/524 114/154/525
f 107/147/526 116/156/527 115/155/528
f 106/146/529 117/157/530 116/156/531
f 105/144/532 118/158/533 117/157/534
f 66/145/535 68/159/536 118/158/537
f 122/164/538 97/166/539 123/165/540
f 124/167/541 122/164/542 125/168/543
f 120/169/544 124/167/545 126/170/546
f 97/166/547 96/172/548 127/171/549
f 125/168/550 123/165/551 127/171/552
f 96/172/553 89/174/554 104/173/555
f 127/171/556 104/173/557 111/175/558
f 128/176/559 111/175/560 112/177/561
f 65/129/562 98/130/563 78/132/564
f 78/132/565 99/133/566 80/134/567
f 80/134/568 100/135/569 82/136/570
f 82/136/571 101/137/572 84/138/573
f 84/138/574 102/139/575 86/140/576
f 86/140/577 103/141/578 88/142/579
f 88/142/580 104/143/581 89/178/582
f 97/166/583 127/171/584 123/165/585
f 96/172/586 104/173/587 127/171/588
f 128/176/589 112/177/590 129/179/591
f 112/180/592 113/182/593 69/181/594
f 113/182/595 114/183/596 69/181/597
f 114/183/598 115/184/599 69/181/600
f 115/184/601 116/185/602 69/181/603
f 116/185/604 117/186/605 69/181/606
f 117/186/607 118/187/608 69/181/609
f 118/187/610 68/188/611 69/181/612
f 130/189/613 125/168/614 129/179/615
f 126/170/616 124/167/617 125/168/618
f 97/166/619 122/164/620 87/190/621
f 122/164/622 124/167/623 119/191/624
f 110/150/625 112/152/626 111/151/627
f 109/149/628 113/153/629 110/150/630
f 108/148/631 114/154/632 109/149/633
f 107/147/634 115/155/635 108/148/636
f 106/146/637 116/156/638 107/147/639
f 105/144/640 117/157/641 106/146/642
f 66/145/643 118/158/644 105/144/645
f 120/169/646 126/170/647 121/192/648
f 129/179/649 125/168/650 128/176/651
f 126/170/652 125/168/653 130/189/654
f 87/190/655 122/164/656 119/191/657
f 67/131/658 105/144/659 98/130/660
f 98/130/661 106/146/662 99/133/663
f 99/133/664 107/147/665 100/135/666
f 100/135/667 108/148/668 101/137/669
f 101/137/670 109/149/671 102/139/672
f 102/139/673 110/150/674 103/141/675
f 103/141/676 111/151/677 104/143/678
f 125/168/679 122/164/680 123/165/681
f 125/168/682 127/171/683 128/176/684
f 127/171/685 111/175/686 128/176/687
f 119/191/688 124/167/689 120/169/690
f 52/197/691 286/563/692 51/196/693
f 51/196/694 283/557/695 69/193/696
f 44/194/697 52/197/698 60/198/699
f 60/198/700 62/195/701 44/194/702
f 129/200/703 137/250/704 121/202/705
f 121/202/706 130/203/707 129/200/708
f 130/203/709 121/202/710 126/204/711
f 274/209/712 19/2/713 273/206/714
f 275/211/715 1/1/716 274/209/717
f 276/213/718 2/3/719 275/211/720
f 277/215/721 3/4/722 276/213/723
f 131/217/724 4/5/725 277/215/726
f 172/221/727 6/7/728 131/217/729
f 132/224/730 42/62/731 153/220/732
f 278/226/733 43/64/734 132/224/735
f 279/227/736 44/65/737 278/226/738
f 273/207/739 70/97/740 280/230/741
f 280/230/742 71/99/743 281/232/744
f 281/232/745 72/100/746 133/234/747
f 133/234/748 73/101/749 134/236/750
f 134/236/751 74/102/752 135/238/753
f 135/238/754 75/103/755 239/243/756
f 223/241/757 119/160/758 282/245/759
f 282/245/760 120/162/761 136/247/762
f 136/247/763 121/163/764 137/249/765
f 139/279/766 141/281/767 140/280/768
f 140/280/769 143/283/770 142/282/771
f 142/282/772 145/285/773 144/284/774
f 144/284/775 147/287/776 146/286/777
f 146/286/778 149/289/779 148/288/780
f 148/288/781 151/291/782 150/290/783
f 152/292/784 154/295/785 172/313/786
f 155/296/787 156/297/788 150/290/789
f 157/298/790 159/300/791 158/299/792
f 160/301/793 157/298/794 161/302/795
f 162/303/796 160/301/797 163/304/798
f 164/305/799 162/303/800 165/306/801
f 166/307/802 164/305/803 167/308/804
f 152/292/805 166/307/806 168/309/807
f 150/290/808 170/311/809 169/310/810
f 161/302/811 158/299/812 139/279/813
f 163/304/814 161/302/815 140/280/816
f 165/306/817 163/304/818 142/282/819
f 167/308/820 165/306/821 144/284/822
f 168/309/823 167/308/824 146/286/825
f 169/310/826 168/309/827 148/288/828
f 169/310/829 171/312/830 154/295/831
f 140/280/832 141/281/833 143/283/834
f 142/282/835 143/283/836 145/285/837
f 144/284/838 145/285/839 147/287/840
f 146/286/841 147/287/842 149/289/843
f 148/288/844 149/289/845 151/291/846
f 150/290/847 151/291/848 155/296/849
f 150/290/850 156/297/851 170/311/852
f 157/298/853 158/299/854 161/302/855
f 160/301/856 161/302/857 163/304/858
f 162/303/859 163/304/860 165/306/861
f 164/305/862 165/306/863 167/308/864
f 166/307/865 167/308/866 168/309/867
f 152/292/868 168/309/869 169/310/870
f 169/310/871 170/311/872 171/312/873
f 161/302/874 139/279/875 140/280/876
f 163/304/877 140/280/878 142/282/879
f 165/306/880 142/282/881 144/284/882
f 167/308/883 144/284/884 146/286/885
f 168/309/886 146/286/887 148/288/888
f 169/310/889 148/288/890 150/290/891
f 169/310/892 154/295/893 152/292/894
f 141/314/895 174/316/896 173/315/897
f 143/317/898 173/315/899 175/318/900
f 145/319/901 175/318/902 176/320/903
f 147/321/904 176/320/905 177/322/906
f 149/323/907 177/322/908 178/324/909
f 151/325/910 178/324/911 179/326/912
f 155/327/913 179/326/914 180/328/915
f 174/316/916 182/330/917 181/329/918
f 173/315/919 181/329/920 183/331/921
f 175/318/922 183/331/923 184/332/924
f 176/320/925 184/332/926 185/333/927
f 177/322/928 185/333/929 186/334/930
f 178/324/931 186/334/932 187/335/933
f 179/326/934 187/335/935 188/336/936
f 187/335/937 190/338/938 189/337/939
f 186/334/940 191/339/941 190/338/942
f 185/333/943 192/340/944 191/339/945
f 184/332/946 193/341/947 192/340/948
f 183/331/949 194/342/950 193/341/951
f 181/329/952 195/343/953 194/342/954
f 182/330/955 196/344/956 195/343/957
f 197/345/958 171/347/959 198/346/960
f 199/348/961 197/345/962 200/349/963
f 201/350/964 199/348/965 202/351/966
f 171/347/967 170/353/968 203/352/969
f 200/349/970 198/346/971 203/352/972
f 170/353/973 156/355/974 180/354/975
f 203/352/976 180/354/977 188/356/978
f 204/357/979 188/356/980 189/358/981
f 141/314/982 173/315/983 143/317/984
f 143/317/985 175/318/986 145/319/987
f 145/319/988 176/320/989 147/321/990
f 147/321/991 177/322/992 149/323/993
f 149/323/994 178/324/995 151/325/996
f 151/325/997 179/326/998 155/327/999
f 155/327/1000 180/328/1001 156/359/1002
f 171/347/1003 203/352/1004 198/346/1005
f 170/353/1006 180/354/1007 203/352/1008
f 204/357/1009 189/358/1010 205/360/1011
f 189/361/1012 190/363/1013 206/362/1014
f 190/363/1015 191/364/1016 206/362/1017
f 191/364/1018 192/365/1019 206/362/1020
f 192/365/1021 193/366/1022 206/362/1023
f 193/366/1024 194/367/1025 206/362/1026
f 194/367/1027 195/368/1028 206/362/1029
f 195/368/1030 196/369/1031 206/362/1032
f 207/370/1033 200/349/1034 205/360/1035
f 202/351/1036 199/348/1037 200/349/1038
f 171/347/1039 197/345/1040 154/371/1041
f 197/345/1042 199/348/1043 208/372/1044
f 187/335/1045 189/337/1046 188/336/1047
f 186/334/1048 190/338/1049 187/335/1050
f 185/333/1051 191/339/1052 186/334/1053
f 184/332/1054 192/340/1055 185/333/1056
f 183/331/1057 193/341/1058 184/332/1059
f 181/329/1060 194/342/1061 183/331/1062
f 182/330/1063 195/343/1064 181/329/1065
f 201/350/1066 202/351/1067 209/373/1068
f 205/360/1069 200/349/1070 204/357/1071
f 202/351/1072 200/349/1073 207/370/1074
f 154/371/1075 197/345/1076 208/372/1077
f 174/316/1078 181/329/1079 173/315/1080
f 173/315/1081 183/331/1082 175/318/1083
f 175/318/1084 184/332/1085 176/320/1086
f 176/320/1087 185/333/1088 177/322/1089
f 177/322/1090 186/334/1091 178/324/1092
f 178/324/1093 187/335/1094 179/326/1095
f 179/326/1096 188/336/1097 180/328/1098
f 200/349/1099 197/345/1100 198/346/1101
f 200/349/1102 203/352/1103 204/357/1104
f 203/352/1105 188/356/1106 204/357/1107
f 208/372/1108 199/348/1109 201/350/1110
f 139/374/1111 210/376/1112 141/375/1113
f 210/376/1114 212/378/1115 211/377/1116
f 212/378/1117 214/380/1118 213/379/1119
f 214/380/1120 216/382/1121 215/381/1122
f 216/382/1123 218/384/1124 217/383/1125
f 218/384/1126 220/386/1127 219/385/1128
f 221/387/1129 223/389/1130 222/388/1131
f 224/391/1132 220/386/1133 225/392/1134
f 226/393/1135 158/395/1136 159/394/1137
f 227/396/1138 228/397/1139 226/393/1140
f 229/398/1141 230/399/1142 227/396/1143
f 231/400/1144 232/401/1145 229/398/1146
f 233/402/1147 234/403/1148 231/400/1149
f 221/387/1150 235/404/1151 233/402/1152
f 220/386/1153 237/406/1154 236/405/1155
f 228/397/1156 139/374/1157 158/395/1158
f 230/399/1159 210/376/1160 228/397/1161
f 232/401/1162 212/378/1163 230/399/1164
f 234/403/1165 214/380/1166 232/401/1167
f 235/404/1168 216/382/1169 234/403/1170
f 237/406/1171 218/384/1172 235/404/1173
f 237/406/1174 222/388/1175 238/407/1176
f 210/376/1177 211/377/1178 141/375/1179
f 212/378/1180 213/379/1181 211/377/1182
f 214/380/1183 215/381/1184 213/379/1185
f 216/382/1186 217/383/1187 215/381/1188
f 218/384/1189 219/385/1190 217/383/1191
f 220/386/1192 224/391/1193 219/385/1194
f 220/386/1195 236/405/1196 225/392/1197
f 226/393/1198 228/397/1199 158/395/1200
f 227/396/1201 230/399/1202 228/397/1203
f 229/398/1204 232/401/1205 230/399/1206
f 231/400/1207 234/403/1208 232/401/1209
f 233/402/1210 235/404/1211 234/403/1212
f 221/387/1213 237/406/1214 235/404/1215
f 237/406/1216 238/407/1217 236/405/1218
f 228/397/1219 210/376/1220 139/374/1221
f 230/399/1222 212/378/1223 210/376/1224
f 232/401/1225 214/380/1226 212/378/1227
f 234/403/1228 216/382/1229 214/380/1230
f 235/404/1231 218/384/1232 216/382/1233
f 237/406/1234 220/386/1235 218/384/1236
f 237/406/1237 221/387/1238 222/388/1239
f 141/409/1240 240/411/1241 174/410/1242
f 211/412/1243 241/413/1244 240/411/1245
f 213/414/1246 242/415/1247 241/413/1248
f 215/416/1249 243/417/1250 242/415/1251
f 217/418/1252 244/419/1253 243/417/1254
f 219/420/1255 245/421/1256 244/419/1257
f 224/422/1258 246/423/1259 245/421/1260
f 174/410/1261 247/425/1262 182/424/1263
f 240/411/1264 248/426/1265 247/425/1266
f 241/413/1267 249/427/1268 248/426/1269
f 242/415/1270 250/428/1271 249/427/1272
f 243/417/1273 251/429/1274 250/428/1275
f 244/419/1276 252/430/1277 251/429/1278
f 245/421/1279 253/431/1280 252/430/1281
f 252/430/1282 255/433/1283 254/432/1284
f 251/429/1285 254/432/1286 256/434/1287
f 250/428/1288 256/434/1289 257/435/1290
f 249/427/1291 257/435/1292 258/436/1293
f 248/426/1294 258/436/1295 259/437/1296
f 247/425/1297 259/437/1298 260/438/1299
f 182/424/1300 260/438/1301 196/439/1302
f 261/440/1303 262/442/1304 238/441/1305
f 263/443/1306 264/444/1307 261/440/1308
f 265/445/1309 266/446/1310 263/443/1311
f 238/441/1312 267/448/1313 236/447/1314
f 264/444/1315 267/448/1316 262/442/1317
f 236/447/1318 246/450/1319 225/449/1320
f 267/448/1321 253/451/1322 246/450/1323
f 268/452/1324 255/453/1325 253/451/1326
f 141/409/1327 211/412/1328 240/411/1329
f 211/412/1330 213/414/1331 241/413/1332
f 213/414/1333 215/416/1334 242/415/1335
f 215/416/1336 217/418/1337 243/417/1338
f 217/418/1339 219/420/1340 244/419/1341
f 219/420/1342 224/422/1343 245/421/1344
f 224/422/1345 225/454/1346 246/423/1347
f 238/441/1348 262/442/1349 267/448/1350
f 236/447/1351 267/448/1352 246/450/1353
f 268/452/1354 269/455/1355 255/453/1356
f 255/456/1357 206/458/1358 254/457/1359
f 254/457/1360 206/458/1361 256/459/1362
f 256/459/1363 206/458/1364 257/460/1365
f 257/460/1366 206/458/1367 258/461/1368
f 258/461/1369 206/458/1370 259/462/1371
f 259/462/1372 206/458/1373 260/463/1374
f 260/463/1375 206/458/1376 196/464/1377
f 270/465/1378 269/455/1379 264/444/1380
f 266/446/1381 264/444/1382 263/443/1383
f 238/441/1384 222/466/1385 261/440/1386
f 261/440/1387 271/467/1388 263/443/1389
f 252/430/1390 253/431/1391 255/433/1392
f 251/429/1393 252/430/1394 254/432/1395
f 250/428/1396 251/429/1397 256/434/1398
f 249/427/1399 250/428/1400 257/435/1401
f 248/426/1402 249/427/1403 258/436/1404
f 247/425/1405 248/426/1406 259/437/1407
f 182/424/1408 247/425/1409 260/438/1410
f 265/445/1411 272/468/1412 266/446/1413
f 269/455/1414 268/452/1415 264/444/1416
f 266/446/1417 270/465/1418 264/444/1419
f 222/466/1420 271/467/1421 261/440/1422
f 174/410/1423 240/411/1424 247/425/1425
f 240/411/1426 241/413/1427 248/426/1428
f 241/413/1429 242/415/1430 249/427/1431
f 242/415/1432 243/417/1433 250/428/1434
f 243/417/1435 244/419/1436 251/429/1437
f 244/419/1438 245/421/1439 252/430/1440
f 245/421/1441 246/423/1442 253/431/1443
f 264/444/1444 262/442/1445 261/440/1446
f 264/444/1447 268/452/1448 267/448/1449
f 267/448/1450 268/452/1451 253/451/1452
f 271/467/1453 265/445/1454 263/443/1455
f 205/469/1456 189/472/1457 286/564/1458
f 189/472/1459 206/474/1460 283/558/1461
f 209/477/1462 207/478/1463 205/469/1464
f 207/478/1465 209/477/1466 202/481/1467
f 269/482/1468 137/490/1469 285/561/1470
f 272/491/1471 269/482/1472 270/492/1473
f 270/492/1474 266/495/1475 272/491/1476
f 273/497/1477 159/300/1478 274/499/1479
f 274/499/1480 157/298/1481 275/501/1482
f 275/501/1483 160/301/1484 276/503/1485
f 276/503/1486 162/303/1487 277/505/1488
f 277/505/1489 164/305/1490 131/507/1491
f 131/507/1492 152/292/1493 172/313/1494
f 153/511/1495 208/509/1496 132/514/1497
f 132/514/1498 201/513/1499 278/517/1500
f 278/517/1501 209/516/1502 279/518/1503
f 273/519/1504 226/393/1505 159/394/1506
f 280/521/1507 227/396/1508 226/393/1509
f 281/523/1510 229/398/1511 227/396/1512
f 133/525/1513 231/400/1514 229/398/1515
f 134/527/1516 233/402/1517 231/400/1518
f 135/529/1519 221/387/1520 233/402/1521
f 223/531/1522 271/533/1523 222/532/1524
f 282/535/1525 265/536/1526 271/533/1527
f 136/538/1528 272/539/1529 265/536/1530
f 112/199/1531 69/201/1532 284/560/1533
f 284/559/1534 138/553/1535 255/485/1536
f 129/200/1537 284/560/1538 285/562/1539
f 284/559/1540 255/485/1541 269/482/1542
f 52/197/1543 279/228/1544 286/563/1545
f 286/564/1546 279/542/1547 205/469/1548
f 172/221/1549 153/219/1550 41/30/1551
f 75/103/1552 87/117/1553 223/240/1554
f 286/563/1555 283/557/1556 51/196/1557
f 283/557/1558 138/260/1559 69/193/1560
f 129/200/1561 285/562/1562 137/250/1563
f 274/209/1564 1/1/1565 19/2/1566
f 275/211/1567 2/3/1568 1/1/1569
f 276/213/1570 3/4/1571 2/3/1572
f 277/215/1573 4/5/1574 3/4/1575
f 131/217/1576 5/6/1577 4/5/1578
f 6/7/1579 5/6/1580 131/217/1581
f 42/62/1582 41/63/1583 153/220/1584
f 43/64/1585 42/62/1586 132/224/1587
f 44/65/1588 43/64/1589 278/226/1590
f 273/207/1591 19/98/1592 70/97/1593
f 280/230/1594 70/97/1595 71/99/1596
f 281/232/1597 71/99/1598 72/100/1599
f 133/234/1600 72/100/1601 73/101/1602
f 134/236/1603 73/101/1604 74/102/1605
f 135/238/1606 74/102/1607 75/103/1608
f 223/241/1609 87/161/1610 119/160/1611
f 282/245/1612 119/160/1613 120/162/1614
f 136/247/1615 120/162/1616 121/163/1617
f 154/295/1618 153/294/1619 172/313/1620
f 221/387/1621 239/408/1622 223/389/1623
f 189/472/1624 283/558/1625 286/564/1626
f 206/474/1627 138/545/1628 283/558/1629
f 269/482/1630 272/491/1631 137/490/1632
f 159/300/1633 157/298/1634 274/499/1635
f 157/298/1636 160/301/1637 275/501/1638
f 160/301/1639 162/303/1640 276/503/1641
f 162/303/1642 164/305/1643 277/505/1644
f 164/305/1645 166/307/1646 131/507/1647
f 131/507/1648 166/307/1649 152/292/1650
f 153/511/1651 154/510/1652 208/509/1653
f 132/514/1654 208/509/1655 201/513/1656
f 278/517/1657 201/513/1658 209/516/1659
f 273/519/1660 280/521/1661 226/393/1662
f 280/521/1663 281/523/1664 227/396/1665
f 281/523/1666 133/525/1667 229/398/1668
f 133/525/1669 134/527/1670 231/400/1671
f 134/527/1672 135/529/1673 233/402/1674
f 135/529/1675 239/408/1676 221/387/1677
f 223/531/1678 282/535/1679 271/533/1680
f 282/535/1681 136/538/1682 265/536/1683
f 136/538/1684 137/541/1685 272/539/1686
f 69/201/1687 138/261/1688 284/560/1689
f 138/553/1690 206/486/1691 255/485/1692
f 129/200/1693 112/199/1694 284/560/1695
f 269/482/1696 285/561/1697 284/559/1698
f 52/197/1699 44/194/1700 279/228/1701
f 279/542/1702 209/477/1703 205/469/1704
