# This file uses feet as units for non-parametric coordinates.

g default
v 0.503652 96.022736 14.738468
v 0.503652 96.987450 14.338867
v 0.503652 97.815880 13.703192
v 0.503653 98.451561 12.874765
v 0.503652 98.851151 11.910042
v 0.503652 98.987457 10.874765
v 0.503648 6.322831 14.874765
v 0.503652 94.987465 14.874763
v 0.503652 88.193382 21.209553
v 0.503652 89.158104 20.809952
v 0.503652 89.986534 20.174278
v 0.503652 90.622208 19.345850
v 0.503652 91.021805 18.381126
v 0.503653 91.158112 17.345850
v 0.503652 91.158104 15.874765
v 0.503649 6.322831 15.874765
v 0.503649 6.322831 21.345848
v 0.503652 87.158112 21.345848
v 0.503652 77.389694 26.163536
v 0.503652 78.424973 26.027239
v 0.503652 79.389694 25.627640
v 0.503652 80.218124 24.991966
v 0.503652 80.853798 24.163536
v 0.503652 81.253403 23.198814
v 0.503652 81.389702 22.345850
v 0.503649 6.322831 22.345850
v 0.503649 6.322831 26.163536
v 0.503651 61.308952 26.163536
v 0.503651 56.308945 35.140686
v 0.503651 57.344223 35.004391
v 0.503652 58.308945 34.604790
v 0.503652 59.137371 33.969116
v 0.503652 59.773048 33.140686
v 0.503652 60.172646 32.175964
v 0.503652 60.308949 31.140690
v 0.503649 6.322830 27.163536
v 0.503649 1.109515 35.140686
v 0.000002 99.987457 10.874767
v 0.000002 99.817085 12.168861
v 0.000002 99.317581 13.374765
v 0.000002 98.522987 14.410299
v 0.000002 97.487450 15.204891
v 0.000001 96.281548 15.704393
v 0.000001 92.158104 15.874765
v 0.000002 92.158104 17.345852
v 0.000002 91.987740 18.639946
v 0.000002 91.488235 19.845850
v 0.000002 90.693642 20.881386
v 0.000001 89.658112 21.675980
v 0.000001 88.452194 22.175478
v 0.000001 87.158112 22.345850
v 0.000001 82.389702 22.345850
v 0.000001 82.219322 23.457634
v 0.000002 81.719818 24.663538
v 0.000001 80.925232 25.699070
v 0.000001 79.889694 26.493664
v 0.000001 78.683792 26.993168
v 0.000001 61.308945 31.140692
v 0.000001 61.138573 32.434780
v 0.000001 60.639072 33.640686
v 0.000001 59.844479 34.676224
v 0.000001 58.808949 35.470810
v 0.000001 57.603039 35.970318
v 0.000000 56.308949 36.140690
v -0.000002 0.058930 36.140690
v 1.500007 96.022736 14.738468
v 1.500007 96.987450 14.338867
v 1.500007 97.815880 13.703192
v 1.500007 98.451561 12.874765
v 1.500007 98.851151 11.910042
v 1.500007 98.987457 10.874765
v 1.500007 99.987457 10.874767
v 1.500007 99.817085 12.168861
v 1.500007 99.317581 13.374765
v 1.500007 98.522987 14.410299
v 1.500007 97.487450 15.204891
v 1.500007 96.281548 15.704393
v 1.500007 94.987457 15.874765
v 1.500006 92.158104 15.874765
v 1.500006 92.158104 17.345852
v 1.500007 91.987740 18.639946
v 1.500007 91.488235 19.845850
v 1.500007 90.693642 20.881386
v 1.500007 89.658096 21.675976
v 1.500006 88.452194 22.175478
v 1.500006 87.158112 22.345850
v 1.500007 82.389702 22.345850
v 1.500007 82.219322 23.457634
v 1.500007 81.719818 24.663538
v 1.500006 80.925232 25.699070
v 1.500007 79.889694 26.493664
v 1.500006 78.683792 26.993166
v 1.500007 61.308945 31.140692
v 1.500007 61.138573 32.434784
v 1.500007 60.639072 33.640690
v 1.500007 59.844479 34.676224
v 1.500007 58.808945 35.470814
v 1.500006 57.603039 35.970318
v 1.500006 56.308949 36.140690
v 1.500004 0.058930 36.140690
v 1.500002 6.322831 14.874764
v 1.500007 94.987465 14.874763
v 1.500002 1.109515 35.140686
v 1.500006 88.193382 21.209553
v 1.500007 89.158104 20.809952
v 1.500007 89.986534 20.174278
v 1.500007 90.622208 19.345850
v 1.500007 91.021805 18.381126
v 1.500007 91.158112 17.345850
v 1.500007 91.158104 15.874763
v 1.500003 6.322831 15.874763
v 1.500003 6.322831 21.345848
v 1.500006 87.158112 21.345848
v 1.500006 78.424973 26.027239
v 1.500007 79.389694 25.627640
v 1.500007 80.218124 24.991966
v 1.500006 80.853798 24.163536
v 1.500007 81.253403 23.198814
v 1.500007 81.389702 22.345850
v 1.500003 6.322831 22.345850
v 1.500006 56.308945 35.140686
v 1.500006 57.344223 35.004391
v 1.500006 58.308945 34.604790
v 1.500007 59.137371 33.969116
v 1.500007 59.773048 33.140686
v 1.500007 60.172646 32.175964
v 1.500006 60.308949 31.140690
v 1.500004 6.322830 27.163536
v -0.000006 0.058931 0.000000
v 0.000001 77.389702 27.163540
v 0.000001 94.987457 15.874769
v 0.503651 96.022728 -14.738468
v 0.503651 96.987457 -14.338867
v 0.503651 97.815880 -13.703194
v 0.503651 98.451553 -12.874767
v 0.503652 98.851158 -11.910042
v 0.503652 98.987457 -10.874763
v 0.503647 6.322831 -14.874765
v 0.503651 94.987473 -14.874763
v 0.503650 87.158112 -21.345848
v 0.503650 88.193390 -21.209549
v 0.503651 89.158104 -20.809952
v 0.503651 89.986534 -20.174278
v 0.503651 90.622215 -19.345848
v 0.503651 91.021805 -18.381126
v 0.503651 91.158112 -17.345852
v 0.503651 91.158112 -15.874763
v 0.503647 6.322831 -15.874765
v 0.503647 6.322831 -21.345848
v 0.503649 77.389694 -26.163536
v 0.503650 78.424973 -26.027241
v 0.503650 79.389702 -25.627640
v 0.503650 80.218124 -24.991966
v 0.503650 80.853806 -24.163538
v 0.503650 81.253403 -23.198814
v 0.503650 81.389702 -22.345852
v 0.503647 6.322831 -22.345850
v 0.503646 6.322831 -26.163536
v 0.503649 61.308952 -26.163536
v 0.503648 56.308945 -35.140686
v 0.503648 57.344223 -35.004391
v 0.503649 58.308945 -34.604790
v 0.503649 59.137371 -33.969116
v 0.503649 59.773048 -33.140686
v 0.503649 60.172646 -32.175964
v 0.503649 60.308945 -31.140690
v 0.503649 60.308945 -27.163536
v 0.503647 6.322831 -27.163536
v 0.503646 1.109515 -35.140686
v 0.000001 99.987450 -10.874767
v 0.000000 99.817085 -12.168861
v 0.000001 99.317581 -13.374767
v 0.000000 98.522987 -14.410301
v 0.000000 97.487450 -15.204895
v -0.000000 96.281540 -15.704395
v -0.000000 92.158104 -15.874763
v 0.000000 92.158112 -17.345852
v 0.000000 91.987740 -18.639946
v -0.000000 91.488228 -19.845852
v -0.000000 90.693642 -20.881382
v -0.000001 89.658119 -21.675976
v -0.000001 88.452202 -22.175480
v -0.000001 87.158112 -22.345848
v -0.000001 82.389694 -22.345852
v -0.000001 82.219322 -23.457634
v -0.000001 81.719818 -24.663540
v -0.000001 80.925232 -25.699072
v -0.000001 79.889702 -26.493668
v -0.000002 78.683792 -26.993164
v -0.000002 61.308952 -27.163540
v -0.000002 61.308945 -31.140688
v -0.000002 61.138577 -32.434780
v -0.000002 60.639072 -33.640686
v -0.000002 59.844479 -34.676224
v -0.000002 58.808945 -35.470818
v -0.000002 57.603039 -35.970314
v -0.000003 56.308949 -36.140690
v -0.000005 0.058930 -36.140690
v 1.500005 94.987473 -14.874763
v 1.500006 96.022728 -14.738468
v 1.500006 96.987457 -14.338867
v 1.500006 97.815880 -13.703194
v 1.500006 98.451553 -12.874767
v 1.500006 98.851158 -11.910042
v 1.500006 98.987457 -10.874763
v 1.500006 99.987450 -10.874767
v 1.500006 99.817085 -12.168861
v 1.500006 99.317581 -13.374763
v 1.500006 98.522987 -14.410301
v 1.500006 97.487450 -15.204895
v 1.500006 96.281540 -15.704395
v 1.500005 94.987457 -15.874763
v 1.500005 92.158104 -15.874763
v 1.500004 92.158112 -17.345852
v 1.500005 91.987740 -18.639946
v 1.500005 91.488228 -19.845852
v 1.500006 90.693642 -20.881382
v 1.500005 89.658104 -21.675976
v 1.500004 88.452194 -22.175476
v 1.500004 87.158112 -22.345848
v 1.500005 82.389694 -22.345852
v 1.500005 82.219322 -23.457634
v 1.500004 81.719818 -24.663540
v 1.500004 80.925232 -25.699072
v 1.500004 79.889694 -26.493664
v 1.500004 78.683792 -26.993164
v 1.500004 77.389694 -27.163540
v 1.500004 61.308945 -31.140688
v 1.500004 61.138577 -32.434780
v 1.500004 60.639072 -33.640686
v 1.500004 59.844479 -34.676224
v 1.500004 58.808945 -35.470818
v 1.500003 57.603039 -35.970314
v 1.500003 56.308949 -36.140690
v 1.500000 0.058930 -36.140690
v 1.500001 6.322831 -14.874765
v 1.499999 1.109515 -35.140686
v 1.500004 87.158112 -21.345848
v 1.500004 88.193390 -21.209549
v 1.500005 89.158104 -20.809952
v 1.500005 89.986534 -20.174278
v 1.500005 90.622215 -19.345848
v 1.500005 91.021805 -18.381126
v 1.500006 91.158112 -17.345852
v 1.500005 91.158112 -15.874763
v 1.500002 6.322831 -15.874765
v 1.500001 6.322831 -21.345848
v 1.500004 78.424973 -26.027241
v 1.500004 79.389702 -25.627640
v 1.500004 80.218124 -24.991966
v 1.500004 80.853806 -24.163538
v 1.500005 81.253403 -23.198814
v 1.500005 81.389702 -22.345852
v 1.500001 6.322831 -22.345850
v 1.500000 6.322831 -26.163536
v 1.500003 61.308952 -26.163536
v 1.500003 56.308945 -35.140686
v 1.500003 57.344223 -35.004391
v 1.500003 58.308945 -34.604790
v 1.500004 59.137371 -33.969116
v 1.500004 59.773048 -33.140686
v 1.500004 60.172646 -32.175964
v 1.500004 60.308945 -31.140690
v 1.500001 6.322831 -27.163536
v -0.000002 77.389702 -27.163538
v -0.000000 94.987457 -15.874771
v 0.503649 5.263681 35.140686
v 0.503649 6.322831 35.140686
v 1.500004 5.263680 35.140686
v 1.500003 6.322831 35.140686
v 0.503646 5.263680 -35.140690
v 0.503646 6.322831 -35.140686
v 1.500001 5.263680 -35.140686
v 1.500000 6.322831 -35.140686
v 1.500004 61.308952 -27.163540
v 1.500004 77.389694 -26.163536
v 1.500003 60.308945 -27.163536
v 0.503652 60.308945 27.163536
v 0.000001 61.308952 27.163536
v 1.500006 77.389694 27.163536
v 1.500006 77.389694 26.163536
v 1.500003 6.322831 26.163536
v 1.500006 61.308952 26.163536
v 1.500006 61.308945 27.163536
v 1.500006 60.308945 27.163536
v 0.503650 56.302391 36.040688
v 0.503647 0.158934 36.040688
v 0.503651 99.887459 10.868212
v 0.503651 99.719666 12.142756
v 0.503651 99.230232 13.324335
v 0.503651 98.451675 14.338980
v 0.503651 97.437019 15.117542
v 0.503650 96.255440 15.606970
v 0.503650 94.980896 15.774769
v 0.503651 92.058105 15.774765
v 0.503651 92.058113 17.339298
v 0.503651 91.890312 18.613840
v 0.503650 91.400887 19.795420
v 0.503651 90.622314 20.810062
v 0.503651 89.607681 21.588627
v 0.503651 88.426094 22.078053
v 0.503651 87.151550 22.245850
v 0.503651 82.303856 22.245852
v 0.503651 82.122314 23.430534
v 0.503651 81.632477 24.613106
v 0.503651 80.853912 25.627752
v 0.503651 79.839264 26.406315
v 0.503651 78.657692 26.895741
v 0.503650 77.383141 27.063540
v 0.503649 61.208954 27.063538
v 0.503651 61.208950 31.134136
v 0.503650 61.041145 32.408676
v 0.503651 60.551727 33.590260
v 0.503651 59.773163 34.604904
v 0.503650 58.758514 35.383465
v 0.503650 57.576935 35.872890
v 0.503641 56.302391 -36.040688
v 0.503629 0.158934 -36.040684
v 0.503651 99.887459 -10.868214
v 0.503651 99.719658 -12.142754
v 0.503650 99.230232 -13.324333
v 0.503650 98.451660 -14.338978
v 0.503650 97.437019 -15.117542
v 0.503649 96.255447 -15.606968
v 0.503649 94.980904 -15.774769
v 0.503649 92.058113 -15.774765
v 0.503649 92.058105 -17.339298
v 0.503649 91.890312 -18.613838
v 0.503648 91.400887 -19.795418
v 0.503649 90.622322 -20.810066
v 0.503649 89.607681 -21.588627
v 0.503648 88.426094 -22.078053
v 0.503648 87.151550 -22.245850
v 0.503647 82.303856 -22.245850
v 0.503647 82.122307 -23.430534
v 0.503647 81.632477 -24.613106
v 0.503647 80.853912 -25.627750
v 0.503646 79.839264 -26.406315
v 0.503646 78.657692 -26.895741
v 0.503645 77.383148 -27.063538
v 0.503642 61.208954 -27.063536
v 0.503643 61.208950 -31.134132
v 0.503642 61.041149 -32.408680
v 0.503642 60.551723 -33.590256
v 0.503642 59.773163 -34.604900
v 0.503642 58.758518 -35.383469
v 0.503642 57.576931 -35.872890
vt 0.969889 0.238207
vt 0.961344 0.238207
vt 0.872618 0.491432
vt 0.874830 0.499685
vt 0.880862 0.488017
vt 0.885134 0.495417
vt 0.887940 0.482585
vt 0.893983 0.488627
vt 0.893373 0.475506
vt 0.900773 0.479778
vt 0.896787 0.467262
vt 0.905041 0.469474
vt 0.897952 0.458416
vt 0.906497 0.458416
vt 0.969889 0.262385
vt 0.982584 0.305111
vt 0.974039 0.305111
vt 0.848465 0.905456
vt 0.850676 0.913710
vt 0.856708 0.902041
vt 0.860981 0.909441
vt 0.863787 0.896609
vt 0.869830 0.902651
vt 0.869219 0.889530
vt 0.876620 0.893803
vt 0.872634 0.881287
vt 0.880887 0.883498
vt 0.675978 0.973604
vt 0.684523 0.973604
vt 0.835162 0.833129
vt 0.969889 0.270930
vt 0.004860 0.145842
vt 0.004860 0.136885
vt 0.801283 0.864587
vt 0.803494 0.872840
vt 0.809526 0.861172
vt 0.813799 0.868572
vt 0.816605 0.855740
vt 0.822648 0.861782
vt 0.822037 0.848661
vt 0.829438 0.852934
vt 0.825452 0.840418
vt 0.833706 0.842629
vt 0.826616 0.833129
vt 0.599243 0.136885
vt 0.599243 0.145842
vt 0.915554 0.513874
vt 0.906999 0.513874
vt 0.825394 0.491431
vt 0.827606 0.499685
vt 0.833638 0.488016
vt 0.837910 0.495417
vt 0.840717 0.482585
vt 0.846759 0.488627
vt 0.846148 0.475506
vt 0.853549 0.479778
vt 0.849563 0.467262
vt 0.857817 0.469474
vt 0.850728 0.458416
vt 0.859273 0.458416
vt 0.915924 0.995117
vt 0.004081 0.054994
vt 0.004081 0.046568
vt 0.969889 0.995857
vt 0.961344 0.995857
vt 0.982584 0.995849
vt 0.974039 0.995849
vt 0.598458 0.046568
vt 0.004082 0.287067
vt 0.598458 0.054994
vt 0.907369 0.986129
vt 0.940895 0.169776
vt 0.949818 0.169776
vt 0.958741 0.169776
vt 0.967664 0.169776
vt 0.976587 0.169776
vt 0.985510 0.169776
vt 0.940896 0.182471
vt 0.788510 0.499427
vt 0.909341 0.018298
vt 0.898188 0.018298
vt 0.887034 0.018298
vt 0.875881 0.018298
vt 0.864727 0.018298
vt 0.853574 0.018298
vt 0.842421 0.018298
vt 0.818244 0.018298
vt 0.805673 0.018298
vt 0.794520 0.018298
vt 0.783366 0.018298
vt 0.772213 0.018298
vt 0.761059 0.018298
vt 0.749906 0.018298
vt 0.738752 0.018298
vt 0.698006 0.018298
vt 0.688395 0.018298
vt 0.677242 0.018298
vt 0.666088 0.018298
vt 0.654935 0.018298
vt 0.643781 0.018298
vt 0.004079 0.067690
vt 0.866878 0.954889
vt 0.972987 0.015389
vt 0.972987 0.026542
vt 0.972987 0.037695
vt 0.972987 0.048849
vt 0.972987 0.060002
vt 0.972987 0.071156
vt 0.484713 0.179014
vt 0.004702 0.159035
vt 0.013247 0.150058
vt 0.909319 0.065234
vt 0.004079 0.059263
vt 0.598460 0.059263
vt 0.003991 0.097306
vt 0.328720 0.331817
vt 0.337643 0.331817
vt 0.346566 0.331817
vt 0.355489 0.331817
vt 0.364412 0.331817
vt 0.373335 0.331817
vt 0.931787 0.271143
vt 0.694740 0.097306
vt 0.004899 0.249801
vt 0.942399 0.207862
vt 0.951322 0.207862
vt 0.960245 0.207862
vt 0.969167 0.207862
vt 0.978090 0.207862
vt 0.645433 0.093124
vt 0.474764 0.249801
vt 0.474764 0.258315
vt 0.598460 0.067690
vt 0.940896 0.195167
vt 0.949818 0.195167
vt 0.958741 0.195167
vt 0.967664 0.195167
vt 0.976587 0.195167
vt 0.849833 0.954889
vt 0.006317 0.340823
vt 0.471451 0.306657
vt 0.935953 0.238214
vt 0.765388 0.458158
vt 0.763176 0.466412
vt 0.944498 0.238214
vt 0.775692 0.462427
vt 0.771420 0.469826
vt 0.784541 0.469217
vt 0.778499 0.475259
vt 0.791331 0.478065
vt 0.783931 0.482337
vt 0.795599 0.488369
vt 0.787345 0.490581
vt 0.797055 0.499427
vt 0.935953 0.262390
vt 0.948649 0.305102
vt 0.844538 0.522844
vt 0.842326 0.531098
vt 0.957193 0.305102
vt 0.854842 0.527112
vt 0.850570 0.534512
vt 0.863691 0.533902
vt 0.857649 0.539944
vt 0.870481 0.542751
vt 0.863080 0.547023
vt 0.874749 0.553055
vt 0.866495 0.555267
vt 0.697218 0.961033
vt 0.688673 0.961033
vt 0.836435 0.874925
vt 0.935953 0.270935
vt 0.006317 0.349337
vt 0.876147 0.843258
vt 0.867893 0.841046
vt 0.005657 0.322537
vt 0.871879 0.853562
vt 0.864479 0.849290
vt 0.865089 0.862411
vt 0.859047 0.856369
vt 0.856240 0.869201
vt 0.851968 0.861801
vt 0.845936 0.873469
vt 0.843724 0.865215
vt 0.836435 0.866380
vt 0.474032 0.300967
vt 0.005657 0.331051
vt 0.893826 0.514944
vt 0.823018 0.891103
vt 0.814764 0.888891
vt 0.902361 0.514944
vt 0.818749 0.901407
vt 0.811349 0.897135
vt 0.811960 0.910256
vt 0.805917 0.904214
vt 0.803111 0.917046
vt 0.798838 0.909646
vt 0.792806 0.921314
vt 0.790595 0.913061
vt 0.781748 0.922770
vt 0.781748 0.914225
vt 0.894195 0.995023
vt 0.944498 0.995851
vt 0.935953 0.995851
vt 0.957193 0.995857
vt 0.948649 0.995857
vt 0.004165 0.300967
vt 0.004165 0.292422
vt 0.902730 0.986057
vt 0.761634 0.122696
vt 0.976587 0.182471
vt 0.967664 0.182471
vt 0.958741 0.182471
vt 0.949819 0.182471
vt 0.940896 0.190985
vt 0.955897 0.106361
vt 0.955897 0.095207
vt 0.955897 0.084053
vt 0.955897 0.072901
vt 0.955897 0.061747
vt 0.955897 0.050593
vt 0.955897 0.039440
vt 0.723586 0.035387
vt 0.736156 0.035387
vt 0.747310 0.035387
vt 0.758464 0.035387
vt 0.769617 0.035387
vt 0.780771 0.035387
vt 0.791924 0.035387
vt 0.803078 0.035387
vt 0.843824 0.035387
vt 0.853435 0.035388
vt 0.864589 0.035388
vt 0.875743 0.035388
vt 0.886896 0.035388
vt 0.898050 0.035388
vt 0.837092 0.988874
vt 0.990077 0.082309
vt 0.990077 0.071156
vt 0.990077 0.060003
vt 0.990077 0.048849
vt 0.990077 0.037696
vt 0.990077 0.026542
vt 0.990077 0.015388
vt 0.977259 0.015388
vt 0.761634 0.131210
vt 0.003991 0.080429
vt 0.399033 0.340331
vt 0.407956 0.340331
vt 0.416879 0.340331
vt 0.425801 0.340331
vt 0.434724 0.340331
vt 0.443647 0.340331
vt 0.728919 0.110001
vt 0.003991 0.071915
vt 0.003979 0.212334
vt 0.272544 0.340331
vt 0.281467 0.340331
vt 0.290390 0.340331
vt 0.299313 0.340331
vt 0.308236 0.340331
vt 0.645434 0.033829
vt 0.003979 0.203820
vt 0.473843 0.203820
vt 0.176803 0.340331
vt 0.185726 0.340331
vt 0.194648 0.340331
vt 0.203571 0.340331
vt 0.212494 0.340331
vt 0.225507 0.340331
vt 0.486050 0.338513
vt 0.486777 0.344043
vt 0.488912 0.349195
vt 0.492307 0.353619
vt 0.496731 0.357014
vt 0.501883 0.359149
vt 0.507412 0.359876
vt 0.519501 0.359876
vt 0.519501 0.366161
vt 0.520229 0.371691
vt 0.522363 0.376843
vt 0.525757 0.381267
vt 0.530182 0.384662
vt 0.535334 0.386796
vt 0.540863 0.387524
vt 0.561236 0.387524
vt 0.561965 0.392274
vt 0.564099 0.397427
vt 0.567493 0.401850
vt 0.571918 0.405245
vt 0.577070 0.407379
vt 0.582599 0.408108
vt 0.651305 0.408108
vt 0.651305 0.425100
vt 0.652032 0.430629
vt 0.654167 0.435782
vt 0.657562 0.440206
vt 0.661986 0.443601
vt 0.667139 0.445735
vt 0.672667 0.446463
vt 0.912997 0.446463
vt 0.912997 0.292051
vt 0.486050 0.245588
vt 0.486777 0.240059
vt 0.488912 0.234907
vt 0.492307 0.230483
vt 0.496731 0.227088
vt 0.501883 0.224954
vt 0.507412 0.224226
vt 0.519501 0.224226
vt 0.519501 0.217940
vt 0.520229 0.212411
vt 0.522363 0.207259
vt 0.525758 0.202835
vt 0.530182 0.199440
vt 0.535334 0.197306
vt 0.540863 0.196578
vt 0.561236 0.196577
vt 0.561965 0.191828
vt 0.564099 0.186675
vt 0.567493 0.182251
vt 0.571918 0.178856
vt 0.577070 0.176722
vt 0.582599 0.175994
vt 0.651305 0.175994
vt 0.651305 0.159001
vt 0.652032 0.153472
vt 0.654167 0.148320
vt 0.657561 0.143895
vt 0.661986 0.140501
vt 0.667138 0.138367
vt 0.672667 0.137639
vt 0.912997 0.137639
vt 0.909319 0.056688
vt 0.986750 0.238421
vt 0.898188 0.005480
vt 0.909341 0.005480
vt 0.887034 0.005480
vt 0.909320 0.069399
vt 0.694740 0.105819
vt 0.931973 0.195167
vt 0.263621 0.340331
vt 0.940896 0.203680
vt 0.931973 0.203680
vt 0.933476 0.207862
vt 0.723470 0.065234
vt 0.385905 0.331817
vt 0.723470 0.056688
vt 0.931787 0.996073
vt 0.004899 0.258315
vt 0.385905 0.340331
vt 0.373335 0.340331
vt 0.319798 0.331817
vt 0.985471 0.207862
vt 0.003981 0.093124
vt 0.143730 0.340823
vt 0.471451 0.315083
vt 0.263621 0.331817
vt 0.272544 0.331817
vt 0.931973 0.182471
vt 0.931973 0.190985
vt 0.985510 0.195167
vt 0.849833 0.988874
vt 0.613805 0.150058
vt 0.003960 0.273205
vt 0.003991 0.105819
vt 0.143730 0.349337
vt 0.622350 0.159035
vt 0.909320 0.077913
vt 0.003921 0.029648
vt 0.943080 0.039440
vt 0.943080 0.050593
vt 0.976587 0.190985
vt 0.985510 0.190985
vt 0.943080 0.061747
vt 0.967664 0.190985
vt 0.943080 0.072901
vt 0.958741 0.190985
vt 0.943080 0.084053
vt 0.949819 0.190985
vt 0.943080 0.095207
vt 0.875881 0.005480
vt 0.943080 0.106361
vt 0.723586 0.022570
vt 0.803078 0.022570
vt 0.791924 0.022570
vt 0.399033 0.331817
vt 0.694739 0.071915
vt 0.780771 0.022570
vt 0.407956 0.331817
vt 0.769617 0.022570
vt 0.416879 0.331817
vt 0.758464 0.022570
vt 0.425801 0.331817
vt 0.747310 0.022570
vt 0.434724 0.331817
vt 0.736157 0.022570
vt 0.443647 0.331817
vt 0.843824 0.022570
vt 0.728919 0.118515
vt 0.898050 0.022570
vt 0.281467 0.331817
vt 0.473843 0.212334
vt 0.886896 0.022570
vt 0.167880 0.340331
vt 0.875743 0.022570
vt 0.290390 0.331817
vt 0.864589 0.022570
vt 0.299313 0.331817
vt 0.853435 0.022570
vt 0.308236 0.331817
vt 0.645434 0.042343
vt 0.824275 0.988874
vt 0.485208 0.185130
vt 0.977259 0.026542
vt 0.176803 0.331817
vt 0.470959 0.235135
vt 0.977259 0.037696
vt 0.185726 0.331817
vt 0.977259 0.048849
vt 0.194648 0.331817
vt 0.977259 0.060003
vt 0.203571 0.331817
vt 0.977259 0.071156
vt 0.212494 0.331817
vt 0.977259 0.082309
vt 0.225507 0.331817
vt 0.470959 0.243561
vt 0.485208 0.197948
vt 0.985510 0.182471
vt 0.694739 0.080429
vt 0.864727 0.005480
vt 0.940895 0.178289
vt 0.995264 0.238421
vt 0.949818 0.178289
vt 0.958741 0.178289
vt 0.853574 0.005480
vt 0.967664 0.178289
vt 0.976587 0.178289
vt 0.842421 0.005480
vt 0.985510 0.178290
vt 0.818244 0.005480
vt 0.805673 0.005480
vt 0.794520 0.005480
vt 0.783366 0.005480
vt 0.772213 0.005480
vt 0.761059 0.005480
vt 0.749906 0.005480
vt 0.738752 0.005480
vt 0.698006 0.005480
vt 0.688395 0.005480
vt 0.677242 0.005480
vt 0.544110 0.981607
vt 0.666088 0.005480
vt 0.578094 0.990152
vt 0.654935 0.005480
vt 0.578094 0.981607
vt 0.643781 0.005480
vt 0.544110 0.990152
vt 0.871089 0.954889
vt 0.854060 0.954889
vt 0.871089 0.988874
vt 0.960170 0.015389
vt 0.879634 0.988874
vt 0.960170 0.026542
vt 0.879634 0.954889
vt 0.960169 0.037695
vt 0.697218 0.973604
vt 0.960169 0.048849
vt 0.948649 0.345848
vt 0.960169 0.060002
vt 0.688673 0.973604
vt 0.960169 0.071156
vt 0.948649 0.354394
vt 0.484713 0.166196
vt 0.684523 0.961033
vt 0.982584 0.345857
vt 0.675978 0.961033
vt 0.982584 0.354402
vt 0.003921 0.021134
vt 0.328720 0.340331
vt 0.949818 0.203680
vt 0.942399 0.216376
vt 0.319798 0.340331
vt 0.933476 0.216376
vt 0.167880 0.331817
vt 0.958741 0.203680
vt 0.951322 0.216376
vt 0.960245 0.216376
vt 0.967664 0.203680
vt 0.364412 0.340331
vt 0.337643 0.340331
vt 0.923273 0.996073
vt 0.923274 0.271143
vt 0.969167 0.216376
vt 0.978090 0.216376
vt 0.346566 0.340331
vt 0.985471 0.216376
vt 0.355489 0.340331
vt 0.003981 0.084610
vt 0.645433 0.084610
vt 0.976587 0.203680
vt 0.985510 0.203680
vt 0.315616 0.331817
vt 0.315616 0.340331
vt 0.221417 0.331817
vt 0.221417 0.340331
vt 0.841319 0.988874
vt 0.841319 0.954889
vt 0.003960 0.264691
vt 0.863772 0.501141
vt 0.863772 0.492596
vt 0.839618 0.915166
vt 0.839618 0.906620
vt 0.873799 0.872440
vt 0.882343 0.872440
vt 0.792437 0.874296
vt 0.792437 0.865751
vt 0.754330 0.456702
vt 0.754330 0.465247
vt 0.833479 0.521388
vt 0.833479 0.529933
vt 0.876205 0.564114
vt 0.867660 0.564114
vt 0.943080 0.015263
vt 0.955897 0.015263
vt 0.877603 0.832200
vt 0.869058 0.832200
vt 0.816547 0.501141
vt 0.816547 0.492596
vt 0.824473 0.880045
vt 0.815928 0.880045
vt 0.004057 0.179014
vt 0.004057 0.166196
vt 0.723470 0.069399
vt 0.723470 0.077913
vt 0.604478 0.021134
vt 0.604478 0.029648
vt 0.632628 0.018298
vt 0.632628 0.005480
vt 0.986750 0.996080
vt 0.995264 0.996080
vt 0.003991 0.131210
vt 0.003991 0.122696
vt 0.004548 0.197948
vt 0.004548 0.185130
vt 0.972987 0.082309
vt 0.960169 0.082309
vt 0.723469 0.052477
vt 0.723469 0.039660
vt 0.909203 0.035388
vt 0.909203 0.022570
vt 0.837092 0.954889
vt 0.824275 0.954889
vt 0.866878 0.988874
vt 0.854060 0.988874
vt 0.909320 0.052477
vt 0.909320 0.039660
vt 0.931972 0.169776
vt 0.931972 0.178289
vt 0.771858 0.103319
vt 0.390110 0.340331
vt 0.390110 0.331817
vt 0.456217 0.331817
vt 0.456218 0.340331
vt 0.003991 0.118515
vt 0.003991 0.110001
vt 0.003980 0.042343
vt 0.003980 0.033829
vt 0.259492 0.331817
vt 0.259492 0.340331
vt 0.003961 0.228449
vt 0.003961 0.219935
vt 0.621568 0.016907
vt 0.312744 0.016907
vt 0.621568 0.004089
vt 0.003920 0.004089
vt 0.003920 0.016907
vt 0.004625 0.315083
vt 0.004625 0.306657
vt 0.004138 0.243562
vt 0.004138 0.235136
vt 0.143069 0.331051
vt 0.465277 0.219935
vt 0.909270 0.120348
vt 0.771859 0.107531
vt 0.909271 0.094775
vt 0.474032 0.292422
vt 0.771858 0.094775
vt 0.909270 0.107531
vt 0.909271 0.103319
vt 0.143069 0.322537
vt 0.465277 0.228449
vt 0.465487 0.292422
vt 0.771859 0.120348
vt 0.465279 0.273205
vt 0.938807 0.152710
vt 0.925990 0.015300
vt 0.909271 0.090624
vt 0.771858 0.090624
vt 0.925990 0.152710
vt 0.909271 0.082079
vt 0.004082 0.278522
vt 0.771858 0.082079
vt 0.473945 0.278522
vt 0.465279 0.264691
vt 0.465400 0.287067
vt 0.938807 0.015300
vt 0.473945 0.287067
vt 0.665303 0.918544
vt 0.707351 0.877376
vt 0.705800 0.887499
vt 0.676195 0.917110
vt 0.769763 0.871760
vt 0.789268 0.846340
vt 0.785086 0.856437
vt 0.778433 0.865107
vt 0.759666 0.875942
vt 0.790702 0.835449
vt 0.748775 0.877376
vt 0.790702 0.822080
vt 0.701614 0.897604
vt 0.686291 0.912928
vt 0.694962 0.906275
vt 0.826569 0.820646
vt 0.856170 0.791045
vt 0.851988 0.801141
vt 0.836665 0.816464
vt 0.815677 0.822080
vt 0.857604 0.780154
vt 0.845335 0.809812
vt 0.496059 0.993820
vt 0.525661 0.964218
vt 0.521479 0.974315
vt 0.506155 0.989637
vt 0.485168 0.995254
vt 0.527094 0.953327
vt 0.514826 0.982985
vt 0.665303 0.456025
vt 0.676195 0.457459
vt 0.705800 0.487069
vt 0.707351 0.497193
vt 0.769763 0.502808
vt 0.778433 0.509461
vt 0.785086 0.518131
vt 0.789268 0.528228
vt 0.759666 0.498627
vt 0.790702 0.539119
vt 0.748775 0.497193
vt 0.790702 0.552488
vt 0.686291 0.461641
vt 0.701614 0.476964
vt 0.694962 0.468294
vt 0.826569 0.553922
vt 0.836665 0.558104
vt 0.851988 0.573427
vt 0.856170 0.583524
vt 0.815677 0.552488
vt 0.857604 0.594415
vt 0.845335 0.564757
vt 0.496059 0.380749
vt 0.506155 0.384931
vt 0.521479 0.400254
vt 0.525661 0.410351
vt 0.485168 0.379315
vt 0.527094 0.421242
vt 0.514826 0.391584
vt 0.527094 0.918543
vt 0.527094 0.456025
vt 0.005419 0.995254
vt 0.005419 0.379315
vn 1.000000 -0.000000 -0.000000
vn 1.000000 -0.000000 0.000000
vn 1.000000 -0.000000 0.000000
vn 1.000000 -0.000000 0.000000
vn 1.000000 -0.000000 0.000000
vn 1.000000 -0.000000 0.000000
vn 1.000000 -0.000000 0.000000
vn 1.000000 -0.000000 0.000000
vn 1.000000 -0.000000 0.000000
vn 1.000000 -0.000000 0.000000
vn 1.000000 -0.000000 0.000000
vn 1.000000 -0.000000 0.000000
vn 1.000000 -0.000000 0.000000
vn 1.000000 -0.000000 0.000000
vn 1.000000 -0.000000 -0.000000
vn 1.000000 -0.000000 -0.000000
vn 1.000000 -0.000000 -0.000000
vn 1.000000 -0.000000 -0.000000
vn 1.000000 -0.000000 -0.000000
vn 1.000000 0.000001 0.000001
vn 1.000000 -0.000000 0.000000
vn 1.000000 0.000000 0.000000
vn 1.000000 0.000000 0.000000
vn 1.000000 -0.000000 0.000001
vn 1.000000 -0.000000 0.000001
vn 1.000000 -0.000000 0.000001
vn 1.000000 -0.000000 0.000000
vn 1.000000 -0.000000 0.000000
vn 1.000000 -0.000000 0.000000
vn 1.000000 -0.000000 -0.000001
vn 1.000000 -0.000000 -0.000001
vn 1.000000 -0.000000 -0.000001
vn 1.000000 -0.000000 -0.000000
vn 1.000000 -0.000000 -0.000000
vn 1.000000 0.000000 0.000000
vn 1.000000 0.000000 -0.000000
vn 1.000000 0.000000 -0.000000
vn 1.000000 0.000000 0.000000
vn 1.000000 0.000001 -0.000000
vn 1.000000 0.000000 0.000000
vn 1.000000 0.000000 -0.000000
vn 1.000000 0.000000 0.000000
vn 1.000000 0.000001 -0.000000
vn 1.000000 0.000000 -0.000000
vn 1.000000 0.000001 0.000001
vn 1.000000 0.000001 0.000001
vn 1.000000 0.000000 -0.000000
vn 1.000000 -0.000000 0.000000
vn 1.000000 -0.000000 -0.000000
vn 1.000000 -0.000000 -0.000000
vn 1.000000 -0.000000 0.000000
vn 1.000000 -0.000000 0.000000
vn 1.000000 -0.000000 0.000000
vn 1.000000 0.000000 -0.000000
vn 1.000000 0.000000 -0.000000
vn 1.000000 0.000000 0.000000
vn 1.000000 0.000000 0.000001
vn 1.000000 0.000000 0.000001
vn 1.000000 0.000000 0.000000
vn 1.000000 -0.000000 -0.000000
vn 1.000000 -0.000000 -0.000000
vn 1.000000 -0.000000 -0.000001
vn 1.000000 -0.000000 0.000000
vn 1.000000 -0.000000 0.000000
vn 1.000000 -0.000000 -0.000000
vn 1.000000 0.000000 -0.000000
vn 1.000000 -0.000000 -0.000000
vn 1.000000 -0.000000 -0.000000
vn 1.000000 -0.000000 -0.000000
vn 1.000000 0.000000 -0.000000
vn 1.000000 -0.000000 -0.000000
vn 1.000000 0.000000 0.000000
vn 1.000000 -0.000000 -0.000000
vn 1.000000 -0.000000 0.000000
vn 1.000000 -0.000000 0.000000
vn 1.000000 -0.000000 0.000000
vn 1.000000 -0.000000 -0.000000
vn 1.000000 -0.000000 -0.000001
vn 1.000000 -0.000000 -0.000001
vn 1.000000 -0.000000 -0.000001
vn 1.000000 -0.000000 0.000000
vn 1.000000 -0.000000 0.000000
vn 1.000000 -0.000000 0.000000
vn 1.000000 -0.000000 -0.000000
vn 1.000000 -0.000000 -0.000000
vn 1.000000 -0.000000 -0.000000
vn 1.000000 -0.000000 -0.000000
vn 1.000000 -0.000000 -0.000000
vn 1.000000 -0.000000 -0.000000
vn 1.000000 -0.000000 -0.000000
vn 1.000000 -0.000000 0.000000
vn 1.000000 0.000001 -0.000001
vn 1.000000 0.000001 -0.000001
vn 1.000000 -0.000000 -0.000000
vn 1.000000 -0.000000 -0.000000
vn 1.000000 -0.000000 -0.000000
vn 1.000000 -0.000000 -0.000000
vn 1.000000 -0.000000 -0.000000
vn 1.000000 -0.000000 -0.000000
vn 1.000000 -0.000000 0.000000
vn 1.000000 -0.000000 -0.000001
vn 1.000000 -0.000000 -0.000001
vn 1.000000 0.000000 0.000000
vn 1.000000 -0.000000 -0.000001
vn 1.000000 -0.000000 -0.000001
vn 1.000000 -0.000000 -0.000000
vn 1.000000 -0.000000 -0.000000
vn 1.000000 -0.000000 -0.000001
vn 0.000000 -0.065404 -0.997859
vn 0.000000 -0.258820 -0.965926
vn -0.000000 -0.065403 -0.997859
vn 0.000000 -0.258820 -0.965926
vn 0.000000 -0.500000 -0.866025
vn 0.000000 -0.258820 -0.965926
vn 0.000000 -0.500001 -0.866025
vn 0.000000 -0.707106 -0.707108
vn 0.000000 -0.500000 -0.866025
vn 0.000000 -0.707106 -0.707108
vn 0.000000 -0.866026 -0.500000
vn 0.000000 -0.707106 -0.707108
vn 0.000000 -0.866026 -0.500000
vn 0.000000 -0.965926 -0.258819
vn 0.000000 -0.866026 -0.500000
vn 0.000000 -0.965926 -0.258819
vn 0.000000 -0.997859 -0.065405
vn 0.000000 -0.965926 -0.258819
vn 0.000000 -0.997859 -0.065405
vn 0.000000 -0.997859 0.065405
vn 0.000000 -0.997859 -0.065405
vn 0.000000 0.997859 0.065402
vn 0.000000 0.965926 0.258819
vn 0.000000 0.997859 0.065402
vn 0.000000 0.965926 0.258819
vn 0.000000 0.866025 0.500001
vn 0.000000 0.965926 0.258819
vn 0.000000 0.866025 0.500001
vn 0.000000 0.707106 0.707108
vn 0.000000 0.866025 0.500001
vn 0.000000 0.707106 0.707108
vn 0.000000 0.499999 0.866026
vn 0.000000 0.707106 0.707108
vn 0.000000 0.499999 0.866026
vn 0.000000 0.258819 0.965926
vn 0.000000 0.499999 0.866026
vn 0.000001 0.258820 0.965926
vn 0.000002 0.065404 0.997859
vn 0.000000 0.258819 0.965926
vn 0.000002 0.065405 0.997859
vn 0.000001 -0.000001 1.000000
vn 0.000002 0.065404 0.997859
vn 0.000000 1.000000 0.000000
vn 0.000000 0.997859 0.065402
vn 0.000000 1.000000 0.000000
vn 0.000000 0.997859 0.065402
vn 0.000000 0.965926 0.258819
vn 0.000000 0.997859 0.065402
vn 0.000000 0.965926 0.258819
vn 0.000000 0.866025 0.500000
vn 0.000000 0.965926 0.258819
vn 0.000000 0.866025 0.500001
vn 0.000000 0.707106 0.707108
vn 0.000000 0.866025 0.500000
vn 0.000001 0.707107 0.707107
vn 0.000003 0.499999 0.866026
vn 0.000000 0.707106 0.707108
vn 0.000004 0.500000 0.866025
vn 0.000001 0.258819 0.965926
vn 0.000003 0.499999 0.866026
vn 0.000000 0.258818 0.965926
vn 0.000000 0.065404 0.997859
vn 0.000001 0.258819 0.965926
vn 0.000000 0.065404 0.997859
vn 0.000000 -0.000000 1.000000
vn 0.000000 0.065404 0.997859
vn 0.000000 0.988461 0.151478
vn 0.000000 0.963133 0.269027
vn 0.000000 0.988461 0.151478
vn 0.000000 0.963133 0.269027
vn 0.000000 0.866026 0.500000
vn 0.000000 0.963133 0.269027
vn 0.000000 0.866026 0.500000
vn 0.000000 0.707108 0.707106
vn 0.000000 0.866026 0.500000
vn 0.000000 0.707108 0.707106
vn 0.000000 0.500000 0.866025
vn 0.000000 0.707108 0.707106
vn 0.000000 0.500001 0.866025
vn 0.000001 0.258819 0.965926
vn 0.000000 0.500000 0.866025
vn 0.000002 0.258820 0.965926
vn 0.000003 0.065403 0.997859
vn 0.000001 0.258819 0.965926
vn 0.000003 0.065404 0.997859
vn 0.000000 -0.000000 1.000000
vn 0.000003 0.065403 0.997859
vn 0.000002 1.000000 0.000000
vn 0.000000 0.997859 0.065404
vn 0.000003 1.000000 -0.000000
vn -0.000000 0.997859 0.065405
vn -0.000000 0.965925 0.258821
vn 0.000000 0.997859 0.065404
vn -0.000000 0.965925 0.258820
vn -0.000001 0.866025 0.500000
vn -0.000000 0.965925 0.258821
vn -0.000001 0.866025 0.500000
vn -0.000000 0.707107 0.707107
vn -0.000001 0.866025 0.500000
vn -0.000000 0.707107 0.707107
vn -0.000001 0.499999 0.866026
vn -0.000000 0.707107 0.707107
vn -0.000001 0.499999 0.866026
vn -0.000000 0.258820 0.965926
vn -0.000001 0.499999 0.866026
vn 0.000000 0.258820 0.965926
vn 0.000000 0.065404 0.997859
vn -0.000000 0.258820 0.965926
vn 0.000000 0.065404 0.997859
vn 0.000000 -0.000000 1.000000
vn 0.000000 0.065404 0.997859
vn 0.000000 -1.000000 -0.000000
vn 0.000000 -1.000000 -0.000000
vn 0.000000 -1.000000 -0.000000
vn -0.000001 -0.000000 -1.000000
vn -0.000000 -0.065403 -0.997859
vn -0.000001 0.000000 -1.000000
vn 0.000000 0.707107 -0.707106
vn 0.000000 -0.065402 -0.997859
vn 0.000000 0.707109 -0.707105
vn 0.000000 -0.065402 -0.997859
vn 0.000000 -0.258820 -0.965926
vn 0.000000 -0.065402 -0.997859
vn 0.000000 -0.258820 -0.965926
vn 0.000000 -0.500001 -0.866025
vn 0.000000 -0.258820 -0.965926
vn 0.000000 -0.500001 -0.866025
vn 0.000000 -0.707105 -0.707108
vn 0.000000 -0.500001 -0.866025
vn 0.000000 -0.707105 -0.707108
vn 0.000000 -0.866026 -0.500000
vn 0.000000 -0.707105 -0.707108
vn 0.000000 -0.866026 -0.500000
vn 0.000000 -0.965926 -0.258819
vn 0.000000 -0.866026 -0.500000
vn 0.000000 -0.965926 -0.258819
vn 0.000000 -0.997859 -0.065405
vn 0.000000 -0.965926 -0.258819
vn 0.000000 -0.997859 -0.065405
vn 0.000000 -1.000000 -0.000000
vn 0.000000 -0.997859 -0.065405
vn 0.000001 -0.000000 1.000000
vn 0.000001 -0.000000 1.000000
vn 0.000001 -0.000000 1.000000
vn 0.000000 0.000000 -1.000000
vn 0.000000 -0.065402 -0.997859
vn 0.000000 0.000000 -1.000000
vn 0.000000 -0.065403 -0.997859
vn 0.000000 -0.258818 -0.965926
vn 0.000000 -0.065403 -0.997859
vn 0.000000 -0.258818 -0.965926
vn 0.000000 -0.499998 -0.866027
vn 0.000000 -0.258818 -0.965926
vn 0.000000 -0.499998 -0.866027
vn 0.000000 -0.707107 -0.707107
vn 0.000000 -0.499998 -0.866027
vn 0.000000 -0.707107 -0.707107
vn 0.000000 -0.866026 -0.500000
vn 0.000000 -0.707107 -0.707107
vn 0.000000 -0.866026 -0.500000
vn 0.000000 -0.962268 -0.272103
vn 0.000000 -0.866026 -0.500000
vn 0.000000 -0.962268 -0.272103
vn 0.000000 -0.987472 -0.157794
vn 0.000000 -0.962268 -0.272103
vn 0.000000 -0.000000 1.000000
vn 0.000000 -0.000000 1.000000
vn 0.000000 -0.000000 1.000000
vn 0.000000 0.000000 -1.000000
vn 0.000000 0.000000 -1.000000
vn 0.000000 0.000000 -1.000000
vn 0.000000 0.000000 -1.000000
vn 0.000000 -0.065403 -0.997859
vn 0.000000 0.000000 -1.000000
vn 0.000000 -0.065402 -0.997859
vn 0.000000 -0.258819 -0.965926
vn 0.000000 -0.065402 -0.997859
vn 0.000000 -0.258819 -0.965926
vn 0.000000 -0.500001 -0.866025
vn 0.000000 -0.258819 -0.965926
vn 0.000000 -0.500001 -0.866025
vn 0.000000 -0.707107 -0.707107
vn 0.000000 -0.500001 -0.866025
vn 0.000000 -0.707107 -0.707107
vn 0.000000 -0.866026 -0.500000
vn 0.000000 -0.707107 -0.707107
vn 0.000000 -0.866026 -0.500000
vn 0.000000 -0.965926 -0.258819
vn 0.000000 -0.866026 -0.500000
vn 0.000000 -0.965926 -0.258819
vn 0.000000 -0.997859 -0.065405
vn 0.000000 -0.965926 -0.258819
vn 0.000000 -0.997859 -0.065405
vn 0.000000 -1.000000 -0.000000
vn 0.000000 -0.997859 -0.065405
vn 0.000000 -0.000000 1.000000
vn 0.000000 -0.000000 1.000000
vn 0.000000 -0.000000 1.000000
vn -1.000000 0.000000 0.000000
vn -1.000000 0.000000 0.000000
vn -1.000000 0.000000 0.000000
vn -1.000000 0.000000 0.000000
vn -1.000000 0.000000 0.000000
vn -1.000000 0.000000 -0.000000
vn -1.000000 0.000000 0.000000
vn -1.000000 0.000000 0.000000
vn -1.000000 0.000000 0.000000
vn -1.000000 0.000000 0.000000
vn -1.000000 0.000000 0.000000
vn -1.000000 0.000000 0.000000
vn -1.000000 0.000000 -0.000000
vn -1.000000 0.000001 0.000000
vn -1.000000 0.000000 0.000000
vn -1.000000 0.000000 -0.000000
vn -1.000000 0.000000 -0.000000
vn -1.000000 0.000000 0.000000
vn -1.000000 0.000000 -0.000000
vn -1.000000 0.000000 0.000000
vn -1.000000 0.000000 0.000000
vn -1.000000 0.000000 0.000000
vn -1.000000 0.000001 0.000000
vn -1.000000 0.000001 0.000000
vn -1.000000 0.000000 0.000000
vn -1.000000 0.000001 0.000000
vn -1.000000 -0.000000 -0.000000
vn -1.000000 -0.000000 -0.000000
vn -1.000000 0.000000 0.000000
vn -1.000000 0.000000 0.000000
vn -1.000000 -0.000000 0.000000
vn -1.000000 -0.000000 -0.000000
vn -1.000000 0.000000 0.000000
vn -1.000000 0.000000 0.000000
vn -1.000000 0.000000 0.000000
vn -1.000000 0.000000 -0.000000
vn -1.000000 0.000000 0.000000
vn -1.000000 0.000000 0.000000
vn -1.000000 0.000000 0.000000
vn -1.000000 0.000000 0.000000
vn -1.000000 -0.000000 -0.000000
vn -1.000000 0.000000 -0.000000
vn -1.000000 0.000000 0.000000
vn -1.000000 0.000000 0.000000
vn -1.000000 0.000000 0.000000
vn -1.000000 0.000000 -0.000000
vn -1.000000 -0.000000 -0.000000
vn -1.000000 0.000000 -0.000000
vn 1.000000 -0.000000 -0.000000
vn 1.000000 -0.000000 -0.000000
vn 1.000000 -0.000000 -0.000000
vn 1.000000 -0.000000 -0.000000
vn 1.000000 -0.000000 -0.000000
vn 1.000000 -0.000000 -0.000000
vn 1.000000 -0.000000 -0.000000
vn 1.000000 -0.000000 -0.000000
vn 1.000000 -0.000000 -0.000000
vn 1.000000 -0.000000 -0.000000
vn 1.000000 -0.000000 -0.000000
vn 1.000000 -0.000000 -0.000000
vn 1.000000 -0.000000 0.000000
vn 1.000000 -0.000000 0.000000
vn 1.000000 -0.000000 -0.000000
vn 1.000000 -0.000000 -0.000000
vn 1.000000 -0.000000 -0.000000
vn 1.000000 -0.000000 0.000000
vn 1.000000 -0.000000 -0.000000
vn 1.000000 -0.000000 -0.000000
vn 1.000000 -0.000000 -0.000000
vn 1.000000 -0.000000 0.000000
vn 1.000000 -0.000000 -0.000000
vn 1.000000 0.000001 -0.000001
vn 1.000000 -0.000000 -0.000001
vn 1.000000 -0.000000 -0.000001
vn 1.000000 0.000000 -0.000000
vn 1.000000 -0.000000 -0.000000
vn 1.000000 -0.000000 -0.000000
vn 1.000000 -0.000000 -0.000001
vn 1.000000 -0.000000 0.000001
vn 1.000000 -0.000000 0.000001
vn 1.000000 -0.000000 -0.000000
vn 1.000000 -0.000000 0.000000
vn 1.000000 0.000000 -0.000000
vn 1.000000 -0.000000 0.000001
vn 1.000000 0.000000 0.000000
vn 1.000000 0.000000 -0.000000
vn 1.000000 0.000000 -0.000000
vn 1.000000 0.000001 -0.000000
vn 1.000000 0.000001 -0.000000
vn 1.000000 0.000000 -0.000000
vn 1.000000 0.000000 -0.000000
vn 1.000000 0.000000 0.000000
vn 1.000000 0.000000 0.000000
vn 1.000000 0.000001 -0.000000
vn 1.000000 0.000000 -0.000000
vn 1.000000 0.000001 -0.000000
vn 1.000000 0.000001 -0.000001
vn 1.000000 -0.000000 -0.000000
vn 1.000000 0.000000 -0.000000
vn 1.000000 -0.000000 -0.000000
vn 1.000000 -0.000000 -0.000000
vn 1.000000 -0.000000 0.000000
vn 1.000000 0.000000 0.000000
vn 1.000000 0.000000 -0.000000
vn 1.000000 -0.000000 -0.000000
vn 1.000000 0.000000 -0.000001
vn 1.000000 0.000000 -0.000000
vn 1.000000 0.000000 -0.000000
vn 1.000000 -0.000000 -0.000000
vn 1.000000 -0.000000 -0.000000
vn 1.000000 0.000000 -0.000000
vn 1.000000 -0.000000 -0.000000
vn 1.000000 -0.000000 -0.000000
vn 1.000000 -0.000000 -0.000000
vn 1.000000 -0.000000 -0.000000
vn 1.000000 -0.000000 0.000000
vn 1.000000 -0.000000 -0.000000
vn 1.000000 -0.000000 0.000000
vn 1.000000 -0.000000 0.000000
vn 1.000000 -0.000000 -0.000000
vn 1.000000 0.000000 0.000000
vn 1.000000 0.000000 -0.000000
vn 1.000000 -0.000000 0.000000
vn 1.000000 -0.000000 -0.000000
vn 1.000000 -0.000000 0.000000
vn 1.000000 -0.000000 -0.000000
vn 1.000000 -0.000000 0.000001
vn 1.000000 -0.000000 0.000001
vn 1.000000 -0.000000 0.000000
vn 1.000000 -0.000000 -0.000000
vn 1.000000 -0.000000 -0.000000
vn 1.000000 -0.000000 0.000001
vn 1.000000 -0.000000 0.000000
vn 1.000000 -0.000000 0.000000
vn 1.000000 -0.000000 -0.000000
vn 1.000000 -0.000000 -0.000000
vn 1.000000 -0.000000 -0.000000
vn 1.000000 -0.000000 0.000000
vn 1.000000 -0.000000 -0.000000
vn 1.000000 -0.000000 -0.000000
vn 1.000000 -0.000000 -0.000000
vn 1.000000 -0.000000 -0.000000
vn 1.000000 0.000001 0.000001
vn 1.000000 -0.000000 -0.000000
vn 1.000000 -0.000000 -0.000000
vn 1.000000 -0.000000 0.000000
vn 1.000000 -0.000000 -0.000000
vn 1.000000 -0.000000 0.000000
vn 1.000000 -0.000000 0.000001
vn 1.000000 -0.000000 0.000000
vn 1.000000 -0.000000 -0.000000
vn 1.000000 -0.000000 0.000001
vn 1.000000 0.000000 -0.000000
vn 1.000000 0.000000 -0.000000
vn 1.000000 -0.000000 0.000001
vn 1.000000 -0.000000 0.000000
vn 1.000000 -0.000000 0.000001
vn 1.000000 -0.000000 0.000001
vn 1.000000 -0.000000 0.000000
vn 0.000000 -0.065403 0.997859
vn 0.000000 -0.258820 0.965926
vn 0.000000 -0.258820 0.965926
vn 0.000000 -0.258820 0.965926
vn 0.000000 -0.500001 0.866025
vn 0.000000 -0.500001 0.866025
vn 0.000000 -0.500001 0.866025
vn 0.000000 -0.707105 0.707108
vn 0.000000 -0.707105 0.707109
vn 0.000000 -0.707105 0.707109
vn 0.000000 -0.866026 0.500000
vn 0.000000 -0.866026 0.500000
vn 0.000000 -0.866026 0.500000
vn 0.000000 -0.965926 0.258819
vn 0.000000 -0.965926 0.258819
vn 0.000000 -0.965926 0.258819
vn 0.000000 -0.997859 0.065405
vn 0.000000 -0.997859 0.065405
vn 0.000000 0.997859 0.065402
vn 0.000000 0.997859 0.065402
vn 0.000000 0.997859 -0.065402
vn 0.000000 0.997859 -0.065402
vn 0.000000 0.965926 -0.258819
vn 0.000000 0.965926 -0.258819
vn 0.000000 0.965926 -0.258819
vn 0.000001 0.866025 -0.500000
vn 0.000001 0.866025 -0.500001
vn 0.000001 0.866025 -0.500001
vn 0.000000 0.707106 -0.707107
vn 0.000000 0.707106 -0.707108
vn 0.000000 0.707106 -0.707108
vn 0.000000 0.499999 -0.866026
vn 0.000000 0.499999 -0.866026
vn 0.000000 0.499999 -0.866026
vn 0.000000 0.258819 -0.965926
vn 0.000001 0.258820 -0.965926
vn 0.000001 0.258820 -0.965926
vn 0.000002 0.065404 -0.997859
vn 0.000003 0.065405 -0.997859
vn 0.000003 0.065405 -0.997859
vn 0.000001 -0.000001 -1.000000
vn 0.000000 -0.000002 -1.000000
vn 0.000000 1.000000 0.000000
vn 0.000000 0.997859 -0.065402
vn 0.000000 0.997859 -0.065402
vn 0.000000 0.997859 -0.065402
vn 0.000000 0.965926 -0.258819
vn 0.000000 0.965926 -0.258819
vn 0.000000 0.965926 -0.258819
vn 0.000000 0.866025 -0.500001
vn 0.000000 0.866025 -0.500001
vn 0.000000 0.866025 -0.500001
vn 0.000000 0.707106 -0.707108
vn 0.000001 0.707107 -0.707107
vn 0.000001 0.707107 -0.707107
vn 0.000002 0.500000 -0.866026
vn 0.000003 0.500001 -0.866025
vn 0.000003 0.500001 -0.866025
vn 0.000002 0.258819 -0.965926
vn 0.000001 0.258818 -0.965926
vn 0.000001 0.258818 -0.965926
vn 0.000000 0.065403 -0.997859
vn 0.000000 0.065403 -0.997859
vn 0.000000 0.065403 -0.997859
vn 0.000001 0.000001 -1.000000
vn 0.000002 0.000001 -1.000000
vn 0.000000 0.988461 -0.151478
vn 0.000000 0.963133 -0.269026
vn 0.000000 0.963133 -0.269027
vn 0.000000 0.963133 -0.269027
vn 0.000001 0.866026 -0.499999
vn 0.000001 0.866026 -0.500000
vn 0.000001 0.866026 -0.500000
vn 0.000000 0.707107 -0.707106
vn 0.000000 0.707108 -0.707106
vn 0.000000 0.707108 -0.707106
vn 0.000001 0.500000 -0.866026
vn 0.000001 0.500000 -0.866026
vn 0.000001 0.500000 -0.866026
vn 0.000000 0.258819 -0.965926
vn 0.000000 0.258819 -0.965926
vn 0.000000 0.258819 -0.965926
vn 0.000000 0.065404 -0.997859
vn 0.000000 0.065404 -0.997859
vn 0.000000 0.065404 -0.997859
vn 0.000000 0.000000 -1.000000
vn 0.000000 0.000000 -1.000000
vn 0.000000 1.000000 -0.000001
vn 0.000000 0.997859 -0.065404
vn 0.000000 0.997859 -0.065404
vn 0.000000 0.997859 -0.065404
vn 0.000000 0.965925 -0.258820
vn 0.000000 0.965926 -0.258821
vn 0.000000 0.965926 -0.258821
vn 0.000000 0.866026 -0.500000
vn 0.000000 0.866026 -0.500000
vn 0.000000 0.866026 -0.500000
vn 0.000000 0.707108 -0.707106
vn 0.000000 0.707108 -0.707106
vn 0.000000 0.707108 -0.707106
vn 0.000000 0.499999 -0.866026
vn 0.000000 0.499999 -0.866026
vn 0.000000 0.499999 -0.866026
vn 0.000000 0.258819 -0.965926
vn 0.000000 0.258819 -0.965926
vn 0.000000 0.258819 -0.965926
vn 0.000000 0.065404 -0.997859
vn 0.000000 0.065404 -0.997859
vn 0.000000 0.065404 -0.997859
vn 0.000000 0.000000 -1.000000
vn 0.000000 0.000000 -1.000000
vn 0.000000 -0.000000 1.000000
vn 0.000000 -0.065403 0.997859
vn 0.000000 -0.065403 0.997859
vn 0.000000 -0.065403 0.997859
vn 0.000000 -0.258820 0.965926
vn 0.000000 -0.258820 0.965926
vn 0.000000 -0.258820 0.965926
vn 0.000000 -0.500000 0.866026
vn 0.000000 -0.500000 0.866026
vn 0.000000 -0.500000 0.866026
vn 0.000000 -0.707105 0.707108
vn 0.000000 -0.707105 0.707108
vn 0.000000 -0.707105 0.707108
vn 0.000000 -0.866026 0.500000
vn 0.000000 -0.866026 0.500000
vn 0.000000 -0.866026 0.500000
vn 0.000000 -0.965926 0.258819
vn 0.000000 -0.965926 0.258819
vn 0.000000 -0.965926 0.258819
vn 0.000000 -0.997859 0.065405
vn 0.000000 -0.997859 0.065405
vn 0.000000 -0.997859 0.065405
vn 0.000000 -1.000000 -0.000000
vn 0.000000 -1.000000 -0.000000
vn 0.000000 0.000000 -1.000000
vn 0.000000 0.000000 -1.000000
vn 0.000000 0.000000 -1.000000
vn 0.000000 -0.000000 1.000000
vn 0.000000 -0.065403 0.997859
vn 0.000000 -0.065403 0.997859
vn 0.000000 -0.065402 0.997859
vn 0.000000 -0.258818 0.965926
vn 0.000000 -0.258818 0.965926
vn 0.000000 -0.258818 0.965926
vn 0.000000 -0.499999 0.866026
vn 0.000000 -0.499999 0.866026
vn 0.000000 -0.499999 0.866026
vn 0.000000 -0.707107 0.707107
vn 0.000000 -0.707107 0.707107
vn 0.000000 -0.707107 0.707107
vn 0.000000 -0.866026 0.500000
vn 0.000000 -0.866026 0.500000
vn 0.000000 -0.866026 0.500000
vn 0.000000 -0.962268 0.272103
vn 0.000000 -0.962268 0.272103
vn 0.000000 -0.962268 0.272103
vn 0.000000 -0.987472 0.157794
vn 0.000000 -0.987472 0.157794
vn 0.000000 0.000000 -1.000000
vn 0.000000 0.000000 -1.000000
vn 0.000000 0.000000 -1.000000
vn 0.000000 -0.000000 1.000000
vn 0.000000 -0.000000 1.000000
vn 0.000000 -0.000000 1.000000
vn 0.000000 -0.000000 1.000000
vn 0.000000 -0.065402 0.997859
vn 0.000000 -0.065402 0.997859
vn 0.000000 -0.065402 0.997859
vn 0.000000 -0.258819 0.965926
vn 0.000000 -0.258819 0.965926
vn 0.000000 -0.258819 0.965926
vn 0.000000 -0.500001 0.866025
vn 0.000000 -0.500001 0.866025
vn 0.000000 -0.500001 0.866025
vn 0.000000 -0.707107 0.707107
vn 0.000000 -0.707106 0.707107
vn 0.000000 -0.707106 0.707107
vn 0.000000 -0.866026 0.500000
vn 0.000000 -0.866026 0.500000
vn 0.000000 -0.866026 0.500000
vn 0.000000 -0.965926 0.258819
vn 0.000000 -0.965926 0.258819
vn 0.000000 -0.965926 0.258819
vn 0.000000 -0.997859 0.065405
vn 0.000000 -0.997859 0.065405
vn 0.000000 -0.997859 0.065405
vn 0.000000 -1.000000 -0.000000
vn 0.000000 -1.000000 -0.000000
vn 0.000000 0.000000 -1.000000
vn 0.000000 0.000000 -1.000000
vn 0.000000 0.000000 -1.000000
vn 0.000000 0.707109 0.707104
vn 0.000000 -0.065402 0.997859
vn 0.000000 -0.065402 0.997859
vn -1.000000 0.000000 -0.000000
vn -1.000000 0.000000 0.000000
vn -1.000000 0.000000 -0.000000
vn -1.000000 0.000000 -0.000000
vn -1.000000 0.000000 0.000000
vn -1.000000 0.000000 0.000000
vn -1.000000 0.000000 0.000000
vn -1.000000 0.000000 0.000000
vn -1.000000 0.000000 0.000000
vn -1.000000 0.000000 0.000000
vn -1.000000 0.000000 -0.000000
vn -1.000000 0.000000 -0.000000
vn -1.000000 0.000000 0.000000
vn -1.000000 0.000000 0.000000
vn -1.000000 0.000000 0.000000
vn -1.000000 0.000000 -0.000000
vn -1.000000 -0.000001 0.000001
vn -1.000000 0.000001 -0.000000
vn -1.000000 0.000000 -0.000000
vn -1.000000 0.000000 -0.000000
vn -1.000000 -0.000000 0.000000
vn -1.000000 0.000000 0.000000
vn -1.000000 0.000000 -0.000000
vn -1.000000 0.000000 0.000000
vn -1.000000 0.000000 -0.000000
vn -1.000000 0.000001 -0.000000
vn -1.000000 0.000000 -0.000000
vn -1.000000 0.000001 -0.000000
vn -1.000000 0.000000 -0.000000
vn -1.000000 0.000000 -0.000000
vn -1.000000 0.000000 0.000000
vn -1.000000 0.000000 -0.000000
vn -1.000000 0.000001 -0.000000
vn -1.000000 0.000000 0.000000
vn -1.000000 0.000000 0.000000
vn -1.000000 -0.000000 0.000000
vn -1.000000 0.000000 -0.000000
vn -1.000000 0.000000 0.000000
vn -1.000000 0.000001 -0.000000
vn -1.000000 0.000000 0.000000
vn -1.000000 -0.000000 0.000000
vn -1.000000 0.000000 0.000000
vn -1.000000 0.000000 -0.000000
vn -1.000000 0.000000 -0.000000
vn -1.000000 0.000000 -0.000000
vn -1.000000 0.000000 0.000000
vn -1.000000 -0.000000 0.000001
vn -1.000000 -0.000000 0.000000
vn -1.000000 0.000000 -0.000000
vn -1.000000 0.000000 0.000000
vn -1.000000 0.000000 -0.000000
vn -1.000000 -0.000000 0.000001
vn -1.000000 0.000000 0.000000
vn -1.000000 -0.000000 0.000000
vn -1.000000 0.000000 0.000000
vn -1.000000 0.000000 0.000000
vn -1.000000 0.000000 0.000000
vn -1.000000 -0.000000 0.000000
vn -1.000000 0.000000 0.000000
vn -1.000000 -0.000000 0.000000
vn 0.000000 0.707107 0.707107
vn 0.000000 0.707109 0.707104
vn 0.000000 0.707109 -0.707105
vn 1.000000 0.000001 0.000001
vn 1.000000 0.000001 0.000001
vn 1.000000 0.000001 -0.000001
vn -1.000000 0.000000 0.000000
vn -1.000000 0.000000 0.000000
vn -1.000000 0.000000 0.000000
vn 0.000000 -1.000000 -0.000000
vn 0.000000 -1.000000 -0.000000
vn 0.000000 -1.000000 -0.000000
vn 0.000000 -1.000000 -0.000000
vn 0.000000 -1.000000 -0.000000
vn 0.000000 -1.000000 -0.000000
vn 1.000000 0.000001 -0.000000
vn 1.000000 0.000001 -0.000000
vn 1.000000 0.000001 -0.000000
vn 0.000000 -1.000000 -0.000000
vn 0.000000 -1.000000 -0.000000
vn 0.000000 -1.000000 -0.000000
vn 0.000000 1.000000 0.000000
vn 0.000000 1.000000 0.000000
vn 0.000000 1.000000 0.000000
vn 1.000000 -0.000000 -0.000000
vn 1.000000 -0.000000 -0.000000
vn 1.000000 -0.000000 -0.000000
vn 1.000000 0.000000 0.000000
vn 1.000000 0.000007 0.000004
vn 1.000000 -0.000000 -0.000000
vn 1.000000 -0.000000 -0.000000
vn 1.000000 0.000000 0.000000
vn 1.000000 -0.000000 -0.000000
vn 1.000000 0.000000 -0.000000
vn 1.000000 -0.000000 -0.000000
vn 1.000000 0.000000 0.000000
vn 1.000000 -0.000000 -0.000000
vn 1.000000 0.000001 0.000001
vn 1.000000 -0.000000 -0.000000
vn 1.000000 0.000001 0.000001
vn 1.000000 0.000001 0.000001
vn 1.000000 -0.000000 -0.000000
vn 1.000000 -0.000000 -0.000000
vn 1.000000 -0.000000 -0.000000
vn 1.000000 -0.000001 -0.000001
vn 1.000000 -0.000000 -0.000000
vn 1.000000 -0.000000 -0.000000
vn 1.000000 -0.000000 0.000000
vn 1.000000 -0.000000 -0.000000
vn 1.000000 -0.000001 -0.000001
vn 1.000000 -0.000001 -0.000001
vn 1.000000 0.000000 0.000000
vn 1.000000 -0.000001 -0.000001
vn 1.000000 0.000000 0.000000
vn 1.000000 -0.000000 -0.000000
vn 1.000000 0.000000 0.000000
vn 1.000000 0.000000 0.000000
vn 1.000000 -0.000001 -0.000001
vn 1.000000 -0.000001 -0.000000
vn 1.000000 0.000000 0.000000
vn 1.000000 -0.000000 -0.000000
vn 1.000000 -0.000001 0.000000
vn 1.000000 -0.000000 -0.000000
vn 1.000000 -0.000000 -0.000000
vn 1.000000 -0.000000 -0.000000
vn 1.000000 -0.000000 -0.000000
vn 1.000000 -0.000001 0.000000
vn 1.000000 0.000000 -0.000000
vn 1.000000 0.000000 -0.000000
vn 1.000000 -0.000000 -0.000000
vn 1.000000 -0.000001 0.000000
vn 1.000000 -0.000001 0.000000
vn 1.000000 -0.000000 -0.000000
vn 1.000000 -0.000001 0.000000
vn 1.000000 -0.000000 -0.000000
vn 1.000000 -0.000001 0.000000
vn 1.000000 -0.000001 0.000000
vn 1.000000 -0.000000 0.000000
vn 1.000000 0.000000 -0.000000
vn 1.000000 -0.000001 0.000000
vn 1.000000 0.000000 -0.000000
vn 1.000000 -0.000000 -0.000000
vn 1.000000 -0.000001 0.000001
vn 1.000000 -0.000000 0.000000
vn 1.000000 -0.000000 -0.000000
vn 1.000000 -0.000000 -0.000000
vn 1.000000 -0.000000 -0.000000
vn 1.000000 -0.000000 -0.000000
vn 1.000000 -0.000001 0.000001
vn 1.000000 -0.000001 0.000001
vn 1.000000 -0.000000 -0.000000
vn 1.000000 0.000000 -0.000000
vn 1.000000 -0.000000 -0.000000
vn 1.000000 -0.000000 -0.000000
vn 1.000000 -0.000000 -0.000000
vn 1.000000 -0.000000 0.000000
vn 1.000000 -0.000001 0.000000
vn 1.000000 0.000000 -0.000000
vn 1.000000 -0.000001 0.000000
vn 1.000000 -0.000000 -0.000000
vn 1.000000 -0.000000 -0.000000
vn 1.000000 -0.000000 -0.000000
vn 1.000000 -0.000000 -0.000000
vn 1.000000 -0.000000 -0.000000
vn 1.000000 -0.000000 -0.000000
vn 1.000000 -0.000000 -0.000000
vn 1.000000 -0.000000 -0.000000
vn 1.000000 -0.000000 -0.000000
vn 1.000000 -0.000000 -0.000000
vn 1.000000 -0.000000 -0.000000
vn 1.000000 0.000000 -0.000000
vn 1.000000 -0.000000 -0.000000
vn 1.000000 -0.000000 -0.000000
vn 1.000000 -0.000000 -0.000000
vn 1.000000 -0.000000 -0.000000
vn 1.000000 -0.000000 -0.000000
vn 1.000000 -0.000000 -0.000000
vn 1.000000 -0.000000 -0.000000
vn 1.000000 -0.000000 -0.000000
vn 1.000000 -0.000000 -0.000000
vn 1.000000 -0.000000 -0.000000
vn 1.000000 -0.000000 0.000000
vn 1.000000 -0.000000 -0.000000
vn 1.000000 -0.000000 -0.000000
vn 1.000000 -0.000000 -0.000000
vn 1.000000 -0.000000 -0.000000
vn 1.000000 -0.000000 0.000000
vn 1.000000 -0.000000 0.000000
vn 1.000000 -0.000000 0.000000
vn 1.000000 -0.000000 0.000000
vn 1.000000 -0.000000 0.000000
vn 1.000000 -0.000000 0.000000
vn 1.000000 -0.000000 0.000000
vn 1.000000 -0.000000 0.000000
vn 1.000000 -0.000000 0.000000
vn 1.000000 -0.000000 0.000000
vn 1.000000 -0.000000 0.000000
vn 1.000000 -0.000000 0.000000
vn 1.000000 -0.000000 0.000000
vn 1.000000 -0.000000 -0.000000
vn 1.000000 -0.000000 -0.000000
vn 1.000000 -0.000000 -0.000000
vn 1.000000 -0.000000 -0.000000
vn 1.000000 -0.000000 -0.000000
vn 1.000000 0.000000 0.000000
vn 1.000000 -0.000000 0.000001
vn 1.000000 -0.000000 0.000001
vn 1.000000 -0.000000 0.000001
vn 1.000000 -0.000000 0.000000
vn 1.000000 -0.000000 0.000000
vn 1.000000 -0.000000 0.000000
vn 1.000000 -0.000000 -0.000001
vn 1.000000 -0.000000 -0.000001
vn 1.000000 -0.000000 -0.000001
vn 1.000000 0.000000 0.000000
vn 1.000000 -0.000000 -0.000000
vn 1.000000 0.000000 0.000000
vn 1.000000 0.000000 0.000000
vn 1.000000 0.000000 -0.000000
vn 1.000000 0.000000 0.000000
vn 1.000000 0.000001 0.000000
vn 1.000000 0.000001 -0.000000
vn 1.000000 0.000001 -0.000000
vn 1.000000 0.000001 0.000000
vn 1.000000 0.000000 -0.000000
vn 1.000000 -0.000000 -0.000000
vn 1.000000 -0.000000 0.000000
vn 1.000000 -0.000000 0.000000
vn 1.000000 -0.000000 0.000000
vn 1.000000 0.000000 0.000000
vn 1.000000 0.000000 -0.000000
vn 1.000000 0.000000 0.000000
vn 1.000000 0.000000 0.000000
vn 1.000000 0.000000 0.000001
vn 1.000000 0.000000 0.000000
vn 1.000000 -0.000000 -0.000001
vn 1.000000 -0.000000 -0.000000
vn 1.000000 -0.000000 -0.000001
vn 1.000000 -0.000000 0.000000
vn 1.000000 -0.000000 0.000000
vn 1.000000 -0.000000 0.000000
vn 1.000000 -0.000000 0.000000
vn 1.000000 -0.000000 -0.000000
vn 1.000000 -0.000000 -0.000000
vn 1.000000 -0.000000 -0.000000
vn 1.000000 -0.000000 -0.000000
vn 1.000000 -0.000000 0.000000
vn 1.000000 -0.000000 -0.000000
vn 1.000000 -0.000000 0.000000
vn 1.000000 -0.000000 -0.000000
vn 1.000000 -0.000000 -0.000001
vn 1.000000 -0.000000 -0.000001
vn 1.000000 -0.000000 -0.000001
vn 1.000000 -0.000000 0.000000
vn 1.000000 -0.000000 0.000000
vn 1.000000 -0.000000 0.000000
vn 1.000000 -0.000000 -0.000000
vn 1.000000 -0.000000 -0.000000
vn 1.000000 -0.000000 -0.000000
vn 1.000000 -0.000000 -0.000000
vn 1.000000 -0.000000 -0.000000
vn 1.000000 -0.000000 -0.000000
vn 1.000000 -0.000000 -0.000000
vn 1.000000 -0.000000 -0.000000
vn 1.000000 -0.000000 0.000000
vn 1.000000 -0.000000 -0.000000
vn 1.000000 0.000001 -0.000001
vn 1.000000 -0.000000 -0.000000
vn 1.000000 -0.000000 -0.000000
vn 1.000000 -0.000000 -0.000000
vn 1.000000 -0.000000 0.000000
vn 1.000000 0.000000 -0.000000
vn 1.000000 -0.000000 -0.000001
vn 1.000000 0.000000 0.000000
vn 1.000000 -0.000000 -0.000000
vn 1.000000 -0.000000 -0.000001
vn 1.000000 -0.000000 -0.000000
vn 1.000000 -0.000000 -0.000001
vn 1.000000 -0.000000 -0.000001
vn 0.000000 -0.065404 -0.997859
vn 0.000000 -0.258820 -0.965926
vn 0.000000 -0.258820 -0.965926
vn 0.000000 -0.258820 -0.965926
vn 0.000000 -0.500001 -0.866025
vn 0.000000 -0.500000 -0.866025
vn 0.000000 -0.500001 -0.866025
vn 0.000000 -0.707106 -0.707108
vn 0.000000 -0.707106 -0.707108
vn 0.000000 -0.707106 -0.707108
vn 0.000000 -0.866026 -0.500000
vn 0.000000 -0.866026 -0.500000
vn 0.000000 -0.866026 -0.500000
vn 0.000000 -0.965926 -0.258819
vn 0.000000 -0.965926 -0.258819
vn 0.000000 -0.965926 -0.258819
vn 0.000000 -0.997859 -0.065405
vn 0.000000 -0.997859 -0.065405
vn 0.000000 -0.997859 -0.065405
vn 0.000000 -0.997859 0.065405
vn 0.000000 -0.997859 0.065405
vn 0.000000 0.997859 0.065402
vn 0.000000 0.965926 0.258819
vn 0.000000 0.965926 0.258819
vn 0.000000 0.965926 0.258819
vn 0.000000 0.866025 0.500001
vn 0.000000 0.866025 0.500001
vn 0.000000 0.866025 0.500001
vn 0.000000 0.707106 0.707108
vn 0.000000 0.707106 0.707108
vn 0.000000 0.707106 0.707108
vn 0.000000 0.499999 0.866026
vn 0.000000 0.499999 0.866026
vn 0.000000 0.499999 0.866026
vn 0.000001 0.258820 0.965926
vn 0.000000 0.258819 0.965926
vn 0.000001 0.258820 0.965926
vn 0.000002 0.065405 0.997859
vn 0.000002 0.065404 0.997859
vn 0.000002 0.065405 0.997859
vn 0.000000 -0.000001 1.000000
vn 0.000001 -0.000001 1.000000
vn 0.000000 1.000000 0.000000
vn 0.000000 0.997859 0.065402
vn 0.000000 0.997859 0.065402
vn 0.000000 0.997859 0.065402
vn 0.000000 0.965926 0.258819
vn 0.000000 0.965926 0.258819
vn 0.000000 0.965926 0.258819
vn 0.000000 0.866025 0.500001
vn 0.000000 0.866025 0.500000
vn 0.000000 0.866025 0.500001
vn 0.000001 0.707107 0.707107
vn 0.000000 0.707106 0.707108
vn 0.000001 0.707107 0.707107
vn 0.000004 0.500000 0.866025
vn 0.000003 0.499999 0.866026
vn 0.000004 0.500000 0.866025
vn 0.000000 0.258818 0.965926
vn 0.000001 0.258819 0.965926
vn 0.000000 0.258818 0.965926
vn 0.000000 0.065404 0.997859
vn 0.000000 0.065404 0.997859
vn 0.000000 0.065404 0.997859
vn 0.000000 -0.000000 1.000000
vn 0.000000 -0.000000 1.000000
vn 0.000000 0.988461 0.151478
vn 0.000000 0.963133 0.269027
vn 0.000000 0.963133 0.269027
vn 0.000000 0.963133 0.269027
vn 0.000000 0.866026 0.500000
vn 0.000000 0.866026 0.500000
vn 0.000000 0.866026 0.500000
vn 0.000000 0.707108 0.707106
vn 0.000000 0.707108 0.707106
vn 0.000000 0.707108 0.707106
vn 0.000000 0.500001 0.866025
vn 0.000000 0.500000 0.866025
vn 0.000000 0.500001 0.866025
vn 0.000002 0.258820 0.965926
vn 0.000001 0.258819 0.965926
vn 0.000002 0.258820 0.965926
vn 0.000003 0.065404 0.997859
vn 0.000003 0.065403 0.997859
vn 0.000003 0.065404 0.997859
vn -0.000000 -0.000000 1.000000
vn 0.000000 -0.000000 1.000000
vn 0.000002 1.000000 0.000000
vn -0.000000 0.997859 0.065405
vn 0.000000 0.997859 0.065404
vn -0.000000 0.997859 0.065405
vn -0.000000 0.965925 0.258820
vn -0.000000 0.965925 0.258821
vn -0.000000 0.965925 0.258820
vn -0.000001 0.866025 0.500000
vn -0.000001 0.866025 0.500000
vn -0.000001 0.866025 0.500000
vn -0.000000 0.707107 0.707107
vn -0.000000 0.707107 0.707107
vn -0.000000 0.707107 0.707107
vn -0.000001 0.499999 0.866026
vn -0.000001 0.499999 0.866026
vn -0.000001 0.499999 0.866026
vn 0.000000 0.258820 0.965926
vn -0.000000 0.258820 0.965926
vn 0.000000 0.258820 0.965926
vn 0.000000 0.065404 0.997859
vn 0.000000 0.065404 0.997859
vn 0.000000 0.065404 0.997859
vn 0.000000 -0.000000 1.000000
vn 0.000000 -0.000000 1.000000
vn -0.000001 -0.000000 -1.000000
vn 0.000000 -0.065404 -0.997859
vn -0.000000 -0.065403 -0.997859
vn 0.000000 0.707107 -0.707106
vn 0.000000 -0.065402 -0.997859
vn 0.000000 -0.065402 -0.997859
vn 0.000000 -0.065402 -0.997859
vn 0.000000 -0.258820 -0.965926
vn 0.000000 -0.258820 -0.965926
vn 0.000000 -0.258820 -0.965926
vn 0.000000 -0.500001 -0.866025
vn 0.000000 -0.500001 -0.866025
vn 0.000000 -0.500001 -0.866025
vn 0.000000 -0.707105 -0.707108
vn 0.000000 -0.707105 -0.707108
vn 0.000000 -0.707105 -0.707108
vn 0.000000 -0.866026 -0.500000
vn 0.000000 -0.866026 -0.500000
vn 0.000000 -0.866026 -0.500000
vn 0.000000 -0.965926 -0.258819
vn 0.000000 -0.965926 -0.258819
vn 0.000000 -0.965926 -0.258819
vn 0.000000 -0.997859 -0.065405
vn 0.000000 -0.997859 -0.065405
vn 0.000000 -0.997859 -0.065405
vn 0.000000 -1.000000 -0.000000
vn 0.000000 -1.000000 -0.000000
vn 0.000001 -0.000000 1.000000
vn 0.000001 -0.000000 1.000000
vn 0.000001 -0.000000 1.000000
vn 0.000000 0.000000 -1.000000
vn 0.000000 -0.065402 -0.997859
vn 0.000000 -0.065402 -0.997859
vn 0.000000 -0.065403 -0.997859
vn 0.000000 -0.258818 -0.965926
vn 0.000000 -0.258818 -0.965926
vn 0.000000 -0.258818 -0.965926
vn 0.000000 -0.499998 -0.866027
vn 0.000000 -0.499998 -0.866027
vn 0.000000 -0.499998 -0.866027
vn 0.000000 -0.707107 -0.707107
vn 0.000000 -0.707107 -0.707107
vn 0.000000 -0.707107 -0.707107
vn 0.000000 -0.866026 -0.500000
vn 0.000000 -0.866026 -0.500000
vn 0.000000 -0.866026 -0.500000
vn 0.000000 -0.962268 -0.272103
vn 0.000000 -0.962268 -0.272103
vn 0.000000 -0.962268 -0.272103
vn 0.000000 -0.987472 -0.157794
vn 0.000000 -0.987472 -0.157794
vn 0.000000 -0.000000 1.000000
vn 0.000000 -0.000000 1.000000
vn 0.000000 -0.000000 1.000000
vn 0.000000 0.000000 -1.000000
vn 0.000000 0.000000 -1.000000
vn 0.000000 0.000000 -1.000000
vn 0.000000 0.000000 -1.000000
vn 0.000000 -0.065403 -0.997859
vn 0.000000 -0.065403 -0.997859
vn 0.000000 -0.065402 -0.997859
vn 0.000000 -0.258819 -0.965926
vn 0.000000 -0.258819 -0.965926
vn 0.000000 -0.258819 -0.965926
vn 0.000000 -0.500001 -0.866025
vn 0.000000 -0.500001 -0.866025
vn 0.000000 -0.500001 -0.866025
vn 0.000000 -0.707107 -0.707107
vn 0.000000 -0.707107 -0.707107
vn 0.000000 -0.707107 -0.707107
vn 0.000000 -0.866026 -0.500000
vn 0.000000 -0.866026 -0.500000
vn 0.000000 -0.866026 -0.500000
vn 0.000000 -0.965926 -0.258819
vn 0.000000 -0.965926 -0.258819
vn 0.000000 -0.965926 -0.258819
vn 0.000000 -0.997859 -0.065405
vn 0.000000 -0.997859 -0.065405
vn 0.000000 -0.997859 -0.065405
vn 0.000000 -1.000000 -0.000000
vn 0.000000 -1.000000 -0.000000
vn 0.000000 -0.000000 1.000000
vn 0.000000 -0.000000 1.000000
vn 0.000000 -0.000000 1.000000
vn -1.000000 0.000000 0.000000
vn -1.000000 0.000000 0.000000
vn -1.000000 0.000000 0.000000
vn -1.000000 0.000000 0.000000
vn -1.000000 0.000001 0.000000
vn -1.000000 0.000000 0.000000
vn -1.000000 0.000001 0.000000
vn -1.000000 -0.000001 -0.000000
vn -1.000000 0.000000 0.000000
vn -1.000000 0.000000 -0.000000
vn -1.000000 0.000000 0.000000
vn -1.000000 0.000000 0.000000
vn -1.000000 0.000000 -0.000000
vn -1.000000 0.000000 -0.000000
vn -1.000000 0.000000 0.000000
vn -1.000000 0.000001 0.000000
vn -1.000000 0.000000 0.000000
vn -1.000000 0.000001 0.000000
vn -1.000000 0.000000 0.000000
vn -1.000000 0.000000 0.000000
vn -1.000000 0.000000 0.000000
vn -1.000000 -0.000000 -0.000000
vn -1.000000 0.000000 0.000000
vn -1.000000 0.000000 0.000000
vn -1.000000 0.000000 0.000000
vn -1.000000 0.000000 0.000000
vn -1.000000 0.000000 0.000000
vn -1.000000 -0.000000 -0.000000
vn -1.000000 0.000000 -0.000000
vn -1.000000 0.000000 -0.000000
vn -1.000000 0.000000 0.000000
vn -1.000000 0.000000 -0.000000
vn -1.000000 0.000000 0.000000
vn 1.000000 -0.000000 -0.000000
vn 1.000000 -0.000000 0.000000
vn 1.000000 -0.000000 -0.000000
vn 1.000000 -0.000000 -0.000000
vn 1.000000 -0.000000 -0.000000
vn 1.000000 -0.000000 -0.000000
vn 1.000000 -0.000000 -0.000000
vn 1.000000 -0.000000 -0.000000
vn 1.000000 -0.000000 -0.000000
vn 1.000000 -0.000000 -0.000000
vn 1.000000 -0.000000 -0.000000
vn 1.000000 -0.000000 -0.000000
vn 1.000000 -0.000000 -0.000000
vn 1.000000 -0.000000 -0.000000
vn 1.000000 -0.000000 0.000000
vn 1.000000 -0.000000 0.000000
vn 1.000000 -0.000000 0.000000
vn 1.000000 -0.000000 -0.000000
vn 1.000000 -0.000000 -0.000000
vn 1.000000 -0.000000 -0.000000
vn 1.000000 -0.000000 -0.000000
vn 1.000000 0.000000 -0.000000
vn 1.000000 0.000000 0.000000
vn 1.000000 -0.000000 -0.000001
vn 1.000000 -0.000000 -0.000001
vn 1.000000 -0.000000 -0.000001
vn 1.000000 -0.000000 -0.000000
vn 1.000000 -0.000000 -0.000000
vn 1.000000 -0.000000 -0.000000
vn 1.000000 -0.000000 0.000001
vn 1.000000 -0.000000 0.000001
vn 1.000000 -0.000000 0.000001
vn 1.000000 -0.000000 0.000000
vn 1.000000 0.000000 -0.000000
vn 1.000000 -0.000000 0.000000
vn 1.000000 0.000000 0.000000
vn 1.000000 0.000000 -0.000000
vn 1.000000 0.000000 0.000000
vn 1.000000 0.000001 -0.000000
vn 1.000000 0.000001 -0.000000
vn 1.000000 0.000001 -0.000001
vn 1.000000 0.000000 -0.000000
vn 1.000000 -0.000000 0.000000
vn 1.000000 -0.000000 -0.000000
vn 1.000000 -0.000000 -0.000000
vn 1.000000 -0.000000 -0.000000
vn 1.000000 -0.000000 -0.000000
vn 1.000000 0.000000 0.000000
vn 1.000000 0.000000 -0.000000
vn 1.000000 0.000000 0.000000
vn 1.000000 0.000000 -0.000001
vn 1.000000 0.000000 -0.000000
vn 1.000000 0.000000 -0.000001
vn 1.000000 -0.000000 -0.000000
vn 1.000000 -0.000000 -0.000000
vn 1.000000 -0.000000 -0.000000
vn 1.000000 -0.000000 -0.000000
vn 1.000000 -0.000000 -0.000000
vn 1.000000 0.000000 0.000000
vn 1.000000 -0.000000 0.000000
vn 1.000000 -0.000000 0.000000
vn 1.000000 -0.000000 0.000001
vn 1.000000 -0.000000 0.000000
vn 1.000000 -0.000000 -0.000000
vn 1.000000 -0.000000 -0.000000
vn 1.000000 -0.000000 -0.000000
vn 1.000000 -0.000000 0.000000
vn 1.000000 -0.000000 -0.000000
vn 1.000000 -0.000000 0.000001
vn 1.000000 -0.000000 0.000001
vn 1.000000 -0.000000 0.000001
vn 1.000000 -0.000000 -0.000000
vn 1.000000 -0.000000 -0.000000
vn 1.000000 -0.000000 -0.000000
vn 1.000000 -0.000000 0.000000
vn 1.000000 -0.000000 0.000000
vn 1.000000 -0.000000 0.000000
vn 1.000000 -0.000000 -0.000000
vn 1.000000 -0.000000 -0.000000
vn 1.000000 -0.000000 -0.000000
vn 1.000000 -0.000000 -0.000000
vn 1.000000 -0.000000 -0.000000
vn 1.000000 0.000001 0.000001
vn 1.000000 0.000001 0.000001
vn 1.000000 -0.000000 -0.000000
vn 1.000000 -0.000000 0.000000
vn 1.000000 -0.000000 0.000000
vn 1.000000 -0.000000 -0.000000
vn 1.000000 -0.000000 0.000001
vn 1.000000 -0.000000 0.000001
vn 1.000000 0.000000 -0.000000
vn 1.000000 -0.000000 0.000001
vn 1.000000 -0.000000 0.000001
vn 1.000000 -0.000000 0.000000
vn 1.000000 -0.000000 0.000001
vn 1.000000 -0.000000 0.000001
vn 0.000000 -0.065403 0.997859
vn 0.000000 -0.065403 0.997859
vn 0.000000 -0.258820 0.965926
vn 0.000000 -0.258820 0.965926
vn 0.000000 -0.258820 0.965926
vn 0.000000 -0.500001 0.866025
vn 0.000000 -0.500001 0.866025
vn 0.000000 -0.500001 0.866025
vn 0.000000 -0.707105 0.707108
vn 0.000000 -0.707105 0.707109
vn 0.000000 -0.707105 0.707108
vn 0.000000 -0.866026 0.500000
vn 0.000000 -0.866026 0.500000
vn 0.000000 -0.866026 0.500000
vn 0.000000 -0.965926 0.258819
vn 0.000000 -0.965926 0.258819
vn 0.000000 -0.965926 0.258819
vn 0.000000 -0.997859 0.065405
vn 0.000000 0.997859 0.065402
vn 0.000000 0.997859 -0.065402
vn 0.000000 0.997859 -0.065402
vn 0.000000 0.997859 -0.065402
vn 0.000000 0.997859 -0.065402
vn 0.000000 0.965926 -0.258819
vn 0.000000 0.965926 -0.258819
vn 0.000000 0.965926 -0.258819
vn 0.000001 0.866025 -0.500000
vn 0.000001 0.866025 -0.500001
vn 0.000001 0.866025 -0.500000
vn 0.000000 0.707106 -0.707107
vn 0.000000 0.707106 -0.707108
vn 0.000000 0.707106 -0.707107
vn 0.000000 0.499999 -0.866026
vn 0.000000 0.499999 -0.866026
vn 0.000000 0.499999 -0.866026
vn 0.000000 0.258819 -0.965926
vn 0.000001 0.258820 -0.965926
vn 0.000000 0.258819 -0.965926
vn 0.000002 0.065404 -0.997859
vn 0.000003 0.065405 -0.997859
vn 0.000002 0.065404 -0.997859
vn 0.000001 -0.000001 -1.000000
vn 0.000000 1.000000 0.000000
vn 0.000000 1.000000 0.000000
vn 0.000000 0.997859 -0.065402
vn 0.000000 0.997859 -0.065402
vn 0.000000 0.997859 -0.065402
vn 0.000000 0.965926 -0.258819
vn 0.000000 0.965926 -0.258819
vn 0.000000 0.965926 -0.258819
vn 0.000000 0.866025 -0.500001
vn 0.000000 0.866025 -0.500001
vn 0.000000 0.866025 -0.500001
vn 0.000000 0.707106 -0.707108
vn 0.000001 0.707107 -0.707107
vn 0.000000 0.707106 -0.707108
vn 0.000002 0.500000 -0.866026
vn 0.000003 0.500001 -0.866025
vn 0.000002 0.500000 -0.866026
vn 0.000002 0.258819 -0.965926
vn 0.000001 0.258818 -0.965926
vn 0.000002 0.258819 -0.965926
vn 0.000000 0.065403 -0.997859
vn 0.000000 0.065403 -0.997859
vn 0.000000 0.065403 -0.997859
vn 0.000001 0.000001 -1.000000
vn 0.000000 0.988461 -0.151478
vn 0.000000 0.988461 -0.151478
vn 0.000000 0.963133 -0.269026
vn 0.000000 0.963133 -0.269027
vn 0.000000 0.963133 -0.269026
vn 0.000001 0.866026 -0.499999
vn 0.000001 0.866026 -0.500000
vn 0.000001 0.866026 -0.499999
vn 0.000000 0.707107 -0.707106
vn 0.000000 0.707108 -0.707106
vn 0.000000 0.707107 -0.707106
vn 0.000001 0.500000 -0.866026
vn 0.000001 0.500000 -0.866026
vn 0.000001 0.500000 -0.866026
vn 0.000000 0.258819 -0.965926
vn 0.000000 0.258819 -0.965926
vn 0.000000 0.258819 -0.965926
vn 0.000000 0.065404 -0.997859
vn 0.000000 0.065404 -0.997859
vn 0.000000 0.065404 -0.997859
vn 0.000000 0.000000 -1.000000
vn 0.000000 1.000000 -0.000001
vn 0.000000 1.000000 -0.000001
vn 0.000000 0.997859 -0.065404
vn 0.000000 0.997859 -0.065404
vn 0.000000 0.997859 -0.065404
vn 0.000000 0.965925 -0.258820
vn 0.000000 0.965926 -0.258821
vn 0.000000 0.965925 -0.258820
vn 0.000000 0.866026 -0.500000
vn 0.000000 0.866026 -0.500000
vn 0.000000 0.866026 -0.500000
vn 0.000000 0.707108 -0.707106
vn 0.000000 0.707108 -0.707106
vn 0.000000 0.707108 -0.707106
vn 0.000000 0.499999 -0.866026
vn 0.000000 0.499999 -0.866026
vn 0.000000 0.499999 -0.866026
vn 0.000000 0.258819 -0.965926
vn 0.000000 0.258819 -0.965926
vn 0.000000 0.258819 -0.965926
vn 0.000000 0.065404 -0.997859
vn 0.000000 0.065404 -0.997859
vn 0.000000 0.065404 -0.997859
vn 0.000000 0.000000 -1.000000
vn 0.000000 -0.000000 1.000000
vn 0.000000 -0.000000 1.000000
vn 0.000000 -0.065403 0.997859
vn 0.000000 -0.065403 0.997859
vn 0.000000 -0.065403 0.997859
vn 0.000000 -0.258820 0.965926
vn 0.000000 -0.258820 0.965926
vn 0.000000 -0.258820 0.965926
vn 0.000000 -0.500000 0.866026
vn 0.000000 -0.500000 0.866026
vn 0.000000 -0.500000 0.866026
vn 0.000000 -0.707105 0.707108
vn 0.000000 -0.707105 0.707108
vn 0.000000 -0.707105 0.707108
vn 0.000000 -0.866026 0.500000
vn 0.000000 -0.866026 0.500000
vn 0.000000 -0.866026 0.500000
vn 0.000000 -0.965926 0.258819
vn 0.000000 -0.965926 0.258819
vn 0.000000 -0.965926 0.258819
vn 0.000000 -0.997859 0.065405
vn 0.000000 -0.997859 0.065405
vn 0.000000 -0.997859 0.065405
vn 0.000000 -1.000000 -0.000000
vn 0.000000 0.000000 -1.000000
vn 0.000000 0.000000 -1.000000
vn 0.000000 0.000000 -1.000000
vn 0.000000 -0.000000 1.000000
vn 0.000000 -0.000000 1.000000
vn 0.000000 -0.065403 0.997859
vn 0.000000 -0.065402 0.997859
vn 0.000000 -0.065402 0.997859
vn 0.000000 -0.258818 0.965926
vn 0.000000 -0.258818 0.965926
vn 0.000000 -0.258818 0.965926
vn 0.000000 -0.499999 0.866026
vn 0.000000 -0.499999 0.866026
vn 0.000000 -0.499999 0.866026
vn 0.000000 -0.707107 0.707107
vn 0.000000 -0.707107 0.707107
vn 0.000000 -0.707107 0.707107
vn 0.000000 -0.866026 0.500000
vn 0.000000 -0.866026 0.500000
vn 0.000000 -0.866026 0.500000
vn 0.000000 -0.962268 0.272103
vn 0.000000 -0.962268 0.272103
vn 0.000000 -0.962268 0.272103
vn 0.000000 -0.987472 0.157794
vn 0.000000 0.000000 -1.000000
vn 0.000000 0.000000 -1.000000
vn 0.000000 0.000000 -1.000000
vn 0.000000 -0.000000 1.000000
vn 0.000000 -0.000000 1.000000
vn 0.000000 -0.000000 1.000000
vn 0.000000 -0.000000 1.000000
vn 0.000000 -0.000000 1.000000
vn 0.000000 -0.065402 0.997859
vn 0.000000 -0.065402 0.997859
vn 0.000000 -0.065402 0.997859
vn 0.000000 -0.258819 0.965926
vn 0.000000 -0.258819 0.965926
vn 0.000000 -0.258819 0.965926
vn 0.000000 -0.500001 0.866025
vn 0.000000 -0.500001 0.866025
vn 0.000000 -0.500001 0.866025
vn 0.000000 -0.707107 0.707107
vn 0.000000 -0.707106 0.707107
vn 0.000000 -0.707107 0.707107
vn 0.000000 -0.866026 0.500000
vn 0.000000 -0.866026 0.500000
vn 0.000000 -0.866026 0.500000
vn 0.000000 -0.965926 0.258819
vn 0.000000 -0.965926 0.258819
vn 0.000000 -0.965926 0.258819
vn 0.000000 -0.997859 0.065405
vn 0.000000 -0.997859 0.065405
vn 0.000000 -0.997859 0.065405
vn 0.000000 -1.000000 -0.000000
vn 0.000000 0.000000 -1.000000
vn 0.000000 0.000000 -1.000000
vn 0.000000 0.000000 -1.000000
vn 0.000000 0.707109 0.707104
vn 0.000000 0.707107 0.707107
vn 0.000000 -0.065402 0.997859
vn -1.000000 0.000000 0.000000
vn -1.000000 0.000000 0.000000
vn -1.000000 0.000000 0.000000
vn -1.000000 0.000000 -0.000000
vn -1.000000 0.000000 0.000000
vn -1.000000 0.000000 0.000000
vn -1.000000 0.000001 -0.000000
vn -1.000000 -0.000000 0.000000
vn -1.000000 0.000000 -0.000000
vn -1.000000 -0.000000 0.000000
vn -1.000000 0.000000 0.000000
vn -1.000000 0.000000 -0.000000
vn -1.000000 0.000000 0.000000
vn -1.000000 0.000000 0.000000
vn -1.000000 0.000000 -0.000000
vn -1.000000 0.000000 -0.000000
vn -1.000000 0.000000 -0.000000
vn -1.000000 0.000000 -0.000000
vn -1.000000 0.000001 -0.000000
vn -1.000000 -0.000000 0.000000
vn -1.000000 0.000000 0.000000
vn -1.000000 -0.000000 0.000000
vn -1.000000 -0.000000 0.000000
vn -1.000000 0.000000 0.000000
vn -1.000000 -0.000000 0.000000
vn -1.000000 -0.000000 0.000000
vn -1.000000 0.000000 0.000000
vn -1.000000 0.000000 -0.000000
vn -1.000000 0.000000 0.000000
vn -1.000000 0.000000 -0.000000
vn -1.000000 -0.000000 0.000000
vn -1.000000 0.000000 -0.000000
vn -1.000000 0.000000 0.000000
vn -1.000000 0.000000 -0.000000
vn -1.000000 0.000000 -0.000000
vn -1.000000 0.000000 -0.000000
vn -1.000000 0.000000 0.000000
vn -1.000000 0.000000 0.000000
vn -1.000000 -0.000000 0.000000
vn 0.000000 0.707109 0.707104
vn 0.000000 0.707107 -0.707106
vn 0.000000 0.707109 -0.707105
vn 1.000000 0.000001 0.000001
vn 1.000000 0.000001 -0.000001
vn 1.000000 0.000001 -0.000001
vn 1.000000 0.000001 -0.000000
vn 1.000000 0.000001 -0.000000
vn 1.000000 0.000001 -0.000000
vn 0.000000 -1.000000 -0.000000
vn 0.000000 -1.000000 -0.000000
vn 0.000000 -1.000000 -0.000000
vn 0.000000 1.000000 0.000000
vn 0.000000 1.000000 0.000000
vn 0.000000 1.000000 0.000000
vn 1.000000 -0.000000 -0.000000
vn 1.000000 -0.000000 -0.000000
vn 1.000000 -0.000000 -0.000000
vn 1.000000 -0.000000 -0.000000
vn 1.000000 -0.000000 -0.000000
vn 1.000000 0.000000 0.000000
vn 1.000000 -0.000000 -0.000000
vn 1.000000 0.000000 0.000000
vn 1.000000 -0.000000 -0.000000
vn 1.000000 0.000000 -0.000000
vn 1.000000 -0.000000 -0.000000
vn 1.000000 -0.000000 -0.000000
vn 1.000000 -0.000000 -0.000000
vn 1.000000 -0.000000 -0.000000
vn 1.000000 -0.000000 -0.000000
vn 1.000000 -0.000001 -0.000001
vn 1.000000 -0.000000 0.000000
vn 1.000000 -0.000000 -0.000000
vn 1.000000 -0.000000 0.000000
vn 1.000000 -0.000000 -0.000000
vn 1.000000 -0.000000 -0.000000
vn 1.000000 0.000000 0.000000
vn 1.000000 0.000000 0.000000
vn 1.000000 0.000000 0.000000
vn 1.000000 0.000000 0.000000
vn 1.000000 -0.000000 -0.000000
vn 1.000000 -0.000000 -0.000000
vn 1.000000 -0.000001 0.000000
vn 1.000000 -0.000000 0.000000
vn 1.000000 -0.000000 -0.000000
vn 1.000000 -0.000000 -0.000000
vn 1.000000 -0.000000 -0.000000
vn 1.000000 -0.000000 -0.000000
vn 1.000000 0.000000 -0.000000
vn 1.000000 0.000008 -0.000005
vn 1.000000 0.000000 -0.000000
vn 1.000000 -0.000001 0.000000
vn 1.000000 0.000000 -0.000000
vn 1.000000 -0.000001 0.000000
vn 1.000000 -0.000000 -0.000000
vn 1.000000 -0.000000 -0.000000
vn 1.000000 -0.000001 0.000000
vn 1.000000 -0.000001 0.000000
vn 1.000000 0.000000 -0.000000
vn 1.000000 -0.000000 0.000000
vn 1.000000 -0.000001 0.000001
vn 1.000000 -0.000000 -0.000000
vn 1.000000 -0.000000 0.000000
vn 1.000000 -0.000000 -0.000000
vn 1.000000 -0.000000 0.000000
vn 1.000000 -0.000000 -0.000000
vn 1.000000 0.000000 -0.000000
vn 1.000000 -0.000001 0.000000
vn 1.000000 -0.000000 -0.000000
vn 1.000000 -0.000000 -0.000000
vn 1.000000 -0.000000 -0.000000
vn 1.000000 -0.000000 0.000000
vn 1.000000 -0.000000 -0.000000
vn 1.000000 0.000000 -0.000000
vn 1.000000 -0.000000 -0.000000
vn 1.000000 -0.000000 -0.000000
vn 1.000000 -0.000000 -0.000000
vn 1.000000 -0.000000 -0.000000
vn 1.000000 -0.000000 -0.000000
vn 1.000000 -0.000000 -0.000000
vn 1.000000 -0.000000 -0.000000
vn 1.000000 -0.000000 -0.000000
vn 1.000000 -0.000000 -0.000000
vn 1.000000 0.000000 -0.000000
vn 1.000000 -0.000000 -0.000000
vn 1.000000 -0.000000 -0.000000
vn 1.000000 -0.000000 -0.000000
vn 1.000000 -0.000000 -0.000000
vn 1.000000 -0.000000 -0.000000
vn 1.000000 -0.000000 -0.000000
vn 1.000000 -0.000000 -0.000000
vn 1.000000 -0.000000 -0.000000
vn 1.000000 -0.000000 -0.000000
s off
g SM_Mirror_01
f 78/510/1 102/511/2 77/4/3
f 77/4/4 66/3/5 76/6/6
f 76/6/7 67/5/8 75/8/9
f 75/8/10 68/7/11 74/10/12
f 74/10/13 69/9/14 73/12/15
f 73/12/16 70/11/17 72/14/18
f 78/1/19 79/15/20 102/2/21
f 86/512/22 113/513/23 85/19/24
f 85/19/25 104/18/26 84/21/27
f 84/21/28 105/20/29 83/23/30
f 83/23/31 106/22/32 82/25/33
f 82/25/34 107/24/35 81/27/36
f 81/27/37 108/26/38 80/515/39
f 86/16/40 87/476/41 113/17/42
f 80/29/43 110/477/44 79/475/45
f 79/15/46 110/31/47 102/2/48
f 280/516/49 281/517/50 92/35/51
f 92/35/52 114/34/53 91/37/54
f 91/37/55 115/36/56 90/39/57
f 90/39/58 116/38/59 89/41/60
f 89/41/61 117/40/62 88/43/63
f 88/43/64 119/44/65 87/30/66
f 281/601/67 284/599/68 283/603/69
f 87/476/70 119/478/71 113/17/72
f 99/528/73 121/529/74 98/50/75
f 98/50/76 122/49/77 97/52/78
f 97/52/79 123/51/80 96/54/81
f 96/54/82 124/53/83 95/56/84
f 95/56/85 125/55/86 94/58/87
f 94/58/88 126/57/89 93/60/90
f 121/48/91 100/61/92 103/71/93
f 93/456/94 285/458/95 284/452/96
f 284/608/97 285/606/98 283/604/99
f 102/2/100 111/64/101 101/65/102
f 113/17/103 120/66/104 112/67/105
f 283/604/106 285/606/107 282/602/108
f 8/558/109 66/432/110 102/559/111
f 1/72/112 67/434/113 66/432/114
f 2/73/115 68/435/116 67/434/117
f 3/74/118 69/437/119 68/435/120
f 4/75/121 70/438/122 69/437/123
f 5/76/124 71/440/125 70/438/126
f 6/534/127 205/368/128 71/535/129
f 38/80/130 73/335/131 72/336/132
f 39/81/133 74/337/134 73/335/135
f 40/82/136 75/381/137 74/337/138
f 41/83/139 76/431/140 75/381/141
f 42/84/142 77/436/143 76/431/144
f 43/85/145 78/439/146 77/436/147
f 131/86/148 79/441/149 78/439/150
f 44/87/151 80/442/152 79/441/153
f 45/88/154 81/443/155 80/442/156
f 46/89/157 82/444/158 81/443/159
f 47/90/160 83/445/161 82/444/162
f 48/91/163 84/446/164 83/445/165
f 49/92/166 85/447/167 84/446/168
f 50/93/169 86/448/170 85/447/171
f 51/94/172 87/449/173 86/448/174
f 52/95/175 88/450/176 87/449/177
f 53/96/178 89/451/179 88/450/180
f 54/97/181 90/453/182 89/451/183
f 55/98/184 91/455/185 90/453/186
f 56/99/187 92/457/188 91/455/189
f 57/100/190 280/539/191 92/457/192
f 130/607/193 284/600/194 280/597/195
f 279/102/196 93/555/197 284/460/198
f 58/103/199 94/464/200 93/462/201
f 59/104/202 95/466/203 94/464/204
f 60/105/205 96/468/206 95/466/207
f 61/106/208 97/470/209 96/468/210
f 62/107/211 98/472/212 97/470/213
f 63/108/214 99/547/215 98/472/216
f 64/109/217 100/533/218 99/474/219
f 65/573/220 129/574/221 100/575/222
f 7/540/223 102/433/224 101/541/225
f 37/579/226 121/356/227 103/578/228
f 18/352/229 104/480/230 113/483/231
f 9/116/232 105/491/233 104/480/234
f 10/117/235 106/496/236 105/491/237
f 11/118/238 107/498/239 106/496/240
f 12/119/241 108/490/242 107/498/243
f 13/120/244 109/351/245 108/490/246
f 14/121/247 110/350/248 109/351/249
f 15/122/250 111/492/251 110/493/252
f 17/115/253 113/339/254 112/365/255
f 19/344/256 114/482/257 281/484/258
f 20/125/259 115/487/260 114/482/261
f 21/126/262 116/488/263 115/487/264
f 22/127/265 117/494/266 116/488/267
f 23/128/268 118/495/269 117/494/270
f 24/129/271 119/497/272 118/495/273
f 25/130/274 120/499/275 119/500/276
f 27/124/277 283/132/278 282/349/279
f 28/140/280 281/366/281 283/172/282
f 29/340/283 122/342/284 121/343/285
f 30/134/286 123/481/287 122/342/288
f 31/135/289 124/486/290 123/481/291
f 32/136/292 125/489/293 124/486/294
f 33/137/295 126/501/296 125/489/297
f 34/138/298 127/502/299 126/501/300
f 35/139/301 285/507/302 127/508/303
f 278/595/304 128/509/305 285/605/306
f 279/292/307 130/291/308 129/301/309
f 44/277/310 52/285/311 51/284/312
f 130/291/313 57/290/314 52/285/315
f 52/285/316 129/301/317 130/291/318
f 49/282/319 48/281/320 46/279/321
f 50/283/322 49/282/323 45/278/324
f 51/284/325 45/278/326 44/277/327
f 57/290/328 56/289/329 53/286/330
f 54/287/331 56/289/332 55/288/333
f 43/275/334 42/274/335 39/271/336
f 131/276/337 43/275/338 38/270/339
f 40/272/340 42/274/341 41/273/342
f 129/301/343 64/299/344 279/292/345
f 63/298/346 62/297/347 59/294/348
f 64/299/349 63/298/350 58/293/351
f 60/295/352 62/297/353 61/296/354
f 211/143/355 200/144/356 199/519/357
f 210/146/358 201/147/359 200/144/360
f 209/148/361 202/149/362 201/147/363
f 208/150/364 203/151/365 202/149/366
f 207/152/367 204/153/368 203/151/369
f 206/154/370 205/79/371 204/153/372
f 206/347/373 72/333/374 205/345/375
f 212/142/376 199/145/377 213/155/378
f 219/157/379 239/158/380 238/521/381
f 218/160/382 240/161/383 239/158/384
f 217/162/385 241/163/386 240/161/387
f 216/164/388 242/165/389 241/163/390
f 215/166/391 243/167/392 242/165/393
f 214/522/394 244/523/395 243/167/396
f 238/159/397 221/469/398 220/156/399
f 214/168/400 245/471/401 244/169/402
f 213/155/403 199/145/404 245/171/405
f 226/173/406 248/174/407 276/527/408
f 225/176/409 249/177/410 248/174/411
f 224/178/412 250/179/413 249/177/414
f 223/180/415 251/181/416 250/179/417
f 222/182/418 252/183/419 251/181/420
f 222/182/421 253/184/422 252/183/423
f 276/590/424 275/588/425 227/586/426
f 221/469/427 238/159/428 253/473/429
f 233/188/430 258/189/431 257/531/432
f 232/191/433 259/192/434 258/189/435
f 231/193/436 260/194/437 259/192/438
f 230/195/439 261/196/440 260/194/441
f 229/197/442 262/198/443 261/196/444
f 228/199/445 263/200/446 262/198/447
f 257/190/448 235/201/449 234/187/450
f 228/461/451 277/465/452 263/463/453
f 275/587/454 256/185/455 277/593/456
f 199/145/457 246/203/458 245/171/459
f 238/159/460 254/205/461 253/473/462
f 255/206/463 264/207/464 277/593/465
f 139/429/466 200/372/467 132/210/468
f 132/210/469 201/375/470 133/211/471
f 133/211/472 202/377/473 134/212/474
f 134/212/475 203/379/476 135/213/477
f 135/213/478 204/214/479 136/78/480
f 136/78/481 205/360/482 137/359/483
f 38/548/484 72/549/485 170/556/486
f 170/215/487 207/380/488 171/216/489
f 171/216/490 208/378/491 172/217/492
f 172/217/493 209/376/494 173/218/495
f 173/218/496 210/374/497 174/219/498
f 174/219/499 211/371/500 175/220/501
f 175/220/502 212/370/503 266/221/504
f 266/221/505 213/524/506 176/525/507
f 176/222/508 214/396/509 177/223/510
f 177/223/511 215/394/512 178/224/513
f 178/224/514 216/392/515 179/225/516
f 179/225/517 217/390/518 180/226/519
f 180/226/520 218/388/521 181/227/522
f 181/227/523 219/385/524 182/228/525
f 182/228/526 220/384/527 183/229/528
f 183/229/529 221/398/530 184/230/531
f 184/230/532 222/409/533 185/231/534
f 185/231/535 223/407/536 186/232/537
f 186/232/538 224/405/539 187/233/540
f 187/233/541 225/403/542 188/234/543
f 188/234/544 226/400/545 189/235/546
f 189/235/547 227/551/548 265/550/549
f 265/594/550 275/589/551 190/584/552
f 190/236/553 228/553/554 191/552/555
f 191/237/556 229/423/557 192/238/558
f 192/238/559 230/421/560 193/239/561
f 193/239/562 231/419/563 194/240/564
f 194/240/565 232/417/566 195/241/567
f 195/241/568 233/414/569 196/242/570
f 196/242/571 234/244/572 197/243/573
f 197/544/574 235/413/575 198/428/576
f 138/209/577 199/542/578 139/543/579
f 140/561/580 239/386/581 141/247/582
f 141/247/583 240/389/584 142/248/585
f 142/248/586 241/391/587 143/249/588
f 143/249/589 242/393/590 144/250/591
f 144/250/592 243/395/593 145/251/594
f 145/251/595 244/397/596 146/252/597
f 146/252/598 245/563/599 147/564/600
f 147/253/601 246/565/602 148/566/603
f 149/246/604 238/387/605 140/430/606
f 150/341/607 248/358/608 151/256/609
f 151/256/610 249/401/611 152/257/612
f 152/257/613 250/406/614 153/258/615
f 153/258/616 251/408/617 154/259/618
f 154/259/619 252/410/620 155/260/621
f 155/260/622 253/503/623 156/504/624
f 156/261/625 254/567/626 157/568/627
f 158/255/628 256/263/629 159/402/630
f 159/186/631 276/591/632 150/582/633
f 160/404/634 258/415/635 161/264/636
f 161/264/637 259/418/638 162/265/639
f 162/265/640 260/420/641 163/266/642
f 163/266/643 261/422/644 164/267/645
f 164/267/646 262/424/647 165/268/648
f 165/268/649 263/505/650 166/506/651
f 166/269/652 277/569/653 167/570/654
f 167/583/655 264/571/656 168/572/657
f 169/580/658 257/416/659 160/427/660
f 198/332/661 129/301/662 197/331/663
f 190/324/664 129/301/665 265/323/666
f 176/309/667 184/317/668 129/301/669
f 184/317/670 185/318/671 189/322/672
f 184/317/673 265/323/674 129/301/675
f 178/311/676 179/312/677 180/313/678
f 177/310/679 178/311/680 181/314/681
f 183/316/682 177/310/683 182/315/684
f 185/318/685 186/319/686 188/321/687
f 186/319/688 187/320/689 188/321/690
f 171/303/691 172/304/692 174/306/693
f 170/302/694 171/303/695 175/307/696
f 172/304/697 173/305/698 174/306/699
f 170/302/700 266/308/701 38/270/702
f 190/324/703 191/325/704 197/331/705
f 192/326/706 193/327/707 195/329/708
f 191/325/709 192/326/710 196/330/711
f 193/327/712 194/328/713 195/329/714
f 176/309/715 129/301/716 44/277/717
f 266/308/718 176/309/719 131/276/720
f 237/369/721 169/479/722 103/537/723
f 235/110/724 237/111/725 100/367/726
f 65/300/727 64/299/728 129/301/729
f 129/574/730 235/576/731 100/575/732
f 129/574/733 198/577/734 235/576/735
f 273/32/736 270/45/737 269/46/738
f 271/101/739 269/114/740 267/133/741
f 274/62/742 268/68/743 270/70/744
f 303/610/745 304/611/746 308/612/747
f 297/614/748 298/615/749 299/616/750
f 296/618/751 297/614/752 300/613/753
f 302/619/754 296/618/755 301/617/756
f 304/611/757 305/621/758 307/622/759
f 305/621/760 306/623/761 307/622/762
f 289/625/763 290/626/764 292/627/765
f 288/629/766 289/625/767 293/624/768
f 290/626/769 291/630/770 292/627/771
f 312/632/772 313/633/773 315/634/774
f 311/636/775 312/632/776 316/631/777
f 313/633/778 314/637/779 315/634/780
f 340/638/781 339/639/782 334/641/783
f 334/641/784 303/610/785 340/638/786
f 331/642/787 330/643/788 328/645/789
f 332/646/790 331/642/791 327/647/792
f 333/648/793 327/647/794 326/649/795
f 339/639/796 338/650/797 335/640/798
f 336/651/799 338/650/800 337/652/801
f 324/653/802 323/654/803 320/656/804
f 325/657/805 324/653/806 319/658/807
f 321/655/808 323/654/809 322/659/810
f 347/660/811 346/661/812 343/663/813
f 317/664/814 347/660/815 342/665/816
f 344/662/817 346/661/818 345/666/819
f 334/641/820 333/648/821 303/610/822
f 326/649/823 325/657/824 295/620/825
f 325/657/826 288/629/827 294/628/828
f 333/648/829 326/649/830 302/619/831
f 309/609/832 310/667/833 340/638/834
f 310/667/835 317/664/836 341/668/837
f 286/635/838 318/670/839 317/664/840
f 317/664/841 342/665/842 341/668/843
f 310/667/844 311/636/845 286/635/846
f 102/511/847 66/3/848 77/4/849
f 66/3/850 67/5/851 76/6/852
f 67/5/853 68/7/854 75/8/855
f 68/7/856 69/9/857 74/10/858
f 69/9/859 70/11/860 73/12/861
f 70/11/862 71/13/863 72/14/864
f 113/513/865 104/18/866 85/19/867
f 104/18/868 105/20/869 84/21/870
f 105/20/871 106/22/872 83/23/873
f 106/22/874 107/24/875 82/25/876
f 107/24/877 108/26/878 81/27/879
f 108/26/880 109/514/881 80/515/882
f 80/29/883 109/28/884 110/477/885
f 281/517/886 114/34/887 92/35/888
f 114/34/889 115/36/890 91/37/891
f 115/36/892 116/38/893 90/39/894
f 116/38/895 117/40/896 89/41/897
f 117/40/898 118/42/899 88/43/900
f 88/43/901 118/42/902 119/44/903
f 281/601/904 280/598/905 284/599/906
f 121/529/907 122/49/908 98/50/909
f 122/49/910 123/51/911 97/52/912
f 123/51/913 124/53/914 96/54/915
f 124/53/916 125/55/917 95/56/918
f 125/55/919 126/57/920 94/58/921
f 126/57/922 127/59/923 93/60/924
f 121/48/925 99/47/926 100/61/927
f 93/456/928 127/454/929 285/458/930
f 102/2/931 110/31/932 111/64/933
f 113/17/934 119/478/935 120/66/936
f 285/606/937 128/69/938 282/602/939
f 8/558/940 1/72/941 66/432/942
f 1/72/943 2/73/944 67/434/945
f 2/73/946 3/74/947 68/435/948
f 3/74/949 4/75/950 69/437/951
f 4/75/952 5/76/953 70/438/954
f 5/76/955 6/77/956 71/440/957
f 6/534/958 137/338/959 205/368/960
f 38/80/961 39/81/962 73/335/963
f 39/81/964 40/82/965 74/337/966
f 40/82/967 41/83/968 75/381/969
f 41/83/970 42/84/971 76/431/972
f 42/84/973 43/85/974 77/436/975
f 43/85/976 131/86/977 78/439/978
f 131/86/979 44/87/980 79/441/981
f 44/87/982 45/88/983 80/442/984
f 45/88/985 46/89/986 81/443/987
f 46/89/988 47/90/989 82/444/990
f 47/90/991 48/91/992 83/445/993
f 48/91/994 49/92/995 84/446/996
f 49/92/997 50/93/998 85/447/999
f 50/93/1000 51/94/1001 86/448/1002
f 51/94/1003 52/95/1004 87/449/1005
f 52/95/1006 53/96/1007 88/450/1008
f 53/96/1009 54/97/1010 89/451/1011
f 54/97/1012 55/98/1013 90/453/1014
f 55/98/1015 56/99/1016 91/455/1017
f 56/99/1018 57/100/1019 92/457/1020
f 57/100/1021 130/538/1022 280/539/1023
f 130/607/1024 279/596/1025 284/600/1026
f 279/102/1027 58/554/1028 93/555/1029
f 58/103/1030 59/104/1031 94/464/1032
f 59/104/1033 60/105/1034 95/466/1035
f 60/105/1036 61/106/1037 96/468/1038
f 61/106/1039 62/107/1040 97/470/1041
f 62/107/1042 63/108/1043 98/472/1044
f 63/108/1045 64/546/1046 99/547/1047
f 64/109/1048 65/532/1049 100/533/1050
f 7/540/1051 8/334/1052 102/433/1053
f 37/579/1054 29/141/1055 121/356/1056
f 18/352/1057 9/116/1058 104/480/1059
f 9/116/1060 10/117/1061 105/491/1062
f 10/117/1063 11/118/1064 106/496/1065
f 11/118/1066 12/119/1067 107/498/1068
f 12/119/1069 13/120/1070 108/490/1071
f 13/120/1072 14/121/1073 109/351/1074
f 14/121/1075 15/346/1076 110/350/1077
f 15/122/1078 16/348/1079 111/492/1080
f 17/115/1081 18/123/1082 113/339/1083
f 19/344/1084 20/125/1085 114/482/1086
f 20/125/1087 21/126/1088 115/487/1089
f 21/126/1090 22/127/1091 116/488/1092
f 22/127/1093 23/128/1094 117/494/1095
f 23/128/1096 24/129/1097 118/495/1098
f 24/129/1099 25/353/1100 119/497/1101
f 25/130/1102 26/354/1103 120/499/1104
f 27/124/1105 28/131/1106 283/132/1107
f 28/140/1108 19/355/1109 281/366/1110
f 29/340/1111 30/134/1112 122/342/1113
f 30/134/1114 31/135/1115 123/481/1116
f 31/135/1117 32/136/1118 124/486/1119
f 32/136/1120 33/137/1121 125/489/1122
f 33/137/1123 34/138/1124 126/501/1125
f 34/138/1126 35/361/1127 127/502/1128
f 35/139/1129 278/362/1130 285/507/1131
f 278/595/1132 36/364/1133 128/509/1134
f 44/277/1135 129/301/1136 52/285/1137
f 57/290/1138 53/286/1139 52/285/1140
f 48/281/1141 47/280/1142 46/279/1143
f 49/282/1144 46/279/1145 45/278/1146
f 51/284/1147 50/283/1148 45/278/1149
f 56/289/1150 54/287/1151 53/286/1152
f 42/274/1153 40/272/1154 39/271/1155
f 43/275/1156 39/271/1157 38/270/1158
f 64/299/1159 58/293/1160 279/292/1161
f 62/297/1162 60/295/1163 59/294/1164
f 63/298/1165 59/294/1166 58/293/1167
f 199/519/1168 212/518/1169 211/143/1170
f 200/144/1171 211/143/1172 210/146/1173
f 201/147/1174 210/146/1175 209/148/1176
f 202/149/1177 209/148/1178 208/150/1179
f 203/151/1180 208/150/1181 207/152/1182
f 204/153/1183 207/152/1184 206/154/1185
f 72/333/1186 71/112/1187 205/345/1188
f 238/521/1189 220/520/1190 219/157/1191
f 239/158/1192 219/157/1193 218/160/1194
f 240/161/1195 218/160/1196 217/162/1197
f 241/163/1198 217/162/1199 216/164/1200
f 242/165/1201 216/164/1202 215/166/1203
f 243/167/1204 215/166/1205 214/522/1206
f 214/168/1207 213/467/1208 245/471/1209
f 276/527/1210 227/526/1211 226/173/1212
f 248/174/1213 226/173/1214 225/176/1215
f 249/177/1216 225/176/1217 224/178/1218
f 250/179/1219 224/178/1220 223/180/1221
f 251/181/1222 223/180/1223 222/182/1224
f 222/182/1225 221/170/1226 253/184/1227
f 276/590/1228 256/560/1229 275/588/1230
f 257/531/1231 234/530/1232 233/188/1233
f 258/189/1234 233/188/1235 232/191/1236
f 259/192/1237 232/191/1238 231/193/1239
f 260/194/1240 231/193/1241 230/195/1242
f 261/196/1243 230/195/1244 229/197/1245
f 262/198/1246 229/197/1247 228/199/1248
f 257/190/1249 237/208/1250 235/201/1251
f 228/461/1252 275/459/1253 277/465/1254
f 199/145/1255 236/202/1256 246/203/1257
f 238/159/1258 247/204/1259 254/205/1260
f 277/593/1261 256/185/1262 255/206/1263
f 139/429/1264 199/373/1265 200/372/1266
f 132/210/1267 200/372/1268 201/375/1269
f 133/211/1270 201/375/1271 202/377/1272
f 134/212/1273 202/377/1274 203/379/1275
f 135/213/1276 203/379/1277 204/214/1278
f 136/78/1279 204/214/1280 205/360/1281
f 72/549/1282 206/557/1283 170/556/1284
f 170/215/1285 206/382/1286 207/380/1287
f 171/216/1288 207/380/1289 208/378/1290
f 172/217/1291 208/378/1292 209/376/1293
f 173/218/1294 209/376/1295 210/374/1296
f 174/219/1297 210/374/1298 211/371/1299
f 175/220/1300 211/371/1301 212/370/1302
f 266/221/1303 212/370/1304 213/524/1305
f 176/222/1306 213/383/1307 214/396/1308
f 177/223/1309 214/396/1310 215/394/1311
f 178/224/1312 215/394/1313 216/392/1314
f 179/225/1315 216/392/1316 217/390/1317
f 180/226/1318 217/390/1319 218/388/1320
f 181/227/1321 218/388/1322 219/385/1323
f 182/228/1324 219/385/1325 220/384/1326
f 183/229/1327 220/384/1328 221/398/1329
f 184/230/1330 221/398/1331 222/409/1332
f 185/231/1333 222/409/1334 223/407/1335
f 186/232/1336 223/407/1337 224/405/1338
f 187/233/1339 224/405/1340 225/403/1341
f 188/234/1342 225/403/1343 226/400/1344
f 189/235/1345 226/400/1346 227/551/1347
f 265/594/1348 227/585/1349 275/589/1350
f 190/236/1351 275/412/1352 228/553/1353
f 191/237/1354 228/425/1355 229/423/1356
f 192/238/1357 229/423/1358 230/421/1359
f 193/239/1360 230/421/1361 231/419/1362
f 194/240/1363 231/419/1364 232/417/1365
f 195/241/1366 232/417/1367 233/414/1368
f 196/242/1369 233/414/1370 234/244/1371
f 197/544/1372 234/545/1373 235/413/1374
f 138/209/1375 236/245/1376 199/542/1377
f 140/561/1378 238/562/1379 239/386/1380
f 141/247/1381 239/386/1382 240/389/1383
f 142/248/1384 240/389/1385 241/391/1386
f 143/249/1387 241/391/1388 242/393/1389
f 144/250/1390 242/393/1391 243/395/1392
f 145/251/1393 243/395/1394 244/397/1395
f 146/252/1396 244/397/1397 245/563/1398
f 147/253/1399 245/399/1400 246/565/1401
f 149/246/1402 247/254/1403 238/387/1404
f 150/341/1405 276/357/1406 248/358/1407
f 151/256/1408 248/358/1409 249/401/1410
f 152/257/1411 249/401/1412 250/406/1413
f 153/258/1414 250/406/1415 251/408/1416
f 154/259/1417 251/408/1418 252/410/1419
f 155/260/1420 252/410/1421 253/503/1422
f 156/261/1423 253/411/1424 254/567/1425
f 158/255/1426 255/262/1427 256/263/1428
f 159/186/1429 256/175/1430 276/591/1431
f 160/404/1432 257/485/1433 258/415/1434
f 161/264/1435 258/415/1436 259/418/1437
f 162/265/1438 259/418/1439 260/420/1440
f 163/266/1441 260/420/1442 261/422/1443
f 164/267/1444 261/422/1445 262/424/1446
f 165/268/1447 262/424/1448 263/505/1449
f 166/269/1450 263/426/1451 277/569/1452
f 167/583/1453 277/592/1454 264/571/1455
f 169/580/1456 237/581/1457 257/416/1458
f 176/309/1459 183/316/1460 184/317/1461
f 189/322/1462 265/323/1463 184/317/1464
f 180/313/1465 181/314/1466 178/311/1467
f 181/314/1468 182/315/1469 177/310/1470
f 183/316/1471 176/309/1472 177/310/1473
f 188/321/1474 189/322/1475 185/318/1476
f 174/306/1477 175/307/1478 171/303/1479
f 175/307/1480 266/308/1481 170/302/1482
f 266/308/1483 131/276/1484 38/270/1485
f 197/331/1486 129/301/1487 190/324/1488
f 195/329/1489 196/330/1490 192/326/1491
f 196/330/1492 197/331/1493 191/325/1494
f 176/309/1495 44/277/1496 131/276/1497
f 169/479/1498 37/536/1499 103/537/1500
f 237/111/1501 103/363/1502 100/367/1503
f 273/32/1504 274/33/1505 270/45/1506
f 271/101/1507 273/113/1508 269/114/1509
f 274/62/1510 272/63/1511 268/68/1512
f 308/612/1513 309/609/1514 303/610/1515
f 299/616/1516 300/613/1517 297/614/1518
f 300/613/1519 301/617/1520 296/618/1521
f 302/619/1522 295/620/1523 296/618/1524
f 307/622/1525 308/612/1526 304/611/1527
f 292/627/1528 293/624/1529 289/625/1530
f 293/624/1531 294/628/1532 288/629/1533
f 315/634/1534 316/631/1535 312/632/1536
f 316/631/1537 286/635/1538 311/636/1539
f 339/639/1540 335/640/1541 334/641/1542
f 303/610/1543 309/609/1544 340/638/1545
f 330/643/1546 329/644/1547 328/645/1548
f 331/642/1549 328/645/1550 327/647/1551
f 333/648/1552 332/646/1553 327/647/1554
f 338/650/1555 336/651/1556 335/640/1557
f 323/654/1558 321/655/1559 320/656/1560
f 324/653/1561 320/656/1562 319/658/1563
f 346/661/1564 344/662/1565 343/663/1566
f 347/660/1567 343/663/1568 342/665/1569
f 333/648/1570 302/619/1571 303/610/1572
f 325/657/1573 294/628/1574 295/620/1575
f 325/657/1576 319/658/1577 288/629/1578
f 326/649/1579 295/620/1580 302/619/1581
f 310/667/1582 341/668/1583 340/638/1584
f 310/667/1585 286/635/1586 317/664/1587
f 286/635/1588 287/669/1589 318/670/1590
