# This file uses feet as units for non-parametric coordinates.

g default
v 1.918549 12.456268 17.068710
v -0.071014 16.345528 17.068710
v 4.524826 9.487289 17.068710
v 3.165619 10.888115 17.068710
v 0.867706 14.317230 17.068710
v -2.060593 6.518311 17.068710
v -0.071014 2.629051 17.068710
v -4.666855 9.487289 17.068710
v -3.307663 8.086464 17.068710
v -1.009735 4.657349 17.068710
v 1.918549 6.518311 17.068710
v 3.165619 8.086464 17.068710
v 0.867706 4.657349 17.068710
v -2.060593 12.456268 17.068710
v -3.307663 10.888115 17.068710
v -1.009735 14.317230 17.068710
v 1.918549 12.456268 15.609818
v 0.867706 14.317230 15.609818
v -0.071014 16.345528 15.609818
v 3.165619 10.888115 15.609818
v 4.524826 9.487289 15.609818
v -2.060593 6.518311 15.609818
v -1.009735 4.657349 15.609818
v -0.071014 2.629051 15.609818
v -3.307663 8.086464 15.609818
v -4.666855 9.487289 15.609818
v 1.918549 6.518311 15.609818
v 0.867706 4.657349 15.609818
v 3.165619 8.086464 15.609818
v -2.060593 12.456268 15.609818
v -1.009735 14.317230 15.609818
v -3.307663 10.888115 15.609818
v 0.609177 11.114571 16.943649
v -0.071014 11.248024 16.943649
v 1.183884 10.744339 16.943649
v -0.751205 11.114571 16.943649
v -1.325912 10.744339 16.943649
v -0.751205 7.860008 16.943649
v -1.325912 8.230240 16.943649
v -0.071014 7.726555 16.943649
v 0.609177 7.860008 16.943649
v 1.183884 8.230240 16.943649
v 1.547699 8.807106 16.943649
v 1.676865 9.487289 16.943649
v 1.547699 10.167473 16.943649
v -1.689728 8.807106 16.943649
v -1.818893 9.487289 16.943649
v -1.689728 10.167473 16.943649
v 0.609177 11.114571 17.761154
v 1.183899 10.744339 17.761154
v 1.547699 10.167473 17.761154
v 1.676865 9.487289 17.761154
v 1.547699 8.807106 17.761154
v 1.183899 8.230240 17.761154
v 0.609177 7.860008 17.761154
v -0.071014 7.726555 17.761154
v -0.751205 7.860008 17.761154
v -1.325912 8.230240 17.761154
v -1.689728 8.807106 17.761154
v -1.818893 9.487289 17.761154
v -1.689728 10.167473 17.761154
v -1.325912 10.744339 17.761154
v -0.751205 11.114571 17.761154
v -0.071014 11.248024 17.761154
v 0.840515 11.664627 19.090767
v 1.607559 11.169472 19.091164
v 2.094162 10.399559 19.090668
v 2.267334 9.487289 19.090553
v 2.094162 8.575020 19.090668
v 1.607559 7.805107 19.091164
v 0.840515 7.309952 19.090767
v -0.071014 7.131332 19.090767
v -0.982544 7.309952 19.090767
v -1.749573 7.805107 19.091164
v -2.236191 8.575020 19.090668
v -2.409363 9.487289 19.090553
v -2.236191 10.399559 19.090668
v -1.749573 11.169472 19.091164
v -0.982544 11.664627 19.090767
v -0.071014 11.843246 19.090767
v -0.081055 9.487289 21.167496
v 0.581192 11.029396 20.701263
v 1.118271 10.682930 20.702576
v 1.459167 10.143471 20.701080
v 1.584030 9.487289 20.700943
v 1.459167 8.831108 20.701080
v 1.118271 8.291649 20.702576
v 0.581192 7.945183 20.701263
v -0.070999 7.816986 20.701309
v -0.723160 7.945023 20.701210
v -1.260406 8.291481 20.702484
v -1.601440 8.830986 20.700943
v -1.726425 9.487289 20.700775
v -1.601440 10.143593 20.700943
v -1.260406 10.683098 20.702484
v -0.723160 11.029556 20.701210
v -0.070999 11.157593 20.701309
v -2.120300 10.354294 20.047409
v -2.284866 9.487289 20.047363
v -2.120300 8.620285 20.047409
v -1.661392 7.892326 20.048447
v -0.936356 7.425423 20.047516
v -0.071014 7.255676 20.047577
v 0.794327 7.425423 20.047539
v 1.519379 7.892326 20.048409
v 1.978271 8.620285 20.047409
v 2.142838 9.487289 20.047363
v 1.978271 10.354294 20.047409
v 1.519379 11.082253 20.048447
v 0.794327 11.549156 20.047516
v -0.071014 11.718903 20.047577
v -0.936356 11.549156 20.047516
v -1.661392 11.082253 20.048447
v -6.132996 0.000000 16.399696
v -12.194977 0.000000 15.808609
v -18.256958 0.000000 14.795319
v 18.114914 0.000000 13.528709
v 12.052933 0.000000 14.795319
v 5.990967 0.000000 15.808609
v -0.071014 0.000000 16.399696
v -9.163986 0.000000 16.167480
v -21.287949 0.000000 14.183121
v 15.083923 0.000000 14.183121
v 2.959976 0.000000 16.167480
v -15.225967 0.000000 15.344185
v 9.021957 0.000000 15.344177
v 21.287949 0.000000 12.821526
v -3.102005 0.000000 16.484131
v -3.102005 18.974579 16.484131
v -6.132996 18.974579 16.399696
v -9.163986 18.974579 16.167480
v -12.194977 18.974579 15.808609
v -15.225967 18.974579 15.344185
v -18.256958 18.974579 14.795319
v -21.287949 18.974579 14.183121
v 18.114914 18.974579 13.528709
v 21.287949 18.974579 12.821526
v 15.083923 18.974579 14.183121
v 12.052933 18.974579 14.795319
v 9.021957 18.974579 15.344177
v 5.990967 18.974579 15.808609
v 2.959976 18.974579 16.167480
v -0.071014 18.974579 16.399696
v -3.102005 18.974579 13.190285
v -6.132996 18.974579 13.105843
v -9.163986 18.974571 12.873627
v -12.194977 18.974586 12.514763
v -15.225967 18.974564 12.050331
v -18.256958 18.974586 11.501472
v -21.287949 18.974564 10.889275
v 17.000229 18.974579 10.474785
v 19.735214 18.974579 9.836578
v 14.497665 18.974571 11.007683
v 11.757736 18.974586 11.554924
v 9.021957 18.974571 12.050331
v 5.990967 18.974579 12.514755
v 2.959976 18.974571 12.873634
v -0.071014 18.974571 13.105843
v -3.102005 0.000000 13.190285
v -6.132996 0.000000 13.105843
v -9.163986 -0.000008 12.873627
v -12.194977 0.000008 12.514763
v -15.225967 -0.000015 12.050331
v -18.256958 0.000008 11.501472
v -21.287949 -0.000015 10.889275
v 19.735214 0.000000 9.836578
v 17.000229 0.000000 10.474785
v 14.497665 -0.000008 11.007683
v 11.757736 0.000008 11.554924
v 9.021957 -0.000008 12.050331
v 5.990967 0.000000 12.514755
v 2.959976 -0.000008 12.873634
v -0.071014 -0.000008 13.105843
v 3.580856 18.974579 -15.923508
v 3.580856 0.000000 -15.923506
v 19.735214 0.000000 9.836578
v 17.000229 0.000000 10.474785
v 19.735214 18.974571 9.836578
v 17.000229 18.974571 10.474785
v 6.193466 18.974571 -16.484133
v 6.193466 0.000000 -16.484131
v 18.367722 6.226105 10.155678
v 18.367722 9.237587 10.155678
v 19.735214 6.226105 9.836578
v 19.735214 9.237587 9.836578
v 6.193466 6.226105 -16.484133
v 6.193466 9.237587 -16.484133
v 4.722244 6.226105 -16.168428
v 4.722244 9.237587 -16.168428
v 5.096222 18.974579 -12.940916
v -0.136703 18.974594 -11.853092
v -6.198685 18.974594 -10.839802
v -12.260666 18.974594 -10.248714
v 2.894287 18.974594 -12.465286
v -9.229660 18.974594 -10.480927
v -3.167694 18.974594 -11.304230
v -14.926254 18.974579 -10.176637
v -16.602783 18.974579 -13.492304
v 1.542755 18.974594 -15.486156
v -1.332886 18.974594 -14.933313
v -4.169891 18.974594 -14.447666
v -7.274475 18.974594 -14.010933
v -10.091766 18.974594 -13.714069
v -13.160553 18.974594 -13.532600
v -16.602783 0.000000 -13.492304
v 1.542755 0.000000 -15.486156
v -1.332886 0.000000 -14.933313
v -4.169891 0.000000 -14.447666
v -7.274475 0.000000 -14.010933
v -10.091766 0.000000 -13.714069
v -13.160553 0.000000 -13.532600
v 5.097336 3.510902 -12.940948
v 2.894287 3.510902 -12.465289
v -0.136703 3.510902 -11.853092
v -3.167694 3.510902 -11.304227
v -6.198685 3.510902 -10.839802
v -9.229660 3.510902 -10.480927
v -12.260666 3.510902 -10.248714
v -14.926254 3.510895 -10.176637
v -0.071014 3.510902 13.105843
v -3.070633 3.510910 13.192833
v -3.070633 0.000000 13.192833
v -0.071014 0.000000 13.105843
v 2.959976 3.510902 12.873634
v 2.959976 0.000000 12.873634
v 5.990967 3.510902 12.514755
v 5.990967 0.000000 12.514755
v 9.021957 3.510902 12.050323
v 9.021973 0.000000 12.050323
v 11.757736 3.510902 11.554924
v 11.757751 0.000000 11.554924
v 14.497665 3.510902 11.007683
v 14.497665 0.000000 11.007683
v 17.000244 3.510902 10.474785
v -6.132996 6.226105 13.105843
v -6.132996 9.237587 13.105843
v -19.513626 6.226105 -13.490078
v -19.513626 9.237587 -13.490078
v -18.060379 9.237587 -13.490078
v -18.060379 6.226105 -13.490078
v -4.586121 6.226105 13.150612
v -4.586121 9.237587 13.150612
v -6.132996 0.000000 13.105843
v -6.132996 18.974571 13.105843
v -19.513626 18.974571 -13.490078
v -19.513626 0.000000 -13.490078
v -3.039261 18.974571 13.195381
vt 0.193303 0.962282
vt 0.193303 0.970022
vt 0.188001 0.970022
vt 0.188001 0.962282
vt 0.193303 0.978035
vt 0.188001 0.978035
vt 0.193303 0.948034
vt 0.193303 0.955021
vt 0.188001 0.955021
vt 0.188001 0.948034
vt 0.213436 0.978037
vt 0.213436 0.970024
vt 0.218738 0.970024
vt 0.218738 0.978037
vt 0.213436 0.955023
vt 0.213436 0.948036
vt 0.218738 0.948036
vt 0.218738 0.955023
vt 0.210034 0.962282
vt 0.210034 0.970022
vt 0.204732 0.970022
vt 0.204732 0.962282
vt 0.210034 0.978035
vt 0.204732 0.978035
vt 0.210034 0.948034
vt 0.210034 0.955021
vt 0.204732 0.955021
vt 0.204732 0.948034
vt 0.196282 0.978035
vt 0.196282 0.970022
vt 0.201584 0.970022
vt 0.201584 0.978035
vt 0.196282 0.955021
vt 0.196282 0.948034
vt 0.201584 0.948034
vt 0.201584 0.955021
vt 0.196282 0.962282
vt 0.201584 0.962282
vt 0.213436 0.962284
vt 0.218738 0.962284
vt 0.119416 0.976586
vt 0.114498 0.971517
vt 0.119416 0.966448
vt 0.123928 0.960774
vt 0.127731 0.954041
vt 0.131127 0.946701
vt 0.134524 0.954041
vt 0.138326 0.960774
vt 0.142839 0.966448
vt 0.147757 0.971517
vt 0.142839 0.976586
vt 0.138326 0.982260
vt 0.134524 0.988993
vt 0.131127 0.996333
vt 0.127731 0.988993
vt 0.123928 0.982260
vt 0.171366 0.987278
vt 0.171366 0.984320
vt 0.173874 0.987278
vt 0.173874 0.984320
vt 0.168892 0.987278
vt 0.168892 0.984320
vt 0.166425 0.987278
vt 0.166425 0.984320
vt 0.163920 0.987278
vt 0.163920 0.984320
vt 0.161415 0.987278
vt 0.161415 0.984320
vt 0.158947 0.987278
vt 0.158947 0.984320
vt 0.156473 0.987278
vt 0.156473 0.984320
vt 0.153965 0.987278
vt 0.153965 0.984320
vt 0.193782 0.987278
vt 0.191275 0.987278
vt 0.193782 0.984320
vt 0.191275 0.984320
vt 0.188802 0.987278
vt 0.188802 0.984320
vt 0.186334 0.987278
vt 0.186334 0.984320
vt 0.183829 0.987278
vt 0.183829 0.984320
vt 0.181324 0.987278
vt 0.181324 0.984320
vt 0.178856 0.987278
vt 0.178856 0.984320
vt 0.176382 0.987278
vt 0.176382 0.984320
vt 0.173871 0.991127
vt 0.173871 0.996446
vt 0.171030 0.991127
vt 0.171030 0.996446
vt 0.168195 0.991127
vt 0.168195 0.996446
vt 0.165301 0.991127
vt 0.165301 0.996446
vt 0.162406 0.991127
vt 0.162406 0.996446
vt 0.159564 0.991127
vt 0.159564 0.996446
vt 0.156706 0.991127
vt 0.156706 0.996446
vt 0.153763 0.991127
vt 0.153763 0.996446
vt 0.199760 0.991127
vt 0.199760 0.996446
vt 0.196817 0.991127
vt 0.196817 0.996446
vt 0.193959 0.991127
vt 0.193959 0.996446
vt 0.191117 0.991127
vt 0.191117 0.996446
vt 0.188221 0.991127
vt 0.188221 0.996446
vt 0.185328 0.991127
vt 0.185328 0.996446
vt 0.182492 0.991127
vt 0.182492 0.996446
vt 0.179651 0.991127
vt 0.179651 0.996446
vt 0.176762 0.991127
vt 0.176762 0.996446
vt 0.167115 0.971779
vt 0.169032 0.972174
vt 0.166024 0.974360
vt 0.169035 0.974963
vt 0.169024 0.967083
vt 0.172040 0.974346
vt 0.170942 0.971765
vt 0.174664 0.972612
vt 0.172646 0.970634
vt 0.173798 0.968963
vt 0.176428 0.970036
vt 0.174214 0.967088
vt 0.177054 0.967091
vt 0.176441 0.964139
vt 0.173810 0.965209
vt 0.174689 0.961568
vt 0.172673 0.963544
vt 0.170976 0.962429
vt 0.172067 0.959847
vt 0.169060 0.962032
vt 0.169056 0.959245
vt 0.166051 0.959861
vt 0.167148 0.962442
vt 0.163427 0.961596
vt 0.165444 0.963572
vt 0.164292 0.965245
vt 0.161663 0.964172
vt 0.161037 0.967117
vt 0.163876 0.967120
vt 0.161650 0.970069
vt 0.164281 0.969000
vt 0.163403 0.972641
vt 0.165418 0.970664
vt 0.160560 0.958790
vt 0.157934 0.962641
vt 0.164482 0.956201
vt 0.169046 0.955286
vt 0.173622 0.956186
vt 0.177549 0.958767
vt 0.180170 0.962620
vt 0.181082 0.967098
vt 0.180156 0.971566
vt 0.177530 0.975417
vt 0.173609 0.978006
vt 0.169045 0.978921
vt 0.164470 0.978022
vt 0.160542 0.975441
vt 0.157922 0.971589
vt 0.157009 0.967109
vt 0.699150 0.722091
vt 0.699150 0.790748
vt 0.687389 0.722091
vt 0.687389 0.790748
vt 0.849688 0.341231
vt 0.837833 0.341231
vt 0.849688 0.330489
vt 0.837833 0.330489
vt 0.849688 0.352049
vt 0.837833 0.352049
vt 0.849688 0.362998
vt 0.837833 0.362998
vt 0.849688 0.374099
vt 0.837833 0.374099
vt 0.849688 0.385338
vt 0.837833 0.385338
vt 0.849688 0.396671
vt 0.837833 0.396671
vt 0.849688 0.255562
vt 0.837833 0.255562
vt 0.849688 0.244507
vt 0.837833 0.244507
vt 0.849688 0.265886
vt 0.837833 0.265886
vt 0.837833 0.276560
vt 0.849688 0.276560
vt 0.837833 0.287126
vt 0.849688 0.287126
vt 0.837833 0.298116
vt 0.849688 0.298116
vt 0.837833 0.308985
vt 0.849688 0.308985
vt 0.837833 0.319762
vt 0.849688 0.319762
vt 0.151241 0.811400
vt 0.151241 0.880451
vt 0.140210 0.811400
vt 0.140210 0.880451
vt 0.505845 0.001953
vt 0.517312 0.001953
vt 0.505845 0.074846
vt 0.517312 0.074846
vt 0.543280 0.790748
vt 0.543280 0.722091
vt 0.554471 0.790748
vt 0.554471 0.722091
vt 0.565618 0.790748
vt 0.565618 0.722091
vt 0.576715 0.790748
vt 0.576715 0.722091
vt 0.587758 0.790748
vt 0.587758 0.722091
vt 0.598755 0.790748
vt 0.598755 0.722091
vt 0.609723 0.790748
vt 0.609723 0.722091
vt 0.620693 0.790748
vt 0.620693 0.722091
vt 0.631694 0.790748
vt 0.631694 0.722091
vt 0.642741 0.790748
vt 0.642741 0.722091
vt 0.653838 0.790748
vt 0.653838 0.722091
vt 0.664984 0.790748
vt 0.664984 0.722091
vt 0.676171 0.790748
vt 0.676171 0.722091
vt 0.001953 0.880451
vt 0.001953 0.811400
vt 0.011906 0.880451
vt 0.011906 0.811400
vt 0.021013 0.811400
vt 0.021013 0.880451
vt 0.030984 0.880451
vt 0.030984 0.811400
vt 0.040940 0.880451
vt 0.040940 0.811400
vt 0.051970 0.880451
vt 0.051970 0.811400
vt 0.063000 0.880451
vt 0.063000 0.811400
vt 0.074030 0.880451
vt 0.074030 0.811400
vt 0.085060 0.880451
vt 0.085060 0.811400
vt 0.096090 0.880451
vt 0.096090 0.811400
vt 0.107120 0.880451
vt 0.107120 0.811400
vt 0.118150 0.880451
vt 0.118150 0.811400
vt 0.129181 0.880451
vt 0.129181 0.811400
vt 0.086771 0.217982
vt 0.074852 0.217982
vt 0.086771 0.149326
vt 0.074852 0.149326
vt 0.291122 0.866841
vt 0.291122 0.877582
vt 0.279266 0.866841
vt 0.279266 0.877582
vt 0.291122 0.856022
vt 0.279266 0.856022
vt 0.291122 0.845074
vt 0.279266 0.845074
vt 0.291122 0.833973
vt 0.279266 0.833973
vt 0.291122 0.822734
vt 0.279266 0.822734
vt 0.291122 0.811400
vt 0.279266 0.811400
vt 0.291122 0.952509
vt 0.291122 0.963564
vt 0.279266 0.952509
vt 0.279266 0.963564
vt 0.291122 0.942186
vt 0.279266 0.942186
vt 0.291122 0.931511
vt 0.279266 0.931511
vt 0.291122 0.920946
vt 0.279266 0.920946
vt 0.291122 0.909956
vt 0.279266 0.909956
vt 0.291122 0.899086
vt 0.279266 0.899086
vt 0.291122 0.888310
vt 0.279266 0.888310
vt 0.814190 0.940493
vt 0.836752 0.944704
vt 0.814190 0.950133
vt 0.836752 0.950133
vt 0.847664 0.950133
vt 0.847664 0.944704
vt 0.882948 0.950133
vt 0.882948 0.940493
vt 0.843540 0.532092
vt 0.843588 0.519987
vt 0.852897 0.529656
vt 0.469416 0.025844
vt 0.368420 0.025844
vt 0.469416 0.001953
vt 0.368420 0.001953
vt 0.454322 0.647809
vt 0.347015 0.647809
vt 0.452886 0.642720
vt 0.345762 0.642720
vt 0.869100 0.478017
vt 0.869100 0.579106
vt 0.857536 0.478017
vt 0.857536 0.579106
vt 0.421125 0.901876
vt 0.422361 0.896785
vt 0.528207 0.901876
vt 0.529626 0.896785
vt 0.269436 0.921375
vt 0.168440 0.921375
vt 0.269436 0.884013
vt 0.168440 0.884013
vt 0.870066 0.699150
vt 0.860698 0.696728
vt 0.870066 0.591827
vt 0.860698 0.589356
vt 0.843987 0.424942
vt 0.853865 0.422557
vt 0.826047 0.536883
vt 0.824905 0.524981
vt 0.836241 0.533993
vt 0.835697 0.522031
vt 0.816087 0.539926
vt 0.814215 0.528136
vt 0.805342 0.543564
vt 0.803662 0.531564
vt 0.795753 0.547185
vt 0.793281 0.535333
vt 0.785538 0.551589
vt 0.783107 0.539511
vt 0.521726 0.263505
vt 0.465455 0.263505
vt 0.521726 0.252476
vt 0.465455 0.252476
vt 0.521726 0.241447
vt 0.465455 0.241447
vt 0.521726 0.230417
vt 0.465455 0.230417
vt 0.882948 0.932973
vt 0.814190 0.932973
vt 0.882948 0.922390
vt 0.814190 0.922390
vt 0.882949 0.911974
vt 0.814190 0.911974
vt 0.882948 0.900616
vt 0.814190 0.900616
vt 0.882948 0.890351
vt 0.814190 0.890351
vt 0.882949 0.879230
vt 0.814190 0.879230
vt 0.521726 0.285564
vt 0.465455 0.285564
vt 0.521726 0.274535
vt 0.465455 0.274535
vt 0.521726 0.295264
vt 0.465455 0.295264
vt 0.814190 0.866825
vt 0.882948 0.866825
vt 0.774373 0.543613
vt 0.774346 0.557057
vt 0.521726 0.222405
vt 0.465455 0.222401
vt 0.417137 0.199591
vt 0.512322 0.199591
vt 0.421344 0.209738
vt 0.516529 0.209738
vt 0.413338 0.189237
vt 0.508523 0.189237
vt 0.409880 0.178711
vt 0.505065 0.178711
vt 0.407004 0.168047
vt 0.501879 0.168047
vt 0.404288 0.158261
vt 0.498896 0.158261
vt 0.842079 0.584500
vt 0.851837 0.587428
vt 0.842079 0.691625
vt 0.851837 0.694348
vt 0.832420 0.581418
vt 0.832420 0.688740
vt 0.821857 0.577739
vt 0.821857 0.685272
vt 0.811467 0.574079
vt 0.811467 0.681462
vt 0.801284 0.569633
vt 0.801284 0.677242
vt 0.791441 0.564119
vt 0.791441 0.672605
vt 0.520654 0.218445
vt 0.425967 0.218445
vt 0.401915 0.149326
vt 0.496828 0.149326
vt 0.404656 0.913825
vt 0.297867 0.913825
vt 0.402016 0.908960
vt 0.295521 0.908960
vt 0.518672 0.914958
vt 0.516013 0.919769
vt 0.410681 0.914958
vt 0.408318 0.919769
vt 0.814190 0.856348
vt 0.836752 0.861579
vt 0.836752 0.856349
vt 0.847664 0.861579
vt 0.882948 0.856349
vt 0.847664 0.856349
vt 0.764934 0.561783
vt 0.781681 0.667301
vt 0.781681 0.559353
vt 0.103771 0.025789
vt 0.001953 0.025789
vt 0.103771 0.001953
vt 0.001953 0.001953
vt 0.514569 0.842116
vt 0.412751 0.842116
vt 0.514569 0.804839
vt 0.412751 0.804839
vt 0.774788 0.448736
vt 0.764934 0.454057
vt 0.001953 0.884407
vt 0.091517 0.884407
vt 0.001953 0.943665
vt 0.091506 0.943665
vt 0.013488 0.268368
vt 0.013488 0.370412
vt 0.001953 0.268368
vt 0.001953 0.370412
vt 0.565938 0.957054
vt 0.565938 0.867316
vt 0.625201 0.957054
vt 0.625201 0.867316
vn 0.830724 0.556684 0.000000
vn 0.890275 0.455423 0.000000
vn 0.830724 0.556684 0.000000
vn 0.830724 0.556684 0.000000
vn 0.890275 0.455423 0.000000
vn 0.890275 0.455423 0.000000
vn -0.830723 -0.556686 0.000000
vn -0.890274 -0.455426 0.000000
vn -0.830723 -0.556686 0.000000
vn -0.830723 -0.556686 0.000000
vn -0.890274 -0.455426 0.000000
vn -0.890274 -0.455426 0.000000
vn 0.907519 -0.420010 0.000000
vn 0.890275 -0.455423 0.000000
vn 0.907519 -0.420011 0.000000
vn 0.907519 -0.420011 0.000000
vn 0.890275 -0.455423 0.000000
vn 0.890275 -0.455423 0.000000
vn 0.751519 -0.659711 0.000000
vn 0.717687 -0.696365 0.000000
vn 0.751519 -0.659711 0.000000
vn 0.751519 -0.659711 0.000000
vn 0.717687 -0.696365 0.000000
vn 0.717687 -0.696366 0.000000
vn 0.830725 -0.556684 0.000000
vn 0.751519 -0.659711 0.000000
vn 0.830725 -0.556684 0.000000
vn 0.830725 -0.556684 0.000000
vn 0.751519 -0.659711 0.000000
vn 0.751519 -0.659711 0.000000
vn -0.907519 0.420010 0.000000
vn -0.890274 0.455426 0.000000
vn -0.907519 0.420011 0.000000
vn -0.907519 0.420011 0.000000
vn -0.890274 0.455426 0.000000
vn -0.890274 0.455426 0.000000
vn -0.751521 0.659709 0.000000
vn -0.717691 0.696361 0.000000
vn -0.751521 0.659709 0.000000
vn -0.751521 0.659709 0.000000
vn -0.717691 0.696361 0.000000
vn -0.717691 0.696362 0.000000
vn -0.830723 0.556686 0.000000
vn -0.751521 0.659709 0.000000
vn -0.830723 0.556686 0.000000
vn -0.830723 0.556686 0.000000
vn -0.751521 0.659709 0.000000
vn -0.751521 0.659709 0.000000
vn 0.890275 0.455423 0.000000
vn 0.907519 0.420011 0.000000
vn 0.890275 0.455423 0.000000
vn 0.890275 0.455423 0.000000
vn 0.907519 0.420011 0.000000
vn 0.907519 0.420011 0.000000
vn 0.717688 0.696365 0.000000
vn 0.751519 0.659711 0.000000
vn 0.717687 0.696365 0.000000
vn 0.717687 0.696365 0.000000
vn 0.751519 0.659711 0.000000
vn 0.751519 0.659711 0.000000
vn 0.751519 0.659711 0.000000
vn 0.830724 0.556684 0.000000
vn 0.751519 0.659711 0.000000
vn 0.751519 0.659711 0.000000
vn 0.830724 0.556684 0.000000
vn 0.830724 0.556684 0.000000
vn -0.890274 -0.455426 0.000000
vn -0.907519 -0.420011 0.000000
vn -0.890274 -0.455426 0.000000
vn -0.890274 -0.455426 0.000000
vn -0.907519 -0.420011 0.000000
vn -0.907519 -0.420011 0.000000
vn -0.717692 -0.696361 0.000000
vn -0.751521 -0.659709 0.000000
vn -0.717691 -0.696361 0.000000
vn -0.717691 -0.696361 0.000000
vn -0.751521 -0.659709 0.000000
vn -0.751521 -0.659709 0.000000
vn -0.751521 -0.659709 0.000000
vn -0.830723 -0.556686 0.000000
vn -0.751521 -0.659709 0.000000
vn -0.751521 -0.659709 0.000000
vn -0.830723 -0.556686 0.000000
vn -0.830723 -0.556686 0.000000
vn 0.890275 -0.455423 0.000000
vn 0.830725 -0.556684 0.000000
vn 0.890275 -0.455423 0.000000
vn 0.890275 -0.455423 0.000000
vn 0.830725 -0.556684 0.000000
vn 0.830725 -0.556684 0.000000
vn -0.890274 0.455426 0.000000
vn -0.830723 0.556686 0.000000
vn -0.890274 0.455426 0.000000
vn -0.890274 0.455426 0.000000
vn -0.830723 0.556686 0.000000
vn -0.830723 0.556686 0.000000
vn 0.000000 0.000000 1.000000
vn 0.000000 0.000000 1.000000
vn 0.000000 0.000000 1.000000
vn 0.000000 0.000000 1.000000
vn 0.000000 0.000000 1.000000
vn 0.000000 0.000000 1.000000
vn 0.000000 0.000000 1.000000
vn 0.000000 0.000000 1.000000
vn 0.000000 0.000000 1.000000
vn 0.000000 0.000000 1.000000
vn 0.000000 0.000000 1.000000
vn 0.000000 0.000000 1.000000
vn 0.000000 0.000000 1.000000
vn 0.000000 0.000000 1.000000
vn 0.000000 0.000000 1.000000
vn 0.000000 0.000000 1.000000
vn 0.000000 0.000000 1.000000
vn 0.000000 0.000000 1.000000
vn 0.000000 0.000000 1.000000
vn 0.000000 0.000000 1.000000
vn 0.000000 0.000000 1.000000
vn 0.000000 0.000000 1.000000
vn 0.000000 0.000000 1.000000
vn 0.000000 0.000000 1.000000
vn 0.000000 0.000000 1.000000
vn 0.000000 0.000000 1.000000
vn 0.000000 0.000000 1.000000
vn 0.000000 0.000000 1.000000
vn 0.000000 0.000000 1.000000
vn 0.000000 0.000000 1.000000
vn 0.000000 0.000000 1.000000
vn 0.000000 0.000000 1.000000
vn 0.000000 0.000000 1.000000
vn 0.000000 0.000000 1.000000
vn 0.000000 0.000000 1.000000
vn 0.000000 0.000000 1.000000
vn 0.000000 0.000000 1.000000
vn 0.000000 0.000000 1.000000
vn 0.000000 0.000000 1.000000
vn 0.000000 0.000000 1.000000
vn 0.000000 0.000000 1.000000
vn 0.000000 0.000000 1.000000
vn 0.351099 0.894228 -0.277643
vn 0.372489 0.928037 -0.000002
vn 0.000000 0.962374 -0.271728
vn 0.000000 1.000000 0.000000
vn 0.681031 0.674597 -0.284807
vn 0.710316 0.703883 -0.000008
vn 0.897450 0.343894 -0.276262
vn 0.930968 0.365100 0.000000
vn 0.962979 -0.000000 -0.269577
vn 1.000000 0.000000 0.000000
vn 0.897451 -0.343893 -0.276260
vn 0.930970 -0.365096 -0.000004
vn 0.681030 -0.674599 -0.284806
vn 0.710312 -0.703887 -0.000010
vn 0.351100 -0.894228 -0.277644
vn 0.372490 -0.928036 0.000000
vn -0.000000 -0.962374 -0.271728
vn 0.000000 -1.000000 0.000000
vn -0.351103 -0.894227 -0.277643
vn -0.372490 -0.928036 0.000000
vn -0.681031 -0.674600 -0.284803
vn -0.710315 -0.703884 0.000000
vn -0.897447 -0.343902 -0.276261
vn -0.930968 -0.365100 0.000000
vn -0.962979 0.000000 -0.269577
vn -1.000000 -0.000000 0.000000
vn -0.897447 0.343902 -0.276261
vn -0.930968 0.365101 0.000000
vn -0.681031 0.674600 -0.284802
vn -0.710315 0.703883 0.000000
vn -0.351103 0.894227 -0.277643
vn -0.372490 0.928036 0.000000
vn 0.361006 0.912046 -0.194543
vn 0.696034 0.690069 -0.198345
vn 0.914968 0.354214 -0.193302
vn 0.982417 -0.000980 -0.186700
vn 0.914333 -0.354973 -0.194908
vn 0.696034 -0.690068 -0.198348
vn 0.361006 -0.912046 -0.194542
vn -0.001011 -0.982074 -0.188494
vn -0.361803 -0.911374 -0.196206
vn -0.696034 -0.690069 -0.198345
vn -0.914966 -0.354221 -0.193302
vn -0.982417 0.000980 -0.186700
vn -0.914330 0.354981 -0.194908
vn -0.696034 0.690069 -0.198346
vn -0.361009 0.912045 -0.194543
vn -0.000000 0.981762 -0.190116
vn 0.173941 0.449556 0.876153
vn 0.349611 0.346329 0.870534
vn 0.340633 0.864568 0.369449
vn 0.658481 0.652598 0.374858
vn -0.000835 0.000000 1.000000
vn 0.867388 0.333843 0.369034
vn 0.451648 0.170341 0.875784
vn 0.932483 -0.001435 0.361212
vn 0.473965 0.000000 0.880544
vn 0.451648 -0.170341 0.875784
vn 0.866244 -0.334880 0.370778
vn 0.349618 -0.346331 0.870530
vn 0.658487 -0.652599 0.374845
vn 0.340637 -0.864564 0.369454
vn 0.173936 -0.449551 0.876156
vn -0.001476 -0.932333 0.361598
vn 0.000166 -0.473418 0.880838
vn -0.174115 -0.450705 0.875528
vn -0.341726 -0.863386 0.371198
vn -0.350933 -0.347956 0.869352
vn -0.658504 -0.652617 0.374784
vn -0.867416 -0.333867 0.368947
vn -0.454288 -0.171471 0.874197
vn -0.932522 0.001435 0.361110
vn -0.477139 0.000000 0.878828
vn -0.454289 0.171471 0.874197
vn -0.866275 0.334899 0.370689
vn -0.658504 0.652617 0.374784
vn -0.350933 0.347956 0.869352
vn -0.340644 0.864588 0.369391
vn -0.174115 0.450705 0.875528
vn 0.000012 0.931665 0.363318
vn 0.000167 0.473418 0.880838
vn 0.217536 0.000000 0.976052
vn 0.217536 0.000000 0.976052
vn 0.214368 0.000000 0.976753
vn 0.214368 0.000000 0.976753
vn 0.217536 0.000000 0.976052
vn 0.214368 0.000000 0.976753
vn -0.000001 1.000000 -0.000001
vn 0.000000 1.000000 0.000000
vn 0.000001 1.000000 -0.000001
vn 0.000001 1.000000 -0.000001
vn 0.000000 1.000000 0.000000
vn 0.000000 1.000000 0.000000
vn 0.000000 1.000000 -0.000001
vn -0.000000 1.000000 -0.000002
vn -0.000001 1.000000 -0.000001
vn -0.000001 1.000000 -0.000001
vn -0.000000 1.000000 -0.000002
vn 0.000000 1.000000 0.000000
vn 0.000000 1.000000 0.000000
vn 0.000001 1.000000 0.000001
vn 0.000000 1.000000 -0.000001
vn 0.000000 1.000000 -0.000001
vn 0.000001 1.000000 0.000001
vn -0.000000 1.000000 -0.000002
vn -0.000001 1.000000 -0.000003
vn -0.000002 1.000000 -0.000003
vn 0.000000 1.000000 0.000000
vn 0.000000 1.000000 0.000000
vn -0.000002 1.000000 -0.000003
vn 0.000001 1.000000 0.000001
vn 0.000001 1.000000 0.000000
vn 0.000002 1.000000 0.000001
vn -0.000001 1.000000 -0.000003
vn -0.000001 1.000000 -0.000003
vn 0.000002 1.000000 0.000001
vn -0.000002 1.000000 -0.000003
vn -0.000007 1.000000 -0.000005
vn -0.000003 1.000000 -0.000001
vn 0.000001 1.000000 0.000000
vn 0.000001 1.000000 0.000000
vn -0.000003 1.000000 -0.000001
vn 0.000002 1.000000 0.000001
vn -0.000001 1.000000 -0.000000
vn 0.000000 1.000000 0.000000
vn 0.000000 1.000000 0.000000
vn 0.000000 1.000000 0.000000
vn 0.000000 1.000000 0.000000
vn 0.000000 1.000000 0.000000
vn 0.000001 1.000000 -0.000003
vn 0.000001 1.000000 -0.000000
vn -0.000001 1.000000 -0.000000
vn -0.000001 1.000000 -0.000000
vn 0.000001 1.000000 -0.000000
vn 0.000000 1.000000 0.000000
vn -0.000001 1.000000 0.000001
vn 0.000001 1.000000 -0.000000
vn -0.000001 1.000000 0.000001
vn -0.000001 1.000000 0.000001
vn 0.000001 1.000000 -0.000000
vn 0.000001 1.000000 -0.000003
vn 0.000000 1.000000 -0.000002
vn -0.000001 1.000000 0.000001
vn -0.000000 1.000000 -0.000001
vn -0.000000 1.000000 -0.000001
vn -0.000001 1.000000 0.000001
vn -0.000001 1.000000 0.000001
vn -0.000001 1.000000 -0.000001
vn 0.000000 1.000000 -0.000002
vn -0.000001 1.000000 -0.000001
vn -0.000001 1.000000 -0.000001
vn 0.000000 1.000000 -0.000002
vn -0.000000 1.000000 -0.000001
vn -0.000000 1.000000 -0.000002
vn -0.000001 1.000000 -0.000001
vn -0.000001 1.000000 -0.000002
vn -0.000001 1.000000 -0.000002
vn -0.000001 1.000000 -0.000001
vn -0.000001 1.000000 -0.000001
vn 0.000001 1.000000 -0.000002
vn -0.000000 1.000000 -0.000002
vn 0.000001 1.000000 -0.000002
vn 0.000001 1.000000 -0.000002
vn -0.000000 1.000000 -0.000002
vn -0.000001 1.000000 -0.000002
vn 0.000000 1.000000 0.000000
vn 0.000001 1.000000 -0.000002
vn 0.000001 1.000000 -0.000001
vn 0.000001 1.000000 -0.000001
vn 0.000001 1.000000 -0.000002
vn 0.000001 1.000000 -0.000002
vn 0.197982 0.000000 -0.980206
vn 0.197981 0.000000 -0.980206
vn 0.188112 0.000000 -0.982148
vn 0.188112 0.000000 -0.982148
vn 0.197981 0.000000 -0.980206
vn 0.188111 0.000000 -0.982148
vn 0.887148 0.000000 -0.461484
vn 0.887148 0.000000 -0.461484
vn 0.887148 0.000000 -0.461484
vn 0.887148 0.000000 -0.461484
vn 0.887148 0.000000 -0.461484
vn 0.887148 0.000000 -0.461484
vn -0.197982 0.000000 0.980206
vn -0.197981 0.000000 0.980206
vn -0.188113 0.000000 0.982147
vn -0.188113 0.000000 0.982147
vn -0.197981 0.000000 0.980206
vn -0.188112 0.000000 0.982148
vn -0.188113 0.000000 0.982147
vn -0.188112 0.000000 0.982148
vn -0.164868 0.000000 0.986316
vn -0.164868 0.000000 0.986316
vn -0.188112 0.000000 0.982148
vn -0.164868 0.000000 0.986316
vn -0.164868 0.000000 0.986316
vn -0.164868 0.000000 0.986316
vn -0.134578 0.000000 0.990903
vn -0.134578 0.000000 0.990903
vn -0.164868 0.000000 0.986316
vn -0.134577 0.000000 0.990903
vn -0.134578 0.000000 0.990903
vn -0.134577 0.000000 0.990903
vn -0.097048 0.000000 0.995280
vn -0.097048 0.000000 0.995280
vn -0.134577 0.000000 0.990903
vn -0.097047 0.000000 0.995280
vn -0.097048 0.000000 0.995280
vn -0.097047 0.000000 0.995280
vn -0.052165 0.000000 0.998639
vn -0.052165 0.000000 0.998639
vn -0.097047 0.000000 0.995280
vn -0.052164 0.000000 0.998639
vn -0.052165 0.000000 0.998639
vn -0.052164 0.000000 0.998639
vn 0.000000 0.000000 1.000000
vn 0.000000 0.000000 1.000000
vn -0.052164 0.000000 0.998639
vn -0.000000 0.000000 1.000000
vn 0.000000 0.000000 1.000000
vn -0.000000 0.000000 1.000000
vn 0.052164 0.000000 0.998639
vn 0.052164 0.000000 0.998639
vn -0.000000 0.000000 1.000000
vn 0.052165 0.000000 0.998639
vn 0.052164 0.000000 0.998639
vn 0.052165 0.000000 0.998639
vn 0.097047 0.000000 0.995280
vn 0.097047 0.000000 0.995280
vn 0.052165 0.000000 0.998639
vn 0.097048 0.000000 0.995280
vn 0.097047 0.000000 0.995280
vn 0.097048 0.000000 0.995280
vn 0.134578 0.000000 0.990903
vn 0.134578 0.000000 0.990903
vn 0.097048 0.000000 0.995280
vn 0.134579 0.000000 0.990903
vn 0.134578 0.000000 0.990903
vn 0.134579 0.000000 0.990903
vn 0.164868 0.000000 0.986316
vn 0.164868 0.000000 0.986316
vn 0.134579 0.000000 0.990903
vn 0.164868 0.000000 0.986316
vn 0.164868 0.000000 0.986316
vn 0.164868 0.000000 0.986316
vn 0.188112 0.000000 0.982148
vn 0.188112 0.000000 0.982148
vn 0.164868 0.000000 0.986316
vn 0.188112 0.000000 0.982148
vn 0.188112 0.000000 0.982148
vn 0.188112 0.000000 0.982148
vn 0.204526 0.000000 0.978861
vn 0.204526 0.000000 0.978861
vn 0.188112 0.000000 0.982148
vn 0.204526 0.000000 0.978861
vn 0.204526 0.000000 0.978861
vn 0.204526 0.000000 0.978861
vn 0.214368 0.000000 0.976753
vn 0.214368 0.000000 0.976753
vn 0.204526 0.000000 0.978861
vn 0.214368 0.000000 0.976753
vn -0.227244 0.000000 -0.973838
vn -0.227244 0.000000 -0.973838
vn -0.218210 0.000000 -0.975902
vn -0.218210 0.000000 -0.975902
vn -0.227244 0.000000 -0.973838
vn -0.218210 0.000000 -0.975902
vn -0.218210 0.000000 -0.975902
vn -0.201797 0.000000 -0.979427
vn -0.218210 0.000000 -0.975902
vn -0.218210 0.000000 -0.975902
vn -0.201797 0.000000 -0.979427
vn -0.201797 0.000000 -0.979427
vn -0.201797 0.000000 -0.979427
vn -0.201797 0.000000 -0.979427
vn -0.187053 0.000000 -0.982350
vn -0.187053 0.000000 -0.982350
vn -0.201797 0.000000 -0.979427
vn -0.187053 0.000000 -0.982350
vn -0.187053 0.000000 -0.982350
vn -0.187053 0.000000 -0.982350
vn -0.164183 0.000000 -0.986430
vn -0.164183 0.000000 -0.986430
vn -0.187053 0.000000 -0.982350
vn -0.164183 0.000000 -0.986430
vn -0.164183 0.000000 -0.986430
vn -0.164183 0.000000 -0.986430
vn -0.134579 0.000000 -0.990903
vn -0.134579 0.000000 -0.990903
vn -0.164183 0.000000 -0.986430
vn -0.134579 0.000000 -0.990903
vn -0.134579 0.000000 -0.990903
vn -0.134579 0.000000 -0.990903
vn -0.097047 0.000000 -0.995280
vn -0.097047 0.000000 -0.995280
vn -0.134579 0.000000 -0.990903
vn -0.097047 0.000000 -0.995280
vn -0.097047 0.000000 -0.995280
vn -0.097047 0.000000 -0.995280
vn -0.052164 0.000000 -0.998639
vn -0.052164 0.000000 -0.998639
vn -0.097047 0.000000 -0.995280
vn -0.052164 0.000000 -0.998639
vn -0.052164 0.000000 -0.998639
vn -0.052164 0.000000 -0.998639
vn -0.000000 0.000000 -1.000000
vn -0.000000 0.000000 -1.000000
vn -0.052164 0.000000 -0.998639
vn -0.000000 0.000000 -1.000000
vn -0.000000 0.000000 -1.000000
vn -0.000000 0.000000 -1.000000
vn 0.052165 0.000000 -0.998638
vn 0.052165 0.000000 -0.998638
vn -0.000000 0.000000 -1.000000
vn 0.052165 0.000000 -0.998639
vn 0.052165 0.000000 -0.998638
vn 0.052165 0.000000 -0.998639
vn 0.097046 0.000000 -0.995280
vn 0.097046 0.000000 -0.995280
vn 0.052165 0.000000 -0.998639
vn 0.097045 0.000000 -0.995280
vn 0.097046 0.000000 -0.995280
vn 0.097045 0.000000 -0.995280
vn 0.134578 0.000000 -0.990903
vn 0.134578 0.000000 -0.990903
vn 0.097045 0.000000 -0.995280
vn 0.134577 0.000000 -0.990903
vn 0.134578 0.000000 -0.990903
vn 0.134577 0.000000 -0.990903
vn 0.164868 0.000000 -0.986316
vn 0.164868 0.000000 -0.986316
vn 0.134577 0.000000 -0.990903
vn 0.164867 0.000000 -0.986316
vn 0.164868 0.000000 -0.986316
vn 0.164867 0.000000 -0.986316
vn 0.188111 0.000000 -0.982148
vn 0.188111 0.000000 -0.982148
vn 0.164867 0.000000 -0.986316
vn 0.188112 0.000000 -0.982148
vn -1.000000 0.000000 0.000000
vn -1.000000 0.000000 0.000000
vn -1.000000 0.000000 0.000000
vn -1.000000 0.000000 0.000000
vn -1.000000 0.000000 0.000000
vn -1.000000 0.000000 0.000000
vn 0.000001 -1.000000 0.000001
vn -0.000001 -1.000000 0.000001
vn 0.000000 -1.000000 0.000000
vn 0.000000 -1.000000 0.000000
vn -0.000001 -1.000000 0.000001
vn 0.000000 -1.000000 0.000000
vn -0.000000 -1.000000 0.000001
vn 0.000001 -1.000000 0.000001
vn 0.000000 -1.000000 0.000002
vn 0.000000 -1.000000 0.000002
vn 0.000001 -1.000000 0.000001
vn 0.000000 -1.000000 0.000000
vn -0.000000 -1.000000 -0.000000
vn -0.000000 -1.000000 0.000001
vn -0.000001 -1.000000 -0.000001
vn -0.000001 -1.000000 -0.000001
vn -0.000000 -1.000000 0.000001
vn 0.000000 -1.000000 0.000002
vn 0.000001 -1.000000 0.000003
vn -0.000000 -1.000000 -0.000000
vn 0.000002 -1.000000 0.000003
vn 0.000002 -1.000000 0.000003
vn -0.000000 -1.000000 -0.000000
vn -0.000001 -1.000000 -0.000001
vn -0.000001 -1.000000 -0.000000
vn 0.000001 -1.000000 0.000003
vn -0.000002 -1.000000 -0.000000
vn -0.000002 -1.000000 -0.000000
vn 0.000001 -1.000000 0.000003
vn 0.000002 -1.000000 0.000003
vn 0.000007 -1.000000 0.000005
vn -0.000001 -1.000000 -0.000000
vn 0.000003 -1.000000 0.000001
vn 0.000003 -1.000000 0.000001
vn -0.000001 -1.000000 -0.000000
vn -0.000002 -1.000000 -0.000000
vn 0.000001 -1.000000 0.000000
vn 0.000000 -1.000000 0.000000
vn 0.000000 -1.000000 0.000000
vn 0.000000 -1.000000 0.000000
vn 0.000000 -1.000000 0.000000
vn 0.000000 -1.000000 0.000000
vn -0.000001 -1.000000 0.000003
vn 0.000001 -1.000000 0.000000
vn -0.000001 -1.000000 0.000000
vn -0.000001 -1.000000 0.000000
vn 0.000001 -1.000000 0.000000
vn 0.000000 -1.000000 0.000000
vn -0.000001 -1.000000 0.000003
vn -0.000001 -1.000000 0.000000
vn 0.000001 -1.000000 -0.000001
vn 0.000001 -1.000000 -0.000001
vn -0.000001 -1.000000 0.000000
vn 0.000001 -1.000000 -0.000001
vn 0.000001 -1.000000 -0.000001
vn 0.000001 -1.000000 -0.000001
vn 0.000000 -1.000000 0.000001
vn 0.000000 -1.000000 0.000001
vn 0.000001 -1.000000 -0.000001
vn -0.000000 -1.000000 0.000002
vn 0.000000 -1.000000 0.000001
vn -0.000000 -1.000000 0.000002
vn 0.000001 -1.000000 0.000001
vn 0.000001 -1.000000 0.000001
vn -0.000000 -1.000000 0.000002
vn 0.000001 -1.000000 0.000001
vn 0.000001 -1.000000 0.000001
vn 0.000001 -1.000000 0.000001
vn 0.000001 -1.000000 0.000002
vn 0.000001 -1.000000 0.000002
vn 0.000001 -1.000000 0.000001
vn 0.000000 -1.000000 0.000002
vn 0.000001 -1.000000 0.000002
vn 0.000000 -1.000000 0.000002
vn -0.000001 -1.000000 0.000002
vn -0.000001 -1.000000 0.000002
vn 0.000000 -1.000000 0.000002
vn -0.000001 -1.000000 0.000002
vn -0.000001 -1.000000 0.000002
vn -0.000001 -1.000000 0.000002
vn -0.000001 -1.000000 0.000001
vn -0.000001 -1.000000 0.000001
vn -0.000001 -1.000000 0.000002
vn 0.000000 -1.000000 0.000000
vn -0.209810 -0.000000 -0.977742
vn -0.209809 -0.000000 -0.977743
vn -0.209808 0.000000 -0.977743
vn -0.209808 0.000000 -0.977743
vn -0.209809 -0.000000 -0.977743
vn -0.209810 -0.000000 -0.977742
vn -0.209810 0.000000 -0.977742
vn -0.209806 -0.000000 -0.977743
vn -0.209808 -0.000000 -0.977742
vn -0.209808 -0.000000 -0.977742
vn -0.209806 -0.000000 -0.977743
vn -0.209810 -0.000000 -0.977742
vn 0.000005 1.000000 -0.000002
vn 0.000003 1.000000 -0.000001
vn 0.000003 1.000000 -0.000001
vn 0.889214 -0.000000 -0.457492
vn 0.889214 -0.000000 -0.457492
vn 0.889214 -0.000000 -0.457492
vn 0.889214 -0.000000 -0.457492
vn 0.889214 -0.000000 -0.457492
vn 0.889214 0.000000 -0.457492
vn 0.000000 1.000000 0.000000
vn 0.000000 1.000000 0.000000
vn 0.000000 1.000000 0.000000
vn 0.000000 1.000000 0.000000
vn 0.000000 1.000000 0.000000
vn 0.000000 1.000000 0.000000
vn 0.887810 0.000000 -0.460209
vn 0.887810 0.000000 -0.460209
vn 0.887810 0.000000 -0.460209
vn 0.887810 0.000000 -0.460209
vn 0.887810 0.000000 -0.460209
vn 0.887810 0.000000 -0.460209
vn 0.000000 -1.000000 -0.000000
vn 0.000000 -1.000000 -0.000000
vn 0.000000 -1.000000 0.000000
vn 0.000000 -1.000000 0.000000
vn 0.000000 -1.000000 -0.000000
vn 0.000000 -1.000000 0.000000
vn 0.889214 0.000000 -0.457492
vn 0.889214 0.000000 -0.457492
vn 0.889214 0.000000 -0.457492
vn 0.889214 0.000000 -0.457492
vn 0.889214 0.000000 -0.457492
vn 0.889214 0.000000 -0.457492
vn 0.000000 -1.000000 0.000000
vn 0.000000 -1.000000 0.000000
vn 0.000000 -1.000000 0.000000
vn 0.000000 -1.000000 0.000000
vn 0.000000 -1.000000 0.000000
vn 0.000000 -1.000000 0.000000
vn 0.000000 1.000000 0.000000
vn 0.000000 1.000000 -0.000000
vn 0.000003 1.000000 -0.000001
vn 0.000003 1.000000 -0.000001
vn 0.000000 1.000000 -0.000000
vn 0.000003 1.000000 -0.000001
vn 0.000000 1.000000 -0.000000
vn 0.000000 1.000000 -0.000000
vn 0.000002 1.000000 -0.000001
vn 0.000002 1.000000 -0.000001
vn 0.000000 1.000000 -0.000000
vn 0.000003 1.000000 -0.000002
vn 0.000000 1.000000 -0.000000
vn 0.000000 1.000000 -0.000000
vn 0.000000 1.000000 -0.000000
vn 0.000000 1.000000 -0.000000
vn 0.000000 1.000000 -0.000000
vn 0.000000 1.000000 -0.000000
vn 0.000000 1.000000 0.000000
vn 0.000000 1.000000 -0.000000
vn 0.000000 1.000000 -0.000000
vn 0.000000 1.000000 -0.000000
vn 0.000000 1.000000 -0.000000
vn 0.000000 1.000000 -0.000000
vn 0.000000 1.000000 0.000000
vn 0.000000 1.000000 -0.000000
vn 0.000000 1.000000 0.000000
vn 0.000000 1.000000 0.000000
vn 0.000000 1.000000 -0.000000
vn 0.000000 1.000000 -0.000000
vn -0.000003 1.000000 0.000001
vn -0.000002 1.000000 0.000001
vn 0.000000 1.000000 0.000000
vn 0.000000 1.000000 0.000000
vn -0.000002 1.000000 0.000001
vn 0.000000 1.000000 -0.000000
vn 0.134579 0.000000 0.990903
vn 0.134579 0.000000 0.990903
vn 0.164867 0.000000 0.986316
vn 0.164867 0.000000 0.986316
vn 0.134579 0.000000 0.990903
vn 0.164868 0.000000 0.986316
vn 0.164867 0.000000 0.986316
vn 0.164868 0.000000 0.986316
vn 0.188112 0.000000 0.982148
vn 0.188112 0.000000 0.982148
vn 0.164868 0.000000 0.986316
vn 0.188113 -0.000000 0.982148
vn 0.188112 0.000000 0.982148
vn 0.188113 -0.000000 0.982148
vn 0.203526 0.000005 0.979070
vn 0.203526 0.000005 0.979070
vn 0.188113 -0.000000 0.982148
vn 0.203494 -0.000000 0.979076
vn -0.197545 0.000000 -0.980294
vn -0.197544 -0.000000 -0.980294
vn -0.178856 0.000000 -0.983875
vn -0.178856 0.000000 -0.983875
vn -0.197544 -0.000000 -0.980294
vn -0.178857 0.000000 -0.983875
vn -0.178856 0.000000 -0.983875
vn -0.178857 0.000000 -0.983875
vn -0.153404 0.000000 -0.988164
vn -0.153404 0.000000 -0.988164
vn -0.178857 0.000000 -0.983875
vn -0.153404 0.000000 -0.988164
vn -0.153404 0.000000 -0.988164
vn -0.153404 0.000000 -0.988164
vn -0.122940 0.000000 -0.992414
vn -0.122940 0.000000 -0.992414
vn -0.153404 0.000000 -0.988164
vn -0.122939 0.000000 -0.992414
vn -0.122940 0.000000 -0.992414
vn -0.122939 0.000000 -0.992414
vn -0.080998 0.000000 -0.996714
vn -0.080998 0.000000 -0.996714
vn -0.122939 0.000000 -0.992414
vn -0.080998 0.000000 -0.996714
vn -0.080998 0.000000 -0.996714
vn -0.080998 0.000000 -0.996714
vn -0.034040 0.000000 -0.999421
vn -0.034040 0.000000 -0.999421
vn -0.080998 0.000000 -0.996714
vn -0.034041 0.000000 -0.999421
vn 0.053340 0.000000 0.998576
vn 0.053340 0.000000 0.998576
vn 0.097047 0.000000 0.995280
vn 0.097047 0.000000 0.995280
vn 0.053340 0.000000 0.998576
vn 0.097047 0.000000 0.995280
vn 0.134579 0.000000 0.990903
vn 0.134579 0.000000 0.990903
vn 0.097047 0.000000 0.995280
vn 0.097047 0.000000 0.995280
vn 0.134579 0.000000 0.990903
vn 0.097047 0.000000 0.995280
vn 0.053340 0.000000 0.998576
vn 0.027030 0.000000 0.999635
vn 0.053340 0.000000 0.998576
vn 0.053340 0.000000 0.998576
vn 0.027030 0.000000 0.999635
vn 0.027030 0.000000 0.999635
vn -0.034041 0.000000 -0.999421
vn -0.009325 0.000033 -0.999957
vn -0.034040 0.000000 -0.999421
vn -0.034040 0.000000 -0.999421
vn -0.009325 0.000033 -0.999957
vn -0.008422 -0.000031 -0.999965
vn -0.000002 1.000000 0.000001
vn -0.000003 1.000000 0.000001
vn -0.000003 1.000000 0.000002
vn -0.000003 1.000000 0.000002
vn -0.000003 1.000000 0.000001
vn -0.000003 1.000000 0.000001
vn 0.211136 0.000013 0.977457
vn 0.203526 0.000005 0.979070
vn 0.211054 0.000001 0.977474
vn 0.211054 0.000001 0.977474
vn 0.203526 0.000005 0.979070
vn 0.203494 -0.000000 0.979076
vn -0.209810 -0.000000 -0.977742
vn -0.197544 -0.000000 -0.980294
vn -0.209810 -0.000000 -0.977742
vn -0.209810 -0.000000 -0.977742
vn -0.197544 -0.000000 -0.980294
vn -0.197545 0.000000 -0.980294
vn 0.000003 1.000000 -0.000001
vn 0.000005 1.000000 -0.000002
vn 0.000003 1.000000 -0.000002
vn 0.000003 1.000000 -0.000002
vn 0.000005 1.000000 -0.000002
vn 0.000002 1.000000 -0.000001
vn 0.000000 1.000000 0.000000
vn 0.000000 1.000000 0.000000
vn 0.000001 1.000000 -0.000000
vn 0.000001 1.000000 -0.000000
vn 0.000000 1.000000 0.000000
vn -0.000002 1.000000 0.000000
vn 0.000000 1.000000 0.000000
vn 0.000000 1.000000 0.000000
vn 0.000000 1.000000 0.000000
vn 0.000000 1.000000 0.000000
vn 0.000000 1.000000 0.000000
vn 0.000000 1.000000 0.000000
vn 0.000000 1.000000 0.000000
vn 0.000000 1.000000 0.000000
vn 0.000000 1.000000 0.000000
vn 0.000000 1.000000 0.000000
vn 0.000000 1.000000 0.000000
vn 0.000000 1.000000 0.000000
vn 0.000000 1.000000 -0.000000
vn 0.000000 1.000000 0.000000
vn 0.000000 1.000000 0.000000
vn 0.000000 1.000000 0.000000
vn 0.000000 1.000000 0.000000
vn 0.000000 1.000000 0.000000
vn 0.000000 1.000000 0.000000
vn 0.000000 1.000000 -0.000000
vn 0.000000 1.000000 -0.000000
vn 0.000000 1.000000 -0.000000
vn 0.000000 1.000000 -0.000000
vn 0.000000 1.000000 0.000000
vn 0.000000 -1.000000 0.000000
vn 0.000000 -1.000000 0.000000
vn 0.000000 -1.000000 0.000000
vn 0.000000 -1.000000 0.000000
vn 0.000000 -1.000000 0.000000
vn 0.000000 -1.000000 0.000000
vn 0.000000 -1.000000 0.000000
vn 0.000000 -1.000000 0.000000
vn 0.000000 -1.000000 0.000000
vn 0.000000 -1.000000 0.000000
vn 0.000000 -1.000000 0.000000
vn 0.000000 -1.000000 0.000000
vn 0.000000 -1.000000 0.000000
vn 0.000000 -1.000000 0.000000
vn 0.000000 -1.000000 0.000000
vn 0.000000 -1.000000 0.000000
vn 0.000000 -1.000000 0.000000
vn 0.000000 -1.000000 0.000000
vn 0.000000 -1.000000 0.000000
vn 0.000000 -1.000000 0.000000
vn 0.000000 -1.000000 0.000000
vn 0.000000 -1.000000 0.000000
vn 0.000000 -1.000000 0.000000
vn 0.000000 -1.000000 0.000000
vn 0.000000 -1.000000 0.000000
vn 0.000000 -1.000000 0.000000
vn 0.000000 -1.000000 0.000000
vn 0.000000 -1.000000 0.000000
vn 0.000000 -1.000000 0.000000
vn 0.000000 -1.000000 0.000000
vn 0.000000 -1.000000 0.000000
vn 0.000000 -1.000000 0.000000
vn 0.000000 -1.000000 0.000000
vn 0.000000 -1.000000 0.000000
vn 0.000000 -1.000000 0.000000
vn 0.000000 -1.000000 0.000000
vn -0.000003 1.000000 0.000001
vn 0.000002 1.000000 -0.000001
vn -0.000002 1.000000 0.000000
vn -0.000002 1.000000 0.000000
vn 0.000002 1.000000 -0.000001
vn 0.000001 1.000000 -0.000000
vn 0.000000 -1.000000 0.000000
vn 0.000000 -1.000000 0.000000
vn 0.000000 -1.000000 0.000000
vn 0.000000 -1.000000 0.000000
vn 0.000000 -1.000000 0.000000
vn 0.000000 -1.000000 0.000000
vn 0.000000 1.000000 0.000000
vn 0.000000 1.000000 0.000000
vn 0.000000 1.000000 0.000000
vn 0.000000 1.000000 0.000000
vn 0.000000 1.000000 0.000000
vn 0.000000 1.000000 -0.000000
vn 0.000000 1.000000 -0.000000
vn 0.000000 1.000000 -0.000000
vn 0.000000 1.000000 -0.000000
vn 0.000000 1.000000 -0.000000
vn 0.000000 1.000000 -0.000000
vn 0.000000 1.000000 0.000000
vn 0.000000 -1.000000 0.000000
vn 0.000000 -1.000000 -0.000000
vn 0.000000 -1.000000 -0.000000
vn 0.000000 -1.000000 -0.000000
vn 0.000000 -1.000000 -0.000000
vn 0.000000 -1.000000 -0.000000
vn -0.009325 0.000033 -0.999957
vn -0.000704 0.000164 -1.000000
vn -0.000779 0.000045 -1.000000
vn -0.000779 0.000045 -1.000000
vn -0.000704 0.000164 -1.000000
vn 0.000000 0.000000 -1.000000
vn -0.008422 -0.000031 -0.999965
vn -0.001181 -0.000009 -0.999999
vn -0.000727 -0.000108 -1.000000
vn -0.000727 -0.000108 -1.000000
vn -0.001181 -0.000009 -0.999999
vn 0.000000 0.000000 -1.000000
vn -0.000003 1.000000 0.000002
vn -0.000003 1.000000 0.000001
vn -0.000003 1.000000 0.000001
vn 0.000000 -1.000000 0.000000
vn 0.000000 -1.000000 0.000000
vn 0.000000 -1.000000 0.000000
vn 0.000000 -1.000000 0.000000
vn 0.000000 -1.000000 0.000000
vn 0.000000 -1.000000 0.000000
vn -0.893314 0.000000 0.449434
vn -0.893314 0.000000 0.449434
vn -0.893314 0.000000 0.449434
vn -0.893314 0.000000 0.449434
vn -0.893314 0.000000 0.449434
vn -0.893314 0.000000 0.449434
vn -0.893314 0.000000 0.449434
vn -0.893314 0.000000 0.449434
vn -0.893314 0.000000 0.449434
vn -0.893314 0.000000 0.449434
vn -0.893314 0.000000 0.449434
vn -0.893314 0.000000 0.449434
vn -0.000000 1.000000 0.000000
vn -0.000003 1.000000 0.000002
vn -0.000000 1.000000 0.000000
vn -0.000000 1.000000 0.000000
vn -0.000003 1.000000 0.000002
vn -0.000003 1.000000 0.000001
vn 0.891340 0.000000 -0.453335
vn 0.891646 -0.001146 -0.452732
vn 0.891497 -0.000588 -0.453026
vn 0.891497 -0.000588 -0.453026
vn 0.891646 -0.001146 -0.452732
vn 0.891802 -0.001735 -0.452422
vn -0.008422 -0.000031 -0.999965
vn -0.009325 0.000033 -0.999957
vn -0.001181 -0.000009 -0.999999
vn -0.001181 -0.000009 -0.999999
vn -0.009325 0.000033 -0.999957
vn -0.000779 0.000045 -1.000000
vn -0.892356 0.000000 0.451333
vn -0.892356 0.000000 0.451333
vn -0.892356 0.000000 0.451333
vn -0.892356 0.000000 0.451333
vn -0.892356 0.000000 0.451333
vn -0.892356 0.000000 0.451333
vn -0.891420 -0.000001 0.453178
vn -0.891432 -0.000043 0.453155
vn -0.891426 -0.000023 0.453166
vn -0.891426 -0.000023 0.453166
vn -0.891432 -0.000043 0.453155
vn -0.891437 -0.000065 0.453144
vn -0.209809 -0.000000 -0.977743
vn -0.209810 -0.000000 -0.977742
vn -0.209806 -0.000000 -0.977743
vn -0.209806 -0.000000 -0.977743
vn -0.209810 -0.000000 -0.977742
vn -0.209810 -0.000000 -0.977742
s off
g SM_Vanity_02b
f 17/1/1 18/2/2 1/4/3
f 1/4/4 18/2/5 5/3/6
f 22/19/7 23/20/8 6/22/9
f 6/22/10 23/20/11 10/21/12
f 24/11/13 28/12/14 7/14/15
f 7/14/16 28/12/17 13/13/18
f 29/15/19 21/16/20 12/18/21
f 12/18/22 21/16/23 3/17/24
f 27/39/25 29/15/26 11/40/27
f 11/40/28 29/15/29 12/18/30
f 19/29/31 31/30/32 2/32/33
f 2/32/34 31/30/35 16/31/36
f 32/33/37 26/34/38 15/36/39
f 15/36/40 26/34/41 8/35/42
f 30/37/43 32/33/44 14/38/45
f 14/38/46 32/33/47 15/36/48
f 18/2/49 19/5/50 5/3/51
f 5/3/52 19/5/53 2/6/54
f 21/7/55 20/8/56 3/10/57
f 3/10/58 20/8/59 4/9/60
f 20/8/61 17/1/62 4/9/63
f 4/9/64 17/1/65 1/4/66
f 23/20/67 24/23/68 10/21/69
f 10/21/70 24/23/71 7/24/72
f 26/25/73 25/26/74 8/28/75
f 8/28/76 25/26/77 9/27/78
f 25/26/79 22/19/80 9/27/81
f 9/27/82 22/19/83 6/22/84
f 28/12/85 27/39/86 13/13/87
f 13/13/88 27/39/89 11/40/90
f 31/30/91 30/37/92 16/31/93
f 16/31/94 30/37/95 14/38/96
f 7/46/97 13/47/98 10/45/99
f 2/54/100 16/55/101 5/53/102
f 8/42/103 9/43/104 15/41/105
f 3/50/106 4/51/107 12/49/108
f 10/45/109 13/47/110 6/44/111
f 13/47/112 11/48/113 6/44/114
f 5/53/115 16/55/116 1/52/117
f 16/55/118 14/56/119 1/52/120
f 6/44/121 11/48/122 9/43/123
f 9/43/124 11/48/125 15/41/126
f 11/48/127 12/49/128 15/41/129
f 12/49/130 4/51/131 15/41/132
f 15/41/133 4/51/134 14/56/135
f 4/51/136 1/52/137 14/56/138
s 1
f 49/57/139 33/58/140 64/59/141
f 64/59/141 33/58/140 34/60/142
f 49/57/139 50/61/143 33/58/140
f 33/58/140 50/61/143 35/62/144
f 50/61/143 51/63/145 35/62/144
f 35/62/144 51/63/145 45/64/146
f 51/63/145 52/65/147 45/64/146
f 45/64/146 52/65/147 44/66/148
f 52/65/147 53/67/149 44/66/148
f 44/66/148 53/67/149 43/68/150
f 53/67/149 54/69/151 43/68/150
f 43/68/150 54/69/151 42/70/152
f 54/69/151 55/71/153 42/70/152
f 42/70/152 55/71/153 41/72/154
f 55/71/153 56/73/155 41/72/154
f 41/72/154 56/73/155 40/74/156
f 56/75/155 57/76/157 40/77/156
f 40/77/156 57/76/157 38/78/158
f 57/76/157 58/79/159 38/78/158
f 38/78/158 58/79/159 39/80/160
f 58/79/159 59/81/161 39/80/160
f 39/80/160 59/81/161 46/82/162
f 59/81/161 60/83/163 46/82/162
f 46/82/162 60/83/163 47/84/164
f 60/83/163 61/85/165 47/84/164
f 47/84/164 61/85/165 48/86/166
f 61/85/165 62/87/167 48/86/166
f 48/86/166 62/87/167 37/88/168
f 62/87/167 63/89/169 37/88/168
f 37/88/168 63/89/169 36/90/170
f 63/89/169 64/59/141 36/90/170
f 36/90/170 64/59/141 34/60/142
f 49/91/139 65/92/171 50/93/143
f 50/93/143 65/92/171 66/94/172
f 51/95/145 50/93/143 67/96/173
f 67/96/173 50/93/143 66/94/172
f 52/97/147 51/95/145 68/98/174
f 68/98/174 51/95/145 67/96/173
f 52/97/147 68/98/174 53/99/149
f 53/99/149 68/98/174 69/100/175
f 53/99/149 69/100/175 54/101/151
f 54/101/151 69/100/175 70/102/176
f 55/103/153 54/101/151 71/104/177
f 71/104/177 54/101/151 70/102/176
f 56/105/155 55/103/153 72/106/178
f 72/106/178 55/103/153 71/104/177
f 56/107/155 72/108/178 57/109/157
f 57/109/157 72/108/178 73/110/179
f 57/109/157 73/110/179 58/111/159
f 58/111/159 73/110/179 74/112/180
f 59/113/161 58/111/159 75/114/181
f 75/114/181 58/111/159 74/112/180
f 60/115/163 59/113/161 76/116/182
f 76/116/182 59/113/161 75/114/181
f 60/115/163 76/116/182 61/117/165
f 61/117/165 76/116/182 77/118/183
f 61/117/165 77/118/183 62/119/167
f 62/119/167 77/118/183 78/120/184
f 63/121/169 62/119/167 79/122/185
f 79/122/185 62/119/167 78/120/184
f 64/123/141 63/121/169 80/124/186
f 80/124/186 63/121/169 79/122/185
f 64/123/141 80/124/186 49/91/139
f 49/91/139 80/124/186 65/92/171
f 82/125/187 83/126/188 110/127/189
f 110/127/189 83/126/188 109/128/190
f 82/125/187 81/129/191 83/126/188
f 109/128/190 83/126/188 108/130/192
f 108/130/192 83/126/188 84/131/193
f 83/126/188 81/129/191 84/131/193
f 108/130/192 84/131/193 107/132/194
f 107/132/194 84/131/193 85/133/195
f 84/131/193 81/129/191 85/133/195
f 85/133/195 86/134/196 107/132/194
f 107/132/194 86/134/196 106/135/197
f 85/133/195 81/129/191 86/134/196
f 86/134/196 87/136/198 106/135/197
f 106/135/197 87/136/198 105/137/199
f 86/134/196 81/129/191 87/136/198
f 105/137/199 87/136/198 104/138/200
f 104/138/200 87/136/198 88/139/201
f 87/136/198 81/129/191 88/139/201
f 104/138/200 88/139/201 103/140/202
f 103/140/202 88/139/201 89/141/203
f 88/139/201 81/129/191 89/141/203
f 89/141/203 90/142/204 103/140/202
f 103/140/202 90/142/204 102/143/205
f 89/141/203 81/129/191 90/142/204
f 90/142/204 91/144/206 102/143/205
f 102/143/205 91/144/206 101/145/207
f 90/142/204 81/129/191 91/144/206
f 101/145/207 91/144/206 100/146/208
f 100/146/208 91/144/206 92/147/209
f 91/144/206 81/129/191 92/147/209
f 100/146/208 92/147/209 99/148/210
f 99/148/210 92/147/209 93/149/211
f 92/147/209 81/129/191 93/149/211
f 93/149/211 94/150/212 99/148/210
f 99/148/210 94/150/212 98/151/213
f 93/149/211 81/129/191 94/150/212
f 113/152/214 98/151/213 95/153/215
f 95/153/215 98/151/213 94/150/212
f 94/150/212 81/129/191 95/153/215
f 113/152/214 95/153/215 112/154/216
f 112/154/216 95/153/215 96/155/217
f 95/153/215 81/129/191 96/155/217
f 112/154/216 96/155/217 111/156/218
f 111/156/218 96/155/217 97/157/219
f 96/155/217 81/129/191 97/157/219
f 81/129/191 82/125/187 97/157/219
f 110/127/189 111/156/218 82/125/187
f 82/125/187 111/156/218 97/157/219
f 76/158/182 99/148/210 77/159/183
f 77/159/183 99/148/210 98/151/213
f 75/160/181 100/146/208 76/158/182
f 76/158/182 100/146/208 99/148/210
f 74/161/180 101/145/207 75/160/181
f 75/160/181 101/145/207 100/146/208
f 102/143/205 101/145/207 73/162/179
f 73/162/179 101/145/207 74/161/180
f 72/163/178 103/140/202 73/162/179
f 73/162/179 103/140/202 102/143/205
f 71/164/177 104/138/200 72/163/178
f 72/163/178 104/138/200 103/140/202
f 70/165/176 105/137/199 71/164/177
f 71/164/177 105/137/199 104/138/200
f 106/135/197 105/137/199 69/166/175
f 69/166/175 105/137/199 70/165/176
f 68/167/174 107/132/194 69/166/175
f 69/166/175 107/132/194 106/135/197
f 67/168/173 108/130/192 68/167/174
f 68/167/174 108/130/192 107/132/194
f 66/169/172 109/128/190 67/168/173
f 67/168/173 109/128/190 108/130/192
f 110/127/189 109/128/190 65/170/171
f 65/170/171 109/128/190 66/169/172
f 111/156/218 110/127/189 80/171/186
f 80/171/186 110/127/189 65/170/171
f 79/172/185 112/154/216 80/171/186
f 80/171/186 112/154/216 111/156/218
f 78/173/184 113/152/214 79/172/185
f 79/172/185 113/152/214 112/154/216
f 98/151/213 113/152/214 77/159/183
f 77/159/183 113/152/214 78/173/184
s off
f 127/174/220 137/175/221 117/176/222
f 117/176/223 137/175/224 136/177/225
f 145/178/226 130/179/227 144/180/228
f 144/180/229 130/179/230 129/181/231
f 146/182/232 131/183/233 145/178/234
f 145/178/235 131/183/236 130/179/237
f 147/184/238 132/185/239 146/182/240
f 146/182/241 132/185/242 131/183/243
f 148/186/244 133/187/245 147/184/246
f 147/184/247 133/187/248 132/185/249
f 149/188/250 134/189/251 148/186/252
f 148/186/253 134/189/254 133/187/255
f 150/190/256 135/191/257 149/188/258
f 149/188/259 135/191/260 134/189/261
f 151/192/262 136/193/263 152/194/264
f 152/194/265 136/193/266 137/195/267
f 153/196/268 138/197/269 151/192/270
f 151/192/271 138/197/272 136/193/273
f 139/198/274 138/197/275 154/199/276
f 154/199/277 138/197/278 153/196/279
f 140/200/280 139/198/281 155/201/282
f 155/201/283 139/198/284 154/199/285
f 141/202/286 140/200/287 156/203/288
f 156/203/289 140/200/290 155/201/291
f 142/204/292 141/202/293 157/205/294
f 157/205/295 141/202/296 156/203/297
f 143/206/298 142/204/299 158/207/300
f 158/207/301 142/204/302 157/205/303
f 129/181/304 143/206/305 144/180/306
f 144/180/307 143/206/308 158/207/309
f 165/208/310 150/209/311 164/210/312
f 164/210/313 150/209/314 149/211/315
f 152/212/316 137/213/317 166/214/318
f 166/214/319 137/213/320 127/215/321
f 135/216/322 122/217/323 134/218/324
f 134/218/325 122/217/326 116/219/327
f 134/218/328 116/219/329 133/220/330
f 133/220/331 116/219/332 125/221/333
f 133/220/334 125/221/335 132/222/336
f 132/222/337 125/221/338 115/223/339
f 132/222/340 115/223/341 131/224/342
f 131/224/343 115/223/344 121/225/345
f 131/224/346 121/225/347 130/226/348
f 130/226/349 121/225/350 114/227/351
f 130/226/352 114/227/353 129/228/354
f 129/228/355 114/227/356 128/229/357
f 129/228/358 128/229/359 143/230/360
f 143/230/361 128/229/362 120/231/363
f 143/230/364 120/231/365 142/232/366
f 142/232/367 120/231/368 124/233/369
f 142/232/370 124/233/371 141/234/372
f 141/234/373 124/233/374 119/235/375
f 141/234/376 119/235/377 140/236/378
f 140/236/379 119/235/380 126/237/381
f 140/236/382 126/237/383 139/238/384
f 139/238/385 126/237/386 118/239/387
f 139/238/388 118/239/389 138/240/390
f 138/240/391 118/239/392 123/241/393
f 138/240/394 123/241/395 136/177/396
f 136/177/397 123/241/398 117/176/399
f 152/242/400 166/243/401 151/244/402
f 151/244/403 166/243/404 167/245/405
f 167/245/406 168/246/407 151/244/408
f 151/244/409 168/246/410 153/247/411
f 153/247/412 168/246/413 154/248/414
f 154/248/415 168/246/416 169/249/417
f 154/248/418 169/249/419 155/250/420
f 155/250/421 169/249/422 170/251/423
f 155/250/424 170/251/425 156/252/426
f 156/252/427 170/251/428 171/253/429
f 156/252/430 171/253/431 157/254/432
f 157/254/433 171/253/434 172/255/435
f 157/254/436 172/255/437 158/256/438
f 158/256/439 172/255/440 173/257/441
f 158/256/442 173/257/443 144/258/444
f 144/258/445 173/257/446 159/259/447
f 144/258/448 159/259/449 145/260/450
f 145/260/451 159/259/452 160/261/453
f 145/260/454 160/261/455 146/262/456
f 146/262/457 160/261/458 161/263/459
f 146/262/460 161/263/461 147/264/462
f 147/264/463 161/263/464 162/265/465
f 147/264/466 162/265/467 148/266/468
f 148/266/469 162/265/470 163/267/471
f 148/266/472 163/267/473 149/211/474
f 149/211/475 163/267/476 164/210/477
f 165/268/478 122/269/479 150/270/480
f 150/270/481 122/269/482 135/271/483
f 160/272/484 159/273/485 114/274/486
f 114/274/487 159/273/488 128/275/489
f 161/276/490 160/272/491 121/277/492
f 121/277/493 160/272/494 114/274/495
f 162/278/496 161/276/497 115/279/498
f 115/279/499 161/276/500 121/277/501
f 163/280/502 162/278/503 125/281/504
f 125/281/505 162/278/506 115/279/507
f 164/282/508 163/280/509 116/283/510
f 116/283/511 163/280/512 125/281/513
f 165/284/514 164/282/515 122/285/516
f 122/285/517 164/282/518 116/283/519
f 167/286/520 166/287/521 117/288/522
f 117/288/523 166/287/524 127/289/525
f 168/290/526 167/286/527 123/291/528
f 123/291/529 167/286/530 117/288/531
f 168/290/532 123/291/533 169/292/534
f 169/292/535 123/291/536 118/293/537
f 169/292/538 118/293/539 170/294/540
f 170/294/541 118/293/542 126/295/543
f 170/294/544 126/295/545 171/296/546
f 171/296/547 126/295/548 119/297/549
f 171/296/550 119/297/551 172/298/552
f 172/298/553 119/297/554 124/299/555
f 172/298/556 124/299/557 173/300/558
f 173/300/559 124/299/560 120/301/561
f 173/300/562 120/301/563 159/273/564
f 159/273/565 120/301/566 128/275/567
f 175/302/568 188/303/569 181/304/570
f 181/304/571 188/303/572 186/305/573
f 187/306/574 189/307/575 180/308/576
f 180/308/577 189/307/578 174/309/579
f 174/310/580 190/311/581 180/312/582
f 186/313/583 184/314/584 181/315/585
f 181/315/586 184/314/587 176/316/588
f 188/317/589 182/318/590 186/319/591
f 186/319/592 182/318/593 184/320/594
f 189/321/595 183/322/596 188/323/597
f 188/323/598 183/322/599 182/324/600
f 185/325/601 183/326/602 187/327/603
f 187/327/604 183/326/605 189/328/606
f 180/329/607 178/330/608 187/331/609
f 187/331/610 178/330/611 185/332/612
f 176/333/613 177/334/614 181/335/615
f 181/335/616 177/334/617 175/336/618
f 179/337/619 178/338/620 190/311/621
f 190/311/622 178/338/623 180/312/624
f 200/339/625 191/340/626 199/341/627
f 199/341/628 191/340/629 194/342/630
f 201/343/631 196/344/632 200/339/633
f 200/339/634 196/344/635 191/340/636
f 202/345/637 192/346/638 201/343/639
f 201/343/640 192/346/641 196/344/642
f 203/347/643 195/348/644 202/345/645
f 202/345/646 195/348/647 192/346/648
f 204/349/649 193/350/650 203/347/651
f 203/347/652 193/350/653 195/348/654
f 192/351/655 216/352/656 196/353/657
f 196/353/658 216/352/659 215/354/660
f 196/353/661 215/354/662 191/355/663
f 191/355/664 215/354/665 214/356/666
f 191/355/667 214/356/668 194/357/669
f 194/357/670 214/356/671 213/358/672
f 199/359/673 206/360/674 200/361/675
f 200/361/676 206/360/677 207/362/678
f 200/361/679 207/362/680 201/363/681
f 201/363/682 207/362/683 208/364/684
f 201/363/685 208/364/686 202/365/687
f 202/365/688 208/364/689 209/366/690
f 202/365/691 209/366/692 203/367/693
f 203/367/694 209/366/695 210/368/696
f 203/367/697 210/368/698 204/369/699
f 204/369/700 210/368/701 211/370/702
f 193/371/703 218/372/704 195/373/705
f 195/373/706 218/372/707 217/374/708
f 216/352/709 192/351/710 217/374/711
f 217/374/712 192/351/713 195/373/714
f 193/371/715 197/375/716 218/372/717
f 218/372/718 197/375/719 219/376/720
f 211/370/721 205/377/722 204/369/723
f 204/369/724 205/377/725 198/378/726
f 193/350/727 204/349/728 197/379/729
f 197/379/730 204/349/731 198/380/732
f 190/381/733 194/357/734 212/382/735
f 212/382/736 194/357/737 213/358/738
f 175/302/739 206/360/740 174/309/741
f 174/309/742 206/360/743 199/359/744
f 190/311/745 174/310/746 194/342/747
f 194/342/748 174/310/749 199/341/750
f 224/383/751 217/384/752 220/385/753
f 220/385/754 217/384/755 218/386/756
f 226/387/757 216/388/758 224/383/759
f 224/383/760 216/388/761 217/384/762
f 228/389/763 215/390/764 226/387/765
f 226/387/766 215/390/767 216/388/768
f 230/391/769 214/392/770 228/389/771
f 228/389/772 214/392/773 215/390/774
f 232/393/775 213/394/776 230/391/777
f 230/391/778 213/394/779 214/392/780
f 207/395/781 206/396/782 231/397/783
f 231/397/784 206/396/785 233/398/786
f 208/399/787 207/395/788 229/400/789
f 229/400/790 207/395/791 231/397/792
f 209/401/793 208/399/794 227/402/795
f 227/402/796 208/399/797 229/400/798
f 210/403/799 209/401/800 225/404/801
f 225/404/802 209/401/803 227/402/804
f 211/405/805 210/403/806 223/406/807
f 223/406/808 210/403/809 225/404/810
f 205/407/811 211/405/812 222/408/813
f 222/408/814 211/405/815 223/406/816
f 219/409/817 221/410/818 218/386/819
f 218/386/820 221/410/821 220/385/822
f 206/396/823 175/336/824 233/398/825
f 233/398/826 175/336/827 177/334/828
f 234/411/829 212/412/830 232/393/831
f 232/393/832 212/412/833 213/394/834
f 241/413/835 240/414/836 235/415/837
f 235/415/838 240/414/839 237/416/840
f 242/417/841 236/418/842 239/419/843
f 239/419/844 236/418/845 238/420/846
f 205/377/847 246/421/848 240/422/849
f 240/422/850 246/421/851 237/423/852
f 198/378/853 239/424/854 245/425/855
f 245/425/856 239/424/857 238/426/858
f 197/379/859 198/380/860 245/427/861
f 222/408/862 243/428/863 205/407/864
f 205/407/865 243/428/866 246/429/867
f 246/430/868 243/431/869 237/432/870
f 237/432/871 243/431/872 235/433/873
f 238/434/874 236/435/875 245/436/876
f 245/436/877 236/435/878 244/437/879
f 247/438/880 197/379/881 244/439/882
f 244/439/883 197/379/884 245/427/885
f 197/440/886 247/441/887 219/442/888
f 219/442/889 247/441/890 221/443/891
f 198/378/892 205/377/893 239/424/894
f 239/424/895 205/377/896 240/422/897
f 240/444/898 241/445/899 239/446/900
f 239/446/901 241/445/902 242/447/903
f 179/448/904 190/449/905 234/450/906
f 234/450/907 190/449/908 212/451/909
f 188/303/910 175/302/911 189/307/912
f 189/307/913 175/302/914 174/309/915
