# This file uses feet as units for non-parametric coordinates.

g default
v -48.169754 7.204399 33.293259
v 6.228073 7.204399 33.293259
v 6.228115 -6.872116 33.293270
v -48.169754 -6.872116 33.293270
v -48.169746 7.204399 32.394386
v 6.228069 7.204399 32.394390
v 6.228111 -6.872116 32.394398
v -48.169754 -6.872116 32.394398
v -46.888733 7.204384 32.481644
v -46.888725 -6.872116 32.481644
v -46.888729 -6.872116 -32.469398
v -46.888737 7.204384 -32.469353
v -47.787609 7.204384 -32.469345
v -47.787613 7.204384 32.481636
v -47.787598 -6.872116 32.481640
v -47.787601 -6.872116 -32.469398
v 1.708784 -6.188454 16.634243
v 6.507053 -6.188454 32.421772
v -47.103767 -6.188454 32.421768
v 1.708785 -6.188454 -16.621937
v -0.775469 -6.188454 0.006149
v -47.103767 -6.188454 0.006147
v -47.103764 -6.188454 -32.409477
v 6.507057 -6.188454 -32.409473
v 0.344831 7.620094 5.103378
v 0.972822 7.620094 10.247631
v 0.972830 -7.620094 10.247631
v 0.344831 -7.620094 5.103374
v 2.132902 7.620094 16.010509
v 2.132910 -7.620094 16.010509
v 3.598173 7.620094 21.166561
v 3.598181 -7.620094 21.166553
v 5.384373 7.620094 26.163271
v 5.384380 -7.620094 26.163269
v 6.414585 7.620087 30.061497
v 6.414593 -7.620094 30.061489
v 7.027386 7.620087 33.969788
v 7.027439 -7.620094 33.969784
v -0.000002 -7.620094 0.006153
v -0.000002 7.620094 0.006153
v 0.344831 7.620094 -5.091064
v 0.344831 -7.620094 -5.091061
v 0.972830 -7.620094 -10.235317
v 0.972822 7.620094 -10.235321
v 2.132911 -7.620094 -15.998196
v 2.132903 7.620094 -15.998203
v 3.598181 -7.620094 -21.154240
v 3.598173 7.620094 -21.154247
v 5.384384 -7.620094 -26.150951
v 5.384377 7.620094 -26.150951
v 6.414597 -7.620094 -30.049168
v 6.414589 7.620087 -30.049175
v 7.029327 -7.620094 -33.969791
v 7.029274 7.620087 -33.969799
v 2.132911 -4.276047 -15.998196
v 2.132903 4.202187 -15.998203
v 3.598181 -4.276047 -21.154240
v 3.598173 4.202187 -21.154247
v 5.384384 -4.276047 -26.150951
v 5.384377 4.202187 -26.150951
v 5.899490 -4.276047 -28.100063
v 5.899483 4.202179 -28.100063
v -0.880388 -4.276047 -15.998203
v -0.880388 0.183205 -15.998203
v 0.584883 0.183205 -21.154247
v 2.371086 0.183205 -26.150951
v 2.886192 0.183197 -28.100063
v 0.626258 3.337990 -15.998203
v 2.091528 3.337990 -21.154247
v 3.877731 3.337990 -26.150951
v 4.392838 3.337982 -28.100063
v -0.513536 1.661507 -15.998203
v 0.951735 1.661507 -21.154247
v 2.737938 1.661507 -26.150951
v 3.253044 1.661499 -28.100063
v 0.584890 -4.276047 -21.154240
v 2.371094 -4.276047 -26.150951
v 2.886200 -4.276047 -28.100063
v -0.561106 7.620094 5.189255
v 0.074453 7.620094 10.392666
v 0.074461 -7.620094 10.392666
v -0.561106 -7.620094 5.189251
v 1.248503 7.620094 16.224842
v 1.248510 -7.620094 16.224842
v 2.731581 7.620094 21.444252
v 2.731588 -7.620094 21.444244
v 4.515247 7.620094 26.432928
v 4.515255 -7.620094 26.432926
v 5.524008 7.620087 30.248480
v 5.524015 -7.620094 30.248478
v 6.128368 7.620087 34.110748
v 6.128422 -7.620094 34.110752
v -0.910006 -7.620094 0.006153
v -0.910006 7.620094 0.006153
v -0.561106 7.620094 -5.176941
v -0.561106 -7.620094 -5.176937
v 0.074461 -7.620094 -10.380352
v 0.074453 7.620094 -10.380356
v 1.248511 -7.620094 -16.212528
v 1.248504 7.620094 -16.212536
v 2.731588 -7.620094 -21.431934
v 2.731581 7.620094 -21.431942
v 4.515259 -7.620094 -26.420612
v 4.515251 7.620094 -26.420612
v 5.524017 -7.620094 -30.236149
v 5.524002 7.620087 -30.236149
v 6.130310 -7.620094 -34.110752
v 6.130257 7.620087 -34.110752
v 1.184554 -6.323723 -15.893070
v 1.184852 5.474251 -15.892765
v 2.992018 -6.323723 -21.348484
v 2.846220 5.474258 -21.396862
v 4.761726 -6.308266 -26.344135
v 4.624886 5.466240 -26.384701
v 5.553772 -6.308266 -30.225468
v 5.553764 5.466232 -30.225468
v -1.356745 -6.323723 -15.893070
v -1.356745 5.474251 -15.892765
v -1.356743 -6.308266 -30.225468
v -1.356743 5.466232 -30.225468
v 2.505958 -4.417404 -15.998196
v 3.971228 -4.417404 -21.154240
v 3.643164 -4.417404 -21.154240
v 2.177886 -4.417404 -15.998203
v 5.757431 -4.417404 -26.150951
v 5.429367 -4.417404 -26.150951
v 6.272537 -4.417404 -28.100063
v 5.944473 -4.417404 -28.100063
v 2.505958 -3.890427 -15.998196
v 3.971228 -3.890427 -21.154240
v 3.643164 -3.890427 -21.154240
v 2.177886 -3.890427 -15.998203
v 5.757431 -3.890427 -26.150951
v 5.429367 -3.890427 -26.150951
v 6.272537 -3.890427 -28.100063
v 5.944473 -3.890427 -28.100063
v 2.648671 -2.056610 10.960049
v 2.213410 -1.873749 11.031898
v 2.033116 -1.432289 11.061657
v 2.213410 -0.990829 11.031898
v 2.648671 -0.807968 10.960049
v 3.083860 -0.990829 10.888199
v 3.264120 -1.432289 10.858440
v 3.083860 -1.873749 10.888203
v 2.648673 -2.056610 -10.947750
v 2.213412 -1.873749 -11.019596
v 2.033118 -1.432289 -11.049358
v 2.213412 -0.990829 -11.019596
v 2.648673 -0.807968 -10.947750
v 3.083861 -0.990829 -10.875896
v 3.264121 -1.432289 -10.846134
v 3.083861 -1.873749 -10.875896
v 1.970579 -2.056610 -5.388218
v 1.648054 -2.056610 0.006153
v 1.970579 -2.056610 5.400517
v 1.531923 -1.873749 5.439724
v 1.206594 -1.873749 0.006153
v 1.531927 -1.873749 -5.427425
v 1.350229 -1.432289 5.455967
v 1.023737 -1.432289 0.006153
v 1.350229 -1.432289 -5.443665
v 1.531927 -0.990829 5.439724
v 1.206594 -0.990829 0.006153
v 1.531927 -0.990829 -5.427425
v 1.970579 -0.807968 5.400517
v 1.648054 -0.807968 0.006153
v 1.970579 -0.807968 -5.388218
v 2.408941 -0.990829 5.364109
v 2.089514 -0.990829 0.006153
v 2.408942 -0.990829 -5.351810
v 2.590517 -1.432289 5.349026
v 2.272375 -1.432289 0.006153
v 2.590517 -1.432289 -5.336727
v 2.408941 -1.873749 5.364109
v 2.089514 -1.873749 0.006153
v 2.408942 -1.873749 -5.351810
v 0.301943 -1.432289 4.996403
v 0.301943 -1.077461 5.201267
v 0.301942 -1.077461 5.610989
v 0.301942 -1.432289 5.815849
v 0.301942 -1.787117 5.610989
v 0.301943 -1.787117 5.201267
v 1.537508 -1.432289 4.996403
v 1.537508 -1.077461 5.201267
v 1.537508 -1.077461 5.610989
v 1.537508 -1.432289 5.815849
v 1.537508 -1.787117 5.610989
v 1.537508 -1.787117 5.201267
v 0.301943 -1.432289 -5.803596
v 0.301943 -1.077461 -5.598736
v 0.301943 -1.077461 -5.189014
v 0.301943 -1.432289 -4.984150
v 0.301943 -1.787117 -5.189014
v 0.301943 -1.787117 -5.598736
v 1.537508 -1.432289 -5.803596
v 1.537508 -1.077461 -5.598736
v 1.537508 -1.077461 -5.189014
v 1.537508 -1.432289 -4.984150
v 1.537508 -1.787117 -5.189014
v 1.537508 -1.787117 -5.598736
v -48.169750 7.204399 -33.280003
v 6.228077 7.204402 -33.280003
v 6.228119 -6.872112 -33.280018
v -48.169750 -6.872116 -33.280022
v -48.169743 7.204399 -32.381138
v 6.228073 7.204402 -32.381138
v 6.228115 -6.872112 -32.381138
v -48.169750 -6.872116 -32.381149
v 1.708785 -6.601732 -16.621944
v 6.507057 -6.601734 -32.409473
v -47.103764 -6.601734 -32.409477
v 1.708784 -6.601727 16.634243
v -0.775469 -6.601730 0.006149
v -47.103767 -6.601730 0.006147
v -47.103767 -6.601723 32.421776
v 6.507053 -6.601725 32.421783
vt 0.538582 0.973377
vt 0.538582 0.969467
vt 0.006815 0.994591
vt 0.006815 0.990682
vt 0.547033 0.691266
vt 0.780587 0.691266
vt 0.780587 0.752227
vt 0.547033 0.752227
vt 0.549627 0.549582
vt 0.549627 0.610543
vt 0.316072 0.610543
vt 0.316072 0.549582
vt 0.771140 0.969467
vt 0.771140 0.973377
vt 0.239366 0.990682
vt 0.239366 0.994591
vt 0.006815 0.969437
vt 0.006815 0.978041
vt 0.006815 0.974132
vt 0.006815 0.965528
vt 0.284496 0.965528
vt 0.284496 0.969437
vt 0.284489 0.974132
vt 0.284489 0.978041
vt 0.929697 0.481041
vt 0.929697 0.542001
vt 0.650834 0.542001
vt 0.650834 0.481041
vt 0.931453 0.993504
vt 0.914614 0.990989
vt 0.914614 0.944072
vt 0.947441 0.944072
vt 0.947441 0.998364
vt 0.897775 0.993504
vt 0.881787 0.944072
vt 0.881787 0.998364
vt 0.205090 0.960833
vt 0.182563 0.960833
vt 0.382618 0.758104
vt 0.382618 0.824526
vt 0.182563 0.956900
vt 0.359940 0.824526
vt 0.205090 0.956900
vt 0.359940 0.758104
vt 0.229530 0.960833
vt 0.334521 0.824526
vt 0.229530 0.956900
vt 0.334521 0.758104
vt 0.997438 0.931763
vt 0.997437 0.997878
vt 0.311773 0.824526
vt 0.252723 0.960833
vt 0.252723 0.956900
vt 0.311773 0.758104
vt 0.290030 0.824526
vt 0.272885 0.960833
vt 0.290030 0.758104
vt 0.272885 0.956900
vt 0.273400 0.824526
vt 0.289962 0.960833
vt 0.273400 0.758104
vt 0.289962 0.956900
vt 0.256567 0.824526
vt 0.306858 0.960833
vt 0.878735 0.809888
vt 0.878734 0.743773
vt 0.306858 0.956900
vt 0.256567 0.758104
vt 0.405208 0.758104
vt 0.094628 0.483455
vt 0.405208 0.824526
vt 0.070894 0.490618
vt 0.427798 0.758104
vt 0.049386 0.498288
vt 0.450476 0.758104
vt 0.032825 0.502293
vt 0.003751 0.553757
vt 0.323411 0.510925
vt 0.250176 0.489474
vt 0.330715 0.510925
vt 0.003751 0.535959
vt 0.330715 0.535921
vt 0.016450 0.535959
vt 0.323411 0.535921
vt 0.016450 0.553757
vt 0.323411 0.488045
vt 0.330715 0.488045
vt 0.323411 0.477252
vt 0.330715 0.477252
vt 0.315284 0.510925
vt 0.315284 0.535921
vt 0.315284 0.488045
vt 0.315284 0.477252
vt 0.308117 0.510925
vt 0.032825 0.472495
vt 0.015497 0.444065
vt 0.862364 0.690271
vt 0.094628 0.472495
vt 0.953121 0.996907
vt 0.953121 0.944459
vt 0.983903 0.944459
vt 0.983903 0.996907
vt 0.011477 0.750005
vt 0.011477 0.713446
vt 0.017974 0.717173
vt 0.022888 0.724402
vt 0.024470 0.730776
vt 0.024470 0.750005
vt 0.862364 0.750682
vt 0.788901 0.750682
vt 0.788901 0.690271
vt 0.751130 0.685779
vt 0.728695 0.685779
vt 0.728696 0.619316
vt 0.751130 0.619316
vt 0.776262 0.685779
vt 0.776262 0.619316
vt 0.798747 0.685779
vt 0.798747 0.619316
vt 0.820538 0.685779
vt 0.820538 0.619316
vt 0.837538 0.685779
vt 0.837538 0.619316
vt 0.854582 0.685779
vt 0.854582 0.619316
vt 0.706466 0.685779
vt 0.706466 0.619316
vt 0.661803 0.685779
vt 0.661803 0.619316
vt 0.684237 0.619316
vt 0.684237 0.685779
vt 0.636671 0.685779
vt 0.636671 0.671196
vt 0.636671 0.634222
vt 0.636671 0.619316
vt 0.308117 0.535921
vt 0.575395 0.685779
vt 0.558297 0.685779
vt 0.558297 0.619316
vt 0.575395 0.619316
vt 0.308117 0.488045
vt 0.614185 0.685779
vt 0.614185 0.671196
vt 0.614185 0.619316
vt 0.614185 0.634222
vt 0.592395 0.685779
vt 0.592395 0.671196
vt 0.592395 0.619316
vt 0.592395 0.634222
vt 0.583894 0.671196
vt 0.583894 0.634222
vt 0.003751 0.513483
vt 0.016450 0.513483
vt 0.003751 0.500364
vt 0.016450 0.500364
vt 0.182378 0.948284
vt 0.206360 0.948284
vt 0.206360 0.952205
vt 0.182378 0.952205
vt 0.230715 0.948284
vt 0.230715 0.952205
vt 0.253677 0.948284
vt 0.253677 0.952205
vt 0.273613 0.948284
vt 0.273613 0.952205
vt 0.290722 0.948284
vt 0.290722 0.952205
vt 0.307768 0.948284
vt 0.307768 0.952205
vt 0.159919 0.948284
vt 0.159919 0.952205
vt 0.115363 0.948284
vt 0.137720 0.948284
vt 0.137720 0.952205
vt 0.115363 0.952205
vt 0.091404 0.948284
vt 0.091404 0.952205
vt 0.006815 0.948284
vt 0.023816 0.948284
vt 0.023816 0.952205
vt 0.006815 0.952205
vt 0.067039 0.948284
vt 0.067039 0.952205
vt 0.043917 0.948284
vt 0.043917 0.952205
vt 0.230948 0.489474
vt 0.224574 0.487892
vt 0.217344 0.482977
vt 0.213618 0.476481
vt 0.250176 0.476481
vt 0.015499 0.494938
vt 0.004539 0.494938
vt 0.004539 0.444065
vt 0.450476 0.824526
vt 0.427798 0.824526
vt 0.475895 0.824526
vt 0.475895 0.758104
vt 0.474501 0.767456
vt 0.474503 0.818876
vt 0.553902 0.824526
vt 0.537015 0.824526
vt 0.536969 0.818808
vt 0.536969 0.767491
vt 0.537015 0.758104
vt 0.553902 0.758104
vt 0.498280 0.818876
vt 0.498643 0.824526
vt 0.498643 0.758104
vt 0.498490 0.767456
vt 0.520052 0.818808
vt 0.520386 0.824526
vt 0.520386 0.758104
vt 0.520229 0.767491
vt 0.308117 0.477252
vt 0.160138 0.960833
vt 0.160138 0.956900
vt 0.137872 0.960833
vt 0.115503 0.960833
vt 0.115503 0.956900
vt 0.137872 0.956900
vt 0.091448 0.960833
vt 0.091448 0.956900
vt 0.023991 0.960833
vt 0.006815 0.960833
vt 0.006815 0.956900
vt 0.023991 0.956900
vt 0.067019 0.960833
vt 0.067019 0.956900
vt 0.043986 0.960833
vt 0.043986 0.956900
vt 0.882635 0.743773
vt 0.882635 0.809888
vt 0.993537 0.997878
vt 0.993538 0.931763
vt 0.286499 0.535921
vt 0.286499 0.510925
vt 0.286499 0.488045
vt 0.286499 0.477252
vt 0.893606 0.459851
vt 0.892191 0.459851
vt 0.892191 0.436739
vt 0.893606 0.436739
vt 0.892191 0.413742
vt 0.893606 0.413742
vt 0.892191 0.400320
vt 0.893606 0.400320
vt 0.987130 0.998456
vt 0.987130 0.980246
vt 0.988545 0.980246
vt 0.988545 0.998456
vt 0.987130 0.957248
vt 0.988545 0.957248
vt 0.987130 0.943826
vt 0.988545 0.943826
vt 0.453156 0.467609
vt 0.455428 0.467609
vt 0.455428 0.469023
vt 0.453156 0.469023
vt 0.471669 0.451262
vt 0.473942 0.451262
vt 0.473942 0.452677
vt 0.471669 0.452677
vt 0.024091 0.458866
vt 0.026417 0.458866
vt 0.026417 0.481626
vt 0.024091 0.481626
vt 0.026417 0.503682
vt 0.024091 0.503682
vt 0.026417 0.512286
vt 0.024091 0.512286
vt 0.917474 0.431781
vt 0.919800 0.431781
vt 0.919800 0.454543
vt 0.917474 0.454543
vt 0.917474 0.409721
vt 0.919800 0.409721
vt 0.917474 0.401117
vt 0.919800 0.401117
vt 0.720394 0.980262
vt 0.741224 0.980262
vt 0.918661 0.038183
vt 0.917596 0.036408
vt 0.918077 0.034395
vt 0.741224 0.982868
vt 0.720394 0.982868
vt 0.720394 0.978262
vt 0.895247 0.154122
vt 0.893501 0.155195
vt 0.891512 0.154698
vt 0.890447 0.152924
vt 0.741224 0.978262
vt 0.720394 0.994212
vt 0.741224 0.994212
vt 0.720394 0.992104
vt 0.919823 0.033322
vt 0.921811 0.033818
vt 0.890928 0.150910
vt 0.922877 0.035593
vt 0.892674 0.149838
vt 0.894662 0.150334
vt 0.895728 0.152109
vt 0.741224 0.992104
vt 0.720394 0.989963
vt 0.741224 0.989963
vt 0.720394 0.987707
vt 0.741224 0.987707
vt 0.720394 0.985410
vt 0.741224 0.985410
vt 0.762317 0.980262
vt 0.922396 0.037606
vt 0.784179 0.980262
vt 0.784179 0.982868
vt 0.920650 0.038679
vt 0.762317 0.982868
vt 0.697773 0.982868
vt 0.697773 0.980262
vt 0.762317 0.978262
vt 0.784179 0.978262
vt 0.697773 0.978262
vt 0.762317 0.994212
vt 0.784179 0.994212
vt 0.697773 0.994212
vt 0.762317 0.992104
vt 0.784179 0.992104
vt 0.697773 0.992104
vt 0.762317 0.989963
vt 0.784179 0.989963
vt 0.697773 0.989963
vt 0.762317 0.987707
vt 0.784179 0.987707
vt 0.697773 0.987707
vt 0.762317 0.985410
vt 0.784179 0.985410
vt 0.697773 0.985410
vt 0.720394 0.996343
vt 0.741224 0.996343
vt 0.762317 0.996343
vt 0.784179 0.996343
vt 0.697773 0.996343
vt 0.904426 0.415580
vt 0.904426 0.412618
vt 0.904426 0.409197
vt 0.904426 0.403272
vt 0.904426 0.399851
vt 0.907447 0.412618
vt 0.907447 0.415580
vt 0.904426 0.406234
vt 0.907447 0.399851
vt 0.907447 0.403272
vt 0.907447 0.409197
vt 0.904426 0.418543
vt 0.907447 0.418543
vt 0.907447 0.406234
vt 0.261060 0.499842
vt 0.258097 0.499842
vt 0.267443 0.499842
vt 0.254676 0.499842
vt 0.248750 0.499842
vt 0.264022 0.499842
vt 0.258097 0.496821
vt 0.261060 0.496821
vt 0.267443 0.496821
vt 0.251713 0.499842
vt 0.264022 0.496821
vt 0.248750 0.496821
vt 0.254676 0.496821
vt 0.251713 0.496821
vt 0.538582 1.973377
vt 0.538582 1.969467
vt 0.006815 1.994591
vt 0.006815 1.990682
vt 0.547033 1.691266
vt 0.780587 1.691266
vt 0.780587 1.752227
vt 0.547033 1.752227
vt 0.549628 1.549582
vt 0.549628 1.610543
vt 0.316080 1.610543
vt 0.316080 1.549582
vt 0.771140 1.969467
vt 0.771140 1.973377
vt 0.239366 1.990682
vt 0.239366 1.994591
vt 0.931453 1.993504
vt 0.914614 1.990989
vt 0.914614 1.944072
vt 0.947441 1.944072
vt 0.947441 1.998364
vt 0.897775 1.993504
vt 0.881787 1.944072
vt 0.881787 1.998364
vn 0.000000 0.000001 1.000000
vn 0.000000 0.000001 1.000000
vn 0.000000 0.000001 1.000000
vn 0.000000 0.000001 1.000000
vn 0.000000 0.000001 1.000000
vn 0.000000 0.000001 1.000000
vn 0.000000 1.000000 0.000000
vn 0.000000 1.000000 0.000000
vn 0.000000 1.000000 0.000000
vn 0.000000 1.000000 0.000000
vn 0.000000 1.000000 0.000000
vn 0.000000 1.000000 0.000000
vn -0.000000 -1.000000 -0.000000
vn -0.000000 -1.000000 -0.000000
vn -0.000000 -1.000000 -0.000000
vn -0.000000 -1.000000 -0.000000
vn -0.000000 -1.000000 -0.000000
vn -0.000000 -1.000000 -0.000000
vn 0.000000 -0.000001 -1.000000
vn 0.000000 -0.000001 -1.000000
vn -0.000000 -0.000001 -1.000000
vn -0.000000 -0.000001 -1.000000
vn -0.000000 -0.000001 -1.000000
vn 0.000000 -0.000001 -1.000000
vn 1.000000 0.000001 -0.000000
vn 1.000000 0.000001 -0.000000
vn 1.000000 0.000001 -0.000000
vn 1.000000 0.000001 -0.000000
vn 1.000000 0.000001 -0.000000
vn 1.000000 0.000001 -0.000000
vn 0.000000 1.000000 0.000000
vn 0.000000 1.000000 0.000000
vn 0.000000 1.000000 0.000000
vn 0.000000 1.000000 0.000000
vn 0.000000 1.000000 0.000000
vn 0.000000 1.000000 0.000000
vn -0.000000 -1.000000 -0.000000
vn -0.000000 -1.000000 -0.000000
vn -0.000000 -1.000000 -0.000000
vn -0.000000 -1.000000 -0.000000
vn -0.000000 -1.000000 -0.000000
vn -0.000000 -1.000000 -0.000000
vn 0.000000 1.000000 0.000000
vn 0.000000 1.000000 0.000000
vn 0.000000 1.000000 0.000000
vn 0.000000 1.000000 0.000000
vn 0.000000 1.000000 0.000000
vn 0.000000 1.000000 0.000000
vn 0.000000 1.000000 0.000000
vn 0.000000 1.000000 0.000000
vn 0.000000 1.000000 0.000000
vn 0.000000 1.000000 0.000000
vn 0.000000 1.000000 0.000000
vn 0.000000 1.000000 0.000000
vn 0.000000 1.000000 0.000000
vn 0.000000 1.000000 0.000000
vn 0.000000 1.000000 0.000000
vn 0.000000 1.000000 0.000000
vn 0.000000 1.000000 0.000000
vn 0.000000 1.000000 0.000000
vn 0.995537 0.000000 -0.094371
vn 0.987218 0.000000 -0.159379
vn 0.987217 0.000000 -0.159379
vn 0.987217 0.000000 -0.159379
vn 0.995537 0.000000 -0.094372
vn 0.995537 0.000000 -0.094371
vn 0.987218 0.000000 -0.159379
vn 0.971867 0.000001 -0.235532
vn 0.971866 0.000000 -0.235532
vn 0.971866 0.000000 -0.235532
vn 0.987217 0.000000 -0.159379
vn 0.987218 0.000000 -0.159379
vn 0.971867 0.000001 -0.235532
vn 0.952303 0.000001 -0.305156
vn 0.952303 0.000001 -0.305156
vn 0.952303 0.000001 -0.305156
vn 0.971866 0.000000 -0.235532
vn 0.971867 0.000001 -0.235532
vn 0.952303 0.000001 -0.305156
vn 0.955087 0.000001 -0.296327
vn 0.955087 0.000001 -0.296327
vn 0.955087 0.000001 -0.296327
vn 0.952303 0.000001 -0.305156
vn 0.952303 0.000001 -0.305156
vn 0.955087 0.000001 -0.296327
vn 0.978662 0.000002 -0.205476
vn 0.978661 0.000001 -0.205481
vn 0.978661 0.000001 -0.205481
vn 0.955087 0.000001 -0.296327
vn 0.955087 0.000001 -0.296327
vn 0.978662 0.000002 -0.205476
vn 0.987930 0.000004 -0.154902
vn 0.987928 0.000001 -0.154912
vn 0.987928 0.000001 -0.154912
vn 0.978661 0.000001 -0.205481
vn 0.978662 0.000002 -0.205476
vn 0.995537 0.000000 -0.094371
vn 0.995537 0.000000 -0.094372
vn 1.000000 0.000000 0.000000
vn 1.000000 0.000000 0.000000
vn 1.000000 -0.000000 0.000000
vn 0.995537 0.000000 -0.094371
vn 0.995537 0.000000 0.094371
vn 0.995537 0.000000 0.094372
vn 0.987217 0.000000 0.159379
vn 0.987217 0.000000 0.159379
vn 0.987218 0.000001 0.159379
vn 0.995537 0.000000 0.094371
vn 0.987218 0.000001 0.159379
vn 0.987217 0.000000 0.159379
vn 0.971866 0.000000 0.235533
vn 0.987218 0.000001 0.159379
vn 0.971866 0.000000 0.235533
vn 0.974856 0.000000 0.222835
vn 0.987218 0.000001 0.159379
vn 0.974856 0.000000 0.222835
vn 0.974856 0.000000 0.222834
vn 0.987218 0.000001 0.159379
vn 0.974856 0.000000 0.222834
vn 0.971866 -0.000000 0.235532
vn 0.987930 0.000001 0.154900
vn 0.987932 0.000004 0.154890
vn 0.978663 0.000002 0.205471
vn 0.978663 0.000002 0.205471
vn 0.978662 0.000001 0.205475
vn 0.987930 0.000001 0.154900
vn 0.995537 0.000000 0.094371
vn 1.000000 -0.000000 0.000000
vn 1.000000 0.000000 0.000000
vn 1.000000 0.000000 0.000000
vn 0.995537 0.000000 0.094372
vn 0.995537 0.000000 0.094371
vn 0.952302 -0.000000 0.305156
vn 0.974856 0.000000 0.222835
vn 0.971866 0.000000 0.235533
vn 0.971866 0.000000 0.235533
vn 0.952302 -0.000000 0.305156
vn 0.952302 -0.000000 0.305156
vn 0.974856 0.000000 0.222834
vn 0.952302 -0.000000 0.305156
vn 0.952302 -0.000000 0.305156
vn 0.952302 -0.000000 0.305156
vn 0.971866 -0.000000 0.235532
vn 0.974856 0.000000 0.222834
vn 0.955087 -0.000000 0.296327
vn 0.952302 -0.000000 0.305156
vn 0.952302 -0.000000 0.305156
vn 0.952302 -0.000000 0.305156
vn 0.955086 0.000000 0.296327
vn 0.955087 -0.000000 0.296327
vn 0.952302 -0.000000 0.305156
vn 0.955087 -0.000000 0.296327
vn 0.955086 -0.000000 0.296327
vn 0.955086 -0.000000 0.296327
vn 0.952302 -0.000000 0.305156
vn 0.952302 -0.000000 0.305156
vn 0.955086 0.000000 0.296327
vn 0.978662 0.000001 0.205475
vn 0.966808 0.000001 0.255505
vn 0.966808 0.000001 0.255505
vn 0.955087 -0.000000 0.296327
vn 0.955086 0.000000 0.296327
vn 0.966807 0.000000 0.255506
vn 0.966808 0.000001 0.255505
vn 0.978662 0.000001 0.205475
vn 0.978662 0.000001 0.205475
vn 0.978663 0.000002 0.205471
vn 0.966807 0.000000 0.255506
vn 0.000002 -0.000001 -1.000000
vn 0.000000 0.000000 -1.000000
vn 0.000000 0.000000 -1.000000
vn 0.000002 -0.000001 -1.000000
vn 0.000000 0.000000 -1.000000
vn 0.000000 0.000000 -1.000000
vn 0.000002 -0.000001 -1.000000
vn 0.000000 0.000000 -1.000000
vn 0.000001 -0.000000 -1.000000
vn 0.000002 -0.000001 -1.000000
vn 0.000001 -0.000000 -1.000000
vn 0.000003 -0.000001 -1.000000
vn 0.000000 1.000000 0.000000
vn 0.000000 1.000000 0.000000
vn 0.000000 1.000000 0.000000
vn 0.000000 1.000000 0.000000
vn 0.000000 1.000000 0.000000
vn 0.000000 1.000000 0.000000
vn 0.664559 -0.716192 0.213144
vn 0.491099 -0.856185 0.160524
vn 0.492651 -0.858891 0.140004
vn 0.492651 -0.858891 0.140004
vn 0.686271 -0.700711 0.195028
vn 0.664559 -0.716192 0.213144
vn 0.000000 1.000000 0.000000
vn 0.000000 1.000000 0.000000
vn 0.000000 1.000000 0.000000
vn 0.000000 1.000000 0.000000
vn 0.000000 1.000000 0.000000
vn 0.000000 1.000000 0.000000
vn 0.660479 -0.722312 0.205020
vn 0.491998 -0.857752 0.148991
vn 0.491099 -0.856185 0.160524
vn 0.491099 -0.856185 0.160524
vn 0.664559 -0.716192 0.213144
vn 0.660479 -0.722312 0.205020
vn 0.000000 1.000000 0.000000
vn 0.000000 1.000000 0.000000
vn 0.000000 1.000000 0.000000
vn 0.000000 1.000000 0.000000
vn 0.000000 1.000000 0.000000
vn 0.000000 1.000000 0.000000
vn 0.649071 -0.741135 0.171538
vn 0.493305 -0.860031 0.130373
vn 0.491998 -0.857752 0.148991
vn 0.491998 -0.857752 0.148991
vn 0.660479 -0.722312 0.205020
vn 0.649071 -0.741135 0.171538
vn -0.000000 -0.000000 1.000000
vn -0.000000 -0.000000 1.000000
vn -0.000000 -0.000000 1.000000
vn -0.000000 -0.000000 1.000000
vn -0.000000 -0.000000 1.000000
vn -0.000000 -0.000000 1.000000
vn -0.000000 -0.000000 1.000000
vn -0.000000 -0.000000 1.000000
vn -0.000000 -0.000000 1.000000
vn -0.000000 -0.000000 1.000000
vn -0.000000 -0.000000 1.000000
vn -0.000000 -0.000000 1.000000
vn 0.876566 -0.391365 0.280116
vn 0.664559 -0.716192 0.213144
vn 0.686271 -0.700711 0.195028
vn 0.686271 -0.700711 0.195028
vn 0.888143 -0.384055 0.252397
vn 0.876566 -0.391365 0.280116
vn 0.877180 -0.394821 0.273261
vn 0.660479 -0.722312 0.205020
vn 0.664559 -0.716192 0.213144
vn 0.664559 -0.716192 0.213144
vn 0.876566 -0.391365 0.280116
vn 0.877180 -0.394821 0.273261
vn 0.882926 -0.407424 0.233339
vn 0.649071 -0.741135 0.171538
vn 0.660479 -0.722312 0.205020
vn 0.660479 -0.722312 0.205020
vn 0.877180 -0.394821 0.273261
vn 0.882926 -0.407424 0.233339
vn 0.946154 -0.115545 0.302394
vn 0.876566 -0.391365 0.280116
vn 0.888143 -0.384055 0.252397
vn 0.888143 -0.384055 0.252397
vn 0.955598 -0.114388 0.271567
vn 0.946154 -0.115545 0.302394
vn 0.948311 -0.116391 0.295228
vn 0.877180 -0.394821 0.273261
vn 0.876566 -0.391365 0.280116
vn 0.876566 -0.391365 0.280116
vn 0.946154 -0.115545 0.302394
vn 0.948311 -0.116391 0.295228
vn 0.959854 -0.119720 0.253668
vn 0.882926 -0.407424 0.233339
vn 0.877180 -0.394821 0.273261
vn 0.877180 -0.394821 0.273261
vn 0.948311 -0.116391 0.295228
vn 0.959854 -0.119720 0.253668
vn 0.961911 0.000001 0.273362
vn 0.952302 0.000002 0.305157
vn 0.946154 -0.115545 0.302394
vn 0.946154 -0.115545 0.302394
vn 0.955598 -0.114388 0.271567
vn 0.961911 0.000001 0.273362
vn 0.952302 0.000002 0.305157
vn 0.955087 0.000002 0.296327
vn 0.948311 -0.116391 0.295228
vn 0.948311 -0.116391 0.295228
vn 0.946154 -0.115545 0.302394
vn 0.952302 0.000002 0.305157
vn 0.955087 0.000002 0.296327
vn 0.966808 0.000002 0.255505
vn 0.959854 -0.119720 0.253668
vn 0.959854 -0.119720 0.253668
vn 0.948311 -0.116391 0.295228
vn 0.955087 0.000002 0.296327
vn -0.987212 -0.000000 0.159413
vn -0.987212 -0.000000 0.159413
vn -0.995550 -0.000000 0.094237
vn -0.995550 -0.000000 0.094237
vn -0.995550 -0.000000 0.094238
vn -0.987212 -0.000000 0.159413
vn -0.971870 -0.000000 0.235517
vn -0.971870 -0.000001 0.235517
vn -0.987212 -0.000000 0.159413
vn -0.987212 -0.000000 0.159413
vn -0.987212 -0.000000 0.159413
vn -0.971870 -0.000000 0.235517
vn -0.952299 -0.000001 0.305168
vn -0.952299 -0.000001 0.305168
vn -0.971870 -0.000001 0.235517
vn -0.971870 -0.000001 0.235517
vn -0.971870 -0.000000 0.235517
vn -0.952299 -0.000001 0.305168
vn -0.955063 -0.000001 0.296402
vn -0.955063 -0.000001 0.296402
vn -0.952299 -0.000001 0.305168
vn -0.952299 -0.000001 0.305168
vn -0.952299 -0.000001 0.305168
vn -0.955063 -0.000001 0.296402
vn -0.978683 -0.000001 0.205377
vn -0.978684 -0.000002 0.205373
vn -0.955063 -0.000001 0.296402
vn -0.955063 -0.000001 0.296402
vn -0.955063 -0.000001 0.296402
vn -0.978683 -0.000001 0.205377
vn -0.987976 -0.000001 0.154607
vn -0.987978 -0.000003 0.154597
vn -0.978684 -0.000002 0.205373
vn -0.978684 -0.000002 0.205373
vn -0.978683 -0.000001 0.205377
vn -0.987976 -0.000001 0.154607
vn -1.000000 -0.000000 -0.000000
vn -0.995550 -0.000000 0.094238
vn -0.995550 -0.000000 0.094237
vn -0.995550 -0.000000 0.094237
vn -1.000000 0.000000 -0.000000
vn -1.000000 -0.000000 -0.000000
vn -0.987207 0.000028 -0.159445
vn -0.995550 -0.000000 -0.094238
vn -0.995550 -0.000000 -0.094237
vn -0.995550 -0.000000 -0.094237
vn -0.987204 -0.000039 -0.159460
vn -0.987207 0.000028 -0.159445
vn -0.964477 0.031349 -0.262302
vn -0.987207 0.000028 -0.159445
vn -0.972997 0.008740 -0.230654
vn -0.988918 0.004856 -0.148384
vn -0.983041 0.026005 -0.181531
vn -0.983968 -0.008143 -0.178157
vn -0.983968 -0.008143 -0.178157
vn -0.988786 -0.004606 -0.149268
vn -0.988918 0.004856 -0.148384
vn -1.000000 -0.000000 -0.000000
vn -1.000000 0.000000 -0.000000
vn -0.995550 -0.000000 -0.094237
vn -0.995550 -0.000000 -0.094237
vn -0.995550 -0.000000 -0.094238
vn -1.000000 -0.000000 -0.000000
vn -0.964477 0.031349 -0.262302
vn -0.972997 0.008740 -0.230654
vn -0.933837 0.193527 -0.300825
vn -0.933837 0.193527 -0.300825
vn -0.932446 0.205350 -0.297282
vn -0.964477 0.031349 -0.262302
vn -0.949138 -0.050816 -0.310733
vn -0.948343 -0.055492 -0.312357
vn -0.975105 -0.007083 -0.221630
vn -0.975105 -0.007083 -0.221630
vn -0.970958 -0.006837 -0.239152
vn -0.949138 -0.050816 -0.310733
vn -0.932446 0.205350 -0.297282
vn -0.933837 0.193527 -0.300825
vn -0.944871 0.194002 -0.263782
vn -0.944871 0.194002 -0.263782
vn -0.946592 0.176018 -0.270152
vn -0.932446 0.205350 -0.297282
vn -0.953792 -0.053756 -0.295621
vn -0.955120 -0.047314 -0.292417
vn -0.948343 -0.055492 -0.312357
vn -0.948343 -0.055492 -0.312357
vn -0.949138 -0.050816 -0.310733
vn -0.953792 -0.053756 -0.295621
vn -0.983041 0.026005 -0.181531
vn -0.978428 0.023863 -0.205207
vn -0.946592 0.176018 -0.270152
vn -0.946592 0.176018 -0.270152
vn -0.944871 0.194002 -0.263782
vn -0.983041 0.026005 -0.181531
vn -0.955120 -0.047314 -0.292417
vn -0.953792 -0.053756 -0.295621
vn -0.979945 -0.020694 -0.198190
vn -0.979945 -0.020694 -0.198190
vn -0.983968 -0.008143 -0.178157
vn -0.955120 -0.047314 -0.292417
vn -0.000000 -1.000000 -0.000000
vn -0.000000 -1.000000 -0.000000
vn -0.000000 -1.000000 -0.000000
vn -0.000000 -1.000000 -0.000000
vn -0.000000 -1.000000 -0.000000
vn -0.000000 -1.000000 -0.000000
vn 0.000000 1.000000 0.000000
vn 0.000000 1.000000 0.000000
vn 0.000000 1.000000 0.000000
vn 0.000000 1.000000 0.000000
vn 0.000000 1.000000 0.000000
vn 0.000000 1.000000 0.000000
vn -0.000000 -1.000000 -0.000000
vn -0.000000 -1.000000 -0.000000
vn -0.000000 -1.000000 -0.000000
vn -0.000000 -1.000000 -0.000000
vn -0.000000 -1.000000 -0.000000
vn -0.000000 -1.000000 -0.000000
vn 0.000000 1.000000 0.000000
vn 0.000000 1.000000 0.000000
vn 0.000000 1.000000 0.000000
vn 0.000000 1.000000 0.000000
vn 0.000000 1.000000 0.000000
vn 0.000000 1.000000 0.000000
vn -0.000000 -1.000000 -0.000000
vn -0.000000 -1.000000 -0.000000
vn -0.000000 -1.000000 -0.000000
vn -0.000000 -1.000000 -0.000000
vn -0.000000 -1.000000 -0.000000
vn -0.000000 -1.000000 -0.000000
vn 0.000000 1.000000 0.000000
vn 0.000000 1.000000 0.000000
vn 0.000000 1.000000 0.000000
vn 0.000000 1.000000 0.000000
vn 0.000000 1.000000 0.000000
vn 0.000000 1.000000 0.000000
vn -0.000000 -1.000000 -0.000000
vn -0.000000 -1.000000 -0.000000
vn -0.000000 -1.000000 -0.000000
vn -0.000000 -1.000000 -0.000000
vn -0.000000 -1.000000 -0.000000
vn -0.000000 -1.000000 -0.000000
vn 0.000000 1.000000 0.000000
vn 0.000000 1.000000 0.000001
vn 0.000000 1.000000 0.000001
vn 0.000000 1.000000 0.000001
vn 0.000000 1.000000 0.000000
vn 0.000000 1.000000 0.000000
vn -0.000000 -1.000000 -0.000000
vn -0.000000 -1.000000 -0.000000
vn -0.000000 -1.000000 -0.000000
vn -0.000000 -1.000000 -0.000000
vn -0.000000 -1.000000 -0.000000
vn -0.000000 -1.000000 -0.000000
vn 0.000000 1.000000 0.000001
vn 0.000000 1.000000 0.000001
vn 0.000000 1.000000 0.000001
vn 0.000000 1.000000 0.000001
vn 0.000000 1.000000 0.000001
vn 0.000000 1.000000 0.000001
vn -0.000000 -1.000000 -0.000000
vn -0.000000 -1.000000 -0.000000
vn -0.000000 -1.000000 -0.000000
vn -0.000000 -1.000000 -0.000000
vn -0.000000 -1.000000 -0.000000
vn -0.000000 -1.000000 -0.000000
vn 0.000000 1.000000 0.000001
vn 0.000000 1.000000 0.000000
vn 0.000000 1.000000 0.000000
vn 0.000000 1.000000 0.000000
vn 0.000000 1.000000 0.000001
vn 0.000000 1.000000 0.000001
vn 0.154902 0.000000 0.987930
vn 0.154910 0.000001 0.987929
vn 0.154909 0.000001 0.987929
vn 0.154909 0.000001 0.987929
vn 0.154902 0.000000 0.987930
vn 0.154902 0.000000 0.987930
vn 0.000000 1.000000 0.000000
vn 0.000000 1.000000 0.000000
vn 0.000000 1.000000 0.000000
vn 0.000000 1.000000 0.000000
vn 0.000000 1.000000 0.000000
vn 0.000000 1.000000 0.000000
vn -0.000000 -1.000000 -0.000000
vn -0.000000 -1.000000 -0.000000
vn -0.000000 -1.000000 -0.000000
vn -0.000000 -1.000000 -0.000000
vn -0.000000 -1.000000 -0.000000
vn -0.000000 -1.000000 -0.000000
vn 0.000000 1.000000 0.000000
vn 0.000000 1.000000 0.000000
vn 0.000000 1.000000 0.000000
vn 0.000000 1.000000 0.000000
vn 0.000000 1.000000 0.000000
vn 0.000000 1.000000 0.000000
vn -0.000000 -1.000000 -0.000000
vn -0.000000 -1.000000 -0.000000
vn -0.000000 -1.000000 -0.000000
vn -0.000000 -1.000000 -0.000000
vn -0.000000 -1.000000 -0.000000
vn -0.000000 -1.000000 -0.000000
vn -0.000000 -1.000000 -0.000000
vn -0.000000 -1.000000 -0.000000
vn -0.000000 -1.000000 -0.000000
vn -0.000000 -1.000000 -0.000000
vn -0.000000 -1.000000 -0.000000
vn -0.000000 -1.000000 -0.000000
vn 0.000000 1.000000 0.000000
vn 0.000000 1.000000 0.000000
vn 0.000000 1.000000 0.000000
vn 0.000000 1.000000 0.000000
vn 0.000000 1.000000 0.000000
vn 0.000000 1.000000 0.000000
vn -0.000000 -1.000000 -0.000000
vn -0.000000 -1.000000 -0.000000
vn -0.000000 -1.000000 -0.000000
vn -0.000000 -1.000000 -0.000000
vn -0.000000 -1.000000 -0.000000
vn -0.000000 -1.000000 -0.000000
vn 0.154901 0.000000 -0.987930
vn 0.154894 0.000001 -0.987931
vn 0.154894 0.000001 -0.987931
vn 0.154894 0.000001 -0.987931
vn 0.154902 0.000000 -0.987930
vn 0.154901 0.000000 -0.987930
vn 0.000000 1.000000 0.000000
vn 0.000000 1.000000 -0.000001
vn 0.000000 1.000000 -0.000001
vn 0.000000 1.000000 -0.000001
vn 0.000000 1.000000 0.000000
vn 0.000000 1.000000 0.000000
vn -0.000000 -1.000000 -0.000000
vn -0.000000 -1.000000 -0.000000
vn -0.000000 -1.000000 -0.000000
vn -0.000000 -1.000000 -0.000000
vn -0.000000 -1.000000 -0.000000
vn -0.000000 -1.000000 -0.000000
vn 0.000000 1.000000 0.000000
vn 0.000000 1.000000 0.000000
vn 0.000000 1.000000 0.000000
vn 0.000000 1.000000 0.000000
vn 0.000000 1.000000 0.000000
vn 0.000000 1.000000 0.000000
vn -0.000000 -1.000000 -0.000000
vn -0.000000 -1.000000 -0.000000
vn -0.000000 -1.000000 -0.000000
vn -0.000000 -1.000000 -0.000000
vn -0.000000 -1.000000 -0.000000
vn -0.000000 -1.000000 -0.000000
vn 0.000000 1.000000 0.000000
vn 0.000000 1.000000 0.000000
vn 0.000000 1.000000 0.000000
vn 0.000000 1.000000 0.000000
vn 0.000000 1.000000 0.000000
vn 0.000000 1.000000 0.000000
vn -0.000000 -1.000000 -0.000000
vn -0.000000 -1.000000 -0.000000
vn -0.000000 -1.000000 -0.000000
vn -0.000000 -1.000000 -0.000000
vn -0.000000 -1.000000 -0.000000
vn -0.000000 -1.000000 -0.000000
vn 0.000000 1.000000 -0.000001
vn 0.000000 1.000000 0.000000
vn 0.000000 1.000000 0.000000
vn 0.000000 1.000000 0.000000
vn 0.000000 1.000000 -0.000001
vn 0.000000 1.000000 -0.000001
vn -0.000000 -1.000000 -0.000000
vn -0.000000 -1.000000 -0.000000
vn -0.000000 -1.000000 -0.000000
vn -0.000000 -1.000000 -0.000000
vn -0.000000 -1.000000 -0.000000
vn -0.000000 -1.000000 -0.000000
vn 0.000000 1.000000 -0.000001
vn 0.000000 1.000000 -0.000001
vn 0.000000 1.000000 -0.000001
vn 0.000000 1.000000 -0.000001
vn 0.000000 1.000000 -0.000001
vn 0.000000 1.000000 -0.000001
vn -0.000000 -0.000026 1.000000
vn -0.000000 -0.000026 1.000000
vn -0.000000 -0.000026 1.000000
vn -0.000000 -0.000026 1.000000
vn -0.000000 -0.000026 1.000000
vn -0.000000 -0.000026 1.000000
vn 0.000000 0.000000 -1.000000
vn 0.000000 0.000000 -1.000000
vn 0.000000 0.000000 -1.000000
vn 0.000000 0.000000 -1.000000
vn 0.000000 0.000000 -1.000000
vn 0.000000 0.000000 -1.000000
vn -0.000219 1.000000 -0.000441
vn -0.000000 1.000000 0.000001
vn -0.003508 0.999990 -0.002678
vn -0.000219 1.000000 -0.000441
vn -0.003508 0.999990 -0.002678
vn -0.000037 1.000000 -0.000474
vn -0.000037 1.000000 -0.000474
vn 0.000000 1.000000 -0.000002
vn 0.000228 1.000000 -0.000357
vn -0.000219 1.000000 -0.000441
vn -0.000037 1.000000 -0.000474
vn 0.000228 1.000000 -0.000357
vn -1.000000 0.000000 -0.000000
vn -1.000000 0.000000 -0.000000
vn -1.000000 0.000000 -0.000000
vn -1.000000 0.000000 -0.000000
vn -1.000000 0.000000 -0.000000
vn -1.000000 0.000000 -0.000000
vn 0.978663 0.000002 0.205471
vn 0.955086 -0.000000 0.296327
vn 0.955087 -0.000000 0.296327
vn 0.955087 -0.000000 0.296327
vn 0.966807 0.000000 0.255506
vn 0.978663 0.000002 0.205471
vn -0.987204 -0.000039 -0.159460
vn -0.970958 -0.006837 -0.239152
vn -0.975105 -0.007083 -0.221630
vn -0.987207 0.000028 -0.159445
vn -0.987204 -0.000039 -0.159460
vn -0.975105 -0.007083 -0.221630
vn -0.975105 -0.007083 -0.221630
vn -0.972997 0.008740 -0.230654
vn -0.987207 0.000028 -0.159445
vn -0.983968 -0.008143 -0.178157
vn -0.979945 -0.020694 -0.198190
vn -0.988786 -0.004606 -0.149268
vn -0.988918 0.004856 -0.148384
vn -0.978428 0.023863 -0.205207
vn -0.983041 0.026005 -0.181531
vn -0.000000 -1.000000 -0.000000
vn -0.000000 -1.000000 -0.000000
vn -0.000000 -1.000000 -0.000000
vn -0.000000 -1.000000 -0.000000
vn -0.000000 -1.000000 -0.000000
vn -0.000000 -1.000000 -0.000000
vn -0.000000 -1.000000 -0.000000
vn -0.000000 -1.000000 -0.000000
vn -0.000000 -1.000000 -0.000000
vn -0.000000 -1.000000 -0.000000
vn -0.000000 -1.000000 -0.000000
vn -0.000000 -1.000000 -0.000000
vn -0.000000 -1.000000 -0.000000
vn -0.000000 -1.000000 -0.000000
vn -0.000000 -1.000000 -0.000000
vn -0.000000 -1.000000 -0.000000
vn -0.000000 -1.000000 -0.000000
vn -0.000000 -1.000000 -0.000000
vn 0.952302 -0.000000 0.305156
vn 0.952302 -0.000000 0.305156
vn 0.961912 -0.000000 0.273361
vn 0.961912 -0.000000 0.273361
vn 0.961911 -0.000000 0.273361
vn 0.952302 -0.000000 0.305156
vn -0.961911 0.000000 -0.273363
vn -0.961911 0.000000 -0.273363
vn -0.952302 0.000000 -0.305157
vn -0.952302 0.000000 -0.305157
vn -0.952302 0.000000 -0.305157
vn -0.961911 0.000000 -0.273363
vn -0.000023 -0.000000 1.000000
vn -0.000023 -0.000000 1.000000
vn -0.000023 -0.000000 1.000000
vn -0.000023 -0.000000 1.000000
vn -0.000023 -0.000000 1.000000
vn -0.000023 -0.000000 1.000000
vn 0.955087 -0.000000 0.296327
vn 0.955087 -0.000000 0.296327
vn 0.952302 -0.000000 0.305156
vn 0.952302 -0.000000 0.305156
vn 0.952302 -0.000000 0.305156
vn 0.955087 -0.000000 0.296327
vn -0.952302 0.000000 -0.305157
vn -0.952302 0.000000 -0.305157
vn -0.955087 0.000000 -0.296327
vn -0.955087 0.000000 -0.296327
vn -0.955087 0.000000 -0.296327
vn -0.952302 0.000000 -0.305157
vn 0.966808 -0.000000 0.255505
vn 0.966808 -0.000000 0.255505
vn 0.955087 -0.000000 0.296327
vn 0.955087 -0.000000 0.296327
vn 0.955087 -0.000000 0.296327
vn 0.966808 -0.000000 0.255505
vn 0.000000 0.000000 -1.000000
vn 0.000000 0.000000 -1.000000
vn 0.000000 0.000000 -1.000000
vn 0.000000 0.000000 -1.000000
vn 0.000000 0.000000 -1.000000
vn 0.000000 0.000000 -1.000000
vn -0.955087 0.000000 -0.296327
vn -0.955087 0.000000 -0.296327
vn -0.966808 0.000000 -0.255505
vn -0.966808 0.000000 -0.255505
vn -0.966808 0.000000 -0.255505
vn -0.955087 0.000000 -0.296327
vn 0.000000 1.000000 0.000000
vn 0.000000 1.000000 0.000000
vn 0.000000 1.000000 0.000000
vn 0.000000 1.000000 0.000000
vn 0.000000 1.000000 0.000000
vn 0.000000 1.000000 0.000000
vn 0.000000 1.000000 0.000000
vn 0.000000 1.000000 0.000000
vn 0.000000 1.000000 0.000000
vn 0.000000 1.000000 0.000000
vn 0.000000 1.000000 0.000000
vn 0.000000 1.000000 0.000000
vn 0.000000 1.000000 0.000000
vn 0.000000 1.000000 0.000000
vn 0.000000 1.000000 0.000000
vn 0.000000 1.000000 0.000000
vn 0.000000 1.000000 0.000000
vn 0.000000 1.000000 0.000000
vn 0.162891 0.000002 0.986644
vn 0.162898 0.000007 0.986643
vn 0.162880 -0.000000 0.986646
vn 0.162880 -0.000000 0.986646
vn 0.162872 -0.000009 0.986647
vn 0.162867 -0.000000 0.986648
vn 0.162867 -0.000000 0.986648
vn 0.162872 0.000009 0.986647
vn 0.162878 0.000003 0.986646
vn 0.162880 -0.000000 0.986646
vn 0.162867 -0.000000 0.986648
vn 0.162878 0.000003 0.986646
vn 0.162891 0.000002 0.986644
vn 0.162880 -0.000000 0.986646
vn 0.162878 0.000003 0.986646
vn 0.162891 0.000002 0.986644
vn 0.162878 0.000003 0.986646
vn 0.162884 0.000008 0.986645
vn -0.714253 -0.699887 -0.000016
vn -0.014541 -0.999894 0.000007
vn -0.007285 -0.999973 0.000684
vn -0.007285 -0.999973 0.000684
vn -0.708484 -0.702788 0.064337
vn -0.714253 -0.699887 -0.000016
vn -1.000000 0.000000 -0.000000
vn -0.714253 -0.699887 -0.000016
vn -0.708484 -0.702788 0.064337
vn -0.708484 -0.702788 0.064337
vn -0.995906 0.000002 0.090399
vn -1.000000 0.000000 -0.000000
vn -0.714253 0.699887 0.000016
vn -1.000000 0.000000 -0.000000
vn -0.995906 0.000002 0.090399
vn -0.995906 0.000002 0.090399
vn -0.708486 0.702790 0.064300
vn -0.714253 0.699887 0.000016
vn -0.014541 0.999894 -0.000007
vn -0.714253 0.699887 0.000016
vn -0.708486 0.702790 0.064300
vn -0.708486 0.702790 0.064300
vn -0.007282 0.999973 0.000700
vn -0.014541 0.999894 -0.000007
vn 0.699722 0.714415 -0.000034
vn -0.014541 0.999894 -0.000007
vn -0.007282 0.999973 0.000700
vn -0.007282 0.999973 0.000700
vn 0.701310 0.710010 -0.063650
vn 0.699722 0.714415 -0.000034
vn 1.000000 0.000000 -0.000000
vn 0.699722 0.714415 -0.000034
vn 0.701310 0.710010 -0.063650
vn 0.701310 0.710010 -0.063650
vn 0.995897 0.000002 -0.090499
vn 1.000000 0.000000 -0.000000
vn 0.699722 -0.714415 0.000034
vn 1.000000 0.000000 -0.000000
vn 0.995897 0.000002 -0.090499
vn 0.995897 0.000002 -0.090499
vn 0.701303 -0.710009 -0.063724
vn 0.699722 -0.714415 0.000034
vn -0.014541 -0.999894 0.000007
vn 0.699722 -0.714415 0.000034
vn 0.701303 -0.710009 -0.063724
vn 0.701303 -0.710009 -0.063724
vn -0.007285 -0.999973 0.000684
vn -0.014541 -0.999894 0.000007
vn 0.162883 0.000012 -0.986645
vn 0.162858 -0.000006 -0.986650
vn 0.162875 -0.000000 -0.986647
vn 0.162875 -0.000000 -0.986647
vn 0.162858 0.000006 -0.986650
vn 0.162883 -0.000012 -0.986645
vn 0.162883 -0.000012 -0.986645
vn 0.162904 0.000001 -0.986642
vn 0.162890 -0.000000 -0.986644
vn 0.162875 -0.000000 -0.986647
vn 0.162883 -0.000012 -0.986645
vn 0.162890 -0.000000 -0.986644
vn 0.162883 0.000012 -0.986645
vn 0.162875 -0.000000 -0.986647
vn 0.162890 -0.000000 -0.986644
vn 0.162883 0.000012 -0.986645
vn 0.162890 -0.000000 -0.986644
vn 0.162904 -0.000001 -0.986642
vn -0.707447 -0.701486 -0.086233
vn -0.010184 -0.999947 -0.001203
vn -0.007282 -0.999973 -0.000700
vn -0.007282 -0.999973 -0.000700
vn -0.708486 -0.702790 -0.064300
vn -0.707447 -0.701486 -0.086233
vn -0.708486 -0.702790 -0.064300
vn -0.007282 -0.999973 -0.000700
vn -0.014541 -0.999894 0.000007
vn -0.014541 -0.999894 0.000007
vn -0.714253 -0.699887 -0.000016
vn -0.708486 -0.702790 -0.064300
vn -0.010216 -0.999947 0.001225
vn -0.707453 -0.701485 0.086192
vn -0.708484 -0.702788 0.064337
vn -0.708484 -0.702788 0.064337
vn -0.007285 -0.999973 0.000684
vn -0.010216 -0.999947 0.001225
vn -0.992659 0.000012 -0.120947
vn -0.707447 -0.701486 -0.086233
vn -0.708486 -0.702790 -0.064300
vn -0.708486 -0.702790 -0.064300
vn -0.995906 0.000001 -0.090398
vn -0.992659 0.000012 -0.120947
vn -0.995906 0.000001 -0.090398
vn -0.708486 -0.702790 -0.064300
vn -0.714253 -0.699887 -0.000016
vn -0.714253 -0.699887 -0.000016
vn -1.000000 0.000000 -0.000000
vn -0.995906 0.000001 -0.090398
vn -0.707453 -0.701485 0.086192
vn -0.992659 -0.000012 0.120947
vn -0.995906 0.000002 0.090399
vn -0.995906 0.000002 0.090399
vn -0.708484 -0.702788 0.064337
vn -0.707453 -0.701485 0.086192
vn -0.707453 0.701485 -0.086192
vn -0.992659 0.000012 -0.120947
vn -0.995906 0.000001 -0.090398
vn -0.995906 0.000001 -0.090398
vn -0.708483 0.702790 -0.064337
vn -0.707453 0.701485 -0.086192
vn -0.708483 0.702790 -0.064337
vn -0.995906 0.000001 -0.090398
vn -1.000000 0.000000 -0.000000
vn -1.000000 0.000000 -0.000000
vn -0.714253 0.699887 0.000016
vn -0.708483 0.702790 -0.064337
vn -0.992659 -0.000012 0.120947
vn -0.707447 0.701486 0.086232
vn -0.708486 0.702790 0.064300
vn -0.708486 0.702790 0.064300
vn -0.995906 0.000002 0.090399
vn -0.992659 -0.000012 0.120947
vn -0.010218 0.999947 -0.001225
vn -0.707453 0.701485 -0.086192
vn -0.708483 0.702790 -0.064337
vn -0.708483 0.702790 -0.064337
vn -0.007286 0.999973 -0.000684
vn -0.010218 0.999947 -0.001225
vn -0.007286 0.999973 -0.000684
vn -0.708483 0.702790 -0.064337
vn -0.714253 0.699887 0.000016
vn -0.714253 0.699887 0.000016
vn -0.014541 0.999894 -0.000007
vn -0.007286 0.999973 -0.000684
vn -0.707447 0.701486 0.086232
vn -0.010183 0.999947 0.001203
vn -0.007282 0.999973 0.000700
vn -0.007282 0.999973 0.000700
vn -0.708486 0.702790 0.064300
vn -0.707447 0.701486 0.086232
vn 0.697285 0.711718 0.085151
vn -0.010218 0.999947 -0.001225
vn -0.007286 0.999973 -0.000684
vn -0.007286 0.999973 -0.000684
vn 0.701303 0.710009 0.063724
vn 0.697285 0.711718 0.085151
vn 0.701303 0.710009 0.063724
vn -0.007286 0.999973 -0.000684
vn -0.014541 0.999894 -0.000007
vn -0.014541 0.999894 -0.000007
vn 0.699722 0.714415 -0.000034
vn 0.701303 0.710009 0.063724
vn -0.010183 0.999947 0.001203
vn 0.697276 0.711718 -0.085231
vn 0.701310 0.710010 -0.063650
vn 0.701310 0.710010 -0.063650
vn -0.007282 0.999973 0.000700
vn -0.010183 0.999947 0.001203
vn 0.992613 -0.000025 0.121320
vn 0.697285 0.711718 0.085151
vn 0.701303 0.710009 0.063724
vn 0.701303 0.710009 0.063724
vn 0.995897 -0.000002 0.090499
vn 0.992613 -0.000025 0.121320
vn 0.995897 -0.000002 0.090499
vn 0.701303 0.710009 0.063724
vn 0.699722 0.714415 -0.000034
vn 0.699722 0.714415 -0.000034
vn 1.000000 0.000000 -0.000000
vn 0.995897 -0.000002 0.090499
vn 0.697276 0.711718 -0.085231
vn 0.992613 0.000024 -0.121320
vn 0.995897 0.000002 -0.090499
vn 0.995897 0.000002 -0.090499
vn 0.701310 0.710010 -0.063650
vn 0.697276 0.711718 -0.085231
vn 0.697274 -0.711720 0.085231
vn 0.992613 -0.000025 0.121320
vn 0.995897 -0.000002 0.090499
vn 0.995897 -0.000002 0.090499
vn 0.701310 -0.710010 0.063650
vn 0.697274 -0.711720 0.085231
vn 0.701310 -0.710010 0.063650
vn 0.995897 -0.000002 0.090499
vn 1.000000 0.000000 -0.000000
vn 1.000000 0.000000 -0.000000
vn 0.699722 -0.714415 0.000034
vn 0.701310 -0.710010 0.063650
vn 0.992613 0.000024 -0.121320
vn 0.697287 -0.711716 -0.085151
vn 0.701303 -0.710009 -0.063724
vn 0.701303 -0.710009 -0.063724
vn 0.995897 0.000002 -0.090499
vn 0.992613 0.000024 -0.121320
vn -0.010184 -0.999947 -0.001203
vn 0.697274 -0.711720 0.085231
vn 0.701310 -0.710010 0.063650
vn 0.701310 -0.710010 0.063650
vn -0.007282 -0.999973 -0.000700
vn -0.010184 -0.999947 -0.001203
vn -0.007282 -0.999973 -0.000700
vn 0.701310 -0.710010 0.063650
vn 0.699722 -0.714415 0.000034
vn 0.699722 -0.714415 0.000034
vn -0.014541 -0.999894 0.000007
vn -0.007282 -0.999973 -0.000700
vn 0.697287 -0.711716 -0.085151
vn -0.010216 -0.999947 0.001225
vn -0.007285 -0.999973 0.000684
vn -0.007285 -0.999973 0.000684
vn 0.701303 -0.710009 -0.063724
vn 0.697287 -0.711716 -0.085151
vn 0.000000 0.000000 -1.000000
vn 0.000000 0.866028 -0.499996
vn 0.000000 0.866028 -0.499996
vn 0.000000 0.866028 -0.499996
vn 0.000000 -0.000000 -1.000000
vn 0.000000 0.000000 -1.000000
vn 0.000000 0.866028 -0.499996
vn -0.000000 0.866026 0.499999
vn -0.000000 0.866026 0.499999
vn -0.000000 0.866026 0.499999
vn 0.000000 0.866028 -0.499996
vn 0.000000 0.866028 -0.499996
vn -0.000000 0.866026 0.499999
vn -0.000000 -0.000000 1.000000
vn -0.000000 -0.000000 1.000000
vn -0.000000 -0.000000 1.000000
vn -0.000000 0.866026 0.499999
vn -0.000000 0.866026 0.499999
vn -0.000000 -0.000000 1.000000
vn -0.000000 -0.866026 0.499999
vn -0.000000 -0.866026 0.499999
vn -0.000000 -0.866026 0.499999
vn -0.000000 -0.000000 1.000000
vn -0.000000 -0.000000 1.000000
vn -0.000000 -0.866026 0.499999
vn 0.000000 -0.866028 -0.499996
vn 0.000000 -0.866028 -0.499996
vn 0.000000 -0.866028 -0.499996
vn -0.000000 -0.866026 0.499999
vn -0.000000 -0.866026 0.499999
vn 0.000000 -0.866028 -0.499996
vn 0.000000 0.000000 -1.000000
vn 0.000000 -0.000000 -1.000000
vn 0.000000 -0.000000 -1.000000
vn 0.000000 -0.866028 -0.499996
vn 0.000000 -0.866028 -0.499996
vn 0.000000 0.000000 -1.000000
vn 0.000000 0.866026 -0.499999
vn 0.000000 0.866026 -0.499999
vn 0.000000 0.866026 -0.499999
vn 0.000000 0.000000 -1.000000
vn 0.000000 0.000000 -1.000000
vn 0.000000 0.866026 -0.499999
vn -0.000000 0.866028 0.499996
vn -0.000000 0.866028 0.499996
vn -0.000000 0.866028 0.499996
vn 0.000000 0.866026 -0.499999
vn 0.000000 0.866026 -0.499999
vn -0.000000 0.866028 0.499996
vn -0.000000 -0.000000 1.000000
vn -0.000000 0.000000 1.000000
vn -0.000000 0.000000 1.000000
vn -0.000000 0.866028 0.499996
vn -0.000000 0.866028 0.499996
vn -0.000000 -0.000000 1.000000
vn -0.000000 -0.866028 0.499996
vn -0.000000 -0.866028 0.499996
vn -0.000000 -0.866028 0.499996
vn -0.000000 0.000000 1.000000
vn -0.000000 -0.000000 1.000000
vn -0.000000 -0.866028 0.499996
vn 0.000000 -0.866026 -0.499999
vn 0.000000 -0.866026 -0.499999
vn 0.000000 -0.866026 -0.499999
vn -0.000000 -0.866028 0.499996
vn -0.000000 -0.866028 0.499996
vn 0.000000 -0.866026 -0.499999
vn 0.000000 0.000000 -1.000000
vn 0.000000 0.000000 -1.000000
vn 0.000000 0.000000 -1.000000
vn 0.000000 -0.866026 -0.499999
vn 0.000000 -0.866026 -0.499999
vn 0.000000 0.000001 -1.000000
vn 0.000000 0.000001 -1.000000
vn 0.000000 0.000001 -1.000000
vn 0.000000 0.000001 -1.000000
vn 0.000000 0.000001 -1.000000
vn 0.000000 0.000001 -1.000000
vn -0.000000 1.000000 -0.000000
vn -0.000000 1.000000 0.000000
vn -0.000000 1.000000 0.000000
vn -0.000000 1.000000 0.000000
vn -0.000000 1.000000 -0.000000
vn -0.000000 1.000000 -0.000000
vn 0.000000 -1.000000 0.000000
vn 0.000000 -1.000000 0.000000
vn 0.000000 -1.000000 0.000000
vn 0.000000 -1.000000 0.000000
vn 0.000000 -1.000000 0.000000
vn 0.000000 -1.000000 0.000000
vn -0.000000 -0.000000 1.000000
vn -0.000000 -0.000000 1.000000
vn -0.000000 -0.000000 1.000000
vn -0.000000 -0.000000 1.000000
vn -0.000000 -0.000001 1.000000
vn -0.000000 -0.000000 1.000000
vn 0.000000 -1.000000 0.000000
vn -0.000000 -1.000000 0.000000
vn 0.000000 -1.000000 0.000000
vn 0.000000 -1.000000 0.000000
vn 0.000000 -1.000000 0.000000
vn 0.000000 -1.000000 0.000000
vn -0.000000 -1.000000 0.000000
vn 0.000000 -1.000000 0.000000
vn 0.000000 -1.000000 0.000000
vn 0.000000 -1.000000 0.000000
vn 0.000000 -1.000000 0.000000
vn 0.000000 -1.000000 0.000000
vn 0.000000 -1.000000 0.000000
vn -0.000000 -1.000000 0.000000
vn 0.000000 -1.000000 0.000000
vn -0.000000 -1.000000 0.000000
vn 0.000000 -1.000000 0.000000
vn 0.000000 -1.000000 0.000000
s off
g SM_Vanity_01c
f 2/12/1 1/9/2 4/10/3
f 4/10/4 3/11/5 2/12/6
f 2/1/7 6/2/8 5/13/9
f 5/13/10 1/14/11 2/1/12
f 4/3/13 8/4/14 7/15/15
f 7/15/16 3/16/17 4/3/18
f 8/8/19 5/5/20 6/6/21
f 6/6/22 7/7/23 8/8/24
f 12/28/25 9/25/26 10/26/27
f 10/26/28 11/27/29 12/28/30
f 12/17/31 13/20/32 14/21/33
f 14/21/34 9/22/35 12/17/36
f 10/18/37 15/19/38 16/23/39
f 16/23/40 11/24/41 10/18/42
f 21/30/43 22/31/44 19/32/45
f 19/32/46 17/29/47 21/30/48
f 18/33/49 17/29/50 19/32/51
f 21/30/52 20/34/53 23/35/54
f 23/35/55 22/31/56 21/30/57
f 24/36/58 23/35/59 20/34/60
f 25/114/61 26/115/62 27/112/63
f 27/112/64 28/113/65 25/114/66
f 26/115/67 29/117/68 30/116/69
f 30/116/70 27/112/71 26/115/72
f 29/117/73 31/119/74 32/118/75
f 32/118/76 30/116/77 29/117/78
f 31/119/79 33/121/80 34/120/81
f 34/120/82 32/118/83 31/119/84
f 33/121/85 35/123/86 36/122/87
f 36/122/88 34/120/89 33/121/90
f 35/123/91 37/125/92 38/124/93
f 38/124/94 36/122/95 35/123/96
f 25/114/97 28/113/98 39/126/99
f 39/126/100 40/127/101 25/114/102
f 41/130/103 42/131/104 43/128/105
f 43/128/106 44/129/107 41/130/108
f 44/129/109 43/128/110 45/132/111
f 44/129/112 45/132/113 55/133/114
f 44/129/115 55/133/116 56/134/117
f 44/129/118 56/134/119 46/135/120
f 53/138/121 54/139/122 52/140/123
f 52/140/124 51/137/125 53/138/126
f 41/130/127 40/127/128 39/126/129
f 39/126/130 42/131/131 41/130/132
f 57/143/133 55/133/134 45/132/135
f 45/132/136 47/142/137 57/143/138
f 56/134/139 58/145/140 48/144/141
f 48/144/142 46/135/143 56/134/144
f 59/147/145 57/143/146 47/142/147
f 47/142/148 49/146/149 59/147/150
f 58/145/151 60/149/152 50/148/153
f 50/148/154 48/144/155 58/145/156
f 49/146/157 51/137/158 61/150/159
f 61/150/160 59/147/161 49/146/162
f 62/151/163 61/150/164 51/137/165
f 51/137/166 52/140/167 62/151/168
f 63/79/169 64/186/170 72/187/171
f 63/79/172 72/187/173 68/188/174
f 63/79/175 68/188/176 56/189/177
f 63/79/178 56/189/179 55/190/180
f 76/83/181 63/85/182 55/77/183
f 55/77/184 57/81/185 76/83/186
f 69/78/187 58/80/188 56/82/189
f 56/82/190 68/84/191 69/78/192
f 77/153/193 76/83/194 57/81/195
f 57/81/196 59/152/197 77/153/198
f 70/86/199 60/87/200 58/80/201
f 58/80/202 69/78/203 70/86/204
f 78/155/205 77/153/206 59/152/207
f 59/152/208 61/154/209 78/155/210
f 71/88/211 62/89/212 60/87/213
f 60/87/214 70/86/215 71/88/216
f 61/103/217 62/104/218 71/105/219
f 61/103/220 71/105/221 75/106/222
f 61/103/223 75/106/224 67/107/225
f 61/103/226 67/107/227 78/108/228
f 73/90/229 69/78/230 68/84/231
f 68/84/232 72/91/233 73/90/234
f 74/92/235 70/86/236 69/78/237
f 69/78/238 73/90/239 74/92/240
f 75/93/241 71/88/242 70/86/243
f 70/86/244 74/92/245 75/93/246
f 65/94/247 73/90/248 72/91/249
f 72/91/250 64/136/251 65/94/252
f 66/141/253 74/92/254 73/90/255
f 73/90/256 65/94/257 66/141/258
f 67/214/259 75/93/260 74/92/261
f 74/92/262 66/141/263 67/214/264
f 63/235/265 76/236/266 65/94/267
f 65/94/268 64/136/269 63/235/270
f 76/236/271 77/237/272 66/141/273
f 66/141/274 65/94/275 76/236/276
f 77/237/277 78/238/278 67/214/279
f 67/214/280 66/141/281 77/237/282
f 81/42/283 80/44/284 79/39/285
f 79/39/286 82/40/287 81/42/288
f 84/46/289 83/48/290 80/44/291
f 80/44/292 81/42/293 84/46/294
f 86/51/295 85/54/296 83/48/297
f 83/48/298 84/46/299 86/51/300
f 88/55/301 87/57/302 85/54/303
f 85/54/304 86/51/305 88/55/306
f 90/59/307 89/61/308 87/57/309
f 87/57/310 88/55/311 90/59/312
f 92/63/313 91/68/314 89/61/315
f 89/61/316 90/59/317 92/63/318
f 93/71/319 82/40/320 79/39/321
f 79/39/322 94/69/323 93/71/324
f 97/194/325 96/195/326 95/73/327
f 95/73/328 98/75/329 97/194/330
f 99/196/331 97/194/332 109/199/333
f 107/200/334 115/202/335 116/203/336
f 116/203/337 108/205/338 107/200/339
f 93/71/340 94/69/341 95/73/342
f 95/73/343 96/195/344 93/71/345
f 99/196/346 109/199/347 111/206/348
f 111/206/349 101/207/350 99/196/351
f 102/208/352 112/209/353 110/198/354
f 110/198/355 100/197/356 102/208/357
f 101/207/358 111/206/359 113/210/360
f 113/210/361 103/211/362 101/207/363
f 104/212/364 114/213/365 112/209/366
f 112/209/367 102/208/368 104/212/369
f 115/202/370 105/201/371 103/211/372
f 103/211/373 113/210/374 115/202/375
f 114/213/376 104/212/377 106/204/378
f 106/204/379 116/203/380 114/213/381
f 81/158/382 82/159/383 28/156/384
f 28/156/385 27/157/386 81/158/387
f 79/41/388 80/43/389 26/37/390
f 26/37/391 25/38/392 79/41/393
f 84/161/394 81/158/395 27/157/396
f 27/157/397 30/160/398 84/161/399
f 80/43/400 83/47/401 29/45/402
f 29/45/403 26/37/404 80/43/405
f 86/163/406 84/161/407 30/160/408
f 30/160/409 32/162/410 86/163/411
f 83/47/412 85/53/413 31/52/414
f 31/52/415 29/45/416 83/47/417
f 88/165/418 86/163/419 32/162/420
f 32/162/421 34/164/422 88/165/423
f 85/53/424 87/58/425 33/56/426
f 33/56/427 31/52/428 85/53/429
f 90/167/430 88/165/431 34/164/432
f 34/164/433 36/166/434 90/167/435
f 87/58/436 89/62/437 35/60/438
f 35/60/439 33/56/440 87/58/441
f 92/169/442 90/167/443 36/166/444
f 36/166/445 38/168/446 92/169/447
f 89/62/448 91/67/449 37/64/450
f 37/64/451 35/60/452 89/62/453
f 91/233/454 92/234/455 38/49/456
f 38/49/457 37/50/458 91/233/459
f 94/216/460 79/41/461 25/38/462
f 25/38/463 40/215/464 94/216/465
f 82/159/466 93/171/467 39/170/468
f 39/170/469 28/156/470 82/159/471
f 98/219/472 95/220/473 41/217/474
f 41/217/475 44/218/476 98/219/477
f 96/174/478 97/175/479 43/172/480
f 43/172/481 42/173/482 96/174/483
f 97/175/484 99/177/485 45/176/486
f 45/176/487 43/172/488 97/175/489
f 100/222/490 98/219/491 44/218/492
f 44/218/493 46/221/494 100/222/495
f 105/180/496 107/181/497 53/178/498
f 53/178/499 51/179/500 105/180/501
f 107/231/502 108/232/503 54/65/504
f 54/65/505 53/66/506 107/231/507
f 108/225/508 106/226/509 52/223/510
f 52/223/511 54/224/512 108/225/513
f 93/171/514 96/174/515 42/173/516
f 42/173/517 39/170/518 93/171/519
f 95/220/520 94/216/521 40/215/522
f 40/215/523 41/217/524 95/220/525
f 99/177/526 101/183/527 47/182/528
f 47/182/529 45/176/530 99/177/531
f 102/228/532 100/222/533 46/221/534
f 46/221/535 48/227/536 102/228/537
f 101/183/538 103/185/539 49/184/540
f 49/184/541 47/182/542 101/183/543
f 104/230/544 102/228/545 48/227/546
f 48/227/547 50/229/548 104/230/549
f 103/185/550 105/180/551 51/179/552
f 51/179/553 49/184/554 103/185/555
f 106/226/556 104/230/557 50/229/558
f 50/229/559 52/223/560 106/226/561
f 109/96/562 110/191/563 118/192/564
f 118/192/565 117/193/566 109/96/567
f 116/99/568 115/100/569 119/101/570
f 119/101/571 120/102/572 116/99/573
f 118/98/574 110/70/575 112/72/576
f 118/98/577 112/72/578 114/74/579
f 114/74/580 116/76/581 120/95/582
f 118/98/583 114/74/584 120/95/585
f 119/109/586 117/110/587 118/111/588
f 118/111/589 120/97/590 119/109/591
f 52/140/592 50/148/593 60/149/594
f 60/149/595 62/151/596 52/140/597
f 98/75/598 100/197/599 110/198/600
f 97/194/601 98/75/602 110/198/603
f 110/198/604 109/199/605 97/194/606
f 116/203/607 106/204/608 108/205/609
f 107/200/610 105/201/611 115/202/612
f 121/239/613 124/240/614 123/241/615
f 123/241/616 122/242/617 121/239/618
f 122/242/619 123/241/620 126/243/621
f 126/243/622 125/244/623 122/242/624
f 125/244/625 126/243/626 128/245/627
f 128/245/628 127/246/629 125/244/630
f 122/271/631 130/272/632 129/273/633
f 129/273/634 121/274/635 122/271/636
f 124/263/637 132/264/638 131/265/639
f 131/265/640 123/266/641 124/263/642
f 121/259/643 129/260/644 132/261/645
f 132/261/646 124/262/647 121/259/648
f 125/275/649 133/276/650 130/272/651
f 130/272/652 122/271/653 125/275/654
f 123/266/655 131/265/656 134/267/657
f 134/267/658 126/268/659 123/266/660
f 127/277/661 135/278/662 133/276/663
f 133/276/664 125/275/665 127/277/666
f 128/255/667 136/256/668 135/257/669
f 135/257/670 127/258/671 128/255/672
f 126/268/673 134/267/674 136/269/675
f 136/269/676 128/270/677 126/268/678
f 129/247/679 130/248/680 131/249/681
f 131/249/682 132/250/683 129/247/684
f 130/248/685 133/251/686 134/252/687
f 134/252/688 131/249/689 130/248/690
f 133/251/691 135/253/692 136/254/693
f 136/254/694 134/252/695 133/251/696
f 143/282/697 142/283/698 141/295/699
f 141/295/700 140/296/701 139/298/702
f 139/298/703 138/310/704 137/313/705
f 141/295/706 139/298/707 137/313/708
f 143/282/709 141/295/710 137/313/711
f 143/282/712 137/313/713 144/281/714
f 157/280/715 154/284/716 155/285/717
f 155/285/718 156/279/719 157/280/720
f 160/291/721 157/280/722 156/279/723
f 156/279/724 159/286/725 160/291/726
f 163/293/727 160/336/728 159/335/729
f 159/335/730 162/292/731 163/293/732
f 166/302/733 163/293/734 162/292/735
f 162/292/736 165/294/737 166/302/738
f 169/304/739 166/302/740 165/294/741
f 165/294/742 168/303/743 169/304/744
f 172/306/745 169/304/746 168/303/747
f 168/303/748 171/305/749 172/306/750
f 175/308/751 172/306/752 171/305/753
f 171/305/754 174/307/755 175/308/756
f 154/284/757 175/308/758 174/307/759
f 174/307/760 155/285/761 154/284/762
f 145/288/763 146/289/764 147/290/765
f 147/290/766 148/297/767 149/299/768
f 149/299/769 150/300/770 151/301/771
f 147/290/772 149/299/773 151/301/774
f 145/288/775 147/290/776 151/301/777
f 145/288/778 151/301/779 152/287/780
f 146/311/781 145/312/782 153/314/783
f 153/314/784 158/309/785 146/311/786
f 158/309/787 153/314/788 154/284/789
f 154/284/790 157/280/791 158/309/792
f 137/315/793 138/316/794 156/279/795
f 156/279/796 155/285/797 137/315/798
f 147/318/799 146/311/800 158/309/801
f 158/309/802 161/317/803 147/318/804
f 161/317/805 158/309/806 157/280/807
f 157/280/808 160/291/809 161/317/810
f 138/316/811 139/319/812 159/286/813
f 159/286/814 156/279/815 138/316/816
f 148/321/817 147/338/818 161/337/819
f 161/337/820 164/320/821 148/321/822
f 164/320/823 161/337/824 160/336/825
f 160/336/826 163/293/827 164/320/828
f 139/339/829 140/322/830 162/292/831
f 162/292/832 159/335/833 139/339/834
f 149/324/835 148/321/836 164/320/837
f 164/320/838 167/323/839 149/324/840
f 167/323/841 164/320/842 163/293/843
f 163/293/844 166/302/845 167/323/846
f 140/322/847 141/325/848 165/294/849
f 165/294/850 162/292/851 140/322/852
f 150/327/853 149/324/854 167/323/855
f 167/323/856 170/326/857 150/327/858
f 170/326/859 167/323/860 166/302/861
f 166/302/862 169/304/863 170/326/864
f 141/325/865 142/328/866 168/303/867
f 168/303/868 165/294/869 141/325/870
f 151/330/871 150/327/872 170/326/873
f 170/326/874 173/329/875 151/330/876
f 173/329/877 170/326/878 169/304/879
f 169/304/880 172/306/881 173/329/882
f 142/328/883 143/331/884 171/305/885
f 171/305/886 168/303/887 142/328/888
f 152/333/889 151/330/890 173/329/891
f 173/329/892 176/332/893 152/333/894
f 176/332/895 173/329/896 172/306/897
f 172/306/898 175/308/899 176/332/900
f 143/331/901 144/334/902 174/307/903
f 174/307/904 171/305/905 143/331/906
f 145/312/907 152/333/908 176/332/909
f 176/332/910 153/314/911 145/312/912
f 153/314/913 176/332/914 175/308/915
f 175/308/916 154/284/917 153/314/918
f 144/334/919 137/315/920 155/285/921
f 155/285/922 174/307/923 144/334/924
f 177/340/925 178/341/926 184/345/927
f 184/345/928 183/346/929 177/340/930
f 178/341/931 179/342/932 185/350/933
f 185/350/934 184/345/935 178/341/936
f 179/342/937 180/347/938 186/353/939
f 186/353/940 185/350/941 179/342/942
f 180/347/943 181/343/944 187/349/945
f 187/349/946 186/353/947 180/347/948
f 181/343/949 182/344/950 188/348/951
f 188/348/952 187/349/953 181/343/954
f 182/351/955 177/340/956 183/346/957
f 183/346/958 188/352/959 182/351/960
f 189/354/961 190/355/962 196/360/963
f 196/360/964 195/361/965 189/354/966
f 190/355/967 191/357/968 197/366/969
f 197/366/970 196/360/971 190/355/972
f 191/357/973 192/363/974 198/367/975
f 198/367/976 197/366/977 191/357/978
f 192/363/979 193/358/980 199/365/981
f 199/365/982 198/367/983 192/363/984
f 193/356/985 194/359/986 200/364/987
f 200/364/988 199/362/989 193/356/990
f 194/359/991 189/354/992 195/361/993
f 195/361/994 200/364/995 194/359/996
f 202/379/997 203/378/998 204/377/999
f 204/377/1000 201/376/1001 202/379/1002
f 202/368/1003 201/381/1004 205/380/1005
f 205/380/1006 206/369/1007 202/368/1008
f 204/370/1009 203/383/1010 207/382/1011
f 207/382/1012 208/371/1013 204/370/1014
f 208/375/1015 207/374/1016 206/373/1017
f 206/373/1018 205/372/1019 208/375/1020
f 213/385/1021 214/386/1022 211/387/1023
f 211/387/1024 209/384/1025 213/385/1026
f 210/388/1027 209/384/1028 211/387/1029
f 213/385/1030 212/389/1031 215/390/1032
f 215/390/1033 214/386/1034 213/385/1035
f 216/391/1036 215/390/1037 212/389/1038
