# This file uses feet as units for non-parametric coordinates.

g default
v 14.662491 -6.967793 -4.201996
v 12.472656 -6.967793 -8.499779
v 9.061913 -6.967793 -11.910522
v 4.764130 -6.967793 -14.100349
v 0.000000 -6.967793 -14.854912
v -4.764130 -6.967793 -14.100349
v -9.061913 -6.967793 -11.910522
v -12.472656 -6.967793 -8.499779
v -14.662483 -6.967793 -4.201992
v -15.417046 -6.967793 0.562136
v -14.662483 -6.967793 5.326267
v -12.472656 -6.967793 9.624046
v -9.061913 -6.967793 13.034790
v -4.764130 -6.967793 15.224617
v -0.000000 -6.967793 15.979187
v 4.764130 -6.967793 15.224617
v 9.061913 -6.967793 13.034790
v 12.472649 -6.967793 9.624046
v 14.662476 -6.967793 5.326263
v 15.417046 -6.967793 0.562136
v 14.662491 0.000000 -4.201996
v 12.472656 0.000000 -8.499779
v 9.061913 0.000000 -11.910522
v 4.764130 0.000000 -14.100349
v 0.000000 0.000000 -14.854912
v -4.764130 0.000000 -14.100349
v -9.061913 0.000000 -11.910522
v -12.472656 0.000000 -8.499779
v -14.662483 0.000000 -4.201992
v -15.417046 0.000000 0.562136
v -14.662483 0.000000 5.326267
v -12.472656 0.000000 9.624046
v -9.061913 0.000000 13.034790
v -4.764130 0.000000 15.224617
v -0.000000 0.000000 15.979187
v 4.764130 0.000000 15.224617
v 9.061913 0.000000 13.034790
v 12.472649 0.000000 9.624046
v 14.662476 0.000000 5.326263
v 15.417046 0.000000 0.562136
v 14.548897 -7.456694 -4.165085
v 12.376030 -7.456694 -8.429573
v 8.991714 -7.456694 -11.813889
v 4.727222 -7.456694 -13.986755
v -0.000000 -7.456694 -14.735474
v -4.727222 -7.456694 -13.986755
v -8.991707 -7.456694 -11.813889
v -12.376022 -7.456694 -8.429573
v -14.548889 -7.456694 -4.165085
v -15.297607 -7.456694 0.562136
v -14.548889 -7.456694 5.289356
v -12.376022 -7.456694 9.553841
v -8.991707 -7.456694 12.938156
v -4.727219 -7.456694 15.111023
v -0.000000 -7.456694 15.859741
v 4.727219 -7.456694 15.111023
v 8.991707 -7.456694 12.938156
v 12.376022 -7.456694 9.553841
v 14.548882 -7.456694 5.289356
v 15.297600 -7.456694 0.562136
v 3.669237 -13.478363 -1.307438
v 1.869570 -13.478363 -3.107103
v -0.644213 -13.478363 -3.505257
v -2.911932 -13.478363 -2.349794
v -4.067394 -13.478363 -0.082075
v -3.669241 -13.478363 2.431707
v -1.869576 -13.478363 4.231373
v 0.644207 -13.478363 4.629524
v 2.911924 -13.478363 3.474062
v 4.067387 -13.478363 1.206344
v -0.000003 -13.478363 0.562134
vt 0.378282 0.896804
vt 0.397739 0.896804
vt 0.397739 0.928966
vt 0.378282 0.928966
vt 0.378282 0.894539
vt 0.399162 0.894539
vt 0.415161 0.896804
vt 0.415161 0.928966
vt 0.356149 0.896804
vt 0.356149 0.928966
vt 0.356149 0.894539
vt 0.415161 0.894539
vt 0.334015 0.896804
vt 0.334015 0.928966
vt 0.334015 0.894539
vt 0.314551 0.896804
vt 0.314551 0.928966
vt 0.313133 0.894539
vt 0.297203 0.896804
vt 0.297203 0.928966
vt 0.297203 0.894539
vt 0.112088 0.896804
vt 0.131552 0.896804
vt 0.131552 0.928966
vt 0.112088 0.928966
vt 0.110670 0.894539
vt 0.131552 0.894539
vt 0.153686 0.896804
vt 0.153686 0.928966
vt 0.094740 0.896804
vt 0.094740 0.928966
vt 0.094740 0.894539
vt 0.153686 0.894539
vt 0.175819 0.896804
vt 0.175819 0.928966
vt 0.175819 0.894539
vt 0.195281 0.896804
vt 0.195281 0.928966
vt 0.196706 0.894539
vt 0.212632 0.896804
vt 0.212632 0.928966
vt 0.212632 0.894539
vt 0.977123 0.854341
vt 0.985831 0.871435
vt 0.941548 0.883234
vt 0.988833 0.890380
vt 0.943070 0.892845
vt 0.927520 0.890381
vt 0.963559 0.840778
vt 0.934668 0.876353
vt 0.985831 0.909328
vt 0.946466 0.832068
vt 0.977124 0.926420
vt 0.938652 0.901514
vt 0.927520 0.829068
vt 0.925057 0.874831
vt 0.963558 0.939984
vt 0.908572 0.832069
vt 0.946467 0.948694
vt 0.929982 0.905931
vt 0.891481 0.840778
vt 0.916387 0.879248
vt 0.927519 0.951694
vt 0.877916 0.854342
vt 0.908573 0.948694
vt 0.920371 0.904409
vt 0.869208 0.871434
vt 0.911970 0.887918
vt 0.891481 0.939984
vt 0.866206 0.890382
vt 0.877916 0.926421
vt 0.913491 0.897528
vt 0.869208 0.909327
vt 0.009751 0.896804
vt 0.030332 0.896804
vt 0.030332 0.928966
vt 0.009751 0.928966
vt 0.009751 0.894539
vt 0.030332 0.894539
vt 0.052454 0.896804
vt 0.052454 0.928966
vt 0.052454 0.894539
vt 0.074588 0.896804
vt 0.074588 0.928966
vt 0.074588 0.894539
vt 0.232784 0.896804
vt 0.232784 0.928966
vt 0.232784 0.894539
vt 0.254917 0.896804
vt 0.254917 0.928966
vt 0.254917 0.894539
vt 0.277051 0.896804
vt 0.277051 0.928966
vt 0.277051 0.894539
vn 0.944235 -0.119561 -0.306799
vn 0.803214 -0.119562 -0.583569
vn 0.951057 0.000000 -0.309016
vn 0.809017 0.000000 -0.587785
vn 0.583569 -0.119561 -0.803214
vn 0.587785 0.000000 -0.809017
vn 0.306800 -0.119560 -0.944235
vn 0.309017 0.000000 -0.951057
vn -0.000000 -0.119561 -0.992827
vn -0.000000 0.000000 -1.000000
vn -0.306800 -0.119561 -0.944234
vn -0.309017 0.000000 -0.951057
vn -0.583569 -0.119562 -0.803214
vn -0.587786 0.000000 -0.809017
vn -0.803214 -0.119563 -0.583569
vn -0.809017 0.000000 -0.587785
vn -0.944234 -0.119563 -0.306800
vn -0.951057 0.000000 -0.309017
vn -0.992827 -0.119563 0.000000
vn -1.000000 0.000000 0.000000
vn -0.944234 -0.119562 0.306801
vn -0.951056 0.000000 0.309017
vn -0.803214 -0.119561 0.583569
vn -0.809017 0.000000 0.587785
vn -0.583569 -0.119562 0.803214
vn -0.587785 0.000000 0.809017
vn -0.306800 -0.119561 0.944234
vn -0.309017 0.000000 0.951056
vn 0.000000 -0.119561 0.992827
vn 0.000000 0.000000 1.000000
vn 0.306801 -0.119561 0.944234
vn 0.309017 0.000000 0.951056
vn 0.583569 -0.119561 0.803214
vn 0.587785 0.000000 0.809017
vn 0.803214 -0.119561 0.583569
vn 0.809017 0.000000 0.587785
vn 0.944234 -0.119561 0.306800
vn 0.951057 0.000000 0.309017
vn 0.992827 -0.119561 0.000001
vn 1.000000 0.000000 0.000001
vn 0.638750 -0.613971 -0.463722
vn 0.750607 -0.613971 -0.244190
vn 0.463722 -0.613971 -0.638750
vn 0.244191 -0.613970 -0.750608
vn -0.000289 -0.613970 -0.789329
vn -0.243641 -0.613971 -0.750786
vn -0.464189 -0.613971 -0.638410
vn -0.638410 -0.613972 -0.464189
vn -0.750785 -0.613972 -0.243641
vn -0.789328 -0.613972 -0.000289
vn -0.750606 -0.613971 0.244191
vn -0.638750 -0.613971 0.463722
vn -0.463722 -0.613971 0.638750
vn -0.244191 -0.613971 0.750607
vn 0.000289 -0.613970 0.789329
vn 0.243642 -0.613970 0.750786
vn 0.464190 -0.613971 0.638411
vn 0.638411 -0.613971 0.464189
vn 0.750786 -0.613970 0.243641
vn 0.789329 -0.613970 0.000290
vn 0.254370 -0.958383 -0.129608
vn 0.129608 -0.958383 -0.254370
vn -0.044660 -0.958383 -0.281972
vn -0.201870 -0.958383 -0.201869
vn -0.281972 -0.958383 -0.044660
vn -0.254370 -0.958383 0.129608
vn -0.129608 -0.958383 0.254370
vn 0.044660 -0.958383 0.281972
vn 0.201869 -0.958383 0.201870
vn 0.281972 -0.958383 0.044660
vn -0.000000 -1.000000 0.000000
s 1
g SM_Chandelier_03c
f 1/1/1 2/2/2 21/4/3
f 21/4/3 2/2/2 22/3/4
f 2/2/2 3/7/5 22/3/4
f 22/3/4 3/7/5 23/8/6
f 3/74/5 4/75/7 23/77/6
f 23/77/6 4/75/7 24/76/8
f 4/75/7 5/80/9 24/76/8
f 24/76/8 5/80/9 25/81/10
f 5/80/9 6/83/11 25/81/10
f 25/81/10 6/83/11 26/84/12
f 6/83/11 7/30/13 26/84/12
f 26/84/12 7/30/13 27/31/14
f 7/30/13 8/22/15 27/31/14
f 27/31/14 8/22/15 28/25/16
f 8/22/15 9/23/17 28/25/16
f 28/25/16 9/23/17 29/24/18
f 9/23/17 10/28/19 29/24/18
f 29/24/18 10/28/19 30/29/20
f 10/28/19 11/34/21 30/29/20
f 30/29/20 11/34/21 31/35/22
f 11/34/21 12/37/23 31/35/22
f 31/35/22 12/37/23 32/38/24
f 12/37/23 13/40/25 32/38/24
f 32/38/24 13/40/25 33/41/26
f 13/40/25 14/86/27 33/41/26
f 33/41/26 14/86/27 34/87/28
f 14/86/27 15/89/29 34/87/28
f 34/87/28 15/89/29 35/90/30
f 15/89/29 16/92/31 35/90/30
f 35/90/30 16/92/31 36/93/32
f 16/92/31 17/19/33 36/93/32
f 36/93/32 17/19/33 37/20/34
f 17/19/33 18/16/35 37/20/34
f 37/20/34 18/16/35 38/17/36
f 18/16/35 19/13/37 38/17/36
f 38/17/36 19/13/37 39/14/38
f 19/13/37 20/9/39 39/14/38
f 39/14/38 20/9/39 40/10/40
f 20/9/39 1/1/1 40/10/40
f 40/10/40 1/1/1 21/4/3
f 2/2/2 1/1/1 42/6/41
f 42/6/41 1/1/1 41/5/42
f 3/7/5 2/2/2 43/12/43
f 43/12/43 2/2/2 42/6/41
f 4/75/7 3/74/5 44/79/44
f 44/79/44 3/74/5 43/78/43
f 5/80/9 4/75/7 45/82/45
f 45/82/45 4/75/7 44/79/44
f 6/83/11 5/80/9 46/85/46
f 46/85/46 5/80/9 45/82/45
f 7/30/13 6/83/11 47/32/47
f 47/32/47 6/83/11 46/85/46
f 8/22/15 7/30/13 48/26/48
f 48/26/48 7/30/13 47/32/47
f 9/23/17 8/22/15 49/27/49
f 49/27/49 8/22/15 48/26/48
f 10/28/19 9/23/17 50/33/50
f 50/33/50 9/23/17 49/27/49
f 11/34/21 10/28/19 51/36/51
f 51/36/51 10/28/19 50/33/50
f 12/37/23 11/34/21 52/39/52
f 52/39/52 11/34/21 51/36/51
f 13/40/25 12/37/23 53/42/53
f 53/42/53 12/37/23 52/39/52
f 14/86/27 13/40/25 54/88/54
f 54/88/54 13/40/25 53/42/53
f 15/89/29 14/86/27 55/91/55
f 55/91/55 14/86/27 54/88/54
f 16/92/31 15/89/29 56/94/56
f 56/94/56 15/89/29 55/91/55
f 17/19/33 16/92/31 57/21/57
f 57/21/57 16/92/31 56/94/56
f 18/16/35 17/19/33 58/18/58
f 58/18/58 17/19/33 57/21/57
f 19/13/37 18/16/35 59/15/59
f 59/15/59 18/16/35 58/18/58
f 20/9/39 19/13/37 60/11/60
f 60/11/60 19/13/37 59/15/59
f 1/1/1 20/9/39 41/5/42
f 41/5/42 20/9/39 60/11/60
f 42/43/41 41/44/42 61/45/61
f 43/49/43 42/43/41 62/50/62
f 62/50/62 42/43/41 61/45/61
f 44/52/44 43/49/43 62/50/62
f 45/55/45 44/52/44 63/56/63
f 63/56/63 44/52/44 62/50/62
f 46/58/46 45/55/45 63/56/63
f 47/61/47 46/58/46 64/62/64
f 64/62/64 46/58/46 63/56/63
f 48/64/48 47/61/47 64/62/64
f 49/67/49 48/64/48 65/68/65
f 65/68/65 48/64/48 64/62/64
f 50/70/50 49/67/49 65/68/65
f 51/73/51 50/70/50 66/72/66
f 66/72/66 50/70/50 65/68/65
f 52/71/52 51/73/51 66/72/66
f 53/69/53 52/71/52 67/66/67
f 67/66/67 52/71/52 66/72/66
f 54/65/54 53/69/53 67/66/67
f 55/63/55 54/65/54 68/60/68
f 68/60/68 54/65/54 67/66/67
f 56/59/56 55/63/55 68/60/68
f 57/57/57 56/59/56 69/54/69
f 69/54/69 56/59/56 68/60/68
f 58/53/58 57/57/57 69/54/69
f 59/51/59 58/53/58 70/47/70
f 70/47/70 58/53/58 69/54/69
f 60/46/60 59/51/59 70/47/70
f 41/44/42 60/46/60 61/45/61
f 61/45/61 60/46/60 70/47/70
f 62/50/62 61/45/61 71/48/71
f 63/56/63 62/50/62 71/48/71
f 64/62/64 63/56/63 71/48/71
f 65/68/65 64/62/64 71/48/71
f 66/72/66 65/68/65 71/48/71
f 67/66/67 66/72/66 71/48/71
f 68/60/68 67/66/67 71/48/71
f 69/54/69 68/60/68 71/48/71
f 70/47/70 69/54/69 71/48/71
f 61/45/61 70/47/70 71/48/71
