# This file uses feet as units for non-parametric coordinates.

g default
v 11.640911 -37.066376 1.126858
v 5.872625 -37.066376 9.586140
v 8.443044 -39.981445 6.665779
v 10.114391 -39.981445 3.770910
v 14.579710 -7.186295 24.209183
v 50.773842 0.000000 21.077942
v 44.205036 0.000000 32.455433
v 28.570547 -7.186295 -0.023628
v 11.163742 -35.517883 0.421663
v 9.268912 -38.432953 3.282764
v 7.597565 -38.432953 6.177633
v 5.872625 -35.517883 9.586140
v 51.551498 -1.548492 21.034657
v 44.577866 -1.548492 33.154556
v 29.396629 -8.565796 -0.332940
v 14.746372 -8.565659 25.083218
v 6.778991 -37.066376 -9.547972
v 11.220778 -37.066376 -0.322848
v 9.976858 -39.981445 -4.009100
v 8.305511 -39.981445 -6.903968
v 28.238253 -7.186295 -0.551902
v 43.623577 0.000000 -33.462574
v 50.192379 0.000000 -22.085037
v 14.247416 -7.186295 -24.784714
v 5.929662 -35.517883 -9.487325
v 7.460032 -38.432953 -6.415823
v 9.131379 -38.432953 -3.520954
v 11.220778 -35.517883 -0.322848
v 43.974930 -1.548492 -34.157677
v 50.984241 -1.548492 -22.058395
v 14.392602 -8.565796 -25.654778
v 29.078541 -8.565659 -0.259187
v -4.896680 -37.066376 -10.674830
v 5.313429 -37.066376 -9.908988
v 1.499078 -39.981445 -10.674830
v -1.843616 -39.981445 -10.674830
v 13.623795 -7.186295 -24.761086
v -7.185013 0.000000 -54.540520
v 5.952620 0.000000 -54.540520
v -14.357854 -7.186295 -24.761086
v -5.268816 -35.517883 -9.908988
v -1.843616 -38.432953 -9.698539
v 1.499078 -38.432953 -9.698539
v 5.313429 -35.517883 -9.908988
v -7.611316 -1.548492 -55.192337
v 6.371640 -1.548492 -55.212902
v -15.038764 -8.565796 -25.321836
v 14.297422 -8.565659 -25.342451
v 4.827183 -37.066376 10.674830
v -5.382926 -37.066376 9.908988
v -1.568575 -39.981445 10.674830
v 1.774119 -39.981445 10.674830
v -13.693292 -7.186295 24.761086
v 7.115517 0.000000 54.540520
v -6.022117 0.000000 54.540520
v 14.288357 -7.186295 24.761086
v 5.199319 -35.517883 9.908988
v 1.774119 -38.432953 9.698539
v -1.568575 -38.432953 9.698539
v -5.382926 -35.517883 9.908988
v 7.541820 -1.548492 55.192337
v -6.441137 -1.548492 55.212902
v 14.969267 -8.565796 25.321836
v -14.366920 -8.565659 25.342451
v -6.848486 -37.066376 9.547972
v -11.290274 -37.066376 0.322848
v -10.046353 -39.981445 4.009100
v -8.375007 -39.981445 6.903968
v -28.307749 -7.186295 0.551902
v -43.693069 0.000000 33.462574
v -50.261875 0.000000 22.085037
v -14.316913 -7.186295 24.784714
v -5.999157 -35.517883 9.487325
v -7.529528 -38.432953 6.415823
v -9.200875 -38.432953 3.520954
v -11.290274 -35.517883 0.322848
v -44.044426 -1.548492 34.157677
v -51.053738 -1.548492 22.058395
v -14.462098 -8.565796 25.654778
v -29.148037 -8.565659 0.259187
v -11.710407 -37.066376 -1.126858
v -5.942121 -37.066376 -9.586140
v -8.512540 -39.981445 -6.665779
v -10.183887 -39.981445 -3.770910
v -14.649206 -7.186295 -24.209183
v -50.843338 0.000000 -21.077942
v -44.274532 0.000000 -32.455482
v -28.640041 -7.186295 0.023628
v -11.233238 -35.517883 -0.421663
v -9.338408 -38.432953 -3.282764
v -7.667061 -38.432953 -6.177633
v -5.942121 -35.517883 -9.586140
v -51.620995 -1.548492 -21.034657
v -44.647362 -1.548492 -33.154602
v -29.466125 -8.565796 0.332940
v -14.815867 -8.565659 -25.083263
vt 0.643876 0.001991
vt 0.673648 0.454809
vt 0.576843 0.454147
vt 0.619277 0.001839
vt 0.300826 0.001112
vt 0.329401 0.017968
vt 0.342351 0.460536
vt 0.458127 0.259614
vt 0.276460 0.001104
vt 0.240898 0.460565
vt 0.241188 0.013985
vt 0.121882 0.260538
vt 0.044132 0.516171
vt 0.043740 0.291266
vt 0.055901 0.286702
vt 0.058170 0.517151
vt 0.075299 0.511376
vt 0.061322 0.510780
vt 0.063072 0.280657
vt 0.074701 0.285136
vt 0.339330 0.474344
vt 0.243896 0.474431
vt 0.777589 0.114139
vt 0.756465 0.086403
vt 0.770549 0.089218
vt 0.792350 0.113865
vt 0.792855 0.138052
vt 0.778088 0.138375
vt 0.769585 0.167058
vt 0.756693 0.168363
vt 0.047835 0.014657
vt 0.053788 0.002767
vt 0.676529 0.019831
vt 0.795206 0.258980
vt 0.588743 0.019177
vt 0.461798 0.255644
vt 0.063500 0.002186
vt 0.073612 0.012369
vt 0.643876 0.001991
vt 0.673648 0.454809
vt 0.576843 0.454147
vt 0.619277 0.001839
vt 0.300826 0.001112
vt 0.329401 0.017968
vt 0.342351 0.460536
vt 0.458127 0.259614
vt 0.276460 0.001104
vt 0.240898 0.460565
vt 0.241188 0.013985
vt 0.121882 0.260538
vt 0.044132 0.516171
vt 0.043740 0.291266
vt 0.055901 0.286702
vt 0.058170 0.517151
vt 0.075299 0.511376
vt 0.061322 0.510780
vt 0.063072 0.280657
vt 0.074701 0.285136
vt 0.339330 0.474344
vt 0.243896 0.474431
vt 0.777589 0.114139
vt 0.756465 0.086403
vt 0.770549 0.089218
vt 0.792350 0.113865
vt 0.792855 0.138052
vt 0.778088 0.138375
vt 0.769585 0.167058
vt 0.756693 0.168363
vt 0.047835 0.014657
vt 0.053788 0.002767
vt 0.676529 0.019831
vt 0.795206 0.258980
vt 0.588743 0.019177
vt 0.461798 0.255644
vt 0.063500 0.002186
vt 0.073612 0.012369
vt 0.643876 0.001991
vt 0.673648 0.454809
vt 0.576843 0.454147
vt 0.619277 0.001839
vt 0.300826 0.001112
vt 0.329401 0.017968
vt 0.342351 0.460536
vt 0.458127 0.259614
vt 0.276460 0.001104
vt 0.240898 0.460565
vt 0.241188 0.013985
vt 0.121882 0.260538
vt 0.044132 0.516171
vt 0.043740 0.291266
vt 0.055901 0.286702
vt 0.058170 0.517151
vt 0.075299 0.511376
vt 0.061322 0.510780
vt 0.063072 0.280657
vt 0.074701 0.285136
vt 0.339330 0.474344
vt 0.243896 0.474431
vt 0.777589 0.114139
vt 0.756465 0.086403
vt 0.770549 0.089218
vt 0.792350 0.113865
vt 0.792855 0.138052
vt 0.778088 0.138375
vt 0.769585 0.167058
vt 0.756693 0.168363
vt 0.047835 0.014657
vt 0.053788 0.002767
vt 0.676529 0.019831
vt 0.795206 0.258980
vt 0.588743 0.019177
vt 0.461798 0.255644
vt 0.063500 0.002186
vt 0.073612 0.012369
vt 0.643876 0.001991
vt 0.673648 0.454809
vt 0.576843 0.454147
vt 0.619277 0.001839
vt 0.300826 0.001112
vt 0.329401 0.017968
vt 0.342351 0.460536
vt 0.458127 0.259614
vt 0.276460 0.001104
vt 0.240898 0.460565
vt 0.241188 0.013985
vt 0.121882 0.260538
vt 0.044132 0.516171
vt 0.043740 0.291266
vt 0.055901 0.286702
vt 0.058170 0.517151
vt 0.075299 0.511376
vt 0.061322 0.510780
vt 0.063072 0.280657
vt 0.074701 0.285136
vt 0.339330 0.474344
vt 0.243896 0.474431
vt 0.777589 0.114139
vt 0.756465 0.086403
vt 0.770549 0.089218
vt 0.792350 0.113865
vt 0.792855 0.138052
vt 0.778088 0.138375
vt 0.769585 0.167058
vt 0.756693 0.168363
vt 0.047835 0.014657
vt 0.053788 0.002767
vt 0.676529 0.019831
vt 0.795206 0.258980
vt 0.588743 0.019177
vt 0.461798 0.255644
vt 0.063500 0.002186
vt 0.073612 0.012369
vt 0.643876 0.001991
vt 0.673648 0.454809
vt 0.576843 0.454147
vt 0.619277 0.001839
vt 0.300826 0.001112
vt 0.329401 0.017968
vt 0.342351 0.460536
vt 0.458127 0.259614
vt 0.276460 0.001104
vt 0.240898 0.460565
vt 0.241188 0.013985
vt 0.121882 0.260538
vt 0.044132 0.516171
vt 0.043740 0.291266
vt 0.055901 0.286702
vt 0.058170 0.517151
vt 0.075299 0.511376
vt 0.061322 0.510780
vt 0.063072 0.280657
vt 0.074701 0.285136
vt 0.339330 0.474344
vt 0.243896 0.474431
vt 0.777589 0.114139
vt 0.756465 0.086403
vt 0.770549 0.089218
vt 0.792350 0.113865
vt 0.792855 0.138052
vt 0.778088 0.138375
vt 0.769585 0.167058
vt 0.756693 0.168363
vt 0.047835 0.014657
vt 0.053788 0.002767
vt 0.676529 0.019831
vt 0.795206 0.258980
vt 0.588743 0.019177
vt 0.461798 0.255644
vt 0.063500 0.002186
vt 0.073612 0.012369
vt 0.643876 0.001991
vt 0.673648 0.454809
vt 0.576843 0.454147
vt 0.619277 0.001839
vt 0.300826 0.001112
vt 0.329401 0.017968
vt 0.342351 0.460536
vt 0.458127 0.259614
vt 0.276460 0.001104
vt 0.240898 0.460565
vt 0.241188 0.013985
vt 0.121882 0.260538
vt 0.044132 0.516171
vt 0.043740 0.291266
vt 0.055901 0.286702
vt 0.058170 0.517151
vt 0.075299 0.511376
vt 0.061322 0.510780
vt 0.063072 0.280657
vt 0.074701 0.285136
vt 0.339330 0.474344
vt 0.243896 0.474431
vt 0.777589 0.114139
vt 0.756465 0.086403
vt 0.770549 0.089218
vt 0.792350 0.113865
vt 0.792855 0.138052
vt 0.778088 0.138375
vt 0.769585 0.167058
vt 0.756693 0.168363
vt 0.047835 0.014657
vt 0.053788 0.002767
vt 0.676529 0.019831
vt 0.795206 0.258980
vt 0.588743 0.019177
vt 0.461798 0.255644
vt 0.063500 0.002186
vt 0.073612 0.012369
vn -0.523147 0.760839 -0.383981
vn -0.436354 0.745991 -0.503083
vn -0.592566 0.761517 -0.262597
vn -0.651570 0.748753 -0.121759
vn 0.595592 -0.759592 0.261323
vn 0.710051 -0.554880 -0.433516
vn 0.651531 -0.748864 0.121287
vn 0.710051 -0.554880 -0.433516
vn 0.688098 -0.457529 -0.563195
vn 0.651531 -0.748864 0.121287
vn 0.508143 -0.758678 0.407674
vn 0.595592 -0.759592 0.261323
vn 0.438875 -0.746535 0.500074
vn 0.651531 -0.748864 0.121287
vn 0.508143 -0.758678 0.407674
vn 0.438875 -0.746535 0.500074
vn 0.007158 -0.558300 0.829609
vn -0.136621 -0.440047 0.887521
vn 0.007158 -0.558300 0.829609
vn 0.438875 -0.746535 0.500074
vn -0.330082 0.398866 0.855542
vn -0.330082 0.398866 0.855542
vn -0.330082 0.398866 0.855542
vn -0.330082 0.398866 0.855542
vn 0.565347 0.396743 -0.723172
vn 0.565347 0.396743 -0.723172
vn 0.565347 0.396743 -0.723172
vn 0.565347 0.396743 -0.723172
vn 0.796632 0.393165 0.459129
vn 0.796632 0.393165 0.459129
vn 0.796632 0.393165 0.459129
vn 0.796632 0.393165 0.459129
vn -0.424145 -0.477613 -0.769407
vn -0.424145 -0.477613 -0.769407
vn -0.424145 -0.477613 -0.769407
vn -0.424145 -0.477613 -0.769407
vn -0.732582 -0.533321 -0.422956
vn -0.732582 -0.533321 -0.422956
vn -0.732582 -0.533321 -0.422956
vn -0.732582 -0.533321 -0.422956
vn -0.894696 -0.296859 -0.333756
vn -0.894696 -0.296859 -0.333756
vn -0.894696 -0.296859 -0.333756
vn -0.894696 -0.296859 -0.333756
vn -0.912465 0.068480 0.403383
vn -0.912465 0.068480 0.403383
vn -0.912465 0.068480 0.403382
vn -0.912465 0.068480 0.403383
vn -0.523147 0.760839 -0.383981
vn -0.053970 0.581105 -0.812037
vn -0.436354 0.745991 -0.503083
vn 0.148380 0.417183 -0.896628
vn -0.436354 0.745991 -0.503083
vn -0.053970 0.581105 -0.812037
vn -0.592566 0.761517 -0.262597
vn -0.651570 0.748753 -0.121759
vn -0.718937 0.572689 0.393899
vn -0.651570 0.748753 -0.121759
vn -0.690574 0.433387 0.579036
vn -0.718937 0.572689 0.393899
vn 0.094750 -0.091850 -0.991255
vn 0.094750 -0.091850 -0.991255
vn 0.094750 -0.091850 -0.991255
vn 0.094750 -0.091850 -0.991255
vn -0.594112 0.760839 0.261066
vn -0.653860 0.745991 0.126352
vn -0.523699 0.761518 0.381877
vn -0.431232 0.748754 0.503395
vn 0.524108 -0.759592 -0.385137
vn -0.020414 -0.554878 -0.831681
vn 0.430802 -0.748864 -0.503599
vn -0.020414 -0.554878 -0.831681
vn -0.143692 -0.457529 -0.877508
vn 0.430802 -0.748864 -0.503599
vn 0.607128 -0.758678 -0.236229
vn 0.524108 -0.759592 -0.385137
vn 0.652514 -0.746535 -0.130040
vn 0.430802 -0.748864 -0.503599
vn 0.607128 -0.758678 -0.236229
vn 0.652514 -0.746535 -0.130040
vn 0.722042 -0.558301 0.408602
vn 0.700306 -0.440048 0.562076
vn 0.722042 -0.558301 0.408602
vn 0.652514 -0.746535 -0.130040
vn 0.575881 0.398866 0.713630
vn 0.575881 0.398866 0.713630
vn 0.575881 0.398866 0.713630
vn 0.575881 0.398866 0.713630
vn -0.343620 0.396736 -0.851191
vn -0.343620 0.396736 -0.851191
vn -0.343620 0.396736 -0.851191
vn -0.343620 0.396736 -0.851191
vn 0.795933 0.393167 -0.460337
vn 0.795933 0.393167 -0.460337
vn 0.795933 0.393167 -0.460337
vn 0.795933 0.393167 -0.460337
vn -0.878397 -0.477616 -0.017392
vn -0.878397 -0.477616 -0.017392
vn -0.878397 -0.477616 -0.017392
vn -0.878397 -0.477616 -0.017392
vn -0.732582 -0.533321 0.422956
vn -0.732582 -0.533321 0.422956
vn -0.732582 -0.533321 0.422956
vn -0.732582 -0.533321 0.422956
vn -0.736388 -0.296859 0.607953
vn -0.736388 -0.296859 0.607953
vn -0.736388 -0.296859 0.607953
vn -0.736388 -0.296859 0.607953
vn -0.106901 0.068487 0.991908
vn -0.106901 0.068487 0.991908
vn -0.106901 0.068487 0.991908
vn -0.106901 0.068487 0.991908
vn -0.594112 0.760839 0.261066
vn -0.730231 0.581104 -0.359278
vn -0.653860 0.745991 0.126352
vn -0.702312 0.417183 -0.576816
vn -0.653860 0.745991 0.126352
vn -0.730231 0.581104 -0.359278
vn -0.523699 0.761518 0.381877
vn -0.431232 0.748754 0.503395
vn -0.018340 0.572688 0.819568
vn -0.431232 0.748754 0.503395
vn 0.156174 0.433387 0.887573
vn -0.018340 0.572688 0.819568
vn -0.811070 -0.091858 -0.577691
vn -0.811070 -0.091858 -0.577691
vn -0.811070 -0.091858 -0.577691
vn -0.811070 -0.091858 -0.577691
vn -0.070963 0.760839 0.645049
vn -0.217505 0.745992 0.629435
vn 0.068866 0.761518 0.644475
vn 0.220338 0.748754 0.625155
vn -0.071483 -0.759593 -0.646459
vn -0.730462 -0.554880 -0.398163
vn -0.220727 -0.748864 -0.624885
vn -0.730462 -0.554880 -0.398163
vn -0.831790 -0.457529 -0.314313
vn -0.220727 -0.748864 -0.624885
vn 0.098985 -0.758678 -0.643902
vn -0.071483 -0.759593 -0.646459
vn 0.213640 -0.746535 -0.630113
vn -0.220727 -0.748864 -0.624885
vn 0.098985 -0.758678 -0.643902
vn 0.213640 -0.746535 -0.630113
vn 0.714880 -0.558302 -0.421006
vn 0.836926 -0.440047 -0.325444
vn 0.714880 -0.558302 -0.421006
vn 0.213640 -0.746535 -0.630113
vn 0.905963 0.398865 -0.141911
vn 0.905963 0.398865 -0.141911
vn 0.905963 0.398865 -0.141911
vn 0.905963 0.398865 -0.141911
vn -0.908963 0.396735 -0.128013
vn -0.908963 0.396735 -0.128013
vn -0.908963 0.396735 -0.128013
vn -0.908963 0.396735 -0.128013
vn -0.000697 0.393148 -0.919475
vn -0.000697 0.393149 -0.919475
vn -0.000697 0.393149 -0.919475
vn -0.000697 0.393149 -0.919475
vn -0.454263 -0.477617 0.752015
vn -0.454263 -0.477617 0.752015
vn -0.454263 -0.477617 0.752015
vn -0.454263 -0.477617 0.752015
vn 0.000000 -0.533326 0.845910
vn 0.000000 -0.533326 0.845910
vn 0.000000 -0.533326 0.845910
vn 0.000000 -0.533326 0.845910
vn 0.158316 -0.296865 0.941704
vn 0.158316 -0.296865 0.941704
vn 0.158316 -0.296865 0.941704
vn 0.158316 -0.296865 0.941704
vn 0.805572 0.068483 0.588527
vn 0.805572 0.068483 0.588527
vn 0.805572 0.068483 0.588527
vn 0.805572 0.068483 0.588527
vn -0.070963 0.760839 0.645049
vn -0.676257 0.581106 0.452761
vn -0.217505 0.745992 0.629435
vn -0.850693 0.417183 0.319812
vn -0.217505 0.745992 0.629435
vn -0.676257 0.581106 0.452761
vn 0.068866 0.761518 0.644475
vn 0.220338 0.748754 0.625155
vn 0.700594 0.572690 0.425669
vn 0.220338 0.748754 0.625155
vn 0.846748 0.433387 0.308536
vn 0.700594 0.572690 0.425669
vn -0.905827 -0.091852 0.413572
vn -0.905827 -0.091852 0.413572
vn -0.905826 -0.091852 0.413572
vn -0.905827 -0.091852 0.413572
vn 0.070963 0.760839 -0.645049
vn 0.217505 0.745992 -0.629435
vn -0.068866 0.761518 -0.644475
vn -0.220338 0.748754 -0.625155
vn 0.071483 -0.759593 0.646459
vn 0.730462 -0.554880 0.398163
vn 0.220727 -0.748864 0.624885
vn 0.730462 -0.554880 0.398163
vn 0.831790 -0.457529 0.314314
vn 0.220727 -0.748864 0.624885
vn -0.098985 -0.758678 0.643902
vn 0.071483 -0.759593 0.646459
vn -0.213640 -0.746535 0.630113
vn 0.220727 -0.748864 0.624885
vn -0.098985 -0.758678 0.643902
vn -0.213640 -0.746535 0.630113
vn -0.714880 -0.558302 0.421006
vn -0.836925 -0.440048 0.325444
vn -0.714880 -0.558302 0.421006
vn -0.213640 -0.746535 0.630113
vn -0.905962 0.398865 0.141913
vn -0.905962 0.398865 0.141913
vn -0.905962 0.398865 0.141913
vn -0.905962 0.398865 0.141913
vn 0.908963 0.396735 0.128013
vn 0.908963 0.396735 0.128013
vn 0.908963 0.396735 0.128013
vn 0.908963 0.396735 0.128013
vn 0.000697 0.393148 0.919475
vn 0.000697 0.393149 0.919475
vn 0.000697 0.393149 0.919475
vn 0.000697 0.393149 0.919475
vn 0.454265 -0.477619 -0.752012
vn 0.454265 -0.477619 -0.752013
vn 0.454266 -0.477619 -0.752013
vn 0.454265 -0.477619 -0.752013
vn 0.000000 -0.533326 -0.845910
vn 0.000000 -0.533326 -0.845910
vn 0.000000 -0.533326 -0.845910
vn 0.000000 -0.533326 -0.845910
vn -0.158316 -0.296865 -0.941704
vn -0.158316 -0.296865 -0.941704
vn -0.158316 -0.296865 -0.941704
vn -0.158316 -0.296865 -0.941704
vn -0.805572 0.068483 -0.588527
vn -0.805572 0.068483 -0.588527
vn -0.805572 0.068483 -0.588527
vn -0.805572 0.068483 -0.588527
vn 0.070963 0.760839 -0.645049
vn 0.676257 0.581106 -0.452761
vn 0.217505 0.745992 -0.629435
vn 0.850693 0.417183 -0.319812
vn 0.217505 0.745992 -0.629435
vn 0.676257 0.581106 -0.452761
vn -0.068866 0.761518 -0.644475
vn -0.220338 0.748754 -0.625155
vn -0.700594 0.572690 -0.425670
vn -0.220338 0.748754 -0.625155
vn -0.846748 0.433386 -0.308536
vn -0.700594 0.572690 -0.425670
vn 0.905827 -0.091852 -0.413572
vn 0.905827 -0.091852 -0.413572
vn 0.905826 -0.091852 -0.413572
vn 0.905827 -0.091852 -0.413572
vn 0.594112 0.760839 -0.261066
vn 0.653860 0.745991 -0.126352
vn 0.523699 0.761518 -0.381877
vn 0.431232 0.748754 -0.503395
vn -0.524108 -0.759592 0.385137
vn 0.020414 -0.554878 0.831681
vn -0.430802 -0.748864 0.503599
vn 0.020414 -0.554878 0.831681
vn 0.143692 -0.457529 0.877508
vn -0.430802 -0.748864 0.503599
vn -0.607128 -0.758678 0.236229
vn -0.524108 -0.759592 0.385137
vn -0.652514 -0.746535 0.130040
vn -0.430802 -0.748864 0.503599
vn -0.607128 -0.758678 0.236229
vn -0.652514 -0.746535 0.130040
vn -0.722042 -0.558302 -0.408602
vn -0.700306 -0.440048 -0.562076
vn -0.722042 -0.558302 -0.408602
vn -0.652514 -0.746535 0.130040
vn -0.575880 0.398867 -0.713630
vn -0.575880 0.398867 -0.713630
vn -0.575880 0.398867 -0.713630
vn -0.575880 0.398867 -0.713630
vn 0.343620 0.396736 0.851191
vn 0.343620 0.396736 0.851191
vn 0.343620 0.396736 0.851191
vn 0.343620 0.396736 0.851191
vn -0.795933 0.393169 0.460336
vn -0.795933 0.393169 0.460336
vn -0.795933 0.393169 0.460336
vn -0.795933 0.393169 0.460336
vn 0.878397 -0.477616 0.017392
vn 0.878397 -0.477616 0.017392
vn 0.878397 -0.477616 0.017392
vn 0.878397 -0.477616 0.017392
vn 0.732582 -0.533321 -0.422956
vn 0.732582 -0.533321 -0.422956
vn 0.732582 -0.533321 -0.422956
vn 0.732582 -0.533321 -0.422956
vn 0.736388 -0.296860 -0.607953
vn 0.736388 -0.296860 -0.607953
vn 0.736388 -0.296860 -0.607953
vn 0.736388 -0.296860 -0.607953
vn 0.106901 0.068487 -0.991908
vn 0.106901 0.068487 -0.991908
vn 0.106901 0.068487 -0.991908
vn 0.106901 0.068487 -0.991908
vn 0.594112 0.760839 -0.261066
vn 0.730231 0.581104 0.359278
vn 0.653860 0.745991 -0.126352
vn 0.702312 0.417183 0.576816
vn 0.653860 0.745991 -0.126352
vn 0.730231 0.581104 0.359278
vn 0.523699 0.761518 -0.381877
vn 0.431232 0.748754 -0.503395
vn 0.018340 0.572688 -0.819569
vn 0.431232 0.748754 -0.503395
vn -0.156174 0.433387 -0.887573
vn 0.018340 0.572688 -0.819569
vn 0.811070 -0.091857 0.577691
vn 0.811070 -0.091857 0.577691
vn 0.811070 -0.091857 0.577691
vn 0.811070 -0.091857 0.577691
vn 0.523147 0.760839 0.383980
vn 0.436355 0.745991 0.503083
vn 0.592566 0.761517 0.262597
vn 0.651570 0.748753 0.121759
vn -0.595593 -0.759592 -0.261322
vn -0.710051 -0.554880 0.433516
vn -0.651531 -0.748864 -0.121287
vn -0.710051 -0.554880 0.433516
vn -0.688098 -0.457529 0.563195
vn -0.651531 -0.748864 -0.121287
vn -0.508144 -0.758678 -0.407674
vn -0.595593 -0.759592 -0.261322
vn -0.438875 -0.746535 -0.500073
vn -0.651531 -0.748864 -0.121287
vn -0.508144 -0.758678 -0.407674
vn -0.438875 -0.746535 -0.500073
vn -0.007158 -0.558300 -0.829608
vn 0.136620 -0.440048 -0.887521
vn -0.007158 -0.558300 -0.829608
vn -0.438875 -0.746535 -0.500073
vn 0.330084 0.398876 -0.855536
vn 0.330084 0.398876 -0.855536
vn 0.330084 0.398876 -0.855536
vn 0.330084 0.398876 -0.855536
vn -0.565347 0.396743 0.723172
vn -0.565347 0.396743 0.723172
vn -0.565347 0.396743 0.723172
vn -0.565347 0.396743 0.723172
vn -0.796633 0.393164 -0.459128
vn -0.796633 0.393164 -0.459128
vn -0.796633 0.393164 -0.459128
vn -0.796633 0.393164 -0.459128
vn 0.424145 -0.477613 0.769407
vn 0.424145 -0.477613 0.769407
vn 0.424145 -0.477613 0.769407
vn 0.424145 -0.477613 0.769407
vn 0.732582 -0.533321 0.422956
vn 0.732582 -0.533321 0.422956
vn 0.732582 -0.533321 0.422956
vn 0.732582 -0.533321 0.422956
vn 0.894696 -0.296859 0.333756
vn 0.894696 -0.296859 0.333756
vn 0.894696 -0.296859 0.333756
vn 0.894696 -0.296859 0.333756
vn 0.912468 0.068484 -0.403375
vn 0.912468 0.068484 -0.403375
vn 0.912468 0.068484 -0.403375
vn 0.912468 0.068484 -0.403375
vn 0.523147 0.760839 0.383980
vn 0.053969 0.581105 0.812037
vn 0.436355 0.745991 0.503083
vn -0.148382 0.417183 0.896628
vn 0.436355 0.745991 0.503083
vn 0.053969 0.581105 0.812037
vn 0.592566 0.761517 0.262597
vn 0.651570 0.748753 0.121759
vn 0.718938 0.572689 -0.393899
vn 0.651570 0.748753 0.121759
vn 0.690574 0.433387 -0.579036
vn 0.718938 0.572689 -0.393899
vn -0.094750 -0.091850 0.991255
vn -0.094750 -0.091850 0.991255
vn -0.094750 -0.091850 0.991255
vn -0.094750 -0.091850 0.991255
s 1
g SM_Chandelier_03b
f 11/1/1 7/2/2 10/4/3
f 10/4/3 7/2/2 6/3/4
s off
f 4/5/5 1/6/6 13/7/7
f 1/6/8 15/8/9 13/7/10
s 2
f 3/9/11 4/5/12 14/10/13
f 14/10/13 4/5/12 13/7/14
s off
f 3/9/15 14/10/16 2/11/17
f 16/12/18 2/11/19 14/10/20
s 3
f 5/14/21 16/15/22 7/13/23
f 7/13/23 16/15/22 14/16/24
s 4
f 13/18/25 15/19/26 6/17/27
f 6/17/27 15/19/26 8/20/28
s 5
f 6/21/29 7/22/30 13/7/31
f 13/7/31 7/22/30 14/10/32
s 6
f 9/24/33 1/25/34 10/23/35
f 10/23/35 1/25/34 4/26/36
s 7
f 10/23/37 4/26/38 11/28/39
f 11/28/39 4/26/38 3/27/40
s 8
f 3/27/41 2/29/42 11/28/43
f 11/28/43 2/29/42 12/30/44
s 9
f 5/14/45 12/31/46 16/15/47
f 16/15/47 12/31/46 2/32/48
s off
f 11/1/49 12/33/50 7/2/51
f 5/34/52 7/2/53 12/33/54
f 10/4/55 6/3/56 9/35/57
f 6/3/58 8/36/59 9/35/60
s 10
f 8/20/61 15/19/62 9/38/63
f 9/38/63 15/19/62 1/37/64
s 11
f 27/39/65 23/40/66 26/42/67
f 26/42/67 23/40/66 22/41/68
s off
f 20/43/69 17/44/70 29/45/71
f 17/44/72 31/46/73 29/45/74
s 12
f 19/47/75 20/43/76 30/48/77
f 30/48/77 20/43/76 29/45/78
s off
f 19/47/79 30/48/80 18/49/81
f 32/50/82 18/49/83 30/48/84
s 13
f 21/52/85 32/53/86 23/51/87
f 23/51/87 32/53/86 30/54/88
s 14
f 29/56/89 31/57/90 22/55/91
f 22/55/91 31/57/90 24/58/92
s 15
f 22/59/93 23/60/94 29/45/95
f 29/45/95 23/60/94 30/48/96
s 16
f 25/62/97 17/63/98 26/61/99
f 26/61/99 17/63/98 20/64/100
s 17
f 26/61/101 20/64/102 27/66/103
f 27/66/103 20/64/102 19/65/104
s 18
f 19/65/105 18/67/106 27/66/107
f 27/66/107 18/67/106 28/68/108
s 19
f 21/52/109 28/69/110 32/53/111
f 32/53/111 28/69/110 18/70/112
s off
f 27/39/113 28/71/114 23/40/115
f 21/72/116 23/40/117 28/71/118
f 26/42/119 22/41/120 25/73/121
f 22/41/122 24/74/123 25/73/124
s 20
f 24/58/125 31/57/126 25/76/127
f 25/76/127 31/57/126 17/75/128
s 21
f 43/77/129 39/78/130 42/80/131
f 42/80/131 39/78/130 38/79/132
s off
f 36/81/133 33/82/134 45/83/135
f 33/82/136 47/84/137 45/83/138
s 22
f 35/85/139 36/81/140 46/86/141
f 46/86/141 36/81/140 45/83/142
s off
f 35/85/143 46/86/144 34/87/145
f 48/88/146 34/87/147 46/86/148
s 23
f 37/90/149 48/91/150 39/89/151
f 39/89/151 48/91/150 46/92/152
s 24
f 45/94/153 47/95/154 38/93/155
f 38/93/155 47/95/154 40/96/156
s 25
f 38/97/157 39/98/158 45/83/159
f 45/83/159 39/98/158 46/86/160
s 26
f 41/100/161 33/101/162 42/99/163
f 42/99/163 33/101/162 36/102/164
s 27
f 42/99/165 36/102/166 43/104/167
f 43/104/167 36/102/166 35/103/168
s 28
f 35/103/169 34/105/170 43/104/171
f 43/104/171 34/105/170 44/106/172
s 29
f 37/90/173 44/107/174 48/91/175
f 48/91/175 44/107/174 34/108/176
s off
f 43/77/177 44/109/178 39/78/179
f 37/110/180 39/78/181 44/109/182
f 42/80/183 38/79/184 41/111/185
f 38/79/186 40/112/187 41/111/188
s 30
f 40/96/189 47/95/190 41/114/191
f 41/114/191 47/95/190 33/113/192
s 31
f 59/115/193 55/116/194 58/118/195
f 58/118/195 55/116/194 54/117/196
s off
f 52/119/197 49/120/198 61/121/199
f 49/120/200 63/122/201 61/121/202
s 32
f 51/123/203 52/119/204 62/124/205
f 62/124/205 52/119/204 61/121/206
s off
f 51/123/207 62/124/208 50/125/209
f 64/126/210 50/125/211 62/124/212
s 33
f 53/128/213 64/129/214 55/127/215
f 55/127/215 64/129/214 62/130/216
s 34
f 61/132/217 63/133/218 54/131/219
f 54/131/219 63/133/218 56/134/220
s 35
f 54/135/221 55/136/222 61/121/223
f 61/121/223 55/136/222 62/124/224
s 36
f 57/138/225 49/139/226 58/137/227
f 58/137/227 49/139/226 52/140/228
s 37
f 58/137/229 52/140/230 59/142/231
f 59/142/231 52/140/230 51/141/232
s 38
f 51/141/233 50/143/234 59/142/235
f 59/142/235 50/143/234 60/144/236
s 39
f 53/128/237 60/145/238 64/129/239
f 64/129/239 60/145/238 50/146/240
s off
f 59/115/241 60/147/242 55/116/243
f 53/148/244 55/116/245 60/147/246
f 58/118/247 54/117/248 57/149/249
f 54/117/250 56/150/251 57/149/252
s 40
f 56/134/253 63/133/254 57/152/255
f 57/152/255 63/133/254 49/151/256
s 41
f 75/153/257 71/154/258 74/156/259
f 74/156/259 71/154/258 70/155/260
s off
f 68/157/261 65/158/262 77/159/263
f 65/158/264 79/160/265 77/159/266
s 42
f 67/161/267 68/157/268 78/162/269
f 78/162/269 68/157/268 77/159/270
s off
f 67/161/271 78/162/272 66/163/273
f 80/164/274 66/163/275 78/162/276
s 43
f 69/166/277 80/167/278 71/165/279
f 71/165/279 80/167/278 78/168/280
s 44
f 77/170/281 79/171/282 70/169/283
f 70/169/283 79/171/282 72/172/284
s 45
f 70/173/285 71/174/286 77/159/287
f 77/159/287 71/174/286 78/162/288
s 46
f 73/176/289 65/177/290 74/175/291
f 74/175/291 65/177/290 68/178/292
s 47
f 74/175/293 68/178/294 75/180/295
f 75/180/295 68/178/294 67/179/296
s 48
f 67/179/297 66/181/298 75/180/299
f 75/180/299 66/181/298 76/182/300
s 49
f 69/166/301 76/183/302 80/167/303
f 80/167/303 76/183/302 66/184/304
s off
f 75/153/305 76/185/306 71/154/307
f 69/186/308 71/154/309 76/185/310
f 74/156/311 70/155/312 73/187/313
f 70/155/314 72/188/315 73/187/316
s 50
f 72/172/317 79/171/318 73/190/319
f 73/190/319 79/171/318 65/189/320
s 51
f 91/191/321 87/192/322 90/194/323
f 90/194/323 87/192/322 86/193/324
s off
f 84/195/325 81/196/326 93/197/327
f 81/196/328 95/198/329 93/197/330
s 52
f 83/199/331 84/195/332 94/200/333
f 94/200/333 84/195/332 93/197/334
s off
f 83/199/335 94/200/336 82/201/337
f 96/202/338 82/201/339 94/200/340
s 53
f 85/204/341 96/205/342 87/203/343
f 87/203/343 96/205/342 94/206/344
s 54
f 93/208/345 95/209/346 86/207/347
f 86/207/347 95/209/346 88/210/348
s 55
f 86/211/349 87/212/350 93/197/351
f 93/197/351 87/212/350 94/200/352
s 56
f 89/214/353 81/215/354 90/213/355
f 90/213/355 81/215/354 84/216/356
s 57
f 90/213/357 84/216/358 91/218/359
f 91/218/359 84/216/358 83/217/360
s 58
f 83/217/361 82/219/362 91/218/363
f 91/218/363 82/219/362 92/220/364
s 59
f 85/204/365 92/221/366 96/205/367
f 96/205/367 92/221/366 82/222/368
s off
f 91/191/369 92/223/370 87/192/371
f 85/224/372 87/192/373 92/223/374
f 90/194/375 86/193/376 89/225/377
f 86/193/378 88/226/379 89/225/380
s 60
f 88/210/381 95/209/382 89/228/383
f 89/228/383 95/209/382 81/227/384
