# This file uses feet as units for non-parametric coordinates.

g default
v 60.847389 12.283920 51.014313
v 61.901550 12.283920 51.014320
v 61.901550 10.041477 51.014320
v 60.847389 10.041477 51.014313
v 60.847389 10.041477 2.748652
v 60.847389 12.283920 2.748652
v 61.901550 10.041477 2.748655
v 61.901550 12.283920 2.748655
v 3.169189 15.777958 0.000000
v 60.876534 15.777958 0.000000
v 3.169189 2.042271 0.000000
v 60.876534 2.042271 0.000000
v 59.231400 15.777958 1.645130
v 4.814316 15.777958 1.645130
v 59.231400 5.483551 1.645130
v 4.814316 5.483551 1.645130
v 60.876534 15.777958 81.497055
v 60.876534 2.042271 81.497055
v 59.231400 15.777958 81.497055
v 59.231407 5.483551 81.497055
v 3.169189 15.777958 81.497055
v 3.169189 2.042271 81.497055
v 4.814316 15.777958 81.497055
v 4.814320 5.483551 81.497055
v 0.000000 19.261967 81.497055
v 64.045715 19.261967 81.497055
v 64.045715 19.261967 83.966125
v 64.045723 -0.000004 81.497040
v 0.000000 0.000000 81.497040
v 64.045715 0.000000 83.966125
v 0.000000 0.000000 83.966125
v 0.000000 19.261967 83.966125
v 3.190456 12.283920 51.014313
v 2.136318 12.283920 51.014320
v 2.136318 10.041477 51.014320
v 3.190456 10.041477 51.014313
v 2.136318 12.283920 3.068949
v 2.136318 10.041477 3.068949
v 3.190456 10.041477 3.068945
v 3.190456 12.283920 3.068945
v 28.782265 9.169697 83.939178
v 27.932549 9.169697 83.939178
v 28.782265 9.169697 84.968292
v 27.932549 9.169697 84.968292
v 28.782265 10.019413 84.968292
v 27.932549 10.019413 84.968292
v 28.782265 10.019413 83.939178
v 27.932549 10.019413 83.939178
v 38.008514 10.342152 87.175835
v 26.037216 10.342152 87.175835
v 38.008514 9.114170 84.916122
v 38.008507 10.251942 84.936920
v 38.008507 10.884670 86.081970
v 38.008507 8.941097 87.234787
v 38.008514 8.348194 86.076050
v 26.037216 9.114170 84.916122
v 26.037209 10.251942 84.936920
v 26.037209 10.884670 86.081970
v 26.037209 8.941097 87.234787
v 26.037216 8.348194 86.076050
v 36.104607 9.169697 83.939178
v 35.254890 9.169697 83.939178
v 36.104607 9.169697 84.968292
v 35.254890 9.169697 84.968292
v 36.104607 10.019413 84.968292
v 35.254890 10.019413 84.968292
v 36.104607 10.019413 83.939178
v 35.254890 10.019413 83.939178
vt 0.245383 0.819918
vt 0.245383 0.965216
vt 0.238632 0.965216
vt 0.238632 0.819918
vt 0.917593 0.619454
vt 0.917593 0.864800
vt 0.876242 0.864800
vt 0.876242 0.619454
vt 0.463331 0.832569
vt 0.463331 0.592176
vt 0.494322 0.592176
vt 0.494322 0.832569
vt 0.500084 0.343718
vt 0.500084 0.584113
vt 0.469092 0.584113
vt 0.469092 0.343718
vt 0.376908 0.861852
vt 0.376908 0.616505
vt 0.418259 0.616505
vt 0.418259 0.861852
vt 0.419159 0.037153
vt 0.426592 0.037153
vt 0.426592 0.095138
vt 0.419159 0.095138
vt 0.507503 0.022777
vt 0.514935 0.022777
vt 0.514935 0.080761
vt 0.507503 0.080761
vt 0.279952 0.819884
vt 0.279952 0.964219
vt 0.273201 0.964219
vt 0.273201 0.819884
vt 0.370478 0.816881
vt 0.370478 0.962177
vt 0.367305 0.962177
vt 0.367305 0.816881
vt 0.250155 0.963939
vt 0.250155 0.818654
vt 0.253328 0.818654
vt 0.253328 0.963939
vt 0.976109 0.818343
vt 0.973380 0.556675
vt 0.981062 0.987110
vt 0.981062 0.550162
vt 0.968427 0.311331
vt 0.973380 0.311331
vt 0.976109 0.309775
vt 0.981062 0.309775
vt 0.689952 0.644554
vt 0.697385 0.644554
vt 0.697385 0.837361
vt 0.689952 0.837361
vt 0.672667 0.644152
vt 0.680101 0.644152
vt 0.680101 0.836959
vt 0.672667 0.836959
vt 0.261010 0.820105
vt 0.261010 0.964454
vt 0.257837 0.964454
vt 0.257837 0.820105
vt 0.265519 0.820972
vt 0.268692 0.820972
vt 0.268692 0.965309
vt 0.265519 0.965309
vt 0.000491 0.860970
vt 0.000491 0.620576
vt 0.164313 0.620576
vt 0.164313 0.860970
vt 0.529880 0.005444
vt 0.529880 0.012192
vt 0.526708 0.012192
vt 0.526708 0.005444
vt 0.204063 0.983208
vt 0.204063 0.819387
vt 0.235054 0.819387
vt 0.235054 0.983208
vt 0.920414 0.812315
vt 0.920414 0.619505
vt 0.978402 0.619505
vt 0.978402 0.812315
vt 0.441528 0.010447
vt 0.438364 0.010447
vt 0.438364 0.003717
vt 0.441528 0.003717
vt 0.968427 0.551722
vt 0.981062 0.813391
vt 0.976109 0.555115
vt 0.976109 0.982158
vt 0.642272 0.967769
vt 0.646283 0.967769
vt 0.642272 0.972627
vt 0.646283 0.972627
vt 0.518544 0.943726
vt 0.522554 0.943726
vt 0.518544 0.948583
vt 0.522554 0.948583
vt 0.642273 0.950424
vt 0.646282 0.950424
vt 0.642273 0.955282
vt 0.646282 0.955282
vt 0.646283 0.864619
vt 0.642273 0.864619
vt 0.646283 0.859762
vt 0.642273 0.859762
vt 0.744087 0.961713
vt 0.744092 0.956329
vt 0.754672 0.962349
vt 0.749447 0.964814
vt 0.749667 0.952813
vt 0.755090 0.955730
vt 0.714286 0.962879
vt 0.724866 0.956858
vt 0.724873 0.962243
vt 0.623545 0.843871
vt 0.628935 0.843871
vt 0.623545 0.900575
vt 0.628935 0.900575
vt 0.719511 0.965343
vt 0.617348 0.843871
vt 0.617348 0.900575
vt 0.611565 0.843871
vt 0.611565 0.900575
vt 0.604923 0.843871
vt 0.604923 0.900575
vt 0.713869 0.956260
vt 0.719292 0.953342
vt 0.598758 0.843871
vt 0.598758 0.900575
vt 0.592174 0.843871
vt 0.592174 0.900575
vt 0.725956 0.939644
vt 0.729966 0.939644
vt 0.725956 0.944500
vt 0.729966 0.944500
vt 0.741064 0.939898
vt 0.745075 0.939898
vt 0.741064 0.944755
vt 0.745075 0.944755
vt 0.719912 0.940870
vt 0.723922 0.940870
vt 0.719912 0.945727
vt 0.723922 0.945727
vt 0.711835 0.948539
vt 0.707825 0.948539
vt 0.711835 0.943682
vt 0.707825 0.943682
vt 0.229305 0.619509
vt 0.287018 0.619509
vt 0.229030 0.812318
vt 0.287018 0.812318
vt 0.151771 0.652273
vt 0.151771 0.827761
vt 0.027509 0.827761
vt 0.027509 0.652273
vn -0.000006 0.000000 1.000000
vn -0.000008 0.000000 1.000000
vn -0.000011 0.000000 1.000000
vn -0.000008 0.000000 1.000000
vn -0.000013 0.000000 1.000000
vn -0.000011 0.000000 1.000000
vn 0.000000 1.000000 0.000000
vn 0.000000 1.000000 0.000000
vn 0.000000 1.000000 0.000000
vn 0.000000 1.000000 0.000000
vn 0.000000 1.000000 0.000000
vn 0.000000 1.000000 0.000000
vn 1.000000 0.000000 0.000000
vn 1.000000 0.000000 0.000000
vn 1.000000 0.000000 0.000000
vn 1.000000 0.000000 0.000000
vn 1.000000 0.000000 0.000000
vn 1.000000 0.000000 0.000000
vn 0.000000 -1.000000 0.000000
vn 0.000000 -1.000000 0.000000
vn 0.000000 -1.000000 0.000000
vn 0.000000 -1.000000 0.000000
vn 0.000000 -1.000000 0.000000
vn 0.000000 -1.000000 0.000000
vn 0.000000 1.000000 -0.000000
vn 0.000000 1.000000 -0.000000
vn 0.000000 1.000000 -0.000000
vn 0.000000 1.000000 -0.000000
vn 0.000000 1.000000 0.000000
vn 0.000000 1.000000 -0.000000
vn 0.000000 0.000000 1.000000
vn 0.000000 0.000000 1.000000
vn 0.000000 0.000000 1.000000
vn 0.000000 0.000000 1.000000
vn 0.000000 0.000000 1.000000
vn 0.000000 0.000000 1.000000
vn 0.000000 1.000000 0.000000
vn 0.000000 1.000000 0.000000
vn 0.000000 1.000000 -0.000000
vn 0.000000 1.000000 0.000000
vn 0.000000 1.000000 0.000000
vn 0.000000 1.000000 -0.000000
vn 1.000000 0.000000 0.000000
vn 1.000000 0.000000 0.000000
vn 1.000000 0.000000 0.000000
vn 1.000000 0.000000 0.000000
vn 1.000000 0.000000 0.000000
vn 1.000000 0.000000 0.000000
vn -1.000000 0.000000 0.000000
vn -1.000000 0.000000 0.000000
vn -1.000000 0.000000 0.000000
vn -1.000000 0.000000 0.000000
vn -1.000000 0.000000 0.000000
vn -1.000000 0.000000 0.000000
vn 0.000000 1.000000 -0.000000
vn 0.000000 1.000000 0.000000
vn 0.000000 1.000000 -0.000000
vn 0.000000 1.000000 0.000000
vn 0.000000 1.000000 0.000000
vn 0.000000 1.000000 -0.000000
vn 1.000000 0.000000 0.000000
vn 1.000000 0.000000 -0.000000
vn 1.000000 0.000000 -0.000000
vn 1.000000 0.000000 -0.000000
vn 1.000000 0.000000 -0.000000
vn 1.000000 0.000000 -0.000000
vn -1.000000 0.000000 0.000000
vn -1.000000 0.000000 0.000000
vn -1.000000 0.000000 0.000000
vn -1.000000 0.000000 0.000000
vn -1.000000 0.000000 0.000000
vn -1.000000 0.000000 0.000000
vn 0.000000 1.000000 0.000000
vn 0.000000 1.000000 0.000000
vn 0.000000 1.000000 0.000000
vn 0.000000 1.000000 0.000000
vn 0.000000 1.000000 0.000000
vn 0.000000 1.000000 0.000000
vn -0.000000 -1.000000 0.000000
vn -0.000000 -1.000000 0.000002
vn -0.000000 -1.000000 0.000000
vn -0.000000 -1.000000 0.000002
vn 0.000000 -1.000000 0.000002
vn -0.000000 -1.000000 0.000000
vn 1.000000 0.000000 0.000003
vn 1.000000 0.000000 0.000000
vn 1.000000 0.000000 0.000003
vn 1.000000 0.000000 0.000000
vn 1.000000 0.000000 0.000000
vn 1.000000 0.000000 0.000003
vn 0.000000 0.000001 -1.000000
vn -0.000000 0.000001 -1.000000
vn -0.000000 0.000001 -1.000000
vn -0.000000 0.000001 -1.000000
vn -0.000000 0.000001 -1.000000
vn -0.000000 0.000001 -1.000000
vn -1.000000 0.000000 0.000000
vn -1.000000 0.000000 0.000000
vn -1.000000 0.000000 0.000000
vn -1.000000 0.000000 0.000000
vn -1.000000 0.000000 0.000000
vn -1.000000 0.000000 0.000000
vn 0.000013 0.000000 1.000000
vn 0.000008 0.000000 1.000000
vn 0.000011 0.000000 1.000000
vn 0.000008 0.000000 1.000000
vn 0.000006 0.000000 1.000000
vn 0.000011 0.000000 1.000000
vn 0.000000 -1.000000 0.000000
vn 0.000000 -1.000000 0.000000
vn 0.000000 -1.000000 0.000000
vn 0.000000 -1.000000 0.000000
vn 0.000000 -1.000000 0.000000
vn 0.000000 -1.000000 0.000000
vn -1.000000 0.000000 0.000000
vn -1.000000 0.000000 0.000000
vn -1.000000 0.000000 0.000000
vn -1.000000 0.000000 0.000000
vn -1.000000 0.000000 0.000000
vn -1.000000 0.000000 0.000000
vn 0.000000 1.000000 0.000000
vn 0.000000 1.000000 0.000000
vn 0.000000 1.000000 0.000000
vn 0.000000 1.000000 0.000000
vn 0.000000 1.000000 0.000000
vn 0.000000 1.000000 0.000000
vn 0.000000 1.000000 0.000000
vn 0.000000 1.000000 0.000000
vn 0.000000 1.000000 0.000000
vn 0.000000 1.000000 0.000000
vn 0.000000 1.000000 0.000000
vn 0.000000 1.000000 0.000000
vn 0.000000 -1.000000 0.000000
vn 0.000000 -1.000000 0.000000
vn 0.000000 -1.000000 0.000000
vn 0.000000 -1.000000 0.000000
vn 0.000000 -1.000000 0.000000
vn 0.000000 -1.000000 0.000000
vn 0.000000 1.000000 0.000000
vn 0.000000 1.000000 0.000000
vn 0.000000 1.000000 0.000000
vn 0.000000 1.000000 0.000000
vn 0.000000 1.000000 0.000000
vn 0.000000 1.000000 0.000000
vn -1.000000 0.000000 0.000000
vn -1.000000 0.000000 0.000000
vn -1.000000 0.000000 0.000000
vn -1.000000 0.000000 0.000000
vn -1.000000 0.000000 0.000000
vn -1.000000 0.000000 0.000000
vn 1.000000 0.000000 0.000000
vn 1.000000 0.000000 0.000000
vn 1.000000 0.000000 0.000000
vn 1.000000 0.000000 0.000000
vn 1.000000 0.000000 0.000000
vn 1.000000 0.000000 0.000000
vn 1.000000 0.000006 -0.000004
vn 1.000000 0.000003 0.000000
vn 1.000000 0.000002 -0.000002
vn 1.000000 0.000017 -0.000004
vn 1.000000 0.000003 0.000000
vn 1.000000 0.000006 -0.000004
vn 1.000000 -0.000001 0.000002
vn 1.000000 0.000003 0.000000
vn 1.000000 -0.000005 0.000009
vn 1.000000 0.000002 -0.000002
vn 1.000000 0.000003 0.000000
vn 1.000000 -0.000001 0.000002
vn -1.000000 -0.000002 -0.000000
vn -1.000000 -0.000006 0.000004
vn -1.000000 -0.000003 0.000002
vn 0.000000 0.549962 -0.835190
vn 0.000000 0.549959 -0.835192
vn 0.000000 0.018276 -0.999833
vn 0.000000 0.549959 -0.835192
vn 0.000000 0.018276 -0.999833
vn 0.000000 0.018276 -0.999833
vn -1.000000 -0.000006 0.000004
vn -1.000000 -0.000002 -0.000000
vn -1.000000 -0.000009 0.000004
vn 0.000000 0.999189 -0.040260
vn 0.000000 0.999189 -0.040258
vn 0.000000 0.549962 -0.835190
vn 0.000000 0.999189 -0.040258
vn 0.000000 0.549959 -0.835192
vn 0.000000 0.549962 -0.835190
vn 0.000000 0.510153 0.860084
vn 0.000000 0.510153 0.860084
vn 0.000000 0.999189 -0.040260
vn 0.000000 0.510153 0.860084
vn 0.000000 0.999189 -0.040258
vn 0.000000 0.999189 -0.040260
vn 0.000000 -0.482966 0.875639
vn 0.000000 -0.482966 0.875639
vn 0.000000 0.510153 0.860084
vn 0.000000 -0.482966 0.875639
vn 0.000000 0.510153 0.860084
vn 0.000000 0.510153 0.860084
vn -1.000000 0.000005 -0.000009
vn -1.000000 -0.000002 -0.000000
vn -1.000000 0.000001 -0.000002
vn 0.000000 -0.997226 -0.074435
vn 0.000000 -0.997226 -0.074437
vn 0.000000 -0.482966 0.875639
vn 0.000000 -0.997226 -0.074437
vn 0.000000 -0.482966 0.875639
vn 0.000000 -0.482966 0.875639
vn 0.000000 -0.834469 -0.551054
vn 0.000000 -0.834469 -0.551055
vn 0.000000 -0.997226 -0.074435
vn 0.000000 -0.834469 -0.551055
vn 0.000000 -0.997226 -0.074437
vn 0.000000 -0.997226 -0.074435
vn -1.000000 0.000001 -0.000002
vn -1.000000 -0.000002 -0.000000
vn -1.000000 -0.000003 0.000002
vn 0.000000 -1.000000 0.000000
vn 0.000000 -1.000000 0.000000
vn 0.000000 -1.000000 0.000000
vn 0.000000 -1.000000 0.000000
vn 0.000000 -1.000000 0.000000
vn 0.000000 -1.000000 0.000000
vn 0.000000 1.000000 0.000000
vn 0.000000 1.000000 0.000000
vn 0.000000 1.000000 0.000000
vn 0.000000 1.000000 0.000000
vn 0.000000 1.000000 0.000000
vn 0.000000 1.000000 0.000000
vn -1.000000 0.000000 0.000000
vn -1.000000 0.000000 0.000000
vn -1.000000 0.000000 0.000000
vn -1.000000 0.000000 0.000000
vn -1.000000 0.000000 0.000000
vn -1.000000 0.000000 0.000000
vn 1.000000 0.000000 0.000000
vn 1.000000 0.000000 0.000000
vn 1.000000 0.000000 0.000000
vn 1.000000 0.000000 0.000000
vn 1.000000 0.000000 0.000000
vn 1.000000 0.000000 0.000000
vn 0.000000 0.000000 1.000000
vn 0.000000 0.000000 1.000000
vn 0.000000 0.000000 1.000000
vn 0.000000 0.000000 1.000000
vn 0.000000 0.000000 1.000000
vn 0.000000 0.000000 1.000000
vn 0.000000 -1.000000 0.000000
vn 0.000000 -1.000000 0.000000
vn 0.000000 -1.000000 0.000000
vn 0.000000 -1.000000 0.000000
s off
g SM_Desk_Cab_06f
f 4/69/1 3/72/2 1/70/3
f 3/72/4 2/71/5 1/70/6
f 1/33/7 2/36/8 6/34/9
f 2/36/10 8/35/11 6/34/12
f 2/1/13 3/4/14 8/2/15
f 3/4/16 7/3/17 8/2/18
f 3/37/19 4/40/20 7/38/21
f 4/40/22 5/39/23 7/38/24
f 14/41/25 13/88/26 9/86/27
f 13/88/28 10/43/29 9/86/30
f 15/73/31 13/76/32 16/74/33
f 13/76/34 14/75/35 16/74/36
f 19/48/37 17/47/38 13/44/39
f 17/47/40 10/87/41 13/44/42
f 17/5/43 18/8/44 10/6/45
f 18/8/46 12/7/47 10/6/48
f 20/9/49 19/12/50 15/10/51
f 19/12/52 13/11/53 15/10/54
f 9/42/55 21/46/56 14/85/57
f 21/46/58 23/45/59 14/85/60
f 23/13/61 24/16/62 14/14/63
f 24/16/64 16/15/65 14/14/66
f 22/17/67 21/20/68 11/18/69
f 21/20/70 9/19/71 11/18/72
f 32/49/73 27/52/74 25/50/75
f 27/52/76 26/51/77 25/50/78
f 29/53/79 28/56/80 31/54/81
f 28/56/82 30/55/83 31/54/84
f 28/21/85 26/24/86 30/22/87
f 26/24/88 27/23/89 30/22/90
f 26/77/91 28/80/92 25/78/93
f 28/80/94 29/79/95 25/78/96
f 31/25/97 32/28/98 29/26/99
f 32/28/100 25/27/101 29/26/102
f 34/81/103 35/84/104 33/82/105
f 35/84/106 36/83/107 33/82/108
f 38/57/109 39/60/110 35/58/111
f 39/60/112 36/59/113 35/58/114
f 37/29/115 38/32/116 34/30/117
f 38/32/118 35/31/119 34/30/120
f 33/61/121 40/64/122 34/62/123
f 40/64/124 37/63/125 34/62/126
f 15/65/127 16/68/128 20/66/129
f 16/68/130 24/67/131 20/66/132
f 41/89/133 43/91/134 42/90/135
f 43/91/136 44/92/137 42/90/138
f 45/93/139 47/95/140 46/94/141
f 47/95/142 48/96/143 46/94/144
f 42/97/145 44/99/146 48/98/147
f 44/99/148 46/100/149 48/98/150
f 47/101/151 45/103/152 41/102/153
f 45/103/154 43/104/155 41/102/156
f 52/105/157 49/107/158 51/106/159
f 53/108/160 49/107/161 52/105/162
f 55/109/163 49/107/164 54/110/165
f 51/106/166 49/107/167 55/109/168
f 50/111/169 57/113/170 56/112/171
f 57/114/172 52/116/173 56/115/174
f 52/116/175 51/117/176 56/115/177
f 57/113/178 50/111/179 58/118/180
f 58/119/181 53/120/182 57/114/183
f 53/120/184 52/116/185 57/114/186
f 50/121/187 49/122/188 58/119/189
f 49/122/190 53/120/191 58/119/192
f 59/123/193 54/124/194 50/121/195
f 54/124/196 49/122/197 50/121/198
f 59/125/199 50/111/200 60/126/201
f 60/127/202 55/128/203 59/123/204
f 55/128/205 54/124/206 59/123/207
f 56/129/208 51/130/209 60/127/210
f 51/130/211 55/128/212 60/127/213
f 60/126/214 50/111/215 56/112/216
f 61/131/217 63/133/218 62/132/219
f 63/133/220 64/134/221 62/132/222
f 65/135/223 67/137/224 66/136/225
f 67/137/226 68/138/227 66/136/228
f 62/139/229 64/141/230 68/140/231
f 64/141/232 66/142/233 68/140/234
f 67/143/235 65/145/236 61/144/237
f 65/145/238 63/146/239 61/144/240
f 31/147/241 30/149/242 32/148/243
f 30/149/244 27/150/245 32/148/246
f 18/151/247 22/154/248 11/153/249 12/152/250
