# This file uses feet as units for non-parametric coordinates.

g default
v 3.169186 7.547947 0.000000
v 60.876530 7.547947 0.000000
v 3.169186 1.040531 0.000000
v 60.876530 1.040531 0.000000
v 59.231396 7.547947 1.645130
v 4.814312 7.547947 1.645130
v 59.231396 2.670872 1.645130
v 4.814312 2.670872 1.645130
v 60.876530 7.547947 81.497055
v 60.876530 1.040531 81.497055
v 59.231396 7.547947 81.497055
v 59.231403 2.670872 81.497055
v 3.169186 7.547947 81.497055
v 3.169186 1.040531 81.497055
v 4.814312 7.547947 81.497055
v 4.814316 2.670872 81.497055
v 38.008511 5.794926 87.175835
v 26.037212 5.794926 87.175835
v 38.008511 4.566944 84.916122
v 38.008503 5.704716 84.936920
v 38.008503 6.337444 86.081970
v 38.008503 4.393871 87.234787
v 38.008511 3.800968 86.076050
v 26.037212 4.566944 84.916122
v 26.037205 5.704716 84.936920
v 26.037205 6.337444 86.081970
v 26.037205 4.393871 87.234787
v 26.037212 3.800968 86.076050
v 0.000000 0.000004 83.966125
v 64.045715 0.000004 83.966125
v 64.045715 9.630993 83.966125
v 0.000000 9.630993 83.966125
v -0.000004 0.000000 81.497040
v 64.045715 0.000004 81.497040
v -0.000004 9.630993 81.497047
v 64.045715 9.630993 81.497047
v 28.782261 4.622372 83.961700
v 27.932545 4.622372 83.961700
v 28.782261 4.622372 84.990822
v 27.932545 4.622372 84.990822
v 28.782261 5.472088 84.990822
v 27.932545 5.472088 84.990822
v 28.782261 5.472088 83.961700
v 27.932545 5.472088 83.961700
v 36.104603 4.622372 83.961700
v 35.254887 4.622372 83.961700
v 36.104603 4.622372 84.990822
v 35.254887 4.622372 84.990822
v 36.104603 5.472088 84.990822
v 35.254887 5.472088 84.990822
v 36.104603 5.472088 83.961700
v 35.254887 5.472088 83.961700
v 60.847385 4.919090 51.014313
v 61.901546 4.919090 51.014320
v 61.901546 2.676647 51.014320
v 60.847385 2.676647 51.014313
v 60.847385 2.676647 2.748652
v 60.847385 4.919090 2.748652
v 61.901546 2.676647 2.748655
v 61.901546 4.919090 2.748655
v 3.190453 4.919090 51.014313
v 2.136314 4.919090 51.014320
v 2.136314 2.676647 51.014320
v 3.190453 2.676647 51.014313
v 2.136314 4.919090 3.068949
v 2.136314 2.676647 3.068949
v 3.190453 2.676647 3.068945
v 3.190453 4.919090 3.068945
vt 0.906713 0.619454
vt 0.906713 0.864800
vt 0.887122 0.864800
vt 0.887122 0.619454
vt 0.471485 0.832569
vt 0.471485 0.592176
vt 0.486168 0.592176
vt 0.486168 0.832569
vt 0.491929 0.343718
vt 0.491929 0.584113
vt 0.477247 0.584113
vt 0.477247 0.343718
vt 0.387788 0.861852
vt 0.387788 0.616505
vt 0.407379 0.616505
vt 0.407379 0.861852
vt 0.976109 0.818343
vt 0.973380 0.556675
vt 0.981062 0.987110
vt 0.981062 0.550162
vt 0.968427 0.311331
vt 0.973380 0.311331
vt 0.976109 0.309775
vt 0.981062 0.309775
vt 0.000491 0.860970
vt 0.000491 0.620576
vt 0.164313 0.620576
vt 0.164313 0.860970
vt 0.212218 0.983208
vt 0.212218 0.819387
vt 0.226900 0.819387
vt 0.226900 0.983208
vt 0.968427 0.551722
vt 0.981062 0.813391
vt 0.976109 0.555115
vt 0.976109 0.982158
vt 0.759195 0.948641
vt 0.759201 0.943262
vt 0.769770 0.949276
vt 0.764551 0.951738
vt 0.764770 0.939750
vt 0.770187 0.942664
vt 0.518538 0.921041
vt 0.529116 0.915021
vt 0.529122 0.920406
vt 0.584262 0.844726
vt 0.589652 0.844726
vt 0.584262 0.901430
vt 0.589652 0.901430
vt 0.523761 0.923506
vt 0.578066 0.844726
vt 0.578066 0.901430
vt 0.572282 0.844726
vt 0.572282 0.901430
vt 0.565640 0.844726
vt 0.565640 0.901430
vt 0.518120 0.914424
vt 0.523542 0.911507
vt 0.559475 0.844726
vt 0.559475 0.901430
vt 0.552891 0.844726
vt 0.552891 0.901430
vt 0.225562 0.813099
vt 0.196568 0.813099
vt 0.225562 0.620290
vt 0.196568 0.620290
vt 0.423000 0.728865
vt 0.451994 0.728865
vt 0.423000 0.921674
vt 0.451994 0.921674
vt 0.524538 0.009813
vt 0.524538 0.038803
vt 0.517105 0.009813
vt 0.517105 0.038803
vt 0.355782 0.620040
vt 0.363215 0.620040
vt 0.355782 0.812848
vt 0.363215 0.812848
vt 0.587915 0.010002
vt 0.587915 0.038992
vt 0.580482 0.010002
vt 0.580482 0.038992
vt 0.461161 0.730257
vt 0.461161 0.923060
vt 0.453728 0.730257
vt 0.453728 0.923060
vt 0.642272 0.981219
vt 0.646284 0.981219
vt 0.642272 0.986077
vt 0.646284 0.986077
vt 0.642272 0.920386
vt 0.646283 0.920386
vt 0.642272 0.925243
vt 0.646283 0.925243
vt 0.642273 0.907270
vt 0.646283 0.907270
vt 0.642273 0.912128
vt 0.646283 0.912128
vt 0.542189 0.914149
vt 0.538185 0.914149
vt 0.542189 0.909299
vt 0.538185 0.909299
vt 0.642273 0.876715
vt 0.646282 0.876715
vt 0.642273 0.881572
vt 0.646282 0.881572
vt 0.642272 0.891311
vt 0.646283 0.891311
vt 0.642272 0.896168
vt 0.646283 0.896168
vt 0.731999 0.940102
vt 0.736010 0.940102
vt 0.731999 0.944959
vt 0.736010 0.944959
vt 0.561611 0.946034
vt 0.557601 0.946034
vt 0.561611 0.941177
vt 0.557601 0.941177
vt 0.529880 0.005444
vt 0.529880 0.012192
vt 0.526708 0.005444
vt 0.526708 0.012192
vt 0.370478 0.816881
vt 0.370478 0.962177
vt 0.367305 0.816881
vt 0.367305 0.962177
vt 0.245383 0.819918
vt 0.245383 0.965216
vt 0.238632 0.819918
vt 0.238632 0.965216
vt 0.250155 0.963939
vt 0.250155 0.818654
vt 0.253328 0.963939
vt 0.253328 0.818654
vt 0.441528 0.010447
vt 0.438364 0.010447
vt 0.441528 0.003717
vt 0.438364 0.003717
vt 0.261010 0.820105
vt 0.261010 0.964454
vt 0.257837 0.820105
vt 0.257837 0.964454
vt 0.279952 0.819884
vt 0.279952 0.964219
vt 0.273201 0.819884
vt 0.273201 0.964219
vt 0.265519 0.820972
vt 0.268692 0.820972
vt 0.265519 0.965309
vt 0.268692 0.965309
vt 0.151771 0.652273
vt 0.151771 0.827761
vt 0.027509 0.827761
vt 0.027509 0.652273
vn 0.000000 1.000000 -0.000000
vn 0.000000 1.000000 -0.000000
vn 0.000000 1.000000 -0.000000
vn 0.000000 1.000000 -0.000000
vn 0.000000 1.000000 0.000000
vn 0.000000 1.000000 -0.000000
vn 0.000000 0.000000 1.000000
vn 0.000000 0.000000 1.000000
vn 0.000000 0.000000 1.000000
vn 0.000000 0.000000 1.000000
vn 0.000000 0.000000 1.000000
vn 0.000000 0.000000 1.000000
vn 0.000000 1.000000 0.000000
vn 0.000000 1.000000 0.000000
vn 0.000000 1.000000 -0.000000
vn 0.000000 1.000000 0.000000
vn 0.000000 1.000000 0.000000
vn 0.000000 1.000000 -0.000000
vn 1.000000 0.000000 0.000000
vn 1.000000 0.000000 0.000000
vn 1.000000 0.000000 0.000000
vn 1.000000 0.000000 0.000000
vn 1.000000 0.000000 0.000000
vn 1.000000 0.000000 0.000000
vn -1.000000 -0.000003 0.000000
vn -1.000000 -0.000002 0.000000
vn -1.000000 -0.000000 0.000000
vn -1.000000 -0.000002 0.000000
vn -1.000000 0.000000 0.000000
vn -1.000000 -0.000000 0.000000
vn 0.000000 1.000000 -0.000000
vn 0.000000 1.000000 0.000000
vn 0.000000 1.000000 -0.000000
vn 0.000000 1.000000 0.000000
vn 0.000000 1.000000 0.000000
vn 0.000000 1.000000 -0.000000
vn 1.000000 0.000001 0.000000
vn 1.000000 0.000001 -0.000000
vn 1.000000 0.000000 -0.000000
vn 1.000000 0.000001 -0.000000
vn 1.000000 0.000000 -0.000000
vn 1.000000 0.000000 -0.000000
vn -1.000000 0.000000 0.000000
vn -1.000000 0.000000 0.000000
vn -1.000000 0.000000 0.000000
vn -1.000000 0.000000 0.000000
vn -1.000000 0.000000 0.000000
vn -1.000000 0.000000 0.000000
vn 0.000000 1.000000 0.000000
vn 0.000000 1.000000 -0.000000
vn 0.000000 1.000000 -0.000000
vn 0.000000 1.000000 -0.000000
vn 0.000000 1.000000 -0.000000
vn 0.000000 1.000000 -0.000000
vn 1.000000 0.000010 -0.000004
vn 1.000000 0.000003 0.000000
vn 1.000000 0.000005 -0.000002
vn 1.000000 0.000006 -0.000004
vn 1.000000 0.000003 0.000000
vn 1.000000 0.000010 -0.000004
vn 1.000000 -0.000001 0.000002
vn 1.000000 0.000003 0.000000
vn 1.000000 -0.000005 0.000009
vn 1.000000 0.000005 -0.000002
vn 1.000000 0.000003 0.000000
vn 1.000000 -0.000001 0.000002
vn -1.000000 -0.000002 -0.000000
vn -1.000000 -0.000006 0.000004
vn -1.000000 -0.000003 0.000002
vn 0.000000 0.549961 -0.835190
vn 0.000000 0.549959 -0.835192
vn 0.000000 0.018276 -0.999833
vn 0.000000 0.549959 -0.835192
vn 0.000000 0.018276 -0.999833
vn 0.000000 0.018276 -0.999833
vn -1.000000 -0.000006 0.000004
vn -1.000000 -0.000002 -0.000000
vn -1.000000 -0.000006 0.000004
vn 0.000000 0.999189 -0.040260
vn 0.000000 0.999189 -0.040258
vn 0.000000 0.549961 -0.835190
vn 0.000000 0.999189 -0.040258
vn 0.000000 0.549959 -0.835192
vn 0.000000 0.549961 -0.835190
vn 0.000000 0.510153 0.860084
vn 0.000000 0.510153 0.860084
vn 0.000000 0.999189 -0.040260
vn 0.000000 0.510153 0.860084
vn 0.000000 0.999189 -0.040258
vn 0.000000 0.999189 -0.040260
vn 0.000000 -0.482966 0.875639
vn 0.000000 -0.482966 0.875639
vn 0.000000 0.510153 0.860084
vn 0.000000 -0.482966 0.875639
vn 0.000000 0.510153 0.860084
vn 0.000000 0.510153 0.860084
vn -1.000000 0.000005 -0.000009
vn -1.000000 -0.000002 -0.000000
vn -1.000000 -0.000000 -0.000002
vn 0.000000 -0.997226 -0.074435
vn 0.000000 -0.997226 -0.074437
vn 0.000000 -0.482966 0.875639
vn 0.000000 -0.997226 -0.074437
vn 0.000000 -0.482966 0.875639
vn 0.000000 -0.482966 0.875639
vn 0.000000 -0.834469 -0.551055
vn 0.000000 -0.834469 -0.551054
vn 0.000000 -0.997226 -0.074435
vn 0.000000 -0.834469 -0.551054
vn 0.000000 -0.997226 -0.074437
vn 0.000000 -0.997226 -0.074435
vn -1.000000 -0.000000 -0.000002
vn -1.000000 -0.000002 -0.000000
vn -1.000000 -0.000003 0.000002
vn 0.000000 0.000000 1.000000
vn 0.000000 0.000000 1.000000
vn 0.000000 0.000000 1.000000
vn 0.000000 0.000000 1.000000
vn 0.000000 0.000000 1.000000
vn 0.000000 0.000000 1.000000
vn 0.000000 0.000001 -1.000000
vn 0.000000 0.000001 -1.000000
vn 0.000000 0.000001 -1.000000
vn 0.000000 0.000001 -1.000000
vn 0.000000 0.000001 -1.000000
vn 0.000000 0.000001 -1.000000
vn -1.000000 -0.000000 0.000002
vn -1.000000 -0.000000 0.000002
vn -1.000000 -0.000000 0.000002
vn -1.000000 -0.000000 0.000002
vn -1.000000 0.000000 0.000002
vn -1.000000 -0.000000 0.000002
vn 0.000000 -1.000000 0.000002
vn 0.000000 -1.000000 0.000000
vn 0.000000 -1.000000 0.000002
vn 0.000000 -1.000000 0.000000
vn 0.000000 -1.000000 0.000000
vn 0.000000 -1.000000 0.000002
vn 1.000000 0.000000 0.000000
vn 1.000000 0.000000 0.000000
vn 1.000000 0.000000 0.000000
vn 1.000000 0.000000 0.000000
vn 1.000000 0.000000 0.000000
vn 1.000000 0.000000 0.000000
vn 0.000000 1.000000 -0.000001
vn 0.000000 1.000000 -0.000001
vn 0.000000 1.000000 -0.000000
vn 0.000000 1.000000 -0.000001
vn 0.000000 1.000000 0.000000
vn 0.000000 1.000000 -0.000000
vn 0.000000 -1.000000 0.000000
vn 0.000000 -1.000000 0.000000
vn 0.000000 -1.000000 0.000000
vn 0.000000 -1.000000 0.000000
vn 0.000000 -1.000000 0.000000
vn 0.000000 -1.000000 0.000000
vn 0.000000 1.000000 0.000000
vn 0.000000 1.000000 0.000000
vn 0.000000 1.000000 0.000000
vn 0.000000 1.000000 0.000000
vn 0.000000 1.000000 0.000000
vn 0.000000 1.000000 0.000000
vn -1.000000 0.000000 0.000000
vn -1.000000 0.000000 0.000000
vn -1.000000 0.000000 0.000000
vn -1.000000 0.000000 0.000000
vn -1.000000 0.000000 0.000000
vn -1.000000 0.000000 0.000000
vn 1.000000 0.000000 0.000000
vn 1.000000 0.000000 0.000000
vn 1.000000 0.000000 0.000000
vn 1.000000 0.000000 0.000000
vn 1.000000 0.000000 0.000000
vn 1.000000 0.000000 0.000000
vn 0.000000 -1.000000 0.000000
vn 0.000000 -1.000000 0.000000
vn 0.000000 -1.000000 0.000000
vn 0.000000 -1.000000 0.000000
vn 0.000000 -1.000000 0.000000
vn 0.000000 -1.000000 0.000000
vn 0.000000 1.000000 0.000000
vn 0.000000 1.000000 0.000000
vn 0.000000 1.000000 0.000000
vn 0.000000 1.000000 0.000000
vn 0.000000 1.000000 0.000000
vn 0.000000 1.000000 0.000000
vn -1.000000 0.000000 0.000000
vn -1.000000 0.000000 0.000000
vn -1.000000 0.000000 0.000000
vn -1.000000 0.000000 0.000000
vn -1.000000 0.000000 0.000000
vn -1.000000 0.000000 0.000000
vn 1.000000 0.000000 0.000000
vn 1.000000 0.000000 0.000000
vn 1.000000 0.000000 0.000000
vn 1.000000 0.000000 0.000000
vn 1.000000 0.000000 0.000000
vn 1.000000 0.000000 0.000000
vn -0.000006 0.000000 1.000000
vn -0.000008 0.000000 1.000000
vn -0.000011 0.000000 1.000000
vn -0.000008 0.000000 1.000000
vn -0.000013 0.000000 1.000000
vn -0.000011 0.000000 1.000000
vn 0.000000 1.000000 0.000000
vn 0.000000 1.000000 0.000000
vn 0.000000 1.000000 0.000000
vn 0.000000 1.000000 0.000000
vn 0.000000 1.000000 0.000000
vn 0.000000 1.000000 0.000000
vn 1.000000 0.000000 0.000000
vn 1.000000 0.000000 0.000000
vn 1.000000 0.000000 0.000000
vn 1.000000 0.000000 0.000000
vn 1.000000 0.000000 0.000000
vn 1.000000 0.000000 0.000000
vn 0.000000 -1.000000 0.000000
vn 0.000000 -1.000000 0.000000
vn 0.000000 -1.000000 0.000000
vn 0.000000 -1.000000 0.000000
vn 0.000000 -1.000000 0.000000
vn 0.000000 -1.000000 0.000000
vn 0.000013 0.000000 1.000000
vn 0.000008 0.000000 1.000000
vn 0.000011 0.000000 1.000000
vn 0.000008 0.000000 1.000000
vn 0.000006 0.000000 1.000000
vn 0.000011 0.000000 1.000000
vn 0.000000 -1.000000 0.000000
vn 0.000000 -1.000000 0.000000
vn 0.000000 -1.000000 0.000000
vn 0.000000 -1.000000 0.000000
vn 0.000000 -1.000000 0.000000
vn 0.000000 -1.000000 0.000000
vn -1.000000 0.000000 0.000000
vn -1.000000 0.000000 0.000000
vn -1.000000 0.000000 0.000000
vn -1.000000 0.000000 0.000000
vn -1.000000 0.000000 0.000000
vn -1.000000 0.000000 0.000000
vn 0.000000 1.000000 0.000000
vn 0.000000 1.000000 0.000000
vn 0.000000 1.000000 0.000000
vn 0.000000 1.000000 0.000000
vn 0.000000 1.000000 0.000000
vn 0.000000 1.000000 0.000000
vn 0.000000 -1.000000 0.000000
vn 0.000000 -1.000000 0.000000
vn 0.000000 -1.000000 0.000000
vn 0.000000 -1.000000 0.000000
s off
g SM_Desk_Cab_06e
f 6/17/1 5/36/2 1/34/3
f 5/36/4 2/19/5 1/34/6
f 7/29/7 5/32/8 8/30/9
f 5/32/10 6/31/11 8/30/12
f 11/24/13 9/23/14 5/20/15
f 9/23/16 2/35/17 5/20/18
f 9/1/19 10/4/20 2/2/21
f 10/4/22 4/3/23 2/2/24
f 12/5/25 11/8/26 7/6/27
f 11/8/28 5/7/29 7/6/30
f 1/18/31 13/22/32 6/33/33
f 13/22/34 15/21/35 6/33/36
f 15/9/37 16/12/38 6/10/39
f 16/12/40 8/11/41 6/10/42
f 14/13/43 13/16/44 3/14/45
f 13/16/46 1/15/47 3/14/48
f 7/25/49 8/28/50 12/26/51
f 8/28/52 16/27/53 12/26/54
f 20/37/55 17/39/56 19/38/57
f 21/40/58 17/39/59 20/37/60
f 23/41/61 17/39/62 22/42/63
f 19/38/64 17/39/65 23/41/66
f 18/43/67 25/45/68 24/44/69
f 25/46/70 20/48/71 24/47/72
f 20/48/73 19/49/74 24/47/75
f 25/45/76 18/43/77 26/50/78
f 26/51/79 21/52/80 25/46/81
f 21/52/82 20/48/83 25/46/84
f 18/53/85 17/54/86 26/51/87
f 17/54/88 21/52/89 26/51/90
f 27/55/91 22/56/92 18/53/93
f 22/56/94 17/54/95 18/53/96
f 27/57/97 18/43/98 28/58/99
f 28/59/100 23/60/101 27/55/102
f 23/60/103 22/56/104 27/55/105
f 24/61/106 19/62/107 28/59/108
f 19/62/109 23/60/110 28/59/111
f 28/58/112 18/43/113 24/44/114
f 31/63/115 32/65/116 30/64/117
f 32/65/118 29/66/119 30/64/120
f 35/67/121 36/69/122 33/68/123
f 36/69/124 34/70/125 33/68/126
f 33/71/127 29/73/128 35/72/129
f 29/73/130 32/74/131 35/72/132
f 33/75/133 34/77/134 29/76/135
f 34/77/136 30/78/137 29/76/138
f 30/79/139 34/81/140 31/80/141
f 34/81/142 36/82/143 31/80/144
f 35/83/145 32/85/146 36/84/147
f 32/85/148 31/86/149 36/84/150
f 37/87/151 39/89/152 38/88/153
f 39/89/154 40/90/155 38/88/156
f 41/91/157 43/93/158 42/92/159
f 43/93/160 44/94/161 42/92/162
f 38/95/163 40/97/164 44/96/165
f 40/97/166 42/98/167 44/96/168
f 43/99/169 41/101/170 37/100/171
f 41/101/172 39/102/173 37/100/174
f 45/103/175 47/105/176 46/104/177
f 47/105/178 48/106/179 46/104/180
f 49/107/181 51/109/182 50/108/183
f 51/109/184 52/110/185 50/108/186
f 46/111/187 48/113/188 52/112/189
f 48/113/190 50/114/191 52/112/192
f 51/115/193 49/117/194 45/116/195
f 49/117/196 47/118/197 45/116/198
f 56/119/199 55/121/200 53/120/201
f 55/121/202 54/122/203 53/120/204
f 53/123/205 54/125/206 58/124/207
f 54/125/208 60/126/209 58/124/210
f 54/127/211 55/129/212 60/128/213
f 55/129/214 59/130/215 60/128/216
f 55/131/217 56/133/218 59/132/219
f 56/133/220 57/134/221 59/132/222
f 62/135/223 63/137/224 61/136/225
f 63/137/226 64/138/227 61/136/228
f 66/139/229 67/141/230 63/140/231
f 67/141/232 64/142/233 63/140/234
f 65/143/235 66/145/236 62/144/237
f 66/145/238 63/146/239 62/144/240
f 61/147/241 68/149/242 62/148/243
f 68/149/244 65/150/245 62/148/246
f 10/151/247 14/154/248 3/153/249 4/152/250
