# This file uses feet as units for non-parametric coordinates.

g default
v 91.396561 12.236053 51.014313
v 90.342392 12.236053 51.014320
v 90.342400 9.625114 51.014320
v 91.396561 9.625107 51.014313
v 91.396561 12.236053 2.748653
v 90.342407 9.625122 2.748652
v 90.342400 12.236061 2.748653
v 2.265854 12.338409 51.014313
v 1.211693 12.338409 51.014320
v 1.211693 9.727463 51.014320
v 2.265850 9.727470 51.014313
v 2.265850 12.338417 2.748652
v 1.211693 9.727463 2.748655
v 1.211693 12.338409 2.748655
v 90.428329 10.290878 0.000000
v 2.214081 10.290878 0.000000
v 90.428329 1.211517 0.000000
v 2.214081 1.211517 0.000000
v 3.859215 10.290878 1.645130
v 88.783203 10.290878 1.645130
v 3.859215 3.109779 1.645130
v 88.783203 3.109779 1.645130
v 2.214081 10.290878 81.497055
v 2.214081 1.211517 81.497055
v 3.859215 10.290878 81.497055
v 3.859207 3.109779 81.497055
v 90.428329 10.290878 81.497055
v 90.428329 1.211517 81.497055
v 88.783203 10.290878 81.497055
v 88.783203 3.109779 81.497055
v 91.396561 9.625107 2.748657
v 2.265846 9.727478 2.748653
v -0.000008 12.668610 81.564796
v -0.000004 0.000000 83.966125
v 92.664459 12.668594 81.564789
v 92.664459 12.668602 83.966125
v 92.664459 0.000000 81.564774
v 0.000000 0.000000 81.564774
v 92.664459 0.000000 83.966125
v -0.000004 12.668602 83.966125
v 27.032017 5.905441 83.939178
v 27.881733 5.905441 83.939178
v 27.032017 5.905441 84.968292
v 27.881733 5.905441 84.968292
v 27.032017 6.755157 84.968292
v 27.881733 6.755157 84.968292
v 27.032017 6.755157 83.939178
v 27.881733 6.755157 83.939178
v 17.805767 7.077896 87.175835
v 29.777065 7.077896 87.175835
v 17.805767 5.849915 84.916122
v 17.805775 6.987686 84.936920
v 17.805775 7.620422 86.081970
v 17.805775 5.676849 87.234787
v 17.805767 5.083939 86.076050
v 29.777065 5.849915 84.916122
v 29.777073 6.987686 84.936920
v 29.777073 7.620422 86.081970
v 29.777073 5.676849 87.234787
v 29.777065 5.083939 86.076050
v 19.709675 5.905441 83.939178
v 20.559391 5.905441 83.939178
v 19.709675 5.905441 84.968292
v 20.559391 5.905441 84.968292
v 19.709675 6.755157 84.968292
v 20.559391 6.755157 84.968292
v 19.709675 6.755157 83.939178
v 20.559391 6.755157 83.939178
v 72.133751 5.905449 83.939178
v 72.983467 5.905449 83.939178
v 72.133751 5.905449 84.968292
v 72.983467 5.905449 84.968292
v 72.133751 6.755165 84.968292
v 72.983467 6.755165 84.968292
v 72.133751 6.755165 83.939178
v 72.983467 6.755165 83.939178
v 62.907501 7.077904 87.175835
v 74.878799 7.077904 87.175835
v 62.907501 5.849922 84.916122
v 62.907509 6.987694 84.936920
v 62.907509 7.620422 86.081970
v 62.907509 5.676849 87.234787
v 62.907501 5.083946 86.076050
v 74.878799 5.849922 84.916122
v 74.878807 6.987694 84.936920
v 74.878807 7.620422 86.081970
v 74.878807 5.676849 87.234787
v 74.878799 5.083946 86.076050
v 64.811409 5.905449 83.939178
v 65.661125 5.905449 83.939178
v 64.811409 5.905449 84.968292
v 65.661125 5.905449 84.968292
v 64.811409 6.755165 84.968292
v 65.661125 6.755165 84.968292
v 64.811409 6.755165 83.939178
v 65.661125 6.755165 83.939178
vt 0.245383 0.819918
vt 0.245383 0.965216
vt 0.238632 0.965216
vt 0.238632 0.819918
vt 0.370478 0.816881
vt 0.370478 0.962177
vt 0.367306 0.962177
vt 0.367305 0.816881
vt 0.529880 0.005444
vt 0.529880 0.012192
vt 0.526708 0.012192
vt 0.526708 0.005444
vt 0.529880 0.005444
vt 0.529880 0.012192
vt 0.526708 0.005444
vt 0.526708 0.012192
vt 0.370478 0.816881
vt 0.370478 0.962177
vt 0.367305 0.816881
vt 0.367305 0.962177
vt 0.245937 0.819918
vt 0.245937 0.965216
vt 0.238078 0.819918
vt 0.238078 0.965216
vt 0.976964 0.818343
vt 0.980206 0.813391
vt 0.976964 0.982158
vt 0.980206 0.987110
vt 0.212633 0.983208
vt 0.212633 0.819387
vt 0.226485 0.983208
vt 0.226485 0.819387
vt 0.981062 0.309775
vt 0.981062 0.550162
vt 0.976109 0.309775
vt 0.976109 0.555115
vt 0.915441 0.629729
vt 0.915441 0.849123
vt 0.890999 0.629729
vt 0.890999 0.849123
vt 0.468017 0.832569
vt 0.468017 0.592176
vt 0.489636 0.832569
vt 0.489636 0.592176
vt 0.973380 0.556675
vt 0.968427 0.551722
vt 0.973380 0.311331
vt 0.968427 0.311331
vt 0.495397 0.343718
vt 0.495397 0.584113
vt 0.473779 0.343718
vt 0.473779 0.584113
vt 0.393326 0.841596
vt 0.393326 0.635860
vt 0.416246 0.841596
vt 0.416246 0.635860
vt 0.002579 0.815829
vt 0.002579 0.665717
vt 0.162225 0.815829
vt 0.162225 0.665717
vt 0.239443 0.852980
vt 0.244491 0.852980
vt 0.244491 0.946288
vt 0.239443 0.946288
vt 0.239246 0.848331
vt 0.244817 0.848331
vt 0.244817 0.951309
vt 0.239246 0.951309
vt 0.977758 0.303708
vt 0.939619 0.303708
vt 0.977758 0.024743
vt 0.939619 0.024743
vt 0.949222 0.311007
vt 0.956451 0.311007
vt 0.949222 0.589968
vt 0.956451 0.589968
vt 0.423000 0.444058
vt 0.461139 0.444058
vt 0.423000 0.723023
vt 0.461139 0.723023
vt 0.966054 0.310063
vt 0.966054 0.589023
vt 0.958824 0.310063
vt 0.958824 0.589023
vt 0.428762 0.022693
vt 0.435990 0.022693
vt 0.428762 0.060827
vt 0.435990 0.060827
vt 0.570880 0.028724
vt 0.578108 0.028724
vt 0.570880 0.066859
vt 0.578108 0.066858
vt 0.642272 0.967769
vt 0.646283 0.967769
vt 0.642272 0.972627
vt 0.646283 0.972627
vt 0.518544 0.943726
vt 0.522554 0.943726
vt 0.518544 0.948583
vt 0.522554 0.948583
vt 0.642273 0.950424
vt 0.646282 0.950424
vt 0.642273 0.955282
vt 0.646282 0.955282
vt 0.646283 0.864619
vt 0.642273 0.864619
vt 0.646283 0.859762
vt 0.642273 0.859762
vt 0.744087 0.961713
vt 0.744092 0.956329
vt 0.754672 0.962349
vt 0.749447 0.964814
vt 0.749667 0.952813
vt 0.755090 0.955730
vt 0.714286 0.962879
vt 0.724866 0.956858
vt 0.724873 0.962243
vt 0.623545 0.843871
vt 0.628935 0.843871
vt 0.623545 0.900575
vt 0.628935 0.900575
vt 0.719511 0.965343
vt 0.617348 0.843871
vt 0.617348 0.900575
vt 0.611565 0.843871
vt 0.611565 0.900575
vt 0.604923 0.843871
vt 0.604923 0.900575
vt 0.713869 0.956260
vt 0.719292 0.953342
vt 0.598758 0.843871
vt 0.598758 0.900575
vt 0.592174 0.843871
vt 0.592174 0.900575
vt 0.725956 0.939644
vt 0.729966 0.939644
vt 0.725956 0.944500
vt 0.729966 0.944500
vt 0.741064 0.939898
vt 0.745075 0.939898
vt 0.741064 0.944755
vt 0.745075 0.944755
vt 0.719912 0.940870
vt 0.723922 0.940870
vt 0.719912 0.945727
vt 0.723922 0.945727
vt 0.711835 0.948539
vt 0.707825 0.948539
vt 0.711835 0.943682
vt 0.707825 0.943682
vt 0.642272 0.981219
vt 0.646284 0.981219
vt 0.642272 0.986077
vt 0.646284 0.986077
vt 0.642272 0.920386
vt 0.646283 0.920386
vt 0.642272 0.925243
vt 0.646283 0.925243
vt 0.642273 0.907270
vt 0.646283 0.907270
vt 0.642273 0.912128
vt 0.646283 0.912128
vt 0.542189 0.914149
vt 0.538185 0.914149
vt 0.542189 0.909299
vt 0.538185 0.909299
vt 0.538185 0.931924
vt 0.538190 0.926540
vt 0.548770 0.932560
vt 0.543546 0.935025
vt 0.543766 0.923024
vt 0.549188 0.925942
vt 0.729396 0.962798
vt 0.739976 0.956777
vt 0.739981 0.962162
vt 0.544980 0.844814
vt 0.550369 0.844814
vt 0.544980 0.901519
vt 0.550369 0.901519
vt 0.734620 0.965263
vt 0.538783 0.844814
vt 0.538783 0.901519
vt 0.532999 0.844814
vt 0.532999 0.901519
vt 0.526357 0.844814
vt 0.526357 0.901519
vt 0.728978 0.956179
vt 0.734400 0.953262
vt 0.520192 0.844814
vt 0.520192 0.901519
vt 0.513608 0.844814
vt 0.513608 0.901519
vt 0.642273 0.876715
vt 0.646282 0.876715
vt 0.642273 0.881572
vt 0.646282 0.881572
vt 0.642272 0.891311
vt 0.646283 0.891311
vt 0.642272 0.896168
vt 0.646283 0.896168
vt 0.731999 0.940102
vt 0.736010 0.940102
vt 0.731999 0.944959
vt 0.736010 0.944959
vt 0.561611 0.946034
vt 0.557601 0.946034
vt 0.561611 0.941177
vt 0.557601 0.941177
vt 0.006258 0.817413
vt 0.006258 0.676014
vt 0.159311 0.676014
vt 0.159311 0.817413
vt 0.908378 0.630074
vt 0.908378 0.854268
vt 0.885303 0.854268
vt 0.885303 0.630074
vt 0.243862 0.877883
vt 0.243862 0.884929
vt 0.241017 0.884929
vt 0.241017 0.877883
vt 0.240674 0.884847
vt 0.240674 0.877800
vt 0.243519 0.877800
vt 0.243519 0.884847
vt 0.243953 0.827638
vt 0.243953 0.948896
vt 0.241305 0.827638
vt 0.241305 0.948896
vt 0.241033 0.948299
vt 0.241033 0.827041
vt 0.243681 0.948299
vt 0.243681 0.827041
vn 0.000006 0.000000 1.000000
vn 0.000010 0.000000 1.000000
vn 0.000007 0.000000 1.000000
vn 0.000007 0.000000 1.000000
vn 0.000010 0.000000 1.000000
vn 0.000011 0.000000 1.000000
vn 0.000000 1.000000 0.000000
vn 0.000007 1.000000 0.000000
vn 0.000000 1.000000 0.000000
vn 0.000000 1.000000 0.000000
vn 0.000007 1.000000 0.000000
vn 0.000007 1.000000 0.000000
vn -1.000000 0.000000 -0.000000
vn -1.000000 -0.000015 -0.000000
vn -1.000000 -0.000001 -0.000000
vn -1.000000 -0.000001 -0.000000
vn -1.000000 -0.000015 -0.000000
vn -1.000000 -0.000015 -0.000000
vn 0.000005 -0.000000 1.000000
vn 0.000001 -0.000000 1.000000
vn 0.000004 -0.000000 1.000000
vn 0.000004 -0.000000 1.000000
vn 0.000001 -0.000000 1.000000
vn 0.000000 0.000000 1.000000
vn 0.000000 1.000000 0.000000
vn -0.000007 1.000000 0.000000
vn -0.000000 1.000000 0.000000
vn -0.000000 1.000000 0.000000
vn -0.000007 1.000000 0.000000
vn -0.000007 1.000000 0.000000
vn -1.000000 0.000000 0.000000
vn -1.000000 0.000000 0.000000
vn -1.000000 0.000000 0.000000
vn -1.000000 0.000000 0.000000
vn -1.000000 0.000000 0.000000
vn -1.000000 0.000000 0.000000
vn 0.000000 1.000000 0.000000
vn 0.000000 1.000000 -0.000000
vn 0.000000 1.000000 -0.000000
vn 0.000000 1.000000 -0.000000
vn 0.000000 1.000000 -0.000000
vn 0.000000 1.000000 -0.000000
vn 0.000000 0.000000 1.000000
vn 0.000000 0.000000 1.000000
vn 0.000000 0.000000 1.000000
vn 0.000000 0.000000 1.000000
vn 0.000000 0.000000 1.000000
vn 0.000000 0.000000 1.000000
vn 0.000000 1.000000 0.000000
vn 0.000000 1.000000 0.000000
vn 0.000000 1.000000 0.000000
vn 0.000000 1.000000 0.000000
vn 0.000000 1.000000 0.000000
vn 0.000000 1.000000 0.000000
vn -1.000000 0.000000 0.000000
vn -1.000000 0.000000 0.000000
vn -1.000000 0.000000 0.000000
vn -1.000000 0.000000 0.000000
vn -1.000000 0.000000 0.000000
vn -1.000000 0.000000 0.000000
vn 1.000000 -0.000001 0.000000
vn 1.000000 -0.000000 0.000000
vn 1.000000 -0.000001 0.000000
vn 1.000000 -0.000001 0.000000
vn 1.000000 -0.000000 0.000000
vn 1.000000 0.000000 0.000000
vn 0.000000 1.000000 0.000000
vn 0.000000 1.000000 0.000000
vn 0.000000 1.000000 0.000000
vn 0.000000 1.000000 0.000000
vn 0.000000 1.000000 0.000000
vn 0.000000 1.000000 0.000000
vn -1.000000 0.000000 0.000000
vn -1.000000 0.000000 0.000000
vn -1.000000 0.000000 0.000000
vn -1.000000 0.000000 0.000000
vn -1.000000 0.000000 0.000000
vn -1.000000 0.000000 0.000000
vn 1.000000 0.000000 0.000000
vn 1.000000 0.000000 0.000000
vn 1.000000 0.000000 0.000000
vn 1.000000 0.000000 0.000000
vn 1.000000 0.000000 0.000000
vn 1.000000 0.000000 0.000000
vn 0.000000 1.000000 0.000000
vn 0.000000 1.000000 0.000000
vn 0.000000 1.000000 0.000000
vn 0.000000 1.000000 0.000000
vn 0.000000 1.000000 0.000000
vn 0.000000 1.000000 0.000000
vn 1.000000 0.000000 0.000000
vn 1.000000 -0.000000 0.000000
vn 1.000000 -0.000002 0.000000
vn 1.000000 -0.000002 0.000000
vn 1.000000 -0.000000 0.000000
vn 1.000000 -0.000002 0.000000
vn 1.000000 -0.000001 -0.000000
vn 1.000000 -0.000001 -0.000000
vn 1.000000 -0.000002 -0.000000
vn 1.000000 -0.000002 -0.000000
vn 1.000000 -0.000001 -0.000000
vn 1.000000 -0.000002 -0.000000
vn 0.000000 0.000002 -1.000000
vn -0.000000 0.000002 -1.000000
vn -0.000000 0.000001 -1.000000
vn -0.000000 0.000001 -1.000000
vn -0.000000 0.000002 -1.000000
vn -0.000000 0.000001 -1.000000
vn 0.000000 1.000000 -0.000003
vn 0.000000 1.000000 -0.000003
vn 0.000000 1.000000 0.000003
vn 0.000000 1.000000 0.000003
vn 0.000000 1.000000 -0.000003
vn 0.000000 1.000000 0.000003
vn 0.000000 0.000000 1.000000
vn 0.000000 0.000000 1.000000
vn 0.000000 0.000000 1.000000
vn 0.000000 0.000000 1.000000
vn 0.000000 0.000000 1.000000
vn 0.000000 0.000000 1.000000
vn 0.000000 -1.000000 0.000000
vn 0.000000 -1.000000 0.000000
vn 0.000000 -1.000000 0.000000
vn 0.000000 -1.000000 0.000000
vn 0.000000 -1.000000 0.000000
vn 0.000000 -1.000000 0.000000
vn -1.000000 -0.000001 -0.000002
vn -1.000000 -0.000001 -0.000001
vn -1.000000 -0.000000 0.000001
vn -1.000000 -0.000000 0.000001
vn -1.000000 -0.000001 -0.000001
vn -1.000000 0.000000 0.000002
vn 1.000000 0.000000 0.000000
vn 1.000000 -0.000000 0.000000
vn 1.000000 -0.000001 0.000000
vn 1.000000 -0.000001 0.000000
vn 1.000000 -0.000000 0.000000
vn 1.000000 -0.000001 0.000000
vn 0.000000 -1.000000 0.000000
vn 0.000000 -1.000000 0.000000
vn 0.000000 -1.000000 0.000000
vn 0.000000 -1.000000 0.000000
vn 0.000000 -1.000000 0.000000
vn 0.000000 -1.000000 0.000000
vn 0.000000 1.000000 0.000000
vn 0.000000 1.000000 0.000000
vn 0.000000 1.000000 0.000000
vn 0.000000 1.000000 0.000000
vn 0.000000 1.000000 0.000000
vn 0.000000 1.000000 0.000000
vn 1.000000 0.000000 0.000000
vn 1.000000 0.000000 0.000000
vn 1.000000 0.000000 0.000000
vn 1.000000 0.000000 0.000000
vn 1.000000 0.000000 0.000000
vn 1.000000 0.000000 0.000000
vn -1.000000 0.000000 0.000000
vn -1.000000 0.000000 0.000000
vn -1.000000 0.000000 0.000000
vn -1.000000 0.000000 0.000000
vn -1.000000 0.000000 0.000000
vn -1.000000 0.000000 0.000000
vn -1.000000 0.000007 -0.000004
vn -1.000000 0.000003 -0.000002
vn -1.000000 0.000003 0.000000
vn -1.000000 0.000012 -0.000004
vn -1.000000 0.000007 -0.000004
vn -1.000000 0.000003 0.000000
vn -1.000000 -0.000000 0.000002
vn -1.000000 -0.000002 0.000009
vn -1.000000 0.000003 0.000000
vn -1.000000 0.000003 -0.000002
vn -1.000000 -0.000000 0.000002
vn -1.000000 0.000003 0.000000
vn 1.000000 -0.000002 -0.000000
vn 1.000000 -0.000003 0.000002
vn 1.000000 -0.000007 0.000004
vn 0.000000 0.549960 -0.835191
vn 0.000000 0.018276 -0.999833
vn 0.000000 0.549958 -0.835192
vn 0.000000 0.549958 -0.835192
vn 0.000000 0.018276 -0.999833
vn 0.000000 0.018276 -0.999833
vn 1.000000 -0.000007 0.000004
vn 1.000000 -0.000012 0.000004
vn 1.000000 -0.000002 -0.000000
vn 0.000000 0.999189 -0.040260
vn 0.000000 0.549960 -0.835191
vn 0.000000 0.999189 -0.040258
vn 0.000000 0.999189 -0.040258
vn 0.000000 0.549960 -0.835191
vn 0.000000 0.549958 -0.835192
vn 0.000000 0.510153 0.860084
vn 0.000000 0.999189 -0.040260
vn 0.000000 0.510152 0.860084
vn 0.000000 0.510152 0.860084
vn 0.000000 0.999189 -0.040260
vn 0.000000 0.999189 -0.040258
vn 0.000000 -0.482966 0.875639
vn 0.000000 0.510153 0.860084
vn 0.000000 -0.482966 0.875639
vn 0.000000 -0.482966 0.875639
vn 0.000000 0.510153 0.860084
vn 0.000000 0.510152 0.860084
vn 1.000000 0.000005 -0.000009
vn 1.000000 0.000001 -0.000002
vn 1.000000 -0.000002 -0.000000
vn 0.000000 -0.997226 -0.074432
vn 0.000000 -0.482966 0.875639
vn 0.000000 -0.997226 -0.074434
vn 0.000000 -0.997226 -0.074434
vn 0.000000 -0.482966 0.875639
vn 0.000000 -0.482966 0.875639
vn 0.000000 -0.834469 -0.551055
vn 0.000000 -0.997226 -0.074432
vn 0.000000 -0.834469 -0.551055
vn 0.000000 -0.834469 -0.551055
vn 0.000000 -0.997226 -0.074432
vn 0.000000 -0.997226 -0.074434
vn 1.000000 0.000001 -0.000002
vn 1.000000 -0.000003 0.000002
vn 1.000000 -0.000002 -0.000000
vn 0.000000 -1.000000 0.000000
vn 0.000000 -1.000000 0.000000
vn 0.000000 -1.000000 0.000000
vn 0.000000 -1.000000 0.000000
vn 0.000000 -1.000000 0.000000
vn 0.000000 -1.000000 0.000000
vn 0.000000 1.000000 0.000000
vn 0.000000 1.000000 0.000000
vn 0.000000 1.000000 0.000000
vn 0.000000 1.000000 0.000000
vn 0.000000 1.000000 0.000000
vn 0.000000 1.000000 0.000000
vn 1.000000 0.000000 0.000000
vn 1.000000 0.000000 0.000000
vn 1.000000 0.000000 0.000000
vn 1.000000 0.000000 0.000000
vn 1.000000 0.000000 0.000000
vn 1.000000 0.000000 0.000000
vn -1.000000 0.000000 0.000000
vn -1.000000 0.000000 0.000000
vn -1.000000 0.000000 0.000000
vn -1.000000 0.000000 0.000000
vn -1.000000 0.000000 0.000000
vn -1.000000 0.000000 0.000000
vn 0.000000 -1.000000 0.000000
vn 0.000000 -1.000000 0.000000
vn 0.000000 -1.000000 0.000000
vn 0.000000 -1.000000 0.000000
vn 0.000000 -1.000000 0.000000
vn 0.000000 -1.000000 0.000000
vn 0.000000 1.000000 0.000000
vn 0.000000 1.000000 0.000000
vn 0.000000 1.000000 0.000000
vn 0.000000 1.000000 0.000000
vn 0.000000 1.000000 0.000000
vn 0.000000 1.000000 0.000000
vn 1.000000 0.000000 0.000000
vn 1.000000 0.000000 0.000000
vn 1.000000 0.000000 0.000000
vn 1.000000 0.000000 0.000000
vn 1.000000 0.000000 0.000000
vn 1.000000 0.000000 0.000000
vn -1.000000 0.000000 0.000000
vn -1.000000 0.000000 0.000000
vn -1.000000 0.000000 0.000000
vn -1.000000 0.000000 0.000000
vn -1.000000 0.000000 0.000000
vn -1.000000 0.000000 0.000000
vn -1.000000 0.000012 -0.000004
vn -1.000000 0.000005 -0.000002
vn -1.000000 0.000003 0.000000
vn -1.000000 0.000012 -0.000004
vn -1.000000 0.000012 -0.000004
vn -1.000000 0.000003 0.000000
vn -1.000000 -0.000002 0.000002
vn -1.000000 -0.000009 0.000009
vn -1.000000 0.000003 0.000000
vn -1.000000 0.000005 -0.000002
vn -1.000000 -0.000002 0.000002
vn -1.000000 0.000003 0.000000
vn 1.000000 -0.000006 -0.000000
vn 1.000000 -0.000003 0.000002
vn 1.000000 -0.000003 0.000004
vn 0.000000 0.549961 -0.835190
vn 0.000000 0.018276 -0.999833
vn 0.000000 0.549960 -0.835191
vn 0.000000 0.549960 -0.835191
vn 0.000000 0.018276 -0.999833
vn 0.000000 0.018276 -0.999833
vn 1.000000 -0.000003 0.000004
vn 1.000000 -0.000023 0.000004
vn 1.000000 -0.000006 -0.000000
vn 0.000000 0.999189 -0.040260
vn 0.000000 0.549961 -0.835190
vn 0.000000 0.999189 -0.040258
vn 0.000000 0.999189 -0.040258
vn 0.000000 0.549961 -0.835190
vn 0.000000 0.549960 -0.835191
vn 0.000000 0.510152 0.860084
vn 0.000000 0.999189 -0.040260
vn 0.000000 0.510153 0.860084
vn 0.000000 0.510153 0.860084
vn 0.000000 0.999189 -0.040260
vn 0.000000 0.999189 -0.040258
vn 0.000000 -0.482966 0.875639
vn 0.000000 0.510152 0.860084
vn 0.000000 -0.482966 0.875639
vn 0.000000 -0.482966 0.875639
vn 0.000000 0.510152 0.860084
vn 0.000000 0.510153 0.860084
vn 1.000000 -0.000005 -0.000009
vn 1.000000 -0.000005 -0.000002
vn 1.000000 -0.000006 -0.000000
vn 0.000000 -0.997226 -0.074435
vn 0.000000 -0.482966 0.875639
vn 0.000000 -0.997226 -0.074437
vn 0.000000 -0.997226 -0.074437
vn 0.000000 -0.482966 0.875639
vn 0.000000 -0.482966 0.875639
vn 0.000000 -0.834469 -0.551055
vn 0.000000 -0.997226 -0.074435
vn 0.000000 -0.834469 -0.551055
vn 0.000000 -0.834469 -0.551055
vn 0.000000 -0.997226 -0.074435
vn 0.000000 -0.997226 -0.074437
vn 1.000000 -0.000005 -0.000002
vn 1.000000 -0.000003 0.000002
vn 1.000000 -0.000006 -0.000000
vn 0.000000 -1.000000 0.000000
vn 0.000000 -1.000000 0.000000
vn 0.000000 -1.000000 0.000000
vn 0.000000 -1.000000 0.000000
vn 0.000000 -1.000000 0.000000
vn 0.000000 -1.000000 0.000000
vn 0.000000 1.000000 0.000000
vn 0.000000 1.000000 0.000000
vn 0.000000 1.000000 0.000000
vn 0.000000 1.000000 0.000000
vn 0.000000 1.000000 0.000000
vn 0.000000 1.000000 0.000000
vn 1.000000 0.000000 0.000000
vn 1.000000 0.000000 0.000000
vn 1.000000 0.000000 0.000000
vn 1.000000 0.000000 0.000000
vn 1.000000 0.000000 0.000000
vn 1.000000 0.000000 0.000000
vn -1.000000 0.000000 0.000000
vn -1.000000 0.000000 0.000000
vn -1.000000 0.000000 0.000000
vn -1.000000 0.000000 0.000000
vn -1.000000 0.000000 0.000000
vn -1.000000 0.000000 0.000000
vn 0.000000 -1.000000 0.000000
vn 0.000000 -1.000000 0.000000
vn 0.000000 -1.000000 0.000000
vn 0.000000 -1.000000 0.000000
vn 0.000000 -1.000000 0.000000
vn 0.000000 -1.000000 0.000000
vn 0.000000 0.000000 -1.000000
vn 0.000000 0.000000 -1.000000
vn 0.000000 0.000000 -1.000000
vn 0.000000 0.000000 -1.000000
vn 0.000000 0.000000 -1.000000
vn 0.000000 0.000000 -1.000000
vn 0.000003 -0.000000 -1.000000
vn 0.000003 -0.000000 -1.000000
vn 0.000003 -0.000000 -1.000000
vn 0.000003 -0.000000 -1.000000
vn -0.000003 -0.000000 -1.000000
vn -0.000003 -0.000000 -1.000000
vn -0.000003 -0.000000 -1.000000
vn -0.000003 -0.000000 -1.000000
vn 0.000007 -1.000000 0.000000
vn 0.000014 -1.000000 -0.000000
vn 0.000007 -1.000000 -0.000000
vn 0.000007 -1.000000 -0.000000
vn 0.000014 -1.000000 -0.000000
vn 0.000014 -1.000000 -0.000000
vn -0.000014 -1.000000 0.000000
vn -0.000007 -1.000000 -0.000000
vn -0.000014 -1.000000 -0.000000
vn -0.000014 -1.000000 -0.000000
vn -0.000007 -1.000000 -0.000000
vn -0.000007 -1.000000 -0.000000
s off
g SM_Desk_Cab_06g
f 4/9/1 1/10/2 3/12/3
f 3/12/4 1/10/5 2/11/6
f 1/5/7 5/6/8 2/8/9
f 2/8/10 5/6/11 7/7/12
f 2/1/13 7/2/14 3/4/15
f 3/4/16 7/2/17 6/3/18
f 11/13/19 8/14/20 10/15/21
f 10/15/22 8/14/23 9/16/24
f 8/17/25 12/18/26 9/19/27
f 9/19/28 12/18/29 14/20/30
f 9/21/31 14/22/32 10/23/33
f 10/23/34 14/22/35 13/24/36
f 20/25/37 15/26/38 19/27/39
f 19/27/40 15/26/41 16/28/42
f 21/29/43 22/30/44 19/31/45
f 19/31/46 22/30/47 20/32/48
f 25/33/49 19/34/50 23/35/51
f 23/35/52 19/34/53 16/36/54
f 23/37/55 16/38/56 24/39/57
f 24/39/58 16/38/59 18/40/60
f 26/41/61 21/42/62 25/43/63
f 25/43/64 21/42/65 19/44/66
f 15/45/67 20/46/68 27/47/69
f 27/47/70 20/46/71 29/48/72
f 29/49/73 20/50/74 30/51/75
f 30/51/76 20/50/77 22/52/78
f 28/53/79 17/54/80 27/55/81
f 27/55/82 17/54/83 15/56/84
f 21/57/85 26/58/86 22/59/87
f 22/59/88 26/58/89 30/60/90
f 1/61/91 4/62/92 5/64/93
f 5/64/94 4/62/95 31/63/96
f 8/65/97 11/66/98 12/68/99
f 12/68/100 11/66/101 32/67/102
f 38/69/103 33/70/104 37/71/105
f 37/71/106 33/70/107 35/72/108
f 36/73/109 35/74/110 40/75/111
f 40/75/112 35/74/113 33/76/114
f 39/77/115 36/78/116 34/79/117
f 34/79/118 36/78/119 40/80/120
f 39/81/121 34/82/122 37/83/123
f 37/83/124 34/82/125 38/84/126
f 38/85/127 34/86/128 33/87/129
f 33/87/130 34/86/131 40/88/132
f 39/89/133 37/90/134 36/91/135
f 36/91/136 37/90/137 35/92/138
f 41/93/139 42/94/140 43/95/141
f 43/95/142 42/94/143 44/96/144
f 45/97/145 46/98/146 47/99/147
f 47/99/148 46/98/149 48/100/150
f 42/101/151 48/102/152 44/103/153
f 44/103/154 48/102/155 46/104/156
f 47/105/157 41/106/158 45/107/159
f 45/107/160 41/106/161 43/108/162
f 52/109/163 51/110/164 49/111/165
f 53/112/166 52/109/167 49/111/168
f 55/113/169 54/114/170 49/111/171
f 51/110/172 55/113/173 49/111/174
f 50/115/175 56/116/176 57/117/177
f 57/118/178 56/119/179 52/120/180
f 52/120/181 56/119/182 51/121/183
f 57/117/184 58/122/185 50/115/186
f 58/123/187 57/118/188 53/124/189
f 53/124/190 57/118/191 52/120/192
f 50/125/193 58/123/194 49/126/195
f 49/126/196 58/123/197 53/124/198
f 59/127/199 50/125/200 54/128/201
f 54/128/202 50/125/203 49/126/204
f 59/129/205 60/130/206 50/115/207
f 60/131/208 59/127/209 55/132/210
f 55/132/211 59/127/212 54/128/213
f 56/133/214 60/131/215 51/134/216
f 51/134/217 60/131/218 55/132/219
f 60/130/220 56/116/221 50/115/222
f 61/135/223 62/136/224 63/137/225
f 63/137/226 62/136/227 64/138/228
f 65/139/229 66/140/230 67/141/231
f 67/141/232 66/140/233 68/142/234
f 62/143/235 68/144/236 64/145/237
f 64/145/238 68/144/239 66/146/240
f 67/147/241 61/148/242 65/149/243
f 65/149/244 61/148/245 63/150/246
f 69/151/247 70/152/248 71/153/249
f 71/153/250 70/152/251 72/154/252
f 73/155/253 74/156/254 75/157/255
f 75/157/256 74/156/257 76/158/258
f 70/159/259 76/160/260 72/161/261
f 72/161/262 76/160/263 74/162/264
f 75/163/265 69/164/266 73/165/267
f 73/165/268 69/164/269 71/166/270
f 80/167/271 79/168/272 77/169/273
f 81/170/274 80/167/275 77/169/276
f 83/171/277 82/172/278 77/169/279
f 79/168/280 83/171/281 77/169/282
f 78/173/283 84/174/284 85/175/285
f 85/176/286 84/177/287 80/178/288
f 80/178/289 84/177/290 79/179/291
f 85/175/292 86/180/293 78/173/294
f 86/181/295 85/176/296 81/182/297
f 81/182/298 85/176/299 80/178/300
f 78/183/301 86/181/302 77/184/303
f 77/184/304 86/181/305 81/182/306
f 87/185/307 78/183/308 82/186/309
f 82/186/310 78/183/311 77/184/312
f 87/187/313 88/188/314 78/173/315
f 88/189/316 87/185/317 83/190/318
f 83/190/319 87/185/320 82/186/321
f 84/191/322 88/189/323 79/192/324
f 79/192/325 88/189/326 83/190/327
f 88/188/328 84/174/329 78/173/330
f 89/193/331 90/194/332 91/195/333
f 91/195/334 90/194/335 92/196/336
f 93/197/337 94/198/338 95/199/339
f 95/199/340 94/198/341 96/200/342
f 90/201/343 96/202/344 92/203/345
f 92/203/346 96/202/347 94/204/348
f 95/205/349 89/206/350 93/207/351
f 93/207/352 89/206/353 91/208/354
f 24/209/355 18/210/356 28/212/357
f 28/212/358 18/210/359 17/211/360
f 17/213/361 18/214/362 15/216/363
f 15/216/364 18/214/365 16/215/366
f 5/217/367 31/218/368 6/219/369 7/220/370
f 13/221/371 14/222/372 12/223/373 32/224/374
f 10/225/375 13/226/376 11/227/377
f 11/227/378 13/226/379 32/228/380
f 31/229/381 4/230/382 6/231/383
f 6/231/384 4/230/385 3/232/386
