# This file uses feet as units for non-parametric coordinates.

g default
v 3.198326 12.283924 51.014313
v 2.144165 12.283924 51.014320
v 2.144165 10.041481 51.014320
v 3.198326 10.041481 51.014313
v 3.198326 10.041481 2.748652
v 3.198326 12.283924 2.748652
v 2.144165 10.041481 2.748655
v 2.144165 12.283924 2.748655
v 60.876526 15.777962 0.000000
v 3.169182 15.777962 0.000000
v 60.876526 2.042274 0.000000
v 3.169182 2.042274 0.000000
v 4.814316 15.777962 1.645130
v 59.231400 15.777962 1.645130
v 4.814316 5.483555 1.645130
v 59.231400 5.483555 1.645130
v 3.169182 15.777962 81.497055
v 3.169182 2.042274 81.497055
v 4.814316 15.777962 81.497055
v 4.814308 5.483555 81.497055
v 60.876526 15.777962 81.497055
v 60.876526 2.042274 81.497055
v 59.231400 15.777962 81.497055
v 59.231396 5.483555 81.497055
v 64.045715 19.261971 81.497055
v 0.000000 19.261971 81.497055
v 0.000000 19.261971 83.966125
v -0.000008 0.000000 81.497040
v 64.045715 0.000004 81.497040
v 0.000000 0.000004 83.966125
v 64.045715 0.000004 83.966125
v 64.045715 19.261971 83.966125
v 60.855259 12.283924 51.014313
v 61.909397 12.283924 51.014320
v 61.909397 10.041481 51.014320
v 60.855259 10.041481 51.014313
v 61.909397 12.283924 3.068949
v 61.909397 10.041481 3.068949
v 60.855259 10.041481 3.068945
v 60.855259 12.283924 3.068945
v 35.263451 9.169701 83.939178
v 36.113167 9.169701 83.939178
v 35.263451 9.169701 84.968292
v 36.113167 9.169701 84.968292
v 35.263451 10.019417 84.968292
v 36.113167 10.019417 84.968292
v 35.263451 10.019417 83.939178
v 36.113167 10.019417 83.939178
v 26.037201 10.342155 87.175835
v 38.008499 10.342155 87.175835
v 26.037201 9.114174 84.916122
v 26.037209 10.251945 84.936920
v 26.037209 10.884674 86.081970
v 26.037209 8.941101 87.234787
v 26.037201 8.348198 86.076050
v 38.008499 9.114174 84.916122
v 38.008507 10.251945 84.936920
v 38.008507 10.884674 86.081970
v 38.008507 8.941101 87.234787
v 38.008499 8.348198 86.076050
v 27.941109 9.169701 83.939178
v 28.790825 9.169701 83.939178
v 27.941109 9.169701 84.968292
v 28.790825 9.169701 84.968292
v 27.941109 10.019417 84.968292
v 28.790825 10.019417 84.968292
v 27.941109 10.019417 83.939178
v 28.790825 10.019417 83.939178
vt 0.245383 0.819918
vt 0.245383 0.965216
vt 0.238632 0.965216
vt 0.238632 0.819918
vt 0.917593 0.619454
vt 0.917593 0.864800
vt 0.876242 0.864800
vt 0.876242 0.619454
vt 0.463331 0.832569
vt 0.463331 0.592176
vt 0.494322 0.592176
vt 0.494322 0.832569
vt 0.500084 0.343718
vt 0.500084 0.584113
vt 0.469092 0.584113
vt 0.469092 0.343718
vt 0.376908 0.861852
vt 0.376908 0.616505
vt 0.418259 0.616505
vt 0.418259 0.861852
vt 0.419159 0.037153
vt 0.426592 0.037153
vt 0.426592 0.095138
vt 0.419159 0.095138
vt 0.507503 0.022777
vt 0.514935 0.022777
vt 0.514935 0.080761
vt 0.507503 0.080761
vt 0.279952 0.819884
vt 0.279952 0.964219
vt 0.273201 0.964219
vt 0.273201 0.819884
vt 0.370478 0.816881
vt 0.370478 0.962177
vt 0.367305 0.962177
vt 0.367305 0.816881
vt 0.250155 0.963939
vt 0.250155 0.818654
vt 0.253328 0.818654
vt 0.253328 0.963939
vt 0.976109 0.818343
vt 0.973380 0.556675
vt 0.981062 0.987110
vt 0.981062 0.550162
vt 0.968427 0.311331
vt 0.973380 0.311331
vt 0.976109 0.309775
vt 0.981062 0.309775
vt 0.689952 0.644554
vt 0.697385 0.644554
vt 0.697385 0.837361
vt 0.689952 0.837361
vt 0.672667 0.644152
vt 0.680101 0.644152
vt 0.680101 0.836959
vt 0.672667 0.836959
vt 0.261010 0.820105
vt 0.261010 0.964454
vt 0.257837 0.964454
vt 0.257837 0.820105
vt 0.265519 0.820972
vt 0.268692 0.820972
vt 0.268692 0.965309
vt 0.265519 0.965309
vt 0.000491 0.860970
vt 0.000491 0.620576
vt 0.164313 0.620576
vt 0.164313 0.860970
vt 0.529880 0.005444
vt 0.529880 0.012192
vt 0.526708 0.012192
vt 0.526708 0.005444
vt 0.204063 0.983208
vt 0.204063 0.819387
vt 0.235054 0.819387
vt 0.235054 0.983208
vt 0.920414 0.812315
vt 0.920414 0.619505
vt 0.978402 0.619505
vt 0.978402 0.812315
vt 0.441528 0.010447
vt 0.438364 0.010447
vt 0.438364 0.003717
vt 0.441528 0.003717
vt 0.968427 0.551722
vt 0.981062 0.813391
vt 0.976109 0.555115
vt 0.976109 0.982158
vt 0.642272 0.967769
vt 0.646283 0.967769
vt 0.642272 0.972627
vt 0.646283 0.972627
vt 0.518544 0.943726
vt 0.522554 0.943726
vt 0.518544 0.948583
vt 0.522554 0.948583
vt 0.642273 0.950424
vt 0.646282 0.950424
vt 0.642273 0.955282
vt 0.646282 0.955282
vt 0.646283 0.864619
vt 0.642273 0.864619
vt 0.646283 0.859762
vt 0.642273 0.859762
vt 0.744087 0.961713
vt 0.744092 0.956329
vt 0.754672 0.962349
vt 0.749447 0.964814
vt 0.749667 0.952813
vt 0.755090 0.955730
vt 0.714286 0.962879
vt 0.724866 0.956858
vt 0.724873 0.962243
vt 0.623545 0.843871
vt 0.628935 0.843871
vt 0.623545 0.900575
vt 0.628935 0.900575
vt 0.719511 0.965343
vt 0.617348 0.843871
vt 0.617348 0.900575
vt 0.611565 0.843871
vt 0.611565 0.900575
vt 0.604923 0.843871
vt 0.604923 0.900575
vt 0.713869 0.956260
vt 0.719292 0.953342
vt 0.598758 0.843871
vt 0.598758 0.900575
vt 0.592174 0.843871
vt 0.592174 0.900575
vt 0.725956 0.939644
vt 0.729966 0.939644
vt 0.725956 0.944500
vt 0.729966 0.944500
vt 0.741064 0.939898
vt 0.745075 0.939898
vt 0.741064 0.944755
vt 0.745075 0.944755
vt 0.719912 0.940870
vt 0.723922 0.940870
vt 0.719912 0.945727
vt 0.723922 0.945727
vt 0.711835 0.948539
vt 0.707825 0.948539
vt 0.711835 0.943682
vt 0.707825 0.943682
vt 0.167574 0.620290
vt 0.225562 0.620290
vt 0.167574 0.813100
vt 0.225562 0.813100
vt 0.151771 0.652273
vt 0.151771 0.827761
vt 0.027509 0.827761
vt 0.027509 0.652273
vn 0.000006 0.000000 1.000000
vn 0.000011 0.000000 1.000000
vn 0.000008 0.000000 1.000000
vn 0.000008 0.000000 1.000000
vn 0.000011 0.000000 1.000000
vn 0.000013 0.000000 1.000000
vn 0.000000 1.000000 0.000000
vn 0.000000 1.000000 0.000000
vn 0.000000 1.000000 0.000000
vn 0.000000 1.000000 0.000000
vn 0.000000 1.000000 0.000000
vn 0.000000 1.000000 0.000000
vn -1.000000 0.000000 0.000000
vn -1.000000 0.000000 0.000000
vn -1.000000 0.000000 0.000000
vn -1.000000 0.000000 0.000000
vn -1.000000 0.000000 0.000000
vn -1.000000 0.000000 0.000000
vn 0.000000 -1.000000 0.000000
vn 0.000000 -1.000000 0.000000
vn 0.000000 -1.000000 0.000000
vn 0.000000 -1.000000 0.000000
vn 0.000000 -1.000000 0.000000
vn 0.000000 -1.000000 0.000000
vn 0.000000 1.000000 0.000001
vn 0.000000 1.000000 0.000001
vn 0.000000 1.000000 -0.000000
vn 0.000000 1.000000 -0.000000
vn 0.000000 1.000000 0.000001
vn 0.000000 1.000000 -0.000000
vn 0.000000 0.000000 1.000000
vn 0.000000 0.000000 1.000000
vn 0.000000 0.000000 1.000000
vn 0.000000 0.000000 1.000000
vn 0.000000 0.000000 1.000000
vn 0.000000 0.000000 1.000000
vn 0.000000 1.000000 0.000000
vn 0.000000 1.000000 -0.000000
vn 0.000000 1.000000 0.000000
vn 0.000000 1.000000 0.000000
vn 0.000000 1.000000 -0.000000
vn 0.000000 1.000000 -0.000000
vn -1.000000 0.000000 0.000000
vn -1.000000 0.000000 0.000000
vn -1.000000 0.000000 0.000000
vn -1.000000 0.000000 0.000000
vn -1.000000 0.000000 0.000000
vn -1.000000 0.000000 0.000000
vn 1.000000 -0.000001 0.000000
vn 1.000000 -0.000000 0.000000
vn 1.000000 -0.000001 0.000000
vn 1.000000 -0.000001 0.000000
vn 1.000000 -0.000000 0.000000
vn 1.000000 0.000000 0.000000
vn 0.000000 1.000000 0.000001
vn 0.000000 1.000000 0.000001
vn 0.000000 1.000000 0.000000
vn 0.000000 1.000000 0.000000
vn 0.000000 1.000000 0.000001
vn 0.000000 1.000000 0.000000
vn -1.000000 0.000000 0.000000
vn -1.000000 0.000000 -0.000000
vn -1.000000 0.000000 -0.000000
vn -1.000000 0.000000 -0.000000
vn -1.000000 0.000000 -0.000000
vn -1.000000 0.000000 -0.000000
vn 1.000000 0.000000 0.000000
vn 1.000000 0.000000 0.000000
vn 1.000000 0.000000 0.000000
vn 1.000000 0.000000 0.000000
vn 1.000000 0.000000 0.000000
vn 1.000000 0.000000 0.000000
vn 0.000000 1.000000 0.000000
vn 0.000000 1.000000 0.000000
vn 0.000000 1.000000 0.000000
vn 0.000000 1.000000 0.000000
vn 0.000000 1.000000 0.000000
vn 0.000000 1.000000 0.000000
vn 0.000000 -1.000000 0.000000
vn 0.000000 -1.000000 0.000000
vn 0.000000 -1.000000 0.000002
vn 0.000000 -1.000000 0.000002
vn 0.000000 -1.000000 0.000000
vn 0.000000 -1.000000 0.000002
vn -1.000000 0.000000 0.000003
vn -1.000000 0.000000 0.000003
vn -1.000000 0.000000 0.000000
vn -1.000000 0.000000 0.000000
vn -1.000000 0.000000 0.000003
vn -1.000000 0.000000 0.000000
vn 0.000000 0.000001 -1.000000
vn 0.000000 0.000001 -1.000000
vn 0.000000 0.000001 -1.000000
vn 0.000000 0.000001 -1.000000
vn 0.000000 0.000001 -1.000000
vn 0.000000 0.000001 -1.000000
vn 1.000000 0.000000 0.000000
vn 1.000000 0.000000 0.000000
vn 1.000000 0.000000 0.000000
vn 1.000000 0.000000 0.000000
vn 1.000000 0.000000 0.000000
vn 1.000000 0.000000 0.000000
vn -0.000013 0.000000 1.000000
vn -0.000011 0.000000 1.000000
vn -0.000008 0.000000 1.000000
vn -0.000008 0.000000 1.000000
vn -0.000011 0.000000 1.000000
vn -0.000006 0.000000 1.000000
vn 0.000000 -1.000000 0.000000
vn 0.000000 -1.000000 0.000000
vn 0.000000 -1.000000 0.000000
vn 0.000000 -1.000000 0.000000
vn 0.000000 -1.000000 0.000000
vn 0.000000 -1.000000 0.000000
vn 1.000000 0.000000 0.000000
vn 1.000000 0.000000 0.000000
vn 1.000000 0.000000 0.000000
vn 1.000000 0.000000 0.000000
vn 1.000000 0.000000 0.000000
vn 1.000000 0.000000 0.000000
vn 0.000000 1.000000 0.000000
vn 0.000000 1.000000 0.000000
vn 0.000000 1.000000 0.000000
vn 0.000000 1.000000 0.000000
vn 0.000000 1.000000 0.000000
vn 0.000000 1.000000 0.000000
vn 0.000000 1.000000 -0.000000
vn 0.000000 1.000000 -0.000000
vn 0.000000 1.000000 -0.000000
vn 0.000000 1.000000 -0.000000
vn 0.000000 1.000000 -0.000000
vn 0.000000 1.000000 0.000000
vn 0.000000 -1.000000 0.000000
vn 0.000000 -1.000000 0.000000
vn 0.000000 -1.000000 0.000000
vn 0.000000 -1.000000 0.000000
vn 0.000000 -1.000000 0.000000
vn 0.000000 -1.000000 0.000000
vn 0.000000 1.000000 0.000000
vn 0.000000 1.000000 0.000000
vn 0.000000 1.000000 0.000000
vn 0.000000 1.000000 0.000000
vn 0.000000 1.000000 0.000000
vn 0.000000 1.000000 0.000000
vn 1.000000 0.000000 0.000000
vn 1.000000 0.000000 0.000000
vn 1.000000 0.000000 0.000000
vn 1.000000 0.000000 0.000000
vn 1.000000 0.000000 0.000000
vn 1.000000 0.000000 0.000000
vn -1.000000 0.000000 0.000000
vn -1.000000 0.000000 0.000000
vn -1.000000 0.000000 0.000000
vn -1.000000 0.000000 0.000000
vn -1.000000 0.000000 0.000000
vn -1.000000 0.000000 0.000000
vn -1.000000 0.000006 -0.000004
vn -1.000000 0.000004 -0.000002
vn -1.000000 0.000003 0.000000
vn -1.000000 0.000009 -0.000004
vn -1.000000 0.000006 -0.000004
vn -1.000000 0.000003 0.000000
vn -1.000000 0.000001 0.000002
vn -1.000000 -0.000005 0.000009
vn -1.000000 0.000003 0.000000
vn -1.000000 0.000004 -0.000002
vn -1.000000 0.000001 0.000002
vn -1.000000 0.000003 0.000000
vn 1.000000 -0.000002 -0.000000
vn 1.000000 -0.000003 0.000002
vn 1.000000 -0.000007 0.000004
vn 0.000000 0.549962 -0.835190
vn 0.000000 0.018276 -0.999833
vn 0.000000 0.549959 -0.835192
vn 0.000000 0.549959 -0.835192
vn 0.000000 0.018276 -0.999833
vn 0.000000 0.018276 -0.999833
vn 1.000000 -0.000007 0.000004
vn 1.000000 -0.000012 0.000004
vn 1.000000 -0.000002 -0.000000
vn 0.000000 0.999189 -0.040261
vn 0.000000 0.549962 -0.835190
vn 0.000000 0.999189 -0.040258
vn 0.000000 0.999189 -0.040258
vn 0.000000 0.549962 -0.835190
vn 0.000000 0.549959 -0.835192
vn 0.000000 0.510153 0.860084
vn 0.000000 0.999189 -0.040261
vn 0.000000 0.510153 0.860084
vn 0.000000 0.510153 0.860084
vn 0.000000 0.999189 -0.040261
vn 0.000000 0.999189 -0.040258
vn 0.000000 -0.482966 0.875639
vn 0.000000 0.510153 0.860084
vn 0.000000 -0.482966 0.875639
vn 0.000000 -0.482966 0.875639
vn 0.000000 0.510153 0.860084
vn 0.000000 0.510153 0.860084
vn 1.000000 0.000007 -0.000009
vn 1.000000 0.000001 -0.000002
vn 1.000000 -0.000002 -0.000000
vn 0.000000 -0.997226 -0.074435
vn 0.000000 -0.482966 0.875639
vn 0.000000 -0.997226 -0.074437
vn 0.000000 -0.997226 -0.074437
vn 0.000000 -0.482966 0.875639
vn 0.000000 -0.482966 0.875639
vn 0.000000 -0.834469 -0.551055
vn 0.000000 -0.997226 -0.074435
vn 0.000000 -0.834469 -0.551054
vn 0.000000 -0.834469 -0.551054
vn 0.000000 -0.997226 -0.074435
vn 0.000000 -0.997226 -0.074437
vn 1.000000 0.000001 -0.000002
vn 1.000000 -0.000003 0.000002
vn 1.000000 -0.000002 -0.000000
vn 0.000000 -1.000000 0.000000
vn 0.000000 -1.000000 0.000000
vn 0.000000 -1.000000 0.000000
vn 0.000000 -1.000000 0.000000
vn 0.000000 -1.000000 0.000000
vn 0.000000 -1.000000 0.000000
vn 0.000000 1.000000 0.000000
vn 0.000000 1.000000 0.000000
vn 0.000000 1.000000 0.000000
vn 0.000000 1.000000 0.000000
vn 0.000000 1.000000 0.000000
vn 0.000000 1.000000 0.000000
vn 1.000000 0.000000 0.000000
vn 1.000000 0.000000 0.000000
vn 1.000000 0.000000 0.000000
vn 1.000000 0.000000 0.000000
vn 1.000000 0.000000 0.000000
vn 1.000000 0.000000 0.000000
vn -1.000000 0.000000 0.000000
vn -1.000000 0.000000 0.000000
vn -1.000000 0.000000 0.000000
vn -1.000000 0.000000 0.000000
vn -1.000000 0.000000 0.000000
vn -1.000000 0.000000 0.000000
vn 0.000000 0.000000 1.000000
vn 0.000000 0.000000 1.000000
vn 0.000000 0.000000 1.000000
vn 0.000000 0.000000 1.000000
vn 0.000000 0.000000 1.000000
vn 0.000000 0.000000 1.000000
vn 0.000000 -1.000000 0.000000
vn 0.000000 -1.000000 0.000000
vn 0.000000 -1.000000 0.000000
vn 0.000000 -1.000000 0.000000
s off
g SM_Desk_Cab_06b
f 4/69/1 1/70/2 3/72/3
f 3/72/4 1/70/5 2/71/6
f 1/33/7 6/34/8 2/36/9
f 2/36/10 6/34/11 8/35/12
f 2/1/13 8/2/14 3/4/15
f 3/4/16 8/2/17 7/3/18
f 3/37/19 7/38/20 4/40/21
f 4/40/22 7/38/23 5/39/24
f 14/41/25 9/86/26 13/88/27
f 13/88/28 9/86/29 10/43/30
f 15/73/31 16/74/32 13/76/33
f 13/76/34 16/74/35 14/75/36
f 19/48/37 13/44/38 17/47/39
f 17/47/40 13/44/41 10/87/42
f 17/5/43 10/6/44 18/8/45
f 18/8/46 10/6/47 12/7/48
f 20/9/49 15/10/50 19/12/51
f 19/12/52 15/10/53 13/11/54
f 9/42/55 14/85/56 21/46/57
f 21/46/58 14/85/59 23/45/60
f 23/13/61 14/14/62 24/16/63
f 24/16/64 14/14/65 16/15/66
f 22/17/67 11/18/68 21/20/69
f 21/20/70 11/18/71 9/19/72
f 32/49/73 25/50/74 27/52/75
f 27/52/76 25/50/77 26/51/78
f 29/53/79 31/54/80 28/56/81
f 28/56/82 31/54/83 30/55/84
f 28/21/85 30/22/86 26/24/87
f 26/24/88 30/22/89 27/23/90
f 26/77/91 25/78/92 28/80/93
f 28/80/94 25/78/95 29/79/96
f 31/25/97 29/26/98 32/28/99
f 32/28/100 29/26/101 25/27/102
f 34/81/103 33/82/104 35/84/105
f 35/84/106 33/82/107 36/83/108
f 38/57/109 35/58/110 39/60/111
f 39/60/112 35/58/113 36/59/114
f 37/29/115 34/30/116 38/32/117
f 38/32/118 34/30/119 35/31/120
f 33/61/121 34/62/122 40/64/123
f 40/64/124 34/62/125 37/63/126
f 15/65/127 20/66/128 16/68/129
f 16/68/130 20/66/131 24/67/132
f 41/89/133 42/90/134 43/91/135
f 43/91/136 42/90/137 44/92/138
f 45/93/139 46/94/140 47/95/141
f 47/95/142 46/94/143 48/96/144
f 42/97/145 48/98/146 44/99/147
f 44/99/148 48/98/149 46/100/150
f 47/101/151 41/102/152 45/103/153
f 45/103/154 41/102/155 43/104/156
f 52/105/157 51/106/158 49/107/159
f 53/108/160 52/105/161 49/107/162
f 55/109/163 54/110/164 49/107/165
f 51/106/166 55/109/167 49/107/168
f 50/111/169 56/112/170 57/113/171
f 57/114/172 56/115/173 52/116/174
f 52/116/175 56/115/176 51/117/177
f 57/113/178 58/118/179 50/111/180
f 58/119/181 57/114/182 53/120/183
f 53/120/184 57/114/185 52/116/186
f 50/121/187 58/119/188 49/122/189
f 49/122/190 58/119/191 53/120/192
f 59/123/193 50/121/194 54/124/195
f 54/124/196 50/121/197 49/122/198
f 59/125/199 60/126/200 50/111/201
f 60/127/202 59/123/203 55/128/204
f 55/128/205 59/123/206 54/124/207
f 56/129/208 60/127/209 51/130/210
f 51/130/211 60/127/212 55/128/213
f 60/126/214 56/112/215 50/111/216
f 61/131/217 62/132/218 63/133/219
f 63/133/220 62/132/221 64/134/222
f 65/135/223 66/136/224 67/137/225
f 67/137/226 66/136/227 68/138/228
f 62/139/229 68/140/230 64/141/231
f 64/141/232 68/140/233 66/142/234
f 67/143/235 61/144/236 65/145/237
f 65/145/238 61/144/239 63/146/240
f 31/147/241 32/148/242 30/149/243
f 30/149/244 32/148/245 27/150/246
f 18/151/247 12/152/248 11/153/249 22/154/250
