# This file uses feet as units for non-parametric coordinates.

g default
v 60.876526 7.547943 0.000000
v 3.169182 7.547943 0.000000
v 60.876526 1.040527 0.000000
v 3.169182 1.040527 0.000000
v 4.814316 7.547943 1.645130
v 59.231400 7.547943 1.645130
v 4.814316 2.670868 1.645130
v 59.231400 2.670868 1.645130
v 3.169182 7.547943 81.497055
v 3.169182 1.040527 81.497055
v 4.814316 7.547943 81.497055
v 4.814308 2.670868 81.497055
v 60.876526 7.547943 81.497055
v 60.876526 1.040527 81.497055
v 59.231400 7.547943 81.497055
v 59.231396 2.670868 81.497055
v 26.037201 5.794922 87.175835
v 38.008499 5.794922 87.175835
v 26.037201 4.566940 84.916122
v 26.037209 5.704712 84.936920
v 26.037209 6.337440 86.081970
v 26.037209 4.393867 87.234787
v 26.037201 3.800964 86.076050
v 38.008499 4.566940 84.916122
v 38.008507 5.704712 84.936920
v 38.008507 6.337440 86.081970
v 38.008507 4.393867 87.234787
v 38.008499 3.800964 86.076050
v 64.045715 0.000000 83.966125
v -0.000008 0.000000 83.966125
v -0.000008 9.630989 83.966125
v 64.045715 9.630989 83.966125
v 64.045715 -0.000004 81.497040
v -0.000008 0.000000 81.497040
v 64.045715 9.630989 81.497047
v -0.000008 9.630989 81.497047
v 35.263451 4.622368 83.961700
v 36.113167 4.622368 83.961700
v 35.263451 4.622368 84.990822
v 36.113167 4.622368 84.990822
v 35.263451 5.472084 84.990822
v 36.113167 5.472084 84.990822
v 35.263451 5.472084 83.961700
v 36.113167 5.472084 83.961700
v 27.941109 4.622368 83.961700
v 28.790825 4.622368 83.961700
v 27.941109 4.622368 84.990822
v 28.790825 4.622368 84.990822
v 27.941109 5.472084 84.990822
v 28.790825 5.472084 84.990822
v 27.941109 5.472084 83.961700
v 28.790825 5.472084 83.961700
v 3.198326 4.919086 51.014313
v 2.144165 4.919086 51.014320
v 2.144165 2.676643 51.014320
v 3.198326 2.676643 51.014313
v 3.198326 2.676643 2.748652
v 3.198326 4.919086 2.748652
v 2.144165 2.676643 2.748655
v 2.144165 4.919086 2.748655
v 60.855259 4.919086 51.014313
v 61.909397 4.919086 51.014320
v 61.909397 2.676643 51.014320
v 60.855259 2.676643 51.014313
v 61.909397 4.919086 3.068949
v 61.909397 2.676643 3.068949
v 60.855259 2.676643 3.068945
v 60.855259 4.919086 3.068945
vt 0.906713 0.619454
vt 0.906713 0.864800
vt 0.887122 0.864800
vt 0.887122 0.619454
vt 0.471485 0.832569
vt 0.471485 0.592176
vt 0.486168 0.592176
vt 0.486168 0.832569
vt 0.491929 0.343718
vt 0.491929 0.584113
vt 0.477247 0.584113
vt 0.477247 0.343718
vt 0.387788 0.861852
vt 0.387788 0.616505
vt 0.407379 0.616505
vt 0.407379 0.861852
vt 0.976109 0.818343
vt 0.973380 0.556675
vt 0.981062 0.987110
vt 0.981062 0.550162
vt 0.968427 0.311331
vt 0.973380 0.311331
vt 0.976109 0.309775
vt 0.981062 0.309775
vt 0.000491 0.860970
vt 0.000491 0.620576
vt 0.164313 0.620576
vt 0.164313 0.860970
vt 0.212218 0.983208
vt 0.212218 0.819387
vt 0.226900 0.819387
vt 0.226900 0.983208
vt 0.968427 0.551722
vt 0.981062 0.813391
vt 0.976109 0.555115
vt 0.976109 0.982158
vt 0.759195 0.948641
vt 0.759201 0.943262
vt 0.769770 0.949276
vt 0.764551 0.951738
vt 0.764770 0.939750
vt 0.770187 0.942664
vt 0.518538 0.921041
vt 0.529116 0.915021
vt 0.529122 0.920406
vt 0.584262 0.844726
vt 0.589652 0.844726
vt 0.584262 0.901430
vt 0.589652 0.901430
vt 0.523761 0.923506
vt 0.578066 0.844726
vt 0.578066 0.901430
vt 0.572282 0.844726
vt 0.572282 0.901430
vt 0.565640 0.844726
vt 0.565640 0.901430
vt 0.518120 0.914424
vt 0.523542 0.911507
vt 0.559475 0.844726
vt 0.559475 0.901430
vt 0.552891 0.844726
vt 0.552891 0.901430
vt 0.352128 0.811705
vt 0.323134 0.811705
vt 0.352128 0.618896
vt 0.323134 0.618896
vt 0.423000 0.728865
vt 0.451994 0.728865
vt 0.423000 0.921674
vt 0.451994 0.921674
vt 0.524538 0.009813
vt 0.524538 0.038803
vt 0.517105 0.009813
vt 0.517105 0.038803
vt 0.355782 0.620040
vt 0.363215 0.620040
vt 0.355782 0.812848
vt 0.363215 0.812848
vt 0.587915 0.010002
vt 0.587915 0.038992
vt 0.580482 0.010002
vt 0.580482 0.038992
vt 0.461161 0.730257
vt 0.461161 0.923060
vt 0.453728 0.730257
vt 0.453728 0.923060
vt 0.642272 0.981219
vt 0.646284 0.981219
vt 0.642272 0.986077
vt 0.646284 0.986077
vt 0.642272 0.920386
vt 0.646283 0.920386
vt 0.642272 0.925243
vt 0.646283 0.925243
vt 0.642273 0.907270
vt 0.646283 0.907270
vt 0.642273 0.912128
vt 0.646283 0.912128
vt 0.542189 0.914149
vt 0.538185 0.914149
vt 0.542189 0.909299
vt 0.538185 0.909299
vt 0.642273 0.876715
vt 0.646282 0.876715
vt 0.642273 0.881572
vt 0.646282 0.881572
vt 0.642272 0.891311
vt 0.646283 0.891311
vt 0.642272 0.896168
vt 0.646283 0.896168
vt 0.731999 0.940102
vt 0.736010 0.940102
vt 0.731999 0.944959
vt 0.736010 0.944959
vt 0.561611 0.946034
vt 0.557601 0.946034
vt 0.561611 0.941177
vt 0.557601 0.941177
vt 0.529880 0.005444
vt 0.529880 0.012192
vt 0.526708 0.005444
vt 0.526708 0.012192
vt 0.370478 0.816881
vt 0.370478 0.962177
vt 0.367305 0.816881
vt 0.367305 0.962177
vt 0.245383 0.819918
vt 0.245383 0.965216
vt 0.238632 0.819918
vt 0.238632 0.965216
vt 0.250155 0.963939
vt 0.250155 0.818654
vt 0.253328 0.963939
vt 0.253328 0.818654
vt 0.441528 0.010447
vt 0.438364 0.010447
vt 0.441528 0.003717
vt 0.438364 0.003717
vt 0.261010 0.820105
vt 0.261010 0.964454
vt 0.257837 0.820105
vt 0.257837 0.964454
vt 0.279952 0.819884
vt 0.279952 0.964219
vt 0.273201 0.819884
vt 0.273201 0.964219
vt 0.265519 0.820972
vt 0.268692 0.820972
vt 0.265519 0.965309
vt 0.268692 0.965309
vt 0.151771 0.652273
vt 0.151771 0.827761
vt 0.027509 0.827761
vt 0.027509 0.652273
vn 0.000000 1.000000 -0.000000
vn 0.000000 1.000000 -0.000000
vn 0.000000 1.000000 0.000000
vn 0.000000 1.000000 0.000000
vn 0.000000 1.000000 -0.000000
vn 0.000000 1.000000 0.000000
vn 0.000000 0.000000 1.000000
vn 0.000000 0.000000 1.000000
vn 0.000000 0.000000 1.000000
vn 0.000000 0.000000 1.000000
vn 0.000000 0.000000 1.000000
vn 0.000000 0.000000 1.000000
vn 0.000000 1.000000 0.000000
vn 0.000000 1.000000 0.000000
vn 0.000000 1.000000 0.000000
vn 0.000000 1.000000 0.000000
vn 0.000000 1.000000 0.000000
vn 0.000000 1.000000 0.000000
vn -1.000000 0.000000 0.000000
vn -1.000000 0.000000 0.000000
vn -1.000000 0.000000 0.000000
vn -1.000000 0.000000 0.000000
vn -1.000000 0.000000 0.000000
vn -1.000000 0.000000 0.000000
vn 1.000000 -0.000002 0.000000
vn 1.000000 -0.000000 0.000000
vn 1.000000 -0.000002 0.000000
vn 1.000000 -0.000002 0.000000
vn 1.000000 -0.000000 0.000000
vn 1.000000 0.000000 0.000000
vn 0.000000 1.000000 -0.000000
vn 0.000000 1.000000 -0.000000
vn 0.000000 1.000000 0.000000
vn 0.000000 1.000000 0.000000
vn 0.000000 1.000000 -0.000000
vn 0.000000 1.000000 0.000000
vn -1.000000 0.000000 0.000000
vn -1.000000 0.000000 -0.000000
vn -1.000000 0.000000 -0.000000
vn -1.000000 0.000000 -0.000000
vn -1.000000 0.000000 -0.000000
vn -1.000000 0.000000 -0.000000
vn 1.000000 0.000000 0.000000
vn 1.000000 0.000000 0.000000
vn 1.000000 0.000000 0.000000
vn 1.000000 0.000000 0.000000
vn 1.000000 0.000000 0.000000
vn 1.000000 0.000000 0.000000
vn 0.000000 1.000000 0.000000
vn 0.000000 1.000000 0.000000
vn 0.000000 1.000000 0.000000
vn 0.000000 1.000000 0.000000
vn 0.000000 1.000000 0.000000
vn 0.000000 1.000000 0.000000
vn -1.000000 0.000006 -0.000004
vn -1.000000 0.000004 -0.000002
vn -1.000000 0.000003 0.000000
vn -1.000000 0.000009 -0.000004
vn -1.000000 0.000006 -0.000004
vn -1.000000 0.000003 0.000000
vn -1.000000 0.000001 0.000002
vn -1.000000 -0.000005 0.000009
vn -1.000000 0.000003 0.000000
vn -1.000000 0.000004 -0.000002
vn -1.000000 0.000001 0.000002
vn -1.000000 0.000003 0.000000
vn 1.000000 -0.000002 -0.000000
vn 1.000000 -0.000003 0.000002
vn 1.000000 -0.000007 0.000004
vn 0.000000 0.549961 -0.835190
vn 0.000000 0.018276 -0.999833
vn 0.000000 0.549959 -0.835192
vn 0.000000 0.549959 -0.835192
vn 0.000000 0.018276 -0.999833
vn 0.000000 0.018276 -0.999833
vn 1.000000 -0.000007 0.000004
vn 1.000000 -0.000012 0.000004
vn 1.000000 -0.000002 -0.000000
vn 0.000000 0.999189 -0.040261
vn 0.000000 0.549961 -0.835190
vn 0.000000 0.999189 -0.040258
vn 0.000000 0.999189 -0.040258
vn 0.000000 0.549961 -0.835190
vn 0.000000 0.549959 -0.835192
vn 0.000000 0.510153 0.860084
vn 0.000000 0.999189 -0.040261
vn 0.000000 0.510152 0.860084
vn 0.000000 0.510152 0.860084
vn 0.000000 0.999189 -0.040261
vn 0.000000 0.999189 -0.040258
vn 0.000000 -0.482966 0.875639
vn 0.000000 0.510153 0.860084
vn 0.000000 -0.482966 0.875639
vn 0.000000 -0.482966 0.875639
vn 0.000000 0.510153 0.860084
vn 0.000000 0.510152 0.860084
vn 1.000000 0.000007 -0.000009
vn 1.000000 0.000001 -0.000002
vn 1.000000 -0.000002 -0.000000
vn 0.000000 -0.997226 -0.074435
vn 0.000000 -0.482966 0.875639
vn 0.000000 -0.997226 -0.074437
vn 0.000000 -0.997226 -0.074437
vn 0.000000 -0.482966 0.875639
vn 0.000000 -0.482966 0.875639
vn 0.000000 -0.834469 -0.551055
vn 0.000000 -0.997226 -0.074435
vn 0.000000 -0.834469 -0.551054
vn 0.000000 -0.834469 -0.551054
vn 0.000000 -0.997226 -0.074435
vn 0.000000 -0.997226 -0.074437
vn 1.000000 0.000001 -0.000002
vn 1.000000 -0.000003 0.000002
vn 1.000000 -0.000002 -0.000000
vn 0.000000 0.000000 1.000000
vn 0.000000 0.000000 1.000000
vn 0.000000 0.000000 1.000000
vn 0.000000 0.000000 1.000000
vn 0.000000 0.000000 1.000000
vn 0.000000 0.000000 1.000000
vn 0.000000 0.000001 -1.000000
vn 0.000000 0.000001 -1.000000
vn 0.000000 0.000001 -1.000000
vn 0.000000 0.000001 -1.000000
vn 0.000000 0.000001 -1.000000
vn 0.000000 0.000001 -1.000000
vn 1.000000 0.000000 0.000000
vn 1.000000 0.000000 0.000000
vn 1.000000 0.000000 0.000000
vn 1.000000 0.000000 0.000000
vn 1.000000 0.000000 0.000000
vn 1.000000 0.000000 0.000000
vn -0.000000 -1.000000 0.000002
vn -0.000000 -1.000000 0.000002
vn -0.000000 -1.000000 0.000000
vn -0.000000 -1.000000 0.000000
vn -0.000000 -1.000000 0.000002
vn 0.000000 -1.000000 0.000000
vn -1.000000 0.000000 0.000000
vn -1.000000 0.000000 0.000000
vn -1.000000 0.000000 0.000000
vn -1.000000 0.000000 0.000000
vn -1.000000 0.000000 0.000000
vn -1.000000 0.000000 0.000000
vn 0.000000 1.000000 0.000000
vn 0.000000 1.000000 0.000000
vn 0.000000 1.000000 0.000000
vn 0.000000 1.000000 0.000000
vn 0.000000 1.000000 0.000000
vn 0.000000 1.000000 0.000000
vn 0.000000 -1.000000 0.000000
vn 0.000000 -1.000000 0.000000
vn 0.000000 -1.000000 0.000000
vn 0.000000 -1.000000 0.000000
vn 0.000000 -1.000000 0.000000
vn 0.000000 -1.000000 0.000000
vn 0.000000 1.000000 0.000000
vn 0.000000 1.000000 0.000000
vn 0.000000 1.000000 0.000000
vn 0.000000 1.000000 0.000000
vn 0.000000 1.000000 0.000000
vn 0.000000 1.000000 0.000000
vn 1.000000 0.000000 0.000000
vn 1.000000 0.000000 0.000000
vn 1.000000 0.000000 0.000000
vn 1.000000 0.000000 0.000000
vn 1.000000 0.000000 0.000000
vn 1.000000 0.000000 0.000000
vn -1.000000 0.000000 0.000000
vn -1.000000 0.000000 0.000000
vn -1.000000 0.000000 0.000000
vn -1.000000 0.000000 0.000000
vn -1.000000 0.000000 0.000000
vn -1.000000 0.000000 0.000000
vn 0.000000 -1.000000 0.000000
vn 0.000000 -1.000000 0.000000
vn 0.000000 -1.000000 0.000000
vn 0.000000 -1.000000 0.000000
vn 0.000000 -1.000000 0.000000
vn 0.000000 -1.000000 0.000000
vn 0.000000 1.000000 0.000000
vn 0.000000 1.000000 0.000000
vn 0.000000 1.000000 0.000000
vn 0.000000 1.000000 0.000000
vn 0.000000 1.000000 0.000000
vn 0.000000 1.000000 0.000000
vn 1.000000 0.000000 0.000000
vn 1.000000 0.000000 0.000000
vn 1.000000 0.000000 0.000000
vn 1.000000 0.000000 0.000000
vn 1.000000 0.000000 0.000000
vn 1.000000 0.000000 0.000000
vn -1.000000 0.000000 0.000000
vn -1.000000 0.000000 0.000000
vn -1.000000 0.000000 0.000000
vn -1.000000 0.000000 0.000000
vn -1.000000 0.000000 0.000000
vn -1.000000 0.000000 0.000000
vn 0.000006 0.000000 1.000000
vn 0.000011 0.000000 1.000000
vn 0.000008 0.000000 1.000000
vn 0.000008 0.000000 1.000000
vn 0.000011 0.000000 1.000000
vn 0.000013 0.000000 1.000000
vn 0.000000 1.000000 0.000000
vn 0.000000 1.000000 0.000000
vn 0.000000 1.000000 0.000000
vn 0.000000 1.000000 0.000000
vn 0.000000 1.000000 0.000000
vn 0.000000 1.000000 0.000000
vn -1.000000 0.000000 0.000000
vn -1.000000 0.000000 0.000000
vn -1.000000 0.000000 0.000000
vn -1.000000 0.000000 0.000000
vn -1.000000 0.000000 0.000000
vn -1.000000 0.000000 0.000000
vn 0.000000 -1.000000 0.000000
vn 0.000000 -1.000000 0.000000
vn 0.000000 -1.000000 0.000000
vn 0.000000 -1.000000 0.000000
vn 0.000000 -1.000000 0.000000
vn 0.000000 -1.000000 0.000000
vn -0.000013 0.000000 1.000000
vn -0.000011 0.000000 1.000000
vn -0.000008 0.000000 1.000000
vn -0.000008 0.000000 1.000000
vn -0.000011 0.000000 1.000000
vn -0.000006 0.000000 1.000000
vn 0.000000 -1.000000 0.000000
vn 0.000000 -1.000000 0.000000
vn 0.000000 -1.000000 0.000000
vn 0.000000 -1.000000 0.000000
vn 0.000000 -1.000000 0.000000
vn 0.000000 -1.000000 0.000000
vn 1.000000 0.000000 0.000000
vn 1.000000 0.000000 0.000000
vn 1.000000 0.000000 0.000000
vn 1.000000 0.000000 0.000000
vn 1.000000 0.000000 0.000000
vn 1.000000 0.000000 0.000000
vn 0.000000 1.000000 0.000000
vn 0.000000 1.000000 0.000000
vn 0.000000 1.000000 0.000000
vn 0.000000 1.000000 0.000000
vn 0.000000 1.000000 0.000000
vn 0.000000 1.000000 0.000000
vn 0.000000 -1.000000 0.000000
vn 0.000000 -1.000000 0.000000
vn 0.000000 -1.000000 0.000000
vn 0.000000 -1.000000 0.000000
s off
g SM_Desk_Cab_06a
f 6/17/1 1/34/2 5/36/3
f 5/36/4 1/34/5 2/19/6
f 7/29/7 8/30/8 5/32/9
f 5/32/10 8/30/11 6/31/12
f 11/24/13 5/20/14 9/23/15
f 9/23/16 5/20/17 2/35/18
f 9/1/19 2/2/20 10/4/21
f 10/4/22 2/2/23 4/3/24
f 12/5/25 7/6/26 11/8/27
f 11/8/28 7/6/29 5/7/30
f 1/18/31 6/33/32 13/22/33
f 13/22/34 6/33/35 15/21/36
f 15/9/37 6/10/38 16/12/39
f 16/12/40 6/10/41 8/11/42
f 14/13/43 3/14/44 13/16/45
f 13/16/46 3/14/47 1/15/48
f 7/25/49 12/26/50 8/28/51
f 8/28/52 12/26/53 16/27/54
f 20/37/55 19/38/56 17/39/57
f 21/40/58 20/37/59 17/39/60
f 23/41/61 22/42/62 17/39/63
f 19/38/64 23/41/65 17/39/66
f 18/43/67 24/44/68 25/45/69
f 25/46/70 24/47/71 20/48/72
f 20/48/73 24/47/74 19/49/75
f 25/45/76 26/50/77 18/43/78
f 26/51/79 25/46/80 21/52/81
f 21/52/82 25/46/83 20/48/84
f 18/53/85 26/51/86 17/54/87
f 17/54/88 26/51/89 21/52/90
f 27/55/91 18/53/92 22/56/93
f 22/56/94 18/53/95 17/54/96
f 27/57/97 28/58/98 18/43/99
f 28/59/100 27/55/101 23/60/102
f 23/60/103 27/55/104 22/56/105
f 24/61/106 28/59/107 19/62/108
f 19/62/109 28/59/110 23/60/111
f 28/58/112 24/44/113 18/43/114
f 31/63/115 30/64/116 32/65/117
f 32/65/118 30/64/119 29/66/120
f 35/67/121 33/68/122 36/69/123
f 36/69/124 33/68/125 34/70/126
f 33/71/127 35/72/128 29/73/129
f 29/73/130 35/72/131 32/74/132
f 33/75/133 29/76/134 34/77/135
f 34/77/136 29/76/137 30/78/138
f 30/79/139 31/80/140 34/81/141
f 34/81/142 31/80/143 36/82/144
f 35/83/145 36/84/146 32/85/147
f 32/85/148 36/84/149 31/86/150
f 37/87/151 38/88/152 39/89/153
f 39/89/154 38/88/155 40/90/156
f 41/91/157 42/92/158 43/93/159
f 43/93/160 42/92/161 44/94/162
f 38/95/163 44/96/164 40/97/165
f 40/97/166 44/96/167 42/98/168
f 43/99/169 37/100/170 41/101/171
f 41/101/172 37/100/173 39/102/174
f 45/103/175 46/104/176 47/105/177
f 47/105/178 46/104/179 48/106/180
f 49/107/181 50/108/182 51/109/183
f 51/109/184 50/108/185 52/110/186
f 46/111/187 52/112/188 48/113/189
f 48/113/190 52/112/191 50/114/192
f 51/115/193 45/116/194 49/117/195
f 49/117/196 45/116/197 47/118/198
f 56/119/199 53/120/200 55/121/201
f 55/121/202 53/120/203 54/122/204
f 53/123/205 58/124/206 54/125/207
f 54/125/208 58/124/209 60/126/210
f 54/127/211 60/128/212 55/129/213
f 55/129/214 60/128/215 59/130/216
f 55/131/217 59/132/218 56/133/219
f 56/133/220 59/132/221 57/134/222
f 62/135/223 61/136/224 63/137/225
f 63/137/226 61/136/227 64/138/228
f 66/139/229 63/140/230 67/141/231
f 67/141/232 63/140/233 64/142/234
f 65/143/235 62/144/236 66/145/237
f 66/145/238 62/144/239 63/146/240
f 61/147/241 62/148/242 68/149/243
f 68/149/244 62/148/245 65/150/246
f 10/151/247 4/152/248 3/153/249 14/154/250
