# This file uses feet as units for non-parametric coordinates.

g default
v 60.847389 4.919098 51.014313
v 61.901550 4.919098 51.014320
v 61.901550 2.676655 51.014320
v 60.847389 2.676655 51.014313
v 60.847389 2.676655 2.748652
v 60.847389 4.919098 2.748652
v 61.901550 2.676655 2.748655
v 61.901550 4.919098 2.748655
v 3.190456 4.919098 51.014313
v 2.136318 4.919098 51.014320
v 2.136318 2.676655 51.014320
v 3.190456 2.676655 51.014313
v 2.136318 4.919098 3.068949
v 2.136318 2.676655 3.068949
v 3.190456 2.676655 3.068945
v 3.190456 4.919098 3.068945
v 3.169189 7.547947 0.000000
v 60.876534 7.547947 0.000000
v 3.169189 1.040531 0.000000
v 60.876534 1.040531 0.000000
v 59.231400 7.547947 1.645130
v 4.814316 7.547947 1.645130
v 59.231400 2.670872 1.645130
v 4.814316 2.670872 1.645130
v 60.876534 7.547947 81.497055
v 60.876534 1.040531 81.497055
v 59.231400 7.547947 81.497055
v 59.231407 2.670872 81.497055
v 3.169189 7.547947 81.497055
v 3.169189 1.040531 81.497055
v 4.814316 7.547947 81.497055
v 4.814320 2.670872 81.497055
v 0.000000 0.000000 81.497040
v 64.045723 0.000004 81.497040
v 0.000004 0.000004 83.966125
v 64.045723 0.000004 83.966125
v 64.045723 9.630993 83.966125
v 0.000004 9.630993 83.966125
v 0.000000 9.630993 81.497047
v 64.045723 9.630993 81.497047
v 28.782265 4.622372 83.961700
v 27.932549 4.622372 83.961700
v 28.782265 4.622372 84.990822
v 27.932549 4.622372 84.990822
v 28.782265 5.472088 84.990822
v 27.932549 5.472088 84.990822
v 28.782265 5.472088 83.961700
v 27.932549 5.472088 83.961700
v 38.008514 5.794827 87.198364
v 26.037216 5.794827 87.198364
v 38.008514 4.566845 84.938644
v 38.008507 5.704617 84.959442
v 38.008507 6.337345 86.104492
v 38.008507 4.393772 87.257309
v 38.008514 3.800869 86.098572
v 26.037216 4.566845 84.938644
v 26.037209 5.704617 84.959442
v 26.037209 6.337345 86.104492
v 26.037209 4.393772 87.257309
v 26.037216 3.800869 86.098572
v 36.104607 4.622372 83.961700
v 35.254890 4.622372 83.961700
v 36.104607 4.622372 84.990822
v 35.254890 4.622372 84.990822
v 36.104607 5.472088 84.990822
v 35.254890 5.472088 84.990822
v 36.104607 5.472088 83.961700
v 35.254890 5.472088 83.961700
vt 0.245383 0.819918
vt 0.245383 0.965216
vt 0.238632 0.965216
vt 0.238632 0.819918
vt 0.279952 0.819884
vt 0.279952 0.964219
vt 0.273201 0.964219
vt 0.273201 0.819884
vt 0.370478 0.816881
vt 0.370478 0.962177
vt 0.367305 0.962177
vt 0.367305 0.816881
vt 0.250155 0.963939
vt 0.250155 0.818654
vt 0.253328 0.818654
vt 0.253328 0.963939
vt 0.261010 0.820105
vt 0.261010 0.964454
vt 0.257837 0.964454
vt 0.257837 0.820105
vt 0.265519 0.820972
vt 0.268692 0.820972
vt 0.268692 0.965309
vt 0.265519 0.965309
vt 0.529880 0.005444
vt 0.529880 0.012192
vt 0.526708 0.012192
vt 0.526708 0.005444
vt 0.441528 0.010447
vt 0.438364 0.010447
vt 0.438364 0.003717
vt 0.441528 0.003717
vt 0.976109 0.818343
vt 0.981062 0.813391
vt 0.976109 0.982158
vt 0.981062 0.987110
vt 0.212218 0.983208
vt 0.212218 0.819387
vt 0.226900 0.983208
vt 0.226900 0.819387
vt 0.981062 0.309775
vt 0.981062 0.550162
vt 0.976109 0.309775
vt 0.976109 0.555115
vt 0.906713 0.619454
vt 0.906713 0.864800
vt 0.887122 0.619454
vt 0.887122 0.864800
vt 0.471485 0.832569
vt 0.471485 0.592176
vt 0.486168 0.832569
vt 0.486168 0.592176
vt 0.973380 0.556675
vt 0.968427 0.551722
vt 0.973380 0.311331
vt 0.968427 0.311331
vt 0.491929 0.343718
vt 0.491929 0.584113
vt 0.477247 0.343718
vt 0.477247 0.584113
vt 0.387788 0.861852
vt 0.387788 0.616505
vt 0.407379 0.861852
vt 0.407379 0.616505
vt 0.000491 0.860970
vt 0.000491 0.620576
vt 0.164313 0.860970
vt 0.164313 0.620576
vt 0.319479 0.813143
vt 0.290485 0.813143
vt 0.319479 0.620334
vt 0.290485 0.620334
vt 0.423000 0.728865
vt 0.451994 0.728865
vt 0.423000 0.921674
vt 0.451994 0.921674
vt 0.524538 0.009813
vt 0.524538 0.038803
vt 0.517105 0.009813
vt 0.517105 0.038803
vt 0.355782 0.620040
vt 0.363215 0.620040
vt 0.355782 0.812848
vt 0.363215 0.812848
vt 0.587915 0.010002
vt 0.587915 0.038992
vt 0.580482 0.010002
vt 0.580482 0.038992
vt 0.461161 0.730257
vt 0.461161 0.923060
vt 0.453728 0.730257
vt 0.453728 0.923060
vt 0.642272 0.981219
vt 0.646284 0.981219
vt 0.642272 0.986077
vt 0.646284 0.986077
vt 0.642272 0.920386
vt 0.646283 0.920386
vt 0.642272 0.925243
vt 0.646283 0.925243
vt 0.642273 0.907270
vt 0.646283 0.907270
vt 0.642273 0.912128
vt 0.646283 0.912128
vt 0.542189 0.914149
vt 0.538185 0.914149
vt 0.542189 0.909299
vt 0.538185 0.909299
vt 0.538185 0.931924
vt 0.538190 0.926540
vt 0.548770 0.932560
vt 0.543546 0.935025
vt 0.543766 0.923024
vt 0.549188 0.925942
vt 0.729396 0.962798
vt 0.739976 0.956777
vt 0.739981 0.962162
vt 0.544980 0.844814
vt 0.550369 0.844814
vt 0.544980 0.901519
vt 0.550369 0.901519
vt 0.734620 0.965263
vt 0.538783 0.844814
vt 0.538783 0.901519
vt 0.532999 0.844814
vt 0.532999 0.901519
vt 0.526357 0.844814
vt 0.526357 0.901519
vt 0.728978 0.956179
vt 0.734400 0.953262
vt 0.520192 0.844814
vt 0.520192 0.901519
vt 0.513608 0.844814
vt 0.513608 0.901519
vt 0.642273 0.876715
vt 0.646282 0.876715
vt 0.642273 0.881572
vt 0.646282 0.881572
vt 0.642272 0.891311
vt 0.646283 0.891311
vt 0.642272 0.896168
vt 0.646283 0.896168
vt 0.731999 0.940102
vt 0.736010 0.940102
vt 0.731999 0.944959
vt 0.736010 0.944959
vt 0.561611 0.946034
vt 0.557601 0.946034
vt 0.561611 0.941177
vt 0.557601 0.941177
vt 0.151771 0.652272
vt 0.151771 0.827761
vt 0.027509 0.827761
vt 0.027509 0.652272
vn -0.000006 0.000000 1.000000
vn -0.000008 0.000000 1.000000
vn -0.000011 0.000000 1.000000
vn -0.000008 0.000000 1.000000
vn -0.000013 0.000000 1.000000
vn -0.000011 0.000000 1.000000
vn 0.000000 1.000000 0.000000
vn 0.000000 1.000000 0.000000
vn 0.000000 1.000000 0.000000
vn 0.000000 1.000000 0.000000
vn 0.000000 1.000000 0.000000
vn 0.000000 1.000000 0.000000
vn 1.000000 0.000000 0.000000
vn 1.000000 0.000000 0.000000
vn 1.000000 0.000000 0.000000
vn 1.000000 0.000000 0.000000
vn 1.000000 0.000000 0.000000
vn 1.000000 0.000000 0.000000
vn 0.000000 -1.000000 0.000000
vn 0.000000 -1.000000 0.000000
vn 0.000000 -1.000000 0.000000
vn 0.000000 -1.000000 0.000000
vn 0.000000 -1.000000 0.000000
vn 0.000000 -1.000000 0.000000
vn 0.000013 0.000000 1.000000
vn 0.000008 0.000000 1.000000
vn 0.000011 0.000000 1.000000
vn 0.000008 0.000000 1.000000
vn 0.000006 0.000000 1.000000
vn 0.000011 0.000000 1.000000
vn 0.000000 -1.000000 0.000000
vn 0.000000 -1.000000 0.000000
vn 0.000000 -1.000000 0.000000
vn 0.000000 -1.000000 0.000000
vn 0.000000 -1.000000 0.000000
vn 0.000000 -1.000000 0.000000
vn -1.000000 0.000000 0.000000
vn -1.000000 0.000000 0.000000
vn -1.000000 0.000000 0.000000
vn -1.000000 0.000000 0.000000
vn -1.000000 0.000000 0.000000
vn -1.000000 0.000000 0.000000
vn 0.000000 1.000000 0.000000
vn 0.000000 1.000000 0.000000
vn 0.000000 1.000000 0.000000
vn 0.000000 1.000000 0.000000
vn 0.000000 1.000000 0.000000
vn 0.000000 1.000000 0.000000
vn 0.000000 1.000000 -0.000000
vn 0.000000 1.000000 -0.000000
vn 0.000000 1.000000 -0.000000
vn 0.000000 1.000000 -0.000000
vn 0.000000 1.000000 0.000000
vn 0.000000 1.000000 -0.000000
vn 0.000000 0.000000 1.000000
vn 0.000000 0.000000 1.000000
vn 0.000000 0.000000 1.000000
vn 0.000000 0.000000 1.000000
vn 0.000000 0.000000 1.000000
vn 0.000000 0.000000 1.000000
vn 0.000000 1.000000 0.000000
vn 0.000000 1.000000 0.000000
vn 0.000000 1.000000 -0.000000
vn 0.000000 1.000000 0.000000
vn 0.000000 1.000000 0.000000
vn 0.000000 1.000000 -0.000000
vn 1.000000 0.000000 0.000000
vn 1.000000 0.000000 0.000000
vn 1.000000 0.000000 0.000000
vn 1.000000 0.000000 0.000000
vn 1.000000 0.000000 0.000000
vn 1.000000 0.000000 0.000000
vn -1.000000 0.000000 0.000000
vn -1.000000 0.000000 0.000000
vn -1.000000 0.000000 0.000000
vn -1.000000 0.000000 0.000000
vn -1.000000 0.000000 0.000000
vn -1.000000 0.000000 0.000000
vn 0.000000 1.000000 -0.000000
vn 0.000000 1.000000 0.000000
vn 0.000000 1.000000 -0.000000
vn 0.000000 1.000000 0.000000
vn 0.000000 1.000000 0.000000
vn 0.000000 1.000000 -0.000000
vn 1.000000 0.000001 0.000000
vn 1.000000 0.000001 -0.000000
vn 1.000000 0.000000 -0.000000
vn 1.000000 0.000001 -0.000000
vn 1.000000 0.000000 -0.000000
vn 1.000000 0.000000 -0.000000
vn -1.000000 0.000000 0.000000
vn -1.000000 0.000000 0.000000
vn -1.000000 0.000000 0.000000
vn -1.000000 0.000000 0.000000
vn -1.000000 0.000000 0.000000
vn -1.000000 0.000000 0.000000
vn 0.000000 1.000000 0.000000
vn 0.000000 1.000000 -0.000000
vn 0.000000 1.000000 -0.000000
vn 0.000000 1.000000 -0.000000
vn 0.000000 1.000000 -0.000000
vn 0.000000 1.000000 -0.000000
vn 0.000000 0.000000 1.000000
vn 0.000000 0.000000 1.000000
vn 0.000000 0.000000 1.000000
vn 0.000000 0.000000 1.000000
vn 0.000000 0.000000 1.000000
vn 0.000000 0.000000 1.000000
vn 0.000000 0.000001 -1.000000
vn 0.000000 0.000001 -1.000000
vn 0.000000 0.000001 -1.000000
vn 0.000000 0.000001 -1.000000
vn 0.000000 0.000001 -1.000000
vn 0.000000 0.000001 -1.000000
vn -1.000000 -0.000000 0.000002
vn -1.000000 -0.000000 0.000002
vn -1.000000 -0.000000 0.000002
vn -1.000000 -0.000000 0.000002
vn -1.000000 0.000000 0.000002
vn -1.000000 -0.000000 0.000002
vn 0.000000 -1.000000 0.000002
vn 0.000000 -1.000000 0.000000
vn 0.000000 -1.000000 0.000002
vn 0.000000 -1.000000 0.000000
vn 0.000000 -1.000000 0.000000
vn 0.000000 -1.000000 0.000002
vn 1.000000 0.000000 0.000000
vn 1.000000 0.000000 0.000000
vn 1.000000 0.000000 0.000000
vn 1.000000 0.000000 0.000000
vn 1.000000 0.000000 0.000000
vn 1.000000 0.000000 0.000000
vn 0.000000 1.000000 0.000000
vn 0.000000 1.000000 0.000000
vn 0.000000 1.000000 0.000000
vn 0.000000 1.000000 0.000000
vn 0.000000 1.000000 0.000000
vn 0.000000 1.000000 0.000000
vn 0.000000 -1.000000 0.000000
vn 0.000000 -1.000000 0.000000
vn 0.000000 -1.000000 0.000000
vn 0.000000 -1.000000 0.000000
vn 0.000000 -1.000000 0.000000
vn 0.000000 -1.000000 0.000000
vn 0.000000 1.000000 0.000000
vn 0.000000 1.000000 0.000000
vn 0.000000 1.000000 0.000000
vn 0.000000 1.000000 0.000000
vn 0.000000 1.000000 0.000000
vn 0.000000 1.000000 0.000000
vn -1.000000 0.000000 0.000000
vn -1.000000 0.000000 0.000000
vn -1.000000 0.000000 0.000000
vn -1.000000 0.000000 0.000000
vn -1.000000 0.000000 0.000000
vn -1.000000 0.000000 0.000000
vn 1.000000 0.000000 0.000000
vn 1.000000 0.000000 0.000000
vn 1.000000 0.000000 0.000000
vn 1.000000 0.000000 0.000000
vn 1.000000 0.000000 0.000000
vn 1.000000 0.000000 0.000000
vn 1.000000 0.000006 -0.000004
vn 1.000000 0.000003 0.000000
vn 1.000000 0.000002 -0.000002
vn 1.000000 0.000017 -0.000004
vn 1.000000 0.000003 0.000000
vn 1.000000 0.000006 -0.000004
vn 1.000000 -0.000001 0.000002
vn 1.000000 0.000003 0.000000
vn 1.000000 -0.000005 0.000009
vn 1.000000 0.000002 -0.000002
vn 1.000000 0.000003 0.000000
vn 1.000000 -0.000001 0.000002
vn -1.000000 -0.000002 -0.000000
vn -1.000000 -0.000006 0.000004
vn -1.000000 -0.000003 0.000002
vn 0.000000 0.549961 -0.835190
vn 0.000000 0.549959 -0.835191
vn 0.000000 0.018276 -0.999833
vn 0.000000 0.549959 -0.835191
vn 0.000000 0.018276 -0.999833
vn 0.000000 0.018276 -0.999833
vn -1.000000 -0.000006 0.000004
vn -1.000000 -0.000002 -0.000000
vn -1.000000 -0.000009 0.000004
vn 0.000000 0.999189 -0.040261
vn 0.000000 0.999189 -0.040258
vn 0.000000 0.549961 -0.835190
vn 0.000000 0.999189 -0.040258
vn 0.000000 0.549959 -0.835191
vn 0.000000 0.549961 -0.835190
vn 0.000000 0.510153 0.860084
vn 0.000000 0.510152 0.860084
vn 0.000000 0.999189 -0.040261
vn 0.000000 0.510152 0.860084
vn 0.000000 0.999189 -0.040258
vn 0.000000 0.999189 -0.040261
vn 0.000000 -0.482969 0.875638
vn 0.000000 -0.482969 0.875638
vn 0.000000 0.510153 0.860084
vn 0.000000 -0.482969 0.875638
vn 0.000000 0.510152 0.860084
vn 0.000000 0.510153 0.860084
vn -1.000000 0.000005 -0.000009
vn -1.000000 -0.000002 -0.000000
vn -1.000000 0.000001 -0.000002
vn 0.000000 -0.997226 -0.074435
vn 0.000000 -0.997226 -0.074438
vn 0.000000 -0.482969 0.875638
vn 0.000000 -0.997226 -0.074438
vn 0.000000 -0.482969 0.875638
vn 0.000000 -0.482969 0.875638
vn 0.000000 -0.834469 -0.551054
vn 0.000000 -0.834469 -0.551055
vn 0.000000 -0.997226 -0.074435
vn 0.000000 -0.834469 -0.551055
vn 0.000000 -0.997226 -0.074438
vn 0.000000 -0.997226 -0.074435
vn -1.000000 0.000001 -0.000002
vn -1.000000 -0.000002 -0.000000
vn -1.000000 -0.000003 0.000002
vn 0.000000 -1.000000 0.000000
vn 0.000000 -1.000000 0.000000
vn 0.000000 -1.000000 0.000000
vn 0.000000 -1.000000 0.000000
vn 0.000000 -1.000000 0.000000
vn 0.000000 -1.000000 0.000000
vn 0.000000 1.000000 0.000000
vn 0.000000 1.000000 0.000000
vn 0.000000 1.000000 0.000000
vn 0.000000 1.000000 0.000000
vn 0.000000 1.000000 0.000000
vn 0.000000 1.000000 0.000000
vn -1.000000 0.000000 0.000000
vn -1.000000 0.000000 0.000000
vn -1.000000 0.000000 0.000000
vn -1.000000 0.000000 0.000000
vn -1.000000 0.000000 0.000000
vn -1.000000 0.000000 0.000000
vn 1.000000 0.000000 0.000000
vn 1.000000 0.000000 0.000000
vn 1.000000 0.000000 0.000000
vn 1.000000 0.000000 0.000000
vn 1.000000 0.000000 0.000000
vn 1.000000 0.000000 0.000000
vn 0.000000 -1.000000 0.000000
vn 0.000000 -1.000000 0.000000
vn 0.000000 -1.000000 0.000000
vn 0.000000 -1.000000 0.000000
s off
g SM_Desk_Cab_06d
f 4/25/1 3/28/2 1/26/3
f 3/28/4 2/27/5 1/26/6
f 1/9/7 2/12/8 6/10/9
f 2/12/10 8/11/11 6/10/12
f 2/1/13 3/4/14 8/2/15
f 3/4/16 7/3/17 8/2/18
f 3/13/19 4/16/20 7/14/21
f 4/16/22 5/15/23 7/14/24
f 10/29/25 11/32/26 9/30/27
f 11/32/28 12/31/29 9/30/30
f 14/17/31 15/20/32 11/18/33
f 15/20/34 12/19/35 11/18/36
f 13/5/37 14/8/38 10/6/39
f 14/8/40 11/7/41 10/6/42
f 9/21/43 16/24/44 10/22/45
f 16/24/46 13/23/47 10/22/48
f 22/33/49 21/35/50 17/34/51
f 21/35/52 18/36/53 17/34/54
f 23/37/55 21/39/56 24/38/57
f 21/39/58 22/40/59 24/38/60
f 27/41/61 25/43/62 21/42/63
f 25/43/64 18/44/65 21/42/66
f 25/45/67 26/47/68 18/46/69
f 26/47/70 20/48/71 18/46/72
f 28/49/73 27/51/74 23/50/75
f 27/51/76 21/52/77 23/50/78
f 17/53/79 29/55/80 22/54/81
f 29/55/82 31/56/83 22/54/84
f 31/57/85 32/59/86 22/58/87
f 32/59/88 24/60/89 22/58/90
f 30/61/91 29/63/92 19/62/93
f 29/63/94 17/64/95 19/62/96
f 23/65/97 24/67/98 28/66/99
f 24/67/100 32/68/101 28/66/102
f 37/69/103 38/71/104 36/70/105
f 38/71/106 35/72/107 36/70/108
f 39/73/109 40/75/110 33/74/111
f 40/75/112 34/76/113 33/74/114
f 33/77/115 35/79/116 39/78/117
f 35/79/118 38/80/119 39/78/120
f 33/81/121 34/83/122 35/82/123
f 34/83/124 36/84/125 35/82/126
f 36/85/127 34/87/128 37/86/129
f 34/87/130 40/88/131 37/86/132
f 39/89/133 38/91/134 40/90/135
f 38/91/136 37/92/137 40/90/138
f 41/93/139 43/95/140 42/94/141
f 43/95/142 44/96/143 42/94/144
f 45/97/145 47/99/146 46/98/147
f 47/99/148 48/100/149 46/98/150
f 42/101/151 44/103/152 48/102/153
f 44/103/154 46/104/155 48/102/156
f 47/105/157 45/107/158 41/106/159
f 45/107/160 43/108/161 41/106/162
f 52/109/163 49/111/164 51/110/165
f 53/112/166 49/111/167 52/109/168
f 55/113/169 49/111/170 54/114/171
f 51/110/172 49/111/173 55/113/174
f 50/115/175 57/117/176 56/116/177
f 57/118/178 52/120/179 56/119/180
f 52/120/181 51/121/182 56/119/183
f 57/117/184 50/115/185 58/122/186
f 58/123/187 53/124/188 57/118/189
f 53/124/190 52/120/191 57/118/192
f 50/125/193 49/126/194 58/123/195
f 49/126/196 53/124/197 58/123/198
f 59/127/199 54/128/200 50/125/201
f 54/128/202 49/126/203 50/125/204
f 59/129/205 50/115/206 60/130/207
f 60/131/208 55/132/209 59/127/210
f 55/132/211 54/128/212 59/127/213
f 56/133/214 51/134/215 60/131/216
f 51/134/217 55/132/218 60/131/219
f 60/130/220 50/115/221 56/116/222
f 61/135/223 63/137/224 62/136/225
f 63/137/226 64/138/227 62/136/228
f 65/139/229 67/141/230 66/140/231
f 67/141/232 68/142/233 66/140/234
f 62/143/235 64/145/236 68/144/237
f 64/145/238 66/146/239 68/144/240
f 67/147/241 65/149/242 61/148/243
f 65/149/244 63/150/245 61/148/246
f 26/151/247 30/154/248 19/153/249 20/152/250
