# This file uses feet as units for non-parametric coordinates.

g default
v 35.263451 9.169701 83.939178
v 36.113167 9.169701 83.939178
v 35.263451 9.169701 84.968292
v 36.113167 9.169701 84.968292
v 35.263451 10.019417 84.968292
v 36.113167 10.019417 84.968292
v 35.263451 10.019417 83.939178
v 36.113167 10.019417 83.939178
v 26.037201 10.342155 87.175835
v 38.008499 10.342155 87.175835
v 26.037201 9.114174 84.916122
v 26.037209 10.251945 84.936920
v 26.037209 10.884674 86.081970
v 26.037209 8.941101 87.234787
v 26.037201 8.348198 86.076050
v 38.008499 9.114174 84.916122
v 38.008507 10.251945 84.936920
v 38.008507 10.884674 86.081970
v 38.008507 8.941101 87.234787
v 38.008499 8.348198 86.076050
v 27.941109 9.169701 83.939178
v 28.790825 9.169701 83.939178
v 27.941109 9.169701 84.968292
v 28.790825 9.169701 84.968292
v 27.941109 10.019417 84.968292
v 28.790825 10.019417 84.968292
v 27.941109 10.019417 83.939178
v 28.790825 10.019417 83.939178
v 3.198326 12.283928 51.014313
v 2.144165 12.283928 51.014320
v 2.144165 10.041485 51.014320
v 3.198326 10.041485 51.014313
v 3.198326 10.041485 2.748652
v 3.198326 12.283928 2.748652
v 2.144165 10.041485 2.748655
v 2.144165 12.283928 2.748655
v 60.876526 15.777962 0.000000
v 3.169182 15.777962 0.000000
v 60.876526 2.042274 0.000000
v 3.169182 2.042274 0.000000
v 4.814316 15.777962 1.645130
v 59.231400 15.777962 1.645130
v 4.814316 5.483555 1.645130
v 59.231400 5.483555 1.645130
v 3.169182 15.777962 81.497055
v 3.169182 2.042274 81.497055
v 4.814316 15.777962 81.497055
v 4.814308 5.483555 81.497055
v 60.876526 15.777962 81.497055
v 60.876526 2.042274 81.497055
v 59.231400 15.777962 81.497055
v 59.231396 5.483555 81.497055
v 64.045715 19.261971 81.497055
v 0.000000 19.261971 81.497055
v 0.000000 19.261971 83.966125
v -0.000008 0.000000 81.497040
v 64.045715 0.000004 81.497040
v 0.000000 0.000004 83.966125
v 64.045715 0.000004 83.966125
v 64.045715 19.261971 83.966125
v 60.855259 12.283928 51.014313
v 61.909397 12.283928 51.014320
v 61.909397 10.041485 51.014320
v 60.855259 10.041485 51.014313
v 61.909397 12.283928 3.068949
v 61.909397 10.041485 3.068949
v 60.855259 10.041485 3.068945
v 60.855259 12.283928 3.068945
vt 0.642272 0.967769
vt 0.646283 0.967769
vt 0.642272 0.972627
vt 0.646283 0.972627
vt 0.518544 0.943726
vt 0.522554 0.943726
vt 0.518544 0.948583
vt 0.522554 0.948583
vt 0.642273 0.950424
vt 0.646282 0.950424
vt 0.642273 0.955282
vt 0.646282 0.955282
vt 0.646283 0.864619
vt 0.642273 0.864619
vt 0.646283 0.859762
vt 0.642273 0.859762
vt 0.744087 0.961713
vt 0.744092 0.956329
vt 0.754672 0.962349
vt 0.749447 0.964814
vt 0.749667 0.952813
vt 0.755090 0.955730
vt 0.714286 0.962879
vt 0.724866 0.956858
vt 0.724873 0.962243
vt 0.623545 0.843871
vt 0.628935 0.843871
vt 0.623545 0.900575
vt 0.628935 0.900575
vt 0.719511 0.965343
vt 0.617348 0.843871
vt 0.617348 0.900575
vt 0.611565 0.843871
vt 0.611565 0.900575
vt 0.604923 0.843871
vt 0.604923 0.900575
vt 0.713869 0.956260
vt 0.719292 0.953342
vt 0.598758 0.843871
vt 0.598758 0.900575
vt 0.592174 0.843871
vt 0.592174 0.900575
vt 0.725956 0.939644
vt 0.729966 0.939644
vt 0.725956 0.944500
vt 0.729966 0.944500
vt 0.741064 0.939898
vt 0.745075 0.939898
vt 0.741064 0.944755
vt 0.745075 0.944755
vt 0.719912 0.940870
vt 0.723922 0.940870
vt 0.719912 0.945727
vt 0.723922 0.945727
vt 0.711835 0.948539
vt 0.707825 0.948539
vt 0.711835 0.943682
vt 0.707825 0.943682
vt 0.529880 0.005444
vt 0.529880 0.012192
vt 0.526708 0.005444
vt 0.526708 0.012192
vt 0.370478 0.816881
vt 0.370478 0.962177
vt 0.367305 0.816881
vt 0.367305 0.962177
vt 0.245383 0.819918
vt 0.245383 0.965216
vt 0.238632 0.819918
vt 0.238632 0.965216
vt 0.250155 0.963939
vt 0.250155 0.818654
vt 0.253328 0.963939
vt 0.253328 0.818654
vt 0.976109 0.818343
vt 0.981062 0.813391
vt 0.976109 0.982158
vt 0.981062 0.987110
vt 0.204063 0.983208
vt 0.204063 0.819387
vt 0.235054 0.983208
vt 0.235054 0.819387
vt 0.981062 0.309775
vt 0.981062 0.550162
vt 0.976109 0.309775
vt 0.976109 0.555115
vt 0.917593 0.619454
vt 0.917593 0.864800
vt 0.876242 0.619454
vt 0.876242 0.864800
vt 0.463331 0.832569
vt 0.463331 0.592176
vt 0.494322 0.832569
vt 0.494322 0.592176
vt 0.973380 0.556675
vt 0.968427 0.551722
vt 0.973380 0.311331
vt 0.968427 0.311331
vt 0.500084 0.343718
vt 0.500084 0.584113
vt 0.469092 0.343718
vt 0.469092 0.584113
vt 0.376908 0.861852
vt 0.376908 0.616505
vt 0.418259 0.861852
vt 0.418259 0.616505
vt 0.689952 0.644554
vt 0.697385 0.644554
vt 0.689952 0.837361
vt 0.697385 0.837361
vt 0.672667 0.644152
vt 0.680101 0.644152
vt 0.672667 0.836959
vt 0.680101 0.836959
vt 0.419159 0.037153
vt 0.426592 0.037153
vt 0.419159 0.095138
vt 0.426592 0.095138
vt 0.920414 0.812315
vt 0.920414 0.619505
vt 0.978402 0.812315
vt 0.978402 0.619505
vt 0.507503 0.022777
vt 0.514935 0.022777
vt 0.507503 0.080761
vt 0.514935 0.080761
vt 0.229030 0.619509
vt 0.287018 0.619509
vt 0.229030 0.812318
vt 0.287018 0.812318
vt 0.441528 0.010447
vt 0.438364 0.010447
vt 0.441528 0.003717
vt 0.438364 0.003717
vt 0.261010 0.820105
vt 0.261010 0.964454
vt 0.257837 0.820105
vt 0.257837 0.964454
vt 0.279952 0.819884
vt 0.279952 0.964219
vt 0.273201 0.819884
vt 0.273201 0.964219
vt 0.265519 0.820972
vt 0.268692 0.820972
vt 0.265519 0.965309
vt 0.268692 0.965309
vt 0.000491 0.860970
vt 0.000491 0.620576
vt 0.164313 0.860970
vt 0.164313 0.620576
vt 0.151771 0.652273
vt 0.151771 0.827761
vt 0.027509 0.827761
vt 0.027509 0.652273
vn 0.000000 -1.000000 0.000000
vn 0.000000 -1.000000 0.000000
vn 0.000000 -1.000000 0.000000
vn 0.000000 -1.000000 0.000000
vn 0.000000 -1.000000 0.000000
vn 0.000000 -1.000000 0.000000
vn 0.000000 1.000000 0.000000
vn 0.000000 1.000000 0.000000
vn 0.000000 1.000000 0.000000
vn 0.000000 1.000000 0.000000
vn 0.000000 1.000000 0.000000
vn 0.000000 1.000000 0.000000
vn 1.000000 0.000000 0.000000
vn 1.000000 0.000000 0.000000
vn 1.000000 0.000000 0.000000
vn 1.000000 0.000000 0.000000
vn 1.000000 0.000000 0.000000
vn 1.000000 0.000000 0.000000
vn -1.000000 0.000000 0.000000
vn -1.000000 0.000000 0.000000
vn -1.000000 0.000000 0.000000
vn -1.000000 0.000000 0.000000
vn -1.000000 0.000000 0.000000
vn -1.000000 0.000000 0.000000
vn -1.000000 0.000006 -0.000004
vn -1.000000 0.000004 -0.000002
vn -1.000000 0.000003 0.000000
vn -1.000000 0.000009 -0.000004
vn -1.000000 0.000006 -0.000004
vn -1.000000 0.000003 0.000000
vn -1.000000 0.000001 0.000002
vn -1.000000 -0.000005 0.000009
vn -1.000000 0.000003 0.000000
vn -1.000000 0.000004 -0.000002
vn -1.000000 0.000001 0.000002
vn -1.000000 0.000003 0.000000
vn 1.000000 -0.000002 -0.000000
vn 1.000000 -0.000003 0.000002
vn 1.000000 -0.000007 0.000004
vn 0.000000 0.549962 -0.835190
vn 0.000000 0.018276 -0.999833
vn 0.000000 0.549959 -0.835192
vn 0.000000 0.549959 -0.835192
vn 0.000000 0.018276 -0.999833
vn 0.000000 0.018276 -0.999833
vn 1.000000 -0.000007 0.000004
vn 1.000000 -0.000012 0.000004
vn 1.000000 -0.000002 -0.000000
vn 0.000000 0.999189 -0.040261
vn 0.000000 0.549962 -0.835190
vn 0.000000 0.999189 -0.040258
vn 0.000000 0.999189 -0.040258
vn 0.000000 0.549962 -0.835190
vn 0.000000 0.549959 -0.835192
vn 0.000000 0.510153 0.860084
vn 0.000000 0.999189 -0.040261
vn 0.000000 0.510153 0.860084
vn 0.000000 0.510153 0.860084
vn 0.000000 0.999189 -0.040261
vn 0.000000 0.999189 -0.040258
vn 0.000000 -0.482966 0.875639
vn 0.000000 0.510153 0.860084
vn 0.000000 -0.482966 0.875639
vn 0.000000 -0.482966 0.875639
vn 0.000000 0.510153 0.860084
vn 0.000000 0.510153 0.860084
vn 1.000000 0.000007 -0.000009
vn 1.000000 0.000001 -0.000002
vn 1.000000 -0.000002 -0.000000
vn 0.000000 -0.997226 -0.074435
vn 0.000000 -0.482966 0.875639
vn 0.000000 -0.997226 -0.074437
vn 0.000000 -0.997226 -0.074437
vn 0.000000 -0.482966 0.875639
vn 0.000000 -0.482966 0.875639
vn 0.000000 -0.834469 -0.551055
vn 0.000000 -0.997226 -0.074435
vn 0.000000 -0.834469 -0.551054
vn 0.000000 -0.834469 -0.551054
vn 0.000000 -0.997226 -0.074435
vn 0.000000 -0.997226 -0.074437
vn 1.000000 0.000001 -0.000002
vn 1.000000 -0.000003 0.000002
vn 1.000000 -0.000002 -0.000000
vn 0.000000 -1.000000 0.000000
vn 0.000000 -1.000000 0.000000
vn 0.000000 -1.000000 0.000000
vn 0.000000 -1.000000 0.000000
vn 0.000000 -1.000000 0.000000
vn 0.000000 -1.000000 0.000000
vn 0.000000 1.000000 0.000000
vn 0.000000 1.000000 0.000000
vn 0.000000 1.000000 0.000000
vn 0.000000 1.000000 0.000000
vn 0.000000 1.000000 0.000000
vn 0.000000 1.000000 0.000000
vn 1.000000 0.000000 0.000000
vn 1.000000 0.000000 0.000000
vn 1.000000 0.000000 0.000000
vn 1.000000 0.000000 0.000000
vn 1.000000 0.000000 0.000000
vn 1.000000 0.000000 0.000000
vn -1.000000 0.000000 0.000000
vn -1.000000 0.000000 0.000000
vn -1.000000 0.000000 0.000000
vn -1.000000 0.000000 0.000000
vn -1.000000 0.000000 0.000000
vn -1.000000 0.000000 0.000000
vn 0.000006 0.000000 1.000000
vn 0.000011 0.000000 1.000000
vn 0.000008 0.000000 1.000000
vn 0.000008 0.000000 1.000000
vn 0.000011 0.000000 1.000000
vn 0.000013 0.000000 1.000000
vn 0.000000 1.000000 0.000000
vn 0.000000 1.000000 0.000000
vn 0.000000 1.000000 0.000000
vn 0.000000 1.000000 0.000000
vn 0.000000 1.000000 0.000000
vn 0.000000 1.000000 0.000000
vn -1.000000 0.000000 0.000000
vn -1.000000 0.000000 0.000000
vn -1.000000 0.000000 0.000000
vn -1.000000 0.000000 0.000000
vn -1.000000 0.000000 0.000000
vn -1.000000 0.000000 0.000000
vn 0.000000 -1.000000 0.000000
vn 0.000000 -1.000000 0.000000
vn 0.000000 -1.000000 0.000000
vn 0.000000 -1.000000 0.000000
vn 0.000000 -1.000000 0.000000
vn 0.000000 -1.000000 0.000000
vn 0.000000 1.000000 0.000001
vn 0.000000 1.000000 0.000001
vn 0.000000 1.000000 -0.000000
vn 0.000000 1.000000 -0.000000
vn 0.000000 1.000000 0.000001
vn 0.000000 1.000000 -0.000000
vn 0.000000 0.000000 1.000000
vn 0.000000 0.000000 1.000000
vn 0.000000 0.000000 1.000000
vn 0.000000 0.000000 1.000000
vn 0.000000 0.000000 1.000000
vn 0.000000 0.000000 1.000000
vn 0.000000 1.000000 0.000000
vn 0.000000 1.000000 -0.000000
vn 0.000000 1.000000 0.000000
vn 0.000000 1.000000 0.000000
vn 0.000000 1.000000 -0.000000
vn 0.000000 1.000000 -0.000000
vn -1.000000 0.000000 0.000000
vn -1.000000 0.000000 0.000000
vn -1.000000 0.000000 0.000000
vn -1.000000 0.000000 0.000000
vn -1.000000 0.000000 0.000000
vn -1.000000 0.000000 0.000000
vn 1.000000 -0.000001 0.000000
vn 1.000000 -0.000000 0.000000
vn 1.000000 -0.000001 0.000000
vn 1.000000 -0.000001 0.000000
vn 1.000000 -0.000000 0.000000
vn 1.000000 0.000000 0.000000
vn 0.000000 1.000000 0.000001
vn 0.000000 1.000000 0.000001
vn 0.000000 1.000000 0.000000
vn 0.000000 1.000000 0.000000
vn 0.000000 1.000000 0.000001
vn 0.000000 1.000000 0.000000
vn -1.000000 0.000000 0.000000
vn -1.000000 0.000000 -0.000000
vn -1.000000 0.000000 -0.000000
vn -1.000000 0.000000 -0.000000
vn -1.000000 0.000000 -0.000000
vn -1.000000 0.000000 -0.000000
vn 1.000000 0.000000 0.000000
vn 1.000000 0.000000 0.000000
vn 1.000000 0.000000 0.000000
vn 1.000000 0.000000 0.000000
vn 1.000000 0.000000 0.000000
vn 1.000000 0.000000 0.000000
vn 0.000000 1.000000 0.000000
vn 0.000000 1.000000 0.000000
vn 0.000000 1.000000 0.000000
vn 0.000000 1.000000 0.000000
vn 0.000000 1.000000 0.000000
vn 0.000000 1.000000 0.000000
vn 0.000000 -1.000000 0.000000
vn 0.000000 -1.000000 0.000000
vn 0.000000 -1.000000 0.000002
vn 0.000000 -1.000000 0.000002
vn 0.000000 -1.000000 0.000000
vn 0.000000 -1.000000 0.000002
vn -1.000000 0.000000 0.000003
vn -1.000000 0.000000 0.000003
vn -1.000000 0.000000 0.000000
vn -1.000000 0.000000 0.000000
vn -1.000000 0.000000 0.000003
vn -1.000000 0.000000 0.000000
vn 0.000000 0.000001 -1.000000
vn 0.000000 0.000001 -1.000000
vn 0.000000 0.000001 -1.000000
vn 0.000000 0.000001 -1.000000
vn 0.000000 0.000001 -1.000000
vn 0.000000 0.000001 -1.000000
vn 1.000000 0.000000 0.000000
vn 1.000000 0.000000 0.000000
vn 1.000000 0.000000 0.000000
vn 1.000000 0.000000 0.000000
vn 1.000000 0.000000 0.000000
vn 1.000000 0.000000 0.000000
vn 0.000000 0.000000 1.000000
vn 0.000000 0.000000 1.000000
vn 0.000000 0.000000 1.000000
vn 0.000000 0.000000 1.000000
vn 0.000000 0.000000 1.000000
vn 0.000000 0.000000 1.000000
vn -0.000013 0.000000 1.000000
vn -0.000011 0.000000 1.000000
vn -0.000008 0.000000 1.000000
vn -0.000008 0.000000 1.000000
vn -0.000011 0.000000 1.000000
vn -0.000006 0.000000 1.000000
vn 0.000000 -1.000000 0.000000
vn 0.000000 -1.000000 0.000000
vn 0.000000 -1.000000 0.000000
vn 0.000000 -1.000000 0.000000
vn 0.000000 -1.000000 0.000000
vn 0.000000 -1.000000 0.000000
vn 1.000000 0.000000 0.000000
vn 1.000000 0.000000 0.000000
vn 1.000000 0.000000 0.000000
vn 1.000000 0.000000 0.000000
vn 1.000000 0.000000 0.000000
vn 1.000000 0.000000 0.000000
vn 0.000000 1.000000 0.000000
vn 0.000000 1.000000 0.000000
vn 0.000000 1.000000 0.000000
vn 0.000000 1.000000 0.000000
vn 0.000000 1.000000 0.000000
vn 0.000000 1.000000 0.000000
vn 0.000000 1.000000 -0.000000
vn 0.000000 1.000000 -0.000000
vn 0.000000 1.000000 -0.000000
vn 0.000000 1.000000 -0.000000
vn 0.000000 1.000000 -0.000000
vn 0.000000 1.000000 0.000000
vn 0.000000 -1.000000 0.000000
vn 0.000000 -1.000000 0.000000
vn 0.000000 -1.000000 0.000000
vn 0.000000 -1.000000 0.000000
s off
g SM_Desk_Cab_06c
f 1/1/1 2/2/2 3/3/3
f 3/3/4 2/2/5 4/4/6
f 5/5/7 6/6/8 7/7/9
f 7/7/10 6/6/11 8/8/12
f 2/9/13 8/10/14 4/11/15
f 4/11/16 8/10/17 6/12/18
f 7/13/19 1/14/20 5/15/21
f 5/15/22 1/14/23 3/16/24
f 12/17/25 11/18/26 9/19/27
f 13/20/28 12/17/29 9/19/30
f 15/21/31 14/22/32 9/19/33
f 11/18/34 15/21/35 9/19/36
f 10/23/37 16/24/38 17/25/39
f 17/26/40 16/27/41 12/28/42
f 12/28/43 16/27/44 11/29/45
f 17/25/46 18/30/47 10/23/48
f 18/31/49 17/26/50 13/32/51
f 13/32/52 17/26/53 12/28/54
f 10/33/55 18/31/56 9/34/57
f 9/34/58 18/31/59 13/32/60
f 19/35/61 10/33/62 14/36/63
f 14/36/64 10/33/65 9/34/66
f 19/37/67 20/38/68 10/23/69
f 20/39/70 19/35/71 15/40/72
f 15/40/73 19/35/74 14/36/75
f 16/41/76 20/39/77 11/42/78
f 11/42/79 20/39/80 15/40/81
f 20/38/82 16/24/83 10/23/84
f 21/43/85 22/44/86 23/45/87
f 23/45/88 22/44/89 24/46/90
f 25/47/91 26/48/92 27/49/93
f 27/49/94 26/48/95 28/50/96
f 22/51/97 28/52/98 24/53/99
f 24/53/100 28/52/101 26/54/102
f 27/55/103 21/56/104 25/57/105
f 25/57/106 21/56/107 23/58/108
f 32/59/109 29/60/110 31/61/111
f 31/61/112 29/60/113 30/62/114
f 29/63/115 34/64/116 30/65/117
f 30/65/118 34/64/119 36/66/120
f 30/67/121 36/68/122 31/69/123
f 31/69/124 36/68/125 35/70/126
f 31/71/127 35/72/128 32/73/129
f 32/73/130 35/72/131 33/74/132
f 42/75/133 37/76/134 41/77/135
f 41/77/136 37/76/137 38/78/138
f 43/79/139 44/80/140 41/81/141
f 41/81/142 44/80/143 42/82/144
f 47/83/145 41/84/146 45/85/147
f 45/85/148 41/84/149 38/86/150
f 45/87/151 38/88/152 46/89/153
f 46/89/154 38/88/155 40/90/156
f 48/91/157 43/92/158 47/93/159
f 47/93/160 43/92/161 41/94/162
f 37/95/163 42/96/164 49/97/165
f 49/97/166 42/96/167 51/98/168
f 51/99/169 42/100/170 52/101/171
f 52/101/172 42/100/173 44/102/174
f 50/103/175 39/104/176 49/105/177
f 49/105/178 39/104/179 37/106/180
f 60/107/181 53/108/182 55/109/183
f 55/109/184 53/108/185 54/110/186
f 57/111/187 59/112/188 56/113/189
f 56/113/190 59/112/191 58/114/192
f 56/115/193 58/116/194 54/117/195
f 54/117/196 58/116/197 55/118/198
f 54/119/199 53/120/200 56/121/201
f 56/121/202 53/120/203 57/122/204
f 59/123/205 57/124/206 60/125/207
f 60/125/208 57/124/209 53/126/210
f 59/127/211 60/128/212 58/129/213
f 58/129/214 60/128/215 55/130/216
f 62/131/217 61/132/218 63/133/219
f 63/133/220 61/132/221 64/134/222
f 66/135/223 63/136/224 67/137/225
f 67/137/226 63/136/227 64/138/228
f 65/139/229 62/140/230 66/141/231
f 66/141/232 62/140/233 63/142/234
f 61/143/235 62/144/236 68/145/237
f 68/145/238 62/144/239 65/146/240
f 43/147/241 48/148/242 44/149/243
f 44/149/244 48/148/245 52/150/246
f 46/151/247 40/152/248 39/153/249 50/154/250
