# This file uses feet as units for non-parametric coordinates.

g default
v 0.000001 -0.000000 -15.000000
v -2.346517 -0.000000 -14.815327
v -4.635254 -0.000000 -14.265848
v -6.809857 -0.000000 -13.365099
v -8.816777 -0.000000 -12.135256
v -10.606602 0.000000 -10.606602
v -12.135254 -0.000000 -8.816778
v -13.365097 0.000000 -6.809858
v -14.265848 0.000000 -4.635255
v -14.815325 0.000000 -2.346517
v -15.000000 0.000000 0.000002
v -14.815325 0.000000 2.346519
v -14.265846 0.000000 4.635259
v -13.365095 0.000000 6.809862
v -12.135252 -0.000000 8.816783
v -10.606597 0.000000 10.606606
v -8.816772 -0.000000 12.135260
v -6.809850 -0.000000 13.365103
v -4.635246 -0.000000 14.265851
v -2.346506 -0.000000 14.815328
v 0.000011 -0.000000 15.000000
v 2.346529 -0.000000 14.815323
v 4.635268 -0.000000 14.265843
v 6.809871 -0.000000 13.365091
v 8.816792 0.000000 12.135246
v 10.606613 0.000000 10.606590
v 12.135265 0.000000 8.816766
v 13.365105 0.000000 6.809841
v 14.265854 0.000000 4.635237
v 14.815329 0.000000 2.346497
v 15.000000 -0.000000 -0.000021
v 14.815322 0.000000 -2.346539
v 14.265841 0.000000 -4.635277
v 13.365088 0.000000 -6.809878
v 12.135241 0.000000 -8.816799
v 10.606583 0.000000 -10.606621
v 8.816757 0.000000 -12.135271
v 6.809833 -0.000000 -13.365110
v 4.635227 -0.000000 -14.265856
v 2.346488 -0.000000 -14.815329
v -0.212752 0.000000 -0.249102
v -0.318537 0.000000 -0.076475
v -0.302652 0.000000 0.125361
v -0.171164 0.000000 0.279314
v 0.025703 0.000000 0.326577
v 0.212752 0.000000 0.249099
v 0.318537 0.000000 0.076472
v 0.302652 0.000000 -0.125365
v 0.171164 0.000000 -0.279317
v -0.025703 0.000000 -0.326580
v -0.212752 0.197213 -0.249102
v -0.318537 0.197213 -0.076475
v -0.302652 0.197213 0.125361
v -0.171164 0.197213 0.279314
v 0.025703 0.197213 0.326577
v 0.212752 0.197213 0.249099
v 0.318537 0.197213 0.076472
v 0.302652 0.197213 -0.125365
v 0.171164 0.197213 -0.279317
v -0.025703 0.197213 -0.326580
v -0.008033 0.000000 -4.790008
v -0.741388 0.000000 -4.732291
v -1.456686 0.000000 -4.560564
v -2.194772 0.000000 -4.254838
v -2.821993 0.000000 -3.870477
v -3.381365 0.000000 -3.392727
v -3.859114 0.000000 -2.833355
v -4.276537 0.000000 -2.152183
v -4.558048 0.000000 -1.472556
v -4.729776 0.000000 -0.757257
v -4.787492 0.000000 -0.023902
v -4.724811 0.000000 0.772534
v -4.553083 0.000000 1.487832
v -4.271572 0.000000 2.167459
v -3.887210 0.000000 2.794681
v -3.368367 0.000000 3.402168
v -2.808994 0.000000 3.879917
v -2.181772 0.000000 4.264279
v -1.502144 0.000000 4.545789
v -0.725319 0.000000 4.732288
v 0.008036 0.000000 4.790003
v 0.741392 0.000000 4.732286
v 1.456690 0.000000 4.560558
v 2.194775 0.000000 4.254832
v 2.821997 0.000000 3.870470
v 3.381369 0.000000 3.392720
v 3.859118 0.000000 2.833347
v 4.276540 0.000000 2.152174
v 4.558050 0.000000 1.472546
v 4.729777 0.000000 0.757247
v 4.787492 0.000000 0.023891
v 4.724810 0.000000 -0.772544
v 4.553081 0.000000 -1.487842
v 4.271569 0.000000 -2.167468
v 3.887206 0.000000 -2.794689
v 3.368362 0.000000 -3.402176
v 2.808989 0.000000 -3.879924
v 2.181766 0.000000 -4.264285
v 1.502138 0.000000 -4.545794
v 0.725313 0.000000 -4.732291
v 0.000001 0.197214 -15.000000
v -2.346517 0.197214 -14.815327
v -4.635254 0.197214 -14.265848
v -6.809857 0.197214 -13.365099
v -8.816777 0.197214 -12.135256
v -10.606602 0.197213 -10.606602
v -12.135254 0.197214 -8.816778
v -13.365097 0.197213 -6.809858
v -14.265848 0.197213 -4.635255
v -14.815325 0.197213 -2.346517
v -15.000000 0.197213 0.000002
v -14.815325 0.197213 2.346519
v -14.265846 0.197213 4.635259
v -13.365095 0.197213 6.809862
v -12.135252 0.197214 8.816783
v -10.606597 0.197213 10.606606
v -8.816772 0.197214 12.135260
v -6.809850 0.197214 13.365103
v -4.635246 0.197214 14.265851
v -2.346506 0.197214 14.815328
v 0.000011 0.197214 15.000000
v 2.346529 0.197214 14.815323
v 4.635268 0.197214 14.265843
v 6.809871 0.197214 13.365091
v 8.816792 0.197213 12.135246
v 10.606613 0.197213 10.606590
v 12.135265 0.197213 8.816766
v 13.365105 0.197213 6.809841
v 14.265854 0.197213 4.635237
v 14.815329 0.197213 2.346497
v 15.000000 0.197214 -0.000021
v 14.815322 0.197213 -2.346539
v 14.265841 0.197213 -4.635277
v 13.365088 0.197213 -6.809878
v 12.135241 0.197213 -8.816799
v 10.606583 0.197213 -10.606621
v 8.816757 0.197213 -12.135271
v 6.809833 0.197214 -13.365110
v 4.635227 0.197214 -14.265856
v 2.346488 0.197214 -14.815329
v -0.008033 0.197213 -4.790008
v -0.741388 0.197213 -4.732291
v -1.456686 0.197213 -4.560564
v -2.194772 0.197213 -4.254838
v -2.821993 0.197213 -3.870477
v -3.381365 0.197213 -3.392727
v -3.859114 0.197213 -2.833355
v -4.276537 0.197213 -2.152183
v -4.558048 0.197213 -1.472556
v -4.729776 0.197213 -0.757257
v -4.787492 0.197213 -0.023902
v -4.724811 0.197213 0.772534
v -4.553083 0.197213 1.487832
v -4.271572 0.197213 2.167459
v -3.887210 0.197213 2.794681
v -3.368367 0.197213 3.402168
v -2.808994 0.197213 3.879917
v -2.181772 0.197213 4.264279
v -1.502144 0.197213 4.545789
v -0.725319 0.197213 4.732288
v 0.008036 0.197213 4.790003
v 0.741392 0.197213 4.732286
v 1.456690 0.197213 4.560558
v 2.194775 0.197213 4.254832
v 2.821997 0.197213 3.870470
v 3.381369 0.197213 3.392720
v 3.859118 0.197213 2.833347
v 4.276540 0.197213 2.152174
v 4.558050 0.197213 1.472546
v 4.729777 0.197213 0.757247
v 4.787492 0.197213 0.023891
v 4.724810 0.197213 -0.772544
v 4.553081 0.197213 -1.487842
v 4.271569 0.197213 -2.167468
v 3.887206 0.197213 -2.794689
v 3.368362 0.197213 -3.402176
v 2.808989 0.197213 -3.879924
v 2.181766 0.197213 -4.264285
v 1.502138 0.197213 -4.545794
v 0.725313 0.197213 -4.732291
vt 0.736554 0.616872
vt 0.732064 0.673915
vt 0.486947 0.634894
vt 0.488350 0.617067
vt 0.718706 0.729554
vt 0.482773 0.652283
vt 0.696809 0.782418
vt 0.475341 0.670226
vt 0.666912 0.831206
vt 0.465997 0.685474
vt 0.629751 0.874716
vt 0.454383 0.699072
vt 0.586241 0.911878
vt 0.440785 0.710686
vt 0.537453 0.941775
vt 0.424225 0.720833
vt 0.484588 0.963672
vt 0.407704 0.727677
vt 0.428950 0.977030
vt 0.390315 0.731852
vt 0.371906 0.981519
vt 0.372487 0.733255
vt 0.084750 0.095174
vt 0.314863 0.977029
vt 0.353126 0.731731
vt 0.259224 0.963672
vt 0.335737 0.727556
vt 0.078281 0.095174
vt 0.206360 0.941775
vt 0.319216 0.720713
vt 0.157572 0.911877
vt 0.303968 0.711369
vt 0.078282 0.088628
vt 0.114061 0.874716
vt 0.289200 0.698756
vt 0.076900 0.831206
vt 0.084752 0.088628
vt 0.277586 0.685158
vt 0.047003 0.782418
vt 0.268242 0.669910
vt 0.025106 0.729554
vt 0.071812 0.095174
vt 0.071813 0.088628
vt 0.065342 0.095174
vt 0.065344 0.088628
vt 0.058873 0.095174
vt 0.058875 0.088628
vt 0.052404 0.095174
vt 0.261399 0.653388
vt 0.052405 0.088628
vt 0.011748 0.673915
vt 0.256865 0.634504
vt 0.007259 0.616871
vt 0.255462 0.616676
vt 0.110628 0.095174
vt 0.011748 0.559828
vt 0.256865 0.598848
vt 0.025106 0.504189
vt 0.261040 0.581460
vt 0.110629 0.088628
vt 0.047003 0.451325
vt 0.268472 0.563517
vt 0.104158 0.095174
vt 0.104160 0.088628
vt 0.097689 0.095174
vt 0.097690 0.088628
vt 0.091220 0.095174
vt 0.091221 0.088628
vt 0.076900 0.402537
vt 0.277816 0.548269
vt 0.117097 0.095174
vt 0.117098 0.088628
vt 0.114062 0.359027
vt 0.289430 0.534671
vt 0.157572 0.321865
vt 0.303028 0.523057
vt 0.206360 0.291968
vt 0.319587 0.512910
vt 0.259224 0.270071
vt 0.336109 0.506066
vt 0.314863 0.256713
vt 0.353498 0.501891
vt 0.371907 0.252224
vt 0.371325 0.500488
vt 0.428950 0.256714
vt 0.390687 0.502012
vt 0.484589 0.270071
vt 0.408075 0.506187
vt 0.537453 0.291969
vt 0.424597 0.513030
vt 0.586241 0.321866
vt 0.439845 0.522374
vt 0.629751 0.359027
vt 0.454612 0.534987
vt 0.666913 0.402538
vt 0.466226 0.548586
vt 0.696810 0.451326
vt 0.475570 0.563833
vt 0.718707 0.504190
vt 0.482414 0.580355
vt 0.732064 0.559829
vt 0.486947 0.599239
vt 0.804807 0.221606
vt 0.801534 0.229508
vt 0.794241 0.233977
vt 0.785715 0.233306
vt 0.779211 0.227751
vt 0.777215 0.219435
vt 0.780488 0.211533
vt 0.787780 0.207064
vt 0.796306 0.207736
vt 0.802810 0.213290
vt 0.990921 0.251840
vt 0.993360 0.220860
vt 0.983667 0.282057
vt 0.970752 0.313237
vt 0.954515 0.339733
vt 0.934333 0.363363
vt 0.910703 0.383545
vt 0.881927 0.401179
vt 0.853217 0.413071
vt 0.823000 0.420325
vt 0.792020 0.422763
vt 0.758376 0.420116
vt 0.728159 0.412861
vt 0.699448 0.400969
vt 0.672952 0.384732
vt 0.647289 0.362814
vt 0.627107 0.339184
vt 0.610870 0.312687
vt 0.598978 0.283977
vt 0.591100 0.251161
vt 0.588662 0.220181
vt 0.591100 0.189201
vt 0.598354 0.158984
vt 0.611270 0.127805
vt 0.627506 0.101308
vt 0.647689 0.077678
vt 0.671319 0.057496
vt 0.700094 0.039863
vt 0.728804 0.027970
vt 0.759021 0.020716
vt 0.790001 0.018278
vt 0.823646 0.020926
vt 0.853863 0.028180
vt 0.882573 0.040073
vt 0.909070 0.056310
vt 0.934732 0.078228
vt 0.954914 0.101858
vt 0.971151 0.128354
vt 0.983043 0.157064
vt 0.990922 0.189881
vt 0.988814 0.011451
vt 0.939790 0.011451
vt 0.988814 0.007659
vt 0.939790 0.007659
vt 0.890763 0.011451
vt 0.890763 0.007659
vt 0.841736 0.011451
vt 0.841736 0.007659
vt 0.792710 0.011451
vt 0.792710 0.007659
vt 0.743684 0.011451
vt 0.743684 0.007659
vt 0.694658 0.011451
vt 0.694658 0.007659
vt 0.645633 0.011451
vt 0.645633 0.007659
vt 0.596608 0.011451
vt 0.596608 0.007659
vt 0.547583 0.011451
vt 0.547583 0.007659
vt 0.498558 0.011451
vt 0.498558 0.007659
vt 0.449535 0.011451
vt 0.449535 0.007659
vt 0.400512 0.011451
vt 0.400512 0.007659
vt 0.351489 0.011451
vt 0.351489 0.007659
vt 0.302466 0.011451
vt 0.302466 0.007659
vt 0.253444 0.011451
vt 0.253444 0.007659
vt 0.204422 0.011451
vt 0.204422 0.007659
vt 0.155399 0.011451
vt 0.155399 0.007659
vt 0.106377 0.011451
vt 0.106377 0.007659
vt 0.057354 0.011451
vt 0.057354 0.007659
vt 0.008329 0.011451
vt 0.008329 0.007659
vt 0.990460 0.991628
vt 0.940986 0.991628
vt 0.990460 0.987822
vt 0.940986 0.987822
vt 0.891733 0.991628
vt 0.891733 0.987822
vt 0.842701 0.991628
vt 0.842701 0.987822
vt 0.793669 0.991628
vt 0.793669 0.987822
vt 0.744637 0.991628
vt 0.744637 0.987822
vt 0.695605 0.991628
vt 0.695605 0.987822
vt 0.646573 0.991628
vt 0.646573 0.987822
vt 0.597541 0.991628
vt 0.597541 0.987822
vt 0.548509 0.991628
vt 0.548509 0.987822
vt 0.499478 0.991628
vt 0.499478 0.987822
vt 0.450446 0.991628
vt 0.450446 0.987822
vt 0.401415 0.991628
vt 0.401415 0.987822
vt 0.352384 0.991628
vt 0.352384 0.987822
vt 0.303354 0.991628
vt 0.303354 0.987821
vt 0.254325 0.991628
vt 0.254325 0.987821
vt 0.205295 0.991628
vt 0.205295 0.987821
vt 0.156266 0.991628
vt 0.156266 0.987821
vt 0.107238 0.991628
vt 0.107238 0.987821
vt 0.058210 0.991628
vt 0.058210 0.987821
vt 0.009182 0.991628
vt 0.009182 0.987821
vt 0.732064 0.673915
vt 0.486947 0.634894
vt 0.736554 0.616872
vt 0.488350 0.617067
vt 0.718706 0.729554
vt 0.482773 0.652283
vt 0.696809 0.782418
vt 0.475341 0.670226
vt 0.666912 0.831206
vt 0.465997 0.685474
vt 0.629751 0.874716
vt 0.454383 0.699072
vt 0.586241 0.911878
vt 0.440785 0.710686
vt 0.537453 0.941775
vt 0.424225 0.720833
vt 0.484588 0.963672
vt 0.407704 0.727677
vt 0.428950 0.977030
vt 0.390315 0.731852
vt 0.371906 0.981519
vt 0.372487 0.733255
vt 0.314863 0.977029
vt 0.353126 0.731731
vt 0.259224 0.963672
vt 0.335737 0.727556
vt 0.206360 0.941775
vt 0.319216 0.720713
vt 0.157572 0.911877
vt 0.303968 0.711369
vt 0.114061 0.874716
vt 0.289200 0.698756
vt 0.076900 0.831206
vt 0.277586 0.685158
vt 0.047003 0.782418
vt 0.268242 0.669910
vt 0.025106 0.729554
vt 0.261399 0.653388
vt 0.011748 0.673915
vt 0.256865 0.634504
vt 0.007259 0.616871
vt 0.255462 0.616676
vt 0.011748 0.559828
vt 0.256865 0.598848
vt 0.025106 0.504189
vt 0.261040 0.581460
vt 0.047003 0.451325
vt 0.268472 0.563517
vt 0.076900 0.402537
vt 0.277816 0.548269
vt 0.114062 0.359027
vt 0.289430 0.534671
vt 0.157572 0.321865
vt 0.303028 0.523057
vt 0.206360 0.291968
vt 0.319587 0.512910
vt 0.259224 0.270071
vt 0.336109 0.506066
vt 0.314863 0.256713
vt 0.353498 0.501891
vt 0.371907 0.252224
vt 0.371325 0.500488
vt 0.428950 0.256714
vt 0.390687 0.502012
vt 0.484589 0.270071
vt 0.408075 0.506187
vt 0.537453 0.291969
vt 0.424597 0.513030
vt 0.586241 0.321866
vt 0.439845 0.522374
vt 0.629751 0.359027
vt 0.454612 0.534987
vt 0.666913 0.402538
vt 0.466226 0.548586
vt 0.696810 0.451326
vt 0.475570 0.563833
vt 0.718707 0.504190
vt 0.482414 0.580355
vt 0.732064 0.559829
vt 0.486947 0.599239
vt 0.084750 0.095174
vt 0.078281 0.095174
vt 0.084752 0.088628
vt 0.078282 0.088628
vt 0.071812 0.095174
vt 0.071813 0.088628
vt 0.065342 0.095174
vt 0.065344 0.088628
vt 0.058873 0.095174
vt 0.058875 0.088628
vt 0.052404 0.095174
vt 0.052405 0.088628
vt 0.117097 0.095174
vt 0.110628 0.095174
vt 0.117098 0.088628
vt 0.110629 0.088628
vt 0.104158 0.095174
vt 0.104160 0.088628
vt 0.097689 0.095174
vt 0.097690 0.088628
vt 0.091220 0.095174
vt 0.091221 0.088628
vt 0.990921 0.251840
vt 0.804807 0.221606
vt 0.993360 0.220860
vt 0.983667 0.282057
vt 0.801534 0.229508
vt 0.970752 0.313237
vt 0.954515 0.339733
vt 0.934333 0.363363
vt 0.910703 0.383545
vt 0.794241 0.233977
vt 0.881927 0.401179
vt 0.853217 0.413071
vt 0.823000 0.420325
vt 0.792020 0.422763
vt 0.785715 0.233306
vt 0.758376 0.420116
vt 0.728159 0.412861
vt 0.699448 0.400969
vt 0.672952 0.384732
vt 0.779211 0.227751
vt 0.647289 0.362814
vt 0.627107 0.339184
vt 0.610870 0.312687
vt 0.598978 0.283977
vt 0.777215 0.219435
vt 0.591100 0.251161
vt 0.588662 0.220181
vt 0.591100 0.189201
vt 0.598354 0.158984
vt 0.780488 0.211533
vt 0.611270 0.127805
vt 0.627506 0.101308
vt 0.647689 0.077678
vt 0.671319 0.057496
vt 0.787780 0.207064
vt 0.700094 0.039863
vt 0.728804 0.027970
vt 0.759021 0.020716
vt 0.790001 0.018278
vt 0.796306 0.207736
vt 0.823646 0.020926
vt 0.853863 0.028180
vt 0.882573 0.040073
vt 0.909070 0.056310
vt 0.802810 0.213290
vt 0.934732 0.078228
vt 0.954914 0.101858
vt 0.971151 0.128354
vt 0.983043 0.157064
vt 0.990922 0.189881
vn 0.000000 -1.000000 0.000000
vn 0.000000 -1.000000 0.000000
vn 0.000000 -1.000000 0.000000
vn 0.000000 -1.000000 0.000000
vn 0.000000 -1.000000 0.000000
vn 0.000000 -1.000000 0.000000
vn 0.000000 -1.000000 0.000000
vn 0.000000 -1.000000 0.000000
vn 0.000000 -1.000000 0.000000
vn 0.000000 -1.000000 0.000000
vn 0.000000 -1.000000 0.000000
vn 0.000000 -1.000000 0.000000
vn 0.000000 -1.000000 0.000000
vn 0.000000 -1.000000 0.000000
vn 0.000000 -1.000000 0.000000
vn 0.000000 -1.000000 0.000000
vn 0.000000 -1.000000 0.000000
vn 0.000000 -1.000000 0.000000
vn 0.000000 -1.000000 0.000000
vn 0.000000 -1.000000 0.000000
vn 0.000000 -1.000000 0.000000
vn 0.000000 -1.000000 0.000000
vn 0.000000 -1.000000 0.000000
vn 0.000000 -1.000000 0.000000
vn 0.000000 -1.000000 0.000000
vn 0.000000 -1.000000 0.000000
vn 0.000000 -1.000000 0.000000
vn 0.000000 -1.000000 0.000000
vn 0.000000 -1.000000 0.000000
vn 0.000000 -1.000000 0.000000
vn 0.000000 -1.000000 0.000000
vn 0.000000 -1.000000 0.000000
vn 0.000000 -1.000000 0.000000
vn 0.000000 -1.000000 0.000000
vn 0.000000 -1.000000 0.000000
vn 0.000000 -1.000000 0.000000
vn 0.000000 -1.000000 0.000000
vn 0.000000 -1.000000 0.000000
vn 0.000000 -1.000000 0.000000
vn 0.000000 -1.000000 0.000000
vn 0.000000 -1.000000 -0.000000
vn 0.000000 -1.000000 -0.000000
vn 0.000000 -1.000000 -0.000000
vn 0.000000 -1.000000 -0.000000
vn 0.000000 -1.000000 -0.000000
vn 0.000000 -1.000000 -0.000000
vn 0.000000 -1.000000 -0.000000
vn 0.000000 -1.000000 -0.000000
vn 0.000000 -1.000000 -0.000000
vn 0.000000 -1.000000 -0.000000
vn 0.000000 -1.000000 -0.000000
vn 0.000000 -1.000000 -0.000000
vn 0.000000 -1.000000 -0.000000
vn 0.000000 -1.000000 -0.000000
vn 0.000000 -1.000000 -0.000000
vn 0.000000 -1.000000 -0.000000
vn 0.000000 -1.000000 -0.000000
vn 0.000000 -1.000000 -0.000000
vn 0.000000 -1.000000 -0.000000
vn 0.000000 -1.000000 -0.000000
vn 0.000000 -1.000000 -0.000000
vn 0.000000 -1.000000 -0.000000
vn 0.000000 -1.000000 -0.000000
vn 0.000000 -1.000000 -0.000000
vn 0.000000 -1.000000 -0.000000
vn 0.000000 -1.000000 -0.000000
vn 0.000000 -1.000000 -0.000000
vn 0.000000 -1.000000 -0.000000
vn 0.000000 -1.000000 -0.000000
vn 0.000000 -1.000000 -0.000000
vn 0.000000 -1.000000 -0.000000
vn 0.000000 -1.000000 -0.000000
vn 0.000000 -1.000000 -0.000000
vn 0.000000 -1.000000 -0.000000
vn 0.000000 -1.000000 -0.000000
vn 0.000000 -1.000000 -0.000000
vn 0.000000 -1.000000 -0.000000
vn 0.000000 -1.000000 -0.000000
vn 0.000000 -1.000000 -0.000000
vn 0.000000 -1.000000 -0.000000
vn -0.000000 -1.000000 -0.000000
vn -0.000000 -1.000000 -0.000000
vn -0.000000 -1.000000 -0.000000
vn -0.000000 -1.000000 -0.000000
vn -0.000000 -1.000000 -0.000000
vn -0.000000 -1.000000 -0.000000
vn -0.000000 -1.000000 -0.000000
vn -0.000000 -1.000000 -0.000000
vn 0.000000 -1.000000 -0.000000
vn 0.000000 -1.000000 -0.000000
vn 0.000000 -1.000000 -0.000000
vn 0.000000 -1.000000 -0.000000
vn -0.000000 -1.000000 -0.000000
vn -0.000000 -1.000000 -0.000000
vn -0.000000 -1.000000 -0.000000
vn -0.000000 -1.000000 -0.000000
vn -0.000000 -1.000000 -0.000000
vn -0.000000 -1.000000 -0.000000
vn -0.000000 -1.000000 -0.000000
vn -0.000000 -1.000000 -0.000000
vn -0.000000 -1.000000 -0.000000
vn -0.000000 -1.000000 -0.000000
vn -0.000000 -1.000000 -0.000000
vn -0.000000 -1.000000 -0.000000
vn -0.000000 -1.000000 0.000000
vn -0.000000 -1.000000 0.000000
vn -0.000000 -1.000000 0.000000
vn -0.000000 -1.000000 0.000000
vn -0.000000 -1.000000 -0.000000
vn -0.000000 -1.000000 -0.000000
vn -0.000000 -1.000000 -0.000000
vn -0.000000 -1.000000 -0.000000
vn -0.000000 -1.000000 -0.000000
vn -0.000000 -1.000000 -0.000000
vn -0.000000 -1.000000 -0.000000
vn -0.000000 -1.000000 -0.000000
vn -0.000000 -1.000000 0.000000
vn -0.000000 -1.000000 0.000000
vn -0.000000 -1.000000 0.000000
vn -0.000000 -1.000000 0.000000
vn -0.000000 -1.000000 -0.000000
vn -0.000000 -1.000000 -0.000000
vn -0.000000 -1.000000 -0.000000
vn -0.000000 -1.000000 -0.000000
vn -0.000000 -1.000000 0.000000
vn -0.000000 -1.000000 0.000000
vn -0.000000 -1.000000 0.000000
vn -0.000000 -1.000000 0.000000
vn -0.000000 -1.000000 0.000000
vn -0.000000 -1.000000 0.000000
vn -0.000000 -1.000000 0.000000
vn -0.000000 -1.000000 0.000000
vn -0.000000 -1.000000 -0.000000
vn -0.000000 -1.000000 -0.000000
vn -0.000000 -1.000000 -0.000000
vn -0.000000 -1.000000 -0.000000
vn -0.000000 -1.000000 0.000000
vn -0.000000 -1.000000 0.000000
vn -0.000000 -1.000000 0.000000
vn -0.000000 -1.000000 0.000000
vn -0.000000 -1.000000 0.000000
vn -0.000000 -1.000000 0.000000
vn -0.000000 -1.000000 0.000000
vn -0.000000 -1.000000 0.000000
vn -0.000000 -1.000000 0.000000
vn -0.000000 -1.000000 0.000000
vn -0.000000 -1.000000 0.000000
vn -0.000000 -1.000000 0.000000
vn 0.000000 -1.000000 0.000000
vn 0.000000 -1.000000 0.000000
vn 0.000000 -1.000000 0.000000
vn 0.000000 -1.000000 0.000000
vn -0.000000 -1.000000 0.000000
vn -0.000000 -1.000000 0.000000
vn -0.000000 -1.000000 0.000000
vn -0.000000 -1.000000 0.000000
vn -0.000000 -1.000000 0.000000
vn -0.000000 -1.000000 0.000000
vn -0.000000 -1.000000 0.000000
vn -0.000000 -1.000000 0.000000
vn 0.078460 0.000000 0.996917
vn 0.078460 0.000000 0.996917
vn 0.649448 0.000000 0.760406
vn 0.649448 0.000000 0.760406
vn 0.649448 0.000000 0.760406
vn 0.649448 0.000000 0.760406
vn 0.972370 0.000000 0.233446
vn 0.972370 0.000000 0.233445
vn 0.972370 0.000000 0.233446
vn 0.972370 0.000000 0.233445
vn 0.923879 0.000000 -0.382684
vn 0.923879 0.000000 -0.382684
vn 0.923879 0.000000 -0.382684
vn 0.923879 0.000000 -0.382684
vn 0.522498 0.000000 -0.852640
vn 0.522498 0.000000 -0.852641
vn 0.522498 0.000000 -0.852640
vn 0.522498 0.000000 -0.852641
vn -0.078459 0.000000 -0.996917
vn -0.078459 0.000000 -0.996917
vn -0.078459 0.000000 -0.996917
vn -0.078459 0.000000 -0.996917
vn -0.649449 -0.000000 -0.760405
vn -0.649449 -0.000000 -0.760405
vn -0.649449 -0.000000 -0.760405
vn -0.649449 -0.000000 -0.760405
vn -0.972370 -0.000000 -0.233444
vn -0.972370 -0.000000 -0.233443
vn -0.972370 -0.000000 -0.233444
vn -0.972370 -0.000000 -0.233443
vn -0.923879 -0.000000 0.382685
vn -0.923879 -0.000000 0.382684
vn -0.923879 -0.000000 0.382685
vn -0.923879 -0.000000 0.382684
vn -0.522497 -0.000000 0.852641
vn -0.522498 -0.000000 0.852641
vn -0.522497 -0.000000 0.852641
vn -0.522498 -0.000000 0.852641
vn 0.078460 0.000000 0.996917
vn 0.078460 0.000000 0.996917
vn 0.000000 -1.000000 0.000000
vn 0.000000 -1.000000 0.000000
vn 0.000000 -1.000000 0.000000
vn 0.000000 -1.000000 0.000000
vn 0.000000 -1.000000 0.000000
vn 0.000000 -1.000000 0.000000
vn 0.000000 -1.000000 0.000000
vn 0.000000 -1.000000 0.000000
vn 0.000000 -1.000000 0.000000
vn 0.000000 -1.000000 0.000000
vn 0.000000 -1.000000 0.000000
vn 0.000000 -1.000000 0.000000
vn 0.000000 -1.000000 0.000000
vn 0.000000 -1.000000 0.000000
vn 0.000000 -1.000000 0.000000
vn 0.000000 -1.000000 0.000000
vn 0.000000 -1.000000 0.000000
vn 0.000000 -1.000000 0.000000
vn 0.000000 -1.000000 0.000000
vn 0.000000 -1.000000 0.000000
vn 0.000000 -1.000000 0.000000
vn 0.000000 -1.000000 0.000000
vn 0.000000 -1.000000 0.000000
vn 0.000000 -1.000000 0.000000
vn 0.000000 -1.000000 0.000000
vn 0.000000 -1.000000 0.000000
vn 0.000000 -1.000000 0.000000
vn 0.000000 -1.000000 0.000000
vn 0.000000 -1.000000 0.000000
vn 0.000000 -1.000000 0.000000
vn 0.000000 -1.000000 0.000000
vn 0.000000 -1.000000 0.000000
vn 0.000000 -1.000000 -0.000000
vn 0.000000 -1.000000 -0.000000
vn 0.000000 -1.000000 -0.000000
vn 0.000000 -1.000000 -0.000000
vn 0.000000 -1.000000 -0.000000
vn 0.000000 -1.000000 -0.000000
vn 0.000000 -1.000000 -0.000000
vn 0.000000 -1.000000 -0.000000
vn 0.000000 -1.000000 -0.000000
vn 0.000000 -1.000000 -0.000000
vn 0.000000 -1.000000 -0.000000
vn 0.000000 -1.000000 -0.000000
vn 0.000000 -1.000000 -0.000000
vn 0.000000 -1.000000 -0.000000
vn 0.000000 -1.000000 -0.000000
vn 0.000000 -1.000000 -0.000000
vn 0.000000 -1.000000 -0.000000
vn 0.000000 -1.000000 -0.000000
vn 0.000000 -1.000000 -0.000000
vn 0.000000 -1.000000 -0.000000
vn 0.000000 -1.000000 -0.000000
vn 0.000000 -1.000000 -0.000000
vn 0.000000 -1.000000 -0.000000
vn 0.000000 -1.000000 -0.000000
vn 0.000000 -1.000000 -0.000000
vn 0.000000 -1.000000 -0.000000
vn 0.000000 -1.000000 -0.000000
vn 0.000000 -1.000000 -0.000000
vn 0.000000 -1.000000 -0.000000
vn 0.000000 -1.000000 -0.000000
vn 0.000000 -1.000000 -0.000000
vn 0.000000 -1.000000 -0.000000
vn 0.000000 -1.000000 -0.000000
vn -0.000000 -1.000000 -0.000000
vn -0.000000 -1.000000 -0.000000
vn -0.000000 -1.000000 -0.000000
vn -0.000000 -1.000000 -0.000000
vn -0.000000 -1.000000 -0.000000
vn -0.000000 -1.000000 -0.000000
vn 0.000000 -1.000000 -0.000000
vn 0.000000 -1.000000 -0.000000
vn 0.000000 -1.000000 -0.000000
vn 0.000000 -1.000000 -0.000000
vn -0.000000 -1.000000 -0.000000
vn -0.000000 -1.000000 -0.000000
vn -0.000000 -1.000000 -0.000000
vn -0.000000 -1.000000 -0.000000
vn -0.000000 -1.000000 -0.000000
vn -0.000000 -1.000000 -0.000000
vn -0.000000 -1.000000 -0.000000
vn -0.000000 -1.000000 -0.000000
vn -0.000000 -1.000000 -0.000000
vn -0.000000 -1.000000 -0.000000
vn -0.000000 -1.000000 -0.000000
vn -0.000000 -1.000000 -0.000000
vn -0.000000 -1.000000 -0.000000
vn -0.000000 -1.000000 -0.000000
vn -0.000000 -1.000000 -0.000000
vn -0.000000 -1.000000 -0.000000
vn -0.000000 -1.000000 -0.000000
vn -0.000000 -1.000000 -0.000000
vn -0.000000 -1.000000 -0.000000
vn -0.000000 -1.000000 0.000000
vn -0.000000 -1.000000 0.000000
vn -0.000000 -1.000000 0.000000
vn -0.000000 -1.000000 -0.000000
vn -0.000000 -1.000000 -0.000000
vn -0.000000 -1.000000 -0.000000
vn -0.000000 -1.000000 -0.000000
vn -0.000000 -1.000000 0.000000
vn -0.000000 -1.000000 0.000000
vn -0.000000 -1.000000 0.000000
vn -0.000000 -1.000000 0.000000
vn -0.000000 -1.000000 0.000000
vn -0.000000 -1.000000 0.000000
vn -0.000000 -1.000000 0.000000
vn -0.000000 -1.000000 0.000000
vn -0.000000 -1.000000 0.000000
vn -0.000000 -1.000000 0.000000
vn -0.000000 -1.000000 0.000000
vn -0.000000 -1.000000 0.000000
vn -0.000000 -1.000000 0.000000
vn -0.000000 -1.000000 0.000000
vn -0.000000 -1.000000 0.000000
vn -0.000000 -1.000000 0.000000
vn -0.000000 -1.000000 0.000000
vn -0.000000 -1.000000 0.000000
vn -0.000000 -1.000000 0.000000
vn -0.000000 -1.000000 0.000000
vn -0.000000 -1.000000 0.000000
vn -0.000000 -1.000000 0.000000
vn -0.000000 -1.000000 0.000000
vn -0.000000 -1.000000 0.000000
vn -0.000000 -1.000000 0.000000
vn -0.000000 -1.000000 0.000000
vn -0.000000 -1.000000 0.000000
vn -0.000000 -1.000000 0.000000
vn -0.000000 -1.000000 0.000000
vn -0.000000 0.000000 -1.000000
vn -0.156434 -0.000000 -0.987688
vn -0.000000 0.000000 -1.000000
vn -0.156434 -0.000000 -0.987688
vn -0.156434 -0.000000 -0.987688
vn -0.309017 0.000000 -0.951057
vn -0.156434 -0.000000 -0.987688
vn -0.309017 0.000000 -0.951057
vn -0.309017 0.000000 -0.951057
vn -0.453991 0.000000 -0.891006
vn -0.309017 0.000000 -0.951057
vn -0.453991 0.000000 -0.891006
vn -0.453991 0.000000 -0.891006
vn -0.587785 0.000000 -0.809017
vn -0.453991 0.000000 -0.891006
vn -0.587785 0.000000 -0.809017
vn -0.587785 0.000000 -0.809017
vn -0.707107 0.000000 -0.707107
vn -0.587785 0.000000 -0.809017
vn -0.707107 0.000000 -0.707107
vn -0.707107 0.000000 -0.707107
vn -0.809017 0.000000 -0.587785
vn -0.707107 0.000000 -0.707107
vn -0.809017 0.000000 -0.587785
vn -0.809017 0.000000 -0.587785
vn -0.891006 0.000000 -0.453991
vn -0.809017 0.000000 -0.587785
vn -0.891006 0.000000 -0.453991
vn -0.891006 0.000000 -0.453991
vn -0.951056 0.000000 -0.309017
vn -0.891006 0.000000 -0.453991
vn -0.951056 0.000000 -0.309017
vn -0.951056 0.000000 -0.309017
vn -0.987688 0.000000 -0.156434
vn -0.951056 0.000000 -0.309017
vn -0.987688 0.000000 -0.156434
vn -0.987688 0.000000 -0.156434
vn -1.000000 0.000000 0.000000
vn -0.987688 0.000000 -0.156434
vn -1.000000 0.000000 0.000000
vn -1.000000 0.000000 0.000000
vn -0.987688 0.000000 0.156435
vn -1.000000 0.000000 0.000000
vn -0.987688 0.000000 0.156435
vn -0.987688 0.000000 0.156435
vn -0.951056 0.000000 0.309017
vn -0.987688 0.000000 0.156435
vn -0.951056 0.000000 0.309017
vn -0.951056 0.000000 0.309017
vn -0.891006 0.000000 0.453991
vn -0.951056 0.000000 0.309017
vn -0.891006 0.000000 0.453991
vn -0.891006 0.000000 0.453991
vn -0.809017 0.000000 0.587786
vn -0.891006 0.000000 0.453991
vn -0.809017 0.000000 0.587785
vn -0.809017 0.000000 0.587786
vn -0.707107 0.000000 0.707107
vn -0.809017 0.000000 0.587785
vn -0.707107 0.000000 0.707107
vn -0.707107 0.000000 0.707107
vn -0.587785 0.000000 0.809017
vn -0.707107 0.000000 0.707107
vn -0.587785 0.000000 0.809017
vn -0.587785 0.000000 0.809017
vn -0.453990 0.000000 0.891007
vn -0.587785 0.000000 0.809017
vn -0.453990 0.000000 0.891007
vn -0.453990 0.000000 0.891007
vn -0.309016 -0.000000 0.951057
vn -0.453990 0.000000 0.891007
vn -0.309016 -0.000000 0.951057
vn -0.309016 -0.000000 0.951057
vn -0.156434 -0.000000 0.987688
vn -0.309016 -0.000000 0.951057
vn -0.156434 -0.000000 0.987688
vn -0.156434 -0.000000 0.987688
vn 0.000001 -0.000000 1.000000
vn -0.156434 -0.000000 0.987688
vn 0.000001 -0.000000 1.000000
vn 0.000001 -0.000000 1.000000
vn 0.156435 0.000000 0.987688
vn 0.000001 -0.000000 1.000000
vn 0.156435 0.000000 0.987688
vn 0.156435 0.000000 0.987688
vn 0.309018 -0.000000 0.951056
vn 0.156435 0.000000 0.987688
vn 0.309018 -0.000000 0.951056
vn 0.309018 -0.000000 0.951056
vn 0.453991 -0.000000 0.891006
vn 0.309018 -0.000000 0.951056
vn 0.453991 -0.000000 0.891006
vn 0.453991 -0.000000 0.891006
vn 0.587786 -0.000000 0.809017
vn 0.453991 -0.000000 0.891006
vn 0.587786 -0.000000 0.809017
vn 0.587786 -0.000000 0.809017
vn 0.707107 -0.000000 0.707106
vn 0.587786 -0.000000 0.809017
vn 0.707108 -0.000000 0.707106
vn 0.707107 -0.000000 0.707106
vn 0.809018 -0.000000 0.587784
vn 0.707108 -0.000000 0.707106
vn 0.809018 -0.000000 0.587784
vn 0.809018 -0.000000 0.587784
vn 0.891007 -0.000000 0.453989
vn 0.809018 -0.000000 0.587784
vn 0.891007 -0.000000 0.453989
vn 0.891007 -0.000000 0.453989
vn 0.951057 -0.000000 0.309016
vn 0.891007 -0.000000 0.453989
vn 0.951057 -0.000000 0.309016
vn 0.951057 -0.000000 0.309016
vn 0.987689 -0.000000 0.156433
vn 0.951057 -0.000000 0.309016
vn 0.987689 -0.000000 0.156433
vn 0.987689 -0.000000 0.156433
vn 1.000000 -0.000000 -0.000001
vn 0.987689 -0.000000 0.156433
vn 1.000000 -0.000000 -0.000001
vn 1.000000 -0.000000 -0.000001
vn 0.987688 -0.000000 -0.156436
vn 1.000000 -0.000000 -0.000001
vn 0.987688 -0.000000 -0.156436
vn 0.987688 -0.000000 -0.156436
vn 0.951056 -0.000000 -0.309019
vn 0.987688 -0.000000 -0.156436
vn 0.951056 -0.000000 -0.309019
vn 0.951056 -0.000000 -0.309019
vn 0.891006 -0.000000 -0.453992
vn 0.951056 -0.000000 -0.309019
vn 0.891006 -0.000000 -0.453992
vn 0.891006 -0.000000 -0.453992
vn 0.809016 -0.000000 -0.587787
vn 0.891006 -0.000000 -0.453992
vn 0.809016 -0.000000 -0.587787
vn 0.809016 -0.000000 -0.587787
vn 0.707106 -0.000000 -0.707108
vn 0.809016 -0.000000 -0.587787
vn 0.707106 -0.000000 -0.707108
vn 0.707106 -0.000000 -0.707108
vn 0.587784 -0.000000 -0.809018
vn 0.707106 -0.000000 -0.707108
vn 0.587784 -0.000000 -0.809018
vn 0.587784 -0.000000 -0.809018
vn 0.453989 -0.000000 -0.891007
vn 0.587784 -0.000000 -0.809018
vn 0.453989 -0.000000 -0.891007
vn 0.453989 -0.000000 -0.891007
vn 0.309015 0.000000 -0.951057
vn 0.453989 -0.000000 -0.891007
vn 0.309015 0.000000 -0.951057
vn 0.309015 0.000000 -0.951057
vn 0.156433 0.000000 -0.987689
vn 0.309015 0.000000 -0.951057
vn 0.156433 0.000000 -0.987689
vn 0.156433 0.000000 -0.987689
vn -0.000000 0.000000 -1.000000
vn 0.156433 0.000000 -0.987689
vn -0.000000 0.000000 -1.000000
vn 0.000000 1.000000 0.000000
vn 0.000000 1.000000 0.000000
vn 0.000000 1.000000 0.000000
vn 0.000000 1.000000 0.000000
vn 0.000000 1.000000 0.000000
vn 0.000000 1.000000 0.000000
vn 0.000000 1.000000 0.000000
vn 0.000000 1.000000 0.000000
vn 0.000000 1.000000 0.000000
vn 0.000000 1.000000 0.000000
vn 0.000000 1.000000 0.000000
vn 0.000000 1.000000 0.000000
vn 0.000000 1.000000 0.000000
vn 0.000000 1.000000 0.000000
vn 0.000000 1.000000 0.000000
vn 0.000000 1.000000 0.000000
vn 0.000000 1.000000 0.000000
vn 0.000000 1.000000 0.000000
vn 0.000000 1.000000 0.000000
vn 0.000000 1.000000 0.000000
vn 0.000000 1.000000 0.000000
vn 0.000000 1.000000 0.000000
vn 0.000000 1.000000 0.000000
vn 0.000000 1.000000 0.000000
vn 0.000000 1.000000 0.000000
vn 0.000000 1.000000 0.000000
vn 0.000000 1.000000 0.000000
vn 0.000000 1.000000 0.000000
vn 0.000000 1.000000 0.000000
vn 0.000000 1.000000 0.000000
vn 0.000000 1.000000 0.000000
vn 0.000000 1.000000 0.000000
vn 0.000000 1.000000 0.000000
vn 0.000000 1.000000 0.000000
vn 0.000000 1.000000 0.000000
vn 0.000000 1.000000 0.000000
vn 0.000000 1.000000 0.000000
vn 0.000000 1.000000 0.000000
vn 0.000000 1.000000 0.000000
vn 0.000000 1.000000 0.000000
vn 0.000000 1.000000 -0.000000
vn 0.000000 1.000000 -0.000000
vn 0.000000 1.000000 -0.000000
vn 0.000000 1.000000 -0.000000
vn 0.000000 1.000000 -0.000000
vn 0.000000 1.000000 -0.000000
vn 0.000000 1.000000 -0.000000
vn 0.000000 1.000000 -0.000000
vn 0.000000 1.000000 -0.000000
vn 0.000000 1.000000 -0.000000
vn 0.000000 1.000000 -0.000000
vn 0.000000 1.000000 -0.000000
vn 0.000000 1.000000 -0.000000
vn 0.000000 1.000000 -0.000000
vn 0.000000 1.000000 -0.000000
vn 0.000000 1.000000 -0.000000
vn 0.000000 1.000000 -0.000000
vn 0.000000 1.000000 -0.000000
vn 0.000000 1.000000 -0.000000
vn 0.000000 1.000000 -0.000000
vn 0.000000 1.000000 -0.000000
vn 0.000000 1.000000 -0.000000
vn 0.000000 1.000000 -0.000000
vn 0.000000 1.000000 -0.000000
vn 0.000000 1.000000 -0.000000
vn 0.000000 1.000000 -0.000000
vn 0.000000 1.000000 -0.000000
vn 0.000000 1.000000 -0.000000
vn 0.000000 1.000000 -0.000000
vn 0.000000 1.000000 -0.000000
vn 0.000000 1.000000 -0.000000
vn 0.000000 1.000000 -0.000000
vn 0.000000 1.000000 -0.000000
vn 0.000000 1.000000 -0.000000
vn 0.000000 1.000000 -0.000000
vn 0.000000 1.000000 -0.000000
vn 0.000000 1.000000 -0.000000
vn 0.000000 1.000000 -0.000000
vn 0.000000 1.000000 -0.000000
vn 0.000000 1.000000 -0.000000
vn -0.000000 1.000000 -0.000000
vn -0.000000 1.000000 -0.000000
vn -0.000000 1.000000 -0.000000
vn -0.000000 1.000000 -0.000000
vn -0.000000 1.000000 -0.000000
vn -0.000000 1.000000 -0.000000
vn -0.000000 1.000000 -0.000000
vn -0.000000 1.000000 -0.000000
vn 0.000000 1.000000 -0.000000
vn 0.000000 1.000000 -0.000000
vn 0.000000 1.000000 -0.000000
vn 0.000000 1.000000 -0.000000
vn -0.000000 1.000000 -0.000000
vn -0.000000 1.000000 -0.000000
vn -0.000000 1.000000 -0.000000
vn -0.000000 1.000000 -0.000000
vn -0.000000 1.000000 -0.000000
vn -0.000000 1.000000 -0.000000
vn -0.000000 1.000000 -0.000000
vn -0.000000 1.000000 -0.000000
vn -0.000000 1.000000 -0.000000
vn -0.000000 1.000000 -0.000000
vn -0.000000 1.000000 -0.000000
vn -0.000000 1.000000 -0.000000
vn -0.000000 1.000000 0.000000
vn -0.000000 1.000000 0.000000
vn -0.000000 1.000000 0.000000
vn -0.000000 1.000000 0.000000
vn -0.000000 1.000000 -0.000000
vn -0.000000 1.000000 -0.000000
vn -0.000000 1.000000 -0.000000
vn -0.000000 1.000000 -0.000000
vn -0.000000 1.000000 -0.000000
vn -0.000000 1.000000 -0.000000
vn -0.000000 1.000000 -0.000000
vn -0.000000 1.000000 -0.000000
vn -0.000000 1.000000 0.000000
vn -0.000000 1.000000 0.000000
vn -0.000000 1.000000 0.000000
vn -0.000000 1.000000 0.000000
vn -0.000000 1.000000 -0.000000
vn -0.000000 1.000000 -0.000000
vn -0.000000 1.000000 -0.000000
vn -0.000000 1.000000 -0.000000
vn -0.000000 1.000000 0.000000
vn -0.000000 1.000000 0.000000
vn -0.000000 1.000000 0.000000
vn -0.000000 1.000000 0.000000
vn -0.000000 1.000000 0.000000
vn -0.000000 1.000000 0.000000
vn -0.000000 1.000000 0.000000
vn -0.000000 1.000000 0.000000
vn -0.000000 1.000000 -0.000000
vn -0.000000 1.000000 -0.000000
vn -0.000000 1.000000 -0.000000
vn -0.000000 1.000000 -0.000000
vn -0.000000 1.000000 0.000000
vn -0.000000 1.000000 0.000000
vn -0.000000 1.000000 0.000000
vn -0.000000 1.000000 0.000000
vn -0.000000 1.000000 0.000000
vn -0.000000 1.000000 0.000000
vn -0.000000 1.000000 0.000000
vn -0.000000 1.000000 0.000000
vn -0.000000 1.000000 0.000000
vn -0.000000 1.000000 0.000000
vn -0.000000 1.000000 0.000000
vn -0.000000 1.000000 0.000000
vn 0.000000 1.000000 0.000000
vn 0.000000 1.000000 0.000000
vn 0.000000 1.000000 0.000000
vn 0.000000 1.000000 0.000000
vn -0.000000 1.000000 0.000000
vn -0.000000 1.000000 0.000000
vn -0.000000 1.000000 0.000000
vn -0.000000 1.000000 0.000000
vn -0.000000 1.000000 0.000000
vn -0.000000 1.000000 0.000000
vn -0.000000 1.000000 0.000000
vn -0.000000 1.000000 0.000000
vn 0.078460 -0.000000 0.996917
vn 0.649448 -0.000000 0.760406
vn 0.078460 -0.000000 0.996917
vn 0.649448 -0.000000 0.760406
vn 0.649448 -0.000000 0.760406
vn 0.972370 -0.000000 0.233446
vn 0.649448 -0.000000 0.760406
vn 0.972370 -0.000000 0.233445
vn 0.972370 -0.000000 0.233446
vn 0.923879 -0.000000 -0.382684
vn 0.972370 -0.000000 0.233445
vn 0.923879 -0.000000 -0.382684
vn 0.923879 -0.000000 -0.382684
vn 0.522498 -0.000000 -0.852640
vn 0.923879 -0.000000 -0.382684
vn 0.522498 -0.000000 -0.852641
vn 0.522498 -0.000000 -0.852640
vn -0.078459 -0.000000 -0.996917
vn 0.522498 -0.000000 -0.852641
vn -0.078459 -0.000000 -0.996917
vn -0.078459 -0.000000 -0.996917
vn -0.649449 0.000000 -0.760405
vn -0.078459 -0.000000 -0.996917
vn -0.649449 0.000000 -0.760405
vn -0.649449 0.000000 -0.760405
vn -0.972370 0.000000 -0.233444
vn -0.649449 0.000000 -0.760405
vn -0.972370 0.000000 -0.233443
vn -0.972370 0.000000 -0.233444
vn -0.923879 0.000000 0.382685
vn -0.972370 0.000000 -0.233443
vn -0.923879 0.000000 0.382684
vn -0.923879 0.000000 0.382685
vn -0.522497 0.000000 0.852641
vn -0.923879 0.000000 0.382684
vn -0.522498 0.000000 0.852641
vn -0.522497 0.000000 0.852641
vn 0.078460 -0.000000 0.996917
vn -0.522498 0.000000 0.852641
vn 0.078460 -0.000000 0.996917
vn 0.000000 1.000000 0.000000
vn 0.000000 1.000000 0.000000
vn 0.000000 1.000000 0.000000
vn 0.000000 1.000000 0.000000
vn 0.000000 1.000000 0.000000
vn 0.000000 1.000000 0.000000
vn 0.000000 1.000000 0.000000
vn 0.000000 1.000000 0.000000
vn 0.000000 1.000000 0.000000
vn 0.000000 1.000000 0.000000
vn 0.000000 1.000000 0.000000
vn 0.000000 1.000000 0.000000
vn 0.000000 1.000000 0.000000
vn 0.000000 1.000000 0.000000
vn 0.000000 1.000000 0.000000
vn 0.000000 1.000000 0.000000
vn 0.000000 1.000000 0.000000
vn 0.000000 1.000000 0.000000
vn 0.000000 1.000000 0.000000
vn 0.000000 1.000000 0.000000
vn 0.000000 1.000000 0.000000
vn 0.000000 1.000000 0.000000
vn 0.000000 1.000000 0.000000
vn 0.000000 1.000000 0.000000
vn 0.000000 1.000000 0.000000
vn 0.000000 1.000000 0.000000
vn 0.000000 1.000000 0.000000
vn 0.000000 1.000000 0.000000
vn 0.000000 1.000000 0.000000
vn 0.000000 1.000000 0.000000
vn 0.000000 1.000000 0.000000
vn 0.000000 1.000000 0.000000
vn 0.000000 1.000000 -0.000000
vn 0.000000 1.000000 -0.000000
vn 0.000000 1.000000 -0.000000
vn 0.000000 1.000000 -0.000000
vn 0.000000 1.000000 -0.000000
vn 0.000000 1.000000 -0.000000
vn 0.000000 1.000000 -0.000000
vn 0.000000 1.000000 -0.000000
vn 0.000000 1.000000 -0.000000
vn 0.000000 1.000000 -0.000000
vn 0.000000 1.000000 -0.000000
vn 0.000000 1.000000 -0.000000
vn 0.000000 1.000000 -0.000000
vn 0.000000 1.000000 -0.000000
vn 0.000000 1.000000 -0.000000
vn 0.000000 1.000000 -0.000000
vn 0.000000 1.000000 -0.000000
vn 0.000000 1.000000 -0.000000
vn 0.000000 1.000000 -0.000000
vn 0.000000 1.000000 -0.000000
vn 0.000000 1.000000 -0.000000
vn 0.000000 1.000000 -0.000000
vn 0.000000 1.000000 -0.000000
vn 0.000000 1.000000 -0.000000
vn 0.000000 1.000000 -0.000000
vn 0.000000 1.000000 -0.000000
vn 0.000000 1.000000 -0.000000
vn 0.000000 1.000000 -0.000000
vn 0.000000 1.000000 -0.000000
vn 0.000000 1.000000 -0.000000
vn 0.000000 1.000000 -0.000000
vn 0.000000 1.000000 -0.000000
vn 0.000000 1.000000 -0.000000
vn -0.000000 1.000000 -0.000000
vn -0.000000 1.000000 -0.000000
vn -0.000000 1.000000 -0.000000
vn -0.000000 1.000000 -0.000000
vn -0.000000 1.000000 -0.000000
vn -0.000000 1.000000 -0.000000
vn 0.000000 1.000000 -0.000000
vn 0.000000 1.000000 -0.000000
vn 0.000000 1.000000 -0.000000
vn 0.000000 1.000000 -0.000000
vn -0.000000 1.000000 -0.000000
vn -0.000000 1.000000 -0.000000
vn -0.000000 1.000000 -0.000000
vn -0.000000 1.000000 -0.000000
vn -0.000000 1.000000 -0.000000
vn -0.000000 1.000000 -0.000000
vn -0.000000 1.000000 -0.000000
vn -0.000000 1.000000 -0.000000
vn -0.000000 1.000000 -0.000000
vn -0.000000 1.000000 -0.000000
vn -0.000000 1.000000 -0.000000
vn -0.000000 1.000000 -0.000000
vn -0.000000 1.000000 -0.000000
vn -0.000000 1.000000 -0.000000
vn -0.000000 1.000000 -0.000000
vn -0.000000 1.000000 -0.000000
vn -0.000000 1.000000 -0.000000
vn -0.000000 1.000000 -0.000000
vn -0.000000 1.000000 -0.000000
vn -0.000000 1.000000 0.000000
vn -0.000000 1.000000 0.000000
vn -0.000000 1.000000 0.000000
vn -0.000000 1.000000 -0.000000
vn -0.000000 1.000000 -0.000000
vn -0.000000 1.000000 -0.000000
vn -0.000000 1.000000 -0.000000
vn -0.000000 1.000000 0.000000
vn -0.000000 1.000000 0.000000
vn -0.000000 1.000000 0.000000
vn -0.000000 1.000000 0.000000
vn -0.000000 1.000000 0.000000
vn -0.000000 1.000000 0.000000
vn -0.000000 1.000000 0.000000
vn -0.000000 1.000000 0.000000
vn -0.000000 1.000000 0.000000
vn -0.000000 1.000000 0.000000
vn -0.000000 1.000000 0.000000
vn -0.000000 1.000000 0.000000
vn -0.000000 1.000000 0.000000
vn -0.000000 1.000000 0.000000
vn -0.000000 1.000000 0.000000
vn -0.000000 1.000000 0.000000
vn -0.000000 1.000000 0.000000
vn -0.000000 1.000000 0.000000
vn -0.000000 1.000000 0.000000
vn -0.000000 1.000000 0.000000
vn -0.000000 1.000000 0.000000
vn -0.000000 1.000000 0.000000
vn -0.000000 1.000000 0.000000
vn -0.000000 1.000000 0.000000
vn -0.000000 1.000000 0.000000
vn -0.000000 1.000000 0.000000
vn -0.000000 1.000000 0.000000
vn -0.000000 1.000000 0.000000
vn -0.000000 1.000000 0.000000
s 1
g SM_Record_01
f 2/2/1 1/1/2 62/3/3
f 1/1/2 61/4/4 62/3/3
s 2
f 3/5/5 2/2/6 63/6/7
f 2/2/6 62/3/8 63/6/7
s 3
f 4/7/9 3/5/10 64/8/11
f 3/5/10 63/6/12 64/8/11
s 4
f 5/9/13 4/7/14 65/10/15
f 4/7/14 64/8/16 65/10/15
s 5
f 6/11/17 5/9/18 66/12/19
f 5/9/18 65/10/20 66/12/19
s 6
f 7/13/21 6/11/22 67/14/23
f 6/11/22 66/12/24 67/14/23
s 7
f 8/15/25 7/13/26 68/16/27
f 7/13/26 67/14/28 68/16/27
s 8
f 9/17/29 8/15/30 69/18/31
f 8/15/30 68/16/32 69/18/31
s 9
f 10/19/33 9/17/34 70/20/35
f 9/17/34 69/18/36 70/20/35
s 10
f 11/21/37 10/19/38 71/22/39
f 10/19/38 70/20/40 71/22/39
s 11
f 12/24/41 11/21/42 72/25/43
f 11/21/42 71/22/44 72/25/43
s 12
f 13/26/45 12/24/46 73/27/47
f 12/24/46 72/25/48 73/27/47
s 13
f 14/29/49 13/26/50 74/30/51
f 13/26/50 73/27/52 74/30/51
s 14
f 15/31/53 14/29/54 75/32/55
f 14/29/54 74/30/56 75/32/55
s 15
f 16/34/57 15/31/58 76/35/59
f 15/31/58 75/32/60 76/35/59
s 16
f 17/36/61 16/34/62 77/38/63
f 16/34/62 76/35/64 77/38/63
s 17
f 18/39/65 17/36/66 78/40/67
f 17/36/66 77/38/68 78/40/67
s 18
f 19/41/69 18/39/70 79/49/71
f 18/39/70 78/40/72 79/49/71
s 19
f 20/51/73 19/41/74 80/52/75
f 19/41/74 79/49/76 80/52/75
s 20
f 21/53/77 20/51/78 81/54/79
f 20/51/78 80/52/80 81/54/79
s 21
f 22/56/81 21/53/82 82/57/83
f 21/53/82 81/54/84 82/57/83
s 22
f 23/58/85 22/56/86 83/59/87
f 22/56/86 82/57/88 83/59/87
s 23
f 24/61/89 23/58/90 84/62/91
f 23/58/90 83/59/92 84/62/91
s 24
f 25/69/93 24/61/94 85/70/95
f 24/61/94 84/62/96 85/70/95
s 25
f 26/73/97 25/69/98 86/74/99
f 25/69/98 85/70/100 86/74/99
s 26
f 27/75/101 26/73/102 87/76/103
f 26/73/102 86/74/104 87/76/103
s 27
f 28/77/105 27/75/106 88/78/107
f 27/75/106 87/76/108 88/78/107
s 28
f 29/79/109 28/77/110 89/80/111
f 28/77/110 88/78/112 89/80/111
s 29
f 30/81/113 29/79/114 90/82/115
f 29/79/114 89/80/116 90/82/115
s 30
f 31/83/117 30/81/118 91/84/119
f 30/81/118 90/82/120 91/84/119
s 31
f 32/85/121 31/83/122 92/86/123
f 31/83/122 91/84/124 92/86/123
s 32
f 33/87/125 32/85/126 93/88/127
f 32/85/126 92/86/128 93/88/127
s 33
f 34/89/129 33/87/130 94/90/131
f 33/87/130 93/88/132 94/90/131
s 34
f 35/91/133 34/89/134 95/92/135
f 34/89/134 94/90/136 95/92/135
s 35
f 36/93/137 35/91/138 96/94/139
f 35/91/138 95/92/140 96/94/139
s 36
f 37/95/141 36/93/142 97/96/143
f 36/93/142 96/94/144 97/96/143
s 37
f 38/97/145 37/95/146 98/98/147
f 37/95/146 97/96/148 98/98/147
s 38
f 39/99/149 38/97/150 99/100/151
f 38/97/150 98/98/152 99/100/151
s 39
f 40/101/153 39/99/154 100/102/155
f 39/99/154 99/100/156 100/102/155
s 40
f 40/101/157 100/102/158 1/1/159
f 100/102/158 61/4/160 1/1/159
s 41
f 50/23/161 60/37/162 41/28/163
f 60/37/162 51/33/164 41/28/163
s 42
f 41/28/165 51/33/166 42/42/167
f 51/33/166 52/43/168 42/42/167
s 43
f 42/42/169 52/43/170 43/44/171
f 52/43/170 53/45/172 43/44/171
s 44
f 43/44/173 53/45/174 44/46/175
f 53/45/174 54/47/176 44/46/175
s 45
f 44/46/177 54/47/178 45/48/179
f 54/47/178 55/50/180 45/48/179
s 46
f 45/71/181 55/72/182 46/55/183
f 55/72/182 56/60/184 46/55/183
s 47
f 46/55/185 56/60/186 47/63/187
f 56/60/186 57/64/188 47/63/187
s 48
f 47/63/189 57/64/190 48/65/191
f 57/64/190 58/66/192 48/65/191
s 49
f 48/65/193 58/66/194 49/67/195
f 58/66/194 59/68/196 49/67/195
s 50
f 49/67/197 59/68/198 50/23/199
f 59/68/198 60/37/200 50/23/199
s off
f 62/113/201 61/114/202 50/103/203
f 63/115/204 62/113/205 50/103/206
s 51
f 41/104/207 64/116/208 50/103/209
f 64/116/208 63/115/210 50/103/209
s off
f 65/117/211 64/116/212 41/104/213
f 66/118/214 65/117/215 41/104/216
f 67/119/217 66/118/218 41/104/219
s 52
f 42/105/220 68/120/221 41/104/222
f 68/120/221 67/119/223 41/104/222
s off
f 69/121/224 68/120/225 42/105/226
f 70/122/227 69/121/228 42/105/229
f 71/123/230 70/122/231 42/105/232
s 53
f 43/106/233 72/124/234 42/105/235
f 72/124/234 71/123/236 42/105/235
s off
f 73/125/237 72/124/238 43/106/239
f 74/126/240 73/125/241 43/106/242
f 75/127/243 74/126/244 43/106/245
s 54
f 44/107/246 76/128/247 43/106/248
f 76/128/247 75/127/249 43/106/248
s off
f 77/129/250 76/128/251 44/107/252
f 78/130/253 77/129/254 44/107/255
f 79/131/256 78/130/257 44/107/258
s 55
f 45/108/259 80/132/260 44/107/261
f 80/132/260 79/131/262 44/107/261
s off
f 81/133/263 80/132/264 45/108/265
f 82/134/266 81/133/267 45/108/268
f 83/135/269 82/134/270 45/108/271
s 56
f 46/109/272 84/136/273 45/108/274
f 84/136/273 83/135/275 45/108/274
s off
f 85/137/276 84/136/277 46/109/278
f 86/138/279 85/137/280 46/109/281
f 87/139/282 86/138/283 46/109/284
s 57
f 47/110/285 88/140/286 46/109/287
f 88/140/286 87/139/288 46/109/287
s off
f 89/141/289 88/140/290 47/110/291
f 90/142/292 89/141/293 47/110/294
f 91/143/295 90/142/296 47/110/297
s 58
f 48/111/298 92/144/299 47/110/300
f 92/144/299 91/143/301 47/110/300
s off
f 93/145/302 92/144/303 48/111/304
f 94/146/305 93/145/306 48/111/307
f 95/147/308 94/146/309 48/111/310
s 59
f 49/112/311 96/148/312 48/111/313
f 96/148/312 95/147/314 48/111/313
s off
f 97/149/315 96/148/316 49/112/317
f 98/150/318 97/149/319 49/112/320
f 99/151/321 98/150/322 49/112/323
s 60
f 50/103/324 100/152/325 49/112/326
f 100/152/325 99/151/327 49/112/326
s off
f 61/114/328 100/152/329 50/103/330
s 61
f 1/153/331 2/154/332 101/155/333
f 101/155/333 2/154/332 102/156/334
s 62
f 2/154/335 3/157/336 102/156/337
f 102/156/337 3/157/336 103/158/338
s 63
f 3/157/339 4/159/340 103/158/341
f 103/158/341 4/159/340 104/160/342
s 64
f 4/159/343 5/161/344 104/160/345
f 104/160/345 5/161/344 105/162/346
s 65
f 5/161/347 6/163/348 105/162/349
f 105/162/349 6/163/348 106/164/350
s 66
f 6/163/351 7/165/352 106/164/353
f 106/164/353 7/165/352 107/166/354
s 67
f 7/165/355 8/167/356 107/166/357
f 107/166/357 8/167/356 108/168/358
s 68
f 8/167/359 9/169/360 108/168/361
f 108/168/361 9/169/360 109/170/362
s 69
f 9/169/363 10/171/364 109/170/365
f 109/170/365 10/171/364 110/172/366
s 70
f 10/171/367 11/173/368 110/172/369
f 110/172/369 11/173/368 111/174/370
s 71
f 11/173/371 12/175/372 111/174/373
f 111/174/373 12/175/372 112/176/374
s 72
f 12/175/375 13/177/376 112/176/377
f 112/176/377 13/177/376 113/178/378
s 73
f 13/177/379 14/179/380 113/178/381
f 113/178/381 14/179/380 114/180/382
s 74
f 14/179/383 15/181/384 114/180/385
f 114/180/385 15/181/384 115/182/386
s 75
f 15/181/387 16/183/388 115/182/389
f 115/182/389 16/183/388 116/184/390
s 76
f 16/183/391 17/185/392 116/184/393
f 116/184/393 17/185/392 117/186/394
s 77
f 17/185/395 18/187/396 117/186/397
f 117/186/397 18/187/396 118/188/398
s 78
f 18/187/399 19/189/400 118/188/401
f 118/188/401 19/189/400 119/190/402
s 79
f 19/189/403 20/191/404 119/190/405
f 119/190/405 20/191/404 120/192/406
s 80
f 20/191/407 21/193/408 120/192/409
f 120/192/409 21/193/408 121/194/410
s 81
f 21/195/411 22/196/412 121/197/413
f 121/197/413 22/196/412 122/198/414
s 82
f 22/196/415 23/199/416 122/198/417
f 122/198/417 23/199/416 123/200/418
s 83
f 23/199/419 24/201/420 123/200/421
f 123/200/421 24/201/420 124/202/422
s 84
f 24/201/423 25/203/424 124/202/425
f 124/202/425 25/203/424 125/204/426
s 85
f 25/203/427 26/205/428 125/204/429
f 125/204/429 26/205/428 126/206/430
s 86
f 26/205/431 27/207/432 126/206/433
f 126/206/433 27/207/432 127/208/434
s 87
f 27/207/435 28/209/436 127/208/437
f 127/208/437 28/209/436 128/210/438
s 88
f 28/209/439 29/211/440 128/210/441
f 128/210/441 29/211/440 129/212/442
s 89
f 29/211/443 30/213/444 129/212/445
f 129/212/445 30/213/444 130/214/446
s 90
f 30/213/447 31/215/448 130/214/449
f 130/214/449 31/215/448 131/216/450
s 91
f 31/215/451 32/217/452 131/216/453
f 131/216/453 32/217/452 132/218/454
s 92
f 32/217/455 33/219/456 132/218/457
f 132/218/457 33/219/456 133/220/458
s 93
f 33/219/459 34/221/460 133/220/461
f 133/220/461 34/221/460 134/222/462
s 94
f 34/221/463 35/223/464 134/222/465
f 134/222/465 35/223/464 135/224/466
s 95
f 35/223/467 36/225/468 135/224/469
f 135/224/469 36/225/468 136/226/470
s 96
f 36/225/471 37/227/472 136/226/473
f 136/226/473 37/227/472 137/228/474
s 97
f 37/227/475 38/229/476 137/228/477
f 137/228/477 38/229/476 138/230/478
s 98
f 38/229/479 39/231/480 138/230/481
f 138/230/481 39/231/480 139/232/482
s 99
f 39/231/483 40/233/484 139/232/485
f 139/232/485 40/233/484 140/234/486
s 100
f 40/233/487 1/235/488 140/234/489
f 140/234/489 1/235/488 101/236/490
s 101
f 102/237/491 142/238/492 101/239/493
f 101/239/493 142/238/492 141/240/494
s 102
f 103/241/495 143/242/496 102/237/497
f 102/237/497 143/242/496 142/238/498
s 103
f 104/243/499 144/244/500 103/241/501
f 103/241/501 144/244/500 143/242/502
s 104
f 105/245/503 145/246/504 104/243/505
f 104/243/505 145/246/504 144/244/506
s 105
f 106/247/507 146/248/508 105/245/509
f 105/245/509 146/248/508 145/246/510
s 106
f 107/249/511 147/250/512 106/247/513
f 106/247/513 147/250/512 146/248/514
s 107
f 108/251/515 148/252/516 107/249/517
f 107/249/517 148/252/516 147/250/518
s 108
f 109/253/519 149/254/520 108/251/521
f 108/251/521 149/254/520 148/252/522
s 109
f 110/255/523 150/256/524 109/253/525
f 109/253/525 150/256/524 149/254/526
s 110
f 111/257/527 151/258/528 110/255/529
f 110/255/529 151/258/528 150/256/530
s 111
f 112/259/531 152/260/532 111/257/533
f 111/257/533 152/260/532 151/258/534
s 112
f 113/261/535 153/262/536 112/259/537
f 112/259/537 153/262/536 152/260/538
s 113
f 114/263/539 154/264/540 113/261/541
f 113/261/541 154/264/540 153/262/542
s 114
f 115/265/543 155/266/544 114/263/545
f 114/263/545 155/266/544 154/264/546
s 115
f 116/267/547 156/268/548 115/265/549
f 115/265/549 156/268/548 155/266/550
s 116
f 117/269/551 157/270/552 116/267/553
f 116/267/553 157/270/552 156/268/554
s 117
f 118/271/555 158/272/556 117/269/557
f 117/269/557 158/272/556 157/270/558
s 118
f 119/273/559 159/274/560 118/271/561
f 118/271/561 159/274/560 158/272/562
s 119
f 120/275/563 160/276/564 119/273/565
f 119/273/565 160/276/564 159/274/566
s 120
f 121/277/567 161/278/568 120/275/569
f 120/275/569 161/278/568 160/276/570
s 121
f 122/279/571 162/280/572 121/277/573
f 121/277/573 162/280/572 161/278/574
s 122
f 123/281/575 163/282/576 122/279/577
f 122/279/577 163/282/576 162/280/578
s 123
f 124/283/579 164/284/580 123/281/581
f 123/281/581 164/284/580 163/282/582
s 124
f 125/285/583 165/286/584 124/283/585
f 124/283/585 165/286/584 164/284/586
s 125
f 126/287/587 166/288/588 125/285/589
f 125/285/589 166/288/588 165/286/590
s 126
f 127/289/591 167/290/592 126/287/593
f 126/287/593 167/290/592 166/288/594
s 127
f 128/291/595 168/292/596 127/289/597
f 127/289/597 168/292/596 167/290/598
s 128
f 129/293/599 169/294/600 128/291/601
f 128/291/601 169/294/600 168/292/602
s 129
f 130/295/603 170/296/604 129/293/605
f 129/293/605 170/296/604 169/294/606
s 130
f 131/297/607 171/298/608 130/295/609
f 130/295/609 171/298/608 170/296/610
s 131
f 132/299/611 172/300/612 131/297/613
f 131/297/613 172/300/612 171/298/614
s 132
f 133/301/615 173/302/616 132/299/617
f 132/299/617 173/302/616 172/300/618
s 133
f 134/303/619 174/304/620 133/301/621
f 133/301/621 174/304/620 173/302/622
s 134
f 135/305/623 175/306/624 134/303/625
f 134/303/625 175/306/624 174/304/626
s 135
f 136/307/627 176/308/628 135/305/629
f 135/305/629 176/308/628 175/306/630
s 136
f 137/309/631 177/310/632 136/307/633
f 136/307/633 177/310/632 176/308/634
s 137
f 138/311/635 178/312/636 137/309/637
f 137/309/637 178/312/636 177/310/638
s 138
f 139/313/639 179/314/640 138/311/641
f 138/311/641 179/314/640 178/312/642
s 139
f 140/315/643 180/316/644 139/313/645
f 139/313/645 180/316/644 179/314/646
s 140
f 140/315/647 101/239/648 180/316/649
f 180/316/649 101/239/648 141/240/650
s 141
f 60/317/651 51/318/652 50/319/653
f 50/319/653 51/318/652 41/320/654
s 142
f 51/318/655 52/321/656 41/320/657
f 41/320/657 52/321/656 42/322/658
s 143
f 52/321/659 53/323/660 42/322/661
f 42/322/661 53/323/660 43/324/662
s 144
f 53/323/663 54/325/664 43/324/665
f 43/324/665 54/325/664 44/326/666
s 145
f 54/325/667 55/327/668 44/326/669
f 44/326/669 55/327/668 45/328/670
s 146
f 55/329/671 56/330/672 45/331/673
f 45/331/673 56/330/672 46/332/674
s 147
f 56/330/675 57/333/676 46/332/677
f 46/332/677 57/333/676 47/334/678
s 148
f 57/333/679 58/335/680 47/334/681
f 47/334/681 58/335/680 48/336/682
s 149
f 58/335/683 59/337/684 48/336/685
f 48/336/685 59/337/684 49/338/686
s 150
f 59/337/687 60/317/688 49/338/689
f 49/338/689 60/317/688 50/319/690
s off
f 142/339/691 60/340/692 141/341/693
f 143/342/694 60/340/695 142/339/696
s 151
f 51/343/697 60/340/698 144/344/699
f 144/344/699 60/340/698 143/342/700
s off
f 145/345/701 51/343/702 144/344/703
f 146/346/704 51/343/705 145/345/706
f 147/347/707 51/343/708 146/346/709
s 152
f 52/348/710 51/343/711 148/349/712
f 148/349/712 51/343/711 147/347/713
s off
f 149/350/714 52/348/715 148/349/716
f 150/351/717 52/348/718 149/350/719
f 151/352/720 52/348/721 150/351/722
s 153
f 53/353/723 52/348/724 152/354/725
f 152/354/725 52/348/724 151/352/726
s off
f 153/355/727 53/353/728 152/354/729
f 154/356/730 53/353/731 153/355/732
f 155/357/733 53/353/734 154/356/735
s 154
f 54/358/736 53/353/737 156/359/738
f 156/359/738 53/353/737 155/357/739
s off
f 157/360/740 54/358/741 156/359/742
f 158/361/743 54/358/744 157/360/745
f 159/362/746 54/358/747 158/361/748
s 155
f 55/363/749 54/358/750 160/364/751
f 160/364/751 54/358/750 159/362/752
s off
f 161/365/753 55/363/754 160/364/755
f 162/366/756 55/363/757 161/365/758
f 163/367/759 55/363/760 162/366/761
s 156
f 56/368/762 55/363/763 164/369/764
f 164/369/764 55/363/763 163/367/765
s off
f 165/370/766 56/368/767 164/369/768
f 166/371/769 56/368/770 165/370/771
f 167/372/772 56/368/773 166/371/774
s 157
f 57/373/775 56/368/776 168/374/777
f 168/374/777 56/368/776 167/372/778
s off
f 169/375/779 57/373/780 168/374/781
f 170/376/782 57/373/783 169/375/784
f 171/377/785 57/373/786 170/376/787
s 158
f 58/378/788 57/373/789 172/379/790
f 172/379/790 57/373/789 171/377/791
s off
f 173/380/792 58/378/793 172/379/794
f 174/381/795 58/378/796 173/380/797
f 175/382/798 58/378/799 174/381/800
s 159
f 59/383/801 58/378/802 176/384/803
f 176/384/803 58/378/802 175/382/804
s off
f 177/385/805 59/383/806 176/384/807
f 178/386/808 59/383/809 177/385/810
f 179/387/811 59/383/812 178/386/813
s 160
f 60/340/814 59/383/815 180/388/816
f 180/388/816 59/383/815 179/387/817
s off
f 141/341/818 60/340/819 180/388/820
