# This file uses feet as units for non-parametric coordinates.

g default
v -55.933571 8.821533 42.239407
v -55.933571 -10.713776 42.239410
v -55.933567 -10.713783 -42.239418
v -55.933556 8.821533 -42.239407
v -57.148743 8.821522 -42.239426
v -57.148750 8.821522 42.239418
v -57.148743 -10.713737 42.239418
v -57.148750 -10.713737 -42.239426
v -56.084297 -10.515114 41.827869
v -56.084297 -10.515099 -41.827866
v -0.790358 -10.515099 -41.827866
v -0.790354 -10.515114 41.827866
v -0.116648 -2.037025 -5.315402
v -0.116648 -2.037025 5.315386
v 0.902401 -2.037025 4.910776
v 1.766308 -2.037025 3.758546
v 2.343554 -2.037025 2.034104
v 2.546255 -2.037025 -0.000010
v 2.343554 -2.037025 -2.034120
v 1.766308 -2.037025 -3.758562
v 0.902401 -2.037025 -4.910792
v -0.116646 2.037048 -5.315402
v -0.116648 2.037048 5.315386
v 0.902401 2.037048 4.910776
v 1.766308 2.037048 3.758546
v 2.343554 2.037049 2.034104
v 2.546255 2.037048 -0.000010
v 2.343554 2.037048 -2.034120
v 1.766308 2.037048 -3.758562
v 0.902401 2.037048 -4.910792
v -0.116646 0.000000 -4.415483
v -0.116648 0.000000 4.415472
v 0.902401 0.000000 4.079364
v 1.766308 0.000000 3.122211
v 2.343554 0.000000 1.689723
v 2.546255 0.000000 -0.000006
v 2.343554 0.000000 -1.689736
v 1.766308 0.000000 -3.122222
v 0.902401 0.000000 -4.079375
v 0.719666 -0.448669 -5.784522
v 0.719666 -0.448669 5.784511
v 1.731615 -0.448669 4.813508
v 2.588942 -0.448669 3.327637
v 3.050989 -0.448669 1.652109
v 3.213678 -0.448669 -0.000006
v 3.050989 -0.448669 -1.652121
v 2.588942 -0.448669 -3.327649
v 1.731615 -0.448669 -4.813519
v 0.719666 0.478912 -5.784522
v 0.719666 0.478912 5.784511
v 1.731615 0.478912 4.813508
v 2.588942 0.478912 3.327637
v 3.050989 0.478912 1.652109
v 3.213678 0.478912 -0.000006
v 3.050989 0.478912 -1.652121
v 2.588942 0.478912 -3.327649
v 1.731615 0.478912 -4.813519
v -0.123642 -0.448669 -6.193022
v -0.123642 -0.448669 6.193011
v -0.123642 0.478912 -6.193022
v -0.123642 0.478912 6.193011
v -0.695496 9.019547 -41.661613
v -57.382114 9.019547 -41.661629
v -0.695490 -10.902458 -43.060425
v -0.695492 9.019531 -43.060413
v -57.382118 9.019539 -43.060417
v -57.382118 -10.902439 -43.060421
v -57.382114 -10.902466 -41.661613
v -0.695494 -10.902439 -41.661613
v -0.695492 9.019547 43.060436
v -57.382114 9.019547 43.060421
v -0.695486 -10.902458 41.661602
v -0.695488 9.019531 41.661629
v -57.382118 9.019539 41.661621
v -57.382118 -10.902439 41.661602
v -57.382114 -10.902466 43.060421
v -0.695490 -10.902439 43.060421
v 0.000002 9.451653 44.255161
v -1.072987 9.451630 44.255161
v -1.072979 -11.334583 44.255165
v -1.072987 9.451630 -44.255180
v -1.072987 -11.334602 -44.255180
v 0.000002 -11.334583 44.255161
v -0.000002 -11.334583 -44.255177
v -0.000002 9.451653 -44.255177
v -0.790356 -10.061729 41.827858
v -0.790359 -10.061729 -41.827873
v -56.084297 -10.061729 41.827862
v -56.084297 -10.061729 -41.827873
vt 0.969622 1.004696
vt 0.969622 1.350757
vt 0.963892 1.350758
vt 0.963892 1.004696
vt 0.428380 1.737073
vt 0.765117 1.737073
vt 0.765117 1.819312
vt 0.428380 1.819312
vt 0.963892 1.350758
vt 0.963892 1.004696
vt 0.969622 1.004696
vt 0.969622 1.350757
vt 0.694569 1.897312
vt 0.694569 1.829686
vt 0.746022 1.829686
vt 0.746022 1.897312
vt 0.956461 1.922036
vt 0.940452 1.925231
vt 0.940452 1.917591
vt 0.956461 1.914617
vt 0.956461 1.931264
vt 0.940452 1.934240
vt 0.956461 1.942560
vt 0.940452 1.944373
vt 0.956461 1.955095
vt 0.940452 1.955123
vt 0.956461 1.967622
vt 0.940452 1.965878
vt 0.956461 1.978898
vt 0.940452 1.975997
vt 0.956461 1.988128
vt 0.940452 1.984967
vt 0.956461 1.995565
vt 0.940452 1.992595
vt 0.924443 1.922036
vt 0.924443 1.914617
vt 0.924443 1.931264
vt 0.924443 1.942560
vt 0.924443 1.955095
vt 0.924443 1.967622
vt 0.924443 1.978898
vt 0.924443 1.988128
vt 0.924443 1.995565
vt 0.960687 1.995377
vt 0.960687 1.927442
vt 0.968183 1.930028
vt 0.968183 1.992792
vt 0.978784 1.974409
vt 0.974539 1.985429
vt 0.974539 1.937391
vt 0.978784 1.948411
vt 0.980276 1.961410
vt 0.968640 1.926026
vt 0.968640 1.863262
vt 0.976137 1.860676
vt 0.976137 1.928612
vt 0.958040 1.907643
vt 0.956548 1.894644
vt 0.958040 1.881645
vt 0.962286 1.870625
vt 0.962285 1.918663
vt 0.931701 1.903832
vt 0.931701 1.824680
vt 0.937905 1.827291
vt 0.945348 1.833496
vt 0.951655 1.842991
vt 0.955054 1.853698
vt 0.956251 1.864256
vt 0.955054 1.874814
vt 0.951655 1.885521
vt 0.945348 1.895016
vt 0.937905 1.901221
vt 0.953239 1.825429
vt 0.952042 1.814871
vt 0.953239 1.804314
vt 0.956638 1.793606
vt 0.962945 1.784111
vt 0.970389 1.777906
vt 0.976592 1.775295
vt 0.976592 1.854447
vt 0.970389 1.851837
vt 0.962945 1.845632
vt 0.956638 1.836136
vt 0.953152 1.656411
vt 0.953152 1.648749
vt 0.958899 1.648749
vt 0.958899 1.656411
vt 0.953152 1.642365
vt 0.958899 1.642365
vt 0.953152 1.727388
vt 0.953152 1.719727
vt 0.958899 1.719727
vt 0.958899 1.727388
vt 0.958899 1.733773
vt 0.953152 1.733773
vt 0.953152 1.709955
vt 0.958899 1.709955
vt 0.953152 1.698935
vt 0.958899 1.698935
vt 0.953152 1.688069
vt 0.958899 1.688069
vt 0.953152 1.677203
vt 0.958899 1.677203
vt 0.953152 1.666183
vt 0.958899 1.666183
vt 0.959422 1.004898
vt 0.959422 1.272197
vt 0.953692 1.272197
vt 0.953692 1.004898
vt 0.428494 1.918233
vt 0.428494 1.834366
vt 0.688596 1.834366
vt 0.688596 1.918234
vt 0.953692 1.272197
vt 0.953692 1.004898
vt 0.959422 1.004898
vt 0.959422 1.272197
vt 0.688596 1.834366
vt 0.688596 1.918234
vt 0.428494 1.918233
vt 0.428494 1.834366
vt 0.959422 1.004898
vt 0.959422 1.272197
vt 0.953692 1.272197
vt 0.953692 1.004898
vt 0.428494 1.918233
vt 0.428494 1.834366
vt 0.688596 1.834366
vt 0.688596 1.918234
vt 0.953692 1.272197
vt 0.953692 1.004898
vt 0.959422 1.004898
vt 0.959422 1.272197
vt 0.688596 1.834366
vt 0.688596 1.918234
vt 0.428494 1.918233
vt 0.428494 1.834366
vt 0.991204 1.996499
vt 0.991204 1.920122
vt 0.996128 1.920122
vt 0.996128 1.996499
vt 0.942809 1.826333
vt 0.942809 1.463757
vt 0.947869 1.463757
vt 0.947869 1.826333
vt 0.649339 1.094226
vt 0.307275 1.094226
vt 0.307275 1.013895
vt 0.649338 1.013895
vt 0.947869 1.463757
vt 0.947869 1.826333
vt 0.942809 1.826333
vt 0.942809 1.463757
vt 0.996128 1.920122
vt 0.996128 1.996499
vt 0.991204 1.996499
vt 0.991204 1.920122
vt 0.649339 0.264260
vt 0.307275 0.264260
vt 0.307275 0.183928
vt 0.649339 0.183928
vt 0.746022 1.829686
vt 0.746022 1.897312
vt 0.694569 1.897312
vt 0.694569 1.829686
vn 1.000000 -0.000001 0.000000
vn 1.000000 0.000000 0.000000
vn 1.000000 -0.000000 0.000000
vn 1.000000 -0.000000 0.000000
vn 1.000000 -0.000001 0.000000
vn 1.000000 -0.000001 0.000000
vn -0.000009 1.000000 -0.000000
vn -0.000009 1.000000 -0.000000
vn -0.000009 1.000000 -0.000000
vn -0.000009 1.000000 -0.000000
vn -0.000009 1.000000 -0.000000
vn -0.000009 1.000000 -0.000000
vn -0.000038 -1.000000 0.000000
vn -0.000038 -1.000000 0.000000
vn -0.000038 -1.000000 0.000000
vn -0.000031 -1.000000 0.000000
vn -0.000031 -1.000000 0.000000
vn -0.000031 -1.000000 0.000000
vn -0.000000 -1.000000 -0.000000
vn -0.000000 -1.000000 -0.000000
vn -0.000000 -1.000000 -0.000000
vn -0.000000 -1.000000 -0.000000
vn -0.000000 -1.000000 -0.000000
vn -0.000000 -1.000000 -0.000000
vn 0.329148 0.000002 0.944278
vn 0.341368 0.379827 0.859767
vn 0.538930 0.328989 0.775449
vn 0.538930 0.328989 0.775449
vn 0.592731 0.000002 0.805400
vn 0.329148 0.000002 0.944278
vn 0.592731 0.000002 0.805400
vn 0.538930 0.328989 0.775449
vn 0.850926 0.176812 0.494634
vn 0.850926 0.176812 0.494634
vn 0.871010 0.000001 0.491264
vn 0.592731 0.000002 0.805400
vn 0.871010 0.000001 0.491264
vn 0.850926 0.176812 0.494634
vn 0.970835 0.054545 0.233462
vn 0.970835 0.054545 0.233462
vn 0.973192 0.000000 0.229993
vn 0.871010 0.000001 0.491264
vn 0.973192 0.000000 0.229993
vn 0.970835 0.054545 0.233462
vn 0.999979 0.004694 0.004444
vn 0.999979 0.004694 0.004444
vn 0.999987 0.000000 0.005029
vn 0.973192 0.000000 0.229993
vn 0.999987 0.000000 0.005029
vn 0.999979 0.004694 0.004444
vn 0.973852 0.033764 -0.224660
vn 0.973852 0.033764 -0.224660
vn 0.974774 0.000000 -0.223194
vn 0.999987 0.000000 0.005029
vn 0.974774 0.000000 -0.223194
vn 0.973852 0.033764 -0.224660
vn 0.859102 0.142289 -0.491627
vn 0.859102 0.142289 -0.491627
vn 0.870569 0.000001 -0.492046
vn 0.974774 0.000000 -0.223194
vn 0.870569 0.000001 -0.492046
vn 0.859102 0.142289 -0.491627
vn 0.540004 0.304282 -0.784735
vn 0.540004 0.304282 -0.784735
vn 0.583235 0.000002 -0.812304
vn 0.870569 0.000001 -0.492046
vn 0.583235 0.000002 -0.812304
vn 0.540004 0.304282 -0.784735
vn 0.328449 0.364428 -0.871386
vn 0.328449 0.364428 -0.871386
vn 0.313228 0.000002 -0.949678
vn 0.583235 0.000002 -0.812304
vn 0.329148 0.000002 0.944278
vn 0.592731 0.000002 0.805400
vn 0.538931 -0.328986 0.775449
vn 0.538931 -0.328986 0.775449
vn 0.341368 -0.379823 0.859769
vn 0.329148 0.000002 0.944278
vn 0.592731 0.000002 0.805400
vn 0.871010 0.000001 0.491264
vn 0.850926 -0.176810 0.494634
vn 0.850926 -0.176810 0.494634
vn 0.538931 -0.328986 0.775449
vn 0.592731 0.000002 0.805400
vn 0.871010 0.000001 0.491264
vn 0.973192 0.000000 0.229993
vn 0.970835 -0.054544 0.233461
vn 0.970835 -0.054544 0.233461
vn 0.850926 -0.176810 0.494634
vn 0.871010 0.000001 0.491264
vn 0.973192 0.000000 0.229993
vn 0.999987 0.000000 0.005029
vn 0.999979 -0.004694 0.004444
vn 0.999979 -0.004694 0.004444
vn 0.970835 -0.054544 0.233461
vn 0.973192 0.000000 0.229993
vn 0.999987 0.000000 0.005029
vn 0.974774 0.000000 -0.223194
vn 0.973852 -0.033764 -0.224660
vn 0.973852 -0.033764 -0.224660
vn 0.999979 -0.004694 0.004444
vn 0.999987 0.000000 0.005029
vn 0.974774 0.000000 -0.223194
vn 0.870569 0.000001 -0.492046
vn 0.859102 -0.142287 -0.491627
vn 0.859102 -0.142287 -0.491627
vn 0.973852 -0.033764 -0.224660
vn 0.974774 0.000000 -0.223194
vn 0.870569 0.000001 -0.492046
vn 0.583235 0.000002 -0.812304
vn 0.540005 -0.304279 -0.784735
vn 0.540005 -0.304279 -0.784735
vn 0.859102 -0.142287 -0.491627
vn 0.870569 0.000001 -0.492046
vn 0.583235 0.000002 -0.812304
vn 0.313228 0.000002 -0.949678
vn 0.328450 -0.364425 -0.871387
vn 0.328450 -0.364425 -0.871387
vn 0.540005 -0.304279 -0.784735
vn 0.583235 0.000002 -0.812304
vn 0.000000 1.000000 0.000000
vn 0.000000 1.000000 0.000000
vn 0.000000 1.000000 0.000000
vn 0.000000 1.000000 0.000000
vn 0.000000 1.000000 0.000000
vn 0.000000 1.000000 0.000000
vn 0.000000 1.000000 0.000000
vn 0.000000 1.000000 0.000000
vn 0.000000 1.000000 0.000000
vn 0.000000 1.000000 0.000000
vn 0.000000 1.000000 0.000000
vn 0.000000 1.000000 0.000000
vn 0.000000 1.000000 0.000000
vn 0.000000 1.000000 0.000000
vn 0.000000 1.000000 0.000000
vn 0.000000 1.000000 0.000000
vn 0.000000 1.000000 0.000000
vn 0.000000 1.000000 0.000000
vn 0.000000 1.000000 0.000000
vn 0.000000 1.000000 0.000000
vn 0.000000 1.000000 0.000000
vn 0.000000 -1.000000 -0.000000
vn 0.000000 -1.000000 -0.000000
vn 0.000000 -1.000000 -0.000000
vn 0.000000 -1.000000 -0.000000
vn 0.000000 -1.000000 -0.000000
vn 0.000000 -1.000000 -0.000000
vn 0.000000 -1.000000 -0.000000
vn 0.000000 -1.000000 -0.000000
vn 0.000000 -1.000000 -0.000000
vn 0.000000 -1.000000 -0.000000
vn 0.000000 -1.000000 -0.000000
vn 0.000000 -1.000000 -0.000000
vn 0.000000 -1.000000 -0.000000
vn 0.000000 -1.000000 -0.000000
vn 0.000000 -1.000000 -0.000000
vn 0.000000 -1.000000 -0.000000
vn 0.000000 -1.000000 -0.000000
vn 0.000000 -1.000000 -0.000000
vn 0.000000 -1.000000 -0.000000
vn 0.000000 -1.000000 -0.000000
vn 0.000000 -1.000000 -0.000000
vn 0.000000 -1.000000 -0.000000
vn 0.000000 -1.000000 -0.000000
vn 0.000000 -1.000000 -0.000000
vn 0.000000 -1.000000 -0.000000
vn 0.000000 -1.000000 -0.000000
vn 0.000000 -1.000000 -0.000000
vn 0.000000 -1.000000 -0.000000
vn 0.000000 -1.000000 -0.000000
vn 0.000000 -1.000000 -0.000000
vn 0.000000 -1.000000 -0.000000
vn 0.000000 -1.000000 -0.000000
vn 0.000000 -1.000000 -0.000000
vn 0.000000 -1.000000 -0.000000
vn 0.000000 -1.000000 -0.000000
vn 0.000000 -1.000000 -0.000000
vn 0.000000 -1.000000 -0.000000
vn 0.000000 -1.000000 -0.000000
vn 0.000000 -1.000000 -0.000000
vn 0.000000 -1.000000 -0.000000
vn 0.000000 -1.000000 -0.000000
vn 0.000000 -1.000000 -0.000000
vn 0.000000 -1.000000 -0.000000
vn 0.000000 -1.000000 -0.000000
vn 0.000000 -1.000000 -0.000000
vn 0.000000 -1.000000 -0.000000
vn 0.000000 -1.000000 -0.000000
vn 0.000000 -1.000000 -0.000000
vn 0.787111 -0.000000 0.616811
vn 0.571163 -0.000000 0.820837
vn 0.571163 -0.000000 0.820837
vn 0.571163 -0.000000 0.820837
vn 0.787111 -0.000000 0.616811
vn 0.787111 -0.000000 0.616811
vn 0.922534 -0.000000 0.385916
vn 0.787111 -0.000000 0.616811
vn 0.787111 -0.000000 0.616811
vn 0.787111 -0.000000 0.616811
vn 0.922534 -0.000000 0.385916
vn 0.922534 -0.000000 0.385916
vn 0.983190 -0.000000 0.182586
vn 0.922534 -0.000000 0.385916
vn 0.922534 -0.000000 0.385916
vn 0.922534 -0.000000 0.385916
vn 0.983190 -0.000000 0.182586
vn 0.983190 -0.000000 0.182586
vn 1.000000 0.000000 -0.000000
vn 0.983190 -0.000000 0.182586
vn 0.983190 -0.000000 0.182586
vn 0.983190 -0.000000 0.182586
vn 1.000000 0.000000 -0.000000
vn 1.000000 0.000000 -0.000000
vn 0.983190 0.000000 -0.182586
vn 1.000000 0.000000 -0.000000
vn 1.000000 0.000000 -0.000000
vn 1.000000 0.000000 -0.000000
vn 0.983190 0.000000 -0.182586
vn 0.983190 0.000000 -0.182586
vn 0.922534 0.000000 -0.385916
vn 0.983190 0.000000 -0.182586
vn 0.983190 0.000000 -0.182586
vn 0.983190 0.000000 -0.182586
vn 0.922534 0.000000 -0.385916
vn 0.922534 0.000000 -0.385916
vn 0.787111 0.000000 -0.616811
vn 0.922534 0.000000 -0.385916
vn 0.922534 0.000000 -0.385916
vn 0.922534 0.000000 -0.385916
vn 0.787111 0.000000 -0.616811
vn 0.787111 0.000000 -0.616811
vn 0.571163 0.000000 -0.820837
vn 0.787111 0.000000 -0.616811
vn 0.787111 0.000000 -0.616811
vn 0.787111 0.000000 -0.616811
vn 0.571163 0.000000 -0.820837
vn 0.571163 0.000000 -0.820837
vn 0.000000 1.000000 0.000000
vn 0.000000 1.000000 0.000000
vn 0.000000 1.000000 0.000000
vn 0.000000 1.000000 0.000000
vn 0.000000 1.000000 0.000000
vn 0.000000 1.000000 0.000000
vn 0.000000 1.000000 0.000000
vn 0.000000 1.000000 0.000000
vn 0.000000 1.000000 0.000000
vn 0.000000 1.000000 0.000000
vn 0.000000 1.000000 0.000000
vn 0.000000 1.000000 0.000000
vn 0.000000 1.000000 0.000000
vn 0.000000 1.000000 0.000000
vn 0.000000 1.000000 0.000000
vn 0.000000 1.000000 0.000000
vn 0.000000 1.000000 0.000000
vn 0.000000 1.000000 0.000000
vn 0.000000 1.000000 0.000000
vn 0.000000 1.000000 0.000000
vn 0.000000 1.000000 0.000000
vn 0.000000 1.000000 0.000000
vn 0.000000 1.000000 0.000000
vn 0.000000 1.000000 0.000000
vn 0.000000 1.000000 0.000000
vn 0.000000 1.000000 0.000000
vn 0.000000 1.000000 0.000000
vn 0.435948 0.000000 -0.899972
vn 0.435948 0.000000 -0.899972
vn 0.571163 0.000000 -0.820837
vn 0.571163 0.000000 -0.820837
vn 0.571163 0.000000 -0.820837
vn 0.435948 0.000000 -0.899972
vn 0.435948 -0.000000 0.899972
vn 0.435948 -0.000000 0.899972
vn 0.571163 -0.000000 0.820837
vn 0.571163 -0.000000 0.820837
vn 0.571163 -0.000000 0.820837
vn 0.435948 -0.000000 0.899972
vn 0.000000 1.000000 -0.000005
vn 0.000000 1.000000 -0.000005
vn 0.000000 1.000000 -0.000005
vn 0.000000 1.000000 -0.000011
vn 0.000000 1.000000 -0.000011
vn 0.000000 1.000000 -0.000011
vn -0.000000 0.000001 -1.000000
vn -0.000000 0.000001 -1.000000
vn -0.000000 0.000001 -1.000000
vn 0.000000 0.000000 -1.000000
vn 0.000000 0.000000 -1.000000
vn 0.000000 0.000000 -1.000000
vn -0.000000 -1.000000 0.000014
vn -0.000000 -1.000000 0.000014
vn -0.000000 -1.000000 0.000014
vn 0.000000 -1.000000 -0.000019
vn 0.000000 -1.000000 -0.000019
vn 0.000000 -1.000000 -0.000019
vn 0.000000 0.000001 1.000000
vn 0.000000 0.000001 1.000000
vn 0.000000 0.000001 1.000000
vn -0.000000 -0.000000 1.000000
vn -0.000000 -0.000000 1.000000
vn -0.000000 -0.000000 1.000000
vn 0.000000 1.000000 -0.000005
vn 0.000000 1.000000 -0.000005
vn 0.000000 1.000000 -0.000005
vn 0.000000 1.000000 -0.000011
vn 0.000000 1.000000 -0.000011
vn 0.000000 1.000000 -0.000011
vn 0.000000 0.000001 -1.000000
vn 0.000000 0.000001 -1.000000
vn 0.000000 0.000001 -1.000000
vn 0.000000 0.000001 -1.000000
vn 0.000000 0.000001 -1.000000
vn 0.000000 0.000001 -1.000000
vn -0.000000 -1.000000 0.000014
vn -0.000000 -1.000000 0.000014
vn -0.000000 -1.000000 0.000014
vn 0.000000 -1.000000 -0.000019
vn 0.000000 -1.000000 -0.000019
vn 0.000000 -1.000000 -0.000019
vn 0.000000 -0.000000 1.000000
vn 0.000000 -0.000000 1.000000
vn 0.000000 -0.000000 1.000000
vn -0.000000 -0.000001 1.000000
vn -0.000000 -0.000001 1.000000
vn -0.000000 -0.000001 1.000000
vn 0.000004 0.000000 1.000000
vn 0.000004 0.000000 1.000000
vn 0.000004 0.000000 1.000000
vn 0.000000 -0.000000 1.000000
vn 0.000000 -0.000000 1.000000
vn 0.000000 -0.000000 1.000000
vn -0.000021 1.000000 0.000000
vn -0.000021 1.000000 0.000000
vn -0.000021 1.000000 0.000000
vn -0.000021 1.000000 0.000000
vn -0.000021 1.000000 0.000000
vn -0.000021 1.000000 0.000000
vn -1.000000 -0.000000 0.000000
vn -1.000000 0.000000 0.000000
vn -1.000000 -0.000000 0.000000
vn -1.000000 -0.000000 0.000000
vn -1.000000 -0.000000 0.000000
vn -1.000000 -0.000000 0.000000
vn 0.000018 -1.000000 0.000000
vn 0.000018 -1.000000 0.000000
vn 0.000018 -1.000000 0.000000
vn 0.000000 -1.000000 -0.000000
vn 0.000000 -1.000000 -0.000000
vn 0.000000 -1.000000 -0.000000
vn 0.000004 0.000000 -1.000000
vn 0.000004 0.000000 -1.000000
vn 0.000004 0.000000 -1.000000
vn 0.000004 0.000000 -1.000000
vn 0.000004 0.000000 -1.000000
vn 0.000004 0.000000 -1.000000
vn 1.000000 0.000000 -0.000000
vn 1.000000 0.000000 -0.000000
vn 1.000000 0.000000 -0.000000
vn 1.000000 0.000000 -0.000000
vn 1.000000 0.000000 -0.000000
vn 1.000000 0.000000 -0.000000
vn 0.000000 1.000000 0.000000
vn 0.000000 1.000000 0.000000
vn 0.000000 1.000000 0.000000
vn 0.000000 1.000000 0.000000
vn 0.000000 1.000000 0.000000
vn 0.000000 1.000000 0.000000
s off
g SM_Dresser_02e
f 4/7/1 1/8/2 2/5/3
f 2/5/4 3/6/5 4/7/6
f 5/3/7 6/4/8 1/1/9
f 1/1/10 4/2/11 5/3/12
f 7/9/13 8/10/14 3/11/15
f 3/11/16 2/12/17 7/9/18
f 11/15/19 12/16/20 9/13/21
f 9/13/22 10/14/23 11/15/24
f 32/19/25 14/20/26 15/17/27
f 15/17/28 33/18/29 32/19/30
f 33/18/31 15/17/32 16/21/33
f 16/21/34 34/22/35 33/18/36
f 34/22/37 16/21/38 17/23/39
f 17/23/40 35/24/41 34/22/42
f 35/24/43 17/23/44 18/25/45
f 18/25/46 36/26/47 35/24/48
f 36/26/49 18/25/50 19/27/51
f 19/27/52 37/28/53 36/26/54
f 37/28/55 19/27/56 20/29/57
f 20/29/58 38/30/59 37/28/60
f 38/30/61 20/29/62 21/31/63
f 21/31/64 39/32/65 38/30/66
f 39/32/67 21/31/68 13/33/69
f 13/33/70 31/34/71 39/32/72
f 32/19/73 33/18/74 24/35/75
f 24/35/76 23/36/77 32/19/78
f 33/18/79 34/22/80 25/37/81
f 25/37/82 24/35/83 33/18/84
f 34/22/85 35/24/86 26/38/87
f 26/38/88 25/37/89 34/22/90
f 35/24/91 36/26/92 27/39/93
f 27/39/94 26/38/95 35/24/96
f 36/26/97 37/28/98 28/40/99
f 28/40/100 27/39/101 36/26/102
f 37/28/103 38/30/104 29/41/105
f 29/41/106 28/40/107 37/28/108
f 38/30/109 39/32/110 30/42/111
f 30/42/112 29/41/113 38/30/114
f 39/32/115 31/34/116 22/43/117
f 22/43/118 30/42/119 39/32/120
f 24/46/121 30/47/122 22/44/123
f 22/44/124 23/45/125 24/46/126
f 28/48/127 29/49/128 30/47/129
f 28/48/130 30/47/131 24/46/132
f 24/46/133 25/50/134 26/51/135
f 28/48/136 24/46/137 26/51/138
f 28/48/139 26/51/140 27/52/141
f 14/55/142 13/56/143 21/53/144
f 21/53/145 15/54/146 14/55/147
f 19/57/148 18/58/149 17/59/150
f 19/57/151 17/59/152 16/60/153
f 16/60/154 15/54/155 21/53/156
f 19/57/157 16/60/158 21/53/159
f 19/57/160 21/53/161 20/61/162
f 59/62/163 58/63/164 40/64/165
f 40/64/166 48/65/167 47/66/168
f 47/66/169 46/67/170 45/68/171
f 40/64/172 47/66/173 45/68/174
f 45/68/175 44/69/176 43/70/177
f 43/70/178 42/71/179 41/72/180
f 45/68/181 43/70/182 41/72/183
f 40/64/184 45/68/185 41/72/186
f 59/62/187 40/64/188 41/72/189
f 51/92/190 50/93/191 41/90/192
f 41/90/193 42/91/194 51/92/195
f 52/97/196 51/92/197 42/91/198
f 42/91/199 43/96/200 52/97/201
f 53/99/202 52/97/203 43/96/204
f 43/96/205 44/98/206 53/99/207
f 54/101/208 53/99/209 44/98/210
f 44/98/211 45/100/212 54/101/213
f 55/103/214 54/101/215 45/100/216
f 45/100/217 46/102/218 55/103/219
f 56/105/220 55/103/221 46/102/222
f 46/102/223 47/104/224 56/105/225
f 57/87/226 56/105/227 47/104/228
f 47/104/229 48/84/230 57/87/231
f 49/86/232 57/87/233 48/84/234
f 48/84/235 40/85/236 49/86/237
f 53/73/238 54/74/239 55/75/240
f 56/76/241 57/77/242 49/78/243
f 55/75/244 56/76/245 49/78/246
f 60/79/247 61/80/248 50/81/249
f 49/78/250 60/79/251 50/81/252
f 49/78/253 50/81/254 51/82/255
f 55/75/256 49/78/257 51/82/258
f 53/73/259 55/75/260 51/82/261
f 53/73/262 51/82/263 52/83/264
f 58/88/265 60/89/266 49/86/267
f 49/86/268 40/85/269 58/88/270
f 61/94/271 59/95/272 41/90/273
f 41/90/274 50/93/275 61/94/276
f 65/108/277 66/109/278 63/106/279
f 63/106/280 62/107/281 65/108/282
f 65/112/283 64/113/284 67/110/285
f 67/110/286 66/111/287 65/112/288
f 67/114/289 64/115/290 69/116/291
f 69/116/292 68/117/293 67/114/294
f 63/118/295 68/119/296 69/120/297
f 69/120/298 62/121/299 63/118/300
f 73/124/301 74/125/302 71/122/303
f 71/122/304 70/123/305 73/124/306
f 73/128/307 72/129/308 75/126/309
f 75/126/310 74/127/311 73/128/312
f 75/130/313 72/131/314 77/132/315
f 77/132/316 76/133/317 75/130/318
f 71/134/319 76/135/320 77/136/321
f 77/136/322 70/137/323 71/134/324
f 79/140/325 80/141/326 83/138/327
f 83/138/328 78/139/329 79/140/330
f 81/144/331 79/145/332 78/142/333
f 78/142/334 85/143/335 81/144/336
f 79/146/337 81/147/338 82/148/339
f 82/148/340 80/149/341 79/146/342
f 80/150/343 82/151/344 84/152/345
f 84/152/346 83/153/347 80/150/348
f 82/154/349 81/155/350 85/156/351
f 85/156/352 84/157/353 82/154/354
f 83/160/355 84/161/356 85/158/357
f 85/158/358 78/159/359 83/160/360
f 86/162/361 87/163/362 89/164/363
f 89/164/364 88/165/365 86/162/366
