# This file uses feet as units for non-parametric coordinates.

g default
v -55.967651 -10.515137 41.827866
v -55.967651 -10.515121 -41.827866
v -0.673710 -10.515121 -41.827869
v -0.673706 -10.515137 41.827862
v -0.956339 9.451607 44.255157
v -0.956331 -11.334610 44.255161
v -0.956339 9.451607 -44.255184
v -0.956339 -11.334625 -44.255184
v 0.116646 -11.334618 -44.255180
v 0.116650 9.451614 44.255157
v 0.116650 -11.334610 44.255157
v 0.116646 9.451614 -44.255180
v -0.000002 -2.037025 -5.315402
v -0.000002 -2.037025 5.315386
v 1.019047 -2.037025 4.910776
v 1.882954 -2.037025 3.758546
v 2.460199 -2.037025 2.034104
v 2.662901 -2.037025 -0.000010
v 2.460199 -2.037025 -2.034120
v 1.882954 -2.037025 -3.758562
v 1.019047 -2.037025 -4.910792
v 0.000000 2.037018 -5.315402
v -0.000002 2.037018 5.315386
v 1.019047 2.037018 4.910776
v 1.882954 2.037018 3.758546
v 2.460199 2.037018 2.034104
v 2.662901 2.037018 -0.000010
v 2.460199 2.037018 -2.034120
v 1.882954 2.037018 -3.758562
v 1.019047 2.037018 -4.910792
v 0.000000 0.000000 -4.415483
v -0.000002 0.000000 4.415472
v 1.019047 0.000000 4.079364
v 1.882954 0.000000 3.122211
v 2.460199 0.000000 1.689723
v 2.662901 0.000000 -0.000006
v 2.460199 0.000000 -1.689736
v 1.882954 0.000000 -3.122222
v 1.019047 0.000000 -4.079375
v 0.836311 -0.448692 -5.784522
v 0.836311 -0.448692 5.784511
v 1.848261 -0.448692 4.813508
v 2.705587 -0.448692 3.327637
v 3.167635 -0.448692 1.652109
v 3.330326 -0.448692 -0.000006
v 3.167635 -0.448692 -1.652121
v 2.705587 -0.448692 -3.327649
v 1.848261 -0.448692 -4.813519
v 0.836311 0.478897 -5.784522
v 0.836311 0.478897 5.784511
v 1.848261 0.478897 4.813508
v 2.705587 0.478897 3.327637
v 3.167635 0.478897 1.652109
v 3.330326 0.478897 -0.000006
v 3.167635 0.478897 -1.652121
v 2.705587 0.478897 -3.327649
v 1.848261 0.478897 -4.813519
v -0.006996 -0.448692 -6.193022
v -0.006996 -0.448692 6.193011
v -0.006996 0.478897 -6.193022
v -0.006996 0.478897 6.193011
v -0.673708 -10.061752 41.827854
v -0.673712 -10.061752 -41.827877
v -55.967651 -10.061752 41.827858
v -55.967651 -10.061752 -41.827873
v -0.578848 9.019516 -41.661617
v -57.265465 9.019516 -41.661633
v -0.578842 -10.902481 -43.060429
v -0.578844 9.019508 -43.060417
v -57.265472 9.019516 -43.060421
v -57.265472 -10.902466 -43.060425
v -57.265465 -10.902496 -41.661613
v -0.578846 -10.902466 -41.661617
v -55.816925 8.821541 42.239403
v -55.816925 -10.713768 42.239407
v -55.816917 -10.713776 -42.239422
v -55.816910 8.821541 -42.239410
v -57.032097 8.821526 -42.239429
v -57.032104 8.821526 42.239414
v -57.032097 -10.713737 42.239414
v -57.032104 -10.713737 -42.239429
v -0.578844 9.019516 43.060432
v -57.265465 9.019516 43.060417
v -0.578838 -10.902481 41.661598
v -0.578840 9.019508 41.661625
v -57.265472 9.019516 41.661617
v -57.265472 -10.902466 41.661598
v -57.265465 -10.902496 43.060417
v -0.578842 -10.902466 43.060417
v -0.956339 9.451607 44.255157
v -0.956331 -11.334610 44.255161
v -0.956339 9.451607 -44.255184
v -0.956339 -11.334625 -44.255184
v 0.116646 -11.334618 -44.255180
v 0.116650 9.451614 44.255157
v 0.116650 -11.334610 44.255157
v 0.116646 9.451614 -44.255180
v -0.000002 -2.037025 -5.315402
v -0.000002 -2.037025 5.315386
v 1.019047 -2.037025 4.910776
v 1.882954 -2.037025 3.758546
v 2.460199 -2.037025 2.034104
v 2.662901 -2.037025 -0.000010
v 2.460199 -2.037025 -2.034120
v 1.882954 -2.037025 -3.758562
v 1.019047 -2.037025 -4.910792
v 0.000000 2.037018 -5.315402
v -0.000002 2.037018 5.315386
v 1.019047 2.037018 4.910776
v 1.882954 2.037018 3.758546
v 2.460199 2.037018 2.034104
v 2.662901 2.037018 -0.000010
v 2.460199 2.037018 -2.034120
v 1.882954 2.037018 -3.758562
v 1.019047 2.037018 -4.910792
v 0.000000 0.000000 -4.415483
v -0.000002 0.000000 4.415472
v 1.019047 0.000000 4.079364
v 1.882954 0.000000 3.122211
v 2.460199 0.000000 1.689723
v 2.662901 0.000000 -0.000006
v 2.460199 0.000000 -1.689736
v 1.882954 0.000000 -3.122222
v 1.019047 0.000000 -4.079375
v 0.836311 -0.448692 -5.784522
v 0.836311 -0.448692 5.784511
v 1.848261 -0.448692 4.813508
v 2.705587 -0.448692 3.327637
v 3.167635 -0.448692 1.652109
v 3.330326 -0.448692 -0.000006
v 3.167635 -0.448692 -1.652121
v 2.705587 -0.448692 -3.327649
v 1.848261 -0.448692 -4.813519
v 0.836311 0.478897 -5.784522
v 0.836311 0.478897 5.784511
v 1.848261 0.478897 4.813508
v 2.705587 0.478897 3.327637
v 3.167635 0.478897 1.652109
v 3.330326 0.478897 -0.000006
v 3.167635 0.478897 -1.652121
v 2.705587 0.478897 -3.327649
v 1.848261 0.478897 -4.813519
v -0.006996 -0.448692 -6.193022
v -0.006996 -0.448692 6.193011
v -0.006996 0.478897 -6.193022
v -0.006996 0.478897 6.193011
v -0.673708 -10.061752 41.827854
v -0.673712 -10.061752 -41.827877
v -55.967651 -10.061752 41.827858
v -55.967651 -10.061752 -41.827873
v -0.578848 9.019516 -41.661617
v -57.265465 9.019516 -41.661633
v -0.578842 -10.902481 -43.060429
v -0.578844 9.019508 -43.060417
v -57.265472 9.019516 -43.060421
v -57.265472 -10.902466 -43.060425
v -57.265465 -10.902496 -41.661613
v -0.578846 -10.902466 -41.661617
v -55.816925 8.821541 42.239403
v -55.816925 -10.713768 42.239407
v -55.816917 -10.713776 -42.239422
v -55.816910 8.821541 -42.239410
v -57.032097 8.821526 -42.239429
v -57.032104 8.821526 42.239414
v -57.032097 -10.713737 42.239414
v -57.032104 -10.713737 -42.239429
v -0.578844 9.019516 43.060432
v -57.265465 9.019516 43.060417
v -0.578838 -10.902481 41.661598
v -0.578840 9.019508 41.661625
v -57.265472 9.019516 41.661617
v -57.265472 -10.902466 41.661598
v -57.265465 -10.902496 43.060417
v -0.578842 -10.902466 43.060417
v -0.956339 9.451607 44.255157
v -0.956331 -11.334610 44.255161
v -0.956339 9.451607 -44.255184
v -0.956339 -11.334625 -44.255184
v 0.116646 -11.334618 -44.255180
v 0.116650 9.451614 44.255157
v 0.116650 -11.334610 44.255157
v 0.116646 9.451614 -44.255180
v -0.000002 -2.037025 -5.315402
v -0.000002 -2.037025 5.315386
v 1.019047 -2.037025 4.910776
v 1.882954 -2.037025 3.758546
v 2.460199 -2.037025 2.034104
v 2.662901 -2.037025 -0.000010
v 2.460199 -2.037025 -2.034120
v 1.882954 -2.037025 -3.758562
v 1.019047 -2.037025 -4.910792
v 0.000000 2.037018 -5.315402
v -0.000002 2.037018 5.315386
v 1.019047 2.037018 4.910776
v 1.882954 2.037018 3.758546
v 2.460199 2.037018 2.034104
v 2.662901 2.037018 -0.000010
v 2.460199 2.037018 -2.034120
v 1.882954 2.037018 -3.758562
v 1.019047 2.037018 -4.910792
v 0.000000 0.000000 -4.415483
v -0.000002 0.000000 4.415472
v 1.019047 0.000000 4.079364
v 1.882954 0.000000 3.122211
v 2.460199 0.000000 1.689723
v 2.662901 0.000000 -0.000006
v 2.460199 0.000000 -1.689736
v 1.882954 0.000000 -3.122222
v 1.019047 0.000000 -4.079375
v 0.836311 -0.448692 -5.784522
v 0.836311 -0.448692 5.784511
v 1.848261 -0.448692 4.813508
v 2.705587 -0.448692 3.327637
v 3.167635 -0.448692 1.652109
v 3.330326 -0.448692 -0.000006
v 3.167635 -0.448692 -1.652121
v 2.705587 -0.448692 -3.327649
v 1.848261 -0.448692 -4.813519
v 0.836311 0.478897 -5.784522
v 0.836311 0.478897 5.784511
v 1.848261 0.478897 4.813508
v 2.705587 0.478897 3.327637
v 3.167635 0.478897 1.652109
v 3.330326 0.478897 -0.000006
v 3.167635 0.478897 -1.652121
v 2.705587 0.478897 -3.327649
v 1.848261 0.478897 -4.813519
v -0.006996 -0.448692 -6.193022
v -0.006996 -0.448692 6.193011
v -0.006996 0.478897 -6.193022
v -0.006996 0.478897 6.193011
v -0.673708 -10.061752 41.827854
v -0.673712 -10.061752 -41.827877
v -55.967651 -10.061752 41.827858
v -55.967651 -10.061752 -41.827873
v -0.578848 9.019516 -41.661617
v -57.265465 9.019516 -41.661633
v -0.578842 -10.902481 -43.060429
v -0.578844 9.019508 -43.060417
v -57.265472 9.019516 -43.060421
v -57.265472 -10.902466 -43.060425
v -57.265465 -10.902496 -41.661613
v -0.578846 -10.902466 -41.661617
v -55.816925 8.821541 42.239403
v -55.816925 -10.713768 42.239407
v -55.816917 -10.713776 -42.239422
v -55.816910 8.821541 -42.239410
v -57.032097 8.821526 -42.239429
v -57.032104 8.821526 42.239414
v -57.032097 -10.713737 42.239414
v -57.032104 -10.713737 -42.239429
v -0.578844 9.019516 43.060432
v -57.265465 9.019516 43.060417
v -0.578838 -10.902481 41.661598
v -0.578840 9.019508 41.661625
v -57.265472 9.019516 41.661617
v -57.265472 -10.902466 41.661598
v -57.265465 -10.902496 43.060417
v -0.578842 -10.902466 43.060417
vt 0.694569 1.897312
vt 0.694569 1.829686
vt 0.746022 1.829686
vt 0.746022 1.897312
vt 0.991204 0.996499
vt 0.991204 0.920122
vt 0.996128 0.920122
vt 0.996128 0.996499
vt 0.942809 0.826333
vt 0.942809 0.463757
vt 0.947869 0.463757
vt 0.947869 0.826333
vt 0.649339 1.094226
vt 0.307275 1.094226
vt 0.307275 1.013895
vt 0.649338 1.013895
vt 0.947869 1.463757
vt 0.947869 1.826333
vt 0.942809 1.826333
vt 0.942809 1.463757
vt 0.996128 1.920122
vt 0.996128 1.996499
vt 0.991204 1.996499
vt 0.991204 1.920122
vt 0.649338 0.013895
vt 0.307275 0.094227
vt 0.307275 0.013895
vt 0.649339 0.094227
vt 0.956461 0.922036
vt 0.940452 0.925231
vt 0.940452 0.917591
vt 0.956461 0.914617
vt 0.956461 0.931264
vt 0.940452 0.934240
vt 0.956461 0.942560
vt 0.940452 0.944373
vt 0.956461 0.955095
vt 0.940452 0.955123
vt 0.956461 0.967622
vt 0.940452 0.965878
vt 0.956461 0.978898
vt 0.940452 0.975997
vt 0.956461 0.988128
vt 0.940452 0.984967
vt 0.956461 0.995565
vt 0.940452 0.992595
vt 0.924443 0.922036
vt 0.924443 0.914617
vt 0.924443 0.931264
vt 0.924443 0.942560
vt 0.924443 0.955095
vt 0.924443 0.967622
vt 0.924443 0.978898
vt 0.924443 0.988128
vt 0.924443 0.995565
vt 0.960687 0.995377
vt 0.960687 0.927442
vt 0.968183 0.930028
vt 0.968183 0.992792
vt 0.978784 0.974409
vt 0.974539 0.985429
vt 0.974539 0.937391
vt 0.978784 0.948411
vt 0.980276 0.961410
vt 0.968640 0.926026
vt 0.968640 0.863262
vt 0.976137 0.860676
vt 0.976137 0.928612
vt 0.958040 0.907643
vt 0.956548 0.894644
vt 0.958040 0.881645
vt 0.962286 0.870625
vt 0.962285 0.918663
vt 0.931701 0.903832
vt 0.931701 0.824680
vt 0.937905 0.827291
vt 0.945348 0.833496
vt 0.951655 0.842991
vt 0.955054 0.853698
vt 0.956251 0.864256
vt 0.955054 0.874814
vt 0.951655 0.885521
vt 0.945348 0.895016
vt 0.937905 0.901221
vt 0.953239 0.825429
vt 0.952042 0.814871
vt 0.953239 0.804314
vt 0.956638 0.793606
vt 0.962945 0.784111
vt 0.970389 0.777906
vt 0.976592 0.775295
vt 0.976592 0.854447
vt 0.970389 0.851837
vt 0.962945 0.845632
vt 0.956638 0.836136
vt 0.953152 0.656411
vt 0.953152 0.648749
vt 0.958899 0.648749
vt 0.958899 0.656411
vt 0.953152 0.642365
vt 0.958899 0.642365
vt 0.953152 0.727388
vt 0.953152 0.719727
vt 0.958899 0.719727
vt 0.958899 0.727388
vt 0.958899 0.733773
vt 0.953152 0.733773
vt 0.953152 0.709955
vt 0.958899 0.709955
vt 0.953152 0.698935
vt 0.958899 0.698935
vt 0.953152 0.688069
vt 0.958899 0.688069
vt 0.953152 0.677203
vt 0.958899 0.677203
vt 0.953152 0.666183
vt 0.958899 0.666183
vt 0.746022 0.829686
vt 0.746022 0.897312
vt 0.694569 0.897312
vt 0.694569 0.829686
vt 0.959422 1.004898
vt 0.959422 1.272197
vt 0.953692 1.272197
vt 0.953692 1.004898
vt 0.428494 1.918233
vt 0.428494 1.834366
vt 0.688596 1.834366
vt 0.688596 1.918234
vt 0.953692 1.272197
vt 0.953692 1.004898
vt 0.959422 1.004898
vt 0.959422 1.272197
vt 0.688596 1.834366
vt 0.688596 1.918234
vt 0.428494 1.918233
vt 0.428494 1.834366
vt 0.969622 0.004696
vt 0.969622 0.350757
vt 0.963892 0.350758
vt 0.963892 0.004696
vt 0.428380 0.737073
vt 0.765117 0.737073
vt 0.765117 0.819312
vt 0.428380 0.819312
vt 0.963892 0.350758
vt 0.963892 0.004696
vt 0.969622 0.004696
vt 0.969622 0.350757
vt 0.959422 0.004898
vt 0.959422 0.272197
vt 0.953692 0.272197
vt 0.953692 0.004898
vt 0.428494 0.918233
vt 0.428494 0.834366
vt 0.688596 0.834366
vt 0.688596 0.918234
vt 0.953692 1.272197
vt 0.953692 1.004898
vt 0.959422 1.004898
vt 0.959422 1.272197
vt 0.688596 1.834366
vt 0.688596 1.918234
vt 0.428494 1.918233
vt 0.428494 1.834366
vt 0.991204 0.996499
vt 0.991204 0.920122
vt 0.996128 0.920122
vt 0.996128 0.996499
vt 0.942809 0.826333
vt 0.942809 0.463757
vt 0.947869 0.463757
vt 0.947869 0.826333
vt 0.649339 1.094226
vt 0.307275 1.094226
vt 0.307275 1.013895
vt 0.649338 1.013895
vt 0.947869 1.463757
vt 0.947869 1.826333
vt 0.942809 1.826333
vt 0.942809 1.463757
vt 0.996128 1.920122
vt 0.996128 1.996499
vt 0.991204 1.996499
vt 0.991204 1.920122
vt 0.649338 0.013895
vt 0.307275 0.094227
vt 0.307275 0.013895
vt 0.649339 0.094227
vt 0.956461 0.922036
vt 0.940452 0.925231
vt 0.940452 0.917591
vt 0.956461 0.914617
vt 0.956461 0.931264
vt 0.940452 0.934240
vt 0.956461 0.942560
vt 0.940452 0.944373
vt 0.956461 0.955095
vt 0.940452 0.955123
vt 0.956461 0.967622
vt 0.940452 0.965878
vt 0.956461 0.978898
vt 0.940452 0.975997
vt 0.956461 0.988128
vt 0.940452 0.984967
vt 0.956461 0.995565
vt 0.940452 0.992595
vt 0.924443 0.922036
vt 0.924443 0.914617
vt 0.924443 0.931264
vt 0.924443 0.942560
vt 0.924443 0.955095
vt 0.924443 0.967622
vt 0.924443 0.978898
vt 0.924443 0.988128
vt 0.924443 0.995565
vt 0.960687 0.995377
vt 0.960687 0.927442
vt 0.968183 0.930028
vt 0.968183 0.992792
vt 0.978784 0.974409
vt 0.974539 0.985429
vt 0.974539 0.937391
vt 0.978784 0.948411
vt 0.980276 0.961410
vt 0.968640 0.926026
vt 0.968640 0.863262
vt 0.976137 0.860676
vt 0.976137 0.928612
vt 0.958040 0.907643
vt 0.956548 0.894644
vt 0.958040 0.881645
vt 0.962286 0.870625
vt 0.962285 0.918663
vt 0.931701 0.903832
vt 0.931701 0.824680
vt 0.937905 0.827291
vt 0.945348 0.833496
vt 0.951655 0.842991
vt 0.955054 0.853698
vt 0.956251 0.864256
vt 0.955054 0.874814
vt 0.951655 0.885521
vt 0.945348 0.895016
vt 0.937905 0.901221
vt 0.953239 0.825429
vt 0.952042 0.814871
vt 0.953239 0.804314
vt 0.956638 0.793606
vt 0.962945 0.784111
vt 0.970389 0.777906
vt 0.976592 0.775295
vt 0.976592 0.854447
vt 0.970389 0.851837
vt 0.962945 0.845632
vt 0.956638 0.836136
vt 0.953152 0.656411
vt 0.953152 0.648749
vt 0.958899 0.648749
vt 0.958899 0.656411
vt 0.953152 0.642365
vt 0.958899 0.642365
vt 0.953152 0.727388
vt 0.953152 0.719727
vt 0.958899 0.719727
vt 0.958899 0.727388
vt 0.958899 0.733773
vt 0.953152 0.733773
vt 0.953152 0.709955
vt 0.958899 0.709955
vt 0.953152 0.698935
vt 0.958899 0.698935
vt 0.953152 0.688069
vt 0.958899 0.688069
vt 0.953152 0.677203
vt 0.958899 0.677203
vt 0.953152 0.666183
vt 0.958899 0.666183
vt 0.746022 0.829686
vt 0.746022 0.897312
vt 0.694569 0.897312
vt 0.694569 0.829686
vt 0.959422 1.004898
vt 0.959422 1.272197
vt 0.953692 1.272197
vt 0.953692 1.004898
vt 0.428494 1.918233
vt 0.428494 1.834366
vt 0.688596 1.834366
vt 0.688596 1.918234
vt 0.953692 1.272197
vt 0.953692 1.004898
vt 0.959422 1.004898
vt 0.959422 1.272197
vt 0.688596 1.834366
vt 0.688596 1.918234
vt 0.428494 1.918233
vt 0.428494 1.834366
vt 0.969622 0.004696
vt 0.969622 0.350757
vt 0.963892 0.350758
vt 0.963892 0.004696
vt 0.428380 0.737073
vt 0.765117 0.737073
vt 0.765117 0.819312
vt 0.428380 0.819312
vt 0.963892 0.350758
vt 0.963892 0.004696
vt 0.969622 0.004696
vt 0.969622 0.350757
vt 0.959422 0.004898
vt 0.959422 0.272197
vt 0.953692 0.272197
vt 0.953692 0.004898
vt 0.428494 0.918233
vt 0.428494 0.834366
vt 0.688596 0.834366
vt 0.688596 0.918234
vt 0.953692 1.272197
vt 0.953692 1.004898
vt 0.959422 1.004898
vt 0.959422 1.272197
vt 0.688596 1.834366
vt 0.688596 1.918234
vt 0.428494 1.918233
vt 0.428494 1.834366
vt 0.991204 0.996499
vt 0.991204 0.920122
vt 0.996128 0.920122
vt 0.996128 0.996499
vt 0.942809 0.826333
vt 0.942809 0.463757
vt 0.947869 0.463757
vt 0.947869 0.826333
vt 0.649339 1.094226
vt 0.307275 1.094226
vt 0.307275 1.013895
vt 0.649338 1.013895
vt 0.947869 1.463757
vt 0.947869 1.826333
vt 0.942809 1.826333
vt 0.942809 1.463757
vt 0.996128 1.920122
vt 0.996128 1.996499
vt 0.991204 1.996499
vt 0.991204 1.920122
vt 0.649338 0.013895
vt 0.307275 0.094227
vt 0.307275 0.013895
vt 0.649339 0.094227
vt 0.956461 0.922036
vt 0.940452 0.925231
vt 0.940452 0.917591
vt 0.956461 0.914617
vt 0.956461 0.931264
vt 0.940452 0.934240
vt 0.956461 0.942560
vt 0.940452 0.944373
vt 0.956461 0.955095
vt 0.940452 0.955123
vt 0.956461 0.967622
vt 0.940452 0.965878
vt 0.956461 0.978898
vt 0.940452 0.975997
vt 0.956461 0.988128
vt 0.940452 0.984967
vt 0.956461 0.995565
vt 0.940452 0.992595
vt 0.924443 0.922036
vt 0.924443 0.914617
vt 0.924443 0.931264
vt 0.924443 0.942560
vt 0.924443 0.955095
vt 0.924443 0.967622
vt 0.924443 0.978898
vt 0.924443 0.988128
vt 0.924443 0.995565
vt 0.960687 0.995377
vt 0.960687 0.927442
vt 0.968183 0.930028
vt 0.968183 0.992792
vt 0.978784 0.974409
vt 0.974539 0.985429
vt 0.974539 0.937391
vt 0.978784 0.948411
vt 0.980276 0.961410
vt 0.968640 0.926026
vt 0.968640 0.863262
vt 0.976137 0.860676
vt 0.976137 0.928612
vt 0.958040 0.907643
vt 0.956548 0.894644
vt 0.958040 0.881645
vt 0.962286 0.870625
vt 0.962285 0.918663
vt 0.931701 0.903832
vt 0.931701 0.824680
vt 0.937905 0.827291
vt 0.945348 0.833496
vt 0.951655 0.842991
vt 0.955054 0.853698
vt 0.956251 0.864256
vt 0.955054 0.874814
vt 0.951655 0.885521
vt 0.945348 0.895016
vt 0.937905 0.901221
vt 0.953239 0.825429
vt 0.952042 0.814871
vt 0.953239 0.804314
vt 0.956638 0.793606
vt 0.962945 0.784111
vt 0.970389 0.777906
vt 0.976592 0.775295
vt 0.976592 0.854447
vt 0.970389 0.851837
vt 0.962945 0.845632
vt 0.956638 0.836136
vt 0.953152 0.656411
vt 0.953152 0.648749
vt 0.958899 0.648749
vt 0.958899 0.656411
vt 0.953152 0.642365
vt 0.958899 0.642365
vt 0.953152 0.727388
vt 0.953152 0.719727
vt 0.958899 0.719727
vt 0.958899 0.727388
vt 0.958899 0.733773
vt 0.953152 0.733773
vt 0.953152 0.709955
vt 0.958899 0.709955
vt 0.953152 0.698935
vt 0.958899 0.698935
vt 0.953152 0.688069
vt 0.958899 0.688069
vt 0.953152 0.677203
vt 0.958899 0.677203
vt 0.953152 0.666183
vt 0.958899 0.666183
vt 0.746022 0.829686
vt 0.746022 0.897312
vt 0.694569 0.897312
vt 0.694569 0.829686
vt 0.959422 1.004898
vt 0.959422 1.272197
vt 0.953692 1.272197
vt 0.953692 1.004898
vt 0.428494 1.918233
vt 0.428494 1.834366
vt 0.688596 1.834366
vt 0.688596 1.918234
vt 0.953692 1.272197
vt 0.953692 1.004898
vt 0.959422 1.004898
vt 0.959422 1.272197
vt 0.688596 1.834366
vt 0.688596 1.918234
vt 0.428494 1.918233
vt 0.428494 1.834366
vt 0.969622 0.004696
vt 0.969622 0.350757
vt 0.963892 0.350758
vt 0.963892 0.004696
vt 0.428380 0.737073
vt 0.765117 0.737073
vt 0.765117 0.819312
vt 0.428380 0.819312
vt 0.963892 0.350758
vt 0.963892 0.004696
vt 0.969622 0.004696
vt 0.969622 0.350757
vt 0.959422 0.004898
vt 0.959422 0.272197
vt 0.953692 0.272197
vt 0.953692 0.004898
vt 0.428494 0.918233
vt 0.428494 0.834366
vt 0.688596 0.834366
vt 0.688596 0.918234
vt 0.953692 1.272197
vt 0.953692 1.004898
vt 0.959422 1.004898
vt 0.959422 1.272197
vt 0.688596 1.834366
vt 0.688596 1.918234
vt 0.428494 1.918233
vt 0.428494 1.834366
vn -0.000000 -1.000000 -0.000000
vn -0.000000 -1.000000 -0.000000
vn -0.000000 -1.000000 -0.000000
vn -0.000000 -1.000000 -0.000000
vn -0.000000 -1.000000 -0.000000
vn -0.000000 -1.000000 -0.000000
vn 0.000004 0.000000 1.000000
vn 0.000004 0.000000 1.000000
vn 0.000004 0.000000 1.000000
vn 0.000000 -0.000000 1.000000
vn 0.000000 -0.000000 1.000000
vn 0.000000 -0.000000 1.000000
vn -0.000007 1.000000 0.000000
vn -0.000007 1.000000 0.000000
vn -0.000007 1.000000 0.000000
vn -0.000007 1.000000 0.000000
vn -0.000007 1.000000 0.000000
vn -0.000007 1.000000 0.000000
vn -1.000000 -0.000000 0.000000
vn -1.000000 0.000000 0.000000
vn -1.000000 -0.000000 0.000000
vn -1.000000 -0.000000 0.000000
vn -1.000000 -0.000000 0.000000
vn -1.000000 -0.000000 0.000000
vn 0.000007 -1.000000 0.000000
vn 0.000007 -1.000000 0.000000
vn 0.000007 -1.000000 0.000000
vn 0.000000 -1.000000 0.000000
vn 0.000000 -1.000000 0.000000
vn 0.000000 -1.000000 0.000000
vn 0.000004 0.000000 -1.000000
vn 0.000004 0.000000 -1.000000
vn 0.000004 0.000000 -1.000000
vn 0.000004 0.000000 -1.000000
vn 0.000004 0.000000 -1.000000
vn 0.000004 0.000000 -1.000000
vn 1.000000 0.000000 -0.000000
vn 1.000000 0.000000 -0.000000
vn 1.000000 0.000000 -0.000000
vn 1.000000 0.000000 -0.000000
vn 1.000000 0.000000 -0.000000
vn 1.000000 0.000000 -0.000000
vn 0.329148 -0.000001 0.944278
vn 0.341368 0.379827 0.859767
vn 0.538930 0.328989 0.775449
vn 0.538930 0.328989 0.775449
vn 0.592731 -0.000001 0.805400
vn 0.329148 -0.000001 0.944278
vn 0.592731 -0.000001 0.805400
vn 0.538930 0.328989 0.775449
vn 0.850926 0.176812 0.494634
vn 0.850926 0.176812 0.494634
vn 0.871011 -0.000000 0.491264
vn 0.592731 -0.000001 0.805400
vn 0.871011 -0.000000 0.491264
vn 0.850926 0.176812 0.494634
vn 0.970835 0.054545 0.233462
vn 0.970835 0.054545 0.233462
vn 0.973192 -0.000000 0.229993
vn 0.871011 -0.000000 0.491264
vn 0.973192 -0.000000 0.229993
vn 0.970835 0.054545 0.233462
vn 0.999979 0.004694 0.004444
vn 0.999979 0.004694 0.004444
vn 0.999987 -0.000000 0.005029
vn 0.973192 -0.000000 0.229993
vn 0.999987 -0.000000 0.005029
vn 0.999979 0.004694 0.004444
vn 0.973852 0.033764 -0.224660
vn 0.973852 0.033764 -0.224660
vn 0.974774 -0.000000 -0.223194
vn 0.999987 -0.000000 0.005029
vn 0.974774 -0.000000 -0.223194
vn 0.973852 0.033764 -0.224660
vn 0.859102 0.142289 -0.491627
vn 0.859102 0.142289 -0.491627
vn 0.870569 -0.000000 -0.492046
vn 0.974774 -0.000000 -0.223194
vn 0.870569 -0.000000 -0.492046
vn 0.859102 0.142289 -0.491627
vn 0.540004 0.304282 -0.784735
vn 0.540004 0.304282 -0.784735
vn 0.583235 -0.000001 -0.812304
vn 0.870569 -0.000000 -0.492046
vn 0.583235 -0.000001 -0.812304
vn 0.540004 0.304282 -0.784735
vn 0.328449 0.364428 -0.871386
vn 0.328449 0.364428 -0.871386
vn 0.313228 -0.000001 -0.949678
vn 0.583235 -0.000001 -0.812304
vn 0.329148 -0.000001 0.944278
vn 0.592731 -0.000001 0.805400
vn 0.538930 -0.328991 0.775448
vn 0.538930 -0.328991 0.775448
vn 0.341367 -0.379828 0.859767
vn 0.329148 -0.000001 0.944278
vn 0.592731 -0.000001 0.805400
vn 0.871011 -0.000000 0.491264
vn 0.850926 -0.176813 0.494634
vn 0.850926 -0.176813 0.494634
vn 0.538930 -0.328991 0.775448
vn 0.592731 -0.000001 0.805400
vn 0.871011 -0.000000 0.491264
vn 0.973192 -0.000000 0.229993
vn 0.970835 -0.054545 0.233462
vn 0.970835 -0.054545 0.233462
vn 0.850926 -0.176813 0.494634
vn 0.871011 -0.000000 0.491264
vn 0.973192 -0.000000 0.229993
vn 0.999987 -0.000000 0.005029
vn 0.999979 -0.004694 0.004444
vn 0.999979 -0.004694 0.004444
vn 0.970835 -0.054545 0.233462
vn 0.973192 -0.000000 0.229993
vn 0.999987 -0.000000 0.005029
vn 0.974774 -0.000000 -0.223194
vn 0.973852 -0.033765 -0.224660
vn 0.973852 -0.033765 -0.224660
vn 0.999979 -0.004694 0.004444
vn 0.999987 -0.000000 0.005029
vn 0.974774 -0.000000 -0.223194
vn 0.870569 -0.000000 -0.492046
vn 0.859102 -0.142289 -0.491628
vn 0.859102 -0.142289 -0.491628
vn 0.973852 -0.033765 -0.224660
vn 0.974774 -0.000000 -0.223194
vn 0.870569 -0.000000 -0.492046
vn 0.583235 -0.000001 -0.812304
vn 0.540004 -0.304283 -0.784734
vn 0.540004 -0.304283 -0.784734
vn 0.859102 -0.142289 -0.491628
vn 0.870569 -0.000000 -0.492046
vn 0.583235 -0.000001 -0.812304
vn 0.313228 -0.000001 -0.949678
vn 0.328449 -0.364430 -0.871385
vn 0.328449 -0.364430 -0.871385
vn 0.540004 -0.304283 -0.784734
vn 0.583235 -0.000001 -0.812304
vn 0.000000 1.000000 0.000000
vn 0.000000 1.000000 0.000000
vn 0.000000 1.000000 0.000000
vn 0.000000 1.000000 0.000000
vn 0.000000 1.000000 0.000000
vn 0.000000 1.000000 0.000000
vn 0.000000 1.000000 0.000000
vn 0.000000 1.000000 0.000000
vn 0.000000 1.000000 0.000000
vn 0.000000 1.000000 0.000000
vn 0.000000 1.000000 0.000000
vn 0.000000 1.000000 0.000000
vn 0.000000 1.000000 0.000000
vn 0.000000 1.000000 0.000000
vn 0.000000 1.000000 0.000000
vn 0.000000 1.000000 0.000000
vn 0.000000 1.000000 0.000000
vn 0.000000 1.000000 0.000000
vn 0.000000 1.000000 0.000000
vn 0.000000 1.000000 0.000000
vn 0.000000 1.000000 0.000000
vn 0.000000 -1.000000 -0.000000
vn 0.000000 -1.000000 -0.000000
vn 0.000000 -1.000000 -0.000000
vn 0.000000 -1.000000 -0.000000
vn 0.000000 -1.000000 -0.000000
vn 0.000000 -1.000000 -0.000000
vn 0.000000 -1.000000 -0.000000
vn 0.000000 -1.000000 -0.000000
vn 0.000000 -1.000000 -0.000000
vn 0.000000 -1.000000 -0.000000
vn 0.000000 -1.000000 -0.000000
vn 0.000000 -1.000000 -0.000000
vn 0.000000 -1.000000 -0.000000
vn 0.000000 -1.000000 -0.000000
vn 0.000000 -1.000000 -0.000000
vn 0.000000 -1.000000 -0.000000
vn 0.000000 -1.000000 -0.000000
vn 0.000000 -1.000000 -0.000000
vn 0.000000 -1.000000 -0.000000
vn 0.000000 -1.000000 -0.000000
vn 0.000000 -1.000000 -0.000000
vn 0.000000 -1.000000 -0.000000
vn 0.000000 -1.000000 -0.000000
vn 0.000000 -1.000000 -0.000000
vn 0.000000 -1.000000 -0.000000
vn 0.000000 -1.000000 -0.000000
vn 0.000000 -1.000000 -0.000000
vn 0.000000 -1.000000 -0.000000
vn 0.000000 -1.000000 -0.000000
vn 0.000000 -1.000000 -0.000000
vn 0.000000 -1.000000 -0.000000
vn 0.000000 -1.000000 -0.000000
vn 0.000000 -1.000000 -0.000000
vn 0.000000 -1.000000 -0.000000
vn 0.000000 -1.000000 -0.000000
vn 0.000000 -1.000000 -0.000000
vn 0.000000 -1.000000 -0.000000
vn 0.000000 -1.000000 -0.000000
vn 0.000000 -1.000000 -0.000000
vn 0.000000 -1.000000 -0.000000
vn 0.000000 -1.000000 -0.000000
vn 0.000000 -1.000000 -0.000000
vn 0.000000 -1.000000 -0.000000
vn 0.000000 -1.000000 -0.000000
vn 0.000000 -1.000000 -0.000000
vn 0.000000 -1.000000 -0.000000
vn 0.000000 -1.000000 -0.000000
vn 0.000000 -1.000000 -0.000000
vn 0.787111 -0.000000 0.616811
vn 0.571163 -0.000000 0.820837
vn 0.571163 -0.000000 0.820837
vn 0.571163 -0.000000 0.820837
vn 0.787111 -0.000000 0.616811
vn 0.787111 -0.000000 0.616811
vn 0.922534 -0.000000 0.385916
vn 0.787111 -0.000000 0.616811
vn 0.787111 -0.000000 0.616811
vn 0.787111 -0.000000 0.616811
vn 0.922534 -0.000000 0.385916
vn 0.922534 -0.000000 0.385916
vn 0.983190 -0.000000 0.182586
vn 0.922534 -0.000000 0.385916
vn 0.922534 -0.000000 0.385916
vn 0.922534 -0.000000 0.385916
vn 0.983190 -0.000000 0.182586
vn 0.983190 -0.000000 0.182586
vn 1.000000 -0.000000 0.000000
vn 0.983190 -0.000000 0.182586
vn 0.983190 -0.000000 0.182586
vn 0.983190 -0.000000 0.182586
vn 1.000000 0.000000 -0.000000
vn 1.000000 -0.000000 0.000000
vn 0.983190 0.000000 -0.182586
vn 1.000000 -0.000000 0.000000
vn 1.000000 0.000000 -0.000000
vn 1.000000 0.000000 -0.000000
vn 0.983190 0.000000 -0.182586
vn 0.983190 0.000000 -0.182586
vn 0.922534 0.000000 -0.385916
vn 0.983190 0.000000 -0.182586
vn 0.983190 0.000000 -0.182586
vn 0.983190 0.000000 -0.182586
vn 0.922534 0.000000 -0.385916
vn 0.922534 0.000000 -0.385916
vn 0.787111 0.000000 -0.616811
vn 0.922534 0.000000 -0.385916
vn 0.922534 0.000000 -0.385916
vn 0.922534 0.000000 -0.385916
vn 0.787111 0.000000 -0.616811
vn 0.787111 0.000000 -0.616811
vn 0.571163 0.000000 -0.820837
vn 0.787111 0.000000 -0.616811
vn 0.787111 0.000000 -0.616811
vn 0.787111 0.000000 -0.616811
vn 0.571163 0.000000 -0.820837
vn 0.571163 0.000000 -0.820837
vn 0.000000 1.000000 0.000000
vn 0.000000 1.000000 0.000000
vn 0.000000 1.000000 0.000000
vn 0.000000 1.000000 0.000000
vn 0.000000 1.000000 0.000000
vn 0.000000 1.000000 0.000000
vn 0.000000 1.000000 0.000000
vn 0.000000 1.000000 0.000000
vn 0.000000 1.000000 0.000000
vn 0.000000 1.000000 0.000000
vn 0.000000 1.000000 0.000000
vn 0.000000 1.000000 0.000000
vn 0.000000 1.000000 0.000000
vn 0.000000 1.000000 0.000000
vn 0.000000 1.000000 0.000000
vn 0.000000 1.000000 0.000000
vn 0.000000 1.000000 0.000000
vn 0.000000 1.000000 0.000000
vn 0.000000 1.000000 0.000000
vn 0.000000 1.000000 0.000000
vn 0.000000 1.000000 0.000000
vn 0.000000 1.000000 0.000000
vn 0.000000 1.000000 0.000000
vn 0.000000 1.000000 0.000000
vn 0.000000 1.000000 0.000000
vn 0.000000 1.000000 0.000000
vn 0.000000 1.000000 0.000000
vn 0.435949 0.000000 -0.899972
vn 0.435948 0.000000 -0.899972
vn 0.571163 0.000000 -0.820837
vn 0.571163 0.000000 -0.820837
vn 0.571163 0.000000 -0.820837
vn 0.435949 0.000000 -0.899972
vn 0.435949 -0.000000 0.899972
vn 0.435948 -0.000000 0.899972
vn 0.571163 -0.000000 0.820837
vn 0.571163 -0.000000 0.820837
vn 0.571163 -0.000000 0.820837
vn 0.435949 -0.000000 0.899972
vn 0.000000 1.000000 0.000000
vn 0.000000 1.000000 0.000000
vn 0.000000 1.000000 0.000000
vn 0.000000 1.000000 0.000000
vn 0.000000 1.000000 0.000000
vn 0.000000 1.000000 0.000000
vn 0.000000 1.000000 -0.000000
vn 0.000000 1.000000 -0.000000
vn 0.000000 1.000000 -0.000000
vn 0.000000 1.000000 -0.000005
vn 0.000000 1.000000 -0.000005
vn 0.000000 1.000000 -0.000005
vn -0.000000 0.000001 -1.000000
vn -0.000000 0.000001 -1.000000
vn -0.000000 0.000001 -1.000000
vn 0.000000 0.000000 -1.000000
vn 0.000000 0.000000 -1.000000
vn 0.000000 0.000000 -1.000000
vn -0.000000 -1.000000 0.000011
vn -0.000000 -1.000000 0.000011
vn -0.000000 -1.000000 0.000011
vn 0.000001 -1.000000 -0.000022
vn 0.000001 -1.000000 -0.000022
vn 0.000001 -1.000000 -0.000022
vn 0.000000 0.000001 1.000000
vn 0.000000 0.000001 1.000000
vn 0.000000 0.000001 1.000000
vn -0.000000 -0.000000 1.000000
vn -0.000000 -0.000000 1.000000
vn -0.000000 -0.000000 1.000000
vn 1.000000 -0.000001 0.000000
vn 1.000000 0.000000 0.000000
vn 1.000000 -0.000000 0.000000
vn 1.000000 -0.000000 0.000000
vn 1.000000 -0.000001 0.000000
vn 1.000000 -0.000001 0.000000
vn -0.000013 1.000000 -0.000000
vn -0.000013 1.000000 -0.000000
vn -0.000013 1.000000 -0.000000
vn -0.000013 1.000000 -0.000000
vn -0.000013 1.000000 -0.000000
vn -0.000013 1.000000 -0.000000
vn -0.000031 -1.000000 0.000000
vn -0.000031 -1.000000 0.000000
vn -0.000031 -1.000000 0.000000
vn -0.000025 -1.000000 0.000000
vn -0.000025 -1.000000 0.000000
vn -0.000025 -1.000000 0.000000
vn 0.000000 1.000000 -0.000000
vn 0.000000 1.000000 -0.000000
vn 0.000000 1.000000 -0.000000
vn 0.000000 1.000000 -0.000005
vn 0.000000 1.000000 -0.000005
vn 0.000000 1.000000 -0.000005
vn 0.000000 0.000001 -1.000000
vn 0.000000 0.000001 -1.000000
vn 0.000000 0.000001 -1.000000
vn 0.000000 0.000001 -1.000000
vn 0.000000 0.000001 -1.000000
vn 0.000000 0.000001 -1.000000
vn -0.000000 -1.000000 0.000011
vn -0.000000 -1.000000 0.000011
vn -0.000000 -1.000000 0.000011
vn 0.000001 -1.000000 -0.000022
vn 0.000001 -1.000000 -0.000022
vn 0.000001 -1.000000 -0.000022
vn 0.000000 -0.000000 1.000000
vn 0.000000 -0.000000 1.000000
vn 0.000000 -0.000000 1.000000
vn -0.000000 -0.000001 1.000000
vn -0.000000 -0.000001 1.000000
vn -0.000000 -0.000001 1.000000
vn 0.000004 0.000000 1.000000
vn 0.000004 0.000000 1.000000
vn 0.000004 0.000000 1.000000
vn 0.000000 -0.000000 1.000000
vn 0.000000 -0.000000 1.000000
vn 0.000000 -0.000000 1.000000
vn -0.000007 1.000000 0.000000
vn -0.000007 1.000000 0.000000
vn -0.000007 1.000000 0.000000
vn -0.000007 1.000000 0.000000
vn -0.000007 1.000000 0.000000
vn -0.000007 1.000000 0.000000
vn -1.000000 -0.000000 0.000000
vn -1.000000 0.000000 0.000000
vn -1.000000 -0.000000 0.000000
vn -1.000000 -0.000000 0.000000
vn -1.000000 -0.000000 0.000000
vn -1.000000 -0.000000 0.000000
vn 0.000007 -1.000000 0.000000
vn 0.000007 -1.000000 0.000000
vn 0.000007 -1.000000 0.000000
vn 0.000000 -1.000000 0.000000
vn 0.000000 -1.000000 0.000000
vn 0.000000 -1.000000 0.000000
vn 0.000004 0.000000 -1.000000
vn 0.000004 0.000000 -1.000000
vn 0.000004 0.000000 -1.000000
vn 0.000004 0.000000 -1.000000
vn 0.000004 0.000000 -1.000000
vn 0.000004 0.000000 -1.000000
vn 1.000000 0.000000 -0.000000
vn 1.000000 0.000000 -0.000000
vn 1.000000 0.000000 -0.000000
vn 1.000000 0.000000 -0.000000
vn 1.000000 0.000000 -0.000000
vn 1.000000 0.000000 -0.000000
vn 0.329148 -0.000001 0.944278
vn 0.341368 0.379827 0.859767
vn 0.538930 0.328989 0.775449
vn 0.538930 0.328989 0.775449
vn 0.592731 -0.000001 0.805400
vn 0.329148 -0.000001 0.944278
vn 0.592731 -0.000001 0.805400
vn 0.538930 0.328989 0.775449
vn 0.850926 0.176812 0.494634
vn 0.850926 0.176812 0.494634
vn 0.871011 -0.000000 0.491264
vn 0.592731 -0.000001 0.805400
vn 0.871011 -0.000000 0.491264
vn 0.850926 0.176812 0.494634
vn 0.970835 0.054545 0.233462
vn 0.970835 0.054545 0.233462
vn 0.973192 -0.000000 0.229993
vn 0.871011 -0.000000 0.491264
vn 0.973192 -0.000000 0.229993
vn 0.970835 0.054545 0.233462
vn 0.999979 0.004694 0.004444
vn 0.999979 0.004694 0.004444
vn 0.999987 -0.000000 0.005029
vn 0.973192 -0.000000 0.229993
vn 0.999987 -0.000000 0.005029
vn 0.999979 0.004694 0.004444
vn 0.973852 0.033764 -0.224660
vn 0.973852 0.033764 -0.224660
vn 0.974774 -0.000000 -0.223194
vn 0.999987 -0.000000 0.005029
vn 0.974774 -0.000000 -0.223194
vn 0.973852 0.033764 -0.224660
vn 0.859102 0.142289 -0.491627
vn 0.859102 0.142289 -0.491627
vn 0.870569 -0.000000 -0.492046
vn 0.974774 -0.000000 -0.223194
vn 0.870569 -0.000000 -0.492046
vn 0.859102 0.142289 -0.491627
vn 0.540004 0.304282 -0.784735
vn 0.540004 0.304282 -0.784735
vn 0.583235 -0.000001 -0.812304
vn 0.870569 -0.000000 -0.492046
vn 0.583235 -0.000001 -0.812304
vn 0.540004 0.304282 -0.784735
vn 0.328449 0.364428 -0.871386
vn 0.328449 0.364428 -0.871386
vn 0.313228 -0.000001 -0.949678
vn 0.583235 -0.000001 -0.812304
vn 0.329148 -0.000001 0.944278
vn 0.592731 -0.000001 0.805400
vn 0.538930 -0.328991 0.775448
vn 0.538930 -0.328991 0.775448
vn 0.341367 -0.379828 0.859767
vn 0.329148 -0.000001 0.944278
vn 0.592731 -0.000001 0.805400
vn 0.871011 -0.000000 0.491264
vn 0.850926 -0.176813 0.494634
vn 0.850926 -0.176813 0.494634
vn 0.538930 -0.328991 0.775448
vn 0.592731 -0.000001 0.805400
vn 0.871011 -0.000000 0.491264
vn 0.973192 -0.000000 0.229993
vn 0.970835 -0.054545 0.233462
vn 0.970835 -0.054545 0.233462
vn 0.850926 -0.176813 0.494634
vn 0.871011 -0.000000 0.491264
vn 0.973192 -0.000000 0.229993
vn 0.999987 -0.000000 0.005029
vn 0.999979 -0.004694 0.004444
vn 0.999979 -0.004694 0.004444
vn 0.970835 -0.054545 0.233462
vn 0.973192 -0.000000 0.229993
vn 0.999987 -0.000000 0.005029
vn 0.974774 -0.000000 -0.223194
vn 0.973852 -0.033765 -0.224660
vn 0.973852 -0.033765 -0.224660
vn 0.999979 -0.004694 0.004444
vn 0.999987 -0.000000 0.005029
vn 0.974774 -0.000000 -0.223194
vn 0.870569 -0.000000 -0.492046
vn 0.859102 -0.142289 -0.491628
vn 0.859102 -0.142289 -0.491628
vn 0.973852 -0.033765 -0.224660
vn 0.974774 -0.000000 -0.223194
vn 0.870569 -0.000000 -0.492046
vn 0.583235 -0.000001 -0.812304
vn 0.540004 -0.304283 -0.784734
vn 0.540004 -0.304283 -0.784734
vn 0.859102 -0.142289 -0.491628
vn 0.870569 -0.000000 -0.492046
vn 0.583235 -0.000001 -0.812304
vn 0.313228 -0.000001 -0.949678
vn 0.328449 -0.364430 -0.871385
vn 0.328449 -0.364430 -0.871385
vn 0.540004 -0.304283 -0.784734
vn 0.583235 -0.000001 -0.812304
vn 0.000000 1.000000 0.000000
vn 0.000000 1.000000 0.000000
vn 0.000000 1.000000 0.000000
vn 0.000000 1.000000 0.000000
vn 0.000000 1.000000 0.000000
vn 0.000000 1.000000 0.000000
vn 0.000000 1.000000 0.000000
vn 0.000000 1.000000 0.000000
vn 0.000000 1.000000 0.000000
vn 0.000000 1.000000 0.000000
vn 0.000000 1.000000 0.000000
vn 0.000000 1.000000 0.000000
vn 0.000000 1.000000 0.000000
vn 0.000000 1.000000 0.000000
vn 0.000000 1.000000 0.000000
vn 0.000000 1.000000 0.000000
vn 0.000000 1.000000 0.000000
vn 0.000000 1.000000 0.000000
vn 0.000000 1.000000 0.000000
vn 0.000000 1.000000 0.000000
vn 0.000000 1.000000 0.000000
vn 0.000000 -1.000000 -0.000000
vn 0.000000 -1.000000 -0.000000
vn 0.000000 -1.000000 -0.000000
vn 0.000000 -1.000000 -0.000000
vn 0.000000 -1.000000 -0.000000
vn 0.000000 -1.000000 -0.000000
vn 0.000000 -1.000000 -0.000000
vn 0.000000 -1.000000 -0.000000
vn 0.000000 -1.000000 -0.000000
vn 0.000000 -1.000000 -0.000000
vn 0.000000 -1.000000 -0.000000
vn 0.000000 -1.000000 -0.000000
vn 0.000000 -1.000000 -0.000000
vn 0.000000 -1.000000 -0.000000
vn 0.000000 -1.000000 -0.000000
vn 0.000000 -1.000000 -0.000000
vn 0.000000 -1.000000 -0.000000
vn 0.000000 -1.000000 -0.000000
vn 0.000000 -1.000000 -0.000000
vn 0.000000 -1.000000 -0.000000
vn 0.000000 -1.000000 -0.000000
vn 0.000000 -1.000000 -0.000000
vn 0.000000 -1.000000 -0.000000
vn 0.000000 -1.000000 -0.000000
vn 0.000000 -1.000000 -0.000000
vn 0.000000 -1.000000 -0.000000
vn 0.000000 -1.000000 -0.000000
vn 0.000000 -1.000000 -0.000000
vn 0.000000 -1.000000 -0.000000
vn 0.000000 -1.000000 -0.000000
vn 0.000000 -1.000000 -0.000000
vn 0.000000 -1.000000 -0.000000
vn 0.000000 -1.000000 -0.000000
vn 0.000000 -1.000000 -0.000000
vn 0.000000 -1.000000 -0.000000
vn 0.000000 -1.000000 -0.000000
vn 0.000000 -1.000000 -0.000000
vn 0.000000 -1.000000 -0.000000
vn 0.000000 -1.000000 -0.000000
vn 0.000000 -1.000000 -0.000000
vn 0.000000 -1.000000 -0.000000
vn 0.000000 -1.000000 -0.000000
vn 0.000000 -1.000000 -0.000000
vn 0.000000 -1.000000 -0.000000
vn 0.000000 -1.000000 -0.000000
vn 0.000000 -1.000000 -0.000000
vn 0.000000 -1.000000 -0.000000
vn 0.000000 -1.000000 -0.000000
vn 0.787111 -0.000000 0.616811
vn 0.571163 -0.000000 0.820837
vn 0.571163 -0.000000 0.820837
vn 0.571163 -0.000000 0.820837
vn 0.787111 -0.000000 0.616811
vn 0.787111 -0.000000 0.616811
vn 0.922534 -0.000000 0.385916
vn 0.787111 -0.000000 0.616811
vn 0.787111 -0.000000 0.616811
vn 0.787111 -0.000000 0.616811
vn 0.922534 -0.000000 0.385916
vn 0.922534 -0.000000 0.385916
vn 0.983190 -0.000000 0.182586
vn 0.922534 -0.000000 0.385916
vn 0.922534 -0.000000 0.385916
vn 0.922534 -0.000000 0.385916
vn 0.983190 -0.000000 0.182586
vn 0.983190 -0.000000 0.182586
vn 1.000000 -0.000000 0.000000
vn 0.983190 -0.000000 0.182586
vn 0.983190 -0.000000 0.182586
vn 0.983190 -0.000000 0.182586
vn 1.000000 0.000000 -0.000000
vn 1.000000 -0.000000 0.000000
vn 0.983190 0.000000 -0.182586
vn 1.000000 -0.000000 0.000000
vn 1.000000 0.000000 -0.000000
vn 1.000000 0.000000 -0.000000
vn 0.983190 0.000000 -0.182586
vn 0.983190 0.000000 -0.182586
vn 0.922534 0.000000 -0.385916
vn 0.983190 0.000000 -0.182586
vn 0.983190 0.000000 -0.182586
vn 0.983190 0.000000 -0.182586
vn 0.922534 0.000000 -0.385916
vn 0.922534 0.000000 -0.385916
vn 0.787111 0.000000 -0.616811
vn 0.922534 0.000000 -0.385916
vn 0.922534 0.000000 -0.385916
vn 0.922534 0.000000 -0.385916
vn 0.787111 0.000000 -0.616811
vn 0.787111 0.000000 -0.616811
vn 0.571163 0.000000 -0.820837
vn 0.787111 0.000000 -0.616811
vn 0.787111 0.000000 -0.616811
vn 0.787111 0.000000 -0.616811
vn 0.571163 0.000000 -0.820837
vn 0.571163 0.000000 -0.820837
vn 0.000000 1.000000 0.000000
vn 0.000000 1.000000 0.000000
vn 0.000000 1.000000 0.000000
vn 0.000000 1.000000 0.000000
vn 0.000000 1.000000 0.000000
vn 0.000000 1.000000 0.000000
vn 0.000000 1.000000 0.000000
vn 0.000000 1.000000 0.000000
vn 0.000000 1.000000 0.000000
vn 0.000000 1.000000 0.000000
vn 0.000000 1.000000 0.000000
vn 0.000000 1.000000 0.000000
vn 0.000000 1.000000 0.000000
vn 0.000000 1.000000 0.000000
vn 0.000000 1.000000 0.000000
vn 0.000000 1.000000 0.000000
vn 0.000000 1.000000 0.000000
vn 0.000000 1.000000 0.000000
vn 0.000000 1.000000 0.000000
vn 0.000000 1.000000 0.000000
vn 0.000000 1.000000 0.000000
vn 0.000000 1.000000 0.000000
vn 0.000000 1.000000 0.000000
vn 0.000000 1.000000 0.000000
vn 0.000000 1.000000 0.000000
vn 0.000000 1.000000 0.000000
vn 0.000000 1.000000 0.000000
vn 0.435949 0.000000 -0.899972
vn 0.435948 0.000000 -0.899972
vn 0.571163 0.000000 -0.820837
vn 0.571163 0.000000 -0.820837
vn 0.571163 0.000000 -0.820837
vn 0.435949 0.000000 -0.899972
vn 0.435949 -0.000000 0.899972
vn 0.435948 -0.000000 0.899972
vn 0.571163 -0.000000 0.820837
vn 0.571163 -0.000000 0.820837
vn 0.571163 -0.000000 0.820837
vn 0.435949 -0.000000 0.899972
vn 0.000000 1.000000 0.000000
vn 0.000000 1.000000 0.000000
vn 0.000000 1.000000 0.000000
vn 0.000000 1.000000 0.000000
vn 0.000000 1.000000 0.000000
vn 0.000000 1.000000 0.000000
vn 0.000000 1.000000 -0.000000
vn 0.000000 1.000000 -0.000000
vn 0.000000 1.000000 -0.000000
vn 0.000000 1.000000 -0.000005
vn 0.000000 1.000000 -0.000005
vn 0.000000 1.000000 -0.000005
vn -0.000000 0.000001 -1.000000
vn -0.000000 0.000001 -1.000000
vn -0.000000 0.000001 -1.000000
vn 0.000000 0.000000 -1.000000
vn 0.000000 0.000000 -1.000000
vn 0.000000 0.000000 -1.000000
vn -0.000000 -1.000000 0.000011
vn -0.000000 -1.000000 0.000011
vn -0.000000 -1.000000 0.000011
vn 0.000001 -1.000000 -0.000022
vn 0.000001 -1.000000 -0.000022
vn 0.000001 -1.000000 -0.000022
vn 0.000000 0.000001 1.000000
vn 0.000000 0.000001 1.000000
vn 0.000000 0.000001 1.000000
vn -0.000000 -0.000000 1.000000
vn -0.000000 -0.000000 1.000000
vn -0.000000 -0.000000 1.000000
vn 1.000000 -0.000001 0.000000
vn 1.000000 0.000000 0.000000
vn 1.000000 -0.000000 0.000000
vn 1.000000 -0.000000 0.000000
vn 1.000000 -0.000001 0.000000
vn 1.000000 -0.000001 0.000000
vn -0.000013 1.000000 -0.000000
vn -0.000013 1.000000 -0.000000
vn -0.000013 1.000000 -0.000000
vn -0.000013 1.000000 -0.000000
vn -0.000013 1.000000 -0.000000
vn -0.000013 1.000000 -0.000000
vn -0.000031 -1.000000 0.000000
vn -0.000031 -1.000000 0.000000
vn -0.000031 -1.000000 0.000000
vn -0.000025 -1.000000 0.000000
vn -0.000025 -1.000000 0.000000
vn -0.000025 -1.000000 0.000000
vn 0.000000 1.000000 -0.000000
vn 0.000000 1.000000 -0.000000
vn 0.000000 1.000000 -0.000000
vn 0.000000 1.000000 -0.000005
vn 0.000000 1.000000 -0.000005
vn 0.000000 1.000000 -0.000005
vn 0.000000 0.000001 -1.000000
vn 0.000000 0.000001 -1.000000
vn 0.000000 0.000001 -1.000000
vn 0.000000 0.000001 -1.000000
vn 0.000000 0.000001 -1.000000
vn 0.000000 0.000001 -1.000000
vn -0.000000 -1.000000 0.000011
vn -0.000000 -1.000000 0.000011
vn -0.000000 -1.000000 0.000011
vn 0.000001 -1.000000 -0.000022
vn 0.000001 -1.000000 -0.000022
vn 0.000001 -1.000000 -0.000022
vn 0.000000 -0.000000 1.000000
vn 0.000000 -0.000000 1.000000
vn 0.000000 -0.000000 1.000000
vn -0.000000 -0.000001 1.000000
vn -0.000000 -0.000001 1.000000
vn -0.000000 -0.000001 1.000000
vn 0.000004 0.000000 1.000000
vn 0.000004 0.000000 1.000000
vn 0.000004 0.000000 1.000000
vn 0.000000 -0.000000 1.000000
vn 0.000000 -0.000000 1.000000
vn 0.000000 -0.000000 1.000000
vn -0.000007 1.000000 0.000000
vn -0.000007 1.000000 0.000000
vn -0.000007 1.000000 0.000000
vn -0.000007 1.000000 0.000000
vn -0.000007 1.000000 0.000000
vn -0.000007 1.000000 0.000000
vn -1.000000 -0.000000 0.000000
vn -1.000000 0.000000 0.000000
vn -1.000000 -0.000000 0.000000
vn -1.000000 -0.000000 0.000000
vn -1.000000 -0.000000 0.000000
vn -1.000000 -0.000000 0.000000
vn 0.000007 -1.000000 0.000000
vn 0.000007 -1.000000 0.000000
vn 0.000007 -1.000000 0.000000
vn 0.000000 -1.000000 0.000000
vn 0.000000 -1.000000 0.000000
vn 0.000000 -1.000000 0.000000
vn 0.000004 0.000000 -1.000000
vn 0.000004 0.000000 -1.000000
vn 0.000004 0.000000 -1.000000
vn 0.000004 0.000000 -1.000000
vn 0.000004 0.000000 -1.000000
vn 0.000004 0.000000 -1.000000
vn 1.000000 0.000000 -0.000000
vn 1.000000 0.000000 -0.000000
vn 1.000000 0.000000 -0.000000
vn 1.000000 0.000000 -0.000000
vn 1.000000 0.000000 -0.000000
vn 1.000000 0.000000 -0.000000
vn 0.329148 -0.000001 0.944278
vn 0.341368 0.379827 0.859767
vn 0.538930 0.328989 0.775449
vn 0.538930 0.328989 0.775449
vn 0.592731 -0.000001 0.805400
vn 0.329148 -0.000001 0.944278
vn 0.592731 -0.000001 0.805400
vn 0.538930 0.328989 0.775449
vn 0.850926 0.176812 0.494634
vn 0.850926 0.176812 0.494634
vn 0.871011 -0.000000 0.491264
vn 0.592731 -0.000001 0.805400
vn 0.871011 -0.000000 0.491264
vn 0.850926 0.176812 0.494634
vn 0.970835 0.054545 0.233462
vn 0.970835 0.054545 0.233462
vn 0.973192 -0.000000 0.229993
vn 0.871011 -0.000000 0.491264
vn 0.973192 -0.000000 0.229993
vn 0.970835 0.054545 0.233462
vn 0.999979 0.004694 0.004444
vn 0.999979 0.004694 0.004444
vn 0.999987 -0.000000 0.005029
vn 0.973192 -0.000000 0.229993
vn 0.999987 -0.000000 0.005029
vn 0.999979 0.004694 0.004444
vn 0.973852 0.033764 -0.224660
vn 0.973852 0.033764 -0.224660
vn 0.974774 -0.000000 -0.223194
vn 0.999987 -0.000000 0.005029
vn 0.974774 -0.000000 -0.223194
vn 0.973852 0.033764 -0.224660
vn 0.859102 0.142289 -0.491627
vn 0.859102 0.142289 -0.491627
vn 0.870569 -0.000000 -0.492046
vn 0.974774 -0.000000 -0.223194
vn 0.870569 -0.000000 -0.492046
vn 0.859102 0.142289 -0.491627
vn 0.540004 0.304282 -0.784735
vn 0.540004 0.304282 -0.784735
vn 0.583235 -0.000001 -0.812304
vn 0.870569 -0.000000 -0.492046
vn 0.583235 -0.000001 -0.812304
vn 0.540004 0.304282 -0.784735
vn 0.328449 0.364428 -0.871386
vn 0.328449 0.364428 -0.871386
vn 0.313228 -0.000001 -0.949678
vn 0.583235 -0.000001 -0.812304
vn 0.329148 -0.000001 0.944278
vn 0.592731 -0.000001 0.805400
vn 0.538930 -0.328991 0.775448
vn 0.538930 -0.328991 0.775448
vn 0.341367 -0.379828 0.859767
vn 0.329148 -0.000001 0.944278
vn 0.592731 -0.000001 0.805400
vn 0.871011 -0.000000 0.491264
vn 0.850926 -0.176813 0.494634
vn 0.850926 -0.176813 0.494634
vn 0.538930 -0.328991 0.775448
vn 0.592731 -0.000001 0.805400
vn 0.871011 -0.000000 0.491264
vn 0.973192 -0.000000 0.229993
vn 0.970835 -0.054545 0.233462
vn 0.970835 -0.054545 0.233462
vn 0.850926 -0.176813 0.494634
vn 0.871011 -0.000000 0.491264
vn 0.973192 -0.000000 0.229993
vn 0.999987 -0.000000 0.005029
vn 0.999979 -0.004694 0.004444
vn 0.999979 -0.004694 0.004444
vn 0.970835 -0.054545 0.233462
vn 0.973192 -0.000000 0.229993
vn 0.999987 -0.000000 0.005029
vn 0.974774 -0.000000 -0.223194
vn 0.973852 -0.033765 -0.224660
vn 0.973852 -0.033765 -0.224660
vn 0.999979 -0.004694 0.004444
vn 0.999987 -0.000000 0.005029
vn 0.974774 -0.000000 -0.223194
vn 0.870569 -0.000000 -0.492046
vn 0.859102 -0.142289 -0.491628
vn 0.859102 -0.142289 -0.491628
vn 0.973852 -0.033765 -0.224660
vn 0.974774 -0.000000 -0.223194
vn 0.870569 -0.000000 -0.492046
vn 0.583235 -0.000001 -0.812304
vn 0.540004 -0.304283 -0.784734
vn 0.540004 -0.304283 -0.784734
vn 0.859102 -0.142289 -0.491628
vn 0.870569 -0.000000 -0.492046
vn 0.583235 -0.000001 -0.812304
vn 0.313228 -0.000001 -0.949678
vn 0.328449 -0.364430 -0.871385
vn 0.328449 -0.364430 -0.871385
vn 0.540004 -0.304283 -0.784734
vn 0.583235 -0.000001 -0.812304
vn 0.000000 1.000000 0.000000
vn 0.000000 1.000000 0.000000
vn 0.000000 1.000000 0.000000
vn 0.000000 1.000000 0.000000
vn 0.000000 1.000000 0.000000
vn 0.000000 1.000000 0.000000
vn 0.000000 1.000000 0.000000
vn 0.000000 1.000000 0.000000
vn 0.000000 1.000000 0.000000
vn 0.000000 1.000000 0.000000
vn 0.000000 1.000000 0.000000
vn 0.000000 1.000000 0.000000
vn 0.000000 1.000000 0.000000
vn 0.000000 1.000000 0.000000
vn 0.000000 1.000000 0.000000
vn 0.000000 1.000000 0.000000
vn 0.000000 1.000000 0.000000
vn 0.000000 1.000000 0.000000
vn 0.000000 1.000000 0.000000
vn 0.000000 1.000000 0.000000
vn 0.000000 1.000000 0.000000
vn 0.000000 -1.000000 -0.000000
vn 0.000000 -1.000000 -0.000000
vn 0.000000 -1.000000 -0.000000
vn 0.000000 -1.000000 -0.000000
vn 0.000000 -1.000000 -0.000000
vn 0.000000 -1.000000 -0.000000
vn 0.000000 -1.000000 -0.000000
vn 0.000000 -1.000000 -0.000000
vn 0.000000 -1.000000 -0.000000
vn 0.000000 -1.000000 -0.000000
vn 0.000000 -1.000000 -0.000000
vn 0.000000 -1.000000 -0.000000
vn 0.000000 -1.000000 -0.000000
vn 0.000000 -1.000000 -0.000000
vn 0.000000 -1.000000 -0.000000
vn 0.000000 -1.000000 -0.000000
vn 0.000000 -1.000000 -0.000000
vn 0.000000 -1.000000 -0.000000
vn 0.000000 -1.000000 -0.000000
vn 0.000000 -1.000000 -0.000000
vn 0.000000 -1.000000 -0.000000
vn 0.000000 -1.000000 -0.000000
vn 0.000000 -1.000000 -0.000000
vn 0.000000 -1.000000 -0.000000
vn 0.000000 -1.000000 -0.000000
vn 0.000000 -1.000000 -0.000000
vn 0.000000 -1.000000 -0.000000
vn 0.000000 -1.000000 -0.000000
vn 0.000000 -1.000000 -0.000000
vn 0.000000 -1.000000 -0.000000
vn 0.000000 -1.000000 -0.000000
vn 0.000000 -1.000000 -0.000000
vn 0.000000 -1.000000 -0.000000
vn 0.000000 -1.000000 -0.000000
vn 0.000000 -1.000000 -0.000000
vn 0.000000 -1.000000 -0.000000
vn 0.000000 -1.000000 -0.000000
vn 0.000000 -1.000000 -0.000000
vn 0.000000 -1.000000 -0.000000
vn 0.000000 -1.000000 -0.000000
vn 0.000000 -1.000000 -0.000000
vn 0.000000 -1.000000 -0.000000
vn 0.000000 -1.000000 -0.000000
vn 0.000000 -1.000000 -0.000000
vn 0.000000 -1.000000 -0.000000
vn 0.000000 -1.000000 -0.000000
vn 0.000000 -1.000000 -0.000000
vn 0.000000 -1.000000 -0.000000
vn 0.787111 -0.000000 0.616811
vn 0.571163 -0.000000 0.820837
vn 0.571163 -0.000000 0.820837
vn 0.571163 -0.000000 0.820837
vn 0.787111 -0.000000 0.616811
vn 0.787111 -0.000000 0.616811
vn 0.922534 -0.000000 0.385916
vn 0.787111 -0.000000 0.616811
vn 0.787111 -0.000000 0.616811
vn 0.787111 -0.000000 0.616811
vn 0.922534 -0.000000 0.385916
vn 0.922534 -0.000000 0.385916
vn 0.983190 -0.000000 0.182586
vn 0.922534 -0.000000 0.385916
vn 0.922534 -0.000000 0.385916
vn 0.922534 -0.000000 0.385916
vn 0.983190 -0.000000 0.182586
vn 0.983190 -0.000000 0.182586
vn 1.000000 -0.000000 0.000000
vn 0.983190 -0.000000 0.182586
vn 0.983190 -0.000000 0.182586
vn 0.983190 -0.000000 0.182586
vn 1.000000 0.000000 -0.000000
vn 1.000000 -0.000000 0.000000
vn 0.983190 0.000000 -0.182586
vn 1.000000 -0.000000 0.000000
vn 1.000000 0.000000 -0.000000
vn 1.000000 0.000000 -0.000000
vn 0.983190 0.000000 -0.182586
vn 0.983190 0.000000 -0.182586
vn 0.922534 0.000000 -0.385916
vn 0.983190 0.000000 -0.182586
vn 0.983190 0.000000 -0.182586
vn 0.983190 0.000000 -0.182586
vn 0.922534 0.000000 -0.385916
vn 0.922534 0.000000 -0.385916
vn 0.787111 0.000000 -0.616811
vn 0.922534 0.000000 -0.385916
vn 0.922534 0.000000 -0.385916
vn 0.922534 0.000000 -0.385916
vn 0.787111 0.000000 -0.616811
vn 0.787111 0.000000 -0.616811
vn 0.571163 0.000000 -0.820837
vn 0.787111 0.000000 -0.616811
vn 0.787111 0.000000 -0.616811
vn 0.787111 0.000000 -0.616811
vn 0.571163 0.000000 -0.820837
vn 0.571163 0.000000 -0.820837
vn 0.000000 1.000000 0.000000
vn 0.000000 1.000000 0.000000
vn 0.000000 1.000000 0.000000
vn 0.000000 1.000000 0.000000
vn 0.000000 1.000000 0.000000
vn 0.000000 1.000000 0.000000
vn 0.000000 1.000000 0.000000
vn 0.000000 1.000000 0.000000
vn 0.000000 1.000000 0.000000
vn 0.000000 1.000000 0.000000
vn 0.000000 1.000000 0.000000
vn 0.000000 1.000000 0.000000
vn 0.000000 1.000000 0.000000
vn 0.000000 1.000000 0.000000
vn 0.000000 1.000000 0.000000
vn 0.000000 1.000000 0.000000
vn 0.000000 1.000000 0.000000
vn 0.000000 1.000000 0.000000
vn 0.000000 1.000000 0.000000
vn 0.000000 1.000000 0.000000
vn 0.000000 1.000000 0.000000
vn 0.000000 1.000000 0.000000
vn 0.000000 1.000000 0.000000
vn 0.000000 1.000000 0.000000
vn 0.000000 1.000000 0.000000
vn 0.000000 1.000000 0.000000
vn 0.000000 1.000000 0.000000
vn 0.435949 0.000000 -0.899972
vn 0.435948 0.000000 -0.899972
vn 0.571163 0.000000 -0.820837
vn 0.571163 0.000000 -0.820837
vn 0.571163 0.000000 -0.820837
vn 0.435949 0.000000 -0.899972
vn 0.435949 -0.000000 0.899972
vn 0.435948 -0.000000 0.899972
vn 0.571163 -0.000000 0.820837
vn 0.571163 -0.000000 0.820837
vn 0.571163 -0.000000 0.820837
vn 0.435949 -0.000000 0.899972
vn 0.000000 1.000000 0.000000
vn 0.000000 1.000000 0.000000
vn 0.000000 1.000000 0.000000
vn 0.000000 1.000000 0.000000
vn 0.000000 1.000000 0.000000
vn 0.000000 1.000000 0.000000
vn 0.000000 1.000000 -0.000000
vn 0.000000 1.000000 -0.000000
vn 0.000000 1.000000 -0.000000
vn 0.000000 1.000000 -0.000005
vn 0.000000 1.000000 -0.000005
vn 0.000000 1.000000 -0.000005
vn -0.000000 0.000001 -1.000000
vn -0.000000 0.000001 -1.000000
vn -0.000000 0.000001 -1.000000
vn 0.000000 0.000000 -1.000000
vn 0.000000 0.000000 -1.000000
vn 0.000000 0.000000 -1.000000
vn -0.000000 -1.000000 0.000011
vn -0.000000 -1.000000 0.000011
vn -0.000000 -1.000000 0.000011
vn 0.000001 -1.000000 -0.000022
vn 0.000001 -1.000000 -0.000022
vn 0.000001 -1.000000 -0.000022
vn 0.000000 0.000001 1.000000
vn 0.000000 0.000001 1.000000
vn 0.000000 0.000001 1.000000
vn -0.000000 -0.000000 1.000000
vn -0.000000 -0.000000 1.000000
vn -0.000000 -0.000000 1.000000
vn 1.000000 -0.000001 0.000000
vn 1.000000 0.000000 0.000000
vn 1.000000 -0.000000 0.000000
vn 1.000000 -0.000000 0.000000
vn 1.000000 -0.000001 0.000000
vn 1.000000 -0.000001 0.000000
vn -0.000013 1.000000 -0.000000
vn -0.000013 1.000000 -0.000000
vn -0.000013 1.000000 -0.000000
vn -0.000013 1.000000 -0.000000
vn -0.000013 1.000000 -0.000000
vn -0.000013 1.000000 -0.000000
vn -0.000031 -1.000000 0.000000
vn -0.000031 -1.000000 0.000000
vn -0.000031 -1.000000 0.000000
vn -0.000025 -1.000000 0.000000
vn -0.000025 -1.000000 0.000000
vn -0.000025 -1.000000 0.000000
vn 0.000000 1.000000 -0.000000
vn 0.000000 1.000000 -0.000000
vn 0.000000 1.000000 -0.000000
vn 0.000000 1.000000 -0.000005
vn 0.000000 1.000000 -0.000005
vn 0.000000 1.000000 -0.000005
vn 0.000000 0.000001 -1.000000
vn 0.000000 0.000001 -1.000000
vn 0.000000 0.000001 -1.000000
vn 0.000000 0.000001 -1.000000
vn 0.000000 0.000001 -1.000000
vn 0.000000 0.000001 -1.000000
vn -0.000000 -1.000000 0.000011
vn -0.000000 -1.000000 0.000011
vn -0.000000 -1.000000 0.000011
vn 0.000001 -1.000000 -0.000022
vn 0.000001 -1.000000 -0.000022
vn 0.000001 -1.000000 -0.000022
vn 0.000000 -0.000000 1.000000
vn 0.000000 -0.000000 1.000000
vn 0.000000 -0.000000 1.000000
vn -0.000000 -0.000001 1.000000
vn -0.000000 -0.000001 1.000000
vn -0.000000 -0.000001 1.000000
s off
g SM_Dresser_02b
f 1/1/1 2/2/2 3/3/3
f 3/3/4 4/4/5 1/1/6
f 5/7/7 6/8/8 11/5/9
f 11/5/10 10/6/11 5/7/12
f 7/11/13 5/12/14 10/9/15
f 10/9/16 12/10/17 7/11/18
f 5/13/19 7/14/20 8/15/21
f 8/15/22 6/16/23 5/13/24
f 6/17/25 8/18/26 9/19/27
f 9/19/28 11/20/29 6/17/30
f 8/21/31 7/22/32 12/23/33
f 12/23/34 9/24/35 8/21/36
f 11/27/37 9/25/38 12/28/39
f 12/28/40 10/26/41 11/27/42
f 32/31/43 14/32/44 15/29/45
f 15/29/46 33/30/47 32/31/48
f 33/30/49 15/29/50 16/33/51
f 16/33/52 34/34/53 33/30/54
f 34/34/55 16/33/56 17/35/57
f 17/35/58 35/36/59 34/34/60
f 35/36/61 17/35/62 18/37/63
f 18/37/64 36/38/65 35/36/66
f 36/38/67 18/37/68 19/39/69
f 19/39/70 37/40/71 36/38/72
f 37/40/73 19/39/74 20/41/75
f 20/41/76 38/42/77 37/40/78
f 38/42/79 20/41/80 21/43/81
f 21/43/82 39/44/83 38/42/84
f 39/44/85 21/43/86 13/45/87
f 13/45/88 31/46/89 39/44/90
f 32/31/91 33/30/92 24/47/93
f 24/47/94 23/48/95 32/31/96
f 33/30/97 34/34/98 25/49/99
f 25/49/100 24/47/101 33/30/102
f 34/34/103 35/36/104 26/50/105
f 26/50/106 25/49/107 34/34/108
f 35/36/109 36/38/110 27/51/111
f 27/51/112 26/50/113 35/36/114
f 36/38/115 37/40/116 28/52/117
f 28/52/118 27/51/119 36/38/120
f 37/40/121 38/42/122 29/53/123
f 29/53/124 28/52/125 37/40/126
f 38/42/127 39/44/128 30/54/129
f 30/54/130 29/53/131 38/42/132
f 39/44/133 31/46/134 22/55/135
f 22/55/136 30/54/137 39/44/138
f 24/58/139 30/59/140 22/56/141
f 22/56/142 23/57/143 24/58/144
f 28/60/145 29/61/146 30/59/147
f 28/60/148 30/59/149 24/58/150
f 24/58/151 25/62/152 26/63/153
f 28/60/154 24/58/155 26/63/156
f 28/60/157 26/63/158 27/64/159
f 14/67/160 13/68/161 21/65/162
f 21/65/163 15/66/164 14/67/165
f 19/69/166 18/70/167 17/71/168
f 19/69/169 17/71/170 16/72/171
f 16/72/172 15/66/173 21/65/174
f 19/69/175 16/72/176 21/65/177
f 19/69/178 21/65/179 20/73/180
f 43/82/181 42/83/182 41/84/183
f 59/74/184 58/75/185 40/76/186
f 41/84/187 59/74/188 40/76/189
f 40/76/190 48/77/191 47/78/192
f 47/78/193 46/79/194 45/80/195
f 40/76/196 47/78/197 45/80/198
f 41/84/199 40/76/200 45/80/201
f 43/82/202 41/84/203 45/80/204
f 43/82/205 45/80/206 44/81/207
f 51/104/208 50/105/209 41/102/210
f 41/102/211 42/103/212 51/104/213
f 52/109/214 51/104/215 42/103/216
f 42/103/217 43/108/218 52/109/219
f 53/111/220 52/109/221 43/108/222
f 43/108/223 44/110/224 53/111/225
f 54/113/226 53/111/227 44/110/228
f 44/110/229 45/112/230 54/113/231
f 55/115/232 54/113/233 45/112/234
f 45/112/235 46/114/236 55/115/237
f 56/117/238 55/115/239 46/114/240
f 46/114/241 47/116/242 56/117/243
f 57/99/244 56/117/245 47/116/246
f 47/116/247 48/96/248 57/99/249
f 49/98/250 57/99/251 48/96/252
f 48/96/253 40/97/254 49/98/255
f 60/91/256 61/92/257 50/93/258
f 51/94/259 52/95/260 53/85/261
f 53/85/262 54/86/263 55/87/264
f 51/94/265 53/85/266 55/87/267
f 56/88/268 57/89/269 49/90/270
f 55/87/271 56/88/272 49/90/273
f 51/94/274 55/87/275 49/90/276
f 50/93/277 51/94/278 49/90/279
f 60/91/280 50/93/281 49/90/282
f 58/100/283 60/101/284 49/98/285
f 49/98/286 40/97/287 58/100/288
f 61/106/289 59/107/290 41/102/291
f 41/102/292 50/105/293 61/106/294
f 65/120/295 64/121/296 62/118/297
f 62/118/298 63/119/299 65/120/300
f 69/124/301 70/125/302 67/122/303
f 67/122/304 66/123/305 69/124/306
f 69/128/307 68/129/308 71/126/309
f 71/126/310 70/127/311 69/128/312
f 71/130/313 68/131/314 73/132/315
f 73/132/316 72/133/317 71/130/318
f 67/134/319 72/135/320 73/136/321
f 73/136/322 66/137/323 67/134/324
f 77/144/325 74/145/326 75/142/327
f 75/142/328 76/143/329 77/144/330
f 78/140/331 79/141/332 74/138/333
f 74/138/334 77/139/335 78/140/336
f 80/146/337 81/147/338 76/148/339
f 76/148/340 75/149/341 80/146/342
f 85/152/343 86/153/344 83/150/345
f 83/150/346 82/151/347 85/152/348
f 85/156/349 84/157/350 87/154/351
f 87/154/352 86/155/353 85/156/354
f 87/158/355 84/159/356 89/160/357
f 89/160/358 88/161/359 87/158/360
f 83/162/361 88/163/362 89/164/363
f 89/164/364 82/165/365 83/162/366
f 90/168/367 91/169/368 96/166/369
f 96/166/370 95/167/371 90/168/372
f 92/172/373 90/173/374 95/170/375
f 95/170/376 97/171/377 92/172/378
f 90/174/379 92/175/380 93/176/381
f 93/176/382 91/177/383 90/174/384
f 91/178/385 93/179/386 94/180/387
f 94/180/388 96/181/389 91/178/390
f 93/182/391 92/183/392 97/184/393
f 97/184/394 94/185/395 93/182/396
f 96/188/397 94/186/398 97/189/399
f 97/189/400 95/187/401 96/188/402
f 117/192/403 99/193/404 100/190/405
f 100/190/406 118/191/407 117/192/408
f 118/191/409 100/190/410 101/194/411
f 101/194/412 119/195/413 118/191/414
f 119/195/415 101/194/416 102/196/417
f 102/196/418 120/197/419 119/195/420
f 120/197/421 102/196/422 103/198/423
f 103/198/424 121/199/425 120/197/426
f 121/199/427 103/198/428 104/200/429
f 104/200/430 122/201/431 121/199/432
f 122/201/433 104/200/434 105/202/435
f 105/202/436 123/203/437 122/201/438
f 123/203/439 105/202/440 106/204/441
f 106/204/442 124/205/443 123/203/444
f 124/205/445 106/204/446 98/206/447
f 98/206/448 116/207/449 124/205/450
f 117/192/451 118/191/452 109/208/453
f 109/208/454 108/209/455 117/192/456
f 118/191/457 119/195/458 110/210/459
f 110/210/460 109/208/461 118/191/462
f 119/195/463 120/197/464 111/211/465
f 111/211/466 110/210/467 119/195/468
f 120/197/469 121/199/470 112/212/471
f 112/212/472 111/211/473 120/197/474
f 121/199/475 122/201/476 113/213/477
f 113/213/478 112/212/479 121/199/480
f 122/201/481 123/203/482 114/214/483
f 114/214/484 113/213/485 122/201/486
f 123/203/487 124/205/488 115/215/489
f 115/215/490 114/214/491 123/203/492
f 124/205/493 116/207/494 107/216/495
f 107/216/496 115/215/497 124/205/498
f 109/219/499 115/220/500 107/217/501
f 107/217/502 108/218/503 109/219/504
f 113/221/505 114/222/506 115/220/507
f 113/221/508 115/220/509 109/219/510
f 109/219/511 110/223/512 111/224/513
f 113/221/514 109/219/515 111/224/516
f 113/221/517 111/224/518 112/225/519
f 99/228/520 98/229/521 106/226/522
f 106/226/523 100/227/524 99/228/525
f 104/230/526 103/231/527 102/232/528
f 104/230/529 102/232/530 101/233/531
f 101/233/532 100/227/533 106/226/534
f 104/230/535 101/233/536 106/226/537
f 104/230/538 106/226/539 105/234/540
f 128/243/541 127/244/542 126/245/543
f 144/235/544 143/236/545 125/237/546
f 126/245/547 144/235/548 125/237/549
f 125/237/550 133/238/551 132/239/552
f 132/239/553 131/240/554 130/241/555
f 125/237/556 132/239/557 130/241/558
f 126/245/559 125/237/560 130/241/561
f 128/243/562 126/245/563 130/241/564
f 128/243/565 130/241/566 129/242/567
f 136/265/568 135/266/569 126/263/570
f 126/263/571 127/264/572 136/265/573
f 137/270/574 136/265/575 127/264/576
f 127/264/577 128/269/578 137/270/579
f 138/272/580 137/270/581 128/269/582
f 128/269/583 129/271/584 138/272/585
f 139/274/586 138/272/587 129/271/588
f 129/271/589 130/273/590 139/274/591
f 140/276/592 139/274/593 130/273/594
f 130/273/595 131/275/596 140/276/597
f 141/278/598 140/276/599 131/275/600
f 131/275/601 132/277/602 141/278/603
f 142/260/604 141/278/605 132/277/606
f 132/277/607 133/257/608 142/260/609
f 134/259/610 142/260/611 133/257/612
f 133/257/613 125/258/614 134/259/615
f 145/252/616 146/253/617 135/254/618
f 136/255/619 137/256/620 138/246/621
f 138/246/622 139/247/623 140/248/624
f 136/255/625 138/246/626 140/248/627
f 141/249/628 142/250/629 134/251/630
f 140/248/631 141/249/632 134/251/633
f 136/255/634 140/248/635 134/251/636
f 135/254/637 136/255/638 134/251/639
f 145/252/640 135/254/641 134/251/642
f 143/261/643 145/262/644 134/259/645
f 134/259/646 125/258/647 143/261/648
f 146/267/649 144/268/650 126/263/651
f 126/263/652 135/266/653 146/267/654
f 150/281/655 149/282/656 147/279/657
f 147/279/658 148/280/659 150/281/660
f 154/285/661 155/286/662 152/283/663
f 152/283/664 151/284/665 154/285/666
f 154/289/667 153/290/668 156/287/669
f 156/287/670 155/288/671 154/289/672
f 156/291/673 153/292/674 158/293/675
f 158/293/676 157/294/677 156/291/678
f 152/295/679 157/296/680 158/297/681
f 158/297/682 151/298/683 152/295/684
f 162/305/685 159/306/686 160/303/687
f 160/303/688 161/304/689 162/305/690
f 163/301/691 164/302/692 159/299/693
f 159/299/694 162/300/695 163/301/696
f 165/307/697 166/308/698 161/309/699
f 161/309/700 160/310/701 165/307/702
f 170/313/703 171/314/704 168/311/705
f 168/311/706 167/312/707 170/313/708
f 170/317/709 169/318/710 172/315/711
f 172/315/712 171/316/713 170/317/714
f 172/319/715 169/320/716 174/321/717
f 174/321/718 173/322/719 172/319/720
f 168/323/721 173/324/722 174/325/723
f 174/325/724 167/326/725 168/323/726
f 175/329/727 176/330/728 181/327/729
f 181/327/730 180/328/731 175/329/732
f 177/333/733 175/334/734 180/331/735
f 180/331/736 182/332/737 177/333/738
f 175/335/739 177/336/740 178/337/741
f 178/337/742 176/338/743 175/335/744
f 176/339/745 178/340/746 179/341/747
f 179/341/748 181/342/749 176/339/750
f 178/343/751 177/344/752 182/345/753
f 182/345/754 179/346/755 178/343/756
f 181/349/757 179/347/758 182/350/759
f 182/350/760 180/348/761 181/349/762
f 202/353/763 184/354/764 185/351/765
f 185/351/766 203/352/767 202/353/768
f 203/352/769 185/351/770 186/355/771
f 186/355/772 204/356/773 203/352/774
f 204/356/775 186/355/776 187/357/777
f 187/357/778 205/358/779 204/356/780
f 205/358/781 187/357/782 188/359/783
f 188/359/784 206/360/785 205/358/786
f 206/360/787 188/359/788 189/361/789
f 189/361/790 207/362/791 206/360/792
f 207/362/793 189/361/794 190/363/795
f 190/363/796 208/364/797 207/362/798
f 208/364/799 190/363/800 191/365/801
f 191/365/802 209/366/803 208/364/804
f 209/366/805 191/365/806 183/367/807
f 183/367/808 201/368/809 209/366/810
f 202/353/811 203/352/812 194/369/813
f 194/369/814 193/370/815 202/353/816
f 203/352/817 204/356/818 195/371/819
f 195/371/820 194/369/821 203/352/822
f 204/356/823 205/358/824 196/372/825
f 196/372/826 195/371/827 204/356/828
f 205/358/829 206/360/830 197/373/831
f 197/373/832 196/372/833 205/358/834
f 206/360/835 207/362/836 198/374/837
f 198/374/838 197/373/839 206/360/840
f 207/362/841 208/364/842 199/375/843
f 199/375/844 198/374/845 207/362/846
f 208/364/847 209/366/848 200/376/849
f 200/376/850 199/375/851 208/364/852
f 209/366/853 201/368/854 192/377/855
f 192/377/856 200/376/857 209/366/858
f 194/380/859 200/381/860 192/378/861
f 192/378/862 193/379/863 194/380/864
f 198/382/865 199/383/866 200/381/867
f 198/382/868 200/381/869 194/380/870
f 194/380/871 195/384/872 196/385/873
f 198/382/874 194/380/875 196/385/876
f 198/382/877 196/385/878 197/386/879
f 184/389/880 183/390/881 191/387/882
f 191/387/883 185/388/884 184/389/885
f 189/391/886 188/392/887 187/393/888
f 189/391/889 187/393/890 186/394/891
f 186/394/892 185/388/893 191/387/894
f 189/391/895 186/394/896 191/387/897
f 189/391/898 191/387/899 190/395/900
f 213/404/901 212/405/902 211/406/903
f 229/396/904 228/397/905 210/398/906
f 211/406/907 229/396/908 210/398/909
f 210/398/910 218/399/911 217/400/912
f 217/400/913 216/401/914 215/402/915
f 210/398/916 217/400/917 215/402/918
f 211/406/919 210/398/920 215/402/921
f 213/404/922 211/406/923 215/402/924
f 213/404/925 215/402/926 214/403/927
f 221/426/928 220/427/929 211/424/930
f 211/424/931 212/425/932 221/426/933
f 222/431/934 221/426/935 212/425/936
f 212/425/937 213/430/938 222/431/939
f 223/433/940 222/431/941 213/430/942
f 213/430/943 214/432/944 223/433/945
f 224/435/946 223/433/947 214/432/948
f 214/432/949 215/434/950 224/435/951
f 225/437/952 224/435/953 215/434/954
f 215/434/955 216/436/956 225/437/957
f 226/439/958 225/437/959 216/436/960
f 216/436/961 217/438/962 226/439/963
f 227/421/964 226/439/965 217/438/966
f 217/438/967 218/418/968 227/421/969
f 219/420/970 227/421/971 218/418/972
f 218/418/973 210/419/974 219/420/975
f 230/413/976 231/414/977 220/415/978
f 221/416/979 222/417/980 223/407/981
f 223/407/982 224/408/983 225/409/984
f 221/416/985 223/407/986 225/409/987
f 226/410/988 227/411/989 219/412/990
f 225/409/991 226/410/992 219/412/993
f 221/416/994 225/409/995 219/412/996
f 220/415/997 221/416/998 219/412/999
f 230/413/1000 220/415/1001 219/412/1002
f 228/422/1003 230/423/1004 219/420/1005
f 219/420/1006 210/419/1007 228/422/1008
f 231/428/1009 229/429/1010 211/424/1011
f 211/424/1012 220/427/1013 231/428/1014
f 235/442/1015 234/443/1016 232/440/1017
f 232/440/1018 233/441/1019 235/442/1020
f 239/446/1021 240/447/1022 237/444/1023
f 237/444/1024 236/445/1025 239/446/1026
f 239/450/1027 238/451/1028 241/448/1029
f 241/448/1030 240/449/1031 239/450/1032
f 241/452/1033 238/453/1034 243/454/1035
f 243/454/1036 242/455/1037 241/452/1038
f 237/456/1039 242/457/1040 243/458/1041
f 243/458/1042 236/459/1043 237/456/1044
f 247/466/1045 244/467/1046 245/464/1047
f 245/464/1048 246/465/1049 247/466/1050
f 248/462/1051 249/463/1052 244/460/1053
f 244/460/1054 247/461/1055 248/462/1056
f 250/468/1057 251/469/1058 246/470/1059
f 246/470/1060 245/471/1061 250/468/1062
f 255/474/1063 256/475/1064 253/472/1065
f 253/472/1066 252/473/1067 255/474/1068
f 255/478/1069 254/479/1070 257/476/1071
f 257/476/1072 256/477/1073 255/478/1074
f 257/480/1075 254/481/1076 259/482/1077
f 259/482/1078 258/483/1079 257/480/1080
f 253/484/1081 258/485/1082 259/486/1083
f 259/486/1084 252/487/1085 253/484/1086
