# This file uses feet as units for non-parametric coordinates.

g default
v 57.178089 16.063797 44.299736
v -0.367178 16.063812 44.299728
v -0.367167 120.453499 44.299744
v 57.178089 120.453506 44.299721
v 0.259787 126.479080 52.542259
v 49.535973 126.479050 52.542229
v 56.717747 126.479050 43.872337
v 52.121407 126.479050 52.195442
v 54.132298 126.479050 51.155037
v 55.568657 126.479050 49.421059
v 56.430470 126.479042 46.993484
v -0.226782 126.479065 51.965004
v -0.663942 14.975296 52.471222
v 57.178089 14.975281 44.299736
v 49.926353 14.975288 53.054085
v 56.888023 14.975281 47.451309
v 56.017807 14.975281 49.902519
v 54.567467 14.975288 51.653389
v 52.536976 14.975281 52.703911
v -0.172640 14.975296 53.054108
v -0.000002 14.975319 51.628120
v 56.435276 14.975304 44.107475
v 56.131615 14.975304 47.130821
v 55.381805 14.975304 49.300163
v 53.956879 14.975319 50.923454
v 51.971313 14.975296 51.842361
v 49.417267 14.975296 52.133194
v 0.425730 14.975319 52.133209
v -0.000002 0.430229 51.628120
v 56.435272 0.430229 44.107460
v 56.131615 0.430229 47.130814
v 55.381805 0.430229 49.300156
v 53.956879 0.430237 50.923447
v 51.971313 0.430214 51.842354
v 49.417267 0.430222 52.133194
v 0.425726 0.430229 52.133209
v 56.717743 125.170105 43.872322
v 49.535973 125.170113 52.542221
v 56.430450 125.170113 46.993484
v 55.568657 125.170105 49.421043
v 54.132298 125.170105 51.155022
v 52.121407 125.170113 52.195419
v -0.226782 125.170128 51.964996
v 0.259771 125.170128 52.542236
v -0.663923 125.170128 52.471222
v -0.172636 125.170135 53.054100
v 57.178108 125.170105 44.299736
v 49.926373 125.170113 53.054077
v 56.888012 125.170113 47.451309
v 56.017838 125.170105 49.902519
v 54.567482 125.170113 51.653381
v 52.536987 125.170113 52.703903
v 0.360983 0.000023 51.215317
v 56.022587 0.000015 44.094322
v 55.723404 0.000015 47.073097
v 55.004848 0.000015 49.152016
v 53.697437 0.000023 50.641426
v 51.698982 0.000000 51.448006
v 49.356998 0.000000 51.714676
v 0.828665 0.000023 51.714699
v 0.259764 126.479080 -52.542259
v 0.259748 125.170128 -52.542252
v 49.535957 125.170105 -52.542259
v 49.535957 126.479042 -52.542267
v 56.717731 126.479042 -43.872360
v 56.430454 126.479042 -46.993530
v 56.430435 125.170105 -46.993507
v 56.717728 125.170105 -43.872368
v 55.568642 126.479042 -49.421097
v 55.568642 125.170105 -49.421074
v 54.132282 126.479042 -51.155075
v 54.132282 125.170105 -51.155052
v 52.121391 126.479042 -52.195465
v 52.121391 125.170105 -52.195457
v -0.226805 126.479065 -51.965019
v -0.172659 125.170128 -53.054108
v -0.663946 125.170120 -52.471230
v -0.663961 14.975296 -52.471222
v -0.172663 14.975296 -53.054123
v 57.178078 14.975281 -44.299782
v 56.888012 14.975281 -47.451324
v 56.131603 14.975304 -47.130844
v 56.435265 14.975304 -44.107498
v 56.017796 14.975281 -49.902542
v 55.381794 14.975304 -49.300194
v 54.567455 14.975281 -51.653419
v 53.956867 14.975319 -50.923485
v 52.536964 14.975281 -52.703941
v 51.971302 14.975296 -51.842392
v 49.926342 14.975281 -53.054108
v 49.417255 14.975296 -52.133209
v 0.425711 14.975319 -52.133209
v -0.000021 14.975319 -51.628120
v 56.131603 0.430229 -47.130844
v 56.435261 0.430229 -44.107498
v 55.381794 0.430229 -49.300194
v 53.956867 0.430252 -50.923485
v 51.971302 0.430222 -51.842392
v 49.417255 0.430222 -52.133209
v 0.425707 0.430229 -52.133209
v -0.000021 0.430229 -51.628120
v 49.926357 125.170105 -53.054115
v 57.178078 16.063805 -44.299782
v 57.178078 120.453499 -44.299789
v 56.887997 125.170105 -47.451332
v 56.017822 125.170105 -49.902565
v 54.567467 125.170105 -51.653419
v 52.536972 125.170105 -52.703941
v -0.226805 125.170120 -51.965019
v 57.178093 125.170105 -44.299782
v 56.022575 0.000015 -44.094345
v 55.723392 0.000015 -47.073128
v 55.004837 0.000015 -49.152039
v 53.697426 0.000023 -50.641449
v 51.698971 0.000000 -51.448036
v 49.356987 0.000000 -51.714714
v 0.828646 0.000023 -51.714714
v 0.360964 0.000023 -51.215317
v -0.367182 16.063812 -44.299774
v -0.367167 120.453499 -44.299774
vt 0.920646 1.879129
vt 0.920646 1.931235
vt 0.833924 1.931235
vt 0.833924 1.879129
vt 0.864393 0.876838
vt 0.926085 0.876837
vt 0.826097 0.930413
vt 0.990560 0.006687
vt 0.990554 0.272022
vt 0.857448 0.484569
vt 0.858869 0.496761
vt 0.996103 0.006687
vt 0.996097 0.234122
vt 0.858869 0.729118
vt 0.996096 0.272022
vt 0.990554 0.234122
vt 0.856504 0.731413
vt 0.996096 0.284536
vt 0.430766 0.731412
vt 0.990553 0.284536
vt 0.428401 0.729118
vt 0.990554 0.262289
vt 0.428401 0.496760
vt 0.429822 0.484569
vt 0.990560 0.004372
vt 0.006910 0.456598
vt 0.986307 0.654503
vt 0.986307 0.667385
vt 0.290079 0.005383
vt 0.982626 0.667385
vt 0.982626 0.654503
vt 0.986307 0.680187
vt 0.982626 0.680187
vt 0.986307 0.693164
vt 0.982626 0.693164
vt 0.986307 0.705738
vt 0.282427 0.996577
vt 0.270239 0.996577
vt 0.270239 0.934650
vt 0.976873 0.509263
vt 0.974051 0.509263
vt 0.974051 0.229191
vt 0.976873 0.229191
vt 0.282480 0.932783
vt 0.637998 0.932783
vt 0.638051 0.934650
vt 0.254881 0.934650
vt 0.254841 0.932783
vt 0.260908 0.932783
vt 0.974051 0.218463
vt 0.282427 0.934650
vt 0.976873 0.218463
vt 0.974051 0.210627
vt 0.976873 0.210627
vt 0.974051 0.203822
vt 0.996096 0.262289
vt 0.990554 0.255336
vt 0.996096 0.255336
vt 0.990554 0.246055
vt 0.996103 0.004372
vt 0.996097 0.246055
vt 0.302820 0.009676
vt 0.302820 0.437337
vt 0.290079 0.456598
vt 0.279065 0.005383
vt 0.279065 0.456598
vt 0.269004 0.005383
vt 0.269004 0.456598
vt 0.754475 0.930413
vt 0.004372 0.932783
vt 0.270284 0.932783
vt 0.261493 0.934650
vt 0.006465 0.932783
vt 0.245667 0.934650
vt 0.245712 0.932783
vt 0.974051 0.006332
vt 0.004372 0.934650
vt 0.302820 0.456598
vt 0.654192 0.437337
vt 0.654192 0.456598
vt 0.246783 0.005383
vt 0.246783 0.456598
vt 0.006910 0.005383
vt 0.259282 0.005383
vt 0.422631 0.928622
vt 0.004485 0.456598
vt 0.004485 0.005383
vt 0.968446 0.769771
vt 0.962935 0.769771
vt 0.996091 0.914193
vt 0.990548 0.914192
vt 0.990549 0.648864
vt 0.990549 0.636349
vt 0.996092 0.636349
vt 0.976873 0.203822
vt 0.996092 0.648864
vt 0.990549 0.658597
vt 0.996092 0.658597
vt 0.990549 0.665549
vt 0.990549 0.686763
vt 0.996091 0.686763
vt 0.434084 0.475086
vt 0.441187 0.468313
vt 0.451131 0.464250
vt 0.463917 0.462895
vt 0.823354 0.462895
vt 0.836139 0.464250
vt 0.846083 0.468314
vt 0.853187 0.475087
vt 0.947113 0.456598
vt 0.947113 0.005383
vt 0.982626 0.705738
vt 0.986307 0.717159
vt 0.982626 0.717159
vt 0.986307 0.948279
vt 0.859589 0.863576
vt 0.261493 0.996577
vt 0.982626 0.948279
vt 0.916078 0.932783
vt 0.986307 0.950718
vt 0.974051 0.195086
vt 0.982627 0.950718
vt 0.976873 0.195086
vt 0.986307 0.293448
vt 0.976873 0.185883
vt 0.974051 0.185883
vt 0.982626 0.293448
vt 0.773272 0.873169
vt 0.773997 0.873842
vt 0.665597 0.934650
vt 0.658985 0.934650
vt 0.659014 0.932783
vt 0.006467 0.934650
vt 0.855984 0.735950
vt 0.707240 0.005383
vt 0.302833 0.005383
vt 0.976873 0.006332
vt 0.976873 0.004159
vt 0.654437 0.005383
vt 0.654192 0.009676
vt 0.666043 0.005383
vt 0.707240 0.456598
vt 0.694740 0.005383
vt 0.694740 0.456598
vt 0.685019 0.456598
vt 0.685019 0.005383
vt 0.666043 0.456598
vt 0.675959 0.005383
vt 0.675959 0.456598
vt 0.996091 0.665549
vt 0.974051 0.004159
vt 0.422631 0.462233
vt 0.004324 0.462233
vt 0.949538 0.005383
vt 0.949538 0.456598
vt 0.858011 0.737956
vt 0.859126 0.740757
vt 0.665616 0.932783
vt 0.674811 0.934650
vt 0.674902 0.932783
vt 0.855984 0.872396
vt 0.852885 0.873483
vt 0.849253 0.873842
vt 0.833924 0.931235
vt 0.833924 0.879129
vt 0.982626 0.279426
vt 0.754475 0.876865
vt 0.986307 0.279426
vt 0.826097 0.876865
vt 0.916078 0.934650
vt 0.864393 0.463812
vt 0.990549 0.674830
vt 0.968445 0.355502
vt 0.962935 0.355502
vt 0.996091 0.674830
vt 0.859589 0.744770
vt 0.254881 0.996577
vt 0.913985 0.932783
vt 0.859125 0.867589
vt 0.245667 0.996577
vt 0.233815 0.996577
vt 0.233815 0.934650
vt 0.006467 0.996577
vt 0.932572 0.462862
vt 0.233535 0.932783
vt 0.935559 0.462862
vt 0.932572 0.758123
vt 0.658985 0.996578
vt 0.935559 0.758123
vt 0.976873 0.557666
vt 0.665597 0.996578
vt 0.974051 0.557666
vt 0.674811 0.996577
vt 0.686663 0.934650
vt 0.686663 0.996577
vt 0.914010 0.934650
vt 0.914009 0.996578
vt 0.976874 0.737223
vt 0.686943 0.932783
vt 0.974051 0.737223
vt 0.920646 0.879129
vt 0.920646 0.931235
vt 0.990548 0.916507
vt 0.996091 0.916507
vt 0.858011 0.870389
vt 0.982626 0.237490
vt 0.004324 0.928622
vt 0.259282 0.456598
vt 0.650233 0.932783
vt 0.004372 0.996577
vt 0.986307 0.237490
vt 0.982626 0.006105
vt 0.927910 0.876837
vt 0.926085 0.463812
vt 0.927910 0.463812
vt 0.986307 0.006105
vt 0.959008 0.279194
vt 0.916078 0.996577
vt 0.982626 0.269518
vt 0.986307 0.269518
vt 0.982626 0.260676
vt 0.986307 0.260676
vt 0.982626 0.249886
vt 0.986307 0.249886
vt 0.982626 0.003666
vt 0.986307 0.003666
vt 0.955255 0.279194
vt 0.955255 0.634928
vt 0.959008 0.634928
vt 0.976873 0.519213
vt 0.974051 0.519213
vt 0.976873 0.529097
vt 0.974051 0.529097
vt 0.976873 0.539156
vt 0.974051 0.539156
vt 0.976873 0.549019
vt 0.974051 0.549019
vt 0.976874 0.739396
vt 0.974051 0.739396
vt 0.638051 0.996578
vt 0.650239 0.934650
vt 0.650239 0.996578
vt 0.773272 0.735177
vt 0.773997 0.734504
vt 0.849253 0.734504
vt 0.852885 0.734863
vt 0.920646 1.879129
vt 0.920646 1.931235
vt 0.833924 1.931235
vt 0.833924 1.879129
vt 0.754475 1.876865
vt 0.826097 1.876865
vt 0.826097 1.930413
vt 0.754475 1.930413
vn 0.000000 0.000000 -1.000000
vn 0.000000 0.000000 -1.000000
vn -0.000000 -0.000000 -1.000000
vn -0.000000 -0.000000 -1.000000
vn -0.000000 -0.000000 -1.000000
vn 0.000000 0.000000 -1.000000
vn 0.066620 -0.000007 0.997778
vn -0.421602 -0.000010 0.906781
vn -0.421617 -0.000008 0.906774
vn -0.421617 -0.000008 0.906774
vn 0.066621 -0.000006 0.997778
vn 0.066620 -0.000007 0.997778
vn 0.998947 -0.000005 0.045876
vn 0.998947 -0.000004 0.045876
vn 0.976664 -0.000013 0.214772
vn 0.976664 -0.000013 0.214772
vn 0.976664 -0.000013 0.214773
vn 0.998947 -0.000005 0.045876
vn 0.976664 -0.000013 0.214773
vn 0.976664 -0.000013 0.214772
vn 0.869571 -0.000006 0.493807
vn 0.869571 -0.000006 0.493807
vn 0.869573 -0.000004 0.493805
vn 0.976664 -0.000013 0.214773
vn 0.869573 -0.000004 0.493805
vn 0.869571 -0.000006 0.493807
vn 0.627415 -0.000007 0.778685
vn 0.627415 -0.000007 0.778685
vn 0.627415 -0.000008 0.778685
vn 0.869573 -0.000004 0.493805
vn 0.627415 -0.000008 0.778685
vn 0.627415 -0.000007 0.778685
vn 0.300670 -0.000013 0.953728
vn 0.300670 -0.000013 0.953728
vn 0.300671 -0.000013 0.953728
vn 0.627415 -0.000008 0.778685
vn 0.300671 -0.000013 0.953728
vn 0.300670 -0.000013 0.953728
vn 0.066620 -0.000007 0.997778
vn 0.066620 -0.000007 0.997778
vn 0.066621 -0.000006 0.997778
vn 0.300671 -0.000013 0.953728
vn -0.764617 0.000000 0.644485
vn -0.421613 0.000000 0.906776
vn -0.421616 0.000000 0.906774
vn -0.421616 0.000000 0.906774
vn -0.764623 0.000000 0.644478
vn -0.764617 0.000000 0.644485
vn -0.000028 -1.000000 -0.000006
vn -0.000030 -1.000000 -0.000001
vn -0.000030 -1.000000 -0.000002
vn -0.000030 -1.000000 -0.000002
vn -0.000028 -1.000000 -0.000006
vn -0.000028 -1.000000 -0.000006
vn -0.000026 -1.000000 -0.000011
vn -0.000028 -1.000000 -0.000006
vn -0.000028 -1.000000 -0.000006
vn -0.000028 -1.000000 -0.000006
vn -0.000026 -1.000000 -0.000012
vn -0.000026 -1.000000 -0.000011
vn -0.000016 -1.000000 -0.000027
vn -0.000026 -1.000000 -0.000011
vn -0.000026 -1.000000 -0.000012
vn -0.000026 -1.000000 -0.000012
vn -0.000017 -1.000000 -0.000024
vn -0.000016 -1.000000 -0.000027
vn -0.000003 -1.000000 -0.000018
vn -0.000016 -1.000000 -0.000027
vn -0.000017 -1.000000 -0.000024
vn -0.000017 -1.000000 -0.000024
vn -0.000003 -1.000000 -0.000014
vn -0.000003 -1.000000 -0.000018
vn -0.000001 -1.000000 -0.000008
vn -0.000003 -1.000000 -0.000018
vn -0.000003 -1.000000 -0.000014
vn -0.000003 -1.000000 -0.000014
vn -0.000003 -1.000000 -0.000007
vn -0.000001 -1.000000 -0.000008
vn 0.000008 -1.000000 -0.000020
vn -0.000001 -1.000000 -0.000008
vn -0.000003 -1.000000 -0.000007
vn -0.000003 -1.000000 -0.000007
vn 0.000009 -1.000000 -0.000019
vn 0.000008 -1.000000 -0.000020
vn 0.000017 -1.000000 -0.000014
vn 0.000008 -1.000000 -0.000020
vn 0.000009 -1.000000 -0.000019
vn 0.000009 -1.000000 -0.000019
vn 0.000017 -1.000000 -0.000014
vn 0.000017 -1.000000 -0.000014
vn 0.910327 -0.363038 0.198764
vn 0.928239 -0.369086 0.046348
vn 0.998748 -0.000000 0.050031
vn 0.998748 -0.000000 0.050031
vn 0.976667 -0.000000 0.214758
vn 0.910327 -0.363038 0.198764
vn 0.811365 -0.351928 0.466727
vn 0.910327 -0.363038 0.198764
vn 0.976667 -0.000000 0.214758
vn 0.976667 -0.000000 0.214758
vn 0.864521 -0.000000 0.502597
vn 0.811365 -0.351928 0.466727
vn 0.565441 -0.340208 0.751355
vn 0.811365 -0.351928 0.466727
vn 0.864521 -0.000000 0.502597
vn 0.864521 -0.000000 0.502597
vn 0.598728 -0.000000 0.800952
vn 0.565441 -0.340208 0.751355
vn 0.250445 -0.375866 0.892189
vn 0.565441 -0.340208 0.751355
vn 0.598728 -0.000000 0.800952
vn 0.598728 -0.000000 0.800952
vn 0.270019 -0.000000 0.962855
vn 0.250445 -0.375866 0.892189
vn 0.053368 -0.373169 0.926227
vn 0.250445 -0.375866 0.892189
vn 0.270019 -0.000000 0.962855
vn 0.270019 -0.000000 0.962855
vn 0.056661 -0.000000 0.998394
vn 0.053368 -0.373169 0.926227
vn -0.401440 -0.400540 0.823659
vn 0.053368 -0.373169 0.926227
vn 0.056661 -0.000000 0.998394
vn 0.056661 -0.000000 0.998394
vn -0.421613 0.000000 0.906776
vn -0.401440 -0.400540 0.823659
vn -0.673443 -0.459073 0.579418
vn -0.401440 -0.400540 0.823659
vn -0.421613 0.000000 0.906776
vn -0.421613 0.000000 0.906776
vn -0.764618 -0.000000 0.644484
vn -0.673443 -0.459073 0.579418
vn -0.421616 0.000000 0.906774
vn -0.421613 0.000000 0.906776
vn 0.066621 0.000000 0.997778
vn 0.066621 0.000000 0.997778
vn 0.066620 0.000000 0.997778
vn -0.421616 0.000000 0.906774
vn 0.998128 -0.000002 0.061161
vn 0.976665 -0.000001 0.214768
vn 0.976664 0.000000 0.214771
vn 0.976664 0.000000 0.214771
vn 0.998128 0.000000 0.061158
vn 0.998128 -0.000002 0.061161
vn 0.976665 -0.000001 0.214768
vn 0.869573 -0.000000 0.493805
vn 0.869571 -0.000000 0.493808
vn 0.869571 -0.000000 0.493808
vn 0.976664 0.000000 0.214771
vn 0.976665 -0.000001 0.214768
vn 0.869573 -0.000000 0.493805
vn 0.627410 -0.000000 0.778689
vn 0.627413 -0.000000 0.778687
vn 0.627413 -0.000000 0.778687
vn 0.869571 -0.000000 0.493808
vn 0.869573 -0.000000 0.493805
vn 0.627410 -0.000000 0.778689
vn 0.300668 0.000000 0.953729
vn 0.300670 0.000000 0.953728
vn 0.300670 0.000000 0.953728
vn 0.627413 -0.000000 0.778687
vn 0.627410 -0.000000 0.778689
vn 0.300668 0.000000 0.953729
vn 0.066620 0.000000 0.997778
vn 0.066621 0.000000 0.997778
vn 0.066621 0.000000 0.997778
vn 0.300670 0.000000 0.953728
vn 0.300668 0.000000 0.953729
vn -0.764613 -0.000002 0.644489
vn -0.421617 -0.000008 0.906774
vn -0.421602 -0.000010 0.906781
vn -0.421602 -0.000010 0.906781
vn -0.764610 -0.000006 0.644494
vn -0.764613 -0.000002 0.644489
vn -1.000000 -0.000000 0.000000
vn -1.000000 -0.000000 0.000000
vn -1.000000 -0.000000 0.000000
vn -1.000000 -0.000000 0.000000
vn -1.000000 -0.000000 0.000000
vn -1.000000 -0.000000 0.000000
vn 0.976665 -0.000001 0.214768
vn 0.998128 -0.000002 0.061161
vn 0.998947 -0.000004 0.045879
vn 0.998947 -0.000003 -0.045879
vn 0.998947 -0.000004 0.045879
vn 0.998128 -0.000002 0.061161
vn 0.998128 -0.000002 0.061161
vn 0.998128 -0.000001 -0.061162
vn 0.998947 -0.000003 -0.045879
vn 0.976664 0.000000 0.214771
vn 0.998947 -0.000000 0.045874
vn 0.998128 0.000000 0.061158
vn 0.928238 -0.369087 -0.046349
vn 0.928239 -0.369086 0.046348
vn 0.720622 -0.692373 0.036398
vn 0.720622 -0.692373 0.036398
vn 0.720621 -0.692373 -0.036397
vn 0.928238 -0.369087 -0.046349
vn 0.720622 -0.692373 0.036398
vn 0.928239 -0.369086 0.046348
vn 0.910327 -0.363038 0.198764
vn 0.910327 -0.363038 0.198764
vn 0.705584 -0.690728 0.158258
vn 0.720622 -0.692373 0.036398
vn 0.705584 -0.690728 0.158258
vn 0.910327 -0.363038 0.198764
vn 0.811365 -0.351928 0.466727
vn 0.811365 -0.351928 0.466727
vn 0.628146 -0.680380 0.377513
vn 0.705584 -0.690728 0.158258
vn 0.628146 -0.680380 0.377513
vn 0.811365 -0.351928 0.466727
vn 0.565441 -0.340208 0.751355
vn 0.565441 -0.340208 0.751355
vn 0.435418 -0.671071 0.600062
vn 0.628146 -0.680380 0.377513
vn 0.435418 -0.671071 0.600062
vn 0.565441 -0.340208 0.751355
vn 0.250445 -0.375866 0.892189
vn 0.250445 -0.375866 0.892189
vn 0.154253 -0.718915 0.677767
vn 0.435418 -0.671071 0.600062
vn 0.154253 -0.718915 0.677767
vn 0.250445 -0.375866 0.892189
vn 0.053368 -0.373169 0.926227
vn 0.053368 -0.373169 0.926227
vn 0.038871 -0.699552 0.713524
vn 0.154253 -0.718915 0.677767
vn 0.038871 -0.699552 0.713524
vn 0.053368 -0.373169 0.926227
vn -0.401440 -0.400540 0.823659
vn -0.401440 -0.400540 0.823659
vn -0.201956 -0.768437 0.607222
vn 0.038871 -0.699552 0.713524
vn -0.201956 -0.768437 0.607222
vn -0.401440 -0.400540 0.823659
vn -0.673443 -0.459073 0.579418
vn -0.673443 -0.459073 0.579418
vn -0.451902 -0.785285 0.423216
vn -0.201956 -0.768437 0.607222
vn 0.998128 0.000000 -0.061158
vn 0.998128 0.000000 0.061158
vn 0.998947 -0.000000 0.045874
vn 0.998947 -0.000000 0.045874
vn 0.998947 0.000000 -0.045874
vn 0.998128 0.000000 -0.061158
vn 0.000000 -1.000000 -0.000000
vn 0.000000 -1.000000 -0.000000
vn 0.000000 -1.000000 -0.000000
vn 0.000000 -1.000000 -0.000000
vn -0.000000 -1.000000 -0.000000
vn 0.000000 -1.000000 -0.000000
vn -0.967075 -0.254493 0.000000
vn -0.766046 -0.642786 0.000000
vn -0.766045 -0.642787 0.000000
vn -0.766045 -0.642787 0.000000
vn -0.967074 -0.254494 0.000000
vn -0.967075 -0.254493 0.000000
vn 0.000000 1.000000 0.000000
vn 0.000000 1.000000 0.000000
vn 0.000000 1.000000 0.000000
vn 0.000000 1.000000 0.000000
vn 0.000000 1.000000 0.000000
vn 0.000000 1.000000 0.000000
vn 0.000000 1.000000 0.000000
vn 0.000000 1.000000 0.000000
vn 0.000000 1.000000 0.000000
vn 0.000000 1.000000 0.000000
vn 0.000000 1.000000 0.000000
vn 0.000000 1.000000 0.000000
vn 0.000000 1.000000 0.000000
vn 0.000000 1.000000 0.000000
vn 0.000000 1.000000 0.000000
vn 0.000000 1.000000 0.000000
vn 0.000000 1.000000 0.000000
vn 0.000000 1.000000 0.000000
vn 0.000000 1.000000 0.000000
vn 0.000000 1.000000 0.000000
vn 0.000000 1.000000 0.000000
vn 0.000000 1.000000 0.000000
vn 0.000000 1.000000 0.000000
vn 0.000000 1.000000 0.000000
vn 0.000000 1.000000 0.000000
vn 0.000000 1.000000 0.000000
vn 0.000000 1.000000 0.000000
vn 0.000000 1.000000 0.000000
vn 0.000000 1.000000 0.000000
vn 0.000000 1.000000 0.000000
vn 0.000000 1.000000 0.000000
vn 0.000000 1.000000 -0.000000
vn 0.000000 1.000000 -0.000000
vn 0.000000 1.000000 -0.000000
vn 0.000000 1.000000 0.000000
vn 0.000000 1.000000 0.000000
vn -0.000003 1.000000 -0.000003
vn -0.000005 1.000000 -0.000004
vn 0.000000 1.000000 -0.000000
vn 0.000000 1.000000 -0.000000
vn 0.000000 1.000000 -0.000000
vn -0.000003 1.000000 -0.000003
vn -0.000003 1.000000 -0.000003
vn -0.000008 1.000000 -0.000007
vn -0.000008 1.000000 -0.000007
vn -0.000008 1.000000 -0.000007
vn -0.000005 1.000000 -0.000004
vn -0.000003 1.000000 -0.000003
vn 0.066620 0.000000 -0.997778
vn 0.066620 0.000000 -0.997778
vn -0.421616 0.000005 -0.906775
vn -0.421616 0.000005 -0.906775
vn -0.421602 0.000002 -0.906781
vn 0.066620 0.000000 -0.997778
vn 0.998947 -0.000005 -0.045876
vn 0.976664 -0.000015 -0.214772
vn 0.976664 -0.000016 -0.214774
vn 0.976664 -0.000016 -0.214774
vn 0.998947 -0.000003 -0.045876
vn 0.998947 -0.000005 -0.045876
vn 0.976664 -0.000015 -0.214772
vn 0.869573 -0.000007 -0.493804
vn 0.869571 -0.000009 -0.493807
vn 0.869571 -0.000009 -0.493807
vn 0.976664 -0.000016 -0.214774
vn 0.976664 -0.000015 -0.214772
vn 0.869573 -0.000007 -0.493804
vn 0.627414 -0.000009 -0.778686
vn 0.627411 -0.000011 -0.778688
vn 0.627411 -0.000011 -0.778688
vn 0.869571 -0.000009 -0.493807
vn 0.869573 -0.000007 -0.493804
vn 0.627414 -0.000009 -0.778686
vn 0.300674 0.000000 -0.953727
vn 0.300673 -0.000002 -0.953727
vn 0.300673 -0.000002 -0.953727
vn 0.627411 -0.000011 -0.778688
vn 0.627414 -0.000009 -0.778686
vn 0.300674 0.000000 -0.953727
vn 0.066620 0.000000 -0.997778
vn 0.066620 0.000000 -0.997778
vn 0.066620 0.000000 -0.997778
vn 0.300673 -0.000002 -0.953727
vn 0.300674 0.000000 -0.953727
vn 0.000000 1.000000 0.000000
vn 0.000000 1.000000 0.000000
vn 0.000000 1.000000 0.000000
vn 0.000000 1.000000 -0.000000
vn 0.000000 1.000000 0.000000
vn 0.000000 1.000000 0.000000
vn 0.000000 1.000000 0.000000
vn 0.000000 1.000000 0.000000
vn 0.000000 1.000000 -0.000000
vn 0.000000 1.000000 -0.000000
vn 0.000000 1.000000 0.000000
vn 0.000000 1.000000 -0.000000
vn 0.000000 1.000000 -0.000000
vn 0.000001 1.000000 -0.000006
vn 0.000001 1.000000 0.000027
vn 0.000000 1.000000 -0.000000
vn 0.000001 1.000000 0.000027
vn 0.000000 1.000000 0.000010
vn 0.000000 1.000000 -0.000000
vn 0.000000 1.000000 -0.000000
vn 0.000000 1.000000 0.000010
vn 0.000000 1.000000 0.000000
vn 0.000000 1.000000 -0.000000
vn 0.000000 1.000000 0.000010
vn 0.000000 1.000000 0.000010
vn -0.000031 1.000000 0.000000
vn -0.000009 1.000000 -0.000000
vn -0.000009 1.000000 -0.000000
vn 0.000001 1.000000 0.000006
vn 0.000000 1.000000 0.000000
vn 0.000000 1.000000 0.000010
vn -0.000009 1.000000 -0.000000
vn 0.000000 1.000000 0.000000
vn 0.000000 1.000000 0.000000
vn 0.000000 1.000000 0.000010
vn 0.000000 1.000000 0.000000
vn 0.000000 1.000000 0.000000
vn 0.000000 1.000000 0.000000
vn 0.000000 1.000000 0.000000
vn 0.000000 1.000000 0.000000
vn 0.000000 1.000000 0.000000
vn 0.000000 1.000000 0.000000
vn -0.764630 0.000000 -0.644469
vn -0.764627 0.000000 -0.644473
vn -0.421620 0.000000 -0.906773
vn -0.421620 0.000000 -0.906773
vn -0.421622 0.000000 -0.906772
vn -0.764630 0.000000 -0.644469
vn -0.000028 -1.000000 0.000006
vn -0.000028 -1.000000 0.000006
vn -0.000030 -1.000000 0.000002
vn -0.000030 -1.000000 0.000002
vn -0.000030 -1.000000 0.000001
vn -0.000028 -1.000000 0.000006
vn -0.000026 -1.000000 0.000011
vn -0.000027 -1.000000 0.000013
vn -0.000028 -1.000000 0.000006
vn -0.000028 -1.000000 0.000006
vn -0.000028 -1.000000 0.000006
vn -0.000026 -1.000000 0.000011
vn -0.000019 -1.000000 0.000034
vn -0.000020 -1.000000 0.000031
vn -0.000027 -1.000000 0.000013
vn -0.000027 -1.000000 0.000013
vn -0.000026 -1.000000 0.000011
vn -0.000019 -1.000000 0.000034
vn -0.000004 -1.000000 0.000018
vn -0.000005 -1.000000 0.000014
vn -0.000020 -1.000000 0.000031
vn -0.000020 -1.000000 0.000031
vn -0.000019 -1.000000 0.000034
vn -0.000004 -1.000000 0.000018
vn -0.000001 -1.000000 0.000016
vn -0.000002 -1.000000 0.000016
vn -0.000005 -1.000000 0.000014
vn -0.000005 -1.000000 0.000014
vn -0.000004 -1.000000 0.000018
vn -0.000001 -1.000000 0.000016
vn 0.000008 -1.000000 0.000020
vn 0.000009 -1.000000 0.000019
vn -0.000002 -1.000000 0.000016
vn -0.000002 -1.000000 0.000016
vn -0.000001 -1.000000 0.000016
vn 0.000008 -1.000000 0.000020
vn 0.000017 -1.000000 0.000014
vn 0.000017 -1.000000 0.000014
vn 0.000009 -1.000000 0.000019
vn 0.000009 -1.000000 0.000019
vn 0.000008 -1.000000 0.000020
vn 0.000017 -1.000000 0.000014
vn 0.910327 -0.363039 -0.198764
vn 0.976668 0.000000 -0.214757
vn 0.998748 -0.000000 -0.050031
vn 0.998748 -0.000000 -0.050031
vn 0.928238 -0.369087 -0.046349
vn 0.910327 -0.363039 -0.198764
vn 0.811362 -0.351932 -0.466728
vn 0.864521 0.000000 -0.502596
vn 0.976668 0.000000 -0.214757
vn 0.976668 0.000000 -0.214757
vn 0.910327 -0.363039 -0.198764
vn 0.811362 -0.351932 -0.466728
vn 0.565440 -0.340209 -0.751356
vn 0.598728 0.000000 -0.800952
vn 0.864521 0.000000 -0.502596
vn 0.864521 0.000000 -0.502596
vn 0.811362 -0.351932 -0.466728
vn 0.565440 -0.340209 -0.751356
vn 0.250443 -0.375866 -0.892190
vn 0.270017 0.000000 -0.962856
vn 0.598728 0.000000 -0.800952
vn 0.598728 0.000000 -0.800952
vn 0.565440 -0.340209 -0.751356
vn 0.250443 -0.375866 -0.892190
vn 0.053367 -0.373160 -0.926231
vn 0.056658 0.000000 -0.998394
vn 0.270017 0.000000 -0.962856
vn 0.270017 0.000000 -0.962856
vn 0.250443 -0.375866 -0.892190
vn 0.053367 -0.373160 -0.926231
vn -0.401442 -0.400536 -0.823660
vn -0.421614 0.000000 -0.906776
vn 0.056658 0.000000 -0.998394
vn 0.056658 0.000000 -0.998394
vn 0.053367 -0.373160 -0.926231
vn -0.401442 -0.400536 -0.823660
vn -0.673446 -0.459071 -0.579417
vn -0.764618 0.000000 -0.644484
vn -0.421614 0.000000 -0.906776
vn -0.421614 0.000000 -0.906776
vn -0.401442 -0.400536 -0.823660
vn -0.673446 -0.459071 -0.579417
vn -0.000030 -1.000000 0.000001
vn -0.000030 -1.000000 0.000002
vn -0.000030 -1.000000 -0.000002
vn -0.000030 -1.000000 -0.000002
vn -0.000030 -1.000000 -0.000001
vn -0.000030 -1.000000 0.000001
vn -0.421620 0.000000 -0.906773
vn 0.066619 -0.000000 -0.997779
vn 0.066619 0.000000 -0.997779
vn 0.066619 0.000000 -0.997779
vn -0.421622 0.000000 -0.906772
vn -0.421620 0.000000 -0.906773
vn 0.998128 -0.000001 -0.061162
vn 0.998128 0.000000 -0.061158
vn 0.976664 0.000000 -0.214771
vn 0.976664 0.000000 -0.214771
vn 0.976665 -0.000001 -0.214767
vn 0.998128 -0.000001 -0.061162
vn 0.976665 -0.000001 -0.214767
vn 0.976664 0.000000 -0.214771
vn 0.869571 -0.000000 -0.493807
vn 0.869571 -0.000000 -0.493807
vn 0.869573 -0.000000 -0.493804
vn 0.976665 -0.000001 -0.214767
vn 0.869573 -0.000000 -0.493804
vn 0.869571 -0.000000 -0.493807
vn 0.627414 -0.000000 -0.778686
vn 0.627414 -0.000000 -0.778686
vn 0.627409 -0.000000 -0.778690
vn 0.869573 -0.000000 -0.493804
vn 0.627409 -0.000000 -0.778690
vn 0.627414 -0.000000 -0.778686
vn 0.300668 -0.000000 -0.953729
vn 0.300668 -0.000000 -0.953729
vn 0.300667 -0.000000 -0.953729
vn 0.627409 -0.000000 -0.778690
vn 0.300667 -0.000000 -0.953729
vn 0.300668 -0.000000 -0.953729
vn 0.066619 0.000000 -0.997779
vn 0.066619 0.000000 -0.997779
vn 0.066619 -0.000000 -0.997779
vn 0.300667 -0.000000 -0.953729
vn -0.764612 0.000006 -0.644491
vn -0.764605 0.000000 -0.644499
vn -0.421602 0.000002 -0.906781
vn -0.421602 0.000002 -0.906781
vn -0.421616 0.000005 -0.906775
vn -0.764612 0.000006 -0.644491
vn 0.976665 -0.000001 -0.214767
vn 0.998947 -0.000003 -0.045879
vn 0.998128 -0.000001 -0.061162
vn 0.998947 -0.000005 -0.045876
vn 0.998947 -0.000003 -0.045876
vn 0.998947 -0.000004 0.045876
vn 0.998947 -0.000004 0.045876
vn 0.998947 -0.000005 0.045876
vn 0.998947 -0.000005 -0.045876
vn -1.000000 0.000000 0.000000
vn -1.000000 0.000000 0.000000
vn -1.000000 0.000000 0.000000
vn -1.000000 0.000000 0.000000
vn -1.000000 0.000000 0.000000
vn -1.000000 0.000000 0.000000
vn -0.000000 -1.000000 -0.000023
vn -0.000000 -1.000000 0.000000
vn -0.000000 -1.000000 0.000000
vn -0.000000 -1.000000 0.000000
vn -0.000000 -1.000000 -0.000000
vn -0.000000 -1.000000 0.000023
vn -0.000000 -1.000000 0.000023
vn -0.000005 -1.000000 0.000040
vn -0.000002 -1.000000 0.000004
vn -0.000000 -1.000000 0.000000
vn -0.000000 -1.000000 0.000023
vn -0.000002 -1.000000 0.000004
vn -0.000002 -1.000000 0.000004
vn -0.000010 -1.000000 0.000003
vn -0.000004 -1.000000 0.000000
vn -0.000004 -1.000000 0.000000
vn 0.000000 -1.000000 -0.000000
vn -0.000000 -1.000000 0.000000
vn -0.000002 -1.000000 0.000004
vn -0.000004 -1.000000 0.000000
vn -0.000000 -1.000000 0.000000
vn -0.000000 -1.000000 0.000000
vn -0.000002 -1.000000 0.000004
vn -0.000000 -1.000000 0.000000
vn -0.000000 -1.000000 0.000000
vn -0.000000 -1.000000 0.000000
vn -0.000000 -1.000000 0.000000
vn -0.000005 -1.000000 -0.000001
vn -0.000010 -1.000000 -0.000003
vn -0.000001 -1.000000 -0.000003
vn -0.000000 -1.000000 0.000000
vn -0.000005 -1.000000 -0.000001
vn -0.000001 -1.000000 -0.000003
vn -0.000000 -1.000000 0.000000
vn -0.000000 -1.000000 0.000000
vn -0.000001 -1.000000 -0.000003
vn -0.000000 -1.000000 -0.000023
vn -0.000000 -1.000000 0.000000
vn -0.000001 -1.000000 -0.000003
vn -0.000000 -1.000000 -0.000023
vn -0.000001 -1.000000 -0.000003
vn -0.000005 -1.000000 -0.000040
vn 0.000000 -0.000000 1.000000
vn 0.000000 -0.000000 1.000000
vn 0.000000 -0.000000 1.000000
vn 0.000000 -0.000000 1.000000
vn 0.000000 -0.000000 1.000000
vn 0.000000 -0.000000 1.000000
vn 0.976664 0.000000 -0.214771
vn 0.998128 0.000000 -0.061158
vn 0.998947 0.000000 -0.045874
vn 0.720621 -0.692373 -0.036397
vn 0.705584 -0.690729 -0.158257
vn 0.910327 -0.363039 -0.198764
vn 0.910327 -0.363039 -0.198764
vn 0.928238 -0.369087 -0.046349
vn 0.720621 -0.692373 -0.036397
vn 0.705584 -0.690729 -0.158257
vn 0.628141 -0.680386 -0.377511
vn 0.811362 -0.351932 -0.466728
vn 0.811362 -0.351932 -0.466728
vn 0.910327 -0.363039 -0.198764
vn 0.705584 -0.690729 -0.158257
vn 0.628141 -0.680386 -0.377511
vn 0.435420 -0.671073 -0.600059
vn 0.565440 -0.340209 -0.751356
vn 0.565440 -0.340209 -0.751356
vn 0.811362 -0.351932 -0.466728
vn 0.628141 -0.680386 -0.377511
vn 0.435420 -0.671073 -0.600059
vn 0.154254 -0.718913 -0.677768
vn 0.250443 -0.375866 -0.892190
vn 0.250443 -0.375866 -0.892190
vn 0.565440 -0.340209 -0.751356
vn 0.435420 -0.671073 -0.600059
vn 0.154254 -0.718913 -0.677768
vn 0.038873 -0.699536 -0.713539
vn 0.053367 -0.373160 -0.926231
vn 0.053367 -0.373160 -0.926231
vn 0.250443 -0.375866 -0.892190
vn 0.154254 -0.718913 -0.677768
vn 0.038873 -0.699536 -0.713539
vn -0.201959 -0.768430 -0.607231
vn -0.401442 -0.400536 -0.823660
vn -0.401442 -0.400536 -0.823660
vn 0.053367 -0.373160 -0.926231
vn 0.038873 -0.699536 -0.713539
vn -0.201959 -0.768430 -0.607231
vn -0.451909 -0.785285 -0.423209
vn -0.673446 -0.459071 -0.579417
vn -0.673446 -0.459071 -0.579417
vn -0.401442 -0.400536 -0.823660
vn -0.201959 -0.768430 -0.607231
vn 0.000034 -1.000000 -0.000000
vn 0.000034 -1.000000 -0.000000
vn 0.000034 -1.000000 -0.000000
vn 0.000034 -1.000000 -0.000000
vn 0.000034 -1.000000 -0.000000
vn 0.000034 -1.000000 -0.000000
vn -0.967075 -0.254493 0.000000
vn -0.967074 -0.254494 0.000000
vn -1.000000 -0.000000 0.000000
vn -1.000000 -0.000000 0.000000
vn -1.000000 -0.000000 0.000000
vn -0.967075 -0.254493 0.000000
vn 0.928238 -0.369087 -0.046349
vn 0.998748 -0.000000 -0.050031
vn 0.998748 -0.000000 0.050031
vn 0.998748 -0.000000 0.050031
vn 0.928239 -0.369086 0.046348
vn 0.928238 -0.369087 -0.046349
vn 0.000000 1.000000 0.000000
vn 0.000000 1.000000 0.000000
vn 0.000000 1.000000 0.000000
vn 0.000000 1.000000 0.000000
vn 0.000000 1.000000 0.000000
vn 0.000000 1.000000 0.000000
vn 0.000000 1.000000 0.000000
vn 0.000000 1.000000 0.000000
vn 0.000000 1.000000 0.000000
vn 0.000000 1.000000 0.000000
vn 0.000000 1.000000 0.000000
vn 0.000000 1.000000 0.000000
vn 0.000000 1.000000 0.000000
vn 0.000000 1.000000 0.000000
vn 0.000000 1.000000 0.000000
vn 0.000000 1.000000 0.000000
vn 0.000000 1.000000 0.000000
vn 0.000000 1.000000 0.000000
vn 0.000000 1.000000 0.000000
vn 0.000000 1.000000 0.000000
vn 0.000000 1.000000 0.000000
vn 0.000000 1.000000 0.000000
vn 0.000000 1.000000 0.000000
vn 0.000000 1.000000 0.000000
vn 0.000000 1.000000 0.000000
vn 0.000000 1.000000 0.000000
vn 0.000000 1.000000 0.000000
vn 0.000000 1.000000 0.000000
vn 0.000000 1.000000 0.000000
vn 0.000000 1.000000 0.000000
vn -0.000003 1.000000 0.000003
vn 0.000000 1.000000 0.000000
vn 0.000000 1.000000 0.000000
vn 0.000000 1.000000 0.000000
vn -0.000005 1.000000 0.000004
vn -0.000003 1.000000 0.000003
vn -0.000003 1.000000 0.000003
vn -0.000005 1.000000 0.000004
vn -0.000008 1.000000 0.000007
vn -0.000008 1.000000 0.000007
vn -0.000008 1.000000 0.000007
vn -0.000003 1.000000 0.000003
vn 0.000000 1.000000 0.000000
vn 0.000000 1.000000 0.000000
vn 0.000000 1.000000 0.000000
vn 0.000000 1.000000 0.000000
vn 0.000000 1.000000 0.000000
vn 0.000000 1.000000 0.000000
vn 1.000000 -0.000000 -0.000000
vn 1.000000 -0.000000 -0.000000
vn 1.000000 -0.000000 -0.000000
vn 1.000000 -0.000000 -0.000000
vn 1.000000 -0.000000 -0.000000
vn 1.000000 -0.000000 -0.000000
vn 0.000000 1.000000 0.000000
vn 0.000000 1.000000 0.000000
vn 0.000000 1.000000 0.000000
vn 0.000000 1.000000 0.000000
vn 0.000000 1.000000 -0.000000
vn 0.000000 1.000000 0.000000
s off
g SM_Dresser_02a
f 1/1/1 2/2/2 3/3/3
f 3/3/4 4/4/5 1/1/6
f 6/16/7 5/8/8 44/12/9
f 44/12/10 38/13/11 6/16/12
f 37/18/13 7/20/14 11/9/15
f 11/9/16 39/15/17 37/18/18
f 39/15/19 11/9/20 10/22/21
f 10/22/22 40/56/23 39/15/24
f 40/56/25 10/22/26 9/57/27
f 9/57/28 41/58/29 40/56/30
f 41/58/31 9/57/32 8/59/33
f 8/59/34 42/61/35 41/58/36
f 42/61/37 8/59/38 6/16/39
f 6/16/40 38/13/41 42/61/42
f 13/87/43 20/83/44 46/26/45
f 46/26/46 45/86/47 13/87/48
f 23/30/49 22/31/50 14/27/51
f 14/27/52 16/28/53 23/30/54
f 24/33/55 23/30/56 16/28/57
f 16/28/58 17/32/59 24/33/60
f 25/35/61 24/33/62 17/32/63
f 17/32/64 18/34/65 25/35/66
f 26/112/67 25/35/68 18/34/69
f 18/34/70 19/36/71 26/112/72
f 27/114/73 26/112/74 19/36/75
f 19/36/76 15/113/77 27/114/78
f 28/118/79 27/114/80 15/113/81
f 15/113/82 20/115/83 28/118/84
f 21/122/85 28/118/86 20/115/87
f 20/115/88 13/120/89 21/122/90
f 31/39/91 30/51/92 22/37/93
f 22/37/94 23/38/95 31/39/96
f 32/72/97 31/39/98 23/38/99
f 23/38/100 24/117/101 32/72/102
f 33/47/103 32/72/104 24/117/105
f 24/117/106 25/177/107 33/47/108
f 34/74/109 33/47/110 25/177/111
f 25/177/112 26/180/113 34/74/114
f 35/182/115 34/74/116 26/180/117
f 26/180/118 27/181/119 35/182/120
f 36/133/121 35/182/122 27/181/123
f 27/181/124 28/183/125 36/133/126
f 29/77/127 36/133/128 28/183/129
f 28/183/130 21/210/131 29/77/132
f 46/26/133 20/83/134 15/81/135
f 15/81/136 48/82/137 46/26/138
f 4/63/139 49/64/140 16/29/141
f 16/29/142 1/62/143 4/63/144
f 49/64/145 50/66/146 17/65/147
f 17/65/148 16/29/149 49/64/150
f 50/66/151 51/68/152 18/67/153
f 18/67/154 17/65/155 50/66/156
f 51/68/157 52/208/158 19/84/159
f 19/84/160 18/67/161 51/68/162
f 52/208/163 48/82/164 15/81/165
f 15/81/166 19/84/167 52/208/168
f 43/60/169 44/12/170 5/8/171
f 5/8/172 12/25/173 43/60/174
f 75/88/175 109/89/176 43/174/177
f 43/174/178 12/173/179 75/88/180
f 49/64/181 4/63/182 47/78/183
f 110/80/184 47/78/185 4/63/186
f 4/63/187 104/79/188 110/80/189
f 16/29/190 14/136/191 1/62/192
f 95/46/193 30/51/194 54/44/195
f 54/44/196 111/45/197 95/46/198
f 54/44/199 30/51/200 31/39/201
f 31/39/202 55/71/203 54/44/204
f 55/71/205 31/39/206 32/72/207
f 32/72/208 56/49/209 55/71/210
f 56/49/211 32/72/212 33/47/213
f 33/47/214 57/48/215 56/49/216
f 57/48/217 33/47/218 34/74/219
f 34/74/220 58/75/221 57/48/222
f 58/75/223 34/74/224 35/182/225
f 35/182/226 59/185/227 58/75/228
f 59/185/229 35/182/230 36/133/231
f 36/133/232 60/73/233 59/185/234
f 60/73/235 36/133/236 29/77/237
f 29/77/238 53/70/239 60/73/240
f 103/140/241 1/62/242 14/136/243
f 14/136/244 80/139/245 103/140/246
f 104/167/247 4/169/248 3/7/249
f 3/7/250 120/69/251 104/167/252
f 101/214/253 118/215/254 53/213/255
f 53/213/256 29/6/257 101/214/258
f 37/42/259 47/43/260 110/40/261
f 110/40/262 68/41/263 37/42/264
f 39/50/265 49/52/266 47/43/267
f 47/43/268 37/42/269 39/50/270
f 40/53/271 50/54/272 49/52/273
f 49/52/274 39/50/275 40/53/276
f 41/55/277 51/95/278 50/54/279
f 50/54/280 40/53/281 41/55/282
f 42/121/283 52/123/284 51/95/285
f 51/95/286 41/55/287 42/121/288
f 42/121/289 38/126/290 48/125/291
f 48/125/292 52/123/293 42/121/294
f 44/76/295 46/137/296 48/125/297
f 48/125/298 38/126/299 44/76/300
f 44/76/301 43/151/302 45/138/303
f 45/138/304 46/137/305 44/76/306
f 64/100/307 63/101/308 62/90/309
f 62/90/310 61/91/311 64/100/312
f 68/94/313 67/96/314 66/92/315
f 66/92/316 65/93/317 68/94/318
f 67/96/319 70/98/320 69/97/321
f 69/97/322 66/92/323 67/96/324
f 70/98/325 72/150/326 71/99/327
f 71/99/328 69/97/329 70/98/330
f 72/150/331 74/175/332 73/172/333
f 73/172/334 71/99/335 72/150/336
f 74/175/337 63/101/338 64/100/339
f 64/100/340 73/172/341 74/175/342
f 10/103/343 11/104/344 7/105/345
f 65/106/346 66/107/347 69/108/348
f 69/108/349 71/109/350 73/10/351
f 65/106/352 69/108/353 73/10/354
f 73/10/355 64/11/356 61/14/357
f 73/10/358 61/14/359 75/17/360
f 65/106/361 73/10/362 75/17/363
f 7/105/364 65/106/365 75/17/366
f 75/17/367 12/19/368 5/21/369
f 5/21/370 6/23/371 8/24/372
f 75/17/373 5/21/374 8/24/375
f 7/105/376 75/17/377 8/24/378
f 10/103/379 7/105/380 8/24/381
f 10/103/382 8/24/383 9/102/384
f 78/154/385 77/155/386 76/110/387
f 76/110/388 79/111/389 78/154/390
f 82/166/391 81/168/392 80/124/393
f 80/124/394 83/127/395 82/166/396
f 85/219/397 84/220/398 81/168/399
f 81/168/400 82/166/401 85/219/402
f 87/221/403 86/222/404 84/220/405
f 84/220/406 85/219/407 87/221/408
f 89/223/409 88/224/410 86/222/411
f 86/222/412 87/221/413 89/223/414
f 91/206/415 90/211/416 88/224/417
f 88/224/418 89/223/419 91/206/420
f 92/212/421 79/216/422 90/211/423
f 90/211/424 91/206/425 92/212/426
f 93/225/427 78/226/428 79/216/429
f 79/216/430 92/212/431 93/225/432
f 94/241/433 82/242/434 83/240/435
f 83/240/436 95/46/437 94/241/438
f 96/131/439 85/188/440 82/242/441
f 82/242/442 94/241/443 96/131/444
f 97/130/445 87/191/446 85/188/447
f 85/188/448 96/131/449 97/130/450
f 98/159/451 89/193/452 87/191/453
f 87/191/454 97/130/455 98/159/456
f 99/194/457 91/195/458 89/193/459
f 89/193/460 98/159/461 99/194/462
f 100/196/463 92/197/464 91/195/465
f 91/195/466 99/194/467 100/196/468
f 101/170/469 93/218/470 92/197/471
f 92/197/472 100/196/473 101/170/474
f 83/127/475 80/124/476 14/27/477
f 14/27/478 22/31/479 83/127/480
f 76/110/481 102/142/482 90/135/483
f 90/135/484 79/111/485 76/110/486
f 104/79/487 103/140/488 81/141/489
f 81/141/490 105/147/491 104/79/492
f 105/147/493 81/141/494 84/148/495
f 84/148/496 106/149/497 105/147/498
f 106/149/499 84/148/500 86/146/501
f 86/146/502 107/145/503 106/149/504
f 107/145/505 86/146/506 88/143/507
f 88/143/508 108/144/509 107/145/510
f 108/144/511 88/143/512 90/135/513
f 90/135/514 102/142/515 108/144/516
f 109/204/517 75/203/518 61/91/519
f 61/91/520 62/90/521 109/204/522
f 105/147/523 110/80/524 104/79/525
f 68/94/526 65/93/527 7/20/528
f 7/20/529 37/18/530 68/94/531
f 45/85/532 77/207/533 78/153/534
f 78/153/535 13/152/536 45/85/537
f 59/163/538 60/129/539 53/128/540
f 118/243/541 117/244/542 116/245/543
f 116/245/544 115/246/545 114/134/546
f 118/243/547 116/245/548 114/134/549
f 114/134/550 113/156/551 112/157/552
f 112/157/553 111/176/554 54/116/555
f 114/134/556 112/157/557 54/116/558
f 118/243/559 114/134/560 54/116/561
f 53/128/562 118/243/563 54/116/564
f 55/179/565 56/205/566 57/161/567
f 54/116/568 55/179/569 57/161/570
f 53/128/571 54/116/572 57/161/573
f 59/163/574 53/128/575 57/161/576
f 59/163/577 57/161/578 58/162/579
f 119/201/580 103/202/581 104/164/582
f 104/164/583 120/165/584 119/201/585
f 81/141/586 103/140/587 80/139/588
f 111/45/589 112/209/590 94/241/591
f 94/241/592 95/46/593 111/45/594
f 112/209/595 113/132/596 96/131/597
f 96/131/598 94/241/599 112/209/600
f 113/132/601 114/158/602 97/130/603
f 97/130/604 96/131/605 113/132/606
f 114/158/607 115/160/608 98/159/609
f 98/159/610 97/130/611 114/158/612
f 115/160/613 116/199/614 99/194/615
f 99/194/616 98/159/617 115/160/618
f 116/199/619 117/178/620 100/196/621
f 100/196/622 99/194/623 116/199/624
f 117/178/625 118/119/626 101/170/627
f 101/170/628 100/196/629 117/178/630
f 93/217/631 21/229/632 13/228/633
f 13/228/634 78/227/635 93/217/636
f 101/214/637 29/6/638 21/5/639
f 21/5/640 93/171/641 101/214/642
f 95/46/643 83/240/644 22/37/645
f 22/37/646 30/51/647 95/46/648
f 67/231/649 68/41/650 110/40/651
f 110/40/652 105/230/653 67/231/654
f 70/233/655 67/231/656 105/230/657
f 105/230/658 106/232/659 70/233/660
f 72/235/661 70/233/662 106/232/663
f 106/232/664 107/234/665 72/235/666
f 74/237/667 72/235/668 107/234/669
f 107/234/670 108/236/671 74/237/672
f 74/237/673 108/236/674 102/190/675
f 102/190/676 63/192/677 74/237/678
f 62/200/679 63/192/680 102/190/681
f 102/190/682 76/198/683 62/200/684
f 62/200/685 76/198/686 77/238/687
f 77/238/688 109/239/689 62/200/690
f 45/184/691 43/186/692 109/189/693
f 109/189/694 77/187/695 45/184/696
f 2/247/697 119/248/698 120/249/699
f 120/249/700 3/250/701 2/247/702
f 1/251/703 103/252/704 119/253/705
f 119/253/706 2/254/707 1/251/708
