# This file uses feet as units for non-parametric coordinates.

g default
v -56.084297 -10.515144 41.827866
v -56.084297 -10.515129 -41.827866
v -0.790359 -10.515129 -41.827866
v -0.790356 -10.515144 41.827866
v -0.116650 -2.037025 -5.315402
v -0.116650 -2.037025 5.315386
v 0.902399 -2.037025 4.910776
v 1.766306 -2.037025 3.758546
v 2.343552 -2.037025 2.034104
v 2.546253 -2.037025 -0.000010
v 2.343552 -2.037025 -2.034120
v 1.766306 -2.037025 -3.758562
v 0.902399 -2.037025 -4.910792
v -0.116648 2.037037 -5.315402
v -0.116650 2.037037 5.315386
v 0.902399 2.037037 4.910776
v 1.766306 2.037037 3.758546
v 2.343552 2.037037 2.034104
v 2.546253 2.037037 -0.000010
v 2.343552 2.037037 -2.034120
v 1.766306 2.037037 -3.758562
v 0.902399 2.037037 -4.910792
v -0.116648 0.000000 -4.415483
v -0.116650 0.000000 4.415472
v 0.902399 0.000000 4.079364
v 1.766306 0.000000 3.122211
v 2.343552 0.000000 1.689723
v 2.546253 0.000000 -0.000006
v 2.343552 0.000000 -1.689736
v 1.766306 0.000000 -3.122222
v 0.902399 0.000000 -4.079375
v 0.719664 -0.448700 -5.784522
v 0.719664 -0.448700 5.784511
v 1.731613 -0.448700 4.813508
v 2.588940 -0.448700 3.327637
v 3.050987 -0.448700 1.652109
v 3.213676 -0.448700 -0.000006
v 3.050987 -0.448700 -1.652121
v 2.588940 -0.448700 -3.327649
v 1.731613 -0.448700 -4.813519
v 0.719664 0.478886 -5.784522
v 0.719664 0.478886 5.784511
v 1.731613 0.478886 4.813508
v 2.588940 0.478886 3.327637
v 3.050987 0.478886 1.652109
v 3.213676 0.478886 -0.000006
v 3.050987 0.478886 -1.652121
v 2.588940 0.478886 -3.327649
v 1.731613 0.478886 -4.813519
v -0.123644 -0.448700 -6.193022
v -0.123644 -0.448700 6.193011
v -0.123644 0.478886 -6.193022
v -0.123644 0.478886 6.193011
v -0.695498 9.019512 -41.661613
v -57.382118 9.019512 -41.661629
v -0.695492 -10.902489 -43.060425
v -0.695494 9.019505 -43.060417
v -57.382118 9.019508 -43.060417
v -57.382118 -10.902473 -43.060425
v -57.382118 -10.902496 -41.661613
v -0.695496 -10.902473 -41.661613
v -0.695494 9.019512 43.060432
v -57.382118 9.019512 43.060417
v -0.695488 -10.902489 41.661598
v -0.695490 9.019505 41.661629
v -57.382118 9.019508 41.661621
v -57.382118 -10.902473 41.661598
v -57.382118 -10.902496 43.060417
v -0.695492 -10.902473 43.060417
v -1.072989 9.451603 44.255157
v -1.072981 -11.334610 44.255165
v -1.072989 9.451603 -44.255180
v -1.072989 -11.334633 -44.255180
v 0.000000 9.451611 44.255157
v 0.000000 -11.334610 44.255157
v -0.000004 -11.334625 -44.255180
v -0.000004 9.451611 -44.255180
v -0.790358 -10.061760 41.827858
v -0.790361 -10.061760 -41.827873
v -56.084297 -10.061760 41.827858
v -56.084297 -10.061760 -41.827873
v -55.933571 8.821533 42.239403
v -55.933571 -10.713776 42.239410
v -55.933571 -10.713783 -42.239418
v -55.933556 8.821533 -42.239410
v -57.148743 8.821522 -42.239426
v -57.148750 8.821522 42.239418
v -57.148743 -10.713737 42.239418
v -57.148750 -10.713737 -42.239426
vt 0.694569 1.897312
vt 0.694569 1.829686
vt 0.746022 1.829686
vt 0.746022 1.897312
vt 0.956461 1.922036
vt 0.940452 1.925231
vt 0.940452 1.917591
vt 0.956461 1.914617
vt 0.956461 1.931264
vt 0.940452 1.934240
vt 0.956461 1.942560
vt 0.940452 1.944373
vt 0.956461 1.955095
vt 0.940452 1.955123
vt 0.956461 1.967622
vt 0.940452 1.965878
vt 0.956461 1.978898
vt 0.940452 1.975997
vt 0.956461 1.988128
vt 0.940452 1.984967
vt 0.956461 1.995565
vt 0.940452 1.992595
vt 0.924443 1.922036
vt 0.924443 1.914617
vt 0.924443 1.931264
vt 0.924443 1.942560
vt 0.924443 1.955095
vt 0.924443 1.967622
vt 0.924443 1.978898
vt 0.924443 1.988128
vt 0.924443 1.995565
vt 0.960687 1.995377
vt 0.960687 1.927442
vt 0.968183 1.930028
vt 0.968183 1.992792
vt 0.978784 1.974409
vt 0.974539 1.985429
vt 0.974539 1.937391
vt 0.978784 1.948411
vt 0.980276 1.961410
vt 0.968640 1.926026
vt 0.968640 1.863262
vt 0.976137 1.860676
vt 0.976137 1.928612
vt 0.958040 1.907643
vt 0.956548 1.894644
vt 0.958040 1.881645
vt 0.962286 1.870625
vt 0.962285 1.918663
vt 0.931701 1.903832
vt 0.931701 1.824680
vt 0.937905 1.827291
vt 0.945348 1.833496
vt 0.951655 1.842991
vt 0.955054 1.853698
vt 0.956251 1.864256
vt 0.955054 1.874814
vt 0.951655 1.885521
vt 0.945348 1.895016
vt 0.937905 1.901221
vt 0.953239 1.825429
vt 0.952042 1.814871
vt 0.953239 1.804314
vt 0.956638 1.793606
vt 0.962945 1.784111
vt 0.970389 1.777906
vt 0.976592 1.775295
vt 0.976592 1.854447
vt 0.970389 1.851837
vt 0.962945 1.845632
vt 0.956638 1.836136
vt 0.953152 1.656411
vt 0.953152 1.648749
vt 0.958899 1.648749
vt 0.958899 1.656411
vt 0.953152 1.642365
vt 0.958899 1.642365
vt 0.953152 1.727388
vt 0.953152 1.719727
vt 0.958899 1.719727
vt 0.958899 1.727388
vt 0.958899 1.733773
vt 0.953152 1.733773
vt 0.953152 1.709955
vt 0.958899 1.709955
vt 0.953152 1.698935
vt 0.958899 1.698935
vt 0.953152 1.688069
vt 0.958899 1.688069
vt 0.953152 1.677203
vt 0.958899 1.677203
vt 0.953152 1.666183
vt 0.958899 1.666183
vt 0.959422 1.004898
vt 0.959422 1.272197
vt 0.953692 1.272197
vt 0.953692 1.004898
vt 0.428494 1.918233
vt 0.428494 1.834366
vt 0.688596 1.834366
vt 0.688596 1.918234
vt 0.953692 1.272197
vt 0.953692 1.004898
vt 0.959422 1.004898
vt 0.959422 1.272197
vt 0.688596 1.834366
vt 0.688596 1.918234
vt 0.428494 1.918233
vt 0.428494 1.834366
vt 0.959422 1.004898
vt 0.959422 1.272197
vt 0.953692 1.272197
vt 0.953692 1.004898
vt 0.428494 1.918233
vt 0.428494 1.834366
vt 0.688596 1.834366
vt 0.688596 1.918234
vt 0.953692 1.272197
vt 0.953692 1.004898
vt 0.959422 1.004898
vt 0.959422 1.272197
vt 0.688596 1.834366
vt 0.688596 1.918234
vt 0.428494 1.918233
vt 0.428494 1.834366
vt 0.991204 1.996499
vt 0.991204 1.920122
vt 0.996128 1.920122
vt 0.996128 1.996499
vt 0.942809 1.826333
vt 0.942809 1.463757
vt 0.947869 1.463757
vt 0.947869 1.826333
vt 0.649339 1.094226
vt 0.307275 1.094226
vt 0.307275 1.013895
vt 0.649338 1.013895
vt 0.947869 1.463757
vt 0.947869 1.826333
vt 0.942809 1.826333
vt 0.942809 1.463757
vt 0.996128 1.920122
vt 0.996128 1.996499
vt 0.991204 1.996499
vt 0.991204 1.920122
vt 0.649339 0.178418
vt 0.307275 0.178418
vt 0.307275 0.098086
vt 0.649339 0.098086
vt 0.746022 1.829686
vt 0.746022 1.897312
vt 0.694569 1.897312
vt 0.694569 1.829686
vt 0.969622 1.004696
vt 0.969622 1.350757
vt 0.963892 1.350758
vt 0.963892 1.004696
vt 0.428380 1.737073
vt 0.765117 1.737073
vt 0.765117 1.819312
vt 0.428380 1.819312
vt 0.963892 1.350758
vt 0.963892 1.004696
vt 0.969622 1.004696
vt 0.969622 1.350757
vn -0.000000 -1.000000 -0.000000
vn -0.000000 -1.000000 -0.000000
vn -0.000000 -1.000000 -0.000000
vn -0.000000 -1.000000 -0.000000
vn -0.000000 -1.000000 -0.000000
vn -0.000000 -1.000000 -0.000000
vn 0.329148 0.000001 0.944279
vn 0.341368 0.379827 0.859767
vn 0.538930 0.328989 0.775449
vn 0.538930 0.328989 0.775449
vn 0.592731 0.000001 0.805400
vn 0.329148 0.000001 0.944279
vn 0.592731 0.000001 0.805400
vn 0.538930 0.328989 0.775449
vn 0.850926 0.176812 0.494634
vn 0.850926 0.176812 0.494634
vn 0.871011 0.000000 0.491264
vn 0.592731 0.000001 0.805400
vn 0.871011 0.000000 0.491264
vn 0.850926 0.176812 0.494634
vn 0.970835 0.054545 0.233462
vn 0.970835 0.054545 0.233462
vn 0.973192 0.000000 0.229993
vn 0.871011 0.000000 0.491264
vn 0.973192 0.000000 0.229993
vn 0.970835 0.054545 0.233462
vn 0.999979 0.004694 0.004444
vn 0.999979 0.004694 0.004444
vn 0.999987 0.000000 0.005029
vn 0.973192 0.000000 0.229993
vn 0.999987 0.000000 0.005029
vn 0.999979 0.004694 0.004444
vn 0.973852 0.033764 -0.224660
vn 0.973852 0.033764 -0.224660
vn 0.974774 0.000000 -0.223194
vn 0.999987 0.000000 0.005029
vn 0.974774 0.000000 -0.223194
vn 0.973852 0.033764 -0.224660
vn 0.859102 0.142289 -0.491627
vn 0.859102 0.142289 -0.491627
vn 0.870569 0.000000 -0.492046
vn 0.974774 0.000000 -0.223194
vn 0.870569 0.000000 -0.492046
vn 0.859102 0.142289 -0.491627
vn 0.540004 0.304282 -0.784735
vn 0.540004 0.304282 -0.784735
vn 0.583235 0.000001 -0.812304
vn 0.870569 0.000000 -0.492046
vn 0.583235 0.000001 -0.812304
vn 0.540004 0.304282 -0.784735
vn 0.328449 0.364428 -0.871386
vn 0.328449 0.364428 -0.871386
vn 0.313228 0.000001 -0.949678
vn 0.583235 0.000001 -0.812304
vn 0.329148 0.000001 0.944279
vn 0.592731 0.000001 0.805400
vn 0.538930 -0.328988 0.775449
vn 0.538930 -0.328988 0.775449
vn 0.341368 -0.379825 0.859768
vn 0.329148 0.000001 0.944279
vn 0.592731 0.000001 0.805400
vn 0.871011 0.000000 0.491264
vn 0.850926 -0.176811 0.494634
vn 0.850926 -0.176811 0.494634
vn 0.538930 -0.328988 0.775449
vn 0.592731 0.000001 0.805400
vn 0.871011 0.000000 0.491264
vn 0.973192 0.000000 0.229993
vn 0.970835 -0.054544 0.233462
vn 0.970835 -0.054544 0.233462
vn 0.850926 -0.176811 0.494634
vn 0.871011 0.000000 0.491264
vn 0.973192 0.000000 0.229993
vn 0.999987 0.000000 0.005029
vn 0.999979 -0.004694 0.004444
vn 0.999979 -0.004694 0.004444
vn 0.970835 -0.054544 0.233462
vn 0.973192 0.000000 0.229993
vn 0.999987 0.000000 0.005029
vn 0.974774 0.000000 -0.223194
vn 0.973852 -0.033764 -0.224660
vn 0.973852 -0.033764 -0.224660
vn 0.999979 -0.004694 0.004444
vn 0.999987 0.000000 0.005029
vn 0.974774 0.000000 -0.223194
vn 0.870569 0.000000 -0.492046
vn 0.859102 -0.142288 -0.491627
vn 0.859102 -0.142288 -0.491627
vn 0.973852 -0.033764 -0.224660
vn 0.974774 0.000000 -0.223194
vn 0.870569 0.000000 -0.492046
vn 0.583235 0.000001 -0.812304
vn 0.540004 -0.304280 -0.784735
vn 0.540004 -0.304280 -0.784735
vn 0.859102 -0.142288 -0.491627
vn 0.870569 0.000000 -0.492046
vn 0.583235 0.000001 -0.812304
vn 0.313228 0.000001 -0.949678
vn 0.328450 -0.364427 -0.871386
vn 0.328450 -0.364427 -0.871386
vn 0.540004 -0.304280 -0.784735
vn 0.583235 0.000001 -0.812304
vn 0.000000 1.000000 0.000000
vn 0.000000 1.000000 0.000000
vn 0.000000 1.000000 0.000000
vn 0.000000 1.000000 0.000000
vn 0.000000 1.000000 0.000000
vn 0.000000 1.000000 0.000000
vn 0.000000 1.000000 0.000000
vn 0.000000 1.000000 0.000000
vn 0.000000 1.000000 0.000000
vn 0.000000 1.000000 0.000000
vn 0.000000 1.000000 0.000000
vn 0.000000 1.000000 0.000000
vn 0.000000 1.000000 0.000000
vn 0.000000 1.000000 0.000000
vn 0.000000 1.000000 0.000000
vn 0.000000 1.000000 0.000000
vn 0.000000 1.000000 0.000000
vn 0.000000 1.000000 0.000000
vn 0.000000 1.000000 0.000000
vn 0.000000 1.000000 0.000000
vn 0.000000 1.000000 0.000000
vn 0.000000 -1.000000 -0.000000
vn 0.000000 -1.000000 -0.000000
vn 0.000000 -1.000000 -0.000000
vn 0.000000 -1.000000 -0.000000
vn 0.000000 -1.000000 -0.000000
vn 0.000000 -1.000000 -0.000000
vn 0.000000 -1.000000 -0.000000
vn 0.000000 -1.000000 -0.000000
vn 0.000000 -1.000000 -0.000000
vn 0.000000 -1.000000 -0.000000
vn 0.000000 -1.000000 -0.000000
vn 0.000000 -1.000000 -0.000000
vn 0.000000 -1.000000 -0.000000
vn 0.000000 -1.000000 -0.000000
vn 0.000000 -1.000000 -0.000000
vn 0.000000 -1.000000 -0.000000
vn 0.000000 -1.000000 -0.000000
vn 0.000000 -1.000000 -0.000000
vn 0.000000 -1.000000 -0.000000
vn 0.000000 -1.000000 -0.000000
vn 0.000000 -1.000000 -0.000000
vn 0.000000 -1.000000 -0.000000
vn 0.000000 -1.000000 -0.000000
vn 0.000000 -1.000000 -0.000000
vn 0.000000 -1.000000 -0.000000
vn 0.000000 -1.000000 -0.000000
vn 0.000000 -1.000000 -0.000000
vn 0.000000 -1.000000 -0.000000
vn 0.000000 -1.000000 -0.000000
vn 0.000000 -1.000000 -0.000000
vn 0.000000 -1.000000 -0.000000
vn 0.000000 -1.000000 -0.000000
vn 0.000000 -1.000000 -0.000000
vn 0.000000 -1.000000 -0.000000
vn 0.000000 -1.000000 -0.000000
vn 0.000000 -1.000000 -0.000000
vn 0.000000 -1.000000 -0.000000
vn 0.000000 -1.000000 -0.000000
vn 0.000000 -1.000000 -0.000000
vn 0.000000 -1.000000 -0.000000
vn 0.000000 -1.000000 -0.000000
vn 0.000000 -1.000000 -0.000000
vn 0.000000 -1.000000 -0.000000
vn 0.000000 -1.000000 -0.000000
vn 0.000000 -1.000000 -0.000000
vn 0.000000 -1.000000 -0.000000
vn 0.000000 -1.000000 -0.000000
vn 0.000000 -1.000000 -0.000000
vn 0.787111 -0.000000 0.616811
vn 0.571163 -0.000000 0.820837
vn 0.571163 -0.000000 0.820837
vn 0.571163 -0.000000 0.820837
vn 0.787111 -0.000000 0.616811
vn 0.787111 -0.000000 0.616811
vn 0.922534 -0.000000 0.385916
vn 0.787111 -0.000000 0.616811
vn 0.787111 -0.000000 0.616811
vn 0.787111 -0.000000 0.616811
vn 0.922534 -0.000000 0.385916
vn 0.922534 -0.000000 0.385916
vn 0.983190 -0.000000 0.182586
vn 0.922534 -0.000000 0.385916
vn 0.922534 -0.000000 0.385916
vn 0.922534 -0.000000 0.385916
vn 0.983190 -0.000000 0.182586
vn 0.983190 -0.000000 0.182586
vn 1.000000 0.000000 -0.000000
vn 0.983190 -0.000000 0.182586
vn 0.983190 -0.000000 0.182586
vn 0.983190 -0.000000 0.182586
vn 1.000000 0.000000 -0.000000
vn 1.000000 0.000000 -0.000000
vn 0.983190 0.000000 -0.182586
vn 1.000000 0.000000 -0.000000
vn 1.000000 0.000000 -0.000000
vn 1.000000 0.000000 -0.000000
vn 0.983190 0.000000 -0.182586
vn 0.983190 0.000000 -0.182586
vn 0.922534 0.000000 -0.385916
vn 0.983190 0.000000 -0.182586
vn 0.983190 0.000000 -0.182586
vn 0.983190 0.000000 -0.182586
vn 0.922534 0.000000 -0.385916
vn 0.922534 0.000000 -0.385916
vn 0.787111 0.000000 -0.616811
vn 0.922534 0.000000 -0.385916
vn 0.922534 0.000000 -0.385916
vn 0.922534 0.000000 -0.385916
vn 0.787111 0.000000 -0.616811
vn 0.787111 0.000000 -0.616811
vn 0.571163 0.000000 -0.820837
vn 0.787111 0.000000 -0.616811
vn 0.787111 0.000000 -0.616811
vn 0.787111 0.000000 -0.616811
vn 0.571163 0.000000 -0.820837
vn 0.571163 0.000000 -0.820837
vn 0.000000 1.000000 0.000000
vn 0.000000 1.000000 0.000000
vn 0.000000 1.000000 0.000000
vn 0.000000 1.000000 0.000000
vn 0.000000 1.000000 0.000000
vn 0.000000 1.000000 0.000000
vn 0.000000 1.000000 0.000000
vn 0.000000 1.000000 0.000000
vn 0.000000 1.000000 0.000000
vn 0.000000 1.000000 0.000000
vn 0.000000 1.000000 0.000000
vn 0.000000 1.000000 0.000000
vn 0.000000 1.000000 0.000000
vn 0.000000 1.000000 0.000000
vn 0.000000 1.000000 0.000000
vn 0.000000 1.000000 0.000000
vn 0.000000 1.000000 0.000000
vn 0.000000 1.000000 0.000000
vn 0.000000 1.000000 0.000000
vn 0.000000 1.000000 0.000000
vn 0.000000 1.000000 0.000000
vn 0.000000 1.000000 0.000000
vn 0.000000 1.000000 0.000000
vn 0.000000 1.000000 0.000000
vn 0.000000 1.000000 0.000000
vn 0.000000 1.000000 0.000000
vn 0.000000 1.000000 0.000000
vn 0.435948 0.000000 -0.899972
vn 0.435948 0.000000 -0.899972
vn 0.571163 0.000000 -0.820837
vn 0.571163 0.000000 -0.820837
vn 0.571163 0.000000 -0.820837
vn 0.435948 0.000000 -0.899972
vn 0.435948 -0.000000 0.899972
vn 0.435948 -0.000000 0.899972
vn 0.571163 -0.000000 0.820837
vn 0.571163 -0.000000 0.820837
vn 0.571163 -0.000000 0.820837
vn 0.435948 -0.000000 0.899972
vn 0.000000 1.000000 -0.000003
vn 0.000000 1.000000 -0.000003
vn 0.000000 1.000000 -0.000003
vn 0.000000 1.000000 -0.000005
vn 0.000000 1.000000 -0.000005
vn 0.000000 1.000000 -0.000005
vn -0.000000 0.000001 -1.000000
vn -0.000000 0.000001 -1.000000
vn -0.000000 0.000001 -1.000000
vn 0.000000 0.000000 -1.000000
vn 0.000000 0.000000 -1.000000
vn 0.000000 0.000000 -1.000000
vn -0.000000 -1.000000 0.000011
vn -0.000000 -1.000000 0.000011
vn -0.000000 -1.000000 0.000011
vn 0.000000 -1.000000 -0.000016
vn 0.000000 -1.000000 -0.000016
vn 0.000000 -1.000000 -0.000016
vn 0.000000 0.000001 1.000000
vn 0.000000 0.000001 1.000000
vn 0.000000 0.000001 1.000000
vn -0.000000 -0.000000 1.000000
vn -0.000000 -0.000000 1.000000
vn -0.000000 -0.000000 1.000000
vn 0.000000 1.000000 -0.000003
vn 0.000000 1.000000 -0.000003
vn 0.000000 1.000000 -0.000003
vn 0.000000 1.000000 -0.000005
vn 0.000000 1.000000 -0.000005
vn 0.000000 1.000000 -0.000005
vn 0.000000 0.000001 -1.000000
vn 0.000000 0.000001 -1.000000
vn 0.000000 0.000001 -1.000000
vn 0.000000 0.000001 -1.000000
vn 0.000000 0.000001 -1.000000
vn 0.000000 0.000001 -1.000000
vn -0.000000 -1.000000 0.000011
vn -0.000000 -1.000000 0.000011
vn -0.000000 -1.000000 0.000011
vn 0.000000 -1.000000 -0.000016
vn 0.000000 -1.000000 -0.000016
vn 0.000000 -1.000000 -0.000016
vn 0.000000 -0.000000 1.000000
vn 0.000000 -0.000000 1.000000
vn 0.000000 -0.000000 1.000000
vn -0.000000 -0.000001 1.000000
vn -0.000000 -0.000001 1.000000
vn -0.000000 -0.000001 1.000000
vn 0.000004 0.000000 1.000000
vn 0.000004 0.000000 1.000000
vn 0.000004 0.000000 1.000000
vn 0.000000 -0.000000 1.000000
vn 0.000000 -0.000000 1.000000
vn 0.000000 -0.000000 1.000000
vn -0.000007 1.000000 0.000000
vn -0.000007 1.000000 0.000000
vn -0.000007 1.000000 0.000000
vn -0.000007 1.000000 0.000000
vn -0.000007 1.000000 0.000000
vn -0.000007 1.000000 0.000000
vn -1.000000 -0.000000 0.000000
vn -1.000000 0.000000 0.000000
vn -1.000000 -0.000000 0.000000
vn -1.000000 -0.000000 0.000000
vn -1.000000 -0.000000 0.000000
vn -1.000000 -0.000000 0.000000
vn 0.000007 -1.000000 0.000000
vn 0.000007 -1.000000 0.000000
vn 0.000007 -1.000000 0.000000
vn 0.000000 -1.000000 0.000000
vn 0.000000 -1.000000 0.000000
vn 0.000000 -1.000000 0.000000
vn 0.000004 0.000000 -1.000000
vn 0.000004 0.000000 -1.000000
vn 0.000004 0.000000 -1.000000
vn 0.000004 0.000000 -1.000000
vn 0.000004 0.000000 -1.000000
vn 0.000004 0.000000 -1.000000
vn 1.000000 0.000000 -0.000000
vn 1.000000 0.000000 -0.000000
vn 1.000000 0.000000 -0.000000
vn 1.000000 0.000000 -0.000000
vn 1.000000 0.000000 -0.000000
vn 1.000000 0.000000 -0.000000
vn 0.000000 1.000000 0.000000
vn 0.000000 1.000000 0.000000
vn 0.000000 1.000000 0.000000
vn 0.000000 1.000000 0.000000
vn 0.000000 1.000000 0.000000
vn 0.000000 1.000000 0.000000
vn 1.000000 -0.000001 0.000000
vn 1.000000 0.000000 0.000000
vn 1.000000 -0.000000 0.000000
vn 1.000000 -0.000000 0.000000
vn 1.000000 -0.000001 0.000000
vn 1.000000 -0.000001 0.000000
vn -0.000009 1.000000 -0.000000
vn -0.000009 1.000000 -0.000000
vn -0.000009 1.000000 -0.000000
vn -0.000009 1.000000 -0.000000
vn -0.000009 1.000000 -0.000000
vn -0.000009 1.000000 -0.000000
vn -0.000038 -1.000000 0.000000
vn -0.000038 -1.000000 0.000000
vn -0.000038 -1.000000 0.000000
vn -0.000031 -1.000000 0.000000
vn -0.000031 -1.000000 0.000000
vn -0.000031 -1.000000 0.000000
s off
g SM_Dresser_02f
f 3/3/1 4/4/2 1/1/3
f 1/1/4 2/2/5 3/3/6
f 24/7/7 6/8/8 7/5/9
f 7/5/10 25/6/11 24/7/12
f 25/6/13 7/5/14 8/9/15
f 8/9/16 26/10/17 25/6/18
f 26/10/19 8/9/20 9/11/21
f 9/11/22 27/12/23 26/10/24
f 27/12/25 9/11/26 10/13/27
f 10/13/28 28/14/29 27/12/30
f 28/14/31 10/13/32 11/15/33
f 11/15/34 29/16/35 28/14/36
f 29/16/37 11/15/38 12/17/39
f 12/17/40 30/18/41 29/16/42
f 30/18/43 12/17/44 13/19/45
f 13/19/46 31/20/47 30/18/48
f 31/20/49 13/19/50 5/21/51
f 5/21/52 23/22/53 31/20/54
f 24/7/55 25/6/56 16/23/57
f 16/23/58 15/24/59 24/7/60
f 25/6/61 26/10/62 17/25/63
f 17/25/64 16/23/65 25/6/66
f 26/10/67 27/12/68 18/26/69
f 18/26/70 17/25/71 26/10/72
f 27/12/73 28/14/74 19/27/75
f 19/27/76 18/26/77 27/12/78
f 28/14/79 29/16/80 20/28/81
f 20/28/82 19/27/83 28/14/84
f 29/16/85 30/18/86 21/29/87
f 21/29/88 20/28/89 29/16/90
f 30/18/91 31/20/92 22/30/93
f 22/30/94 21/29/95 30/18/96
f 31/20/97 23/22/98 14/31/99
f 14/31/100 22/30/101 31/20/102
f 16/34/103 22/35/104 14/32/105
f 14/32/106 15/33/107 16/34/108
f 20/36/109 21/37/110 22/35/111
f 20/36/112 22/35/113 16/34/114
f 16/34/115 17/38/116 18/39/117
f 20/36/118 16/34/119 18/39/120
f 20/36/121 18/39/122 19/40/123
f 6/43/124 5/44/125 13/41/126
f 13/41/127 7/42/128 6/43/129
f 11/45/130 10/46/131 9/47/132
f 11/45/133 9/47/134 8/48/135
f 8/48/136 7/42/137 13/41/138
f 11/45/139 8/48/140 13/41/141
f 11/45/142 13/41/143 12/49/144
f 51/50/145 50/51/146 32/52/147
f 32/52/148 40/53/149 39/54/150
f 39/54/151 38/55/152 37/56/153
f 32/52/154 39/54/155 37/56/156
f 37/56/157 36/57/158 35/58/159
f 35/58/160 34/59/161 33/60/162
f 37/56/163 35/58/164 33/60/165
f 32/52/166 37/56/167 33/60/168
f 51/50/169 32/52/170 33/60/171
f 43/80/172 42/81/173 33/78/174
f 33/78/175 34/79/176 43/80/177
f 44/85/178 43/80/179 34/79/180
f 34/79/181 35/84/182 44/85/183
f 45/87/184 44/85/185 35/84/186
f 35/84/187 36/86/188 45/87/189
f 46/89/190 45/87/191 36/86/192
f 36/86/193 37/88/194 46/89/195
f 47/91/196 46/89/197 37/88/198
f 37/88/199 38/90/200 47/91/201
f 48/93/202 47/91/203 38/90/204
f 38/90/205 39/92/206 48/93/207
f 49/75/208 48/93/209 39/92/210
f 39/92/211 40/72/212 49/75/213
f 41/74/214 49/75/215 40/72/216
f 40/72/217 32/73/218 41/74/219
f 45/61/220 46/62/221 47/63/222
f 48/64/223 49/65/224 41/66/225
f 47/63/226 48/64/227 41/66/228
f 52/67/229 53/68/230 42/69/231
f 41/66/232 52/67/233 42/69/234
f 41/66/235 42/69/236 43/70/237
f 47/63/238 41/66/239 43/70/240
f 45/61/241 47/63/242 43/70/243
f 45/61/244 43/70/245 44/71/246
f 50/76/247 52/77/248 41/74/249
f 41/74/250 32/73/251 50/76/252
f 53/82/253 51/83/254 33/78/255
f 33/78/256 42/81/257 53/82/258
f 57/96/259 58/97/260 55/94/261
f 55/94/262 54/95/263 57/96/264
f 57/100/265 56/101/266 59/98/267
f 59/98/268 58/99/269 57/100/270
f 59/102/271 56/103/272 61/104/273
f 61/104/274 60/105/275 59/102/276
f 55/106/277 60/107/278 61/108/279
f 61/108/280 54/109/281 55/106/282
f 65/112/283 66/113/284 63/110/285
f 63/110/286 62/111/287 65/112/288
f 65/116/289 64/117/290 67/114/291
f 67/114/292 66/115/293 65/116/294
f 67/118/295 64/119/296 69/120/297
f 69/120/298 68/121/299 67/118/300
f 63/122/301 68/123/302 69/124/303
f 69/124/304 62/125/305 63/122/306
f 70/128/307 71/129/308 75/126/309
f 75/126/310 74/127/311 70/128/312
f 72/132/313 70/133/314 74/130/315
f 74/130/316 77/131/317 72/132/318
f 70/134/319 72/135/320 73/136/321
f 73/136/322 71/137/323 70/134/324
f 71/138/325 73/139/326 76/140/327
f 76/140/328 75/141/329 71/138/330
f 73/142/331 72/143/332 77/144/333
f 77/144/334 76/145/335 73/142/336
f 75/148/337 76/149/338 77/146/339
f 77/146/340 74/147/341 75/148/342
f 78/150/343 79/151/344 81/152/345
f 81/152/346 80/153/347 78/150/348
f 85/160/349 82/161/350 83/158/351
f 83/158/352 84/159/353 85/160/354
f 86/156/355 87/157/356 82/154/357
f 82/154/358 85/155/359 86/156/360
f 88/162/361 89/163/362 84/164/363
f 84/164/364 83/165/365 88/162/366
