# This file uses feet as units for non-parametric coordinates.

g default
v -0.116650 -2.037033 -5.315402
v -0.116650 -2.037033 5.315386
v 0.902399 -2.037033 4.910776
v 1.766306 -2.037033 3.758546
v 2.343552 -2.037033 2.034104
v 2.546253 -2.037033 -0.000010
v 2.343552 -2.037033 -2.034120
v 1.766306 -2.037033 -3.758562
v 0.902399 -2.037033 -4.910792
v -0.116648 2.037033 -5.315402
v -0.116650 2.037033 5.315386
v 0.902399 2.037033 4.910776
v 1.766306 2.037033 3.758546
v 2.343552 2.037033 2.034104
v 2.546253 2.037033 -0.000010
v 2.343552 2.037033 -2.034120
v 1.766306 2.037033 -3.758562
v 0.902399 2.037033 -4.910792
v -0.116648 -0.000008 -4.415483
v -0.116650 -0.000008 4.415472
v 0.902399 -0.000008 4.079364
v 1.766306 -0.000008 3.122211
v 2.343552 -0.000008 1.689723
v 2.546253 -0.000008 -0.000006
v 2.343552 -0.000008 -1.689736
v 1.766306 -0.000008 -3.122222
v 0.902399 -0.000008 -4.079375
v 0.719664 -0.448692 -5.784522
v 0.719664 -0.448692 5.784511
v 1.731613 -0.448692 4.813508
v 2.588940 -0.448692 3.327637
v 3.050987 -0.448692 1.652109
v 3.213678 -0.448692 -0.000006
v 3.050987 -0.448692 -1.652121
v 2.588940 -0.448692 -3.327649
v 1.731613 -0.448692 -4.813519
v 0.719664 0.478889 -5.784522
v 0.719664 0.478889 5.784511
v 1.731613 0.478889 4.813508
v 2.588940 0.478889 3.327637
v 3.050987 0.478889 1.652109
v 3.213678 0.478889 -0.000006
v 3.050987 0.478889 -1.652121
v 2.588940 0.478889 -3.327649
v 1.731613 0.478889 -4.813519
v -0.123644 -0.448692 -6.193022
v -0.123644 -0.448692 6.193011
v -0.123644 0.478889 -6.193022
v -0.123644 0.478889 6.193011
v -56.084297 -10.515144 41.827866
v -56.084297 -10.515129 -41.827850
v -0.790359 -10.515129 -41.827866
v -0.790356 -10.515144 41.827866
v -0.695498 9.019508 -41.661613
v -57.382111 9.019508 -41.661621
v -0.695490 -10.902489 -43.060425
v -0.695494 9.019501 -43.060417
v -57.382118 9.019508 -43.060417
v -57.382118 -10.902473 -43.060417
v -57.382111 -10.902496 -41.661606
v -0.695496 -10.902473 -41.661613
v -0.695494 9.019508 43.060432
v -57.382118 9.019508 43.060417
v -0.695488 -10.902489 41.661598
v -0.695490 9.019501 41.661629
v -57.382118 9.019508 41.661621
v -57.382118 -10.902473 41.661598
v -57.382118 -10.902496 43.060417
v -0.695492 -10.902473 43.060417
v 0.000000 9.451622 44.255157
v -1.072989 9.451599 44.255157
v -1.072981 -11.334618 44.255165
v -1.072989 9.451599 -44.255180
v -1.072989 -11.334633 -44.255180
v 0.000000 -11.334618 44.255157
v -0.000004 -11.334618 -44.255180
v -0.000004 9.451622 -44.255180
v -0.790358 -10.061760 41.827858
v -0.790361 -10.061760 -41.827873
v -56.084297 -10.061760 41.827858
v -56.084297 -10.061760 -41.827873
v -55.933571 8.821533 42.239403
v -55.933571 -10.713776 42.239410
v -55.933563 -10.713783 -42.239410
v -55.933556 8.821533 -42.239410
v -57.148743 8.821526 -42.239426
v -57.148750 8.821526 42.239418
v -57.148743 -10.713737 42.239418
v -57.148750 -10.713737 -42.239426
vt 0.956461 1.922036
vt 0.940452 1.925231
vt 0.940452 1.917591
vt 0.956461 1.914617
vt 0.956461 1.931264
vt 0.940452 1.934240
vt 0.956461 1.942560
vt 0.940452 1.944373
vt 0.956461 1.955095
vt 0.940452 1.955123
vt 0.956461 1.967622
vt 0.940452 1.965878
vt 0.956461 1.978898
vt 0.940452 1.975997
vt 0.956461 1.988128
vt 0.940452 1.984967
vt 0.956461 1.995565
vt 0.940452 1.992595
vt 0.924443 1.922036
vt 0.924443 1.914617
vt 0.924443 1.931264
vt 0.924443 1.942560
vt 0.924443 1.955095
vt 0.924443 1.967622
vt 0.924443 1.978898
vt 0.924443 1.988128
vt 0.924443 1.995565
vt 0.960687 1.995377
vt 0.960687 1.927442
vt 0.968183 1.930028
vt 0.968183 1.992792
vt 0.978784 1.974409
vt 0.974539 1.985429
vt 0.974539 1.937391
vt 0.978784 1.948411
vt 0.980276 1.961410
vt 0.968640 1.926026
vt 0.968640 1.863262
vt 0.976137 1.860676
vt 0.976137 1.928612
vt 0.958040 1.907643
vt 0.956548 1.894644
vt 0.958040 1.881645
vt 0.962286 1.870625
vt 0.962285 1.918663
vt 0.931701 1.903832
vt 0.931701 1.824680
vt 0.937905 1.827291
vt 0.945348 1.833496
vt 0.951655 1.842991
vt 0.955054 1.853698
vt 0.956251 1.864256
vt 0.955054 1.874814
vt 0.951655 1.885521
vt 0.945348 1.895016
vt 0.937905 1.901221
vt 0.953239 1.825429
vt 0.952042 1.814871
vt 0.953239 1.804314
vt 0.956638 1.793606
vt 0.962945 1.784111
vt 0.970389 1.777906
vt 0.976592 1.775295
vt 0.976592 1.854447
vt 0.970389 1.851837
vt 0.962945 1.845632
vt 0.956638 1.836136
vt 0.953152 1.656411
vt 0.953152 1.648749
vt 0.958899 1.648749
vt 0.958899 1.656411
vt 0.953152 1.642365
vt 0.958899 1.642365
vt 0.953152 1.727388
vt 0.953152 1.719727
vt 0.958899 1.719727
vt 0.958899 1.727388
vt 0.958899 1.733773
vt 0.953152 1.733773
vt 0.953152 1.709955
vt 0.958899 1.709955
vt 0.953152 1.698935
vt 0.958899 1.698935
vt 0.953152 1.688069
vt 0.958899 1.688069
vt 0.953152 1.677203
vt 0.958899 1.677203
vt 0.953152 1.666183
vt 0.958899 1.666183
vt 0.694569 1.897312
vt 0.694569 1.829686
vt 0.746022 1.829686
vt 0.746022 1.897312
vt 0.959422 1.004898
vt 0.959422 1.272197
vt 0.953692 1.272197
vt 0.953692 1.004898
vt 0.428494 1.918233
vt 0.428494 1.834366
vt 0.688596 1.834366
vt 0.688596 1.918234
vt 0.953692 1.272197
vt 0.953692 1.004898
vt 0.959422 1.004898
vt 0.959422 1.272197
vt 0.688596 1.834366
vt 0.688596 1.918234
vt 0.428494 1.918233
vt 0.428494 1.834366
vt 0.959422 1.004898
vt 0.959422 1.272197
vt 0.953692 1.272197
vt 0.953692 1.004898
vt 0.428494 1.918233
vt 0.428494 1.834366
vt 0.688596 1.834366
vt 0.688596 1.918234
vt 0.953692 1.272197
vt 0.953692 1.004898
vt 0.959422 1.004898
vt 0.959422 1.272197
vt 0.688596 1.834366
vt 0.688596 1.918234
vt 0.428494 1.918233
vt 0.428494 1.834366
vt 0.991204 1.996499
vt 0.991204 1.920122
vt 0.996128 1.920122
vt 0.996128 1.996499
vt 0.942809 1.826333
vt 0.942809 1.463757
vt 0.947869 1.463757
vt 0.947869 1.826333
vt 0.649339 1.094226
vt 0.307275 1.094226
vt 0.307275 1.013895
vt 0.649338 1.013895
vt 0.947869 1.463757
vt 0.947869 1.826333
vt 0.942809 1.826333
vt 0.942809 1.463757
vt 0.996128 1.920122
vt 0.996128 1.996499
vt 0.991204 1.996499
vt 0.991204 1.920122
vt 0.649339 0.433000
vt 0.307275 0.433000
vt 0.307275 0.352668
vt 0.649339 0.352668
vt 0.746022 1.829686
vt 0.746022 1.897312
vt 0.694569 1.897312
vt 0.694569 1.829686
vt 0.969622 1.004696
vt 0.969622 1.350757
vt 0.963892 1.350758
vt 0.963892 1.004696
vt 0.428380 1.737073
vt 0.765117 1.737073
vt 0.765117 1.819312
vt 0.428380 1.819312
vt 0.963892 1.350758
vt 0.963892 1.004696
vt 0.969622 1.004696
vt 0.969622 1.350757
vn 0.329148 0.000001 0.944278
vn 0.341368 0.379827 0.859767
vn 0.538930 0.328989 0.775449
vn 0.538930 0.328989 0.775449
vn 0.592731 0.000001 0.805400
vn 0.329148 0.000001 0.944278
vn 0.592731 0.000001 0.805400
vn 0.538930 0.328989 0.775449
vn 0.850926 0.176812 0.494634
vn 0.850926 0.176812 0.494634
vn 0.871011 0.000000 0.491264
vn 0.592731 0.000001 0.805400
vn 0.871011 0.000000 0.491264
vn 0.850926 0.176812 0.494634
vn 0.970835 0.054545 0.233462
vn 0.970835 0.054545 0.233462
vn 0.973192 0.000000 0.229993
vn 0.871011 0.000000 0.491264
vn 0.973192 0.000000 0.229993
vn 0.970835 0.054545 0.233462
vn 0.999979 0.004694 0.004444
vn 0.999979 0.004694 0.004444
vn 0.999987 0.000000 0.005029
vn 0.973192 0.000000 0.229993
vn 0.999987 0.000000 0.005029
vn 0.999979 0.004694 0.004444
vn 0.973852 0.033764 -0.224660
vn 0.973852 0.033764 -0.224660
vn 0.974774 0.000000 -0.223194
vn 0.999987 0.000000 0.005029
vn 0.974774 0.000000 -0.223194
vn 0.973852 0.033764 -0.224660
vn 0.859102 0.142289 -0.491627
vn 0.859102 0.142289 -0.491627
vn 0.870569 0.000001 -0.492046
vn 0.974774 0.000000 -0.223194
vn 0.870569 0.000001 -0.492046
vn 0.859102 0.142289 -0.491627
vn 0.540004 0.304282 -0.784735
vn 0.540004 0.304282 -0.784735
vn 0.583235 0.000001 -0.812304
vn 0.870569 0.000001 -0.492046
vn 0.583235 0.000001 -0.812304
vn 0.540004 0.304282 -0.784735
vn 0.328449 0.364428 -0.871386
vn 0.328449 0.364428 -0.871386
vn 0.313228 0.000001 -0.949678
vn 0.583235 0.000001 -0.812304
vn 0.329148 0.000001 0.944278
vn 0.592731 0.000001 0.805400
vn 0.538931 -0.328987 0.775449
vn 0.538931 -0.328987 0.775449
vn 0.341368 -0.379824 0.859768
vn 0.329148 0.000001 0.944278
vn 0.592731 0.000001 0.805400
vn 0.871011 0.000000 0.491264
vn 0.850926 -0.176811 0.494634
vn 0.850926 -0.176811 0.494634
vn 0.538931 -0.328987 0.775449
vn 0.592731 0.000001 0.805400
vn 0.871011 0.000000 0.491264
vn 0.973192 0.000000 0.229993
vn 0.970835 -0.054544 0.233462
vn 0.970835 -0.054544 0.233462
vn 0.850926 -0.176811 0.494634
vn 0.871011 0.000000 0.491264
vn 0.973192 0.000000 0.229993
vn 0.999987 0.000000 0.005029
vn 0.999979 -0.004694 0.004444
vn 0.999979 -0.004694 0.004444
vn 0.970835 -0.054544 0.233462
vn 0.973192 0.000000 0.229993
vn 0.999987 0.000000 0.005029
vn 0.974774 0.000000 -0.223194
vn 0.973852 -0.033764 -0.224660
vn 0.973852 -0.033764 -0.224660
vn 0.999979 -0.004694 0.004444
vn 0.999987 0.000000 0.005029
vn 0.974774 0.000000 -0.223194
vn 0.870569 0.000001 -0.492046
vn 0.859102 -0.142288 -0.491627
vn 0.859102 -0.142288 -0.491627
vn 0.973852 -0.033764 -0.224660
vn 0.974774 0.000000 -0.223194
vn 0.870569 0.000001 -0.492046
vn 0.583235 0.000001 -0.812304
vn 0.540004 -0.304280 -0.784735
vn 0.540004 -0.304280 -0.784735
vn 0.859102 -0.142288 -0.491627
vn 0.870569 0.000001 -0.492046
vn 0.583235 0.000001 -0.812304
vn 0.313228 0.000001 -0.949678
vn 0.328450 -0.364426 -0.871386
vn 0.328450 -0.364426 -0.871386
vn 0.540004 -0.304280 -0.784735
vn 0.583235 0.000001 -0.812304
vn 0.000000 1.000000 0.000000
vn 0.000000 1.000000 0.000000
vn 0.000000 1.000000 0.000000
vn 0.000000 1.000000 0.000000
vn 0.000000 1.000000 0.000000
vn 0.000000 1.000000 0.000000
vn 0.000000 1.000000 0.000000
vn 0.000000 1.000000 0.000000
vn 0.000000 1.000000 0.000000
vn 0.000000 1.000000 0.000000
vn 0.000000 1.000000 0.000000
vn 0.000000 1.000000 0.000000
vn 0.000000 1.000000 0.000000
vn 0.000000 1.000000 0.000000
vn 0.000000 1.000000 0.000000
vn 0.000000 1.000000 0.000000
vn 0.000000 1.000000 0.000000
vn 0.000000 1.000000 0.000000
vn 0.000000 1.000000 0.000000
vn 0.000000 1.000000 0.000000
vn 0.000000 1.000000 0.000000
vn 0.000000 -1.000000 -0.000000
vn 0.000000 -1.000000 -0.000000
vn 0.000000 -1.000000 -0.000000
vn 0.000000 -1.000000 -0.000000
vn 0.000000 -1.000000 -0.000000
vn 0.000000 -1.000000 -0.000000
vn 0.000000 -1.000000 -0.000000
vn 0.000000 -1.000000 -0.000000
vn 0.000000 -1.000000 -0.000000
vn 0.000000 -1.000000 -0.000000
vn 0.000000 -1.000000 -0.000000
vn 0.000000 -1.000000 -0.000000
vn 0.000000 -1.000000 -0.000000
vn 0.000000 -1.000000 -0.000000
vn 0.000000 -1.000000 -0.000000
vn 0.000000 -1.000000 -0.000000
vn 0.000000 -1.000000 -0.000000
vn 0.000000 -1.000000 -0.000000
vn 0.000000 -1.000000 -0.000000
vn 0.000000 -1.000000 -0.000000
vn 0.000000 -1.000000 -0.000000
vn 0.000000 -1.000000 -0.000000
vn 0.000000 -1.000000 -0.000000
vn 0.000000 -1.000000 -0.000000
vn 0.000000 -1.000000 -0.000000
vn 0.000000 -1.000000 -0.000000
vn 0.000000 -1.000000 -0.000000
vn 0.000000 -1.000000 -0.000000
vn 0.000000 -1.000000 -0.000000
vn 0.000000 -1.000000 -0.000000
vn 0.000000 -1.000000 -0.000000
vn 0.000000 -1.000000 -0.000000
vn 0.000000 -1.000000 -0.000000
vn 0.000000 -1.000000 -0.000000
vn 0.000000 -1.000000 -0.000000
vn 0.000000 -1.000000 -0.000000
vn 0.000000 -1.000000 -0.000000
vn 0.000000 -1.000000 -0.000000
vn 0.000000 -1.000000 -0.000000
vn 0.000000 -1.000000 -0.000000
vn 0.000000 -1.000000 -0.000000
vn 0.000000 -1.000000 -0.000000
vn 0.000000 -1.000000 -0.000000
vn 0.000000 -1.000000 -0.000000
vn 0.000000 -1.000000 -0.000000
vn 0.000000 -1.000000 -0.000000
vn 0.000000 -1.000000 -0.000000
vn 0.000000 -1.000000 -0.000000
vn 0.787111 -0.000000 0.616811
vn 0.571163 -0.000000 0.820837
vn 0.571163 -0.000000 0.820837
vn 0.571163 -0.000000 0.820837
vn 0.787111 -0.000000 0.616811
vn 0.787111 -0.000000 0.616811
vn 0.922534 -0.000000 0.385916
vn 0.787111 -0.000000 0.616811
vn 0.787111 -0.000000 0.616811
vn 0.787111 -0.000000 0.616811
vn 0.922534 -0.000000 0.385916
vn 0.922534 -0.000000 0.385916
vn 0.983190 -0.000000 0.182586
vn 0.922534 -0.000000 0.385916
vn 0.922534 -0.000000 0.385916
vn 0.922534 -0.000000 0.385916
vn 0.983190 -0.000000 0.182586
vn 0.983190 -0.000000 0.182586
vn 1.000000 0.000000 -0.000000
vn 0.983190 -0.000000 0.182586
vn 0.983190 -0.000000 0.182586
vn 0.983190 -0.000000 0.182586
vn 1.000000 0.000000 -0.000000
vn 1.000000 0.000000 -0.000000
vn 0.983190 0.000000 -0.182586
vn 1.000000 0.000000 -0.000000
vn 1.000000 0.000000 -0.000000
vn 1.000000 0.000000 -0.000000
vn 0.983190 0.000000 -0.182586
vn 0.983190 0.000000 -0.182586
vn 0.922534 0.000000 -0.385916
vn 0.983190 0.000000 -0.182586
vn 0.983190 0.000000 -0.182586
vn 0.983190 0.000000 -0.182586
vn 0.922534 0.000000 -0.385916
vn 0.922534 0.000000 -0.385916
vn 0.787111 0.000000 -0.616811
vn 0.922534 0.000000 -0.385916
vn 0.922534 0.000000 -0.385916
vn 0.922534 0.000000 -0.385916
vn 0.787111 0.000000 -0.616811
vn 0.787111 0.000000 -0.616811
vn 0.571163 0.000000 -0.820837
vn 0.787111 0.000000 -0.616811
vn 0.787111 0.000000 -0.616811
vn 0.787111 0.000000 -0.616811
vn 0.571163 0.000000 -0.820837
vn 0.571163 0.000000 -0.820837
vn 0.000000 1.000000 0.000000
vn 0.000000 1.000000 0.000000
vn 0.000000 1.000000 0.000000
vn 0.000000 1.000000 0.000000
vn 0.000000 1.000000 0.000000
vn 0.000000 1.000000 0.000000
vn 0.000000 1.000000 0.000000
vn 0.000000 1.000000 0.000000
vn 0.000000 1.000000 0.000000
vn 0.000000 1.000000 0.000000
vn 0.000000 1.000000 0.000000
vn 0.000000 1.000000 0.000000
vn 0.000000 1.000000 0.000000
vn 0.000000 1.000000 0.000000
vn 0.000000 1.000000 0.000000
vn 0.000000 1.000000 0.000000
vn 0.000000 1.000000 0.000000
vn 0.000000 1.000000 0.000000
vn 0.000000 1.000000 0.000000
vn 0.000000 1.000000 0.000000
vn 0.000000 1.000000 0.000000
vn 0.000000 1.000000 0.000000
vn 0.000000 1.000000 0.000000
vn 0.000000 1.000000 0.000000
vn 0.000000 1.000000 0.000000
vn 0.000000 1.000000 0.000000
vn 0.000000 1.000000 0.000000
vn 0.435948 0.000000 -0.899972
vn 0.435948 0.000000 -0.899972
vn 0.571163 0.000000 -0.820837
vn 0.571163 0.000000 -0.820837
vn 0.571163 0.000000 -0.820837
vn 0.435948 0.000000 -0.899972
vn 0.435948 -0.000000 0.899972
vn 0.435948 -0.000000 0.899972
vn 0.571163 -0.000000 0.820837
vn 0.571163 -0.000000 0.820837
vn 0.571163 -0.000000 0.820837
vn 0.435948 -0.000000 0.899972
vn -0.000000 -1.000000 -0.000000
vn -0.000000 -1.000000 -0.000000
vn -0.000000 -1.000000 -0.000000
vn -0.000000 -1.000000 -0.000000
vn -0.000000 -1.000000 -0.000000
vn -0.000000 -1.000000 -0.000000
vn 0.000000 1.000000 -0.000000
vn 0.000000 1.000000 -0.000000
vn 0.000000 1.000000 -0.000000
vn 0.000000 1.000000 -0.000005
vn 0.000000 1.000000 -0.000005
vn 0.000000 1.000000 -0.000005
vn -0.000000 0.000000 -1.000000
vn -0.000000 0.000000 -1.000000
vn -0.000000 0.000000 -1.000000
vn -0.000000 0.000000 -1.000000
vn -0.000000 0.000000 -1.000000
vn -0.000000 0.000000 -1.000000
vn -0.000000 -1.000000 0.000011
vn -0.000000 -1.000000 0.000011
vn -0.000000 -1.000000 0.000011
vn 0.000000 -1.000000 -0.000016
vn 0.000000 -1.000000 -0.000016
vn 0.000000 -1.000000 -0.000016
vn 0.000000 0.000001 1.000000
vn 0.000000 0.000001 1.000000
vn 0.000000 0.000001 1.000000
vn -0.000000 -0.000000 1.000000
vn -0.000000 -0.000000 1.000000
vn -0.000000 -0.000000 1.000000
vn 0.000000 1.000000 -0.000000
vn 0.000000 1.000000 -0.000000
vn 0.000000 1.000000 -0.000000
vn 0.000000 1.000000 -0.000005
vn 0.000000 1.000000 -0.000005
vn 0.000000 1.000000 -0.000005
vn 0.000000 0.000001 -1.000000
vn 0.000000 0.000001 -1.000000
vn 0.000000 0.000001 -1.000000
vn 0.000000 0.000001 -1.000000
vn 0.000000 0.000001 -1.000000
vn 0.000000 0.000001 -1.000000
vn -0.000000 -1.000000 0.000011
vn -0.000000 -1.000000 0.000011
vn -0.000000 -1.000000 0.000011
vn 0.000000 -1.000000 -0.000016
vn 0.000000 -1.000000 -0.000016
vn 0.000000 -1.000000 -0.000016
vn 0.000000 -0.000000 1.000000
vn 0.000000 -0.000000 1.000000
vn 0.000000 -0.000000 1.000000
vn -0.000000 -0.000001 1.000000
vn -0.000000 -0.000001 1.000000
vn -0.000000 -0.000001 1.000000
vn 0.000004 0.000000 1.000000
vn 0.000004 0.000000 1.000000
vn 0.000004 0.000000 1.000000
vn 0.000000 -0.000000 1.000000
vn 0.000000 -0.000000 1.000000
vn 0.000000 -0.000000 1.000000
vn -0.000021 1.000000 0.000000
vn -0.000021 1.000000 0.000000
vn -0.000021 1.000000 0.000000
vn -0.000021 1.000000 0.000000
vn -0.000021 1.000000 0.000000
vn -0.000021 1.000000 0.000000
vn -1.000000 -0.000000 0.000000
vn -1.000000 0.000000 0.000000
vn -1.000000 -0.000000 0.000000
vn -1.000000 -0.000000 0.000000
vn -1.000000 -0.000000 0.000000
vn -1.000000 -0.000000 0.000000
vn 0.000014 -1.000000 0.000000
vn 0.000014 -1.000000 0.000000
vn 0.000014 -1.000000 0.000000
vn 0.000000 -1.000000 -0.000000
vn 0.000000 -1.000000 -0.000000
vn 0.000000 -1.000000 -0.000000
vn 0.000000 0.000000 -1.000000
vn 0.000000 0.000000 -1.000000
vn 0.000000 0.000000 -1.000000
vn 0.000000 0.000000 -1.000000
vn 0.000000 0.000000 -1.000000
vn 0.000000 0.000000 -1.000000
vn 1.000000 0.000000 -0.000000
vn 1.000000 0.000000 -0.000000
vn 1.000000 0.000000 -0.000000
vn 1.000000 0.000000 -0.000000
vn 1.000000 0.000000 -0.000000
vn 1.000000 0.000000 -0.000000
vn 0.000000 1.000000 0.000000
vn 0.000000 1.000000 0.000000
vn 0.000000 1.000000 0.000000
vn 0.000000 1.000000 0.000000
vn 0.000000 1.000000 0.000000
vn 0.000000 1.000000 0.000000
vn 1.000000 -0.000001 0.000000
vn 1.000000 0.000000 0.000000
vn 1.000000 -0.000000 0.000000
vn 1.000000 -0.000000 0.000000
vn 1.000000 -0.000001 0.000000
vn 1.000000 -0.000001 0.000000
vn -0.000006 1.000000 -0.000000
vn -0.000006 1.000000 -0.000000
vn -0.000006 1.000000 -0.000000
vn -0.000006 1.000000 -0.000000
vn -0.000006 1.000000 -0.000000
vn -0.000006 1.000000 -0.000000
vn -0.000038 -1.000000 0.000000
vn -0.000038 -1.000000 0.000000
vn -0.000038 -1.000000 0.000000
vn -0.000031 -1.000000 0.000000
vn -0.000031 -1.000000 0.000000
vn -0.000031 -1.000000 0.000000
s off
g SM_Dresser_02c
f 20/3/1 2/4/2 3/1/3
f 3/1/4 21/2/5 20/3/6
f 21/2/7 3/1/8 4/5/9
f 4/5/10 22/6/11 21/2/12
f 22/6/13 4/5/14 5/7/15
f 5/7/16 23/8/17 22/6/18
f 23/8/19 5/7/20 6/9/21
f 6/9/22 24/10/23 23/8/24
f 24/10/25 6/9/26 7/11/27
f 7/11/28 25/12/29 24/10/30
f 25/12/31 7/11/32 8/13/33
f 8/13/34 26/14/35 25/12/36
f 26/14/37 8/13/38 9/15/39
f 9/15/40 27/16/41 26/14/42
f 27/16/43 9/15/44 1/17/45
f 1/17/46 19/18/47 27/16/48
f 20/3/49 21/2/50 12/19/51
f 12/19/52 11/20/53 20/3/54
f 21/2/55 22/6/56 13/21/57
f 13/21/58 12/19/59 21/2/60
f 22/6/61 23/8/62 14/22/63
f 14/22/64 13/21/65 22/6/66
f 23/8/67 24/10/68 15/23/69
f 15/23/70 14/22/71 23/8/72
f 24/10/73 25/12/74 16/24/75
f 16/24/76 15/23/77 24/10/78
f 25/12/79 26/14/80 17/25/81
f 17/25/82 16/24/83 25/12/84
f 26/14/85 27/16/86 18/26/87
f 18/26/88 17/25/89 26/14/90
f 27/16/91 19/18/92 10/27/93
f 10/27/94 18/26/95 27/16/96
f 12/30/97 18/31/98 10/28/99
f 10/28/100 11/29/101 12/30/102
f 16/32/103 17/33/104 18/31/105
f 16/32/106 18/31/107 12/30/108
f 12/30/109 13/34/110 14/35/111
f 16/32/112 12/30/113 14/35/114
f 16/32/115 14/35/116 15/36/117
f 2/39/118 1/40/119 9/37/120
f 9/37/121 3/38/122 2/39/123
f 7/41/124 6/42/125 5/43/126
f 7/41/127 5/43/128 4/44/129
f 4/44/130 3/38/131 9/37/132
f 7/41/133 4/44/134 9/37/135
f 7/41/136 9/37/137 8/45/138
f 31/54/139 30/55/140 29/56/141
f 47/46/142 46/47/143 28/48/144
f 29/56/145 47/46/146 28/48/147
f 28/48/148 36/49/149 35/50/150
f 35/50/151 34/51/152 33/52/153
f 28/48/154 35/50/155 33/52/156
f 29/56/157 28/48/158 33/52/159
f 31/54/160 29/56/161 33/52/162
f 31/54/163 33/52/164 32/53/165
f 39/76/166 38/77/167 29/74/168
f 29/74/169 30/75/170 39/76/171
f 40/81/172 39/76/173 30/75/174
f 30/75/175 31/80/176 40/81/177
f 41/83/178 40/81/179 31/80/180
f 31/80/181 32/82/182 41/83/183
f 42/85/184 41/83/185 32/82/186
f 32/82/187 33/84/188 42/85/189
f 43/87/190 42/85/191 33/84/192
f 33/84/193 34/86/194 43/87/195
f 44/89/196 43/87/197 34/86/198
f 34/86/199 35/88/200 44/89/201
f 45/71/202 44/89/203 35/88/204
f 35/88/205 36/68/206 45/71/207
f 37/70/208 45/71/209 36/68/210
f 36/68/211 28/69/212 37/70/213
f 48/63/214 49/64/215 38/65/216
f 39/66/217 40/67/218 41/57/219
f 41/57/220 42/58/221 43/59/222
f 39/66/223 41/57/224 43/59/225
f 44/60/226 45/61/227 37/62/228
f 43/59/229 44/60/230 37/62/231
f 39/66/232 43/59/233 37/62/234
f 38/65/235 39/66/236 37/62/237
f 48/63/238 38/65/239 37/62/240
f 46/72/241 48/73/242 37/70/243
f 37/70/244 28/69/245 46/72/246
f 49/78/247 47/79/248 29/74/249
f 29/74/250 38/77/251 49/78/252
f 50/90/253 51/91/254 52/92/255
f 52/92/256 53/93/257 50/90/258
f 57/96/259 58/97/260 55/94/261
f 55/94/262 54/95/263 57/96/264
f 57/100/265 56/101/266 59/98/267
f 59/98/268 58/99/269 57/100/270
f 59/102/271 56/103/272 61/104/273
f 61/104/274 60/105/275 59/102/276
f 55/106/277 60/107/278 61/108/279
f 61/108/280 54/109/281 55/106/282
f 65/112/283 66/113/284 63/110/285
f 63/110/286 62/111/287 65/112/288
f 65/116/289 64/117/290 67/114/291
f 67/114/292 66/115/293 65/116/294
f 67/118/295 64/119/296 69/120/297
f 69/120/298 68/121/299 67/118/300
f 63/122/301 68/123/302 69/124/303
f 69/124/304 62/125/305 63/122/306
f 71/128/307 72/129/308 75/126/309
f 75/126/310 70/127/311 71/128/312
f 73/132/313 71/133/314 70/130/315
f 70/130/316 77/131/317 73/132/318
f 71/134/319 73/135/320 74/136/321
f 74/136/322 72/137/323 71/134/324
f 72/138/325 74/139/326 76/140/327
f 76/140/328 75/141/329 72/138/330
f 74/142/331 73/143/332 77/144/333
f 77/144/334 76/145/335 74/142/336
f 75/148/337 76/149/338 77/146/339
f 77/146/340 70/147/341 75/148/342
f 81/152/343 80/153/344 78/150/345
f 78/150/346 79/151/347 81/152/348
f 85/160/349 82/161/350 83/158/351
f 83/158/352 84/159/353 85/160/354
f 86/156/355 87/157/356 82/154/357
f 82/154/358 85/155/359 86/156/360
f 88/162/361 89/163/362 84/164/363
f 84/164/364 83/165/365 88/162/366
