# This file uses feet as units for non-parametric coordinates.

g default
v -55.933571 8.821533 42.239407
v -55.933571 -10.713776 42.239410
v -55.933567 -10.713783 -42.239418
v -55.933556 8.821533 -42.239407
v -57.148743 8.821522 -42.239426
v -57.148750 8.821522 42.239418
v -57.148743 -10.713737 42.239418
v -57.148750 -10.713737 -42.239426
v -0.116648 -2.037033 -5.315402
v -0.116648 -2.037033 5.315385
v 0.902401 -2.037033 4.910776
v 1.766308 -2.037033 3.758546
v 2.343554 -2.037033 2.034104
v 2.546255 -2.037033 -0.000010
v 2.343554 -2.037033 -2.034120
v 1.766308 -2.037033 -3.758562
v 0.902401 -2.037033 -4.910792
v -0.116646 2.037033 -5.315403
v -0.116648 2.037033 5.315386
v 0.902401 2.037033 4.910776
v 1.766308 2.037033 3.758546
v 2.343554 2.037033 2.034104
v 2.546255 2.037033 -0.000010
v 2.343554 2.037033 -2.034121
v 1.766308 2.037033 -3.758562
v 0.902401 2.037033 -4.910792
v -0.116646 0.000000 -4.415483
v -0.116648 0.000000 4.415471
v 0.902401 0.000000 4.079363
v 1.766308 0.000000 3.122211
v 2.343554 0.000000 1.689723
v 2.546255 0.000000 -0.000006
v 2.343554 0.000000 -1.689735
v 1.766308 0.000000 -3.122222
v 0.902401 0.000000 -4.079376
v 0.719666 -0.448677 -5.784523
v 0.719666 -0.448677 5.784510
v 1.731615 -0.448677 4.813507
v 2.588942 -0.448677 3.327637
v 3.050989 -0.448677 1.652109
v 3.213678 -0.448677 -0.000006
v 3.050989 -0.448677 -1.652121
v 2.588942 -0.448677 -3.327649
v 1.731615 -0.448677 -4.813519
v 0.719666 0.478905 -5.784523
v 0.719666 0.478905 5.784510
v 1.731615 0.478905 4.813507
v 2.588942 0.478905 3.327637
v 3.050989 0.478905 1.652109
v 3.213678 0.478905 -0.000006
v 3.050989 0.478905 -1.652121
v 2.588942 0.478905 -3.327649
v 1.731615 0.478905 -4.813519
v -0.123642 -0.448677 -6.193023
v -0.123642 -0.448677 6.193010
v -0.123642 0.478905 -6.193023
v -0.123642 0.478905 6.193010
v -56.084297 -10.515129 41.827869
v -56.084297 -10.515114 -41.827862
v -0.790358 -10.515114 -41.827866
v -0.790354 -10.515129 41.827866
v -0.695496 9.019524 -41.661613
v -57.382114 9.019524 -41.661629
v -0.695490 -10.902473 -43.060425
v -0.695492 9.019516 -43.060413
v -57.382118 9.019524 -43.060417
v -57.382118 -10.902458 -43.060421
v -57.382114 -10.902481 -41.661610
v -0.695494 -10.902458 -41.661613
v -0.695492 9.019524 43.060436
v -57.382114 9.019524 43.060421
v -0.695486 -10.902473 41.661602
v -0.695488 9.019516 41.661629
v -57.382118 9.019524 41.661621
v -57.382118 -10.902458 41.661602
v -57.382114 -10.902481 43.060421
v -0.695490 -10.902458 43.060421
v 0.000002 9.451637 44.255161
v -1.072987 9.451614 44.255161
v -1.072979 -11.334602 44.255165
v -1.072987 9.451614 -44.255180
v -1.072987 -11.334618 -44.255180
v 0.000002 -11.334602 44.255161
v -0.000002 -11.334602 -44.255177
v -0.000002 9.451637 -44.255177
v -0.790356 -10.061745 41.827858
v -0.790359 -10.061745 -41.827873
v -56.084297 -10.061745 41.827862
v -56.084297 -10.061745 -41.827869
vt 0.969622 1.004696
vt 0.969622 1.350757
vt 0.963892 1.350758
vt 0.963892 1.004696
vt 0.428380 1.737073
vt 0.765117 1.737073
vt 0.765117 1.819312
vt 0.428380 1.819312
vt 0.963892 1.350758
vt 0.963892 1.004696
vt 0.969622 1.004696
vt 0.969622 1.350757
vt 0.956461 1.922036
vt 0.940452 1.925231
vt 0.940452 1.917591
vt 0.956461 1.914617
vt 0.956461 1.931264
vt 0.940452 1.934240
vt 0.956461 1.942560
vt 0.940452 1.944373
vt 0.956461 1.955095
vt 0.940452 1.955123
vt 0.956461 1.967622
vt 0.940452 1.965878
vt 0.956461 1.978898
vt 0.940452 1.975997
vt 0.956461 1.988128
vt 0.940452 1.984967
vt 0.956461 1.995565
vt 0.940452 1.992595
vt 0.924443 1.922036
vt 0.924443 1.914617
vt 0.924443 1.931264
vt 0.924443 1.942560
vt 0.924443 1.955095
vt 0.924443 1.967622
vt 0.924443 1.978898
vt 0.924443 1.988128
vt 0.924443 1.995565
vt 0.960687 1.995377
vt 0.960687 1.927442
vt 0.968183 1.930028
vt 0.968183 1.992792
vt 0.978784 1.974409
vt 0.974539 1.985429
vt 0.974539 1.937391
vt 0.978784 1.948411
vt 0.980276 1.961410
vt 0.968640 1.926026
vt 0.968640 1.863262
vt 0.976137 1.860676
vt 0.976137 1.928612
vt 0.958040 1.907643
vt 0.956548 1.894644
vt 0.958040 1.881645
vt 0.962286 1.870625
vt 0.962285 1.918663
vt 0.931701 1.903832
vt 0.931701 1.824680
vt 0.937905 1.827291
vt 0.945348 1.833496
vt 0.951655 1.842991
vt 0.955054 1.853698
vt 0.956251 1.864256
vt 0.955054 1.874814
vt 0.951655 1.885521
vt 0.945348 1.895016
vt 0.937905 1.901221
vt 0.953239 1.825429
vt 0.952042 1.814871
vt 0.953239 1.804314
vt 0.956638 1.793606
vt 0.962945 1.784111
vt 0.970389 1.777906
vt 0.976592 1.775295
vt 0.976592 1.854447
vt 0.970389 1.851837
vt 0.962945 1.845632
vt 0.956638 1.836136
vt 0.953152 1.656411
vt 0.953152 1.648749
vt 0.958899 1.648749
vt 0.958899 1.656411
vt 0.953152 1.642365
vt 0.958899 1.642365
vt 0.953152 1.727388
vt 0.953152 1.719727
vt 0.958899 1.719727
vt 0.958899 1.727388
vt 0.958899 1.733773
vt 0.953152 1.733773
vt 0.953152 1.709955
vt 0.958899 1.709955
vt 0.953152 1.698935
vt 0.958899 1.698935
vt 0.953152 1.688069
vt 0.958899 1.688069
vt 0.953152 1.677203
vt 0.958899 1.677203
vt 0.953152 1.666183
vt 0.958899 1.666183
vt 0.694569 1.897312
vt 0.694569 1.829686
vt 0.746022 1.829686
vt 0.746022 1.897312
vt 0.959422 1.004898
vt 0.959422 1.272197
vt 0.953692 1.272197
vt 0.953692 1.004898
vt 0.428494 1.918233
vt 0.428494 1.834366
vt 0.688596 1.834366
vt 0.688596 1.918234
vt 0.953692 1.272197
vt 0.953692 1.004898
vt 0.959422 1.004898
vt 0.959422 1.272197
vt 0.688596 1.834366
vt 0.688596 1.918234
vt 0.428494 1.918233
vt 0.428494 1.834366
vt 0.959422 1.004898
vt 0.959422 1.272197
vt 0.953692 1.272197
vt 0.953692 1.004898
vt 0.428494 1.918233
vt 0.428494 1.834366
vt 0.688596 1.834366
vt 0.688596 1.918234
vt 0.953692 1.272197
vt 0.953692 1.004898
vt 0.959422 1.004898
vt 0.959422 1.272197
vt 0.688596 1.834366
vt 0.688596 1.918234
vt 0.428494 1.918233
vt 0.428494 1.834366
vt 0.991204 1.996499
vt 0.991204 1.920122
vt 0.996128 1.920122
vt 0.996128 1.996499
vt 0.942809 1.826333
vt 0.942809 1.463757
vt 0.947869 1.463757
vt 0.947869 1.826333
vt 0.649339 1.094226
vt 0.307275 1.094226
vt 0.307275 1.013895
vt 0.649338 1.013895
vt 0.947869 1.463757
vt 0.947869 1.826333
vt 0.942809 1.826333
vt 0.942809 1.463757
vt 0.996128 1.920122
vt 0.996128 1.996499
vt 0.991204 1.996499
vt 0.991204 1.920122
vt 0.649585 0.349216
vt 0.307522 0.349216
vt 0.307522 0.268884
vt 0.649585 0.268884
vt 0.746022 1.829686
vt 0.746022 1.897312
vt 0.694569 1.897312
vt 0.694569 1.829686
vn 1.000000 -0.000001 0.000000
vn 1.000000 0.000000 0.000000
vn 1.000000 -0.000000 0.000000
vn 1.000000 -0.000000 0.000000
vn 1.000000 -0.000001 0.000000
vn 1.000000 -0.000001 0.000000
vn -0.000009 1.000000 -0.000000
vn -0.000009 1.000000 -0.000000
vn -0.000009 1.000000 -0.000000
vn -0.000009 1.000000 -0.000000
vn -0.000009 1.000000 -0.000000
vn -0.000009 1.000000 -0.000000
vn -0.000038 -1.000000 0.000000
vn -0.000038 -1.000000 0.000000
vn -0.000038 -1.000000 0.000000
vn -0.000031 -1.000000 0.000000
vn -0.000031 -1.000000 0.000000
vn -0.000031 -1.000000 0.000000
vn 0.538930 0.328988 0.775449
vn 0.592731 0.000000 0.805400
vn 0.329148 0.000000 0.944278
vn 0.329148 0.000000 0.944278
vn 0.341368 0.379826 0.859768
vn 0.538930 0.328988 0.775449
vn 0.850926 0.176811 0.494634
vn 0.871011 -0.000000 0.491264
vn 0.592731 0.000000 0.805400
vn 0.592731 0.000000 0.805400
vn 0.538930 0.328988 0.775449
vn 0.850926 0.176811 0.494634
vn 0.970835 0.054545 0.233462
vn 0.973192 -0.000000 0.229993
vn 0.871011 -0.000000 0.491264
vn 0.871011 -0.000000 0.491264
vn 0.850926 0.176811 0.494634
vn 0.970835 0.054545 0.233462
vn 0.999979 0.004694 0.004444
vn 0.999987 -0.000000 0.005029
vn 0.973192 -0.000000 0.229993
vn 0.973192 -0.000000 0.229993
vn 0.970835 0.054545 0.233462
vn 0.999979 0.004694 0.004444
vn 0.973852 0.033764 -0.224660
vn 0.974774 -0.000000 -0.223194
vn 0.999987 -0.000000 0.005029
vn 0.999987 -0.000000 0.005029
vn 0.999979 0.004694 0.004444
vn 0.973852 0.033764 -0.224660
vn 0.859102 0.142288 -0.491627
vn 0.870569 0.000000 -0.492046
vn 0.974774 -0.000000 -0.223194
vn 0.974774 -0.000000 -0.223194
vn 0.973852 0.033764 -0.224660
vn 0.859102 0.142288 -0.491627
vn 0.540004 0.304281 -0.784735
vn 0.583235 -0.000000 -0.812304
vn 0.870569 0.000000 -0.492046
vn 0.870569 0.000000 -0.492046
vn 0.859102 0.142288 -0.491627
vn 0.540004 0.304281 -0.784735
vn 0.328449 0.364427 -0.871386
vn 0.313228 -0.000000 -0.949678
vn 0.583235 -0.000000 -0.812304
vn 0.583235 -0.000000 -0.812304
vn 0.540004 0.304281 -0.784735
vn 0.328449 0.364427 -0.871386
vn 0.538930 -0.328988 0.775449
vn 0.341368 -0.379826 0.859768
vn 0.329148 0.000000 0.944278
vn 0.329148 0.000000 0.944278
vn 0.592731 0.000000 0.805400
vn 0.538930 -0.328988 0.775449
vn 0.850926 -0.176811 0.494634
vn 0.538930 -0.328988 0.775449
vn 0.592731 0.000000 0.805400
vn 0.592731 0.000000 0.805400
vn 0.871011 -0.000000 0.491264
vn 0.850926 -0.176811 0.494634
vn 0.970835 -0.054545 0.233462
vn 0.850926 -0.176811 0.494634
vn 0.871011 -0.000000 0.491264
vn 0.871011 -0.000000 0.491264
vn 0.973192 -0.000000 0.229993
vn 0.970835 -0.054545 0.233462
vn 0.999979 -0.004694 0.004444
vn 0.970835 -0.054545 0.233462
vn 0.973192 -0.000000 0.229993
vn 0.973192 -0.000000 0.229993
vn 0.999987 -0.000000 0.005029
vn 0.999979 -0.004694 0.004444
vn 0.973852 -0.033764 -0.224660
vn 0.999979 -0.004694 0.004444
vn 0.999987 -0.000000 0.005029
vn 0.999987 -0.000000 0.005029
vn 0.974774 -0.000000 -0.223194
vn 0.973852 -0.033764 -0.224660
vn 0.859102 -0.142288 -0.491627
vn 0.973852 -0.033764 -0.224660
vn 0.974774 -0.000000 -0.223194
vn 0.974774 -0.000000 -0.223194
vn 0.870569 0.000000 -0.492046
vn 0.859102 -0.142288 -0.491627
vn 0.540004 -0.304281 -0.784735
vn 0.859102 -0.142288 -0.491627
vn 0.870569 0.000000 -0.492046
vn 0.870569 0.000000 -0.492046
vn 0.583235 -0.000000 -0.812304
vn 0.540004 -0.304281 -0.784735
vn 0.328450 -0.364427 -0.871386
vn 0.540004 -0.304281 -0.784735
vn 0.583235 -0.000000 -0.812304
vn 0.583235 -0.000000 -0.812304
vn 0.313228 -0.000000 -0.949678
vn 0.328450 -0.364427 -0.871386
vn 0.000000 1.000000 0.000000
vn 0.000000 1.000000 0.000000
vn 0.000000 1.000000 0.000000
vn 0.000000 1.000000 0.000000
vn 0.000000 1.000000 0.000000
vn 0.000000 1.000000 0.000000
vn 0.000000 1.000000 0.000000
vn 0.000000 1.000000 0.000000
vn 0.000000 1.000000 0.000000
vn 0.000000 1.000000 0.000000
vn 0.000000 1.000000 0.000000
vn 0.000000 1.000000 0.000000
vn 0.000000 1.000000 0.000000
vn 0.000000 1.000000 0.000000
vn 0.000000 1.000000 0.000000
vn 0.000000 1.000000 0.000000
vn 0.000000 1.000000 0.000000
vn 0.000000 1.000000 0.000000
vn 0.000000 1.000000 0.000000
vn 0.000000 1.000000 0.000000
vn 0.000000 1.000000 0.000000
vn 0.000000 -1.000000 -0.000000
vn 0.000000 -1.000000 -0.000000
vn 0.000000 -1.000000 -0.000000
vn 0.000000 -1.000000 -0.000000
vn 0.000000 -1.000000 -0.000000
vn 0.000000 -1.000000 -0.000000
vn 0.000000 -1.000000 -0.000000
vn 0.000000 -1.000000 -0.000000
vn 0.000000 -1.000000 -0.000000
vn 0.000000 -1.000000 -0.000000
vn 0.000000 -1.000000 -0.000000
vn 0.000000 -1.000000 -0.000000
vn 0.000000 -1.000000 -0.000000
vn 0.000000 -1.000000 -0.000000
vn 0.000000 -1.000000 -0.000000
vn 0.000000 -1.000000 -0.000000
vn 0.000000 -1.000000 -0.000000
vn 0.000000 -1.000000 -0.000000
vn 0.000000 -1.000000 -0.000000
vn 0.000000 -1.000000 -0.000000
vn 0.000000 -1.000000 -0.000000
vn 0.000000 -1.000000 -0.000000
vn 0.000000 -1.000000 -0.000000
vn 0.000000 -1.000000 -0.000000
vn 0.000000 -1.000000 -0.000000
vn 0.000000 -1.000000 -0.000000
vn 0.000000 -1.000000 -0.000000
vn 0.000000 -1.000000 -0.000000
vn 0.000000 -1.000000 -0.000000
vn 0.000000 -1.000000 -0.000000
vn 0.000000 -1.000000 -0.000000
vn 0.000000 -1.000000 -0.000000
vn 0.000000 -1.000000 -0.000000
vn 0.000000 -1.000000 -0.000000
vn 0.000000 -1.000000 -0.000000
vn 0.000000 -1.000000 -0.000000
vn 0.000000 -1.000000 -0.000000
vn 0.000000 -1.000000 -0.000000
vn 0.000000 -1.000000 -0.000000
vn 0.000000 -1.000000 -0.000000
vn 0.000000 -1.000000 -0.000000
vn 0.000000 -1.000000 -0.000000
vn 0.000000 -1.000000 -0.000000
vn 0.000000 -1.000000 -0.000000
vn 0.000000 -1.000000 -0.000000
vn 0.000000 -1.000000 -0.000000
vn 0.000000 -1.000000 -0.000000
vn 0.000000 -1.000000 -0.000000
vn 0.571163 -0.000000 0.820837
vn 0.787111 -0.000000 0.616811
vn 0.787111 -0.000000 0.616811
vn 0.787111 -0.000000 0.616811
vn 0.571163 -0.000000 0.820837
vn 0.571163 -0.000000 0.820837
vn 0.787111 -0.000000 0.616811
vn 0.922534 -0.000000 0.385916
vn 0.922534 -0.000000 0.385916
vn 0.922534 -0.000000 0.385916
vn 0.787111 -0.000000 0.616811
vn 0.787111 -0.000000 0.616811
vn 0.922534 -0.000000 0.385916
vn 0.983190 -0.000000 0.182586
vn 0.983190 -0.000000 0.182586
vn 0.983190 -0.000000 0.182586
vn 0.922534 -0.000000 0.385916
vn 0.922534 -0.000000 0.385916
vn 0.983190 -0.000000 0.182586
vn 1.000000 0.000000 -0.000000
vn 1.000000 0.000000 -0.000000
vn 1.000000 0.000000 -0.000000
vn 0.983190 -0.000000 0.182586
vn 0.983190 -0.000000 0.182586
vn 1.000000 0.000000 -0.000000
vn 0.983190 0.000000 -0.182586
vn 0.983190 0.000000 -0.182586
vn 0.983190 0.000000 -0.182586
vn 1.000000 0.000000 -0.000000
vn 1.000000 0.000000 -0.000000
vn 0.983190 0.000000 -0.182586
vn 0.922534 0.000000 -0.385916
vn 0.922534 0.000000 -0.385916
vn 0.922534 0.000000 -0.385916
vn 0.983190 0.000000 -0.182586
vn 0.983190 0.000000 -0.182586
vn 0.922534 0.000000 -0.385916
vn 0.787111 0.000000 -0.616811
vn 0.787111 0.000000 -0.616811
vn 0.787111 0.000000 -0.616811
vn 0.922534 0.000000 -0.385916
vn 0.922534 0.000000 -0.385916
vn 0.787111 0.000000 -0.616811
vn 0.571163 0.000000 -0.820837
vn 0.571163 0.000000 -0.820837
vn 0.571163 0.000000 -0.820837
vn 0.787111 0.000000 -0.616811
vn 0.787111 0.000000 -0.616811
vn 0.000000 1.000000 0.000000
vn 0.000000 1.000000 0.000000
vn 0.000000 1.000000 0.000000
vn 0.000000 1.000000 0.000000
vn 0.000000 1.000000 0.000000
vn 0.000000 1.000000 0.000000
vn 0.000000 1.000000 0.000000
vn 0.000000 1.000000 0.000000
vn 0.000000 1.000000 0.000000
vn 0.000000 1.000000 0.000000
vn 0.000000 1.000000 0.000000
vn 0.000000 1.000000 0.000000
vn 0.000000 1.000000 0.000000
vn 0.000000 1.000000 0.000000
vn 0.000000 1.000000 0.000000
vn 0.000000 1.000000 0.000000
vn 0.000000 1.000000 0.000000
vn 0.000000 1.000000 0.000000
vn 0.000000 1.000000 0.000000
vn 0.000000 1.000000 0.000000
vn 0.000000 1.000000 0.000000
vn 0.000000 1.000000 0.000000
vn 0.000000 1.000000 0.000000
vn 0.000000 1.000000 0.000000
vn 0.000000 1.000000 0.000000
vn 0.000000 1.000000 0.000000
vn 0.000000 1.000000 0.000000
vn 0.571163 0.000000 -0.820837
vn 0.571163 0.000000 -0.820837
vn 0.435948 0.000000 -0.899972
vn 0.435948 0.000000 -0.899972
vn 0.435948 0.000000 -0.899972
vn 0.571163 0.000000 -0.820837
vn 0.571163 -0.000000 0.820837
vn 0.571163 -0.000000 0.820837
vn 0.435948 -0.000000 0.899972
vn 0.435948 -0.000000 0.899972
vn 0.435948 -0.000000 0.899972
vn 0.571163 -0.000000 0.820837
vn -0.000000 -1.000000 -0.000000
vn -0.000000 -1.000000 -0.000000
vn -0.000000 -1.000000 -0.000000
vn -0.000000 -1.000000 -0.000000
vn -0.000000 -1.000000 -0.000000
vn -0.000000 -1.000000 -0.000000
vn 0.000000 1.000000 -0.000005
vn 0.000000 1.000000 -0.000005
vn 0.000000 1.000000 -0.000005
vn 0.000000 1.000000 -0.000000
vn 0.000000 1.000000 -0.000000
vn 0.000000 1.000000 -0.000000
vn 0.000000 0.000000 -1.000000
vn 0.000000 0.000000 -1.000000
vn 0.000000 0.000000 -1.000000
vn -0.000000 0.000001 -1.000000
vn -0.000000 0.000001 -1.000000
vn -0.000000 0.000001 -1.000000
vn 0.000000 -1.000000 -0.000016
vn 0.000000 -1.000000 -0.000016
vn 0.000000 -1.000000 -0.000016
vn -0.000000 -1.000000 0.000011
vn -0.000000 -1.000000 0.000011
vn -0.000000 -1.000000 0.000011
vn -0.000000 -0.000000 1.000000
vn -0.000000 -0.000000 1.000000
vn -0.000000 -0.000000 1.000000
vn 0.000000 0.000001 1.000000
vn 0.000000 0.000001 1.000000
vn 0.000000 0.000001 1.000000
vn 0.000000 1.000000 -0.000005
vn 0.000000 1.000000 -0.000005
vn 0.000000 1.000000 -0.000005
vn 0.000000 1.000000 -0.000000
vn 0.000000 1.000000 -0.000000
vn 0.000000 1.000000 -0.000000
vn 0.000000 0.000001 -1.000000
vn 0.000000 0.000001 -1.000000
vn 0.000000 0.000001 -1.000000
vn 0.000000 0.000001 -1.000000
vn 0.000000 0.000001 -1.000000
vn 0.000000 0.000001 -1.000000
vn 0.000000 -1.000000 -0.000016
vn 0.000000 -1.000000 -0.000016
vn 0.000000 -1.000000 -0.000016
vn -0.000000 -1.000000 0.000011
vn -0.000000 -1.000000 0.000011
vn -0.000000 -1.000000 0.000011
vn -0.000000 -0.000001 1.000000
vn -0.000000 -0.000001 1.000000
vn -0.000000 -0.000001 1.000000
vn 0.000000 -0.000000 1.000000
vn 0.000000 -0.000000 1.000000
vn 0.000000 -0.000000 1.000000
vn 0.000000 -0.000000 1.000000
vn 0.000000 -0.000000 1.000000
vn 0.000000 -0.000000 1.000000
vn 0.000004 0.000000 1.000000
vn 0.000004 0.000000 1.000000
vn 0.000004 0.000000 1.000000
vn -0.000021 1.000000 0.000000
vn -0.000021 1.000000 0.000000
vn -0.000021 1.000000 0.000000
vn -0.000021 1.000000 0.000000
vn -0.000021 1.000000 0.000000
vn -0.000021 1.000000 0.000000
vn -1.000000 -0.000000 0.000000
vn -1.000000 -0.000000 0.000000
vn -1.000000 -0.000000 0.000000
vn -1.000000 -0.000000 0.000000
vn -1.000000 0.000000 0.000000
vn -1.000000 -0.000000 0.000000
vn 0.000000 -1.000000 -0.000000
vn 0.000000 -1.000000 -0.000000
vn 0.000000 -1.000000 -0.000000
vn 0.000014 -1.000000 0.000000
vn 0.000014 -1.000000 0.000000
vn 0.000014 -1.000000 0.000000
vn 0.000004 0.000000 -1.000000
vn 0.000004 0.000000 -1.000000
vn 0.000004 0.000000 -1.000000
vn 0.000004 0.000000 -1.000000
vn 0.000004 0.000000 -1.000000
vn 0.000004 0.000000 -1.000000
vn 1.000000 0.000000 -0.000000
vn 1.000000 0.000000 -0.000000
vn 1.000000 0.000000 -0.000000
vn 1.000000 0.000000 -0.000000
vn 1.000000 0.000000 -0.000000
vn 1.000000 0.000000 -0.000000
vn 0.000000 1.000000 0.000000
vn 0.000000 1.000000 0.000000
vn 0.000000 1.000000 0.000000
vn 0.000000 1.000000 0.000000
vn 0.000000 1.000000 0.000000
vn 0.000000 1.000000 0.000000
s off
g SM_Dresser_02d
f 4/7/1 1/8/2 2/5/3
f 2/5/4 3/6/5 4/7/6
f 5/3/7 6/4/8 1/1/9
f 1/1/10 4/2/11 5/3/12
f 7/9/13 8/10/14 3/11/15
f 3/11/16 2/12/17 7/9/18
f 11/13/19 29/14/20 28/15/21
f 28/15/22 10/16/23 11/13/24
f 12/17/25 30/18/26 29/14/27
f 29/14/28 11/13/29 12/17/30
f 13/19/31 31/20/32 30/18/33
f 30/18/34 12/17/35 13/19/36
f 14/21/37 32/22/38 31/20/39
f 31/20/40 13/19/41 14/21/42
f 15/23/43 33/24/44 32/22/45
f 32/22/46 14/21/47 15/23/48
f 16/25/49 34/26/50 33/24/51
f 33/24/52 15/23/53 16/25/54
f 17/27/55 35/28/56 34/26/57
f 34/26/58 16/25/59 17/27/60
f 9/29/61 27/30/62 35/28/63
f 35/28/64 17/27/65 9/29/66
f 20/31/67 19/32/68 28/15/69
f 28/15/70 29/14/71 20/31/72
f 21/33/73 20/31/74 29/14/75
f 29/14/76 30/18/77 21/33/78
f 22/34/79 21/33/80 30/18/81
f 30/18/82 31/20/83 22/34/84
f 23/35/85 22/34/86 31/20/87
f 31/20/88 32/22/89 23/35/90
f 24/36/91 23/35/92 32/22/93
f 32/22/94 33/24/95 24/36/96
f 25/37/97 24/36/98 33/24/99
f 33/24/100 34/26/101 25/37/102
f 26/38/103 25/37/104 34/26/105
f 34/26/106 35/28/107 26/38/108
f 18/39/109 26/38/110 35/28/111
f 35/28/112 27/30/113 18/39/114
f 18/40/115 19/41/116 20/42/117
f 20/42/118 26/43/119 18/40/120
f 20/42/121 21/46/122 22/47/123
f 22/47/124 23/48/125 24/44/126
f 20/42/127 22/47/128 24/44/129
f 24/44/130 25/45/131 26/43/132
f 20/42/133 24/44/134 26/43/135
f 17/49/136 11/50/137 10/51/138
f 10/51/139 9/52/140 17/49/141
f 12/56/142 11/50/143 17/49/144
f 17/49/145 16/57/146 15/53/147
f 12/56/148 17/49/149 15/53/150
f 15/53/151 14/54/152 13/55/153
f 12/56/154 15/53/155 13/55/156
f 43/62/157 42/63/158 41/64/159
f 41/64/160 40/65/161 39/66/162
f 39/66/163 38/67/164 37/68/165
f 41/64/166 39/66/167 37/68/168
f 55/58/169 54/59/170 36/60/171
f 37/68/172 55/58/173 36/60/174
f 41/64/175 37/68/176 36/60/177
f 43/62/178 41/64/179 36/60/180
f 43/62/181 36/60/182 44/61/183
f 37/86/184 38/87/185 47/88/186
f 47/88/187 46/89/188 37/86/189
f 38/87/190 39/92/191 48/93/192
f 48/93/193 47/88/194 38/87/195
f 39/92/196 40/94/197 49/95/198
f 49/95/199 48/93/200 39/92/201
f 40/94/202 41/96/203 50/97/204
f 50/97/205 49/95/206 40/94/207
f 41/96/208 42/98/209 51/99/210
f 51/99/211 50/97/212 41/96/213
f 42/98/214 43/100/215 52/101/216
f 52/101/217 51/99/218 42/98/219
f 43/100/220 44/80/221 53/83/222
f 53/83/223 52/101/224 43/100/225
f 44/80/226 36/81/227 45/82/228
f 45/82/229 53/83/230 44/80/231
f 52/72/232 53/73/233 45/74/234
f 56/75/235 57/76/236 46/77/237
f 45/74/238 56/75/239 46/77/240
f 45/74/241 46/77/242 47/78/243
f 47/78/244 48/79/245 49/69/246
f 49/69/247 50/70/248 51/71/249
f 47/78/250 49/69/251 51/71/252
f 45/74/253 47/78/254 51/71/255
f 52/72/256 45/74/257 51/71/258
f 45/82/259 36/81/260 54/84/261
f 54/84/262 56/85/263 45/82/264
f 37/86/265 46/89/266 57/90/267
f 57/90/268 55/91/269 37/86/270
f 60/104/271 61/105/272 58/102/273
f 58/102/274 59/103/275 60/104/276
f 63/106/277 62/107/278 65/108/279
f 65/108/280 66/109/281 63/106/282
f 67/110/283 66/111/284 65/112/285
f 65/112/286 64/113/287 67/110/288
f 69/116/289 68/117/290 67/114/291
f 67/114/292 64/115/293 69/116/294
f 69/120/295 62/121/296 63/118/297
f 63/118/298 68/119/299 69/120/300
f 71/122/301 70/123/302 73/124/303
f 73/124/304 74/125/305 71/122/306
f 75/126/307 74/127/308 73/128/309
f 73/128/310 72/129/311 75/126/312
f 77/132/313 76/133/314 75/130/315
f 75/130/316 72/131/317 77/132/318
f 77/136/319 70/137/320 71/134/321
f 71/134/322 76/135/323 77/136/324
f 83/138/325 78/139/326 79/140/327
f 79/140/328 80/141/329 83/138/330
f 78/142/331 85/143/332 81/144/333
f 81/144/334 79/145/335 78/142/336
f 82/148/337 80/149/338 79/146/339
f 79/146/340 81/147/341 82/148/342
f 84/152/343 83/153/344 80/150/345
f 80/150/346 82/151/347 84/152/348
f 85/156/349 84/157/350 82/154/351
f 82/154/352 81/155/353 85/156/354
f 85/158/355 78/159/356 83/160/357
f 83/160/358 84/161/359 85/158/360
f 86/162/361 87/163/362 89/164/363
f 89/164/364 88/165/365 86/162/366
