# This file uses feet as units for non-parametric coordinates.

g default
v -3.572376 -0.454490 0.219140
v -1.017445 -0.454490 -3.429684
v -6.064930 195.091187 -6.963972
v -8.619862 195.091187 -3.315151
v -8.619862 13.017578 -3.315151
v -6.064930 13.017578 -6.963972
v -59.440071 -0.454490 -38.899849
v -56.885147 -0.454490 -42.548676
v -51.837650 195.091187 -39.014374
v -54.392582 195.091187 -35.365555
v -54.392582 13.017578 -35.365555
v -51.837650 13.017578 -39.014374
v -6.146229 195.091187 -1.583095
v -3.572376 191.949081 0.219140
v -3.768299 193.151520 0.081953
v -4.326241 194.170883 -0.308725
v -5.161259 194.852005 -0.893411
v -3.591297 195.091187 -5.231916
v -2.606327 194.852005 -4.542233
v -1.771305 194.170883 -3.957544
v -1.213367 193.151520 -3.566868
v -1.017445 191.949081 -3.429684
v -56.866219 195.091187 -37.097610
v -57.851177 194.852005 -37.787292
v -58.686207 194.170883 -38.371979
v -59.244144 193.151520 -38.762657
v -59.440071 191.949081 -38.899849
v -54.311291 195.091187 -40.746437
v -56.885147 191.949081 -42.548676
v -56.689213 193.151520 -42.411476
v -56.131268 194.170883 -42.020805
v -55.296249 194.852005 -41.436119
v -3.013885 44.011581 -0.215676
v -3.432873 44.011612 -0.509058
v -1.233486 44.011581 -2.758366
v -1.652470 44.011612 -3.051737
v -1.233532 35.656616 -2.758380
v -3.013920 35.656616 -0.215700
v -3.432911 35.656616 -0.509071
v -1.652515 35.656616 -3.051751
v -3.013893 42.778580 -0.215685
v -0.890202 42.778580 1.271340
v -0.135265 42.778580 1.546118
v 0.655910 42.778580 1.406608
v 1.271343 42.778580 0.890206
v 1.546116 42.778580 0.135268
v 1.406609 42.778580 -0.655910
v 0.890202 42.778580 -1.271340
v -1.233490 42.778580 -2.758365
v -3.013893 36.889664 -0.215685
v -0.890202 36.889664 1.271340
v -0.135265 36.889664 1.546118
v 0.655910 36.889664 1.406608
v 1.271343 36.889664 0.890206
v 1.546116 36.889664 0.135268
v 1.406609 36.889664 -0.655910
v 0.890202 36.889664 -1.271340
v -1.233490 36.889664 -2.758365
v -2.894604 44.787567 -0.386005
v -2.568794 45.355637 -0.851351
v -2.123695 45.563583 -1.487002
v -1.678612 45.355652 -2.122683
v -1.352749 44.787567 -2.588015
v -3.313595 44.787628 -0.679386
v -2.987766 45.355698 -1.144718
v -2.542679 45.563629 -1.780383
v -2.097580 45.355698 -2.416066
v -1.771736 44.787628 -2.881397
v -1.352840 34.880600 -2.588060
v -1.678692 34.312515 -2.122744
v -2.123775 34.104568 -1.487077
v -2.568871 34.312500 -0.851413
v -2.894703 34.880600 -0.386036
v -1.771847 34.880569 -2.881442
v -2.097672 34.312500 -2.416111
v -2.542763 34.104568 -1.780445
v -2.987862 34.312500 -1.144762
v -3.313679 34.880569 -0.679431
v -3.013885 160.511581 -0.215676
v -3.432873 160.511612 -0.509058
v -1.233486 160.511581 -2.758366
v -1.652470 160.511612 -3.051737
v -1.233532 152.156616 -2.758380
v -3.013920 152.156616 -0.215700
v -3.432911 152.156616 -0.509071
v -1.652515 152.156616 -3.051751
v -3.013893 159.278580 -0.215685
v -0.890202 159.278580 1.271340
v -0.135265 159.278580 1.546118
v 0.655910 159.278580 1.406608
v 1.271343 159.278580 0.890206
v 1.546116 159.278580 0.135268
v 1.406609 159.278580 -0.655910
v 0.890202 159.278580 -1.271340
v -1.233490 159.278580 -2.758365
v -3.013893 153.389664 -0.215685
v -0.890202 153.389664 1.271340
v -0.135265 153.389664 1.546118
v 0.655910 153.389664 1.406608
v 1.271343 153.389664 0.890206
v 1.546116 153.389664 0.135268
v 1.406609 153.389664 -0.655910
v 0.890202 153.389664 -1.271340
v -1.233490 153.389664 -2.758365
v -2.894604 161.287567 -0.386005
v -2.568794 161.855637 -0.851351
v -2.123695 162.063583 -1.487002
v -1.678612 161.855652 -2.122683
v -1.352749 161.287567 -2.588015
v -3.313595 161.287628 -0.679386
v -2.987766 161.855698 -1.144718
v -2.542679 162.063629 -1.780383
v -2.097580 161.855698 -2.416066
v -1.771736 161.287628 -2.881397
v -1.352840 151.380600 -2.588060
v -1.678692 150.812515 -2.122744
v -2.123775 150.604568 -1.487077
v -2.568871 150.812500 -0.851413
v -2.894703 151.380600 -0.386036
v -1.771847 151.380569 -2.881442
v -2.097672 150.812500 -2.416111
v -2.542763 150.604568 -1.780445
v -2.987862 150.812500 -1.144762
v -3.313679 151.380569 -0.679431
v -8.349464 198.735992 -5.365565
v -10.670906 206.072876 -6.991055
v -14.552738 212.775681 -9.709146
v -19.051170 217.545090 -12.858974
v -24.194342 220.802582 -16.460268
v -30.453890 222.409134 -20.843246
v -7.899204 198.735992 -6.008599
v -10.220646 206.072876 -7.634089
v -14.102482 212.775681 -10.352179
v -18.600906 217.545090 -13.502010
v -23.744087 220.802582 -17.103306
v -30.003628 222.409134 -21.486279
v -27.324116 221.994064 -18.651756
v -26.873861 221.994064 -19.294792
v -21.563620 219.364197 -14.618217
v -21.113361 219.364197 -15.261251
v -16.710537 215.323883 -11.220053
v -16.260281 215.323883 -11.863087
v -12.452526 209.591034 -8.238563
v -12.002270 209.591034 -8.881594
v -9.352474 202.508514 -6.067881
v -8.902218 202.508514 -6.710917
v -7.624104 194.877594 -4.857662
v -7.173847 194.877594 -5.500697
v -52.558300 198.735992 -36.320930
v -50.236862 206.072876 -34.695435
v -46.355034 212.775681 -31.977348
v -41.856602 217.545090 -28.827515
v -36.713421 220.802582 -25.226223
v -52.108040 198.735992 -36.963963
v -49.786598 206.072876 -35.338474
v -45.904766 212.775681 -32.620384
v -41.406338 217.545090 -29.470551
v -36.263157 220.802582 -25.869255
v -33.583652 221.994064 -23.034729
v -33.133392 221.994064 -23.677765
v -39.344143 219.364197 -27.068275
v -38.893887 219.364197 -27.711311
v -44.197224 215.323883 -30.466446
v -43.746967 215.323883 -31.109474
v -48.455235 209.591034 -33.447929
v -48.004978 209.591034 -34.090969
v -51.555286 202.508514 -35.618614
v -51.105030 202.508514 -36.261646
v -53.283665 194.877594 -36.828835
v -52.833408 194.877594 -37.471867
v -7.021008 190.745010 -4.435366
v -6.570747 190.745010 -5.078402
v -53.886757 190.745010 -37.251129
v -53.436504 190.745010 -37.894161
v -7.021008 12.933350 -4.435366
v -6.570747 12.933350 -5.078402
v -53.436504 12.933350 -37.894161
v -53.886757 12.933350 -37.251129
vt 0.825858 0.006142
vt 0.796346 0.070664
vt 0.889868 0.006134
vt 0.499216 0.006134
vt 0.528705 0.942671
vt 0.499194 0.927622
vt 1.796345 0.070664
vt 1.796324 0.942678
vt 1.825836 0.927630
vt 1.825858 0.006142
vt 0.825836 0.927630
vt 0.824691 0.933389
vt 1.824691 0.933389
vt 1.858103 0.927623
vt 1.858103 0.006134
vt 0.438631 0.006134
vt 1.836770 0.927623
vt 0.810787 0.942678
vt 1.810787 0.942678
vt 0.796325 0.942678
vt 1.528725 0.070658
vt 1.528705 0.942671
vt 1.514242 0.942671
vt 0.514242 0.942671
vt 1.858104 0.933494
vt 1.836770 0.933494
vt 1.858103 0.939366
vt 1.836770 0.939366
vt 0.500339 0.933381
vt 1.500339 0.933381
vt 1.499194 0.927622
vt 1.499216 0.006134
vt 1.858103 0.945238
vt 1.836770 0.945238
vt 1.858103 0.951109
vt 1.836770 0.951109
vt 1.868534 0.878149
vt 1.836770 0.965572
vt 0.460055 0.609259
vt 1.889868 0.006134
vt 0.460055 0.341639
vt 0.438721 0.341639
vt 0.858103 0.965572
vt 0.836770 0.965572
vt 0.836770 0.951109
vt 0.858103 0.951109
vt 0.858103 0.945237
vt 0.836770 0.945237
vt 0.858103 0.939366
vt 0.889868 0.878149
vt 0.868534 0.878149
vt 0.836770 0.939366
vt 0.858103 0.933494
vt 0.868534 0.006134
vt 0.836770 0.933494
vt 0.528725 0.070658
vt 0.858103 0.927623
vt 0.836770 0.927622
vt 0.459965 0.332777
vt 0.836770 0.006134
vt 1.508483 0.941526
vt 0.508483 0.941526
vt 1.503601 0.938264
vt 0.503601 0.938264
vt 0.816546 0.941533
vt 1.816546 0.941533
vt 0.821428 0.938271
vt 1.821428 0.938271
vt 0.438721 0.609259
vt 1.868534 0.006134
vt 1.889868 0.878149
vt 1.858104 0.965572
vt 1.836770 0.006134
vt 0.459965 0.006134
vt 0.438631 0.332777
vt 0.858103 0.006134
vt 0.475147 0.615185
vt 0.475147 0.606717
vt 0.478661 0.606717
vt 0.429741 0.655641
vt 0.424222 0.655641
vt 0.424222 0.615185
vt 0.429741 0.615185
vt 0.435260 0.655641
vt 0.435260 0.615185
vt 0.440779 0.655641
vt 0.440779 0.615185
vt 0.446298 0.655641
vt 0.446298 0.615185
vt 0.451817 0.655641
vt 0.451817 0.615185
vt 0.457336 0.655641
vt 0.457336 0.615185
vt 0.475141 0.655641
vt 0.406412 0.655641
vt 0.406412 0.615185
vt 0.478655 0.697227
vt 0.475141 0.705697
vt 0.475141 0.697227
vt 0.478640 0.754623
vt 0.475127 0.746152
vt 0.475127 0.754623
vt 0.478655 0.664113
vt 0.475141 0.664113
vt 0.435808 0.689685
vt 0.414484 0.689684
vt 0.414483 0.671874
vt 0.435807 0.671875
vt 0.468760 0.567787
vt 0.468763 0.559316
vt 0.490087 0.559316
vt 0.490088 0.567788
vt 0.415912 0.666543
vt 0.434379 0.666544
vt 0.419814 0.662641
vt 0.430476 0.662641
vt 0.425145 0.661212
vt 0.484943 0.463549
vt 0.474281 0.463549
vt 0.479611 0.462120
vt 0.468946 0.506413
vt 0.468950 0.497942
vt 0.490274 0.497942
vt 0.490274 0.506414
vt 0.490274 0.490593
vt 0.468950 0.490592
vt 0.468950 0.472782
vt 0.490274 0.472783
vt 0.470378 0.467451
vt 0.488845 0.467452
vt 0.475141 0.691708
vt 0.478655 0.691708
vt 0.475141 0.686189
vt 0.478655 0.686189
vt 0.475141 0.680670
vt 0.478655 0.680670
vt 0.475141 0.675151
vt 0.478655 0.675151
vt 0.475141 0.669632
vt 0.478655 0.669632
vt 0.470191 0.573119
vt 0.488659 0.573119
vt 0.484755 0.577023
vt 0.474093 0.577022
vt 0.479424 0.578451
vt 0.475147 0.601197
vt 0.478661 0.601197
vt 0.475147 0.595678
vt 0.478661 0.595678
vt 0.475147 0.590159
vt 0.478661 0.590159
vt 0.478640 0.771180
vt 0.475127 0.771180
vt 0.475127 0.765661
vt 0.478640 0.765661
vt 0.475127 0.760142
vt 0.478640 0.760142
vt 0.470377 0.511745
vt 0.488846 0.511745
vt 0.484942 0.515649
vt 0.474280 0.515647
vt 0.479611 0.517077
vt 0.475147 0.615185
vt 0.475147 0.606717
vt 0.478661 0.606717
vt 0.429741 0.655641
vt 0.424222 0.655641
vt 0.424222 0.615185
vt 0.429741 0.615185
vt 0.435260 0.655641
vt 0.435260 0.615185
vt 0.440779 0.655641
vt 0.440779 0.615185
vt 0.446298 0.655641
vt 0.446298 0.615185
vt 0.451817 0.655641
vt 0.451817 0.615185
vt 0.457336 0.655641
vt 0.457336 0.615185
vt 0.475141 0.655641
vt 0.406412 0.655641
vt 0.406412 0.615185
vt 0.478655 0.697227
vt 0.475141 0.705697
vt 0.475141 0.697227
vt 0.478640 0.754623
vt 0.475127 0.746152
vt 0.475127 0.754623
vt 0.478655 0.664113
vt 0.475141 0.664113
vt 0.490087 0.551967
vt 0.468763 0.551966
vt 0.468763 0.534156
vt 0.490087 0.534157
vt 0.414480 0.705505
vt 0.414484 0.697034
vt 0.435808 0.697034
vt 0.435808 0.705506
vt 0.470191 0.528825
vt 0.488658 0.528826
vt 0.474094 0.524923
vt 0.484756 0.524923
vt 0.479425 0.523494
vt 0.460514 0.662641
vt 0.449852 0.662641
vt 0.455183 0.661212
vt 0.444518 0.705505
vt 0.444522 0.697034
vt 0.465845 0.697034
vt 0.465846 0.705506
vt 0.465845 0.689685
vt 0.444522 0.689684
vt 0.444521 0.671874
vt 0.465845 0.671875
vt 0.445949 0.666543
vt 0.464417 0.666544
vt 0.475141 0.691708
vt 0.478655 0.691708
vt 0.475141 0.686189
vt 0.478655 0.686189
vt 0.475141 0.680670
vt 0.478655 0.680670
vt 0.475141 0.675151
vt 0.478655 0.675151
vt 0.475141 0.669632
vt 0.478655 0.669632
vt 0.415911 0.710837
vt 0.434380 0.710837
vt 0.430475 0.714741
vt 0.419814 0.714740
vt 0.425144 0.716169
vt 0.475147 0.601197
vt 0.478661 0.601197
vt 0.475147 0.595678
vt 0.478661 0.595678
vt 0.475147 0.590159
vt 0.478661 0.590159
vt 0.478640 0.771180
vt 0.475127 0.771180
vt 0.475127 0.765661
vt 0.478640 0.765661
vt 0.475127 0.760142
vt 0.478640 0.760142
vt 0.445949 0.710837
vt 0.464418 0.710837
vt 0.460513 0.714741
vt 0.449852 0.714740
vt 0.455182 0.716169
vt 0.474611 0.044090
vt 0.470851 0.044090
vt 0.470851 0.025094
vt 0.474611 0.025094
vt 0.474611 0.082630
vt 0.470851 0.082630
vt 0.470851 0.062820
vt 0.474611 0.062820
vt 0.470851 0.119764
vt 0.470851 0.102211
vt 0.474611 0.102211
vt 0.474611 0.119764
vt 0.470851 0.154177
vt 0.470851 0.137098
vt 0.474611 0.137098
vt 0.474611 0.154177
vt 0.470851 0.190199
vt 0.470851 0.171031
vt 0.474611 0.171031
vt 0.474611 0.190199
vt 0.470851 0.208605
vt 0.474611 0.208605
vt 0.470851 0.006134
vt 0.474611 0.006134
vt 0.470851 0.373121
vt 0.474611 0.373121
vt 0.474611 0.392116
vt 0.470851 0.392116
vt 0.470851 0.334580
vt 0.474611 0.334580
vt 0.474611 0.354390
vt 0.470851 0.354390
vt 0.474611 0.297446
vt 0.474611 0.314999
vt 0.470851 0.314999
vt 0.470851 0.297446
vt 0.474611 0.263034
vt 0.474611 0.280112
vt 0.470851 0.280112
vt 0.470851 0.263034
vt 0.470851 0.227012
vt 0.474611 0.227012
vt 0.474611 0.246180
vt 0.470851 0.246180
vt 0.474611 0.411076
vt 0.470851 0.411076
vt 0.787375 0.079598
vt 0.787384 0.855668
vt 0.537676 0.855671
vt 0.537668 0.079601
vt 1.787384 0.855668
vt 1.787375 0.079598
vt 1.537668 0.079601
vt 1.537676 0.855671
vt 0.784171 0.873705
vt 0.540890 0.873708
vt 1.679208 0.992055
vt 1.645856 0.992055
vt 1.662532 0.993866
vt 0.780306 0.890546
vt 0.544755 0.890548
vt 1.784171 0.873705
vt 1.540890 0.873708
vt 0.774962 0.907011
vt 0.550099 0.907014
vt 1.544755 0.890548
vt 1.780306 0.890546
vt 0.767938 0.922568
vt 0.557124 0.922571
vt 1.550099 0.907014
vt 1.774962 0.907011
vt 0.758445 0.937923
vt 0.566617 0.937926
vt 1.557124 0.922571
vt 1.767938 0.922568
vt 0.747255 0.951823
vt 0.577808 0.951825
vt 1.566617 0.937926
vt 1.758445 0.937923
vt 0.735758 0.962945
vt 0.589305 0.962947
vt 1.577808 0.951825
vt 1.747255 0.951823
vt 0.723287 0.972640
vt 0.601776 0.972641
vt 1.589305 0.962947
vt 1.735758 0.962945
vt 0.709900 0.980578
vt 0.615163 0.980580
vt 1.601776 0.972641
vt 1.723287 0.972640
vt 0.695884 0.986855
vt 0.629180 0.986857
vt 1.615163 0.980580
vt 1.709900 0.980578
vt 0.679208 0.992055
vt 0.645856 0.992055
vt 1.629180 0.986857
vt 1.695884 0.986855
vt 0.662532 0.993866
vn -0.573577 -0.000000 0.819152
vn -0.573577 -0.000000 0.819152
vn -0.573577 -0.000000 0.819152
vn -0.573577 -0.000000 0.819152
vn -0.573577 -0.000000 0.819152
vn -0.573577 -0.000000 0.819152
vn -0.573577 -0.000000 0.819152
vn -0.573577 -0.000000 0.819152
vn -0.573577 -0.000000 0.819152
vn -0.573577 -0.000000 0.819152
vn -0.573577 -0.000000 0.819152
vn -0.573577 -0.000000 0.819152
vn 0.573576 -0.000000 -0.819152
vn 0.573576 -0.000000 -0.819152
vn 0.573576 0.000000 -0.819152
vn 0.573576 0.000000 -0.819152
vn 0.573576 -0.000000 -0.819152
vn 0.573576 0.000000 -0.819152
vn 0.819151 0.001235 0.573576
vn 0.819152 0.000000 0.573576
vn 0.819151 0.001235 0.573576
vn 0.819151 0.001235 0.573576
vn 0.819152 0.000000 0.573576
vn 0.819152 0.000000 0.573576
vn 0.756798 0.382682 0.529916
vn 0.819151 0.001235 0.573576
vn 0.756798 0.382682 0.529916
vn 0.756798 0.382682 0.529916
vn 0.819151 0.001235 0.573576
vn 0.819151 0.001235 0.573576
vn 0.579226 0.707110 0.405578
vn 0.756798 0.382682 0.529916
vn 0.579225 0.707110 0.405578
vn 0.579225 0.707110 0.405578
vn 0.756798 0.382682 0.529916
vn 0.756798 0.382682 0.529916
vn 0.313476 0.923880 0.219498
vn 0.579226 0.707110 0.405578
vn 0.313476 0.923880 0.219498
vn 0.313476 0.923880 0.219498
vn 0.579226 0.707110 0.405578
vn 0.579225 0.707110 0.405578
vn 0.046331 0.998399 0.032441
vn 0.313476 0.923880 0.219498
vn 0.046331 0.998399 0.032441
vn 0.046331 0.998399 0.032441
vn 0.313476 0.923880 0.219498
vn 0.313476 0.923880 0.219498
vn 0.000000 1.000000 0.000000
vn 0.046331 0.998399 0.032441
vn 0.000000 1.000000 0.000000
vn 0.000000 1.000000 0.000000
vn 0.046331 0.998399 0.032441
vn 0.046331 0.998399 0.032441
vn -0.819152 0.000000 -0.573576
vn -0.819152 0.000000 -0.573576
vn -0.819152 0.000000 -0.573576
vn -0.819152 0.000000 -0.573576
vn -0.819152 0.000000 -0.573576
vn -0.819152 0.000000 -0.573576
vn 0.000000 1.000000 0.000000
vn 0.000000 1.000000 0.000000
vn 0.000000 1.000000 0.000000
vn 0.000000 1.000000 0.000000
vn 0.000000 1.000000 0.000000
vn 0.000000 1.000000 0.000000
vn 0.819152 0.000000 0.573576
vn 0.819152 0.000000 0.573576
vn 0.819152 0.000000 0.573576
vn 0.819152 0.000000 0.573576
vn 0.819152 0.000000 0.573576
vn 0.819152 0.000000 0.573576
vn 0.000000 1.000000 0.000000
vn 0.000000 1.000000 0.000000
vn -0.046331 0.998399 -0.032441
vn -0.046331 0.998399 -0.032441
vn 0.000000 1.000000 0.000000
vn -0.046331 0.998399 -0.032441
vn -0.313477 0.923879 -0.219498
vn -0.046331 0.998399 -0.032441
vn -0.313477 0.923879 -0.219499
vn -0.313477 0.923879 -0.219499
vn -0.046331 0.998399 -0.032441
vn -0.046331 0.998399 -0.032441
vn -0.579224 0.707111 -0.405577
vn -0.313477 0.923879 -0.219498
vn -0.579224 0.707111 -0.405577
vn -0.579224 0.707111 -0.405577
vn -0.313477 0.923879 -0.219498
vn -0.313477 0.923879 -0.219499
vn -0.756798 0.382685 -0.529914
vn -0.579224 0.707111 -0.405577
vn -0.756798 0.382685 -0.529914
vn -0.756798 0.382685 -0.529914
vn -0.579224 0.707111 -0.405577
vn -0.579224 0.707111 -0.405577
vn -0.819152 0.001235 -0.573575
vn -0.756798 0.382685 -0.529914
vn -0.819152 0.001235 -0.573575
vn -0.819152 0.001235 -0.573575
vn -0.756798 0.382685 -0.529914
vn -0.756798 0.382685 -0.529914
vn -0.819153 0.000000 -0.573575
vn -0.819152 0.001235 -0.573575
vn -0.819153 0.000000 -0.573575
vn -0.819153 0.000000 -0.573575
vn -0.819152 0.001235 -0.573575
vn -0.819152 0.001235 -0.573575
vn 0.000000 -1.000000 0.000000
vn 0.000000 -1.000000 0.000000
vn 0.000000 -1.000000 0.000000
vn 0.000000 -1.000000 0.000000
vn 0.000000 -1.000000 0.000000
vn 0.000000 -1.000000 0.000000
vn 0.573577 -0.000003 -0.819151
vn 0.573577 -0.000003 -0.819151
vn 0.573579 -0.000007 -0.819150
vn 0.573579 -0.000007 -0.819150
vn 0.573577 -0.000003 -0.819151
vn 0.573579 -0.000007 -0.819150
vn -0.573577 0.000003 0.819152
vn -0.573577 0.000003 0.819152
vn -0.573575 0.000007 0.819153
vn -0.573575 0.000007 0.819153
vn -0.573577 0.000003 0.819152
vn -0.573575 0.000007 0.819153
vn 0.573577 0.000000 -0.819152
vn 0.573576 0.000000 -0.819152
vn 0.573577 0.000000 -0.819152
vn 0.573577 0.000000 -0.819152
vn 0.573576 0.000000 -0.819152
vn 0.573576 0.000000 -0.819152
vn 0.573576 -0.000000 -0.819152
vn 0.573577 -0.000000 -0.819152
vn 0.573576 -0.000000 -0.819152
vn 0.573576 -0.000000 -0.819152
vn 0.573577 -0.000000 -0.819152
vn 0.573577 -0.000000 -0.819152
vn -0.573577 -0.000000 0.819152
vn -0.573577 0.000000 0.819152
vn -0.573577 -0.000000 0.819152
vn -0.573577 -0.000000 0.819152
vn -0.573577 0.000000 0.819152
vn -0.573577 0.000000 0.819152
vn -0.573577 0.000000 0.819152
vn -0.573577 0.000000 0.819152
vn -0.573577 0.000003 0.819152
vn -0.573577 0.000003 0.819152
vn -0.573577 0.000000 0.819152
vn -0.573577 0.000003 0.819152
vn 0.573577 -0.000000 -0.819152
vn 0.573577 -0.000000 -0.819152
vn 0.573575 -0.000005 -0.819153
vn 0.573575 -0.000005 -0.819153
vn 0.573577 -0.000000 -0.819152
vn 0.573575 -0.000005 -0.819153
vn 0.573577 0.000000 -0.819152
vn 0.573577 -0.000000 -0.819152
vn 0.573577 0.000000 -0.819152
vn 0.573577 0.000000 -0.819152
vn 0.573577 -0.000000 -0.819152
vn 0.573577 -0.000000 -0.819152
vn -0.573577 -0.000000 0.819152
vn -0.573577 -0.000003 0.819152
vn -0.573577 -0.000000 0.819152
vn -0.573577 -0.000000 0.819152
vn -0.573577 -0.000003 0.819152
vn -0.573577 -0.000003 0.819152
vn -0.573577 -0.000003 0.819152
vn -0.573577 -0.000003 0.819152
vn -0.573576 0.000002 0.819152
vn -0.573576 0.000002 0.819152
vn -0.573577 -0.000003 0.819152
vn -0.573576 0.000002 0.819152
vn 0.573577 -0.000000 -0.819152
vn 0.573577 -0.000000 -0.819152
vn 0.573577 -0.000003 -0.819151
vn 0.573577 -0.000003 -0.819151
vn 0.573577 -0.000000 -0.819152
vn 0.573577 -0.000003 -0.819151
vn 0.573573 -0.000000 -0.819155
vn 0.567281 -0.147699 -0.810171
vn 0.572213 -0.068676 -0.817224
vn -0.087156 0.000000 0.996195
vn -0.522020 0.000000 0.852933
vn -0.087156 0.000000 0.996195
vn -0.087156 0.000000 0.996195
vn -0.522020 0.000000 0.852933
vn -0.522020 0.000000 0.852933
vn 0.422618 0.000000 0.906308
vn -0.087156 0.000000 0.996195
vn 0.422618 0.000000 0.906308
vn 0.422618 0.000000 0.906308
vn -0.087156 0.000000 0.996195
vn -0.087156 0.000000 0.996195
vn 0.819151 0.000000 0.573577
vn 0.422618 0.000000 0.906308
vn 0.819151 0.000000 0.573577
vn 0.819151 0.000000 0.573577
vn 0.422618 0.000000 0.906308
vn 0.422618 0.000000 0.906308
vn 0.996195 0.000000 0.087155
vn 0.819151 0.000000 0.573577
vn 0.996195 0.000000 0.087155
vn 0.996195 0.000000 0.087155
vn 0.819151 0.000000 0.573577
vn 0.819151 0.000000 0.573577
vn 0.906307 0.000000 -0.422620
vn 0.996195 0.000000 0.087155
vn 0.906307 0.000000 -0.422620
vn 0.906307 0.000000 -0.422620
vn 0.996195 0.000000 0.087155
vn 0.996195 0.000000 0.087155
vn 0.622955 0.000000 -0.782258
vn 0.906307 0.000000 -0.422620
vn 0.622955 0.000000 -0.782258
vn 0.622955 0.000000 -0.782258
vn 0.906307 0.000000 -0.422620
vn 0.906307 0.000000 -0.422620
vn 0.622955 0.000000 -0.782258
vn 0.573573 -0.000000 -0.819155
vn 0.622955 0.000000 -0.782258
vn 0.622955 0.000000 -0.782258
vn 0.573573 -0.000000 -0.819155
vn 0.573573 -0.000000 -0.819155
vn -0.522020 0.000000 0.852933
vn -0.573574 0.000000 0.819154
vn -0.522020 0.000000 0.852933
vn -0.522020 0.000000 0.852933
vn -0.573574 0.000000 0.819154
vn -0.573574 0.000000 0.819154
vn -0.572214 0.068671 0.817224
vn -0.573574 0.000000 0.819154
vn -0.567281 0.147687 0.810174
vn -0.573574 0.000000 0.819154
vn -0.572214 0.068671 0.817224
vn -0.573574 0.000000 0.819154
vn -0.573574 0.000000 0.819154
vn -0.572214 0.068671 0.817224
vn -0.572216 -0.068662 0.817223
vn -0.573574 0.000000 0.819154
vn -0.572216 -0.068662 0.817223
vn -0.567284 -0.147673 0.810174
vn 0.573573 -0.000000 -0.819155
vn 0.572219 0.068670 -0.817220
vn 0.567295 0.147688 -0.810163
vn 0.573573 -0.000000 -0.819155
vn 0.573573 -0.000000 -0.819155
vn 0.572219 0.068670 -0.817220
vn 0.572219 0.068670 -0.817220
vn 0.573573 -0.000000 -0.819155
vn 0.572213 -0.068676 -0.817224
vn 0.000000 1.000000 0.000000
vn 0.000000 1.000000 0.000000
vn -0.000000 1.000000 -0.000000
vn -0.000000 1.000000 -0.000000
vn 0.000000 1.000000 0.000000
vn -0.000000 1.000000 -0.000000
vn 0.819153 -0.000010 0.573575
vn 0.819153 -0.000005 0.573575
vn 0.819153 -0.000010 0.573575
vn 0.819153 -0.000010 0.573575
vn 0.819153 -0.000005 0.573575
vn 0.819153 -0.000005 0.573575
vn -0.000000 1.000000 -0.000000
vn -0.000000 1.000000 -0.000000
vn -0.000001 1.000000 -0.000001
vn -0.000001 1.000000 -0.000001
vn -0.000000 1.000000 -0.000000
vn -0.000001 1.000000 -0.000001
vn -0.000001 1.000000 -0.000001
vn -0.000001 1.000000 -0.000001
vn -0.000001 1.000000 -0.000001
vn -0.000001 1.000000 -0.000001
vn -0.000001 1.000000 -0.000001
vn -0.000001 1.000000 -0.000001
vn -0.000001 1.000000 -0.000001
vn -0.000001 1.000000 -0.000001
vn 0.000019 1.000000 0.000014
vn -0.000005 -1.000000 -0.000004
vn -0.000005 -1.000000 -0.000004
vn 0.000000 -1.000000 0.000000
vn 0.819154 -0.000038 0.573574
vn 0.819153 -0.000030 0.573575
vn 0.819154 -0.000038 0.573574
vn 0.819154 -0.000038 0.573574
vn 0.819153 -0.000030 0.573575
vn 0.819153 -0.000030 0.573575
vn 0.000000 -1.000000 0.000000
vn 0.000000 -1.000000 0.000000
vn 0.000000 -1.000000 0.000000
vn 0.000000 -1.000000 0.000000
vn 0.000000 -1.000000 0.000000
vn 0.000000 -1.000000 0.000000
vn 0.000000 -1.000000 0.000000
vn 0.000000 -1.000000 0.000000
vn 0.000000 -1.000000 0.000000
vn 0.000000 -1.000000 0.000000
vn 0.000000 -1.000000 0.000000
vn 0.000000 -1.000000 0.000000
vn 0.000000 -1.000000 0.000000
vn 0.000000 -1.000000 0.000000
vn -0.000005 -1.000000 -0.000004
vn -0.000005 -1.000000 -0.000004
vn 0.000000 -1.000000 0.000000
vn -0.000005 -1.000000 -0.000004
vn -0.572214 0.068671 0.817224
vn -0.567281 0.147687 0.810174
vn -0.496684 0.500013 0.709430
vn -0.496684 0.500013 0.709430
vn -0.567281 0.147687 0.810174
vn -0.496694 0.499984 0.709444
vn -0.496684 0.500013 0.709430
vn -0.496694 0.499984 0.709444
vn -0.286711 0.866028 0.409625
vn -0.286711 0.866028 0.409625
vn -0.496694 0.499984 0.709444
vn -0.286722 0.866016 0.409641
vn -0.286711 0.866028 0.409625
vn -0.286722 0.866016 0.409641
vn 0.000082 1.000000 0.000059
vn 0.000082 1.000000 0.000059
vn -0.286722 0.866016 0.409641
vn 0.000079 1.000000 0.000063
vn 0.000082 1.000000 0.000059
vn 0.000079 1.000000 0.000063
vn 0.286867 0.866028 -0.409516
vn 0.286867 0.866028 -0.409516
vn 0.000079 1.000000 0.000063
vn 0.286870 0.866024 -0.409521
vn 0.286867 0.866028 -0.409516
vn 0.286870 0.866024 -0.409521
vn 0.496771 0.500023 -0.709362
vn 0.496771 0.500023 -0.709362
vn 0.286870 0.866024 -0.409521
vn 0.496781 0.499993 -0.709377
vn 0.496771 0.500023 -0.709362
vn 0.496781 0.499993 -0.709377
vn 0.572219 0.068670 -0.817220
vn 0.572219 0.068670 -0.817220
vn 0.496781 0.499993 -0.709377
vn 0.567295 0.147688 -0.810163
vn 0.819154 -0.000006 0.573574
vn 0.819153 -0.000010 0.573575
vn 0.819154 -0.000006 0.573574
vn 0.819154 -0.000006 0.573574
vn 0.819153 -0.000010 0.573575
vn 0.819153 -0.000010 0.573575
vn 0.819154 -0.000006 0.573574
vn 0.819154 -0.000006 0.573574
vn 0.819155 0.000045 0.573573
vn 0.819155 0.000045 0.573573
vn 0.819154 -0.000006 0.573574
vn 0.819155 0.000045 0.573573
vn 0.819155 0.000045 0.573573
vn 0.819156 -0.000072 0.573570
vn 0.819155 0.000045 0.573573
vn 0.572213 -0.068676 -0.817224
vn 0.567281 -0.147699 -0.810171
vn 0.496737 -0.500010 -0.709396
vn 0.496737 -0.500010 -0.709396
vn 0.567281 -0.147699 -0.810171
vn 0.496746 -0.499982 -0.709409
vn 0.496737 -0.500010 -0.709396
vn 0.496746 -0.499982 -0.709409
vn 0.286807 -0.866018 -0.409578
vn 0.286807 -0.866018 -0.409578
vn 0.496746 -0.499982 -0.709409
vn 0.286811 -0.866014 -0.409583
vn 0.286807 -0.866018 -0.409578
vn 0.286811 -0.866014 -0.409583
vn 0.000008 -1.000000 0.000001
vn 0.000008 -1.000000 0.000001
vn 0.286811 -0.866014 -0.409583
vn 0.000009 -1.000000 -0.000001
vn 0.000008 -1.000000 0.000001
vn 0.000009 -1.000000 -0.000001
vn -0.286779 -0.866021 0.409592
vn -0.286779 -0.866021 0.409592
vn 0.000009 -1.000000 -0.000001
vn -0.286774 -0.866026 0.409584
vn -0.286779 -0.866021 0.409592
vn -0.286774 -0.866026 0.409584
vn -0.496722 -0.500004 0.709411
vn -0.496722 -0.500004 0.709411
vn -0.286774 -0.866026 0.409584
vn -0.496732 -0.499973 0.709425
vn -0.496722 -0.500004 0.709411
vn -0.496732 -0.499973 0.709425
vn -0.572216 -0.068662 0.817223
vn -0.572216 -0.068662 0.817223
vn -0.496732 -0.499973 0.709425
vn -0.567284 -0.147673 0.810174
vn 0.819155 -0.000052 0.573573
vn 0.819154 -0.000038 0.573574
vn 0.819155 -0.000052 0.573573
vn 0.819155 -0.000052 0.573573
vn 0.819154 -0.000038 0.573574
vn 0.819154 -0.000038 0.573574
vn 0.819155 -0.000052 0.573573
vn 0.819155 -0.000052 0.573573
vn 0.819155 -0.000044 0.573572
vn 0.819155 -0.000044 0.573572
vn 0.819155 -0.000052 0.573573
vn 0.819155 -0.000044 0.573572
vn 0.819155 -0.000044 0.573572
vn 0.819157 0.000023 0.573569
vn 0.819155 -0.000044 0.573572
vn 0.573573 -0.000000 -0.819155
vn 0.567287 -0.147699 -0.810167
vn 0.572216 -0.068676 -0.817222
vn -0.087157 0.000000 0.996195
vn -0.522020 0.000000 0.852933
vn -0.087157 0.000000 0.996195
vn -0.087157 0.000000 0.996195
vn -0.522020 0.000000 0.852933
vn -0.522020 0.000000 0.852933
vn 0.422618 0.000000 0.906308
vn -0.087157 0.000000 0.996195
vn 0.422618 0.000000 0.906308
vn 0.422618 0.000000 0.906308
vn -0.087157 0.000000 0.996195
vn -0.087157 0.000000 0.996195
vn 0.819151 0.000000 0.573577
vn 0.422618 0.000000 0.906308
vn 0.819151 0.000000 0.573577
vn 0.819151 0.000000 0.573577
vn 0.422618 0.000000 0.906308
vn 0.422618 0.000000 0.906308
vn 0.996195 0.000000 0.087155
vn 0.819151 0.000000 0.573577
vn 0.996195 0.000000 0.087155
vn 0.996195 0.000000 0.087155
vn 0.819151 0.000000 0.573577
vn 0.819151 0.000000 0.573577
vn 0.906307 0.000000 -0.422619
vn 0.996195 0.000000 0.087155
vn 0.906307 0.000000 -0.422619
vn 0.906307 0.000000 -0.422619
vn 0.996195 0.000000 0.087155
vn 0.996195 0.000000 0.087155
vn 0.622955 0.000000 -0.782258
vn 0.906307 0.000000 -0.422619
vn 0.622955 0.000000 -0.782258
vn 0.622955 0.000000 -0.782258
vn 0.906307 0.000000 -0.422619
vn 0.906307 0.000000 -0.422619
vn 0.622955 0.000000 -0.782258
vn 0.573573 -0.000000 -0.819155
vn 0.622955 0.000000 -0.782258
vn 0.622955 0.000000 -0.782258
vn 0.573573 -0.000000 -0.819155
vn 0.573573 -0.000000 -0.819155
vn -0.522020 0.000000 0.852933
vn -0.573574 0.000000 0.819154
vn -0.522020 0.000000 0.852933
vn -0.522020 0.000000 0.852933
vn -0.573574 0.000000 0.819154
vn -0.573574 0.000000 0.819154
vn -0.572210 0.068671 0.817227
vn -0.573574 0.000000 0.819154
vn -0.567272 0.147687 0.810180
vn -0.573574 0.000000 0.819154
vn -0.572210 0.068671 0.817227
vn -0.573574 0.000000 0.819154
vn -0.573574 0.000000 0.819154
vn -0.572210 0.068671 0.817227
vn -0.572214 -0.068662 0.817225
vn -0.573574 0.000000 0.819154
vn -0.572214 -0.068662 0.817225
vn -0.567278 -0.147673 0.810178
vn 0.573573 -0.000000 -0.819155
vn 0.572222 0.068670 -0.817218
vn 0.567301 0.147688 -0.810159
vn 0.573573 -0.000000 -0.819155
vn 0.573573 -0.000000 -0.819155
vn 0.572222 0.068670 -0.817218
vn 0.572222 0.068670 -0.817218
vn 0.573573 -0.000000 -0.819155
vn 0.572216 -0.068676 -0.817222
vn 0.000000 1.000000 0.000000
vn 0.000000 1.000000 0.000000
vn -0.000001 1.000000 -0.000001
vn -0.000001 1.000000 -0.000001
vn 0.000000 1.000000 0.000000
vn -0.000001 1.000000 -0.000001
vn 0.819153 -0.000010 0.573575
vn 0.819153 -0.000005 0.573575
vn 0.819153 -0.000010 0.573575
vn 0.819153 -0.000010 0.573575
vn 0.819153 -0.000005 0.573575
vn 0.819153 -0.000005 0.573575
vn -0.000001 1.000000 -0.000001
vn -0.000001 1.000000 -0.000001
vn -0.000006 1.000000 -0.000004
vn -0.000006 1.000000 -0.000004
vn -0.000001 1.000000 -0.000001
vn -0.000006 1.000000 -0.000004
vn -0.000006 1.000000 -0.000004
vn -0.000006 1.000000 -0.000004
vn 0.000000 1.000000 0.000000
vn 0.000000 1.000000 0.000000
vn -0.000006 1.000000 -0.000004
vn 0.000000 1.000000 0.000000
vn 0.000000 1.000000 0.000000
vn 0.000000 1.000000 0.000000
vn 0.000000 1.000000 0.000000
vn 0.000001 -1.000000 0.000000
vn 0.000001 -1.000000 0.000000
vn 0.000039 -1.000000 0.000027
vn 0.819154 -0.000038 0.573574
vn 0.819153 -0.000030 0.573575
vn 0.819154 -0.000038 0.573574
vn 0.819154 -0.000038 0.573574
vn 0.819153 -0.000030 0.573575
vn 0.819153 -0.000030 0.573575
vn 0.000000 -1.000000 0.000000
vn 0.000000 -1.000000 0.000000
vn -0.000001 -1.000000 -0.000001
vn -0.000001 -1.000000 -0.000001
vn 0.000000 -1.000000 0.000000
vn -0.000001 -1.000000 -0.000001
vn -0.000001 -1.000000 -0.000001
vn -0.000001 -1.000000 -0.000001
vn -0.000006 -1.000000 -0.000004
vn -0.000006 -1.000000 -0.000004
vn -0.000001 -1.000000 -0.000001
vn -0.000006 -1.000000 -0.000004
vn -0.000006 -1.000000 -0.000004
vn -0.000006 -1.000000 -0.000004
vn 0.000001 -1.000000 0.000000
vn 0.000001 -1.000000 0.000000
vn -0.000006 -1.000000 -0.000004
vn 0.000001 -1.000000 0.000000
vn -0.572210 0.068671 0.817227
vn -0.567272 0.147687 0.810180
vn -0.496672 0.500014 0.709439
vn -0.496672 0.500014 0.709439
vn -0.567272 0.147687 0.810180
vn -0.496682 0.499984 0.709453
vn -0.496672 0.500014 0.709439
vn -0.496682 0.499984 0.709453
vn -0.286707 0.866028 0.409628
vn -0.286707 0.866028 0.409628
vn -0.496682 0.499984 0.709453
vn -0.286718 0.866016 0.409644
vn -0.286707 0.866028 0.409628
vn -0.286718 0.866016 0.409644
vn 0.000062 1.000000 0.000045
vn 0.000062 1.000000 0.000045
vn -0.286718 0.866016 0.409644
vn 0.000059 1.000000 0.000050
vn 0.000062 1.000000 0.000045
vn 0.000059 1.000000 0.000050
vn 0.286841 0.866028 -0.409534
vn 0.286841 0.866028 -0.409534
vn 0.000059 1.000000 0.000050
vn 0.286845 0.866024 -0.409539
vn 0.286841 0.866028 -0.409534
vn 0.286845 0.866024 -0.409539
vn 0.496771 0.500023 -0.709362
vn 0.496771 0.500023 -0.709362
vn 0.286845 0.866024 -0.409539
vn 0.496781 0.499993 -0.709377
vn 0.496771 0.500023 -0.709362
vn 0.496781 0.499993 -0.709377
vn 0.572222 0.068670 -0.817218
vn 0.572222 0.068670 -0.817218
vn 0.496781 0.499993 -0.709377
vn 0.567301 0.147688 -0.810159
vn 0.819154 -0.000006 0.573574
vn 0.819153 -0.000010 0.573575
vn 0.819154 -0.000006 0.573574
vn 0.819154 -0.000006 0.573574
vn 0.819153 -0.000010 0.573575
vn 0.819153 -0.000010 0.573575
vn 0.819154 -0.000006 0.573574
vn 0.819154 -0.000006 0.573574
vn 0.819155 0.000045 0.573573
vn 0.819155 0.000045 0.573573
vn 0.819154 -0.000006 0.573574
vn 0.819155 0.000045 0.573573
vn 0.819155 0.000045 0.573573
vn 0.819156 -0.000072 0.573570
vn 0.819155 0.000045 0.573573
vn 0.572216 -0.068676 -0.817222
vn 0.567287 -0.147699 -0.810167
vn 0.496748 -0.500010 -0.709388
vn 0.496748 -0.500010 -0.709388
vn 0.567287 -0.147699 -0.810167
vn 0.496758 -0.499982 -0.709401
vn 0.496748 -0.500010 -0.709388
vn 0.496758 -0.499982 -0.709401
vn 0.286827 -0.866018 -0.409564
vn 0.286827 -0.866018 -0.409564
vn 0.496758 -0.499982 -0.709401
vn 0.286831 -0.866014 -0.409570
vn 0.286827 -0.866018 -0.409564
vn 0.286831 -0.866014 -0.409570
vn 0.000026 -1.000000 0.000013
vn 0.000026 -1.000000 0.000013
vn 0.286831 -0.866014 -0.409570
vn 0.000027 -1.000000 0.000012
vn 0.000026 -1.000000 0.000013
vn 0.000027 -1.000000 0.000012
vn -0.286769 -0.866021 0.409599
vn -0.286769 -0.866021 0.409599
vn 0.000027 -1.000000 0.000012
vn -0.286764 -0.866026 0.409591
vn -0.286769 -0.866021 0.409599
vn -0.286764 -0.866026 0.409591
vn -0.496711 -0.500004 0.709418
vn -0.496711 -0.500004 0.709418
vn -0.286764 -0.866026 0.409591
vn -0.496721 -0.499973 0.709433
vn -0.496711 -0.500004 0.709418
vn -0.496721 -0.499973 0.709433
vn -0.572214 -0.068662 0.817225
vn -0.572214 -0.068662 0.817225
vn -0.496721 -0.499973 0.709433
vn -0.567278 -0.147673 0.810178
vn 0.819155 -0.000052 0.573573
vn 0.819154 -0.000038 0.573574
vn 0.819155 -0.000052 0.573573
vn 0.819155 -0.000052 0.573573
vn 0.819154 -0.000038 0.573574
vn 0.819154 -0.000038 0.573574
vn 0.819155 -0.000052 0.573573
vn 0.819155 -0.000052 0.573573
vn 0.819155 -0.000044 0.573572
vn 0.819155 -0.000044 0.573572
vn 0.819155 -0.000052 0.573573
vn 0.819155 -0.000044 0.573572
vn 0.819155 -0.000044 0.573572
vn 0.819157 0.000023 0.573569
vn 0.819155 -0.000044 0.573572
vn 0.764130 0.360316 0.535050
vn 0.764130 0.360315 0.535050
vn 0.789527 0.266501 0.552833
vn 0.789527 0.266501 0.552833
vn 0.764130 0.360315 0.535050
vn 0.789527 0.266501 0.552833
vn 0.668870 0.577290 0.468348
vn 0.668870 0.577290 0.468348
vn 0.722480 0.471278 0.505886
vn 0.722480 0.471278 0.505886
vn 0.668870 0.577290 0.468348
vn 0.722479 0.471278 0.505886
vn 0.537135 0.755004 0.376105
vn 0.606841 0.671709 0.424914
vn 0.537135 0.755004 0.376105
vn 0.537135 0.755004 0.376105
vn 0.606841 0.671709 0.424914
vn 0.606841 0.671709 0.424914
vn 0.377241 0.887646 0.264149
vn 0.461525 0.826171 0.323165
vn 0.377241 0.887646 0.264149
vn 0.377241 0.887646 0.264149
vn 0.461525 0.826171 0.323165
vn 0.461526 0.826171 0.323165
vn 0.168536 0.978606 0.118009
vn 0.286930 0.936646 0.200910
vn 0.168535 0.978606 0.118009
vn 0.168535 0.978606 0.118009
vn 0.286930 0.936646 0.200910
vn 0.286930 0.936646 0.200910
vn -0.000000 1.000000 -0.000000
vn 0.168536 0.978606 0.118009
vn 0.000000 1.000000 0.000000
vn 0.000000 1.000000 0.000000
vn 0.168536 0.978606 0.118009
vn 0.168535 0.978606 0.118009
vn 0.286930 0.936646 0.200910
vn 0.286930 0.936646 0.200910
vn 0.377241 0.887646 0.264149
vn 0.377241 0.887646 0.264149
vn 0.286930 0.936646 0.200910
vn 0.377241 0.887646 0.264149
vn 0.461526 0.826171 0.323165
vn 0.461525 0.826171 0.323165
vn 0.537135 0.755004 0.376105
vn 0.537135 0.755004 0.376105
vn 0.461525 0.826171 0.323165
vn 0.537135 0.755004 0.376105
vn 0.606841 0.671709 0.424914
vn 0.606841 0.671709 0.424914
vn 0.668870 0.577290 0.468348
vn 0.668870 0.577290 0.468348
vn 0.606841 0.671709 0.424914
vn 0.668870 0.577290 0.468348
vn 0.722480 0.471278 0.505886
vn 0.722479 0.471278 0.505886
vn 0.764130 0.360316 0.535050
vn 0.764130 0.360316 0.535050
vn 0.722479 0.471278 0.505886
vn 0.764130 0.360315 0.535050
vn 0.789527 0.266501 0.552833
vn 0.789527 0.266501 0.552833
vn 0.798396 0.223686 0.559043
vn 0.798396 0.223686 0.559043
vn 0.789527 0.266501 0.552833
vn 0.798396 0.223686 0.559043
vn -0.764127 0.360317 -0.535053
vn -0.764127 0.360317 -0.535053
vn -0.789526 0.266502 -0.552835
vn -0.789526 0.266502 -0.552835
vn -0.764127 0.360317 -0.535053
vn -0.789526 0.266502 -0.552835
vn -0.668871 0.577288 -0.468348
vn -0.668871 0.577288 -0.468348
vn -0.722477 0.471281 -0.505887
vn -0.722477 0.471281 -0.505887
vn -0.668871 0.577288 -0.468348
vn -0.722477 0.471281 -0.505887
vn -0.537132 0.755005 -0.376107
vn -0.606841 0.671708 -0.424915
vn -0.537132 0.755005 -0.376107
vn -0.537132 0.755005 -0.376107
vn -0.606841 0.671708 -0.424915
vn -0.606841 0.671707 -0.424915
vn -0.377241 0.887645 -0.264151
vn -0.461524 0.826171 -0.323168
vn -0.377241 0.887645 -0.264151
vn -0.377241 0.887645 -0.264151
vn -0.461524 0.826171 -0.323168
vn -0.461524 0.826171 -0.323168
vn -0.168533 0.978606 -0.118009
vn -0.168533 0.978606 -0.118009
vn -0.286929 0.936646 -0.200912
vn -0.286929 0.936646 -0.200912
vn -0.168533 0.978606 -0.118009
vn -0.286929 0.936646 -0.200912
vn -0.000000 1.000000 -0.000000
vn 0.000000 1.000000 0.000000
vn -0.168533 0.978606 -0.118009
vn -0.168533 0.978606 -0.118009
vn 0.000000 1.000000 0.000000
vn -0.168533 0.978606 -0.118009
vn -0.286929 0.936646 -0.200912
vn -0.286929 0.936646 -0.200912
vn -0.377241 0.887645 -0.264151
vn -0.377241 0.887645 -0.264151
vn -0.286929 0.936646 -0.200912
vn -0.377241 0.887645 -0.264151
vn -0.461524 0.826171 -0.323168
vn -0.461524 0.826171 -0.323168
vn -0.537132 0.755005 -0.376107
vn -0.537132 0.755005 -0.376107
vn -0.461524 0.826171 -0.323168
vn -0.537132 0.755005 -0.376107
vn -0.606841 0.671707 -0.424915
vn -0.606841 0.671708 -0.424915
vn -0.668871 0.577288 -0.468348
vn -0.668871 0.577288 -0.468348
vn -0.606841 0.671708 -0.424915
vn -0.668871 0.577288 -0.468348
vn -0.722477 0.471281 -0.505887
vn -0.722477 0.471281 -0.505887
vn -0.764127 0.360317 -0.535053
vn -0.764127 0.360317 -0.535053
vn -0.722477 0.471281 -0.505887
vn -0.764127 0.360317 -0.535053
vn -0.789526 0.266502 -0.552835
vn -0.789526 0.266502 -0.552835
vn -0.798395 0.223688 -0.559043
vn -0.798395 0.223688 -0.559043
vn -0.789526 0.266502 -0.552835
vn -0.798395 0.223688 -0.559043
vn -0.573577 0.000000 0.819152
vn -0.573577 -0.000000 0.819152
vn -0.573577 0.000000 0.819152
vn -0.573577 0.000000 0.819152
vn -0.573577 -0.000000 0.819152
vn -0.573577 -0.000000 0.819152
vn 0.573576 0.000000 -0.819152
vn 0.573576 0.000000 -0.819152
vn 0.573576 0.000000 -0.819152
vn 0.573576 0.000000 -0.819152
vn 0.573576 0.000000 -0.819152
vn 0.573576 0.000000 -0.819152
vn -0.573576 0.000000 0.819152
vn -0.573576 0.000000 0.819152
vn -0.573577 -0.000000 0.819152
vn -0.573577 -0.000000 0.819152
vn -0.573576 0.000000 0.819152
vn -0.573577 -0.000000 0.819152
vn 0.573576 0.000000 -0.819152
vn 0.573576 0.000000 -0.819152
vn 0.573576 0.000000 -0.819152
vn -0.573576 0.000000 0.819152
vn -0.573576 0.000001 0.819152
vn -0.573576 0.000000 0.819152
vn -0.573576 0.000000 0.819152
vn -0.573576 0.000001 0.819152
vn -0.573576 0.000001 0.819152
vn 0.573576 0.000000 -0.819152
vn 0.573576 0.000000 -0.819152
vn 0.573576 0.000000 -0.819152
vn 0.573576 0.000000 -0.819152
vn 0.573576 0.000000 -0.819152
vn 0.573576 0.000000 -0.819152
vn -0.573576 0.000001 0.819152
vn -0.573576 0.000001 0.819152
vn -0.573576 -0.000000 0.819152
vn -0.573576 -0.000000 0.819152
vn -0.573576 0.000001 0.819152
vn -0.573576 -0.000000 0.819152
vn 0.573576 0.000000 -0.819152
vn 0.573576 0.000000 -0.819152
vn 0.573576 0.000000 -0.819152
vn 0.573576 0.000000 -0.819152
vn 0.573576 0.000000 -0.819152
vn 0.573576 0.000000 -0.819152
vn -0.573576 -0.000000 0.819152
vn -0.573576 -0.000000 0.819152
vn -0.573576 -0.000001 0.819152
vn -0.573576 -0.000001 0.819152
vn -0.573576 -0.000000 0.819152
vn -0.573576 -0.000001 0.819152
vn 0.573576 0.000000 -0.819152
vn 0.573576 0.000000 -0.819152
vn 0.573576 -0.000000 -0.819152
vn 0.573576 -0.000000 -0.819152
vn 0.573576 0.000000 -0.819152
vn 0.573576 -0.000000 -0.819152
vn -0.573576 -0.000001 0.819152
vn -0.573576 -0.000001 0.819152
vn -0.573576 0.000000 0.819152
vn -0.573576 0.000000 0.819152
vn -0.573576 -0.000001 0.819152
vn -0.573576 0.000000 0.819152
vn 0.573576 -0.000000 -0.819152
vn 0.573576 -0.000000 -0.819152
vn 0.573576 -0.000000 -0.819152
vn 0.573576 -0.000000 -0.819152
vn 0.573576 -0.000000 -0.819152
vn 0.573576 -0.000000 -0.819152
vn -0.573576 0.000000 0.819152
vn -0.573576 0.000000 0.819152
vn -0.573576 0.000001 0.819152
vn -0.573576 0.000001 0.819152
vn -0.573576 0.000000 0.819152
vn -0.573576 0.000001 0.819152
vn 0.573576 -0.000000 -0.819152
vn 0.573576 -0.000000 -0.819152
vn 0.573576 -0.000001 -0.819152
vn 0.573576 -0.000001 -0.819152
vn 0.573576 -0.000000 -0.819152
vn 0.573576 -0.000001 -0.819152
vn -0.573576 0.000001 0.819152
vn -0.573576 0.000001 0.819152
vn -0.573576 0.000001 0.819152
vn -0.573576 0.000001 0.819152
vn -0.573576 0.000001 0.819152
vn -0.573576 0.000001 0.819152
vn 0.573576 -0.000001 -0.819152
vn 0.573576 -0.000001 -0.819152
vn 0.573576 0.000001 -0.819152
vn 0.573576 0.000001 -0.819152
vn 0.573576 -0.000001 -0.819152
vn 0.573576 0.000001 -0.819152
vn -0.573576 0.000001 0.819152
vn -0.573576 0.000001 0.819152
vn -0.573576 -0.000003 0.819152
vn -0.573576 -0.000003 0.819152
vn -0.573576 0.000001 0.819152
vn -0.573576 -0.000003 0.819152
vn 0.573576 0.000001 -0.819152
vn 0.573576 0.000001 -0.819152
vn 0.573576 0.000001 -0.819152
vn 0.573576 0.000001 -0.819152
vn 0.573576 0.000001 -0.819152
vn 0.573576 0.000001 -0.819152
vn -0.573576 -0.000003 0.819152
vn -0.573576 -0.000003 0.819152
vn -0.573576 0.000001 0.819152
vn -0.573576 0.000001 0.819152
vn -0.573576 -0.000003 0.819152
vn -0.573576 0.000001 0.819152
vn 0.573576 0.000001 -0.819152
vn 0.573576 0.000001 -0.819152
vn 0.573576 0.000002 -0.819152
vn 0.573576 0.000002 -0.819152
vn 0.573576 0.000001 -0.819152
vn 0.573576 0.000002 -0.819152
vn -0.573576 0.000001 0.819152
vn -0.573576 0.000001 0.819152
vn -0.573576 -0.000001 0.819152
vn -0.573576 -0.000001 0.819152
vn -0.573576 0.000001 0.819152
vn -0.573576 -0.000001 0.819152
vn 0.573576 0.000002 -0.819152
vn 0.573576 0.000002 -0.819152
vn 0.573576 -0.000000 -0.819152
vn 0.573576 -0.000000 -0.819152
vn 0.573576 0.000002 -0.819152
vn 0.573576 -0.000000 -0.819152
vn -0.573576 -0.000001 0.819152
vn -0.573576 -0.000001 0.819152
vn -0.573576 -0.000000 0.819152
vn -0.573576 -0.000000 0.819152
vn -0.573576 -0.000001 0.819152
vn -0.573576 -0.000000 0.819152
vn 0.573576 -0.000000 -0.819152
vn 0.573576 -0.000000 -0.819152
vn 0.573576 0.000001 -0.819152
vn 0.573576 0.000001 -0.819152
vn 0.573576 -0.000000 -0.819152
vn 0.573576 0.000001 -0.819152
vn -0.573576 -0.000000 0.819152
vn -0.573576 -0.000000 0.819152
vn -0.573576 -0.000010 0.819152
vn 0.573576 0.000001 -0.819152
vn 0.573576 0.000001 -0.819152
vn 0.573576 0.000000 -0.819152
vn 0.573576 0.000000 -0.819152
vn 0.573576 0.000001 -0.819152
vn 0.573576 0.000000 -0.819152
s off
g SM_RoomDivider_02a
f 1/1/1 5/2/2 7/4/3
f 7/4/4 5/2/5 11/56/6
f 10/5/7 27/6/8 11/56/9
f 11/56/10 27/6/11 7/4/12
f 3/8/13 22/9/14 6/7/15
f 6/7/16 22/9/17 2/10/18
f 14/14/19 1/15/20 22/17/21
f 22/17/22 1/15/23 2/73/24
f 15/25/25 14/14/26 21/26/27
f 21/26/28 14/14/29 22/17/30
f 16/27/31 15/25/32 20/28/33
f 20/28/34 15/25/35 21/26/36
f 17/33/37 16/27/38 19/34/39
f 19/34/40 16/27/41 20/28/42
f 13/35/43 17/33/44 18/36/45
f 18/36/46 17/33/47 19/34/48
f 4/72/49 13/35/50 3/38/51
f 3/38/52 13/35/53 18/36/54
f 5/70/55 4/37/56 6/40/57
f 6/40/58 4/37/59 3/71/60
f 11/41/61 5/39/62 12/42/63
f 12/42/64 5/39/65 6/69/66
f 12/3/67 9/50/68 11/54/69
f 11/54/70 9/50/71 10/51/72
f 10/43/73 9/44/74 23/46/75
f 23/46/76 9/44/77 28/45/78
f 24/47/79 23/46/80 32/48/81
f 32/48/82 23/46/83 28/45/84
f 25/49/85 24/47/86 31/52/87
f 31/52/88 24/47/89 32/48/90
f 26/53/91 25/49/92 30/55/93
f 30/55/94 25/49/95 31/52/96
f 27/57/97 26/53/98 29/58/99
f 29/58/100 26/53/101 30/55/102
f 7/76/103 27/57/104 8/60/105
f 8/60/106 27/57/107 29/58/108
f 1/74/109 7/59/110 2/16/111
f 2/16/112 7/59/113 8/75/114
f 28/23/115 30/30/116 32/61/117
f 32/61/118 30/30/119 31/63/120
f 13/18/121 15/12/122 17/65/123
f 17/65/124 15/12/125 16/67/126
f 12/21/127 6/7/128 8/32/129
f 8/32/130 6/7/131 2/10/132
f 3/8/133 18/19/134 22/9/135
f 22/9/136 18/19/137 21/13/138
f 1/1/139 14/11/140 5/2/141
f 5/2/142 14/11/143 4/20/144
f 4/20/145 14/11/146 13/18/147
f 13/18/148 14/11/149 15/12/150
f 21/13/151 18/19/152 20/68/153
f 20/68/154 18/19/155 19/66/156
f 8/32/157 29/31/158 12/21/159
f 12/21/160 29/31/161 9/22/162
f 10/5/163 23/24/164 27/6/165
f 27/6/166 23/24/167 26/29/168
f 26/29/169 23/24/170 25/64/171
f 25/64/172 23/24/173 24/62/174
f 9/22/175 29/31/176 28/23/177
f 28/23/178 29/31/179 30/30/180
f 58/77/181 37/78/182 40/79/183
f 43/80/184 42/81/185 52/83/186
f 52/83/187 42/81/188 51/82/189
f 44/84/190 43/80/191 53/85/192
f 53/85/193 43/80/194 52/83/195
f 45/86/196 44/84/197 54/87/198
f 54/87/199 44/84/200 53/85/201
f 46/88/202 45/86/203 55/89/204
f 55/89/205 45/86/206 54/87/207
f 47/90/208 46/88/209 56/91/210
f 56/91/211 46/88/212 55/89/213
f 48/92/214 47/90/215 57/93/216
f 57/93/217 47/90/218 56/91/219
f 57/93/220 58/77/221 48/92/222
f 48/92/223 58/77/224 49/94/225
f 42/81/226 41/95/227 51/82/228
f 51/82/229 41/95/230 50/96/231
f 34/97/232 41/98/233 33/99/234
f 41/98/235 34/97/236 50/101/237
f 50/101/238 34/97/239 39/100/240
f 50/101/241 39/100/242 38/102/243
f 49/94/244 36/103/245 35/104/246
f 49/94/247 58/77/248 36/103/249
f 36/103/250 58/77/251 40/79/252
f 49/105/253 41/106/254 48/108/255
f 48/108/256 41/106/257 42/107/258
f 33/109/259 41/110/260 35/112/261
f 35/112/262 41/110/263 49/111/264
f 48/108/265 42/107/266 47/114/267
f 47/114/268 42/107/269 43/113/270
f 47/114/271 43/113/272 46/116/273
f 46/116/274 43/113/275 44/115/276
f 46/116/277 44/115/278 45/117/279
f 53/118/280 55/119/281 54/120/282
f 37/121/283 58/122/284 38/124/285
f 38/124/286 58/122/287 50/123/288
f 50/125/289 58/126/290 51/128/291
f 51/128/292 58/126/293 57/127/294
f 51/128/295 57/127/296 52/130/297
f 52/130/298 57/127/299 56/129/300
f 52/130/301 56/129/302 53/118/303
f 53/118/304 56/129/305 55/119/306
f 34/97/307 33/99/308 64/132/309
f 64/132/310 33/99/311 59/131/312
f 64/132/313 59/131/314 65/134/315
f 65/134/316 59/131/317 60/133/318
f 65/134/319 60/133/320 66/136/321
f 66/136/322 60/133/323 61/135/324
f 66/136/325 61/135/326 67/138/327
f 67/138/328 61/135/329 62/137/330
f 67/138/331 62/137/332 68/140/333
f 68/140/334 62/137/335 63/139/336
f 68/140/337 63/139/338 36/103/339
f 36/103/340 63/139/341 35/104/342
f 59/141/343 33/109/344 63/142/345
f 63/142/346 33/109/347 35/112/348
f 59/141/349 63/142/350 60/144/351
f 60/144/352 63/142/353 62/143/354
f 62/143/355 61/145/356 60/144/357
f 40/79/358 37/78/359 74/147/360
f 74/147/361 37/78/362 69/146/363
f 74/147/364 69/146/365 75/149/366
f 75/149/367 69/146/368 70/148/369
f 75/149/370 70/148/371 76/151/372
f 76/151/373 70/148/374 71/150/375
f 76/152/376 71/153/377 77/155/378
f 77/155/379 71/153/380 72/154/381
f 77/155/382 72/154/383 78/157/384
f 78/157/385 72/154/386 73/156/387
f 78/157/388 73/156/389 39/100/390
f 39/100/391 73/156/392 38/102/393
f 69/158/394 37/121/395 73/159/396
f 73/159/397 37/121/398 38/124/399
f 69/158/400 73/159/401 70/161/402
f 70/161/403 73/159/404 72/160/405
f 72/160/406 71/162/407 70/161/408
f 104/163/409 83/164/410 86/165/411
f 89/166/412 88/167/413 98/169/414
f 98/169/415 88/167/416 97/168/417
f 90/170/418 89/166/419 99/171/420
f 99/171/421 89/166/422 98/169/423
f 91/172/424 90/170/425 100/173/426
f 100/173/427 90/170/428 99/171/429
f 92/174/430 91/172/431 101/175/432
f 101/175/433 91/172/434 100/173/435
f 93/176/436 92/174/437 102/177/438
f 102/177/439 92/174/440 101/175/441
f 94/178/442 93/176/443 103/179/444
f 103/179/445 93/176/446 102/177/447
f 103/179/448 104/163/449 94/178/450
f 94/178/451 104/163/452 95/180/453
f 88/167/454 87/181/455 97/168/456
f 97/168/457 87/181/458 96/182/459
f 80/183/460 87/184/461 79/185/462
f 87/184/463 80/183/464 96/187/465
f 96/187/466 80/183/467 85/186/468
f 96/187/469 85/186/470 84/188/471
f 95/180/472 82/189/473 81/190/474
f 95/180/475 104/163/476 82/189/477
f 82/189/478 104/163/479 86/165/480
f 95/191/481 87/192/482 94/194/483
f 94/194/484 87/192/485 88/193/486
f 79/195/487 87/196/488 81/198/489
f 81/198/490 87/196/491 95/197/492
f 94/194/493 88/193/494 93/200/495
f 93/200/496 88/193/497 89/199/498
f 93/200/499 89/199/500 92/202/501
f 92/202/502 89/199/503 90/201/504
f 92/202/505 90/201/506 91/203/507
f 99/204/508 101/205/509 100/206/510
f 83/207/511 104/208/512 84/210/513
f 84/210/514 104/208/515 96/209/516
f 96/211/517 104/212/518 97/214/519
f 97/214/520 104/212/521 103/213/522
f 97/214/523 103/213/524 98/216/525
f 98/216/526 103/213/527 102/215/528
f 98/216/529 102/215/530 99/204/531
f 99/204/532 102/215/533 101/205/534
f 80/183/535 79/185/536 110/218/537
f 110/218/538 79/185/539 105/217/540
f 110/218/541 105/217/542 111/220/543
f 111/220/544 105/217/545 106/219/546
f 111/220/547 106/219/548 112/222/549
f 112/222/550 106/219/551 107/221/552
f 112/222/553 107/221/554 113/224/555
f 113/224/556 107/221/557 108/223/558
f 113/224/559 108/223/560 114/226/561
f 114/226/562 108/223/563 109/225/564
f 114/226/565 109/225/566 82/189/567
f 82/189/568 109/225/569 81/190/570
f 105/227/571 79/195/572 109/228/573
f 109/228/574 79/195/575 81/198/576
f 105/227/577 109/228/578 106/230/579
f 106/230/580 109/228/581 108/229/582
f 108/229/583 107/231/584 106/230/585
f 86/165/586 83/164/587 120/233/588
f 120/233/589 83/164/590 115/232/591
f 120/233/592 115/232/593 121/235/594
f 121/235/595 115/232/596 116/234/597
f 121/235/598 116/234/599 122/237/600
f 122/237/601 116/234/602 117/236/603
f 122/238/604 117/239/605 123/241/606
f 123/241/607 117/239/608 118/240/609
f 123/241/610 118/240/611 124/243/612
f 124/243/613 118/240/614 119/242/615
f 124/243/616 119/242/617 85/186/618
f 85/186/619 119/242/620 84/188/621
f 115/244/622 83/207/623 119/245/624
f 119/245/625 83/207/626 84/210/627
f 115/244/628 119/245/629 116/247/630
f 116/247/631 119/245/632 118/246/633
f 118/246/634 117/248/635 116/247/636
f 146/249/637 145/250/638 131/252/639
f 131/252/640 145/250/641 125/251/642
f 144/253/643 143/254/644 132/256/645
f 132/256/646 143/254/647 126/255/648
f 141/257/649 127/258/650 142/260/651
f 142/260/652 127/258/653 133/259/654
f 139/261/655 128/262/656 140/264/657
f 140/264/658 128/262/659 134/263/660
f 137/265/661 129/266/662 138/268/663
f 138/268/664 129/266/665 135/267/666
f 130/269/667 137/265/668 136/270/669
f 136/270/670 137/265/671 138/268/672
f 135/267/673 129/266/674 140/264/675
f 140/264/676 129/266/677 139/261/678
f 134/263/679 128/262/680 142/260/681
f 142/260/682 128/262/683 141/257/684
f 133/259/685 127/258/686 144/253/687
f 144/253/688 127/258/689 143/254/690
f 132/256/691 126/255/692 146/249/693
f 146/249/694 126/255/695 145/250/696
f 131/252/697 125/251/698 148/272/699
f 148/272/700 125/251/701 147/271/702
f 167/273/703 168/274/704 149/276/705
f 149/276/706 168/274/707 154/275/708
f 165/277/709 166/278/710 150/280/711
f 150/280/712 166/278/713 155/279/714
f 164/281/715 156/282/716 163/284/717
f 163/284/718 156/282/719 151/283/720
f 162/285/721 157/286/722 161/288/723
f 161/288/724 157/286/725 152/287/726
f 159/289/727 160/290/728 153/292/729
f 153/292/730 160/290/731 158/291/732
f 130/269/733 136/270/734 159/289/735
f 159/289/736 136/270/737 160/290/738
f 153/292/739 158/291/740 161/288/741
f 161/288/742 158/291/743 162/285/744
f 152/287/745 157/286/746 163/284/747
f 163/284/748 157/286/749 164/281/750
f 151/283/751 156/282/752 165/277/753
f 165/277/754 156/282/755 166/278/756
f 150/280/757 155/279/758 167/273/759
f 167/273/760 155/279/761 168/274/762
f 149/276/763 154/275/764 169/294/765
f 169/294/766 154/275/767 170/293/768
f 175/295/769 171/296/770 178/298/771
f 178/298/772 171/296/773 173/297/774
f 172/299/775 176/300/776 174/302/777
f 174/302/778 176/300/779 177/301/780
f 147/303/781 169/304/782 171/296/783
f 171/296/784 169/304/785 173/297/786
f 138/305/787 160/306/788 136/307/789
f 147/303/790 125/308/791 169/304/792
f 169/304/793 125/308/794 149/309/795
f 148/310/796 172/299/797 170/311/798
f 170/311/799 172/299/800 174/302/801
f 149/309/802 125/308/803 167/313/804
f 167/313/805 125/308/806 145/312/807
f 148/310/808 170/311/809 131/315/810
f 131/315/811 170/311/812 154/314/813
f 167/313/814 145/312/815 150/317/816
f 150/317/817 145/312/818 126/316/819
f 131/315/820 154/314/821 146/319/822
f 146/319/823 154/314/824 168/318/825
f 150/317/826 126/316/827 165/321/828
f 165/321/829 126/316/830 143/320/831
f 146/319/832 168/318/833 132/323/834
f 132/323/835 168/318/836 155/322/837
f 165/321/838 143/320/839 151/325/840
f 151/325/841 143/320/842 127/324/843
f 132/323/844 155/322/845 144/327/846
f 144/327/847 155/322/848 166/326/849
f 151/325/850 127/324/851 163/329/852
f 163/329/853 127/324/854 141/328/855
f 144/327/856 166/326/857 133/331/858
f 133/331/859 166/326/860 156/330/861
f 163/329/862 141/328/863 152/333/864
f 152/333/865 141/328/866 128/332/867
f 133/331/868 156/330/869 142/335/870
f 142/335/871 156/330/872 164/334/873
f 152/333/874 128/332/875 161/337/876
f 161/337/877 128/332/878 139/336/879
f 142/335/880 164/334/881 134/339/882
f 134/339/883 164/334/884 157/338/885
f 161/337/886 139/336/887 153/341/888
f 153/341/889 139/336/890 129/340/891
f 134/339/892 157/338/893 140/343/894
f 140/343/895 157/338/896 162/342/897
f 153/341/898 129/340/899 159/345/900
f 159/345/901 129/340/902 137/344/903
f 140/343/904 162/342/905 135/347/906
f 135/347/907 162/342/908 158/346/909
f 159/345/910 137/344/911 130/348/912
f 135/347/913 158/346/914 138/305/915
f 138/305/916 158/346/917 160/306/918
