# This file uses feet as units for non-parametric coordinates.

g default
v 56.887169 -0.454490 42.551727
v 59.442101 -0.454490 38.902901
v 54.394615 195.091187 35.368614
v 51.839684 195.091187 39.017441
v 51.839684 13.017578 39.017441
v 54.394615 13.017578 35.368614
v 1.019478 -0.454490 3.432739
v 3.574409 -0.454490 -0.216080
v 8.621902 195.091187 3.318222
v 6.066963 195.091187 6.967033
v 6.066963 13.017578 6.967033
v 8.621902 13.017578 3.318222
v 54.313316 195.091187 40.749496
v 56.887169 191.949081 42.551727
v 56.691246 193.151520 42.414539
v 56.133301 194.170883 42.023861
v 55.298286 194.852005 41.439178
v 56.868248 195.091187 37.100670
v 57.853218 194.852005 37.790356
v 58.688240 194.170883 38.375042
v 59.246178 193.151520 38.765724
v 59.442101 191.949081 38.902901
v 3.593338 195.091187 5.234985
v 2.608368 194.852005 4.545296
v 1.773338 194.170883 3.960609
v 1.215401 193.151520 3.569931
v 1.019478 191.949081 3.432739
v 6.148270 195.091187 1.586159
v 3.574409 191.949081 -0.216080
v 3.770325 193.151520 -0.078896
v 4.328278 194.170883 0.311783
v 5.163292 194.852005 0.896469
v 52.110077 198.735992 36.967026
v 49.788635 206.072876 35.341534
v 45.906807 212.775681 32.623436
v 41.408379 217.545090 29.473614
v 36.265198 220.802582 25.872318
v 30.005661 222.409134 21.489342
v 52.560341 198.735992 36.323990
v 50.238892 206.072876 34.698502
v 46.357063 212.775681 31.980406
v 41.858631 217.545090 28.830570
v 36.715458 220.802582 25.229282
v 30.455917 222.409134 20.846306
v 33.135426 221.994064 23.680828
v 33.585693 221.994064 23.037796
v 38.895920 219.364197 27.714371
v 39.346184 219.364197 27.071339
v 43.749001 215.323883 31.112535
v 44.199265 215.323883 30.469500
v 48.007019 209.591034 34.094032
v 48.457275 209.591034 33.450993
v 51.107063 202.508514 36.264706
v 51.557327 202.508514 35.621670
v 52.835434 194.877594 37.474922
v 53.285706 194.877594 36.831894
v 7.901237 198.735992 6.011665
v 10.222679 206.072876 7.637154
v 14.104515 212.775681 10.355247
v 18.602943 217.545090 13.505074
v 23.746124 220.802582 17.106377
v 8.351501 198.735992 5.368629
v 10.672951 206.072876 6.994125
v 14.554771 212.775681 9.712212
v 19.053200 217.545090 12.862045
v 24.196381 220.802582 16.463333
v 26.875893 221.994064 19.297855
v 27.326149 221.994064 18.654819
v 21.115395 219.364197 15.264313
v 21.565659 219.364197 14.621277
v 16.262314 215.323883 11.866142
v 16.712578 215.323883 11.223114
v 12.004295 209.591034 8.884651
v 12.454567 209.591034 8.241623
v 8.904251 202.508514 6.713974
v 9.354515 202.508514 6.070938
v 7.175880 194.877594 5.503754
v 7.626144 194.877594 4.860725
v 53.438538 190.745010 37.897221
v 53.888798 190.745010 37.254185
v 6.572777 190.745010 5.081459
v 7.023041 190.745010 4.438423
v 53.438538 12.933350 37.897221
v 53.888798 12.933350 37.254185
v 7.023041 12.933350 4.438423
v 6.572777 12.933350 5.081459
v 3.013885 44.011581 0.215675
v 3.432869 44.011612 0.509056
v 1.233490 44.011581 2.758362
v 1.652473 44.011612 3.051735
v 1.233536 35.656616 2.758377
v 3.013931 35.656616 0.215698
v 3.432915 35.656616 0.509071
v 1.652519 35.656616 3.051750
v 3.013893 42.778580 0.215691
v 0.890205 42.778580 -1.271332
v 0.135269 42.778580 -1.546120
v -0.655907 42.778580 -1.406601
v -1.271347 42.778580 -0.890213
v -1.546112 42.778580 -0.135269
v -1.406601 42.778580 0.655907
v -0.890205 42.778580 1.271339
v 1.233498 42.778580 2.758369
v 3.013893 36.889664 0.215691
v 0.890205 36.889664 -1.271332
v 0.135269 36.889664 -1.546120
v -0.655907 36.889664 -1.406601
v -1.271347 36.889664 -0.890213
v -1.546112 36.889664 -0.135269
v -1.406601 36.889664 0.655907
v -0.890205 36.889664 1.271339
v 1.233498 36.889664 2.758369
v 2.894608 44.787567 0.386009
v 2.568810 45.355637 0.851349
v 2.123703 45.563583 1.486992
v 1.678627 45.355652 2.122688
v 1.352753 44.787567 2.588013
v 3.313599 44.787628 0.679390
v 2.987770 45.355698 1.144714
v 2.542686 45.563629 1.780388
v 2.097588 45.355698 2.416061
v 1.771736 44.787628 2.881393
v 1.352852 34.880600 2.588058
v 1.678696 34.312515 2.122742
v 2.123779 34.104568 1.487076
v 2.568886 34.312500 0.851418
v 2.894699 34.880600 0.386032
v 1.771858 34.880569 2.881447
v 2.097679 34.312500 2.416107
v 2.542770 34.104568 1.780449
v 2.987862 34.312500 1.144760
v 3.313683 34.880569 0.679428
v 3.013885 160.511581 0.215675
v 3.432869 160.511612 0.509056
v 1.233490 160.511581 2.758362
v 1.652473 160.511612 3.051735
v 1.233536 152.156616 2.758377
v 3.013931 152.156616 0.215698
v 3.432915 152.156616 0.509071
v 1.652519 152.156616 3.051750
v 3.013893 159.278580 0.215691
v 0.890205 159.278580 -1.271332
v 0.135269 159.278580 -1.546120
v -0.655907 159.278580 -1.406601
v -1.271347 159.278580 -0.890213
v -1.546112 159.278580 -0.135269
v -1.406601 159.278580 0.655907
v -0.890205 159.278580 1.271339
v 1.233498 159.278580 2.758369
v 3.013893 153.389664 0.215691
v 0.890205 153.389664 -1.271332
v 0.135269 153.389664 -1.546120
v -0.655907 153.389664 -1.406601
v -1.271347 153.389664 -0.890213
v -1.546112 153.389664 -0.135269
v -1.406601 153.389664 0.655907
v -0.890205 153.389664 1.271339
v 1.233498 153.389664 2.758369
v 2.894608 161.287567 0.386009
v 2.568810 161.855637 0.851349
v 2.123703 162.063583 1.486992
v 1.678627 161.855652 2.122688
v 1.352753 161.287567 2.588013
v 3.313599 161.287628 0.679390
v 2.987770 161.855698 1.144714
v 2.542686 162.063629 1.780388
v 2.097588 161.855698 2.416061
v 1.771736 161.287628 2.881393
v 1.352852 151.380600 2.588058
v 1.678696 150.812515 2.122742
v 2.123779 150.604568 1.487076
v 2.568886 150.812500 0.851418
v 2.894699 151.380600 0.386032
v 1.771858 151.380569 2.881447
v 2.097679 150.812500 2.416107
v 2.542770 150.604568 1.780449
v 2.987862 150.812500 1.144760
v 3.313683 151.380569 0.679428
vt 0.825858 0.006142
vt 0.796346 0.070664
vt 0.528725 0.070658
vt 0.499216 0.006134
vt 0.528705 0.942671
vt 0.499194 0.927622
vt 1.796345 0.070664
vt 1.796324 0.942678
vt 1.825836 0.927630
vt 1.825858 0.006142
vt 1.858103 0.927623
vt 1.858103 0.006134
vt 1.836770 0.006134
vt 1.836770 0.927623
vt 1.858104 0.933494
vt 1.836770 0.933494
vt 1.858103 0.939366
vt 1.836770 0.939366
vt 1.858103 0.945238
vt 1.836770 0.945238
vt 1.858103 0.951109
vt 1.836770 0.951109
vt 1.858104 0.965572
vt 1.836770 0.965572
vt 1.868534 0.006134
vt 1.868534 0.878149
vt 1.889868 0.878149
vt 1.889868 0.006134
vt 0.460055 0.341639
vt 0.460055 0.609259
vt 0.438721 0.609259
vt 0.438721 0.341639
vt 0.889868 0.006134
vt 0.889868 0.878149
vt 0.868534 0.878149
vt 0.868534 0.006134
vt 0.858103 0.965572
vt 0.836770 0.965572
vt 0.836770 0.951109
vt 0.858103 0.951109
vt 0.858103 0.945237
vt 0.836770 0.945237
vt 0.858103 0.939366
vt 0.836770 0.939366
vt 0.858103 0.933494
vt 0.836770 0.933494
vt 0.858103 0.927623
vt 0.836770 0.927622
vt 0.858103 0.006134
vt 0.836770 0.006134
vt 0.459965 0.006134
vt 0.459965 0.332777
vt 0.438631 0.332777
vt 0.438631 0.006134
vt 1.514242 0.942671
vt 1.500339 0.933381
vt 1.503601 0.938264
vt 1.508483 0.941526
vt 0.810787 0.942678
vt 0.824691 0.933389
vt 0.821428 0.938271
vt 0.816546 0.941533
vt 1.528725 0.070658
vt 1.499216 0.006134
vt 1.810787 0.942678
vt 1.824691 0.933389
vt 0.825836 0.927630
vt 0.796325 0.942678
vt 1.816546 0.941533
vt 1.821428 0.938271
vt 1.499194 0.927622
vt 1.528705 0.942671
vt 0.514242 0.942671
vt 0.500339 0.933381
vt 0.508483 0.941526
vt 0.503601 0.938264
vt 0.474611 0.044090
vt 0.470851 0.044090
vt 0.470851 0.025094
vt 0.474611 0.025094
vt 0.474611 0.082630
vt 0.470851 0.082630
vt 0.470851 0.062821
vt 0.474611 0.062821
vt 0.470851 0.119764
vt 0.470851 0.102211
vt 0.474611 0.102211
vt 0.474611 0.119764
vt 0.470851 0.154177
vt 0.470851 0.137098
vt 0.474611 0.137098
vt 0.474611 0.154177
vt 0.470851 0.190198
vt 0.470851 0.171030
vt 0.474611 0.171030
vt 0.474611 0.190198
vt 0.470851 0.208604
vt 0.474611 0.208604
vt 0.470851 0.006134
vt 0.474611 0.006134
vt 0.470851 0.373119
vt 0.474611 0.373119
vt 0.474611 0.392115
vt 0.470851 0.392115
vt 0.470851 0.334579
vt 0.474611 0.334579
vt 0.474611 0.354388
vt 0.470851 0.354388
vt 0.474611 0.297445
vt 0.474611 0.314998
vt 0.470851 0.314998
vt 0.470851 0.297445
vt 0.474611 0.263033
vt 0.474611 0.280111
vt 0.470851 0.280111
vt 0.470851 0.263033
vt 0.470851 0.227011
vt 0.474611 0.227011
vt 0.474611 0.246179
vt 0.470851 0.246179
vt 0.474611 0.411075
vt 0.470851 0.411075
vt 0.787375 0.079598
vt 0.787384 0.855668
vt 0.537676 0.855671
vt 0.537668 0.079601
vt 1.787384 0.855668
vt 1.787375 0.079598
vt 1.537668 0.079601
vt 1.537676 0.855671
vt 0.784171 0.873705
vt 0.540890 0.873708
vt 1.679208 0.992055
vt 1.645856 0.992055
vt 1.662532 0.993866
vt 0.780306 0.890546
vt 0.544755 0.890548
vt 1.784171 0.873705
vt 1.540890 0.873708
vt 0.774962 0.907011
vt 0.550099 0.907014
vt 1.544755 0.890548
vt 1.780306 0.890546
vt 0.767938 0.922568
vt 0.557124 0.922571
vt 1.550099 0.907014
vt 1.774962 0.907011
vt 0.758445 0.937923
vt 0.566617 0.937926
vt 1.557124 0.922571
vt 1.767938 0.922568
vt 0.747255 0.951823
vt 0.577808 0.951825
vt 1.566617 0.937926
vt 1.758445 0.937923
vt 0.735758 0.962945
vt 0.589305 0.962947
vt 1.577808 0.951825
vt 1.747255 0.951823
vt 0.723287 0.972640
vt 0.601776 0.972641
vt 1.589305 0.962947
vt 1.735758 0.962945
vt 0.709900 0.980578
vt 0.615163 0.980580
vt 1.601776 0.972641
vt 1.723287 0.972640
vt 0.695884 0.986855
vt 0.629180 0.986857
vt 1.615163 0.980580
vt 1.709900 0.980578
vt 0.679208 0.992055
vt 0.645856 0.992055
vt 1.629180 0.986857
vt 1.695884 0.986855
vt 0.662532 0.993866
vt 0.475147 0.615185
vt 0.475147 0.606717
vt 0.478661 0.606717
vt 0.429741 0.655641
vt 0.424222 0.655641
vt 0.424222 0.615185
vt 0.429741 0.615185
vt 0.435260 0.655641
vt 0.435260 0.615185
vt 0.440779 0.655641
vt 0.440779 0.615185
vt 0.446298 0.655641
vt 0.446298 0.615185
vt 0.451817 0.655641
vt 0.451817 0.615185
vt 0.457336 0.655641
vt 0.457336 0.615185
vt 0.475141 0.655641
vt 0.406412 0.655641
vt 0.406412 0.615185
vt 0.478655 0.697227
vt 0.475141 0.705697
vt 0.475141 0.697227
vt 0.478640 0.754623
vt 0.475127 0.746152
vt 0.475127 0.754623
vt 0.478655 0.664113
vt 0.475141 0.664113
vt 0.435808 0.689685
vt 0.414484 0.689684
vt 0.414483 0.671874
vt 0.435807 0.671875
vt 0.468760 0.567787
vt 0.468763 0.559316
vt 0.490087 0.559316
vt 0.490088 0.567788
vt 0.415912 0.666543
vt 0.434379 0.666544
vt 0.419814 0.662641
vt 0.430476 0.662641
vt 0.425145 0.661212
vt 0.484943 0.463549
vt 0.474281 0.463549
vt 0.479611 0.462120
vt 0.468946 0.506413
vt 0.468950 0.497942
vt 0.490274 0.497942
vt 0.490274 0.506414
vt 0.490274 0.490593
vt 0.468950 0.490592
vt 0.468950 0.472782
vt 0.490274 0.472783
vt 0.470378 0.467451
vt 0.488845 0.467452
vt 0.475141 0.691708
vt 0.478655 0.691708
vt 0.475141 0.686189
vt 0.478655 0.686189
vt 0.475141 0.680670
vt 0.478655 0.680670
vt 0.475141 0.675151
vt 0.478655 0.675151
vt 0.475141 0.669632
vt 0.478655 0.669632
vt 0.470191 0.573119
vt 0.488659 0.573119
vt 0.484755 0.577023
vt 0.474093 0.577022
vt 0.479424 0.578451
vt 0.475147 0.601197
vt 0.478661 0.601197
vt 0.475147 0.595678
vt 0.478661 0.595678
vt 0.475147 0.590159
vt 0.478661 0.590159
vt 0.478640 0.771180
vt 0.475127 0.771180
vt 0.475127 0.765661
vt 0.478640 0.765661
vt 0.475127 0.760142
vt 0.478640 0.760142
vt 0.470377 0.511745
vt 0.488846 0.511745
vt 0.484942 0.515649
vt 0.474280 0.515647
vt 0.479611 0.517077
vt 0.475147 0.615185
vt 0.475147 0.606717
vt 0.478661 0.606717
vt 0.429741 0.655641
vt 0.424222 0.655641
vt 0.424222 0.615185
vt 0.429741 0.615185
vt 0.435260 0.655641
vt 0.435260 0.615185
vt 0.440779 0.655641
vt 0.440779 0.615185
vt 0.446298 0.655641
vt 0.446298 0.615185
vt 0.451817 0.655641
vt 0.451817 0.615185
vt 0.457336 0.655641
vt 0.457336 0.615185
vt 0.475141 0.655641
vt 0.406412 0.655641
vt 0.406412 0.615185
vt 0.478655 0.697227
vt 0.475141 0.705697
vt 0.475141 0.697227
vt 0.478640 0.754623
vt 0.475127 0.746152
vt 0.475127 0.754623
vt 0.478655 0.664113
vt 0.475141 0.664113
vt 0.490087 0.551967
vt 0.468763 0.551966
vt 0.468763 0.534156
vt 0.490087 0.534157
vt 0.414480 0.705505
vt 0.414484 0.697034
vt 0.435808 0.697034
vt 0.435808 0.705506
vt 0.470191 0.528825
vt 0.488658 0.528826
vt 0.474094 0.524923
vt 0.484756 0.524923
vt 0.479425 0.523494
vt 0.460514 0.662641
vt 0.449852 0.662641
vt 0.455183 0.661212
vt 0.444518 0.705505
vt 0.444522 0.697034
vt 0.465845 0.697034
vt 0.465846 0.705506
vt 0.465845 0.689685
vt 0.444522 0.689684
vt 0.444521 0.671874
vt 0.465845 0.671875
vt 0.445949 0.666543
vt 0.464417 0.666544
vt 0.475141 0.691708
vt 0.478655 0.691708
vt 0.475141 0.686189
vt 0.478655 0.686189
vt 0.475141 0.680670
vt 0.478655 0.680670
vt 0.475141 0.675151
vt 0.478655 0.675151
vt 0.475141 0.669632
vt 0.478655 0.669632
vt 0.415911 0.710837
vt 0.434380 0.710837
vt 0.430475 0.714741
vt 0.419814 0.714740
vt 0.425144 0.716169
vt 0.475147 0.601197
vt 0.478661 0.601197
vt 0.475147 0.595678
vt 0.478661 0.595678
vt 0.475147 0.590159
vt 0.478661 0.590159
vt 0.478640 0.771180
vt 0.475127 0.771180
vt 0.475127 0.765661
vt 0.478640 0.765661
vt 0.475127 0.760142
vt 0.478640 0.760142
vt 0.445949 0.710837
vt 0.464418 0.710837
vt 0.460513 0.714741
vt 0.449852 0.714740
vt 0.455182 0.716169
vn -0.573576 0.000000 0.819152
vn -0.573576 0.000000 0.819152
vn -0.573576 0.000000 0.819152
vn -0.573576 0.000000 0.819152
vn -0.573576 0.000000 0.819152
vn -0.573576 0.000000 0.819152
vn -0.573576 0.000000 0.819152
vn -0.573576 0.000000 0.819152
vn -0.573576 0.000000 0.819152
vn -0.573576 0.000000 0.819152
vn -0.573576 0.000000 0.819152
vn -0.573576 0.000000 0.819152
vn 0.573576 -0.000000 -0.819152
vn 0.573576 -0.000000 -0.819152
vn 0.573576 -0.000000 -0.819152
vn 0.573576 -0.000000 -0.819152
vn 0.573576 -0.000000 -0.819152
vn 0.573576 -0.000000 -0.819152
vn 0.819151 0.001235 0.573576
vn 0.819152 0.000000 0.573576
vn 0.819151 0.001235 0.573576
vn 0.819151 0.001235 0.573576
vn 0.819152 0.000000 0.573576
vn 0.819152 0.000000 0.573576
vn 0.756798 0.382682 0.529917
vn 0.819151 0.001235 0.573576
vn 0.756798 0.382682 0.529917
vn 0.756798 0.382682 0.529917
vn 0.819151 0.001235 0.573576
vn 0.819151 0.001235 0.573576
vn 0.579225 0.707110 0.405579
vn 0.756798 0.382682 0.529917
vn 0.579225 0.707110 0.405579
vn 0.579225 0.707110 0.405579
vn 0.756798 0.382682 0.529917
vn 0.756798 0.382682 0.529917
vn 0.313476 0.923879 0.219498
vn 0.579225 0.707110 0.405579
vn 0.313476 0.923879 0.219498
vn 0.313476 0.923879 0.219498
vn 0.579225 0.707110 0.405579
vn 0.579225 0.707110 0.405579
vn 0.046331 0.998399 0.032441
vn 0.313476 0.923879 0.219498
vn 0.046331 0.998399 0.032441
vn 0.046331 0.998399 0.032441
vn 0.313476 0.923879 0.219498
vn 0.313476 0.923879 0.219498
vn 0.000000 1.000000 0.000000
vn 0.046331 0.998399 0.032441
vn 0.000000 1.000000 0.000000
vn 0.000000 1.000000 0.000000
vn 0.046331 0.998399 0.032441
vn 0.046331 0.998399 0.032441
vn -0.819152 0.000000 -0.573576
vn -0.819152 0.000000 -0.573576
vn -0.819152 0.000000 -0.573576
vn -0.819152 0.000000 -0.573576
vn -0.819152 0.000000 -0.573576
vn -0.819152 0.000000 -0.573576
vn 0.000000 1.000000 0.000000
vn 0.000000 1.000000 0.000000
vn 0.000000 1.000000 0.000000
vn 0.000000 1.000000 0.000000
vn 0.000000 1.000000 0.000000
vn 0.000000 1.000000 0.000000
vn 0.819151 0.000000 0.573578
vn 0.819151 0.000000 0.573578
vn 0.819151 0.000000 0.573578
vn 0.819151 0.000000 0.573578
vn 0.819151 0.000000 0.573578
vn 0.819151 0.000000 0.573578
vn 0.000000 1.000000 0.000000
vn 0.000000 1.000000 0.000000
vn -0.046331 0.998399 -0.032441
vn -0.046331 0.998399 -0.032441
vn 0.000000 1.000000 0.000000
vn -0.046331 0.998399 -0.032441
vn -0.313475 0.923880 -0.219497
vn -0.046331 0.998399 -0.032441
vn -0.313475 0.923880 -0.219497
vn -0.313475 0.923880 -0.219497
vn -0.046331 0.998399 -0.032441
vn -0.046331 0.998399 -0.032441
vn -0.579225 0.707110 -0.405578
vn -0.313475 0.923880 -0.219497
vn -0.579225 0.707111 -0.405578
vn -0.579225 0.707111 -0.405578
vn -0.313475 0.923880 -0.219497
vn -0.313475 0.923880 -0.219497
vn -0.756799 0.382683 -0.529914
vn -0.579225 0.707110 -0.405578
vn -0.756799 0.382683 -0.529914
vn -0.756799 0.382683 -0.529914
vn -0.579225 0.707110 -0.405578
vn -0.579225 0.707111 -0.405578
vn -0.819151 0.001235 -0.573576
vn -0.756799 0.382683 -0.529914
vn -0.819151 0.001235 -0.573576
vn -0.819151 0.001235 -0.573576
vn -0.756799 0.382683 -0.529914
vn -0.756799 0.382683 -0.529914
vn -0.819152 0.000000 -0.573576
vn -0.819151 0.001235 -0.573576
vn -0.819152 0.000000 -0.573576
vn -0.819152 0.000000 -0.573576
vn -0.819151 0.001235 -0.573576
vn -0.819151 0.001235 -0.573576
vn 0.000000 -1.000000 0.000000
vn 0.000000 -1.000000 0.000000
vn 0.000000 -1.000000 0.000000
vn 0.000000 -1.000000 0.000000
vn 0.000000 -1.000000 0.000000
vn 0.000000 -1.000000 0.000000
vn 0.573576 0.000000 -0.819152
vn 0.573576 0.000000 -0.819152
vn 0.573576 0.000000 -0.819152
vn 0.573576 0.000000 -0.819152
vn 0.573576 0.000000 -0.819152
vn 0.573576 0.000000 -0.819152
vn -0.573576 0.000009 0.819152
vn -0.573576 0.000009 0.819152
vn -0.573576 -0.000007 0.819152
vn -0.573576 -0.000007 0.819152
vn -0.573576 0.000009 0.819152
vn -0.573576 -0.000007 0.819152
vn 0.573576 -0.000000 -0.819152
vn 0.573576 -0.000000 -0.819152
vn 0.573576 -0.000000 -0.819152
vn 0.573576 -0.000000 -0.819152
vn 0.573576 -0.000000 -0.819152
vn 0.573576 -0.000000 -0.819152
vn 0.573576 -0.000000 -0.819152
vn 0.573578 -0.000002 -0.819151
vn 0.573576 -0.000000 -0.819152
vn 0.573576 -0.000000 -0.819152
vn 0.573578 -0.000002 -0.819151
vn 0.573578 -0.000002 -0.819151
vn -0.573576 0.000000 0.819152
vn -0.573576 0.000000 0.819152
vn -0.573576 0.000000 0.819152
vn -0.573576 0.000000 0.819152
vn -0.573576 0.000000 0.819152
vn -0.573576 0.000000 0.819152
vn -0.573576 0.000000 0.819152
vn -0.573576 0.000000 0.819152
vn -0.573576 0.000009 0.819152
vn -0.573576 0.000009 0.819152
vn -0.573576 0.000000 0.819152
vn -0.573576 0.000009 0.819152
vn 0.573578 -0.000002 -0.819151
vn 0.573578 -0.000002 -0.819151
vn 0.573574 -0.000007 -0.819154
vn 0.573574 -0.000007 -0.819154
vn 0.573578 -0.000002 -0.819151
vn 0.573574 -0.000007 -0.819154
vn 0.573576 -0.000000 -0.819152
vn 0.573576 0.000000 -0.819152
vn 0.573576 -0.000000 -0.819152
vn 0.573576 -0.000000 -0.819152
vn 0.573576 0.000000 -0.819152
vn 0.573576 0.000000 -0.819152
vn -0.573576 0.000000 0.819152
vn -0.573576 0.000004 0.819152
vn -0.573576 0.000000 0.819152
vn -0.573576 0.000000 0.819152
vn -0.573576 0.000004 0.819152
vn -0.573576 0.000004 0.819152
vn -0.573576 0.000004 0.819152
vn -0.573576 0.000004 0.819152
vn -0.573576 -0.000007 0.819152
vn -0.573576 -0.000007 0.819152
vn -0.573576 0.000004 0.819152
vn -0.573576 -0.000007 0.819152
vn 0.573576 0.000000 -0.819152
vn 0.573576 0.000000 -0.819152
vn 0.573576 0.000000 -0.819152
vn 0.573576 0.000000 -0.819152
vn 0.573576 0.000000 -0.819152
vn 0.573576 0.000000 -0.819152
vn 0.764129 0.360316 0.535052
vn 0.764129 0.360316 0.535052
vn 0.789523 0.266501 0.552839
vn 0.789523 0.266501 0.552839
vn 0.764129 0.360316 0.535052
vn 0.789523 0.266501 0.552839
vn 0.668872 0.577287 0.468349
vn 0.668872 0.577286 0.468349
vn 0.722480 0.471278 0.505886
vn 0.722480 0.471278 0.505886
vn 0.668872 0.577286 0.468349
vn 0.722480 0.471278 0.505886
vn 0.537137 0.755002 0.376107
vn 0.606843 0.671706 0.424916
vn 0.537137 0.755001 0.376107
vn 0.537137 0.755001 0.376107
vn 0.606843 0.671706 0.424916
vn 0.606843 0.671706 0.424916
vn 0.377240 0.887647 0.264146
vn 0.461527 0.826171 0.323164
vn 0.377240 0.887647 0.264146
vn 0.377240 0.887647 0.264146
vn 0.461527 0.826171 0.323164
vn 0.461526 0.826171 0.323164
vn 0.168532 0.978607 0.118008
vn 0.286931 0.936646 0.200911
vn 0.168533 0.978606 0.118009
vn 0.168533 0.978606 0.118009
vn 0.286931 0.936646 0.200911
vn 0.286931 0.936646 0.200911
vn -0.000000 1.000000 0.000001
vn 0.168532 0.978607 0.118008
vn -0.000000 1.000000 0.000001
vn -0.000000 1.000000 0.000001
vn 0.168532 0.978607 0.118008
vn 0.168533 0.978606 0.118009
vn 0.286931 0.936646 0.200911
vn 0.286931 0.936646 0.200911
vn 0.377240 0.887647 0.264146
vn 0.377240 0.887647 0.264146
vn 0.286931 0.936646 0.200911
vn 0.377240 0.887647 0.264146
vn 0.461526 0.826171 0.323164
vn 0.461527 0.826171 0.323164
vn 0.537137 0.755001 0.376107
vn 0.537137 0.755001 0.376107
vn 0.461527 0.826171 0.323164
vn 0.537137 0.755002 0.376107
vn 0.606843 0.671706 0.424916
vn 0.606843 0.671706 0.424916
vn 0.668872 0.577287 0.468349
vn 0.668872 0.577287 0.468349
vn 0.606843 0.671706 0.424916
vn 0.668872 0.577286 0.468349
vn 0.722480 0.471278 0.505886
vn 0.722480 0.471278 0.505886
vn 0.764129 0.360316 0.535052
vn 0.764129 0.360316 0.535052
vn 0.722480 0.471278 0.505886
vn 0.764129 0.360316 0.535052
vn 0.789523 0.266501 0.552839
vn 0.789523 0.266501 0.552839
vn 0.798390 0.223685 0.559051
vn 0.798390 0.223685 0.559051
vn 0.789523 0.266501 0.552839
vn 0.798390 0.223685 0.559051
vn -0.764127 0.360315 -0.535054
vn -0.764127 0.360315 -0.535054
vn -0.789524 0.266501 -0.552837
vn -0.789524 0.266501 -0.552837
vn -0.764127 0.360315 -0.535054
vn -0.789524 0.266501 -0.552837
vn -0.668871 0.577287 -0.468349
vn -0.668871 0.577288 -0.468349
vn -0.722478 0.471276 -0.505890
vn -0.722478 0.471276 -0.505890
vn -0.668871 0.577288 -0.468349
vn -0.722478 0.471276 -0.505890
vn -0.537131 0.755004 -0.376110
vn -0.606838 0.671710 -0.424916
vn -0.537132 0.755004 -0.376110
vn -0.537132 0.755004 -0.376110
vn -0.606838 0.671710 -0.424916
vn -0.606838 0.671710 -0.424916
vn -0.377244 0.887644 -0.264149
vn -0.461525 0.826170 -0.323167
vn -0.377244 0.887644 -0.264149
vn -0.377244 0.887644 -0.264149
vn -0.461525 0.826170 -0.323167
vn -0.461526 0.826170 -0.323167
vn -0.168534 0.978606 -0.118007
vn -0.168534 0.978606 -0.118007
vn -0.286935 0.936644 -0.200912
vn -0.286935 0.936644 -0.200912
vn -0.168534 0.978606 -0.118007
vn -0.286936 0.936644 -0.200913
vn -0.000000 1.000000 0.000001
vn -0.000000 1.000000 0.000001
vn -0.168534 0.978606 -0.118007
vn -0.168534 0.978606 -0.118007
vn -0.000000 1.000000 0.000001
vn -0.168534 0.978606 -0.118007
vn -0.286935 0.936644 -0.200912
vn -0.286936 0.936644 -0.200913
vn -0.377244 0.887644 -0.264149
vn -0.377244 0.887644 -0.264149
vn -0.286936 0.936644 -0.200913
vn -0.377244 0.887644 -0.264149
vn -0.461526 0.826170 -0.323167
vn -0.461525 0.826170 -0.323167
vn -0.537132 0.755004 -0.376110
vn -0.537132 0.755004 -0.376110
vn -0.461525 0.826170 -0.323167
vn -0.537131 0.755004 -0.376110
vn -0.606838 0.671710 -0.424916
vn -0.606838 0.671710 -0.424916
vn -0.668871 0.577287 -0.468349
vn -0.668871 0.577287 -0.468349
vn -0.606838 0.671710 -0.424916
vn -0.668871 0.577288 -0.468349
vn -0.722478 0.471276 -0.505890
vn -0.722478 0.471276 -0.505890
vn -0.764127 0.360315 -0.535054
vn -0.764127 0.360315 -0.535054
vn -0.722478 0.471276 -0.505890
vn -0.764127 0.360315 -0.535054
vn -0.789524 0.266501 -0.552837
vn -0.789524 0.266501 -0.552837
vn -0.798390 0.223685 -0.559051
vn -0.798390 0.223685 -0.559051
vn -0.789524 0.266501 -0.552837
vn -0.798390 0.223685 -0.559051
vn -0.573576 0.000000 0.819152
vn -0.573576 -0.000000 0.819152
vn -0.573576 0.000000 0.819152
vn -0.573576 0.000000 0.819152
vn -0.573576 -0.000000 0.819152
vn -0.573576 -0.000000 0.819152
vn 0.573576 0.000000 -0.819152
vn 0.573576 0.000000 -0.819152
vn 0.573576 0.000000 -0.819152
vn 0.573576 0.000000 -0.819152
vn 0.573576 0.000000 -0.819152
vn 0.573576 0.000000 -0.819152
vn -0.573576 0.000000 0.819152
vn -0.573576 0.000000 0.819152
vn -0.573576 -0.000000 0.819152
vn -0.573576 -0.000000 0.819152
vn -0.573576 0.000000 0.819152
vn -0.573576 -0.000000 0.819152
vn 0.573576 0.000002 -0.819152
vn 0.573576 0.000002 -0.819152
vn 0.573576 0.000000 -0.819152
vn -0.573576 0.000000 0.819152
vn -0.573576 0.000001 0.819152
vn -0.573576 0.000000 0.819152
vn -0.573576 0.000000 0.819152
vn -0.573576 0.000001 0.819152
vn -0.573576 0.000001 0.819152
vn 0.573576 0.000000 -0.819152
vn 0.573576 0.000000 -0.819152
vn 0.573576 0.000000 -0.819152
vn 0.573576 0.000000 -0.819152
vn 0.573576 0.000000 -0.819152
vn 0.573576 0.000000 -0.819152
vn -0.573576 0.000001 0.819152
vn -0.573576 0.000001 0.819152
vn -0.573576 -0.000000 0.819152
vn -0.573576 -0.000000 0.819152
vn -0.573576 0.000001 0.819152
vn -0.573576 -0.000000 0.819152
vn 0.573576 0.000000 -0.819152
vn 0.573576 0.000000 -0.819152
vn 0.573576 -0.000000 -0.819152
vn 0.573576 -0.000000 -0.819152
vn 0.573576 0.000000 -0.819152
vn 0.573576 -0.000000 -0.819152
vn -0.573576 -0.000000 0.819152
vn -0.573576 -0.000000 0.819152
vn -0.573576 -0.000000 0.819152
vn -0.573576 -0.000000 0.819152
vn -0.573576 -0.000000 0.819152
vn -0.573576 -0.000000 0.819152
vn 0.573576 -0.000000 -0.819152
vn 0.573576 -0.000000 -0.819152
vn 0.573576 0.000001 -0.819152
vn 0.573576 0.000001 -0.819152
vn 0.573576 -0.000000 -0.819152
vn 0.573576 0.000001 -0.819152
vn -0.573576 -0.000000 0.819152
vn -0.573576 -0.000000 0.819152
vn -0.573576 -0.000001 0.819152
vn -0.573576 -0.000001 0.819152
vn -0.573576 -0.000000 0.819152
vn -0.573576 -0.000001 0.819152
vn 0.573576 0.000001 -0.819152
vn 0.573576 0.000001 -0.819152
vn 0.573577 0.000003 -0.819152
vn 0.573577 0.000003 -0.819152
vn 0.573576 0.000001 -0.819152
vn 0.573577 0.000003 -0.819152
vn -0.573576 -0.000001 0.819152
vn -0.573576 -0.000001 0.819152
vn -0.573576 0.000001 0.819152
vn -0.573576 0.000001 0.819152
vn -0.573576 -0.000001 0.819152
vn -0.573576 0.000001 0.819152
vn 0.573577 0.000003 -0.819152
vn 0.573577 0.000003 -0.819152
vn 0.573577 -0.000002 -0.819152
vn 0.573577 -0.000002 -0.819152
vn 0.573577 0.000003 -0.819152
vn 0.573577 -0.000002 -0.819152
vn -0.573576 0.000001 0.819152
vn -0.573576 0.000001 0.819152
vn -0.573576 -0.000005 0.819152
vn -0.573576 -0.000005 0.819152
vn -0.573576 0.000001 0.819152
vn -0.573576 -0.000005 0.819152
vn 0.573577 -0.000002 -0.819152
vn 0.573577 -0.000002 -0.819152
vn 0.573576 -0.000001 -0.819152
vn 0.573576 -0.000001 -0.819152
vn 0.573577 -0.000002 -0.819152
vn 0.573576 -0.000001 -0.819152
vn -0.573576 -0.000005 0.819152
vn -0.573576 -0.000005 0.819152
vn -0.573576 0.000001 0.819152
vn -0.573576 0.000001 0.819152
vn -0.573576 -0.000005 0.819152
vn -0.573576 0.000001 0.819152
vn 0.573576 -0.000001 -0.819152
vn 0.573576 -0.000001 -0.819152
vn 0.573576 -0.000002 -0.819152
vn 0.573576 -0.000002 -0.819152
vn 0.573576 -0.000001 -0.819152
vn 0.573576 -0.000002 -0.819152
vn -0.573576 0.000001 0.819152
vn -0.573576 0.000001 0.819152
vn -0.573576 0.000005 0.819152
vn -0.573576 0.000005 0.819152
vn -0.573576 0.000001 0.819152
vn -0.573576 0.000005 0.819152
vn 0.573576 -0.000002 -0.819152
vn 0.573576 -0.000002 -0.819152
vn 0.573576 -0.000002 -0.819152
vn 0.573576 -0.000002 -0.819152
vn 0.573576 -0.000002 -0.819152
vn 0.573576 -0.000002 -0.819152
vn -0.573576 0.000005 0.819152
vn -0.573576 0.000005 0.819152
vn -0.573576 0.000000 0.819152
vn -0.573576 0.000000 0.819152
vn -0.573576 0.000005 0.819152
vn -0.573576 0.000000 0.819152
vn 0.573576 -0.000002 -0.819152
vn 0.573576 -0.000002 -0.819152
vn 0.573576 0.000000 -0.819152
vn 0.573576 0.000000 -0.819152
vn 0.573576 -0.000002 -0.819152
vn 0.573576 0.000000 -0.819152
vn -0.573576 0.000000 0.819152
vn -0.573576 0.000000 0.819152
vn -0.573576 0.000000 0.819152
vn -0.573576 0.000000 0.819152
vn -0.573576 0.000000 0.819152
vn -0.573576 0.000000 0.819152
vn 0.573576 0.000000 -0.819152
vn 0.573576 0.000000 -0.819152
vn 0.573576 0.000002 -0.819152
vn 0.573576 0.000002 -0.819152
vn 0.573576 0.000000 -0.819152
vn 0.573576 0.000002 -0.819152
vn -0.573576 0.000000 0.819152
vn -0.573576 0.000000 0.819152
vn -0.573576 0.000000 0.819152
vn 0.573576 0.000002 -0.819152
vn 0.573576 0.000002 -0.819152
vn 0.573576 0.000002 -0.819152
vn 0.573576 0.000002 -0.819152
vn 0.573576 0.000002 -0.819152
vn 0.573576 0.000002 -0.819152
vn -0.573573 -0.000000 0.819155
vn -0.567276 -0.147701 0.810174
vn -0.572211 -0.068678 0.817226
vn 0.087153 0.000000 -0.996195
vn 0.522021 0.000000 -0.852933
vn 0.087153 0.000000 -0.996195
vn 0.087153 0.000000 -0.996195
vn 0.522021 0.000000 -0.852933
vn 0.522021 0.000000 -0.852933
vn -0.422612 0.000000 -0.906311
vn 0.087153 0.000000 -0.996195
vn -0.422612 0.000000 -0.906311
vn -0.422612 0.000000 -0.906311
vn 0.087153 0.000000 -0.996195
vn 0.087153 0.000000 -0.996195
vn -0.819152 0.000000 -0.573576
vn -0.422612 0.000000 -0.906311
vn -0.819152 0.000000 -0.573576
vn -0.819152 0.000000 -0.573576
vn -0.422612 0.000000 -0.906311
vn -0.422612 0.000000 -0.906311
vn -0.996196 0.000000 -0.087146
vn -0.819152 0.000000 -0.573576
vn -0.996196 0.000000 -0.087146
vn -0.996196 0.000000 -0.087146
vn -0.819152 0.000000 -0.573576
vn -0.819152 0.000000 -0.573576
vn -0.906309 0.000000 0.422616
vn -0.996196 0.000000 -0.087146
vn -0.906309 0.000000 0.422616
vn -0.906309 0.000000 0.422616
vn -0.996196 0.000000 -0.087146
vn -0.996196 0.000000 -0.087146
vn -0.622955 0.000000 0.782258
vn -0.906309 0.000000 0.422616
vn -0.622955 0.000000 0.782258
vn -0.622955 0.000000 0.782258
vn -0.906309 0.000000 0.422616
vn -0.906309 0.000000 0.422616
vn -0.622955 0.000000 0.782258
vn -0.573573 -0.000000 0.819155
vn -0.622955 0.000000 0.782258
vn -0.622955 0.000000 0.782258
vn -0.573573 -0.000000 0.819155
vn -0.573573 -0.000000 0.819155
vn 0.522021 0.000000 -0.852933
vn 0.573573 0.000001 -0.819155
vn 0.522021 0.000000 -0.852933
vn 0.522021 0.000000 -0.852933
vn 0.573573 0.000001 -0.819155
vn 0.573573 0.000001 -0.819155
vn 0.572214 0.068672 -0.817225
vn 0.573573 0.000001 -0.819155
vn 0.567285 0.147685 -0.810171
vn 0.573573 0.000001 -0.819155
vn 0.572214 0.068672 -0.817225
vn 0.573573 0.000001 -0.819155
vn 0.573573 0.000001 -0.819155
vn 0.572214 0.068672 -0.817225
vn 0.572213 -0.068662 -0.817225
vn 0.573573 0.000001 -0.819155
vn 0.572213 -0.068662 -0.817225
vn 0.567282 -0.147676 -0.810175
vn -0.573573 -0.000000 0.819155
vn -0.572218 0.068673 0.817221
vn -0.567290 0.147694 0.810165
vn -0.573573 -0.000000 0.819155
vn -0.573573 -0.000000 0.819155
vn -0.572218 0.068673 0.817221
vn -0.572218 0.068673 0.817221
vn -0.573573 -0.000000 0.819155
vn -0.572211 -0.068678 0.817226
vn 0.000000 1.000000 0.000000
vn 0.000000 1.000000 0.000000
vn 0.000001 1.000000 0.000001
vn 0.000001 1.000000 0.000001
vn 0.000000 1.000000 0.000000
vn 0.000001 1.000000 0.000001
vn -0.819153 -0.000013 -0.573575
vn -0.819152 -0.000009 -0.573576
vn -0.819153 -0.000013 -0.573575
vn -0.819153 -0.000013 -0.573575
vn -0.819152 -0.000009 -0.573576
vn -0.819152 -0.000009 -0.573576
vn 0.000001 1.000000 0.000001
vn 0.000001 1.000000 0.000001
vn 0.000002 1.000000 0.000002
vn 0.000002 1.000000 0.000002
vn 0.000001 1.000000 0.000001
vn 0.000002 1.000000 0.000002
vn 0.000002 1.000000 0.000002
vn 0.000002 1.000000 0.000002
vn -0.000004 1.000000 -0.000003
vn -0.000004 1.000000 -0.000003
vn 0.000002 1.000000 0.000002
vn -0.000004 1.000000 -0.000003
vn -0.000004 1.000000 -0.000003
vn -0.000004 1.000000 -0.000003
vn 0.000000 1.000000 0.000000
vn 0.000006 -1.000000 0.000004
vn 0.000006 -1.000000 0.000004
vn 0.000000 -1.000000 0.000000
vn -0.819153 -0.000037 -0.573575
vn -0.819152 -0.000031 -0.573576
vn -0.819153 -0.000037 -0.573575
vn -0.819153 -0.000037 -0.573575
vn -0.819152 -0.000031 -0.573576
vn -0.819152 -0.000031 -0.573576
vn 0.000000 -1.000000 0.000000
vn 0.000000 -1.000000 0.000000
vn -0.000001 -1.000000 -0.000000
vn -0.000001 -1.000000 -0.000000
vn 0.000000 -1.000000 0.000000
vn -0.000001 -1.000000 -0.000000
vn -0.000001 -1.000000 -0.000000
vn -0.000001 -1.000000 -0.000000
vn -0.000001 -1.000000 -0.000001
vn -0.000001 -1.000000 -0.000001
vn -0.000001 -1.000000 -0.000000
vn -0.000001 -1.000000 -0.000001
vn -0.000001 -1.000000 -0.000001
vn -0.000001 -1.000000 -0.000001
vn 0.000006 -1.000000 0.000004
vn 0.000006 -1.000000 0.000004
vn -0.000001 -1.000000 -0.000001
vn 0.000006 -1.000000 0.000004
vn 0.572214 0.068672 -0.817225
vn 0.567285 0.147685 -0.810171
vn 0.496684 0.500015 -0.709429
vn 0.496684 0.500015 -0.709429
vn 0.567285 0.147685 -0.810171
vn 0.496695 0.499985 -0.709443
vn 0.496684 0.500015 -0.709429
vn 0.496695 0.499985 -0.709443
vn 0.286709 0.866026 -0.409631
vn 0.286709 0.866026 -0.409631
vn 0.496695 0.499985 -0.709443
vn 0.286720 0.866015 -0.409646
vn 0.286709 0.866026 -0.409631
vn 0.286720 0.866015 -0.409646
vn -0.000081 1.000000 -0.000061
vn -0.000081 1.000000 -0.000061
vn 0.286720 0.866015 -0.409646
vn -0.000076 1.000000 -0.000067
vn -0.000081 1.000000 -0.000061
vn -0.000076 1.000000 -0.000067
vn -0.286864 0.866028 0.409517
vn -0.286864 0.866028 0.409517
vn -0.000076 1.000000 -0.000067
vn -0.286868 0.866024 0.409522
vn -0.286864 0.866028 0.409517
vn -0.286868 0.866024 0.409522
vn -0.496771 0.500029 0.709359
vn -0.496771 0.500029 0.709359
vn -0.286868 0.866024 0.409522
vn -0.496781 0.499998 0.709374
vn -0.496771 0.500029 0.709359
vn -0.496781 0.499998 0.709374
vn -0.572218 0.068673 0.817221
vn -0.572218 0.068673 0.817221
vn -0.496781 0.499998 0.709374
vn -0.567290 0.147694 0.810165
vn -0.819154 -0.000003 -0.573574
vn -0.819153 -0.000013 -0.573575
vn -0.819154 -0.000003 -0.573574
vn -0.819154 -0.000003 -0.573574
vn -0.819153 -0.000013 -0.573575
vn -0.819153 -0.000013 -0.573575
vn -0.819154 -0.000003 -0.573574
vn -0.819154 -0.000003 -0.573574
vn -0.819152 0.000064 -0.573576
vn -0.819152 0.000064 -0.573576
vn -0.819154 -0.000003 -0.573574
vn -0.819152 0.000064 -0.573576
vn -0.819152 0.000064 -0.573576
vn -0.819160 -0.000128 -0.573566
vn -0.819152 0.000064 -0.573576
vn -0.572211 -0.068678 0.817226
vn -0.567276 -0.147701 0.810174
vn -0.496731 -0.500017 0.709395
vn -0.496731 -0.500017 0.709395
vn -0.567276 -0.147701 0.810174
vn -0.496741 -0.499987 0.709410
vn -0.496731 -0.500017 0.709395
vn -0.496741 -0.499987 0.709410
vn -0.286807 -0.866018 0.409578
vn -0.286807 -0.866018 0.409578
vn -0.496741 -0.499987 0.709410
vn -0.286812 -0.866013 0.409585
vn -0.286807 -0.866018 0.409578
vn -0.286812 -0.866013 0.409585
vn -0.000013 -1.000000 -0.000002
vn -0.000013 -1.000000 -0.000002
vn -0.286812 -0.866013 0.409585
vn -0.000015 -1.000000 -0.000000
vn -0.000013 -1.000000 -0.000002
vn -0.000015 -1.000000 -0.000000
vn 0.286777 -0.866020 -0.409594
vn 0.286777 -0.866020 -0.409594
vn -0.000015 -1.000000 -0.000000
vn 0.286774 -0.866024 -0.409589
vn 0.286777 -0.866020 -0.409594
vn 0.286774 -0.866024 -0.409589
vn 0.496722 -0.500000 -0.709414
vn 0.496722 -0.500000 -0.709414
vn 0.286774 -0.866024 -0.409589
vn 0.496731 -0.499970 -0.709428
vn 0.496722 -0.500000 -0.709414
vn 0.496731 -0.499970 -0.709428
vn 0.572213 -0.068662 -0.817225
vn 0.572213 -0.068662 -0.817225
vn 0.496731 -0.499970 -0.709428
vn 0.567282 -0.147676 -0.810175
vn -0.819154 -0.000051 -0.573573
vn -0.819153 -0.000037 -0.573575
vn -0.819154 -0.000051 -0.573573
vn -0.819154 -0.000051 -0.573573
vn -0.819153 -0.000037 -0.573575
vn -0.819153 -0.000037 -0.573575
vn -0.819154 -0.000051 -0.573573
vn -0.819154 -0.000051 -0.573573
vn -0.819156 -0.000059 -0.573571
vn -0.819156 -0.000059 -0.573571
vn -0.819154 -0.000051 -0.573573
vn -0.819156 -0.000059 -0.573571
vn -0.819156 -0.000059 -0.573571
vn -0.819158 0.000055 -0.573568
vn -0.819156 -0.000059 -0.573571
vn -0.573573 -0.000000 0.819155
vn -0.567282 -0.147701 0.810170
vn -0.572214 -0.068678 0.817224
vn 0.087153 0.000000 -0.996195
vn 0.522021 0.000000 -0.852933
vn 0.087153 0.000000 -0.996195
vn 0.087153 0.000000 -0.996195
vn 0.522021 0.000000 -0.852933
vn 0.522021 0.000000 -0.852933
vn -0.422612 0.000000 -0.906311
vn 0.087153 0.000000 -0.996195
vn -0.422612 0.000000 -0.906311
vn -0.422612 0.000000 -0.906311
vn 0.087153 0.000000 -0.996195
vn 0.087153 0.000000 -0.996195
vn -0.819152 0.000000 -0.573576
vn -0.422612 0.000000 -0.906311
vn -0.819152 0.000000 -0.573576
vn -0.819152 0.000000 -0.573576
vn -0.422612 0.000000 -0.906311
vn -0.422612 0.000000 -0.906311
vn -0.996196 0.000000 -0.087146
vn -0.819152 0.000000 -0.573576
vn -0.996196 0.000000 -0.087146
vn -0.996196 0.000000 -0.087146
vn -0.819152 0.000000 -0.573576
vn -0.819152 0.000000 -0.573576
vn -0.906309 0.000000 0.422616
vn -0.996196 0.000000 -0.087146
vn -0.906309 0.000000 0.422616
vn -0.906309 0.000000 0.422616
vn -0.996196 0.000000 -0.087146
vn -0.996196 0.000000 -0.087146
vn -0.622955 0.000000 0.782258
vn -0.906309 0.000000 0.422616
vn -0.622955 0.000000 0.782258
vn -0.622955 0.000000 0.782258
vn -0.906309 0.000000 0.422616
vn -0.906309 0.000000 0.422616
vn -0.622955 0.000000 0.782258
vn -0.573573 -0.000000 0.819155
vn -0.622955 0.000000 0.782258
vn -0.622955 0.000000 0.782258
vn -0.573573 -0.000000 0.819155
vn -0.573573 -0.000000 0.819155
vn 0.522021 0.000000 -0.852933
vn 0.573573 0.000001 -0.819155
vn 0.522021 0.000000 -0.852933
vn 0.522021 0.000000 -0.852933
vn 0.573573 0.000001 -0.819155
vn 0.573573 0.000001 -0.819155
vn 0.572211 0.068672 -0.817226
vn 0.573573 0.000001 -0.819155
vn 0.567279 0.147685 -0.810175
vn 0.573573 0.000001 -0.819155
vn 0.572211 0.068672 -0.817226
vn 0.573573 0.000001 -0.819155
vn 0.573573 0.000001 -0.819155
vn 0.572211 0.068672 -0.817226
vn 0.572212 -0.068662 -0.817227
vn 0.573573 0.000001 -0.819155
vn 0.572212 -0.068662 -0.817227
vn 0.567278 -0.147676 -0.810178
vn -0.573573 -0.000000 0.819155
vn -0.572221 0.068673 0.817219
vn -0.567298 0.147694 0.810160
vn -0.573573 -0.000000 0.819155
vn -0.573573 -0.000000 0.819155
vn -0.572221 0.068673 0.817219
vn -0.572221 0.068673 0.817219
vn -0.573573 -0.000000 0.819155
vn -0.572214 -0.068678 0.817224
vn 0.000000 1.000000 0.000000
vn 0.000000 1.000000 0.000000
vn 0.000001 1.000000 0.000001
vn 0.000001 1.000000 0.000001
vn 0.000000 1.000000 0.000000
vn 0.000001 1.000000 0.000001
vn -0.819153 -0.000013 -0.573575
vn -0.819152 -0.000009 -0.573576
vn -0.819153 -0.000013 -0.573575
vn -0.819153 -0.000013 -0.573575
vn -0.819152 -0.000009 -0.573576
vn -0.819152 -0.000009 -0.573576
vn 0.000001 1.000000 0.000001
vn 0.000001 1.000000 0.000001
vn 0.000006 1.000000 0.000004
vn 0.000006 1.000000 0.000004
vn 0.000001 1.000000 0.000001
vn 0.000006 1.000000 0.000004
vn 0.000006 1.000000 0.000004
vn 0.000006 1.000000 0.000004
vn 0.000000 1.000000 0.000000
vn 0.000000 1.000000 0.000000
vn 0.000006 1.000000 0.000004
vn 0.000000 1.000000 0.000000
vn 0.000000 1.000000 0.000000
vn 0.000000 1.000000 0.000000
vn 0.000000 1.000000 0.000000
vn 0.000000 -1.000000 0.000000
vn 0.000000 -1.000000 0.000000
vn 0.000000 -1.000000 0.000000
vn -0.819153 -0.000037 -0.573575
vn -0.819152 -0.000031 -0.573576
vn -0.819153 -0.000037 -0.573575
vn -0.819153 -0.000037 -0.573575
vn -0.819152 -0.000031 -0.573576
vn -0.819152 -0.000031 -0.573576
vn 0.000000 -1.000000 0.000000
vn 0.000000 -1.000000 0.000000
vn -0.000000 -1.000000 -0.000000
vn -0.000000 -1.000000 -0.000000
vn 0.000000 -1.000000 0.000000
vn -0.000000 -1.000000 -0.000000
vn -0.000000 -1.000000 -0.000000
vn -0.000000 -1.000000 -0.000000
vn -0.000001 -1.000000 -0.000001
vn -0.000001 -1.000000 -0.000001
vn -0.000000 -1.000000 -0.000000
vn -0.000001 -1.000000 -0.000001
vn -0.000001 -1.000000 -0.000001
vn -0.000001 -1.000000 -0.000001
vn 0.000000 -1.000000 0.000000
vn 0.000000 -1.000000 0.000000
vn -0.000001 -1.000000 -0.000001
vn 0.000000 -1.000000 0.000000
vn 0.572211 0.068672 -0.817226
vn 0.567279 0.147685 -0.810175
vn 0.496675 0.500015 -0.709435
vn 0.496675 0.500015 -0.709435
vn 0.567279 0.147685 -0.810175
vn 0.496686 0.499985 -0.709450
vn 0.496675 0.500015 -0.709435
vn 0.496686 0.499985 -0.709450
vn 0.286709 0.866026 -0.409631
vn 0.286709 0.866026 -0.409631
vn 0.496686 0.499985 -0.709450
vn 0.286720 0.866015 -0.409646
vn 0.286709 0.866026 -0.409631
vn 0.286720 0.866015 -0.409646
vn -0.000061 1.000000 -0.000047
vn -0.000061 1.000000 -0.000047
vn 0.286720 0.866015 -0.409646
vn -0.000057 1.000000 -0.000053
vn -0.000061 1.000000 -0.000047
vn -0.000057 1.000000 -0.000053
vn -0.286848 0.866028 0.409528
vn -0.286848 0.866028 0.409528
vn -0.000057 1.000000 -0.000053
vn -0.286852 0.866025 0.409533
vn -0.286848 0.866028 0.409528
vn -0.286852 0.866025 0.409533
vn -0.496777 0.500029 0.709354
vn -0.496777 0.500029 0.709354
vn -0.286852 0.866025 0.409533
vn -0.496787 0.499998 0.709369
vn -0.496777 0.500029 0.709354
vn -0.496787 0.499998 0.709369
vn -0.572221 0.068673 0.817219
vn -0.572221 0.068673 0.817219
vn -0.496787 0.499998 0.709369
vn -0.567298 0.147694 0.810160
vn -0.819154 -0.000003 -0.573574
vn -0.819153 -0.000013 -0.573575
vn -0.819154 -0.000003 -0.573574
vn -0.819154 -0.000003 -0.573574
vn -0.819153 -0.000013 -0.573575
vn -0.819153 -0.000013 -0.573575
vn -0.819154 -0.000003 -0.573574
vn -0.819154 -0.000003 -0.573574
vn -0.819152 0.000064 -0.573576
vn -0.819152 0.000064 -0.573576
vn -0.819154 -0.000003 -0.573574
vn -0.819152 0.000064 -0.573576
vn -0.819152 0.000064 -0.573576
vn -0.819160 -0.000128 -0.573566
vn -0.819152 0.000064 -0.573576
vn -0.572214 -0.068678 0.817224
vn -0.567282 -0.147701 0.810170
vn -0.496744 -0.500017 0.709386
vn -0.496744 -0.500017 0.709386
vn -0.567282 -0.147701 0.810170
vn -0.496754 -0.499987 0.709400
vn -0.496744 -0.500017 0.709386
vn -0.496754 -0.499987 0.709400
vn -0.286819 -0.866018 0.409570
vn -0.286819 -0.866018 0.409570
vn -0.496754 -0.499987 0.709400
vn -0.286824 -0.866013 0.409577
vn -0.286819 -0.866018 0.409570
vn -0.286824 -0.866013 0.409577
vn -0.000011 -1.000000 -0.000001
vn -0.000011 -1.000000 -0.000001
vn -0.286824 -0.866013 0.409577
vn -0.000013 -1.000000 0.000001
vn -0.000011 -1.000000 -0.000001
vn -0.000013 -1.000000 0.000001
vn 0.286770 -0.866020 -0.409600
vn 0.286770 -0.866020 -0.409600
vn -0.000013 -1.000000 0.000001
vn 0.286766 -0.866024 -0.409595
vn 0.286770 -0.866020 -0.409600
vn 0.286766 -0.866024 -0.409595
vn 0.496704 -0.500000 -0.709426
vn 0.496704 -0.500000 -0.709426
vn 0.286766 -0.866024 -0.409595
vn 0.496714 -0.499970 -0.709440
vn 0.496704 -0.500000 -0.709426
vn 0.496714 -0.499970 -0.709440
vn 0.572212 -0.068662 -0.817227
vn 0.572212 -0.068662 -0.817227
vn 0.496714 -0.499970 -0.709440
vn 0.567278 -0.147676 -0.810178
vn -0.819154 -0.000051 -0.573573
vn -0.819153 -0.000037 -0.573575
vn -0.819154 -0.000051 -0.573573
vn -0.819154 -0.000051 -0.573573
vn -0.819153 -0.000037 -0.573575
vn -0.819153 -0.000037 -0.573575
vn -0.819154 -0.000051 -0.573573
vn -0.819154 -0.000051 -0.573573
vn -0.819156 -0.000059 -0.573571
vn -0.819156 -0.000059 -0.573571
vn -0.819154 -0.000051 -0.573573
vn -0.819156 -0.000059 -0.573571
vn -0.819156 -0.000059 -0.573571
vn -0.819158 0.000055 -0.573568
vn -0.819156 -0.000059 -0.573571
s off
g SM_RoomDivider_02b
f 1/1/1 5/2/2 7/4/3
f 7/4/4 5/2/5 11/3/6
f 10/5/7 27/6/8 11/3/9
f 11/3/10 27/6/11 7/4/12
f 3/8/13 22/9/14 6/7/15
f 6/7/16 22/9/17 2/10/18
f 14/11/19 1/12/20 22/14/21
f 22/14/22 1/12/23 2/13/24
f 15/15/25 14/11/26 21/16/27
f 21/16/28 14/11/29 22/14/30
f 16/17/31 15/15/32 20/18/33
f 20/18/34 15/15/35 21/16/36
f 17/19/37 16/17/38 19/20/39
f 19/20/40 16/17/41 20/18/42
f 13/21/43 17/19/44 18/22/45
f 18/22/46 17/19/47 19/20/48
f 4/23/49 13/21/50 3/24/51
f 3/24/52 13/21/53 18/22/54
f 5/25/55 4/26/56 6/28/57
f 6/28/58 4/26/59 3/27/60
f 11/29/61 5/30/62 12/32/63
f 12/32/64 5/30/65 6/31/66
f 12/33/67 9/34/68 11/36/69
f 11/36/70 9/34/71 10/35/72
f 10/37/73 9/38/74 23/40/75
f 23/40/76 9/38/77 28/39/78
f 24/41/79 23/40/80 32/42/81
f 32/42/82 23/40/83 28/39/84
f 25/43/85 24/41/86 31/44/87
f 31/44/88 24/41/89 32/42/90
f 26/45/91 25/43/92 30/46/93
f 30/46/94 25/43/95 31/44/96
f 27/47/97 26/45/98 29/48/99
f 29/48/100 26/45/101 30/46/102
f 7/49/103 27/47/104 8/50/105
f 8/50/106 27/47/107 29/48/108
f 1/51/109 7/52/110 2/54/111
f 2/54/112 7/52/113 8/53/114
f 28/55/115 30/56/116 32/58/117
f 32/58/118 30/56/119 31/57/120
f 13/59/121 15/60/122 17/62/123
f 17/62/124 15/60/125 16/61/126
f 12/63/127 6/7/128 8/64/129
f 8/64/130 6/7/131 2/10/132
f 3/8/133 18/65/134 22/9/135
f 22/9/136 18/65/137 21/66/138
f 1/1/139 14/67/140 5/2/141
f 5/2/142 14/67/143 4/68/144
f 4/68/145 14/67/146 13/59/147
f 13/59/148 14/67/149 15/60/150
f 21/66/151 18/65/152 20/70/153
f 20/70/154 18/65/155 19/69/156
f 8/64/157 29/71/158 12/63/159
f 12/63/160 29/71/161 9/72/162
f 10/5/163 23/73/164 27/6/165
f 27/6/166 23/73/167 26/74/168
f 26/74/169 23/73/170 25/76/171
f 25/76/172 23/73/173 24/75/174
f 9/72/175 29/71/176 28/55/177
f 28/55/178 29/71/179 30/56/180
f 54/77/181 53/78/182 39/80/183
f 39/80/184 53/78/185 33/79/186
f 52/81/187 51/82/188 40/84/189
f 40/84/190 51/82/191 34/83/192
f 49/85/193 35/86/194 50/88/195
f 50/88/196 35/86/197 41/87/198
f 47/89/199 36/90/200 48/92/201
f 48/92/202 36/90/203 42/91/204
f 45/93/205 37/94/206 46/96/207
f 46/96/208 37/94/209 43/95/210
f 38/97/211 45/93/212 44/98/213
f 44/98/214 45/93/215 46/96/216
f 43/95/217 37/94/218 48/92/219
f 48/92/220 37/94/221 47/89/222
f 42/91/223 36/90/224 50/88/225
f 50/88/226 36/90/227 49/85/228
f 41/87/229 35/86/230 52/81/231
f 52/81/232 35/86/233 51/82/234
f 40/84/235 34/83/236 54/77/237
f 54/77/238 34/83/239 53/78/240
f 39/80/241 33/79/242 56/100/243
f 56/100/244 33/79/245 55/99/246
f 75/101/247 76/102/248 57/104/249
f 57/104/250 76/102/251 62/103/252
f 73/105/253 74/106/254 58/108/255
f 58/108/256 74/106/257 63/107/258
f 72/109/259 64/110/260 71/112/261
f 71/112/262 64/110/263 59/111/264
f 70/113/265 65/114/266 69/116/267
f 69/116/268 65/114/269 60/115/270
f 67/117/271 68/118/272 61/120/273
f 61/120/274 68/118/275 66/119/276
f 38/97/277 44/98/278 67/117/279
f 67/117/280 44/98/281 68/118/282
f 61/120/283 66/119/284 69/116/285
f 69/116/286 66/119/287 70/113/288
f 60/115/289 65/114/290 71/112/291
f 71/112/292 65/114/293 72/109/294
f 59/111/295 64/110/296 73/105/297
f 73/105/298 64/110/299 74/106/300
f 58/108/301 63/107/302 75/101/303
f 75/101/304 63/107/305 76/102/306
f 57/104/307 62/103/308 77/122/309
f 77/122/310 62/103/311 78/121/312
f 83/123/313 79/124/314 86/126/315
f 86/126/316 79/124/317 81/125/318
f 80/127/319 84/128/320 82/130/321
f 82/130/322 84/128/323 85/129/324
f 55/131/325 77/132/326 79/124/327
f 79/124/328 77/132/329 81/125/330
f 46/133/331 68/134/332 44/135/333
f 55/131/334 33/136/335 77/132/336
f 77/132/337 33/136/338 57/137/339
f 56/138/340 80/127/341 78/139/342
f 78/139/343 80/127/344 82/130/345
f 57/137/346 33/136/347 75/141/348
f 75/141/349 33/136/350 53/140/351
f 56/138/352 78/139/353 39/143/354
f 39/143/355 78/139/356 62/142/357
f 75/141/358 53/140/359 58/145/360
f 58/145/361 53/140/362 34/144/363
f 39/143/364 62/142/365 54/147/366
f 54/147/367 62/142/368 76/146/369
f 58/145/370 34/144/371 73/149/372
f 73/149/373 34/144/374 51/148/375
f 54/147/376 76/146/377 40/151/378
f 40/151/379 76/146/380 63/150/381
f 73/149/382 51/148/383 59/153/384
f 59/153/385 51/148/386 35/152/387
f 40/151/388 63/150/389 52/155/390
f 52/155/391 63/150/392 74/154/393
f 59/153/394 35/152/395 71/157/396
f 71/157/397 35/152/398 49/156/399
f 52/155/400 74/154/401 41/159/402
f 41/159/403 74/154/404 64/158/405
f 71/157/406 49/156/407 60/161/408
f 60/161/409 49/156/410 36/160/411
f 41/159/412 64/158/413 50/163/414
f 50/163/415 64/158/416 72/162/417
f 60/161/418 36/160/419 69/165/420
f 69/165/421 36/160/422 47/164/423
f 50/163/424 72/162/425 42/167/426
f 42/167/427 72/162/428 65/166/429
f 69/165/430 47/164/431 61/169/432
f 61/169/433 47/164/434 37/168/435
f 42/167/436 65/166/437 48/171/438
f 48/171/439 65/166/440 70/170/441
f 61/169/442 37/168/443 67/173/444
f 67/173/445 37/168/446 45/172/447
f 48/171/448 70/170/449 43/175/450
f 43/175/451 70/170/452 66/174/453
f 67/173/454 45/172/455 38/176/456
f 43/175/457 66/174/458 46/133/459
f 46/133/460 66/174/461 68/134/462
f 112/177/463 91/178/464 94/179/465
f 97/180/466 96/181/467 106/183/468
f 106/183/469 96/181/470 105/182/471
f 98/184/472 97/180/473 107/185/474
f 107/185/475 97/180/476 106/183/477
f 99/186/478 98/184/479 108/187/480
f 108/187/481 98/184/482 107/185/483
f 100/188/484 99/186/485 109/189/486
f 109/189/487 99/186/488 108/187/489
f 101/190/490 100/188/491 110/191/492
f 110/191/493 100/188/494 109/189/495
f 102/192/496 101/190/497 111/193/498
f 111/193/499 101/190/500 110/191/501
f 111/193/502 112/177/503 102/192/504
f 102/192/505 112/177/506 103/194/507
f 96/181/508 95/195/509 105/182/510
f 105/182/511 95/195/512 104/196/513
f 88/197/514 95/198/515 87/199/516
f 95/198/517 88/197/518 104/201/519
f 104/201/520 88/197/521 93/200/522
f 104/201/523 93/200/524 92/202/525
f 103/194/526 90/203/527 89/204/528
f 103/194/529 112/177/530 90/203/531
f 90/203/532 112/177/533 94/179/534
f 103/205/535 95/206/536 102/208/537
f 102/208/538 95/206/539 96/207/540
f 87/209/541 95/210/542 89/212/543
f 89/212/544 95/210/545 103/211/546
f 102/208/547 96/207/548 101/214/549
f 101/214/550 96/207/551 97/213/552
f 101/214/553 97/213/554 100/216/555
f 100/216/556 97/213/557 98/215/558
f 100/216/559 98/215/560 99/217/561
f 107/218/562 109/219/563 108/220/564
f 91/221/565 112/222/566 92/224/567
f 92/224/568 112/222/569 104/223/570
f 104/225/571 112/226/572 105/228/573
f 105/228/574 112/226/575 111/227/576
f 105/228/577 111/227/578 106/230/579
f 106/230/580 111/227/581 110/229/582
f 106/230/583 110/229/584 107/218/585
f 107/218/586 110/229/587 109/219/588
f 88/197/589 87/199/590 118/232/591
f 118/232/592 87/199/593 113/231/594
f 118/232/595 113/231/596 119/234/597
f 119/234/598 113/231/599 114/233/600
f 119/234/601 114/233/602 120/236/603
f 120/236/604 114/233/605 115/235/606
f 120/236/607 115/235/608 121/238/609
f 121/238/610 115/235/611 116/237/612
f 121/238/613 116/237/614 122/240/615
f 122/240/616 116/237/617 117/239/618
f 122/240/619 117/239/620 90/203/621
f 90/203/622 117/239/623 89/204/624
f 113/241/625 87/209/626 117/242/627
f 117/242/628 87/209/629 89/212/630
f 113/241/631 117/242/632 114/244/633
f 114/244/634 117/242/635 116/243/636
f 116/243/637 115/245/638 114/244/639
f 94/179/640 91/178/641 128/247/642
f 128/247/643 91/178/644 123/246/645
f 128/247/646 123/246/647 129/249/648
f 129/249/649 123/246/650 124/248/651
f 129/249/652 124/248/653 130/251/654
f 130/251/655 124/248/656 125/250/657
f 130/252/658 125/253/659 131/255/660
f 131/255/661 125/253/662 126/254/663
f 131/255/664 126/254/665 132/257/666
f 132/257/667 126/254/668 127/256/669
f 132/257/670 127/256/671 93/200/672
f 93/200/673 127/256/674 92/202/675
f 123/258/676 91/221/677 127/259/678
f 127/259/679 91/221/680 92/224/681
f 123/258/682 127/259/683 124/261/684
f 124/261/685 127/259/686 126/260/687
f 126/260/688 125/262/689 124/261/690
f 158/263/691 137/264/692 140/265/693
f 143/266/694 142/267/695 152/269/696
f 152/269/697 142/267/698 151/268/699
f 144/270/700 143/266/701 153/271/702
f 153/271/703 143/266/704 152/269/705
f 145/272/706 144/270/707 154/273/708
f 154/273/709 144/270/710 153/271/711
f 146/274/712 145/272/713 155/275/714
f 155/275/715 145/272/716 154/273/717
f 147/276/718 146/274/719 156/277/720
f 156/277/721 146/274/722 155/275/723
f 148/278/724 147/276/725 157/279/726
f 157/279/727 147/276/728 156/277/729
f 157/279/730 158/263/731 148/278/732
f 148/278/733 158/263/734 149/280/735
f 142/267/736 141/281/737 151/268/738
f 151/268/739 141/281/740 150/282/741
f 134/283/742 141/284/743 133/285/744
f 141/284/745 134/283/746 150/287/747
f 150/287/748 134/283/749 139/286/750
f 150/287/751 139/286/752 138/288/753
f 149/280/754 136/289/755 135/290/756
f 149/280/757 158/263/758 136/289/759
f 136/289/760 158/263/761 140/265/762
f 149/291/763 141/292/764 148/294/765
f 148/294/766 141/292/767 142/293/768
f 133/295/769 141/296/770 135/298/771
f 135/298/772 141/296/773 149/297/774
f 148/294/775 142/293/776 147/300/777
f 147/300/778 142/293/779 143/299/780
f 147/300/781 143/299/782 146/302/783
f 146/302/784 143/299/785 144/301/786
f 146/302/787 144/301/788 145/303/789
f 153/304/790 155/305/791 154/306/792
f 137/307/793 158/308/794 138/310/795
f 138/310/796 158/308/797 150/309/798
f 150/311/799 158/312/800 151/314/801
f 151/314/802 158/312/803 157/313/804
f 151/314/805 157/313/806 152/316/807
f 152/316/808 157/313/809 156/315/810
f 152/316/811 156/315/812 153/304/813
f 153/304/814 156/315/815 155/305/816
f 134/283/817 133/285/818 164/318/819
f 164/318/820 133/285/821 159/317/822
f 164/318/823 159/317/824 165/320/825
f 165/320/826 159/317/827 160/319/828
f 165/320/829 160/319/830 166/322/831
f 166/322/832 160/319/833 161/321/834
f 166/322/835 161/321/836 167/324/837
f 167/324/838 161/321/839 162/323/840
f 167/324/841 162/323/842 168/326/843
f 168/326/844 162/323/845 163/325/846
f 168/326/847 163/325/848 136/289/849
f 136/289/850 163/325/851 135/290/852
f 159/327/853 133/295/854 163/328/855
f 163/328/856 133/295/857 135/298/858
f 159/327/859 163/328/860 160/330/861
f 160/330/862 163/328/863 162/329/864
f 162/329/865 161/331/866 160/330/867
f 140/265/868 137/264/869 174/333/870
f 174/333/871 137/264/872 169/332/873
f 174/333/874 169/332/875 175/335/876
f 175/335/877 169/332/878 170/334/879
f 175/335/880 170/334/881 176/337/882
f 176/337/883 170/334/884 171/336/885
f 176/338/886 171/339/887 177/341/888
f 177/341/889 171/339/890 172/340/891
f 177/341/892 172/340/893 178/343/894
f 178/343/895 172/340/896 173/342/897
f 178/343/898 173/342/899 139/286/900
f 139/286/901 173/342/902 138/288/903
f 169/344/904 137/307/905 173/345/906
f 173/345/907 137/307/908 138/310/909
f 169/344/910 173/345/911 170/347/912
f 170/347/913 173/345/914 172/346/915
f 172/346/916 171/348/917 170/347/918
