# This file uses feet as units for non-parametric coordinates.

g default
v -12.847519 73.643013 14.454527
v 14.111824 73.678757 14.500048
v 15.118867 67.064262 5.489376
v -13.896665 67.016136 5.315284
v 14.163679 74.945992 5.656608
v 16.071798 73.508911 16.177122
v -14.476072 73.608978 16.075375
v -12.568996 15.465521 -7.922294
v -11.532895 15.459652 -11.124089
v -8.458799 15.463114 -12.486748
v 0.720531 15.364553 -15.586330
v -3.688559 66.981873 -13.881143
v 11.739478 74.977509 -9.903994
v 9.205052 15.468407 14.065845
v -12.846934 74.977150 14.393937
v 4.870737 67.050606 15.446449
v -7.950529 15.467621 13.935970
v 14.102842 74.975227 -12.442959
v -4.172510 74.960266 -12.482519
v 15.512751 15.553167 -1.303791
v 4.724821 66.953323 -13.840194
v -3.633543 66.973503 15.307338
v -12.469356 15.466772 9.851840
v 14.103157 74.979042 14.439698
v 10.065433 0.001155 -10.488217
v -13.806342 66.895805 -3.823630
v 13.929707 15.463842 9.855544
v -15.965876 15.406686 0.642382
v -11.308222 5.662380 -5.814869
v 5.028626 74.978622 14.498098
v 13.975037 15.463264 -8.281766
v 0.203028 5.662770 12.800468
v 0.406719 76.356239 11.861474
v -10.457533 76.356087 1.013003
v 10.472171 5.662170 8.586299
v -12.828012 74.973938 -12.516602
v 11.664524 73.497215 11.770508
v 12.524742 5.662770 1.449357
v -14.702328 73.557755 -14.474689
v -9.383378 5.661555 8.498675
v -9.524529 73.085098 -8.969577
v 7.121253 5.662770 -10.696699
v -13.851503 64.344437 0.854768
v -9.046604 5.662770 -8.632897
v 8.962440 15.466541 -12.156790
v 15.074890 66.959427 -3.474723
v 15.777674 73.530258 -14.212388
v -14.283809 15.521643 3.275760
v 14.317462 15.461630 14.614285
v -11.263586 5.662770 0.582010
v 12.784489 15.459652 -11.129266
v -13.125307 15.462034 -13.012195
v -14.427343 15.514460 -2.054247
v -9.466331 73.127815 10.866163
v 15.658640 15.555122 4.060890
v -13.027480 15.462072 14.509838
v 0.883851 5.662770 -10.862088
v 3.363782 15.572914 -13.985328
v -2.358657 15.539297 15.950043
v 17.190125 15.382539 1.358908
v -1.822842 15.543976 -13.987585
v 0.283519 15.377695 17.478199
v 2.795480 15.535923 15.814859
v 11.910418 76.371231 0.905544
v -14.298352 76.447342 1.042301
v -7.038118 5.660955 -8.904523
v 14.110939 73.693901 -12.488303
v -6.241346 5.661555 12.804592
v -12.879170 74.990883 5.642161
v -11.035854 5.661555 7.863738
v 10.802759 73.110420 -9.021615
v 10.750922 73.034401 10.913498
v 14.139532 15.461277 -12.634889
v 7.950054 5.662770 -9.166988
v 15.096879 64.377380 1.066313
v 12.793032 15.459599 13.193168
v 0.500094 76.444641 15.864218
v -11.523067 15.459412 13.198161
v 10.286751 5.662170 10.713017
v -10.355455 73.404221 11.758573
v 15.423089 76.458679 0.894388
v -12.842811 74.990646 -3.518553
v -9.026738 5.661555 10.749977
v 14.136773 74.948151 -3.546074
v -10.361169 73.435425 -9.822067
v -4.140146 74.949471 14.497663
v 7.890400 5.662215 11.108296
v 11.656638 73.356689 -9.798552
v 7.178365 5.662215 12.627127
v 4.345809 74.975800 -9.937135
v 12.416218 5.662770 -5.448874
v 5.122987 74.960297 -12.499275
v 0.565796 76.454025 -13.919018
v 12.402259 5.662215 8.074339
v 11.743121 74.978889 11.849434
v -12.795513 73.671951 -12.521227
v -9.182867 5.662380 -7.070555
v -6.890655 5.662770 10.799397
v -3.324538 74.977417 11.855626
v -6.190120 5.661345 -10.832263
v -10.460172 74.977722 4.769386
v 0.497620 64.375954 15.376893
v 0.542545 76.361519 -9.915529
v 4.323287 74.978981 11.853437
v -10.428864 74.975319 11.834741
v -3.347175 74.975922 -9.911559
v -10.447217 74.976913 -9.914995
v 10.268953 5.662770 -8.645880
v -10.450156 74.974724 -2.742761
v 11.731498 74.978050 5.071591
v 11.709093 0.001664 -8.830165
v 9.967573 5.662770 -10.477452
v 10.761031 5.662770 -6.362671
v 11.710349 74.984856 -2.373365
v 0.434108 64.550423 -13.860668
v 14.368148 5.662770 -8.596730
v 11.704959 5.662770 -8.838884
v 10.042114 0.001095 12.492033
v 10.042167 5.662770 12.492438
v -9.500044 5.662770 12.471432
v -9.499961 0.001529 12.467339
v -11.109601 5.662770 10.743020
v -11.107621 0.000675 10.747773
v -9.502255 0.000000 -10.519977
v -9.502112 5.662770 -10.515330
v -11.121116 5.662770 -8.872843
v -11.125059 0.001110 -8.853349
v 11.738811 5.662770 10.735703
v 11.737521 0.000990 10.735703
v -14.250980 74.990738 -3.518009
v -14.262953 74.990852 5.640587
v -4.172495 74.961411 -13.923775
v 5.129650 74.960808 -13.922450
v 15.558819 74.974899 -3.499035
v 15.509895 74.973969 5.614933
v 5.029594 75.011757 15.897999
v -4.139145 74.980415 15.897909
v -14.400939 65.103676 15.930115
v -14.571785 69.779526 16.089424
v -14.020025 65.355690 15.604258
v -14.067892 69.819244 15.636478
v 15.872982 64.855736 16.008772
v 16.020422 69.537514 16.140942
v 15.415524 65.239861 15.584465
v 15.497299 69.772110 15.635145
v 15.735670 65.061737 -14.183909
v -14.467152 64.894119 -14.256593
v -14.597056 69.679672 -14.377063
v -14.203877 69.998665 -13.980600
v -14.073028 65.362869 -13.807847
v 15.495590 69.802002 -13.949084
v 15.998022 69.475731 -14.413459
v 15.297854 65.365944 -13.802767
v 10.162675 59.785007 -8.423347
v -8.914847 59.762428 -8.376917
v -8.862925 59.800526 10.113135
v 10.116423 59.717209 10.155357
v -5.966662 15.491865 -14.004055
v 7.224401 15.506447 -13.873445
v 15.388858 15.497511 -5.623453
v 15.605936 15.513380 8.015459
v 6.739263 15.497839 15.708748
v -6.276424 15.495996 15.926052
v -14.096470 15.487547 7.401467
v -14.441535 15.483543 -6.033223
v 14.131188 5.662770 -8.834161
v 14.367196 -0.001454 -8.604136
v 14.130218 -0.001214 -8.840129
v 11.659071 5.662770 -10.263264
v 11.414486 5.662770 -10.470672
v 11.665811 0.001424 -10.269936
v 11.421806 0.001349 -10.474463
v 9.972004 5.662770 -12.882729
v 9.735482 5.662770 -13.137856
v 9.707392 0.001244 -13.094414
v 9.955709 0.001259 -12.838158
v -9.279494 5.662770 15.151343
v -9.499871 5.662770 14.914743
v -9.278955 0.001095 15.121731
v -9.499856 0.001140 14.884336
v -11.109219 5.662770 12.234457
v -10.889921 5.662770 12.471432
v -11.109391 0.001424 12.230379
v -10.894531 0.001529 12.467339
v -9.329326 -0.001349 -13.128395
v -9.502090 -0.001244 -12.872718
v -9.330473 5.662770 -13.059190
v -9.502068 5.662770 -12.802108
v -11.121116 5.662770 -10.281454
v -10.929939 5.662770 -10.507293
v -11.125059 0.001110 -10.291424
v -10.952032 0.000960 -10.510175
v 14.367751 5.662770 10.535567
v 14.130775 5.662770 10.735119
v 14.367953 0.000750 10.535643
v 14.130997 0.000810 10.735703
v 11.733735 0.001080 12.294282
v 11.455797 0.001095 12.492033
v 11.455044 5.662770 12.492438
v 11.733889 5.662770 12.291643
v -13.417586 5.662770 -8.851912
v -13.751960 5.662770 -8.766307
v -13.426365 0.001020 -8.847131
v -13.752395 0.000975 -8.770269
v 9.823769 5.662770 15.122661
v 10.042107 5.662770 14.885325
v 9.823788 0.001155 15.156487
v 10.042099 0.001155 14.919946
v -13.751983 5.662770 10.499673
v -13.516207 5.662770 10.737218
v -13.751901 -0.001709 10.493720
v -13.559209 -0.001529 10.732180
vt 0.290824 0.698958
vt 0.283584 0.679906
vt 0.294659 0.681397
vt 0.264960 0.679928
vt 0.283894 0.668880
vt 0.285796 0.667279
vt 0.297068 0.667273
vt 0.278081 0.705945
vt 0.263139 0.681751
vt 0.318917 0.665646
vt 0.312549 0.677408
vt 0.277141 0.758881
vt 0.297207 0.648956
vt 0.262873 0.828591
vt 0.299029 0.647020
vt 0.277995 0.809705
vt 0.366378 0.664368
vt 0.264693 0.830136
vt 0.444092 0.647642
vt 0.283173 0.830148
vt 0.420201 0.664628
vt 0.294391 0.829915
vt 0.445420 0.649610
vt 0.292876 0.813549
vt 0.283295 0.842162
vt 0.445544 0.666980
vt 0.426748 0.679442
vt 0.285468 0.843688
vt 0.442295 0.681464
vt 0.296381 0.843599
vt 0.458365 0.679334
vt 0.456523 0.666806
vt 0.458041 0.668503
vt 0.318412 0.844575
vt 0.460119 0.702850
vt 0.296485 0.861907
vt 0.312883 0.832884
vt 0.476343 0.679421
vt 0.443572 0.693494
vt 0.298166 0.863719
vt 0.478933 0.680098
vt 0.371836 0.845894
vt 0.459744 0.752004
vt 0.444458 0.863870
vt 0.478780 0.828302
vt 0.421178 0.845906
vt 0.457925 0.807994
vt 0.446149 0.862054
vt 0.476967 0.830126
vt 0.442498 0.830139
vt 0.446140 0.843339
vt 0.458469 0.830100
vt 0.445228 0.812857
vt 0.426133 0.830527
vt 0.458488 0.841524
vt 0.456805 0.843345
vt 0.847000 0.629831
vt 0.848158 0.581198
vt 0.859298 0.581198
vt 0.857444 0.629831
vt 0.861931 0.581198
vt 0.860091 0.629831
vt 0.019744 0.629831
vt 0.008636 0.629831
vt 0.008764 0.581198
vt 0.019754 0.581198
vt 0.069409 0.091535
vt 0.069426 0.006180
vt 0.038467 0.581198
vt 0.038419 0.629831
vt 0.041051 0.581198
vt 0.040994 0.629831
vt 0.100421 0.091535
vt 0.158822 0.558562
vt 0.829350 0.629831
vt 0.829947 0.581198
vt 0.827372 0.581198
vt 0.826707 0.629831
vt 0.422843 0.581198
vt 0.423198 0.629831
vt 0.404580 0.629831
vt 0.404021 0.581198
vt 0.401441 0.581198
vt 0.401997 0.629831
vt 0.013760 0.490316
vt 0.008253 0.091535
vt 0.433366 0.581198
vt 0.433777 0.629831
vt 0.435949 0.581198
vt 0.436344 0.629831
vt 0.447431 0.581198
vt 0.447754 0.629831
vt 0.128977 0.561932
vt 0.124179 0.091535
vt 0.091524 0.499500
vt 0.099277 0.557514
vt 0.679932 0.629831
vt 0.680362 0.581198
vt 0.677364 0.629831
vt 0.677781 0.581198
vt 0.659663 0.629831
vt 0.660484 0.581198
vt 0.988777 0.541201
vt 0.225698 0.567931
vt 0.222463 0.553625
vt 0.648885 0.629831
vt 0.649971 0.581198
vt 0.647366 0.581198
vt 0.646278 0.629831
vt 0.009710 0.485905
vt 0.048500 0.091535
vt 0.188555 0.581198
vt 0.188558 0.629831
vt 0.191134 0.581198
vt 0.191138 0.629831
vt 0.233566 0.581198
vt 0.233883 0.629831
vt 0.223154 0.629831
vt 0.222840 0.581198
vt 0.220470 0.629831
vt 0.220125 0.581198
vt 0.073110 0.829680
vt 0.063925 0.819864
vt 0.184290 0.829834
vt 0.065021 0.829848
vt 0.063743 0.828418
vt 0.063892 0.708455
vt 0.074352 0.844865
vt 0.073004 0.843501
vt 0.048889 0.708601
vt 0.050771 0.708162
vt 0.073138 0.698842
vt 0.184376 0.843863
vt 0.183033 0.845200
vt 0.049850 0.819882
vt 0.048751 0.818423
vt 0.063802 0.699769
vt 0.064860 0.698487
vt 0.193962 0.819815
vt 0.193807 0.708546
vt 0.194129 0.828947
vt 0.192477 0.830060
vt 0.184441 0.699149
vt 0.209005 0.818835
vt 0.207640 0.819999
vt 0.192302 0.698962
vt 0.193756 0.700137
vt 0.182411 0.684069
vt 0.183938 0.685533
vt 0.207655 0.708282
vt 0.209025 0.709742
vt 0.073086 0.685109
vt 0.074134 0.683660
vt 0.637341 0.581198
vt 0.636352 0.629831
vt 0.619985 0.629831
vt 0.619198 0.581198
vt 0.616636 0.581198
vt 0.617397 0.629831
vt 0.727551 0.945222
vt 0.648630 0.959224
vt 0.648630 0.976699
vt 0.727611 0.971886
vt 0.033468 0.554718
vt 0.013064 0.550797
vt 0.251703 0.581198
vt 0.252265 0.629831
vt 0.254282 0.581198
vt 0.254841 0.629831
vt 0.754078 0.540528
vt 0.905001 0.492871
vt 0.014050 0.524760
vt 0.010073 0.521685
vt 0.208379 0.581198
vt 0.208733 0.629831
vt 0.241102 0.091535
vt 0.166902 0.558493
vt 0.162121 0.500375
vt 0.190193 0.898273
vt 0.465798 0.581198
vt 0.466580 0.629831
vt 0.127444 0.478853
vt 0.124069 0.006180
vt 0.468379 0.581198
vt 0.469149 0.629831
vt 0.031485 0.563973
vt 0.908162 0.947439
vt 0.090761 0.558734
vt 0.148174 0.091535
vt 0.325693 0.946723
vt 0.266656 0.946723
vt 0.295843 0.936085
vt 0.377911 0.957854
vt 0.211859 0.957854
vt 0.378571 0.946723
vt 0.211223 0.946723
vt 0.216085 0.763719
vt 0.234376 0.800778
vt 0.215784 0.794293
vt 0.245493 0.763870
vt 0.244982 0.800833
vt 0.234614 0.867848
vt 0.215973 0.848359
vt 0.233951 0.727293
vt 0.244736 0.727182
vt 0.167897 0.868976
vt 0.161616 0.848753
vt 0.215588 0.733133
vt 0.131212 0.849232
vt 0.215764 0.678229
vt 0.234017 0.658322
vt 0.167940 0.879712
vt 0.130658 0.879895
vt 0.161475 0.678348
vt 0.167721 0.658652
vt 0.094177 0.869302
vt 0.094219 0.880048
vt 0.129924 0.677989
vt 0.099451 0.848987
vt 0.129755 0.647338
vt 0.167822 0.647615
vt 0.024504 0.869097
vt 0.042571 0.849181
vt 0.093061 0.658544
vt 0.092928 0.647621
vt 0.023952 0.801677
vt 0.042614 0.797188
vt 0.098980 0.678169
vt 0.040982 0.763523
vt 0.042466 0.678559
vt 0.024261 0.659184
vt 0.013618 0.801385
vt 0.014023 0.763358
vt 0.024383 0.727444
vt 0.043087 0.736290
vt 0.013472 0.727711
vt 0.031868 0.918329
vt 0.085402 0.918329
vt 0.032581 0.929233
vt 0.143054 0.918329
vt 0.195385 0.929233
vt 0.114226 0.907720
vt 0.195969 0.918329
vt 0.079074 0.971928
vt 0.111045 0.961136
vt 0.136209 0.971928
vt 0.191669 0.982051
vt 0.029138 0.982051
vt 0.192478 0.971928
vt 0.028532 0.971928
vt 0.378917 0.914019
vt 0.213647 0.984167
vt 0.216556 0.920949
vt 0.023737 0.898273
vt 0.172251 0.943178
vt 0.372437 0.977356
vt 0.182390 0.890411
vt 0.010483 0.950644
vt 0.212675 0.881992
vt 0.267651 0.892383
vt 0.212071 0.892383
vt 0.380303 0.881992
vt 0.326344 0.892383
vt 0.380866 0.892383
vt 0.297708 0.902954
vt 0.990153 0.782019
vt 0.780999 0.781927
vt 0.779263 0.641905
vt 0.991348 0.641997
vt 0.554235 0.640400
vt 0.762931 0.640739
vt 0.764668 0.780754
vt 0.553696 0.780415
vt 0.759037 0.933355
vt 0.554203 0.933510
vt 0.555195 0.793487
vt 0.760745 0.793332
vt 0.989937 0.934029
vt 0.786188 0.934305
vt 0.783972 0.794284
vt 0.990528 0.794008
vt 0.323594 0.708138
vt 0.426581 0.707864
vt 0.426323 0.813635
vt 0.323828 0.813327
vt 0.927383 0.006180
vt 0.894013 0.091535
vt 0.870269 0.006180
vt 0.925536 0.091535
vt 0.871599 0.091535
vt 0.947968 0.091535
vt 0.872516 0.473556
vt 0.848527 0.091535
vt 0.471918 0.548004
vt 0.819782 0.006180
vt 0.987490 0.478367
vt 0.871818 0.555800
vt 0.903031 0.548483
vt 0.819152 0.091535
vt 0.984257 0.091535
vt 0.983827 0.483129
vt 0.842356 0.546616
vt 0.838567 0.492114
vt 0.800397 0.091535
vt 0.985684 0.513854
vt 0.982374 0.516713
vt 0.753932 0.478925
vt 0.260242 0.544708
vt 0.760262 0.091535
vt 0.757632 0.482474
vt 0.724237 0.541859
vt 0.753968 0.512153
vt 0.758258 0.515220
vt 0.488717 0.545708
vt 0.471094 0.884579
vt 0.391101 0.900552
vt 0.391073 0.874941
vt 0.469283 0.869093
vt 0.374741 0.558530
vt 0.180373 0.950644
vt 0.943165 0.006180
vt 0.489145 0.958310
vt 0.474656 0.970529
vt 0.478688 0.934719
vt 0.513715 0.966260
vt 0.200759 0.006180
vt 0.969754 0.546365
vt 0.911893 0.548862
vt 0.970876 0.555866
vt 0.186128 0.006180
vt 0.506458 0.542228
vt 0.239693 0.552955
vt 0.806460 0.006180
vt 0.552047 0.954999
vt 0.512320 0.958667
vt 0.522718 0.947114
vt 0.513583 0.925263
vt 0.739779 0.973962
vt 0.739835 0.943592
vt 0.818649 0.957663
vt 0.818650 0.975901
vt 0.203976 0.091535
vt 0.833991 0.546918
vt 0.772341 0.543626
vt 0.275635 0.548339
vt 0.243800 0.490196
vt 0.772307 0.555607
vt 0.427929 0.006180
vt 0.442327 0.006180
vt 0.452033 0.091535
vt 0.467703 0.919364
vt 0.388214 0.925797
vt 0.388215 0.907916
vt 0.467673 0.895731
vt 0.048575 0.006180
vt 0.428636 0.091535
vt 0.395425 0.091535
vt 0.180639 0.091535
vt 0.409011 0.495582
vt 0.371077 0.006180
vt 0.372995 0.474750
vt 0.371622 0.091535
vt 0.490734 0.482683
vt 0.402147 0.550180
vt 0.348138 0.091535
vt 0.486132 0.091535
vt 0.487238 0.486610
vt 0.345577 0.549123
vt 0.337926 0.496159
vt 0.316228 0.006180
vt 0.489461 0.516679
vt 0.317892 0.091535
vt 0.485119 0.520145
vt 0.298579 0.091535
vt 0.256959 0.480768
vt 0.261206 0.091535
vt 0.260825 0.485214
vt 0.259544 0.516507
vt 0.264574 0.519444
vt 0.503701 0.512581
vt 0.371185 0.920949
vt 0.411328 0.550804
vt 0.471019 0.560040
vt 0.205675 0.977356
vt 0.545455 0.843133
vt 0.545420 0.870095
vt 0.466222 0.855977
vt 0.466222 0.839665
vt 0.479676 0.903116
vt 0.476700 0.866598
vt 0.488398 0.877503
vt 0.515932 0.870805
vt 0.829435 0.946076
vt 0.301111 0.006180
vt 0.828950 0.958073
vt 0.364471 0.984167
vt 0.336594 0.549963
vt 0.246520 0.486768
vt 0.018775 0.943178
vt 0.278816 0.560020
vt 0.657001 0.491540
vt 0.738977 0.512168
vt 0.743025 0.539377
vt 0.743821 0.508952
vt 0.738763 0.478091
vt 0.694502 0.091535
vt 0.676844 0.006180
vt 0.689988 0.006180
vt 0.671718 0.091535
vt 0.558415 0.958702
vt 0.637148 0.943806
vt 0.637220 0.972134
vt 0.558414 0.977333
vt 0.723981 0.554171
vt 0.662403 0.550551
vt 0.653936 0.551010
vt 0.523604 0.543767
vt 0.742458 0.473974
vt 0.589326 0.491442
vt 0.734104 0.091535
vt 0.031011 0.890411
vt 0.623654 0.560206
vt 0.641595 0.091535
vt 0.622174 0.470841
vt 0.908115 0.973181
vt 0.619052 0.091535
vt 0.619448 0.006180
vt 0.592184 0.552092
vt 0.596214 0.091535
vt 0.566333 0.091535
vt 0.566394 0.006180
vt 0.546285 0.091535
vt 0.504948 0.477661
vt 0.506512 0.091535
vt 0.508119 0.480605
vt 0.247546 0.522606
vt 0.242529 0.525049
vt 0.550240 0.006180
vt 0.388962 0.950823
vt 0.387742 0.934485
vt 0.467202 0.937197
vt 0.467136 0.965143
vt 0.534339 0.809407
vt 0.506923 0.803745
vt 0.545884 0.799341
vt 0.541601 0.835088
vt 0.583638 0.551499
vt 0.523892 0.557197
vt 0.208710 0.914019
vt 0.508571 0.514618
vn 0.000000 1.000000 0.000000
vn 0.000000 1.000000 0.000000
vn 0.000000 1.000000 0.000000
vn 0.381932 0.000255 -0.924190
vn 0.381932 0.000255 -0.924190
vn 0.695629 0.000495 -0.718401
vn 0.695629 0.000495 -0.718401
vn 0.695629 0.000495 -0.718401
vn 0.381932 0.000255 -0.924190
vn 0.394407 -0.003220 -0.918930
vn -0.470866 0.005141 -0.882190
vn 0.394407 -0.003220 -0.918930
vn -0.470866 0.005141 -0.882190
vn 0.394407 -0.003220 -0.918930
vn -0.470866 0.005141 -0.882190
vn 0.906815 0.000001 0.421530
vn 0.923774 0.000351 -0.382939
vn 0.906815 0.000001 0.421530
vn 0.923774 0.000351 -0.382939
vn 0.906815 0.000001 0.421530
vn 0.923774 0.000351 -0.382939
vn 0.305655 0.000063 0.952142
vn 0.707101 -0.000054 0.707112
vn 0.305655 0.000063 0.952142
vn 0.707101 -0.000054 0.707112
vn 0.305655 0.000063 0.952142
vn 0.707101 -0.000054 0.707112
vn -0.000023 -1.000000 0.000518
vn -0.000023 -1.000000 0.000518
vn -0.000023 -1.000000 0.000518
vn -0.000007 -1.000000 0.000053
vn -0.000007 -1.000000 0.000053
vn -0.000007 -1.000000 0.000053
vn 0.000081 -1.000000 -0.000035
vn 0.000081 -1.000000 -0.000035
vn 0.000081 -1.000000 -0.000035
vn 0.931501 0.002196 0.363733
vn 0.931501 0.002196 0.363733
vn 0.707101 -0.000054 0.707112
vn 0.931501 0.002196 0.363733
vn 0.707101 -0.000054 0.707112
vn 0.707101 -0.000054 0.707112
vn -0.399197 -0.001786 0.916864
vn 0.401403 0.002440 0.915898
vn -0.399197 -0.001786 0.916864
vn 0.401403 0.002440 0.915898
vn -0.399197 -0.001786 0.916864
vn 0.401403 0.002440 0.915898
vn 0.343201 0.000064 0.939262
vn 0.343201 0.000064 0.939262
vn 0.706161 -0.000053 0.708051
vn 0.706161 -0.000053 0.708051
vn 0.706161 -0.000053 0.708051
vn 0.343201 0.000064 0.939262
vn 0.888757 0.000036 0.458378
vn 0.706161 -0.000053 0.708051
vn 0.706161 -0.000053 0.708051
vn 0.706161 -0.000053 0.708051
vn 0.888757 0.000036 0.458378
vn 0.888757 0.000036 0.458378
vn -0.000135 1.000000 -0.000234
vn -0.000082 1.000000 -0.000283
vn -0.000171 1.000000 -0.000177
vn -0.000171 1.000000 -0.000177
vn -0.000289 1.000000 -0.000115
vn -0.000274 1.000000 -0.000173
vn -0.000066 1.000000 0.000306
vn 0.000000 1.000000 -0.000000
vn 0.000037 1.000000 0.000375
vn -0.933605 0.001177 0.358303
vn -0.787052 0.000099 -0.616887
vn -0.933605 0.001177 0.358303
vn -0.933605 0.001177 0.358303
vn -0.787052 0.000099 -0.616887
vn -0.787052 0.000099 -0.616887
vn -0.000475 0.060149 0.998189
vn -0.000475 0.060149 0.998189
vn -0.000475 0.060149 0.998189
vn 0.001416 0.939029 0.343835
vn 0.001416 0.939029 0.343835
vn 0.001416 0.939029 0.343835
vn 0.001416 0.939029 0.343835
vn 0.001416 0.939029 0.343835
vn 0.001416 0.939029 0.343835
vn 0.341335 0.939941 -0.000788
vn 0.341335 0.939941 -0.000788
vn 0.341335 0.939941 -0.000788
vn 0.341335 0.939941 -0.000788
vn 0.341335 0.939941 -0.000788
vn 0.341335 0.939941 -0.000788
vn 0.999318 0.036915 -0.000957
vn 0.998890 0.046887 -0.004410
vn 0.998512 0.054497 -0.002101
vn -0.000538 0.053222 -0.998583
vn -0.000538 0.053222 -0.998583
vn -0.000538 0.053222 -0.998583
vn 0.000555 0.921137 -0.389237
vn 0.000555 0.921137 -0.389237
vn 0.000555 0.921137 -0.389237
vn 0.000555 0.921137 -0.389237
vn 0.000555 0.921137 -0.389237
vn 0.000555 0.921137 -0.389237
vn -0.372263 0.928125 -0.001837
vn -0.372263 0.928125 -0.001837
vn -0.372263 0.928125 -0.001837
vn -0.372263 0.928125 -0.001837
vn -0.372263 0.928125 -0.001837
vn -0.372263 0.928125 -0.001837
vn 0.000140 0.058827 -0.998268
vn -0.000074 0.031934 -0.999490
vn 0.000140 0.058827 -0.998268
vn -0.000074 0.031934 -0.999490
vn 0.000140 0.058827 -0.998268
vn -0.000074 0.031934 -0.999490
vn 0.002922 0.048560 -0.998816
vn 0.002922 0.048560 -0.998816
vn 0.002922 0.048560 -0.998816
vn 0.002442 0.044643 0.999000
vn 0.002442 0.044643 0.999000
vn 0.002442 0.044643 0.999000
vn 0.002442 0.044643 0.999000
vn 0.002442 0.044643 0.999000
vn 0.002442 0.044643 0.999000
vn 0.002536 0.056622 -0.998393
vn 0.002536 0.056622 -0.998393
vn 0.002536 0.056622 -0.998393
vn 0.002536 0.056622 -0.998393
vn 0.002536 0.056622 -0.998393
vn 0.002536 0.056622 -0.998393
vn 0.998960 0.045490 -0.002966
vn 0.998960 0.045490 -0.002966
vn 0.998960 0.045490 -0.002966
vn 0.998960 0.045490 -0.002966
vn 0.998960 0.045490 -0.002966
vn 0.998960 0.045490 -0.002966
vn -0.998854 0.047799 -0.002365
vn -0.998854 0.047799 -0.002365
vn -0.998854 0.047799 -0.002365
vn -0.998854 0.047799 -0.002365
vn -0.998854 0.047799 -0.002365
vn -0.998854 0.047799 -0.002365
vn 0.001596 0.999998 0.000801
vn 0.001596 0.999998 0.000801
vn 0.001596 0.999998 0.000801
vn 0.001596 0.999998 0.000801
vn 0.001596 0.999998 0.000801
vn 0.001596 0.999998 0.000801
vn -0.000066 1.000000 0.000306
vn 0.000037 1.000000 0.000375
vn 0.000186 1.000000 0.000436
vn -0.218224 -0.203505 -0.954444
vn -0.007009 -0.209009 -0.977889
vn 0.003424 -0.367167 -0.930149
vn -0.383486 -0.315695 -0.867915
vn -0.218224 -0.203505 -0.954444
vn 0.003424 -0.367167 -0.930149
vn -0.499098 -0.149741 -0.853509
vn -0.383486 -0.315695 -0.867915
vn -0.881469 -0.269481 -0.387806
vn 0.000000 1.000000 -0.000000
vn 0.000000 1.000000 -0.000000
vn -0.000066 1.000000 0.000306
vn -0.007009 -0.209009 -0.977889
vn 0.229741 -0.198942 -0.952702
vn 0.003424 -0.367167 -0.930149
vn 0.229741 -0.198942 -0.952702
vn 0.438754 -0.297621 -0.847890
vn 0.003424 -0.367167 -0.930149
vn 0.311866 -0.108101 -0.943957
vn 0.438754 -0.297621 -0.847890
vn 0.229741 -0.198942 -0.952702
vn 0.877930 -0.316289 -0.359444
vn 0.458982 -0.313315 -0.831366
vn 0.870131 -0.157748 -0.466891
vn 0.877930 -0.316289 -0.359444
vn 0.958077 -0.135746 -0.252314
vn 0.967967 -0.159163 -0.194184
vn 0.958077 -0.135746 -0.252314
vn 0.877930 -0.316289 -0.359444
vn 0.870131 -0.157748 -0.466891
vn -0.000185 1.000000 -0.000116
vn -0.000274 1.000000 -0.000173
vn -0.000057 1.000000 -0.000172
vn -0.000185 1.000000 -0.000116
vn -0.000024 1.000000 -0.000002
vn -0.000171 1.000000 -0.000177
vn -0.000274 1.000000 -0.000173
vn -0.000185 1.000000 -0.000116
vn -0.000171 1.000000 -0.000177
vn 0.920078 -0.322510 0.222362
vn 0.920078 -0.322510 0.222362
vn 0.920078 -0.322510 0.222362
vn 0.920078 -0.322510 0.222362
vn 0.920078 -0.322510 0.222362
vn 0.920078 -0.322510 0.222362
vn 0.001911 -0.999998 -0.000621
vn 0.001911 -0.999998 -0.000621
vn 0.001911 -0.999998 -0.000621
vn 0.829337 -0.304873 0.468244
vn 0.921816 -0.132448 0.364297
vn 0.771719 -0.123035 0.623949
vn 0.771719 -0.123035 0.623949
vn 0.250632 -0.210763 0.944861
vn 0.829337 -0.304873 0.468244
vn 0.000000 1.000000 -0.000000
vn 0.000000 1.000000 -0.000000
vn 0.000000 1.000000 -0.000000
vn 0.971336 -0.162517 0.173478
vn 0.931926 -0.362537 -0.009046
vn 0.978990 -0.202624 -0.022861
vn 0.971336 -0.162517 0.173478
vn 0.829337 -0.304873 0.468244
vn 0.931926 -0.362537 -0.009046
vn 0.978990 -0.202624 -0.022861
vn 0.931926 -0.362537 -0.009046
vn 0.967967 -0.159163 -0.194184
vn 0.877930 -0.316289 -0.359444
vn 0.967967 -0.159163 -0.194184
vn 0.931926 -0.362537 -0.009046
vn 0.921816 -0.132448 0.364297
vn 0.829337 -0.304873 0.468244
vn 0.971336 -0.162517 0.173478
vn -0.000135 1.000000 -0.000234
vn -0.000085 1.000000 -0.000151
vn -0.000153 1.000000 -0.000051
vn -0.000085 1.000000 -0.000151
vn -0.000135 1.000000 -0.000234
vn -0.000171 1.000000 -0.000177
vn 0.000020 1.000000 0.000009
vn -0.000085 1.000000 -0.000151
vn -0.000171 1.000000 -0.000177
vn 0.516973 -0.134050 0.845440
vn 0.404333 -0.295145 0.865682
vn 0.878528 -0.241995 0.411858
vn 0.300004 -0.130755 0.944934
vn 0.404333 -0.295145 0.865682
vn 0.516973 -0.134050 0.845440
vn 0.197466 -0.297578 0.934053
vn 0.197466 -0.297578 0.934053
vn 0.197466 -0.297578 0.934053
vn 0.197466 -0.297578 0.934053
vn 0.197466 -0.297578 0.934053
vn 0.197466 -0.297578 0.934053
vn -0.001671 -0.999993 0.003223
vn -0.001671 -0.999993 0.003223
vn -0.001671 -0.999993 0.003223
vn 0.404333 -0.295145 0.865682
vn 0.300004 -0.130755 0.944934
vn 0.198705 -0.161529 0.966657
vn -0.423052 -0.124157 0.897559
vn -0.487512 -0.291769 0.822923
vn -0.174036 -0.160566 0.971561
vn 0.029972 -0.203327 0.978652
vn -0.174036 -0.160566 0.971561
vn 0.019423 -0.363304 0.931468
vn 0.000072 1.000000 -0.000299
vn -0.000020 1.000000 -0.000200
vn -0.000085 1.000000 -0.000151
vn -0.174036 -0.160566 0.971561
vn -0.487512 -0.291769 0.822923
vn 0.019423 -0.363304 0.931468
vn 0.019423 -0.363304 0.931468
vn 0.198705 -0.161529 0.966657
vn 0.029972 -0.203327 0.978652
vn 0.404333 -0.295145 0.865682
vn 0.198705 -0.161529 0.966657
vn 0.019423 -0.363304 0.931468
vn -0.838785 -0.133427 0.527861
vn -0.856622 -0.295403 0.423009
vn -0.348630 -0.234940 0.907337
vn -0.856622 -0.295403 0.423009
vn -0.942545 -0.128804 0.308250
vn -0.966183 -0.161647 0.200898
vn -0.942545 -0.128804 0.308250
vn -0.856622 -0.295403 0.423009
vn -0.838785 -0.133427 0.527861
vn -0.930859 -0.364794 0.020682
vn -0.978652 -0.204000 0.024982
vn -0.959852 -0.196917 -0.199771
vn 0.000591 1.000000 0.000148
vn 0.000409 1.000000 -0.000039
vn 0.000295 1.000000 -0.000166
vn -0.959852 -0.196917 -0.199771
vn -0.857138 -0.301434 -0.417674
vn -0.930859 -0.364794 0.020682
vn -0.966183 -0.161647 0.200898
vn -0.978652 -0.204000 0.024982
vn -0.930859 -0.364794 0.020682
vn -0.856622 -0.295403 0.423009
vn -0.966183 -0.161647 0.200898
vn -0.930859 -0.364794 0.020682
vn 0.000000 1.000000 0.000000
vn 0.000000 1.000000 0.000000
vn 0.000000 1.000000 0.000000
vn 0.000000 1.000000 0.000000
vn 0.000000 1.000000 0.000000
vn 0.000000 1.000000 0.000000
vn 0.000000 1.000000 0.000000
vn 0.000000 1.000000 0.000000
vn 0.000000 1.000000 0.000000
vn -0.001183 -0.999999 0.000115
vn -0.001186 -0.999999 0.000146
vn -0.001186 -0.999999 0.000146
vn -0.001188 -0.999999 0.000177
vn -0.001186 -0.999999 0.000146
vn -0.001186 -0.999999 0.000146
vn 0.000147 1.000000 -0.000408
vn 0.000022 1.000000 -0.000488
vn -0.000189 1.000000 -0.000762
vn -0.000022 -1.000000 -0.000162
vn -0.000026 -1.000000 -0.000162
vn -0.000026 -1.000000 -0.000162
vn -0.000026 -1.000000 -0.000162
vn -0.000030 -1.000000 -0.000161
vn -0.000026 -1.000000 -0.000162
vn 0.000135 -1.000000 0.000526
vn 0.000155 -1.000000 0.000528
vn 0.000155 -1.000000 0.000528
vn 0.000175 -1.000000 0.000529
vn 0.000155 -1.000000 0.000528
vn 0.000155 -1.000000 0.000528
vn -0.000185 1.000000 -0.000116
vn -0.000246 1.000000 -0.000029
vn -0.000378 1.000000 0.000077
vn -0.000094 -1.000000 -0.000034
vn -0.000084 -1.000000 0.000088
vn -0.000084 -1.000000 0.000088
vn -0.000084 -1.000000 0.000088
vn -0.000075 -1.000000 0.000211
vn -0.000084 -1.000000 0.000088
vn -0.000002 -1.000000 0.000058
vn -0.000001 -1.000000 0.000067
vn -0.000001 -1.000000 0.000067
vn -0.000001 -1.000000 0.000067
vn 0.000000 -1.000000 0.000076
vn -0.000001 -1.000000 0.000067
vn 0.000088 1.000000 0.000058
vn 0.000132 1.000000 0.000023
vn 0.000235 1.000000 -0.000063
vn 0.000000 1.000000 -0.000000
vn 0.000000 1.000000 -0.000000
vn 0.000000 1.000000 -0.000000
vn 0.000003 -1.000000 0.000023
vn 0.000015 -1.000000 0.000024
vn 0.000015 -1.000000 0.000024
vn 0.000027 -1.000000 0.000025
vn 0.000015 -1.000000 0.000024
vn 0.000015 -1.000000 0.000024
vn 0.000000 1.000000 0.000000
vn 0.000000 1.000000 0.000000
vn 0.000000 1.000000 0.000000
vn 0.000915 -1.000000 -0.000139
vn 0.000907 -1.000000 -0.000056
vn 0.000907 -1.000000 -0.000056
vn 0.000899 -1.000000 0.000028
vn 0.000907 -1.000000 -0.000056
vn 0.000907 -1.000000 -0.000056
vn 0.381932 0.000255 -0.924190
vn 0.923774 0.000351 -0.382939
vn 0.923774 0.000351 -0.382939
vn 0.923774 0.000351 -0.382939
vn 0.381932 0.000255 -0.924190
vn 0.381932 0.000255 -0.924190
vn 0.924739 -0.000566 -0.380603
vn 0.394407 -0.003220 -0.918930
vn 0.394407 -0.003220 -0.918930
vn 0.394407 -0.003220 -0.918930
vn 0.924739 -0.000566 -0.380603
vn 0.924739 -0.000566 -0.380603
vn -0.930556 -0.001965 0.366144
vn -0.399197 -0.001786 0.916864
vn -0.399197 -0.001786 0.916864
vn -0.399197 -0.001786 0.916864
vn -0.930556 -0.001965 0.366144
vn -0.930556 -0.001965 0.366144
vn -0.956587 0.003561 -0.291426
vn -0.470866 0.005141 -0.882190
vn -0.470866 0.005141 -0.882190
vn -0.470866 0.005141 -0.882190
vn -0.956587 0.003561 -0.291426
vn -0.956587 0.003561 -0.291426
vn 0.343201 0.000064 0.939262
vn 0.343201 0.000064 0.939262
vn 0.906815 0.000001 0.421530
vn 0.906815 0.000001 0.421530
vn 0.343201 0.000064 0.939262
vn 0.906815 0.000001 0.421530
vn 0.305655 0.000063 0.952142
vn 0.305655 0.000063 0.952142
vn 0.888757 0.000036 0.458378
vn 0.888757 0.000036 0.458378
vn 0.305655 0.000063 0.952142
vn 0.888757 0.000036 0.458378
vn -0.787052 0.000099 -0.616887
vn -0.787052 0.000099 -0.616887
vn -0.123249 -0.001013 -0.992375
vn -0.123249 -0.001013 -0.992375
vn -0.787052 0.000099 -0.616887
vn -0.123249 -0.001013 -0.992375
vn 0.401403 0.002440 0.915898
vn 0.931501 0.002196 0.363733
vn 0.931501 0.002196 0.363733
vn 0.931501 0.002196 0.363733
vn 0.401403 0.002440 0.915898
vn 0.401403 0.002440 0.915898
vn -0.933605 0.001177 0.358303
vn -0.408815 0.001180 0.912617
vn -0.408815 0.001180 0.912617
vn -0.408815 0.001180 0.912617
vn -0.933605 0.001177 0.358303
vn -0.933605 0.001177 0.358303
vn 0.000000 1.000000 -0.000000
vn 0.000000 1.000000 -0.000001
vn 0.000000 1.000000 -0.000000
vn 0.000022 1.000000 -0.000488
vn 0.000147 1.000000 -0.000408
vn 0.000315 1.000000 -0.000231
vn 0.000186 1.000000 0.000436
vn 0.000037 1.000000 0.000375
vn 0.000378 1.000000 0.000195
vn -0.000246 1.000000 -0.000029
vn -0.000185 1.000000 -0.000116
vn -0.000057 1.000000 -0.000172
vn -0.000171 1.000000 -0.000177
vn -0.000082 1.000000 -0.000283
vn -0.000289 1.000000 -0.000115
vn 0.000088 1.000000 0.000058
vn 0.000015 1.000000 0.000118
vn 0.000132 1.000000 0.000023
vn -0.000020 1.000000 -0.000200
vn -0.000153 1.000000 -0.000051
vn -0.000085 1.000000 -0.000151
vn 0.000409 1.000000 -0.000039
vn 0.000147 1.000000 -0.000323
vn 0.000295 1.000000 -0.000166
vn -0.708827 -0.000119 0.705383
vn -0.708827 -0.000119 0.705383
vn -0.408815 0.001180 0.912617
vn -0.408815 0.001180 0.912617
vn -0.408815 0.001180 0.912617
vn -0.708827 -0.000119 0.705383
vn -0.487512 -0.291769 0.822923
vn -0.668005 -0.111534 0.735751
vn -0.932681 -0.197396 0.301895
vn -0.000719 -0.999999 0.001204
vn 0.001519 -0.999992 0.003771
vn -0.000719 -0.999999 0.001204
vn -0.487512 -0.291769 0.822923
vn -0.423052 -0.124157 0.897559
vn -0.668005 -0.111534 0.735751
vn 0.000295 1.000000 -0.000166
vn 0.000147 1.000000 -0.000323
vn 0.000066 1.000000 -0.000420
vn 0.000066 1.000000 -0.000420
vn 0.000066 1.000000 -0.000420
vn 0.000295 1.000000 -0.000166
vn -0.002958 -0.999995 -0.001363
vn -0.000719 -0.999999 0.001204
vn -0.000719 -0.999999 0.001204
vn -0.930556 -0.001965 0.366144
vn -0.930556 -0.001965 0.366144
vn -0.707087 -0.000517 0.707127
vn -0.930556 -0.001965 0.366144
vn -0.707087 -0.000517 0.707127
vn -0.707087 -0.000517 0.707127
vn -0.707087 -0.000517 0.707127
vn -0.707087 -0.000517 0.707127
vn -0.402812 -0.000491 0.915282
vn -0.402812 -0.000491 0.915282
vn -0.402812 -0.000491 0.915282
vn -0.707087 -0.000517 0.707127
vn -0.932118 -0.000180 0.362154
vn -0.932118 -0.000180 0.362154
vn -0.708827 -0.000119 0.705383
vn -0.932118 -0.000180 0.362154
vn -0.708827 -0.000119 0.705383
vn -0.708827 -0.000119 0.705383
vn 0.000583 1.000000 -0.000092
vn 0.000583 1.000000 -0.000092
vn 0.000583 1.000000 -0.000092
vn 0.000351 1.000000 -0.000325
vn 0.000351 1.000000 -0.000325
vn 0.000351 1.000000 -0.000325
vn 0.000398 1.000000 -0.000247
vn 0.000147 1.000000 -0.000408
vn 0.000398 1.000000 -0.000247
vn 0.000315 1.000000 -0.000231
vn 0.000147 1.000000 -0.000408
vn 0.000398 1.000000 -0.000247
vn -0.000587 1.000000 0.000796
vn -0.000587 1.000000 0.000796
vn -0.000587 1.000000 0.000796
vn -0.130120 -0.293427 0.947085
vn -0.130120 -0.293427 0.947085
vn -0.130120 -0.293427 0.947085
vn -0.130120 -0.293427 0.947085
vn -0.130120 -0.293427 0.947085
vn -0.130120 -0.293427 0.947085
vn -0.927375 -0.305866 0.215458
vn -0.927375 -0.305866 0.215458
vn -0.927375 -0.305866 0.215458
vn -0.927375 -0.305866 0.215458
vn -0.927375 -0.305866 0.215458
vn -0.927375 -0.305866 0.215458
vn -0.000009 -1.000000 0.000506
vn -0.000005 -1.000000 0.000474
vn -0.000005 -1.000000 0.000474
vn 0.000000 -1.000000 0.000443
vn -0.000005 -1.000000 0.000474
vn -0.000005 -1.000000 0.000474
vn -0.402812 -0.000491 0.915282
vn -0.932118 -0.000180 0.362154
vn -0.932118 -0.000180 0.362154
vn -0.932118 -0.000180 0.362154
vn -0.402812 -0.000491 0.915282
vn -0.402812 -0.000491 0.915282
vn 0.000583 1.000000 -0.000000
vn 0.000583 1.000000 -0.000000
vn 0.000583 1.000000 -0.000000
vn 0.000000 1.000000 -0.000705
vn 0.000000 1.000000 -0.000705
vn 0.000000 1.000000 -0.000705
vn -0.709279 0.000488 -0.704928
vn -0.709279 0.000488 -0.704928
vn -0.956587 0.003561 -0.291426
vn -0.709279 0.000488 -0.704928
vn -0.956587 0.003561 -0.291426
vn -0.956587 0.003561 -0.291426
vn 0.000875 1.000000 -0.000211
vn 0.000875 1.000000 -0.000211
vn 0.000875 1.000000 -0.000211
vn -0.430755 0.001754 -0.902467
vn -0.430755 0.001754 -0.902467
vn -0.709279 0.000488 -0.704928
vn -0.709279 0.000488 -0.704928
vn -0.430755 0.001754 -0.902467
vn -0.709279 0.000488 -0.704928
vn -0.709192 -0.001016 -0.705015
vn -0.123249 -0.001013 -0.992375
vn -0.709192 -0.001016 -0.705015
vn -0.123249 -0.001013 -0.992375
vn -0.709192 -0.001016 -0.705015
vn -0.123249 -0.001013 -0.992375
vn -0.709192 -0.001016 -0.705015
vn -0.941693 0.001696 -0.336470
vn -0.709192 -0.001016 -0.705015
vn -0.941693 0.001696 -0.336470
vn -0.709192 -0.001016 -0.705015
vn -0.941693 0.001696 -0.336470
vn 0.000000 1.000000 0.000000
vn 0.000000 1.000000 0.000000
vn 0.000000 1.000000 0.000000
vn 0.000022 -1.000000 -0.000022
vn 0.000022 -1.000000 -0.000022
vn 0.000022 -1.000000 -0.000022
vn -0.000339 -1.000000 0.000336
vn -0.000339 -1.000000 0.000336
vn -0.000339 -1.000000 0.000336
vn 0.000378 1.000000 0.000195
vn 0.000448 1.000000 0.000183
vn 0.000186 1.000000 0.000436
vn 0.000448 1.000000 0.000183
vn 0.000448 1.000000 0.000183
vn 0.000186 1.000000 0.000436
vn -0.288281 -0.335397 -0.896885
vn -0.288281 -0.335397 -0.896885
vn -0.288281 -0.335397 -0.896885
vn -0.288281 -0.335397 -0.896885
vn -0.288281 -0.335397 -0.896885
vn -0.288281 -0.335397 -0.896885
vn -0.001120 -0.999999 -0.000318
vn -0.001120 -0.999999 -0.000318
vn 0.000413 -0.999999 -0.001610
vn 0.000088 1.000000 0.000058
vn 0.000001 1.000000 0.000128
vn 0.000015 1.000000 0.000118
vn 0.000155 1.000000 0.000263
vn 0.000155 1.000000 0.000263
vn 0.000155 1.000000 0.000263
vn -0.000015 1.000000 0.000127
vn -0.000015 1.000000 0.000127
vn -0.000015 1.000000 0.000127
vn -0.000867 -1.000000 0.000000
vn -0.000764 -1.000000 0.000011
vn -0.000764 -1.000000 0.000011
vn -0.000764 -1.000000 0.000011
vn -0.000764 -1.000000 0.000011
vn -0.000662 -1.000000 0.000021
vn 0.000051 -1.000000 -0.000022
vn 0.000044 -1.000000 -0.000223
vn 0.000044 -1.000000 -0.000223
vn 0.000044 -1.000000 -0.000223
vn 0.000038 -1.000000 -0.000424
vn 0.000044 -1.000000 -0.000223
vn -0.941693 0.001696 -0.336470
vn -0.941693 0.001696 -0.336470
vn -0.430755 0.001754 -0.902467
vn -0.941693 0.001696 -0.336470
vn -0.430755 0.001754 -0.902467
vn -0.430755 0.001754 -0.902467
vn 0.000000 1.000000 0.000000
vn 0.000000 1.000000 0.000000
vn 0.000000 1.000000 0.000000
vn 0.000000 1.000000 0.000000
vn 0.000000 1.000000 0.000000
vn 0.000000 1.000000 0.000000
vn 0.000000 1.000000 0.000000
vn 0.000000 1.000000 0.000000
vn 0.000000 1.000000 0.000000
vn 0.346562 0.001521 -0.938026
vn 0.346562 0.001521 -0.938026
vn 0.701829 0.005916 -0.712321
vn 0.701829 0.005916 -0.712321
vn 0.701829 0.005916 -0.712321
vn 0.346562 0.001521 -0.938026
vn 0.695629 0.000495 -0.718401
vn 0.695629 0.000495 -0.718401
vn 0.900134 0.001348 -0.435611
vn 0.695629 0.000495 -0.718401
vn 0.900134 0.001348 -0.435611
vn 0.900134 0.001348 -0.435611
vn 0.000000 1.000000 -0.000000
vn 0.000000 1.000000 -0.000000
vn 0.000000 1.000000 -0.000000
vn 0.924739 -0.000566 -0.380603
vn 0.701829 0.005916 -0.712321
vn 0.701829 0.005916 -0.712321
vn 0.701829 0.005916 -0.712321
vn 0.924739 -0.000566 -0.380603
vn 0.924739 -0.000566 -0.380603
vn 0.000059 -1.000000 0.000249
vn 0.000059 -1.000000 0.000249
vn 0.000059 -1.000000 0.000249
vn 0.000000 1.000000 0.000000
vn 0.000000 1.000000 0.000000
vn 0.000000 1.000000 0.000000
vn 0.000000 1.000000 0.000000
vn 0.000000 1.000000 0.000000
vn 0.000000 1.000000 0.000000
vn 0.438754 -0.297621 -0.847890
vn 0.594862 -0.129258 -0.793367
vn 0.855720 -0.229757 -0.463632
vn -0.001218 -0.999997 -0.002175
vn 0.000282 -1.000000 -0.000826
vn 0.000282 -1.000000 -0.000826
vn 0.438754 -0.297621 -0.847890
vn 0.311866 -0.108101 -0.943957
vn 0.594862 -0.129258 -0.793367
vn 0.232930 -0.300216 -0.924994
vn 0.232930 -0.300216 -0.924994
vn 0.232930 -0.300216 -0.924994
vn 0.232930 -0.300216 -0.924994
vn 0.232930 -0.300216 -0.924994
vn 0.232930 -0.300216 -0.924994
vn 0.897548 -0.328483 -0.294121
vn 0.897548 -0.328483 -0.294121
vn 0.897548 -0.328483 -0.294121
vn 0.897548 -0.328483 -0.294121
vn 0.897548 -0.328483 -0.294121
vn 0.897548 -0.328483 -0.294121
vn 0.001782 -0.999998 0.000524
vn 0.000282 -1.000000 -0.000826
vn 0.000282 -1.000000 -0.000826
vn 0.000147 -1.000000 0.000162
vn 0.000144 -1.000000 0.000180
vn 0.000144 -1.000000 0.000180
vn 0.000142 -1.000000 0.000197
vn 0.000144 -1.000000 0.000180
vn 0.000144 -1.000000 0.000180
vn 0.000000 1.000000 -0.000001
vn 0.000000 1.000000 -0.000000
vn 0.000000 1.000000 0.000000
vn 0.000059 -1.000000 -0.000043
vn 0.000085 -1.000000 -0.000046
vn 0.000085 -1.000000 -0.000046
vn 0.000085 -1.000000 -0.000046
vn 0.000112 -1.000000 -0.000050
vn 0.000085 -1.000000 -0.000046
vn 0.900134 0.001348 -0.435611
vn 0.900134 0.001348 -0.435611
vn 0.346562 0.001521 -0.938026
vn 0.346562 0.001521 -0.938026
vn 0.346562 0.001521 -0.938026
vn 0.900134 0.001348 -0.435611
vn 0.000000 1.000000 -0.000001
vn 0.000000 1.000000 -0.000001
vn 0.000000 1.000000 -0.000001
vn 0.000000 1.000000 0.000000
vn 0.000000 1.000000 0.000000
vn 0.000000 1.000000 0.000000
vn -0.383486 -0.315695 -0.867915
vn -0.210269 -0.111774 -0.971233
vn -0.218224 -0.203505 -0.954444
vn -0.210269 -0.111774 -0.971233
vn -0.383486 -0.315695 -0.867915
vn -0.499098 -0.149741 -0.853509
vn -0.916390 -0.133484 -0.377374
vn -0.857138 -0.301434 -0.417674
vn -0.959852 -0.196917 -0.199771
vn -0.921749 -0.314793 -0.226462
vn -0.921749 -0.314793 -0.226462
vn -0.921749 -0.314793 -0.226462
vn -0.921749 -0.314793 -0.226462
vn -0.921749 -0.314793 -0.226462
vn -0.921749 -0.314793 -0.226462
vn -0.800065 -0.130849 -0.585469
vn -0.493421 -0.242996 -0.835158
vn -0.857138 -0.301434 -0.417674
vn -0.001120 -0.999999 -0.000318
vn -0.001120 -0.999999 -0.000318
vn -0.002653 -0.999996 0.000975
vn -0.857138 -0.301434 -0.417674
vn -0.916390 -0.133484 -0.377374
vn -0.800065 -0.130849 -0.585469
vn 0.029972 -0.203327 0.978652
vn -0.003221 -0.015892 0.999869
vn -0.174036 -0.160566 0.971561
vn -0.003221 -0.015892 0.999869
vn 0.029972 -0.203327 0.978652
vn 0.198705 -0.161529 0.966657
vn -0.000074 0.031934 -0.999490
vn -0.000074 0.031934 -0.999490
vn -0.000288 0.005018 -0.999987
vn -0.999946 -0.010347 0.000576
vn -0.959852 -0.196917 -0.199771
vn -0.978652 -0.204000 0.024982
vn -0.978652 -0.204000 0.024982
vn -0.966183 -0.161647 0.200898
vn -0.999946 -0.010347 0.000576
vn 0.004292 0.004481 -0.999981
vn -0.007009 -0.209009 -0.977889
vn -0.218224 -0.203505 -0.954444
vn -0.218224 -0.203505 -0.954444
vn -0.210269 -0.111774 -0.971233
vn 0.004292 0.004481 -0.999981
vn 0.004292 0.004481 -0.999981
vn 0.229741 -0.198942 -0.952702
vn -0.007009 -0.209009 -0.977889
vn 0.004292 0.004481 -0.999981
vn 0.311866 -0.108101 -0.943957
vn 0.229741 -0.198942 -0.952702
vn 0.971336 -0.162517 0.173478
vn 0.978990 -0.202624 -0.022861
vn 0.999933 -0.009264 -0.006879
vn 0.967967 -0.159163 -0.194184
vn 0.999933 -0.009264 -0.006879
vn 0.978990 -0.202624 -0.022861
vn 0.998444 0.055762 0.000426
vn 0.999205 0.039875 0.000656
vn 0.998262 0.058933 0.000317
vn 0.999205 0.039875 0.000656
vn 0.998512 0.054497 -0.002101
vn 0.998262 0.058933 0.000317
vn 0.998512 0.054497 -0.002101
vn 0.999205 0.039875 0.000656
vn 0.999318 0.036915 -0.000957
vn 0.999318 0.036915 -0.000957
vn 0.999205 0.039875 0.000656
vn 0.999998 0.001717 0.001333
vn -0.998599 0.052881 0.001706
vn -0.998599 0.052881 0.001706
vn -0.998599 0.052881 0.001706
vn -0.999255 0.038596 0.000822
vn -0.997168 0.075206 -0.000051
vn -0.999000 0.044694 -0.001545
vn -0.997168 0.075206 -0.000051
vn -0.999255 0.038596 0.000822
vn -0.996171 0.087412 0.001883
vn -0.995669 -0.028966 0.088345
vn -0.977597 0.188277 -0.094109
vn -0.932870 0.360074 -0.009999
vn -0.977597 0.188277 -0.094109
vn -0.954282 0.273382 0.120866
vn -0.947480 0.284523 0.146044
vn -0.954282 0.273382 0.120866
vn -0.977597 0.188277 -0.094109
vn -0.901200 0.329301 0.281779
vn -0.947960 0.317528 -0.023432
vn -0.977597 0.188277 -0.094109
vn -0.947480 0.284523 0.146044
vn -0.977597 0.188277 -0.094109
vn -0.947960 0.317528 -0.023432
vn -0.932870 0.360074 -0.009999
vn -0.977597 0.188277 -0.094109
vn -0.995669 -0.028966 0.088345
vn -0.800065 -0.130849 -0.585469
vn -0.916390 -0.133484 -0.377374
vn -0.977597 0.188277 -0.094109
vn -0.800065 -0.130849 -0.585469
vn -0.999946 -0.010347 0.000576
vn -0.916390 -0.133484 -0.377374
vn -0.959852 -0.196917 -0.199771
vn -0.916390 -0.133484 -0.377374
vn -0.999946 -0.010347 0.000576
vn -0.977597 0.188277 -0.094109
vn -0.887358 -0.023347 -0.460489
vn -0.887987 0.058717 -0.456106
vn -0.977597 0.188277 -0.094109
vn 0.045788 0.975015 -0.217370
vn 0.066198 0.944502 -0.321768
vn 0.061357 0.982706 -0.174710
vn 0.066198 0.944502 -0.321768
vn 0.045788 0.975015 -0.217370
vn 0.014894 0.953855 -0.299899
vn 0.014894 0.953855 -0.299899
vn 0.045788 0.975015 -0.217370
vn 0.014894 0.953855 -0.299899
vn -0.999946 -0.010347 0.000576
vn -0.999319 -0.036876 -0.001281
vn -0.887358 -0.023347 -0.460489
vn -0.999946 -0.010347 0.000576
vn -0.887358 -0.023347 -0.460489
vn -0.977597 0.188277 -0.094109
vn 0.003813 0.999992 0.001005
vn 0.067240 0.982384 0.174356
vn 0.050822 0.975060 0.216044
vn 0.050822 0.975060 0.216044
vn 0.003813 0.999992 0.001005
vn 0.003813 0.999992 0.001005
vn -0.995816 -0.032052 -0.085577
vn -0.971346 0.223372 0.081185
vn -0.838785 -0.133427 0.527861
vn -0.885774 0.459742 0.063573
vn -0.971346 0.223372 0.081185
vn -0.863478 0.501961 0.049416
vn -0.942545 -0.128804 0.308250
vn -0.971346 0.223372 0.081185
vn -0.966183 -0.161647 0.200898
vn -0.971346 0.223372 0.081185
vn -0.995816 -0.032052 -0.085577
vn -0.863478 0.501961 0.049416
vn -0.971346 0.223372 0.081185
vn -0.885774 0.459742 0.063573
vn -0.836233 0.516290 -0.184819
vn -0.837354 0.523879 -0.156170
vn -0.971346 0.223372 0.081185
vn -0.836233 0.516290 -0.184819
vn -0.971346 0.223372 0.081185
vn -0.942545 -0.128804 0.308250
vn -0.838785 -0.133427 0.527861
vn -0.966183 -0.161647 0.200898
vn -0.971346 0.223372 0.081185
vn -0.999946 -0.010347 0.000576
vn 0.073436 0.944639 0.319789
vn 0.050822 0.975060 0.216044
vn 0.067240 0.982384 0.174356
vn 0.018245 0.954800 0.296689
vn 0.018245 0.954800 0.296689
vn 0.050822 0.975060 0.216044
vn 0.050822 0.975060 0.216044
vn 0.073436 0.944639 0.319789
vn 0.018245 0.954800 0.296689
vn -0.999946 -0.010347 0.000576
vn -0.890657 -0.055351 0.451294
vn -0.999319 -0.036876 -0.001281
vn -0.890657 -0.055351 0.451294
vn -0.999946 -0.010347 0.000576
vn -0.971346 0.223372 0.081185
vn -0.890657 -0.055351 0.451294
vn -0.971346 0.223372 0.081185
vn -0.888519 0.038078 0.457257
vn 0.075693 -0.030674 -0.996659
vn -0.086352 0.194534 -0.977087
vn -0.499098 -0.149741 -0.853509
vn 0.004292 0.004481 -0.999981
vn -0.210269 -0.111774 -0.971233
vn -0.086352 0.194534 -0.977087
vn 0.091636 0.287981 -0.953242
vn -0.086352 0.194534 -0.977087
vn 0.115679 0.293301 -0.948996
vn -0.086352 0.194534 -0.977087
vn 0.075693 -0.030674 -0.996659
vn -0.044242 0.393546 -0.918240
vn -0.086352 0.194534 -0.977087
vn -0.060240 0.343962 -0.937049
vn 0.115679 0.293301 -0.948996
vn -0.060240 0.343962 -0.937049
vn -0.086352 0.194534 -0.977087
vn -0.044242 0.393546 -0.918240
vn -0.086352 0.194534 -0.977087
vn -0.210269 -0.111774 -0.971233
vn -0.499098 -0.149741 -0.853509
vn 0.000941 0.999991 -0.004183
vn -0.169110 0.984358 0.049417
vn -0.212448 0.976435 0.037952
vn 0.000941 0.999991 -0.004183
vn -0.212448 0.976435 0.037952
vn 0.000941 0.999991 -0.004183
vn 0.004292 0.004481 -0.999981
vn -0.444737 -0.031639 -0.895102
vn 0.000105 -0.004903 -0.999988
vn -0.086352 0.194534 -0.977087
vn -0.444737 -0.031639 -0.895102
vn 0.004292 0.004481 -0.999981
vn -0.086352 0.194534 -0.977087
vn 0.091636 0.287981 -0.953242
vn 0.261507 0.357052 -0.896732
vn 0.061357 0.982706 -0.174710
vn 0.003346 0.999994 -0.000894
vn 0.045788 0.975015 -0.217370
vn 0.045788 0.975015 -0.217370
vn 0.003346 0.999994 -0.000894
vn 0.003346 0.999994 -0.000894
vn 0.003943 0.003651 -0.999986
vn -0.454811 0.051285 -0.889110
vn 0.166924 0.338945 -0.925879
vn -0.940542 0.294196 0.169795
vn -0.887987 0.058717 -0.456106
vn -0.999687 -0.024948 -0.001598
vn -0.940542 0.294196 0.169795
vn -0.901200 0.329301 0.281779
vn -0.977597 0.188277 -0.094109
vn 0.261507 0.357052 -0.896732
vn 0.166924 0.338945 -0.925879
vn -0.086352 0.194534 -0.977087
vn -0.454811 0.051285 -0.889110
vn -0.086352 0.194534 -0.977087
vn 0.166924 0.338945 -0.925879
vn -0.977597 0.188277 -0.094109
vn -0.887987 0.058717 -0.456106
vn -0.940542 0.294196 0.169795
vn -0.444737 -0.031639 -0.895102
vn -0.086352 0.194534 -0.977087
vn -0.454811 0.051285 -0.889110
vn -0.000301 0.043594 0.999049
vn -0.002114 0.068584 0.997643
vn -0.004488 0.065145 0.997866
vn 0.000260 0.072022 0.997403
vn -0.002114 0.068584 0.997643
vn -0.000301 0.043594 0.999049
vn 0.000260 0.072022 0.997403
vn -0.000301 0.043594 0.999049
vn 0.001794 0.032802 0.999460
vn -0.064158 -0.035075 -0.997323
vn 0.112168 0.218809 -0.969299
vn 0.053157 0.469563 -0.881298
vn -0.100404 0.343936 -0.933610
vn 0.112168 0.218809 -0.969299
vn -0.260947 0.388524 -0.883717
vn 0.112168 0.218809 -0.969299
vn -0.100404 0.343936 -0.933610
vn -0.117046 0.308568 -0.943974
vn 0.112168 0.218809 -0.969299
vn 0.065914 0.417668 -0.906206
vn 0.053157 0.469563 -0.881298
vn 0.065914 0.417668 -0.906206
vn 0.112168 0.218809 -0.969299
vn -0.117046 0.308568 -0.943974
vn 0.311866 -0.108101 -0.943957
vn 0.112168 0.218809 -0.969299
vn 0.594862 -0.129258 -0.793367
vn 0.112168 0.218809 -0.969299
vn -0.064158 -0.035075 -0.997323
vn 0.594862 -0.129258 -0.793367
vn 0.112168 0.218809 -0.969299
vn 0.450447 -0.029579 -0.892313
vn 0.460040 0.066557 -0.885400
vn 0.004292 0.004481 -0.999981
vn 0.112168 0.218809 -0.969299
vn 0.311866 -0.108101 -0.943957
vn 0.004292 0.004481 -0.999981
vn 0.450447 -0.029579 -0.892313
vn 0.112168 0.218809 -0.969299
vn 0.450447 -0.029579 -0.892313
vn 0.004292 0.004481 -0.999981
vn 0.000105 -0.004903 -0.999988
vn -0.997168 0.075206 -0.000051
vn -0.998702 0.050789 -0.003913
vn -0.999000 0.044694 -0.001545
vn 0.001794 0.032802 0.999460
vn -0.000301 0.043594 0.999049
vn 0.003324 -0.006467 0.999974
vn 0.218406 0.975128 0.037745
vn 0.324086 0.944250 0.057975
vn 0.172966 0.983774 0.047658
vn 0.306350 0.951749 0.018002
vn 0.306350 0.951749 0.018002
vn 0.218406 0.975128 0.037745
vn 0.324086 0.944250 0.057975
vn 0.218406 0.975128 0.037745
vn 0.306350 0.951749 0.018002
vn -0.315456 0.947144 0.058363
vn -0.212448 0.976435 0.037952
vn -0.169110 0.984358 0.049417
vn -0.212448 0.976435 0.037952
vn -0.315456 0.947144 0.058363
vn -0.296448 0.954929 0.015159
vn -0.212448 0.976435 0.037952
vn -0.296448 0.954929 0.015159
vn -0.296448 0.954929 0.015159
vn 0.998254 -0.027436 0.052313
vn 0.978506 0.191611 -0.076228
vn 0.870131 -0.157748 -0.466891
vn 0.958077 -0.135746 -0.252314
vn 0.978506 0.191611 -0.076228
vn 0.967967 -0.159163 -0.194184
vn 0.978506 0.191611 -0.076228
vn 0.998254 -0.027436 0.052313
vn 0.872643 0.487276 -0.032503
vn 0.925205 0.355189 0.133553
vn 0.978506 0.191611 -0.076228
vn 0.937656 0.312989 0.151128
vn 0.902639 0.427877 -0.046530
vn 0.978506 0.191611 -0.076228
vn 0.872643 0.487276 -0.032503
vn 0.978506 0.191611 -0.076228
vn 0.902639 0.427877 -0.046530
vn 0.937656 0.312989 0.151128
vn 0.978506 0.191611 -0.076228
vn 0.958077 -0.135746 -0.252314
vn 0.870131 -0.157748 -0.466891
vn 0.967967 -0.159163 -0.194184
vn 0.978506 0.191611 -0.076228
vn 0.999933 -0.009264 -0.006879
vn 0.978506 0.191611 -0.076228
vn 0.925205 0.355189 0.133553
vn 0.890603 0.359637 0.278367
vn 0.009067 0.999958 0.001199
vn -0.081102 0.978157 -0.191394
vn -0.060436 0.970258 -0.234407
vn -0.060436 0.970258 -0.234407
vn 0.009067 0.999958 0.001199
vn 0.009067 0.999958 0.001199
vn -0.156816 0.345873 -0.925084
vn 0.460040 0.066557 -0.885400
vn 0.006208 0.035405 -0.999354
vn 0.891569 0.051862 -0.449905
vn 0.938937 0.303285 0.162531
vn 0.999972 0.006453 -0.003794
vn -0.260947 0.388524 -0.883717
vn 0.112168 0.218809 -0.969299
vn -0.156816 0.345873 -0.925084
vn 0.978506 0.191611 -0.076228
vn 0.890603 0.359637 0.278367
vn 0.938937 0.303285 0.162531
vn 0.891569 0.051862 -0.449905
vn 0.978506 0.191611 -0.076228
vn 0.938937 0.303285 0.162531
vn 0.112168 0.218809 -0.969299
vn 0.460040 0.066557 -0.885400
vn -0.156816 0.345873 -0.925084
vn -0.000994 0.999991 -0.004101
vn 0.218406 0.975128 0.037745
vn 0.172966 0.983774 0.047658
vn 0.218406 0.975128 0.037745
vn -0.000994 0.999991 -0.004101
vn -0.000994 0.999991 -0.004101
vn 0.978506 0.191611 -0.076228
vn 0.891569 0.051862 -0.449905
vn 0.896486 -0.040541 -0.441213
vn 0.996407 -0.029511 -0.079381
vn 0.976190 0.198362 0.087787
vn 0.892538 0.449941 0.030479
vn 0.896607 -0.041775 0.440853
vn 0.890323 0.048115 0.452780
vn 0.976190 0.198362 0.087787
vn 0.921816 -0.132448 0.364297
vn 0.976190 0.198362 0.087787
vn 0.771719 -0.123035 0.623949
vn 0.918774 0.371550 -0.133434
vn 0.976190 0.198362 0.087787
vn 0.889462 0.351950 -0.291529
vn 0.976190 0.198362 0.087787
vn 0.996407 -0.029511 -0.079381
vn 0.771719 -0.123035 0.623949
vn 0.976190 0.198362 0.087787
vn 0.921816 -0.132448 0.364297
vn 0.971336 -0.162517 0.173478
vn 0.914406 0.402197 0.045814
vn 0.976190 0.198362 0.087787
vn 0.910347 0.379460 -0.165161
vn 0.976190 0.198362 0.087787
vn 0.918774 0.371550 -0.133434
vn 0.910347 0.379460 -0.165161
vn 0.976190 0.198362 0.087787
vn 0.914406 0.402197 0.045814
vn 0.892538 0.449941 0.030479
vn 0.999933 -0.009264 -0.006879
vn 0.896607 -0.041775 0.440853
vn 0.976190 0.198362 0.087787
vn 0.976190 0.198362 0.087787
vn 0.971336 -0.162517 0.173478
vn 0.999933 -0.009264 -0.006879
vn -0.996171 0.087412 0.001883
vn -0.990702 0.136018 0.002939
vn -0.997168 0.075206 -0.000051
vn -0.063061 0.947300 0.314081
vn -0.041257 0.951096 0.306130
vn -0.041257 0.951096 0.306130
vn -0.019430 0.954365 0.298009
vn -0.019430 0.954365 0.298009
vn -0.041257 0.951096 0.306130
vn -0.041257 0.951096 0.306130
vn -0.019430 0.954365 0.298009
vn -0.041257 0.951096 0.306130
vn 0.999933 -0.009264 -0.006879
vn 0.999618 -0.026900 0.006400
vn 0.896607 -0.041775 0.440853
vn 0.999933 -0.009264 -0.006879
vn 0.896486 -0.040541 -0.441213
vn 0.999618 -0.026900 0.006400
vn -0.093915 0.933070 -0.347219
vn -0.060436 0.970258 -0.234407
vn -0.081102 0.978157 -0.191394
vn -0.019639 0.948261 -0.316883
vn -0.060436 0.970258 -0.234407
vn -0.093915 0.933070 -0.347219
vn -0.060436 0.970258 -0.234407
vn -0.019639 0.948261 -0.316883
vn -0.019639 0.948261 -0.316883
vn 0.896486 -0.040541 -0.441213
vn 0.999933 -0.009264 -0.006879
vn 0.978506 0.191611 -0.076228
vn -0.081488 -0.030991 0.996192
vn 0.083759 0.187816 0.978626
vn 0.516973 -0.134050 0.845440
vn -0.112112 0.373925 0.920658
vn 0.083759 0.187816 0.978626
vn -0.142335 0.383288 0.912596
vn 0.083759 0.187816 0.978626
vn -0.112112 0.373925 0.920658
vn -0.242891 0.317560 0.916602
vn 0.083759 0.187816 0.978626
vn 0.300004 -0.130755 0.944934
vn 0.516973 -0.134050 0.845440
vn 0.055648 0.393988 0.917429
vn 0.083759 0.187816 0.978626
vn 0.041707 0.439006 0.897516
vn 0.083759 0.187816 0.978626
vn -0.081488 -0.030991 0.996192
vn 0.041707 0.439006 0.897516
vn 0.083759 0.187816 0.978626
vn 0.055648 0.393988 0.917429
vn -0.142335 0.383288 0.912596
vn 0.300004 -0.130755 0.944934
vn 0.083759 0.187816 0.978626
vn 0.198705 -0.161529 0.966657
vn 0.198705 -0.161529 0.966657
vn 0.083759 0.187816 0.978626
vn -0.003221 -0.015892 0.999869
vn -0.000020 1.000000 0.000049
vn -0.000020 1.000000 0.000049
vn -0.000020 1.000000 0.000049
vn -0.000020 1.000000 0.000049
vn -0.000020 1.000000 0.000049
vn -0.000020 1.000000 0.000049
vn 0.315430 0.947172 -0.058045
vn 0.310899 0.949315 -0.046290
vn 0.330290 0.939772 -0.087962
vn 0.446632 -0.052450 0.893179
vn -0.003221 -0.015892 0.999869
vn 0.083759 0.187816 0.978626
vn -0.003221 -0.015892 0.999869
vn 0.446632 -0.052450 0.893179
vn -0.000111 -0.040346 0.999186
vn 0.300946 0.953303 -0.025415
vn 0.310899 0.949315 -0.046290
vn 0.315430 0.947172 -0.058045
vn 0.310899 0.949315 -0.046290
vn 0.300946 0.953303 -0.025415
vn 0.301690 0.953134 -0.022769
vn 0.008084 0.999965 -0.002152
vn 0.008084 0.999965 -0.002152
vn 0.008084 0.999965 -0.002152
vn 0.008084 0.999965 -0.002152
vn 0.008084 0.999965 -0.002152
vn 0.008084 0.999965 -0.002152
vn 0.930529 0.323728 -0.171221
vn 0.890323 0.048115 0.452780
vn 0.999952 0.006984 0.006864
vn 0.083759 0.187816 0.978626
vn -0.242891 0.317560 0.916602
vn -0.150451 0.311864 0.938139
vn 0.455956 0.064583 0.887656
vn -0.150451 0.311864 0.938139
vn 0.006426 0.046405 0.998902
vn 0.889462 0.351950 -0.291529
vn 0.976190 0.198362 0.087787
vn 0.930529 0.323728 -0.171221
vn 0.976190 0.198362 0.087787
vn 0.890323 0.048115 0.452780
vn 0.930529 0.323728 -0.171221
vn 0.455956 0.064583 0.887656
vn 0.083759 0.187816 0.978626
vn -0.150451 0.311864 0.938139
vn 0.083759 0.187816 0.978626
vn 0.455956 0.064583 0.887656
vn 0.446632 -0.052450 0.893179
vn 0.087352 -0.031345 0.995684
vn -0.099881 0.215594 0.971361
vn -0.031764 0.475693 0.879038
vn -0.099881 0.215594 0.971361
vn -0.423052 -0.124157 0.897559
vn -0.174036 -0.160566 0.971561
vn 0.161265 0.492374 0.855314
vn -0.099881 0.215594 0.971361
vn 0.285007 0.363028 0.887120
vn -0.099881 0.215594 0.971361
vn -0.043065 0.441006 0.896470
vn -0.031764 0.475693 0.879038
vn -0.043065 0.441006 0.896470
vn -0.099881 0.215594 0.971361
vn 0.187730 0.495407 0.848133
vn -0.099881 0.215594 0.971361
vn 0.161265 0.492374 0.855314
vn 0.187730 0.495407 0.848133
vn -0.099881 0.215594 0.971361
vn 0.087352 -0.031345 0.995684
vn -0.668005 -0.111534 0.735751
vn -0.423052 -0.124157 0.897559
vn -0.099881 0.215594 0.971361
vn -0.668005 -0.111534 0.735751
vn -0.099881 0.215594 0.971361
vn -0.174036 -0.160566 0.971561
vn -0.003221 -0.015892 0.999869
vn -0.003221 -0.015892 0.999869
vn -0.461824 -0.080119 0.883346
vn -0.099881 0.215594 0.971361
vn -0.239391 0.970406 -0.031696
vn -0.324262 0.944347 -0.055344
vn -0.174620 0.983557 -0.046078
vn -0.461824 -0.080119 0.883346
vn -0.458177 0.036453 0.888113
vn -0.099881 0.215594 0.971361
vn -0.301993 0.953151 -0.017417
vn -0.239391 0.970406 -0.031696
vn -0.301054 0.953379 -0.020853
vn -0.003221 -0.015892 0.999869
vn -0.000111 -0.040346 0.999186
vn -0.461824 -0.080119 0.883346
vn -0.239391 0.970406 -0.031696
vn -0.301993 0.953151 -0.017417
vn -0.324262 0.944347 -0.055344
vn -0.971346 0.223372 0.081185
vn -0.837354 0.523879 -0.156170
vn -0.885862 0.372824 -0.276136
vn -0.888519 0.038078 0.457257
vn -0.931468 0.322471 -0.168466
vn -0.999993 0.000606 0.003684
vn -0.099881 0.215594 0.971361
vn 0.167073 0.325114 0.930799
vn 0.285007 0.363028 0.887120
vn -0.174620 0.983557 -0.046078
vn 0.001570 0.999981 0.005996
vn -0.239391 0.970406 -0.031696
vn 0.001570 0.999981 0.005996
vn -0.239391 0.970406 -0.031696
vn 0.001570 0.999981 0.005996
vn -0.011756 0.045370 0.998901
vn 0.167073 0.325114 0.930799
vn -0.458177 0.036453 0.888113
vn -0.971346 0.223372 0.081185
vn -0.885862 0.372824 -0.276136
vn -0.931468 0.322471 -0.168466
vn -0.888519 0.038078 0.457257
vn -0.971346 0.223372 0.081185
vn -0.931468 0.322471 -0.168466
vn -0.099881 0.215594 0.971361
vn -0.458177 0.036453 0.888113
vn 0.167073 0.325114 0.930799
s off
g SM_Vase_01
f 117/2/1 113/1/2 166/4/3
f 166/69/4 168/70/5 111/63/6
f 111/63/7 117/66/8 166/69/9
f 175/78/10 187/98/11 174/77/12
f 187/98/13 175/78/14 185/97/15
f 195/113/16 116/71/17 193/112/18
f 116/71/19 195/113/20 167/72/21
f 199/119/22 118/117/23 198/118/24
f 118/117/25 199/119/26 119/116/27
f 121/122/28 123/123/29 118/124/30
f 118/124/31 124/132/32 129/139/33
f 124/132/34 111/140/35 129/139/36
f 206/166/37 208/167/38 118/117/39
f 206/166/40 118/117/41 119/116/42
f 179/84/43 205/168/44 177/83/45
f 205/168/46 179/84/47 207/169/48
f 196/115/49 194/114/50 128/174/51
f 128/174/52 129/175/53 196/115/54
f 200/121/55 129/175/56 128/174/57
f 129/175/58 200/121/59 197/120/60
f 119/30/61 199/28/62 79/22/63
f 79/22/64 200/25/65 128/20/66
f 57/17/67 174/15/68 187/19/69
f 209/184/70 202/158/71 211/185/72
f 211/185/73 202/158/74 204/159/75
f 107/195/76 85/193/77 106/190/78
f 85/251/79 71/253/80 88/449/81
f 71/253/82 85/251/83 41/381/84
f 80/256/85 41/252/86 85/384/87
f 41/252/88 80/256/89 54/396/90
f 101/240/91 105/243/92 80/241/93
f 37/259/94 104/260/95 95/261/96
f 80/320/97 37/258/98 72/399/99
f 80/320/100 72/399/101 54/255/102
f 37/179/103 88/254/104 72/257/105
f 72/257/106 88/254/107 71/421/108
f 80/262/109 104/260/110 37/259/111
f 104/260/112 80/262/113 99/263/114
f 99/263/115 80/262/116 105/264/117
f 41/267/118 154/269/119 71/266/120
f 154/269/121 41/267/122 155/268/123
f 156/273/124 72/271/125 157/272/126
f 72/271/127 156/273/128 54/270/129
f 156/276/130 41/274/131 54/275/132
f 41/274/133 156/276/134 155/277/135
f 157/281/136 71/279/137 154/280/138
f 71/279/139 157/281/140 72/278/141
f 156/285/142 154/283/143 155/284/144
f 154/283/145 156/285/146 157/282/147
f 57/17/148 187/19/149 100/21/150
f 61/287/151 11/290/152 57/288/153
f 100/286/154 61/287/155 57/288/156
f 10/291/157 100/286/158 66/321/159
f 42/10/160 174/15/161 57/17/162
f 11/290/163 58/293/164 57/288/165
f 58/293/166 42/295/167 57/288/168
f 159/299/169 42/295/170 58/293/171
f 91/348/172 113/349/173 31/350/174
f 91/348/175 160/356/176 20/357/177
f 160/356/178 91/348/179 31/350/180
f 94/16/181 128/20/182 194/18/183
f 94/16/184 35/24/185 79/22/186
f 128/20/187 94/16/188 79/22/189
f 79/387/190 27/385/191 76/386/192
f 27/385/193 79/387/194 35/388/195
f 27/389/196 49/390/197 76/391/198
f 94/370/199 161/372/200 27/374/201
f 27/374/202 35/394/203 94/370/204
f 38/12/205 116/9/206 91/8/207
f 55/365/208 38/360/209 60/362/210
f 55/365/211 94/370/212 38/360/213
f 60/362/214 38/360/215 20/357/216
f 91/348/217 20/357/218 38/360/219
f 161/372/220 94/370/221 55/365/222
f 119/30/223 89/34/224 206/36/225
f 89/34/226 119/30/227 79/22/228
f 87/37/229 89/34/230 79/22/231
f 14/406/232 89/407/233 87/408/234
f 162/409/235 89/407/236 14/406/237
f 14/412/238 79/410/239 76/411/240
f 79/410/241 14/412/242 87/413/243
f 76/391/244 49/390/245 14/392/246
f 89/407/247 162/409/248 63/423/249
f 163/430/250 68/431/251 59/429/252
f 62/426/253 59/429/254 32/427/255
f 32/42/256 205/40/257 89/34/258
f 59/429/259 68/431/260 32/427/261
f 32/427/262 63/423/263 62/426/264
f 89/407/265 63/423/266 32/427/267
f 23/342/268 70/330/269 40/326/270
f 70/330/271 164/358/272 48/189/273
f 164/358/274 70/330/275 23/342/276
f 50/183/277 28/94/278 53/73/279
f 50/43/280 209/45/281 70/47/282
f 53/73/283 29/68/284 50/183/285
f 48/189/286 28/94/287 50/183/288
f 70/330/289 48/189/290 50/183/291
f 116/9/292 38/12/293 193/14/294
f 166/4/295 113/1/296 91/8/297
f 166/4/298 91/8/299 116/9/300
f 195/144/301 111/140/302 167/151/303
f 168/150/304 167/151/305 111/140/306
f 68/46/307 177/44/308 32/42/309
f 118/124/310 179/128/311 121/122/312
f 179/128/313 180/129/314 121/122/315
f 175/148/316 124/132/317 185/153/318
f 186/152/319 185/153/320 124/132/321
f 94/16/322 193/14/323 38/12/324
f 111/140/325 195/144/326 129/139/327
f 195/144/328 196/145/329 129/139/330
f 129/139/331 197/141/332 118/124/333
f 197/141/334 198/142/335 118/124/336
f 29/35/337 202/41/338 50/43/339
f 205/40/340 32/42/341 177/44/342
f 179/128/343 118/124/344 207/134/345
f 208/133/346 207/134/347 118/124/348
f 209/45/349 50/43/350 202/41/351
f 204/130/352 123/123/353 211/136/354
f 212/135/355 211/136/356 123/123/357
f 168/70/358 116/71/359 167/72/360
f 116/71/361 168/70/362 166/69/363
f 173/76/364 175/78/365 174/77/366
f 175/78/367 173/76/368 176/75/369
f 178/82/370 179/84/371 177/83/372
f 179/84/373 178/82/374 180/81/375
f 186/99/376 187/98/377 185/97/378
f 187/98/379 186/99/380 188/100/381
f 194/114/382 196/115/383 193/112/384
f 193/112/385 196/115/386 195/113/387
f 199/119/388 198/118/389 200/121/390
f 200/121/391 198/118/392 197/120/393
f 204/159/394 202/158/395 203/156/396
f 203/156/397 202/158/398 201/157/399
f 205/168/400 208/167/401 206/166/402
f 208/167/403 205/168/404 207/169/405
f 209/184/406 212/181/407 210/180/408
f 212/181/409 209/184/410 211/185/411
f 42/10/412 173/13/413 174/15/414
f 177/44/415 68/46/416 178/48/417
f 100/21/418 187/19/419 188/23/420
f 193/14/421 94/16/422 194/18/423
f 79/22/424 199/28/425 200/25/426
f 29/35/427 201/38/428 202/41/429
f 205/40/430 206/36/431 89/34/432
f 209/45/433 210/49/434 70/47/435
f 123/92/436 122/91/437 210/180/438
f 210/180/439 212/181/440 123/92/441
f 68/431/442 17/432/443 98/438/444
f 78/443/445 17/444/446 56/445/447
f 68/431/448 163/430/449 17/432/450
f 70/47/451 210/49/452 122/52/453
f 122/52/454 40/53/455 70/47/456
f 23/446/457 78/443/458 56/445/459
f 180/81/460 178/82/461 120/79/462
f 180/81/463 120/79/464 121/80/465
f 121/80/466 120/79/467 182/87/468
f 182/87/469 184/88/470 121/80/471
f 183/90/472 181/89/473 122/91/474
f 183/90/475 122/91/476 123/92/477
f 40/53/478 122/52/479 83/50/480
f 182/56/481 83/50/482 181/55/483
f 120/51/484 68/46/485 83/50/486
f 178/48/487 68/46/488 120/51/489
f 98/54/490 83/50/491 68/46/492
f 78/442/493 83/439/494 17/441/495
f 83/439/496 98/440/497 17/441/498
f 83/161/499 78/160/500 23/163/501
f 83/161/502 23/163/503 40/162/504
f 123/123/505 121/122/506 183/126/507
f 184/125/508 183/126/509 121/122/510
f 184/88/511 181/89/512 183/90/513
f 181/89/514 184/88/515 182/87/516
f 181/55/517 83/50/518 122/52/519
f 83/50/520 182/56/521 120/51/522
f 124/101/523 125/102/524 188/100/525
f 124/101/526 188/100/527 186/99/528
f 66/27/529 125/26/530 44/29/531
f 192/106/532 190/107/533 124/101/534
f 124/101/535 190/107/536 125/102/537
f 127/155/538 201/157/539 126/154/540
f 201/157/541 127/155/542 203/156/543
f 126/154/544 191/109/545 127/155/546
f 191/109/547 126/154/548 189/108/549
f 44/29/550 190/32/551 189/33/552
f 123/123/553 127/127/554 118/124/555
f 127/127/556 124/132/557 118/124/558
f 188/23/559 125/26/560 100/21/561
f 125/26/562 66/27/563 100/21/564
f 10/317/565 66/318/566 44/315/567
f 44/315/568 9/316/569 10/317/570
f 9/322/571 52/323/572 10/324/573
f 29/35/574 126/31/575 201/38/576
f 44/29/577 29/35/578 97/39/579
f 126/31/580 29/35/581 44/29/582
f 191/137/583 192/138/584 127/127/585
f 127/127/586 192/138/587 124/132/588
f 123/123/589 204/130/590 127/127/591
f 204/130/592 203/131/593 127/127/594
f 191/109/595 189/108/596 190/107/597
f 191/109/598 190/107/599 192/106/600
f 44/29/601 189/33/602 126/31/603
f 190/32/604 44/29/605 125/26/606
f 113/1/607 117/2/608 108/3/609
f 170/59/610 172/60/611 25/57/612
f 25/57/613 112/58/614 170/59/615
f 117/66/616 111/63/617 171/64/618
f 117/66/619 171/64/620 169/65/621
f 108/3/622 170/6/623 112/7/624
f 176/75/625 112/58/626 25/57/627
f 112/58/628 176/75/629 173/76/630
f 25/143/631 111/140/632 124/132/633
f 74/11/634 108/3/635 112/7/636
f 112/7/637 42/10/638 74/11/639
f 42/295/640 45/304/641 74/333/642
f 45/334/643 73/335/644 51/336/645
f 42/295/646 159/299/647 45/304/648
f 74/341/649 45/338/650 108/340/651
f 45/338/652 51/339/653 108/340/654
f 31/351/655 113/352/656 108/353/657
f 31/351/658 108/353/659 51/354/660
f 31/337/661 51/336/662 73/335/663
f 111/140/664 25/143/665 171/147/666
f 172/146/667 171/147/668 25/143/669
f 173/13/670 42/10/671 112/7/672
f 124/132/673 175/148/674 25/143/675
f 175/148/676 176/149/677 25/143/678
f 169/61/679 171/62/680 172/60/681
f 172/60/682 170/59/683 169/61/684
f 108/3/685 169/5/686 170/6/687
f 169/5/688 108/3/689 117/2/690
f 100/286/691 158/289/692 61/287/693
f 158/289/694 100/286/695 10/291/696
f 165/67/697 29/68/698 53/73/699
f 9/425/700 44/395/701 8/187/702
f 97/393/703 8/187/704 44/395/705
f 8/111/706 97/355/707 29/68/708
f 52/323/709 9/322/710 8/325/711
f 29/68/712 165/67/713 8/111/714
f 62/426/715 102/424/716 59/429/717
f 102/424/718 62/426/719 63/423/720
f 104/260/721 99/263/722 33/265/723
f 43/182/724 53/73/725 28/94/726
f 28/94/727 48/189/728 43/182/729
f 115/292/730 11/290/731 61/287/732
f 61/287/733 158/289/734 115/292/735
f 115/292/736 58/293/737 11/290/738
f 115/292/739 159/299/740 58/293/741
f 55/365/742 60/362/743 75/361/744
f 20/357/745 75/361/746 60/362/747
f 107/237/748 109/238/749 85/239/750
f 109/238/751 80/241/752 85/239/753
f 80/241/754 109/238/755 101/240/756
f 101/240/757 109/238/758 34/242/759
f 95/250/760 110/244/761 37/248/762
f 37/248/763 114/246/764 88/247/765
f 114/246/766 37/248/767 110/244/768
f 52/86/769 26/95/770 147/110/771
f 26/95/772 149/172/773 148/173/774
f 149/172/775 26/95/776 39/165/777
f 150/85/778 26/95/779 148/173/780
f 26/95/781 150/85/782 147/110/783
f 26/95/784 52/86/785 8/111/786
f 165/67/787 26/95/788 8/111/789
f 43/182/790 165/67/791 53/73/792
f 165/67/793 43/182/794 26/95/795
f 130/96/796 82/188/797 26/95/798
f 82/204/799 34/197/800 109/208/801
f 34/197/802 82/204/803 65/200/804
f 65/200/805 82/204/806 130/205/807
f 43/182/808 65/93/809 130/96/810
f 43/182/811 130/96/812 26/95/813
f 105/203/814 101/199/815 69/198/816
f 69/198/817 15/202/818 105/203/819
f 56/176/820 4/178/821 23/342/822
f 140/346/823 4/178/824 138/398/825
f 164/358/826 4/178/827 48/189/828
f 4/178/829 56/176/830 138/398/831
f 4/178/832 140/346/833 139/436/834
f 141/437/835 4/178/836 139/436/837
f 4/178/838 164/358/839 23/342/840
f 48/189/841 4/178/842 43/182/843
f 34/197/844 69/198/845 101/199/846
f 65/200/847 131/201/848 69/198/849
f 69/198/850 34/197/851 65/200/852
f 43/182/853 131/74/854 65/93/855
f 131/74/856 43/182/857 4/178/858
f 131/74/859 4/178/860 69/177/861
f 52/300/862 12/171/863 10/291/864
f 115/292/865 158/289/866 12/171/867
f 149/306/868 12/171/869 148/305/870
f 12/171/871 52/300/872 147/296/873
f 12/171/874 150/301/875 148/305/876
f 150/301/877 12/171/878 147/296/879
f 12/171/880 158/289/881 10/291/882
f 107/210/883 106/214/884 19/215/885
f 107/210/886 19/215/887 36/211/888
f 115/292/889 132/298/890 93/297/891
f 12/171/892 132/298/893 115/292/894
f 12/171/895 149/306/896 39/103/897
f 109/208/898 107/210/899 82/204/900
f 82/204/901 107/210/902 36/211/903
f 36/329/904 19/328/905 96/327/906
f 96/164/907 82/188/908 36/186/909
f 96/164/910 39/165/911 26/95/912
f 39/103/913 96/327/914 12/171/915
f 19/328/916 12/171/917 96/327/918
f 26/95/919 82/188/920 96/164/921
f 132/298/922 12/171/923 19/328/924
f 90/191/925 88/194/926 13/196/927
f 85/193/928 88/194/929 90/191/930
f 85/193/931 90/191/932 106/190/933
f 73/309/934 21/303/935 146/307/936
f 151/313/937 21/303/938 47/170/939
f 21/303/940 151/313/941 152/312/942
f 21/303/943 153/310/944 146/307/945
f 153/310/946 21/303/947 152/312/948
f 159/299/949 21/303/950 45/304/951
f 21/303/952 73/309/953 45/304/954
f 21/303/955 133/302/956 92/343/957
f 115/292/958 21/303/959 159/299/960
f 115/292/961 133/302/962 21/303/963
f 133/302/964 115/292/965 93/297/966
f 114/246/967 13/249/968 88/247/969
f 106/190/970 90/191/971 103/192/972
f 92/224/973 103/218/974 90/228/975
f 133/225/976 93/220/977 92/224/978
f 103/218/979 92/224/980 93/220/981
f 103/218/982 19/215/983 106/214/984
f 19/215/985 103/218/986 93/220/987
f 19/215/988 93/220/989 132/221/990
f 73/366/991 46/359/992 31/350/993
f 160/356/994 46/359/995 20/357/996
f 46/359/997 73/366/998 146/363/999
f 151/373/1000 46/359/1001 152/371/1002
f 153/367/1003 46/359/1004 146/363/1005
f 46/359/1006 153/367/1007 152/371/1008
f 46/359/1009 160/356/1010 31/350/1011
f 20/357/1012 46/359/1013 75/361/1014
f 46/359/1015 151/373/1016 47/314/1017
f 13/230/1018 114/235/1019 84/234/1020
f 84/234/1021 18/231/1022 13/230/1023
f 67/344/1024 92/343/1025 18/347/1026
f 84/382/1027 67/294/1028 18/383/1029
f 47/170/1030 21/303/1031 67/344/1032
f 46/359/1033 47/314/1034 67/294/1035
f 84/382/1036 46/359/1037 67/294/1038
f 21/303/1039 92/343/1040 67/344/1041
f 13/230/1042 92/224/1043 90/228/1044
f 92/224/1045 13/230/1046 18/231/1047
f 46/359/1048 84/382/1049 134/364/1050
f 49/376/1051 3/369/1052 142/375/1053
f 135/368/1054 5/397/1055 3/369/1056
f 161/372/1057 3/369/1058 27/374/1059
f 145/379/1060 3/369/1061 6/308/1062
f 3/369/1063 49/376/1064 27/374/1065
f 3/369/1066 161/372/1067 55/365/1068
f 144/377/1069 3/369/1070 143/378/1071
f 3/369/1072 145/379/1073 143/378/1074
f 3/369/1075 144/377/1076 142/375/1077
f 75/361/1078 135/368/1079 3/369/1080
f 3/369/1081 55/365/1082 75/361/1083
f 110/244/1084 64/245/1085 114/246/1086
f 110/227/1087 5/226/1088 64/229/1089
f 135/232/1090 81/233/1091 5/226/1092
f 5/226/1093 81/233/1094 64/229/1095
f 75/361/1096 81/319/1097 135/368/1098
f 75/361/1099 134/364/1100 81/319/1101
f 64/229/1102 84/234/1103 114/235/1104
f 81/233/1105 84/234/1106 64/229/1107
f 84/234/1108 81/233/1109 134/236/1110
f 134/364/1111 75/361/1112 46/359/1113
f 49/420/1114 16/401/1115 14/406/1116
f 145/402/1117 16/401/1118 143/404/1119
f 16/401/1120 145/402/1121 6/403/1122
f 16/401/1123 162/409/1124 14/406/1125
f 144/405/1126 16/401/1127 142/418/1128
f 16/401/1129 49/420/1130 142/418/1131
f 16/401/1132 144/405/1133 143/404/1134
f 162/409/1135 16/401/1136 63/423/1137
f 63/423/1138 16/401/1139 102/424/1140
f 30/216/1141 24/222/1142 95/223/1143
f 30/216/1144 95/223/1145 104/219/1146
f 33/209/1147 30/216/1148 104/219/1149
f 136/416/1150 102/424/1151 16/401/1152
f 102/424/1153 136/416/1154 77/422/1155
f 77/213/1156 30/216/1157 33/209/1158
f 30/216/1159 77/213/1160 136/217/1161
f 24/222/1162 5/226/1163 95/223/1164
f 95/223/1165 5/226/1166 110/227/1167
f 2/345/1168 5/397/1169 24/400/1170
f 16/401/1171 6/403/1172 2/311/1173
f 30/415/1174 2/311/1175 24/414/1176
f 6/308/1177 3/369/1178 2/345/1179
f 3/369/1180 5/397/1181 2/345/1182
f 30/415/1183 16/401/1184 2/311/1185
f 16/401/1186 30/415/1187 136/416/1188
f 56/434/1189 22/419/1190 138/433/1191
f 22/419/1192 163/430/1193 59/429/1194
f 141/450/1195 22/419/1196 7/331/1197
f 22/419/1198 140/435/1199 138/433/1200
f 140/435/1201 22/419/1202 139/380/1203
f 22/419/1204 141/450/1205 139/380/1206
f 22/419/1207 56/434/1208 17/432/1209
f 163/430/1210 22/419/1211 17/432/1212
f 22/419/1213 59/429/1214 102/424/1215
f 102/424/1216 137/428/1217 22/419/1218
f 86/206/1219 33/209/1220 99/207/1221
f 137/428/1222 86/447/1223 22/419/1224
f 77/213/1225 86/206/1226 137/212/1227
f 102/424/1228 77/422/1229 137/428/1230
f 86/206/1231 77/213/1232 33/209/1233
f 4/178/1234 141/437/1235 7/332/1236
f 69/177/1237 1/105/1238 15/104/1239
f 22/419/1240 1/417/1241 7/331/1242
f 99/207/1243 105/203/1244 86/206/1245
f 15/202/1246 86/206/1247 105/203/1248
f 15/448/1249 1/417/1250 86/447/1251
f 4/178/1252 7/332/1253 1/105/1254
f 69/177/1255 4/178/1256 1/105/1257
f 22/419/1258 86/447/1259 1/417/1260
