# This file uses feet as units for non-parametric coordinates.

g default
v -16.038315 -24.701927 3.834393
v -16.038315 -24.701927 4.413273
v -6.930511 2.679459 4.807930
v -6.930511 2.679459 3.834393
v -9.506363 4.773262 4.807930
v -9.506363 4.773262 3.834393
v -16.141556 -24.868378 3.834393
v -16.277466 -24.907692 3.834393
v -16.277466 -24.907692 4.413273
v -16.141556 -24.868378 4.413273
v -10.951401 10.481422 5.780643
v -8.702438 8.535633 5.780643
v -16.182358 -24.287956 4.821491
v -10.951401 10.481422 3.834393
v -8.702438 8.535633 3.834393
v -16.277466 21.984673 3.834393
v -10.127625 16.453354 3.834393
v -10.127625 16.453354 7.077595
v -16.277466 21.984673 7.077595
v -16.182358 -24.287956 4.413273
v -16.277466 -24.313293 4.413273
v -16.277466 -24.313293 5.365784
v -16.213623 -24.280220 5.365784
v -25.624405 2.679459 3.834393
v -25.624405 2.679459 4.807930
v -16.516602 -24.701927 4.413273
v -16.516602 -24.701927 3.834393
v -23.048553 4.773262 3.834393
v -23.048553 4.773262 4.807930
v -16.413361 -24.868378 3.834393
v -16.413361 -24.868378 4.413273
v -22.427292 16.453354 7.077595
v -16.341293 -24.280220 5.365784
v -21.603516 10.481422 5.780643
v -16.372559 -24.287956 4.821491
v -23.852478 8.535633 5.780643
v -23.852478 8.535633 3.834393
v -21.603516 10.481422 3.834393
v -22.427292 16.453354 3.834393
v -16.372559 -24.287956 4.413273
v -16.837509 -13.014275 9.298637
v -16.678864 -13.014275 8.915607
v -16.678864 16.824369 8.915607
v -16.837509 16.824369 9.298637
v -16.295837 -13.014275 8.756950
v -16.295837 16.824369 8.756950
v -15.912811 -13.014275 8.915607
v -15.912811 16.824369 8.915607
v -15.754150 -13.014275 9.298637
v -15.754150 16.824369 9.298637
v -15.912811 -13.014275 9.681667
v -15.912811 16.824369 9.681667
v -16.295837 -13.014275 9.840324
v -16.295837 16.824369 9.840324
v -16.678864 -13.014275 9.681667
v -16.678864 16.824369 9.681667
v -16.155396 11.670277 6.627556
v -16.237976 11.869648 6.627556
v -16.237976 11.869650 8.889406
v -16.155396 11.670279 8.889406
v -16.437332 11.952229 6.627556
v -16.437332 11.952230 8.889406
v -16.636703 11.869648 6.627556
v -16.636703 11.869650 8.889406
v -16.719284 11.670277 6.627556
v -16.719284 11.670279 8.889406
v -16.636703 11.470909 6.627556
v -16.636703 11.470907 8.889406
v -16.437332 11.388327 6.627556
v -16.437332 11.388327 8.889406
v -16.237976 11.470909 6.627556
v -16.237976 11.470907 8.889406
v -16.163101 -11.920035 5.889449
v -16.243423 -11.726121 5.889449
v -16.243423 -11.726120 8.889406
v -16.163101 -11.920035 8.889405
v -16.437332 -11.645799 5.889449
v -16.437332 -11.645799 8.889407
v -16.631256 -11.726121 5.889449
v -16.631256 -11.726120 8.889406
v -16.711578 -11.920035 5.889449
v -16.711578 -11.920035 8.889405
v -16.631256 -12.113950 5.889449
v -16.631256 -12.113950 8.889405
v -16.437332 -12.194272 5.889449
v -16.437332 -12.194272 8.889405
v -16.243423 -12.113950 5.889449
v -16.243423 -12.113950 8.889405
v -31.988281 -32.797153 1.814644
v 0.000000 -32.797153 1.814644
v 0.000000 -32.797153 0.000000
v -31.988281 -32.797153 0.000000
v 0.000000 32.797157 1.814644
v 0.000000 32.797157 0.000000
v -31.988281 32.797157 1.814644
v -31.988281 32.797157 0.000000
v -0.945724 32.797157 3.561573
v -0.304321 32.797157 3.010475
v -0.304321 -32.797153 3.010475
v -0.945724 -32.797153 3.561573
v -31.019516 -32.797153 3.561573
v -31.683960 -32.797153 3.010475
v -31.683960 32.797157 3.010475
v -31.019516 32.797157 3.561573
v -1.864639 32.797157 3.814949
v -30.123642 32.797157 3.814949
v -30.123642 -32.797153 3.814949
v -1.864639 -32.797153 3.814949
vt 1.554615 0.278272
vt 1.557793 0.278272
vt 1.559960 0.436699
vt 1.554615 0.436699
vt 1.545504 0.106505
vt 1.545504 0.124729
vt 1.540159 0.124729
vt 1.540159 0.106505
vt 1.554615 0.277197
vt 1.554615 0.276420
vt 1.557793 0.276420
vt 1.557793 0.277197
vt 1.983451 0.039047
vt 1.997468 0.047421
vt 1.988315 0.232096
vt 1.289603 0.580578
vt 1.289603 0.564251
vt 1.300288 0.564251
vt 1.300288 0.580578
vt 1.363925 0.866342
vt 1.318514 0.866342
vt 1.318514 0.848536
vt 1.363925 0.848536
vt 1.785641 0.451885
vt 1.752544 0.451885
vt 1.752528 0.441124
vt 1.785657 0.434155
vt 1.190211 0.993088
vt 1.190751 0.993093
vt 1.190698 0.998322
vt 1.190188 0.995328
vt 1.190303 0.998320
vt 1.554615 0.116141
vt 1.559960 0.116141
vt 1.557793 0.274568
vt 1.554615 0.274568
vt 1.660619 0.111849
vt 1.660619 0.106505
vt 1.678844 0.106505
vt 1.678844 0.111849
vt 1.554615 0.275643
vt 1.557793 0.275643
vt 1.536648 0.987731
vt 1.511249 0.950087
vt 1.763177 0.985161
vt 1.762949 0.985483
vt 1.000500 0.602798
vt 1.193549 0.607663
vt 1.008873 0.616815
vt 1.575760 0.570118
vt 1.559433 0.570118
vt 1.559433 0.559433
vt 1.575760 0.559433
vt 1.432687 0.636527
vt 1.432687 0.681939
vt 1.414881 0.681939
vt 1.414881 0.636527
vt 1.530283 0.129053
vt 1.497154 0.122084
vt 1.497169 0.111323
vt 1.530267 0.111323
vt 1.544978 0.358854
vt 1.547218 0.358832
vt 1.550212 0.359342
vt 1.544983 0.359395
vt 1.550209 0.358947
vt 1.258130 0.683322
vt 1.259438 0.681302
vt 1.272340 0.839217
vt 1.255875 0.847027
vt 1.005318 0.998797
vt 1.026490 0.993655
vt 1.545545 0.195133
vt 1.550687 0.173962
vt 1.559433 0.444479
vt 1.559478 0.441486
vt 1.503461 0.988270
vt 1.503461 0.998955
vt 1.482339 0.998955
vt 1.482339 0.993612
vt 1.545965 0.920812
vt 1.763046 0.984789
vt 1.427674 0.910998
vt 1.427942 0.911468
vt 1.424917 0.912495
vt 1.424518 0.911828
vt 1.257656 0.683063
vt 1.258431 0.679893
vt 1.259104 0.680279
vt 1.591583 0.906357
vt 1.584061 0.922957
vt 1.425945 0.912811
vt 1.737713 0.993612
vt 1.737713 0.988270
vt 1.758836 0.988270
vt 1.758836 0.998955
vt 1.304103 0.121722
vt 1.304058 0.118729
vt 1.733064 0.116141
vt 1.737108 0.116141
vt 1.737108 0.407061
vt 1.733064 0.407061
vt 1.741150 0.116141
vt 1.741150 0.407061
vt 1.708803 0.116141
vt 1.712846 0.116141
vt 1.712846 0.407061
vt 1.708803 0.407061
vt 1.716889 0.116141
vt 1.716889 0.407061
vt 1.720932 0.116141
vt 1.720932 0.407061
vt 1.724977 0.116141
vt 1.724977 0.407061
vt 1.729021 0.116141
vt 1.729021 0.407061
vt 1.265668 0.889140
vt 1.255875 0.885184
vt 1.258708 0.882300
vt 1.265633 0.885098
vt 1.518209 0.978754
vt 1.511284 0.975956
vt 1.511249 0.971914
vt 1.521043 0.975871
vt 1.514082 0.969031
vt 1.521007 0.971829
vt 1.518124 0.968996
vt 1.514167 0.978789
vt 1.262835 0.892023
vt 1.258793 0.892059
vt 1.255910 0.889225
vt 1.262750 0.882265
vt 1.733064 0.116141
vt 1.737108 0.116141
vt 1.737108 0.407061
vt 1.733064 0.407061
vt 1.741150 0.116141
vt 1.741150 0.407061
vt 1.708803 0.116141
vt 1.712846 0.116141
vt 1.712846 0.407061
vt 1.708803 0.407061
vt 1.716889 0.116141
vt 1.716889 0.407061
vt 1.720932 0.116141
vt 1.720932 0.407061
vt 1.724977 0.116141
vt 1.724977 0.407061
vt 1.729021 0.116141
vt 1.729021 0.407061
vt 1.733064 0.116141
vt 1.737108 0.116141
vt 1.737108 0.407061
vt 1.733064 0.407061
vt 1.741150 0.116141
vt 1.741150 0.407061
vt 1.708803 0.116141
vt 1.712846 0.116141
vt 1.712846 0.407061
vt 1.708803 0.407061
vt 1.716889 0.116141
vt 1.716889 0.407061
vt 1.720932 0.116141
vt 1.720932 0.407061
vt 1.724977 0.116141
vt 1.724977 0.407061
vt 1.729021 0.116141
vt 1.729021 0.407061
vt 1.087231 0.124253
vt 1.139896 0.124253
vt 1.139896 0.127241
vt 1.087231 0.127241
vt 1.536633 0.792385
vt 1.536633 0.641346
vt 1.540811 0.641346
vt 1.540811 0.792385
vt 1.457607 0.641346
vt 1.457607 0.792385
vt 1.453429 0.792385
vt 1.453429 0.641346
vt 1.231445 0.123947
vt 1.178780 0.123947
vt 1.178780 0.120960
vt 1.231445 0.120960
vt 1.638516 0.891565
vt 1.530523 0.891565
vt 1.530523 0.838899
vt 1.638516 0.838900
vt 1.531845 0.641346
vt 1.533792 0.641346
vt 1.533792 0.792385
vt 1.531845 0.792385
vt 1.462436 0.792385
vt 1.460448 0.792385
vt 1.460448 0.641346
vt 1.462436 0.641346
vt 1.230944 0.125916
vt 1.228375 0.127241
vt 1.181850 0.127241
vt 1.179281 0.125916
vt 1.087732 0.122284
vt 1.090301 0.120960
vt 1.136826 0.120960
vt 1.139395 0.122284
vt 1.464580 0.641346
vt 1.529650 0.641346
vt 1.529650 0.792385
vt 1.464580 0.792385
vt 1.180375 0.126823
vt 1.229888 0.126824
vt 1.088826 0.121377
vt 1.138339 0.121377
vn 0.948884 -0.315625 -0.000000
vn 0.905756 -0.423800 -0.000000
vn 0.905540 -0.424261 -0.000000
vn 0.905756 -0.423800 -0.000000
vn 0.948884 -0.315625 -0.000000
vn 0.948884 -0.315625 -0.000000
vn 0.630760 0.775978 0.000000
vn 0.630760 0.775978 0.000000
vn 0.630760 0.775978 0.000000
vn 0.630760 0.775978 0.000000
vn 0.630760 0.775978 0.000000
vn 0.630760 0.775978 0.000000
vn -0.000015 -1.000000 -0.000000
vn -0.000015 -1.000000 -0.000000
vn 0.604072 -0.796930 -0.000000
vn 0.604072 -0.796930 -0.000000
vn -0.000015 -1.000000 -0.000000
vn 0.604072 -0.796930 -0.000000
vn 0.905540 -0.424261 -0.000000
vn 0.905756 -0.423800 -0.000000
vn 0.604072 -0.796930 -0.000000
vn 0.905540 -0.424261 -0.000000
vn 0.604072 -0.796930 -0.000000
vn 0.604072 -0.796930 -0.000000
vn -0.021107 -0.024396 0.999480
vn -0.021107 -0.024396 0.999480
vn -0.021107 -0.024396 0.999479
vn 0.654294 0.756240 0.000000
vn 0.654294 0.756240 0.000000
vn 0.654294 0.756240 0.000000
vn 0.654294 0.756240 0.000000
vn 0.654294 0.756240 0.000000
vn 0.654294 0.756240 0.000000
vn 0.668728 0.743507 0.000000
vn 0.668728 0.743507 0.000000
vn 0.668728 0.743507 0.000000
vn 0.668728 0.743507 0.000000
vn 0.668728 0.743507 0.000000
vn 0.668728 0.743507 0.000000
vn 0.990620 -0.136647 -0.000000
vn 0.988637 -0.145118 0.039211
vn 0.990620 -0.136647 -0.000000
vn 0.988637 -0.145118 0.039211
vn 0.990620 -0.136647 -0.000000
vn 0.990382 -0.138179 0.007014
vn -0.000047 -0.999256 0.038561
vn -0.000020 -1.000000 -0.000000
vn 0.580642 -0.813964 0.017830
vn 0.717041 -0.696592 0.024719
vn 0.580642 -0.813964 0.017830
vn -0.000020 -1.000000 -0.000000
vn 0.580642 -0.813964 0.017830
vn 0.459635 -0.887250 0.039013
vn -0.000047 -0.999256 0.038561
vn -0.905756 -0.423800 -0.000000
vn -0.948884 -0.315625 -0.000000
vn -0.948884 -0.315625 -0.000000
vn -0.948884 -0.315625 -0.000000
vn -0.905540 -0.424261 -0.000000
vn -0.905756 -0.423800 -0.000000
vn -0.630760 0.775978 0.000000
vn -0.630760 0.775978 0.000000
vn -0.630760 0.775978 0.000000
vn -0.630760 0.775978 0.000000
vn -0.630760 0.775978 0.000000
vn -0.630760 0.775978 0.000000
vn -0.604084 -0.796921 -0.000000
vn -0.000015 -1.000000 -0.000000
vn -0.000015 -1.000000 -0.000000
vn -0.000015 -1.000000 -0.000000
vn -0.604084 -0.796921 -0.000000
vn -0.604084 -0.796921 -0.000000
vn -0.604084 -0.796921 -0.000000
vn -0.604084 -0.796921 -0.000000
vn -0.905540 -0.424261 -0.000000
vn -0.905756 -0.423800 -0.000000
vn -0.905540 -0.424261 -0.000000
vn -0.604084 -0.796921 -0.000000
vn -0.000001 -0.037020 0.999315
vn 0.000000 -0.037020 0.999315
vn 0.032740 -0.037000 0.998779
vn -0.000001 -0.037020 0.999315
vn 0.032740 -0.037000 0.998779
vn 0.032740 -0.037000 0.998779
vn 0.021107 -0.024396 0.999480
vn 0.021107 -0.024396 0.999479
vn 0.021107 -0.024396 0.999480
vn -0.654294 0.756240 0.000000
vn -0.654294 0.756240 0.000000
vn -0.654294 0.756240 0.000000
vn -0.654294 0.756240 0.000000
vn -0.654294 0.756240 0.000000
vn -0.654294 0.756240 0.000000
vn -0.668729 0.743506 0.000000
vn -0.668729 0.743506 0.000000
vn -0.668729 0.743506 0.000000
vn -0.668729 0.743506 0.000000
vn -0.668729 0.743506 0.000000
vn -0.668729 0.743506 0.000000
vn -0.988637 -0.145118 0.039211
vn -0.990382 -0.138179 0.007014
vn -0.990620 -0.136647 -0.000000
vn -0.990620 -0.136647 -0.000000
vn -0.990620 -0.136647 -0.000000
vn -0.988637 -0.145118 0.039211
vn -0.000020 -1.000000 -0.000000
vn -0.580665 -0.813947 0.017830
vn -0.717055 -0.696578 0.024718
vn -0.000020 -1.000000 -0.000000
vn -0.000047 -0.999256 0.038561
vn -0.580665 -0.813947 0.017830
vn -0.580665 -0.813947 0.017830
vn -0.000047 -0.999256 0.038561
vn -0.459722 -0.887205 0.039018
vn 0.010250 -0.011117 0.999886
vn 0.002313 -0.002508 0.999994
vn 0.006259 -0.006789 0.999957
vn 0.010250 -0.011117 0.999886
vn 0.006259 -0.006789 0.999957
vn 0.010250 -0.011117 0.999886
vn 0.973737 -0.223669 0.042517
vn 0.580642 -0.813964 0.017830
vn 0.973737 -0.223669 0.042517
vn 0.973737 -0.223669 0.042517
vn 0.580642 -0.813964 0.017830
vn 0.717041 -0.696592 0.024719
vn -0.580665 -0.813947 0.017830
vn -0.973737 -0.223669 0.042517
vn -0.973737 -0.223669 0.042517
vn -0.580665 -0.813947 0.017830
vn -0.973737 -0.223669 0.042517
vn -0.717055 -0.696578 0.024718
vn 0.990382 -0.138179 0.007014
vn 0.986671 -0.150112 0.062823
vn 0.988637 -0.145118 0.039211
vn 0.988637 -0.145118 0.039211
vn 0.986671 -0.150112 0.062823
vn 0.986671 -0.150112 0.062823
vn 0.977925 -0.208958 -0.000000
vn 0.977925 -0.208958 -0.000000
vn 0.977925 -0.208958 -0.000000
vn 0.977925 -0.208958 -0.000000
vn 0.977925 -0.208958 -0.000000
vn 0.977925 -0.208958 -0.000000
vn 0.000000 -0.037020 0.999315
vn -0.000001 -0.037020 0.999315
vn -0.032740 -0.037000 0.998779
vn -0.032740 -0.037000 0.998779
vn -0.000001 -0.037020 0.999315
vn -0.032740 -0.037000 0.998779
vn 0.000000 -0.000000 1.000000
vn -0.006259 -0.006789 0.999957
vn 0.000000 -0.000000 1.000000
vn 0.000000 -0.000000 1.000000
vn 0.000000 -0.000000 1.000000
vn 0.000000 -0.000000 1.000000
vn 0.006259 -0.006789 0.999957
vn 0.000000 -0.000000 1.000000
vn 0.000000 -0.000000 1.000000
vn 0.000000 -0.000000 1.000000
vn 0.000000 -0.000000 1.000000
vn 0.000000 -0.000000 1.000000
vn 0.006259 -0.006789 0.999957
vn 0.002313 -0.002508 0.999994
vn 0.000000 -0.000000 1.000000
vn -0.010250 -0.011117 0.999886
vn -0.006259 -0.006789 0.999957
vn -0.010250 -0.011117 0.999886
vn -0.002313 -0.002508 0.999994
vn -0.010250 -0.011117 0.999886
vn -0.006259 -0.006789 0.999957
vn -0.006259 -0.006789 0.999957
vn 0.000000 -0.000000 1.000000
vn -0.002313 -0.002508 0.999994
vn -0.977925 -0.208958 -0.000000
vn -0.977925 -0.208958 -0.000000
vn -0.977925 -0.208958 -0.000000
vn -0.977925 -0.208958 -0.000000
vn -0.977925 -0.208958 -0.000000
vn -0.977925 -0.208958 -0.000000
vn -0.986671 -0.150112 0.062823
vn -0.990382 -0.138179 0.007014
vn -0.988637 -0.145118 0.039211
vn -0.988637 -0.145118 0.039211
vn -0.986671 -0.150112 0.062823
vn -0.986671 -0.150112 0.062823
vn -0.707117 0.000000 -0.707097
vn -0.707117 0.000000 -0.707097
vn -1.000000 0.000000 0.000000
vn -1.000000 0.000000 0.000000
vn -0.707117 0.000000 -0.707097
vn -1.000000 0.000000 0.000000
vn 0.000000 0.000000 -1.000000
vn -0.707117 0.000000 -0.707097
vn -0.707117 0.000000 -0.707097
vn -0.707117 0.000000 -0.707097
vn 0.000000 0.000000 -1.000000
vn 0.000000 0.000000 -1.000000
vn 0.707105 0.000000 -0.707108
vn 0.000000 0.000000 -1.000000
vn 0.000000 0.000000 -1.000000
vn 0.000000 0.000000 -1.000000
vn 0.707105 0.000000 -0.707108
vn 0.707105 0.000000 -0.707108
vn 1.000000 0.000000 0.000000
vn 0.707105 0.000000 -0.707108
vn 0.707105 0.000000 -0.707108
vn 0.707105 0.000000 -0.707108
vn 1.000000 0.000000 0.000000
vn 1.000000 0.000000 0.000000
vn 0.707105 -0.000000 0.707108
vn 1.000000 0.000000 0.000000
vn 1.000000 0.000000 0.000000
vn 1.000000 0.000000 0.000000
vn 0.707105 -0.000000 0.707108
vn 0.707105 -0.000000 0.707108
vn 0.000000 -0.000000 1.000000
vn 0.707105 -0.000000 0.707108
vn 0.707105 -0.000000 0.707108
vn 0.707105 -0.000000 0.707108
vn 0.000000 -0.000000 1.000000
vn 0.000000 -0.000000 1.000000
vn -0.707117 -0.000000 0.707097
vn 0.000000 -0.000000 1.000000
vn 0.000000 -0.000000 1.000000
vn 0.000000 -0.000000 1.000000
vn -0.707117 -0.000000 0.707097
vn -0.707117 -0.000000 0.707097
vn -1.000000 0.000000 0.000000
vn -0.707117 -0.000000 0.707097
vn -0.707117 -0.000000 0.707097
vn -0.707117 -0.000000 0.707097
vn -1.000000 0.000000 0.000000
vn -1.000000 0.000000 0.000000
vn 0.000000 -1.000000 -0.000000
vn 0.000000 -1.000000 -0.000000
vn 0.000000 -1.000000 -0.000000
vn 0.000000 -1.000000 -0.000000
vn 0.000000 -1.000000 -0.000000
vn 0.000000 -1.000000 -0.000000
vn 0.000000 1.000000 0.000000
vn 0.000000 1.000000 0.000000
vn 0.000000 1.000000 0.000000
vn 0.000000 1.000000 0.000000
vn 0.000000 1.000000 0.000000
vn 0.000000 1.000000 0.000000
vn 0.000000 1.000000 0.000000
vn 0.000000 1.000000 0.000000
vn 0.000000 1.000000 0.000000
vn 0.000000 1.000000 0.000000
vn 0.000000 1.000000 0.000000
vn 0.000000 1.000000 0.000000
vn 0.000000 1.000000 0.000000
vn 0.000000 1.000000 0.000000
vn 0.000000 1.000000 0.000000
vn 0.000000 1.000000 0.000000
vn 0.000000 1.000000 0.000000
vn 0.000000 1.000000 0.000000
vn 0.000000 -1.000000 -0.000000
vn 0.000000 -1.000000 -0.000000
vn 0.000000 -1.000000 -0.000000
vn 0.000000 -1.000000 -0.000000
vn 0.000000 -1.000000 -0.000000
vn 0.000000 -1.000000 -0.000000
vn 0.000000 -1.000000 -0.000000
vn 0.000000 -1.000000 -0.000000
vn 0.000000 -1.000000 -0.000000
vn 0.000000 -1.000000 -0.000000
vn 0.000000 -1.000000 -0.000000
vn 0.000000 -1.000000 -0.000000
vn 0.707117 0.707097 -0.000000
vn 0.707117 0.707097 -0.000000
vn 1.000000 -0.000001 -0.000000
vn 0.707117 0.707097 -0.000000
vn 1.000000 -0.000001 -0.000000
vn 1.000000 -0.000001 -0.000000
vn 0.000014 1.000000 -0.000001
vn 0.000014 1.000000 -0.000001
vn 0.707117 0.707097 -0.000000
vn 0.707117 0.707097 -0.000000
vn 0.000014 1.000000 -0.000001
vn 0.707117 0.707097 -0.000000
vn -0.707107 0.707106 -0.000000
vn -0.707107 0.707107 -0.000000
vn 0.000014 1.000000 -0.000001
vn 0.000014 1.000000 -0.000001
vn -0.707107 0.707107 -0.000000
vn 0.000014 1.000000 -0.000001
vn -1.000000 -0.000001 -0.000000
vn -1.000000 -0.000001 -0.000000
vn -0.707107 0.707106 -0.000000
vn -0.707107 0.707107 -0.000000
vn -0.707107 0.707106 -0.000000
vn -1.000000 -0.000001 -0.000000
vn -0.707107 -0.707106 -0.000000
vn -0.707107 -0.707106 -0.000000
vn -1.000000 -0.000001 -0.000000
vn -1.000000 -0.000001 -0.000000
vn -1.000000 -0.000001 -0.000000
vn -0.707107 -0.707106 -0.000000
vn -0.707107 -0.707106 -0.000000
vn -0.707107 -0.707106 -0.000000
vn 0.000014 -1.000000 -0.000000
vn 0.000014 -1.000000 -0.000000
vn -0.707107 -0.707106 -0.000000
vn 0.000014 -1.000000 -0.000000
vn 0.000014 -1.000000 -0.000000
vn 0.000014 -1.000000 -0.000000
vn 0.707117 -0.707097 -0.000000
vn 0.707117 -0.707097 -0.000000
vn 0.000014 -1.000000 -0.000000
vn 0.707117 -0.707097 -0.000000
vn 1.000000 -0.000001 -0.000000
vn 0.707117 -0.707097 -0.000000
vn 1.000000 -0.000001 -0.000000
vn 0.707117 -0.707097 -0.000000
vn 1.000000 -0.000001 -0.000000
vn 0.707117 -0.707097 -0.000000
vn 0.707110 0.707103 -0.000000
vn 0.707110 0.707104 -0.000000
vn 1.000000 -0.000000 -0.000000
vn 0.707110 0.707103 -0.000000
vn 1.000000 -0.000000 -0.000000
vn 1.000000 -0.000000 -0.000000
vn 0.000014 1.000000 -0.000000
vn 0.707110 0.707103 -0.000000
vn 0.000014 1.000000 -0.000000
vn 0.707110 0.707103 -0.000000
vn 0.000014 1.000000 -0.000000
vn 0.707110 0.707104 -0.000000
vn -0.707100 0.707113 -0.000000
vn -0.707100 0.707113 -0.000000
vn 0.000014 1.000000 -0.000000
vn 0.000014 1.000000 -0.000000
vn -0.707100 0.707113 -0.000000
vn 0.000014 1.000000 -0.000000
vn -1.000000 -0.000000 -0.000000
vn -1.000000 -0.000000 -0.000000
vn -0.707100 0.707113 -0.000000
vn -0.707100 0.707113 -0.000000
vn -0.707100 0.707113 -0.000000
vn -1.000000 -0.000000 -0.000000
vn -0.707101 -0.707113 -0.000000
vn -0.707101 -0.707113 -0.000000
vn -1.000000 -0.000000 -0.000000
vn -1.000000 -0.000000 -0.000000
vn -1.000000 -0.000000 -0.000000
vn -0.707101 -0.707113 -0.000000
vn -0.707101 -0.707113 -0.000000
vn -0.707101 -0.707113 -0.000000
vn 0.000014 -1.000000 -0.000000
vn 0.000014 -1.000000 -0.000000
vn -0.707101 -0.707113 -0.000000
vn 0.000014 -1.000000 -0.000000
vn 0.000014 -1.000000 -0.000000
vn 0.000014 -1.000000 -0.000000
vn 0.707111 -0.707103 -0.000000
vn 0.707111 -0.707103 -0.000000
vn 0.000014 -1.000000 -0.000000
vn 0.707111 -0.707103 -0.000000
vn 1.000000 -0.000000 -0.000000
vn 0.707111 -0.707103 -0.000000
vn 1.000000 -0.000000 -0.000000
vn 0.707111 -0.707103 -0.000000
vn 1.000000 -0.000000 -0.000000
vn 0.707111 -0.707103 -0.000000
vn 0.000000 -1.000000 -0.000000
vn 0.000000 -1.000000 -0.000000
vn 0.000000 -1.000000 -0.000000
vn 0.000000 -1.000000 -0.000000
vn 0.000000 -1.000000 -0.000000
vn 0.000000 -1.000000 -0.000000
vn 0.992248 -0.000000 0.124276
vn 1.000000 0.000000 0.000000
vn 1.000000 0.000000 0.000000
vn 1.000000 0.000000 0.000000
vn 0.992248 -0.000000 0.124276
vn 0.992248 -0.000000 0.124276
vn -0.992248 -0.000000 0.124276
vn -0.992248 -0.000000 0.124276
vn -1.000000 0.000000 0.000000
vn -1.000000 0.000000 0.000000
vn -1.000000 0.000000 0.000000
vn -0.992248 -0.000000 0.124276
vn 0.000000 1.000000 0.000000
vn 0.000000 1.000000 0.000000
vn 0.000000 1.000000 0.000000
vn 0.000000 1.000000 0.000000
vn 0.000000 1.000000 0.000000
vn 0.000000 1.000000 0.000000
vn 0.000000 0.000000 -1.000000
vn 0.000000 0.000000 -1.000000
vn 0.000000 0.000000 -1.000000
vn 0.000000 0.000000 -1.000000
vn 0.000000 0.000000 -1.000000
vn 0.000000 0.000000 -1.000000
vn 0.849854 -0.000000 0.527019
vn 0.849854 -0.000000 0.527019
vn 0.470124 -0.000000 0.882600
vn 0.470124 -0.000000 0.882600
vn 0.470124 -0.000000 0.882600
vn 0.849854 -0.000000 0.527019
vn -0.845238 -0.000000 0.534390
vn -0.465344 -0.000000 0.885130
vn -0.465344 -0.000000 0.885130
vn -0.465344 -0.000000 0.885130
vn -0.845238 -0.000000 0.534390
vn -0.845238 -0.000000 0.534390
vn 0.992248 -0.000000 0.124276
vn 0.992248 -0.000000 0.124276
vn 0.849854 -0.000000 0.527019
vn 0.849854 -0.000000 0.527019
vn 0.849854 -0.000000 0.527019
vn 0.992248 -0.000000 0.124276
vn -0.992248 -0.000000 0.124276
vn -0.845238 -0.000000 0.534390
vn -0.845238 -0.000000 0.534390
vn -0.845238 -0.000000 0.534390
vn -0.992248 -0.000000 0.124276
vn -0.992248 -0.000000 0.124276
vn 0.000000 1.000000 0.000000
vn 0.000000 1.000000 0.000000
vn 0.000000 1.000000 0.000000
vn 0.000000 1.000000 0.000000
vn 0.000000 1.000000 0.000000
vn 0.000000 1.000000 0.000000
vn 0.000000 1.000000 0.000000
vn 0.000000 1.000000 0.000000
vn 0.000000 1.000000 0.000000
vn 0.000000 1.000000 0.000000
vn 0.000000 1.000000 0.000000
vn 0.000000 1.000000 0.000000
vn 0.000000 -1.000000 -0.000000
vn 0.000000 -1.000000 -0.000000
vn 0.000000 -1.000000 -0.000000
vn 0.000000 -1.000000 -0.000000
vn 0.000000 -1.000000 -0.000000
vn 0.000000 -1.000000 -0.000000
vn 0.000000 -1.000000 -0.000000
vn 0.000000 -1.000000 -0.000000
vn 0.000000 -1.000000 -0.000000
vn 0.000000 -1.000000 -0.000000
vn 0.000000 -1.000000 -0.000000
vn 0.000000 -1.000000 -0.000000
vn -0.137378 -0.000000 0.990519
vn -0.137378 -0.000000 0.990519
vn 0.134119 -0.000000 0.990965
vn 0.134119 -0.000000 0.990965
vn -0.137378 -0.000000 0.990519
vn 0.134119 -0.000000 0.990965
vn 0.470124 -0.000000 0.882600
vn 0.470124 -0.000000 0.882600
vn 0.134119 -0.000000 0.990965
vn 0.134119 -0.000000 0.990965
vn 0.134119 -0.000000 0.990965
vn 0.470124 -0.000000 0.882600
vn -0.465344 -0.000000 0.885130
vn -0.137378 -0.000000 0.990519
vn -0.137378 -0.000000 0.990519
vn -0.137378 -0.000000 0.990519
vn -0.465344 -0.000000 0.885130
vn -0.465344 -0.000000 0.885130
vn 0.000000 1.000000 0.000000
vn 0.000000 1.000000 0.000000
vn 0.000000 1.000000 0.000000
vn 0.000000 1.000000 0.000000
vn 0.000000 1.000000 0.000000
vn 0.000000 1.000000 0.000000
vn 0.000000 -1.000000 -0.000000
vn 0.000000 -1.000000 -0.000000
vn 0.000000 -1.000000 -0.000000
vn 0.000000 -1.000000 -0.000000
vn 0.000000 -1.000000 -0.000000
vn 0.000000 -1.000000 -0.000000
s off
g SM_Desk_02d
f 4/4/1 2/2/2 1/1/3
f 2/2/4 4/4/5 3/3/6
f 5/6/7 4/8/8 6/7/9
f 4/8/10 5/6/11 3/5/12
f 9/11/13 8/10/14 10/12/15
f 10/12/16 8/10/17 7/9/18
f 1/1/19 2/2/20 10/12/21
f 1/1/22 10/12/23 7/9/24
f 11/13/25 13/15/26 12/14/27
f 15/17/28 14/16/29 11/19/30
f 15/17/31 11/19/32 12/18/33
f 19/23/34 18/22/35 16/20/36
f 17/21/37 16/20/38 18/22/39
f 17/24/40 11/26/41 14/25/42
f 11/26/43 17/24/44 18/27/45
f 22/30/46 21/29/47 13/31/48
f 20/28/49 13/31/50 21/29/51
f 13/31/52 23/32/53 22/30/54
f 26/35/55 25/34/56 24/33/57
f 24/33/58 27/36/59 26/35/60
f 28/39/61 24/38/62 25/37/63
f 28/39/64 25/37/65 29/40/66
f 31/42/67 8/10/68 9/11/69
f 8/10/70 31/42/71 30/41/72
f 30/41/73 31/42/74 27/36/75
f 26/35/76 27/36/77 31/42/78
f 22/45/79 19/44/80 32/43/81
f 22/45/82 32/43/83 33/46/84
f 34/47/85 36/49/86 35/48/87
f 37/52/88 34/50/89 38/53/90
f 34/50/91 37/52/92 36/51/93
f 32/55/94 16/57/95 39/56/96
f 16/57/97 32/55/98 19/54/99
f 34/59/100 32/58/101 39/61/102
f 39/61/103 38/60/104 34/59/105
f 21/65/106 35/63/107 40/62/108
f 21/65/109 22/64/110 35/63/111
f 35/63/112 22/64/113 33/66/114
f 25/69/115 26/68/116 40/67/117
f 25/69/118 40/67/119 29/70/120
f 12/71/121 13/31/122 5/72/123
f 5/72/124 13/31/125 20/28/126
f 35/63/127 36/74/128 29/73/129
f 35/63/130 29/73/131 40/62/132
f 18/27/133 23/76/134 11/26/135
f 11/26/136 23/76/137 13/75/138
f 12/77/139 5/80/140 15/78/141
f 15/78/142 5/80/143 6/79/144
f 19/44/145 22/45/146 18/81/147
f 18/81/148 22/45/149 23/82/150
f 10/85/151 20/84/152 21/83/153
f 21/83/154 9/86/155 10/85/156
f 40/67/157 31/89/158 21/87/159
f 21/87/160 31/89/161 9/88/162
f 40/67/163 26/68/164 31/89/165
f 5/90/166 20/84/167 3/91/168
f 2/92/169 3/91/170 20/84/171
f 20/84/172 10/85/173 2/92/174
f 37/95/175 29/93/176 36/96/177
f 29/93/178 37/95/179 28/94/180
f 33/97/181 32/58/182 34/59/183
f 34/59/184 35/98/185 33/97/186
f 43/101/187 42/100/188 44/102/189
f 44/102/190 42/100/191 41/99/192
f 46/104/193 42/100/194 43/101/195
f 42/100/196 46/104/197 45/103/198
f 48/107/199 45/105/200 46/108/201
f 45/105/202 48/107/203 47/106/204
f 50/110/205 47/106/206 48/107/207
f 47/106/208 50/110/209 49/109/210
f 52/112/211 49/109/212 50/110/213
f 49/109/214 52/112/215 51/111/216
f 54/114/217 51/111/218 52/112/219
f 51/111/220 54/114/221 53/113/222
f 56/116/223 53/113/224 54/114/225
f 53/113/226 56/116/227 55/115/228
f 44/102/229 55/115/230 56/116/231
f 55/115/232 44/102/233 41/99/234
f 41/117/235 47/119/236 49/118/237
f 47/119/238 41/117/239 42/120/240
f 44/124/241 50/123/242 48/122/243
f 44/124/244 48/122/245 43/121/246
f 56/126/247 52/125/248 44/124/249
f 50/123/250 44/124/251 52/125/252
f 52/125/253 56/126/254 54/127/255
f 43/121/256 48/122/257 46/128/258
f 55/129/259 51/131/260 53/130/261
f 41/117/262 51/131/263 55/129/264
f 51/131/265 41/117/266 49/118/267
f 47/119/268 42/120/269 45/132/270
f 58/134/271 59/135/272 60/136/273
f 58/134/274 60/136/275 57/133/276
f 61/137/277 62/138/278 58/134/279
f 58/134/280 62/138/281 59/135/282
f 63/140/283 64/141/284 61/139/285
f 61/139/286 64/141/287 62/142/288
f 65/143/289 66/144/290 63/140/291
f 64/141/292 63/140/293 66/144/294
f 67/145/295 68/146/296 65/143/297
f 66/144/298 65/143/299 68/146/300
f 68/146/301 67/145/302 70/148/303
f 70/148/304 67/145/305 69/147/306
f 70/148/307 69/147/308 72/150/309
f 72/150/310 69/147/311 71/149/312
f 60/136/313 71/149/314 57/133/315
f 71/149/316 60/136/317 72/150/318
f 74/152/319 75/153/320 76/154/321
f 74/152/322 76/154/323 73/151/324
f 78/156/325 74/152/326 77/155/327
f 74/152/328 78/156/329 75/153/330
f 79/158/331 80/159/332 77/157/333
f 77/157/334 80/159/335 78/160/336
f 81/161/337 82/162/338 79/158/339
f 80/159/340 79/158/341 82/162/342
f 83/163/343 84/164/344 81/161/345
f 82/162/346 81/161/347 84/164/348
f 84/164/349 83/163/350 86/166/351
f 86/166/352 83/163/353 85/165/354
f 86/166/355 85/165/356 88/168/357
f 88/168/358 85/165/359 87/167/360
f 76/154/361 87/167/362 73/151/363
f 87/167/364 76/154/365 88/168/366
f 92/172/367 91/171/368 89/169/369
f 90/170/370 89/169/371 91/171/372
f 93/174/373 91/176/374 94/175/375
f 91/176/376 93/174/377 90/173/378
f 89/178/379 95/177/380 96/180/381
f 96/180/382 92/179/383 89/178/384
f 96/183/385 93/181/386 94/184/387
f 93/181/388 96/183/389 95/182/390
f 96/185/391 91/187/392 92/186/393
f 94/188/394 91/187/395 96/185/396
f 99/191/397 98/190/398 97/189/399
f 97/189/400 100/192/401 99/191/402
f 103/195/403 101/193/404 104/196/405
f 101/193/406 103/195/407 102/194/408
f 90/173/409 93/174/410 98/190/411
f 98/190/412 99/191/413 90/173/414
f 95/177/415 102/194/416 103/195/417
f 102/194/418 95/177/419 89/178/420
f 105/198/421 103/200/422 106/199/423
f 98/197/424 103/200/425 105/198/426
f 93/181/427 95/182/428 103/200/429
f 93/181/430 103/200/431 98/197/432
f 107/202/433 99/204/434 108/203/435
f 102/201/436 99/204/437 107/202/438
f 89/169/439 90/170/440 99/204/441
f 89/169/442 99/204/443 102/201/444
f 106/205/445 107/208/446 105/206/447
f 105/206/448 107/208/449 108/207/450
f 100/192/451 97/189/452 105/206/453
f 105/206/454 108/207/455 100/192/456
f 104/196/457 107/208/458 106/205/459
f 107/208/460 104/196/461 101/193/462
f 106/199/463 103/200/464 104/209/465
f 98/197/466 105/198/467 97/210/468
f 102/201/469 107/202/470 101/211/471
f 108/203/472 99/204/473 100/212/474
