# This file uses feet as units for non-parametric coordinates.

g default
v 6.930496 2.679459 4.807934
v 6.930496 2.679459 3.834396
v 16.141541 -24.868378 3.834396
v 16.038307 -24.701925 3.834396
v 9.506355 4.773262 4.807934
v 9.506355 4.773262 3.834396
v 10.951385 10.481422 3.834396
v 10.127617 16.453354 3.834396
v 16.038307 -24.701925 4.413277
v 8.702423 8.535633 3.834396
v 16.277451 -24.907690 3.834396
v 16.277451 -24.907690 4.413277
v 16.141541 -24.868378 4.413277
v 16.277451 21.984673 3.834396
v 10.951385 10.481422 5.780647
v 8.702423 8.535633 5.780647
v 10.127617 16.453354 7.077599
v 16.182350 -24.287958 4.413277
v 16.182350 -24.287958 4.821495
v 16.213608 -24.280222 5.365788
v 16.516586 -24.701925 3.834396
v 16.516586 -24.701925 4.413277
v 25.624397 2.679459 4.807934
v 23.048538 4.773262 4.807934
v 23.048538 4.773262 3.834396
v 25.624397 2.679459 3.834396
v 16.413353 -24.868378 3.834396
v 16.413353 -24.868378 4.413277
v 21.603508 10.481422 3.834396
v 23.852470 8.535633 3.834396
v 16.277451 21.984673 7.077599
v 22.427280 16.453354 7.077599
v 22.427280 16.453354 3.834396
v 21.603508 10.481422 5.780647
v 23.852470 8.535633 5.780647
v 16.372543 -24.287958 4.413277
v 16.277451 -24.313292 4.413277
v 16.372543 -24.287958 4.821495
v 16.277451 -24.313292 5.365788
v 16.341286 -24.280222 5.365788
v 16.837498 -13.014276 9.298640
v 16.678843 -13.014276 8.915610
v 16.295818 -13.014276 8.756955
v 15.912794 -13.014276 8.915610
v 15.754140 -13.014276 9.298640
v 15.912794 -13.014276 9.681670
v 16.295818 -13.014276 9.840327
v 16.678843 -13.014276 9.681670
v 16.837498 16.824369 9.298641
v 16.678843 16.824369 8.915611
v 16.295818 16.824368 8.756955
v 15.912794 16.824369 8.915611
v 15.754140 16.824369 9.298641
v 15.912794 16.824369 9.681671
v 16.295818 16.824368 9.840327
v 16.678843 16.824369 9.681671
v 16.577766 11.670277 6.627560
v 16.495186 11.869648 6.627560
v 16.495186 11.869650 8.889410
v 16.577766 11.670279 8.889410
v 16.295818 11.952229 6.627560
v 16.295818 11.952230 8.889410
v 16.096451 11.869648 6.627560
v 16.096451 11.869650 8.889410
v 16.013870 11.670277 6.627560
v 16.013870 11.670279 8.889410
v 16.096451 11.470909 6.627560
v 16.096451 11.470907 8.889410
v 16.295818 11.388327 6.627560
v 16.295818 11.388327 8.889410
v 16.495186 11.470909 6.627560
v 16.495186 11.470907 8.889410
v 16.570051 -11.920035 5.889453
v 16.489731 -11.726121 5.889453
v 16.489731 -11.726120 8.889410
v 16.570051 -11.920035 8.889409
v 16.295818 -11.645799 5.889453
v 16.295818 -11.645799 8.889411
v 16.101906 -11.726121 5.889453
v 16.101906 -11.726120 8.889410
v 16.021585 -11.920035 5.889453
v 16.021585 -11.920035 8.889409
v 16.101906 -12.113950 5.889453
v 16.101906 -12.113950 8.889409
v 16.295818 -12.194272 5.889453
v 16.295818 -12.194272 8.889409
v 16.489731 -12.113950 5.889453
v 16.489731 -12.113950 8.889409
v -0.000008 -32.797153 1.814648
v 1.864626 32.797157 3.814953
v 30.123629 -32.797153 3.814953
v 30.123629 32.797157 3.814953
v -0.000008 -32.797153 0.000004
v -0.000008 32.797157 0.000004
v 31.988262 -32.797153 0.000004
v 31.988262 32.797157 0.000004
v 0.945706 -32.797153 3.561577
v -0.000008 32.797157 1.814648
v 31.988262 -32.797153 1.814648
v 31.988262 32.797157 1.814648
v 0.304314 -32.797153 3.010479
v 0.304314 32.797157 3.010479
v 31.683941 -32.797153 3.010479
v 31.683941 32.797157 3.010479
v 0.945706 32.797157 3.561577
v 1.864626 -32.797153 3.814953
v 31.019508 -32.797153 3.561577
v 31.019508 32.797157 3.561577
vt 0.554615 0.278272
vt 0.557793 0.278272
vt 0.559960 0.436699
vt 0.554615 0.436699
vt 0.554615 0.277197
vt 0.554615 0.276420
vt 0.503461 0.988270
vt 0.482339 0.993612
vt 0.289603 0.580578
vt 0.289603 0.564251
vt 0.363925 0.866342
vt 0.318514 0.866342
vt 0.190211 0.993088
vt 0.557793 0.276420
vt 0.557793 0.277197
vt 0.258130 0.683322
vt 0.259438 0.681302
vt 0.190751 0.993093
vt 0.300288 0.564251
vt 0.300288 0.580578
vt 0.536648 0.987731
vt 0.318514 0.848536
vt 0.363925 0.848536
vt 0.190698 0.998322
vt 0.983451 0.039047
vt 0.511249 0.950087
vt 0.554615 0.116141
vt 0.559960 0.116141
vt 0.557793 0.274568
vt 0.660619 0.111849
vt 0.660619 0.106505
vt 0.554615 0.274568
vt 0.554615 0.275643
vt 0.557793 0.275643
vt 0.000500 0.602798
vt 0.193549 0.607663
vt 0.575760 0.570118
vt 0.559433 0.570118
vt 0.432687 0.636527
vt 0.432687 0.681939
vt 0.414881 0.681939
vt 0.414881 0.636527
vt 0.190188 0.995328
vt 0.559433 0.559433
vt 0.575760 0.559433
vt 0.272340 0.839217
vt 0.190303 0.998320
vt 0.544978 0.358854
vt 0.008873 0.616815
vt 0.547218 0.358832
vt 0.763177 0.985161
vt 0.530283 0.129053
vt 0.785641 0.451885
vt 0.762949 0.985483
vt 0.545965 0.920812
vt 0.763046 0.984789
vt 0.752544 0.451885
vt 0.752528 0.441124
vt 0.497154 0.122084
vt 0.497169 0.111323
vt 0.530267 0.111323
vt 0.304103 0.121722
vt 0.304058 0.118729
vt 0.785657 0.434155
vt 0.559433 0.444479
vt 0.559478 0.441486
vt 0.255875 0.847027
vt 0.427674 0.910998
vt 0.427942 0.911468
vt 0.424917 0.912495
vt 0.424518 0.911828
vt 0.259104 0.680279
vt 0.591583 0.906357
vt 0.584061 0.922957
vt 0.425945 0.912811
vt 0.545504 0.106505
vt 0.545504 0.124729
vt 0.540159 0.124729
vt 0.540160 0.106505
vt 0.550209 0.358947
vt 0.005318 0.998797
vt 0.026490 0.993655
vt 0.545545 0.195133
vt 0.550687 0.173962
vt 0.737713 0.993612
vt 0.758836 0.998955
vt 0.737713 0.988270
vt 0.758836 0.988270
vt 0.503461 0.998955
vt 0.482339 0.998955
vt 0.997468 0.047421
vt 0.988315 0.232096
vt 0.678844 0.106505
vt 0.678844 0.111849
vt 0.257656 0.683063
vt 0.258431 0.679893
vt 0.544983 0.359395
vt 0.550212 0.359342
vt 1.554615 0.278272
vt 1.557793 0.278272
vt 1.559960 0.436699
vt 1.554615 0.436699
vt 1.545504 0.106505
vt 1.545504 0.124729
vt 1.540159 0.124729
vt 1.540159 0.106505
vt 1.554615 0.277197
vt 1.554615 0.276420
vt 1.557793 0.276420
vt 1.557793 0.277197
vt 1.983451 0.039047
vt 1.997468 0.047421
vt 1.988315 0.232096
vt 1.289603 0.580578
vt 1.289603 0.564251
vt 1.300288 0.564251
vt 1.300288 0.580578
vt 1.363925 0.866342
vt 1.318514 0.866342
vt 1.318514 0.848536
vt 1.363925 0.848536
vt 1.785641 0.451885
vt 1.752544 0.451885
vt 1.752528 0.441124
vt 1.785657 0.434155
vt 1.190211 0.993088
vt 1.190751 0.993093
vt 1.190698 0.998322
vt 1.190188 0.995328
vt 1.190303 0.998320
vt 1.554615 0.116141
vt 1.559960 0.116141
vt 1.557793 0.274568
vt 1.554615 0.274568
vt 1.660619 0.111849
vt 1.660619 0.106505
vt 1.678844 0.106505
vt 1.678844 0.111849
vt 1.554615 0.275643
vt 1.557793 0.275643
vt 1.536648 0.987731
vt 1.511249 0.950087
vt 1.763177 0.985161
vt 1.762949 0.985483
vt 1.000500 0.602798
vt 1.193549 0.607663
vt 1.008873 0.616815
vt 1.575760 0.570118
vt 1.559433 0.570118
vt 1.559433 0.559433
vt 1.575760 0.559433
vt 1.432687 0.636527
vt 1.432687 0.681939
vt 1.414881 0.681939
vt 1.414881 0.636527
vt 1.530283 0.129053
vt 1.497154 0.122084
vt 1.497169 0.111323
vt 1.530267 0.111323
vt 1.544978 0.358854
vt 1.547218 0.358832
vt 1.550212 0.359342
vt 1.544983 0.359395
vt 1.550209 0.358947
vt 1.258130 0.683322
vt 1.259438 0.681302
vt 1.272340 0.839217
vt 1.255875 0.847027
vt 1.005318 0.998797
vt 1.026490 0.993655
vt 1.545545 0.195133
vt 1.550687 0.173962
vt 1.559433 0.444479
vt 1.559478 0.441486
vt 1.503461 0.988270
vt 1.503461 0.998955
vt 1.482339 0.998955
vt 1.482339 0.993612
vt 1.545965 0.920812
vt 1.763046 0.984789
vt 1.427674 0.910998
vt 1.427942 0.911468
vt 1.424917 0.912495
vt 1.424518 0.911828
vt 1.257656 0.683063
vt 1.258431 0.679893
vt 1.259104 0.680279
vt 1.591583 0.906357
vt 1.584061 0.922957
vt 1.425945 0.912811
vt 1.737713 0.993612
vt 1.737713 0.988270
vt 1.758836 0.988270
vt 1.758836 0.998955
vt 1.304103 0.121722
vt 1.304058 0.118729
vt 0.265668 0.889140
vt 0.733064 0.116141
vt 0.255875 0.885184
vt 0.258708 0.882300
vt 0.265633 0.885098
vt 0.262835 0.892023
vt 0.258793 0.892059
vt 0.255910 0.889225
vt 0.518209 0.978754
vt 0.511284 0.975956
vt 0.511249 0.971914
vt 0.521043 0.975871
vt 0.514082 0.969031
vt 0.521007 0.971829
vt 0.518124 0.968996
vt 0.514167 0.978789
vt 0.262750 0.882265
vt 0.737108 0.116141
vt 0.737108 0.407061
vt 0.733064 0.407061
vt 0.741150 0.116141
vt 0.741150 0.407061
vt 0.712846 0.116141
vt 0.712846 0.407061
vt 0.716889 0.116141
vt 0.716889 0.407061
vt 0.720933 0.116141
vt 0.720933 0.407061
vt 0.724977 0.116141
vt 0.724977 0.407061
vt 0.729021 0.116141
vt 0.729021 0.407061
vt 0.708803 0.116141
vt 0.708803 0.407061
vt 1.733064 0.116141
vt 1.737108 0.116141
vt 1.737108 0.407061
vt 1.733064 0.407061
vt 1.741150 0.116141
vt 1.741150 0.407061
vt 1.708803 0.116141
vt 1.712846 0.116141
vt 1.712846 0.407061
vt 1.708803 0.407061
vt 1.716889 0.116141
vt 1.716889 0.407061
vt 1.720932 0.116141
vt 1.720932 0.407061
vt 1.724977 0.116141
vt 1.724977 0.407061
vt 1.729021 0.116141
vt 1.729021 0.407061
vt 1.265668 0.889140
vt 1.255875 0.885184
vt 1.258708 0.882300
vt 1.265633 0.885098
vt 1.518209 0.978754
vt 1.511284 0.975956
vt 1.511249 0.971914
vt 1.521043 0.975871
vt 1.514082 0.969031
vt 1.521007 0.971829
vt 1.518124 0.968996
vt 1.514167 0.978789
vt 1.262835 0.892023
vt 1.258793 0.892059
vt 1.255910 0.889225
vt 1.262750 0.882265
vt 1.733064 0.116141
vt 1.737108 0.116141
vt 1.737108 0.407061
vt 1.733064 0.407061
vt 1.741150 0.116141
vt 1.741150 0.407061
vt 1.708803 0.116141
vt 1.712846 0.116141
vt 1.712846 0.407061
vt 1.708803 0.407061
vt 1.716889 0.116141
vt 1.716889 0.407061
vt 1.720932 0.116141
vt 1.720932 0.407061
vt 1.724977 0.116141
vt 1.724977 0.407061
vt 1.729021 0.116141
vt 1.729021 0.407061
vt 1.733064 0.116141
vt 1.737108 0.116141
vt 1.737108 0.407061
vt 1.733064 0.407061
vt 1.741150 0.116141
vt 1.741150 0.407061
vt 1.708803 0.116141
vt 1.712846 0.116141
vt 1.712846 0.407061
vt 1.708803 0.407061
vt 1.716889 0.116141
vt 1.716889 0.407061
vt 1.720932 0.116141
vt 1.720932 0.407061
vt 1.724977 0.116141
vt 1.724977 0.407061
vt 1.729021 0.116141
vt 1.729021 0.407061
vt 1.733064 0.116141
vt 1.737108 0.116141
vt 1.737108 0.407061
vt 1.733064 0.407061
vt 1.741150 0.116141
vt 1.741150 0.407061
vt 1.708803 0.116141
vt 1.712846 0.116141
vt 1.712846 0.407061
vt 1.708803 0.407061
vt 1.716889 0.116141
vt 1.716889 0.407061
vt 1.720932 0.116141
vt 1.720932 0.407061
vt 1.724977 0.116141
vt 1.724977 0.407061
vt 1.729021 0.116141
vt 1.729021 0.407061
vt 1.733064 0.116141
vt 1.737108 0.116141
vt 1.737108 0.407061
vt 1.733064 0.407061
vt 1.741150 0.116141
vt 1.741150 0.407061
vt 1.708803 0.116141
vt 1.712846 0.116141
vt 1.712846 0.407061
vt 1.708803 0.407061
vt 1.716889 0.116141
vt 1.716889 0.407061
vt 1.720932 0.116141
vt 1.720932 0.407061
vt 1.724977 0.116141
vt 1.724977 0.407061
vt 1.729021 0.116141
vt 1.729021 0.407061
vt 1.265668 0.889140
vt 1.733064 0.116141
vt 1.255875 0.885184
vt 1.258708 0.882300
vt 1.265633 0.885098
vt 1.262835 0.892023
vt 1.258793 0.892059
vt 1.255910 0.889225
vt 1.518209 0.978754
vt 1.511284 0.975956
vt 1.511249 0.971914
vt 1.521043 0.975871
vt 1.514082 0.969031
vt 1.521007 0.971829
vt 1.518124 0.968996
vt 1.514167 0.978789
vt 1.262750 0.882265
vt 1.737108 0.116141
vt 1.737108 0.407061
vt 1.733064 0.407061
vt 1.741150 0.116141
vt 1.741150 0.407061
vt 1.712846 0.116141
vt 1.712846 0.407061
vt 1.716889 0.116141
vt 1.716889 0.407061
vt 1.720932 0.116141
vt 1.720932 0.407061
vt 1.724977 0.116141
vt 1.724977 0.407061
vt 1.729021 0.116141
vt 1.729021 0.407061
vt 1.708803 0.116141
vt 1.708803 0.407061
vt 1.733064 0.116141
vt 1.737108 0.116141
vt 1.737108 0.407061
vt 1.733064 0.407061
vt 1.741150 0.116141
vt 1.741150 0.407061
vt 1.708803 0.116141
vt 1.712846 0.116141
vt 1.712846 0.407061
vt 1.708803 0.407061
vt 1.716889 0.116141
vt 1.716889 0.407061
vt 1.720932 0.116141
vt 1.720932 0.407061
vt 1.724977 0.116141
vt 1.724977 0.407061
vt 1.729021 0.116141
vt 1.729021 0.407061
vt 1.733064 0.116141
vt 1.737108 0.116141
vt 1.737108 0.407061
vt 1.733064 0.407061
vt 1.741150 0.116141
vt 1.741150 0.407061
vt 1.708803 0.116141
vt 1.712846 0.116141
vt 1.712846 0.407061
vt 1.708803 0.407061
vt 1.716889 0.116141
vt 1.716889 0.407061
vt 1.720932 0.116141
vt 1.720932 0.407061
vt 1.724977 0.116141
vt 1.724977 0.407061
vt 1.729021 0.116141
vt 1.729021 0.407061
vt 0.087231 0.124253
vt 0.231445 0.123947
vt 0.139896 0.124253
vt 0.178780 0.123947
vt 0.139896 0.127241
vt 0.087231 0.127241
vt 0.178780 0.120960
vt 0.231445 0.120960
vt 0.536633 0.792385
vt 0.536633 0.641346
vt 0.540811 0.641346
vt 0.540811 0.792385
vt 0.087732 0.122284
vt 0.230944 0.125916
vt 0.090301 0.120960
vt 0.228375 0.127241
vt 0.136826 0.120960
vt 0.181850 0.127241
vt 0.139395 0.122284
vt 0.179281 0.125916
vt 0.457607 0.641346
vt 0.457607 0.792385
vt 0.453428 0.792385
vt 0.453428 0.641346
vt 0.531845 0.641346
vt 0.533792 0.641346
vt 0.533792 0.792385
vt 0.531845 0.792385
vt 0.462436 0.792385
vt 0.460448 0.792385
vt 0.460448 0.641346
vt 0.462436 0.641346
vt 0.464580 0.641346
vt 0.529650 0.641346
vt 0.529650 0.792385
vt 0.464580 0.792385
vt 0.638516 0.891565
vt 0.530523 0.891565
vt 0.530523 0.838899
vt 0.638516 0.838900
vt 0.180375 0.126823
vt 0.229888 0.126824
vt 0.088826 0.121377
vt 0.138339 0.121377
vt 1.087231 0.124253
vt 1.139896 0.124253
vt 1.139896 0.127241
vt 1.087231 0.127241
vt 1.536633 0.792385
vt 1.536633 0.641346
vt 1.540811 0.641346
vt 1.540811 0.792385
vt 1.457607 0.641346
vt 1.457607 0.792385
vt 1.453429 0.792385
vt 1.453429 0.641346
vt 1.231445 0.123947
vt 1.178780 0.123947
vt 1.178780 0.120960
vt 1.231445 0.120960
vt 1.638516 0.891565
vt 1.530523 0.891565
vt 1.530523 0.838899
vt 1.638516 0.838900
vt 1.531845 0.641346
vt 1.533792 0.641346
vt 1.533792 0.792385
vt 1.531845 0.792385
vt 1.462436 0.792385
vt 1.460448 0.792385
vt 1.460448 0.641346
vt 1.462436 0.641346
vt 1.230944 0.125916
vt 1.228375 0.127241
vt 1.181850 0.127241
vt 1.179281 0.125916
vt 1.087732 0.122284
vt 1.090301 0.120960
vt 1.136826 0.120960
vt 1.139395 0.122284
vt 1.464580 0.641346
vt 1.529650 0.641346
vt 1.529650 0.792385
vt 1.464580 0.792385
vt 1.180375 0.126823
vt 1.229888 0.126824
vt 1.088826 0.121377
vt 1.138339 0.121377
vn -0.948884 -0.315625 -0.000000
vn -0.905764 -0.423783 -0.000000
vn -0.948884 -0.315625 -0.000000
vn -0.905764 -0.423783 -0.000000
vn -0.948884 -0.315625 -0.000000
vn -0.905548 -0.424244 -0.000000
vn -0.630759 0.775979 0.000000
vn -0.630759 0.775979 0.000000
vn -0.630759 0.775979 0.000000
vn -0.630759 0.775979 0.000000
vn -0.630759 0.775979 0.000000
vn -0.630759 0.775979 0.000000
vn -0.604082 -0.796922 -0.000000
vn 0.000007 -1.000000 -0.000000
vn 0.000007 -1.000000 -0.000000
vn 0.000007 -1.000000 -0.000000
vn -0.604082 -0.796922 -0.000000
vn -0.604082 -0.796922 -0.000000
vn -0.604082 -0.796922 -0.000000
vn -0.604082 -0.796922 -0.000000
vn -0.905548 -0.424244 -0.000000
vn -0.905764 -0.423783 -0.000000
vn -0.905548 -0.424244 -0.000000
vn -0.604082 -0.796922 -0.000000
vn 0.021107 -0.024396 0.999480
vn 0.021107 -0.024396 0.999479
vn 0.021107 -0.024396 0.999480
vn -0.654294 0.756240 0.000000
vn -0.654294 0.756240 0.000000
vn -0.654294 0.756240 0.000000
vn -0.654294 0.756240 0.000000
vn -0.654294 0.756240 0.000000
vn -0.654294 0.756240 0.000000
vn -0.668729 0.743506 0.000000
vn -0.668729 0.743506 0.000000
vn -0.668729 0.743506 0.000000
vn -0.668729 0.743506 0.000000
vn -0.668729 0.743506 0.000000
vn -0.668729 0.743506 0.000000
vn -0.990620 -0.136646 -0.000000
vn -0.988637 -0.145117 0.039211
vn -0.990383 -0.138178 0.007014
vn -0.988637 -0.145117 0.039211
vn -0.990620 -0.136646 -0.000000
vn -0.990620 -0.136646 -0.000000
vn 0.000010 -1.000000 -0.000000
vn -0.580630 -0.813972 0.017828
vn -0.717035 -0.696599 0.024716
vn 0.000010 -1.000000 -0.000000
vn 0.000024 -0.999257 0.038550
vn -0.580630 -0.813972 0.017828
vn -0.580630 -0.813972 0.017828
vn 0.000024 -0.999257 0.038550
vn -0.459594 -0.887272 0.039005
vn 0.948884 -0.315625 -0.000000
vn 0.905764 -0.423783 -0.000000
vn 0.948884 -0.315625 -0.000000
vn 0.948884 -0.315625 -0.000000
vn 0.905764 -0.423783 -0.000000
vn 0.905548 -0.424244 -0.000000
vn 0.630759 0.775979 0.000000
vn 0.630759 0.775979 0.000000
vn 0.630759 0.775979 0.000000
vn 0.630759 0.775979 0.000000
vn 0.630759 0.775979 0.000000
vn 0.630759 0.775979 0.000000
vn 0.000007 -1.000000 -0.000000
vn 0.604088 -0.796918 -0.000000
vn 0.000007 -1.000000 -0.000000
vn 0.604088 -0.796918 -0.000000
vn 0.000007 -1.000000 -0.000000
vn 0.604088 -0.796918 -0.000000
vn 0.905548 -0.424244 -0.000000
vn 0.905764 -0.423783 -0.000000
vn 0.604088 -0.796918 -0.000000
vn 0.905548 -0.424244 -0.000000
vn 0.604088 -0.796918 -0.000000
vn 0.604088 -0.796918 -0.000000
vn -0.000000 -0.037020 0.999315
vn 0.000001 -0.037020 0.999315
vn -0.032740 -0.037000 0.998779
vn -0.032740 -0.037000 0.998779
vn 0.000001 -0.037020 0.999315
vn -0.032740 -0.037000 0.998779
vn -0.021107 -0.024396 0.999480
vn -0.021107 -0.024396 0.999480
vn -0.021107 -0.024396 0.999479
vn 0.654294 0.756240 0.000000
vn 0.654294 0.756240 0.000000
vn 0.654294 0.756240 0.000000
vn 0.654294 0.756240 0.000000
vn 0.654294 0.756240 0.000000
vn 0.654294 0.756240 0.000000
vn 0.668729 0.743506 0.000000
vn 0.668729 0.743506 0.000000
vn 0.668729 0.743506 0.000000
vn 0.668729 0.743506 0.000000
vn 0.668729 0.743506 0.000000
vn 0.668729 0.743506 0.000000
vn 0.990383 -0.138178 0.007013
vn 0.988637 -0.145118 0.039210
vn 0.990620 -0.136647 -0.000000
vn 0.990620 -0.136647 -0.000000
vn 0.988637 -0.145118 0.039210
vn 0.990620 -0.136647 -0.000000
vn 0.000024 -0.999257 0.038550
vn 0.000010 -1.000000 -0.000000
vn 0.580642 -0.813964 0.017828
vn 0.717042 -0.696591 0.024716
vn 0.580642 -0.813964 0.017828
vn 0.000010 -1.000000 -0.000000
vn 0.580642 -0.813964 0.017828
vn 0.459637 -0.887250 0.039007
vn 0.000024 -0.999257 0.038550
vn -0.010250 -0.011117 0.999886
vn -0.006259 -0.006789 0.999957
vn -0.010250 -0.011117 0.999886
vn -0.002313 -0.002508 0.999994
vn -0.010250 -0.011117 0.999886
vn -0.006259 -0.006789 0.999957
vn -0.580630 -0.813972 0.017828
vn -0.973738 -0.223669 0.042512
vn -0.973738 -0.223669 0.042512
vn -0.973738 -0.223669 0.042512
vn -0.717035 -0.696599 0.024716
vn -0.580630 -0.813972 0.017828
vn 0.973738 -0.223669 0.042512
vn 0.580642 -0.813964 0.017828
vn 0.973738 -0.223669 0.042512
vn 0.580642 -0.813964 0.017828
vn 0.717042 -0.696591 0.024716
vn 0.973738 -0.223669 0.042512
vn -0.986671 -0.150112 0.062823
vn -0.988637 -0.145117 0.039211
vn -0.986671 -0.150112 0.062823
vn -0.986671 -0.150112 0.062823
vn -0.990383 -0.138178 0.007014
vn -0.988637 -0.145117 0.039211
vn -0.977924 -0.208960 -0.000000
vn -0.977924 -0.208960 -0.000000
vn -0.977924 -0.208960 -0.000000
vn -0.977924 -0.208960 -0.000000
vn -0.977924 -0.208960 -0.000000
vn -0.977924 -0.208960 -0.000000
vn 0.000001 -0.037020 0.999315
vn -0.000000 -0.037020 0.999315
vn 0.032740 -0.037000 0.998779
vn 0.000001 -0.037020 0.999315
vn 0.032740 -0.037000 0.998779
vn 0.032740 -0.037000 0.998779
vn 0.006259 -0.006789 0.999957
vn 0.000000 -0.000000 1.000000
vn 0.000000 -0.000000 1.000000
vn 0.000000 -0.000000 1.000000
vn 0.000000 -0.000000 1.000000
vn 0.000000 -0.000000 1.000000
vn 0.000000 -0.000000 1.000000
vn -0.006259 -0.006789 0.999957
vn 0.000000 -0.000000 1.000000
vn 0.000000 -0.000000 1.000000
vn 0.000000 -0.000000 1.000000
vn 0.000000 -0.000000 1.000000
vn -0.006259 -0.006789 0.999957
vn 0.000000 -0.000000 1.000000
vn -0.002313 -0.002508 0.999994
vn 0.010250 -0.011117 0.999886
vn 0.002313 -0.002508 0.999994
vn 0.006259 -0.006789 0.999957
vn 0.010250 -0.011117 0.999886
vn 0.006259 -0.006789 0.999957
vn 0.010250 -0.011117 0.999886
vn 0.006259 -0.006789 0.999957
vn 0.002313 -0.002508 0.999994
vn 0.000000 -0.000000 1.000000
vn 0.977924 -0.208960 -0.000000
vn 0.977924 -0.208960 -0.000000
vn 0.977924 -0.208960 -0.000000
vn 0.977924 -0.208960 -0.000000
vn 0.977924 -0.208960 -0.000000
vn 0.977924 -0.208960 -0.000000
vn 0.986671 -0.150112 0.062821
vn 0.988637 -0.145118 0.039210
vn 0.986671 -0.150112 0.062821
vn 0.990383 -0.138178 0.007013
vn 0.986671 -0.150112 0.062821
vn 0.988637 -0.145118 0.039210
vn 1.000000 0.000000 0.000000
vn 0.707110 -0.000000 -0.707103
vn 0.707110 -0.000000 -0.707103
vn 0.707110 -0.000000 -0.707103
vn 1.000000 0.000000 0.000000
vn 1.000000 0.000000 0.000000
vn 0.707110 -0.000000 -0.707103
vn 0.707110 -0.000000 -0.707103
vn -0.000000 -0.000000 -1.000000
vn -0.000000 -0.000000 -1.000000
vn 0.707110 -0.000000 -0.707103
vn -0.000000 -0.000000 -1.000000
vn -0.000000 -0.000000 -1.000000
vn -0.000000 -0.000000 -1.000000
vn -0.707110 -0.000000 -0.707103
vn -0.707110 -0.000000 -0.707103
vn -0.000000 -0.000000 -1.000000
vn -0.707110 -0.000000 -0.707103
vn -0.707110 -0.000000 -0.707103
vn -0.707110 -0.000000 -0.707103
vn -1.000000 0.000000 0.000000
vn -1.000000 0.000000 0.000000
vn -0.707110 -0.000000 -0.707103
vn -1.000000 0.000000 0.000000
vn -1.000000 0.000000 0.000000
vn -1.000000 0.000000 0.000000
vn -0.707110 0.000000 0.707104
vn -0.707110 0.000000 0.707104
vn -1.000000 0.000000 0.000000
vn -0.707110 0.000000 0.707104
vn -0.707110 0.000000 0.707104
vn -0.707110 0.000000 0.707104
vn -0.000000 0.000000 1.000000
vn -0.000000 0.000000 1.000000
vn -0.707110 0.000000 0.707104
vn -0.000000 0.000000 1.000000
vn -0.000000 0.000000 1.000000
vn -0.000000 0.000000 1.000000
vn 0.707110 0.000000 0.707104
vn 0.707110 0.000000 0.707104
vn -0.000000 0.000000 1.000000
vn 0.707110 0.000000 0.707104
vn 0.707110 0.000000 0.707104
vn 1.000000 0.000000 0.000000
vn 1.000000 0.000000 0.000000
vn 1.000000 0.000000 0.000000
vn 0.707110 0.000000 0.707104
vn 0.707110 0.000000 0.707104
vn 0.000000 -1.000000 -0.000000
vn 0.000000 -1.000000 -0.000000
vn 0.000000 -1.000000 -0.000000
vn 0.000000 -1.000000 -0.000000
vn 0.000000 -1.000000 -0.000000
vn 0.000000 -1.000000 -0.000000
vn 0.000000 1.000000 0.000000
vn 0.000000 1.000000 0.000000
vn 0.000000 1.000000 0.000000
vn 0.000000 1.000000 0.000000
vn 0.000000 1.000000 0.000000
vn 0.000000 1.000000 0.000000
vn 0.000000 1.000000 0.000000
vn 0.000000 1.000000 0.000000
vn 0.000000 1.000000 0.000000
vn 0.000000 1.000000 0.000000
vn 0.000000 1.000000 0.000000
vn 0.000000 1.000000 0.000000
vn 0.000000 1.000000 0.000000
vn 0.000000 1.000000 0.000000
vn 0.000000 1.000000 0.000000
vn 0.000000 1.000000 0.000000
vn 0.000000 1.000000 0.000000
vn 0.000000 1.000000 0.000000
vn 0.000000 -1.000000 -0.000000
vn 0.000000 -1.000000 -0.000000
vn 0.000000 -1.000000 -0.000000
vn 0.000000 -1.000000 -0.000000
vn 0.000000 -1.000000 -0.000000
vn 0.000000 -1.000000 -0.000000
vn 0.000000 -1.000000 -0.000000
vn 0.000000 -1.000000 -0.000000
vn 0.000000 -1.000000 -0.000000
vn 0.000000 -1.000000 -0.000000
vn 0.000000 -1.000000 -0.000000
vn 0.000000 -1.000000 -0.000000
vn 0.707109 0.707104 -0.000000
vn 0.707109 0.707105 -0.000000
vn 1.000000 -0.000001 -0.000000
vn 0.707109 0.707104 -0.000000
vn 1.000000 -0.000001 -0.000000
vn 1.000000 -0.000001 -0.000000
vn -0.000000 1.000000 -0.000001
vn -0.000000 1.000000 -0.000001
vn 0.707109 0.707104 -0.000000
vn 0.707109 0.707104 -0.000000
vn -0.000000 1.000000 -0.000001
vn 0.707109 0.707105 -0.000000
vn -0.707109 0.707104 -0.000000
vn -0.707109 0.707105 -0.000000
vn -0.000000 1.000000 -0.000001
vn -0.000000 1.000000 -0.000001
vn -0.707109 0.707105 -0.000000
vn -0.000000 1.000000 -0.000001
vn -1.000000 -0.000001 -0.000000
vn -1.000000 -0.000001 -0.000000
vn -0.707109 0.707104 -0.000000
vn -0.707109 0.707105 -0.000000
vn -0.707109 0.707104 -0.000000
vn -1.000000 -0.000001 -0.000000
vn -0.707109 -0.707104 -0.000000
vn -0.707109 -0.707104 -0.000000
vn -1.000000 -0.000001 -0.000000
vn -1.000000 -0.000001 -0.000000
vn -1.000000 -0.000001 -0.000000
vn -0.707109 -0.707104 -0.000000
vn -0.707109 -0.707104 -0.000000
vn -0.707109 -0.707104 -0.000000
vn -0.000000 -1.000000 -0.000000
vn -0.000000 -1.000000 -0.000000
vn -0.707109 -0.707104 -0.000000
vn -0.000000 -1.000000 -0.000000
vn -0.000000 -1.000000 -0.000000
vn -0.000000 -1.000000 -0.000000
vn 0.707109 -0.707105 -0.000000
vn 0.707109 -0.707105 -0.000000
vn -0.000000 -1.000000 -0.000000
vn 0.707109 -0.707105 -0.000000
vn 1.000000 -0.000001 -0.000000
vn 0.707109 -0.707105 -0.000000
vn 1.000000 -0.000001 -0.000000
vn 0.707109 -0.707105 -0.000000
vn 1.000000 -0.000001 -0.000000
vn 0.707109 -0.707105 -0.000000
vn 0.707110 0.707104 -0.000000
vn 0.707110 0.707104 -0.000000
vn 1.000000 -0.000000 -0.000000
vn 0.707110 0.707104 -0.000000
vn 1.000000 -0.000000 -0.000000
vn 1.000000 -0.000000 -0.000000
vn 0.000000 1.000000 -0.000000
vn 0.000000 1.000000 -0.000000
vn 0.707110 0.707104 -0.000000
vn 0.707110 0.707104 -0.000000
vn 0.000000 1.000000 -0.000000
vn 0.707110 0.707104 -0.000000
vn -0.707110 0.707104 -0.000000
vn -0.707110 0.707104 -0.000000
vn 0.000000 1.000000 -0.000000
vn 0.000000 1.000000 -0.000000
vn -0.707110 0.707104 -0.000000
vn 0.000000 1.000000 -0.000000
vn -1.000000 -0.000000 -0.000000
vn -1.000000 -0.000000 -0.000000
vn -0.707110 0.707104 -0.000000
vn -0.707110 0.707104 -0.000000
vn -0.707110 0.707104 -0.000000
vn -1.000000 -0.000000 -0.000000
vn -0.707110 -0.707104 -0.000000
vn -0.707110 -0.707104 -0.000000
vn -1.000000 -0.000000 -0.000000
vn -1.000000 -0.000000 -0.000000
vn -1.000000 -0.000000 -0.000000
vn -0.707110 -0.707104 -0.000000
vn -0.707110 -0.707104 -0.000000
vn -0.707110 -0.707104 -0.000000
vn -0.000000 -1.000000 -0.000000
vn -0.000000 -1.000000 -0.000000
vn -0.707110 -0.707104 -0.000000
vn -0.000000 -1.000000 -0.000000
vn -0.000000 -1.000000 -0.000000
vn -0.000000 -1.000000 -0.000000
vn 0.707110 -0.707104 -0.000000
vn 0.707110 -0.707104 -0.000000
vn -0.000000 -1.000000 -0.000000
vn 0.707110 -0.707104 -0.000000
vn 1.000000 -0.000000 -0.000000
vn 0.707110 -0.707104 -0.000000
vn 1.000000 -0.000000 -0.000000
vn 0.707110 -0.707104 -0.000000
vn 1.000000 -0.000000 -0.000000
vn 0.707110 -0.707104 -0.000000
vn 0.000000 -1.000000 -0.000000
vn 0.000000 -1.000000 -0.000000
vn 0.000000 -1.000000 -0.000000
vn 0.000000 -1.000000 -0.000000
vn 0.000000 -1.000000 -0.000000
vn 0.000000 -1.000000 -0.000000
vn -1.000000 0.000000 0.000000
vn -1.000000 0.000000 0.000000
vn -0.992248 -0.000000 0.124276
vn -0.992248 -0.000000 0.124276
vn -1.000000 0.000000 0.000000
vn -0.992248 -0.000000 0.124276
vn 0.992248 -0.000000 0.124276
vn 0.992248 -0.000000 0.124276
vn 1.000000 0.000000 0.000000
vn 1.000000 0.000000 0.000000
vn 0.992248 -0.000000 0.124276
vn 1.000000 0.000000 0.000000
vn 0.000000 1.000000 0.000000
vn 0.000000 1.000000 0.000000
vn 0.000000 1.000000 0.000000
vn 0.000000 1.000000 0.000000
vn 0.000000 1.000000 0.000000
vn 0.000000 1.000000 0.000000
vn 0.000000 0.000000 -1.000000
vn 0.000000 0.000000 -1.000000
vn 0.000000 0.000000 -1.000000
vn 0.000000 0.000000 -1.000000
vn 0.000000 0.000000 -1.000000
vn 0.000000 0.000000 -1.000000
vn -0.849856 -0.000000 0.527015
vn -0.470127 -0.000000 0.882599
vn -0.849856 -0.000000 0.527015
vn -0.470127 -0.000000 0.882599
vn -0.849856 -0.000000 0.527015
vn -0.470127 -0.000000 0.882599
vn 0.465347 -0.000000 0.885128
vn 0.465347 -0.000000 0.885128
vn 0.845240 -0.000000 0.534387
vn 0.845240 -0.000000 0.534387
vn 0.465347 -0.000000 0.885128
vn 0.845240 -0.000000 0.534387
vn -0.992248 -0.000000 0.124276
vn -0.992248 -0.000000 0.124276
vn -0.849856 -0.000000 0.527015
vn -0.849856 -0.000000 0.527015
vn -0.992248 -0.000000 0.124276
vn -0.849856 -0.000000 0.527015
vn 0.845240 -0.000000 0.534387
vn 0.845240 -0.000000 0.534387
vn 0.992248 -0.000000 0.124276
vn 0.992248 -0.000000 0.124276
vn 0.845240 -0.000000 0.534387
vn 0.992248 -0.000000 0.124276
vn 0.000000 1.000000 0.000000
vn 0.000000 1.000000 0.000000
vn 0.000000 1.000000 0.000000
vn 0.000000 1.000000 0.000000
vn 0.000000 1.000000 0.000000
vn 0.000000 1.000000 0.000000
vn 0.000000 1.000000 0.000000
vn 0.000000 1.000000 0.000000
vn 0.000000 1.000000 0.000000
vn 0.000000 1.000000 0.000000
vn 0.000000 1.000000 0.000000
vn 0.000000 1.000000 0.000000
vn 0.000000 -1.000000 -0.000000
vn 0.000000 -1.000000 -0.000000
vn 0.000000 -1.000000 -0.000000
vn 0.000000 -1.000000 -0.000000
vn 0.000000 -1.000000 -0.000000
vn 0.000000 -1.000000 -0.000000
vn 0.000000 -1.000000 -0.000000
vn 0.000000 -1.000000 -0.000000
vn 0.000000 -1.000000 -0.000000
vn 0.000000 -1.000000 -0.000000
vn 0.000000 -1.000000 -0.000000
vn 0.000000 -1.000000 -0.000000
vn 0.137377 -0.000000 0.990519
vn 0.137377 -0.000000 0.990519
vn -0.134118 -0.000000 0.990965
vn -0.134118 -0.000000 0.990965
vn -0.134118 -0.000000 0.990965
vn 0.137377 -0.000000 0.990519
vn -0.470127 -0.000000 0.882599
vn -0.134118 -0.000000 0.990965
vn -0.470127 -0.000000 0.882599
vn -0.134118 -0.000000 0.990965
vn -0.470127 -0.000000 0.882599
vn -0.134118 -0.000000 0.990965
vn 0.137377 -0.000000 0.990519
vn 0.137377 -0.000000 0.990519
vn 0.465347 -0.000000 0.885128
vn 0.465347 -0.000000 0.885128
vn 0.137377 -0.000000 0.990519
vn 0.465347 -0.000000 0.885128
vn 0.000000 1.000000 0.000000
vn 0.000000 1.000000 0.000000
vn 0.000000 1.000000 0.000000
vn 0.000000 1.000000 0.000000
vn 0.000000 1.000000 0.000000
vn 0.000000 1.000000 0.000000
vn 0.000000 -1.000000 -0.000000
vn 0.000000 -1.000000 -0.000000
vn 0.000000 -1.000000 -0.000000
vn 0.000000 -1.000000 -0.000000
vn 0.000000 -1.000000 -0.000000
vn 0.000000 -1.000000 -0.000000
s off
g SM_Desk_02c
f 2/4/1 9/2/2 1/3/3
f 9/2/4 2/4/5 4/1/6
f 2/79/7 5/77/8 6/78/9
f 5/77/10 2/79/11 1/76/12
f 13/15/13 11/6/14 12/14/15
f 11/6/16 13/15/17 3/5/18
f 3/5/19 13/15/20 4/1/21
f 9/2/22 4/1/23 13/15/24
f 15/25/25 16/91/26 19/92/27
f 7/9/28 10/10/29 15/20/30
f 10/10/31 16/19/32 15/20/33
f 14/11/34 8/12/35 17/22/36
f 14/11/37 17/22/38 31/23/39
f 8/53/40 15/58/41 17/64/42
f 15/58/43 8/53/44 7/57/45
f 37/18/46 19/43/47 18/13/48
f 37/18/49 39/24/50 19/43/51
f 19/43/52 39/24/53 20/47/54
f 23/28/55 22/29/56 26/27/57
f 26/27/58 22/29/59 21/32/60
f 25/93/61 23/30/62 26/31/63
f 23/30/64 25/93/65 24/94/66
f 11/6/67 28/34/68 12/14/69
f 28/34/70 11/6/71 27/33/72
f 21/32/73 22/29/74 28/34/75
f 21/32/76 28/34/77 27/33/78
f 31/26/79 39/51/80 32/21/81
f 32/21/82 39/51/83 40/54/84
f 34/35/85 38/36/86 35/49/87
f 30/44/88 29/45/89 34/37/90
f 30/44/91 34/37/92 35/38/93
f 14/42/94 32/40/95 33/41/96
f 32/40/97 14/42/98 31/39/99
f 32/52/100 34/59/101 33/61/102
f 33/61/103 34/59/104 29/60/105
f 39/98/106 37/97/107 38/50/108
f 36/48/109 38/50/110 37/97/111
f 38/50/112 40/80/113 39/98/114
f 24/67/115 36/16/116 23/46/117
f 22/17/118 23/46/119 36/16/120
f 19/43/121 16/81/122 5/82/123
f 5/82/124 18/13/125 19/43/126
f 35/84/127 38/50/128 24/83/129
f 38/50/130 36/48/131 24/83/132
f 20/66/133 15/58/134 19/65/135
f 20/66/136 17/64/137 15/58/138
f 5/8/139 16/7/140 10/89/141
f 10/89/142 6/90/143 5/8/144
f 39/51/145 31/26/146 17/55/147
f 39/51/148 17/55/149 20/56/150
f 18/69/151 13/70/152 37/68/153
f 37/68/154 13/70/155 12/71/156
f 28/72/157 36/16/158 37/95/159
f 37/95/160 12/96/161 28/72/162
f 36/16/163 28/72/164 22/17/165
f 1/74/166 9/75/167 18/69/168
f 1/74/169 18/69/170 5/73/171
f 18/69/172 9/75/173 13/70/174
f 35/86/175 24/85/176 30/88/177
f 30/88/178 24/85/179 25/87/180
f 38/63/181 34/59/182 40/62/183
f 32/52/184 40/62/185 34/59/186
f 49/216/187 42/214/188 50/215/189
f 42/214/190 49/216/191 41/198/192
f 50/215/193 42/214/194 51/218/195
f 51/218/196 42/214/197 43/217/198
f 51/230/199 43/229/200 52/220/201
f 52/220/202 43/229/203 44/219/204
f 52/220/205 44/219/206 53/222/207
f 53/222/208 44/219/209 45/221/210
f 53/222/211 45/221/212 54/224/213
f 54/224/214 45/221/215 46/223/216
f 54/224/217 46/223/218 55/226/219
f 55/226/220 46/223/221 47/225/222
f 55/226/223 47/225/224 56/228/225
f 56/228/226 47/225/227 48/227/228
f 56/228/229 41/198/230 49/216/231
f 41/198/232 56/228/233 48/227/234
f 44/200/235 42/201/236 45/199/237
f 41/197/238 45/199/239 42/201/240
f 53/207/241 49/208/242 52/206/243
f 52/206/244 49/208/245 50/205/246
f 49/208/247 53/207/248 54/209/249
f 49/208/250 54/209/251 56/210/252
f 54/209/253 55/211/254 56/210/255
f 50/205/256 51/212/257 52/206/258
f 48/202/259 47/203/260 46/204/261
f 46/204/262 41/197/263 48/202/264
f 41/197/265 46/204/266 45/199/267
f 44/200/268 43/213/269 42/201/270
f 58/266/271 59/267/272 60/268/273
f 58/266/274 60/268/275 57/265/276
f 61/269/277 62/270/278 58/266/279
f 58/266/280 62/270/281 59/267/282
f 63/272/283 64/273/284 61/271/285
f 61/271/286 64/273/287 62/274/288
f 65/275/289 66/276/290 63/272/291
f 64/273/292 63/272/293 66/276/294
f 67/277/295 68/278/296 65/275/297
f 66/276/298 65/275/299 68/278/300
f 68/278/301 67/277/302 70/280/303
f 70/280/304 67/277/305 69/279/306
f 70/280/307 69/279/308 72/282/309
f 72/282/310 69/279/311 71/281/312
f 60/268/313 71/281/314 57/265/315
f 71/281/316 60/268/317 72/282/318
f 74/284/319 75/285/320 76/286/321
f 74/284/322 76/286/323 73/283/324
f 77/287/325 78/288/326 74/284/327
f 74/284/328 78/288/329 75/285/330
f 79/290/331 80/291/332 77/289/333
f 77/289/334 80/291/335 78/292/336
f 81/293/337 82/294/338 79/290/339
f 80/291/340 79/290/341 82/294/342
f 83/295/343 84/296/344 81/293/345
f 82/294/346 81/293/347 84/296/348
f 84/296/349 83/295/350 86/298/351
f 86/298/352 83/295/353 85/297/354
f 86/298/355 85/297/356 88/300/357
f 88/300/358 85/297/359 87/299/360
f 76/286/361 87/299/362 73/283/363
f 87/299/364 76/286/365 88/300/366
f 93/411/367 99/407/368 89/409/369
f 99/407/370 93/411/371 95/412/372
f 94/417/373 93/418/374 98/416/375
f 98/416/376 93/418/377 89/415/378
f 100/427/379 99/428/380 96/430/381
f 96/430/382 99/428/383 95/429/384
f 96/413/385 94/414/386 98/408/387
f 96/413/388 98/408/389 100/410/390
f 96/443/391 95/444/392 93/445/393
f 94/446/394 96/443/395 93/445/396
f 101/433/397 105/431/398 102/432/399
f 105/431/400 101/433/401 97/434/402
f 108/438/403 107/435/404 104/437/405
f 104/437/406 107/435/407 103/436/408
f 98/416/409 89/415/410 102/432/411
f 102/432/412 89/415/413 101/433/414
f 104/437/415 103/436/416 100/427/417
f 100/427/418 103/436/419 99/428/420
f 104/426/421 102/420/422 90/422/423
f 104/426/424 90/422/425 92/424/426
f 102/420/427 104/426/428 98/408/429
f 100/410/430 98/408/431 104/426/432
f 101/425/433 103/419/434 91/421/435
f 101/425/436 91/421/437 106/423/438
f 99/407/439 101/425/440 89/409/441
f 101/425/442 99/407/443 103/419/444
f 91/442/445 92/439/446 90/440/447
f 90/440/448 106/441/449 91/442/450
f 97/434/451 90/440/452 105/431/453
f 90/440/454 97/434/455 106/441/456
f 92/439/457 91/442/458 108/438/459
f 108/438/460 91/442/461 107/435/462
f 92/424/463 108/447/464 104/426/465
f 102/420/466 105/448/467 90/422/468
f 103/419/469 107/449/470 91/421/471
f 106/423/472 97/450/473 101/425/474
