# This file uses feet as units for non-parametric coordinates.

g default
v -43.011711 -2.697205 -1.394558
v -41.617149 9.926102 0.000004
v -43.011711 -2.697205 -5.462433
v -41.617149 -2.697205 0.000004
v -43.011711 9.926102 -1.394558
v -42.663071 -2.697205 -0.348637
v -42.663071 9.926102 -0.348637
v -43.011719 9.926102 -5.462435
v -42.201500 9.926102 -0.069073
v -42.201500 -2.697205 -0.069073
v -42.914291 9.940277 -0.800365
v -42.914291 -2.711380 -0.800365
v 41.617149 9.926102 0.000004
v 41.617149 -2.697205 0.000004
v 43.011711 -2.697205 -1.394558
v 43.011711 -2.697205 -5.462433
v 43.011711 9.926102 -1.394558
v 43.011719 9.926102 -5.462433
v 42.914291 -2.711380 -0.800365
v 42.914291 9.940277 -0.800365
v 42.663071 -2.697205 -0.348637
v 42.201492 -2.697205 -0.069073
v 42.201492 9.926102 -0.069073
v 42.663071 9.926102 -0.348637
v -9.811665 1.730490 1.718782
v -9.811665 1.889143 1.335752
v -9.811665 2.272167 1.177096
v -9.811665 2.655193 1.335752
v -9.811665 2.813847 1.718782
v -9.811665 2.655193 2.101811
v -9.811665 2.272167 2.260468
v -9.811665 1.889143 2.101812
v 9.816814 1.730484 1.718781
v 9.816814 1.889137 1.335752
v 9.816814 2.272163 1.177095
v 9.816814 2.655188 1.335752
v 9.816814 2.813841 1.718781
v 9.816814 2.655188 2.101811
v 9.816814 2.272163 2.260468
v 9.816814 1.889139 2.101811
v 3.348763 1.871675 0.000005
v 3.631950 1.988976 0.000005
v 3.631950 1.988976 1.380134
v 3.348763 1.871677 1.380134
v 3.749260 2.272167 0.000005
v 3.749260 2.272167 1.380134
v 3.631950 2.555357 0.000005
v 3.631950 2.555357 1.380134
v 3.348763 2.672661 0.000005
v 3.348763 2.672661 1.380134
v 3.065559 2.555357 0.000005
v 3.065559 2.555357 1.380134
v 2.948265 2.272167 0.000005
v 2.948265 2.272167 1.380134
v 3.065559 1.988976 0.000005
v 3.065559 1.988976 1.380134
v -4.487804 1.871675 0.000005
v -4.204605 1.988977 0.000005
v -4.204609 1.988977 1.380134
v -4.487804 1.871675 1.380134
v -4.087307 2.272167 0.000005
v -4.087307 2.272167 1.380134
v -4.204605 2.555359 0.000005
v -4.204609 2.555359 1.380134
v -4.487804 2.672659 0.000005
v -4.487804 2.672661 1.380134
v -4.771000 2.555359 0.000005
v -4.771000 2.555359 1.380134
v -4.888302 2.272167 0.000005
v -4.888302 2.272167 1.380134
v -4.771000 1.988977 0.000005
v -4.771000 1.988977 1.380134
v -41.519814 -1.651855 -51.432556
v -40.088623 0.000000 -51.432556
v -41.519821 8.016174 -51.432556
v -40.088623 8.016174 -51.432556
v -41.519814 -1.651855 -5.438957
v -40.088623 0.000000 -5.438957
v -41.519821 8.016174 -5.438957
v -40.088623 8.016174 -5.438957
v 0.000000 0.000000 -5.438957
v 0.000000 -1.651855 -5.438957
v 41.519814 8.016174 -5.438957
v 41.519814 8.016174 -51.432556
v 41.519814 -1.651855 -51.432556
v 41.519814 -1.651855 -5.438957
v 40.088623 8.016174 -5.438957
v 40.088623 8.016174 -51.432556
v 40.088615 0.000000 -5.438957
v 40.088615 0.000000 -51.432556
v 0.000000 0.000000 -51.432556
v 0.000000 -1.651855 -51.432556
v 0.000000 8.016174 -51.432556
vt 0.292748 0.552570
vt 0.262100 0.132334
vt 0.005318 0.000618
vt 0.039064 0.000618
vt 0.263494 0.134635
vt 0.039064 0.105335
vt 0.292404 0.555485
vt 0.005318 0.105335
vt 0.044059 0.000500
vt 0.044059 0.105453
vt 0.048346 0.000618
vt 0.259846 0.131083
vt 0.052822 0.000618
vt 0.288756 0.559038
vt 0.052822 0.105335
vt 0.048346 0.105335
vt 0.057703 0.000618
vt 0.263838 0.137550
vt 0.057703 0.105335
vt 0.748179 0.105335
vt 0.748179 0.000618
vt 0.800564 0.000618
vt 0.800564 0.105335
vt 0.766819 0.105335
vt 0.766819 0.000618
vt 0.761824 0.105453
vt 0.761824 0.000500
vt 0.232085 0.559524
vt 0.169144 0.559524
vt 0.757536 0.000618
vt 0.256884 0.130597
vt 0.263838 0.552571
vt 0.285794 0.559523
vt 0.291010 0.557786
vt 0.757536 0.105335
vt 0.753060 0.105335
vt 0.753060 0.000618
vt 0.169144 0.130596
vt 0.292749 0.137550
vt 0.285795 0.130597
vt 0.265512 0.130596
vt 0.232086 0.130596
vt 0.256884 0.559524
vt 0.236601 0.559524
vt 0.236601 0.130596
vt 0.262100 0.557787
vt 0.259846 0.559038
vt 0.263494 0.555485
vt 0.265511 0.559524
vt 0.288757 0.131082
vt 0.292405 0.134635
vt 0.291011 0.132333
vt 1.265668 0.889140
vt 1.733064 0.116141
vt 1.255875 0.885184
vt 1.258708 0.882300
vt 1.265633 0.885098
vt 1.262835 0.892023
vt 1.258793 0.892059
vt 1.255910 0.889225
vt 1.518209 0.978754
vt 1.511284 0.975956
vt 1.511249 0.971914
vt 1.521043 0.975871
vt 1.514082 0.969031
vt 1.521007 0.971829
vt 1.518124 0.968996
vt 1.514167 0.978789
vt 1.262750 0.882265
vt 1.737108 0.116141
vt 1.737108 0.407061
vt 1.733064 0.407061
vt 1.741150 0.116141
vt 1.741150 0.407061
vt 1.712846 0.116141
vt 1.712846 0.407061
vt 1.716889 0.116141
vt 1.716889 0.407061
vt 1.720932 0.116141
vt 1.720932 0.407061
vt 1.724977 0.116141
vt 1.724977 0.407061
vt 1.729021 0.116141
vt 1.729021 0.407061
vt 1.708803 0.116141
vt 1.708803 0.407061
vt 1.733064 0.116141
vt 1.737108 0.116141
vt 1.737108 0.407061
vt 1.733064 0.407061
vt 1.741150 0.116141
vt 1.741150 0.407061
vt 1.708803 0.116141
vt 1.712846 0.116141
vt 1.712846 0.407061
vt 1.708803 0.407061
vt 1.716889 0.116141
vt 1.716889 0.407061
vt 1.720932 0.116141
vt 1.720932 0.407061
vt 1.724977 0.116141
vt 1.724977 0.407061
vt 1.729021 0.116141
vt 1.729021 0.407061
vt 1.733064 0.116141
vt 1.737108 0.116141
vt 1.737108 0.407061
vt 1.733064 0.407061
vt 1.741150 0.116141
vt 1.741150 0.407061
vt 1.708803 0.116141
vt 1.712846 0.116141
vt 1.712846 0.407061
vt 1.708803 0.407061
vt 1.716889 0.116141
vt 1.716889 0.407061
vt 1.720932 0.116141
vt 1.720932 0.407061
vt 1.724977 0.116141
vt 1.724977 0.407061
vt 1.729021 0.116141
vt 1.729021 0.407061
vt 0.785897 0.991268
vt 0.434891 0.718440
vt 0.376769 0.128041
vt 0.304058 0.128041
vt 0.434891 0.791150
vt 0.785897 0.925630
vt 0.858608 0.925631
vt 0.371516 0.791150
vt 0.304058 0.125778
vt 0.376769 0.125778
vt 0.371516 0.718440
vt 0.858608 0.991268
vt 0.785897 0.275148
vt 0.804428 0.275148
vt 0.882700 0.470919
vt 0.809989 0.470919
vt 0.809989 0.458247
vt 0.882700 0.458247
vt 0.395608 0.887083
vt 0.468318 0.887083
vt 0.468318 0.902367
vt 0.395608 0.902367
vt 0.804428 0.367817
vt 0.785897 0.367817
vt 1.395608 0.887083
vt 1.468318 0.887083
vt 1.468318 0.902367
vt 1.395608 0.902367
vt 1.376769 0.128041
vt 1.304058 0.128041
vt 1.304058 0.125778
vt 1.376769 0.125778
vt 1.882700 0.470919
vt 1.809989 0.470919
vt 1.809989 0.458247
vt 1.882700 0.458247
vt 1.434891 0.718440
vt 1.434891 0.791150
vt 1.371516 0.791150
vt 1.371516 0.718440
vt 1.785897 0.991268
vt 1.785897 0.925630
vt 1.858608 0.925631
vt 1.858608 0.991268
vt 1.785897 0.275148
vt 1.804428 0.275148
vt 1.804428 0.367817
vt 1.785897 0.367817
vn -1.000000 -0.000000 0.000000
vn -1.000000 -0.000000 0.000000
vn -0.996651 -0.000000 0.081771
vn -0.996651 -0.000000 0.081771
vn -1.000000 -0.000000 0.000000
vn -0.996651 -0.000000 0.081771
vn -0.996651 -0.000000 0.081771
vn -0.944475 -0.000000 0.328584
vn -0.944475 -0.000000 0.328584
vn -0.944475 -0.000000 0.328584
vn -0.996651 -0.000000 0.081771
vn -0.996651 -0.000000 0.081771
vn -0.721675 -0.000000 0.692233
vn -0.325106 -0.000000 0.945678
vn -0.325106 -0.000000 0.945678
vn -0.325106 -0.000000 0.945678
vn -0.721675 -0.000000 0.692233
vn -0.721675 -0.000000 0.692233
vn 0.003874 -0.999990 -0.002368
vn 0.013164 -0.999900 -0.005222
vn 0.003670 -0.999991 -0.002243
vn 0.013164 -0.999900 -0.005222
vn 0.003874 -0.999990 -0.002368
vn 0.013227 -0.999898 -0.005301
vn -0.028616 0.998473 0.047246
vn 0.013227 0.999898 -0.005301
vn 0.013164 0.999900 -0.005222
vn -0.944475 -0.000000 0.328584
vn -0.721675 -0.000000 0.692233
vn -0.721675 -0.000000 0.692233
vn -0.721675 -0.000000 0.692233
vn -0.944475 -0.000000 0.328584
vn -0.944475 -0.000000 0.328584
vn -0.325106 -0.000000 0.945678
vn -0.058799 -0.000000 0.998270
vn -0.058799 -0.000000 0.998270
vn -0.058799 -0.000000 0.998270
vn -0.325106 -0.000000 0.945678
vn -0.325106 -0.000000 0.945678
vn 0.013227 -0.999898 -0.005301
vn -0.028616 -0.998473 0.047246
vn 0.013164 -0.999900 -0.005222
vn 0.003874 0.999990 -0.002368
vn 0.013164 0.999900 -0.005222
vn 0.013227 0.999898 -0.005301
vn 0.013164 0.999900 -0.005222
vn 0.003874 0.999990 -0.002368
vn 0.003670 0.999991 -0.002243
vn -0.058799 -0.000000 0.998270
vn 0.058799 -0.000000 0.998270
vn -0.058799 -0.000000 0.998270
vn 0.058799 -0.000000 0.998270
vn -0.058799 -0.000000 0.998270
vn 0.058799 -0.000000 0.998270
vn -0.003874 -0.999990 -0.002368
vn 0.003874 -0.999990 -0.002368
vn -0.003670 -0.999991 -0.002243
vn 0.996651 -0.000000 0.081768
vn 1.000000 -0.000000 0.000001
vn 1.000000 -0.000000 0.000001
vn 1.000000 -0.000000 0.000001
vn 0.996651 -0.000000 0.081768
vn 0.996651 -0.000000 0.081768
vn 0.944475 -0.000000 0.328584
vn 0.944475 -0.000000 0.328584
vn 0.996651 -0.000000 0.081768
vn 0.996651 -0.000000 0.081768
vn 0.944475 -0.000000 0.328584
vn 0.996651 -0.000000 0.081768
vn 0.325104 -0.000000 0.945678
vn 0.325104 -0.000000 0.945678
vn 0.721671 -0.000000 0.692236
vn 0.721671 -0.000000 0.692236
vn 0.325104 -0.000000 0.945678
vn 0.721671 -0.000000 0.692236
vn 0.003874 -0.999990 -0.002368
vn 0.000000 -1.000000 -0.000000
vn -0.003670 -0.999991 -0.002243
vn 0.000000 -1.000000 -0.000000
vn 0.003874 -0.999990 -0.002368
vn 0.000000 -1.000000 -0.000000
vn -0.013164 -0.999900 -0.005222
vn -0.003874 -0.999990 -0.002368
vn -0.003670 -0.999991 -0.002243
vn -0.003874 -0.999990 -0.002368
vn -0.013164 -0.999900 -0.005222
vn -0.013227 -0.999899 -0.005301
vn -0.003874 0.999990 -0.002368
vn -0.003670 0.999991 -0.002243
vn 0.003874 0.999990 -0.002368
vn 0.000000 1.000000 0.000000
vn 0.000000 1.000000 0.000000
vn 0.003874 0.999990 -0.002368
vn 0.000000 1.000000 0.000000
vn 0.003874 0.999990 -0.002368
vn -0.003670 0.999991 -0.002243
vn 0.028616 0.998473 0.047247
vn -0.013164 0.999900 -0.005222
vn -0.013227 0.999899 -0.005301
vn 0.721671 -0.000000 0.692236
vn 0.944475 -0.000000 0.328584
vn 0.721671 -0.000000 0.692236
vn 0.944475 -0.000000 0.328584
vn 0.721671 -0.000000 0.692236
vn 0.944475 -0.000000 0.328584
vn 0.058799 -0.000000 0.998270
vn 0.325104 -0.000000 0.945678
vn 0.058799 -0.000000 0.998270
vn 0.325104 -0.000000 0.945678
vn 0.058799 -0.000000 0.998270
vn 0.325104 -0.000000 0.945678
vn -0.013227 -0.999899 -0.005301
vn -0.013164 -0.999900 -0.005222
vn 0.028616 -0.998473 0.047247
vn -0.003874 0.999990 -0.002368
vn -0.013164 0.999900 -0.005222
vn -0.003670 0.999991 -0.002243
vn -0.013164 0.999900 -0.005222
vn -0.003874 0.999990 -0.002368
vn -0.013227 0.999899 -0.005301
vn 0.000000 -0.000000 -1.000000
vn 0.000000 -0.000000 -1.000000
vn 0.000000 -0.000000 -1.000000
vn 0.000000 -0.000000 -1.000000
vn 0.000000 -0.000000 -1.000000
vn 0.000000 -0.000000 -1.000000
vn 0.000000 1.000000 0.000000
vn 0.003670 0.999991 -0.002243
vn 0.003874 0.999990 -0.002368
vn 0.003874 -0.999990 -0.002368
vn 0.003670 -0.999991 -0.002243
vn 0.000000 -1.000000 -0.000000
vn -0.000000 -1.000000 0.000001
vn -0.000000 -1.000000 0.000001
vn -0.000000 -0.707111 -0.707103
vn -0.000000 -1.000000 0.000001
vn -0.000000 -0.707111 -0.707103
vn -0.000000 -0.707111 -0.707103
vn -0.000000 -0.000000 -1.000000
vn -0.000000 -0.707111 -0.707103
vn -0.000000 0.000000 -1.000000
vn -0.000000 -0.707111 -0.707103
vn -0.000000 -0.000000 -1.000000
vn -0.000000 -0.707111 -0.707103
vn 0.000000 0.707111 -0.707103
vn -0.000000 0.000000 -1.000000
vn 0.000000 0.707111 -0.707103
vn -0.000000 0.000000 -1.000000
vn 0.000000 0.707111 -0.707103
vn -0.000000 -0.000000 -1.000000
vn 0.000000 1.000000 0.000000
vn 0.000000 1.000000 0.000000
vn 0.000000 0.707111 -0.707103
vn 0.000000 0.707111 -0.707103
vn 0.000000 0.707111 -0.707103
vn 0.000000 1.000000 0.000000
vn 0.000000 0.707111 0.707103
vn 0.000000 0.707111 0.707103
vn 0.000000 1.000000 0.000000
vn 0.000000 1.000000 0.000000
vn 0.000000 1.000000 0.000000
vn 0.000000 0.707111 0.707103
vn 0.000000 -0.000000 1.000000
vn 0.000000 0.707111 0.707103
vn 0.000000 0.707111 0.707103
vn 0.000000 0.707111 0.707103
vn 0.000000 -0.000000 1.000000
vn 0.000000 -0.000000 1.000000
vn -0.000000 -0.707110 0.707104
vn 0.000000 -0.000000 1.000000
vn 0.000000 -0.000000 1.000000
vn 0.000000 -0.000000 1.000000
vn -0.000000 -0.707110 0.707104
vn -0.000000 -0.707110 0.707104
vn -0.000000 -1.000000 0.000001
vn -0.000000 -0.707110 0.707104
vn -0.000000 -0.707110 0.707104
vn -0.000000 -0.707110 0.707104
vn -0.000000 -1.000000 0.000001
vn -0.000000 -1.000000 0.000001
vn -1.000000 0.000000 0.000000
vn -1.000000 0.000000 0.000000
vn -1.000000 0.000000 0.000000
vn -1.000000 0.000000 0.000000
vn -1.000000 0.000000 0.000000
vn -1.000000 0.000000 0.000000
vn 1.000000 0.000000 0.000000
vn 1.000000 0.000000 0.000000
vn 1.000000 0.000000 0.000000
vn 1.000000 0.000000 0.000000
vn 1.000000 0.000000 0.000000
vn 1.000000 0.000000 0.000000
vn 1.000000 0.000000 0.000000
vn 1.000000 0.000000 0.000000
vn 1.000000 0.000000 0.000000
vn 1.000000 0.000000 0.000000
vn 1.000000 0.000000 0.000000
vn 1.000000 0.000000 0.000000
vn 1.000000 0.000000 0.000000
vn 1.000000 0.000000 0.000000
vn 1.000000 0.000000 0.000000
vn 1.000000 0.000000 0.000000
vn 1.000000 0.000000 0.000000
vn 1.000000 0.000000 0.000000
vn -1.000000 0.000000 0.000000
vn -1.000000 0.000000 0.000000
vn -1.000000 0.000000 0.000000
vn -1.000000 0.000000 0.000000
vn -1.000000 0.000000 0.000000
vn -1.000000 0.000000 0.000000
vn -1.000000 0.000000 0.000000
vn -1.000000 0.000000 0.000000
vn -1.000000 0.000000 0.000000
vn -1.000000 0.000000 0.000000
vn -1.000000 0.000000 0.000000
vn -1.000000 0.000000 0.000000
vn 0.000010 -1.000000 0.000001
vn 0.707097 -0.707116 0.000000
vn 0.707097 -0.707116 0.000000
vn 0.707097 -0.707116 0.000000
vn 0.000010 -1.000000 0.000001
vn 0.000010 -1.000000 0.000001
vn 1.000000 0.000001 0.000000
vn 0.707097 -0.707116 0.000000
vn 1.000000 0.000001 0.000000
vn 0.707097 -0.707116 0.000000
vn 1.000000 0.000001 0.000000
vn 0.707097 -0.707116 0.000000
vn 0.707102 0.707112 0.000000
vn 1.000000 0.000001 0.000000
vn 0.707102 0.707112 0.000000
vn 1.000000 0.000001 0.000000
vn 0.707102 0.707112 0.000000
vn 1.000000 0.000001 0.000000
vn 0.000009 1.000000 0.000000
vn 0.707102 0.707112 0.000000
vn 0.000009 1.000000 0.000000
vn 0.707102 0.707112 0.000000
vn 0.000009 1.000000 0.000000
vn 0.707102 0.707112 0.000000
vn -0.707111 0.707103 0.000000
vn -0.707111 0.707103 0.000000
vn 0.000009 1.000000 0.000000
vn 0.000009 1.000000 0.000000
vn -0.707111 0.707103 0.000000
vn 0.000009 1.000000 0.000000
vn -1.000000 0.000001 0.000000
vn -1.000000 0.000001 0.000000
vn -0.707111 0.707103 0.000000
vn -0.707111 0.707103 0.000000
vn -0.707111 0.707103 0.000000
vn -1.000000 0.000001 0.000000
vn -0.707107 -0.707107 0.000000
vn -0.707107 -0.707107 0.000000
vn -1.000000 0.000001 0.000000
vn -1.000000 0.000001 0.000000
vn -1.000000 0.000001 0.000000
vn -0.707107 -0.707107 0.000000
vn -0.707107 -0.707107 0.000000
vn -0.707107 -0.707107 0.000000
vn 0.000010 -1.000000 0.000001
vn 0.000010 -1.000000 0.000001
vn -0.707107 -0.707107 0.000000
vn 0.000010 -1.000000 0.000001
vn 0.707105 -0.707108 0.000001
vn -0.000001 -1.000000 0.000000
vn 0.707106 -0.707108 0.000001
vn -0.000001 -1.000000 0.000000
vn 0.707105 -0.707108 0.000001
vn -0.000001 -1.000000 0.000000
vn 1.000000 -0.000001 0.000001
vn 0.707106 -0.707108 0.000001
vn 1.000000 -0.000001 0.000001
vn 0.707106 -0.707108 0.000001
vn 1.000000 -0.000001 0.000001
vn 0.707105 -0.707108 0.000001
vn 0.707105 0.707109 0.000001
vn 1.000000 -0.000001 0.000001
vn 0.707106 0.707108 0.000001
vn 1.000000 -0.000001 0.000001
vn 0.707105 0.707109 0.000001
vn 1.000000 -0.000001 0.000001
vn -0.000001 1.000000 -0.000000
vn 0.707105 0.707109 0.000001
vn 0.707106 0.707108 0.000001
vn 0.707105 0.707109 0.000001
vn -0.000001 1.000000 -0.000000
vn -0.000001 1.000000 -0.000000
vn -0.707104 0.707110 -0.000000
vn -0.707104 0.707110 -0.000000
vn -0.000001 1.000000 -0.000000
vn -0.000001 1.000000 -0.000000
vn -0.707104 0.707110 -0.000000
vn -0.000001 1.000000 -0.000000
vn -1.000000 -0.000001 -0.000000
vn -1.000000 -0.000001 -0.000000
vn -0.707104 0.707110 -0.000000
vn -0.707104 0.707110 -0.000000
vn -0.707104 0.707110 -0.000000
vn -1.000000 -0.000001 -0.000000
vn -0.707104 -0.707109 -0.000000
vn -0.707104 -0.707109 -0.000000
vn -1.000000 -0.000001 -0.000000
vn -1.000000 -0.000001 -0.000000
vn -1.000000 -0.000001 -0.000000
vn -0.707104 -0.707109 -0.000000
vn -0.707104 -0.707109 -0.000000
vn -0.707104 -0.707109 -0.000000
vn -0.000001 -1.000000 0.000000
vn -0.000001 -1.000000 0.000000
vn -0.707104 -0.707109 -0.000000
vn -0.000001 -1.000000 0.000000
vn -1.000000 -0.000000 -0.000000
vn -1.000000 -0.000000 -0.000000
vn -1.000000 -0.000000 -0.000000
vn -1.000000 -0.000000 -0.000000
vn -1.000000 -0.000000 -0.000000
vn -1.000000 -0.000000 -0.000000
vn 0.000000 1.000000 0.000000
vn 0.000000 1.000000 0.000000
vn 0.000000 1.000000 0.000000
vn 0.000000 1.000000 0.000000
vn 0.000000 1.000000 0.000000
vn 0.000000 1.000000 0.000000
vn 1.000000 0.000000 0.000000
vn 1.000000 0.000000 0.000000
vn 1.000000 0.000000 0.000000
vn 1.000000 0.000000 0.000000
vn 1.000000 0.000000 0.000000
vn 1.000000 0.000000 0.000000
vn 0.000000 1.000000 0.000000
vn 0.000000 1.000000 0.000000
vn 0.000000 1.000000 0.000000
vn 0.000000 1.000000 0.000000
vn 0.000000 1.000000 0.000000
vn 0.000000 1.000000 0.000000
vn 0.000000 -1.000000 -0.000000
vn 0.000000 -1.000000 -0.000000
vn 0.000000 -1.000000 -0.000000
vn 0.000000 -1.000000 -0.000000
vn 0.000000 -1.000000 -0.000000
vn 0.000000 -1.000000 -0.000000
vn 0.000000 -0.000000 1.000000
vn 0.000000 -0.000000 1.000000
vn 0.000000 -0.000000 1.000000
vn 0.000000 -0.000000 1.000000
vn 0.000000 -0.000000 1.000000
vn 0.000000 -0.000000 1.000000
vn 1.000000 0.000000 0.000000
vn 1.000000 0.000000 0.000000
vn 1.000000 0.000000 0.000000
vn 1.000000 0.000000 0.000000
vn 1.000000 0.000000 0.000000
vn 1.000000 0.000000 0.000000
vn 0.000000 1.000000 0.000000
vn 0.000000 1.000000 0.000000
vn 0.000000 1.000000 0.000000
vn 0.000000 1.000000 0.000000
vn 0.000000 1.000000 0.000000
vn 0.000000 1.000000 0.000000
vn -1.000000 0.000001 0.000000
vn -1.000000 0.000001 0.000000
vn -1.000000 0.000001 0.000000
vn -1.000000 0.000001 0.000000
vn -1.000000 0.000001 0.000000
vn -1.000000 0.000001 0.000000
vn 0.000000 1.000000 0.000000
vn 0.000000 1.000000 0.000000
vn 0.000000 1.000000 0.000000
vn 0.000000 1.000000 0.000000
vn 0.000000 1.000000 0.000000
vn 0.000000 1.000000 0.000000
vn 0.000000 -1.000000 -0.000000
vn 0.000000 -1.000000 -0.000000
vn 0.000000 -1.000000 -0.000000
vn 0.000000 -1.000000 -0.000000
vn 0.000000 -1.000000 -0.000000
vn 0.000000 -1.000000 -0.000000
vn 0.000000 -0.000000 1.000000
vn 0.000000 -0.000000 1.000000
vn 0.000000 -0.000000 1.000000
vn 0.000000 -0.000000 1.000000
vn 0.000000 -0.000000 1.000000
vn 0.000000 -0.000000 1.000000
s off
g SM_Desk_02b
f 8/8/1 3/3/2 5/6/3
f 5/6/4 3/3/5 1/4/6
f 5/6/7 12/9/8 11/10/9
f 12/9/10 5/6/11 1/4/12
f 7/16/13 10/13/14 9/15/15
f 10/13/16 7/16/17 6/11/18
f 4/1/19 12/14/20 1/33/21
f 12/14/22 4/1/23 10/7/24
f 7/2/25 9/5/26 11/12/27
f 11/10/28 6/11/29 7/16/30
f 6/11/31 11/10/32 12/9/33
f 9/15/34 4/17/35 2/19/36
f 4/17/37 9/15/38 10/13/39
f 10/7/40 6/34/41 12/14/42
f 2/18/43 11/12/44 9/5/45
f 11/12/46 2/18/47 5/31/48
f 4/17/49 14/21/50 2/19/51
f 13/20/52 2/19/53 14/21/54
f 14/39/55 4/1/56 15/40/57
f 17/24/58 16/22/59 18/23/60
f 16/22/61 17/24/62 15/25/63
f 20/26/64 19/27/65 17/24/66
f 17/24/67 19/27/68 15/25/69
f 23/36/70 22/37/71 24/35/72
f 24/35/73 22/37/74 21/30/75
f 4/1/76 16/41/77 15/40/78
f 16/41/79 4/1/80 3/49/81
f 19/50/82 14/39/83 15/40/84
f 14/39/85 19/50/86 22/51/87
f 13/32/88 17/43/89 2/18/90
f 18/44/91 8/45/92 2/18/93
f 18/44/94 2/18/95 17/43/96
f 24/46/97 20/47/98 23/48/99
f 21/30/100 20/26/101 24/35/102
f 20/26/103 21/30/104 19/27/105
f 14/21/106 23/36/107 13/20/108
f 23/36/109 14/21/110 22/37/111
f 22/51/112 19/50/113 21/52/114
f 13/32/115 20/47/116 17/43/117
f 20/47/118 13/32/119 23/48/120
f 8/29/121 18/38/122 16/42/123
f 8/29/124 16/42/125 3/28/126
f 8/45/127 5/31/128 2/18/129
f 4/1/130 1/33/131 3/49/132
f 33/72/133 25/54/134 26/70/135
f 33/72/136 26/70/137 34/71/138
f 35/74/139 26/70/140 27/73/141
f 26/70/142 35/74/143 34/71/144
f 36/76/145 27/85/146 28/75/147
f 27/85/148 36/76/149 35/86/150
f 29/77/151 37/78/152 28/75/153
f 36/76/154 28/75/155 37/78/156
f 30/79/157 38/80/158 29/77/159
f 37/78/160 29/77/161 38/80/162
f 31/81/163 38/80/164 30/79/165
f 38/80/166 31/81/167 39/82/168
f 32/83/169 39/82/170 31/81/171
f 39/82/172 32/83/173 40/84/174
f 25/54/175 40/84/176 32/83/177
f 40/84/178 25/54/179 33/72/180
f 26/57/181 29/55/182 28/56/183
f 25/53/184 29/55/185 26/57/186
f 37/63/187 33/64/188 36/62/189
f 36/62/190 33/64/191 34/61/192
f 37/63/193 40/66/194 33/64/195
f 40/66/196 37/63/197 38/65/198
f 38/65/199 39/67/200 40/66/201
f 34/61/202 35/68/203 36/62/204
f 32/58/205 31/59/206 30/60/207
f 30/60/208 25/53/209 32/58/210
f 25/53/211 30/60/212 29/55/213
f 28/56/214 27/69/215 26/57/216
f 44/90/217 42/88/218 43/89/219
f 42/88/220 44/90/221 41/87/222
f 46/92/223 42/88/224 45/91/225
f 42/88/226 46/92/227 43/89/228
f 48/95/229 45/93/230 47/94/231
f 45/93/232 48/95/233 46/96/234
f 50/98/235 47/94/236 49/97/237
f 47/94/238 50/98/239 48/95/240
f 51/99/241 52/100/242 49/97/243
f 49/97/244 52/100/245 50/98/246
f 53/101/247 54/102/248 51/99/249
f 52/100/250 51/99/251 54/102/252
f 55/103/253 56/104/254 53/101/255
f 54/102/256 53/101/257 56/104/258
f 56/104/259 55/103/260 44/90/261
f 44/90/262 55/103/263 41/87/264
f 59/107/265 57/105/266 58/106/267
f 57/105/268 59/107/269 60/108/270
f 62/110/271 58/106/272 61/109/273
f 58/106/274 62/110/275 59/107/276
f 64/113/277 61/111/278 63/112/279
f 61/111/280 64/113/281 62/114/282
f 65/115/283 64/113/284 63/112/285
f 64/113/286 65/115/287 66/116/288
f 67/117/289 68/118/290 65/115/291
f 65/115/292 68/118/293 66/116/294
f 69/119/295 70/120/296 67/117/297
f 68/118/298 67/117/299 70/120/300
f 71/121/301 72/122/302 69/119/303
f 70/120/304 69/119/305 72/122/306
f 72/122/307 71/121/308 60/108/309
f 60/108/310 71/121/311 57/105/312
f 79/141/313 75/142/314 73/143/315
f 79/141/316 73/143/317 77/144/318
f 75/131/319 79/132/320 76/126/321
f 76/126/322 79/132/323 80/125/324
f 80/140/325 74/138/326 76/139/327
f 74/138/328 80/140/329 78/137/330
f 74/130/331 81/124/332 91/127/333
f 81/124/334 74/130/335 78/133/336
f 82/129/337 77/134/338 73/123/339
f 82/129/340 73/123/341 92/128/342
f 74/136/343 93/146/344 76/135/345
f 93/146/346 74/136/347 91/145/348
f 86/150/349 85/149/350 83/147/351
f 84/148/352 83/147/353 85/149/354
f 88/152/355 83/154/356 84/153/357
f 83/154/358 88/152/359 87/151/360
f 87/158/361 88/157/362 90/156/363
f 87/158/364 90/156/365 89/155/366
f 90/161/367 91/160/368 81/159/369
f 90/161/370 81/159/371 89/162/372
f 82/165/373 85/163/374 86/166/375
f 85/163/376 82/165/377 92/164/378
f 93/170/379 90/168/380 88/167/381
f 90/168/382 93/170/383 91/169/384
