# This file uses feet as units for non-parametric coordinates.

g default
v -4.022858 -1.154541 1.408525
v -3.211159 -1.154404 1.073819
v -4.022911 1.154480 1.408454
v -3.211189 1.154404 1.073840
v -5.016388 1.154541 0.994924
v -5.016365 -1.154541 0.994943
v -5.427177 1.154541 0.000871
v -5.427177 -1.154541 0.001073
v -5.016281 1.154633 -0.993054
v -5.016373 -1.154541 -0.992791
v -4.022911 1.154602 -1.406447
v -4.022865 -1.154541 -1.406376
v -3.211243 1.154541 -1.071820
v -3.211212 -1.154541 -1.071799
v 0.000053 -1.154541 1.406377
v 0.996422 -1.154541 0.995663
v 0.000008 1.154602 1.406448
v 0.996399 1.154541 0.995682
v -0.808525 1.154678 1.069899
v -0.808510 -1.154678 1.069917
v -0.808571 1.154541 -1.071905
v 0.000000 1.154480 -1.408455
v -0.808563 -1.154541 -1.071922
v 0.000053 -1.154541 -1.408525
v 0.996536 1.154449 -0.997572
v 0.996429 -1.154541 -0.997809
v 1.410103 1.154541 -0.000877
v 1.410095 -1.154541 -0.001072
vt 0.786640 0.207385
vt 0.800709 0.207385
vt 0.800709 0.223154
vt 0.786640 0.223154
vt 0.820050 0.223153
vt 0.805981 0.223153
vt 0.805981 0.207384
vt 0.820050 0.207384
vt 0.756001 0.222540
vt 0.748938 0.222540
vt 0.748938 0.207387
vt 0.756001 0.207387
vt 0.761763 0.222540
vt 0.761763 0.207387
vt 0.978921 0.151580
vt 0.978921 0.167349
vt 0.963767 0.167349
vt 0.963767 0.151580
vt 0.741880 0.207387
vt 0.741880 0.222540
vt 0.734822 0.207387
vt 0.734822 0.222540
vt 0.727760 0.207387
vt 0.727760 0.222540
vt 0.721998 0.207387
vt 0.721999 0.222540
vt 0.978921 0.193541
vt 0.978921 0.209310
vt 0.963767 0.209310
vt 0.963767 0.193541
vt 0.637147 0.222544
vt 0.631399 0.222544
vt 0.631399 0.207389
vt 0.637147 0.207389
vt 0.644220 0.222544
vt 0.644220 0.207389
vt 0.651302 0.222544
vt 0.651302 0.207389
vt 0.665458 0.207389
vt 0.671205 0.207389
vt 0.671205 0.222544
vt 0.665457 0.222544
vt 0.658384 0.207389
vt 0.658383 0.222544
vn -0.000057 1.000000 0.000000
vn -0.000057 1.000000 0.000000
vn -0.000057 1.000000 0.000000
vn -0.000057 1.000000 0.000000
vn -0.000057 1.000000 0.000000
vn -0.000057 1.000000 0.000000
vn -0.000057 -1.000000 0.000000
vn -0.000057 -1.000000 0.000000
vn -0.000057 -1.000000 0.000000
vn -0.000057 -1.000000 0.000000
vn -0.000057 -1.000000 0.000000
vn -0.000057 -1.000000 0.000000
vn -0.707927 0.000014 0.706286
vn -0.707917 0.000014 0.706296
vn -0.043699 0.000015 0.999045
vn -0.043699 0.000015 0.999045
vn -0.707917 0.000014 0.706296
vn -0.043690 0.000015 0.999045
vn -0.043699 0.000015 0.999045
vn 0.381165 0.000017 0.924507
vn 0.381165 0.000017 0.924507
vn 0.381165 0.000017 0.924507
vn -0.043699 0.000015 0.999045
vn -0.043690 0.000015 0.999045
vn 0.001632 -0.000001 0.999999
vn 0.001632 -0.000001 0.999999
vn 0.001632 -0.000001 0.999999
vn 0.001632 -0.000001 0.999999
vn 0.001632 -0.000001 0.999999
vn 0.001632 -0.000001 0.999999
vn -0.707927 0.000014 0.706286
vn -1.000000 -0.000004 -0.000008
vn -0.707917 0.000014 0.706296
vn -1.000000 -0.000004 -0.000008
vn -0.707927 0.000014 0.706286
vn -1.000000 -0.000004 -0.000061
vn -1.000000 -0.000004 -0.000061
vn -0.707901 -0.000045 -0.706311
vn -1.000000 -0.000004 -0.000008
vn -0.707901 -0.000045 -0.706311
vn -1.000000 -0.000004 -0.000061
vn -0.707859 -0.000045 -0.706354
vn -0.707901 -0.000045 -0.706311
vn -0.043682 -0.000043 -0.999045
vn -0.043660 -0.000043 -0.999047
vn -0.043682 -0.000043 -0.999045
vn -0.707901 -0.000045 -0.706311
vn -0.707859 -0.000045 -0.706354
vn -0.043660 -0.000043 -0.999047
vn 0.381129 -0.000012 -0.924522
vn 0.381128 -0.000012 -0.924522
vn 0.381129 -0.000012 -0.924522
vn -0.043660 -0.000043 -0.999047
vn -0.043682 -0.000043 -0.999045
vn -0.000043 -0.000001 -1.000000
vn -0.000043 -0.000001 -1.000000
vn -0.000043 -0.000001 -1.000000
vn -0.000043 -0.000001 -1.000000
vn -0.000043 -0.000001 -1.000000
vn -0.000043 -0.000001 -1.000000
vn -0.384236 -0.000016 0.923235
vn 0.041067 -0.000015 0.999156
vn 0.041059 -0.000015 0.999157
vn 0.041067 -0.000015 0.999156
vn -0.384236 -0.000016 0.923235
vn -0.384236 -0.000016 0.923235
vn 0.041059 -0.000015 0.999157
vn 0.041067 -0.000015 0.999156
vn 0.706424 -0.000015 0.707789
vn 0.706424 -0.000015 0.707789
vn 0.041067 -0.000015 0.999156
vn 0.706434 -0.000015 0.707779
vn 0.706434 -0.000015 0.707779
vn 1.000000 -0.000001 0.000072
vn 0.706424 -0.000015 0.707789
vn 1.000000 -0.000001 0.000072
vn 0.706434 -0.000015 0.707779
vn 1.000000 -0.000001 0.000020
vn -0.384287 0.000012 -0.923214
vn 0.041062 0.000040 -0.999157
vn 0.041086 0.000040 -0.999156
vn 0.041062 0.000040 -0.999157
vn -0.384287 0.000012 -0.923214
vn -0.384287 0.000012 -0.923214
vn 0.041086 0.000040 -0.999156
vn 0.706490 0.000038 -0.707723
vn 0.706448 0.000038 -0.707765
vn 0.706490 0.000038 -0.707723
vn 0.041086 0.000040 -0.999156
vn 0.041062 0.000040 -0.999157
vn 0.706448 0.000038 -0.707765
vn 0.706490 0.000038 -0.707723
vn 1.000000 -0.000001 0.000020
vn 1.000000 -0.000001 0.000072
vn 1.000000 -0.000001 0.000020
vn 0.706490 0.000038 -0.707723
s off
g SM_RoomDivider_01c
f 4/4/1 19/1/2 13/3/3
f 19/1/4 21/2/5 13/3/6
f 20/8/7 14/6/8 23/7/9
f 14/6/10 20/8/11 2/5/12
f 5/10/13 6/11/14 3/9/15
f 3/9/16 6/11/17 1/12/18
f 3/9/19 2/14/20 4/13/21
f 2/14/22 3/9/23 1/12/24
f 2/17/25 19/15/26 4/16/27
f 19/15/28 2/17/29 20/18/30
f 5/10/31 8/19/32 6/11/33
f 8/19/34 5/10/35 7/20/36
f 7/20/37 10/21/38 8/19/39
f 10/21/40 7/20/41 9/22/42
f 10/21/43 11/24/44 12/23/45
f 11/24/46 10/21/47 9/22/48
f 12/23/49 13/26/50 14/25/51
f 13/26/52 12/23/53 11/24/54
f 14/28/55 21/30/56 23/27/57
f 21/30/58 14/28/59 13/29/60
f 19/32/61 15/34/62 17/31/63
f 15/34/64 19/32/65 20/33/66
f 17/31/67 15/34/68 18/35/69
f 18/35/70 15/34/71 16/36/72
f 16/36/73 27/37/74 18/35/75
f 27/37/76 16/36/77 28/38/78
f 23/40/79 22/42/80 24/39/81
f 22/42/82 23/40/83 21/41/84
f 24/39/85 25/44/86 26/43/87
f 25/44/88 24/39/89 22/42/90
f 26/43/91 25/44/92 28/38/93
f 27/37/94 28/38/95 25/44/96
