# This file uses feet as units for non-parametric coordinates.

g default
v -14.983974 77.896347 1.001163
v -9.268100 78.867783 -0.000000
v -14.983974 78.867783 -0.000000
v -9.268100 77.896347 -1.001164
v -14.983974 77.896347 -1.001164
v -9.268100 76.924911 -0.000000
v -14.983974 76.924911 -0.000000
v -9.268100 77.896347 1.001163
v -29.872204 150.152649 1.001163
v -35.231655 151.124084 -0.000000
v -29.872204 151.124084 -0.000000
v -35.231655 150.152649 -1.001164
v -29.872204 150.152649 -1.001164
v -35.231655 149.181198 -0.000000
v -29.872204 149.181198 -0.000000
v -35.231655 150.152649 1.001163
v -14.983974 130.029236 1.001163
v -9.268100 131.000671 -0.000000
v -14.983974 131.000671 -0.000000
v -9.268100 130.029236 -1.001164
v -14.983974 130.029236 -1.001164
v -9.268100 129.057785 -0.000000
v -14.983974 129.057785 -0.000000
v -9.268100 130.029236 1.001163
v -8.085601 49.689903 1.001163
v -2.726144 50.661335 -0.000000
v -8.085601 50.661335 -0.000000
v -2.726144 49.689903 -1.001164
v -8.085601 49.689903 -1.001164
v -2.726144 48.718472 -0.000000
v -8.085601 48.718472 -0.000000
v -2.726144 49.689903 1.001163
v -8.085601 107.747078 1.001163
v -2.726144 108.718513 -0.000000
v -8.085601 108.718513 -0.000000
v -2.726144 107.747078 -1.001164
v -8.085601 107.747078 -1.001164
v -2.726144 106.775642 -0.000000
v -8.085601 106.775642 -0.000000
v -2.726144 107.747078 1.001163
v -8.085601 150.152649 1.001163
v -2.726144 151.124084 -0.000000
v -8.085601 151.124084 -0.000000
v -2.726144 150.152649 -1.001164
v -8.085601 150.152649 -1.001164
v -2.726144 149.181198 -0.000000
v -8.085601 149.181198 -0.000000
v -2.726144 150.152649 1.001163
v -22.973829 130.029236 1.001163
v -28.689705 131.000671 -0.000000
v -22.973829 131.000671 -0.000000
v -28.689705 130.029236 -1.001164
v -22.973829 130.029236 -1.001164
v -28.689705 129.057785 -0.000000
v -22.973829 129.057785 -0.000000
v -28.689705 130.029236 1.001163
v -29.872204 107.747078 1.001163
v -35.231655 108.718513 -0.000000
v -29.872204 108.718513 -0.000000
v -35.231655 107.747078 -1.001164
v -29.872204 107.747078 -1.001164
v -35.231655 106.775642 -0.000000
v -29.872204 106.775642 -0.000000
v -35.231655 107.747078 1.001163
v -22.973829 77.896347 1.001168
v -28.689705 78.867783 0.000004
v -22.973829 78.867783 0.000004
v -28.689705 77.896347 -1.001159
v -22.973829 77.896347 -1.001159
v -28.689705 76.924911 0.000004
v -22.973829 76.924911 0.000004
v -28.689705 77.896347 1.001168
v -34.979778 7.465327 -0.575236
v -34.329086 7.465386 -1.225930
v -34.984207 19.232025 -0.575236
v -34.333500 19.191116 -1.225930
v -34.450775 23.444962 -0.575236
v -33.815708 23.280508 -1.225929
v -32.855686 27.428967 -0.575236
v -32.282902 27.108950 -1.225930
v -30.314987 30.854416 -0.575236
v -29.843367 30.398010 -1.225930
v -26.998880 33.486813 -0.575236
v -26.662533 32.923023 -1.225930
v -23.131958 35.143845 -0.575236
v -22.956743 34.511009 -1.225930
v -18.978903 35.709484 -0.575236
v -18.978903 35.052784 -1.225930
v -14.825845 35.143845 -0.575236
v -15.001059 34.511009 -1.225930
v -10.958921 33.486813 -0.575236
v -11.295270 32.923023 -1.225930
v -7.642821 30.854399 -0.575236
v -8.114442 30.397993 -1.225930
v -5.102121 27.428968 -0.575236
v -5.674903 27.108952 -1.225929
v -3.507030 23.444962 -0.575236
v -4.142096 23.280508 -1.225929
v -2.973595 19.232025 -0.575236
v -3.624304 19.191116 -1.225930
v -3.628722 7.465386 -1.225930
v -2.978028 7.465327 -0.575236
v -34.329086 7.465386 1.225930
v -34.979778 7.465327 0.575236
v -34.984207 19.232025 0.575236
v -34.333500 19.191116 1.225930
v -34.450775 23.444962 0.575236
v -33.815708 23.280508 1.225930
v -32.855686 27.428967 0.575236
v -32.282902 27.108950 1.225930
v -30.314987 30.854416 0.575236
v -29.843367 30.398010 1.225929
v -26.998880 33.486813 0.575236
v -26.662533 32.923023 1.225930
v -23.131958 35.143845 0.575236
v -22.956743 34.511009 1.225930
v -18.978903 35.709484 0.575236
v -18.978903 35.052784 1.225930
v -14.825845 35.143845 0.575236
v -15.001059 34.511009 1.225930
v -10.958921 33.486813 0.575236
v -11.295270 32.923023 1.225930
v -7.642821 30.854399 0.575236
v -8.114442 30.397993 1.225930
v -5.102121 27.428968 0.575236
v -5.674903 27.108952 1.225930
v -3.507030 23.444962 0.575236
v -4.142096 23.280508 1.225930
v -2.973595 19.232025 0.575236
v -3.624304 19.191116 1.225930
v -2.978028 7.465327 0.575236
v -3.628722 7.465386 1.225930
v -32.832714 7.465521 0.575236
v -33.483406 7.465462 1.225929
v -33.490746 19.136637 1.225929
v -32.840027 19.096590 0.575236
v -33.002419 23.068724 1.225930
v -32.367058 22.905022 0.575236
v -31.549200 26.698948 1.225929
v -30.976393 26.378979 0.575236
v -29.239569 29.813581 1.225929
v -28.767897 29.357229 0.575236
v -26.232166 32.201504 1.225930
v -25.895760 31.637747 0.575236
v -22.732649 33.701466 1.225929
v -22.557396 33.068638 0.575236
v -18.978903 34.212845 1.225930
v -18.978903 33.556141 0.575236
v -15.225154 33.701466 1.225930
v -15.400408 33.068638 0.575236
v -11.725639 32.201500 1.225930
v -12.062047 31.637747 0.575236
v -8.718241 29.813566 1.225929
v -9.189914 29.357214 0.575236
v -6.408609 26.698948 1.225930
v -6.981416 26.378979 0.575236
v -4.955389 23.068724 1.225930
v -5.590751 22.905022 0.575236
v -4.467056 19.136637 1.225930
v -5.117775 19.096590 0.575236
v -4.474397 7.465462 1.225930
v -5.125091 7.465521 0.575236
v -33.483406 7.465462 -1.225929
v -32.832714 7.465521 -0.575236
v -32.840027 19.096590 -0.575236
v -33.490746 19.136637 -1.225930
v -32.367058 22.905022 -0.575236
v -33.002419 23.068724 -1.225930
v -30.976393 26.378979 -0.575236
v -31.549200 26.698948 -1.225930
v -28.767897 29.357229 -0.575236
v -29.239569 29.813581 -1.225930
v -25.895760 31.637747 -0.575236
v -26.232166 32.201504 -1.225930
v -22.557396 33.068638 -0.575236
v -22.732649 33.701466 -1.225929
v -18.978903 33.556141 -0.575236
v -18.978903 34.212845 -1.225929
v -15.400408 33.068638 -0.575236
v -15.225154 33.701466 -1.225929
v -12.062047 31.637747 -0.575236
v -11.725639 32.201500 -1.225929
v -9.189914 29.357214 -0.575236
v -8.718241 29.813566 -1.225930
v -6.981416 26.378979 -0.575236
v -6.408609 26.698948 -1.225930
v -5.590751 22.905022 -0.575236
v -4.955389 23.068724 -1.225930
v -5.117775 19.096590 -0.575236
v -4.467056 19.136637 -1.225930
v -5.125091 7.465521 -0.575236
v -4.474397 7.465462 -1.225929
v -23.438765 34.377678 0.000000
v -23.436777 165.895309 0.000000
v -23.131033 165.847824 -1.029505
v -23.138645 34.377678 -1.020068
v -23.138645 34.377678 1.020068
v -23.131033 165.847824 1.029505
v -21.797462 168.248505 -1.028039
v -21.998268 168.476517 -0.000000
v -21.644117 165.616821 -1.038215
v -21.641653 34.377682 -1.036768
v -21.641653 34.377682 1.036768
v -21.644117 165.616821 1.038214
v -21.332098 165.568359 -0.000000
v -21.330111 34.377682 0.000000
v -21.797462 168.248505 1.028039
v -20.819513 167.138107 -1.042674
v -18.978903 169.674545 0.000000
v -18.978903 169.362442 -1.028466
v -20.819513 167.138107 1.042674
v -18.978903 169.362442 1.028466
v -15.959537 168.476517 -0.000000
v -20.611582 166.902344 -0.000000
v -16.160341 168.248505 1.028039
v -18.978903 167.842682 -1.040969
v -16.160341 168.248505 -1.028039
v -18.978903 167.521362 0.000000
v -18.978903 167.842682 1.040969
v -17.138292 167.138107 1.042674
v -17.138292 167.138107 -1.042674
v -14.826773 165.847824 -1.029505
v -14.521030 165.895309 0.000000
v -17.346224 166.902344 0.000000
v -14.826773 165.847824 1.029505
v -14.819160 34.377678 -1.020067
v -16.313692 165.616821 1.038214
v -14.819160 34.377678 1.020067
v -16.313692 165.616821 -1.038214
v -14.519043 34.377678 0.000000
v -16.316154 34.377682 -1.036768
v -16.316154 34.377682 1.036768
v -16.627699 34.377682 0.000000
v -16.625711 165.568359 0.000000
v -23.437693 105.190285 0.000000
v -23.134544 105.189209 -1.025153
v -23.134544 105.189209 1.025153
v -21.642982 105.183968 -1.037548
v -21.642982 105.183968 1.037548
v -21.331182 105.182877 -0.000000
v -14.823261 105.159958 -1.025150
v -14.823260 105.159950 1.025150
v -14.520115 105.158890 0.000000
v -16.314827 105.165199 -1.037548
v -16.314827 105.165207 1.037548
v -16.626627 105.166306 0.000000
v -30.275761 30.645557 -0.000002
v -30.274834 165.843033 -0.000002
v -29.968138 165.810669 -1.030458
v -29.988667 30.645557 -0.996055
v -29.988667 30.645557 0.996051
v -29.968138 165.810669 1.030455
v -29.138824 169.692261 -1.028684
v -29.138824 169.692261 1.028680
v -29.423578 169.818130 -0.000002
v -28.479019 165.653488 -1.036408
v -28.489649 30.645557 -1.050111
v -28.489649 30.645557 1.050108
v -28.479019 165.653488 1.036405
v -27.752516 169.079453 -1.040297
v -26.741547 173.035553 -1.028828
v -26.954094 173.262436 -0.000001
v -28.168032 165.620667 -0.000002
v -28.167105 30.645557 -0.000002
v -27.752516 169.079453 1.040293
v -26.741547 173.035553 1.028825
v -27.459951 168.950134 -0.000001
v -25.706923 171.931137 -1.039882
v -23.285551 175.546814 -0.000001
v -23.173243 175.257324 -1.028964
v -25.706923 171.931137 1.039879
v -23.173243 175.257324 1.028962
v -18.978897 176.345139 -0.000002
v -18.978897 176.034760 -1.029019
v -25.488829 171.698334 -0.000001
v -18.978897 176.034760 1.029015
v -22.626644 173.848358 -1.039511
v -14.672246 175.546814 -0.000002
v -14.784554 175.257324 -1.028964
v -22.626644 173.848358 1.039508
v -14.784554 175.257324 1.028960
v -11.003703 173.262436 -0.000002
v -11.216250 173.035553 -1.028826
v -22.511541 173.551636 -0.000001
v -11.216250 173.035553 1.028822
v -18.978897 174.524246 -1.039368
v -15.331153 173.848358 -1.039512
v -8.818976 169.692245 -1.028682
v -18.978897 174.206284 -0.000002
v -18.978897 174.524246 1.039365
v -15.331153 173.848358 1.039508
v -8.818976 169.692245 1.028678
v -12.250878 171.931137 -1.039883
v -8.534225 169.818100 -0.000002
v -12.250878 171.931137 1.039880
v -15.446256 173.551636 -0.000002
v -12.468974 171.698334 -0.000002
v -10.205287 169.079437 -1.040297
v -7.989671 165.810669 -1.030458
v -7.682975 165.843033 -0.000002
v -10.205287 169.079437 1.040294
v -7.989670 165.810669 1.030454
v -10.497851 168.950119 -0.000002
v -7.969141 30.645557 0.996051
v -9.478788 165.653488 -1.036408
v -7.969141 30.645557 -0.996055
v -7.682048 30.645557 -0.000002
v -9.478788 165.653488 1.036405
v -9.468159 30.645557 1.050108
v -9.789776 165.620667 -0.000002
v -9.468159 30.645557 -1.050111
v -9.790703 30.645557 -0.000002
v -30.275248 98.956421 -0.000002
v -29.977306 98.955376 -1.015093
v -29.977306 98.955368 1.015089
v -28.483797 98.950096 -1.042568
v -28.483797 98.950111 1.042565
v -28.167614 98.948997 -0.000002
v -7.980490 98.877914 1.015069
v -7.980490 98.877914 -1.015073
v -7.682561 98.876877 -0.000002
v -9.474005 98.883171 1.042572
v -9.474005 98.883171 -1.042575
v -9.790194 98.884277 -0.000002
v -36.691868 0.000051 -1.033058
v -36.692810 165.779144 -1.031402
v -36.096878 170.463791 -1.030009
v -34.330429 174.875504 -1.029979
v -31.517895 178.667328 -1.029937
v -27.848585 181.580017 -1.029893
v -23.571459 183.412781 -1.029861
v -18.978903 184.038254 -1.029849
v -14.386348 183.412781 -1.029862
v -10.109218 181.580017 -1.029895
v -6.439914 178.667297 -1.029938
v -3.627380 174.875504 -1.029979
v -1.860933 170.463791 -1.030009
v -1.264992 165.779144 -1.031402
v -1.265936 0.000051 -1.033058
v -37.000675 0.000051 0.000000
v -37.000336 165.798630 0.000000
v -36.395752 170.541290 0.000000
v -34.599995 175.026108 0.000000
v -31.739817 178.882095 0.000000
v -28.006834 181.845291 0.000000
v -23.653883 183.710495 0.000000
v -18.978903 184.347183 0.000000
v -14.303920 183.710495 0.000000
v -9.950971 181.845291 0.000000
v -6.217988 178.882080 -0.000001
v -3.357814 175.026123 -0.000001
v -1.562059 170.541290 0.000000
v -0.957466 165.798630 0.000000
v -0.957130 0.000051 0.000000
v -36.691868 0.000051 1.033058
v -36.692810 165.779144 1.031402
v -36.096878 170.463791 1.030009
v -34.330429 174.875504 1.029979
v -31.517895 178.667328 1.029937
v -27.848585 181.580017 1.029893
v -23.571459 183.412781 1.029861
v -18.978903 184.038254 1.029849
v -14.386348 183.412781 1.029862
v -10.109218 181.580017 1.029895
v -6.439914 178.667297 1.029938
v -3.627380 174.875504 1.029979
v -1.860932 170.463791 1.030009
v -1.264992 165.779144 1.031402
v -1.265936 0.000051 1.033058
v -35.200825 0.000051 1.033058
v -35.202465 165.684692 1.034985
v -34.644569 170.087204 1.037199
v -33.020466 174.143585 1.037255
v -30.439363 177.623566 1.037334
v -27.079464 180.290771 1.037418
v -23.170820 181.965714 1.037482
v -18.978903 182.536652 1.037504
v -14.786984 181.965714 1.037481
v -10.878343 180.290771 1.037418
v -7.518446 177.623550 1.037334
v -4.937343 174.143585 1.037255
v -3.313241 170.087204 1.037199
v -2.755338 165.684692 1.034985
v -2.756980 0.000051 1.033058
v -34.892017 0.000051 0.000000
v -34.892357 165.665039 -0.000000
v -34.340633 170.008377 -0.000000
v -32.746281 173.990387 -0.000001
v -30.213572 177.405060 -0.000001
v -26.918411 180.020798 0.000000
v -23.086914 181.662643 0.000000
v -18.978903 182.222153 0.000000
v -14.870891 181.662643 0.000000
v -11.039395 180.020798 0.000000
v -7.744237 177.405029 -0.000001
v -5.211527 173.990387 -0.000001
v -3.617174 170.008377 -0.000000
v -3.065450 165.665039 -0.000000
v -3.065786 0.000051 0.000000
v -35.200825 0.000051 -1.033058
v -35.202465 165.684692 -1.034985
v -34.644569 170.087204 -1.037199
v -33.020466 174.143585 -1.037256
v -30.439363 177.623566 -1.037335
v -27.079464 180.290771 -1.037418
v -23.170820 181.965714 -1.037482
v -18.978903 182.536652 -1.037504
v -14.786984 181.965714 -1.037481
v -10.878343 180.290771 -1.037418
v -7.518445 177.623550 -1.037335
v -4.937343 174.143585 -1.037256
v -3.313241 170.087204 -1.037199
v -2.755338 165.684692 -1.034985
v -2.756980 0.000051 -1.033058
v -37.000462 88.739807 0.000000
v -36.692467 88.738731 -1.032006
v -0.957343 88.612907 0.000000
v -1.265338 88.613983 -1.032008
v -36.692467 88.738724 1.032007
v -1.265338 88.613983 1.032008
v -35.201866 88.733475 1.034282
v -2.755939 88.619232 1.034281
v -34.892235 88.732391 -0.000000
v -3.065573 88.620331 -0.000000
v -35.201866 88.733475 -1.034282
v -2.755939 88.619232 -1.034281
v -29.872204 49.689903 1.001168
v -35.231655 50.661335 0.000004
v -29.872204 50.661335 0.000004
v -35.231655 49.689903 -1.001159
v -29.872204 49.689903 -1.001159
v -35.231655 48.718472 0.000004
v -29.872204 48.718472 0.000004
v -35.231655 49.689903 1.001168
vt 0.763735 0.376321
vt 0.763735 0.367735
vt 0.812546 0.367735
vt 0.812546 0.376321
vt 0.763735 0.359145
vt 0.812546 0.359145
vt 0.763735 0.350559
vt 0.812546 0.350559
vt 0.763735 0.384911
vt 0.812546 0.384911
vt 0.640052 0.136837
vt 0.688872 0.136837
vt 0.688872 0.145431
vt 0.640052 0.145431
vt 0.688872 0.154017
vt 0.640052 0.154017
vt 0.688872 0.162609
vt 0.640052 0.162609
vt 0.640052 0.128249
vt 0.688872 0.128249
vt 0.958627 0.178757
vt 0.958627 0.187345
vt 0.909814 0.187345
vt 0.909814 0.178757
vt 0.958627 0.195934
vt 0.909814 0.195934
vt 0.958627 0.204522
vt 0.909814 0.204522
vt 0.958627 0.170168
vt 0.909814 0.170168
vt 0.704643 0.359148
vt 0.704643 0.367735
vt 0.655830 0.367735
vt 0.655830 0.359148
vt 0.704643 0.376325
vt 0.655830 0.376325
vt 0.704643 0.384913
vt 0.655830 0.384913
vt 0.704643 0.350559
vt 0.655830 0.350559
vt 0.920450 0.359149
vt 0.920450 0.367733
vt 0.871640 0.367733
vt 0.871640 0.359149
vt 0.920450 0.376325
vt 0.871640 0.376325
vt 0.920450 0.384911
vt 0.871640 0.384911
vt 0.920450 0.350559
vt 0.871640 0.350559
vt 0.747957 0.154017
vt 0.747957 0.145428
vt 0.796774 0.145428
vt 0.796774 0.154017
vt 0.747957 0.136838
vt 0.796774 0.136838
vt 0.747957 0.128249
vt 0.796774 0.128249
vt 0.747957 0.162607
vt 0.796774 0.162607
vt 0.586099 0.171277
vt 0.634914 0.171277
vt 0.634914 0.179865
vt 0.586099 0.179865
vt 0.634914 0.188455
vt 0.586099 0.188455
vt 0.634914 0.197044
vt 0.586099 0.197044
vt 0.586099 0.162688
vt 0.634914 0.162688
vt 0.742819 0.193586
vt 0.694004 0.193586
vt 0.694004 0.184998
vt 0.742819 0.184998
vt 0.694004 0.176408
vt 0.742819 0.176408
vt 0.694004 0.167819
vt 0.742819 0.167819
vt 0.742819 0.202175
vt 0.694004 0.202175
vt 0.855862 0.136839
vt 0.904678 0.136839
vt 0.904678 0.145428
vt 0.855862 0.145428
vt 0.904678 0.154017
vt 0.855862 0.154017
vt 0.904678 0.162606
vt 0.855862 0.162606
vt 0.855862 0.128249
vt 0.904678 0.128249
vt 0.003310 0.296845
vt 0.003310 0.287825
vt 0.083906 0.287710
vt 0.083908 0.296585
vt 0.111764 0.287529
vt 0.111765 0.296190
vt 0.139426 0.287528
vt 0.139426 0.296182
vt 0.166860 0.287520
vt 0.166860 0.296171
vt 0.194060 0.287509
vt 0.194060 0.296145
vt 0.221015 0.287503
vt 0.221015 0.296122
vt 0.247864 0.287502
vt 0.247864 0.296118
vt 0.274716 0.287504
vt 0.274716 0.296125
vt 0.301680 0.287510
vt 0.301680 0.296146
vt 0.328876 0.287520
vt 0.328876 0.296171
vt 0.356311 0.287528
vt 0.356311 0.296182
vt 0.383972 0.287530
vt 0.383971 0.296190
vt 0.411829 0.287713
vt 0.411827 0.296589
vt 0.492433 0.287825
vt 0.492433 0.296847
vt 0.003310 0.279841
vt 0.003310 0.270829
vt 0.083908 0.271068
vt 0.083906 0.279943
vt 0.111765 0.271445
vt 0.111764 0.280116
vt 0.139426 0.271491
vt 0.139426 0.280146
vt 0.166860 0.271505
vt 0.166860 0.280157
vt 0.194060 0.271526
vt 0.194060 0.280158
vt 0.221015 0.271557
vt 0.221015 0.280171
vt 0.247864 0.271569
vt 0.247864 0.280178
vt 0.274716 0.271556
vt 0.274716 0.280172
vt 0.301680 0.271526
vt 0.301680 0.280158
vt 0.328876 0.271505
vt 0.328876 0.280157
vt 0.356311 0.271491
vt 0.356311 0.280146
vt 0.383971 0.271445
vt 0.383972 0.280116
vt 0.411827 0.271065
vt 0.411829 0.279940
vt 0.492433 0.270829
vt 0.492433 0.279841
vt 0.003310 0.264986
vt 0.003310 0.255967
vt 0.083906 0.256167
vt 0.083899 0.265262
vt 0.111764 0.256402
vt 0.111758 0.265710
vt 0.139426 0.256388
vt 0.139425 0.265752
vt 0.166860 0.256378
vt 0.166860 0.265760
vt 0.194060 0.256428
vt 0.194060 0.265801
vt 0.221015 0.256475
vt 0.221015 0.265842
vt 0.247864 0.256488
vt 0.247864 0.265856
vt 0.274716 0.256473
vt 0.274716 0.265841
vt 0.301680 0.256427
vt 0.301681 0.265800
vt 0.328876 0.256378
vt 0.328876 0.265760
vt 0.356311 0.256388
vt 0.356311 0.265752
vt 0.383972 0.256401
vt 0.383978 0.265709
vt 0.411829 0.256169
vt 0.411836 0.265263
vt 0.492433 0.255965
vt 0.492433 0.264985
vt 0.003310 0.247971
vt 0.003312 0.243448
vt 0.083906 0.243399
vt 0.083906 0.248012
vt 0.111764 0.243035
vt 0.111764 0.247864
vt 0.139426 0.242872
vt 0.139426 0.247755
vt 0.166860 0.242831
vt 0.166860 0.247725
vt 0.194060 0.242871
vt 0.194060 0.247769
vt 0.221015 0.242914
vt 0.221015 0.247813
vt 0.247864 0.242922
vt 0.247864 0.247823
vt 0.274716 0.242910
vt 0.274716 0.247810
vt 0.301680 0.242868
vt 0.301680 0.247767
vt 0.328876 0.242831
vt 0.328876 0.247725
vt 0.356311 0.242872
vt 0.356311 0.247755
vt 0.383972 0.243035
vt 0.383972 0.247864
vt 0.411829 0.243396
vt 0.411829 0.248010
vt 0.492430 0.243444
vt 0.492433 0.247968
vt 0.083899 0.302391
vt 0.003310 0.302701
vt 0.111758 0.301913
vt 0.139425 0.301920
vt 0.166860 0.301916
vt 0.194060 0.301876
vt 0.221015 0.301845
vt 0.247864 0.301840
vt 0.274716 0.301848
vt 0.301681 0.301878
vt 0.328876 0.301916
vt 0.356311 0.301920
vt 0.383978 0.301912
vt 0.411836 0.302392
vt 0.492433 0.302703
vt 0.003310 0.894195
vt 0.476071 0.894195
vt 0.476071 0.900278
vt 0.003310 0.900278
vt 0.003310 0.936761
vt 0.476071 0.936761
vt 0.476071 0.942847
vt 0.003310 0.942847
vt 0.935484 0.010621
vt 0.915746 0.010623
vt 0.915419 0.003317
vt 0.935353 0.003317
vt 0.003310 0.912442
vt 0.476071 0.912442
vt 0.003310 0.924602
vt 0.476071 0.924602
vt 0.915413 0.061746
vt 0.915743 0.054436
vt 0.935484 0.054436
vt 0.935350 0.061746
vt 0.936371 0.025230
vt 0.920408 0.025230
vt 0.920404 0.039834
vt 0.936371 0.039834
vt 0.476071 0.918518
vt 0.003310 0.918518
vt 0.936877 0.032527
vt 0.922704 0.032527
vt 0.954993 0.003317
vt 0.954984 0.010623
vt 0.954982 0.054436
vt 0.954995 0.061746
vt 0.954992 0.025230
vt 0.974626 0.003317
vt 0.974498 0.010623
vt 0.954997 0.039834
vt 0.974499 0.054436
vt 0.974630 0.061746
vt 0.973607 0.025230
vt 0.954990 0.032527
vt 0.973606 0.039834
vt 0.973105 0.032527
vt 0.994234 0.010623
vt 0.989576 0.025230
vt 0.994562 0.003317
vt 0.994237 0.054438
vt 0.989579 0.039834
vt 0.994566 0.061746
vt 0.408388 0.978447
vt 0.408388 0.990604
vt 0.003310 0.990604
vt 0.003310 0.978447
vt 0.003310 0.954141
vt 0.408388 0.954141
vt 0.408388 0.966294
vt 0.003310 0.966294
vt 0.970121 0.248915
vt 0.497535 0.248915
vt 0.497535 0.242831
vt 0.970121 0.242831
vt 0.987273 0.032527
vt 0.970121 0.291483
vt 0.497535 0.291483
vt 0.497535 0.285397
vt 0.970121 0.285397
vt 0.970121 0.267154
vt 0.497535 0.267154
vt 0.497535 0.261078
vt 0.970121 0.261078
vt 0.970121 0.273237
vt 0.497535 0.273237
vt 0.916164 0.882170
vt 0.916164 0.888983
vt 0.462415 0.888983
vt 0.462415 0.882170
vt 0.916164 0.834490
vt 0.916164 0.841307
vt 0.462415 0.841307
vt 0.462415 0.834490
vt 0.462415 0.868546
vt 0.916164 0.868546
vt 0.462415 0.854926
vt 0.916164 0.854926
vt 0.916164 0.861741
vt 0.462415 0.861741
vt 0.003310 0.996683
vt 0.408388 0.996683
vt 0.003310 0.948059
vt 0.408388 0.948059
vt 0.003310 0.972375
vt 0.408388 0.972375
vt 0.507715 0.611559
vt 0.962696 0.611559
vt 0.962696 0.617619
vt 0.507715 0.617619
vt 0.507715 0.653967
vt 0.962696 0.653967
vt 0.962696 0.660025
vt 0.507715 0.660025
vt 0.701807 0.010476
vt 0.673136 0.010476
vt 0.673136 0.003317
vt 0.701807 0.003317
vt 0.507715 0.629731
vt 0.962696 0.629731
vt 0.507715 0.641850
vt 0.962696 0.641850
vt 0.673136 0.060571
vt 0.673136 0.053415
vt 0.701807 0.053415
vt 0.701807 0.060571
vt 0.701807 0.024785
vt 0.673136 0.024785
vt 0.673136 0.039101
vt 0.701807 0.039101
vt 0.731050 0.003317
vt 0.731050 0.010476
vt 0.962696 0.635790
vt 0.507715 0.635790
vt 0.731050 0.060571
vt 0.731050 0.053415
vt 0.731050 0.024785
vt 0.701807 0.031942
vt 0.673136 0.031942
vt 0.731050 0.039101
vt 0.760998 0.003317
vt 0.760998 0.010476
vt 0.731050 0.031942
vt 0.760998 0.053415
vt 0.760998 0.060571
vt 0.760998 0.024785
vt 0.791672 0.003317
vt 0.791672 0.010476
vt 0.760998 0.039101
vt 0.791672 0.053415
vt 0.791672 0.060571
vt 0.791672 0.024785
vt 0.822344 0.003317
vt 0.822344 0.010476
vt 0.760998 0.031942
vt 0.791672 0.039101
vt 0.822344 0.053415
vt 0.822344 0.060571
vt 0.822344 0.024785
vt 0.852296 0.003317
vt 0.852296 0.010476
vt 0.822344 0.039101
vt 0.852296 0.053415
vt 0.852296 0.060571
vt 0.852296 0.024785
vt 0.881546 0.010476
vt 0.881546 0.003317
vt 0.791672 0.031942
vt 0.852296 0.039101
vt 0.881546 0.053415
vt 0.881546 0.060571
vt 0.881546 0.024785
vt 0.881546 0.039101
vt 0.822344 0.031942
vt 0.852296 0.031942
vt 0.910221 0.003317
vt 0.910221 0.010476
vt 0.910221 0.053415
vt 0.910221 0.039101
vt 0.910221 0.060571
vt 0.881546 0.031942
vt 0.910221 0.024785
vt 0.524512 0.778799
vt 0.971265 0.778799
vt 0.971265 0.790949
vt 0.524512 0.790949
vt 0.910221 0.031942
vt 0.003310 0.536456
vt 0.508352 0.536456
vt 0.508352 0.543190
vt 0.003310 0.543190
vt 0.971265 0.803101
vt 0.971265 0.815246
vt 0.524512 0.815246
vt 0.524512 0.803101
vt 0.003310 0.489333
vt 0.508352 0.489333
vt 0.508352 0.496064
vt 0.003310 0.496064
vt 0.003310 0.509528
vt 0.508352 0.509528
vt 0.508352 0.516263
vt 0.003310 0.516263
vt 0.508352 0.522996
vt 0.003310 0.522996
vt 0.502603 0.655046
vt 0.502603 0.661845
vt 0.003310 0.661845
vt 0.003310 0.655046
vt 0.502603 0.607472
vt 0.502603 0.614268
vt 0.003310 0.614268
vt 0.003310 0.607472
vt 0.003310 0.641457
vt 0.502603 0.641457
vt 0.003310 0.627862
vt 0.502603 0.627862
vt 0.502603 0.634660
vt 0.003310 0.634660
vt 0.524512 0.821323
vt 0.971265 0.821323
vt 0.524512 0.772725
vt 0.971265 0.772725
vt 0.524512 0.797026
vt 0.971265 0.797026
vt 0.596361 0.424056
vt 0.596361 0.430154
vt 0.003310 0.430154
vt 0.003310 0.424056
vt 0.513823 0.496322
vt 0.513823 0.489333
vt 0.548607 0.489333
vt 0.548607 0.496322
vt 0.583237 0.489333
vt 0.583237 0.496322
vt 0.617586 0.489333
vt 0.617586 0.496322
vt 0.651630 0.489333
vt 0.651630 0.496322
vt 0.685383 0.489333
vt 0.685383 0.496322
vt 0.718995 0.489333
vt 0.718995 0.496322
vt 0.752609 0.489333
vt 0.752609 0.496322
vt 0.786362 0.489333
vt 0.786362 0.496322
vt 0.820405 0.489333
vt 0.820405 0.496322
vt 0.854755 0.489333
vt 0.854755 0.496322
vt 0.889381 0.489333
vt 0.889381 0.496322
vt 0.924167 0.489333
vt 0.924167 0.496322
vt 0.519070 0.823188
vt 0.519070 0.829278
vt 0.003310 0.829278
vt 0.003310 0.823188
vt 0.596361 0.381400
vt 0.596361 0.387495
vt 0.003310 0.387495
vt 0.003310 0.381400
vt 0.513823 0.545234
vt 0.513823 0.538244
vt 0.548607 0.538244
vt 0.548607 0.545234
vt 0.583237 0.538244
vt 0.583237 0.545234
vt 0.617586 0.538244
vt 0.617586 0.545234
vt 0.651630 0.538244
vt 0.651630 0.545234
vt 0.685383 0.538244
vt 0.685383 0.545234
vt 0.718995 0.538244
vt 0.718995 0.545234
vt 0.752609 0.538244
vt 0.752609 0.545234
vt 0.786362 0.538244
vt 0.786362 0.545234
vt 0.820405 0.538244
vt 0.820405 0.545234
vt 0.854755 0.538244
vt 0.854755 0.545234
vt 0.889381 0.538244
vt 0.889381 0.545234
vt 0.924167 0.538244
vt 0.924167 0.545234
vt 0.519070 0.780566
vt 0.519070 0.786657
vt 0.003310 0.786657
vt 0.003310 0.780566
vt 0.596361 0.399680
vt 0.003310 0.399680
vt 0.513823 0.524272
vt 0.548607 0.524272
vt 0.583237 0.524272
vt 0.617586 0.524272
vt 0.651630 0.524272
vt 0.685383 0.524272
vt 0.718995 0.524272
vt 0.752609 0.524272
vt 0.786362 0.524272
vt 0.820405 0.524272
vt 0.854755 0.524272
vt 0.889381 0.524272
vt 0.924167 0.524272
vt 0.519070 0.798832
vt 0.003310 0.798832
vt 0.596361 0.405775
vt 0.003310 0.405775
vt 0.513823 0.517284
vt 0.548607 0.517284
vt 0.583237 0.517284
vt 0.617586 0.517284
vt 0.651630 0.517284
vt 0.685383 0.517284
vt 0.718995 0.517284
vt 0.752609 0.517284
vt 0.786362 0.517284
vt 0.820405 0.517284
vt 0.854755 0.517284
vt 0.889381 0.517284
vt 0.924167 0.517284
vt 0.519070 0.804920
vt 0.003310 0.804920
vt 0.596361 0.411870
vt 0.003310 0.411870
vt 0.513823 0.510296
vt 0.548607 0.510296
vt 0.583237 0.510296
vt 0.617586 0.510296
vt 0.651630 0.510296
vt 0.685383 0.510296
vt 0.718995 0.510296
vt 0.752609 0.510296
vt 0.786362 0.510296
vt 0.820405 0.510296
vt 0.854755 0.510296
vt 0.889381 0.510296
vt 0.924167 0.510296
vt 0.519070 0.811011
vt 0.003310 0.811011
vt 0.003310 0.189806
vt 0.003310 0.182974
vt 0.580968 0.182974
vt 0.580968 0.189806
vt 0.667690 0.111068
vt 0.667690 0.117904
vt 0.003310 0.117904
vt 0.003310 0.111068
vt 0.003310 0.237619
vt 0.003310 0.230787
vt 0.580968 0.230787
vt 0.580968 0.237619
vt 0.667690 0.063216
vt 0.667690 0.070055
vt 0.003310 0.070055
vt 0.003310 0.063216
vt 0.580968 0.217129
vt 0.003310 0.217129
vt 0.003310 0.083723
vt 0.667690 0.083723
vt 0.003310 0.210298
vt 0.580968 0.210298
vt 0.667690 0.090559
vt 0.003310 0.090559
vt 0.003310 0.203466
vt 0.580968 0.203466
vt 0.667690 0.097396
vt 0.003310 0.097396
vt 0.801909 0.176406
vt 0.850722 0.176406
vt 0.850722 0.184997
vt 0.801909 0.184997
vt 0.850722 0.193583
vt 0.801909 0.193583
vt 0.850722 0.202172
vt 0.801909 0.202172
vt 0.801909 0.167818
vt 0.850722 0.167818
vn 0.000000 1.000000 0.000000
vn 0.000000 1.000000 0.000000
vn 0.000000 -0.000000 1.000000
vn 0.000000 -0.000000 1.000000
vn 0.000000 -0.000000 -1.000000
vn 0.000000 -0.000000 -1.000000
vn 0.000000 -1.000000 0.000000
vn 0.000000 -1.000000 0.000000
vn 0.000000 0.000000 1.000000
vn 0.000000 0.000000 1.000000
vn 0.000000 1.000000 0.000000
vn 0.000000 1.000000 0.000000
vn 0.000000 0.000000 -1.000000
vn 0.000000 0.000000 -1.000000
vn 0.000000 -1.000000 0.000000
vn 0.000000 -1.000000 0.000000
vn 0.000000 1.000000 0.000000
vn 0.000000 1.000000 0.000000
vn 0.000000 0.000000 1.000000
vn 0.000000 0.000000 1.000000
vn 0.000000 0.000000 -1.000000
vn 0.000000 0.000000 -1.000000
vn 0.000000 -1.000000 0.000000
vn 0.000000 -1.000000 0.000000
vn 0.000000 1.000000 0.000000
vn 0.000000 1.000000 0.000000
vn 0.000000 -0.000000 1.000000
vn 0.000000 -0.000000 1.000000
vn 0.000000 -0.000000 -1.000000
vn 0.000000 -0.000000 -1.000000
vn 0.000000 -1.000000 0.000000
vn 0.000000 -1.000000 0.000000
vn 0.000000 1.000000 0.000000
vn 0.000000 1.000000 0.000000
vn 0.000000 0.000000 1.000000
vn 0.000000 0.000000 1.000000
vn 0.000000 0.000000 -1.000000
vn 0.000000 0.000000 -1.000000
vn 0.000000 -1.000000 0.000000
vn 0.000000 -1.000000 0.000000
vn 0.000000 1.000000 0.000000
vn 0.000000 1.000000 0.000000
vn 0.000000 0.000000 1.000000
vn 0.000000 0.000000 1.000000
vn 0.000000 0.000000 -1.000000
vn 0.000000 0.000000 -1.000000
vn 0.000000 -1.000000 0.000000
vn 0.000000 -1.000000 0.000000
vn 0.000000 -0.000000 1.000000
vn 0.000000 -0.000000 1.000000
vn 0.000000 1.000000 0.000000
vn 0.000000 1.000000 0.000000
vn 0.000000 0.000000 -1.000000
vn 0.000000 0.000000 -1.000000
vn 0.000000 -1.000000 0.000000
vn 0.000000 -1.000000 0.000000
vn 0.000000 0.000000 1.000000
vn 0.000000 0.000000 1.000000
vn 0.000000 1.000000 0.000000
vn 0.000000 1.000000 0.000000
vn 0.000000 0.000000 -1.000000
vn 0.000000 0.000000 -1.000000
vn 0.000000 -1.000000 0.000000
vn 0.000000 -1.000000 0.000000
vn 0.000000 0.000000 1.000000
vn 0.000000 0.000000 1.000000
vn 0.000000 1.000000 0.000000
vn 0.000000 1.000000 0.000000
vn 0.000000 0.000000 -1.000000
vn 0.000000 0.000000 -1.000000
vn 0.000000 -1.000000 0.000000
vn 0.000000 -1.000000 0.000000
vn -0.940620 -0.000354 -0.339460
vn -0.414073 0.013575 -0.910142
vn -0.399820 -0.000150 -0.916594
vn -0.942166 0.031084 -0.333701
vn -0.417970 0.108394 -0.901971
vn -0.914547 0.237376 -0.327500
vn -0.378691 0.211364 -0.901065
vn -0.825207 0.460602 -0.326923
vn -0.312250 0.301867 -0.900764
vn -0.679489 0.656924 -0.326720
vn -0.223011 0.373427 -0.900454
vn -0.484612 0.811507 -0.326509
vn -0.116301 0.419613 -0.900222
vn -0.252458 0.910912 -0.326350
vn 0.000000 0.435611 -0.900135
vn 0.000000 0.945270 -0.326291
vn 0.252458 0.910912 -0.326349
vn 0.116301 0.419614 -0.900221
vn 0.484614 0.811506 -0.326508
vn 0.223012 0.373427 -0.900454
vn 0.679489 0.656924 -0.326720
vn 0.312249 0.301867 -0.900765
vn 0.825207 0.460604 -0.326922
vn 0.378691 0.211365 -0.901065
vn 0.914547 0.237377 -0.327500
vn 0.417970 0.108394 -0.901971
vn 0.414073 0.013575 -0.910142
vn 0.942166 0.031084 -0.333702
vn 0.399821 -0.000151 -0.916593
vn 0.940620 -0.000354 -0.339461
vn -0.414073 0.013575 0.910142
vn -0.940621 -0.000354 0.339460
vn -0.399820 -0.000150 0.916594
vn -0.942166 0.031084 0.333701
vn -0.914547 0.237376 0.327500
vn -0.417970 0.108394 0.901971
vn -0.378691 0.211364 0.901065
vn -0.825207 0.460602 0.326923
vn -0.312249 0.301867 0.900765
vn -0.679489 0.656924 0.326721
vn -0.223011 0.373427 0.900455
vn -0.484612 0.811507 0.326509
vn -0.116300 0.419613 0.900222
vn -0.252458 0.910912 0.326350
vn 0.000000 0.435611 0.900135
vn 0.000000 0.945269 0.326291
vn 0.252458 0.910912 0.326349
vn 0.116300 0.419613 0.900221
vn 0.484614 0.811506 0.326508
vn 0.223012 0.373426 0.900455
vn 0.679489 0.656924 0.326720
vn 0.312249 0.301867 0.900765
vn 0.825207 0.460604 0.326922
vn 0.378691 0.211365 0.901065
vn 0.914547 0.237377 0.327500
vn 0.417970 0.108394 0.901971
vn 0.942166 0.031084 0.333702
vn 0.414073 0.013575 0.910142
vn 0.940620 -0.000354 0.339461
vn 0.399821 -0.000151 0.916593
vn 0.940406 0.000591 0.340054
vn 0.937609 -0.028394 0.346530
vn 0.398450 0.000251 0.917190
vn 0.383540 -0.011696 0.923450
vn 0.352427 -0.090339 0.931469
vn 0.904953 -0.231731 0.356875
vn 0.815592 -0.454963 0.357519
vn 0.317028 -0.176854 0.931781
vn 0.671537 -0.648810 0.357888
vn 0.260575 -0.251770 0.932047
vn 0.478914 -0.801419 0.358285
vn 0.185499 -0.310432 0.932321
vn 0.249480 -0.899542 0.358585
vn 0.096500 -0.347966 0.932527
vn -0.000000 -0.933454 0.358697
vn -0.000000 -0.360901 0.932604
vn -0.096500 -0.347966 0.932528
vn -0.249480 -0.899542 0.358585
vn -0.185499 -0.310430 0.932321
vn -0.478916 -0.801418 0.358286
vn -0.260575 -0.251770 0.932047
vn -0.671537 -0.648810 0.357888
vn -0.317027 -0.176854 0.931781
vn -0.815591 -0.454963 0.357519
vn -0.352426 -0.090339 0.931469
vn -0.904953 -0.231732 0.356876
vn -0.383540 -0.011696 0.923450
vn -0.937609 -0.028394 0.346530
vn -0.398450 0.000251 0.917190
vn -0.940405 0.000592 0.340055
vn 0.398450 0.000251 -0.917190
vn 0.937609 -0.028394 -0.346530
vn 0.940406 0.000591 -0.340054
vn 0.383539 -0.011696 -0.923450
vn 0.904953 -0.231731 -0.356875
vn 0.352427 -0.090339 -0.931469
vn 0.815592 -0.454963 -0.357519
vn 0.317028 -0.176855 -0.931781
vn 0.671537 -0.648810 -0.357888
vn 0.260575 -0.251770 -0.932047
vn 0.478914 -0.801419 -0.358285
vn 0.185499 -0.310432 -0.932321
vn 0.249480 -0.899542 -0.358585
vn 0.096500 -0.347966 -0.932527
vn -0.000000 -0.933454 -0.358697
vn -0.000000 -0.360900 -0.932604
vn -0.096500 -0.347966 -0.932528
vn -0.249480 -0.899542 -0.358586
vn -0.185499 -0.310430 -0.932321
vn -0.478916 -0.801418 -0.358286
vn -0.260576 -0.251770 -0.932047
vn -0.671537 -0.648810 -0.357888
vn -0.317027 -0.176855 -0.931781
vn -0.815591 -0.454963 -0.357519
vn -0.352426 -0.090339 -0.931469
vn -0.904953 -0.231732 -0.356876
vn -0.937609 -0.028394 -0.346530
vn -0.383540 -0.011696 -0.923450
vn -0.940406 0.000592 -0.340055
vn -0.398450 0.000251 -0.917190
vn -0.500832 -0.000017 -0.865545
vn -1.000000 0.000026 0.000000
vn -1.000000 0.000026 0.000000
vn -0.500147 -0.000017 -0.865941
vn -0.500832 -0.000017 0.865545
vn -0.500147 -0.000017 0.865941
vn -0.999775 0.021220 0.000000
vn -0.646528 0.762890 0.000000
vn -0.427703 0.504958 -0.749725
vn -0.545250 0.012317 -0.838183
vn 0.493577 -0.000022 -0.869702
vn 0.492727 -0.000022 -0.870184
vn 0.493577 -0.000022 0.869702
vn 0.492727 -0.000022 0.870184
vn -0.427703 0.504958 0.749725
vn -0.545250 0.012317 0.838183
vn 0.451769 -0.005470 -0.892118
vn 0.206642 -0.248317 -0.946382
vn 0.451769 -0.005470 0.892118
vn 0.206643 -0.248317 0.946381
vn 1.000000 0.000015 -0.000000
vn 1.000000 0.000015 -0.000000
vn 0.639454 -0.768829 -0.000001
vn 0.999917 -0.012917 -0.000000
vn -0.000000 1.000000 0.000000
vn -0.000000 0.664363 -0.747410
vn -0.000000 0.664364 0.747410
vn 0.000000 -0.322495 -0.946571
vn 0.427704 0.504959 -0.749724
vn 0.646528 0.762890 -0.000000
vn 0.000000 -0.322496 0.946571
vn 0.427705 0.504959 0.749723
vn -0.206642 -0.248316 -0.946382
vn 0.000000 -1.000000 0.000000
vn -0.206642 -0.248316 0.946382
vn -0.639455 -0.768829 0.000000
vn -0.451739 -0.005468 -0.892133
vn 0.545279 0.012312 -0.838164
vn 0.999775 0.021210 -0.000000
vn -0.451739 -0.005468 0.892134
vn 0.545279 0.012312 0.838164
vn -0.493723 -0.000022 -0.869619
vn 0.500696 -0.000017 -0.865623
vn 0.500696 -0.000017 0.865623
vn -0.493723 -0.000022 0.869619
vn 1.000000 0.000026 -0.000000
vn 1.000000 0.000026 -0.000000
vn 0.500119 -0.000017 -0.865957
vn -0.999917 -0.012913 -0.000000
vn 0.500119 -0.000017 0.865957
vn -1.000000 0.000015 0.000000
vn -1.000000 0.000015 0.000000
vn -0.492754 -0.000022 -0.870168
vn -0.492754 -0.000022 0.870168
vn -0.503391 -0.000033 -0.864059
vn -1.000000 0.000046 -0.000000
vn -1.000000 0.000042 0.000000
vn -0.505016 -0.000036 -0.863110
vn -0.503391 -0.000033 0.864058
vn -0.505016 -0.000036 0.863110
vn -0.999928 0.011980 0.000000
vn -0.912939 0.408097 0.000001
vn -0.523352 0.233967 -0.819367
vn -0.529527 0.006244 -0.848270
vn 0.488469 -0.000064 -0.872581
vn 0.484439 -0.000069 -0.874825
vn 0.488469 -0.000064 0.872581
vn 0.484439 -0.000069 0.874825
vn -0.523351 0.233966 0.819367
vn -0.529527 0.006244 0.848270
vn 0.376388 -0.166161 -0.911440
vn 0.464782 -0.004863 -0.885412
vn 0.376388 -0.166161 0.911440
vn 0.464782 -0.004863 0.885412
vn -0.391245 0.419313 -0.819210
vn -0.682215 0.731152 0.000001
vn 1.000000 -0.000021 0.000000
vn 1.000000 -0.000022 0.000000
vn -0.391245 0.419312 0.819210
vn 0.280949 -0.302018 -0.910963
vn 0.914809 -0.403886 -0.000001
vn 0.999947 -0.010251 -0.000000
vn 0.280949 -0.302018 0.910963
vn -0.360464 0.932773 -0.000000
vn -0.205416 0.531558 -0.821736
vn 0.681102 -0.732189 0.000000
vn -0.205416 0.531559 0.821736
vn 0.149986 -0.389194 -0.908863
vn 0.000000 1.000000 -0.000000
vn -0.000000 0.568447 -0.822720
vn 0.149987 -0.389195 0.908862
vn 0.000000 0.568448 0.822719
vn 0.000000 -0.418885 -0.908039
vn 0.205416 0.531559 -0.821735
vn 0.360464 0.932773 0.000000
vn 0.359595 -0.933108 0.000000
vn 0.000000 -0.418886 0.908039
vn 0.205416 0.531560 0.821735
vn -0.149986 -0.389194 -0.908863
vn 0.391245 0.419311 -0.819210
vn 0.682216 0.731150 0.000000
vn -0.149986 -0.389194 0.908863
vn 0.391246 0.419311 0.819210
vn -0.280948 -0.302015 -0.910964
vn 0.912940 0.408094 -0.000001
vn 0.523352 0.233967 -0.819367
vn -0.000000 -1.000000 -0.000000
vn -0.280947 -0.302014 0.910964
vn 0.523352 0.233967 0.819367
vn -0.376388 -0.166160 -0.911440
vn -0.376387 -0.166160 0.911441
vn -0.359596 -0.933108 0.000002
vn -0.681103 -0.732188 0.000002
vn 0.999928 0.011967 -0.000000
vn 0.529555 0.006238 -0.848253
vn 0.529555 0.006238 0.848253
vn -0.464751 -0.004858 0.885428
vn -0.914810 -0.403885 0.000001
vn -0.464751 -0.004858 -0.885428
vn 0.503393 -0.000033 0.864058
vn -0.488512 -0.000064 0.872557
vn -0.999948 -0.010241 0.000000
vn 1.000000 0.000042 -0.000000
vn 1.000000 0.000046 0.000000
vn 0.504990 -0.000036 -0.863125
vn 0.503393 -0.000033 -0.864058
vn -0.488512 -0.000064 -0.872557
vn 0.504990 -0.000036 0.863125
vn -1.000000 -0.000022 -0.000000
vn -0.484465 -0.000069 0.874811
vn -1.000000 -0.000021 0.000000
vn -0.484465 -0.000069 -0.874811
vn -1.000000 -0.000000 -0.000000
vn -0.498580 -0.000001 -0.866844
vn -0.498158 -0.000001 -0.867086
vn -1.000000 -0.000000 -0.000000
vn -0.999973 0.007336 0.000000
vn -0.525906 0.136694 -0.839487
vn -0.515717 0.003787 -0.856751
vn -0.967848 0.251537 -0.000001
vn -0.476880 0.266190 -0.837692
vn -0.873179 0.487399 -0.000003
vn -0.393272 0.380223 -0.837119
vn -0.718934 0.695079 -0.000001
vn -0.512701 0.858567 -0.000000
vn -0.280922 0.470431 -0.836527
vn -0.267073 0.963676 -0.000000
vn -0.146519 0.528683 -0.836078
vn 0.000000 1.000000 0.000000
vn -0.000000 0.548866 -0.835910
vn 0.146519 0.528683 -0.836078
vn 0.267073 0.963676 0.000000
vn 0.280926 0.470434 -0.836524
vn 0.512703 0.858566 0.000000
vn 0.393274 0.380225 -0.837117
vn 0.718933 0.695079 0.000001
vn 0.873178 0.487401 0.000003
vn 0.476882 0.266191 -0.837691
vn 0.967847 0.251538 0.000002
vn 0.525906 0.136694 -0.839487
vn 0.999973 0.007325 0.000000
vn 0.515740 0.003781 -0.856737
vn 1.000000 -0.000000 0.000000
vn 0.498454 -0.000001 -0.866916
vn -0.498580 -0.000001 0.866843
vn -0.498158 -0.000001 0.867086
vn -0.525907 0.136694 0.839486
vn -0.515717 0.003787 0.856751
vn -0.476882 0.266191 0.837691
vn -0.393272 0.380223 0.837118
vn -0.280922 0.470431 0.836527
vn -0.146519 0.528683 0.836078
vn -0.000000 0.548867 0.835910
vn 0.146519 0.528683 0.836078
vn 0.280925 0.470433 0.836525
vn 0.393272 0.380223 0.837119
vn 0.476881 0.266191 0.837691
vn 0.525906 0.136694 0.839487
vn 0.515740 0.003781 0.856737
vn 0.498454 -0.000001 0.866916
vn 0.497229 0.000001 0.867619
vn 0.497563 0.000002 0.867428
vn 0.434135 -0.111984 0.893860
vn 0.480292 -0.003279 0.877102
vn 0.389115 -0.217120 0.895236
vn 0.319673 -0.308948 0.895746
vn 0.227452 -0.380741 0.896271
vn 0.118280 -0.426612 0.896667
vn 0.000000 -0.442404 0.896816
vn -0.118279 -0.426610 0.896668
vn -0.227453 -0.380740 0.896271
vn -0.319675 -0.308950 0.895745
vn -0.389118 -0.217122 0.895235
vn -0.434137 -0.111985 0.893859
vn -0.480269 -0.003274 0.877115
vn -0.497353 0.000002 0.867548
vn 1.000000 0.000005 0.000000
vn 1.000000 0.000004 0.000000
vn 0.999977 -0.006833 0.000000
vn 0.968298 -0.249799 0.000000
vn 0.873256 -0.487262 -0.000000
vn 0.719066 -0.694942 -0.000000
vn 0.512849 -0.858479 0.000000
vn 0.267175 -0.963648 0.000000
vn 0.000000 -1.000000 -0.000000
vn -0.267175 -0.963648 0.000000
vn -0.512852 -0.858477 -0.000000
vn -0.719066 -0.694942 -0.000000
vn -0.873255 -0.487263 -0.000002
vn -0.968298 -0.249800 -0.000001
vn -0.999977 -0.006823 0.000000
vn -1.000000 0.000004 -0.000000
vn 0.497563 0.000002 -0.867428
vn 0.497229 0.000002 -0.867619
vn 0.480292 -0.003279 -0.877103
vn 0.434135 -0.111984 -0.893860
vn 0.389116 -0.217120 -0.895236
vn 0.319673 -0.308948 -0.895746
vn 0.227452 -0.380741 -0.896271
vn 0.118280 -0.426612 -0.896667
vn 0.000000 -0.442404 -0.896816
vn -0.118279 -0.426610 -0.896668
vn -0.227454 -0.380742 -0.896270
vn -0.319676 -0.308951 -0.895744
vn -0.389115 -0.217121 -0.895236
vn -0.434135 -0.111984 -0.893861
vn -0.480269 -0.003274 -0.877115
vn -0.497353 0.000002 -0.867548
vn 0.498136 -0.000001 -0.867099
vn 1.000000 -0.000000 0.000000
vn 0.498136 -0.000001 0.867099
vn -0.497585 0.000002 0.867415
vn -1.000000 0.000005 -0.000000
vn -0.497585 0.000002 -0.867415
vn 0.000000 -0.000000 1.000000
vn 0.000000 -0.000000 1.000000
vn 0.000000 1.000000 0.000000
vn 0.000000 1.000000 0.000000
vn 0.000000 -0.000000 -1.000000
vn 0.000000 -0.000000 -1.000000
vn 0.000000 -1.000000 0.000000
vn 0.000000 -1.000000 0.000000
s 1
g SM_RoomDivider_01b
f 2/2/1 3/3/2 8/1/3
f 1/4/4 8/1/3 3/3/2
f 4/5/5 5/6/6 2/2/1
f 3/3/2 2/2/1 5/6/6
f 7/8/7 4/5/5 6/7/8
f 4/5/5 7/8/7 5/6/6
f 1/4/4 6/9/8 8/1/3
f 6/9/8 1/4/4 7/10/7
s 3
f 16/11/9 9/12/10 11/13/11
f 16/11/9 11/13/11 10/14/12
f 10/14/12 11/13/11 13/15/13
f 10/14/12 13/15/13 12/16/14
f 15/17/15 14/18/16 12/16/14
f 15/17/15 12/16/14 13/15/13
f 9/12/10 16/11/9 14/19/16
f 9/12/10 14/19/16 15/20/15
s 5
f 18/22/17 19/23/18 24/21/19
f 17/24/20 24/21/19 19/23/18
f 20/25/21 21/26/22 18/22/17
f 19/23/18 18/22/17 21/26/22
f 23/28/23 20/25/21 22/27/24
f 20/25/21 23/28/23 21/26/22
f 17/24/20 22/29/24 24/21/19
f 22/29/24 17/24/20 23/30/23
s 7
f 26/32/25 27/33/26 32/31/27
f 25/34/28 32/31/27 27/33/26
f 28/35/29 29/36/30 26/32/25
f 27/33/26 26/32/25 29/36/30
f 31/38/31 28/35/29 30/37/32
f 28/35/29 31/38/31 29/36/30
f 25/34/28 30/39/32 32/31/27
f 30/39/32 25/34/28 31/40/31
s 9
f 34/42/33 35/43/34 40/41/35
f 33/44/36 40/41/35 35/43/34
f 36/45/37 37/46/38 34/42/33
f 35/43/34 34/42/33 37/46/38
f 39/48/39 36/45/37 38/47/40
f 36/45/37 39/48/39 37/46/38
f 33/44/36 38/49/40 40/41/35
f 38/49/40 33/44/36 39/50/39
s 11
f 42/52/41 43/53/42 48/51/43
f 41/54/44 48/51/43 43/53/42
f 44/55/45 45/56/46 42/52/41
f 43/53/42 42/52/41 45/56/46
f 47/58/47 44/55/45 46/57/48
f 44/55/45 47/58/47 45/56/46
f 41/54/44 46/59/48 48/51/43
f 46/59/48 41/54/44 47/60/47
s 13
f 56/61/49 49/62/50 51/63/51
f 56/61/49 51/63/51 50/64/52
f 50/64/52 51/63/51 53/65/53
f 50/64/52 53/65/53 52/66/54
f 55/67/55 54/68/56 52/66/54
f 55/67/55 52/66/54 53/65/53
f 49/62/50 56/61/49 54/69/56
f 49/62/50 54/69/56 55/70/55
s 15
f 64/71/57 57/72/58 59/73/59
f 64/71/57 59/73/59 58/74/60
f 58/74/60 59/73/59 61/75/61
f 58/74/60 61/75/61 60/76/62
f 63/77/63 62/78/64 60/76/62
f 63/77/63 60/76/62 61/75/61
f 57/72/58 64/71/57 62/79/64
f 57/72/58 62/79/64 63/80/63
s 17
f 72/81/65 65/82/66 67/83/67
f 72/81/65 67/83/67 66/84/68
f 69/85/69 66/84/68 67/83/67
f 66/84/68 69/85/69 68/86/70
f 71/87/71 70/88/72 68/86/70
f 71/87/71 68/86/70 69/85/69
f 65/82/66 72/81/65 70/89/72
f 65/82/66 70/89/72 71/90/71
s 19
f 73/92/73 76/94/74 74/91/75
f 76/94/74 73/92/73 75/93/76
f 75/93/76 78/96/77 76/94/74
f 78/96/77 75/93/76 77/95/78
f 77/95/78 80/98/79 78/96/77
f 80/98/79 77/95/78 79/97/80
f 79/97/80 82/100/81 80/98/79
f 82/100/81 79/97/80 81/99/82
f 84/102/83 81/99/82 83/101/84
f 81/99/82 84/102/83 82/100/81
f 86/104/85 83/101/84 85/103/86
f 83/101/84 86/104/85 84/102/83
f 85/103/86 88/106/87 86/104/85
f 88/106/87 85/103/86 87/105/88
f 87/105/88 89/107/89 88/106/87
f 88/106/87 89/107/89 90/108/90
f 89/107/89 91/109/91 90/108/90
f 90/108/90 91/109/91 92/110/92
f 91/109/91 93/111/93 92/110/92
f 92/110/92 93/111/93 94/112/94
f 95/113/95 94/112/94 93/111/93
f 94/112/94 95/113/95 96/114/96
f 97/115/97 96/114/96 95/113/95
f 96/114/96 97/115/97 98/116/98
f 100/118/99 98/116/98 99/117/100
f 99/117/100 98/116/98 97/115/97
f 101/120/101 100/118/99 102/119/102
f 102/119/102 100/118/99 99/117/100
f 106/123/103 104/121/104 103/122/105
f 104/121/104 106/123/103 105/124/106
f 107/126/107 105/124/106 108/125/108
f 108/125/108 105/124/106 106/123/103
f 107/126/107 110/127/109 109/128/110
f 110/127/109 107/126/107 108/125/108
f 112/129/111 109/128/110 110/127/109
f 109/128/110 112/129/111 111/130/112
f 114/131/113 111/130/112 112/129/111
f 111/130/112 114/131/113 113/132/114
f 116/133/115 113/132/114 114/131/113
f 113/132/114 116/133/115 115/134/116
f 116/133/115 118/135/117 115/134/116
f 117/136/118 115/134/116 118/135/117
f 118/135/117 119/138/119 117/136/118
f 119/138/119 118/135/117 120/137/120
f 121/140/121 120/137/120 122/139/122
f 120/137/120 121/140/121 119/138/119
f 123/142/123 122/139/122 124/141/124
f 122/139/122 123/142/123 121/140/121
f 125/144/125 124/141/124 126/143/126
f 124/141/124 125/144/125 123/142/123
f 126/143/126 127/146/127 125/144/125
f 127/146/127 126/143/126 128/145/128
f 128/145/128 129/148/129 127/146/127
f 129/148/129 128/145/128 130/147/130
f 130/147/130 131/150/131 129/148/129
f 131/150/131 130/147/130 132/149/132
f 133/152/133 136/153/134 134/151/135
f 135/154/136 134/151/135 136/153/134
f 137/156/137 135/154/136 138/155/138
f 138/155/138 135/154/136 136/153/134
f 137/156/137 140/157/139 139/158/140
f 140/157/139 137/156/137 138/155/138
f 142/159/141 139/158/140 140/157/139
f 139/158/140 142/159/141 141/160/142
f 144/161/143 141/160/142 142/159/141
f 141/160/142 144/161/143 143/162/144
f 146/163/145 143/162/144 144/161/143
f 143/162/144 146/163/145 145/164/146
f 146/163/145 148/165/147 145/164/146
f 147/166/148 145/164/146 148/165/147
f 148/165/147 149/168/149 147/166/148
f 149/168/149 148/165/147 150/167/150
f 151/170/151 150/167/150 152/169/152
f 150/167/150 151/170/151 149/168/149
f 153/172/153 152/169/152 154/171/154
f 152/169/152 153/172/153 151/170/151
f 155/174/155 154/171/154 156/173/156
f 154/171/154 155/174/155 153/172/153
f 156/173/156 157/176/157 155/174/155
f 157/176/157 156/173/156 158/175/158
f 158/175/158 159/178/159 157/176/157
f 159/178/159 158/175/158 160/177/160
f 160/177/160 161/180/161 159/178/159
f 161/180/161 160/177/160 162/179/162
f 163/182/163 165/184/164 164/181/165
f 165/184/164 163/182/163 166/183/166
f 166/183/166 167/186/167 165/184/164
f 167/186/167 166/183/166 168/185/168
f 168/185/168 169/188/169 167/186/167
f 169/188/169 168/185/168 170/187/170
f 170/187/170 171/190/171 169/188/169
f 171/190/171 170/187/170 172/189/172
f 173/192/173 172/189/172 174/191/174
f 172/189/172 173/192/173 171/190/171
f 175/194/175 174/191/174 176/193/176
f 174/191/174 175/194/175 173/192/173
f 176/193/176 177/196/177 175/194/175
f 177/196/177 176/193/176 178/195/178
f 178/195/178 180/197/179 177/196/177
f 177/196/177 180/197/179 179/198/180
f 180/197/179 182/199/181 179/198/180
f 179/198/180 182/199/181 181/200/182
f 182/199/181 184/201/183 181/200/182
f 181/200/182 184/201/183 183/202/184
f 186/203/185 183/202/184 184/201/183
f 183/202/184 186/203/185 185/204/186
f 188/205/187 185/204/186 186/203/185
f 185/204/186 188/205/187 187/206/188
f 189/208/189 187/206/188 190/207/190
f 190/207/190 187/206/188 188/205/187
f 191/210/191 189/208/189 192/209/192
f 192/209/192 189/208/189 190/207/190
f 105/124/106 73/92/73 104/121/104
f 73/92/73 105/124/106 75/93/76
f 105/124/106 107/126/107 77/95/78
f 105/124/106 77/95/78 75/93/76
f 109/128/110 77/95/78 107/126/107
f 77/95/78 109/128/110 79/97/80
f 111/130/112 79/97/80 109/128/110
f 79/97/80 111/130/112 81/99/82
f 111/130/112 113/132/114 83/101/84
f 111/130/112 83/101/84 81/99/82
f 115/134/116 83/101/84 113/132/114
f 83/101/84 115/134/116 85/103/86
f 115/134/116 117/136/118 87/105/88
f 115/134/116 87/105/88 85/103/86
f 117/136/118 119/138/119 89/107/89
f 117/136/118 89/107/89 87/105/88
f 119/138/119 121/140/121 91/109/91
f 119/138/119 91/109/91 89/107/89
f 123/142/123 91/109/91 121/140/121
f 91/109/91 123/142/123 93/111/93
f 123/142/123 125/144/125 95/113/95
f 123/142/123 95/113/95 93/111/93
f 125/144/125 127/146/127 97/115/97
f 125/144/125 97/115/97 95/113/95
f 129/148/129 97/115/97 127/146/127
f 97/115/97 129/148/129 99/117/100
f 129/148/129 131/150/131 102/119/102
f 129/148/129 102/119/102 99/117/100
f 135/154/136 103/122/105 134/151/135
f 103/122/105 135/154/136 106/123/103
f 137/156/137 106/123/103 135/154/136
f 106/123/103 137/156/137 108/125/108
f 139/158/140 108/125/108 137/156/137
f 108/125/108 139/158/140 110/127/109
f 141/160/142 110/127/109 139/158/140
f 110/127/109 141/160/142 112/129/111
f 143/162/144 112/129/111 141/160/142
f 112/129/111 143/162/144 114/131/113
f 114/131/113 145/164/146 116/133/115
f 145/164/146 114/131/113 143/162/144
f 116/133/115 147/166/148 118/135/117
f 147/166/148 116/133/115 145/164/146
f 120/137/120 118/135/117 147/166/148
f 120/137/120 147/166/148 149/168/149
f 149/168/149 151/170/151 122/139/122
f 122/139/122 120/137/120 149/168/149
f 151/170/151 153/172/153 124/141/124
f 124/141/124 122/139/122 151/170/151
f 153/172/153 155/174/155 126/143/126
f 126/143/126 124/141/124 153/172/153
f 128/145/128 155/174/155 157/176/157
f 155/174/155 128/145/128 126/143/126
f 130/147/130 157/176/157 159/178/159
f 157/176/157 130/147/130 128/145/128
f 132/149/132 130/147/130 159/178/159
f 159/178/159 161/180/161 132/149/132
f 164/181/165 136/153/134 133/152/133
f 136/153/134 164/181/165 165/184/164
f 136/153/134 167/186/167 138/155/138
f 167/186/167 136/153/134 165/184/164
f 140/157/139 138/155/138 167/186/167
f 140/157/139 167/186/167 169/188/169
f 140/157/139 171/190/171 142/159/141
f 171/190/171 140/157/139 169/188/169
f 142/159/141 173/192/173 144/161/143
f 173/192/173 142/159/141 171/190/171
f 146/163/145 144/161/143 173/192/173
f 146/163/145 173/192/173 175/194/175
f 146/163/145 177/196/177 148/165/147
f 177/196/177 146/163/145 175/194/175
f 150/167/150 148/165/147 177/196/177
f 150/167/150 177/196/177 179/198/180
f 179/198/180 152/169/152 150/167/150
f 152/169/152 179/198/180 181/200/182
f 154/171/154 152/169/152 181/200/182
f 154/171/154 181/200/182 183/202/184
f 154/171/154 185/204/186 156/173/156
f 185/204/186 154/171/154 183/202/184
f 158/175/158 156/173/156 185/204/186
f 158/175/158 185/204/186 187/206/188
f 160/177/160 158/175/158 187/206/188
f 160/177/160 187/206/188 189/208/189
f 160/177/160 191/210/191 162/179/162
f 191/210/191 160/177/160 189/208/189
f 74/91/75 166/211/166 163/212/163
f 166/211/166 74/91/75 76/94/74
f 168/213/168 76/94/74 78/96/77
f 76/94/74 168/213/168 166/211/166
f 78/96/77 80/98/79 170/214/170
f 78/96/77 170/214/170 168/213/168
f 80/98/79 82/100/81 172/215/172
f 80/98/79 172/215/172 170/214/170
f 82/100/81 84/102/83 174/216/174
f 174/216/174 172/215/172 82/100/81
f 84/102/83 86/104/85 176/217/176
f 176/217/176 174/216/174 84/102/83
f 178/218/178 176/217/176 86/104/85
f 178/218/178 86/104/85 88/106/87
f 178/218/178 90/108/90 180/219/179
f 90/108/90 178/218/178 88/106/87
f 180/219/179 92/110/92 182/220/181
f 92/110/92 180/219/179 90/108/90
f 94/112/94 182/220/181 92/110/92
f 182/220/181 94/112/94 184/221/183
f 96/114/96 184/221/183 94/112/94
f 184/221/183 96/114/96 186/222/185
f 98/116/98 186/222/185 96/114/96
f 186/222/185 98/116/98 188/223/187
f 100/118/99 188/223/187 98/116/98
f 188/223/187 100/118/99 190/224/190
f 101/120/101 190/224/190 100/118/99
f 190/224/190 101/120/101 192/225/192
s 29
f 236/228/193 193/226/194 235/227/195
f 193/226/194 236/228/193 196/229/196
f 237/231/197 193/233/194 197/230/198
f 193/233/194 237/231/197 235/232/195
f 194/236/199 200/237/200 199/234/201
f 194/236/199 199/234/201 195/235/202
f 196/229/196 238/239/203 202/238/204
f 238/239/203 196/229/196 236/228/193
f 239/241/205 197/230/198 203/240/206
f 197/230/198 239/241/205 237/231/197
f 207/244/207 194/242/199 198/243/208
f 194/242/199 207/244/207 200/245/200
f 199/234/201 201/247/209 195/235/202
f 201/247/209 199/234/201 208/246/210
f 207/244/207 198/243/208 204/248/211
f 207/244/207 204/248/211 211/249/212
f 240/250/213 206/251/214 202/238/204
f 240/250/213 202/238/204 238/239/203
f 203/240/206 240/250/213 239/241/205
f 240/250/213 203/240/206 206/251/214
f 214/252/215 205/253/216 201/247/209
f 201/247/209 208/246/210 214/252/215
f 211/249/212 204/248/211 214/252/215
f 204/248/211 205/253/216 214/252/215
f 209/254/217 199/234/201 200/237/200
f 199/234/201 209/254/217 210/255/218
f 207/244/207 209/257/217 200/245/200
f 209/257/217 207/244/207 212/256/219
f 216/258/220 208/246/210 199/234/201
f 216/258/220 199/234/201 210/255/218
f 209/254/217 217/260/221 210/255/218
f 217/260/221 209/254/217 213/259/222
f 219/261/223 207/244/207 211/249/212
f 212/256/219 207/244/207 219/261/223
f 215/262/224 209/257/217 212/256/219
f 209/257/217 215/262/224 213/263/222
f 210/255/218 217/260/221 216/258/220
f 216/258/220 217/260/221 221/264/225
f 218/265/226 214/252/215 216/258/220
f 214/252/215 208/246/210 216/258/220
f 214/252/215 219/261/223 211/249/212
f 219/261/223 214/252/215 218/265/226
f 215/262/224 212/256/219 219/261/223
f 215/262/224 219/261/223 220/266/227
f 216/258/220 224/267/228 218/265/226
f 224/267/228 216/258/220 221/264/225
f 220/266/227 219/261/223 224/267/228
f 219/261/223 218/265/226 224/267/228
f 217/260/221 229/269/229 221/264/225
f 229/269/229 217/260/221 222/268/230
f 223/270/231 217/260/221 213/259/222
f 217/260/221 223/270/231 222/268/230
f 215/262/224 227/272/232 225/271/233
f 227/272/232 215/262/224 220/266/227
f 215/262/224 225/271/233 223/273/231
f 223/273/231 213/263/222 215/262/224
f 244/277/234 229/274/229 241/276/235
f 241/276/235 229/274/229 222/275/230
f 227/280/232 242/278/236 225/279/233
f 242/278/236 227/280/232 245/281/237
f 243/284/238 230/285/239 226/282/240
f 243/284/238 226/282/240 241/283/235
f 234/286/241 224/267/228 229/269/229
f 224/267/228 221/264/225 229/269/229
f 220/266/227 224/267/228 227/272/232
f 227/272/232 224/267/228 234/286/241
f 228/290/242 243/288/238 242/289/236
f 243/288/238 228/290/242 230/287/239
f 244/293/234 233/291/243 246/292/244
f 233/291/243 244/293/234 231/294/245
f 245/296/237 233/291/243 232/295/246
f 233/291/243 245/296/237 246/292/244
f 235/298/195 195/300/202 236/297/193
f 195/300/202 235/298/195 194/299/199
f 198/303/208 235/301/195 237/302/197
f 235/301/195 198/303/208 194/304/199
f 201/305/209 238/306/203 236/297/193
f 236/297/193 195/300/202 201/305/209
f 198/303/208 237/302/197 204/307/211
f 204/307/211 237/302/197 239/308/205
f 238/306/203 205/310/216 240/309/213
f 205/310/216 238/306/203 201/305/209
f 240/309/213 205/310/216 239/308/205
f 204/307/211 239/308/205 205/310/216
f 231/294/245 241/283/235 226/282/240
f 241/283/235 231/294/245 244/293/234
f 245/296/237 232/295/246 242/289/236
f 242/289/236 232/295/246 228/290/242
f 241/276/235 222/275/230 243/311/238
f 223/312/231 243/311/238 222/275/230
f 243/313/238 225/279/233 242/278/236
f 225/279/233 243/313/238 223/314/231
f 234/316/241 244/277/234 246/315/244
f 244/277/234 234/316/241 229/274/229
f 245/281/237 234/316/241 246/315/244
f 234/316/241 245/281/237 227/280/232
s 38
f 314/319/247 247/317/248 313/318/249
f 247/317/248 314/319/247 250/320/250
f 315/322/251 247/324/248 251/321/252
f 247/324/248 315/322/251 313/323/249
f 248/327/253 255/328/254 253/325/255
f 248/327/253 253/325/255 249/326/256
f 250/320/250 316/330/257 257/329/258
f 316/330/257 250/320/250 314/319/247
f 317/332/259 251/321/252 258/331/260
f 251/321/252 317/332/259 315/322/251
f 254/335/261 248/333/253 252/334/262
f 248/333/253 254/335/261 255/336/254
f 249/326/256 253/325/255 260/337/263
f 249/326/256 260/337/263 256/338/264
f 265/340/265 252/334/262 259/339/266
f 252/334/262 265/340/265 254/335/261
f 255/328/254 261/342/267 253/325/255
f 261/342/267 255/328/254 262/341/268
f 318/343/269 264/344/270 257/329/258
f 318/343/269 257/329/258 316/330/257
f 258/331/260 318/343/269 317/332/259
f 318/343/269 258/331/260 264/344/270
f 266/346/271 255/336/254 254/335/261
f 255/336/254 266/346/271 262/345/268
f 261/342/267 260/337/263 253/325/255
f 260/337/263 261/342/267 268/347/272
f 267/348/273 263/349/274 256/338/264
f 267/348/273 256/338/264 260/337/263
f 263/349/274 267/348/273 259/339/266
f 265/340/265 259/339/266 267/348/273
f 265/340/265 266/346/271 254/335/261
f 266/346/271 265/340/265 271/350/275
f 269/351/276 261/342/267 262/341/268
f 261/342/267 269/351/276 270/352/277
f 260/337/263 275/353/278 267/348/273
f 275/353/278 260/337/263 268/347/272
f 265/340/265 275/353/278 271/350/275
f 275/353/278 265/340/265 267/348/273
f 266/346/271 269/355/276 262/345/268
f 269/355/276 266/346/271 272/354/279
f 270/352/277 268/347/272 261/342/267
f 268/347/272 270/352/277 277/356/280
f 273/357/281 270/352/277 269/351/276
f 270/352/277 273/357/281 274/358/282
f 271/350/275 272/354/279 266/346/271
f 272/354/279 271/350/275 280/359/283
f 272/354/279 273/361/281 269/355/276
f 273/361/281 272/354/279 276/360/284
f 286/362/285 277/356/280 274/358/282
f 277/356/280 270/352/277 274/358/282
f 273/357/281 279/364/286 274/358/282
f 279/364/286 273/357/281 278/363/287
f 268/347/272 277/356/280 275/353/278
f 284/365/288 275/353/278 277/356/280
f 280/359/283 271/350/275 275/353/278
f 280/359/283 275/353/278 284/365/288
f 280/359/283 276/360/284 272/354/279
f 276/360/284 280/359/283 290/366/289
f 281/367/290 273/361/281 276/360/284
f 273/361/281 281/367/290 278/368/287
f 287/369/291 286/362/285 274/358/282
f 274/358/282 279/364/286 287/369/291
f 278/363/287 283/371/292 279/364/286
f 283/371/292 278/363/287 282/370/293
f 276/360/284 291/372/294 281/367/290
f 291/372/294 276/360/284 290/366/289
f 285/373/295 278/368/287 281/367/290
f 278/368/287 285/373/295 282/374/293
f 279/364/286 293/375/296 287/369/291
f 293/375/296 279/364/286 283/371/292
f 294/377/297 283/371/292 282/370/293
f 283/371/292 294/377/297 288/376/298
f 284/365/288 286/362/285 289/378/299
f 286/362/285 284/365/288 277/356/280
f 290/366/289 280/359/283 284/365/288
f 290/366/289 284/365/288 289/378/299
f 295/379/300 281/367/290 291/372/294
f 281/367/290 295/379/300 285/373/295
f 285/373/295 294/381/297 282/374/293
f 294/381/297 285/373/295 292/380/301
f 283/371/292 298/382/302 293/375/296
f 298/382/302 283/371/292 288/376/298
f 301/383/303 285/373/295 295/379/300
f 285/373/295 301/383/303 292/380/301
f 296/384/304 289/378/299 286/362/285
f 296/384/304 286/362/285 287/369/291
f 297/385/305 296/384/304 287/369/291
f 297/385/305 287/369/291 293/375/296
f 300/386/306 288/376/298 294/377/297
f 288/376/298 300/386/306 299/387/307
f 290/366/289 296/384/304 291/372/294
f 296/384/304 290/366/289 289/378/299
f 291/372/294 297/385/305 295/379/300
f 297/385/305 291/372/294 296/384/304
f 302/388/308 301/383/303 308/389/309
f 301/383/303 302/388/308 292/380/301
f 292/380/301 302/388/308 300/390/306
f 292/380/301 300/390/306 294/381/297
f 297/385/305 298/382/302 303/391/310
f 298/382/302 297/385/305 293/375/296
f 299/387/307 298/382/302 288/376/298
f 298/382/302 299/387/307 305/392/311
f 297/385/305 301/383/303 295/379/300
f 301/383/303 297/385/305 303/391/310
f 308/395/309 319/393/312 302/394/308
f 319/393/312 308/395/309 322/396/313
f 298/382/302 305/392/311 303/391/310
f 310/397/314 303/391/310 305/392/311
f 321/400/315 307/401/316 306/398/317
f 321/400/315 306/398/317 320/399/318
f 323/405/319 305/402/311 320/404/318
f 320/404/318 305/402/311 299/403/307
f 308/389/309 301/383/303 303/391/310
f 308/389/309 303/391/310 310/397/314
f 304/409/320 321/407/315 319/408/312
f 321/407/315 304/409/320 307/406/316
f 322/411/313 312/413/321 309/410/322
f 312/413/321 322/411/313 324/412/323
f 312/413/321 324/412/323 323/414/319
f 312/413/321 323/414/319 311/415/324
f 313/417/249 249/419/256 314/416/247
f 249/419/256 313/417/249 248/418/253
f 252/422/262 313/420/249 315/421/251
f 313/420/249 252/422/262 248/423/253
f 256/424/264 316/425/257 314/416/247
f 314/416/247 249/419/256 256/424/264
f 252/422/262 315/421/251 259/426/266
f 259/426/266 315/421/251 317/427/259
f 316/425/257 263/429/274 318/428/269
f 263/429/274 316/425/257 256/424/264
f 318/428/269 263/429/274 317/427/259
f 259/426/266 317/427/259 263/429/274
f 322/411/313 309/410/322 319/408/312
f 319/408/312 309/410/322 304/409/320
f 320/404/318 299/403/307 321/430/315
f 300/431/306 321/430/315 299/403/307
f 311/415/324 320/399/318 306/398/317
f 320/399/318 311/415/324 323/414/319
f 321/432/315 302/394/308 319/393/312
f 302/394/308 321/432/315 300/433/306
f 322/396/313 310/435/314 324/434/323
f 310/435/314 322/396/313 308/395/309
f 310/435/314 323/405/319 324/434/323
f 323/405/319 310/435/314 305/402/311
s 45
f 340/437/325 416/439/326 325/436/327
f 416/439/326 340/437/325 415/438/328
f 341/441/329 327/443/330 326/440/331
f 327/443/330 341/441/329 342/442/332
f 342/442/332 328/445/333 327/443/330
f 328/445/333 342/442/332 343/444/334
f 343/444/334 329/447/335 328/445/333
f 329/447/335 343/444/334 344/446/336
f 345/448/337 329/447/335 344/446/336
f 329/447/335 345/448/337 330/449/338
f 346/450/339 330/449/338 345/448/337
f 330/449/338 346/450/339 331/451/340
f 347/452/341 331/451/340 346/450/339
f 331/451/340 347/452/341 332/453/342
f 347/452/341 333/455/343 332/453/342
f 333/455/343 347/452/341 348/454/344
f 348/454/344 334/457/345 333/455/343
f 334/457/345 348/454/344 349/456/346
f 349/456/346 335/459/347 334/457/345
f 335/459/347 349/456/346 350/458/348
f 351/460/349 335/459/347 350/458/348
f 335/459/347 351/460/349 336/461/350
f 352/462/351 336/461/350 351/460/349
f 336/461/350 352/462/351 337/463/352
f 353/464/353 337/463/352 352/462/351
f 337/463/352 353/464/353 338/465/354
f 417/468/355 338/466/354 353/467/353
f 338/466/354 417/468/355 418/469/356
f 419/472/357 340/470/325 355/471/358
f 340/470/325 419/472/357 415/473/328
f 357/476/359 341/474/329 356/475/360
f 341/474/329 357/476/359 342/477/332
f 358/478/361 342/477/332 357/476/359
f 342/477/332 358/478/361 343/479/334
f 359/480/362 343/479/334 358/478/361
f 343/479/334 359/480/362 344/481/336
f 359/480/362 345/483/337 344/481/336
f 345/483/337 359/480/362 360/482/363
f 360/482/363 346/485/339 345/483/337
f 346/485/339 360/482/363 361/484/364
f 361/484/364 347/487/341 346/485/339
f 347/487/341 361/484/364 362/486/365
f 363/488/366 347/487/341 362/486/365
f 347/487/341 363/488/366 348/489/344
f 364/490/367 348/489/344 363/488/366
f 348/489/344 364/490/367 349/491/346
f 365/492/368 349/491/346 364/490/367
f 349/491/346 365/492/368 350/493/348
f 365/492/368 351/495/349 350/493/348
f 351/495/349 365/492/368 366/494/369
f 366/494/369 352/497/351 351/495/349
f 352/497/351 366/494/369 367/496/370
f 367/496/370 353/499/353 352/497/351
f 353/499/353 367/496/370 368/498/371
f 368/501/371 417/503/355 353/500/353
f 417/503/355 368/501/371 420/502/372
f 421/505/373 355/471/358 370/504/374
f 355/471/358 421/505/373 419/472/357
f 372/507/375 356/475/360 371/506/376
f 356/475/360 372/507/375 357/476/359
f 373/508/377 357/476/359 372/507/375
f 357/476/359 373/508/377 358/478/361
f 374/509/378 358/478/361 373/508/377
f 358/478/361 374/509/378 359/480/362
f 375/510/379 359/480/362 374/509/378
f 359/480/362 375/510/379 360/482/363
f 360/482/363 376/511/380 361/484/364
f 376/511/380 360/482/363 375/510/379
f 361/484/364 377/512/381 362/486/365
f 377/512/381 361/484/364 376/511/380
f 363/488/366 362/486/365 377/512/381
f 363/488/366 377/512/381 378/513/382
f 378/513/382 379/514/383 364/490/367
f 364/490/367 363/488/366 378/513/382
f 379/514/383 380/515/384 365/492/368
f 365/492/368 364/490/367 379/514/383
f 380/515/384 381/516/385 366/494/369
f 366/494/369 365/492/368 380/515/384
f 367/496/370 381/516/385 382/517/386
f 381/516/385 367/496/370 366/494/369
f 368/498/371 382/517/386 383/518/387
f 382/517/386 368/498/371 367/496/370
f 383/519/387 420/502/372 368/501/371
f 420/502/372 383/519/387 422/520/388
f 385/521/389 423/522/390 370/504/374
f 421/505/373 370/504/374 423/522/390
f 386/523/391 387/524/392 371/506/376
f 372/507/375 371/506/376 387/524/392
f 387/524/392 388/525/393 372/507/375
f 373/508/377 372/507/375 388/525/393
f 388/525/393 389/526/394 373/508/377
f 374/509/378 373/508/377 389/526/394
f 389/526/394 375/510/379 374/509/378
f 375/510/379 389/526/394 390/527/395
f 390/527/395 376/511/380 375/510/379
f 376/511/380 390/527/395 391/528/396
f 391/528/396 377/512/381 376/511/380
f 377/512/381 391/528/396 392/529/397
f 392/529/397 393/530/398 377/512/381
f 378/513/382 377/512/381 393/530/398
f 393/530/398 394/531/399 378/513/382
f 379/514/383 378/513/382 394/531/399
f 394/531/399 395/532/400 379/514/383
f 380/515/384 379/514/383 395/532/400
f 395/532/400 381/516/385 380/515/384
f 381/516/385 395/532/400 396/533/401
f 396/533/401 382/517/386 381/516/385
f 382/517/386 396/533/401 397/534/402
f 397/534/402 383/518/387 382/517/386
f 383/518/387 397/534/402 398/535/403
f 398/536/403 422/520/388 383/519/387
f 422/520/388 398/536/403 424/537/404
f 400/538/405 423/522/390 385/521/389
f 423/522/390 400/538/405 425/539/406
f 401/540/407 387/524/392 386/523/391
f 387/524/392 401/540/407 402/541/408
f 402/541/408 388/525/393 387/524/392
f 388/525/393 402/541/408 403/542/409
f 403/542/409 389/526/394 388/525/393
f 389/526/394 403/542/409 404/543/410
f 404/543/410 405/544/411 389/526/394
f 390/527/395 389/526/394 405/544/411
f 405/544/411 406/545/412 390/527/395
f 391/528/396 390/527/395 406/545/412
f 406/545/412 407/546/413 391/528/396
f 392/529/397 391/528/396 407/546/413
f 407/546/413 393/530/398 392/529/397
f 393/530/398 407/546/413 408/547/414
f 408/547/414 394/531/399 393/530/398
f 394/531/399 408/547/414 409/548/415
f 409/548/415 395/532/400 394/531/399
f 395/532/400 409/548/415 410/549/416
f 410/549/416 411/550/417 395/532/400
f 396/533/401 395/532/400 411/550/417
f 411/550/417 412/551/418 396/533/401
f 397/534/402 396/533/401 412/551/418
f 412/551/418 413/552/419 397/534/402
f 398/535/403 397/534/402 413/552/419
f 413/553/419 426/554/420 398/536/403
f 424/537/404 398/536/403 426/554/420
f 325/436/327 425/539/406 400/538/405
f 425/539/406 325/436/327 416/439/326
f 402/541/408 326/440/331 327/443/330
f 326/440/331 402/541/408 401/540/407
f 327/443/330 328/445/333 403/542/409
f 327/443/330 403/542/409 402/541/408
f 328/445/333 329/447/335 404/543/410
f 328/445/333 404/543/410 403/542/409
f 329/447/335 330/449/338 405/544/411
f 405/544/411 404/543/410 329/447/335
f 330/449/338 331/451/340 406/545/412
f 406/545/412 405/544/411 330/449/338
f 407/546/413 406/545/412 331/451/340
f 407/546/413 331/451/340 332/453/342
f 407/546/413 333/455/343 408/547/414
f 333/455/343 407/546/413 332/453/342
f 408/547/414 334/457/345 409/548/415
f 334/457/345 408/547/414 333/455/343
f 335/459/347 409/548/415 334/457/345
f 409/548/415 335/459/347 410/549/416
f 336/461/350 410/549/416 335/459/347
f 410/549/416 336/461/350 411/550/417
f 337/463/352 411/550/417 336/461/350
f 411/550/417 337/463/352 412/551/418
f 338/465/354 412/551/418 337/463/352
f 412/551/418 338/465/354 413/552/419
f 418/469/356 413/553/419 338/466/354
f 413/553/419 418/469/356 426/554/420
f 415/556/328 326/558/331 416/555/326
f 326/558/331 415/556/328 341/557/329
f 417/560/355 339/562/421 418/559/356
f 339/562/421 417/560/355 354/561/422
f 356/565/360 415/563/328 419/564/357
f 415/563/328 356/565/360 341/566/329
f 369/569/423 417/567/355 420/568/372
f 417/567/355 369/569/423 354/570/422
f 356/565/360 419/564/357 371/571/376
f 371/571/376 419/564/357 421/572/373
f 422/574/388 384/573/424 420/568/372
f 420/568/372 384/573/424 369/569/423
f 423/575/390 386/576/391 421/572/373
f 371/571/376 421/572/373 386/576/391
f 424/577/404 399/578/425 422/574/388
f 384/573/424 422/574/388 399/578/425
f 425/579/406 386/576/391 423/575/390
f 386/576/391 425/579/406 401/580/407
f 426/581/420 399/578/425 424/577/404
f 399/578/425 426/581/420 414/582/426
f 416/555/326 401/580/407 425/579/406
f 401/580/407 416/555/326 326/558/331
f 414/582/426 418/559/356 339/562/421
f 418/559/356 414/582/426 426/581/420
s 52
f 434/583/427 427/584/428 429/585/429
f 434/583/427 429/585/429 428/586/430
f 431/587/431 428/586/430 429/585/429
f 428/586/430 431/587/431 430/588/432
f 433/589/433 432/590/434 430/588/432
f 433/589/433 430/588/432 431/587/431
f 427/584/428 434/583/427 432/591/434
f 427/584/428 432/591/434 433/592/433
