# This file uses feet as units for non-parametric coordinates.

g default
v 0.608912 0.546665 0.000001
v -0.494903 0.549084 -0.000001
v -0.485524 4.828286 0.000001
v 0.618291 4.825867 0.000001
v -0.219746 4.827704 0.000001
v -0.212255 8.246533 0.000001
v 0.361995 8.245273 0.000001
v 0.354508 4.826446 0.000001
v -0.016611 8.912072 0.000001
v -0.018065 8.246107 0.000001
v 0.192166 8.911616 0.000001
v 0.190705 8.245649 0.000001
vt 0.303621 0.962620
vt 0.303621 0.950304
vt 0.252411 0.950304
vt 0.252411 0.962620
vt 0.252411 0.953269
vt 0.211497 0.953269
vt 0.211497 0.959676
vt 0.252411 0.959676
vt 0.203527 0.955436
vt 0.211497 0.955436
vt 0.203527 0.957765
vt 0.211497 0.957765
vn -0.000000 -0.000000 1.000000
vn -0.000001 -0.000000 1.000000
vn -0.000000 -0.000000 1.000000
vn -0.000000 -0.000000 1.000000
vn 0.000000 0.000000 1.000000
vn 0.000000 0.000000 1.000000
vn 0.000000 0.000000 1.000000
vn 0.000000 0.000000 1.000000
vn 0.000000 0.000000 1.000000
vn 0.000000 0.000000 1.000000
vn -0.000001 -0.000000 1.000000
vn 0.000000 0.000000 1.000000
vn -0.000000 -0.000000 1.000000
vn -0.000001 -0.000000 1.000000
vn -0.000000 -0.000000 1.000000
vn -0.000001 -0.000000 1.000000
vn -0.000000 -0.000000 1.000000
vn -0.000000 -0.000000 1.000000
vn 0.000000 0.000000 1.000000
vn 0.000000 0.000000 1.000000
vn -0.000000 -0.000000 1.000000
vn -0.000000 -0.000000 1.000000
vn 0.000000 0.000000 1.000000
vn 0.000000 0.000000 1.000000
s off
g SM_Clock_01f
f 3/3/1 2/2/2 5/5/3
f 5/5/4 10/10/5 6/6/6
s 1
f 12/12/7 11/11/8 10/10/9
f 10/10/9 11/11/8 9/9/10
s off
f 1/1/11 4/4/12 8/8/13
s 2
f 1/1/14 8/8/15 2/2/16
f 2/2/16 8/8/15 5/5/17
s off
f 8/8/18 7/7/19 12/12/20
s 3
f 5/5/21 8/8/22 10/10/23
f 10/10/23 8/8/22 12/12/24
