# This file uses feet as units for non-parametric coordinates.

g default
v -0.587631 4.376627 0.000001
v 0.741999 4.376627 0.000001
v -0.062386 4.946546 0.000001
v -0.062386 5.860256 0.000001
v -0.238670 4.376627 0.000001
v -0.238670 4.946546 0.000001
v 0.418648 4.946546 0.000001
v -0.587631 1.495966 -0.000001
v -0.248400 1.495888 0.000001
v 0.741999 1.493116 0.000001
v -0.248400 0.520041 0.000001
v 0.403057 0.519892 0.000001
v 0.403057 1.495737 0.000001
v 0.418648 4.376627 0.000001
v 0.244524 4.946546 0.000001
v 0.244524 5.860184 0.000001
vt 0.263023 0.970257
vt 0.263050 0.985097
vt 0.256728 0.975854
vt 0.246645 0.975747
vt 0.263023 0.974167
vt 0.256728 0.974014
vt 0.256757 0.981416
vt 0.294843 0.969999
vt 0.294843 0.973908
vt 0.294870 0.984835
vt 0.303548 0.973908
vt 0.303548 0.981176
vt 0.294843 0.981176
vt 0.263022 0.981435
vt 0.256728 0.979278
vt 0.246645 0.979171
vn -0.000001 -0.000000 1.000000
vn 0.000000 -0.000000 1.000000
vn 0.000000 -0.000000 1.000000
vn 0.000000 -0.000000 1.000000
vn 0.000000 -0.000000 1.000000
vn -0.000001 -0.000000 1.000000
vn 0.000000 -0.000000 1.000000
vn -0.000001 -0.000000 1.000000
vn 0.000000 -0.000000 1.000000
vn -0.000001 -0.000000 1.000000
vn 0.000000 -0.000000 1.000000
vn -0.000001 -0.000000 1.000000
vn 0.000000 -0.000000 1.000000
vn 0.000000 -0.000000 1.000000
vn 0.000000 -0.000000 1.000000
vn -0.000001 -0.000000 1.000000
vn -0.000003 -0.000000 1.000000
vn -0.000001 -0.000000 1.000000
vn -0.000003 -0.000000 1.000000
vn 0.000000 -0.000000 1.000000
vn 0.000000 -0.000000 1.000000
vn 0.000000 -0.000000 1.000000
vn 0.000000 -0.000000 1.000000
vn 0.000000 -0.000000 1.000000
vn 0.000000 -0.000000 1.000000
vn 0.000000 -0.000000 1.000000
vn 0.000000 -0.000000 1.000000
vn 0.000000 -0.000000 1.000000
vn 0.000000 -0.000000 1.000000
vn 0.000000 -0.000000 1.000000
s off
g SM_Clock_01e
f 5/5/1 3/3/2 6/6/3
s 1
f 11/11/4 12/12/5 9/9/6
f 9/9/6 12/12/5 13/13/7
s 2
f 9/9/8 13/13/9 5/5/10
f 5/5/10 13/13/9 14/14/11
s 3
f 5/5/12 14/14/13 3/3/14
f 3/3/14 14/14/13 15/15/15
s 4
f 5/5/16 1/1/17 9/9/18
f 9/9/18 1/1/17 8/8/19
s 5
f 10/10/20 2/2/21 13/13/22
f 13/13/22 2/2/21 14/14/23
s 6
f 4/4/24 3/3/25 16/16/26
f 16/16/26 3/3/25 15/15/27
s off
f 14/14/28 7/7/29 15/15/30
