# This file uses feet as units for non-parametric coordinates.

g default
v -0.208762 0.553998 0.000000
v 0.260839 0.553998 0.000000
v -0.465705 0.553998 0.000000
v -0.456210 -0.406137 0.000000
v 0.537734 0.553998 0.000000
v 0.547228 -0.406137 0.000000
v 0.260839 12.995214 0.000002
v 0.014135 13.294075 0.000002
v -0.208762 12.995214 0.000004
vt 0.339459 0.916287
vt 0.339459 0.921532
vt 0.339459 0.913353
vt 0.350607 0.913353
vt 0.339459 0.924555
vt 0.350607 0.924555
vt 0.194752 0.921532
vt 0.191545 0.918777
vt 0.195287 0.916287
vn 0.000001 -0.000000 1.000000
vn 0.000000 -0.000000 1.000000
vn 0.000000 -0.000000 1.000000
vn 0.000000 -0.000000 1.000000
vn 0.000001 -0.000000 1.000000
vn 0.000000 -0.000000 1.000000
vn 0.000001 -0.000000 1.000000
vn 0.000003 0.000001 1.000000
vn 0.000003 0.000001 1.000000
vn 0.000001 -0.000000 1.000000
vn 0.000001 -0.000000 1.000000
vn 0.000000 -0.000000 1.000000
vn 0.000001 -0.000000 1.000000
vn 0.000000 -0.000000 1.000000
vn 0.000003 0.000001 1.000000
vn 0.000004 0.000003 1.000000
vn 0.000003 0.000001 1.000000
s off
g SM_Clock_01d
f 1/1/1 3/3/2 4/4/3
s 1
f 6/6/4 2/2/5 4/4/6
f 4/4/6 2/2/5 1/1/7
s 2
f 7/7/8 9/9/9 2/2/10
f 2/2/10 9/9/9 1/1/11
s off
f 5/5/12 2/2/13 6/6/14
f 7/7/15 8/8/16 9/9/17
