# This file uses feet as units for non-parametric coordinates.

g default
v -67.772797 58.456413 67.376427
v -68.627785 58.456413 66.881424
v 69.122795 58.456413 66.026428
v 68.627800 58.456413 66.881424
v -69.122787 58.456406 -66.026413
v -68.627785 58.456406 -66.881409
v 67.772804 58.456406 -67.376427
v 68.627800 58.456406 -66.881424
v -69.122795 61.859543 66.026413
v -68.627785 61.859543 66.881409
v 67.772797 61.859543 67.376419
v 68.627800 61.859543 66.881409
v -67.772789 61.859528 -67.376434
v -68.627785 61.859528 -66.881424
v 69.122795 61.859528 -66.026436
v 68.627800 61.859528 -66.881439
v -69.122795 58.456413 66.026428
v 67.772797 58.456413 67.376427
v -67.772789 58.456406 -67.376419
v 69.122795 58.456406 -66.026428
v -67.772797 61.859543 67.376419
v 69.122795 61.859543 66.026413
v -69.122787 61.859528 -66.026428
v 67.772804 61.859528 -67.376434
v -68.994827 55.339409 -67.504875
v -68.994820 55.339420 -63.826694
v -64.124649 49.980770 -67.507721
v -69.002235 0.155670 -67.467392
v -69.002220 0.155685 -63.864182
v -64.126839 0.157021 -67.470184
v -64.124626 49.979912 -63.826210
v -64.126770 0.155697 -63.863712
v 68.912888 55.346722 -67.504913
v 68.912895 55.346733 -63.826736
v 63.675114 49.979626 -67.507767
v 68.923340 0.155670 -67.467430
v 68.923355 0.155685 -63.864227
v 63.677723 0.157021 -67.470230
v 63.675106 49.978767 -63.826256
v 63.677677 0.155697 -63.863743
v 67.419289 40.006836 -64.032204
v 65.134956 40.006840 -62.041592
v 65.134102 36.598892 -62.041595
v 67.419319 36.598885 -64.032196
v 22.540798 36.601650 -64.032990
v 22.540798 36.601650 -62.041889
v 26.410046 40.009975 -64.033005
v 26.410051 40.009987 -62.041893
v 67.419304 40.006836 64.032143
v 65.134972 40.006840 62.042965
v 65.134117 36.598888 62.042965
v 67.419342 36.598885 64.032143
v 22.540817 36.601646 64.032585
v 22.540817 36.601646 62.043076
v 26.410063 40.009972 64.032593
v 26.410069 40.009987 62.043076
v 22.537439 58.497345 -62.041893
v 22.537439 58.497322 -64.032997
v 26.409340 58.496620 -64.033005
v 26.409351 58.497292 -62.041893
v 22.537457 58.497116 62.043076
v 22.537457 58.497093 64.032585
v 26.409355 58.496391 64.032593
v 26.409367 58.497063 62.043076
v 68.956230 55.339409 67.504883
v 68.956215 55.339420 63.826710
v 64.086052 49.980766 67.507744
v 68.963631 0.155670 67.467400
v 68.963615 0.155685 63.864197
v 64.088242 0.157021 67.470200
v 64.086021 49.979912 63.826225
v 64.088173 0.155697 63.863720
v -68.951485 55.346718 67.504906
v -68.951500 55.346733 63.826729
v -63.713722 49.979622 67.507767
v -68.961937 0.155670 67.467422
v -68.961952 0.155685 63.864212
v -63.716331 0.157021 67.470222
v -63.713711 49.978767 63.826248
v -63.716286 0.155693 63.863731
v -67.457886 40.006836 64.032196
v -65.173553 40.006836 62.041580
v -65.172707 36.598892 62.041580
v -67.457924 36.598885 64.032188
v -22.579403 36.601646 64.032990
v -22.579403 36.601650 62.041889
v -26.448650 40.009972 64.032997
v -26.448654 40.009983 62.041889
v -67.457878 40.006836 -64.032150
v -65.173553 40.006840 -62.042980
v -65.172699 36.598892 -62.042976
v -67.457916 36.598885 -64.032150
v -22.579403 36.601650 -64.032593
v -22.579403 36.601646 -62.043083
v -26.448650 40.009975 -64.032593
v -26.448654 40.009987 -62.043083
v -22.576042 58.497341 62.041889
v -22.576042 58.497322 64.032990
v -26.447943 58.496620 64.032997
v -26.447954 58.497288 62.041889
v -22.576042 58.497116 -62.043076
v -22.576042 58.497093 -64.032593
v -26.447943 58.496391 -64.032593
v -26.447954 58.497063 -62.043076
vt 0.009068 0.239867
vt 0.777798 0.191890
vt 0.772095 0.191890
vt 0.772095 0.172838
vt 0.777798 0.172838
vt 0.776347 0.990554
vt 0.009261 0.191890
vt 0.773576 0.995340
vt 0.773576 0.246517
vt 0.009068 0.220815
vt 0.009261 0.172838
vt 0.776347 0.251304
vt 0.768788 0.998112
vt 0.777767 0.215606
vt 0.003556 0.191890
vt 0.009986 0.998112
vt 0.009986 0.243746
vt 0.003556 0.172838
vt 0.003051 0.146345
vt 0.768788 0.243746
vt 0.005199 0.995341
vt 0.772171 0.220815
vt 0.002428 0.990554
vt 0.772171 0.239867
vt 0.008756 0.146345
vt 0.002428 0.251304
vt 0.772209 0.215606
vt 0.005199 0.246517
vt 0.003829 0.119037
vt 0.775857 0.119038
vt 0.969899 0.692677
vt 0.008756 0.165397
vt 0.930533 0.676673
vt 0.915039 0.691849
vt 0.884849 0.221700
vt 0.003051 0.165397
vt 0.918988 0.692681
vt 0.847692 0.646773
vt 0.847470 0.319151
vt 0.777293 0.165397
vt 0.869307 0.319151
vt 0.771590 0.165397
vt 0.771590 0.146345
vt 0.884849 0.245864
vt 0.777293 0.146345
vt 0.880208 0.661486
vt 0.772209 0.196554
vt 0.883942 0.659230
vt 0.852156 0.245883
vt 0.775857 0.139630
vt 0.003829 0.139630
vt 0.998817 0.660110
vt 0.777767 0.196554
vt 0.849108 0.694099
vt 0.998860 0.995436
vt 0.009106 0.215606
vt 0.004124 0.024960
vt 0.009106 0.196555
vt 0.895170 0.646773
vt 0.873778 0.646773
vt 0.003546 0.215606
vt 0.873555 0.319108
vt 0.003546 0.196555
vt 0.788300 0.211831
vt 0.003507 0.239867
vt 0.003507 0.220815
vt 0.901618 0.641949
vt 0.777729 0.220815
vt 0.969912 0.995436
vt 0.883879 0.994600
vt 0.777729 0.239867
vt 0.965963 0.692772
vt 0.966186 0.995525
vt 0.944328 0.995530
vt 0.944551 0.692780
vt 0.940400 0.692689
vt 0.940623 0.995446
vt 0.918765 0.995441
vt 0.915025 0.994600
vt 0.863292 0.213861
vt 0.863267 0.002471
vt 0.891806 0.002478
vt 0.891812 0.180955
vt 0.928118 0.002670
vt 0.907884 0.002670
vt 0.788300 0.187399
vt 0.823866 0.187396
vt 0.823866 0.211851
vt 0.825274 0.218527
vt 0.844482 0.218527
vt 0.844482 0.997518
vt 0.825274 0.997518
vt 0.895393 0.319108
vt 0.829493 0.002961
vt 0.829474 0.182778
vt 0.807812 0.154787
vt 0.807816 0.002962
vt 0.998513 0.002363
vt 0.976341 0.002368
vt 0.782705 0.003078
vt 0.804382 0.003078
vt 0.952267 0.230555
vt 0.974442 0.253370
vt 0.952287 0.002211
vt 0.974460 0.002216
vt 0.893726 0.244443
vt 0.906678 0.230974
vt 0.936794 0.622578
vt 0.952412 0.640508
vt 0.893720 0.002631
vt 0.906676 0.002631
vt 0.936795 0.318604
vt 0.952416 0.318604
vt 0.974826 0.672428
vt 0.980351 0.672213
vt 0.995968 0.654275
vt 0.959196 0.654491
vt 0.959199 0.320153
vt 0.974832 0.320153
vt 0.980347 0.319937
vt 0.995966 0.319937
vt 0.997824 0.304574
vt 0.997824 0.315722
vt 0.847921 0.315722
vt 0.847921 0.304574
vt 0.819148 0.997107
vt 0.799940 0.997107
vt 0.799940 0.218682
vt 0.819149 0.218682
vt 0.861084 0.213612
vt 0.832564 0.180707
vt 0.832569 0.002231
vt 0.861109 0.002225
vt 0.930496 0.002531
vt 0.950729 0.002531
vt 0.901631 0.319092
vt 0.930578 0.319083
vt 0.880270 0.996856
vt 0.849123 0.996848
vt 0.852155 0.221697
vt 0.997824 0.303080
vt 0.847923 0.303080
vt 0.847923 0.291942
vt 0.997824 0.291942
vt 0.849009 0.259687
vt 0.997001 0.259687
vt 0.997001 0.270833
vt 0.849015 0.270833
vt 0.004124 0.004349
vt 0.775710 0.004349
vt 0.775710 0.024960
vt 0.869085 0.646773
vt 0.849422 0.286308
vt 0.849427 0.275170
vt 0.997411 0.275170
vt 0.997411 0.286308
vt 0.752430 0.114527
vt 0.005484 0.050281
vt 0.036988 0.114533
vt 0.777512 0.050240
vt 0.007666 0.084482
vt 0.779694 0.084523
vt 0.748190 0.080286
vt 0.032748 0.080279
vt 0.794258 0.997852
vt 0.781382 0.985752
vt 0.781382 0.231519
vt 0.794258 0.219428
vt 0.778566 0.043716
vt 0.005382 0.043716
vt 0.017392 0.030923
vt 0.766548 0.030923
vt 0.928101 0.244153
vt 0.907866 0.223333
vt 0.976359 0.253522
vt 0.998533 0.230706
vt 0.804386 0.154901
vt 0.782724 0.182892
vt 0.930512 0.244013
vt 0.950748 0.223194
vt 0.003829 0.119037
vt 0.775857 0.119038
vt 0.969899 0.692677
vt 0.930533 0.676673
vt 0.915039 0.691849
vt 0.884849 0.221700
vt 0.918988 0.692681
vt 0.847692 0.646773
vt 0.847470 0.319151
vt 0.869307 0.319151
vt 0.884849 0.245864
vt 0.880208 0.661486
vt 0.883942 0.659230
vt 0.852156 0.245883
vt 0.775857 0.139630
vt 0.003829 0.139630
vt 0.998817 0.660110
vt 0.849108 0.694099
vt 0.998860 0.995436
vt 0.004124 0.024960
vt 0.895170 0.646773
vt 0.873778 0.646773
vt 0.873555 0.319108
vt 0.788300 0.211831
vt 0.901618 0.641949
vt 0.969912 0.995436
vt 0.883879 0.994600
vt 0.965963 0.692772
vt 0.966186 0.995525
vt 0.944328 0.995530
vt 0.944551 0.692780
vt 0.940400 0.692689
vt 0.940623 0.995446
vt 0.918765 0.995441
vt 0.915025 0.994600
vt 0.863292 0.213861
vt 0.863267 0.002471
vt 0.891806 0.002478
vt 0.891812 0.180955
vt 0.928118 0.002670
vt 0.907884 0.002670
vt 0.788300 0.187399
vt 0.823866 0.187396
vt 0.823866 0.211851
vt 0.825274 0.218527
vt 0.844482 0.218527
vt 0.844482 0.997518
vt 0.825274 0.997518
vt 0.895393 0.319108
vt 0.829493 0.002961
vt 0.829474 0.182778
vt 0.807812 0.154787
vt 0.807816 0.002962
vt 0.998513 0.002363
vt 0.976341 0.002368
vt 0.782705 0.003078
vt 0.804382 0.003078
vt 0.952267 0.230555
vt 0.974442 0.253370
vt 0.952287 0.002211
vt 0.974460 0.002216
vt 0.893726 0.244443
vt 0.906678 0.230974
vt 0.936794 0.622578
vt 0.952412 0.640508
vt 0.893720 0.002631
vt 0.906676 0.002631
vt 0.936795 0.318604
vt 0.952416 0.318604
vt 0.974826 0.672428
vt 0.980351 0.672213
vt 0.995968 0.654275
vt 0.959196 0.654491
vt 0.959199 0.320153
vt 0.974832 0.320153
vt 0.980347 0.319937
vt 0.995966 0.319937
vt 0.997824 0.304574
vt 0.997824 0.315722
vt 0.847921 0.315722
vt 0.847921 0.304574
vt 0.819148 0.997107
vt 0.799940 0.997107
vt 0.799940 0.218682
vt 0.819149 0.218682
vt 0.861084 0.213612
vt 0.832564 0.180707
vt 0.832569 0.002231
vt 0.861109 0.002225
vt 0.930496 0.002531
vt 0.950729 0.002531
vt 0.901631 0.319092
vt 0.930578 0.319083
vt 0.880270 0.996856
vt 0.849123 0.996848
vt 0.852155 0.221697
vt 0.997824 0.303080
vt 0.847923 0.303080
vt 0.847923 0.291942
vt 0.997824 0.291942
vt 0.849009 0.259687
vt 0.997001 0.259687
vt 0.997001 0.270833
vt 0.849015 0.270833
vt 0.004124 0.004349
vt 0.775710 0.004349
vt 0.775710 0.024960
vt 0.869085 0.646773
vt 0.849422 0.286308
vt 0.849427 0.275170
vt 0.997411 0.275170
vt 0.997411 0.286308
vt 0.752430 0.114527
vt 0.005484 0.050281
vt 0.036988 0.114533
vt 0.777512 0.050240
vt 0.007666 0.084482
vt 0.779694 0.084523
vt 0.748190 0.080286
vt 0.032748 0.080279
vt 0.794258 0.997852
vt 0.781382 0.985752
vt 0.781382 0.231519
vt 0.794258 0.219428
vt 0.778566 0.043716
vt 0.005382 0.043716
vt 0.017392 0.030923
vt 0.766548 0.030923
vt 0.928101 0.244153
vt 0.907866 0.223333
vt 0.976359 0.253522
vt 0.998533 0.230706
vt 0.804386 0.154901
vt 0.782724 0.182892
vt 0.930512 0.244013
vt 0.950748 0.223194
vt 0.003829 0.119037
vt 0.775857 0.119038
vt 0.969899 0.692677
vt 0.930533 0.676673
vt 0.915039 0.691849
vt 0.884849 0.221700
vt 0.918988 0.692681
vt 0.847692 0.646773
vt 0.847470 0.319151
vt 0.869307 0.319151
vt 0.884849 0.245864
vt 0.880208 0.661486
vt 0.883942 0.659230
vt 0.852156 0.245883
vt 0.775857 0.139630
vt 0.003829 0.139630
vt 0.998817 0.660110
vt 0.849108 0.694099
vt 0.998860 0.995436
vt 0.004124 0.024960
vt 0.895170 0.646773
vt 0.873778 0.646773
vt 0.873555 0.319108
vt 0.788300 0.211831
vt 0.901618 0.641949
vt 0.969912 0.995436
vt 0.883879 0.994600
vt 0.965963 0.692772
vt 0.966186 0.995525
vt 0.944328 0.995530
vt 0.944551 0.692780
vt 0.940400 0.692689
vt 0.940623 0.995446
vt 0.918765 0.995441
vt 0.915025 0.994600
vt 0.863292 0.213861
vt 0.863267 0.002471
vt 0.891806 0.002478
vt 0.891812 0.180955
vt 0.928118 0.002670
vt 0.907884 0.002670
vt 0.788300 0.187399
vt 0.823866 0.187396
vt 0.823866 0.211851
vt 0.825274 0.218527
vt 0.844482 0.218527
vt 0.844482 0.997518
vt 0.825274 0.997518
vt 0.895393 0.319108
vt 0.829493 0.002961
vt 0.829474 0.182778
vt 0.807812 0.154787
vt 0.807816 0.002962
vt 0.998513 0.002363
vt 0.976341 0.002368
vt 0.782705 0.003078
vt 0.804382 0.003078
vt 0.952267 0.230555
vt 0.974442 0.253370
vt 0.952287 0.002211
vt 0.974460 0.002216
vt 0.893726 0.244443
vt 0.906678 0.230974
vt 0.936794 0.622578
vt 0.952412 0.640508
vt 0.893720 0.002631
vt 0.906676 0.002631
vt 0.936795 0.318604
vt 0.952416 0.318604
vt 0.974826 0.672428
vt 0.980351 0.672213
vt 0.995968 0.654275
vt 0.959196 0.654491
vt 0.959199 0.320153
vt 0.974832 0.320153
vt 0.980347 0.319937
vt 0.995966 0.319937
vt 0.997824 0.304574
vt 0.997824 0.315722
vt 0.847921 0.315722
vt 0.847921 0.304574
vt 0.819148 0.997107
vt 0.799940 0.997107
vt 0.799940 0.218682
vt 0.819149 0.218682
vt 0.861084 0.213612
vt 0.832564 0.180707
vt 0.832569 0.002231
vt 0.861109 0.002225
vt 0.930496 0.002531
vt 0.950729 0.002531
vt 0.901631 0.319092
vt 0.930578 0.319083
vt 0.880270 0.996856
vt 0.849123 0.996848
vt 0.852155 0.221697
vt 0.997824 0.303080
vt 0.847923 0.303080
vt 0.847923 0.291942
vt 0.997824 0.291942
vt 0.849009 0.259687
vt 0.997001 0.259687
vt 0.997001 0.270833
vt 0.849015 0.270833
vt 0.004124 0.004349
vt 0.775710 0.004349
vt 0.775710 0.024960
vt 0.869085 0.646773
vt 0.849422 0.286308
vt 0.849427 0.275170
vt 0.997411 0.275170
vt 0.997411 0.286308
vt 0.752430 0.114527
vt 0.005484 0.050281
vt 0.036988 0.114533
vt 0.777512 0.050240
vt 0.007666 0.084482
vt 0.779694 0.084523
vt 0.748190 0.080286
vt 0.032748 0.080279
vt 0.794258 0.997852
vt 0.781382 0.985752
vt 0.781382 0.231519
vt 0.794258 0.219428
vt 0.778566 0.043716
vt 0.005382 0.043716
vt 0.017392 0.030923
vt 0.766548 0.030923
vt 0.928101 0.244153
vt 0.907866 0.223333
vt 0.976359 0.253522
vt 0.998533 0.230706
vt 0.804386 0.154901
vt 0.782724 0.182892
vt 0.930512 0.244013
vt 0.950748 0.223194
vt 0.776347 0.990554
vt 0.773576 0.995340
vt 0.773576 0.246517
vt 0.776347 0.251304
vt 0.768788 0.998112
vt 0.009986 0.998112
vt 0.009986 0.243746
vt 0.768788 0.243746
vt 0.005199 0.995341
vt 0.002428 0.990554
vt 0.002428 0.251304
vt 0.005199 0.246517
vn 0.259399 0.000003 0.965770
vn 0.259399 0.000003 0.965770
vn -0.259403 0.000003 0.965769
vn -0.259403 0.000003 0.965769
vn 0.259399 0.000003 0.965770
vn 0.501040 0.000003 0.865424
vn 0.259399 0.000003 0.965770
vn 0.501040 0.000003 0.865424
vn 0.865427 0.000002 0.501034
vn 0.965771 0.000001 0.259397
vn 0.865427 0.000002 0.501034
vn 0.965771 0.000001 0.259395
vn 0.965771 0.000001 0.259397
vn 0.965771 -0.000001 -0.259395
vn 0.965771 0.000001 0.259395
vn 0.965771 -0.000001 -0.259396
vn -0.259403 0.000003 0.965769
vn -0.501046 0.000003 0.865420
vn -0.259403 0.000003 0.965769
vn -0.501047 0.000003 0.865420
vn -0.865421 0.000002 0.501046
vn -0.965769 0.000001 0.259402
vn -0.865421 0.000002 0.501046
vn -0.965769 0.000001 0.259403
vn 0.965771 -0.000001 -0.259395
vn 0.865428 -0.000002 -0.501033
vn 0.965771 -0.000001 -0.259396
vn 0.865428 -0.000002 -0.501033
vn 0.501037 -0.000003 -0.865426
vn 0.259398 -0.000003 -0.965771
vn 0.501037 -0.000003 -0.865426
vn 0.259398 -0.000003 -0.965771
vn 0.259398 -0.000003 -0.965771
vn -0.259401 -0.000003 -0.965770
vn 0.259398 -0.000003 -0.965771
vn -0.259401 -0.000003 -0.965770
vn -0.259401 -0.000003 -0.965770
vn -0.501043 -0.000003 -0.865422
vn -0.259401 -0.000003 -0.965770
vn -0.501043 -0.000003 -0.865422
vn -0.865424 -0.000002 -0.501040
vn -0.965770 -0.000001 -0.259399
vn -0.865424 -0.000002 -0.501040
vn -0.965770 -0.000001 -0.259400
vn -0.965770 -0.000001 -0.259399
vn -0.965769 0.000001 0.259403
vn -0.965770 -0.000001 -0.259400
vn -0.965769 0.000001 0.259402
vn 0.000000 1.000000 -0.000000
vn 0.000000 1.000000 -0.000000
vn 0.000000 1.000000 -0.000000
vn 0.000000 1.000000 -0.000000
vn 0.000000 1.000000 -0.000000
vn -0.000000 1.000000 -0.000000
vn 0.000000 1.000000 -0.000000
vn -0.000000 1.000000 -0.000000
vn 0.000000 1.000000 -0.000000
vn 0.000000 1.000000 -0.000000
vn 0.000000 1.000000 -0.000000
vn 0.000000 1.000000 -0.000000
vn -0.000000 1.000000 -0.000000
vn 0.000000 1.000000 -0.000000
vn -0.000000 1.000000 -0.000000
vn 0.000000 1.000000 -0.000000
vn -0.000000 1.000000 -0.000000
vn -0.000000 1.000000 -0.000000
vn -0.000000 1.000000 -0.000000
vn -0.000000 1.000000 -0.000000
vn -0.000053 1.000000 -0.000003
vn -0.000053 1.000000 -0.000003
vn -0.000053 1.000000 -0.000003
vn -0.000053 1.000000 -0.000003
vn -0.000000 0.000533 -1.000000
vn -0.000000 0.000533 -1.000000
vn -0.000000 0.000533 -1.000000
vn -0.000000 0.000533 -1.000000
vn 0.000000 0.000090 1.000000
vn 0.000000 0.000090 1.000000
vn 0.000000 0.000090 1.000000
vn 0.000000 0.000090 1.000000
vn -1.000000 0.000134 0.000003
vn -1.000000 0.000134 0.000003
vn -1.000000 0.000134 0.000003
vn -1.000000 0.000134 0.000003
vn -0.000972 -0.000714 -0.999999
vn -0.000972 -0.000714 -0.999999
vn -0.000972 -0.000714 -0.999999
vn -0.000972 -0.000714 -0.999999
vn -0.000491 -0.000714 1.000000
vn -0.000491 -0.000714 1.000000
vn -0.000491 -0.000714 1.000000
vn -0.000491 -0.000714 1.000000
vn 1.000000 -0.000043 -0.000013
vn 1.000000 -0.000043 -0.000013
vn 1.000000 -0.000043 -0.000013
vn 1.000000 -0.000043 -0.000013
vn -0.000009 -1.000000 -0.000233
vn -0.000009 -1.000000 -0.000233
vn -0.000009 -1.000000 -0.000233
vn -0.000009 -1.000000 -0.000233
vn 1.000000 0.000189 -0.000003
vn 1.000000 0.000189 -0.000003
vn 1.000000 0.000189 -0.000003
vn 1.000000 0.000189 -0.000003
vn 0.000906 -0.000714 -0.999999
vn 0.000906 -0.000714 -0.999999
vn 0.000906 -0.000714 -0.999999
vn 0.000906 -0.000714 -0.999999
vn 0.000457 -0.000714 1.000000
vn 0.000457 -0.000714 1.000000
vn 0.000457 -0.000714 1.000000
vn 0.000457 -0.000714 1.000000
vn -1.000000 -0.000052 -0.000007
vn -1.000000 -0.000052 -0.000007
vn -1.000000 -0.000052 -0.000007
vn -1.000000 -0.000052 -0.000007
vn 0.000139 -1.000000 -0.000181
vn 0.000139 -1.000000 -0.000181
vn 0.000139 -1.000000 -0.000181
vn 0.000139 -1.000000 -0.000181
vn -0.000130 -1.000000 -0.000182
vn -0.000130 -1.000000 -0.000182
vn -0.000130 -1.000000 -0.000182
vn -0.000130 -1.000000 -0.000182
vn 0.000002 1.000000 -0.000000
vn 0.000002 1.000000 -0.000000
vn 0.000002 1.000000 -0.000000
vn 0.000002 1.000000 -0.000000
vn -1.000000 0.000251 0.000000
vn -1.000000 0.000251 0.000000
vn -1.000000 0.000251 0.000000
vn -1.000000 0.000251 0.000000
vn 1.000000 0.000010 -0.000000
vn 1.000000 0.000010 -0.000000
vn 1.000000 0.000010 -0.000000
vn 1.000000 0.000010 -0.000000
vn -0.000003 -1.000000 0.000000
vn -0.000003 -1.000000 0.000000
vn -0.000003 -1.000000 0.000000
vn -0.000003 -1.000000 0.000000
vn -1.000000 -0.000153 0.000000
vn -1.000000 -0.000153 0.000000
vn -1.000000 -0.000153 0.000000
vn -1.000000 -0.000153 0.000000
vn -0.000002 -0.000000 -1.000000
vn -0.000002 -0.000000 -1.000000
vn -0.000002 -0.000000 -1.000000
vn -0.000002 -0.000000 -1.000000
vn 0.000000 -0.000000 1.000000
vn 0.000000 -0.000000 1.000000
vn 0.000000 -0.000000 1.000000
vn 0.000000 -0.000000 1.000000
vn 1.000000 0.000038 -0.000004
vn 1.000000 0.000038 -0.000004
vn 1.000000 0.000038 -0.000004
vn 1.000000 0.000038 -0.000004
vn -0.000063 -1.000000 -0.000034
vn -0.000063 -1.000000 -0.000034
vn -0.000063 -1.000000 -0.000034
vn -0.000063 -1.000000 -0.000034
vn 0.000019 -0.000013 -1.000000
vn 0.000019 -0.000013 -1.000000
vn 0.000019 -0.000013 -1.000000
vn 0.000019 -0.000013 -1.000000
vn -0.000007 0.000004 1.000000
vn -0.000007 0.000004 1.000000
vn -0.000007 0.000004 1.000000
vn -0.000007 0.000004 1.000000
vn 0.000079 1.000000 0.000041
vn 0.000079 1.000000 0.000041
vn 0.000079 1.000000 0.000041
vn 0.000079 1.000000 0.000041
vn -1.000000 -0.000153 -0.000000
vn -1.000000 -0.000153 -0.000000
vn -1.000000 -0.000153 -0.000000
vn -1.000000 -0.000153 -0.000000
vn -0.000002 -0.000000 1.000000
vn -0.000002 -0.000000 1.000000
vn -0.000002 -0.000000 1.000000
vn -0.000002 -0.000000 1.000000
vn 0.000000 0.000000 -1.000000
vn 0.000000 0.000000 -1.000000
vn 0.000000 0.000000 -1.000000
vn 0.000000 0.000000 -1.000000
vn 1.000000 0.000038 0.000004
vn 1.000000 0.000038 0.000004
vn 1.000000 0.000038 0.000004
vn 1.000000 0.000038 0.000004
vn -0.000063 -1.000000 0.000035
vn -0.000063 -1.000000 0.000035
vn -0.000063 -1.000000 0.000035
vn -0.000063 -1.000000 0.000035
vn 0.000010 -0.000007 1.000000
vn 0.000010 -0.000007 1.000000
vn 0.000010 -0.000007 1.000000
vn 0.000010 -0.000007 1.000000
vn -0.000003 0.000002 -1.000000
vn -0.000003 0.000002 -1.000000
vn -0.000003 0.000002 -1.000000
vn -0.000003 0.000002 -1.000000
vn 0.000079 1.000000 -0.000041
vn 0.000079 1.000000 -0.000041
vn 0.000079 1.000000 -0.000041
vn 0.000079 1.000000 -0.000041
vn 0.000053 1.000000 0.000003
vn 0.000053 1.000000 0.000003
vn 0.000053 1.000000 0.000003
vn 0.000053 1.000000 0.000003
vn 0.000000 0.000533 1.000000
vn 0.000000 0.000533 1.000000
vn 0.000000 0.000533 1.000000
vn 0.000000 0.000533 1.000000
vn -0.000000 0.000090 -1.000000
vn -0.000000 0.000090 -1.000000
vn -0.000000 0.000090 -1.000000
vn -0.000000 0.000090 -1.000000
vn 1.000000 0.000134 -0.000004
vn 1.000000 0.000134 -0.000004
vn 1.000000 0.000134 -0.000004
vn 1.000000 0.000134 -0.000004
vn 0.000974 -0.000714 0.999999
vn 0.000974 -0.000714 0.999999
vn 0.000974 -0.000714 0.999999
vn 0.000974 -0.000714 0.999999
vn 0.000491 -0.000714 -1.000000
vn 0.000491 -0.000714 -1.000000
vn 0.000491 -0.000714 -1.000000
vn 0.000491 -0.000714 -1.000000
vn -1.000000 -0.000044 0.000014
vn -1.000000 -0.000044 0.000014
vn -1.000000 -0.000044 0.000014
vn -1.000000 -0.000044 0.000014
vn 0.000009 -1.000000 0.000233
vn 0.000009 -1.000000 0.000233
vn 0.000009 -1.000000 0.000233
vn 0.000009 -1.000000 0.000233
vn -1.000000 0.000189 0.000004
vn -1.000000 0.000189 0.000004
vn -1.000000 0.000189 0.000004
vn -1.000000 0.000189 0.000004
vn -0.000906 -0.000714 0.999999
vn -0.000906 -0.000714 0.999999
vn -0.000906 -0.000714 0.999999
vn -0.000906 -0.000714 0.999999
vn -0.000457 -0.000714 -1.000000
vn -0.000457 -0.000714 -1.000000
vn -0.000457 -0.000714 -1.000000
vn -0.000457 -0.000714 -1.000000
vn 1.000000 -0.000052 0.000008
vn 1.000000 -0.000052 0.000008
vn 1.000000 -0.000052 0.000008
vn 1.000000 -0.000052 0.000008
vn -0.000139 -1.000000 0.000181
vn -0.000139 -1.000000 0.000181
vn -0.000139 -1.000000 0.000181
vn -0.000139 -1.000000 0.000181
vn 0.000130 -1.000000 0.000182
vn 0.000130 -1.000000 0.000182
vn 0.000130 -1.000000 0.000182
vn 0.000130 -1.000000 0.000182
vn -0.000002 1.000000 -0.000000
vn -0.000002 1.000000 -0.000000
vn -0.000002 1.000000 -0.000000
vn -0.000002 1.000000 -0.000000
vn 1.000000 0.000250 0.000000
vn 1.000000 0.000250 0.000000
vn 1.000000 0.000250 0.000000
vn 1.000000 0.000250 0.000000
vn -1.000000 0.000011 -0.000000
vn -1.000000 0.000011 -0.000000
vn -1.000000 0.000011 -0.000000
vn -1.000000 0.000011 -0.000000
vn 0.000003 -1.000000 0.000000
vn 0.000003 -1.000000 0.000000
vn 0.000003 -1.000000 0.000000
vn 0.000003 -1.000000 0.000000
vn 1.000000 -0.000153 -0.000000
vn 1.000000 -0.000153 -0.000000
vn 1.000000 -0.000153 -0.000000
vn 1.000000 -0.000153 -0.000000
vn 0.000002 -0.000000 1.000000
vn 0.000002 -0.000000 1.000000
vn 0.000002 -0.000000 1.000000
vn 0.000002 -0.000000 1.000000
vn 0.000000 0.000000 -1.000000
vn 0.000000 0.000000 -1.000000
vn 0.000000 0.000000 -1.000000
vn 0.000000 0.000000 -1.000000
vn -1.000000 0.000038 0.000004
vn -1.000000 0.000038 0.000004
vn -1.000000 0.000038 0.000004
vn -1.000000 0.000038 0.000004
vn 0.000063 -1.000000 0.000034
vn 0.000063 -1.000000 0.000034
vn 0.000063 -1.000000 0.000034
vn 0.000063 -1.000000 0.000034
vn -0.000019 -0.000013 1.000000
vn -0.000019 -0.000013 1.000000
vn -0.000019 -0.000013 1.000000
vn -0.000019 -0.000013 1.000000
vn 0.000008 0.000004 -1.000000
vn 0.000008 0.000004 -1.000000
vn 0.000008 0.000004 -1.000000
vn 0.000008 0.000004 -1.000000
vn -0.000079 1.000000 -0.000041
vn -0.000079 1.000000 -0.000041
vn -0.000079 1.000000 -0.000041
vn -0.000079 1.000000 -0.000041
vn 1.000000 -0.000153 0.000000
vn 1.000000 -0.000153 0.000000
vn 1.000000 -0.000153 0.000000
vn 1.000000 -0.000153 0.000000
vn 0.000000 0.000000 -1.000000
vn 0.000000 0.000000 -1.000000
vn 0.000000 0.000000 -1.000000
vn 0.000000 0.000000 -1.000000
vn 0.000000 -0.000000 1.000000
vn 0.000000 -0.000000 1.000000
vn 0.000000 -0.000000 1.000000
vn 0.000000 -0.000000 1.000000
vn -1.000000 0.000038 -0.000004
vn -1.000000 0.000038 -0.000004
vn -1.000000 0.000038 -0.000004
vn -1.000000 0.000038 -0.000004
vn 0.000063 -1.000000 -0.000035
vn 0.000063 -1.000000 -0.000035
vn 0.000063 -1.000000 -0.000035
vn 0.000063 -1.000000 -0.000035
vn -0.000010 -0.000006 -1.000000
vn -0.000010 -0.000006 -1.000000
vn -0.000010 -0.000006 -1.000000
vn -0.000010 -0.000006 -1.000000
vn 0.000003 0.000001 1.000000
vn 0.000003 0.000001 1.000000
vn 0.000003 0.000001 1.000000
vn 0.000003 0.000001 1.000000
vn -0.000079 1.000000 0.000041
vn -0.000079 1.000000 0.000041
vn -0.000079 1.000000 0.000041
vn -0.000079 1.000000 0.000041
vn 0.000000 -1.000000 0.000000
vn 0.000000 -1.000000 0.000000
vn 0.000000 -1.000000 0.000000
vn 0.000000 -1.000000 0.000000
vn 0.000000 -1.000000 0.000000
vn 0.000000 -1.000000 0.000000
vn 0.000000 -1.000000 0.000000
vn 0.000000 -1.000000 0.000000
vn 0.000000 -1.000000 0.000000
vn 0.000000 -1.000000 0.000000
vn 0.000000 -1.000000 0.000000
vn 0.000000 -1.000000 0.000000
vn 0.000000 -1.000000 0.000000
vn 0.000000 -1.000000 0.000000
vn 0.000000 -1.000000 0.000000
vn 0.000000 -1.000000 0.000000
vn 0.000000 -1.000000 0.000000
vn 0.000000 -1.000000 0.000000
vn 0.000000 -1.000000 0.000000
vn 0.000000 -1.000000 0.000000
s 1
g SM_Table_04
f 18/1/1 11/10/2 1/24/3
f 1/24/3 11/10/2 21/22/4
s 2
f 18/1/5 4/65/6 11/10/7
f 11/10/7 4/65/6 12/66/8
s 3
f 4/2/9 3/3/10 12/5/11
f 12/5/11 3/3/10 22/4/12
s 4
f 3/3/13 20/7/14 22/4/15
f 22/4/15 20/7/14 15/11/16
s 5
f 21/22/17 10/68/18 1/24/19
f 1/24/19 10/68/18 2/71/20
s 6
f 10/19/21 9/25/22 2/36/23
f 2/36/23 9/25/22 17/32/24
s 7
f 20/7/25 8/15/26 15/11/27
f 15/11/27 8/15/26 16/18/28
s 8
f 8/14/29 7/27/30 16/53/31
f 16/53/31 7/27/30 24/47/32
s 9
f 7/27/33 19/56/34 24/47/35
f 24/47/35 19/56/34 13/58/36
s 10
f 19/56/37 6/61/38 13/58/39
f 13/58/39 6/61/38 14/63/40
s 11
f 6/40/41 5/42/42 14/45/43
f 14/45/43 5/42/42 23/43/44
s 12
f 5/42/45 17/32/46 23/43/47
f 23/43/47 17/32/46 9/25/48
s 13
f 9/6/49 10/8/50 23/12/51
f 23/12/51 10/8/50 14/9/52
s 14
f 21/13/53 11/16/54 13/20/55
f 13/20/55 11/16/54 24/17/56
s 15
f 10/8/57 21/13/58 14/9/59
f 14/9/59 21/13/58 13/20/60
s 16
f 12/21/61 22/23/62 16/28/63
f 16/28/63 22/23/62 15/26/64
s 17
f 11/16/65 12/21/66 24/17/67
f 24/17/67 12/21/66 16/28/68
s 18
f 26/181/69 34/182/70 25/196/71
f 25/196/71 34/182/70 33/195/72
s 19
f 33/296/73 35/299/74 25/294/75
f 25/294/75 35/299/74 27/300/76
s 20
f 31/293/77 39/295/78 26/298/79
f 26/298/79 39/295/78 34/297/80
s 21
f 29/188/81 26/189/82 28/288/83
f 28/288/83 26/189/82 25/190/84
s 22
f 25/184/85 27/205/86 28/273/87
f 28/273/87 27/205/86 30/272/88
s 23
f 32/206/89 31/183/90 29/199/91
f 29/199/91 31/183/90 26/197/92
s 24
f 32/187/93 30/212/94 31/214/95
f 31/214/95 30/212/94 27/213/96
s 25
f 31/200/97 27/285/98 39/287/99
f 39/287/99 27/285/98 35/286/100
s 26
f 37/201/101 36/202/102 34/229/103
f 34/229/103 36/202/102 33/203/104
s 27
f 33/192/105 36/274/106 35/198/107
f 35/198/107 36/274/106 38/275/108
s 28
f 34/193/109 39/185/110 37/207/111
f 37/207/111 39/185/110 40/215/112
s 29
f 40/208/113 39/209/114 38/211/115
f 38/211/115 39/209/114 35/210/116
s 30
f 29/186/117 28/191/118 32/276/119
f 32/276/119 28/191/118 30/194/120
s 31
f 36/204/121 37/222/122 38/224/123
f 38/224/123 37/222/122 40/223/124
s 32
f 41/301/125 42/302/126 49/304/127
f 49/304/127 42/302/126 50/303/128
s 33
f 42/225/129 43/226/130 50/228/131
f 50/228/131 43/226/130 51/227/132
s 34
f 44/262/133 41/263/134 52/265/135
f 52/265/135 41/263/134 49/264/136
s 35
f 44/305/137 52/306/138 43/308/139
f 43/308/139 52/306/138 51/307/140
s 36
f 57/258/141 58/259/142 46/261/143
f 46/261/143 58/259/142 45/260/144
s 37
f 45/216/145 58/217/146 47/219/147
f 47/219/147 58/217/146 59/218/148
s 38
f 46/231/149 48/232/150 57/230/151
f 57/230/151 48/232/150 60/233/152
s 39
f 60/281/153 48/282/154 59/284/155
f 59/284/155 48/282/154 47/283/156
s 40
f 46/254/157 45/255/158 43/253/159
f 43/253/159 45/255/158 44/250/160
s 41
f 45/309/161 47/310/162 44/220/163
f 44/220/163 47/310/162 41/221/164
s 42
f 42/234/165 48/312/166 43/235/167
f 43/235/167 48/312/166 46/311/168
s 43
f 41/242/169 47/246/170 42/243/171
f 42/243/171 47/246/170 48/247/172
s 44
f 61/277/173 54/278/174 62/280/175
f 62/280/175 54/278/174 53/279/176
s 45
f 53/266/177 55/267/178 62/269/179
f 62/269/179 55/267/178 63/268/180
s 46
f 64/237/181 56/313/182 61/236/183
f 61/236/183 56/313/182 54/314/184
s 47
f 64/289/185 63/290/186 56/292/187
f 56/292/187 63/290/186 55/291/188
s 48
f 52/251/189 53/256/190 51/252/191
f 51/252/191 53/256/190 54/257/192
s 49
f 49/271/193 55/316/194 52/270/195
f 52/270/195 55/316/194 53/315/196
s 50
f 50/240/197 51/241/198 56/238/199
f 56/238/199 51/241/198 54/239/200
s 51
f 49/245/201 50/244/202 55/249/203
f 55/249/203 50/244/202 56/248/204
s 52
f 66/317/205 74/318/206 65/332/207
f 65/332/207 74/318/206 73/331/208
s 53
f 73/432/209 75/435/210 65/430/211
f 65/430/211 75/435/210 67/436/212
s 54
f 71/429/213 79/431/214 66/434/215
f 66/434/215 79/431/214 74/433/216
s 55
f 69/324/217 66/325/218 68/424/219
f 68/424/219 66/325/218 65/326/220
s 56
f 65/320/221 67/341/222 68/409/223
f 68/409/223 67/341/222 70/408/224
s 57
f 72/342/225 71/319/226 69/335/227
f 69/335/227 71/319/226 66/333/228
s 58
f 72/323/229 70/348/230 71/350/231
f 71/350/231 70/348/230 67/349/232
s 59
f 71/336/233 67/421/234 79/423/235
f 79/423/235 67/421/234 75/422/236
s 60
f 77/337/237 76/338/238 74/365/239
f 74/365/239 76/338/238 73/339/240
s 61
f 73/328/241 76/410/242 75/334/243
f 75/334/243 76/410/242 78/411/244
s 62
f 74/329/245 79/321/246 77/343/247
f 77/343/247 79/321/246 80/351/248
s 63
f 80/344/249 79/345/250 78/347/251
f 78/347/251 79/345/250 75/346/252
s 64
f 69/322/253 68/327/254 72/412/255
f 72/412/255 68/327/254 70/330/256
s 65
f 76/340/257 77/358/258 78/360/259
f 78/360/259 77/358/258 80/359/260
s 66
f 81/437/261 82/438/262 89/440/263
f 89/440/263 82/438/262 90/439/264
s 67
f 82/361/265 83/362/266 90/364/267
f 90/364/267 83/362/266 91/363/268
s 68
f 84/398/269 81/399/270 92/401/271
f 92/401/271 81/399/270 89/400/272
s 69
f 84/441/273 92/442/274 83/444/275
f 83/444/275 92/442/274 91/443/276
s 70
f 97/394/277 98/395/278 86/397/279
f 86/397/279 98/395/278 85/396/280
s 71
f 85/352/281 98/353/282 87/355/283
f 87/355/283 98/353/282 99/354/284
s 72
f 86/367/285 88/368/286 97/366/287
f 97/366/287 88/368/286 100/369/288
s 73
f 100/417/289 88/418/290 99/420/291
f 99/420/291 88/418/290 87/419/292
s 74
f 86/390/293 85/391/294 83/389/295
f 83/389/295 85/391/294 84/386/296
s 75
f 85/445/297 87/446/298 84/356/299
f 84/356/299 87/446/298 81/357/300
s 76
f 82/370/301 88/448/302 83/371/303
f 83/371/303 88/448/302 86/447/304
s 77
f 81/378/305 87/382/306 82/379/307
f 82/379/307 87/382/306 88/383/308
s 78
f 101/413/309 94/414/310 102/416/311
f 102/416/311 94/414/310 93/415/312
s 79
f 93/402/313 95/403/314 102/405/315
f 102/405/315 95/403/314 103/404/316
s 80
f 104/373/317 96/449/318 101/372/319
f 101/372/319 96/449/318 94/450/320
s 81
f 104/425/321 103/426/322 96/428/323
f 96/428/323 103/426/322 95/427/324
s 82
f 92/387/325 93/392/326 91/388/327
f 91/388/327 93/392/326 94/393/328
s 83
f 89/407/329 95/452/330 92/406/331
f 92/406/331 95/452/330 93/451/332
s 84
f 90/376/333 91/377/334 96/374/335
f 96/374/335 91/377/334 94/375/336
s 85
f 89/381/337 90/380/338 95/385/339
f 95/385/339 90/380/338 96/384/340
s 86
f 17/453/341 5/456/342 2/454/343
f 2/454/343 5/456/342 6/455/344
s 87
f 1/457/345 19/460/346 18/458/347
f 18/458/347 19/460/346 7/459/348
s 88
f 2/454/349 6/455/350 1/457/351
f 1/457/351 6/455/350 19/460/352
s 89
f 4/461/353 8/464/354 3/462/355
f 3/462/355 8/464/354 20/463/356
s 90
f 18/458/357 7/459/358 4/461/359
f 4/461/359 7/459/358 8/464/360
