# This file uses feet as units for non-parametric coordinates.

g default
v 48.329994 25.952797 20.294205
v 48.329994 -0.000031 20.294205
v -48.330002 25.952797 20.294205
v -48.330002 -0.000031 20.294205
v -47.330032 24.952797 20.294189
v 47.329987 24.952797 20.294189
v 47.329987 0.999947 -29.118225
v -45.830032 24.952797 -27.618225
v 45.829987 24.952797 -27.618225
v -45.830032 2.599091 -27.618225
v 45.829987 2.599091 -27.618225
v -47.330032 0.999947 20.294189
v 47.329987 0.999947 20.294189
v -47.330032 0.999947 -29.118225
v -47.330032 24.952797 -29.118225
v 47.329987 24.952797 -29.118225
v -45.830032 24.952797 18.794189
v 45.829987 24.952797 18.794189
v -45.830032 2.599091 18.794189
v 45.829987 2.599091 18.794189
v 29.647263 25.952820 22.376892
v 23.200005 18.874012 22.376892
v 23.200005 18.874012 23.904694
v 19.700005 15.374012 22.376892
v 19.700005 15.374012 23.904694
v 23.200005 -0.000031 23.904694
v 23.200005 -0.000031 22.376892
v 19.700005 -0.000031 22.376892
v 19.700005 -0.000031 23.904694
v 29.647263 -0.000031 22.376892
v 29.647263 -0.000031 23.904694
v 39.699997 -0.000031 22.376892
v 39.699997 -0.000031 23.904694
v 48.330002 -0.000031 22.376892
v 48.330002 -0.000031 20.294205
v 43.199997 -0.000031 23.904694
v 33.199982 -0.000031 23.904694
v 43.199997 -0.000031 22.376892
v 33.199982 -0.000031 22.376892
v 29.647263 25.952820 23.904694
v 33.199997 25.952820 23.904694
v 33.199997 25.952820 22.376892
v 39.699997 25.952820 22.376892
v 39.699997 25.952820 23.904694
v 43.199997 25.952820 23.904694
v 43.199997 25.952820 22.376892
v 48.330002 25.952820 20.294205
v 48.330002 25.952820 22.376892
v -29.647263 25.952820 22.376892
v -23.200005 18.874012 22.376892
v -23.200005 18.874012 23.904694
v -19.700005 15.374012 22.376892
v -19.700005 15.374012 23.904694
v -23.200005 -0.000031 23.904694
v -23.200005 -0.000031 22.376892
v -19.700005 -0.000031 22.376892
v -19.700005 -0.000031 23.904694
v -29.647263 -0.000031 22.376892
v -29.647263 -0.000031 23.904694
v -39.699997 -0.000031 22.376892
v -39.699997 -0.000031 23.904694
v -48.330002 -0.000031 22.376892
v -48.330002 -0.000031 20.294205
v -43.200005 -0.000031 23.904694
v -33.199982 -0.000031 23.904694
v -43.200005 -0.000031 22.376892
v -33.199982 -0.000031 22.376892
v -29.647263 25.952820 23.904694
v -33.200005 25.952820 23.904694
v -33.200005 25.952820 22.376892
v -39.700005 25.952820 22.376892
v -39.700005 25.952820 23.904694
v -43.199997 25.952820 23.904694
v -43.199997 25.952820 22.376892
v -48.330002 25.952820 20.294205
v -48.330002 25.952820 22.376892
v -10.463837 9.170578 23.123672
v -10.105469 8.305382 23.123672
v -11.329025 9.528946 23.123672
v -12.194214 7.440193 23.123672
v -12.552582 8.305382 23.123672
v -11.329025 7.081818 23.123672
v -10.463837 7.440193 23.123672
v -12.194214 9.170578 23.123672
v -10.463837 9.170578 26.669952
v -10.105469 8.305382 26.669952
v -11.329025 9.528946 26.669952
v -12.194214 7.440193 26.669952
v -12.552582 8.305382 26.669952
v -11.329025 7.081818 26.669952
v -10.463837 7.440193 26.669952
v -12.194214 9.170578 26.669952
v -10.362061 10.639839 22.376892
v -9.542313 10.092102 22.376892
v -8.994568 9.272346 22.376892
v -8.802231 8.305382 22.376892
v -11.329025 10.832176 22.376892
v -12.295975 5.970924 22.376892
v -13.115738 6.518661 22.376892
v -13.663467 7.338417 22.376892
v -13.855820 8.305382 22.376892
v -11.329025 5.778587 22.376892
v -10.362061 5.970924 22.376892
v -9.542313 6.518661 22.376892
v -8.994568 7.338417 22.376892
v -12.295975 10.639839 22.376892
v -13.115738 10.092102 22.376892
v -13.663467 9.272346 22.376892
v -10.362061 10.639839 23.178047
v -9.542313 10.092102 23.178047
v -8.994568 9.272346 23.178047
v -8.802231 8.305382 23.178047
v -11.329025 10.832176 23.178047
v -12.295975 5.970924 23.178047
v -13.115738 6.518661 23.178047
v -13.663467 7.338417 23.178047
v -13.855820 8.305382 23.178047
v -11.329025 5.778587 23.178047
v -10.362061 5.970924 23.178047
v -9.542313 6.518661 23.178047
v -8.994568 7.338417 23.178047
v -12.295975 10.639839 23.178047
v -13.115738 10.092102 23.178047
v -13.663467 9.272346 23.178047
v -14.967667 9.960205 26.641602
v -14.967667 9.571945 26.060501
v -14.967667 8.990845 25.672226
v -14.967667 8.305382 25.535873
v -14.967667 10.096558 27.327057
v -14.967667 6.650558 28.012497
v -14.967667 7.038834 28.593597
v -14.967667 7.619919 28.981873
v -14.967667 8.305382 29.118225
v -14.967667 6.514206 27.327057
v -14.967667 6.650558 26.641602
v -14.967667 7.038834 26.060501
v -14.967667 7.619919 25.672226
v -14.967667 9.960205 28.012497
v -14.967667 9.571945 28.593597
v -14.967667 8.990845 28.981873
v -8.788864 9.960205 26.641602
v -8.788864 9.571945 26.060501
v -8.788864 8.990845 25.672226
v -8.788864 8.305382 25.535873
v -8.788864 10.096558 27.327057
v -8.788864 6.650558 28.012497
v -8.788864 7.038834 28.593597
v -8.788864 7.619934 28.981873
v -8.788864 8.305382 29.118225
v -8.788864 6.514206 27.327057
v -8.788864 6.650558 26.641602
v -8.788864 7.038834 26.060501
v -8.788864 7.619934 25.672226
v -8.788864 9.960205 28.012497
v -8.788864 9.571945 28.593597
v -8.788864 8.990845 28.981873
v 14.967667 9.960205 26.641602
v 14.967667 9.571945 26.060501
v 14.967667 8.990845 25.672226
v 14.967667 8.305382 25.535873
v 14.967667 10.096558 27.327057
v 14.967667 6.650558 28.012497
v 14.967667 7.038834 28.593597
v 14.967667 7.619919 28.981873
v 14.967667 8.305382 29.118225
v 14.967667 6.514206 27.327057
v 14.967667 6.650558 26.641602
v 14.967667 7.038834 26.060501
v 14.967667 7.619919 25.672226
v 14.967667 9.960205 28.012497
v 14.967667 9.571945 28.593597
v 14.967667 8.990845 28.981873
v 8.788864 9.960205 26.641602
v 8.788864 9.571945 26.060501
v 8.788864 8.990845 25.672226
v 8.788864 8.305382 25.535873
v 8.788864 10.096558 27.327057
v 8.788864 6.650558 28.012497
v 8.788864 7.038834 28.593597
v 8.788864 7.619934 28.981873
v 8.788864 8.305382 29.118225
v 8.788864 6.514206 27.327057
v 8.788864 6.650558 26.641602
v 8.788864 7.038834 26.060501
v 8.788864 7.619934 25.672226
v 8.788864 9.960205 28.012497
v 8.788864 9.571945 28.593597
v 8.788864 8.990845 28.981873
v 10.362061 10.639839 23.178047
v 9.542313 10.092102 23.178047
v 8.994568 9.272346 23.178047
v 8.802231 8.305382 23.178047
v 11.329025 10.832176 23.178047
v 12.295975 5.970924 23.178047
v 13.115738 6.518661 23.178047
v 13.663467 7.338417 23.178047
v 13.855820 8.305382 23.178047
v 11.329025 5.778587 23.178047
v 10.362061 5.970924 23.178047
v 9.542313 6.518661 23.178047
v 8.994568 7.338417 23.178047
v 12.295975 10.639839 23.178047
v 13.115738 10.092102 23.178047
v 13.663467 9.272346 23.178047
v 10.362061 10.639839 22.376892
v 9.542313 10.092102 22.376892
v 8.994568 9.272346 22.376892
v 8.802231 8.305382 22.376892
v 11.329025 10.832176 22.376892
v 12.295975 5.970924 22.376892
v 13.115738 6.518661 22.376892
v 13.663467 7.338417 22.376892
v 13.855820 8.305382 22.376892
v 11.329025 5.778587 22.376892
v 10.362061 5.970924 22.376892
v 9.542313 6.518661 22.376892
v 8.994568 7.338417 22.376892
v 12.295975 10.639839 22.376892
v 13.115738 10.092102 22.376892
v 13.663467 9.272346 22.376892
v 8.788864 9.595787 26.792542
v 8.788864 9.293030 26.339417
v 8.788864 8.839897 26.036636
v 8.788864 8.305382 25.930313
v 8.788864 9.702118 27.327057
v 8.788864 7.014977 27.861557
v 8.788864 7.317749 28.314682
v 8.788864 7.770866 28.617462
v 8.788864 8.305382 28.723785
v 8.788864 6.908653 27.327057
v 8.788864 7.014977 26.792542
v 8.788864 7.317749 26.339417
v 8.788864 7.770866 26.036636
v 8.788864 9.595787 27.861557
v 8.788864 9.293030 28.314682
v 8.788864 8.839897 28.617462
v -8.788864 9.595787 26.792542
v -8.788864 9.293030 26.339417
v -8.788864 8.839897 26.036636
v -8.788864 8.305382 25.930313
v -8.788864 9.702118 27.327057
v -8.788864 7.014977 27.861557
v -8.788864 7.317749 28.314682
v -8.788864 7.770882 28.617462
v -8.788864 8.305382 28.723785
v -8.788864 6.908653 27.327057
v -8.788864 7.014977 26.792542
v -8.788864 7.317749 26.339417
v -8.788864 7.770882 26.036636
v -8.788864 9.595787 27.861557
v -8.788864 9.293030 28.314682
v -8.788864 8.839897 28.617462
v 10.463837 9.170578 23.123672
v 10.105469 8.305382 23.123672
v 11.329025 9.528946 23.123672
v 12.194214 7.440193 23.123672
v 12.552582 8.305382 23.123672
v 11.329025 7.081818 23.123672
v 10.463837 7.440193 23.123672
v 12.194214 9.170578 23.123672
v 10.463837 9.170578 26.669952
v 10.105469 8.305382 26.669952
v 11.329025 9.528946 26.669952
v 12.194214 7.440193 26.669952
v 12.552582 8.305382 26.669952
v 11.329025 7.081818 26.669952
v 10.463837 7.440193 26.669952
v 12.194214 9.170578 26.669952
vt 0.894131 0.218739
vt 0.835925 0.218739
vt 0.835925 0.001953
vt 0.894131 0.001953
vt 0.659718 0.454902
vt 0.770539 0.454902
vt 0.659718 0.667203
vt 0.770539 0.667203
vt 0.224755 0.621729
vt 0.221391 0.618365
vt 0.430327 0.621729
vt 0.433691 0.618365
vt 0.224755 0.725821
vt 0.221391 0.729186
vt 0.430327 0.725821
vt 0.433691 0.729186
vt 0.890647 0.618934
vt 0.940782 0.618934
vt 0.890647 0.824506
vt 0.940782 0.824506
vt 0.106045 0.848474
vt 0.106045 0.898609
vt 0.001953 0.848474
vt 0.001953 0.898609
vt 0.944612 0.428707
vt 0.894478 0.428707
vt 0.944612 0.223134
vt 0.894478 0.223134
vt 0.110851 0.848474
vt 0.214943 0.848474
vt 0.110851 0.898609
vt 0.214943 0.898609
vt 0.643664 0.738008
vt 0.438092 0.738008
vt 0.643664 0.633916
vt 0.438092 0.633916
vt 0.816865 0.791484
vt 0.816865 0.902305
vt 0.763144 0.791484
vt 0.763144 0.902305
vt 0.889646 0.223134
vt 0.889646 0.435435
vt 0.835925 0.223134
vt 0.835925 0.435435
vt 0.710344 0.872225
vt 0.599523 0.872225
vt 0.710344 0.818505
vt 0.599523 0.818505
vt 0.606637 0.884532
vt 0.606637 0.881106
vt 0.710700 0.884532
vt 0.710700 0.881106
vt 0.536736 0.076245
vt 0.536736 0.118575
vt 0.533309 0.076245
vt 0.533309 0.118575
vt 0.244059 0.684331
vt 0.229599 0.684331
vt 0.244059 0.642000
vt 0.229599 0.626124
vt 0.906705 0.098168
vt 0.898856 0.106018
vt 0.906705 0.009803
vt 0.898856 0.001953
vt 0.941186 0.098168
vt 0.941186 0.106018
vt 0.253677 0.911397
vt 0.288157 0.911397
vt 0.253677 0.914824
vt 0.288157 0.914824
vt 0.606637 0.892354
vt 0.606637 0.888927
vt 0.695000 0.892354
vt 0.695000 0.888927
vt 0.195386 0.143993
vt 0.195386 0.178473
vt 0.107020 0.143993
vt 0.107020 0.178473
vt 0.926020 0.072404
vt 0.911442 0.072404
vt 0.926020 0.014198
vt 0.911442 0.014198
vt 0.468737 0.905820
vt 0.468737 0.902394
vt 0.526943 0.905820
vt 0.526943 0.902394
vt 0.657529 0.909241
vt 0.657529 0.905815
vt 0.715736 0.909241
vt 0.715736 0.905815
vt 0.531667 0.893328
vt 0.589874 0.893328
vt 0.531667 0.897999
vt 0.589874 0.897999
vt 0.930595 0.180864
vt 0.930595 0.122657
vt 0.938563 0.180864
vt 0.938563 0.122657
vt 0.976158 0.922346
vt 0.972731 0.922346
vt 0.976158 0.864140
vt 0.972731 0.864140
vt 0.821697 0.852478
vt 0.879903 0.852478
vt 0.821697 0.860328
vt 0.879903 0.860328
vt 0.060159 0.912069
vt 0.060159 0.915496
vt 0.001953 0.912069
vt 0.001953 0.915496
vt 0.554104 0.028663
vt 0.557530 0.028663
vt 0.554104 0.036513
vt 0.557530 0.036513
vt 0.554104 0.051091
vt 0.557530 0.051091
vt 0.554104 0.059059
vt 0.557530 0.059059
vt 0.960145 0.638563
vt 0.960145 0.630714
vt 0.963572 0.638563
vt 0.963572 0.630714
vt 0.960145 0.616136
vt 0.960145 0.608168
vt 0.963572 0.616136
vt 0.963572 0.608168
vt 0.960145 0.593708
vt 0.960145 0.585858
vt 0.963572 0.593708
vt 0.963572 0.585858
vt 0.562201 0.017158
vt 0.968243 0.650069
vt 0.963572 0.650069
vt 0.968243 0.433283
vt 0.963572 0.497493
vt 0.326658 0.662295
vt 0.326658 0.673801
vt 0.268452 0.662295
vt 0.268452 0.673801
vt 0.557530 0.017158
vt 0.533309 0.029521
vt 0.536736 0.029521
vt 0.533309 0.071850
vt 0.536736 0.071850
vt 0.348124 0.684331
vt 0.348124 0.642000
vt 0.362583 0.684331
vt 0.362583 0.626124
vt 0.941186 0.001953
vt 0.941186 0.009803
vt 0.728669 0.881106
vt 0.732095 0.881106
vt 0.728669 0.915587
vt 0.732095 0.915587
vt 0.483512 0.199798
vt 0.483512 0.141592
vt 0.498090 0.199798
vt 0.498090 0.141592
vt 0.405806 0.898995
vt 0.464011 0.898995
vt 0.405806 0.902422
vt 0.464011 0.902422
vt 0.775183 0.655439
vt 0.833390 0.655439
vt 0.775183 0.658865
vt 0.833390 0.658865
vt 0.594598 0.901420
vt 0.594598 0.896749
vt 0.652805 0.901420
vt 0.652805 0.896749
vt 0.722956 0.876711
vt 0.714988 0.876711
vt 0.722956 0.818505
vt 0.714988 0.818505
vt 0.127815 0.903003
vt 0.186020 0.903003
vt 0.127815 0.906430
vt 0.186020 0.906430
vt 0.727574 0.818505
vt 0.735424 0.818505
vt 0.727574 0.876711
vt 0.735424 0.876711
vt 0.819162 0.910127
vt 0.760955 0.910127
vt 0.819162 0.906700
vt 0.760955 0.906700
vt 0.554104 0.222440
vt 0.554104 0.214591
vt 0.557530 0.222440
vt 0.557530 0.214591
vt 0.554104 0.200012
vt 0.554104 0.192044
vt 0.557530 0.200012
vt 0.557530 0.192044
vt 0.960145 0.444788
vt 0.963572 0.444788
vt 0.960145 0.452638
vt 0.963572 0.452638
vt 0.960145 0.467216
vt 0.963572 0.467216
vt 0.960145 0.475184
vt 0.963572 0.475184
vt 0.960145 0.489644
vt 0.963572 0.489644
vt 0.960145 0.497493
vt 0.562201 0.233946
vt 0.963572 0.433283
vt 0.398705 0.626124
vt 0.398705 0.684330
vt 0.387200 0.626124
vt 0.387200 0.684330
vt 0.557530 0.233946
vt 0.431270 0.157519
vt 0.431270 0.155419
vt 0.423317 0.157519
vt 0.423317 0.155419
vt 0.431270 0.159619
vt 0.423317 0.159619
vt 0.431270 0.161719
vt 0.423317 0.161719
vt 0.431270 0.163820
vt 0.423317 0.163820
vt 0.431270 0.165920
vt 0.423317 0.165920
vt 0.431270 0.168020
vt 0.423317 0.168020
vt 0.431270 0.153318
vt 0.431270 0.151218
vt 0.423317 0.153318
vt 0.423317 0.151218
vt 0.834283 0.671082
vt 0.834283 0.672465
vt 0.836306 0.671082
vt 0.836306 0.672465
vt 0.834283 0.674534
vt 0.836306 0.674534
vt 0.834283 0.676975
vt 0.836306 0.676975
vt 0.816520 0.648408
vt 0.815137 0.648408
vt 0.816520 0.650430
vt 0.815137 0.650430
vt 0.813068 0.648408
vt 0.813068 0.650430
vt 0.810626 0.648408
vt 0.810626 0.650430
vt 0.404337 0.065680
vt 0.404337 0.063490
vt 0.402522 0.065680
vt 0.402522 0.063490
vt 0.402522 0.026202
vt 0.402522 0.028392
vt 0.404337 0.026202
vt 0.404337 0.028392
vt 0.834283 0.681486
vt 0.834283 0.682868
vt 0.836306 0.681486
vt 0.836306 0.682868
vt 0.834283 0.679416
vt 0.836306 0.679416
vt 0.404337 0.030582
vt 0.402522 0.030582
vt 0.806116 0.648408
vt 0.804733 0.648408
vt 0.806116 0.650430
vt 0.804733 0.650430
vt 0.808185 0.648408
vt 0.808185 0.650430
vt 0.402522 0.061300
vt 0.404337 0.061300
vt 0.403069 0.694392
vt 0.403501 0.696561
vt 0.403501 0.692223
vt 0.404729 0.690385
vt 0.406568 0.689156
vt 0.408737 0.688725
vt 0.410905 0.689156
vt 0.412744 0.690385
vt 0.413972 0.692223
vt 0.414404 0.694392
vt 0.413972 0.696561
vt 0.412744 0.698399
vt 0.410905 0.699628
vt 0.408737 0.700059
vt 0.406568 0.699628
vt 0.404729 0.698399
vt 0.237328 0.691205
vt 0.236457 0.689902
vt 0.237633 0.692743
vt 0.237328 0.694280
vt 0.236457 0.695583
vt 0.235154 0.696454
vt 0.233616 0.696760
vt 0.232079 0.696454
vt 0.230776 0.695583
vt 0.229905 0.694280
vt 0.229599 0.692743
vt 0.229905 0.691205
vt 0.230776 0.689902
vt 0.232079 0.689031
vt 0.233616 0.688725
vt 0.235154 0.689031
vt 0.988668 0.880725
vt 0.988974 0.879188
vt 0.987797 0.882029
vt 0.986494 0.882899
vt 0.984957 0.883205
vt 0.983420 0.882899
vt 0.982116 0.882029
vt 0.981245 0.880725
vt 0.980940 0.879188
vt 0.981245 0.877651
vt 0.982116 0.876347
vt 0.983420 0.875477
vt 0.984957 0.875171
vt 0.986494 0.875477
vt 0.987797 0.876347
vt 0.988668 0.877651
vt 0.931819 0.199117
vt 0.933386 0.199116
vt 0.931819 0.185259
vt 0.933386 0.185259
vt 0.934953 0.199116
vt 0.934953 0.185259
vt 0.936521 0.199116
vt 0.936521 0.185259
vt 0.919279 0.199116
vt 0.920847 0.199117
vt 0.919279 0.185259
vt 0.920847 0.185259
vt 0.922414 0.199117
vt 0.922414 0.185259
vt 0.923981 0.199116
vt 0.923981 0.185259
vt 0.930251 0.185259
vt 0.930251 0.199116
vt 0.917712 0.185259
vt 0.917712 0.199116
vt 0.916144 0.185259
vt 0.914577 0.185259
vt 0.916144 0.199116
vt 0.914577 0.199116
vt 0.913010 0.185259
vt 0.913010 0.199116
vt 0.911442 0.185259
vt 0.911442 0.199117
vt 0.928684 0.185259
vt 0.927116 0.185259
vt 0.928684 0.199117
vt 0.927116 0.199117
vt 0.925549 0.185259
vt 0.925549 0.199116
vt 0.795559 0.618934
vt 0.795559 0.632791
vt 0.797127 0.618934
vt 0.797127 0.632791
vt 0.798694 0.618934
vt 0.798694 0.632791
vt 0.800262 0.618934
vt 0.800262 0.632791
vt 0.783020 0.618934
vt 0.783020 0.632791
vt 0.784588 0.618934
vt 0.784587 0.632791
vt 0.786155 0.618934
vt 0.786155 0.632791
vt 0.787722 0.618934
vt 0.787722 0.632791
vt 0.793992 0.632791
vt 0.793992 0.618934
vt 0.781452 0.632791
vt 0.781452 0.618934
vt 0.779885 0.632791
vt 0.779885 0.618934
vt 0.778318 0.632791
vt 0.778318 0.618934
vt 0.776750 0.632791
vt 0.776750 0.618934
vt 0.775183 0.632791
vt 0.775183 0.618934
vt 0.792424 0.632791
vt 0.792424 0.618934
vt 0.790857 0.632791
vt 0.790857 0.618934
vt 0.789290 0.632791
vt 0.789290 0.618934
vt 0.211284 0.805107
vt 0.212822 0.805413
vt 0.209981 0.804236
vt 0.209110 0.802933
vt 0.208804 0.801396
vt 0.209110 0.799858
vt 0.209981 0.798555
vt 0.211284 0.797684
vt 0.212822 0.797378
vt 0.214359 0.797684
vt 0.215662 0.798555
vt 0.216533 0.799858
vt 0.216839 0.801396
vt 0.216533 0.802933
vt 0.215662 0.804236
vt 0.214359 0.805107
vt 0.158542 0.805107
vt 0.159845 0.804236
vt 0.157005 0.805413
vt 0.155467 0.805107
vt 0.154164 0.804236
vt 0.153293 0.802933
vt 0.152987 0.801396
vt 0.153293 0.799858
vt 0.154164 0.798555
vt 0.155467 0.797684
vt 0.157005 0.797378
vt 0.158542 0.797684
vt 0.159845 0.798555
vt 0.160716 0.799858
vt 0.161022 0.801396
vt 0.160716 0.802933
vt 0.643144 0.748070
vt 0.642712 0.745901
vt 0.642712 0.750239
vt 0.641484 0.752077
vt 0.639645 0.753306
vt 0.637477 0.753737
vt 0.635308 0.753306
vt 0.633469 0.752077
vt 0.632241 0.750239
vt 0.631810 0.748070
vt 0.632241 0.745901
vt 0.633469 0.744063
vt 0.635308 0.742834
vt 0.637477 0.742403
vt 0.639645 0.742834
vt 0.641484 0.744063
vt 0.735436 0.447742
vt 0.735436 0.449539
vt 0.737647 0.447742
vt 0.737647 0.449539
vt 0.739858 0.447742
vt 0.739858 0.449539
vt 0.742069 0.447742
vt 0.742069 0.449539
vt 0.717746 0.447742
vt 0.717746 0.449539
vt 0.719958 0.447742
vt 0.719958 0.449539
vt 0.722169 0.447742
vt 0.722169 0.449539
vt 0.724380 0.447742
vt 0.724380 0.449539
vt 0.733224 0.449539
vt 0.733224 0.447742
vt 0.715535 0.449539
vt 0.715535 0.447742
vt 0.746491 0.447742
vt 0.746491 0.449539
vt 0.748703 0.447742
vt 0.748703 0.449539
vt 0.744280 0.447742
vt 0.744280 0.449539
vt 0.750914 0.447742
vt 0.750914 0.449539
vt 0.728802 0.447742
vt 0.728802 0.449539
vt 0.731013 0.447742
vt 0.731013 0.449539
vt 0.726591 0.447742
vt 0.726591 0.449539
vt 0.911462 0.539521
vt 0.911462 0.578944
vt 0.912684 0.539521
vt 0.912684 0.578944
vt 0.913906 0.539521
vt 0.913906 0.578944
vt 0.915128 0.539521
vt 0.915129 0.578944
vt 0.901684 0.539521
vt 0.901684 0.578944
vt 0.902906 0.539521
vt 0.902906 0.578944
vt 0.904128 0.539521
vt 0.904128 0.578944
vt 0.905350 0.539521
vt 0.905350 0.578944
vt 0.910240 0.578944
vt 0.910240 0.539521
vt 0.900461 0.578944
vt 0.900461 0.539521
vt 0.899239 0.578944
vt 0.899239 0.539521
vt 0.898017 0.578944
vt 0.898017 0.539521
vt 0.896795 0.578944
vt 0.896795 0.539521
vt 0.895572 0.578944
vt 0.895572 0.539521
vt 0.909017 0.578944
vt 0.909017 0.539521
vt 0.907795 0.578944
vt 0.907795 0.539521
vt 0.906573 0.578944
vt 0.906573 0.539521
vt 0.371878 0.150294
vt 0.379831 0.150294
vt 0.371878 0.148193
vt 0.379831 0.148193
vt 0.371878 0.152394
vt 0.379831 0.152394
vt 0.371878 0.154494
vt 0.379831 0.154494
vt 0.371878 0.156595
vt 0.379831 0.156595
vt 0.371878 0.158695
vt 0.379831 0.158695
vt 0.371878 0.160795
vt 0.379831 0.160795
vt 0.371878 0.146093
vt 0.379831 0.146093
vt 0.371878 0.143993
vt 0.379831 0.143993
vn 0.000000 0.000000 -1.000000
vn 0.000000 0.000000 -1.000000
vn 0.000000 0.000000 -1.000000
vn 0.000000 0.000000 -1.000000
vn 0.000000 0.000000 -1.000000
vn 0.000000 0.000000 -1.000000
vn 0.000000 -1.000000 0.000000
vn 0.000000 -1.000000 0.000000
vn 0.000000 -1.000000 0.000000
vn 0.000000 -1.000000 0.000000
vn 0.000000 -1.000000 0.000000
vn 0.000000 -1.000000 0.000000
vn 0.000000 1.000000 0.000000
vn 0.000000 1.000000 -0.000000
vn 0.000000 1.000000 -0.000000
vn 0.000000 1.000000 -0.000000
vn 0.000000 1.000000 -0.000000
vn 0.000000 1.000000 -0.000000
vn 0.000000 1.000000 0.000000
vn 0.000000 1.000000 0.000000
vn 0.000000 1.000000 0.000000
vn 0.000000 1.000000 0.000000
vn 0.000000 1.000000 0.000000
vn 0.000000 1.000000 -0.000000
vn 0.000000 1.000000 -0.000000
vn 0.000000 1.000000 -0.000000
vn 0.000000 1.000000 0.000000
vn 0.000000 1.000000 0.000000
vn 0.000000 1.000000 -0.000000
vn 0.000000 1.000000 0.000000
vn 0.000000 1.000000 0.000000
vn 0.000000 1.000000 0.000000
vn 0.000000 1.000000 0.000000
vn 0.000000 1.000000 0.000000
vn 0.000000 1.000000 0.000000
vn 0.000000 1.000000 0.000000
vn 0.000000 0.000000 -1.000000
vn 0.000000 0.000000 -1.000000
vn 0.000000 0.000000 -1.000000
vn 0.000000 0.000000 -1.000000
vn 0.000000 0.000000 -1.000000
vn 0.000000 0.000000 -1.000000
vn 1.000000 0.000000 0.000000
vn 1.000000 0.000000 0.000000
vn 1.000000 0.000000 0.000000
vn 1.000000 0.000000 0.000000
vn 1.000000 0.000000 0.000000
vn 1.000000 0.000000 0.000000
vn 0.000000 0.000000 1.000000
vn 0.000000 0.000000 1.000000
vn 0.000000 0.000000 1.000000
vn 0.000000 0.000000 1.000000
vn 0.000000 0.000000 1.000000
vn 0.000000 0.000000 1.000000
vn -1.000000 0.000000 0.000000
vn -1.000000 0.000000 0.000000
vn -1.000000 0.000000 0.000000
vn -1.000000 0.000000 0.000000
vn -1.000000 0.000000 0.000000
vn -1.000000 0.000000 0.000000
vn 0.000000 1.000000 0.000000
vn 0.000000 1.000000 0.000000
vn 0.000000 1.000000 0.000000
vn 0.000000 1.000000 0.000000
vn 0.000000 1.000000 0.000000
vn 0.000000 1.000000 0.000000
vn 1.000000 0.000000 0.000000
vn 1.000000 0.000000 0.000000
vn 1.000000 0.000000 0.000000
vn 1.000000 0.000000 0.000000
vn 1.000000 0.000000 0.000000
vn 1.000000 0.000000 0.000000
vn 0.000000 0.000000 -1.000000
vn 0.000000 0.000000 -1.000000
vn 0.000000 0.000000 -1.000000
vn 0.000000 0.000000 -1.000000
vn 0.000000 0.000000 -1.000000
vn 0.000000 0.000000 -1.000000
vn -1.000000 0.000000 0.000000
vn -1.000000 0.000000 0.000000
vn -1.000000 0.000000 0.000000
vn -1.000000 0.000000 0.000000
vn -1.000000 0.000000 0.000000
vn -1.000000 0.000000 0.000000
vn 0.000000 1.000000 0.000000
vn 0.000000 1.000000 0.000000
vn 0.000000 1.000000 0.000000
vn 0.000000 1.000000 0.000000
vn 0.000000 1.000000 0.000000
vn 0.000000 1.000000 0.000000
vn 1.000000 0.000000 0.000000
vn 1.000000 0.000000 0.000000
vn 1.000000 0.000000 0.000000
vn 1.000000 0.000000 0.000000
vn 1.000000 0.000000 0.000000
vn 1.000000 0.000000 0.000000
vn 0.000000 0.000000 1.000000
vn -0.000000 0.000000 1.000000
vn -0.000000 0.000000 1.000000
vn -0.000000 0.000000 1.000000
vn -0.000000 0.000000 1.000000
vn -0.000000 0.000000 1.000000
vn 0.000000 0.000000 1.000000
vn 0.000000 0.000000 1.000000
vn -0.000000 0.000000 1.000000
vn -0.000000 0.000000 1.000000
vn 0.000000 0.000000 1.000000
vn -0.000000 0.000000 1.000000
vn 0.000000 0.000000 1.000000
vn 0.000000 0.000000 1.000000
vn 0.000000 0.000000 1.000000
vn 0.000000 0.000000 1.000000
vn 0.000000 0.000000 1.000000
vn 0.000000 0.000000 1.000000
vn -1.000000 0.000000 0.000000
vn -1.000000 0.000000 0.000000
vn -1.000000 0.000000 0.000000
vn -1.000000 0.000000 0.000000
vn -1.000000 0.000000 0.000000
vn -1.000000 0.000000 0.000000
vn 0.000000 -1.000000 0.000000
vn 0.000000 -1.000000 0.000000
vn 0.000000 -1.000000 0.000000
vn 0.000000 -1.000000 0.000000
vn 0.000000 -1.000000 0.000000
vn 0.000000 -1.000000 0.000000
vn 0.000000 0.000000 1.000000
vn 0.000000 0.000000 1.000000
vn 0.000000 0.000000 1.000000
vn 0.000000 0.000000 1.000000
vn 0.000000 0.000000 1.000000
vn 0.000000 0.000000 1.000000
vn 0.000000 0.000000 1.000000
vn 0.000000 0.000000 1.000000
vn 0.000000 0.000000 1.000000
vn 0.000000 0.000000 1.000000
vn 0.000000 0.000000 1.000000
vn 0.000000 0.000000 1.000000
vn -1.000000 0.000000 0.000000
vn -1.000000 0.000000 0.000000
vn -1.000000 0.000000 0.000000
vn -1.000000 0.000000 0.000000
vn -1.000000 0.000000 0.000000
vn -1.000000 0.000000 0.000000
vn -1.000000 0.000000 0.000000
vn -1.000000 0.000000 0.000000
vn -1.000000 0.000000 0.000000
vn -1.000000 0.000000 0.000000
vn -1.000000 0.000000 0.000000
vn -1.000000 0.000000 0.000000
vn 1.000000 0.000000 0.000000
vn 1.000000 0.000000 0.000000
vn 1.000000 0.000000 0.000000
vn 1.000000 0.000000 0.000000
vn 1.000000 0.000000 0.000000
vn 1.000000 0.000000 0.000000
vn 0.000000 0.000000 1.000000
vn 0.000000 0.000000 1.000000
vn 0.000000 0.000000 1.000000
vn 0.000000 0.000000 1.000000
vn 0.000000 0.000000 1.000000
vn 0.000000 0.000000 1.000000
vn 1.000000 -0.000001 0.000000
vn 1.000000 -0.000001 0.000000
vn 1.000000 -0.000001 0.000000
vn 1.000000 -0.000001 0.000000
vn 1.000000 -0.000001 0.000000
vn 1.000000 -0.000001 0.000000
vn 0.000000 0.000000 1.000000
vn 0.000000 0.000000 1.000000
vn 0.000000 0.000000 1.000000
vn 0.000000 0.000000 1.000000
vn 0.000000 0.000000 1.000000
vn 0.000000 0.000000 1.000000
vn 1.000000 0.000000 0.000000
vn 1.000000 0.000000 0.000000
vn 1.000000 0.000000 0.000000
vn 1.000000 0.000000 0.000000
vn 1.000000 0.000000 0.000000
vn 1.000000 0.000000 0.000000
vn 0.000000 1.000000 0.000000
vn 0.000000 1.000000 0.000000
vn 0.000000 1.000000 0.000000
vn 0.000000 1.000000 0.000000
vn 0.000000 1.000000 0.000000
vn 0.000000 1.000000 0.000000
vn 0.000000 1.000000 0.000000
vn 0.000000 1.000000 -0.000003
vn 0.000000 1.000000 0.000000
vn 0.000000 1.000000 0.000000
vn 0.000000 1.000000 -0.000003
vn 0.000000 1.000000 -0.000000
vn 0.000000 -1.000000 0.000000
vn 0.000000 -1.000000 0.000000
vn 0.000000 -1.000000 0.000000
vn 0.000000 -1.000000 0.000000
vn 0.000000 -1.000000 0.000000
vn 0.000000 -1.000000 0.000000
vn 0.000000 -1.000000 0.000000
vn 0.000000 -1.000000 0.000000
vn 0.000000 -1.000000 0.000000
vn 0.000000 -1.000000 0.000000
vn 0.000000 -1.000000 0.000000
vn 0.000000 -1.000000 0.000000
vn 0.000000 -1.000000 0.000000
vn 0.000000 -1.000000 0.000000
vn 0.000000 -1.000000 0.000000
vn 0.000000 -1.000000 0.000000
vn 0.000000 -1.000000 0.000000
vn 0.000000 -1.000000 0.000000
vn 0.000000 1.000000 -0.000000
vn 0.000000 1.000000 -0.000003
vn 0.000000 1.000000 0.000000
vn 0.000000 -1.000000 0.000000
vn 0.000000 -1.000000 0.000000
vn 0.000000 -1.000000 0.000000
vn 0.000000 -1.000000 0.000000
vn 0.000000 -1.000000 0.000000
vn 0.000000 -1.000000 0.000000
vn 0.000000 -1.000000 0.000000
vn 0.000000 -1.000000 0.000000
vn 0.000000 -1.000000 0.000000
vn 0.000000 -1.000000 0.000000
vn 0.000000 -1.000000 0.000000
vn 0.000000 -1.000000 0.000000
vn 0.000000 -1.000000 0.000000
vn 0.000000 -1.000000 0.000000
vn 0.000000 -1.000000 0.000000
vn 0.000000 -1.000000 0.000000
vn 0.000000 -1.000000 0.000000
vn 0.000000 -1.000000 0.000000
vn 0.000000 -1.000000 0.000000
vn 0.000000 -1.000000 0.000000
vn 0.000000 -1.000000 0.000000
vn 0.000000 -1.000000 0.000000
vn 0.000000 -1.000000 0.000000
vn 0.000000 -1.000000 0.000000
vn 0.000000 1.000000 0.000000
vn 0.000000 1.000000 -0.000000
vn 0.000000 1.000000 0.000000
vn 0.000000 1.000000 -0.000003
vn 0.000000 1.000000 -0.000000
vn 0.000000 1.000000 -0.000000
vn 0.000000 0.000000 1.000000
vn 0.000000 0.000000 1.000000
vn 0.000000 0.000000 1.000000
vn 0.000000 0.000000 1.000000
vn 0.000000 0.000000 1.000000
vn 0.000000 0.000000 1.000000
vn 0.000000 1.000000 0.000000
vn 0.000000 1.000000 0.000000
vn 0.000000 1.000000 -0.000000
vn -1.000000 0.000000 0.000000
vn -1.000000 0.000000 0.000000
vn -1.000000 0.000000 0.000000
vn -1.000000 0.000000 0.000000
vn -1.000000 0.000000 0.000000
vn -1.000000 0.000000 0.000000
vn 0.000000 0.000000 1.000000
vn 0.000000 0.000000 1.000000
vn 0.000000 0.000000 1.000000
vn 0.000000 0.000000 1.000000
vn 0.000000 0.000000 1.000000
vn 0.000000 0.000000 1.000000
vn -0.000000 0.000000 1.000000
vn 0.000000 0.000000 1.000000
vn -0.000000 0.000000 1.000000
vn -0.000000 0.000000 1.000000
vn 0.000000 0.000000 1.000000
vn 0.000000 0.000000 1.000000
vn -0.000000 0.000000 1.000000
vn -0.000000 0.000000 1.000000
vn -0.000000 0.000000 1.000000
vn -0.000000 0.000000 1.000000
vn -0.000000 0.000000 1.000000
vn 0.000000 0.000000 1.000000
vn 1.000000 0.000000 0.000000
vn 1.000000 0.000000 0.000000
vn 1.000000 0.000000 0.000000
vn 1.000000 0.000000 0.000000
vn 1.000000 0.000000 0.000000
vn 1.000000 0.000000 0.000000
vn 0.000000 0.000000 1.000000
vn 0.000000 0.000000 1.000000
vn 0.000000 0.000000 1.000000
vn 0.000000 0.000000 1.000000
vn 0.000000 0.000000 1.000000
vn 0.000000 0.000000 1.000000
vn 1.000000 0.000000 0.000000
vn 1.000000 0.000000 0.000000
vn 1.000000 0.000000 0.000000
vn 1.000000 0.000000 0.000000
vn 1.000000 0.000000 0.000000
vn 1.000000 0.000000 0.000000
vn 1.000000 0.000000 0.000000
vn 1.000000 0.000000 0.000000
vn 1.000000 0.000000 0.000000
vn 1.000000 0.000000 0.000000
vn 1.000000 0.000000 0.000000
vn 1.000000 0.000000 0.000000
vn -1.000000 0.000000 0.000000
vn -1.000000 0.000000 0.000000
vn -1.000000 0.000000 0.000000
vn -1.000000 0.000000 0.000000
vn -1.000000 0.000000 0.000000
vn -1.000000 0.000000 0.000000
vn 0.000000 0.000000 1.000000
vn 0.000000 0.000000 1.000000
vn 0.000000 0.000000 1.000000
vn 0.000000 0.000000 1.000000
vn 0.000000 0.000000 1.000000
vn 0.000000 0.000000 1.000000
vn -1.000000 -0.000001 0.000000
vn -1.000000 -0.000001 0.000000
vn -1.000000 -0.000001 0.000000
vn -1.000000 -0.000001 0.000000
vn -1.000000 -0.000001 0.000000
vn -1.000000 -0.000001 0.000000
vn 0.000000 0.000000 1.000000
vn 0.000000 0.000000 1.000000
vn 0.000000 0.000000 1.000000
vn 0.000000 0.000000 1.000000
vn 0.000000 0.000000 1.000000
vn 0.000000 0.000000 1.000000
vn -1.000000 0.000000 0.000000
vn -1.000000 0.000000 0.000000
vn -1.000000 0.000000 0.000000
vn -1.000000 0.000000 0.000000
vn -1.000000 0.000000 0.000000
vn -1.000000 0.000000 0.000000
vn 0.000000 1.000000 0.000000
vn 0.000000 1.000000 0.000000
vn 0.000000 1.000000 0.000000
vn 0.000000 1.000000 0.000000
vn 0.000000 1.000000 0.000000
vn 0.000000 1.000000 0.000004
vn 0.000000 1.000000 0.000000
vn 0.000000 1.000000 0.000000
vn 0.000000 1.000000 -0.000005
vn 0.000000 1.000000 -0.000005
vn 0.000000 1.000000 0.000000
vn 0.000000 1.000000 -0.000000
vn 0.000000 -1.000000 0.000000
vn 0.000000 -1.000000 0.000000
vn 0.000000 -1.000000 0.000000
vn 0.000000 -1.000000 0.000000
vn 0.000000 -1.000000 0.000000
vn 0.000000 -1.000000 0.000000
vn 0.000000 -1.000000 0.000000
vn 0.000000 -1.000000 0.000000
vn 0.000000 -1.000000 0.000000
vn 0.000000 -1.000000 0.000000
vn 0.000000 -1.000000 0.000000
vn 0.000000 -1.000000 0.000000
vn 0.000000 -1.000000 0.000000
vn 0.000000 -1.000000 0.000000
vn 0.000000 -1.000000 0.000000
vn 0.000000 -1.000000 0.000000
vn 0.000000 -1.000000 0.000000
vn 0.000000 -1.000000 0.000000
vn 0.000000 1.000000 -0.000000
vn 0.000000 1.000000 0.000000
vn 0.000000 1.000000 -0.000000
vn 0.000000 1.000000 -0.000000
vn 0.000000 1.000000 0.000000
vn 0.000000 1.000000 -0.000000
vn 0.000000 1.000000 0.000000
vn 0.000000 1.000000 0.000004
vn 0.000000 1.000000 -0.000005
vn 0.000000 -1.000000 0.000000
vn 0.000000 -1.000000 0.000000
vn 0.000000 -1.000000 0.000000
vn 0.000000 -1.000000 0.000000
vn 0.000000 -1.000000 0.000000
vn 0.000000 -1.000000 0.000000
vn 0.000000 -1.000000 0.000000
vn 0.000000 -1.000000 0.000000
vn 0.000000 -1.000000 0.000000
vn 0.000000 -1.000000 0.000000
vn 0.000000 -1.000000 0.000000
vn 0.000000 -1.000000 0.000000
vn 0.000000 -1.000000 0.000000
vn 0.000000 -1.000000 0.000000
vn 0.000000 -1.000000 0.000000
vn 0.000000 -1.000000 0.000000
vn 0.000000 -1.000000 0.000000
vn 0.000000 -1.000000 0.000000
vn 0.000000 1.000000 0.000000
vn 0.000000 1.000000 0.000004
vn 0.000000 1.000000 0.000000
vn 0.000000 1.000000 -0.000005
vn 0.000000 1.000000 -0.000000
vn 0.000000 1.000000 0.000000
vn 0.000000 0.000000 1.000000
vn 0.000000 0.000000 1.000000
vn 0.000000 0.000000 1.000000
vn 0.000000 0.000000 1.000000
vn 0.000000 0.000000 1.000000
vn 0.000000 0.000000 1.000000
vn 0.000000 1.000000 0.000000
vn 0.000000 1.000000 0.000000
vn 0.000000 1.000000 0.000000
vn -0.707109 0.707104 0.000000
vn -1.000000 0.000000 0.000000
vn -0.707109 0.707105 0.000000
vn -1.000000 0.000000 0.000000
vn -1.000000 0.000000 0.000000
vn -0.707109 0.707105 0.000000
vn -0.000000 1.000000 0.000000
vn -0.707109 0.707104 0.000000
vn -0.000000 1.000000 0.000000
vn -0.707109 0.707104 0.000000
vn -0.707109 0.707105 0.000000
vn -0.000000 1.000000 0.000000
vn 0.707109 0.707104 0.000000
vn -0.000000 1.000000 0.000000
vn 0.707109 0.707105 0.000000
vn -0.000000 1.000000 0.000000
vn -0.000000 1.000000 0.000000
vn 0.707109 0.707105 0.000000
vn 1.000000 -0.000001 0.000000
vn 0.707109 0.707104 0.000000
vn 1.000000 0.000001 0.000000
vn 0.707109 0.707104 0.000000
vn 0.707109 0.707105 0.000000
vn 1.000000 0.000001 0.000000
vn 0.707109 -0.707105 0.000000
vn 1.000000 -0.000001 0.000000
vn 0.707109 -0.707105 0.000000
vn 1.000000 -0.000001 0.000000
vn 1.000000 0.000001 0.000000
vn 0.707109 -0.707105 0.000000
vn 0.382686 -0.923878 0.000000
vn 0.707109 -0.707105 0.000000
vn 0.382685 -0.923879 0.000000
vn 0.707109 -0.707105 0.000000
vn 0.707109 -0.707105 0.000000
vn 0.382685 -0.923879 0.000000
vn -0.707109 -0.707105 0.000000
vn -0.382686 -0.923878 0.000000
vn -0.707109 -0.707104 0.000000
vn -0.382686 -0.923878 0.000000
vn -0.382686 -0.923879 0.000000
vn -0.707109 -0.707104 0.000000
vn -1.000000 0.000000 0.000000
vn -0.707109 -0.707105 0.000000
vn -1.000000 0.000000 0.000000
vn -0.707109 -0.707105 0.000000
vn -0.707109 -0.707104 0.000000
vn -1.000000 0.000000 0.000000
vn 0.382680 0.923881 0.000000
vn 0.707107 0.707106 0.000000
vn 0.382680 0.923881 0.000000
vn 0.707107 0.707106 0.000000
vn 0.707106 0.707107 0.000000
vn 0.382680 0.923881 0.000000
vn 0.707107 0.707106 0.000000
vn 0.923880 0.382683 0.000000
vn 0.707106 0.707107 0.000000
vn 0.923880 0.382683 0.000000
vn 0.923880 0.382683 0.000000
vn 0.707106 0.707107 0.000000
vn 0.923880 0.382683 0.000000
vn 1.000000 -0.000000 0.000000
vn 0.923880 0.382683 0.000000
vn 1.000000 -0.000000 0.000000
vn 1.000000 0.000000 0.000000
vn 0.923880 0.382683 0.000000
vn -0.382680 -0.923881 0.000000
vn -0.707107 -0.707106 0.000000
vn -0.382680 -0.923881 0.000000
vn -0.707107 -0.707106 0.000000
vn -0.707107 -0.707107 0.000000
vn -0.382680 -0.923881 0.000000
vn -0.707107 -0.707106 0.000000
vn -0.923880 -0.382683 0.000000
vn -0.707107 -0.707107 0.000000
vn -0.923880 -0.382683 0.000000
vn -0.923880 -0.382683 0.000000
vn -0.707107 -0.707107 0.000000
vn -0.923880 -0.382683 0.000000
vn -1.000000 0.000000 0.000000
vn -0.923880 -0.382683 0.000000
vn -1.000000 0.000000 0.000000
vn -1.000000 -0.000000 0.000000
vn -0.923880 -0.382683 0.000000
vn 0.382680 0.923881 0.000000
vn -0.000000 1.000000 0.000000
vn 0.382680 0.923881 0.000000
vn -0.000000 1.000000 0.000000
vn 0.000000 1.000000 0.000000
vn 0.382680 0.923881 0.000000
vn -0.382680 -0.923881 0.000000
vn 0.000000 -1.000000 0.000000
vn -0.382680 -0.923881 0.000000
vn 0.000000 -1.000000 0.000000
vn -0.000000 -1.000000 0.000000
vn -0.382680 -0.923881 0.000000
vn 0.707106 -0.707107 0.000000
vn 0.382680 -0.923881 0.000000
vn 0.707106 -0.707108 0.000000
vn 0.382680 -0.923881 0.000000
vn 0.382680 -0.923881 0.000000
vn 0.707106 -0.707108 0.000000
vn 0.923880 -0.382682 0.000000
vn 0.707106 -0.707107 0.000000
vn 0.923880 -0.382682 0.000000
vn 0.707106 -0.707107 0.000000
vn 0.707106 -0.707108 0.000000
vn 0.923880 -0.382682 0.000000
vn 1.000000 -0.000000 0.000000
vn 0.923880 -0.382682 0.000000
vn 1.000000 0.000000 0.000000
vn 0.923880 -0.382682 0.000000
vn 0.923880 -0.382682 0.000000
vn 1.000000 0.000000 0.000000
vn 0.382680 -0.923881 0.000000
vn -0.000000 -1.000000 0.000000
vn 0.382680 -0.923881 0.000000
vn -0.000000 -1.000000 0.000000
vn 0.000000 -1.000000 0.000000
vn 0.382680 -0.923881 0.000000
vn -0.707107 0.707107 0.000000
vn -0.382680 0.923881 0.000000
vn -0.707106 0.707107 0.000000
vn -0.382680 0.923881 0.000000
vn -0.382680 0.923881 0.000000
vn -0.707106 0.707107 0.000000
vn -0.923880 0.382682 0.000000
vn -0.707107 0.707107 0.000000
vn -0.923880 0.382682 0.000000
vn -0.707107 0.707107 0.000000
vn -0.707106 0.707107 0.000000
vn -0.923880 0.382682 0.000000
vn -1.000000 0.000000 0.000000
vn -0.923880 0.382682 0.000000
vn -1.000000 -0.000000 0.000000
vn -0.923880 0.382682 0.000000
vn -0.923880 0.382682 0.000000
vn -1.000000 -0.000000 0.000000
vn -0.382680 0.923881 0.000000
vn 0.000000 1.000000 0.000000
vn -0.382680 0.923881 0.000000
vn 0.000000 1.000000 0.000000
vn -0.000000 1.000000 0.000000
vn -0.382680 0.923881 0.000000
vn 0.000000 0.000000 1.000000
vn 0.000000 0.000000 1.000000
vn 0.000000 0.000000 1.000000
vn 0.000000 0.000000 1.000000
vn 0.000000 0.000000 1.000000
vn 0.000000 0.000000 1.000000
vn 0.000000 0.000000 1.000000
vn 0.000000 0.000000 1.000000
vn -0.000001 0.000000 1.000000
vn -0.000001 0.000000 1.000000
vn 0.000000 0.000000 1.000000
vn -0.000000 0.000000 1.000000
vn -0.000000 0.000000 1.000000
vn 0.000000 0.000000 1.000000
vn 0.000001 0.000000 1.000000
vn 0.000001 0.000000 1.000000
vn 0.000000 0.000000 1.000000
vn -0.000001 0.000000 1.000000
vn -0.000001 0.000000 1.000000
vn 0.000000 0.000000 1.000000
vn -0.000000 0.000000 1.000000
vn -0.000000 0.000000 1.000000
vn 0.000000 0.000000 1.000000
vn 0.000000 0.000000 1.000000
vn 0.000000 0.000000 1.000000
vn 0.000000 0.000000 1.000000
vn -0.000000 0.000000 1.000000
vn -0.000000 0.000000 1.000000
vn 0.000000 0.000000 1.000000
vn 0.000001 0.000000 1.000000
vn 0.000001 0.000000 1.000000
vn 0.000000 0.000000 1.000000
vn -0.000001 0.000000 1.000000
vn -0.000001 0.000000 1.000000
vn 0.000000 0.000000 1.000000
vn 0.000000 0.000000 1.000000
vn 0.000000 0.000000 1.000000
vn 0.000000 0.000000 1.000000
vn 0.000004 0.000000 1.000000
vn 0.000004 0.000000 1.000000
vn 0.000000 0.000000 1.000000
vn 0.000000 0.000000 1.000000
vn -1.000000 0.000000 0.000000
vn -1.000000 0.000000 0.000000
vn -1.000000 0.000003 0.000000
vn -1.000000 0.000003 0.000000
vn -1.000000 0.000000 0.000000
vn -1.000000 -0.000003 0.000000
vn -1.000000 -0.000003 0.000000
vn -1.000000 0.000000 0.000000
vn -1.000000 -0.000001 0.000000
vn -1.000000 -0.000001 0.000000
vn -1.000000 0.000000 0.000000
vn -1.000000 0.000002 0.000000
vn -1.000000 0.000002 0.000000
vn -1.000000 0.000000 0.000000
vn -1.000000 -0.000001 0.000000
vn -1.000000 -0.000001 0.000000
vn -1.000000 0.000000 0.000000
vn -1.000000 -0.000001 0.000000
vn -1.000000 -0.000001 0.000000
vn -1.000000 0.000000 0.000000
vn -1.000000 0.000001 0.000000
vn -1.000000 0.000001 0.000000
vn -1.000000 0.000000 0.000000
vn -1.000000 0.000001 0.000000
vn -1.000000 0.000001 0.000000
vn -1.000000 0.000000 0.000000
vn -1.000000 -0.000001 0.000000
vn -1.000000 -0.000001 0.000000
vn -1.000000 0.000000 0.000000
vn -1.000000 0.000000 0.000000
vn -1.000000 0.000000 0.000000
vn -1.000000 0.000000 0.000000
vn -1.000000 0.000000 0.000000
vn -1.000000 0.000000 0.000000
vn -1.000000 0.000000 0.000000
vn -1.000000 0.000000 0.000000
vn -1.000000 0.000000 0.000000
vn -1.000000 0.000000 0.000000
vn -1.000000 0.000000 0.000000
vn -1.000000 0.000000 0.000000
vn -1.000000 0.000000 0.000000
vn -1.000000 0.000000 0.000000
vn 1.000000 -0.000005 0.000000
vn 1.000000 0.000000 0.000000
vn 1.000000 -0.000000 0.000000
vn 1.000000 -0.000000 0.000000
vn 1.000000 0.000000 0.000000
vn 1.000000 0.000001 0.000000
vn 1.000000 0.000001 0.000000
vn 1.000000 0.000000 0.000000
vn 1.000000 -0.000000 0.000000
vn 1.000000 -0.000000 0.000000
vn 1.000000 0.000000 0.000000
vn 1.000000 -0.000000 0.000000
vn 1.000000 -0.000000 0.000000
vn 1.000000 0.000000 0.000000
vn 1.000000 0.000000 0.000000
vn 1.000000 0.000000 0.000000
vn 1.000000 0.000000 0.000000
vn 1.000000 0.000000 0.000000
vn 1.000000 0.000000 0.000000
vn 1.000000 0.000000 0.000000
vn 1.000000 0.000000 0.000000
vn 1.000000 0.000000 0.000000
vn 1.000000 0.000000 0.000000
vn 1.000000 0.000000 0.000000
vn 1.000000 0.000000 0.000000
vn 1.000000 0.000000 0.000000
vn 1.000000 0.000000 0.000000
vn 1.000000 0.000000 0.000000
vn 1.000000 0.000000 0.000000
vn 1.000000 0.000000 0.000000
vn 1.000000 0.000000 0.000000
vn 1.000000 0.000000 0.000000
vn 1.000000 0.000000 0.000000
vn 1.000000 0.000000 0.000000
vn 1.000000 0.000000 0.000000
vn 1.000000 -0.000001 0.000000
vn 1.000000 -0.000001 0.000000
vn 1.000000 0.000000 0.000000
vn 1.000000 0.000000 0.000000
vn 1.000000 0.000000 0.000000
vn 1.000000 0.000000 0.000000
vn 1.000000 0.000000 0.000000
vn 0.000000 0.923882 -0.382677
vn 0.000000 0.707112 -0.707101
vn 0.000000 0.923883 -0.382675
vn 0.000000 0.707112 -0.707101
vn 0.000000 0.707112 -0.707101
vn 0.000000 0.923883 -0.382675
vn 0.000000 0.707112 -0.707101
vn 0.000000 0.382683 -0.923880
vn 0.000000 0.707112 -0.707101
vn 0.000000 0.382683 -0.923880
vn 0.000000 0.382683 -0.923880
vn 0.000000 0.707112 -0.707101
vn 0.000000 0.382683 -0.923880
vn 0.000000 0.000000 -1.000000
vn 0.000000 0.382683 -0.923880
vn 0.000000 0.000000 -1.000000
vn 0.000001 0.000000 -1.000000
vn 0.000000 0.382683 -0.923880
vn 0.000000 -0.923877 0.382689
vn 0.000000 -0.707106 0.707107
vn 0.000000 -0.923877 0.382689
vn 0.000000 -0.707106 0.707107
vn 0.000001 -0.707112 0.707101
vn 0.000000 -0.923877 0.382689
vn 0.000000 -0.707106 0.707107
vn 0.000001 -0.382687 0.923878
vn 0.000001 -0.707112 0.707101
vn 0.000001 -0.382687 0.923878
vn 0.000001 -0.382688 0.923878
vn 0.000001 -0.707112 0.707101
vn 0.000001 -0.382687 0.923878
vn 0.000000 -0.000000 1.000000
vn 0.000001 -0.382688 0.923878
vn 0.000000 -0.000000 1.000000
vn 0.000000 0.000000 1.000000
vn 0.000001 -0.382688 0.923878
vn 0.000000 0.923883 -0.382675
vn 0.000000 1.000000 0.000001
vn 0.000000 0.923882 -0.382677
vn 0.000000 1.000000 0.000001
vn 0.000000 1.000000 -0.000001
vn 0.000000 0.923882 -0.382677
vn 0.000000 -0.923877 0.382689
vn 0.000000 -1.000000 0.000001
vn 0.000000 -0.923877 0.382689
vn 0.000000 -1.000000 0.000001
vn 0.000000 -1.000000 -0.000001
vn 0.000000 -0.923877 0.382689
vn 0.000000 -0.923879 -0.382685
vn 0.000000 -0.707112 -0.707102
vn 0.000000 -0.923879 -0.382685
vn 0.000000 -0.707112 -0.707102
vn 0.000001 -0.707108 -0.707106
vn 0.000000 -0.923879 -0.382685
vn 0.000000 -0.707112 -0.707102
vn 0.000001 -0.382687 -0.923878
vn 0.000001 -0.707108 -0.707106
vn 0.000001 -0.382687 -0.923878
vn 0.000001 -0.382687 -0.923878
vn 0.000001 -0.707108 -0.707106
vn 0.000001 -0.382687 -0.923878
vn 0.000001 0.000000 -1.000000
vn 0.000001 -0.382687 -0.923878
vn 0.000001 0.000000 -1.000000
vn 0.000000 0.000000 -1.000000
vn 0.000001 -0.382687 -0.923878
vn 0.000000 -0.923879 -0.382685
vn 0.000000 -1.000000 -0.000001
vn 0.000000 -0.923879 -0.382685
vn 0.000000 -1.000000 -0.000001
vn 0.000000 -1.000000 0.000001
vn 0.000000 -0.923879 -0.382685
vn 0.000000 0.923881 0.382681
vn 0.000000 0.707112 0.707101
vn 0.000000 0.923881 0.382679
vn 0.000000 0.707112 0.707101
vn 0.000000 0.707112 0.707101
vn 0.000000 0.923881 0.382679
vn 0.000000 0.707112 0.707101
vn 0.000000 0.382683 0.923880
vn 0.000000 0.707112 0.707101
vn 0.000000 0.382683 0.923880
vn 0.000000 0.382683 0.923880
vn 0.000000 0.707112 0.707101
vn 0.000000 0.382683 0.923880
vn 0.000000 0.000000 1.000000
vn 0.000000 0.382683 0.923880
vn 0.000000 0.000000 1.000000
vn 0.000000 -0.000000 1.000000
vn 0.000000 0.382683 0.923880
vn 0.000000 0.923881 0.382679
vn 0.000000 1.000000 -0.000001
vn 0.000000 0.923881 0.382681
vn 0.000000 1.000000 -0.000001
vn 0.000000 1.000000 0.000001
vn 0.000000 0.923881 0.382681
vn 0.000000 0.923882 -0.382677
vn 0.000000 0.923883 -0.382675
vn 0.000000 0.707112 -0.707101
vn 0.000000 0.923883 -0.382675
vn 0.000000 0.707112 -0.707101
vn 0.000000 0.707112 -0.707101
vn 0.000000 0.707112 -0.707101
vn 0.000000 0.707112 -0.707101
vn 0.000000 0.382683 -0.923880
vn 0.000000 0.707112 -0.707101
vn 0.000000 0.382683 -0.923880
vn 0.000000 0.382683 -0.923880
vn 0.000000 0.382683 -0.923880
vn 0.000000 0.382683 -0.923880
vn 0.000000 0.000000 -1.000000
vn 0.000000 0.382683 -0.923880
vn -0.000000 0.000000 -1.000000
vn 0.000000 0.000000 -1.000000
vn 0.000000 -0.923877 0.382689
vn 0.000000 -0.923877 0.382689
vn 0.000000 -0.707106 0.707107
vn 0.000000 -0.923877 0.382689
vn -0.000001 -0.707112 0.707101
vn 0.000000 -0.707106 0.707107
vn 0.000000 -0.707106 0.707107
vn -0.000001 -0.707112 0.707101
vn -0.000001 -0.382687 0.923878
vn -0.000001 -0.707112 0.707101
vn -0.000001 -0.382688 0.923878
vn -0.000001 -0.382687 0.923878
vn -0.000001 -0.382687 0.923878
vn -0.000001 -0.382688 0.923878
vn -0.000000 -0.000000 1.000000
vn -0.000001 -0.382688 0.923878
vn 0.000000 0.000000 1.000000
vn -0.000000 -0.000000 1.000000
vn 0.000000 0.923883 -0.382675
vn 0.000000 0.923882 -0.382677
vn 0.000000 1.000000 0.000001
vn 0.000000 0.923882 -0.382677
vn 0.000000 1.000000 -0.000001
vn 0.000000 1.000000 0.000001
vn 0.000000 -0.923877 0.382689
vn 0.000000 -0.923877 0.382689
vn 0.000000 -1.000000 0.000001
vn 0.000000 -0.923877 0.382689
vn 0.000000 -1.000000 -0.000001
vn 0.000000 -1.000000 0.000001
vn 0.000000 -0.923879 -0.382685
vn 0.000000 -0.923879 -0.382685
vn 0.000000 -0.707112 -0.707102
vn 0.000000 -0.923879 -0.382685
vn -0.000001 -0.707108 -0.707106
vn 0.000000 -0.707112 -0.707102
vn 0.000000 -0.707112 -0.707102
vn -0.000001 -0.707108 -0.707106
vn -0.000000 -0.382687 -0.923878
vn -0.000001 -0.707108 -0.707106
vn -0.000001 -0.382687 -0.923878
vn -0.000000 -0.382687 -0.923878
vn -0.000000 -0.382687 -0.923878
vn -0.000001 -0.382687 -0.923878
vn -0.000000 0.000000 -1.000000
vn -0.000001 -0.382687 -0.923878
vn 0.000000 0.000000 -1.000000
vn -0.000000 0.000000 -1.000000
vn 0.000000 -0.923879 -0.382685
vn 0.000000 -0.923879 -0.382685
vn 0.000000 -1.000000 -0.000001
vn 0.000000 -0.923879 -0.382685
vn 0.000000 -1.000000 0.000001
vn 0.000000 -1.000000 -0.000001
vn 0.000000 0.923881 0.382681
vn 0.000000 0.923881 0.382679
vn 0.000000 0.707112 0.707101
vn 0.000000 0.923881 0.382679
vn 0.000000 0.707112 0.707101
vn 0.000000 0.707112 0.707101
vn 0.000000 0.707112 0.707101
vn 0.000000 0.707112 0.707101
vn 0.000000 0.382683 0.923880
vn 0.000000 0.707112 0.707101
vn 0.000000 0.382683 0.923880
vn 0.000000 0.382683 0.923880
vn 0.000000 0.382683 0.923880
vn 0.000000 0.382683 0.923880
vn 0.000000 0.000000 1.000000
vn 0.000000 0.382683 0.923880
vn -0.000000 -0.000000 1.000000
vn 0.000000 0.000000 1.000000
vn 0.000000 0.923881 0.382679
vn 0.000000 0.923881 0.382681
vn 0.000000 1.000000 -0.000001
vn 0.000000 0.923881 0.382681
vn 0.000000 1.000000 0.000001
vn 0.000000 1.000000 -0.000001
vn 1.000000 0.000000 0.000000
vn 1.000000 -0.000000 0.000000
vn 1.000000 0.000000 0.000000
vn 1.000000 0.000000 0.000000
vn 1.000000 -0.000000 0.000000
vn 1.000000 0.000002 0.000000
vn 1.000000 0.000002 0.000000
vn 1.000000 -0.000000 0.000000
vn 1.000000 -0.000001 0.000000
vn 1.000000 -0.000001 0.000000
vn 1.000000 -0.000000 0.000000
vn 1.000000 -0.000000 0.000000
vn 1.000000 -0.000000 0.000000
vn 1.000000 -0.000000 0.000000
vn 1.000000 0.000000 0.000000
vn 1.000000 0.000000 0.000000
vn 1.000000 -0.000000 0.000000
vn 1.000000 0.000000 0.000000
vn 1.000000 0.000000 0.000000
vn 1.000000 -0.000000 0.000000
vn 1.000000 0.000000 0.000000
vn 1.000000 0.000000 0.000000
vn 1.000000 -0.000000 0.000000
vn 1.000000 -0.000000 0.000000
vn 1.000000 -0.000000 0.000000
vn 1.000000 -0.000000 0.000000
vn 1.000000 -0.000001 0.000000
vn 1.000000 -0.000001 0.000000
vn 1.000000 -0.000000 0.000000
vn 1.000000 0.000000 0.000000
vn 1.000000 0.000000 0.000000
vn 1.000000 -0.000000 0.000000
vn 1.000000 0.000001 0.000000
vn 1.000000 0.000001 0.000000
vn 1.000000 -0.000000 0.000000
vn 1.000000 -0.000002 0.000000
vn 1.000000 -0.000002 0.000000
vn 1.000000 -0.000000 0.000000
vn 1.000000 0.000000 0.000000
vn 1.000000 0.000000 0.000000
vn 1.000000 -0.000000 0.000000
vn 1.000000 0.000010 0.000000
vn -1.000000 -0.000005 0.000000
vn -1.000000 -0.000000 0.000000
vn -1.000000 -0.000000 0.000000
vn -1.000000 -0.000000 0.000000
vn -1.000000 -0.000000 0.000000
vn -1.000000 0.000002 0.000000
vn -1.000000 0.000002 0.000000
vn -1.000000 -0.000000 0.000000
vn -1.000000 -0.000001 0.000000
vn -1.000000 -0.000001 0.000000
vn -1.000000 -0.000000 0.000000
vn -1.000000 0.000000 0.000000
vn -1.000000 0.000000 0.000000
vn -1.000000 -0.000000 0.000000
vn -1.000000 -0.000000 0.000000
vn -1.000000 -0.000000 0.000000
vn -1.000000 -0.000000 0.000000
vn -1.000000 0.000000 0.000000
vn -1.000000 0.000000 0.000000
vn -1.000000 -0.000000 0.000000
vn -1.000000 -0.000000 0.000000
vn -1.000000 -0.000000 0.000000
vn -1.000000 -0.000000 0.000000
vn -1.000000 -0.000000 0.000000
vn -1.000000 -0.000000 0.000000
vn -1.000000 -0.000000 0.000000
vn -1.000000 0.000000 0.000000
vn -1.000000 0.000000 0.000000
vn -1.000000 -0.000000 0.000000
vn -1.000000 0.000000 0.000000
vn -1.000000 0.000000 0.000000
vn -1.000000 -0.000000 0.000000
vn -1.000000 0.000000 0.000000
vn -1.000000 0.000000 0.000000
vn -1.000000 -0.000000 0.000000
vn -1.000000 -0.000000 0.000000
vn -1.000000 -0.000000 0.000000
vn -1.000000 -0.000000 0.000000
vn -1.000000 -0.000000 0.000000
vn -1.000000 -0.000000 0.000000
vn -1.000000 -0.000000 0.000000
vn -1.000000 0.000001 0.000000
vn 0.000000 0.000000 1.000000
vn -0.000000 0.000000 1.000000
vn 0.000000 0.000000 1.000000
vn 0.000000 0.000000 1.000000
vn -0.000000 0.000000 1.000000
vn 0.000000 0.000000 1.000000
vn 0.000000 0.000000 1.000000
vn -0.000000 0.000000 1.000000
vn -0.000001 0.000000 1.000000
vn -0.000001 0.000000 1.000000
vn -0.000000 0.000000 1.000000
vn -0.000000 0.000000 1.000000
vn -0.000000 0.000000 1.000000
vn -0.000000 0.000000 1.000000
vn 0.000001 0.000000 1.000000
vn 0.000001 0.000000 1.000000
vn -0.000000 0.000000 1.000000
vn -0.000001 0.000000 1.000000
vn -0.000001 0.000000 1.000000
vn -0.000000 0.000000 1.000000
vn -0.000000 0.000000 1.000000
vn -0.000000 0.000000 1.000000
vn -0.000000 0.000000 1.000000
vn 0.000000 0.000000 1.000000
vn 0.000000 0.000000 1.000000
vn -0.000000 0.000000 1.000000
vn -0.000000 0.000000 1.000000
vn -0.000000 0.000000 1.000000
vn -0.000000 0.000000 1.000000
vn 0.000001 0.000000 1.000000
vn 0.000001 0.000000 1.000000
vn -0.000000 0.000000 1.000000
vn -0.000001 0.000000 1.000000
vn -0.000001 0.000000 1.000000
vn -0.000000 0.000000 1.000000
vn 0.000000 0.000000 1.000000
vn 0.000000 0.000000 1.000000
vn -0.000000 0.000000 1.000000
vn 0.000004 0.000000 1.000000
vn 0.000004 0.000000 1.000000
vn -0.000000 0.000000 1.000000
vn 0.000000 0.000000 1.000000
vn -0.382680 0.923881 0.000000
vn -0.382680 0.923881 0.000000
vn -0.707107 0.707106 0.000000
vn -0.382680 0.923881 0.000000
vn -0.707106 0.707107 0.000000
vn -0.707107 0.707106 0.000000
vn -0.707107 0.707106 0.000000
vn -0.707106 0.707107 0.000000
vn -0.923880 0.382683 0.000000
vn -0.707106 0.707107 0.000000
vn -0.923880 0.382683 0.000000
vn -0.923880 0.382683 0.000000
vn -0.923880 0.382683 0.000000
vn -0.923880 0.382683 0.000000
vn -1.000000 -0.000000 0.000000
vn -0.923880 0.382683 0.000000
vn -1.000000 0.000000 0.000000
vn -1.000000 -0.000000 0.000000
vn 0.382680 -0.923881 0.000000
vn 0.382680 -0.923881 0.000000
vn 0.707107 -0.707106 0.000000
vn 0.382680 -0.923881 0.000000
vn 0.707107 -0.707107 0.000000
vn 0.707107 -0.707106 0.000000
vn 0.707107 -0.707106 0.000000
vn 0.707107 -0.707107 0.000000
vn 0.923880 -0.382683 0.000000
vn 0.707107 -0.707107 0.000000
vn 0.923880 -0.382683 0.000000
vn 0.923880 -0.382683 0.000000
vn 0.923880 -0.382683 0.000000
vn 0.923880 -0.382683 0.000000
vn 1.000000 0.000000 0.000000
vn 0.923880 -0.382683 0.000000
vn 1.000000 -0.000000 0.000000
vn 1.000000 0.000000 0.000000
vn -0.382680 0.923881 0.000000
vn -0.382680 0.923881 0.000000
vn 0.000000 1.000000 0.000000
vn -0.382680 0.923881 0.000000
vn 0.000000 1.000000 0.000000
vn 0.000000 1.000000 0.000000
vn 0.382680 -0.923881 0.000000
vn 0.382680 -0.923881 0.000000
vn 0.000000 -1.000000 0.000000
vn 0.382680 -0.923881 0.000000
vn 0.000000 -1.000000 0.000000
vn 0.000000 -1.000000 0.000000
vn -0.707106 -0.707107 0.000000
vn -0.707106 -0.707108 0.000000
vn -0.382680 -0.923881 0.000000
vn -0.707106 -0.707108 0.000000
vn -0.382680 -0.923881 0.000000
vn -0.382680 -0.923881 0.000000
vn -0.923880 -0.382682 0.000000
vn -0.923880 -0.382682 0.000000
vn -0.707106 -0.707107 0.000000
vn -0.923880 -0.382682 0.000000
vn -0.707106 -0.707108 0.000000
vn -0.707106 -0.707107 0.000000
vn -1.000000 -0.000000 0.000000
vn -1.000000 0.000000 0.000000
vn -0.923880 -0.382682 0.000000
vn -1.000000 0.000000 0.000000
vn -0.923880 -0.382682 0.000000
vn -0.923880 -0.382682 0.000000
vn -0.382680 -0.923881 0.000000
vn -0.382680 -0.923881 0.000000
vn 0.000000 -1.000000 0.000000
vn -0.382680 -0.923881 0.000000
vn 0.000000 -1.000000 0.000000
vn 0.000000 -1.000000 0.000000
vn 0.707107 0.707107 0.000000
vn 0.707106 0.707107 0.000000
vn 0.382680 0.923881 0.000000
vn 0.707106 0.707107 0.000000
vn 0.382680 0.923881 0.000000
vn 0.382680 0.923881 0.000000
vn 0.923880 0.382682 0.000000
vn 0.923880 0.382682 0.000000
vn 0.707107 0.707107 0.000000
vn 0.923880 0.382682 0.000000
vn 0.707106 0.707107 0.000000
vn 0.707107 0.707107 0.000000
vn 1.000000 0.000000 0.000000
vn 1.000000 -0.000000 0.000000
vn 0.923880 0.382682 0.000000
vn 1.000000 -0.000000 0.000000
vn 0.923880 0.382682 0.000000
vn 0.923880 0.382682 0.000000
vn 0.382680 0.923881 0.000000
vn 0.382680 0.923881 0.000000
vn 0.000000 1.000000 0.000000
vn 0.382680 0.923881 0.000000
vn 0.000000 1.000000 0.000000
vn 0.000000 1.000000 0.000000
vn 0.000000 0.923881 -0.382679
vn 0.000000 0.923882 -0.382678
vn 0.000000 0.707114 -0.707100
vn 0.000000 0.923882 -0.382678
vn 0.000000 0.707114 -0.707099
vn 0.000000 0.707114 -0.707100
vn 0.000000 0.707114 -0.707100
vn 0.000000 0.707114 -0.707099
vn 0.000000 0.382688 -0.923878
vn 0.000000 0.707114 -0.707099
vn 0.000000 0.382689 -0.923877
vn 0.000000 0.382688 -0.923878
vn 0.000000 0.382688 -0.923878
vn 0.000000 0.382689 -0.923877
vn 0.000000 0.000000 -1.000000
vn 0.000000 0.382689 -0.923877
vn -0.000000 -0.000000 -1.000000
vn 0.000000 0.000000 -1.000000
vn 0.000000 -0.923877 0.382689
vn 0.000000 -0.923877 0.382691
vn 0.000000 -0.707107 0.707106
vn 0.000000 -0.923877 0.382691
vn -0.000000 -0.707113 0.707100
vn 0.000000 -0.707107 0.707106
vn 0.000000 -0.707107 0.707106
vn -0.000000 -0.707113 0.707100
vn -0.000000 -0.382694 0.923875
vn -0.000000 -0.707113 0.707100
vn -0.000000 -0.382693 0.923875
vn -0.000000 -0.382694 0.923875
vn -0.000000 -0.382694 0.923875
vn -0.000000 -0.382693 0.923875
vn -0.000000 0.000000 1.000000
vn -0.000000 -0.382693 0.923875
vn 0.000000 -0.000000 1.000000
vn -0.000000 0.000000 1.000000
vn 0.000000 0.923882 -0.382678
vn 0.000000 0.923881 -0.382679
vn 0.000000 1.000000 0.000002
vn 0.000000 0.923881 -0.382679
vn 0.000000 1.000000 -0.000002
vn 0.000000 1.000000 0.000002
vn 0.000000 -0.923877 0.382691
vn 0.000000 -0.923877 0.382689
vn 0.000000 -1.000000 0.000001
vn 0.000000 -0.923877 0.382689
vn 0.000000 -1.000000 -0.000001
vn 0.000000 -1.000000 0.000001
vn 0.000000 -0.923879 -0.382684
vn 0.000000 -0.923879 -0.382686
vn 0.000000 -0.707115 -0.707099
vn 0.000000 -0.923879 -0.382686
vn -0.000000 -0.707106 -0.707107
vn 0.000000 -0.707115 -0.707099
vn 0.000000 -0.707115 -0.707099
vn -0.000000 -0.707106 -0.707107
vn -0.000000 -0.382694 -0.923875
vn -0.000000 -0.707106 -0.707107
vn -0.000000 -0.382693 -0.923876
vn -0.000000 -0.382694 -0.923875
vn -0.000000 -0.382694 -0.923875
vn -0.000000 -0.382693 -0.923876
vn -0.000000 -0.000000 -1.000000
vn -0.000000 -0.382693 -0.923876
vn 0.000000 0.000000 -1.000000
vn -0.000000 -0.000000 -1.000000
vn 0.000000 -0.923879 -0.382686
vn 0.000000 -0.923879 -0.382684
vn 0.000000 -1.000000 -0.000001
vn 0.000000 -0.923879 -0.382684
vn 0.000000 -1.000000 0.000001
vn 0.000000 -1.000000 -0.000001
vn 0.000000 0.923879 0.382684
vn 0.000000 0.923880 0.382683
vn 0.000000 0.707114 0.707100
vn 0.000000 0.923880 0.382683
vn 0.000000 0.707114 0.707099
vn 0.000000 0.707114 0.707100
vn 0.000000 0.707114 0.707100
vn 0.000000 0.707114 0.707099
vn 0.000000 0.382688 0.923878
vn 0.000000 0.707114 0.707099
vn 0.000000 0.382689 0.923877
vn 0.000000 0.382688 0.923878
vn 0.000000 0.382688 0.923878
vn 0.000000 0.382689 0.923877
vn 0.000000 -0.000000 1.000000
vn 0.000000 0.382689 0.923877
vn -0.000000 0.000000 1.000000
vn 0.000000 -0.000000 1.000000
vn 0.000000 0.923880 0.382683
vn 0.000000 0.923879 0.382684
vn 0.000000 1.000000 -0.000002
vn 0.000000 0.923879 0.382684
vn 0.000000 1.000000 0.000002
vn 0.000000 1.000000 -0.000002
vn 0.707109 0.707104 0.000000
vn 0.707109 0.707105 0.000000
vn 1.000000 0.000000 0.000000
vn 0.707109 0.707105 0.000000
vn 1.000000 0.000000 0.000000
vn 1.000000 0.000000 0.000000
vn 0.000000 1.000000 0.000000
vn 0.000000 1.000000 0.000000
vn 0.707109 0.707104 0.000000
vn 0.000000 1.000000 0.000000
vn 0.707109 0.707105 0.000000
vn 0.707109 0.707104 0.000000
vn -0.707109 0.707104 0.000000
vn -0.707109 0.707105 0.000000
vn 0.000000 1.000000 0.000000
vn -0.707109 0.707105 0.000000
vn 0.000000 1.000000 0.000000
vn 0.000000 1.000000 0.000000
vn -1.000000 -0.000001 0.000000
vn -1.000000 0.000001 0.000000
vn -0.707109 0.707104 0.000000
vn -1.000000 0.000001 0.000000
vn -0.707109 0.707105 0.000000
vn -0.707109 0.707104 0.000000
vn -0.707109 -0.707105 0.000000
vn -0.707109 -0.707105 0.000000
vn -1.000000 -0.000001 0.000000
vn -0.707109 -0.707105 0.000000
vn -1.000000 0.000001 0.000000
vn -1.000000 -0.000001 0.000000
vn -0.000000 -1.000000 0.000000
vn -0.000000 -1.000000 0.000000
vn -0.707109 -0.707105 0.000000
vn -0.000000 -1.000000 0.000000
vn -0.707109 -0.707105 0.000000
vn -0.707109 -0.707105 0.000000
vn 0.707109 -0.707105 0.000000
vn 0.707109 -0.707104 0.000000
vn -0.000000 -1.000000 0.000000
vn 0.707109 -0.707104 0.000000
vn -0.000000 -1.000000 0.000000
vn -0.000000 -1.000000 0.000000
vn 1.000000 0.000000 0.000000
vn 1.000000 0.000000 0.000000
vn 0.707109 -0.707105 0.000000
vn 1.000000 0.000000 0.000000
vn 0.707109 -0.707104 0.000000
vn 0.707109 -0.707105 0.000000
s off
g SM_Dresser_01e
f 4/1/1 3/2/2 2/4/3
f 2/4/4 3/2/5 1/3/6
f 7/5/7 13/6/8 14/7/9
f 14/7/10 13/6/11 12/8/12
f 17/9/13 5/10/14 18/11/15
f 18/11/16 5/10/17 6/12/18
f 8/13/19 15/14/20 17/9/21
f 17/9/22 15/14/23 5/10/24
f 18/11/25 6/12/26 9/15/27
f 9/15/28 6/12/29 16/16/30
f 9/15/31 16/16/32 8/13/33
f 8/13/34 16/16/35 15/14/36
f 19/17/37 17/18/38 20/19/39
f 20/19/40 17/18/41 18/20/42
f 10/21/43 8/22/44 19/23/45
f 19/23/46 8/22/47 17/24/48
f 11/25/49 9/26/50 10/27/51
f 10/27/52 9/26/53 8/28/54
f 11/29/55 20/30/56 9/31/57
f 9/31/58 20/30/59 18/32/60
f 11/33/61 10/34/62 20/35/63
f 20/35/64 10/34/65 19/36/66
f 13/37/67 7/38/68 6/39/69
f 6/39/70 7/38/71 16/40/72
f 7/41/73 14/42/74 16/43/75
f 16/43/76 14/42/77 15/44/78
f 5/45/79 15/46/80 12/47/81
f 12/47/82 15/46/83 14/48/84
f 23/49/85 22/50/86 51/51/87
f 51/51/88 22/50/89 50/52/90
f 23/53/91 26/54/92 22/55/93
f 22/55/94 26/54/95 27/56/96
f 27/57/97 30/58/98 22/59/99
f 22/59/100 30/58/101 21/60/102
f 25/61/103 23/62/104 53/63/105
f 53/63/106 23/62/107 51/64/108
f 29/65/109 26/66/110 25/61/111
f 25/61/112 26/66/113 23/62/114
f 24/67/115 28/68/116 25/69/117
f 25/69/118 28/68/119 29/70/120
f 24/71/121 25/72/122 52/73/123
f 52/73/124 25/72/125 53/74/126
f 28/75/127 24/76/128 56/77/129
f 56/77/130 24/76/131 52/78/132
f 43/79/133 42/80/134 32/81/135
f 32/81/136 42/80/137 39/82/138
f 40/83/139 21/84/140 31/85/141
f 31/85/142 21/84/143 30/86/144
f 44/87/145 43/88/146 33/89/147
f 33/89/148 43/88/149 32/90/150
f 35/91/151 47/92/152 34/93/153
f 34/93/154 47/92/155 48/94/156
f 40/95/157 31/96/158 41/97/159
f 41/97/160 31/96/161 37/98/162
f 37/99/163 39/100/164 41/101/165
f 41/101/166 39/100/167 42/102/168
f 44/103/169 33/104/170 45/105/171
f 45/105/172 33/104/173 36/106/174
f 36/107/175 38/108/176 45/109/177
f 45/109/178 38/108/179 46/110/180
f 45/111/181 46/112/182 44/113/183
f 44/113/184 46/112/185 43/114/186
f 41/115/187 42/116/188 40/117/189
f 40/117/190 42/116/191 21/118/192
f 36/119/193 33/120/194 38/121/195
f 38/121/196 33/120/197 32/122/198
f 37/123/199 31/124/200 39/125/201
f 39/125/202 31/124/203 30/126/204
f 26/127/205 29/128/206 27/129/207
f 27/129/208 29/128/209 28/130/210
f 47/131/211 42/116/212 43/114/213
f 38/121/214 35/132/215 34/133/216
f 35/132/217 28/130/218 63/134/219
f 63/134/220 28/130/221 56/135/222
f 35/132/223 32/122/224 39/125/225
f 35/132/226 30/126/227 27/129/228
f 32/122/229 35/132/230 38/121/231
f 30/126/232 35/132/233 39/125/234
f 28/130/235 35/132/236 27/129/237
f 46/112/238 47/131/239 43/114/240
f 42/116/241 47/131/242 21/118/243
f 38/136/244 34/137/245 46/138/246
f 46/138/247 34/137/248 48/139/249
f 46/112/250 48/140/251 47/131/252
f 51/141/253 50/142/254 54/143/255
f 54/143/256 50/142/257 55/144/258
f 55/145/259 50/146/260 58/147/261
f 58/147/262 50/146/263 49/148/264
f 21/60/265 49/148/266 22/59/267
f 22/59/268 49/148/269 50/146/270
f 51/64/271 54/149/272 53/63/273
f 53/63/274 54/149/275 57/150/276
f 52/151/277 53/152/278 56/153/279
f 56/153/280 53/152/281 57/154/282
f 71/155/283 60/156/284 70/157/285
f 70/157/286 60/156/287 67/158/288
f 68/159/289 59/160/290 49/161/291
f 49/161/292 59/160/293 58/162/294
f 72/163/295 61/164/296 71/165/297
f 71/165/298 61/164/299 60/166/300
f 63/167/301 62/168/302 75/169/303
f 75/169/304 62/168/305 76/170/306
f 68/171/307 69/172/308 59/173/309
f 59/173/310 69/172/311 65/174/312
f 65/175/313 69/176/314 67/177/315
f 67/177/316 69/176/317 70/178/318
f 72/179/319 73/180/320 61/181/321
f 61/181/322 73/180/323 64/182/324
f 64/183/325 73/184/326 66/185/327
f 66/185/328 73/184/329 74/186/330
f 73/187/331 72/188/332 74/189/333
f 74/189/334 72/188/335 71/190/336
f 69/191/337 68/192/338 70/193/339
f 70/193/340 68/192/341 49/194/342
f 64/195/343 66/196/344 61/197/345
f 61/197/346 66/196/347 60/198/348
f 65/199/349 67/200/350 59/201/351
f 59/201/352 67/200/353 58/202/354
f 54/203/355 55/204/356 57/205/357
f 57/205/358 55/204/359 56/135/360
f 47/131/361 75/206/362 21/118/363
f 21/118/364 75/206/365 49/194/366
f 75/206/367 71/190/368 70/193/369
f 66/196/370 62/207/371 63/134/372
f 63/134/373 67/200/374 60/198/375
f 63/134/376 55/204/377 58/202/378
f 60/198/379 66/196/380 63/134/381
f 58/202/382 67/200/383 63/134/384
f 56/135/385 55/204/386 63/134/387
f 74/189/388 71/190/389 75/206/390
f 70/193/391 49/194/392 75/206/393
f 66/208/394 74/209/395 62/210/396
f 62/210/397 74/209/398 76/211/399
f 74/189/400 75/206/401 76/212/402
f 84/213/403 81/214/404 92/215/405
f 81/214/406 89/216/407 92/215/408
f 79/217/409 84/213/410 87/218/411
f 84/213/412 92/215/413 87/218/414
f 77/219/415 79/217/416 85/220/417
f 79/217/418 87/218/419 85/220/420
f 78/221/421 77/219/422 86/222/423
f 77/219/424 85/220/425 86/222/426
f 83/223/427 78/221/428 91/224/429
f 78/221/430 86/222/431 91/224/432
f 82/225/433 83/223/434 90/226/435
f 83/223/436 91/224/437 90/226/438
f 80/227/439 82/228/440 88/229/441
f 82/228/442 90/230/443 88/229/444
f 81/214/445 80/227/446 89/216/447
f 80/227/448 88/229/449 89/216/450
f 109/231/451 110/232/452 93/233/453
f 110/232/454 94/234/455 93/233/456
f 110/232/457 111/235/458 94/234/459
f 111/235/460 95/236/461 94/234/462
f 111/235/463 112/237/464 95/236/465
f 112/237/466 96/238/467 95/236/468
f 114/239/469 115/240/470 98/241/471
f 115/240/472 99/242/473 98/241/474
f 115/240/475 116/243/476 99/242/477
f 116/243/478 100/244/479 99/242/480
f 116/243/481 117/245/482 100/244/483
f 117/245/484 101/246/485 100/244/486
f 93/247/487 97/248/488 109/249/489
f 97/248/490 113/250/491 109/249/492
f 98/251/493 102/252/494 114/253/495
f 102/252/496 118/254/497 114/253/498
f 120/255/499 119/256/500 104/257/501
f 119/256/502 103/258/503 104/257/504
f 121/259/505 120/255/506 105/260/507
f 120/255/508 104/257/509 105/260/510
f 112/237/511 121/259/512 96/238/513
f 121/259/514 105/260/515 96/238/516
f 119/261/517 118/254/518 103/262/519
f 118/254/520 102/252/521 103/262/522
f 123/263/523 122/264/524 107/265/525
f 122/264/526 106/266/527 107/265/528
f 124/267/529 123/263/530 108/268/531
f 123/263/532 107/265/533 108/268/534
f 117/245/535 124/267/536 101/246/537
f 124/267/538 108/268/539 101/246/540
f 122/269/541 113/250/542 106/270/543
f 113/250/544 97/248/545 106/270/546
f 113/271/547 122/272/548 109/273/549
f 109/273/550 122/272/551 110/274/552
f 110/274/553 122/272/554 111/275/555
f 111/275/556 122/272/557 112/276/558
f 112/276/559 122/272/560 121/277/561
f 121/277/562 122/272/563 120/278/564
f 120/278/565 122/272/566 119/279/567
f 119/279/568 122/272/569 118/280/570
f 118/280/571 122/272/572 114/281/573
f 114/281/574 122/272/575 115/282/576
f 115/282/577 122/272/578 116/283/579
f 116/283/580 122/272/581 117/284/582
f 117/284/583 122/272/584 124/285/585
f 124/285/586 122/272/587 123/286/588
f 125/287/589 126/288/590 129/289/591
f 129/289/592 126/288/593 138/290/594
f 138/290/595 126/288/596 139/291/597
f 139/291/598 126/288/599 140/292/600
f 140/292/601 126/288/602 133/293/603
f 133/293/604 126/288/605 132/294/606
f 132/294/607 126/288/608 131/295/609
f 131/295/610 126/288/611 130/296/612
f 130/296/613 126/288/614 134/297/615
f 134/297/616 126/288/617 135/298/618
f 135/298/619 126/288/620 136/299/621
f 136/299/622 126/288/623 137/300/624
f 137/300/625 126/288/626 128/301/627
f 128/301/628 126/288/629 127/302/630
f 141/303/631 145/304/632 142/305/633
f 142/305/634 145/304/635 143/306/636
f 143/306/637 145/304/638 144/307/639
f 144/307/640 145/304/641 153/308/642
f 153/308/643 145/304/644 152/309/645
f 152/309/646 145/304/647 151/310/648
f 151/310/649 145/304/650 150/311/651
f 150/311/652 145/304/653 146/312/654
f 146/312/655 145/304/656 147/313/657
f 147/313/658 145/304/659 148/314/660
f 148/314/661 145/304/662 149/315/663
f 149/315/664 145/304/665 156/316/666
f 156/316/667 145/304/668 155/317/669
f 155/317/670 145/304/671 154/318/672
f 141/319/673 142/320/674 125/321/675
f 142/320/676 126/322/677 125/321/678
f 142/320/679 143/323/680 126/322/681
f 143/323/682 127/324/683 126/322/684
f 143/323/685 144/325/686 127/324/687
f 144/325/688 128/326/689 127/324/690
f 146/327/691 147/328/692 130/329/693
f 147/328/694 131/330/695 130/329/696
f 147/328/697 148/331/698 131/330/699
f 148/331/700 132/332/701 131/330/702
f 148/331/703 149/333/704 132/332/705
f 149/333/706 133/334/707 132/332/708
f 125/321/709 129/335/710 141/319/711
f 129/335/712 145/336/713 141/319/714
f 130/329/715 134/337/716 146/327/717
f 134/337/718 150/338/719 146/327/720
f 135/339/721 136/340/722 151/341/723
f 136/340/724 152/342/725 151/341/726
f 136/340/727 137/343/728 152/342/729
f 137/343/730 153/344/731 152/342/732
f 137/343/733 128/345/734 153/344/735
f 128/345/736 144/346/737 153/344/738
f 151/341/739 150/338/740 135/339/741
f 150/338/742 134/337/743 135/339/744
f 138/347/745 139/348/746 154/349/747
f 139/348/748 155/350/749 154/349/750
f 139/348/751 140/351/752 155/350/753
f 140/351/754 156/352/755 155/350/756
f 140/351/757 133/334/758 156/352/759
f 133/334/760 149/333/761 156/352/762
f 154/349/763 145/336/764 138/347/765
f 145/336/766 129/335/767 138/347/768
f 173/353/769 157/354/770 174/355/771
f 157/354/772 158/356/773 174/355/774
f 174/355/775 158/356/776 175/357/777
f 158/356/778 159/358/779 175/357/780
f 175/357/781 159/358/782 176/359/783
f 159/358/784 160/360/785 176/359/786
f 178/361/787 162/362/788 179/363/789
f 162/362/790 163/364/791 179/363/792
f 179/363/793 163/364/794 180/365/795
f 163/364/796 164/366/797 180/365/798
f 180/365/799 164/366/800 181/367/801
f 164/366/802 165/368/803 181/367/804
f 157/354/805 173/353/806 161/369/807
f 173/353/808 177/370/809 161/369/810
f 162/362/811 178/361/812 166/371/813
f 178/361/814 182/372/815 166/371/816
f 167/373/817 183/374/818 168/375/819
f 183/374/820 184/376/821 168/375/822
f 168/375/823 184/376/824 169/377/825
f 184/376/826 185/378/827 169/377/828
f 169/377/829 185/378/830 160/379/831
f 185/378/832 176/380/833 160/379/834
f 183/374/835 167/373/836 182/372/837
f 167/373/838 166/371/839 182/372/840
f 170/381/841 186/382/842 171/383/843
f 186/382/844 187/384/845 171/383/846
f 171/383/847 187/384/848 172/385/849
f 187/384/850 188/386/851 172/385/852
f 172/385/853 188/386/854 165/368/855
f 188/386/856 181/367/857 165/368/858
f 186/382/859 170/381/860 177/370/861
f 170/381/862 161/369/863 177/370/864
f 157/387/865 161/388/866 158/389/867
f 158/389/868 161/388/869 159/390/870
f 159/390/871 161/388/872 160/391/873
f 160/391/874 161/388/875 169/392/876
f 169/392/877 161/388/878 168/393/879
f 168/393/880 161/388/881 167/394/882
f 167/394/883 161/388/884 166/395/885
f 166/395/886 161/388/887 162/396/888
f 162/396/889 161/388/890 163/397/891
f 163/397/892 161/388/893 164/398/894
f 164/398/895 161/388/896 165/399/897
f 165/399/898 161/388/899 172/400/900
f 172/400/901 161/388/902 171/401/903
f 171/401/904 161/388/905 170/402/906
f 173/403/907 174/404/908 177/405/909
f 177/405/910 174/404/911 186/406/912
f 186/406/913 174/404/914 187/407/915
f 187/407/916 174/404/917 188/408/918
f 188/408/919 174/404/920 181/409/921
f 181/409/922 174/404/923 180/410/924
f 180/410/925 174/404/926 179/411/927
f 179/411/928 174/404/929 178/412/930
f 178/412/931 174/404/932 182/413/933
f 182/413/934 174/404/935 183/414/936
f 183/414/937 174/404/938 184/415/939
f 184/415/940 174/404/941 185/416/942
f 185/416/943 174/404/944 176/417/945
f 176/417/946 174/404/947 175/418/948
f 193/419/949 189/420/950 202/421/951
f 202/421/952 189/420/953 203/422/954
f 203/422/955 189/420/956 204/423/957
f 204/423/958 189/420/959 197/424/960
f 197/424/961 189/420/962 196/425/963
f 196/425/964 189/420/965 195/426/966
f 195/426/967 189/420/968 194/427/969
f 194/427/970 189/420/971 198/428/972
f 198/428/973 189/420/974 199/429/975
f 199/429/976 189/420/977 200/430/978
f 200/430/979 189/420/980 201/431/981
f 201/431/982 189/420/983 192/432/984
f 192/432/985 189/420/986 191/433/987
f 191/433/988 189/420/989 190/434/990
f 189/435/991 205/436/992 190/437/993
f 205/436/994 206/438/995 190/437/996
f 190/437/997 206/438/998 191/439/999
f 206/438/1000 207/440/1001 191/439/1002
f 191/439/1003 207/440/1004 192/441/1005
f 207/440/1006 208/442/1007 192/441/1008
f 194/443/1009 210/444/1010 195/445/1011
f 210/444/1012 211/446/1013 195/445/1014
f 195/445/1015 211/446/1016 196/447/1017
f 211/446/1018 212/448/1019 196/447/1020
f 196/447/1021 212/448/1022 197/449/1023
f 212/448/1024 213/450/1025 197/449/1026
f 205/436/1027 189/435/1028 209/451/1029
f 189/435/1030 193/452/1031 209/451/1032
f 210/444/1033 194/443/1034 214/453/1035
f 194/443/1036 198/454/1037 214/453/1038
f 200/455/1039 216/456/1040 199/457/1041
f 216/456/1042 215/458/1043 199/457/1044
f 201/459/1045 217/460/1046 200/455/1047
f 217/460/1048 216/456/1049 200/455/1050
f 192/441/1051 208/442/1052 201/459/1053
f 208/442/1054 217/460/1055 201/459/1056
f 199/457/1057 215/458/1058 198/461/1059
f 215/458/1060 214/462/1061 198/461/1062
f 203/463/1063 219/464/1064 202/465/1065
f 219/464/1066 218/466/1067 202/465/1068
f 204/467/1069 220/468/1070 203/463/1071
f 220/468/1072 219/464/1073 203/463/1074
f 197/449/1075 213/450/1076 204/467/1077
f 213/450/1078 220/468/1079 204/467/1080
f 202/465/1081 218/466/1082 193/452/1083
f 218/466/1084 209/451/1085 193/452/1086
f 237/469/1087 221/470/1088 238/471/1089
f 221/470/1090 222/472/1091 238/471/1092
f 238/471/1093 222/472/1094 239/473/1095
f 222/472/1096 223/474/1097 239/473/1098
f 239/473/1099 223/474/1100 240/475/1101
f 223/474/1102 224/476/1103 240/475/1104
f 242/477/1105 226/478/1106 243/479/1107
f 226/478/1108 227/480/1109 243/479/1110
f 243/479/1111 227/480/1112 244/481/1113
f 227/480/1114 228/482/1115 244/481/1116
f 244/481/1117 228/482/1118 245/483/1119
f 228/482/1120 229/484/1121 245/483/1122
f 221/470/1123 237/469/1124 225/485/1125
f 237/469/1126 241/486/1127 225/485/1128
f 226/478/1129 242/477/1130 230/487/1131
f 242/477/1132 246/488/1133 230/487/1134
f 231/489/1135 247/490/1136 232/491/1137
f 247/490/1138 248/492/1139 232/491/1140
f 232/491/1141 248/492/1142 233/493/1143
f 248/492/1144 249/494/1145 233/493/1146
f 233/493/1147 249/494/1148 224/495/1149
f 249/494/1150 240/496/1151 224/495/1152
f 247/490/1153 231/489/1154 246/488/1155
f 231/489/1156 230/487/1157 246/488/1158
f 234/497/1159 250/498/1160 235/499/1161
f 250/498/1162 251/500/1163 235/499/1164
f 235/499/1165 251/500/1166 236/501/1167
f 251/500/1168 252/502/1169 236/501/1170
f 236/501/1171 252/502/1172 229/484/1173
f 252/502/1174 245/483/1175 229/484/1176
f 250/498/1177 234/497/1178 241/486/1179
f 234/497/1180 225/485/1181 241/486/1182
f 260/503/1183 268/504/1184 257/505/1185
f 268/504/1186 265/506/1187 257/505/1188
f 255/507/1189 263/508/1190 260/503/1191
f 263/508/1192 268/504/1193 260/503/1194
f 253/509/1195 261/510/1196 255/507/1197
f 261/510/1198 263/508/1199 255/507/1200
f 254/511/1201 262/512/1202 253/509/1203
f 262/512/1204 261/510/1205 253/509/1206
f 259/513/1207 267/514/1208 254/511/1209
f 267/514/1210 262/512/1211 254/511/1212
f 258/515/1213 266/516/1214 259/513/1215
f 266/516/1216 267/514/1217 259/513/1218
f 256/517/1219 264/518/1220 258/519/1221
f 264/518/1222 266/520/1223 258/519/1224
f 257/505/1225 265/506/1226 256/517/1227
f 265/506/1228 264/518/1229 256/517/1230
