# This file uses feet as units for non-parametric coordinates.

g default
v -47.330029 24.952808 20.294189
v 47.329990 24.952808 20.294189
v 47.329990 0.999953 -29.118225
v -45.830029 24.952808 -27.618225
v 45.829990 24.952808 -27.618225
v -45.830029 2.599097 -27.618225
v 45.829990 2.599101 -27.618225
v -47.330029 0.999953 20.294189
v 47.329990 0.999953 20.294189
v -47.330029 0.999953 -29.118225
v -47.330029 24.952808 -29.118225
v 47.329990 24.952808 -29.118225
v -45.830029 24.952808 18.794189
v 45.829990 24.952808 18.794189
v -45.830029 2.599097 18.794189
v 45.829990 2.599097 18.794189
v 48.329998 25.952808 20.294205
v 48.329998 -0.000022 20.294205
v 48.329990 25.952808 22.376892
v 43.199993 25.952808 22.376892
v 39.699993 25.952808 22.376892
v 33.199993 25.952808 22.376892
v 23.199993 25.952808 22.376892
v 19.699993 25.952808 22.376892
v 29.647251 25.952808 22.376892
v 43.199993 25.952808 23.904694
v 39.699993 25.952808 23.904694
v 23.199993 25.952808 23.904694
v 19.699993 25.952808 23.904694
v 33.199993 25.952808 23.904694
v 29.647251 25.952808 23.904694
v 48.329990 -0.000001 22.376892
v 43.199993 -0.000001 22.376892
v 39.699993 -0.000001 22.376892
v 33.199993 -0.000001 22.376892
v 23.199993 -0.000001 22.376892
v 19.699993 -0.000001 22.376892
v 29.647251 -0.000001 22.376892
v 43.199993 -0.000001 23.904694
v 39.699993 -0.000001 23.904694
v 23.199993 -0.000001 23.904694
v 19.699993 -0.000001 23.904694
v 33.199993 -0.000001 23.904694
v 29.647251 -0.000001 23.904694
v -48.329998 25.952808 20.294205
v -48.329998 -0.000022 20.294205
v -48.329998 25.952808 22.376892
v -43.200001 25.952808 22.376892
v -39.700001 25.952808 22.376892
v -33.200001 25.952808 22.376892
v -23.200001 25.952808 22.376892
v -19.700001 25.952808 22.376892
v -29.647259 25.952808 22.376892
v -43.200001 25.952808 23.904694
v -39.700001 25.952808 23.904694
v -23.200001 25.952808 23.904694
v -19.700001 25.952808 23.904694
v -33.200001 25.952808 23.904694
v -29.647259 25.952808 23.904694
v -48.329998 -0.000001 22.376892
v -43.200001 -0.000001 22.376892
v -39.700001 -0.000001 22.376892
v -33.200001 -0.000001 22.376892
v -23.200001 -0.000001 22.376892
v -19.700001 -0.000001 22.376892
v -29.647259 -0.000001 22.376892
v -43.200001 -0.000001 23.904694
v -39.700001 -0.000001 23.904694
v -23.200001 -0.000001 23.904694
v -19.700001 -0.000001 23.904694
v -33.200001 -0.000001 23.904694
v -29.647259 -0.000001 23.904694
v 48.329998 25.952808 20.294205
v 48.329998 -0.000022 20.294205
v -48.329998 25.952808 20.294205
v -48.329998 -0.000022 20.294205
v 10.362049 15.310847 22.376892
v 9.542286 14.763110 22.376892
v 8.994556 13.943355 22.376892
v 8.802219 12.976390 22.376892
v 11.329014 15.503184 22.376892
v 12.295979 10.641932 22.376892
v 13.115726 11.189670 22.376892
v 13.663471 12.009425 22.376892
v 13.855808 12.976390 22.376892
v 11.329014 10.449595 22.376892
v 10.362049 10.641932 22.376892
v 9.542286 11.189670 22.376892
v 8.994556 12.009425 22.376892
v 12.295979 15.310847 22.376892
v 13.115726 14.763110 22.376892
v 13.663471 13.943355 22.376892
v 10.362049 15.310847 23.178040
v 9.542286 14.763110 23.178040
v 8.994556 13.943355 23.178040
v 8.802219 12.976390 23.178040
v 11.329014 15.503184 23.178040
v 12.295979 10.641932 23.178040
v 13.115726 11.189670 23.178040
v 13.663471 12.009425 23.178040
v 13.855808 12.976390 23.178040
v 11.329014 10.449595 23.178040
v 10.362049 10.641932 23.178040
v 9.542286 11.189670 23.178040
v 8.994556 12.009425 23.178040
v 12.295979 15.310847 23.178040
v 13.115726 14.763110 23.178040
v 13.663471 13.943355 23.178040
v 10.463825 13.841586 23.123672
v 10.105457 12.976390 23.123672
v 11.329014 14.199954 23.123672
v 12.194202 12.111201 23.123672
v 12.552570 12.976390 23.123672
v 11.329014 11.752826 23.123672
v 10.463825 12.111201 23.123672
v 12.194202 13.841586 23.123672
v 10.463825 13.841586 26.669952
v 10.105457 12.976390 26.669952
v 11.329014 14.199954 26.669952
v 12.194202 12.111201 26.669952
v 12.552570 12.976390 26.669952
v 11.329014 11.752826 26.669952
v 10.463825 12.111201 26.669952
v 12.194202 13.841586 26.669952
v 14.967655 14.631213 26.641602
v 14.967655 14.242953 26.060501
v 14.967655 13.661853 25.672226
v 14.967655 12.976390 25.535873
v 14.967655 14.767566 27.327057
v 14.967655 11.321567 28.012497
v 14.967655 11.709842 28.593597
v 14.967655 12.290927 28.981873
v 14.967655 12.976390 29.118225
v 14.967655 11.185214 27.327057
v 14.967655 11.321567 26.641602
v 14.967655 11.709842 26.060501
v 14.967655 12.290927 25.672226
v 14.967655 14.631213 28.012497
v 14.967655 14.242953 28.593597
v 14.967655 13.661853 28.981873
v 8.788853 14.631213 26.641602
v 8.788853 14.242953 26.060501
v 8.788853 13.661853 25.672226
v 8.788853 12.976390 25.535873
v 8.788853 14.767566 27.327057
v 8.788853 11.321567 28.012497
v 8.788853 11.709842 28.593597
v 8.788853 12.290942 28.981873
v 8.788853 12.976390 29.118225
v 8.788853 11.185214 27.327057
v 8.788853 11.321567 26.641602
v 8.788853 11.709842 26.060501
v 8.788853 12.290942 25.672226
v 8.788853 14.631213 28.012497
v 8.788853 14.242953 28.593597
v 8.788853 13.661853 28.981873
v -8.788876 14.266795 26.792542
v -8.788876 13.964038 26.339417
v -8.788876 13.510905 26.036636
v -8.788876 12.976390 25.930313
v -8.788876 14.373126 27.327057
v -8.788876 11.685985 27.861542
v -8.788876 11.988757 28.314682
v -8.788876 12.441875 28.617462
v -8.788876 12.976390 28.723785
v -8.788876 11.579661 27.327057
v -8.788876 11.685985 26.792542
v -8.788876 11.988757 26.339417
v -8.788876 12.441875 26.036636
v -8.788876 14.266795 27.861542
v -8.788876 13.964038 28.314682
v -8.788876 13.510905 28.617462
v 8.788853 14.266795 26.792542
v 8.788853 13.964038 26.339417
v 8.788853 13.510905 26.036636
v 8.788853 12.976390 25.930313
v 8.788853 14.373126 27.327057
v 8.788853 11.685985 27.861542
v 8.788853 11.988757 28.314682
v 8.788853 12.441890 28.617462
v 8.788853 12.976390 28.723785
v 8.788853 11.579661 27.327057
v 8.788853 11.685985 26.792542
v 8.788853 11.988757 26.339417
v 8.788853 12.441890 26.036636
v 8.788853 14.266795 27.861542
v 8.788853 13.964038 28.314682
v 8.788853 13.510905 28.617462
v -10.463848 13.841586 23.123672
v -10.105480 12.976390 23.123672
v -11.329037 14.199954 23.123672
v -12.194225 12.111201 23.123672
v -12.552593 12.976390 23.123672
v -11.329037 11.752826 23.123672
v -10.463848 12.111201 23.123672
v -12.194225 13.841586 23.123672
v -10.463848 13.841586 26.669952
v -10.105480 12.976390 26.669952
v -11.329037 14.199954 26.669952
v -12.194225 12.111201 26.669952
v -12.552593 12.976390 26.669952
v -11.329037 11.752826 26.669952
v -10.463848 12.111201 26.669952
v -12.194225 13.841586 26.669952
v -10.362072 15.310847 23.178040
v -9.542309 14.763110 23.178040
v -8.994579 13.943355 23.178040
v -8.802242 12.976390 23.178040
v -11.329037 15.503184 23.178040
v -12.296001 10.641932 23.178040
v -13.115749 11.189670 23.178040
v -13.663494 12.009425 23.178040
v -13.855831 12.976390 23.178040
v -11.329037 10.449595 23.178040
v -10.362072 10.641932 23.178040
v -9.542309 11.189670 23.178040
v -8.994579 12.009425 23.178040
v -12.296001 15.310847 23.178040
v -13.115749 14.763110 23.178040
v -13.663494 13.943355 23.178040
v -10.362072 15.310847 22.376892
v -9.542309 14.763110 22.376892
v -8.994579 13.943355 22.376892
v -8.802242 12.976390 22.376892
v -11.329037 15.503184 22.376892
v -12.296001 10.641932 22.376892
v -13.115749 11.189670 22.376892
v -13.663494 12.009425 22.376892
v -13.855831 12.976390 22.376892
v -11.329037 10.449595 22.376892
v -10.362072 10.641932 22.376892
v -9.542309 11.189670 22.376892
v -8.994579 12.009425 22.376892
v -12.296001 15.310847 22.376892
v -13.115749 14.763110 22.376892
v -13.663494 13.943355 22.376892
v -14.967678 14.631213 26.641602
v -14.967678 14.242953 26.060501
v -14.967678 13.661853 25.672226
v -14.967678 12.976390 25.535873
v -14.967678 14.767566 27.327057
v -14.967678 11.321567 28.012497
v -14.967678 11.709842 28.593597
v -14.967678 12.290927 28.981873
v -14.967678 12.976390 29.118225
v -14.967678 11.185214 27.327057
v -14.967678 11.321567 26.641602
v -14.967678 11.709842 26.060501
v -14.967678 12.290927 25.672226
v -14.967678 14.631213 28.012497
v -14.967678 14.242953 28.593597
v -14.967678 13.661853 28.981873
v -8.788876 14.631213 26.641602
v -8.788876 14.242953 26.060501
v -8.788876 13.661853 25.672226
v -8.788876 12.976390 25.535873
v -8.788876 14.767566 27.327057
v -8.788876 11.321567 28.012497
v -8.788876 11.709842 28.593597
v -8.788876 12.290942 28.981873
v -8.788876 12.976390 29.118225
v -8.788876 11.185214 27.327057
v -8.788876 11.321567 26.641602
v -8.788876 11.709842 26.060501
v -8.788876 12.290942 25.672226
v -8.788876 14.631213 28.012497
v -8.788876 14.242953 28.593597
v -8.788876 13.661853 28.981873
vt 0.106045 0.848474
vt 0.106045 0.898609
vt 0.001953 0.898609
vt 0.001953 0.848474
vt 0.110851 0.848474
vt 0.214943 0.848474
vt 0.214943 0.898609
vt 0.110851 0.898609
vt 0.816865 0.791484
vt 0.816865 0.902305
vt 0.763144 0.902305
vt 0.763144 0.791484
vt 0.710344 0.872225
vt 0.599523 0.872225
vt 0.599523 0.818505
vt 0.710344 0.818505
vt 0.659718 0.454902
vt 0.770539 0.454902
vt 0.770539 0.667203
vt 0.659718 0.667203
vt 0.224755 0.621729
vt 0.221391 0.618365
vt 0.433691 0.618365
vt 0.430327 0.621729
vt 0.224755 0.725821
vt 0.221391 0.729186
vt 0.433691 0.729186
vt 0.430327 0.725821
vt 0.643664 0.738008
vt 0.438092 0.738008
vt 0.438092 0.633916
vt 0.643664 0.633916
vt 0.890647 0.618934
vt 0.940782 0.618934
vt 0.940782 0.824506
vt 0.890647 0.824506
vt 0.944612 0.428707
vt 0.894478 0.428707
vt 0.894478 0.223134
vt 0.944612 0.223134
vt 0.889646 0.223134
vt 0.889646 0.435435
vt 0.835925 0.435435
vt 0.835925 0.223134
vt 0.945917 0.058314
vt 0.949344 0.058314
vt 0.945917 0.066164
vt 0.949344 0.066164
vt 0.945917 0.035886
vt 0.949344 0.035886
vt 0.945917 0.043854
vt 0.949344 0.043854
vt 0.945917 0.021308
vt 0.945917 0.013459
vt 0.949344 0.021308
vt 0.949344 0.013459
vt 0.949344 0.001953
vt 0.954015 0.001953
vt 0.064884 0.907674
vt 0.064884 0.903004
vt 0.123091 0.907674
vt 0.123091 0.903004
vt 0.413667 0.708997
vt 0.413667 0.720502
vt 0.355461 0.708997
vt 0.355461 0.720502
vt 0.936256 0.828901
vt 0.936256 0.887107
vt 0.928406 0.828901
vt 0.928406 0.887107
vt 0.484838 0.371391
vt 0.470378 0.371391
vt 0.484838 0.313185
vt 0.470378 0.313185
vt 0.589873 0.865440
vt 0.589873 0.873290
vt 0.531667 0.865440
vt 0.531667 0.873290
vt 0.940205 0.553909
vt 0.932237 0.553909
vt 0.940205 0.495703
vt 0.932237 0.495703
vt 0.998047 0.769501
vt 0.994620 0.769501
vt 0.998047 0.711295
vt 0.994620 0.711295
vt 0.949748 0.864429
vt 0.953174 0.864429
vt 0.949748 0.922635
vt 0.953174 0.922635
vt 0.949201 0.285735
vt 0.952627 0.285735
vt 0.949201 0.343942
vt 0.952627 0.343942
vt 0.998047 0.456499
vt 0.994620 0.456499
vt 0.998047 0.398294
vt 0.994620 0.398294
vt 0.945022 0.908390
vt 0.945022 0.911817
vt 0.886817 0.908390
vt 0.886817 0.911817
vt 0.998047 0.832102
vt 0.994620 0.832102
vt 0.998047 0.773896
vt 0.994620 0.773896
vt 0.545895 0.300942
vt 0.560473 0.300942
vt 0.545895 0.359148
vt 0.560473 0.359148
vt 0.972731 0.627058
vt 0.972731 0.619209
vt 0.976158 0.627058
vt 0.976158 0.619209
vt 0.972731 0.604631
vt 0.972731 0.596663
vt 0.976158 0.604631
vt 0.976158 0.596663
vt 0.972731 0.582203
vt 0.972731 0.574353
vt 0.976158 0.582203
vt 0.976158 0.574353
vt 0.976158 0.638564
vt 0.980829 0.638564
vt 0.980829 0.421778
vt 0.976158 0.485988
vt 0.945917 0.162378
vt 0.945917 0.154529
vt 0.949344 0.162378
vt 0.949344 0.154529
vt 0.945917 0.184806
vt 0.945917 0.176838
vt 0.949344 0.184806
vt 0.949344 0.176838
vt 0.945917 0.199384
vt 0.949344 0.199384
vt 0.945917 0.207234
vt 0.949344 0.207234
vt 0.954015 0.218739
vt 0.949344 0.218739
vt 0.657529 0.896749
vt 0.715736 0.896749
vt 0.657529 0.901420
vt 0.715736 0.901420
vt 0.292530 0.708997
vt 0.350736 0.708997
vt 0.292530 0.720502
vt 0.350736 0.720502
vt 0.903234 0.828901
vt 0.911083 0.828901
vt 0.903234 0.887107
vt 0.911083 0.887107
vt 0.929185 0.433102
vt 0.929185 0.491308
vt 0.914725 0.433102
vt 0.914725 0.491308
vt 0.464012 0.885534
vt 0.405806 0.885534
vt 0.464012 0.877685
vt 0.405806 0.877685
vt 0.135676 0.805347
vt 0.077470 0.805347
vt 0.135676 0.797379
vt 0.077470 0.797379
vt 0.064884 0.912069
vt 0.123090 0.912069
vt 0.064884 0.915496
vt 0.123090 0.915496
vt 0.248953 0.914824
vt 0.190746 0.914824
vt 0.248953 0.911397
vt 0.190746 0.911397
vt 0.994620 0.644300
vt 0.994620 0.586094
vt 0.998047 0.644300
vt 0.998047 0.586094
vt 0.594598 0.913636
vt 0.652804 0.913636
vt 0.594598 0.917063
vt 0.652804 0.917063
vt 0.526942 0.913642
vt 0.468737 0.913642
vt 0.526942 0.910215
vt 0.468737 0.910215
vt 0.001953 0.919891
vt 0.060159 0.919891
vt 0.001953 0.923317
vt 0.060159 0.923317
vt 0.470378 0.308790
vt 0.470378 0.250584
vt 0.484956 0.308790
vt 0.484956 0.250584
vt 0.308114 0.907002
vt 0.219749 0.907002
vt 0.308114 0.848796
vt 0.219749 0.848796
vt 0.972731 0.433283
vt 0.976158 0.433283
vt 0.972731 0.441133
vt 0.976158 0.441133
vt 0.972731 0.455711
vt 0.976158 0.455711
vt 0.972731 0.463679
vt 0.976158 0.463679
vt 0.972731 0.478138
vt 0.976158 0.478138
vt 0.972731 0.485988
vt 0.976158 0.421778
vt 0.894131 0.218739
vt 0.835925 0.218739
vt 0.894131 0.001953
vt 0.835925 0.001953
vt 0.834283 0.687263
vt 0.836306 0.687263
vt 0.834283 0.688646
vt 0.836306 0.688646
vt 0.834283 0.690716
vt 0.836306 0.690716
vt 0.834283 0.693157
vt 0.836306 0.693157
vt 0.561765 0.278116
vt 0.563787 0.278116
vt 0.561765 0.279498
vt 0.563787 0.279498
vt 0.561765 0.281568
vt 0.563787 0.281568
vt 0.561765 0.284009
vt 0.563787 0.284009
vt 0.404337 0.039356
vt 0.402522 0.039356
vt 0.404337 0.037166
vt 0.402522 0.037166
vt 0.404337 0.048131
vt 0.402522 0.048131
vt 0.404337 0.045941
vt 0.402522 0.045941
vt 0.834283 0.697667
vt 0.836306 0.697667
vt 0.834283 0.699050
vt 0.836306 0.699050
vt 0.834283 0.695598
vt 0.836306 0.695598
vt 0.402522 0.043751
vt 0.404337 0.043751
vt 0.561765 0.288520
vt 0.563787 0.288520
vt 0.561765 0.289902
vt 0.563787 0.289902
vt 0.561765 0.286450
vt 0.563787 0.286450
vt 0.402522 0.034977
vt 0.404337 0.034977
vt 0.387200 0.694392
vt 0.387631 0.692223
vt 0.387631 0.696560
vt 0.388860 0.690385
vt 0.390698 0.689156
vt 0.392867 0.688725
vt 0.395036 0.689156
vt 0.396874 0.690385
vt 0.398103 0.692223
vt 0.398534 0.694392
vt 0.398103 0.696560
vt 0.396874 0.698399
vt 0.395036 0.699628
vt 0.392867 0.700059
vt 0.390698 0.699628
vt 0.388860 0.698399
vt 0.539074 0.397956
vt 0.531120 0.397956
vt 0.539074 0.395856
vt 0.531120 0.395856
vt 0.539074 0.400056
vt 0.531120 0.400056
vt 0.539074 0.402157
vt 0.531120 0.402157
vt 0.539074 0.404257
vt 0.531120 0.404257
vt 0.539074 0.406357
vt 0.531120 0.406357
vt 0.539074 0.408457
vt 0.531120 0.408457
vt 0.539074 0.393755
vt 0.531120 0.393755
vt 0.539074 0.391655
vt 0.531120 0.391655
vt 0.171128 0.805107
vt 0.169591 0.805413
vt 0.172431 0.804236
vt 0.168053 0.805107
vt 0.166750 0.804236
vt 0.165879 0.802933
vt 0.165574 0.801396
vt 0.165879 0.799858
vt 0.166750 0.798555
vt 0.168053 0.797684
vt 0.169591 0.797378
vt 0.171128 0.797684
vt 0.172431 0.798555
vt 0.173302 0.799858
vt 0.173608 0.801396
vt 0.173302 0.802933
vt 0.549261 0.426450
vt 0.550564 0.427321
vt 0.547724 0.426144
vt 0.551435 0.428624
vt 0.551741 0.430161
vt 0.551435 0.431699
vt 0.550564 0.433002
vt 0.549261 0.433873
vt 0.547724 0.434179
vt 0.546186 0.433873
vt 0.544883 0.433002
vt 0.544012 0.431699
vt 0.543706 0.430161
vt 0.544012 0.428624
vt 0.544883 0.427321
vt 0.546186 0.426450
vt 0.795559 0.651044
vt 0.795559 0.637186
vt 0.797127 0.651044
vt 0.797127 0.637186
vt 0.798694 0.651044
vt 0.798694 0.637186
vt 0.800262 0.651044
vt 0.800262 0.637186
vt 0.783020 0.651044
vt 0.783020 0.637186
vt 0.784587 0.651044
vt 0.784587 0.637186
vt 0.786155 0.651044
vt 0.786155 0.637186
vt 0.787722 0.651044
vt 0.787722 0.637186
vt 0.793992 0.637186
vt 0.793992 0.651044
vt 0.781453 0.637186
vt 0.781453 0.651044
vt 0.779885 0.637186
vt 0.779885 0.651044
vt 0.778318 0.637186
vt 0.778318 0.651044
vt 0.776750 0.637186
vt 0.776750 0.651044
vt 0.775183 0.637186
vt 0.775183 0.651044
vt 0.792424 0.637186
vt 0.792424 0.651044
vt 0.790857 0.637186
vt 0.790857 0.651044
vt 0.789290 0.637186
vt 0.789290 0.651044
vt 0.911462 0.495703
vt 0.912684 0.495703
vt 0.911462 0.535126
vt 0.912684 0.535126
vt 0.913906 0.495703
vt 0.913906 0.535126
vt 0.915128 0.495703
vt 0.915129 0.535126
vt 0.901684 0.495703
vt 0.902906 0.495703
vt 0.901684 0.535126
vt 0.902906 0.535126
vt 0.904128 0.495703
vt 0.904128 0.535126
vt 0.905351 0.495703
vt 0.905350 0.535126
vt 0.910240 0.535126
vt 0.910240 0.495703
vt 0.900461 0.535126
vt 0.900462 0.495703
vt 0.899239 0.535126
vt 0.898017 0.535126
vt 0.899239 0.495703
vt 0.898017 0.495703
vt 0.896795 0.535126
vt 0.896795 0.495703
vt 0.895572 0.535126
vt 0.895572 0.495703
vt 0.909017 0.535126
vt 0.907795 0.535126
vt 0.909017 0.495703
vt 0.907795 0.495703
vt 0.906573 0.535126
vt 0.906573 0.495703
vt 0.531120 0.419153
vt 0.531120 0.417053
vt 0.539074 0.419153
vt 0.539074 0.417053
vt 0.531120 0.421254
vt 0.539074 0.421254
vt 0.531120 0.423354
vt 0.539074 0.423354
vt 0.531120 0.425454
vt 0.539074 0.425454
vt 0.531120 0.427554
vt 0.539074 0.427554
vt 0.531120 0.429655
vt 0.539074 0.429655
vt 0.531120 0.414953
vt 0.531120 0.412852
vt 0.539074 0.414953
vt 0.539074 0.412852
vt 0.373167 0.637458
vt 0.370998 0.637027
vt 0.375336 0.637027
vt 0.369160 0.635798
vt 0.367931 0.633960
vt 0.367500 0.631791
vt 0.367931 0.629623
vt 0.369160 0.627784
vt 0.370998 0.626555
vt 0.373167 0.626124
vt 0.375336 0.626555
vt 0.377174 0.627784
vt 0.378402 0.629623
vt 0.378834 0.631791
vt 0.378402 0.633960
vt 0.377174 0.635798
vt 0.563562 0.258242
vt 0.563562 0.260453
vt 0.561765 0.258242
vt 0.561765 0.260453
vt 0.563562 0.262665
vt 0.561765 0.262665
vt 0.563562 0.264876
vt 0.561765 0.264876
vt 0.563562 0.240552
vt 0.563562 0.242763
vt 0.561765 0.240552
vt 0.561765 0.242763
vt 0.563562 0.244975
vt 0.561765 0.244975
vt 0.563562 0.247186
vt 0.561765 0.247186
vt 0.561765 0.256031
vt 0.563562 0.256031
vt 0.561765 0.238341
vt 0.563562 0.238341
vt 0.563562 0.269298
vt 0.563562 0.271510
vt 0.561765 0.269298
vt 0.561765 0.271510
vt 0.563562 0.267087
vt 0.561765 0.267087
vt 0.563562 0.273721
vt 0.561765 0.273721
vt 0.563562 0.251608
vt 0.563562 0.253820
vt 0.561765 0.251608
vt 0.561765 0.253820
vt 0.563562 0.249397
vt 0.561765 0.249397
vt 0.915949 0.583339
vt 0.917516 0.583339
vt 0.915949 0.597196
vt 0.917516 0.597196
vt 0.919084 0.583339
vt 0.919084 0.597196
vt 0.920651 0.583339
vt 0.920651 0.597196
vt 0.903410 0.583339
vt 0.904977 0.583339
vt 0.903410 0.597196
vt 0.904977 0.597196
vt 0.906545 0.583339
vt 0.906544 0.597196
vt 0.908112 0.583339
vt 0.908112 0.597196
vt 0.914382 0.597196
vt 0.914382 0.583339
vt 0.901842 0.597196
vt 0.901842 0.583339
vt 0.900275 0.597196
vt 0.898707 0.597196
vt 0.900275 0.583339
vt 0.898707 0.583339
vt 0.897140 0.597196
vt 0.897140 0.583339
vt 0.895572 0.597196
vt 0.895572 0.583339
vt 0.912814 0.597196
vt 0.911247 0.597196
vt 0.912814 0.583339
vt 0.911247 0.583339
vt 0.909679 0.597196
vt 0.909679 0.583339
vt 0.216533 0.827791
vt 0.215662 0.829094
vt 0.216839 0.826254
vt 0.214359 0.829965
vt 0.212822 0.830271
vt 0.211284 0.829965
vt 0.209981 0.829094
vt 0.209110 0.827791
vt 0.208804 0.826254
vt 0.209110 0.824716
vt 0.209981 0.823413
vt 0.211284 0.822542
vt 0.212822 0.822236
vt 0.214359 0.822542
vt 0.215662 0.823413
vt 0.216533 0.824716
vt 0.635946 0.777415
vt 0.635640 0.775877
vt 0.636817 0.778718
vt 0.635946 0.774340
vt 0.636817 0.773037
vt 0.638120 0.772166
vt 0.639658 0.771860
vt 0.641195 0.772166
vt 0.642498 0.773037
vt 0.643369 0.774340
vt 0.643675 0.775877
vt 0.643369 0.777415
vt 0.642498 0.778718
vt 0.641195 0.779589
vt 0.639658 0.779894
vt 0.638120 0.779589
vn 0.000000 -1.000000 0.000000
vn 0.000000 -1.000000 0.000000
vn 0.000000 -1.000000 0.000000
vn 0.000000 -1.000000 0.000000
vn 0.000000 -1.000000 0.000000
vn 0.000000 -1.000000 0.000000
vn 0.000000 1.000000 0.000000
vn 0.000000 1.000000 0.000000
vn 0.000000 1.000000 0.000000
vn 0.000000 1.000000 0.000000
vn 0.000000 1.000000 0.000000
vn 0.000000 1.000000 0.000000
vn 0.000000 1.000000 -0.000000
vn 0.000000 1.000000 -0.000000
vn 0.000000 1.000000 0.000000
vn 0.000000 1.000000 0.000000
vn 0.000000 1.000000 -0.000000
vn 0.000000 1.000000 0.000000
vn 0.000000 1.000000 0.000000
vn 0.000000 1.000000 0.000000
vn 0.000000 1.000000 0.000000
vn 0.000000 1.000000 0.000000
vn 0.000000 1.000000 0.000000
vn 0.000000 1.000000 -0.000000
vn 0.000000 1.000000 0.000000
vn 0.000000 1.000000 -0.000000
vn 0.000000 1.000000 -0.000000
vn 0.000000 1.000000 -0.000000
vn 0.000000 1.000000 -0.000000
vn 0.000000 1.000000 -0.000000
vn 0.000000 0.000000 -1.000000
vn 0.000000 0.000000 -1.000000
vn 0.000000 0.000000 -1.000000
vn 0.000000 0.000000 -1.000000
vn 0.000000 0.000000 -1.000000
vn 0.000000 0.000000 -1.000000
vn 1.000000 0.000000 0.000000
vn 1.000000 0.000000 0.000000
vn 1.000000 0.000000 0.000000
vn 1.000000 0.000000 0.000000
vn 1.000000 0.000000 0.000000
vn 1.000000 0.000000 0.000000
vn -0.000000 0.000000 1.000000
vn -0.000000 0.000000 1.000000
vn -0.000000 0.000000 1.000000
vn -0.000000 0.000000 1.000000
vn -0.000000 0.000000 1.000000
vn 0.000000 0.000000 1.000000
vn -1.000000 0.000000 0.000000
vn -1.000000 0.000000 0.000000
vn -1.000000 0.000000 0.000000
vn -1.000000 0.000000 0.000000
vn -1.000000 0.000000 0.000000
vn -1.000000 0.000000 0.000000
vn -0.000000 1.000000 0.000000
vn -0.000000 1.000000 0.000000
vn -0.000000 1.000000 0.000000
vn -0.000000 1.000000 0.000000
vn -0.000000 1.000000 0.000000
vn 0.000000 1.000000 0.000000
vn 1.000000 0.000000 0.000000
vn 1.000000 0.000000 0.000000
vn 1.000000 0.000000 0.000000
vn 1.000000 0.000000 0.000000
vn 1.000000 0.000000 0.000000
vn 1.000000 0.000000 0.000000
vn 0.000000 0.000000 -1.000000
vn 0.000000 0.000000 -1.000000
vn 0.000000 0.000000 -1.000000
vn 0.000000 0.000000 -1.000000
vn 0.000000 0.000000 -1.000000
vn 0.000000 0.000000 -1.000000
vn -1.000000 0.000000 0.000000
vn -1.000000 0.000000 0.000000
vn -1.000000 0.000000 0.000000
vn -1.000000 0.000000 0.000000
vn -1.000000 0.000000 0.000000
vn -1.000000 0.000000 0.000000
vn 0.000000 1.000000 0.000000
vn 0.000000 1.000000 0.000001
vn 0.000000 1.000000 0.000000
vn 0.000000 1.000000 0.000000
vn 0.000000 1.000000 0.000001
vn 0.000000 1.000000 0.000000
vn 0.000000 1.000000 0.000000
vn 0.000000 1.000000 0.000001
vn 0.000000 1.000000 0.000000
vn 0.000000 1.000000 0.000000
vn 0.000000 1.000000 0.000001
vn 0.000000 1.000000 0.000000
vn 0.000000 1.000000 0.000000
vn 0.000000 1.000000 0.000000
vn 0.000000 1.000000 -0.000004
vn 0.000000 1.000000 -0.000004
vn 0.000000 1.000000 0.000000
vn 0.000000 1.000000 0.000001
vn 0.000000 1.000000 0.000001
vn 0.000000 1.000000 0.000000
vn 0.000000 1.000000 -0.000000
vn 0.000000 1.000000 0.000001
vn 0.000000 1.000000 -0.000004
vn 0.000000 1.000000 -0.000000
vn 0.000000 1.000000 0.000001
vn 0.000000 1.000000 0.000000
vn 0.000000 1.000000 -0.000000
vn 0.000000 1.000000 0.000001
vn 0.000000 1.000000 -0.000000
vn 0.000000 1.000000 -0.000004
vn 0.000000 1.000000 0.000001
vn 0.000000 1.000000 -0.000000
vn 0.000000 1.000000 0.000000
vn 0.000000 1.000000 0.000001
vn 0.000000 1.000000 -0.000000
vn 0.000000 1.000000 0.000000
vn 1.000000 0.000000 0.000004
vn 1.000000 0.000000 0.000004
vn 1.000000 0.000000 0.000004
vn 1.000000 0.000000 0.000004
vn 1.000000 0.000000 0.000004
vn 1.000000 0.000000 0.000004
vn 0.000000 0.000000 1.000000
vn 0.000000 0.000000 1.000000
vn 0.000000 0.000000 1.000000
vn 0.000000 0.000000 1.000000
vn 0.000000 0.000000 1.000000
vn 0.000000 0.000000 1.000000
vn 0.000000 0.000000 1.000000
vn 0.000000 0.000000 1.000000
vn 0.000000 0.000000 1.000000
vn 0.000000 0.000000 1.000000
vn 0.000000 0.000000 1.000000
vn 0.000000 0.000000 1.000000
vn 0.000000 0.000000 1.000000
vn 0.000000 0.000000 1.000000
vn 0.000001 0.000000 1.000000
vn 0.000001 0.000000 1.000000
vn 0.000000 0.000000 1.000000
vn 0.000001 0.000000 1.000000
vn 0.000000 0.000000 1.000000
vn 0.000000 0.000000 1.000000
vn 0.000000 0.000000 1.000000
vn 0.000000 0.000000 1.000000
vn 0.000000 0.000000 1.000000
vn 0.000000 0.000000 1.000000
vn 0.000000 0.000000 1.000000
vn -0.000000 0.000000 1.000000
vn -0.000001 0.000000 1.000000
vn -0.000001 0.000000 1.000000
vn -0.000000 0.000000 1.000000
vn -0.000001 0.000000 1.000000
vn 1.000000 0.000000 0.000000
vn 1.000000 0.000000 0.000000
vn 1.000000 0.000000 0.000000
vn 1.000000 0.000000 0.000000
vn 1.000000 0.000000 0.000000
vn 1.000000 0.000000 0.000000
vn -1.000000 0.000000 0.000000
vn -1.000000 0.000000 0.000000
vn -1.000000 0.000000 0.000000
vn -1.000000 0.000000 0.000000
vn -1.000000 0.000000 0.000000
vn -1.000000 0.000000 0.000000
vn 1.000000 0.000000 0.000000
vn 1.000000 0.000000 0.000000
vn 1.000000 0.000000 0.000000
vn 1.000000 0.000000 0.000000
vn 1.000000 0.000000 0.000000
vn 1.000000 0.000000 0.000000
vn -1.000000 0.000000 0.000000
vn -1.000000 0.000000 0.000000
vn -1.000000 0.000000 0.000000
vn -1.000000 0.000000 0.000000
vn -1.000000 0.000000 0.000000
vn -1.000000 0.000000 0.000000
vn 1.000000 0.000000 0.000000
vn 1.000000 0.000000 0.000000
vn 1.000000 0.000000 0.000000
vn 1.000000 0.000000 0.000000
vn 1.000000 0.000000 0.000000
vn 1.000000 0.000000 0.000000
vn -1.000000 0.000000 0.000000
vn -1.000000 0.000000 0.000000
vn -1.000000 0.000000 0.000000
vn -1.000000 0.000000 0.000000
vn -1.000000 0.000000 0.000000
vn -1.000000 0.000000 0.000000
vn 0.000000 0.000000 1.000000
vn 0.000000 0.000000 1.000000
vn 0.000000 0.000000 1.000000
vn 0.000000 0.000000 1.000000
vn 0.000000 0.000000 1.000000
vn 0.000000 0.000000 1.000000
vn 0.000000 -1.000000 0.000000
vn 0.000000 -1.000000 0.000000
vn 0.000000 -1.000000 0.000007
vn 0.000000 -1.000000 0.000007
vn 0.000000 -1.000000 0.000000
vn 0.000000 -1.000000 0.000008
vn -0.000000 -1.000000 0.000000
vn -0.000000 -1.000000 0.000000
vn -0.000000 -1.000000 0.000007
vn -0.000000 -1.000000 0.000007
vn -0.000000 -1.000000 0.000000
vn 0.000000 -1.000000 0.000009
vn 0.000000 -1.000000 0.000000
vn 0.000000 -1.000000 0.000000
vn 0.000000 -1.000000 0.000007
vn 0.000000 -1.000000 0.000007
vn 0.000000 -1.000000 0.000000
vn 0.000000 -1.000000 0.000010
vn 0.000000 -1.000000 0.000010
vn 0.000000 -1.000000 0.000007
vn 0.000000 -1.000000 0.000010
vn 0.000000 -1.000000 0.000008
vn -0.000000 -1.000000 0.000007
vn 0.000000 -1.000000 0.000010
vn 0.000000 -1.000000 0.000009
vn 0.000000 -1.000000 0.000007
vn 0.000000 -1.000000 0.000010
vn 0.000000 -1.000000 0.000010
vn 0.000000 -1.000000 0.000010
vn -0.000000 -1.000000 0.000010
vn -0.000000 -1.000000 0.000010
vn 0.000000 -1.000000 0.000010
vn 0.000000 -1.000000 0.000010
vn 0.000000 -1.000000 0.000008
vn 0.000000 -1.000000 0.000010
vn 0.000000 -1.000000 0.000007
vn 0.000000 -1.000000 0.000009
vn 0.000000 -1.000000 0.000010
vn -0.000000 -1.000000 0.000007
vn 0.000000 -1.000000 0.000010
vn 0.000000 -1.000000 0.000010
vn 0.000000 -1.000000 0.000007
vn 0.000000 1.000000 0.000000
vn 0.000000 1.000000 0.000000
vn 0.000000 1.000000 -0.000012
vn 0.000000 1.000000 -0.000012
vn 0.000000 1.000000 0.000000
vn 0.000000 1.000000 0.000001
vn 0.000000 1.000000 0.000000
vn 0.000000 1.000000 0.000000
vn 0.000000 1.000000 -0.000006
vn 0.000000 1.000000 -0.000006
vn 0.000000 1.000000 0.000000
vn 0.000000 1.000000 0.000005
vn 0.000000 1.000000 0.000000
vn 0.000000 1.000000 0.000000
vn 0.000000 1.000000 0.000000
vn 0.000000 1.000000 0.000000
vn 0.000000 1.000000 0.000000
vn 0.000000 1.000000 0.000003
vn 0.000000 1.000000 0.000003
vn 0.000000 1.000000 0.000000
vn 0.000000 1.000000 0.000000
vn 0.000000 1.000000 -0.000006
vn 0.000000 1.000000 0.000000
vn 0.000000 1.000000 0.000000
vn 0.000000 1.000000 -0.000000
vn 0.000000 1.000000 0.000000
vn 0.000000 1.000000 0.000000
vn 0.000000 1.000000 0.000000
vn 0.000000 1.000000 0.000000
vn 0.000000 1.000000 0.000001
vn 0.000000 1.000000 -0.000012
vn 0.000000 1.000000 0.000000
vn 0.000000 1.000000 0.000005
vn 0.000000 1.000000 0.000003
vn 0.000000 1.000000 0.000000
vn 0.000000 1.000000 0.000000
vn 0.000000 1.000000 -0.000006
vn 0.000000 1.000000 0.000005
vn 0.000000 1.000000 0.000000
vn 0.000000 1.000000 -0.000012
vn 0.000000 1.000000 0.000001
vn 0.000000 1.000000 0.000000
vn -1.000000 0.000000 0.000000
vn -1.000000 0.000000 0.000000
vn -1.000000 0.000000 0.000000
vn -1.000000 0.000000 0.000000
vn -1.000000 0.000000 0.000000
vn -1.000000 0.000000 0.000000
vn 0.000000 0.000000 1.000000
vn 0.000000 0.000000 1.000000
vn 0.000000 0.000000 1.000000
vn 0.000000 0.000000 1.000000
vn 0.000000 0.000000 1.000000
vn 0.000000 0.000000 1.000000
vn 0.000000 0.000000 1.000000
vn 0.000000 0.000000 1.000000
vn 0.000000 0.000000 1.000000
vn 0.000000 0.000000 1.000000
vn 0.000000 0.000000 1.000000
vn 0.000000 0.000000 1.000000
vn 0.000000 0.000000 1.000000
vn -0.000001 0.000000 1.000000
vn -0.000000 0.000000 1.000000
vn -0.000000 0.000000 1.000000
vn -0.000001 0.000000 1.000000
vn -0.000001 0.000000 1.000000
vn 0.000000 0.000000 1.000000
vn 0.000000 0.000000 1.000000
vn 0.000000 0.000000 1.000000
vn 0.000000 0.000000 1.000000
vn 0.000000 0.000000 1.000000
vn 0.000000 0.000000 1.000000
vn 0.000000 0.000000 1.000000
vn 0.000001 0.000000 1.000000
vn 0.000000 0.000000 1.000000
vn 0.000000 0.000000 1.000000
vn 0.000001 0.000000 1.000000
vn 0.000001 0.000000 1.000000
vn -1.000000 0.000000 0.000000
vn -1.000000 0.000000 0.000000
vn -1.000000 0.000000 0.000000
vn -1.000000 0.000000 0.000000
vn -1.000000 0.000000 0.000000
vn -1.000000 0.000000 0.000000
vn 1.000000 0.000000 0.000000
vn 1.000000 0.000000 0.000000
vn 1.000000 0.000000 0.000000
vn 1.000000 0.000000 0.000000
vn 1.000000 0.000000 0.000000
vn 1.000000 0.000000 0.000000
vn -1.000000 0.000000 0.000000
vn -1.000000 0.000000 0.000000
vn -1.000000 0.000000 0.000000
vn -1.000000 0.000000 0.000000
vn -1.000000 0.000000 0.000000
vn -1.000000 0.000000 0.000000
vn 1.000000 0.000000 0.000000
vn 1.000000 0.000000 0.000000
vn 1.000000 0.000000 0.000000
vn 1.000000 0.000000 0.000000
vn 1.000000 0.000000 0.000000
vn 1.000000 0.000000 0.000000
vn -1.000000 0.000000 0.000000
vn -1.000000 0.000000 0.000000
vn -1.000000 0.000000 0.000000
vn -1.000000 0.000000 0.000000
vn -1.000000 0.000000 0.000000
vn -1.000000 0.000000 0.000000
vn 1.000000 0.000000 0.000000
vn 1.000000 0.000000 0.000000
vn 1.000000 0.000000 0.000000
vn 1.000000 0.000000 0.000000
vn 1.000000 0.000000 0.000000
vn 1.000000 0.000000 0.000000
vn 0.000000 0.000000 1.000000
vn 0.000000 0.000000 1.000000
vn 0.000000 0.000000 1.000000
vn 0.000000 0.000000 1.000000
vn 0.000000 0.000000 1.000000
vn 0.000000 0.000000 1.000000
vn 0.000000 0.000000 1.000000
vn 0.000000 0.000000 1.000000
vn 0.000000 0.000000 1.000000
vn 0.000000 0.000000 1.000000
vn 0.000000 0.000000 1.000000
vn 0.000000 0.000000 1.000000
vn 0.000000 -1.000000 0.000000
vn 0.000000 -1.000000 0.000007
vn 0.000000 -1.000000 0.000000
vn 0.000000 -1.000000 0.000000
vn 0.000000 -1.000000 0.000007
vn 0.000000 -1.000000 0.000008
vn 0.000000 -1.000000 0.000000
vn 0.000000 -1.000000 0.000007
vn 0.000000 -1.000000 0.000000
vn 0.000000 -1.000000 0.000000
vn 0.000000 -1.000000 0.000007
vn -0.000000 -1.000000 0.000009
vn 0.000000 -1.000000 0.000000
vn -0.000000 -1.000000 0.000007
vn 0.000000 -1.000000 0.000000
vn 0.000000 -1.000000 0.000000
vn -0.000000 -1.000000 0.000007
vn 0.000000 -1.000000 0.000010
vn 0.000000 -1.000000 0.000010
vn -0.000000 -1.000000 0.000010
vn 0.000000 -1.000000 0.000007
vn 0.000000 -1.000000 0.000008
vn -0.000000 -1.000000 0.000010
vn 0.000000 -1.000000 0.000007
vn -0.000000 -1.000000 0.000009
vn -0.000000 -1.000000 0.000010
vn -0.000000 -1.000000 0.000007
vn 0.000000 -1.000000 0.000008
vn 0.000000 -1.000000 0.000007
vn -0.000000 -1.000000 0.000010
vn -0.000000 -1.000000 0.000009
vn 0.000000 -1.000000 0.000007
vn -0.000000 -1.000000 0.000010
vn 0.000000 -1.000000 0.000010
vn -0.000000 -1.000000 0.000007
vn -0.000000 -1.000000 0.000010
vn 0.000000 0.000000 -1.000000
vn 0.000000 0.000000 -1.000000
vn 0.000000 0.000000 -1.000000
vn 0.000000 0.000000 -1.000000
vn 0.000000 0.000000 -1.000000
vn 0.000000 0.000000 -1.000000
vn -0.382678 0.923882 0.000000
vn -0.382678 0.923882 0.000000
vn -0.707107 0.707107 0.000000
vn -0.707107 0.707107 0.000000
vn -0.382678 0.923882 0.000000
vn -0.707107 0.707107 0.000000
vn -0.707107 0.707107 0.000000
vn -0.707107 0.707107 0.000000
vn -0.923883 0.382676 0.000000
vn -0.923883 0.382676 0.000000
vn -0.707107 0.707107 0.000000
vn -0.923882 0.382677 0.000000
vn -0.923883 0.382676 0.000000
vn -0.923882 0.382677 0.000000
vn -1.000000 -0.000000 0.000000
vn -1.000000 -0.000000 0.000000
vn -0.923882 0.382677 0.000000
vn -1.000000 0.000000 0.000000
vn 0.382681 -0.923881 0.000000
vn 0.382681 -0.923881 0.000000
vn 0.707107 -0.707106 0.000000
vn 0.707107 -0.707106 0.000000
vn 0.382681 -0.923881 0.000000
vn 0.707106 -0.707107 0.000000
vn 0.707107 -0.707106 0.000000
vn 0.707106 -0.707107 0.000000
vn 0.923880 -0.382683 0.000000
vn 0.923880 -0.382683 0.000000
vn 0.707106 -0.707107 0.000000
vn 0.923880 -0.382683 0.000000
vn 0.923880 -0.382683 0.000000
vn 0.923880 -0.382683 0.000000
vn 1.000000 0.000000 0.000000
vn 1.000000 0.000000 0.000000
vn 0.923880 -0.382683 0.000000
vn 1.000000 -0.000000 0.000000
vn -0.382678 0.923882 0.000000
vn -0.382678 0.923882 0.000000
vn 0.000000 1.000000 0.000000
vn 0.000000 1.000000 0.000000
vn -0.382678 0.923882 0.000000
vn 0.000000 1.000000 0.000000
vn 0.382681 -0.923881 0.000000
vn 0.382681 -0.923881 0.000000
vn -0.000000 -1.000000 0.000000
vn -0.000000 -1.000000 0.000000
vn 0.382681 -0.923881 0.000000
vn -0.000000 -1.000000 0.000000
vn -0.707106 -0.707107 0.000000
vn -0.707106 -0.707108 0.000000
vn -0.382677 -0.923882 0.000000
vn -0.382677 -0.923882 0.000000
vn -0.707106 -0.707108 0.000000
vn -0.382678 -0.923882 0.000000
vn -0.923883 -0.382676 0.000000
vn -0.923883 -0.382676 0.000000
vn -0.707106 -0.707107 0.000000
vn -0.707106 -0.707107 0.000000
vn -0.923883 -0.382676 0.000000
vn -0.707106 -0.707108 0.000000
vn -1.000000 -0.000000 0.000000
vn -1.000000 0.000000 0.000000
vn -0.923883 -0.382676 0.000000
vn -0.923883 -0.382676 0.000000
vn -1.000000 0.000000 0.000000
vn -0.923883 -0.382676 0.000000
vn -0.382677 -0.923882 0.000000
vn -0.382678 -0.923882 0.000000
vn -0.000000 -1.000000 0.000000
vn -0.000000 -1.000000 0.000000
vn -0.382678 -0.923882 0.000000
vn -0.000000 -1.000000 0.000000
vn 0.707106 0.707107 0.000000
vn 0.707106 0.707108 0.000000
vn 0.382680 0.923881 0.000000
vn 0.382680 0.923881 0.000000
vn 0.707106 0.707108 0.000000
vn 0.382681 0.923881 0.000000
vn 0.923880 0.382682 0.000000
vn 0.923880 0.382683 0.000000
vn 0.707106 0.707107 0.000000
vn 0.707106 0.707107 0.000000
vn 0.923880 0.382683 0.000000
vn 0.707106 0.707108 0.000000
vn 1.000000 0.000000 0.000000
vn 1.000000 -0.000000 0.000000
vn 0.923880 0.382682 0.000000
vn 0.923880 0.382682 0.000000
vn 1.000000 -0.000000 0.000000
vn 0.923880 0.382683 0.000000
vn 0.382680 0.923881 0.000000
vn 0.382681 0.923881 0.000000
vn 0.000000 1.000000 0.000000
vn 0.000000 1.000000 0.000000
vn 0.382681 0.923881 0.000000
vn 0.000000 1.000000 0.000000
vn 0.000000 0.000000 1.000000
vn 0.000000 0.000000 1.000000
vn -0.000000 0.000000 1.000000
vn 0.000000 0.000000 1.000000
vn 0.000000 0.000000 1.000000
vn -0.000000 0.000000 1.000000
vn 0.000000 0.000000 1.000000
vn -0.000001 0.000000 1.000000
vn -0.000000 0.000000 1.000000
vn -0.000001 0.000000 1.000000
vn -0.000000 0.000000 1.000000
vn -0.000000 0.000000 1.000000
vn -0.000000 0.000000 1.000000
vn 0.000000 0.000000 1.000000
vn -0.000000 0.000000 1.000000
vn 0.000000 0.000000 1.000000
vn 0.000000 0.000000 1.000000
vn -0.000000 0.000000 1.000000
vn 0.000000 0.000000 1.000000
vn 0.000000 0.000000 1.000000
vn -0.000000 0.000000 1.000000
vn 0.000000 0.000000 1.000000
vn 0.000000 0.000000 1.000000
vn -0.000000 0.000000 1.000000
vn 0.000000 0.000000 1.000000
vn 0.000000 0.000000 1.000000
vn -0.000000 0.000000 1.000000
vn 0.000000 0.000000 1.000000
vn 0.000000 0.000000 1.000000
vn -0.000000 0.000000 1.000000
vn 0.000000 0.000000 1.000000
vn 0.000000 0.000000 1.000000
vn -0.000000 0.000000 1.000000
vn 0.000000 0.000000 1.000000
vn 0.000000 0.000000 1.000000
vn -0.000000 0.000000 1.000000
vn 0.000000 0.000000 1.000000
vn 0.000000 0.000000 1.000000
vn -0.000000 0.000000 1.000000
vn 0.000000 0.000000 1.000000
vn 0.000000 0.000000 1.000000
vn -0.000000 0.000000 1.000000
vn 0.707110 0.707104 0.000000
vn 0.707108 0.707105 0.000000
vn 1.000000 -0.000001 0.000000
vn 1.000000 -0.000001 0.000000
vn 0.707108 0.707105 0.000000
vn 1.000000 0.000001 0.000000
vn 0.000000 1.000000 0.000000
vn 0.000000 1.000000 0.000000
vn 0.707110 0.707104 0.000000
vn 0.707110 0.707104 0.000000
vn 0.000000 1.000000 0.000000
vn 0.707108 0.707105 0.000000
vn -0.707109 0.707104 0.000000
vn -0.707109 0.707105 0.000000
vn 0.000000 1.000000 0.000000
vn 0.000000 1.000000 0.000000
vn -0.707109 0.707105 0.000000
vn 0.000000 1.000000 0.000000
vn -1.000000 0.000000 0.000000
vn -1.000000 0.000000 0.000000
vn -0.707109 0.707104 0.000000
vn -0.707109 0.707104 0.000000
vn -1.000000 0.000000 0.000000
vn -0.707109 0.707105 0.000000
vn -0.707109 -0.707105 0.000000
vn -0.707109 -0.707105 0.000000
vn -1.000000 0.000000 0.000000
vn -1.000000 0.000000 0.000000
vn -0.707109 -0.707105 0.000000
vn -1.000000 0.000000 0.000000
vn -0.382686 -0.923878 0.000000
vn -0.382686 -0.923879 0.000000
vn -0.707109 -0.707105 0.000000
vn -0.707109 -0.707105 0.000000
vn -0.382686 -0.923879 0.000000
vn -0.707109 -0.707105 0.000000
vn 0.707108 -0.707105 0.000000
vn 0.707110 -0.707104 0.000000
vn 0.382686 -0.923879 0.000000
vn 0.382686 -0.923879 0.000000
vn 0.707110 -0.707104 0.000000
vn 0.382686 -0.923879 0.000000
vn 1.000000 -0.000001 0.000000
vn 1.000000 0.000001 0.000000
vn 0.707108 -0.707105 0.000000
vn 0.707108 -0.707105 0.000000
vn 1.000000 0.000001 0.000000
vn 0.707110 -0.707104 0.000000
vn 1.000000 0.000010 0.000000
vn 1.000000 0.000000 0.000000
vn 1.000000 0.000000 0.000000
vn 1.000000 0.000000 0.000000
vn 1.000000 0.000000 0.000000
vn 1.000000 0.000000 0.000000
vn 1.000000 0.000000 0.000000
vn 1.000000 0.000000 0.000000
vn 1.000000 0.000000 0.000000
vn 1.000000 0.000000 0.000000
vn 1.000000 0.000000 0.000000
vn 1.000000 0.000000 0.000000
vn 1.000000 0.000000 0.000000
vn 1.000000 0.000000 0.000000
vn 1.000000 0.000000 0.000000
vn 1.000000 0.000000 0.000000
vn 1.000000 0.000000 0.000000
vn 1.000000 0.000000 0.000000
vn 1.000000 0.000000 0.000000
vn 1.000000 0.000000 0.000000
vn 1.000000 0.000000 0.000000
vn 1.000000 0.000000 0.000000
vn 1.000000 0.000000 0.000000
vn 1.000000 0.000000 0.000000
vn 1.000000 0.000000 0.000000
vn 1.000000 0.000000 0.000000
vn 1.000000 0.000000 0.000000
vn 1.000000 0.000000 0.000000
vn 1.000000 0.000000 0.000000
vn 1.000000 0.000000 0.000000
vn 1.000000 0.000000 0.000000
vn 1.000000 0.000000 0.000000
vn 1.000000 0.000000 0.000000
vn 1.000000 0.000000 0.000000
vn 1.000000 0.000000 0.000000
vn 1.000000 0.000000 0.000000
vn 1.000000 0.000000 0.000000
vn 1.000000 0.000002 0.000000
vn 1.000000 0.000000 0.000000
vn 1.000000 0.000002 0.000000
vn 1.000000 -0.000005 0.000000
vn 1.000000 0.000000 0.000000
vn -1.000000 0.000005 0.000000
vn -1.000000 -0.000003 0.000000
vn -1.000000 -0.000000 0.000000
vn -1.000000 -0.000003 0.000000
vn -1.000000 -0.000000 0.000000
vn -1.000000 -0.000000 0.000000
vn -1.000000 -0.000000 0.000000
vn -1.000000 0.000000 0.000000
vn -1.000000 -0.000000 0.000000
vn -1.000000 0.000000 0.000000
vn -1.000000 0.000001 0.000000
vn -1.000000 -0.000000 0.000000
vn -1.000000 0.000001 0.000000
vn -1.000000 -0.000000 0.000000
vn -1.000000 -0.000000 0.000000
vn -1.000000 -0.000000 0.000000
vn -1.000000 -0.000000 0.000000
vn -1.000000 -0.000000 0.000000
vn -1.000000 -0.000000 0.000000
vn -1.000000 0.000000 0.000000
vn -1.000000 -0.000000 0.000000
vn -1.000000 0.000000 0.000000
vn -1.000000 0.000000 0.000000
vn -1.000000 -0.000000 0.000000
vn -1.000000 0.000000 0.000000
vn -1.000000 0.000000 0.000000
vn -1.000000 -0.000000 0.000000
vn -1.000000 0.000000 0.000000
vn -1.000000 0.000000 0.000000
vn -1.000000 -0.000000 0.000000
vn -1.000000 0.000000 0.000000
vn -1.000000 0.000000 0.000000
vn -1.000000 -0.000000 0.000000
vn -1.000000 0.000000 0.000000
vn -1.000000 0.000000 0.000000
vn -1.000000 -0.000000 0.000000
vn -1.000000 0.000000 0.000000
vn -1.000000 0.000000 0.000000
vn -1.000000 -0.000000 0.000000
vn -1.000000 0.000000 0.000000
vn -1.000000 0.000000 0.000000
vn -1.000000 -0.000000 0.000000
vn 0.000000 0.923883 -0.382675
vn 0.000000 0.923882 -0.382677
vn 0.000000 0.707113 -0.707100
vn 0.000000 0.707113 -0.707100
vn 0.000000 0.923882 -0.382677
vn 0.000000 0.707112 -0.707102
vn 0.000000 0.707113 -0.707100
vn 0.000000 0.707112 -0.707102
vn 0.000000 0.382684 -0.923879
vn 0.000000 0.382684 -0.923879
vn 0.000000 0.707112 -0.707102
vn 0.000000 0.382683 -0.923880
vn 0.000000 0.382684 -0.923879
vn 0.000000 0.382683 -0.923880
vn 0.000000 0.000000 -1.000000
vn 0.000000 0.000000 -1.000000
vn 0.000000 0.382683 -0.923880
vn -0.000000 0.000000 -1.000000
vn 0.000000 -0.923877 0.382690
vn 0.000000 -0.923878 0.382688
vn 0.000000 -0.707107 0.707107
vn 0.000000 -0.707107 0.707107
vn 0.000000 -0.923878 0.382688
vn -0.000001 -0.707111 0.707102
vn 0.000000 -0.707107 0.707107
vn -0.000001 -0.707111 0.707102
vn -0.000001 -0.382688 0.923878
vn -0.000001 -0.382688 0.923878
vn -0.000001 -0.707111 0.707102
vn -0.000001 -0.382688 0.923878
vn -0.000001 -0.382688 0.923878
vn -0.000001 -0.382688 0.923878
vn -0.000000 -0.000000 1.000000
vn -0.000000 -0.000000 1.000000
vn -0.000001 -0.382688 0.923878
vn 0.000000 0.000000 1.000000
vn 0.000000 0.923882 -0.382677
vn 0.000000 0.923883 -0.382675
vn 0.000000 1.000000 -0.000000
vn 0.000000 1.000000 -0.000000
vn 0.000000 0.923883 -0.382675
vn 0.000000 1.000000 0.000000
vn 0.000000 -0.923878 0.382688
vn 0.000000 -0.923877 0.382690
vn 0.000000 -1.000000 -0.000002
vn 0.000000 -1.000000 -0.000002
vn 0.000000 -0.923877 0.382690
vn 0.000000 -1.000000 0.000002
vn 0.000000 -0.923878 -0.382686
vn 0.000000 -0.923879 -0.382684
vn 0.000000 -0.707112 -0.707101
vn 0.000000 -0.707112 -0.707101
vn 0.000000 -0.923879 -0.382684
vn -0.000001 -0.707106 -0.707107
vn 0.000000 -0.707112 -0.707101
vn -0.000001 -0.707106 -0.707107
vn -0.000001 -0.382688 -0.923878
vn -0.000001 -0.382688 -0.923878
vn -0.000001 -0.707106 -0.707107
vn -0.000001 -0.382686 -0.923878
vn -0.000001 -0.382688 -0.923878
vn -0.000001 -0.382686 -0.923878
vn -0.000000 0.000000 -1.000000
vn -0.000000 0.000000 -1.000000
vn -0.000001 -0.382686 -0.923878
vn 0.000000 0.000000 -1.000000
vn 0.000000 -0.923879 -0.382684
vn 0.000000 -0.923878 -0.382686
vn 0.000000 -1.000000 0.000002
vn 0.000000 -1.000000 0.000002
vn 0.000000 -0.923878 -0.382686
vn 0.000000 -1.000000 -0.000002
vn 0.000000 0.923881 0.382679
vn 0.000000 0.923881 0.382681
vn 0.000000 0.707113 0.707100
vn 0.000000 0.707113 0.707100
vn 0.000000 0.923881 0.382681
vn 0.000000 0.707112 0.707102
vn 0.000000 0.707113 0.707100
vn 0.000000 0.707112 0.707102
vn 0.000000 0.382684 0.923879
vn 0.000000 0.382684 0.923879
vn 0.000000 0.707112 0.707102
vn 0.000000 0.382683 0.923880
vn 0.000000 0.382684 0.923879
vn 0.000000 0.382683 0.923880
vn 0.000000 0.000000 1.000000
vn 0.000000 0.000000 1.000000
vn 0.000000 0.382683 0.923880
vn -0.000000 -0.000000 1.000000
vn 0.000000 0.923881 0.382681
vn 0.000000 0.923881 0.382679
vn 0.000000 1.000000 0.000000
vn 0.000000 1.000000 0.000000
vn 0.000000 0.923881 0.382679
vn 0.000000 1.000000 -0.000000
vn 0.000000 0.923882 -0.382678
vn 0.000000 0.707114 -0.707100
vn 0.000000 0.923882 -0.382678
vn 0.000000 0.923882 -0.382678
vn 0.000000 0.707114 -0.707100
vn 0.000000 0.707114 -0.707099
vn 0.000000 0.707114 -0.707100
vn 0.000000 0.382688 -0.923878
vn 0.000000 0.707114 -0.707099
vn 0.000000 0.707114 -0.707099
vn 0.000000 0.382688 -0.923878
vn 0.000000 0.382689 -0.923877
vn 0.000000 0.382688 -0.923878
vn 0.000000 0.000000 -1.000000
vn 0.000000 0.382689 -0.923877
vn 0.000000 0.382689 -0.923877
vn 0.000000 0.000000 -1.000000
vn 0.000000 -0.000000 -1.000000
vn 0.000000 -0.923877 0.382690
vn 0.000000 -0.707114 0.707099
vn 0.000000 -0.923877 0.382690
vn 0.000000 -0.923877 0.382690
vn 0.000000 -0.707114 0.707099
vn 0.000000 -0.707120 0.707094
vn 0.000000 -0.707114 0.707099
vn 0.000000 -0.382694 0.923875
vn 0.000000 -0.707120 0.707094
vn 0.000000 -0.707120 0.707094
vn 0.000000 -0.382694 0.923875
vn 0.000000 -0.382693 0.923875
vn 0.000000 -0.382694 0.923875
vn 0.000000 0.000000 1.000000
vn 0.000000 -0.382693 0.923875
vn 0.000000 -0.382693 0.923875
vn 0.000000 0.000000 1.000000
vn 0.000000 -0.000000 1.000000
vn 0.000000 0.923882 -0.382678
vn 0.000000 1.000000 -0.000000
vn 0.000000 0.923882 -0.382678
vn 0.000000 0.923882 -0.382678
vn 0.000000 1.000000 -0.000000
vn 0.000000 1.000000 -0.000000
vn 0.000000 -0.923877 0.382690
vn 0.000000 -1.000000 -0.000002
vn 0.000000 -0.923877 0.382690
vn 0.000000 -0.923877 0.382690
vn 0.000000 -1.000000 -0.000002
vn 0.000000 -1.000000 0.000002
vn 0.000000 -0.923879 -0.382685
vn 0.000000 -0.707115 -0.707099
vn 0.000000 -0.923879 -0.382685
vn 0.000000 -0.923879 -0.382685
vn 0.000000 -0.707115 -0.707099
vn 0.000000 -0.707106 -0.707108
vn 0.000000 -0.707115 -0.707099
vn 0.000000 -0.382694 -0.923875
vn 0.000000 -0.707106 -0.707108
vn 0.000000 -0.707106 -0.707108
vn 0.000000 -0.382694 -0.923875
vn 0.000000 -0.382693 -0.923876
vn 0.000000 -0.382694 -0.923875
vn 0.000000 -0.000000 -1.000000
vn 0.000000 -0.382693 -0.923876
vn 0.000000 -0.382693 -0.923876
vn 0.000000 -0.000000 -1.000000
vn 0.000000 0.000000 -1.000000
vn 0.000000 -0.923879 -0.382685
vn 0.000000 -1.000000 0.000002
vn 0.000000 -0.923879 -0.382685
vn 0.000000 -0.923879 -0.382685
vn 0.000000 -1.000000 0.000002
vn 0.000000 -1.000000 -0.000002
vn 0.000000 0.923880 0.382683
vn 0.000000 0.707121 0.707093
vn 0.000000 0.923880 0.382683
vn 0.000000 0.923880 0.382683
vn 0.000000 0.707121 0.707093
vn 0.000000 0.707122 0.707092
vn 0.000000 0.707121 0.707093
vn 0.000000 0.382688 0.923878
vn 0.000000 0.707122 0.707092
vn 0.000000 0.707122 0.707092
vn 0.000000 0.382688 0.923878
vn 0.000000 0.382689 0.923877
vn 0.000000 0.382688 0.923878
vn 0.000000 -0.000000 1.000000
vn 0.000000 0.382689 0.923877
vn 0.000000 0.382689 0.923877
vn 0.000000 -0.000000 1.000000
vn 0.000000 0.000000 1.000000
vn 0.000000 0.923880 0.382683
vn 0.000000 1.000000 -0.000000
vn 0.000000 0.923880 0.382683
vn 0.000000 0.923880 0.382683
vn 0.000000 1.000000 -0.000000
vn 0.000000 1.000000 -0.000000
vn -0.707109 0.707105 0.000000
vn -1.000000 0.000000 0.000000
vn -0.707109 0.707105 0.000000
vn -0.707109 0.707105 0.000000
vn -1.000000 0.000000 0.000000
vn -1.000000 0.000000 0.000000
vn -0.000000 1.000000 0.000000
vn -0.707109 0.707105 0.000000
vn -0.000000 1.000000 0.000000
vn -0.000000 1.000000 0.000000
vn -0.707109 0.707105 0.000000
vn -0.707109 0.707105 0.000000
vn 0.707109 0.707104 0.000000
vn -0.000000 1.000000 0.000000
vn 0.707109 0.707105 0.000000
vn 0.707109 0.707105 0.000000
vn -0.000000 1.000000 0.000000
vn -0.000000 1.000000 0.000000
vn 1.000000 0.000000 0.000000
vn 0.707109 0.707104 0.000000
vn 1.000000 0.000000 0.000000
vn 1.000000 0.000000 0.000000
vn 0.707109 0.707104 0.000000
vn 0.707109 0.707105 0.000000
vn 0.707109 -0.707105 0.000000
vn 1.000000 0.000000 0.000000
vn 0.707109 -0.707105 0.000000
vn 0.707109 -0.707105 0.000000
vn 1.000000 0.000000 0.000000
vn 1.000000 0.000000 0.000000
vn 0.000000 -1.000000 0.000000
vn 0.707109 -0.707105 0.000000
vn 0.000000 -1.000000 0.000000
vn 0.000000 -1.000000 0.000000
vn 0.707109 -0.707105 0.000000
vn 0.707109 -0.707105 0.000000
vn -0.707109 -0.707105 0.000000
vn 0.000000 -1.000000 0.000000
vn -0.707109 -0.707105 0.000000
vn -0.707109 -0.707105 0.000000
vn 0.000000 -1.000000 0.000000
vn 0.000000 -1.000000 0.000000
vn -1.000000 0.000000 0.000000
vn -0.707109 -0.707105 0.000000
vn -1.000000 0.000000 0.000000
vn -1.000000 0.000000 0.000000
vn -0.707109 -0.707105 0.000000
vn -0.707109 -0.707105 0.000000
vn 0.000000 0.000000 1.000000
vn 0.000000 0.000000 1.000000
vn -0.000000 0.000000 1.000000
vn 0.000000 0.000000 1.000000
vn 0.000000 0.000000 1.000000
vn -0.000000 0.000000 1.000000
vn 0.000000 0.000000 1.000000
vn -0.000001 0.000000 1.000000
vn -0.000000 0.000000 1.000000
vn -0.000001 0.000000 1.000000
vn -0.000000 0.000000 1.000000
vn -0.000000 0.000000 1.000000
vn -0.000000 0.000000 1.000000
vn 0.000000 0.000000 1.000000
vn -0.000000 0.000000 1.000000
vn 0.000000 0.000000 1.000000
vn 0.000000 0.000000 1.000000
vn -0.000000 0.000000 1.000000
vn 0.000000 0.000000 1.000000
vn 0.000000 0.000000 1.000000
vn -0.000000 0.000000 1.000000
vn 0.000000 0.000000 1.000000
vn 0.000000 0.000000 1.000000
vn -0.000000 0.000000 1.000000
vn 0.000000 0.000000 1.000000
vn 0.000000 0.000000 1.000000
vn -0.000000 0.000000 1.000000
vn 0.000000 0.000000 1.000000
vn 0.000000 0.000000 1.000000
vn -0.000000 0.000000 1.000000
vn 0.000000 0.000000 1.000000
vn 0.000000 0.000000 1.000000
vn -0.000000 0.000000 1.000000
vn 0.000000 0.000000 1.000000
vn 0.000000 0.000000 1.000000
vn -0.000000 0.000000 1.000000
vn 0.000000 0.000000 1.000000
vn 0.000000 0.000000 1.000000
vn -0.000000 0.000000 1.000000
vn 0.000000 0.000000 1.000000
vn 0.000000 0.000000 1.000000
vn -0.000000 0.000000 1.000000
vn 0.382678 0.923882 0.000000
vn 0.707107 0.707107 0.000000
vn 0.382678 0.923882 0.000000
vn 0.382678 0.923882 0.000000
vn 0.707107 0.707107 0.000000
vn 0.707106 0.707107 0.000000
vn 0.707107 0.707107 0.000000
vn 0.923883 0.382676 0.000000
vn 0.707106 0.707107 0.000000
vn 0.707106 0.707107 0.000000
vn 0.923883 0.382676 0.000000
vn 0.923883 0.382676 0.000000
vn 0.923883 0.382676 0.000000
vn 1.000000 0.000000 0.000000
vn 0.923883 0.382676 0.000000
vn 0.923883 0.382676 0.000000
vn 1.000000 0.000000 0.000000
vn 1.000000 -0.000000 0.000000
vn -0.382680 -0.923881 0.000000
vn -0.707107 -0.707106 0.000000
vn -0.382681 -0.923881 0.000000
vn -0.382681 -0.923881 0.000000
vn -0.707107 -0.707106 0.000000
vn -0.707107 -0.707107 0.000000
vn -0.707107 -0.707106 0.000000
vn -0.923880 -0.382682 0.000000
vn -0.707107 -0.707107 0.000000
vn -0.707107 -0.707107 0.000000
vn -0.923880 -0.382682 0.000000
vn -0.923880 -0.382684 0.000000
vn -0.923880 -0.382682 0.000000
vn -1.000000 0.000001 0.000000
vn -0.923880 -0.382684 0.000000
vn -0.923880 -0.382684 0.000000
vn -1.000000 0.000001 0.000000
vn -1.000000 -0.000001 0.000000
vn 0.382678 0.923882 0.000000
vn -0.000000 1.000000 0.000000
vn 0.382678 0.923882 0.000000
vn 0.382678 0.923882 0.000000
vn -0.000000 1.000000 0.000000
vn -0.000000 1.000000 0.000000
vn -0.382681 -0.923881 0.000000
vn 0.000000 -1.000000 0.000000
vn -0.382680 -0.923881 0.000000
vn -0.382680 -0.923881 0.000000
vn 0.000000 -1.000000 0.000000
vn 0.000000 -1.000000 0.000000
vn 0.707106 -0.707107 0.000000
vn 0.382677 -0.923882 0.000000
vn 0.707106 -0.707108 0.000000
vn 0.707106 -0.707108 0.000000
vn 0.382677 -0.923882 0.000000
vn 0.382678 -0.923882 0.000000
vn 0.923883 -0.382675 0.000000
vn 0.707106 -0.707107 0.000000
vn 0.923883 -0.382676 0.000000
vn 0.923883 -0.382676 0.000000
vn 0.707106 -0.707107 0.000000
vn 0.707106 -0.707108 0.000000
vn 1.000000 0.000000 0.000000
vn 0.923883 -0.382675 0.000000
vn 1.000000 -0.000000 0.000000
vn 1.000000 -0.000000 0.000000
vn 0.923883 -0.382675 0.000000
vn 0.923883 -0.382676 0.000000
vn 0.382677 -0.923882 0.000000
vn 0.000000 -1.000000 0.000000
vn 0.382678 -0.923882 0.000000
vn 0.382678 -0.923882 0.000000
vn 0.000000 -1.000000 0.000000
vn 0.000000 -1.000000 0.000000
vn -0.707106 0.707107 0.000000
vn -0.382680 0.923881 0.000000
vn -0.707106 0.707108 0.000000
vn -0.707106 0.707108 0.000000
vn -0.382680 0.923881 0.000000
vn -0.382680 0.923881 0.000000
vn -0.923880 0.382683 0.000000
vn -0.707106 0.707107 0.000000
vn -0.923880 0.382682 0.000000
vn -0.923880 0.382682 0.000000
vn -0.707106 0.707107 0.000000
vn -0.707106 0.707108 0.000000
vn -1.000000 0.000001 0.000000
vn -0.923880 0.382683 0.000000
vn -1.000000 -0.000001 0.000000
vn -1.000000 -0.000001 0.000000
vn -0.923880 0.382683 0.000000
vn -0.923880 0.382682 0.000000
vn -0.382680 0.923881 0.000000
vn -0.000000 1.000000 0.000000
vn -0.382680 0.923881 0.000000
vn -0.382680 0.923881 0.000000
vn -0.000000 1.000000 0.000000
vn -0.000000 1.000000 0.000000
vn 0.000000 0.923883 -0.382675
vn 0.000000 0.707113 -0.707100
vn 0.000000 0.923882 -0.382677
vn 0.000000 0.923882 -0.382677
vn 0.000000 0.707113 -0.707100
vn 0.000000 0.707112 -0.707102
vn 0.000000 0.707113 -0.707100
vn 0.000000 0.382684 -0.923879
vn 0.000000 0.707112 -0.707102
vn 0.000000 0.707112 -0.707102
vn 0.000000 0.382684 -0.923879
vn 0.000000 0.382683 -0.923880
vn 0.000000 0.382684 -0.923879
vn 0.000000 0.000000 -1.000000
vn 0.000000 0.382683 -0.923880
vn 0.000000 0.382683 -0.923880
vn 0.000000 0.000000 -1.000000
vn 0.000001 0.000000 -1.000000
vn 0.000000 -0.923877 0.382690
vn 0.000000 -0.707107 0.707107
vn 0.000000 -0.923878 0.382688
vn 0.000000 -0.923878 0.382688
vn 0.000000 -0.707107 0.707107
vn 0.000001 -0.707111 0.707102
vn 0.000000 -0.707107 0.707107
vn 0.000001 -0.382688 0.923878
vn 0.000001 -0.707111 0.707102
vn 0.000001 -0.707111 0.707102
vn 0.000001 -0.382688 0.923878
vn 0.000001 -0.382688 0.923878
vn 0.000001 -0.382688 0.923878
vn 0.000000 -0.000000 1.000000
vn 0.000001 -0.382688 0.923878
vn 0.000001 -0.382688 0.923878
vn 0.000000 -0.000000 1.000000
vn 0.000000 0.000000 1.000000
vn 0.000000 0.923882 -0.382677
vn 0.000000 1.000000 -0.000000
vn 0.000000 0.923883 -0.382675
vn 0.000000 0.923883 -0.382675
vn 0.000000 1.000000 -0.000000
vn 0.000000 1.000000 0.000000
vn 0.000000 -0.923878 0.382688
vn 0.000000 -1.000000 -0.000002
vn 0.000000 -0.923877 0.382690
vn 0.000000 -0.923877 0.382690
vn 0.000000 -1.000000 -0.000002
vn 0.000000 -1.000000 0.000002
vn 0.000000 -0.923879 -0.382686
vn 0.000000 -0.707112 -0.707101
vn 0.000000 -0.923879 -0.382684
vn 0.000000 -0.923879 -0.382684
vn 0.000000 -0.707112 -0.707101
vn 0.000001 -0.707106 -0.707107
vn 0.000000 -0.707112 -0.707101
vn 0.000001 -0.382688 -0.923878
vn 0.000001 -0.707106 -0.707107
vn 0.000001 -0.707106 -0.707107
vn 0.000001 -0.382688 -0.923878
vn 0.000001 -0.382686 -0.923878
vn 0.000001 -0.382688 -0.923878
vn 0.000001 0.000000 -1.000000
vn 0.000001 -0.382686 -0.923878
vn 0.000001 -0.382686 -0.923878
vn 0.000001 0.000000 -1.000000
vn 0.000000 0.000000 -1.000000
vn 0.000000 -0.923879 -0.382684
vn 0.000000 -1.000000 0.000002
vn 0.000000 -0.923879 -0.382686
vn 0.000000 -0.923879 -0.382686
vn 0.000000 -1.000000 0.000002
vn 0.000000 -1.000000 -0.000002
vn 0.000000 0.923881 0.382679
vn 0.000000 0.707113 0.707100
vn 0.000000 0.923881 0.382681
vn 0.000000 0.923881 0.382681
vn 0.000000 0.707113 0.707100
vn 0.000000 0.707112 0.707102
vn 0.000000 0.707113 0.707100
vn 0.000000 0.382684 0.923879
vn 0.000000 0.707112 0.707102
vn 0.000000 0.707112 0.707102
vn 0.000000 0.382684 0.923879
vn 0.000000 0.382683 0.923880
vn 0.000000 0.382684 0.923879
vn 0.000000 0.000000 1.000000
vn 0.000000 0.382683 0.923880
vn 0.000000 0.382683 0.923880
vn 0.000000 0.000000 1.000000
vn 0.000000 -0.000000 1.000000
vn 0.000000 0.923881 0.382681
vn 0.000000 1.000000 0.000000
vn 0.000000 0.923881 0.382679
vn 0.000000 0.923881 0.382679
vn 0.000000 1.000000 0.000000
vn 0.000000 1.000000 -0.000000
vn -1.000000 0.000000 0.000000
vn -1.000000 0.000000 0.000000
vn -1.000000 -0.000000 0.000000
vn -1.000000 0.000000 0.000000
vn -1.000000 0.000004 0.000000
vn -1.000000 -0.000000 0.000000
vn -1.000000 0.000004 0.000000
vn -1.000000 -0.000002 0.000000
vn -1.000000 -0.000000 0.000000
vn -1.000000 -0.000002 0.000000
vn -1.000000 -0.000001 0.000000
vn -1.000000 -0.000000 0.000000
vn -1.000000 -0.000001 0.000000
vn -1.000000 0.000000 0.000000
vn -1.000000 -0.000000 0.000000
vn -1.000000 0.000000 0.000000
vn -1.000000 0.000000 0.000000
vn -1.000000 -0.000000 0.000000
vn -1.000000 0.000000 0.000000
vn -1.000000 0.000000 0.000000
vn -1.000000 -0.000000 0.000000
vn -1.000000 0.000000 0.000000
vn -1.000000 0.000000 0.000000
vn -1.000000 -0.000000 0.000000
vn -1.000000 0.000000 0.000000
vn -1.000000 0.000000 0.000000
vn -1.000000 -0.000000 0.000000
vn -1.000000 0.000000 0.000000
vn -1.000000 -0.000001 0.000000
vn -1.000000 -0.000000 0.000000
vn -1.000000 -0.000001 0.000000
vn -1.000000 -0.000002 0.000000
vn -1.000000 -0.000000 0.000000
vn -1.000000 -0.000002 0.000000
vn -1.000000 0.000004 0.000000
vn -1.000000 -0.000000 0.000000
vn -1.000000 0.000004 0.000000
vn -1.000000 0.000000 0.000000
vn -1.000000 -0.000000 0.000000
vn -1.000000 0.000000 0.000000
vn -1.000000 0.000000 0.000000
vn -1.000000 -0.000000 0.000000
vn 1.000000 0.000000 0.000000
vn 1.000000 0.000000 0.000000
vn 1.000000 -0.000000 0.000000
vn 1.000000 0.000000 0.000000
vn 1.000000 0.000000 0.000000
vn 1.000000 -0.000000 0.000000
vn 1.000000 0.000000 0.000000
vn 1.000000 0.000002 0.000000
vn 1.000000 -0.000000 0.000000
vn 1.000000 0.000002 0.000000
vn 1.000000 -0.000001 0.000000
vn 1.000000 -0.000000 0.000000
vn 1.000000 -0.000001 0.000000
vn 1.000000 0.000001 0.000000
vn 1.000000 -0.000000 0.000000
vn 1.000000 0.000001 0.000000
vn 1.000000 -0.000000 0.000000
vn 1.000000 -0.000000 0.000000
vn 1.000000 -0.000000 0.000000
vn 1.000000 -0.000001 0.000000
vn 1.000000 -0.000000 0.000000
vn 1.000000 -0.000001 0.000000
vn 1.000000 0.000000 0.000000
vn 1.000000 -0.000000 0.000000
vn 1.000000 0.000000 0.000000
vn 1.000000 0.000000 0.000000
vn 1.000000 -0.000000 0.000000
vn 1.000000 0.000000 0.000000
vn 1.000000 0.000000 0.000000
vn 1.000000 -0.000000 0.000000
vn 1.000000 0.000000 0.000000
vn 1.000000 0.000000 0.000000
vn 1.000000 -0.000000 0.000000
vn 1.000000 0.000000 0.000000
vn 1.000000 0.000000 0.000000
vn 1.000000 -0.000000 0.000000
vn 1.000000 0.000000 0.000000
vn 1.000000 0.000000 0.000000
vn 1.000000 -0.000000 0.000000
vn 1.000000 0.000000 0.000000
vn 1.000000 0.000000 0.000000
vn 1.000000 -0.000000 0.000000
s off
g SM_Dresser_01c
f 3/17/1 9/18/2 10/20/3
f 10/20/4 9/18/5 8/19/6
f 13/21/7 1/22/8 14/24/9
f 14/24/10 1/22/11 2/23/12
f 4/25/13 11/26/14 13/21/15
f 13/21/16 11/26/17 1/22/18
f 14/24/19 2/23/20 5/28/21
f 5/28/22 2/23/23 12/27/24
f 5/28/25 12/27/26 4/25/27
f 4/25/28 12/27/29 11/26/30
f 15/33/31 13/34/32 16/36/33
f 16/36/34 13/34/35 14/35/36
f 6/1/37 4/2/38 15/4/39
f 15/4/40 4/2/41 13/3/42
f 7/37/43 5/38/44 6/40/45
f 6/40/46 5/38/47 4/39/48
f 7/5/49 16/6/50 5/8/51
f 5/8/52 16/6/53 14/7/54
f 7/29/55 6/30/56 16/32/57
f 16/32/58 6/30/59 15/31/60
f 9/9/61 3/10/62 2/12/63
f 2/12/64 3/10/65 12/11/66
f 3/41/67 10/42/68 12/44/69
f 12/44/70 10/42/71 11/43/72
f 1/13/73 11/14/74 8/16/75
f 8/16/76 11/14/77 10/15/78
f 28/45/79 23/46/80 29/47/81
f 29/47/82 23/46/83 24/48/84
f 30/49/85 22/50/86 31/51/87
f 31/51/88 22/50/89 25/52/90
f 27/53/91 26/54/92 21/55/93
f 21/55/94 26/54/95 20/56/96
f 20/56/97 19/57/98 17/58/99
f 22/50/100 21/55/101 17/58/102
f 23/46/103 25/52/104 17/58/105
f 20/56/106 17/58/107 21/55/108
f 22/50/109 17/58/110 25/52/111
f 23/46/112 17/58/113 24/48/114
f 17/59/115 19/60/116 18/61/117
f 18/61/118 19/60/119 32/62/120
f 19/63/121 20/64/122 32/65/123
f 32/65/124 20/64/125 33/66/126
f 27/67/127 40/68/128 26/69/129
f 26/69/130 40/68/131 39/70/132
f 25/71/133 23/72/134 38/73/135
f 38/73/136 23/72/137 36/74/138
f 28/75/139 29/76/140 41/77/141
f 41/77/142 29/76/143 42/78/144
f 30/79/145 31/80/146 43/81/147
f 43/81/148 31/80/149 44/82/150
f 20/83/151 26/84/152 33/85/153
f 33/85/154 26/84/155 39/86/156
f 27/87/157 21/88/158 40/89/159
f 40/89/160 21/88/161 34/90/162
f 23/91/163 28/92/164 36/93/165
f 36/93/166 28/92/167 41/94/168
f 29/95/169 24/96/170 42/97/171
f 42/97/172 24/96/173 37/98/174
f 22/99/175 30/100/176 35/101/177
f 35/101/178 30/100/179 43/102/180
f 31/103/181 25/104/182 44/105/183
f 44/105/184 25/104/185 38/106/186
f 21/107/187 22/108/188 34/109/189
f 34/109/190 22/108/191 35/110/192
f 39/111/193 40/112/194 33/113/195
f 33/113/196 40/112/197 34/114/198
f 43/115/199 44/116/200 35/117/201
f 35/117/202 44/116/203 38/118/204
f 41/119/205 42/120/206 36/121/207
f 36/121/208 42/120/209 37/122/210
f 32/123/211 33/113/212 18/124/213
f 34/114/214 35/117/215 18/124/216
f 38/118/217 36/121/218 18/124/219
f 18/124/220 37/122/221 46/125/222
f 46/125/223 37/122/224 65/126/225
f 34/114/226 18/124/227 33/113/228
f 38/118/229 18/124/230 35/117/231
f 37/122/232 18/124/233 36/121/234
f 56/127/235 57/128/236 51/129/237
f 51/129/238 57/128/239 52/130/240
f 58/131/241 59/132/242 50/133/243
f 50/133/244 59/132/245 53/134/246
f 55/135/247 49/136/248 54/137/249
f 54/137/250 49/136/251 48/138/252
f 48/138/253 45/139/254 47/140/255
f 50/133/256 45/139/257 49/136/258
f 17/58/259 45/139/260 24/48/261
f 24/48/262 45/139/263 52/130/264
f 51/129/265 45/139/266 53/134/267
f 48/138/268 49/136/269 45/139/270
f 50/133/271 53/134/272 45/139/273
f 51/129/274 52/130/275 45/139/276
f 45/141/277 46/142/278 47/143/279
f 47/143/280 46/142/281 60/144/282
f 47/145/283 60/146/284 48/147/285
f 48/147/286 60/146/287 61/148/288
f 55/149/289 54/150/290 68/151/291
f 68/151/292 54/150/293 67/152/294
f 53/153/295 66/154/296 51/155/297
f 51/155/298 66/154/299 64/156/300
f 56/157/301 69/158/302 57/159/303
f 57/159/304 69/158/305 70/160/306
f 58/161/307 71/162/308 59/163/309
f 59/163/310 71/162/311 72/164/312
f 48/165/313 61/166/314 54/167/315
f 54/167/316 61/166/317 67/168/318
f 55/169/319 68/170/320 49/171/321
f 49/171/322 68/170/323 62/172/324
f 51/173/325 64/174/326 56/175/327
f 56/175/328 64/174/329 69/176/330
f 57/177/331 70/178/332 52/179/333
f 52/179/334 70/178/335 65/180/336
f 50/181/337 63/182/338 58/183/339
f 58/183/340 63/182/341 71/184/342
f 59/185/343 72/186/344 53/187/345
f 53/187/346 72/186/347 66/188/348
f 49/189/349 62/190/350 50/191/351
f 50/191/352 62/190/353 63/192/354
f 24/193/355 52/194/356 37/195/357
f 37/195/358 52/194/359 65/196/360
f 67/197/361 61/198/362 68/199/363
f 68/199/364 61/198/365 62/200/366
f 71/201/367 63/202/368 72/203/369
f 72/203/370 63/202/371 66/204/372
f 69/205/373 64/206/374 70/207/375
f 70/207/376 64/206/377 65/126/378
f 60/208/379 46/125/380 61/198/381
f 62/200/382 46/125/383 63/202/384
f 66/204/385 46/125/386 64/206/387
f 62/200/388 61/198/389 46/125/390
f 66/204/391 63/202/392 46/125/393
f 65/126/394 64/206/395 46/125/396
f 76/209/397 75/210/398 74/211/399
f 74/211/400 75/210/401 73/212/402
f 93/213/403 77/214/404 94/215/405
f 94/215/406 77/214/407 78/216/408
f 94/215/409 78/216/410 95/217/411
f 95/217/412 78/216/413 79/218/414
f 95/217/415 79/218/416 96/219/417
f 96/219/418 79/218/419 80/220/420
f 98/221/421 82/222/422 99/223/423
f 99/223/424 82/222/425 83/224/426
f 99/223/427 83/224/428 100/225/429
f 100/225/430 83/224/431 84/226/432
f 100/225/433 84/226/434 101/227/435
f 101/227/436 84/226/437 85/228/438
f 77/229/439 93/230/440 81/231/441
f 81/231/442 93/230/443 97/232/444
f 82/233/445 98/234/446 86/235/447
f 86/235/448 98/234/449 102/236/450
f 104/237/451 88/238/452 103/239/453
f 103/239/454 88/238/455 87/240/456
f 105/241/457 89/242/458 104/237/459
f 104/237/460 89/242/461 88/238/462
f 96/219/463 80/220/464 105/241/465
f 105/241/466 80/220/467 89/242/468
f 103/243/469 87/244/470 102/236/471
f 102/236/472 87/244/473 86/235/474
f 107/245/475 91/246/476 106/247/477
f 106/247/478 91/246/479 90/248/480
f 108/249/481 92/250/482 107/245/483
f 107/245/484 92/250/485 91/246/486
f 101/227/487 85/228/488 108/249/489
f 108/249/490 85/228/491 92/250/492
f 106/251/493 90/252/494 97/232/495
f 97/232/496 90/252/497 81/231/498
f 97/253/499 93/254/500 106/255/501
f 93/254/502 94/256/503 106/255/504
f 94/256/505 95/257/506 106/255/507
f 95/257/508 96/258/509 106/255/510
f 96/258/511 105/259/512 106/255/513
f 105/259/514 104/260/515 106/255/516
f 104/260/517 103/261/518 106/255/519
f 103/261/520 102/262/521 106/255/522
f 102/262/523 98/263/524 106/255/525
f 98/263/526 99/264/527 106/255/528
f 99/264/529 100/265/530 106/255/531
f 100/265/532 101/266/533 106/255/534
f 101/266/535 108/267/536 106/255/537
f 108/267/538 107/268/539 106/255/540
f 116/269/541 124/270/542 113/271/543
f 113/271/544 124/270/545 121/272/546
f 111/273/547 119/274/548 116/269/549
f 116/269/550 119/274/551 124/270/552
f 109/275/553 117/276/554 111/273/555
f 111/273/556 117/276/557 119/274/558
f 110/277/559 118/278/560 109/275/561
f 109/275/562 118/278/563 117/276/564
f 115/279/565 123/280/566 110/277/567
f 110/277/568 123/280/569 118/278/570
f 114/281/571 122/282/572 115/279/573
f 115/279/574 122/282/575 123/280/576
f 112/283/577 120/284/578 114/285/579
f 114/285/580 120/284/581 122/286/582
f 113/271/583 121/272/584 112/283/585
f 112/283/586 121/272/587 120/284/588
f 125/287/589 129/288/590 126/289/591
f 129/288/592 138/290/593 126/289/594
f 138/290/595 139/291/596 126/289/597
f 139/291/598 140/292/599 126/289/600
f 140/292/601 133/293/602 126/289/603
f 133/293/604 132/294/605 126/289/606
f 132/294/607 131/295/608 126/289/609
f 131/295/610 130/296/611 126/289/612
f 130/296/613 134/297/614 126/289/615
f 134/297/616 135/298/617 126/289/618
f 135/298/619 136/299/620 126/289/621
f 136/299/622 137/300/623 126/289/624
f 137/300/625 128/301/626 126/289/627
f 128/301/628 127/302/629 126/289/630
f 141/303/631 142/304/632 145/305/633
f 142/304/634 143/306/635 145/305/636
f 143/306/637 144/307/638 145/305/639
f 144/307/640 153/308/641 145/305/642
f 153/308/643 152/309/644 145/305/645
f 152/309/646 151/310/647 145/305/648
f 151/310/649 150/311/650 145/305/651
f 150/311/652 146/312/653 145/305/654
f 146/312/655 147/313/656 145/305/657
f 147/313/658 148/314/659 145/305/660
f 148/314/661 149/315/662 145/305/663
f 149/315/664 156/316/665 145/305/666
f 156/316/667 155/317/668 145/305/669
f 155/317/670 154/318/671 145/305/672
f 141/319/673 125/320/674 142/321/675
f 142/321/676 125/320/677 126/322/678
f 142/321/679 126/322/680 143/323/681
f 143/323/682 126/322/683 127/324/684
f 143/323/685 127/324/686 144/325/687
f 144/325/688 127/324/689 128/326/690
f 146/327/691 130/328/692 147/329/693
f 147/329/694 130/328/695 131/330/696
f 147/329/697 131/330/698 148/331/699
f 148/331/700 131/330/701 132/332/702
f 148/331/703 132/332/704 149/333/705
f 149/333/706 132/332/707 133/334/708
f 125/320/709 141/319/710 129/335/711
f 129/335/712 141/319/713 145/336/714
f 130/328/715 146/327/716 134/337/717
f 134/337/718 146/327/719 150/338/720
f 135/339/721 151/340/722 136/341/723
f 136/341/724 151/340/725 152/342/726
f 136/341/727 152/342/728 137/343/729
f 137/343/730 152/342/731 153/344/732
f 137/343/733 153/344/734 128/345/735
f 128/345/736 153/344/737 144/346/738
f 151/340/739 135/339/740 150/338/741
f 150/338/742 135/339/743 134/337/744
f 138/347/745 154/348/746 139/349/747
f 139/349/748 154/348/749 155/350/750
f 139/349/751 155/350/752 140/351/753
f 140/351/754 155/350/755 156/352/756
f 140/351/757 156/352/758 133/334/759
f 133/334/760 156/352/761 149/333/762
f 154/348/763 138/347/764 145/336/765
f 145/336/766 138/347/767 129/335/768
f 173/353/769 174/354/770 157/355/771
f 157/355/772 174/354/773 158/356/774
f 174/354/775 175/357/776 158/356/777
f 158/356/778 175/357/779 159/358/780
f 175/357/781 176/359/782 159/358/783
f 159/358/784 176/359/785 160/360/786
f 178/361/787 179/362/788 162/363/789
f 162/363/790 179/362/791 163/364/792
f 179/362/793 180/365/794 163/364/795
f 163/364/796 180/365/797 164/366/798
f 180/365/799 181/367/800 164/366/801
f 164/366/802 181/367/803 165/368/804
f 157/355/805 161/369/806 173/353/807
f 173/353/808 161/369/809 177/370/810
f 162/363/811 166/371/812 178/361/813
f 178/361/814 166/371/815 182/372/816
f 167/373/817 168/374/818 183/375/819
f 183/375/820 168/374/821 184/376/822
f 168/374/823 169/377/824 184/376/825
f 184/376/826 169/377/827 185/378/828
f 169/377/829 160/379/830 185/378/831
f 185/378/832 160/379/833 176/380/834
f 183/375/835 182/372/836 167/373/837
f 167/373/838 182/372/839 166/371/840
f 170/381/841 171/382/842 186/383/843
f 186/383/844 171/382/845 187/384/846
f 171/382/847 172/385/848 187/384/849
f 187/384/850 172/385/851 188/386/852
f 172/385/853 165/368/854 188/386/855
f 188/386/856 165/368/857 181/367/858
f 186/383/859 177/370/860 170/381/861
f 170/381/862 177/370/863 161/369/864
f 196/387/865 193/388/866 204/389/867
f 204/389/868 193/388/869 201/390/870
f 191/391/871 196/387/872 199/392/873
f 199/392/874 196/387/875 204/389/876
f 189/393/877 191/391/878 197/394/879
f 197/394/880 191/391/881 199/392/882
f 190/395/883 189/393/884 198/396/885
f 198/396/886 189/393/887 197/394/888
f 195/397/889 190/395/890 203/398/891
f 203/398/892 190/395/893 198/396/894
f 194/399/895 195/397/896 202/400/897
f 202/400/898 195/397/899 203/398/900
f 192/401/901 194/402/902 200/403/903
f 200/403/904 194/402/905 202/404/906
f 193/388/907 192/401/908 201/390/909
f 201/390/910 192/401/911 200/403/912
f 209/405/913 218/406/914 205/407/915
f 218/406/916 219/408/917 205/407/918
f 219/408/919 220/409/920 205/407/921
f 220/409/922 213/410/923 205/407/924
f 213/410/925 212/411/926 205/407/927
f 212/411/928 211/412/929 205/407/930
f 211/412/931 210/413/932 205/407/933
f 210/413/934 214/414/935 205/407/936
f 214/414/937 215/415/938 205/407/939
f 215/415/940 216/416/941 205/407/942
f 216/416/943 217/417/944 205/407/945
f 217/417/946 208/418/947 205/407/948
f 208/418/949 207/419/950 205/407/951
f 207/419/952 206/420/953 205/407/954
f 205/421/955 206/422/956 221/423/957
f 221/423/958 206/422/959 222/424/960
f 206/422/961 207/425/962 222/424/963
f 222/424/964 207/425/965 223/426/966
f 207/425/967 208/427/968 223/426/969
f 223/426/970 208/427/971 224/428/972
f 210/429/973 211/430/974 226/431/975
f 226/431/976 211/430/977 227/432/978
f 211/430/979 212/433/980 227/432/981
f 227/432/982 212/433/983 228/434/984
f 212/433/985 213/435/986 228/434/987
f 228/434/988 213/435/989 229/436/990
f 221/423/991 225/437/992 205/421/993
f 205/421/994 225/437/995 209/438/996
f 226/431/997 230/439/998 210/429/999
f 210/429/1000 230/439/1001 214/440/1002
f 216/441/1003 215/442/1004 232/443/1005
f 232/443/1006 215/442/1007 231/444/1008
f 217/445/1009 216/441/1010 233/446/1011
f 233/446/1012 216/441/1013 232/443/1014
f 208/427/1015 217/445/1016 224/428/1017
f 224/428/1018 217/445/1019 233/446/1020
f 215/442/1021 214/447/1022 231/444/1023
f 231/444/1024 214/447/1025 230/448/1026
f 219/449/1027 218/450/1028 235/451/1029
f 235/451/1030 218/450/1031 234/452/1032
f 220/453/1033 219/449/1034 236/454/1035
f 236/454/1036 219/449/1037 235/451/1038
f 213/435/1039 220/453/1040 229/436/1041
f 229/436/1042 220/453/1043 236/454/1044
f 218/450/1045 209/438/1046 234/452/1047
f 234/452/1048 209/438/1049 225/437/1050
f 253/455/1051 254/456/1052 237/457/1053
f 237/457/1054 254/456/1055 238/458/1056
f 254/456/1057 255/459/1058 238/458/1059
f 238/458/1060 255/459/1061 239/460/1062
f 255/459/1063 256/461/1064 239/460/1065
f 239/460/1066 256/461/1067 240/462/1068
f 258/463/1069 259/464/1070 242/465/1071
f 242/465/1072 259/464/1073 243/466/1074
f 259/464/1075 260/467/1076 243/466/1077
f 243/466/1078 260/467/1079 244/468/1080
f 260/467/1081 261/469/1082 244/468/1083
f 244/468/1084 261/469/1085 245/470/1086
f 237/457/1087 241/471/1088 253/455/1089
f 253/455/1090 241/471/1091 257/472/1092
f 242/465/1093 246/473/1094 258/463/1095
f 258/463/1096 246/473/1097 262/474/1098
f 247/475/1099 248/476/1100 263/477/1101
f 263/477/1102 248/476/1103 264/478/1104
f 248/476/1105 249/479/1106 264/478/1107
f 264/478/1108 249/479/1109 265/480/1110
f 249/479/1111 240/481/1112 265/480/1113
f 265/480/1114 240/481/1115 256/482/1116
f 263/477/1117 262/474/1118 247/475/1119
f 247/475/1120 262/474/1121 246/473/1122
f 250/483/1123 251/484/1124 266/485/1125
f 266/485/1126 251/484/1127 267/486/1128
f 251/484/1129 252/487/1130 267/486/1131
f 267/486/1132 252/487/1133 268/488/1134
f 252/487/1135 245/470/1136 268/488/1137
f 268/488/1138 245/470/1139 261/469/1140
f 266/485/1141 257/472/1142 250/483/1143
f 250/483/1144 257/472/1145 241/471/1146
f 237/489/1147 238/490/1148 241/491/1149
f 238/490/1150 239/492/1151 241/491/1152
f 239/492/1153 240/493/1154 241/491/1155
f 240/493/1156 249/494/1157 241/491/1158
f 249/494/1159 248/495/1160 241/491/1161
f 248/495/1162 247/496/1163 241/491/1164
f 247/496/1165 246/497/1166 241/491/1167
f 246/497/1168 242/498/1169 241/491/1170
f 242/498/1171 243/499/1172 241/491/1173
f 243/499/1174 244/500/1175 241/491/1176
f 244/500/1177 245/501/1178 241/491/1179
f 245/501/1180 252/502/1181 241/491/1182
f 252/502/1183 251/503/1184 241/491/1185
f 251/503/1186 250/504/1187 241/491/1188
f 253/505/1189 257/506/1190 254/507/1191
f 257/506/1192 266/508/1193 254/507/1194
f 266/508/1195 267/509/1196 254/507/1197
f 267/509/1198 268/510/1199 254/507/1200
f 268/510/1201 261/511/1202 254/507/1203
f 261/511/1204 260/512/1205 254/507/1206
f 260/512/1207 259/513/1208 254/507/1209
f 259/513/1210 258/514/1211 254/507/1212
f 258/514/1213 262/515/1214 254/507/1215
f 262/515/1216 263/516/1217 254/507/1218
f 263/516/1219 264/517/1220 254/507/1221
f 264/517/1222 265/518/1223 254/507/1224
f 265/518/1225 256/519/1226 254/507/1227
f 256/519/1228 255/520/1229 254/507/1230
