# This file uses feet as units for non-parametric coordinates.

g default
v 48.329994 25.952797 20.294205
v 48.329994 -0.000031 20.294205
v -48.330002 25.952797 20.294205
v -48.330002 -0.000031 20.294205
v -47.330032 24.952797 20.294189
v 47.329987 24.952797 20.294189
v 47.329987 0.999943 -29.118225
v -45.830032 24.952797 -27.618225
v 45.829987 24.952797 -27.618225
v -45.830032 2.599087 -27.618225
v 45.829987 2.599091 -27.618225
v -47.330032 0.999943 20.294189
v 47.329987 0.999943 20.294189
v -47.330032 0.999943 -29.118225
v -47.330032 24.952797 -29.118225
v 47.329987 24.952797 -29.118225
v -45.830032 24.952797 18.794189
v 45.829987 24.952797 18.794189
v -45.830032 2.599087 18.794189
v 45.829987 2.599087 18.794189
v 48.330002 25.952820 22.376892
v 48.330002 25.952820 20.294197
v 29.647263 3.681950 22.376892
v 43.199997 20.822823 22.376892
v 43.199997 20.822823 23.904701
v 39.699997 17.322823 22.376892
v 39.699997 17.322823 23.904701
v 33.199997 7.234688 22.376892
v 33.199997 7.234688 23.904701
v 29.647263 3.681950 23.904701
v 43.199997 -0.000031 23.904701
v 29.647263 -0.000031 22.376892
v 33.199997 -0.000034 23.904701
v 43.199997 -0.000031 22.376892
v 33.199997 -0.000034 22.376892
v 29.647263 -0.000031 23.904701
v 39.699997 -0.000031 22.376892
v 39.699997 -0.000031 23.904701
v 48.330002 -0.000031 22.376892
v 48.330002 -0.000031 20.294205
v -48.330002 25.952820 22.376892
v -48.330002 25.952820 20.294197
v -29.647263 3.681950 22.376892
v -43.200005 20.822823 22.376892
v -43.200005 20.822823 23.904701
v -39.700005 17.322823 22.376892
v -39.700005 17.322823 23.904701
v -33.200005 7.234688 22.376892
v -33.200005 7.234688 23.904701
v -29.647263 3.681950 23.904701
v -43.199997 -0.000031 23.904701
v -29.647263 -0.000031 22.376892
v -33.200005 -0.000034 23.904701
v -43.199997 -0.000031 22.376892
v -33.200005 -0.000034 22.376892
v -29.647263 -0.000031 23.904701
v -39.700005 -0.000031 22.376892
v -39.700005 -0.000031 23.904701
v -48.330002 -0.000031 22.376892
v -48.330002 -0.000031 20.294205
v 10.327209 13.841591 23.123672
v 9.968842 12.976395 23.123672
v 11.192398 14.199959 23.123672
v 12.057587 12.111206 23.123672
v 12.415955 12.976395 23.123672
v 11.192398 11.752831 23.123672
v 10.327209 12.111206 23.123672
v 12.057587 13.841591 23.123672
v 10.327209 13.841591 26.669952
v 9.968842 12.976395 26.669952
v 11.192398 14.199959 26.669952
v 12.057587 12.111206 26.669952
v 12.415955 12.976395 26.669952
v 11.192398 11.752831 26.669952
v 10.327209 12.111206 26.669952
v 12.057587 13.841591 26.669952
v 8.652237 14.266800 26.792542
v 8.652237 13.964043 26.339417
v 8.652237 13.510910 26.036636
v 8.652237 12.976395 25.930313
v 8.652237 14.373131 27.327057
v 8.652237 11.685989 27.861557
v 8.652237 11.988762 28.314682
v 8.652237 12.441879 28.617462
v 8.652237 12.976395 28.723785
v 8.652237 11.579666 27.327057
v 8.652237 11.685989 26.792542
v 8.652237 11.988762 26.339417
v 8.652237 12.441879 26.036636
v 8.652237 14.266800 27.861557
v 8.652237 13.964043 28.314682
v 8.652237 13.510910 28.617462
v -8.925491 14.266800 26.792542
v -8.925491 13.964043 26.339417
v -8.925491 13.510910 26.036636
v -8.925491 12.976395 25.930313
v -8.925491 14.373131 27.327057
v -8.925491 11.685989 27.861557
v -8.925491 11.988762 28.314682
v -8.925491 12.441895 28.617462
v -8.925491 12.976395 28.723785
v -8.925491 11.579666 27.327057
v -8.925491 11.685989 26.792542
v -8.925491 11.988762 26.339417
v -8.925491 12.441895 26.036636
v -8.925491 14.266800 27.861557
v -8.925491 13.964043 28.314682
v -8.925491 13.510910 28.617462
v -10.498688 15.310852 22.376892
v -9.678940 14.763115 22.376892
v -9.131195 13.943359 22.376892
v -8.938858 12.976395 22.376892
v -11.465652 15.503189 22.376892
v -12.432602 10.641937 22.376892
v -13.252365 11.189674 22.376892
v -13.800095 12.009430 22.376892
v -13.992447 12.976395 22.376892
v -11.465652 10.449600 22.376892
v -10.498688 10.641937 22.376892
v -9.678940 11.189674 22.376892
v -9.131195 12.009430 22.376892
v -12.432602 15.310852 22.376892
v -13.252365 14.763115 22.376892
v -13.800095 13.943359 22.376892
v -10.498688 15.310852 23.178047
v -9.678940 14.763115 23.178047
v -9.131195 13.943359 23.178047
v -8.938858 12.976395 23.178047
v -11.465652 15.503189 23.178047
v -12.432602 10.641937 23.178047
v -13.252365 11.189674 23.178047
v -13.800095 12.009430 23.178047
v -13.992447 12.976395 23.178047
v -11.465652 10.449600 23.178047
v -10.498688 10.641937 23.178047
v -9.678940 11.189674 23.178047
v -9.131195 12.009430 23.178047
v -12.432602 15.310852 23.178047
v -13.252365 14.763115 23.178047
v -13.800095 13.943359 23.178047
v -15.104294 14.631218 26.641602
v -15.104294 14.242958 26.060501
v -15.104294 13.661858 25.672226
v -15.104294 12.976395 25.535873
v -15.104294 14.767570 27.327057
v -15.104294 11.321571 28.012497
v -15.104294 11.709846 28.593597
v -15.104294 12.290932 28.981873
v -15.104294 12.976395 29.118225
v -15.104294 11.185219 27.327057
v -15.104294 11.321571 26.641602
v -15.104294 11.709846 26.060501
v -15.104294 12.290932 25.672226
v -15.104294 14.631218 28.012497
v -15.104294 14.242958 28.593597
v -15.104294 13.661858 28.981873
v -8.925491 14.631218 26.641602
v -8.925491 14.242958 26.060501
v -8.925491 13.661858 25.672226
v -8.925491 12.976395 25.535873
v -8.925491 14.767570 27.327057
v -8.925491 11.321571 28.012497
v -8.925491 11.709846 28.593597
v -8.925491 12.290947 28.981873
v -8.925491 12.976395 29.118225
v -8.925491 11.185219 27.327057
v -8.925491 11.321571 26.641602
v -8.925491 11.709846 26.060501
v -8.925491 12.290947 25.672226
v -8.925491 14.631218 28.012497
v -8.925491 14.242958 28.593597
v -8.925491 13.661858 28.981873
v -10.600464 13.841591 23.123672
v -10.242096 12.976395 23.123672
v -11.465652 14.199959 23.123672
v -12.330841 12.111206 23.123672
v -12.689209 12.976395 23.123672
v -11.465652 11.752831 23.123672
v -10.600464 12.111206 23.123672
v -12.330841 13.841591 23.123672
v -10.600464 13.841591 26.669952
v -10.242096 12.976395 26.669952
v -11.465652 14.199959 26.669952
v -12.330841 12.111206 26.669952
v -12.689209 12.976395 26.669952
v -11.465652 11.752831 26.669952
v -10.600464 12.111206 26.669952
v -12.330841 13.841591 26.669952
v 10.225433 15.310852 23.178047
v 9.405685 14.763115 23.178047
v 8.857941 13.943359 23.178047
v 8.665604 12.976395 23.178047
v 11.192398 15.503189 23.178047
v 12.159348 10.641937 23.178047
v 12.979111 11.189674 23.178047
v 13.526840 12.009430 23.178047
v 13.719193 12.976395 23.178047
v 11.192398 10.449600 23.178047
v 10.225433 10.641937 23.178047
v 9.405685 11.189674 23.178047
v 8.857941 12.009430 23.178047
v 12.159348 15.310852 23.178047
v 12.979111 14.763115 23.178047
v 13.526840 13.943359 23.178047
v 10.225433 15.310852 22.376892
v 9.405685 14.763115 22.376892
v 8.857941 13.943359 22.376892
v 8.665604 12.976395 22.376892
v 11.192398 15.503189 22.376892
v 12.159348 10.641937 22.376892
v 12.979111 11.189674 22.376892
v 13.526840 12.009430 22.376892
v 13.719193 12.976395 22.376892
v 11.192398 10.449600 22.376892
v 10.225433 10.641937 22.376892
v 9.405685 11.189674 22.376892
v 8.857941 12.009430 22.376892
v 12.159348 15.310852 22.376892
v 12.979111 14.763115 22.376892
v 13.526840 13.943359 22.376892
v 14.831039 14.631218 26.641602
v 14.831039 14.242958 26.060501
v 14.831039 13.661858 25.672226
v 14.831039 12.976395 25.535873
v 14.831039 14.767570 27.327057
v 14.831039 11.321571 28.012497
v 14.831039 11.709846 28.593597
v 14.831039 12.290932 28.981873
v 14.831039 12.976395 29.118225
v 14.831039 11.185219 27.327057
v 14.831039 11.321571 26.641602
v 14.831039 11.709846 26.060501
v 14.831039 12.290932 25.672226
v 14.831039 14.631218 28.012497
v 14.831039 14.242958 28.593597
v 14.831039 13.661858 28.981873
v 8.652237 14.631218 26.641602
v 8.652237 14.242958 26.060501
v 8.652237 13.661858 25.672226
v 8.652237 12.976395 25.535873
v 8.652237 14.767570 27.327057
v 8.652237 11.321571 28.012497
v 8.652237 11.709846 28.593597
v 8.652237 12.290947 28.981873
v 8.652237 12.976395 29.118225
v 8.652237 11.185219 27.327057
v 8.652237 11.321571 26.641602
v 8.652237 11.709846 26.060501
v 8.652237 12.290947 25.672226
v 8.652237 14.631218 28.012497
v 8.652237 14.242958 28.593597
v 8.652237 13.661858 28.981873
vt 0.894131 0.218739
vt 0.835925 0.218739
vt 0.835925 0.001953
vt 0.894131 0.001953
vt 0.659718 0.454902
vt 0.770539 0.454902
vt 0.659718 0.667203
vt 0.770539 0.667203
vt 0.224755 0.621729
vt 0.221391 0.618365
vt 0.430327 0.621729
vt 0.433691 0.618365
vt 0.224755 0.725821
vt 0.221391 0.729186
vt 0.430327 0.725821
vt 0.433691 0.729186
vt 0.890647 0.618934
vt 0.940782 0.618934
vt 0.890647 0.824506
vt 0.940782 0.824506
vt 0.106045 0.848474
vt 0.106045 0.898609
vt 0.001953 0.848474
vt 0.001953 0.898609
vt 0.944612 0.428707
vt 0.894478 0.428707
vt 0.944612 0.223134
vt 0.894478 0.223134
vt 0.110851 0.848474
vt 0.214943 0.848474
vt 0.110851 0.898609
vt 0.214943 0.898609
vt 0.643664 0.738008
vt 0.438092 0.738008
vt 0.643664 0.633916
vt 0.438092 0.633916
vt 0.816865 0.791484
vt 0.816865 0.902305
vt 0.763144 0.791484
vt 0.763144 0.902305
vt 0.889646 0.223134
vt 0.889646 0.435435
vt 0.835925 0.223134
vt 0.835925 0.435435
vt 0.710344 0.872225
vt 0.599523 0.872225
vt 0.710344 0.818505
vt 0.599523 0.818505
vt 0.478636 0.166041
vt 0.470378 0.166041
vt 0.478636 0.033058
vt 0.470378 0.033058
vt 0.985461 0.253530
vt 0.990132 0.211629
vt 0.985461 0.386513
vt 0.990132 0.428414
vt 0.627072 0.742403
vt 0.627072 0.745829
vt 0.580371 0.742403
vt 0.580371 0.745829
vt 0.580371 0.777115
vt 0.580371 0.773689
vt 0.619222 0.777115
vt 0.619222 0.773689
vt 0.421675 0.175842
vt 0.421675 0.172415
vt 0.437901 0.175842
vt 0.437901 0.172415
vt 0.491720 0.204193
vt 0.495147 0.204193
vt 0.491720 0.212451
vt 0.495147 0.212451
vt 0.187878 0.797379
vt 0.195728 0.797379
vt 0.187878 0.836230
vt 0.195728 0.844079
vt 0.985461 0.416909
vt 0.985461 0.409059
vt 0.985461 0.394481
vt 0.982034 0.394481
vt 0.982034 0.386513
vt 0.533309 0.025126
vt 0.533309 0.017158
vt 0.541567 0.025126
vt 0.549535 0.017158
vt 0.990933 0.195728
vt 0.987506 0.195728
vt 0.990933 0.001953
vt 0.987506 0.001953
vt 0.001953 0.844079
vt 0.009803 0.836230
vt 0.502665 0.211131
vt 0.502665 0.033058
vt 0.506091 0.211131
vt 0.506091 0.033058
vt 0.163460 0.821101
vt 0.163460 0.824527
vt 0.014539 0.821101
vt 0.014539 0.824527
vt 0.549535 0.166078
vt 0.541567 0.158110
vt 0.468737 0.888933
vt 0.468737 0.885506
vt 0.601721 0.888933
vt 0.601721 0.885506
vt 0.827716 0.630439
vt 0.827716 0.618934
vt 0.874417 0.630439
vt 0.885923 0.618934
vt 0.885923 0.835720
vt 0.874417 0.824215
vt 0.594949 0.830335
vt 0.580371 0.830335
vt 0.594949 0.814110
vt 0.580371 0.791484
vt 0.758446 0.791484
vt 0.743868 0.814110
vt 0.982034 0.416909
vt 0.982034 0.409059
vt 0.985461 0.428414
vt 0.326659 0.682867
vt 0.268452 0.682867
vt 0.326659 0.678196
vt 0.268452 0.678196
vt 0.989988 0.870776
vt 0.985317 0.870776
vt 0.989988 0.653990
vt 0.985317 0.653990
vt 0.928549 0.605005
vt 0.925123 0.605005
vt 0.928549 0.558304
vt 0.925123 0.558304
vt 0.911442 0.612826
vt 0.911442 0.609400
vt 0.927668 0.612826
vt 0.927668 0.609400
vt 0.827716 0.824215
vt 0.827716 0.835720
vt 0.001953 0.797379
vt 0.009803 0.797379
vt 0.754386 0.439920
vt 0.754386 0.443347
vt 0.715535 0.439920
vt 0.715535 0.443347
vt 0.533309 0.166078
vt 0.533309 0.158110
vt 0.229599 0.704581
vt 0.229599 0.701154
vt 0.237857 0.704581
vt 0.237857 0.701154
vt 0.743868 0.830335
vt 0.758446 0.830335
vt 0.982034 0.245562
vt 0.985461 0.245562
vt 0.982034 0.253530
vt 0.985461 0.230984
vt 0.985461 0.223134
vt 0.982034 0.223134
vt 0.982034 0.230984
vt 0.985461 0.211629
vt 0.879902 0.881638
vt 0.821697 0.881638
vt 0.879902 0.876967
vt 0.821697 0.876967
vt 0.384464 0.150294
vt 0.392417 0.150294
vt 0.384464 0.148193
vt 0.392417 0.148193
vt 0.384464 0.152394
vt 0.392417 0.152394
vt 0.384464 0.154494
vt 0.392417 0.154494
vt 0.384464 0.156594
vt 0.392417 0.156594
vt 0.384464 0.158695
vt 0.392417 0.158695
vt 0.384464 0.160795
vt 0.392417 0.160795
vt 0.384464 0.146093
vt 0.392417 0.146093
vt 0.384464 0.143993
vt 0.392417 0.143993
vt 0.486268 0.375786
vt 0.486268 0.415209
vt 0.487490 0.375786
vt 0.487490 0.415209
vt 0.488712 0.375786
vt 0.488712 0.415209
vt 0.489934 0.375786
vt 0.489934 0.415209
vt 0.476490 0.375786
vt 0.476489 0.415209
vt 0.477712 0.375786
vt 0.477712 0.415209
vt 0.478934 0.375786
vt 0.478934 0.415209
vt 0.480156 0.375786
vt 0.480156 0.415209
vt 0.485045 0.415209
vt 0.485045 0.375786
vt 0.475267 0.415209
vt 0.475267 0.375786
vt 0.474045 0.415209
vt 0.474045 0.375786
vt 0.472823 0.415209
vt 0.472823 0.375786
vt 0.471600 0.415209
vt 0.471600 0.375786
vt 0.470378 0.415209
vt 0.470378 0.375786
vt 0.483823 0.415209
vt 0.483823 0.375786
vt 0.482601 0.415209
vt 0.482601 0.375786
vt 0.481378 0.415209
vt 0.481379 0.375786
vt 0.829739 0.699050
vt 0.829739 0.697668
vt 0.827716 0.699050
vt 0.827716 0.697668
vt 0.829739 0.695598
vt 0.827716 0.695598
vt 0.829739 0.693157
vt 0.827716 0.693157
vt 0.827716 0.671082
vt 0.827716 0.672465
vt 0.829739 0.671082
vt 0.829739 0.672465
vt 0.827716 0.674534
vt 0.829739 0.674534
vt 0.827716 0.676975
vt 0.829739 0.676975
vt 0.404337 0.074454
vt 0.404337 0.072264
vt 0.402522 0.074454
vt 0.402522 0.072264
vt 0.402522 0.052526
vt 0.402522 0.054715
vt 0.404337 0.052526
vt 0.404337 0.054715
vt 0.829739 0.688646
vt 0.829739 0.687264
vt 0.827716 0.688646
vt 0.827716 0.687264
vt 0.829739 0.690716
vt 0.827716 0.690716
vt 0.404337 0.056905
vt 0.402522 0.056905
vt 0.827716 0.681486
vt 0.827716 0.682869
vt 0.829739 0.681486
vt 0.829739 0.682869
vt 0.827716 0.679416
vt 0.829739 0.679416
vt 0.402522 0.070075
vt 0.404337 0.070075
vt 0.906907 0.607258
vt 0.906475 0.605090
vt 0.906475 0.609427
vt 0.905247 0.611265
vt 0.903408 0.612494
vt 0.901240 0.612925
vt 0.899071 0.612494
vt 0.897232 0.611265
vt 0.896004 0.609427
vt 0.895572 0.607258
vt 0.896004 0.605090
vt 0.897232 0.603251
vt 0.899071 0.602023
vt 0.901240 0.601591
vt 0.903408 0.602023
vt 0.905247 0.603251
vt 0.209110 0.815362
vt 0.209981 0.816665
vt 0.208804 0.813825
vt 0.209110 0.812287
vt 0.209981 0.810984
vt 0.211284 0.810113
vt 0.212822 0.809807
vt 0.214359 0.810113
vt 0.215662 0.810984
vt 0.216533 0.812287
vt 0.216839 0.813825
vt 0.216533 0.815362
vt 0.215662 0.816665
vt 0.214359 0.817536
vt 0.212822 0.817842
vt 0.211284 0.817536
vt 0.542918 0.227752
vt 0.542612 0.229289
vt 0.543789 0.226449
vt 0.545092 0.225578
vt 0.546629 0.225272
vt 0.548167 0.225578
vt 0.549470 0.226449
vt 0.550340 0.227752
vt 0.550646 0.229289
vt 0.550340 0.230827
vt 0.549470 0.232130
vt 0.548167 0.233001
vt 0.546629 0.233307
vt 0.545092 0.233001
vt 0.543789 0.232130
vt 0.542918 0.230827
vt 0.931818 0.090657
vt 0.933386 0.090657
vt 0.931818 0.076799
vt 0.933386 0.076799
vt 0.934954 0.090657
vt 0.934954 0.076799
vt 0.936521 0.090657
vt 0.936521 0.076799
vt 0.919279 0.090657
vt 0.920847 0.090657
vt 0.919279 0.076799
vt 0.920847 0.076799
vt 0.922414 0.090657
vt 0.922414 0.076799
vt 0.923981 0.090657
vt 0.923981 0.076799
vt 0.930251 0.076799
vt 0.930251 0.090657
vt 0.917712 0.076799
vt 0.917712 0.090657
vt 0.916144 0.076799
vt 0.914577 0.076799
vt 0.916144 0.090657
vt 0.914577 0.090657
vt 0.913009 0.076799
vt 0.913009 0.090657
vt 0.911442 0.076799
vt 0.911442 0.090657
vt 0.928684 0.076799
vt 0.927116 0.076799
vt 0.928684 0.090657
vt 0.927116 0.090657
vt 0.925549 0.076799
vt 0.925549 0.090657
vt 0.476679 0.204193
vt 0.474579 0.204193
vt 0.476679 0.212147
vt 0.474579 0.212147
vt 0.478779 0.204193
vt 0.478779 0.212147
vt 0.480880 0.204193
vt 0.480880 0.212147
vt 0.482980 0.204193
vt 0.482980 0.212147
vt 0.485080 0.204193
vt 0.485080 0.212147
vt 0.487181 0.204193
vt 0.487181 0.212147
vt 0.472479 0.204193
vt 0.470378 0.204193
vt 0.472479 0.212147
vt 0.470378 0.212147
vt 0.634935 0.763713
vt 0.634504 0.761544
vt 0.634504 0.765882
vt 0.633276 0.767720
vt 0.631437 0.768948
vt 0.629269 0.769380
vt 0.627100 0.768948
vt 0.625261 0.767720
vt 0.624033 0.765882
vt 0.623601 0.763713
vt 0.624033 0.761544
vt 0.625261 0.759706
vt 0.627100 0.758477
vt 0.629269 0.758046
vt 0.631437 0.758477
vt 0.633276 0.759706
vt 0.312978 0.162966
vt 0.312978 0.164762
vt 0.315189 0.162966
vt 0.315189 0.164762
vt 0.317400 0.162966
vt 0.317400 0.164762
vt 0.319611 0.162966
vt 0.319611 0.164762
vt 0.295288 0.162966
vt 0.295288 0.164762
vt 0.297499 0.162966
vt 0.297499 0.164762
vt 0.299711 0.162966
vt 0.299711 0.164762
vt 0.301922 0.162966
vt 0.301922 0.164762
vt 0.310766 0.164762
vt 0.310766 0.162966
vt 0.293077 0.164762
vt 0.293077 0.162966
vt 0.324033 0.162966
vt 0.324033 0.164762
vt 0.326244 0.162966
vt 0.326244 0.164762
vt 0.321822 0.162966
vt 0.321822 0.164762
vt 0.328456 0.162966
vt 0.328456 0.164762
vt 0.306344 0.162966
vt 0.306344 0.164762
vt 0.308555 0.162966
vt 0.308555 0.164762
vt 0.304133 0.162966
vt 0.304133 0.164762
vt 0.804733 0.623636
vt 0.818591 0.623636
vt 0.804733 0.622069
vt 0.818591 0.622069
vt 0.804733 0.620501
vt 0.818591 0.620501
vt 0.804733 0.618934
vt 0.818591 0.618934
vt 0.804733 0.636175
vt 0.818591 0.636175
vt 0.804733 0.634608
vt 0.818591 0.634608
vt 0.804733 0.633041
vt 0.818591 0.633041
vt 0.804733 0.631473
vt 0.818591 0.631473
vt 0.818591 0.625203
vt 0.804733 0.625204
vt 0.818591 0.637743
vt 0.804733 0.637743
vt 0.818591 0.639310
vt 0.804733 0.639310
vt 0.818591 0.640878
vt 0.804733 0.640878
vt 0.818591 0.642445
vt 0.804733 0.642445
vt 0.818591 0.644013
vt 0.804733 0.644013
vt 0.818591 0.626771
vt 0.804733 0.626771
vt 0.818591 0.628338
vt 0.804733 0.628338
vt 0.818591 0.629906
vt 0.804733 0.629906
vt 0.148130 0.802933
vt 0.148436 0.801396
vt 0.147259 0.804236
vt 0.145956 0.805107
vt 0.144418 0.805413
vt 0.142881 0.805107
vt 0.141578 0.804236
vt 0.140707 0.802933
vt 0.140401 0.801396
vt 0.140707 0.799859
vt 0.141578 0.798555
vt 0.142881 0.797684
vt 0.144418 0.797378
vt 0.145956 0.797684
vt 0.147259 0.798555
vt 0.148130 0.799859
vt 0.215986 0.837145
vt 0.215115 0.835842
vt 0.216292 0.838683
vt 0.215986 0.840220
vt 0.215115 0.841523
vt 0.213812 0.842394
vt 0.212274 0.842700
vt 0.210737 0.842394
vt 0.209434 0.841523
vt 0.208563 0.840220
vt 0.208257 0.838683
vt 0.208563 0.837145
vt 0.209434 0.835842
vt 0.210737 0.834971
vt 0.212274 0.834665
vt 0.213812 0.834971
vn 0.000000 0.000000 -1.000000
vn 0.000000 0.000000 -1.000000
vn 0.000000 0.000000 -1.000000
vn 0.000000 0.000000 -1.000000
vn 0.000000 0.000000 -1.000000
vn 0.000000 0.000000 -1.000000
vn 0.000000 -1.000000 0.000000
vn 0.000000 -1.000000 0.000000
vn 0.000000 -1.000000 0.000000
vn 0.000000 -1.000000 0.000000
vn 0.000000 -1.000000 0.000000
vn 0.000000 -1.000000 0.000000
vn 0.000000 1.000000 0.000000
vn 0.000000 1.000000 -0.000000
vn 0.000000 1.000000 -0.000000
vn 0.000000 1.000000 -0.000000
vn 0.000000 1.000000 -0.000000
vn 0.000000 1.000000 -0.000000
vn 0.000000 1.000000 0.000000
vn 0.000000 1.000000 0.000000
vn 0.000000 1.000000 0.000000
vn 0.000000 1.000000 0.000000
vn 0.000000 1.000000 0.000000
vn 0.000000 1.000000 -0.000000
vn 0.000000 1.000000 -0.000000
vn 0.000000 1.000000 -0.000000
vn 0.000000 1.000000 0.000000
vn 0.000000 1.000000 0.000000
vn 0.000000 1.000000 -0.000000
vn 0.000000 1.000000 0.000000
vn 0.000000 1.000000 0.000000
vn 0.000000 1.000000 0.000000
vn 0.000000 1.000000 0.000000
vn 0.000000 1.000000 0.000000
vn 0.000000 1.000000 0.000000
vn 0.000000 1.000000 0.000000
vn 0.000000 0.000000 -1.000000
vn 0.000000 0.000000 -1.000000
vn 0.000000 0.000000 -1.000000
vn 0.000000 0.000000 -1.000000
vn 0.000000 0.000000 -1.000000
vn 0.000000 0.000000 -1.000000
vn 1.000000 0.000000 0.000000
vn 1.000000 0.000000 0.000000
vn 1.000000 0.000000 0.000000
vn 1.000000 0.000000 0.000000
vn 1.000000 0.000000 0.000000
vn 1.000000 0.000000 0.000000
vn -0.000000 0.000000 1.000000
vn -0.000000 0.000000 1.000000
vn -0.000000 0.000000 1.000000
vn -0.000000 0.000000 1.000000
vn -0.000000 0.000000 1.000000
vn 0.000000 0.000000 1.000000
vn -1.000000 0.000000 0.000000
vn -1.000000 0.000000 0.000000
vn -1.000000 0.000000 0.000000
vn -1.000000 0.000000 0.000000
vn -1.000000 0.000000 0.000000
vn -1.000000 0.000000 0.000000
vn -0.000000 1.000000 0.000000
vn -0.000000 1.000000 0.000000
vn -0.000000 1.000000 0.000000
vn -0.000000 1.000000 0.000000
vn -0.000000 1.000000 0.000000
vn 0.000000 1.000000 0.000000
vn 1.000000 0.000000 0.000000
vn 1.000000 0.000000 0.000000
vn 1.000000 0.000000 0.000000
vn 1.000000 0.000000 0.000000
vn 1.000000 0.000000 0.000000
vn 1.000000 0.000000 0.000000
vn 0.000000 0.000000 -1.000000
vn 0.000000 0.000000 -1.000000
vn 0.000000 0.000000 -1.000000
vn 0.000000 0.000000 -1.000000
vn 0.000000 0.000000 -1.000000
vn 0.000000 0.000000 -1.000000
vn -1.000000 0.000000 0.000000
vn -1.000000 0.000000 0.000000
vn -1.000000 0.000000 0.000000
vn -1.000000 0.000000 0.000000
vn -1.000000 0.000000 0.000000
vn -1.000000 0.000000 0.000000
vn 0.000000 0.000000 1.000000
vn 0.000000 0.000000 1.000000
vn 0.000000 0.000000 1.000000
vn 0.000000 0.000000 1.000000
vn 0.000000 0.000000 1.000000
vn 0.000000 0.000000 1.000000
vn 0.000000 -1.000000 -0.000000
vn -0.000000 -1.000000 0.000000
vn -0.000000 -1.000000 -0.000000
vn -0.000000 -1.000000 -0.000000
vn -0.000000 -1.000000 0.000000
vn 0.000000 -1.000000 0.000000
vn 1.000000 0.000000 0.000000
vn 1.000000 0.000000 0.000000
vn 1.000000 0.000000 0.000000
vn 1.000000 0.000000 0.000000
vn 1.000000 0.000000 0.000000
vn 1.000000 0.000000 0.000000
vn -1.000000 0.000000 0.000000
vn -1.000000 0.000000 0.000000
vn -1.000000 0.000000 0.000000
vn -1.000000 0.000000 0.000000
vn -1.000000 0.000000 0.000000
vn -1.000000 0.000000 0.000000
vn 1.000000 0.000000 0.000000
vn 1.000000 0.000000 0.000000
vn 1.000000 0.000000 0.000000
vn 1.000000 0.000000 0.000000
vn 1.000000 0.000000 0.000000
vn 1.000000 0.000000 0.000000
vn -1.000000 0.000000 0.000000
vn -1.000000 0.000000 0.000000
vn -1.000000 0.000000 0.000000
vn -1.000000 0.000000 0.000000
vn -1.000000 0.000000 0.000000
vn -1.000000 0.000000 0.000000
vn 0.000000 0.000000 1.000000
vn 0.000000 0.000000 1.000000
vn 0.000000 0.000000 1.000000
vn 0.000000 0.000000 1.000000
vn 0.000000 0.000000 1.000000
vn 0.000000 0.000000 1.000000
vn 0.000000 -1.000000 0.000000
vn 0.000000 -1.000000 0.000000
vn 0.000000 -1.000000 0.000002
vn -0.000001 -1.000000 -0.000006
vn -0.000000 -1.000000 -0.000000
vn 0.000000 -1.000000 0.000000
vn -0.000001 -1.000000 0.000000
vn -0.000001 -1.000000 0.000000
vn -0.000001 -1.000000 -0.000006
vn -0.000001 -1.000000 -0.000006
vn -0.000001 -1.000000 0.000000
vn -0.000000 -1.000000 -0.000000
vn 0.000000 0.000000 1.000000
vn -0.000000 0.000000 1.000000
vn -0.000000 0.000000 1.000000
vn -0.000000 0.000000 1.000000
vn -0.000000 0.000000 1.000000
vn -0.000000 0.000000 1.000000
vn 0.000000 1.000000 0.000000
vn 0.000000 1.000000 0.000000
vn 0.000000 1.000000 0.000000
vn 0.000000 1.000000 0.000000
vn 0.000000 1.000000 0.000000
vn 0.000000 1.000000 0.000000
vn -0.000000 0.000000 1.000000
vn -0.000000 0.000000 1.000000
vn 0.000000 0.000000 1.000000
vn 0.000000 0.000000 1.000000
vn -0.000000 0.000000 1.000000
vn 0.000000 0.000000 1.000000
vn 0.000000 -1.000000 0.000000
vn 0.000000 -1.000000 0.000000
vn 0.000000 -1.000000 0.000000
vn 0.000000 -1.000000 0.000000
vn 0.000000 -1.000000 0.000000
vn 0.000000 -1.000000 0.000000
vn 0.000000 1.000000 0.000000
vn 0.000000 1.000000 0.000000
vn 0.000000 1.000000 0.000000
vn 0.000000 1.000000 0.000000
vn 0.000000 1.000000 0.000000
vn 0.000000 1.000000 0.000000
vn 0.000000 0.000000 1.000000
vn 0.000000 0.000000 1.000000
vn -0.000000 0.000000 1.000000
vn -0.000000 0.000000 1.000000
vn 0.000000 0.000000 1.000000
vn -0.000000 0.000000 1.000000
vn 0.000000 -1.000000 0.000000
vn 0.000000 -1.000000 0.000000
vn 0.000000 -1.000000 0.000000
vn 0.000000 -1.000000 0.000000
vn 0.000000 -1.000000 0.000000
vn 0.000000 -1.000000 0.000000
vn 0.000000 0.000000 1.000000
vn 0.000000 0.000000 1.000000
vn 0.000000 0.000000 1.000000
vn 0.000000 0.000000 1.000000
vn 0.000000 0.000000 1.000000
vn 0.000000 0.000000 1.000000
vn 0.000000 0.000000 1.000000
vn 0.000000 0.000000 1.000000
vn 0.000000 0.000000 1.000000
vn 0.000000 0.000000 1.000000
vn 0.000000 0.000000 1.000000
vn 0.000000 0.000000 1.000000
vn 0.000000 -1.000000 0.000002
vn -0.000001 -1.000000 -0.000006
vn 0.000000 -1.000000 0.000000
vn -0.000001 0.000000 1.000000
vn -0.000000 0.000000 1.000000
vn -0.000000 0.000000 1.000000
vn -0.000000 0.000000 1.000000
vn -0.000000 0.000000 1.000000
vn 0.000000 0.000000 1.000000
vn 0.000000 0.000000 1.000000
vn 0.000000 0.000000 1.000000
vn 0.000000 0.000000 1.000000
vn 0.000000 0.000000 1.000000
vn 0.000000 0.000000 1.000000
vn -0.000000 0.000000 1.000000
vn 0.000000 -1.000000 0.000000
vn 0.000000 -1.000000 0.000000
vn 0.000000 -1.000000 0.000002
vn 0.000000 -1.000000 0.000002
vn 0.000000 -1.000000 0.000000
vn 0.000000 -1.000000 0.000000
vn 0.000000 -1.000000 0.000000
vn 0.000000 -1.000000 0.000000
vn 0.000000 -1.000000 0.000000
vn 1.000000 0.000000 0.000000
vn 1.000000 0.000000 0.000000
vn 1.000000 0.000000 0.000000
vn 1.000000 0.000000 0.000000
vn 1.000000 0.000000 0.000000
vn 1.000000 0.000000 0.000000
vn 0.000000 1.000000 0.000000
vn 0.000000 1.000000 0.000000
vn 0.000000 1.000000 0.000000
vn 0.000000 1.000000 0.000000
vn 0.000000 1.000000 0.000000
vn 0.000000 1.000000 0.000000
vn -1.000000 -0.000000 0.000000
vn -1.000000 -0.000000 0.000000
vn -1.000000 -0.000000 0.000000
vn -1.000000 -0.000000 0.000000
vn -1.000000 -0.000000 0.000000
vn -1.000000 -0.000000 0.000000
vn -1.000000 0.000000 0.000000
vn -1.000000 0.000000 0.000000
vn -1.000000 0.000000 0.000000
vn -1.000000 0.000000 0.000000
vn -1.000000 0.000000 0.000000
vn -1.000000 0.000000 0.000000
vn 0.000000 0.000000 1.000000
vn 0.000000 0.000000 1.000000
vn 0.000000 0.000000 1.000000
vn 0.000000 0.000000 1.000000
vn 0.000000 0.000000 1.000000
vn 0.000000 0.000000 1.000000
vn -0.000000 0.000000 1.000000
vn -0.000000 0.000000 1.000000
vn -0.000000 0.000000 1.000000
vn -0.000000 0.000000 1.000000
vn -0.000000 0.000000 1.000000
vn 0.000000 0.000000 1.000000
vn 1.000000 0.000000 0.000000
vn 1.000000 0.000000 0.000000
vn 1.000000 0.000000 0.000000
vn 1.000000 0.000000 0.000000
vn 1.000000 0.000000 0.000000
vn 1.000000 0.000000 0.000000
vn 0.000000 0.000000 1.000000
vn 0.000000 0.000000 1.000000
vn 0.000000 0.000000 1.000000
vn 0.000000 0.000000 1.000000
vn 0.000000 0.000000 1.000000
vn 0.000000 0.000000 1.000000
vn 1.000000 0.000000 0.000000
vn 1.000000 0.000000 0.000000
vn 1.000000 0.000000 0.000000
vn 1.000000 0.000000 0.000000
vn 1.000000 0.000000 0.000000
vn 1.000000 0.000000 0.000000
vn 0.000000 0.000000 1.000000
vn 0.000000 0.000000 1.000000
vn 0.000000 0.000000 1.000000
vn 0.000000 0.000000 1.000000
vn 0.000000 0.000000 1.000000
vn 0.000000 0.000000 1.000000
vn 0.000001 -1.000000 0.000000
vn 0.000001 -1.000000 -0.000006
vn 0.000001 -1.000000 0.000000
vn 0.000001 -1.000000 0.000000
vn 0.000001 -1.000000 -0.000006
vn 0.000000 -1.000000 -0.000000
vn 0.000001 -1.000000 -0.000006
vn -0.000000 -1.000000 0.000002
vn -0.000000 -1.000000 0.000000
vn 0.000000 -1.000000 -0.000000
vn 0.000001 -1.000000 -0.000006
vn -0.000000 -1.000000 0.000000
vn 0.000000 -1.000000 0.000000
vn -0.000000 -1.000000 0.000002
vn 0.000000 -1.000000 0.000000
vn 0.000000 -1.000000 0.000000
vn -0.000000 -1.000000 0.000002
vn 0.000000 -1.000000 0.000000
vn -0.000000 -1.000000 0.000000
vn -0.000000 -1.000000 0.000002
vn 0.000000 -1.000000 0.000000
vn 0.000000 -1.000000 0.000000
vn 0.000000 -1.000000 0.000000
vn -0.000000 -1.000000 0.000000
vn -1.000000 0.000000 0.000000
vn -1.000000 0.000000 0.000000
vn -1.000000 0.000000 0.000000
vn -1.000000 0.000000 0.000000
vn -1.000000 0.000000 0.000000
vn -1.000000 0.000000 0.000000
vn 0.707109 0.707104 0.000000
vn 0.707109 0.707105 0.000000
vn 1.000000 0.000001 0.000000
vn 0.707109 0.707105 0.000000
vn 1.000000 -0.000001 0.000000
vn 1.000000 0.000001 0.000000
vn 0.000000 1.000000 0.000000
vn 0.000000 1.000000 0.000000
vn 0.707109 0.707104 0.000000
vn 0.000000 1.000000 0.000000
vn 0.707109 0.707105 0.000000
vn 0.707109 0.707104 0.000000
vn -0.707109 0.707104 0.000000
vn -0.707109 0.707105 0.000000
vn 0.000000 1.000000 0.000000
vn -0.707109 0.707105 0.000000
vn 0.000000 1.000000 0.000000
vn 0.000000 1.000000 0.000000
vn -1.000000 0.000000 0.000000
vn -1.000000 0.000000 0.000000
vn -0.707109 0.707104 0.000000
vn -1.000000 0.000000 0.000000
vn -0.707109 0.707105 0.000000
vn -0.707109 0.707104 0.000000
vn -0.707109 -0.707105 0.000000
vn -0.707109 -0.707105 0.000000
vn -1.000000 0.000000 0.000000
vn -0.707109 -0.707105 0.000000
vn -1.000000 0.000000 0.000000
vn -1.000000 0.000000 0.000000
vn -0.000000 -1.000000 0.000000
vn -0.000000 -1.000000 0.000000
vn -0.707109 -0.707105 0.000000
vn -0.000000 -1.000000 0.000000
vn -0.707109 -0.707105 0.000000
vn -0.707109 -0.707105 0.000000
vn 0.707109 -0.707105 0.000000
vn 0.707109 -0.707105 0.000000
vn -0.000000 -1.000000 0.000000
vn 0.707109 -0.707105 0.000000
vn -0.000000 -1.000000 0.000000
vn -0.000000 -1.000000 0.000000
vn 1.000000 0.000001 0.000000
vn 1.000000 -0.000001 0.000000
vn 0.707109 -0.707105 0.000000
vn 1.000000 -0.000001 0.000000
vn 0.707109 -0.707105 0.000000
vn 0.707109 -0.707105 0.000000
vn 0.000000 0.923881 -0.382679
vn 0.000000 0.923882 -0.382678
vn 0.000000 0.707114 -0.707100
vn 0.000000 0.923882 -0.382678
vn 0.000000 0.707114 -0.707100
vn 0.000000 0.707114 -0.707100
vn 0.000000 0.707114 -0.707100
vn 0.000000 0.707114 -0.707100
vn 0.000000 0.382689 -0.923877
vn 0.000000 0.707114 -0.707100
vn 0.000000 0.382688 -0.923878
vn 0.000000 0.382689 -0.923877
vn 0.000000 0.382689 -0.923877
vn 0.000000 0.382688 -0.923878
vn 0.000000 0.000000 -1.000000
vn 0.000000 0.382688 -0.923878
vn -0.000000 -0.000000 -1.000000
vn 0.000000 0.000000 -1.000000
vn 0.000000 -0.923877 0.382690
vn 0.000000 -0.923877 0.382690
vn 0.000000 -0.707106 0.707107
vn 0.000000 -0.923877 0.382690
vn -0.000000 -0.707114 0.707099
vn 0.000000 -0.707106 0.707107
vn 0.000000 -0.707106 0.707107
vn -0.000000 -0.707114 0.707099
vn -0.000000 -0.382693 0.923876
vn -0.000000 -0.707114 0.707099
vn -0.000000 -0.382694 0.923875
vn -0.000000 -0.382693 0.923876
vn -0.000000 -0.382693 0.923876
vn -0.000000 -0.382694 0.923875
vn -0.000000 0.000000 1.000000
vn -0.000000 -0.382694 0.923875
vn 0.000000 -0.000000 1.000000
vn -0.000000 0.000000 1.000000
vn 0.000000 0.923882 -0.382678
vn 0.000000 0.923881 -0.382679
vn 0.000000 1.000000 -0.000000
vn 0.000000 0.923881 -0.382679
vn 0.000000 1.000000 0.000000
vn 0.000000 1.000000 -0.000000
vn 0.000000 -0.923877 0.382690
vn 0.000000 -0.923877 0.382690
vn 0.000000 -1.000000 0.000000
vn 0.000000 -0.923877 0.382690
vn 0.000000 -1.000000 0.000000
vn 0.000000 -1.000000 0.000000
vn 0.000000 -0.923879 -0.382685
vn 0.000000 -0.923879 -0.382685
vn 0.000000 -0.707114 -0.707100
vn 0.000000 -0.923879 -0.382685
vn -0.000000 -0.707107 -0.707106
vn 0.000000 -0.707114 -0.707100
vn 0.000000 -0.707114 -0.707100
vn -0.000000 -0.707107 -0.707106
vn -0.000000 -0.382693 -0.923876
vn -0.000000 -0.707107 -0.707106
vn -0.000000 -0.382694 -0.923875
vn -0.000000 -0.382693 -0.923876
vn -0.000000 -0.382693 -0.923876
vn -0.000000 -0.382694 -0.923875
vn -0.000000 -0.000000 -1.000000
vn -0.000000 -0.382694 -0.923875
vn 0.000000 0.000000 -1.000000
vn -0.000000 -0.000000 -1.000000
vn 0.000000 -0.923879 -0.382685
vn 0.000000 -0.923879 -0.382685
vn 0.000000 -1.000000 0.000000
vn 0.000000 -0.923879 -0.382685
vn 0.000000 -1.000000 0.000000
vn 0.000000 -1.000000 0.000000
vn 0.000000 0.923879 0.382684
vn 0.000000 0.923880 0.382683
vn 0.000000 0.707114 0.707100
vn 0.000000 0.923880 0.382683
vn 0.000000 0.707114 0.707100
vn 0.000000 0.707114 0.707100
vn 0.000000 0.707114 0.707100
vn 0.000000 0.707114 0.707100
vn 0.000000 0.382689 0.923877
vn 0.000000 0.707114 0.707100
vn 0.000000 0.382688 0.923878
vn 0.000000 0.382689 0.923877
vn 0.000000 0.382689 0.923877
vn 0.000000 0.382688 0.923878
vn 0.000000 -0.000000 1.000000
vn 0.000000 0.382688 0.923878
vn -0.000000 0.000000 1.000000
vn 0.000000 -0.000000 1.000000
vn 0.000000 0.923880 0.382683
vn 0.000000 0.923879 0.382684
vn 0.000000 1.000000 0.000000
vn 0.000000 0.923879 0.382684
vn 0.000000 1.000000 -0.000000
vn 0.000000 1.000000 0.000000
vn 0.382680 0.923881 0.000000
vn 0.707107 0.707106 0.000000
vn 0.382680 0.923881 0.000000
vn 0.707107 0.707106 0.000000
vn 0.707107 0.707107 0.000000
vn 0.382680 0.923881 0.000000
vn 0.707107 0.707106 0.000000
vn 0.923880 0.382683 0.000000
vn 0.707107 0.707107 0.000000
vn 0.923880 0.382683 0.000000
vn 0.923880 0.382683 0.000000
vn 0.707107 0.707107 0.000000
vn 0.923880 0.382683 0.000000
vn 1.000000 -0.000000 0.000000
vn 0.923880 0.382683 0.000000
vn 1.000000 -0.000000 0.000000
vn 1.000000 0.000000 0.000000
vn 0.923880 0.382683 0.000000
vn -0.382680 -0.923881 0.000000
vn -0.707107 -0.707106 0.000000
vn -0.382680 -0.923881 0.000000
vn -0.707107 -0.707106 0.000000
vn -0.707107 -0.707107 0.000000
vn -0.382680 -0.923881 0.000000
vn -0.707107 -0.707106 0.000000
vn -0.923880 -0.382683 0.000000
vn -0.707107 -0.707107 0.000000
vn -0.923880 -0.382683 0.000000
vn -0.923880 -0.382683 0.000000
vn -0.707107 -0.707107 0.000000
vn -0.923880 -0.382683 0.000000
vn -1.000000 0.000000 0.000000
vn -0.923880 -0.382683 0.000000
vn -1.000000 0.000000 0.000000
vn -1.000000 -0.000000 0.000000
vn -0.923880 -0.382683 0.000000
vn 0.382680 0.923881 0.000000
vn -0.000000 1.000000 0.000000
vn 0.382680 0.923881 0.000000
vn -0.000000 1.000000 0.000000
vn 0.000000 1.000000 0.000000
vn 0.382680 0.923881 0.000000
vn -0.382680 -0.923881 0.000000
vn 0.000000 -1.000000 0.000000
vn -0.382680 -0.923881 0.000000
vn 0.000000 -1.000000 0.000000
vn -0.000000 -1.000000 0.000000
vn -0.382680 -0.923881 0.000000
vn 0.707107 -0.707107 0.000000
vn 0.382680 -0.923881 0.000000
vn 0.707106 -0.707108 0.000000
vn 0.382680 -0.923881 0.000000
vn 0.382680 -0.923881 0.000000
vn 0.707106 -0.707108 0.000000
vn 0.923880 -0.382682 0.000000
vn 0.707107 -0.707107 0.000000
vn 0.923880 -0.382682 0.000000
vn 0.707107 -0.707107 0.000000
vn 0.707106 -0.707108 0.000000
vn 0.923880 -0.382682 0.000000
vn 1.000000 -0.000000 0.000000
vn 0.923880 -0.382682 0.000000
vn 1.000000 0.000000 0.000000
vn 0.923880 -0.382682 0.000000
vn 0.923880 -0.382682 0.000000
vn 1.000000 0.000000 0.000000
vn 0.382680 -0.923881 0.000000
vn -0.000000 -1.000000 0.000000
vn 0.382680 -0.923881 0.000000
vn -0.000000 -1.000000 0.000000
vn 0.000000 -1.000000 0.000000
vn 0.382680 -0.923881 0.000000
vn -0.707107 0.707107 0.000000
vn -0.382680 0.923881 0.000000
vn -0.707106 0.707107 0.000000
vn -0.382680 0.923881 0.000000
vn -0.382680 0.923881 0.000000
vn -0.707106 0.707107 0.000000
vn -0.923880 0.382682 0.000000
vn -0.707107 0.707107 0.000000
vn -0.923880 0.382682 0.000000
vn -0.707107 0.707107 0.000000
vn -0.707106 0.707107 0.000000
vn -0.923880 0.382682 0.000000
vn -1.000000 0.000000 0.000000
vn -0.923880 0.382682 0.000000
vn -1.000000 -0.000000 0.000000
vn -0.923880 0.382682 0.000000
vn -0.923880 0.382682 0.000000
vn -1.000000 -0.000000 0.000000
vn -0.382680 0.923881 0.000000
vn 0.000000 1.000000 0.000000
vn -0.382680 0.923881 0.000000
vn 0.000000 1.000000 0.000000
vn -0.000000 1.000000 0.000000
vn -0.382680 0.923881 0.000000
vn 0.000000 0.000000 1.000000
vn 0.000000 0.000000 1.000000
vn 0.000000 0.000000 1.000000
vn 0.000000 0.000000 1.000000
vn 0.000000 0.000000 1.000000
vn 0.000000 0.000000 1.000000
vn 0.000000 0.000000 1.000000
vn 0.000000 0.000000 1.000000
vn -0.000001 0.000000 1.000000
vn -0.000001 0.000000 1.000000
vn 0.000000 0.000000 1.000000
vn -0.000000 0.000000 1.000000
vn -0.000000 0.000000 1.000000
vn 0.000000 0.000000 1.000000
vn 0.000001 0.000000 1.000000
vn 0.000001 0.000000 1.000000
vn 0.000000 0.000000 1.000000
vn -0.000001 0.000000 1.000000
vn -0.000001 0.000000 1.000000
vn 0.000000 0.000000 1.000000
vn -0.000000 0.000000 1.000000
vn -0.000000 0.000000 1.000000
vn 0.000000 0.000000 1.000000
vn 0.000000 0.000000 1.000000
vn 0.000000 0.000000 1.000000
vn 0.000000 0.000000 1.000000
vn -0.000000 0.000000 1.000000
vn -0.000000 0.000000 1.000000
vn 0.000000 0.000000 1.000000
vn 0.000001 0.000000 1.000000
vn 0.000001 0.000000 1.000000
vn 0.000000 0.000000 1.000000
vn -0.000001 0.000000 1.000000
vn -0.000001 0.000000 1.000000
vn 0.000000 0.000000 1.000000
vn 0.000000 0.000000 1.000000
vn 0.000000 0.000000 1.000000
vn 0.000000 0.000000 1.000000
vn 0.000004 0.000000 1.000000
vn 0.000004 0.000000 1.000000
vn 0.000000 0.000000 1.000000
vn 0.000000 0.000000 1.000000
vn -1.000000 0.000000 0.000000
vn -1.000000 -0.000000 0.000000
vn -1.000000 0.000000 0.000000
vn -1.000000 0.000000 0.000000
vn -1.000000 -0.000000 0.000000
vn -1.000000 0.000002 0.000000
vn -1.000000 0.000002 0.000000
vn -1.000000 -0.000000 0.000000
vn -1.000000 -0.000002 0.000000
vn -1.000000 -0.000002 0.000000
vn -1.000000 -0.000000 0.000000
vn -1.000000 -0.000000 0.000000
vn -1.000000 -0.000000 0.000000
vn -1.000000 -0.000000 0.000000
vn -1.000000 -0.000000 0.000000
vn -1.000000 -0.000000 0.000000
vn -1.000000 -0.000000 0.000000
vn -1.000000 0.000001 0.000000
vn -1.000000 0.000001 0.000000
vn -1.000000 -0.000000 0.000000
vn -1.000000 0.000000 0.000000
vn -1.000000 0.000000 0.000000
vn -1.000000 -0.000000 0.000000
vn -1.000000 -0.000000 0.000000
vn -1.000000 -0.000000 0.000000
vn -1.000000 -0.000000 0.000000
vn -1.000000 0.000000 0.000000
vn -1.000000 0.000000 0.000000
vn -1.000000 -0.000000 0.000000
vn -1.000000 0.000000 0.000000
vn -1.000000 0.000000 0.000000
vn -1.000000 -0.000000 0.000000
vn -1.000000 0.000000 0.000000
vn -1.000000 0.000000 0.000000
vn -1.000000 -0.000000 0.000000
vn -1.000000 0.000000 0.000000
vn -1.000000 0.000000 0.000000
vn -1.000000 -0.000000 0.000000
vn -1.000000 0.000000 0.000000
vn -1.000000 0.000000 0.000000
vn -1.000000 -0.000000 0.000000
vn -1.000000 0.000000 0.000000
vn 1.000000 -0.000005 0.000000
vn 1.000000 0.000000 0.000000
vn 1.000000 0.000002 0.000000
vn 1.000000 0.000002 0.000000
vn 1.000000 0.000000 0.000000
vn 1.000000 0.000000 0.000000
vn 1.000000 0.000000 0.000000
vn 1.000000 0.000000 0.000000
vn 1.000000 0.000000 0.000000
vn 1.000000 0.000000 0.000000
vn 1.000000 0.000000 0.000000
vn 1.000000 -0.000001 0.000000
vn 1.000000 -0.000001 0.000000
vn 1.000000 0.000000 0.000000
vn 1.000000 0.000000 0.000000
vn 1.000000 0.000000 0.000000
vn 1.000000 0.000000 0.000000
vn 1.000000 0.000000 0.000000
vn 1.000000 0.000000 0.000000
vn 1.000000 0.000000 0.000000
vn 1.000000 0.000000 0.000000
vn 1.000000 0.000000 0.000000
vn 1.000000 0.000000 0.000000
vn 1.000000 0.000000 0.000000
vn 1.000000 0.000000 0.000000
vn 1.000000 0.000000 0.000000
vn 1.000000 0.000000 0.000000
vn 1.000000 0.000000 0.000000
vn 1.000000 0.000000 0.000000
vn 1.000000 0.000000 0.000000
vn 1.000000 0.000000 0.000000
vn 1.000000 0.000000 0.000000
vn 1.000000 0.000000 0.000000
vn 1.000000 0.000000 0.000000
vn 1.000000 0.000000 0.000000
vn 1.000000 -0.000000 0.000000
vn 1.000000 -0.000000 0.000000
vn 1.000000 0.000000 0.000000
vn 1.000000 -0.000001 0.000000
vn 1.000000 -0.000001 0.000000
vn 1.000000 0.000000 0.000000
vn 1.000000 0.000000 0.000000
vn 0.000000 0.923883 -0.382675
vn 0.000000 0.707113 -0.707100
vn 0.000000 0.923882 -0.382677
vn 0.000000 0.707113 -0.707100
vn 0.000000 0.707112 -0.707102
vn 0.000000 0.923882 -0.382677
vn 0.000000 0.707113 -0.707100
vn 0.000000 0.382684 -0.923879
vn 0.000000 0.707112 -0.707102
vn 0.000000 0.382684 -0.923879
vn 0.000000 0.382683 -0.923880
vn 0.000000 0.707112 -0.707102
vn 0.000000 0.382684 -0.923879
vn 0.000000 0.000000 -1.000000
vn 0.000000 0.382683 -0.923880
vn 0.000000 0.000000 -1.000000
vn 0.000001 0.000000 -1.000000
vn 0.000000 0.382683 -0.923880
vn 0.000000 -0.923877 0.382690
vn 0.000000 -0.707107 0.707107
vn 0.000000 -0.923878 0.382688
vn 0.000000 -0.707107 0.707107
vn 0.000001 -0.707112 0.707102
vn 0.000000 -0.923878 0.382688
vn 0.000000 -0.707107 0.707107
vn 0.000001 -0.382687 0.923878
vn 0.000001 -0.707112 0.707102
vn 0.000001 -0.382687 0.923878
vn 0.000001 -0.382688 0.923878
vn 0.000001 -0.707112 0.707102
vn 0.000001 -0.382687 0.923878
vn 0.000000 -0.000000 1.000000
vn 0.000001 -0.382688 0.923878
vn 0.000000 -0.000000 1.000000
vn 0.000000 0.000000 1.000000
vn 0.000001 -0.382688 0.923878
vn 0.000000 0.923882 -0.382677
vn 0.000000 1.000000 -0.000000
vn 0.000000 0.923883 -0.382675
vn 0.000000 1.000000 -0.000000
vn 0.000000 1.000000 0.000000
vn 0.000000 0.923883 -0.382675
vn 0.000000 -0.923878 0.382688
vn 0.000000 -1.000000 -0.000002
vn 0.000000 -0.923877 0.382690
vn 0.000000 -1.000000 -0.000002
vn 0.000000 -1.000000 0.000002
vn 0.000000 -0.923877 0.382690
vn 0.000000 -0.923878 -0.382686
vn 0.000000 -0.707112 -0.707101
vn 0.000000 -0.923879 -0.382684
vn 0.000000 -0.707112 -0.707101
vn 0.000001 -0.707107 -0.707106
vn 0.000000 -0.923879 -0.382684
vn 0.000000 -0.707112 -0.707101
vn 0.000001 -0.382687 -0.923878
vn 0.000001 -0.707107 -0.707106
vn 0.000001 -0.382687 -0.923878
vn 0.000001 -0.382687 -0.923878
vn 0.000001 -0.707107 -0.707106
vn 0.000001 -0.382687 -0.923878
vn 0.000001 0.000000 -1.000000
vn 0.000001 -0.382687 -0.923878
vn 0.000001 0.000000 -1.000000
vn 0.000000 0.000000 -1.000000
vn 0.000001 -0.382687 -0.923878
vn 0.000000 -0.923879 -0.382684
vn 0.000000 -1.000000 0.000002
vn 0.000000 -0.923878 -0.382686
vn 0.000000 -1.000000 0.000002
vn 0.000000 -1.000000 -0.000002
vn 0.000000 -0.923878 -0.382686
vn 0.000000 0.923881 0.382679
vn 0.000000 0.707113 0.707100
vn 0.000000 0.923881 0.382681
vn 0.000000 0.707113 0.707100
vn 0.000000 0.707112 0.707102
vn 0.000000 0.923881 0.382681
vn 0.000000 0.707113 0.707100
vn 0.000000 0.382684 0.923879
vn 0.000000 0.707112 0.707102
vn 0.000000 0.382684 0.923879
vn 0.000000 0.382683 0.923880
vn 0.000000 0.707112 0.707102
vn 0.000000 0.382684 0.923879
vn 0.000000 0.000000 1.000000
vn 0.000000 0.382683 0.923880
vn 0.000000 0.000000 1.000000
vn 0.000000 -0.000000 1.000000
vn 0.000000 0.382683 0.923880
vn 0.000000 0.923881 0.382681
vn 0.000000 1.000000 0.000000
vn 0.000000 0.923881 0.382679
vn 0.000000 1.000000 0.000000
vn 0.000000 1.000000 -0.000000
vn 0.000000 0.923881 0.382679
vn -0.707109 0.707105 0.000000
vn -1.000000 0.000001 0.000000
vn -0.707109 0.707104 0.000000
vn -1.000000 0.000001 0.000000
vn -1.000000 -0.000001 0.000000
vn -0.707109 0.707104 0.000000
vn -0.000000 1.000000 0.000000
vn -0.707109 0.707105 0.000000
vn -0.000000 1.000000 0.000000
vn -0.707109 0.707105 0.000000
vn -0.707109 0.707104 0.000000
vn -0.000000 1.000000 0.000000
vn 0.707109 0.707104 0.000000
vn -0.000000 1.000000 0.000000
vn 0.707109 0.707105 0.000000
vn -0.000000 1.000000 0.000000
vn -0.000000 1.000000 0.000000
vn 0.707109 0.707105 0.000000
vn 1.000000 0.000000 0.000000
vn 0.707109 0.707104 0.000000
vn 1.000000 0.000000 0.000000
vn 0.707109 0.707104 0.000000
vn 0.707109 0.707105 0.000000
vn 1.000000 0.000000 0.000000
vn 0.707109 -0.707105 0.000000
vn 1.000000 0.000000 0.000000
vn 0.707109 -0.707105 0.000000
vn 1.000000 0.000000 0.000000
vn 1.000000 0.000000 0.000000
vn 0.707109 -0.707105 0.000000
vn 0.382686 -0.923878 0.000000
vn 0.707109 -0.707105 0.000000
vn 0.382686 -0.923879 0.000000
vn 0.707109 -0.707105 0.000000
vn 0.707109 -0.707105 0.000000
vn 0.382686 -0.923879 0.000000
vn -0.707110 -0.707104 0.000000
vn -0.382686 -0.923878 0.000000
vn -0.707109 -0.707105 0.000000
vn -0.382686 -0.923878 0.000000
vn -0.382685 -0.923879 0.000000
vn -0.707109 -0.707105 0.000000
vn -1.000000 0.000001 0.000000
vn -0.707110 -0.707104 0.000000
vn -1.000000 -0.000001 0.000000
vn -0.707110 -0.707104 0.000000
vn -0.707109 -0.707105 0.000000
vn -1.000000 -0.000001 0.000000
vn 0.000000 0.000000 1.000000
vn -0.000000 0.000000 1.000000
vn 0.000000 0.000000 1.000000
vn 0.000000 0.000000 1.000000
vn -0.000000 0.000000 1.000000
vn 0.000000 0.000000 1.000000
vn 0.000000 0.000000 1.000000
vn -0.000000 0.000000 1.000000
vn -0.000001 0.000000 1.000000
vn -0.000001 0.000000 1.000000
vn -0.000000 0.000000 1.000000
vn -0.000000 0.000000 1.000000
vn -0.000000 0.000000 1.000000
vn -0.000000 0.000000 1.000000
vn 0.000001 0.000000 1.000000
vn 0.000001 0.000000 1.000000
vn -0.000000 0.000000 1.000000
vn -0.000001 0.000000 1.000000
vn -0.000001 0.000000 1.000000
vn -0.000000 0.000000 1.000000
vn -0.000000 0.000000 1.000000
vn -0.000000 0.000000 1.000000
vn -0.000000 0.000000 1.000000
vn 0.000000 0.000000 1.000000
vn 0.000000 0.000000 1.000000
vn -0.000000 0.000000 1.000000
vn -0.000000 0.000000 1.000000
vn -0.000000 0.000000 1.000000
vn -0.000000 0.000000 1.000000
vn 0.000001 0.000000 1.000000
vn 0.000001 0.000000 1.000000
vn -0.000000 0.000000 1.000000
vn -0.000001 0.000000 1.000000
vn -0.000001 0.000000 1.000000
vn -0.000000 0.000000 1.000000
vn 0.000000 0.000000 1.000000
vn 0.000000 0.000000 1.000000
vn -0.000000 0.000000 1.000000
vn 0.000004 0.000000 1.000000
vn 0.000004 0.000000 1.000000
vn -0.000000 0.000000 1.000000
vn 0.000000 0.000000 1.000000
vn -0.382680 0.923881 0.000000
vn -0.382680 0.923881 0.000000
vn -0.707107 0.707106 0.000000
vn -0.382680 0.923881 0.000000
vn -0.707107 0.707107 0.000000
vn -0.707107 0.707106 0.000000
vn -0.707107 0.707106 0.000000
vn -0.707107 0.707107 0.000000
vn -0.923880 0.382683 0.000000
vn -0.707107 0.707107 0.000000
vn -0.923880 0.382683 0.000000
vn -0.923880 0.382683 0.000000
vn -0.923880 0.382683 0.000000
vn -0.923880 0.382683 0.000000
vn -1.000000 -0.000000 0.000000
vn -0.923880 0.382683 0.000000
vn -1.000000 0.000000 0.000000
vn -1.000000 -0.000000 0.000000
vn 0.382680 -0.923881 0.000000
vn 0.382681 -0.923881 0.000000
vn 0.707107 -0.707107 0.000000
vn 0.382681 -0.923881 0.000000
vn 0.707107 -0.707107 0.000000
vn 0.707107 -0.707107 0.000000
vn 0.707107 -0.707107 0.000000
vn 0.707107 -0.707107 0.000000
vn 0.923880 -0.382683 0.000000
vn 0.707107 -0.707107 0.000000
vn 0.923880 -0.382682 0.000000
vn 0.923880 -0.382683 0.000000
vn 0.923880 -0.382683 0.000000
vn 0.923880 -0.382682 0.000000
vn 1.000000 -0.000001 0.000000
vn 0.923880 -0.382682 0.000000
vn 1.000000 0.000001 0.000000
vn 1.000000 -0.000001 0.000000
vn -0.382680 0.923881 0.000000
vn -0.382680 0.923881 0.000000
vn 0.000000 1.000000 0.000000
vn -0.382680 0.923881 0.000000
vn -0.000000 1.000000 0.000000
vn 0.000000 1.000000 0.000000
vn 0.382681 -0.923881 0.000000
vn 0.382680 -0.923881 0.000000
vn -0.000000 -1.000000 0.000000
vn 0.382680 -0.923881 0.000000
vn 0.000000 -1.000000 0.000000
vn -0.000000 -1.000000 0.000000
vn -0.707107 -0.707107 0.000000
vn -0.707106 -0.707107 0.000000
vn -0.382680 -0.923881 0.000000
vn -0.707106 -0.707107 0.000000
vn -0.382680 -0.923881 0.000000
vn -0.382680 -0.923881 0.000000
vn -0.923880 -0.382682 0.000000
vn -0.923880 -0.382682 0.000000
vn -0.707107 -0.707107 0.000000
vn -0.923880 -0.382682 0.000000
vn -0.707106 -0.707107 0.000000
vn -0.707107 -0.707107 0.000000
vn -1.000000 -0.000000 0.000000
vn -1.000000 0.000000 0.000000
vn -0.923880 -0.382682 0.000000
vn -1.000000 0.000000 0.000000
vn -0.923880 -0.382682 0.000000
vn -0.923880 -0.382682 0.000000
vn -0.382680 -0.923881 0.000000
vn -0.382680 -0.923881 0.000000
vn 0.000000 -1.000000 0.000000
vn -0.382680 -0.923881 0.000000
vn -0.000000 -1.000000 0.000000
vn 0.000000 -1.000000 0.000000
vn 0.707106 0.707107 0.000000
vn 0.707106 0.707108 0.000000
vn 0.382681 0.923881 0.000000
vn 0.707106 0.707108 0.000000
vn 0.382680 0.923881 0.000000
vn 0.382681 0.923881 0.000000
vn 0.923880 0.382682 0.000000
vn 0.923880 0.382683 0.000000
vn 0.707106 0.707107 0.000000
vn 0.923880 0.382683 0.000000
vn 0.707106 0.707108 0.000000
vn 0.707106 0.707107 0.000000
vn 1.000000 -0.000001 0.000000
vn 1.000000 0.000001 0.000000
vn 0.923880 0.382682 0.000000
vn 1.000000 0.000001 0.000000
vn 0.923880 0.382683 0.000000
vn 0.923880 0.382682 0.000000
vn 0.382681 0.923881 0.000000
vn 0.382680 0.923881 0.000000
vn -0.000000 1.000000 0.000000
vn 0.382680 0.923881 0.000000
vn 0.000000 1.000000 0.000000
vn -0.000000 1.000000 0.000000
vn 0.000000 0.923883 -0.382675
vn 0.000000 0.923882 -0.382677
vn 0.000000 0.707113 -0.707100
vn 0.000000 0.923882 -0.382677
vn 0.000000 0.707112 -0.707102
vn 0.000000 0.707113 -0.707100
vn 0.000000 0.707113 -0.707100
vn 0.000000 0.707112 -0.707102
vn 0.000000 0.382684 -0.923879
vn 0.000000 0.707112 -0.707102
vn 0.000000 0.382683 -0.923880
vn 0.000000 0.382684 -0.923879
vn 0.000000 0.382684 -0.923879
vn 0.000000 0.382683 -0.923880
vn 0.000000 0.000000 -1.000000
vn 0.000000 0.382683 -0.923880
vn -0.000000 0.000000 -1.000000
vn 0.000000 0.000000 -1.000000
vn 0.000000 -0.923877 0.382690
vn 0.000000 -0.923878 0.382688
vn 0.000000 -0.707107 0.707107
vn 0.000000 -0.923878 0.382688
vn -0.000001 -0.707112 0.707102
vn 0.000000 -0.707107 0.707107
vn 0.000000 -0.707107 0.707107
vn -0.000001 -0.707112 0.707102
vn -0.000001 -0.382687 0.923878
vn -0.000001 -0.707112 0.707102
vn -0.000001 -0.382688 0.923878
vn -0.000001 -0.382687 0.923878
vn -0.000001 -0.382687 0.923878
vn -0.000001 -0.382688 0.923878
vn -0.000000 -0.000000 1.000000
vn -0.000001 -0.382688 0.923878
vn 0.000000 0.000000 1.000000
vn -0.000000 -0.000000 1.000000
vn 0.000000 0.923882 -0.382677
vn 0.000000 0.923883 -0.382675
vn 0.000000 1.000000 -0.000000
vn 0.000000 0.923883 -0.382675
vn 0.000000 1.000000 0.000000
vn 0.000000 1.000000 -0.000000
vn 0.000000 -0.923878 0.382688
vn 0.000000 -0.923877 0.382690
vn 0.000000 -1.000000 -0.000002
vn 0.000000 -0.923877 0.382690
vn 0.000000 -1.000000 0.000002
vn 0.000000 -1.000000 -0.000002
vn 0.000000 -0.923878 -0.382686
vn 0.000000 -0.923879 -0.382684
vn 0.000000 -0.707112 -0.707101
vn 0.000000 -0.923879 -0.382684
vn -0.000001 -0.707107 -0.707106
vn 0.000000 -0.707112 -0.707101
vn 0.000000 -0.707112 -0.707101
vn -0.000001 -0.707107 -0.707106
vn -0.000000 -0.382687 -0.923878
vn -0.000001 -0.707107 -0.707106
vn -0.000001 -0.382687 -0.923878
vn -0.000000 -0.382687 -0.923878
vn -0.000000 -0.382687 -0.923878
vn -0.000001 -0.382687 -0.923878
vn -0.000000 0.000000 -1.000000
vn -0.000001 -0.382687 -0.923878
vn 0.000000 0.000000 -1.000000
vn -0.000000 0.000000 -1.000000
vn 0.000000 -0.923879 -0.382684
vn 0.000000 -0.923878 -0.382686
vn 0.000000 -1.000000 0.000002
vn 0.000000 -0.923878 -0.382686
vn 0.000000 -1.000000 -0.000002
vn 0.000000 -1.000000 0.000002
vn 0.000000 0.923881 0.382679
vn 0.000000 0.923881 0.382681
vn 0.000000 0.707113 0.707100
vn 0.000000 0.923881 0.382681
vn 0.000000 0.707112 0.707102
vn 0.000000 0.707113 0.707100
vn 0.000000 0.707113 0.707100
vn 0.000000 0.707112 0.707102
vn 0.000000 0.382684 0.923879
vn 0.000000 0.707112 0.707102
vn 0.000000 0.382683 0.923880
vn 0.000000 0.382684 0.923879
vn 0.000000 0.382684 0.923879
vn 0.000000 0.382683 0.923880
vn 0.000000 0.000000 1.000000
vn 0.000000 0.382683 0.923880
vn -0.000000 -0.000000 1.000000
vn 0.000000 0.000000 1.000000
vn 0.000000 0.923881 0.382681
vn 0.000000 0.923881 0.382679
vn 0.000000 1.000000 0.000000
vn 0.000000 0.923881 0.382679
vn 0.000000 1.000000 -0.000000
vn 0.000000 1.000000 0.000000
vn 1.000000 -0.000010 0.000000
vn 1.000000 0.000000 0.000000
vn 1.000000 -0.000000 0.000000
vn 1.000000 -0.000000 0.000000
vn 1.000000 0.000000 0.000000
vn 1.000000 0.000002 0.000000
vn 1.000000 0.000002 0.000000
vn 1.000000 0.000000 0.000000
vn 1.000000 -0.000001 0.000000
vn 1.000000 -0.000001 0.000000
vn 1.000000 0.000000 0.000000
vn 1.000000 -0.000000 0.000000
vn 1.000000 -0.000000 0.000000
vn 1.000000 0.000000 0.000000
vn 1.000000 0.000001 0.000000
vn 1.000000 0.000001 0.000000
vn 1.000000 0.000000 0.000000
vn 1.000000 0.000000 0.000000
vn 1.000000 0.000000 0.000000
vn 1.000000 0.000000 0.000000
vn 1.000000 0.000000 0.000000
vn 1.000000 0.000000 0.000000
vn 1.000000 0.000000 0.000000
vn 1.000000 0.000000 0.000000
vn 1.000000 0.000000 0.000000
vn 1.000000 0.000000 0.000000
vn 1.000000 0.000000 0.000000
vn 1.000000 0.000000 0.000000
vn 1.000000 0.000000 0.000000
vn 1.000000 0.000000 0.000000
vn 1.000000 0.000000 0.000000
vn 1.000000 0.000000 0.000000
vn 1.000000 0.000001 0.000000
vn 1.000000 0.000001 0.000000
vn 1.000000 0.000000 0.000000
vn 1.000000 -0.000001 0.000000
vn 1.000000 -0.000001 0.000000
vn 1.000000 0.000000 0.000000
vn 1.000000 0.000000 0.000000
vn 1.000000 0.000000 0.000000
vn 1.000000 0.000000 0.000000
vn 1.000000 0.000000 0.000000
vn -1.000000 -0.000005 0.000000
vn -1.000000 0.000000 0.000000
vn -1.000000 -0.000004 0.000000
vn -1.000000 -0.000004 0.000000
vn -1.000000 0.000000 0.000000
vn -1.000000 -0.000000 0.000000
vn -1.000000 -0.000000 0.000000
vn -1.000000 0.000000 0.000000
vn -1.000000 0.000001 0.000000
vn -1.000000 0.000001 0.000000
vn -1.000000 0.000000 0.000000
vn -1.000000 0.000001 0.000000
vn -1.000000 0.000001 0.000000
vn -1.000000 0.000000 0.000000
vn -1.000000 -0.000000 0.000000
vn -1.000000 -0.000000 0.000000
vn -1.000000 0.000000 0.000000
vn -1.000000 -0.000001 0.000000
vn -1.000000 -0.000001 0.000000
vn -1.000000 0.000000 0.000000
vn -1.000000 -0.000000 0.000000
vn -1.000000 -0.000000 0.000000
vn -1.000000 0.000000 0.000000
vn -1.000000 0.000000 0.000000
vn -1.000000 0.000000 0.000000
vn -1.000000 0.000000 0.000000
vn -1.000000 0.000001 0.000000
vn -1.000000 0.000001 0.000000
vn -1.000000 0.000000 0.000000
vn -1.000000 0.000000 0.000000
vn -1.000000 0.000000 0.000000
vn -1.000000 0.000000 0.000000
vn -1.000000 0.000000 0.000000
vn -1.000000 0.000000 0.000000
vn -1.000000 0.000000 0.000000
vn -1.000000 0.000000 0.000000
vn -1.000000 0.000000 0.000000
vn -1.000000 0.000000 0.000000
vn -1.000000 0.000000 0.000000
vn -1.000000 0.000000 0.000000
vn -1.000000 0.000000 0.000000
vn -1.000000 0.000000 0.000000
s off
g SM_Dresser_01d
f 4/1/1 3/2/2 2/4/3
f 2/4/4 3/2/5 1/3/6
f 7/5/7 13/6/8 14/7/9
f 14/7/10 13/6/11 12/8/12
f 17/9/13 5/10/14 18/11/15
f 18/11/16 5/10/17 6/12/18
f 8/13/19 15/14/20 17/9/21
f 17/9/22 15/14/23 5/10/24
f 18/11/25 6/12/26 9/15/27
f 9/15/28 6/12/29 16/16/30
f 9/15/31 16/16/32 8/13/33
f 8/13/34 16/16/35 15/14/36
f 19/17/37 17/18/38 20/19/39
f 20/19/40 17/18/41 18/20/42
f 10/21/43 8/22/44 19/23/45
f 19/23/46 8/22/47 17/24/48
f 11/25/49 9/26/50 10/27/51
f 10/27/52 9/26/53 8/28/54
f 11/29/55 20/30/56 9/31/57
f 9/31/58 20/30/59 18/32/60
f 11/33/61 10/34/62 20/35/63
f 20/35/64 10/34/65 19/36/66
f 13/37/67 7/38/68 6/39/69
f 6/39/70 7/38/71 16/40/72
f 7/41/73 14/42/74 16/43/75
f 16/43/76 14/42/77 15/44/78
f 5/45/79 15/46/80 12/47/81
f 12/47/82 15/46/83 14/48/84
f 43/49/85 52/50/86 23/51/87
f 23/51/88 52/50/89 32/52/90
f 52/53/91 60/54/92 32/55/93
f 32/55/94 60/54/95 40/56/96
f 31/57/97 34/58/98 25/59/99
f 25/59/100 34/58/101 24/60/102
f 37/61/103 38/62/104 26/63/105
f 26/63/106 38/62/107 27/64/108
f 33/65/109 35/66/110 29/67/111
f 29/67/112 35/66/113 28/68/114
f 32/69/115 36/70/116 23/71/117
f 23/71/118 36/70/119 30/72/120
f 38/73/121 31/74/122 27/75/123
f 27/75/124 31/74/125 25/76/126
f 40/56/127 34/77/128 37/78/129
f 35/79/130 32/55/131 40/56/132
f 33/80/133 36/81/134 35/79/135
f 35/79/136 36/81/137 32/55/138
f 36/82/139 33/83/140 30/84/141
f 30/84/142 33/83/143 29/85/144
f 44/86/145 45/87/146 24/88/147
f 24/88/148 45/87/149 25/89/150
f 45/90/151 47/91/152 25/76/153
f 25/76/154 47/91/155 27/75/156
f 27/92/157 47/93/158 26/94/159
f 26/94/160 47/93/161 46/95/162
f 48/96/163 49/97/164 28/98/165
f 28/98/166 49/97/167 29/99/168
f 49/100/169 50/101/170 29/85/171
f 29/85/172 50/101/173 30/84/174
f 50/102/175 43/103/176 30/104/177
f 30/104/178 43/103/179 23/105/180
f 34/106/181 39/107/182 24/108/183
f 24/108/184 39/107/185 21/109/186
f 41/110/187 44/111/188 21/109/189
f 21/109/190 44/111/191 24/108/192
f 37/78/193 35/79/194 40/56/195
f 35/112/196 37/113/197 28/114/198
f 28/114/199 37/113/200 26/115/201
f 46/116/202 48/117/203 26/115/204
f 26/115/205 48/117/206 28/114/207
f 34/77/208 31/118/209 37/78/210
f 37/78/211 31/118/212 38/119/213
f 39/120/214 34/77/215 40/56/216
f 21/121/217 39/122/218 22/123/219
f 22/123/220 39/122/221 40/124/222
f 42/125/223 41/126/224 22/127/225
f 22/127/226 41/126/227 21/128/228
f 45/129/229 44/130/230 51/131/231
f 51/131/232 44/130/233 54/132/234
f 49/133/235 48/134/236 53/135/237
f 53/135/238 48/134/239 55/136/240
f 54/137/241 44/111/242 59/138/243
f 59/138/244 44/111/245 41/110/246
f 45/90/247 51/139/248 47/91/249
f 47/91/250 51/139/251 58/140/252
f 46/141/253 47/142/254 57/143/255
f 57/143/256 47/142/257 58/144/258
f 49/100/259 53/145/260 50/101/261
f 50/101/262 53/145/263 56/146/264
f 43/147/265 50/148/266 52/149/267
f 52/149/268 50/148/269 56/150/270
f 55/151/271 48/117/272 57/152/273
f 57/152/274 48/117/275 46/116/276
f 53/153/277 55/154/278 56/155/279
f 56/155/280 55/154/281 52/53/282
f 55/154/283 57/156/284 60/54/285
f 52/53/286 55/154/287 60/54/288
f 54/157/289 57/156/290 51/158/291
f 51/158/292 57/156/293 58/159/294
f 60/54/295 57/156/296 54/157/297
f 54/157/298 59/160/299 60/54/300
f 59/161/301 41/162/302 60/163/303
f 60/163/304 41/162/305 42/164/306
f 68/165/307 76/166/308 65/167/309
f 76/166/310 73/168/311 65/167/312
f 63/169/313 71/170/314 68/165/315
f 71/170/316 76/166/317 68/165/318
f 61/171/319 69/172/320 63/169/321
f 69/172/322 71/170/323 63/169/324
f 62/173/325 70/174/326 61/171/327
f 70/174/328 69/172/329 61/171/330
f 67/175/331 75/176/332 62/173/333
f 75/176/334 70/174/335 62/173/336
f 66/177/337 74/178/338 67/175/339
f 74/178/340 75/176/341 67/175/342
f 64/179/343 72/180/344 66/181/345
f 72/180/346 74/182/347 66/181/348
f 65/167/349 73/168/350 64/179/351
f 73/168/352 72/180/353 64/179/354
f 93/183/355 77/184/356 94/185/357
f 77/184/358 78/186/359 94/185/360
f 94/185/361 78/186/362 95/187/363
f 78/186/364 79/188/365 95/187/366
f 95/187/367 79/188/368 96/189/369
f 79/188/370 80/190/371 96/189/372
f 98/191/373 82/192/374 99/193/375
f 82/192/376 83/194/377 99/193/378
f 99/193/379 83/194/380 100/195/381
f 83/194/382 84/196/383 100/195/384
f 100/195/385 84/196/386 101/197/387
f 84/196/388 85/198/389 101/197/390
f 77/184/391 93/183/392 81/199/393
f 93/183/394 97/200/395 81/199/396
f 82/192/397 98/191/398 86/201/399
f 98/191/400 102/202/401 86/201/402
f 87/203/403 103/204/404 88/205/405
f 103/204/406 104/206/407 88/205/408
f 88/205/409 104/206/410 89/207/411
f 104/206/412 105/208/413 89/207/414
f 89/207/415 105/208/416 80/209/417
f 105/208/418 96/210/419 80/209/420
f 103/204/421 87/203/422 102/202/423
f 87/203/424 86/201/425 102/202/426
f 90/211/427 106/212/428 91/213/429
f 106/212/430 107/214/431 91/213/432
f 91/213/433 107/214/434 92/215/435
f 107/214/436 108/216/437 92/215/438
f 92/215/439 108/216/440 85/198/441
f 108/216/442 101/197/443 85/198/444
f 106/212/445 90/211/446 97/200/447
f 90/211/448 81/199/449 97/200/450
f 125/217/451 126/218/452 109/219/453
f 126/218/454 110/220/455 109/219/456
f 126/218/457 127/221/458 110/220/459
f 127/221/460 111/222/461 110/220/462
f 127/221/463 128/223/464 111/222/465
f 128/223/466 112/224/467 111/222/468
f 130/225/469 131/226/470 114/227/471
f 131/226/472 115/228/473 114/227/474
f 131/226/475 132/229/476 115/228/477
f 132/229/478 116/230/479 115/228/480
f 132/229/481 133/231/482 116/230/483
f 133/231/484 117/232/485 116/230/486
f 109/233/487 113/234/488 125/235/489
f 113/234/490 129/236/491 125/235/492
f 114/237/493 118/238/494 130/239/495
f 118/238/496 134/240/497 130/239/498
f 136/241/499 135/242/500 120/243/501
f 135/242/502 119/244/503 120/243/504
f 137/245/505 136/241/506 121/246/507
f 136/241/508 120/243/509 121/246/510
f 128/223/511 137/245/512 112/224/513
f 137/245/514 121/246/515 112/224/516
f 135/247/517 134/240/518 119/248/519
f 134/240/520 118/238/521 119/248/522
f 139/249/523 138/250/524 123/251/525
f 138/250/526 122/252/527 123/251/528
f 140/253/529 139/249/530 124/254/531
f 139/249/532 123/251/533 124/254/534
f 133/231/535 140/253/536 117/232/537
f 140/253/538 124/254/539 117/232/540
f 138/255/541 129/236/542 122/256/543
f 129/236/544 113/234/545 122/256/546
f 129/257/547 138/258/548 125/259/549
f 125/259/550 138/258/551 126/260/552
f 126/260/553 138/258/554 127/261/555
f 127/261/556 138/258/557 128/262/558
f 128/262/559 138/258/560 137/263/561
f 137/263/562 138/258/563 136/264/564
f 136/264/565 138/258/566 135/265/567
f 135/265/568 138/258/569 134/266/570
f 134/266/571 138/258/572 130/267/573
f 130/267/574 138/258/575 131/268/576
f 131/268/577 138/258/578 132/269/579
f 132/269/580 138/258/581 133/270/582
f 133/270/583 138/258/584 140/271/585
f 140/271/586 138/258/587 139/272/588
f 141/273/589 142/274/590 145/275/591
f 145/275/592 142/274/593 154/276/594
f 154/276/595 142/274/596 155/277/597
f 155/277/598 142/274/599 156/278/600
f 156/278/601 142/274/602 149/279/603
f 149/279/604 142/274/605 148/280/606
f 148/280/607 142/274/608 147/281/609
f 147/281/610 142/274/611 146/282/612
f 146/282/613 142/274/614 150/283/615
f 150/283/616 142/274/617 151/284/618
f 151/284/619 142/274/620 152/285/621
f 152/285/622 142/274/623 153/286/624
f 153/286/625 142/274/626 144/287/627
f 144/287/628 142/274/629 143/288/630
f 157/289/631 161/290/632 158/291/633
f 158/291/634 161/290/635 159/292/636
f 159/292/637 161/290/638 160/293/639
f 160/293/640 161/290/641 169/294/642
f 169/294/643 161/290/644 168/295/645
f 168/295/646 161/290/647 167/296/648
f 167/296/649 161/290/650 166/297/651
f 166/297/652 161/290/653 162/298/654
f 162/298/655 161/290/656 163/299/657
f 163/299/658 161/290/659 164/300/660
f 164/300/661 161/290/662 165/301/663
f 165/301/664 161/290/665 172/302/666
f 172/302/667 161/290/668 171/303/669
f 171/303/670 161/290/671 170/304/672
f 157/305/673 158/306/674 141/307/675
f 158/306/676 142/308/677 141/307/678
f 158/306/679 159/309/680 142/308/681
f 159/309/682 143/310/683 142/308/684
f 159/309/685 160/311/686 143/310/687
f 160/311/688 144/312/689 143/310/690
f 162/313/691 163/314/692 146/315/693
f 163/314/694 147/316/695 146/315/696
f 163/314/697 164/317/698 147/316/699
f 164/317/700 148/318/701 147/316/702
f 164/317/703 165/319/704 148/318/705
f 165/319/706 149/320/707 148/318/708
f 141/307/709 145/321/710 157/305/711
f 145/321/712 161/322/713 157/305/714
f 146/315/715 150/323/716 162/313/717
f 150/323/718 166/324/719 162/313/720
f 151/325/721 152/326/722 167/327/723
f 152/326/724 168/328/725 167/327/726
f 152/326/727 153/329/728 168/328/729
f 153/329/730 169/330/731 168/328/732
f 153/329/733 144/331/734 169/330/735
f 144/331/736 160/332/737 169/330/738
f 167/327/739 166/324/740 151/325/741
f 166/324/742 150/323/743 151/325/744
f 154/333/745 155/334/746 170/335/747
f 155/334/748 171/336/749 170/335/750
f 155/334/751 156/337/752 171/336/753
f 156/337/754 172/338/755 171/336/756
f 156/337/757 149/320/758 172/338/759
f 149/320/760 165/319/761 172/338/762
f 170/335/763 161/322/764 154/333/765
f 161/322/766 145/321/767 154/333/768
f 180/339/769 177/340/770 188/341/771
f 177/340/772 185/342/773 188/341/774
f 175/343/775 180/339/776 183/344/777
f 180/339/778 188/341/779 183/344/780
f 173/345/781 175/343/782 181/346/783
f 175/343/784 183/344/785 181/346/786
f 174/347/787 173/345/788 182/348/789
f 173/345/790 181/346/791 182/348/792
f 179/349/793 174/347/794 187/350/795
f 174/347/796 182/348/797 187/350/798
f 178/351/799 179/349/800 186/352/801
f 179/349/802 187/350/803 186/352/804
f 176/353/805 178/354/806 184/355/807
f 178/354/808 186/356/809 184/355/810
f 177/340/811 176/353/812 185/342/813
f 176/353/814 184/355/815 185/342/816
f 193/357/817 189/358/818 202/359/819
f 202/359/820 189/358/821 203/360/822
f 203/360/823 189/358/824 204/361/825
f 204/361/826 189/358/827 197/362/828
f 197/362/829 189/358/830 196/363/831
f 196/363/832 189/358/833 195/364/834
f 195/364/835 189/358/836 194/365/837
f 194/365/838 189/358/839 198/366/840
f 198/366/841 189/358/842 199/367/843
f 199/367/844 189/358/845 200/368/846
f 200/368/847 189/358/848 201/369/849
f 201/369/850 189/358/851 192/370/852
f 192/370/853 189/358/854 191/371/855
f 191/371/856 189/358/857 190/372/858
f 189/373/859 205/374/860 190/375/861
f 205/374/862 206/376/863 190/375/864
f 190/375/865 206/376/866 191/377/867
f 206/376/868 207/378/869 191/377/870
f 191/377/871 207/378/872 192/379/873
f 207/378/874 208/380/875 192/379/876
f 194/381/877 210/382/878 195/383/879
f 210/382/880 211/384/881 195/383/882
f 195/383/883 211/384/884 196/385/885
f 211/384/886 212/386/887 196/385/888
f 196/385/889 212/386/890 197/387/891
f 212/386/892 213/388/893 197/387/894
f 205/374/895 189/373/896 209/389/897
f 189/373/898 193/390/899 209/389/900
f 210/382/901 194/381/902 214/391/903
f 194/381/904 198/392/905 214/391/906
f 200/393/907 216/394/908 199/395/909
f 216/394/910 215/396/911 199/395/912
f 201/397/913 217/398/914 200/393/915
f 217/398/916 216/394/917 200/393/918
f 192/379/919 208/380/920 201/397/921
f 208/380/922 217/398/923 201/397/924
f 199/395/925 215/396/926 198/399/927
f 215/396/928 214/400/929 198/399/930
f 203/401/931 219/402/932 202/403/933
f 219/402/934 218/404/935 202/403/936
f 204/405/937 220/406/938 203/401/939
f 220/406/940 219/402/941 203/401/942
f 197/387/943 213/388/944 204/405/945
f 213/388/946 220/406/947 204/405/948
f 202/403/949 218/404/950 193/390/951
f 218/404/952 209/389/953 193/390/954
f 237/407/955 221/408/956 238/409/957
f 221/408/958 222/410/959 238/409/960
f 238/409/961 222/410/962 239/411/963
f 222/410/964 223/412/965 239/411/966
f 239/411/967 223/412/968 240/413/969
f 223/412/970 224/414/971 240/413/972
f 242/415/973 226/416/974 243/417/975
f 226/416/976 227/418/977 243/417/978
f 243/417/979 227/418/980 244/419/981
f 227/418/982 228/420/983 244/419/984
f 244/419/985 228/420/986 245/421/987
f 228/420/988 229/422/989 245/421/990
f 221/408/991 237/407/992 225/423/993
f 237/407/994 241/424/995 225/423/996
f 226/416/997 242/415/998 230/425/999
f 242/415/1000 246/426/1001 230/425/1002
f 231/427/1003 247/428/1004 232/429/1005
f 247/428/1006 248/430/1007 232/429/1008
f 232/429/1009 248/430/1010 233/431/1011
f 248/430/1012 249/432/1013 233/431/1014
f 233/431/1015 249/432/1016 224/433/1017
f 249/432/1018 240/434/1019 224/433/1020
f 247/428/1021 231/427/1022 246/426/1023
f 231/427/1024 230/425/1025 246/426/1026
f 234/435/1027 250/436/1028 235/437/1029
f 250/436/1030 251/438/1031 235/437/1032
f 235/437/1033 251/438/1034 236/439/1035
f 251/438/1036 252/440/1037 236/439/1038
f 236/439/1039 252/440/1040 229/422/1041
f 252/440/1042 245/421/1043 229/422/1044
f 250/436/1045 234/435/1046 241/424/1047
f 234/435/1048 225/423/1049 241/424/1050
f 221/441/1051 225/442/1052 222/443/1053
f 222/443/1054 225/442/1055 223/444/1056
f 223/444/1057 225/442/1058 224/445/1059
f 224/445/1060 225/442/1061 233/446/1062
f 233/446/1063 225/442/1064 232/447/1065
f 232/447/1066 225/442/1067 231/448/1068
f 231/448/1069 225/442/1070 230/449/1071
f 230/449/1072 225/442/1073 226/450/1074
f 226/450/1075 225/442/1076 227/451/1077
f 227/451/1078 225/442/1079 228/452/1080
f 228/452/1081 225/442/1082 229/453/1083
f 229/453/1084 225/442/1085 236/454/1086
f 236/454/1087 225/442/1088 235/455/1089
f 235/455/1090 225/442/1091 234/456/1092
f 237/457/1093 238/458/1094 241/459/1095
f 241/459/1096 238/458/1097 250/460/1098
f 250/460/1099 238/458/1100 251/461/1101
f 251/461/1102 238/458/1103 252/462/1104
f 252/462/1105 238/458/1106 245/463/1107
f 245/463/1108 238/458/1109 244/464/1110
f 244/464/1111 238/458/1112 243/465/1113
f 243/465/1114 238/458/1115 242/466/1116
f 242/466/1117 238/458/1118 246/467/1119
f 246/467/1120 238/458/1121 247/468/1122
f 247/468/1123 238/458/1124 248/469/1125
f 248/469/1126 238/458/1127 249/470/1128
f 249/470/1129 238/458/1130 240/471/1131
f 240/471/1132 238/458/1133 239/472/1134
