# This file uses feet as units for non-parametric coordinates.

g default
v 10.362061 10.639839 22.376892
v 9.542313 10.092102 22.376892
v 8.994568 9.272346 22.376892
v 8.802231 8.305382 22.376892
v 11.329025 10.832176 22.376892
v 12.295975 5.970924 22.376892
v 13.115738 6.518661 22.376892
v 13.663467 7.338417 22.376892
v 13.855820 8.305382 22.376892
v 11.329025 5.778587 22.376892
v 10.362061 5.970924 22.376892
v 9.542313 6.518661 22.376892
v 8.994568 7.338417 22.376892
v 12.295975 10.639839 22.376892
v 13.115738 10.092102 22.376892
v 13.663467 9.272346 22.376892
v 10.362061 10.639839 23.178047
v 9.542313 10.092102 23.178047
v 8.994568 9.272346 23.178047
v 8.802231 8.305382 23.178047
v 11.329025 10.832176 23.178047
v 12.295975 5.970924 23.178047
v 13.115738 6.518661 23.178047
v 13.663467 7.338417 23.178047
v 13.855820 8.305382 23.178047
v 11.329025 5.778587 23.178047
v 10.362061 5.970924 23.178047
v 9.542313 6.518661 23.178047
v 8.994568 7.338417 23.178047
v 12.295975 10.639839 23.178047
v 13.115738 10.092102 23.178047
v 13.663467 9.272346 23.178047
v 10.463837 9.170578 23.123672
v 10.105469 8.305382 23.123672
v 11.329025 9.528946 23.123672
v 12.194214 7.440193 23.123672
v 12.552582 8.305382 23.123672
v 11.329025 7.081818 23.123672
v 10.463837 7.440193 23.123672
v 12.194214 9.170578 23.123672
v 10.463837 9.170578 26.669952
v 10.105469 8.305382 26.669952
v 11.329025 9.528946 26.669952
v 12.194214 7.440193 26.669952
v 12.552582 8.305382 26.669952
v 11.329025 7.081818 26.669952
v 10.463837 7.440193 26.669952
v 12.194214 9.170578 26.669952
v -8.788864 9.595787 26.792542
v -8.788864 9.293030 26.339417
v -8.788864 8.839897 26.036636
v -8.788864 8.305382 25.930313
v -8.788864 9.702118 27.327057
v -8.788864 7.014977 27.861557
v -8.788864 7.317749 28.314682
v -8.788864 7.770866 28.617462
v -8.788864 8.305382 28.723785
v -8.788864 6.908653 27.327057
v -8.788864 7.014977 26.792542
v -8.788864 7.317749 26.339417
v -8.788864 7.770866 26.036636
v -8.788864 9.595787 27.861557
v -8.788864 9.293030 28.314682
v -8.788864 8.839897 28.617462
v 8.788864 9.595787 26.792542
v 8.788864 9.293030 26.339417
v 8.788864 8.839897 26.036636
v 8.788864 8.305382 25.930313
v 8.788864 9.702118 27.327057
v 8.788864 7.014977 27.861557
v 8.788864 7.317749 28.314682
v 8.788864 7.770882 28.617462
v 8.788864 8.305382 28.723785
v 8.788864 6.908653 27.327057
v 8.788864 7.014977 26.792542
v 8.788864 7.317749 26.339417
v 8.788864 7.770882 26.036636
v 8.788864 9.595787 27.861557
v 8.788864 9.293030 28.314682
v 8.788864 8.839897 28.617462
v 14.967667 9.960205 26.641602
v 14.967667 9.571945 26.060501
v 14.967667 8.990845 25.672226
v 14.967667 8.305382 25.535873
v 14.967667 10.096558 27.327057
v 14.967667 6.650558 28.012497
v 14.967667 7.038834 28.593597
v 14.967667 7.619919 28.981873
v 14.967667 8.305382 29.118225
v 14.967667 6.514206 27.327057
v 14.967667 6.650558 26.641602
v 14.967667 7.038834 26.060501
v 14.967667 7.619919 25.672226
v 14.967667 9.960205 28.012497
v 14.967667 9.571945 28.593597
v 14.967667 8.990845 28.981873
v 8.788864 9.960205 26.641602
v 8.788864 9.571945 26.060501
v 8.788864 8.990845 25.672226
v 8.788864 8.305382 25.535873
v 8.788864 10.096558 27.327057
v 8.788864 6.650558 28.012497
v 8.788864 7.038834 28.593597
v 8.788864 7.619934 28.981873
v 8.788864 8.305382 29.118225
v 8.788864 6.514206 27.327057
v 8.788864 6.650558 26.641602
v 8.788864 7.038834 26.060501
v 8.788864 7.619934 25.672226
v 8.788864 9.960205 28.012497
v 8.788864 9.571945 28.593597
v 8.788864 8.990845 28.981873
v 29.647263 25.952820 22.376892
v 23.200005 18.874012 22.376892
v 23.200005 18.874012 23.904694
v 19.700005 15.374012 22.376892
v 19.700005 15.374012 23.904694
v 23.200005 -0.000031 23.904694
v 23.200005 -0.000031 22.376892
v 19.700005 -0.000031 22.376892
v 19.700005 -0.000031 23.904694
v 29.647263 -0.000031 22.376892
v 29.647263 -0.000031 23.904694
v 39.699997 -0.000031 22.376892
v 39.699997 -0.000031 23.904694
v 48.330002 -0.000031 22.376892
v 48.330002 -0.000031 20.294205
v 43.200005 -0.000031 23.904694
v 33.199982 -0.000031 23.904694
v 43.200005 -0.000031 22.376892
v 33.199982 -0.000031 22.376892
v 29.647263 25.952820 23.904694
v 33.200005 25.952820 23.904694
v 33.200005 25.952820 22.376892
v 39.700005 25.952820 22.376892
v 39.700005 25.952820 23.904694
v 43.199997 25.952820 23.904694
v 43.199997 25.952820 22.376892
v 48.330002 25.952820 20.294205
v 48.330002 25.952820 22.376892
v -29.647263 25.952820 22.376892
v -23.200005 18.874012 22.376892
v -23.200005 18.874012 23.904694
v -19.700005 15.374012 22.376892
v -19.700005 15.374012 23.904694
v -23.200005 -0.000031 23.904694
v -23.200005 -0.000031 22.376892
v -19.700005 -0.000031 22.376892
v -19.700005 -0.000031 23.904694
v -29.647263 -0.000031 22.376892
v -29.647263 -0.000031 23.904694
v -39.699997 -0.000031 22.376892
v -39.699997 -0.000031 23.904694
v -48.330002 -0.000031 22.376892
v -48.330002 -0.000031 20.294205
v -43.200005 -0.000031 23.904694
v -33.199982 -0.000031 23.904694
v -43.200005 -0.000031 22.376892
v -33.199982 -0.000031 22.376892
v -29.647263 25.952820 23.904694
v -33.200005 25.952820 23.904694
v -33.200005 25.952820 22.376892
v -39.700005 25.952820 22.376892
v -39.700005 25.952820 23.904694
v -43.199997 25.952820 23.904694
v -43.199997 25.952820 22.376892
v -48.330002 25.952820 20.294205
v -48.330002 25.952820 22.376892
v -10.362061 10.639839 23.178047
v -9.542313 10.092102 23.178047
v -8.994568 9.272346 23.178047
v -8.802231 8.305382 23.178047
v -11.329025 10.832176 23.178047
v -12.295975 5.970924 23.178047
v -13.115738 6.518661 23.178047
v -13.663467 7.338417 23.178047
v -13.855820 8.305382 23.178047
v -11.329025 5.778587 23.178047
v -10.362061 5.970924 23.178047
v -9.542313 6.518661 23.178047
v -8.994568 7.338417 23.178047
v -12.295975 10.639839 23.178047
v -13.115738 10.092102 23.178047
v -13.663467 9.272346 23.178047
v -10.362061 10.639839 22.376892
v -9.542313 10.092102 22.376892
v -8.994568 9.272346 22.376892
v -8.802231 8.305382 22.376892
v -11.329025 10.832176 22.376892
v -12.295975 5.970924 22.376892
v -13.115738 6.518661 22.376892
v -13.663467 7.338417 22.376892
v -13.855820 8.305382 22.376892
v -11.329025 5.778587 22.376892
v -10.362061 5.970924 22.376892
v -9.542313 6.518661 22.376892
v -8.994568 7.338417 22.376892
v -12.295975 10.639839 22.376892
v -13.115738 10.092102 22.376892
v -13.663467 9.272346 22.376892
v -14.967667 9.960205 26.641602
v -14.967667 9.571945 26.060501
v -14.967667 8.990845 25.672226
v -14.967667 8.305382 25.535873
v -14.967667 10.096558 27.327057
v -14.967667 6.650558 28.012497
v -14.967667 7.038834 28.593597
v -14.967667 7.619919 28.981873
v -14.967667 8.305382 29.118225
v -14.967667 6.514206 27.327057
v -14.967667 6.650558 26.641602
v -14.967667 7.038834 26.060501
v -14.967667 7.619919 25.672226
v -14.967667 9.960205 28.012497
v -14.967667 9.571945 28.593597
v -14.967667 8.990845 28.981873
v -8.788864 9.960205 26.641602
v -8.788864 9.571945 26.060501
v -8.788864 8.990845 25.672226
v -8.788864 8.305382 25.535873
v -8.788864 10.096558 27.327057
v -8.788864 6.650558 28.012497
v -8.788864 7.038834 28.593597
v -8.788864 7.619934 28.981873
v -8.788864 8.305382 29.118225
v -8.788864 6.514206 27.327057
v -8.788864 6.650558 26.641602
v -8.788864 7.038834 26.060501
v -8.788864 7.619934 25.672226
v -8.788864 9.960205 28.012497
v -8.788864 9.571945 28.593597
v -8.788864 8.990845 28.981873
v -10.463837 9.170578 23.123672
v -10.105469 8.305382 23.123672
v -11.329025 9.528946 23.123672
v -12.194214 7.440193 23.123672
v -12.552582 8.305382 23.123672
v -11.329025 7.081818 23.123672
v -10.463837 7.440193 23.123672
v -12.194214 9.170578 23.123672
v -10.463837 9.170578 26.669952
v -10.105469 8.305382 26.669952
v -11.329025 9.528946 26.669952
v -12.194214 7.440193 26.669952
v -12.552582 8.305382 26.669952
v -11.329025 7.081818 26.669952
v -10.463837 7.440193 26.669952
v -12.194214 9.170578 26.669952
v -47.330032 24.952797 20.294189
v 47.329987 24.952797 20.294189
v 47.329987 0.999947 -29.118225
v -45.830032 24.952797 -27.618225
v 45.829987 24.952797 -27.618225
v -45.830032 2.599091 -27.618225
v 45.829987 2.599091 -27.618225
v -47.330032 0.999947 20.294189
v 47.329987 0.999947 20.294189
v -47.330032 0.999947 -29.118225
v -47.330032 24.952797 -29.118225
v 47.329987 24.952797 -29.118225
v -45.830032 24.952797 18.794189
v 45.829987 24.952797 18.794189
v -45.830032 2.599091 18.794189
v 45.829987 2.599091 18.794189
v 48.329994 25.952797 20.294205
v 48.329994 -0.000031 20.294205
v -48.330002 25.952797 20.294205
v -48.330002 -0.000031 20.294205
vt 0.834283 0.671082
vt 0.836306 0.671082
vt 0.836306 0.672465
vt 0.834283 0.672465
vt 0.836306 0.674534
vt 0.834283 0.674534
vt 0.836306 0.676975
vt 0.834283 0.676975
vt 0.816520 0.648408
vt 0.816520 0.650430
vt 0.815137 0.650430
vt 0.815137 0.648408
vt 0.813068 0.650430
vt 0.813068 0.648408
vt 0.810626 0.650430
vt 0.810626 0.648408
vt 0.404337 0.065680
vt 0.402522 0.065680
vt 0.402522 0.063490
vt 0.404337 0.063490
vt 0.402522 0.026202
vt 0.404337 0.026202
vt 0.404337 0.028392
vt 0.402522 0.028392
vt 0.834283 0.681486
vt 0.836306 0.681486
vt 0.836306 0.682868
vt 0.834283 0.682868
vt 0.834283 0.679416
vt 0.836306 0.679416
vt 0.404337 0.030582
vt 0.402522 0.030582
vt 0.806116 0.648408
vt 0.806116 0.650430
vt 0.804733 0.650430
vt 0.804733 0.648408
vt 0.808185 0.648408
vt 0.808185 0.650430
vt 0.402522 0.061300
vt 0.404337 0.061300
vt 0.403069 0.694392
vt 0.403501 0.692223
vt 0.404729 0.690385
vt 0.406568 0.689156
vt 0.408737 0.688725
vt 0.410905 0.689156
vt 0.412744 0.690385
vt 0.413972 0.692223
vt 0.414404 0.694392
vt 0.413972 0.696561
vt 0.412744 0.698399
vt 0.410905 0.699628
vt 0.408737 0.700059
vt 0.406568 0.699628
vt 0.404729 0.698399
vt 0.403501 0.696561
vt 0.431270 0.157519
vt 0.423317 0.157519
vt 0.431270 0.155419
vt 0.423317 0.155419
vt 0.431270 0.159619
vt 0.423317 0.159619
vt 0.431270 0.161719
vt 0.423317 0.161719
vt 0.431270 0.163820
vt 0.423317 0.163820
vt 0.431270 0.165920
vt 0.423317 0.165920
vt 0.431270 0.168020
vt 0.423317 0.168020
vt 0.431270 0.153318
vt 0.423317 0.153318
vt 0.431270 0.151218
vt 0.423317 0.151218
vt 0.911462 0.539521
vt 0.912684 0.539521
vt 0.911462 0.578944
vt 0.912684 0.578944
vt 0.913906 0.539521
vt 0.913906 0.578944
vt 0.915128 0.539521
vt 0.915129 0.578944
vt 0.901684 0.539521
vt 0.902906 0.539521
vt 0.901684 0.578944
vt 0.902906 0.578944
vt 0.904128 0.539521
vt 0.904128 0.578944
vt 0.905350 0.539521
vt 0.905350 0.578944
vt 0.910240 0.578944
vt 0.910240 0.539521
vt 0.900461 0.578944
vt 0.900461 0.539521
vt 0.899239 0.578944
vt 0.898017 0.578944
vt 0.899239 0.539521
vt 0.898017 0.539521
vt 0.896795 0.578944
vt 0.896795 0.539521
vt 0.895572 0.578944
vt 0.895572 0.539521
vt 0.909017 0.578944
vt 0.907795 0.578944
vt 0.909017 0.539521
vt 0.907795 0.539521
vt 0.906573 0.578944
vt 0.906573 0.539521
vt 0.237328 0.691205
vt 0.237633 0.692743
vt 0.236457 0.689902
vt 0.237328 0.694280
vt 0.236457 0.695583
vt 0.235154 0.696454
vt 0.233616 0.696760
vt 0.232079 0.696454
vt 0.230776 0.695583
vt 0.229905 0.694280
vt 0.229599 0.692743
vt 0.229905 0.691205
vt 0.230776 0.689902
vt 0.232079 0.689031
vt 0.233616 0.688725
vt 0.235154 0.689031
vt 0.988668 0.880725
vt 0.987797 0.882029
vt 0.988974 0.879188
vt 0.986494 0.882899
vt 0.984957 0.883205
vt 0.983420 0.882899
vt 0.982116 0.882029
vt 0.981245 0.880725
vt 0.980940 0.879188
vt 0.981245 0.877651
vt 0.982116 0.876347
vt 0.983420 0.875477
vt 0.984957 0.875171
vt 0.986494 0.875477
vt 0.987797 0.876347
vt 0.988668 0.877651
vt 0.931819 0.199117
vt 0.931819 0.185259
vt 0.933386 0.199116
vt 0.933386 0.185259
vt 0.934953 0.199116
vt 0.934953 0.185259
vt 0.936521 0.199116
vt 0.936521 0.185259
vt 0.919279 0.199116
vt 0.919279 0.185259
vt 0.920847 0.199117
vt 0.920847 0.185259
vt 0.922414 0.199117
vt 0.922414 0.185259
vt 0.923981 0.199116
vt 0.923981 0.185259
vt 0.930251 0.185259
vt 0.930251 0.199116
vt 0.917712 0.185259
vt 0.917712 0.199116
vt 0.916144 0.185259
vt 0.916144 0.199116
vt 0.914577 0.185259
vt 0.914577 0.199116
vt 0.913010 0.185259
vt 0.913010 0.199116
vt 0.911442 0.185259
vt 0.911442 0.199117
vt 0.928684 0.185259
vt 0.928684 0.199117
vt 0.927116 0.185259
vt 0.927116 0.199117
vt 0.925549 0.185259
vt 0.925549 0.199116
vt 0.756173 0.938794
vt 0.752747 0.938794
vt 0.756173 0.834730
vt 0.752747 0.834730
vt 0.549322 0.170473
vt 0.549322 0.212804
vt 0.545895 0.170473
vt 0.545895 0.212804
vt 0.367824 0.646395
vt 0.382283 0.646395
vt 0.367824 0.688725
vt 0.382283 0.704602
vt 0.906706 0.206627
vt 0.898856 0.214477
vt 0.906706 0.118263
vt 0.898856 0.110413
vt 0.941186 0.206627
vt 0.941186 0.214477
vt 0.200596 0.831859
vt 0.200596 0.797379
vt 0.204023 0.831859
vt 0.204023 0.797379
vt 0.288413 0.158270
vt 0.288413 0.161697
vt 0.200049 0.158270
vt 0.200049 0.161697
vt 0.013992 0.178473
vt 0.013992 0.143993
vt 0.102357 0.178473
vt 0.102357 0.143993
vt 0.926020 0.180864
vt 0.911442 0.180864
vt 0.926020 0.122657
vt 0.911442 0.122657
vt 0.884628 0.903995
vt 0.884628 0.900568
vt 0.942833 0.903995
vt 0.942833 0.900568
vt 0.531667 0.905820
vt 0.531667 0.902394
vt 0.589874 0.905820
vt 0.589874 0.902394
vt 0.942834 0.896173
vt 0.884628 0.896173
vt 0.942834 0.891502
vt 0.884628 0.891502
vt 0.489531 0.371391
vt 0.489531 0.313185
vt 0.497499 0.371391
vt 0.497499 0.313185
vt 0.370984 0.848796
vt 0.370984 0.852223
vt 0.312777 0.848796
vt 0.312777 0.852223
vt 0.748010 0.834730
vt 0.748010 0.892937
vt 0.740160 0.834730
vt 0.740160 0.892937
vt 0.833388 0.663260
vt 0.833388 0.666687
vt 0.775183 0.663260
vt 0.775183 0.666687
vt 0.983018 0.207234
vt 0.979591 0.207234
vt 0.983018 0.199384
vt 0.979591 0.199384
vt 0.983018 0.184806
vt 0.979591 0.184806
vt 0.983018 0.176838
vt 0.979591 0.176838
vt 0.960145 0.859744
vt 0.960145 0.851895
vt 0.963572 0.859744
vt 0.963572 0.851895
vt 0.960145 0.837317
vt 0.960145 0.829349
vt 0.963572 0.837317
vt 0.963572 0.829349
vt 0.960145 0.814889
vt 0.960145 0.807039
vt 0.963572 0.814889
vt 0.963572 0.807039
vt 0.974920 0.218739
vt 0.968243 0.871250
vt 0.963572 0.871250
vt 0.968243 0.654464
vt 0.963572 0.718674
vt 0.415122 0.684330
vt 0.403617 0.684330
vt 0.415122 0.626124
vt 0.403617 0.626124
vt 0.979591 0.218739
vt 0.494456 0.375786
vt 0.497883 0.375786
vt 0.494456 0.418116
vt 0.497883 0.418116
vt 0.263759 0.646395
vt 0.263759 0.688725
vt 0.249299 0.646395
vt 0.249299 0.704602
vt 0.941186 0.110413
vt 0.941186 0.118263
vt 0.614851 0.781510
vt 0.614851 0.784937
vt 0.580371 0.781510
vt 0.580371 0.784937
vt 0.308947 0.143993
vt 0.367153 0.143993
vt 0.308947 0.158571
vt 0.367153 0.158571
vt 0.821697 0.895099
vt 0.879902 0.895099
vt 0.821697 0.898526
vt 0.879902 0.898526
vt 0.594598 0.905815
vt 0.652805 0.905815
vt 0.594598 0.909241
vt 0.652805 0.909241
vt 0.468737 0.897999
vt 0.468737 0.893328
vt 0.526942 0.897999
vt 0.526942 0.893328
vt 0.938563 0.072404
vt 0.930595 0.072404
vt 0.938563 0.014198
vt 0.930595 0.014198
vt 0.974920 0.378733
vt 0.974920 0.320527
vt 0.978347 0.378733
vt 0.978347 0.320527
vt 0.890647 0.828901
vt 0.898497 0.828901
vt 0.890647 0.887107
vt 0.898497 0.887107
vt 0.186021 0.914252
vt 0.127815 0.914252
vt 0.186021 0.910825
vt 0.127815 0.910825
vt 0.983018 0.013459
vt 0.983018 0.021308
vt 0.979591 0.013459
vt 0.979591 0.021308
vt 0.983018 0.035886
vt 0.983018 0.043854
vt 0.979591 0.035886
vt 0.979591 0.043854
vt 0.960145 0.665969
vt 0.963572 0.665969
vt 0.960145 0.673819
vt 0.963572 0.673819
vt 0.960145 0.688397
vt 0.963572 0.688397
vt 0.960145 0.696365
vt 0.963572 0.696365
vt 0.960145 0.710824
vt 0.963572 0.710824
vt 0.960145 0.718674
vt 0.974920 0.001953
vt 0.963572 0.654464
vt 0.268452 0.646395
vt 0.326659 0.646395
vt 0.268452 0.657900
vt 0.326659 0.657900
vt 0.979591 0.001953
vt 0.643144 0.748070
vt 0.642712 0.750239
vt 0.642712 0.745901
vt 0.641484 0.752077
vt 0.639645 0.753306
vt 0.637477 0.753737
vt 0.635308 0.753306
vt 0.633469 0.752077
vt 0.632241 0.750239
vt 0.631810 0.748070
vt 0.632241 0.745901
vt 0.633469 0.744063
vt 0.635308 0.742834
vt 0.637477 0.742403
vt 0.639645 0.742834
vt 0.641484 0.744063
vt 0.735436 0.447742
vt 0.737647 0.447742
vt 0.735436 0.449539
vt 0.737647 0.449539
vt 0.739858 0.447742
vt 0.739858 0.449539
vt 0.742069 0.447742
vt 0.742069 0.449539
vt 0.717746 0.447742
vt 0.719958 0.447742
vt 0.717746 0.449539
vt 0.719958 0.449539
vt 0.722169 0.447742
vt 0.722169 0.449539
vt 0.724380 0.447742
vt 0.724380 0.449539
vt 0.733224 0.449539
vt 0.733224 0.447742
vt 0.715535 0.449539
vt 0.715535 0.447742
vt 0.746491 0.447742
vt 0.748703 0.447742
vt 0.746491 0.449539
vt 0.748703 0.449539
vt 0.744280 0.447742
vt 0.744280 0.449539
vt 0.750914 0.447742
vt 0.750914 0.449539
vt 0.728802 0.447742
vt 0.731013 0.447742
vt 0.728802 0.449539
vt 0.731013 0.449539
vt 0.726591 0.447742
vt 0.726591 0.449539
vt 0.795559 0.618934
vt 0.797127 0.618934
vt 0.795559 0.632791
vt 0.797127 0.632791
vt 0.798694 0.618934
vt 0.798694 0.632791
vt 0.800262 0.618934
vt 0.800262 0.632791
vt 0.783020 0.618934
vt 0.784588 0.618934
vt 0.783020 0.632791
vt 0.784587 0.632791
vt 0.786155 0.618934
vt 0.786155 0.632791
vt 0.787722 0.618934
vt 0.787722 0.632791
vt 0.793992 0.632791
vt 0.793992 0.618934
vt 0.781452 0.632791
vt 0.781452 0.618934
vt 0.779885 0.632791
vt 0.778318 0.632791
vt 0.779885 0.618934
vt 0.778318 0.618934
vt 0.776750 0.632791
vt 0.776750 0.618934
vt 0.775183 0.632791
vt 0.775183 0.618934
vt 0.792424 0.632791
vt 0.790857 0.632791
vt 0.792424 0.618934
vt 0.790857 0.618934
vt 0.789290 0.632791
vt 0.789290 0.618934
vt 0.211284 0.805107
vt 0.209981 0.804236
vt 0.212822 0.805413
vt 0.209110 0.802933
vt 0.208804 0.801396
vt 0.209110 0.799858
vt 0.209981 0.798555
vt 0.211284 0.797684
vt 0.212822 0.797378
vt 0.214359 0.797684
vt 0.215662 0.798555
vt 0.216533 0.799858
vt 0.216839 0.801396
vt 0.216533 0.802933
vt 0.215662 0.804236
vt 0.214359 0.805107
vt 0.158542 0.805107
vt 0.157005 0.805413
vt 0.159845 0.804236
vt 0.155467 0.805107
vt 0.154164 0.804236
vt 0.153293 0.802933
vt 0.152987 0.801396
vt 0.153293 0.799858
vt 0.154164 0.798555
vt 0.155467 0.797684
vt 0.157005 0.797378
vt 0.158542 0.797684
vt 0.159845 0.798555
vt 0.160716 0.799858
vt 0.161022 0.801396
vt 0.160716 0.802933
vt 0.371878 0.150294
vt 0.371878 0.148193
vt 0.379831 0.150294
vt 0.379831 0.148193
vt 0.371878 0.152394
vt 0.379831 0.152394
vt 0.371878 0.154494
vt 0.379831 0.154494
vt 0.371878 0.156595
vt 0.379831 0.156595
vt 0.371878 0.158695
vt 0.379831 0.158695
vt 0.371878 0.160795
vt 0.379831 0.160795
vt 0.371878 0.146093
vt 0.371878 0.143993
vt 0.379831 0.146093
vt 0.379831 0.143993
vt 0.659718 0.454902
vt 0.770539 0.454902
vt 0.659718 0.667203
vt 0.770539 0.667203
vt 0.224755 0.621729
vt 0.221391 0.618365
vt 0.430327 0.621729
vt 0.433691 0.618365
vt 0.224755 0.725821
vt 0.221391 0.729186
vt 0.430327 0.725821
vt 0.433691 0.729186
vt 0.890647 0.618934
vt 0.940782 0.618934
vt 0.890647 0.824506
vt 0.940782 0.824506
vt 0.106045 0.848474
vt 0.106045 0.898609
vt 0.001953 0.848474
vt 0.001953 0.898609
vt 0.944612 0.428707
vt 0.894478 0.428707
vt 0.944612 0.223134
vt 0.894478 0.223134
vt 0.110851 0.848474
vt 0.214943 0.848474
vt 0.110851 0.898609
vt 0.214943 0.898609
vt 0.643664 0.738008
vt 0.438092 0.738008
vt 0.643664 0.633916
vt 0.438092 0.633916
vt 0.816865 0.791484
vt 0.816865 0.902305
vt 0.763144 0.791484
vt 0.763144 0.902305
vt 0.889646 0.223134
vt 0.889646 0.435435
vt 0.835925 0.223134
vt 0.835925 0.435435
vt 0.710344 0.872225
vt 0.599523 0.872225
vt 0.710344 0.818505
vt 0.599523 0.818505
vt 0.894131 0.218739
vt 0.835925 0.218739
vt 0.894131 0.001953
vt 0.835925 0.001953
vn -0.382680 0.923881 0.000000
vn -0.382680 0.923881 0.000000
vn -0.707107 0.707106 0.000000
vn -0.707107 0.707106 0.000000
vn -0.382680 0.923881 0.000000
vn -0.707106 0.707107 0.000000
vn -0.707107 0.707106 0.000000
vn -0.707106 0.707107 0.000000
vn -0.923880 0.382683 0.000000
vn -0.923880 0.382683 0.000000
vn -0.707106 0.707107 0.000000
vn -0.923880 0.382683 0.000000
vn -0.923880 0.382683 0.000000
vn -0.923880 0.382683 0.000000
vn -1.000000 -0.000000 0.000000
vn -1.000000 -0.000000 0.000000
vn -0.923880 0.382683 0.000000
vn -1.000000 0.000000 0.000000
vn 0.382680 -0.923881 0.000000
vn 0.382680 -0.923881 0.000000
vn 0.707107 -0.707106 0.000000
vn 0.707107 -0.707106 0.000000
vn 0.382680 -0.923881 0.000000
vn 0.707107 -0.707107 0.000000
vn 0.707107 -0.707106 0.000000
vn 0.707107 -0.707107 0.000000
vn 0.923880 -0.382683 0.000000
vn 0.923880 -0.382683 0.000000
vn 0.707107 -0.707107 0.000000
vn 0.923880 -0.382683 0.000000
vn 0.923880 -0.382683 0.000000
vn 0.923880 -0.382683 0.000000
vn 1.000000 0.000000 0.000000
vn 1.000000 0.000000 0.000000
vn 0.923880 -0.382683 0.000000
vn 1.000000 -0.000000 0.000000
vn -0.382680 0.923881 0.000000
vn -0.382680 0.923881 0.000000
vn 0.000000 1.000000 0.000000
vn 0.000000 1.000000 0.000000
vn -0.382680 0.923881 0.000000
vn 0.000000 1.000000 0.000000
vn 0.382680 -0.923881 0.000000
vn 0.382680 -0.923881 0.000000
vn 0.000000 -1.000000 0.000000
vn 0.000000 -1.000000 0.000000
vn 0.382680 -0.923881 0.000000
vn 0.000000 -1.000000 0.000000
vn -0.707106 -0.707107 0.000000
vn -0.707106 -0.707108 0.000000
vn -0.382680 -0.923881 0.000000
vn -0.382680 -0.923881 0.000000
vn -0.707106 -0.707108 0.000000
vn -0.382680 -0.923881 0.000000
vn -0.923880 -0.382682 0.000000
vn -0.923880 -0.382682 0.000000
vn -0.707106 -0.707107 0.000000
vn -0.707106 -0.707107 0.000000
vn -0.923880 -0.382682 0.000000
vn -0.707106 -0.707108 0.000000
vn -1.000000 -0.000000 0.000000
vn -1.000000 0.000000 0.000000
vn -0.923880 -0.382682 0.000000
vn -0.923880 -0.382682 0.000000
vn -1.000000 0.000000 0.000000
vn -0.923880 -0.382682 0.000000
vn -0.382680 -0.923881 0.000000
vn -0.382680 -0.923881 0.000000
vn 0.000000 -1.000000 0.000000
vn 0.000000 -1.000000 0.000000
vn -0.382680 -0.923881 0.000000
vn 0.000000 -1.000000 0.000000
vn 0.707107 0.707107 0.000000
vn 0.707106 0.707107 0.000000
vn 0.382680 0.923881 0.000000
vn 0.382680 0.923881 0.000000
vn 0.707106 0.707107 0.000000
vn 0.382680 0.923881 0.000000
vn 0.923880 0.382682 0.000000
vn 0.923880 0.382682 0.000000
vn 0.707107 0.707107 0.000000
vn 0.707107 0.707107 0.000000
vn 0.923880 0.382682 0.000000
vn 0.707106 0.707107 0.000000
vn 1.000000 0.000000 0.000000
vn 1.000000 -0.000000 0.000000
vn 0.923880 0.382682 0.000000
vn 0.923880 0.382682 0.000000
vn 1.000000 -0.000000 0.000000
vn 0.923880 0.382682 0.000000
vn 0.382680 0.923881 0.000000
vn 0.382680 0.923881 0.000000
vn 0.000000 1.000000 0.000000
vn 0.000000 1.000000 0.000000
vn 0.382680 0.923881 0.000000
vn 0.000000 1.000000 0.000000
vn 0.000000 0.000000 1.000000
vn 0.000000 0.000000 1.000000
vn 0.000000 0.000000 1.000000
vn 0.000000 0.000000 1.000000
vn 0.000000 0.000000 1.000000
vn 0.000000 0.000000 1.000000
vn 0.000000 0.000000 1.000000
vn 0.000001 0.000000 1.000000
vn 0.000000 0.000000 1.000000
vn 0.000001 0.000000 1.000000
vn 0.000000 0.000000 1.000000
vn 0.000000 0.000000 1.000000
vn 0.000000 0.000000 1.000000
vn 0.000000 0.000000 1.000000
vn 0.000000 0.000000 1.000000
vn 0.000000 0.000000 1.000000
vn 0.000002 0.000000 1.000000
vn 0.000000 0.000000 1.000000
vn 0.000002 0.000000 1.000000
vn 0.000002 0.000000 1.000000
vn 0.000000 0.000000 1.000000
vn 0.000002 0.000000 1.000000
vn 0.000000 0.000000 1.000000
vn 0.000000 0.000000 1.000000
vn 0.000000 0.000000 1.000000
vn 0.000000 0.000000 1.000000
vn 0.000000 0.000000 1.000000
vn 0.000000 0.000000 1.000000
vn 0.000000 0.000000 1.000000
vn 0.000000 0.000000 1.000000
vn 0.000000 0.000000 1.000000
vn 0.000000 0.000000 1.000000
vn 0.000000 0.000000 1.000000
vn 0.000000 0.000000 1.000000
vn 0.000000 0.000000 1.000000
vn 0.000000 0.000000 1.000000
vn 0.000000 0.000000 1.000000
vn 0.000000 0.000000 1.000000
vn 0.000000 0.000000 1.000000
vn 0.000000 0.000000 1.000000
vn 0.000000 0.000000 1.000000
vn 0.000000 0.000000 1.000000
vn 0.707109 0.707104 0.000000
vn 0.707109 0.707105 0.000000
vn 1.000000 0.000000 0.000000
vn 1.000000 0.000000 0.000000
vn 0.707109 0.707105 0.000000
vn 1.000000 0.000000 0.000000
vn 0.000000 1.000000 0.000000
vn 0.000000 1.000000 0.000000
vn 0.707109 0.707104 0.000000
vn 0.707109 0.707104 0.000000
vn 0.000000 1.000000 0.000000
vn 0.707109 0.707105 0.000000
vn -0.707109 0.707104 0.000000
vn -0.707109 0.707105 0.000000
vn 0.000000 1.000000 0.000000
vn 0.000000 1.000000 0.000000
vn -0.707109 0.707105 0.000000
vn 0.000000 1.000000 0.000000
vn -1.000000 -0.000001 0.000000
vn -1.000000 0.000001 0.000000
vn -0.707109 0.707104 0.000000
vn -0.707109 0.707104 0.000000
vn -1.000000 0.000001 0.000000
vn -0.707109 0.707105 0.000000
vn -0.707109 -0.707105 0.000000
vn -0.707109 -0.707105 0.000000
vn -1.000000 -0.000001 0.000000
vn -1.000000 -0.000001 0.000000
vn -0.707109 -0.707105 0.000000
vn -1.000000 0.000001 0.000000
vn -0.382686 -0.923878 0.000000
vn -0.382685 -0.923879 0.000000
vn -0.707109 -0.707105 0.000000
vn -0.707109 -0.707105 0.000000
vn -0.382685 -0.923879 0.000000
vn -0.707109 -0.707105 0.000000
vn 0.707109 -0.707105 0.000000
vn 0.707109 -0.707104 0.000000
vn 0.382686 -0.923878 0.000000
vn 0.382686 -0.923878 0.000000
vn 0.707109 -0.707104 0.000000
vn 0.382686 -0.923879 0.000000
vn 1.000000 0.000000 0.000000
vn 1.000000 0.000000 0.000000
vn 0.707109 -0.707105 0.000000
vn 0.707109 -0.707105 0.000000
vn 1.000000 0.000000 0.000000
vn 0.707109 -0.707104 0.000000
vn 0.000000 0.923881 -0.382679
vn 0.000000 0.707114 -0.707100
vn 0.000000 0.923882 -0.382678
vn 0.000000 0.923882 -0.382678
vn 0.000000 0.707114 -0.707100
vn 0.000000 0.707114 -0.707099
vn 0.000000 0.707114 -0.707100
vn 0.000000 0.382688 -0.923878
vn 0.000000 0.707114 -0.707099
vn 0.000000 0.707114 -0.707099
vn 0.000000 0.382688 -0.923878
vn 0.000000 0.382689 -0.923877
vn 0.000000 0.382688 -0.923878
vn 0.000000 0.000000 -1.000000
vn 0.000000 0.382689 -0.923877
vn 0.000000 0.382689 -0.923877
vn 0.000000 0.000000 -1.000000
vn 0.000000 -0.000000 -1.000000
vn 0.000000 -0.923877 0.382689
vn 0.000000 -0.707107 0.707106
vn 0.000000 -0.923877 0.382691
vn 0.000000 -0.923877 0.382691
vn 0.000000 -0.707107 0.707106
vn 0.000000 -0.707113 0.707100
vn 0.000000 -0.707107 0.707106
vn 0.000000 -0.382694 0.923875
vn 0.000000 -0.707113 0.707100
vn 0.000000 -0.707113 0.707100
vn 0.000000 -0.382694 0.923875
vn 0.000000 -0.382693 0.923875
vn 0.000000 -0.382694 0.923875
vn 0.000000 0.000000 1.000000
vn 0.000000 -0.382693 0.923875
vn 0.000000 -0.382693 0.923875
vn 0.000000 0.000000 1.000000
vn 0.000000 -0.000000 1.000000
vn 0.000000 0.923882 -0.382678
vn 0.000000 1.000000 0.000002
vn 0.000000 0.923881 -0.382679
vn 0.000000 0.923881 -0.382679
vn 0.000000 1.000000 0.000002
vn 0.000000 1.000000 -0.000002
vn 0.000000 -0.923877 0.382691
vn 0.000000 -1.000000 0.000001
vn 0.000000 -0.923877 0.382689
vn 0.000000 -0.923877 0.382689
vn 0.000000 -1.000000 0.000001
vn 0.000000 -1.000000 -0.000001
vn 0.000000 -0.923879 -0.382684
vn 0.000000 -0.707115 -0.707099
vn 0.000000 -0.923879 -0.382686
vn 0.000000 -0.923879 -0.382686
vn 0.000000 -0.707115 -0.707099
vn 0.000000 -0.707106 -0.707107
vn 0.000000 -0.707115 -0.707099
vn 0.000000 -0.382694 -0.923875
vn 0.000000 -0.707106 -0.707107
vn 0.000000 -0.707106 -0.707107
vn 0.000000 -0.382694 -0.923875
vn 0.000000 -0.382693 -0.923876
vn 0.000000 -0.382694 -0.923875
vn 0.000000 -0.000000 -1.000000
vn 0.000000 -0.382693 -0.923876
vn 0.000000 -0.382693 -0.923876
vn 0.000000 -0.000000 -1.000000
vn 0.000000 0.000000 -1.000000
vn 0.000000 -0.923879 -0.382686
vn 0.000000 -1.000000 -0.000001
vn 0.000000 -0.923879 -0.382684
vn 0.000000 -0.923879 -0.382684
vn 0.000000 -1.000000 -0.000001
vn 0.000000 -1.000000 0.000001
vn 0.000000 0.923879 0.382684
vn 0.000000 0.707114 0.707100
vn 0.000000 0.923880 0.382683
vn 0.000000 0.923880 0.382683
vn 0.000000 0.707114 0.707100
vn 0.000000 0.707114 0.707099
vn 0.000000 0.707114 0.707100
vn 0.000000 0.382688 0.923878
vn 0.000000 0.707114 0.707099
vn 0.000000 0.707114 0.707099
vn 0.000000 0.382688 0.923878
vn 0.000000 0.382689 0.923877
vn 0.000000 0.382688 0.923878
vn 0.000000 -0.000000 1.000000
vn 0.000000 0.382689 0.923877
vn 0.000000 0.382689 0.923877
vn 0.000000 -0.000000 1.000000
vn 0.000000 0.000000 1.000000
vn 0.000000 0.923880 0.382683
vn 0.000000 1.000000 -0.000002
vn 0.000000 0.923879 0.382684
vn 0.000000 0.923879 0.382684
vn 0.000000 1.000000 -0.000002
vn 0.000000 1.000000 0.000002
vn 1.000000 0.000000 0.000000
vn 1.000000 0.000007 0.000000
vn 1.000000 0.000000 0.000000
vn 1.000000 0.000007 0.000000
vn 1.000000 -0.000003 0.000000
vn 1.000000 0.000000 0.000000
vn 1.000000 -0.000003 0.000000
vn 1.000000 -0.000001 0.000000
vn 1.000000 0.000000 0.000000
vn 1.000000 -0.000001 0.000000
vn 1.000000 0.000003 0.000000
vn 1.000000 0.000000 0.000000
vn 1.000000 0.000003 0.000000
vn 1.000000 -0.000001 0.000000
vn 1.000000 0.000000 0.000000
vn 1.000000 -0.000001 0.000000
vn 1.000000 -0.000001 0.000000
vn 1.000000 0.000000 0.000000
vn 1.000000 -0.000001 0.000000
vn 1.000000 0.000002 0.000000
vn 1.000000 0.000000 0.000000
vn 1.000000 0.000002 0.000000
vn 1.000000 0.000002 0.000000
vn 1.000000 0.000000 0.000000
vn 1.000000 0.000002 0.000000
vn 1.000000 0.000000 0.000000
vn 1.000000 0.000000 0.000000
vn 1.000000 0.000000 0.000000
vn 1.000000 0.000000 0.000000
vn 1.000000 0.000000 0.000000
vn 1.000000 0.000000 0.000000
vn 1.000000 0.000000 0.000000
vn 1.000000 0.000000 0.000000
vn 1.000000 0.000000 0.000000
vn 1.000000 0.000000 0.000000
vn 1.000000 0.000000 0.000000
vn 1.000000 0.000000 0.000000
vn 1.000000 0.000000 0.000000
vn 1.000000 0.000000 0.000000
vn 1.000000 0.000000 0.000000
vn 1.000000 0.000000 0.000000
vn 1.000000 0.000000 0.000000
vn -1.000000 -0.000005 0.000000
vn -1.000000 -0.000000 0.000000
vn -1.000000 0.000000 0.000000
vn -1.000000 -0.000000 0.000000
vn -1.000000 0.000002 0.000000
vn -1.000000 0.000000 0.000000
vn -1.000000 0.000002 0.000000
vn -1.000000 -0.000001 0.000000
vn -1.000000 0.000000 0.000000
vn -1.000000 -0.000001 0.000000
vn -1.000000 -0.000000 0.000000
vn -1.000000 0.000000 0.000000
vn -1.000000 -0.000000 0.000000
vn -1.000000 0.000001 0.000000
vn -1.000000 0.000000 0.000000
vn -1.000000 0.000001 0.000000
vn -1.000000 0.000000 0.000000
vn -1.000000 0.000000 0.000000
vn -1.000000 0.000000 0.000000
vn -1.000000 0.000000 0.000000
vn -1.000000 0.000000 0.000000
vn -1.000000 0.000000 0.000000
vn -1.000000 0.000000 0.000000
vn -1.000000 0.000000 0.000000
vn -1.000000 0.000000 0.000000
vn -1.000000 0.000000 0.000000
vn -1.000000 0.000000 0.000000
vn -1.000000 0.000000 0.000000
vn -1.000000 0.000000 0.000000
vn -1.000000 0.000000 0.000000
vn -1.000000 0.000000 0.000000
vn -1.000000 0.000000 0.000000
vn -1.000000 0.000000 0.000000
vn -1.000000 0.000000 0.000000
vn -1.000000 0.000000 0.000000
vn -1.000000 0.000000 0.000000
vn -1.000000 0.000000 0.000000
vn -1.000000 0.000000 0.000000
vn -1.000000 0.000000 0.000000
vn -1.000000 0.000000 0.000000
vn -1.000000 0.000000 0.000000
vn -1.000000 0.000000 0.000000
vn 0.000000 0.923882 -0.382677
vn 0.000000 0.923883 -0.382675
vn 0.000000 0.707112 -0.707101
vn 0.000000 0.707112 -0.707101
vn 0.000000 0.923883 -0.382675
vn 0.000000 0.707112 -0.707101
vn 0.000000 0.707112 -0.707101
vn 0.000000 0.707112 -0.707101
vn 0.000000 0.382683 -0.923880
vn 0.000000 0.382683 -0.923880
vn 0.000000 0.707112 -0.707101
vn 0.000000 0.382683 -0.923880
vn 0.000000 0.382683 -0.923880
vn 0.000000 0.382683 -0.923880
vn 0.000000 0.000000 -1.000000
vn 0.000000 0.000000 -1.000000
vn 0.000000 0.382683 -0.923880
vn -0.000000 0.000000 -1.000000
vn 0.000000 -0.923877 0.382689
vn 0.000000 -0.923877 0.382689
vn 0.000000 -0.707106 0.707107
vn 0.000000 -0.707106 0.707107
vn 0.000000 -0.923877 0.382689
vn -0.000001 -0.707112 0.707101
vn 0.000000 -0.707106 0.707107
vn -0.000001 -0.707112 0.707101
vn -0.000001 -0.382687 0.923878
vn -0.000001 -0.382687 0.923878
vn -0.000001 -0.707112 0.707101
vn -0.000001 -0.382688 0.923878
vn -0.000001 -0.382687 0.923878
vn -0.000001 -0.382688 0.923878
vn -0.000000 -0.000000 1.000000
vn -0.000000 -0.000000 1.000000
vn -0.000001 -0.382688 0.923878
vn 0.000000 0.000000 1.000000
vn 0.000000 0.923883 -0.382675
vn 0.000000 0.923882 -0.382677
vn 0.000000 1.000000 0.000001
vn 0.000000 1.000000 0.000001
vn 0.000000 0.923882 -0.382677
vn 0.000000 1.000000 -0.000001
vn 0.000000 -0.923877 0.382689
vn 0.000000 -0.923877 0.382689
vn 0.000000 -1.000000 0.000001
vn 0.000000 -1.000000 0.000001
vn 0.000000 -0.923877 0.382689
vn 0.000000 -1.000000 -0.000001
vn 0.000000 -0.923879 -0.382685
vn 0.000000 -0.923879 -0.382685
vn 0.000000 -0.707112 -0.707102
vn 0.000000 -0.707112 -0.707102
vn 0.000000 -0.923879 -0.382685
vn -0.000001 -0.707108 -0.707106
vn 0.000000 -0.707112 -0.707102
vn -0.000001 -0.707108 -0.707106
vn -0.000001 -0.382687 -0.923878
vn -0.000001 -0.382687 -0.923878
vn -0.000001 -0.707108 -0.707106
vn -0.000001 -0.382687 -0.923878
vn -0.000001 -0.382687 -0.923878
vn -0.000001 -0.382687 -0.923878
vn -0.000000 0.000000 -1.000000
vn -0.000000 0.000000 -1.000000
vn -0.000001 -0.382687 -0.923878
vn 0.000000 0.000000 -1.000000
vn 0.000000 -0.923879 -0.382685
vn 0.000000 -0.923879 -0.382685
vn 0.000000 -1.000000 -0.000001
vn 0.000000 -1.000000 -0.000001
vn 0.000000 -0.923879 -0.382685
vn 0.000000 -1.000000 0.000001
vn 0.000000 0.923881 0.382681
vn 0.000000 0.923881 0.382679
vn 0.000000 0.707112 0.707101
vn 0.000000 0.707112 0.707101
vn 0.000000 0.923881 0.382679
vn 0.000000 0.707112 0.707101
vn 0.000000 0.707112 0.707101
vn 0.000000 0.707112 0.707101
vn 0.000000 0.382683 0.923880
vn 0.000000 0.382683 0.923880
vn 0.000000 0.707112 0.707101
vn 0.000000 0.382683 0.923880
vn 0.000000 0.382683 0.923880
vn 0.000000 0.382683 0.923880
vn 0.000000 0.000000 1.000000
vn 0.000000 0.000000 1.000000
vn 0.000000 0.382683 0.923880
vn -0.000000 -0.000000 1.000000
vn 0.000000 0.923881 0.382679
vn 0.000000 0.923881 0.382681
vn 0.000000 1.000000 -0.000001
vn 0.000000 1.000000 -0.000001
vn 0.000000 0.923881 0.382681
vn 0.000000 1.000000 0.000001
vn 0.000000 1.000000 0.000000
vn 0.000000 1.000000 0.000000
vn 0.000000 1.000000 0.000000
vn 0.000000 1.000000 0.000000
vn 0.000000 1.000000 0.000000
vn 0.000000 1.000000 0.000000
vn 1.000000 0.000000 0.000000
vn 1.000000 0.000000 0.000000
vn 1.000000 0.000000 0.000000
vn 1.000000 0.000000 0.000000
vn 1.000000 0.000000 0.000000
vn 1.000000 0.000000 0.000000
vn 0.000000 0.000000 1.000000
vn -0.000000 0.000000 1.000000
vn -0.000000 0.000000 1.000000
vn -0.000000 0.000000 1.000000
vn -0.000000 0.000000 1.000000
vn -0.000000 0.000000 1.000000
vn 0.000000 0.000000 1.000000
vn 0.000000 0.000000 1.000000
vn -0.000000 0.000000 1.000000
vn -0.000000 0.000000 1.000000
vn 0.000000 0.000000 1.000000
vn -0.000000 0.000000 1.000000
vn 0.000000 0.000000 1.000000
vn 0.000000 0.000000 1.000000
vn 0.000000 0.000000 1.000000
vn 0.000000 0.000000 1.000000
vn 0.000000 0.000000 1.000000
vn 0.000000 0.000000 1.000000
vn -1.000000 0.000000 0.000000
vn -1.000000 0.000000 0.000000
vn -1.000000 0.000000 0.000000
vn -1.000000 0.000000 0.000000
vn -1.000000 0.000000 0.000000
vn -1.000000 0.000000 0.000000
vn 0.000000 -1.000000 0.000000
vn 0.000000 -1.000000 0.000000
vn 0.000000 -1.000000 0.000000
vn 0.000000 -1.000000 0.000000
vn 0.000000 -1.000000 0.000000
vn 0.000000 -1.000000 0.000000
vn 0.000000 0.000000 1.000000
vn 0.000000 0.000000 1.000000
vn 0.000000 0.000000 1.000000
vn 0.000000 0.000000 1.000000
vn 0.000000 0.000000 1.000000
vn 0.000000 0.000000 1.000000
vn 0.000000 0.000000 1.000000
vn 0.000000 0.000000 1.000000
vn 0.000000 0.000000 1.000000
vn 0.000000 0.000000 1.000000
vn 0.000000 0.000000 1.000000
vn 0.000000 0.000000 1.000000
vn -1.000000 0.000000 0.000000
vn -1.000000 0.000000 0.000000
vn -1.000000 0.000000 0.000000
vn -1.000000 0.000000 0.000000
vn -1.000000 0.000000 0.000000
vn -1.000000 0.000000 0.000000
vn -1.000000 0.000000 0.000000
vn -1.000000 0.000000 0.000000
vn -1.000000 0.000000 0.000000
vn -1.000000 0.000000 0.000000
vn -1.000000 0.000000 0.000000
vn -1.000000 0.000000 0.000000
vn 1.000000 0.000000 0.000000
vn 1.000000 0.000000 0.000000
vn 1.000000 0.000000 0.000000
vn 1.000000 0.000000 0.000000
vn 1.000000 0.000000 0.000000
vn 1.000000 0.000000 0.000000
vn 0.000000 0.000000 1.000000
vn 0.000000 0.000000 1.000000
vn 0.000000 0.000000 1.000000
vn 0.000000 0.000000 1.000000
vn 0.000000 0.000000 1.000000
vn 0.000000 0.000000 1.000000
vn 1.000000 -0.000001 0.000000
vn 1.000000 -0.000001 0.000000
vn 1.000000 -0.000001 0.000000
vn 1.000000 -0.000001 0.000000
vn 1.000000 -0.000001 0.000000
vn 1.000000 -0.000001 0.000000
vn 0.000000 0.000000 1.000000
vn 0.000000 0.000000 1.000000
vn 0.000000 0.000000 1.000000
vn 0.000000 0.000000 1.000000
vn 0.000000 0.000000 1.000000
vn 0.000000 0.000000 1.000000
vn 1.000000 0.000000 0.000000
vn 1.000000 0.000000 0.000000
vn 1.000000 0.000000 0.000000
vn 1.000000 0.000000 0.000000
vn 1.000000 0.000000 0.000000
vn 1.000000 0.000000 0.000000
vn 0.000000 1.000000 0.000000
vn 0.000000 1.000000 0.000000
vn 0.000000 1.000000 0.000000
vn 0.000000 1.000000 0.000000
vn 0.000000 1.000000 0.000000
vn 0.000000 1.000000 0.000002
vn 0.000000 1.000000 0.000000
vn 0.000000 1.000000 -0.000005
vn 0.000000 1.000000 0.000000
vn 0.000000 1.000000 0.000000
vn 0.000000 1.000000 -0.000005
vn 0.000000 1.000000 -0.000000
vn 0.000000 -1.000000 0.000000
vn 0.000000 -1.000000 0.000000
vn 0.000000 -1.000000 0.000000
vn 0.000000 -1.000000 0.000000
vn 0.000000 -1.000000 0.000000
vn 0.000000 -1.000000 0.000000
vn 0.000000 -1.000000 0.000000
vn 0.000000 -1.000000 0.000000
vn 0.000000 -1.000000 0.000000
vn 0.000000 -1.000000 0.000000
vn 0.000000 -1.000000 0.000000
vn 0.000000 -1.000000 0.000000
vn 0.000000 -1.000000 0.000000
vn 0.000000 -1.000000 0.000000
vn 0.000000 -1.000000 0.000000
vn 0.000000 -1.000000 0.000000
vn 0.000000 -1.000000 0.000000
vn 0.000000 -1.000000 0.000000
vn 0.000000 1.000000 0.000000
vn 0.000000 1.000000 -0.000005
vn 0.000000 1.000000 0.000002
vn 0.000000 -1.000000 0.000000
vn 0.000000 -1.000000 0.000000
vn 0.000000 -1.000000 0.000000
vn 0.000000 -1.000000 0.000000
vn 0.000000 -1.000000 0.000000
vn 0.000000 -1.000000 0.000000
vn 0.000000 -1.000000 0.000000
vn 0.000000 -1.000000 0.000000
vn 0.000000 -1.000000 0.000000
vn 0.000000 -1.000000 0.000000
vn 0.000000 -1.000000 0.000000
vn 0.000000 -1.000000 0.000000
vn 0.000000 -1.000000 0.000000
vn 0.000000 -1.000000 0.000000
vn 0.000000 -1.000000 0.000000
vn 0.000000 -1.000000 0.000000
vn 0.000000 -1.000000 0.000000
vn 0.000000 -1.000000 0.000000
vn 0.000000 -1.000000 0.000000
vn 0.000000 -1.000000 0.000000
vn 0.000000 -1.000000 0.000000
vn 0.000000 -1.000000 0.000000
vn 0.000000 -1.000000 0.000000
vn 0.000000 -1.000000 0.000000
vn 0.000000 1.000000 0.000000
vn 0.000000 1.000000 0.000000
vn 0.000000 1.000000 0.000002
vn 0.000000 1.000000 -0.000005
vn 0.000000 1.000000 0.000000
vn 0.000000 1.000000 -0.000000
vn 0.000000 0.000000 1.000000
vn 0.000000 0.000000 1.000000
vn 0.000000 0.000000 1.000000
vn 0.000000 0.000000 1.000000
vn 0.000000 0.000000 1.000000
vn 0.000000 0.000000 1.000000
vn 0.000000 1.000000 0.000000
vn 0.000000 1.000000 0.000000
vn 0.000000 1.000000 0.000000
vn -1.000000 0.000000 0.000000
vn -1.000000 0.000000 0.000000
vn -1.000000 0.000000 0.000000
vn -1.000000 0.000000 0.000000
vn -1.000000 0.000000 0.000000
vn -1.000000 0.000000 0.000000
vn 0.000000 0.000000 1.000000
vn 0.000000 0.000000 1.000000
vn 0.000000 0.000000 1.000000
vn 0.000000 0.000000 1.000000
vn 0.000000 0.000000 1.000000
vn 0.000000 0.000000 1.000000
vn -0.000000 0.000000 1.000000
vn 0.000000 0.000000 1.000000
vn -0.000000 0.000000 1.000000
vn -0.000000 0.000000 1.000000
vn 0.000000 0.000000 1.000000
vn 0.000000 0.000000 1.000000
vn -0.000000 0.000000 1.000000
vn -0.000000 0.000000 1.000000
vn -0.000000 0.000000 1.000000
vn -0.000000 0.000000 1.000000
vn -0.000000 0.000000 1.000000
vn 0.000000 0.000000 1.000000
vn 1.000000 0.000000 0.000000
vn 1.000000 0.000000 0.000000
vn 1.000000 0.000000 0.000000
vn 1.000000 0.000000 0.000000
vn 1.000000 0.000000 0.000000
vn 1.000000 0.000000 0.000000
vn 0.000000 0.000000 1.000000
vn 0.000000 0.000000 1.000000
vn 0.000000 0.000000 1.000000
vn 0.000000 0.000000 1.000000
vn 0.000000 0.000000 1.000000
vn 0.000000 0.000000 1.000000
vn 1.000000 0.000000 0.000000
vn 1.000000 0.000000 0.000000
vn 1.000000 0.000000 0.000000
vn 1.000000 0.000000 0.000000
vn 1.000000 0.000000 0.000000
vn 1.000000 0.000000 0.000000
vn 1.000000 0.000000 0.000000
vn 1.000000 0.000000 0.000000
vn 1.000000 0.000000 0.000000
vn 1.000000 0.000000 0.000000
vn 1.000000 0.000000 0.000000
vn 1.000000 0.000000 0.000000
vn -1.000000 0.000000 0.000000
vn -1.000000 0.000000 0.000000
vn -1.000000 0.000000 0.000000
vn -1.000000 0.000000 0.000000
vn -1.000000 0.000000 0.000000
vn -1.000000 0.000000 0.000000
vn 0.000000 0.000000 1.000000
vn 0.000000 0.000000 1.000000
vn 0.000000 0.000000 1.000000
vn 0.000000 0.000000 1.000000
vn 0.000000 0.000000 1.000000
vn 0.000000 0.000000 1.000000
vn -1.000000 -0.000001 0.000000
vn -1.000000 -0.000001 0.000000
vn -1.000000 -0.000001 0.000000
vn -1.000000 -0.000001 0.000000
vn -1.000000 -0.000001 0.000000
vn -1.000000 -0.000001 0.000000
vn 0.000000 0.000000 1.000000
vn 0.000000 0.000000 1.000000
vn 0.000000 0.000000 1.000000
vn 0.000000 0.000000 1.000000
vn 0.000000 0.000000 1.000000
vn 0.000000 0.000000 1.000000
vn -1.000000 0.000000 0.000000
vn -1.000000 0.000000 0.000000
vn -1.000000 0.000000 0.000000
vn -1.000000 0.000000 0.000000
vn -1.000000 0.000000 0.000000
vn -1.000000 0.000000 0.000000
vn 0.000000 1.000000 0.000000
vn 0.000000 1.000000 0.000000
vn 0.000000 1.000000 0.000000
vn 0.000000 1.000000 0.000000
vn 0.000000 1.000000 0.000000
vn 0.000000 1.000000 0.000004
vn 0.000000 1.000000 0.000000
vn 0.000000 1.000000 0.000000
vn 0.000000 1.000000 -0.000005
vn 0.000000 1.000000 -0.000005
vn 0.000000 1.000000 0.000000
vn 0.000000 1.000000 -0.000000
vn 0.000000 -1.000000 0.000000
vn 0.000000 -1.000000 0.000000
vn 0.000000 -1.000000 0.000000
vn 0.000000 -1.000000 0.000000
vn 0.000000 -1.000000 0.000000
vn 0.000000 -1.000000 0.000000
vn 0.000000 -1.000000 0.000000
vn 0.000000 -1.000000 0.000000
vn 0.000000 -1.000000 0.000000
vn 0.000000 -1.000000 0.000000
vn 0.000000 -1.000000 0.000000
vn 0.000000 -1.000000 0.000000
vn 0.000000 -1.000000 0.000000
vn 0.000000 -1.000000 0.000000
vn 0.000000 -1.000000 0.000000
vn 0.000000 -1.000000 0.000000
vn 0.000000 -1.000000 0.000000
vn 0.000000 -1.000000 0.000000
vn 0.000000 1.000000 0.000000
vn 0.000000 1.000000 0.000000
vn 0.000000 1.000000 -0.000000
vn 0.000000 1.000000 -0.000000
vn 0.000000 1.000000 0.000000
vn 0.000000 1.000000 -0.000000
vn 0.000000 1.000000 0.000000
vn 0.000000 1.000000 0.000004
vn 0.000000 1.000000 -0.000005
vn 0.000000 -1.000000 0.000000
vn 0.000000 -1.000000 0.000000
vn 0.000000 -1.000000 0.000000
vn 0.000000 -1.000000 0.000000
vn 0.000000 -1.000000 0.000000
vn 0.000000 -1.000000 0.000000
vn 0.000000 -1.000000 0.000000
vn 0.000000 -1.000000 0.000000
vn 0.000000 -1.000000 0.000000
vn 0.000000 -1.000000 0.000000
vn 0.000000 -1.000000 0.000000
vn 0.000000 -1.000000 0.000000
vn 0.000000 -1.000000 0.000000
vn 0.000000 -1.000000 0.000000
vn 0.000000 -1.000000 0.000000
vn 0.000000 -1.000000 0.000000
vn 0.000000 -1.000000 0.000000
vn 0.000000 -1.000000 0.000000
vn 0.000000 1.000000 0.000000
vn 0.000000 1.000000 0.000004
vn 0.000000 1.000000 0.000000
vn 0.000000 1.000000 -0.000005
vn 0.000000 1.000000 -0.000000
vn 0.000000 1.000000 0.000000
vn 0.000000 0.000000 1.000000
vn 0.000000 0.000000 1.000000
vn 0.000000 0.000000 1.000000
vn 0.000000 0.000000 1.000000
vn 0.000000 0.000000 1.000000
vn 0.000000 0.000000 1.000000
vn 0.000000 1.000000 0.000000
vn 0.000000 1.000000 0.000000
vn 0.000000 1.000000 0.000000
vn 0.000000 0.000000 1.000000
vn 0.000000 0.000000 1.000000
vn 0.000000 0.000000 1.000000
vn 0.000000 0.000000 1.000000
vn 0.000000 0.000000 1.000000
vn 0.000000 0.000000 1.000000
vn 0.000000 0.000000 1.000000
vn 0.000001 0.000000 1.000000
vn 0.000000 0.000000 1.000000
vn 0.000001 0.000000 1.000000
vn 0.000000 0.000000 1.000000
vn 0.000000 0.000000 1.000000
vn 0.000000 0.000000 1.000000
vn 0.000000 0.000000 1.000000
vn 0.000000 0.000000 1.000000
vn 0.000000 0.000000 1.000000
vn 0.000002 0.000000 1.000000
vn 0.000000 0.000000 1.000000
vn 0.000002 0.000000 1.000000
vn 0.000002 0.000000 1.000000
vn 0.000000 0.000000 1.000000
vn 0.000002 0.000000 1.000000
vn 0.000000 0.000000 1.000000
vn 0.000000 0.000000 1.000000
vn 0.000000 0.000000 1.000000
vn 0.000000 0.000000 1.000000
vn 0.000000 0.000000 1.000000
vn 0.000000 0.000000 1.000000
vn 0.000000 0.000000 1.000000
vn 0.000000 0.000000 1.000000
vn 0.000000 0.000000 1.000000
vn 0.000000 0.000000 1.000000
vn 0.000000 0.000000 1.000000
vn 0.000000 0.000000 1.000000
vn 0.000000 0.000000 1.000000
vn 0.000000 0.000000 1.000000
vn 0.000000 0.000000 1.000000
vn 0.000000 0.000000 1.000000
vn 0.000000 0.000000 1.000000
vn 0.000000 0.000000 1.000000
vn 0.000000 0.000000 1.000000
vn 0.000000 0.000000 1.000000
vn 0.382680 0.923881 0.000000
vn 0.707107 0.707106 0.000000
vn 0.382680 0.923881 0.000000
vn 0.382680 0.923881 0.000000
vn 0.707107 0.707106 0.000000
vn 0.707106 0.707107 0.000000
vn 0.707107 0.707106 0.000000
vn 0.923880 0.382683 0.000000
vn 0.707106 0.707107 0.000000
vn 0.707106 0.707107 0.000000
vn 0.923880 0.382683 0.000000
vn 0.923880 0.382683 0.000000
vn 0.923880 0.382683 0.000000
vn 1.000000 -0.000000 0.000000
vn 0.923880 0.382683 0.000000
vn 0.923880 0.382683 0.000000
vn 1.000000 -0.000000 0.000000
vn 1.000000 0.000000 0.000000
vn -0.382680 -0.923881 0.000000
vn -0.707107 -0.707106 0.000000
vn -0.382680 -0.923881 0.000000
vn -0.382680 -0.923881 0.000000
vn -0.707107 -0.707106 0.000000
vn -0.707107 -0.707107 0.000000
vn -0.707107 -0.707106 0.000000
vn -0.923880 -0.382683 0.000000
vn -0.707107 -0.707107 0.000000
vn -0.707107 -0.707107 0.000000
vn -0.923880 -0.382683 0.000000
vn -0.923880 -0.382683 0.000000
vn -0.923880 -0.382683 0.000000
vn -1.000000 0.000000 0.000000
vn -0.923880 -0.382683 0.000000
vn -0.923880 -0.382683 0.000000
vn -1.000000 0.000000 0.000000
vn -1.000000 -0.000000 0.000000
vn 0.382680 0.923881 0.000000
vn -0.000000 1.000000 0.000000
vn 0.382680 0.923881 0.000000
vn 0.382680 0.923881 0.000000
vn -0.000000 1.000000 0.000000
vn 0.000000 1.000000 0.000000
vn -0.382680 -0.923881 0.000000
vn 0.000000 -1.000000 0.000000
vn -0.382680 -0.923881 0.000000
vn -0.382680 -0.923881 0.000000
vn 0.000000 -1.000000 0.000000
vn -0.000000 -1.000000 0.000000
vn 0.707106 -0.707107 0.000000
vn 0.382680 -0.923881 0.000000
vn 0.707106 -0.707108 0.000000
vn 0.707106 -0.707108 0.000000
vn 0.382680 -0.923881 0.000000
vn 0.382680 -0.923881 0.000000
vn 0.923880 -0.382682 0.000000
vn 0.707106 -0.707107 0.000000
vn 0.923880 -0.382682 0.000000
vn 0.923880 -0.382682 0.000000
vn 0.707106 -0.707107 0.000000
vn 0.707106 -0.707108 0.000000
vn 1.000000 -0.000000 0.000000
vn 0.923880 -0.382682 0.000000
vn 1.000000 0.000000 0.000000
vn 1.000000 0.000000 0.000000
vn 0.923880 -0.382682 0.000000
vn 0.923880 -0.382682 0.000000
vn 0.382680 -0.923881 0.000000
vn -0.000000 -1.000000 0.000000
vn 0.382680 -0.923881 0.000000
vn 0.382680 -0.923881 0.000000
vn -0.000000 -1.000000 0.000000
vn 0.000000 -1.000000 0.000000
vn -0.707107 0.707107 0.000000
vn -0.382680 0.923881 0.000000
vn -0.707106 0.707107 0.000000
vn -0.707106 0.707107 0.000000
vn -0.382680 0.923881 0.000000
vn -0.382680 0.923881 0.000000
vn -0.923880 0.382682 0.000000
vn -0.707107 0.707107 0.000000
vn -0.923880 0.382682 0.000000
vn -0.923880 0.382682 0.000000
vn -0.707107 0.707107 0.000000
vn -0.707106 0.707107 0.000000
vn -1.000000 0.000000 0.000000
vn -0.923880 0.382682 0.000000
vn -1.000000 -0.000000 0.000000
vn -1.000000 -0.000000 0.000000
vn -0.923880 0.382682 0.000000
vn -0.923880 0.382682 0.000000
vn -0.382680 0.923881 0.000000
vn 0.000000 1.000000 0.000000
vn -0.382680 0.923881 0.000000
vn -0.382680 0.923881 0.000000
vn 0.000000 1.000000 0.000000
vn -0.000000 1.000000 0.000000
vn 0.000000 0.923882 -0.382677
vn 0.000000 0.707112 -0.707101
vn 0.000000 0.923883 -0.382675
vn 0.000000 0.923883 -0.382675
vn 0.000000 0.707112 -0.707101
vn 0.000000 0.707112 -0.707101
vn 0.000000 0.707112 -0.707101
vn 0.000000 0.382683 -0.923880
vn 0.000000 0.707112 -0.707101
vn 0.000000 0.707112 -0.707101
vn 0.000000 0.382683 -0.923880
vn 0.000000 0.382683 -0.923880
vn 0.000000 0.382683 -0.923880
vn 0.000000 0.000000 -1.000000
vn 0.000000 0.382683 -0.923880
vn 0.000000 0.382683 -0.923880
vn 0.000000 0.000000 -1.000000
vn 0.000001 0.000000 -1.000000
vn 0.000000 -0.923877 0.382689
vn 0.000000 -0.707106 0.707107
vn 0.000000 -0.923877 0.382689
vn 0.000000 -0.923877 0.382689
vn 0.000000 -0.707106 0.707107
vn 0.000001 -0.707112 0.707101
vn 0.000000 -0.707106 0.707107
vn 0.000001 -0.382687 0.923878
vn 0.000001 -0.707112 0.707101
vn 0.000001 -0.707112 0.707101
vn 0.000001 -0.382687 0.923878
vn 0.000001 -0.382688 0.923878
vn 0.000001 -0.382687 0.923878
vn 0.000000 -0.000000 1.000000
vn 0.000001 -0.382688 0.923878
vn 0.000001 -0.382688 0.923878
vn 0.000000 -0.000000 1.000000
vn 0.000000 0.000000 1.000000
vn 0.000000 0.923883 -0.382675
vn 0.000000 1.000000 0.000001
vn 0.000000 0.923882 -0.382677
vn 0.000000 0.923882 -0.382677
vn 0.000000 1.000000 0.000001
vn 0.000000 1.000000 -0.000001
vn 0.000000 -0.923877 0.382689
vn 0.000000 -1.000000 0.000001
vn 0.000000 -0.923877 0.382689
vn 0.000000 -0.923877 0.382689
vn 0.000000 -1.000000 0.000001
vn 0.000000 -1.000000 -0.000001
vn 0.000000 -0.923879 -0.382685
vn 0.000000 -0.707112 -0.707102
vn 0.000000 -0.923879 -0.382685
vn 0.000000 -0.923879 -0.382685
vn 0.000000 -0.707112 -0.707102
vn 0.000001 -0.707108 -0.707106
vn 0.000000 -0.707112 -0.707102
vn 0.000001 -0.382687 -0.923878
vn 0.000001 -0.707108 -0.707106
vn 0.000001 -0.707108 -0.707106
vn 0.000001 -0.382687 -0.923878
vn 0.000001 -0.382687 -0.923878
vn 0.000001 -0.382687 -0.923878
vn 0.000001 0.000000 -1.000000
vn 0.000001 -0.382687 -0.923878
vn 0.000001 -0.382687 -0.923878
vn 0.000001 0.000000 -1.000000
vn 0.000000 0.000000 -1.000000
vn 0.000000 -0.923879 -0.382685
vn 0.000000 -1.000000 -0.000001
vn 0.000000 -0.923879 -0.382685
vn 0.000000 -0.923879 -0.382685
vn 0.000000 -1.000000 -0.000001
vn 0.000000 -1.000000 0.000001
vn 0.000000 0.923881 0.382681
vn 0.000000 0.707112 0.707101
vn 0.000000 0.923881 0.382679
vn 0.000000 0.923881 0.382679
vn 0.000000 0.707112 0.707101
vn 0.000000 0.707112 0.707101
vn 0.000000 0.707112 0.707101
vn 0.000000 0.382683 0.923880
vn 0.000000 0.707112 0.707101
vn 0.000000 0.707112 0.707101
vn 0.000000 0.382683 0.923880
vn 0.000000 0.382683 0.923880
vn 0.000000 0.382683 0.923880
vn 0.000000 0.000000 1.000000
vn 0.000000 0.382683 0.923880
vn 0.000000 0.382683 0.923880
vn 0.000000 0.000000 1.000000
vn 0.000000 -0.000000 1.000000
vn 0.000000 0.923881 0.382679
vn 0.000000 1.000000 -0.000001
vn 0.000000 0.923881 0.382681
vn 0.000000 0.923881 0.382681
vn 0.000000 1.000000 -0.000001
vn 0.000000 1.000000 0.000001
vn -1.000000 0.000000 0.000000
vn -1.000000 0.000000 0.000000
vn -1.000000 0.000000 0.000000
vn -1.000000 0.000000 0.000000
vn -1.000000 0.000004 0.000000
vn -1.000000 0.000000 0.000000
vn -1.000000 0.000004 0.000000
vn -1.000000 0.000001 0.000000
vn -1.000000 0.000000 0.000000
vn -1.000000 0.000001 0.000000
vn -1.000000 0.000000 0.000000
vn -1.000000 0.000000 0.000000
vn -1.000000 0.000000 0.000000
vn -1.000000 0.000000 0.000000
vn -1.000000 0.000000 0.000000
vn -1.000000 0.000000 0.000000
vn -1.000000 0.000000 0.000000
vn -1.000000 0.000000 0.000000
vn -1.000000 0.000000 0.000000
vn -1.000000 0.000000 0.000000
vn -1.000000 0.000000 0.000000
vn -1.000000 0.000000 0.000000
vn -1.000000 -0.000000 0.000000
vn -1.000000 0.000000 0.000000
vn -1.000000 -0.000000 0.000000
vn -1.000000 -0.000001 0.000000
vn -1.000000 0.000000 0.000000
vn -1.000000 -0.000001 0.000000
vn -1.000000 0.000000 0.000000
vn -1.000000 0.000000 0.000000
vn -1.000000 0.000000 0.000000
vn -1.000000 0.000000 0.000000
vn -1.000000 0.000000 0.000000
vn -1.000000 0.000000 0.000000
vn -1.000000 0.000000 0.000000
vn -1.000000 0.000000 0.000000
vn -1.000000 0.000000 0.000000
vn -1.000000 0.000000 0.000000
vn -1.000000 0.000000 0.000000
vn -1.000000 0.000000 0.000000
vn -1.000000 0.000000 0.000000
vn -1.000000 0.000000 0.000000
vn 1.000000 -0.000005 0.000000
vn 1.000000 -0.000000 0.000000
vn 1.000000 0.000000 0.000000
vn 1.000000 -0.000000 0.000000
vn 1.000000 0.000000 0.000000
vn 1.000000 0.000000 0.000000
vn 1.000000 0.000000 0.000000
vn 1.000000 0.000000 0.000000
vn 1.000000 0.000000 0.000000
vn 1.000000 0.000000 0.000000
vn 1.000000 0.000000 0.000000
vn 1.000000 0.000000 0.000000
vn 1.000000 0.000000 0.000000
vn 1.000000 0.000000 0.000000
vn 1.000000 0.000000 0.000000
vn 1.000000 0.000000 0.000000
vn 1.000000 0.000000 0.000000
vn 1.000000 0.000000 0.000000
vn 1.000000 0.000000 0.000000
vn 1.000000 0.000000 0.000000
vn 1.000000 0.000000 0.000000
vn 1.000000 0.000000 0.000000
vn 1.000000 0.000000 0.000000
vn 1.000000 0.000000 0.000000
vn 1.000000 0.000000 0.000000
vn 1.000000 0.000000 0.000000
vn 1.000000 0.000000 0.000000
vn 1.000000 0.000000 0.000000
vn 1.000000 0.000001 0.000000
vn 1.000000 0.000000 0.000000
vn 1.000000 0.000001 0.000000
vn 1.000000 0.000000 0.000000
vn 1.000000 0.000000 0.000000
vn 1.000000 0.000000 0.000000
vn 1.000000 0.000000 0.000000
vn 1.000000 0.000000 0.000000
vn 1.000000 0.000000 0.000000
vn 1.000000 0.000000 0.000000
vn 1.000000 0.000000 0.000000
vn 1.000000 0.000000 0.000000
vn 1.000000 0.000000 0.000000
vn 1.000000 0.000000 0.000000
vn -0.707109 0.707104 0.000000
vn -1.000000 0.000000 0.000000
vn -0.707109 0.707105 0.000000
vn -0.707109 0.707105 0.000000
vn -1.000000 0.000000 0.000000
vn -1.000000 0.000000 0.000000
vn -0.000000 1.000000 0.000000
vn -0.707109 0.707104 0.000000
vn -0.000000 1.000000 0.000000
vn -0.000000 1.000000 0.000000
vn -0.707109 0.707104 0.000000
vn -0.707109 0.707105 0.000000
vn 0.707109 0.707104 0.000000
vn -0.000000 1.000000 0.000000
vn 0.707109 0.707105 0.000000
vn 0.707109 0.707105 0.000000
vn -0.000000 1.000000 0.000000
vn -0.000000 1.000000 0.000000
vn 1.000000 -0.000001 0.000000
vn 0.707109 0.707104 0.000000
vn 1.000000 0.000001 0.000000
vn 1.000000 0.000001 0.000000
vn 0.707109 0.707104 0.000000
vn 0.707109 0.707105 0.000000
vn 0.707109 -0.707105 0.000000
vn 1.000000 -0.000001 0.000000
vn 0.707109 -0.707105 0.000000
vn 0.707109 -0.707105 0.000000
vn 1.000000 -0.000001 0.000000
vn 1.000000 0.000001 0.000000
vn 0.000000 -1.000000 0.000000
vn 0.707109 -0.707105 0.000000
vn 0.000000 -1.000000 0.000000
vn 0.000000 -1.000000 0.000000
vn 0.707109 -0.707105 0.000000
vn 0.707109 -0.707105 0.000000
vn -0.707109 -0.707105 0.000000
vn 0.000000 -1.000000 0.000000
vn -0.707109 -0.707104 0.000000
vn -0.707109 -0.707104 0.000000
vn 0.000000 -1.000000 0.000000
vn 0.000000 -1.000000 0.000000
vn -1.000000 0.000000 0.000000
vn -0.707109 -0.707105 0.000000
vn -1.000000 0.000000 0.000000
vn -1.000000 0.000000 0.000000
vn -0.707109 -0.707105 0.000000
vn -0.707109 -0.707104 0.000000
vn 0.000000 -1.000000 0.000000
vn 0.000000 -1.000000 0.000000
vn 0.000000 -1.000000 0.000000
vn 0.000000 -1.000000 0.000000
vn 0.000000 -1.000000 0.000000
vn 0.000000 -1.000000 0.000000
vn 0.000000 1.000000 0.000000
vn 0.000000 1.000000 -0.000000
vn 0.000000 1.000000 -0.000000
vn 0.000000 1.000000 -0.000000
vn 0.000000 1.000000 -0.000000
vn 0.000000 1.000000 -0.000000
vn 0.000000 1.000000 0.000000
vn 0.000000 1.000000 0.000000
vn 0.000000 1.000000 0.000000
vn 0.000000 1.000000 0.000000
vn 0.000000 1.000000 0.000000
vn 0.000000 1.000000 -0.000000
vn 0.000000 1.000000 -0.000000
vn 0.000000 1.000000 -0.000000
vn 0.000000 1.000000 0.000000
vn 0.000000 1.000000 0.000000
vn 0.000000 1.000000 -0.000000
vn 0.000000 1.000000 0.000000
vn 0.000000 1.000000 0.000000
vn 0.000000 1.000000 0.000000
vn 0.000000 1.000000 0.000000
vn 0.000000 1.000000 0.000000
vn 0.000000 1.000000 0.000000
vn 0.000000 1.000000 0.000000
vn 0.000000 0.000000 -1.000000
vn 0.000000 0.000000 -1.000000
vn 0.000000 0.000000 -1.000000
vn 0.000000 0.000000 -1.000000
vn 0.000000 0.000000 -1.000000
vn 0.000000 0.000000 -1.000000
vn 1.000000 0.000000 0.000000
vn 1.000000 0.000000 0.000000
vn 1.000000 0.000000 0.000000
vn 1.000000 0.000000 0.000000
vn 1.000000 0.000000 0.000000
vn 1.000000 0.000000 0.000000
vn 0.000000 0.000000 1.000000
vn 0.000000 0.000000 1.000000
vn 0.000000 0.000000 1.000000
vn 0.000000 0.000000 1.000000
vn 0.000000 0.000000 1.000000
vn 0.000000 0.000000 1.000000
vn -1.000000 0.000000 0.000000
vn -1.000000 0.000000 0.000000
vn -1.000000 0.000000 0.000000
vn -1.000000 0.000000 0.000000
vn -1.000000 0.000000 0.000000
vn -1.000000 0.000000 0.000000
vn 0.000000 1.000000 0.000000
vn 0.000000 1.000000 0.000000
vn 0.000000 1.000000 0.000000
vn 0.000000 1.000000 0.000000
vn 0.000000 1.000000 0.000000
vn 0.000000 1.000000 0.000000
vn 1.000000 0.000000 0.000000
vn 1.000000 0.000000 0.000000
vn 1.000000 0.000000 0.000000
vn 1.000000 0.000000 0.000000
vn 1.000000 0.000000 0.000000
vn 1.000000 0.000000 0.000000
vn 0.000000 0.000000 -1.000000
vn 0.000000 0.000000 -1.000000
vn 0.000000 0.000000 -1.000000
vn 0.000000 0.000000 -1.000000
vn 0.000000 0.000000 -1.000000
vn 0.000000 0.000000 -1.000000
vn -1.000000 0.000000 0.000000
vn -1.000000 0.000000 0.000000
vn -1.000000 0.000000 0.000000
vn -1.000000 0.000000 0.000000
vn -1.000000 0.000000 0.000000
vn -1.000000 0.000000 0.000000
vn 0.000000 0.000000 -1.000000
vn 0.000000 0.000000 -1.000000
vn 0.000000 0.000000 -1.000000
vn 0.000000 0.000000 -1.000000
vn 0.000000 0.000000 -1.000000
vn 0.000000 0.000000 -1.000000
s off
g SM_Dresser_01b
f 17/1/1 1/2/2 18/4/3
f 18/4/4 1/2/5 2/3/6
f 18/4/7 2/3/8 19/6/9
f 19/6/10 2/3/11 3/5/12
f 19/6/13 3/5/14 20/8/15
f 20/8/16 3/5/17 4/7/18
f 22/9/19 6/10/20 23/12/21
f 23/12/22 6/10/23 7/11/24
f 23/12/25 7/11/26 24/14/27
f 24/14/28 7/11/29 8/13/30
f 24/14/31 8/13/32 25/16/33
f 25/16/34 8/13/35 9/15/36
f 1/17/37 17/18/38 5/20/39
f 5/20/40 17/18/41 21/19/42
f 6/21/43 22/22/44 10/24/45
f 10/24/46 22/22/47 26/23/48
f 28/25/49 12/26/50 27/28/51
f 27/28/52 12/26/53 11/27/54
f 29/29/55 13/30/56 28/25/57
f 28/25/58 13/30/59 12/26/60
f 20/8/61 4/7/62 29/29/63
f 29/29/64 4/7/65 13/30/66
f 27/31/67 11/32/68 26/23/69
f 26/23/70 11/32/71 10/24/72
f 31/33/73 15/34/74 30/36/75
f 30/36/76 15/34/77 14/35/78
f 32/37/79 16/38/80 31/33/81
f 31/33/82 16/38/83 15/34/84
f 25/16/85 9/15/86 32/37/87
f 32/37/88 9/15/89 16/38/90
f 30/39/91 14/40/92 21/19/93
f 21/19/94 14/40/95 5/20/96
f 21/41/97 17/42/98 30/56/99
f 17/42/100 18/43/101 30/56/102
f 18/43/103 19/44/104 30/56/105
f 19/44/106 20/45/107 30/56/108
f 20/45/109 29/46/110 30/56/111
f 29/46/112 28/47/113 30/56/114
f 28/47/115 27/48/116 30/56/117
f 27/48/118 26/49/119 30/56/120
f 26/49/121 22/50/122 30/56/123
f 22/50/124 23/51/125 30/56/126
f 23/51/127 24/52/128 30/56/129
f 24/52/130 25/53/131 30/56/132
f 25/53/133 32/54/134 30/56/135
f 32/54/136 31/55/137 30/56/138
f 40/57/139 48/58/140 37/59/141
f 37/59/142 48/58/143 45/60/144
f 35/61/145 43/62/146 40/57/147
f 40/57/148 43/62/149 48/58/150
f 33/63/151 41/64/152 35/61/153
f 35/61/154 41/64/155 43/62/156
f 34/65/157 42/66/158 33/63/159
f 33/63/160 42/66/161 41/64/162
f 39/67/163 47/68/164 34/65/165
f 34/65/166 47/68/167 42/66/168
f 38/69/169 46/70/170 39/67/171
f 39/67/172 46/70/173 47/68/174
f 36/71/175 44/72/176 38/73/177
f 38/73/178 44/72/179 46/74/180
f 37/59/181 45/60/182 36/71/183
f 36/71/184 45/60/185 44/72/186
f 65/75/187 66/76/188 49/77/189
f 49/77/190 66/76/191 50/78/192
f 66/76/193 67/79/194 50/78/195
f 50/78/196 67/79/197 51/80/198
f 67/79/199 68/81/200 51/80/201
f 51/80/202 68/81/203 52/82/204
f 70/83/205 71/84/206 54/85/207
f 54/85/208 71/84/209 55/86/210
f 71/84/211 72/87/212 55/86/213
f 55/86/214 72/87/215 56/88/216
f 72/87/217 73/89/218 56/88/219
f 56/88/220 73/89/221 57/90/222
f 49/77/223 53/91/224 65/75/225
f 65/75/226 53/91/227 69/92/228
f 54/85/229 58/93/230 70/83/231
f 70/83/232 58/93/233 74/94/234
f 59/95/235 60/96/236 75/97/237
f 75/97/238 60/96/239 76/98/240
f 60/96/241 61/99/242 76/98/243
f 76/98/244 61/99/245 77/100/246
f 61/99/247 52/101/248 77/100/249
f 77/100/250 52/101/251 68/102/252
f 75/97/253 74/94/254 59/95/255
f 59/95/256 74/94/257 58/93/258
f 62/103/259 63/104/260 78/105/261
f 78/105/262 63/104/263 79/106/264
f 63/104/265 64/107/266 79/106/267
f 79/106/268 64/107/269 80/108/270
f 64/107/271 57/90/272 80/108/273
f 80/108/274 57/90/275 73/89/276
f 78/105/277 69/92/278 62/103/279
f 62/103/280 69/92/281 53/91/282
f 81/109/283 85/110/284 82/111/285
f 85/110/286 94/112/287 82/111/288
f 94/112/289 95/113/290 82/111/291
f 95/113/292 96/114/293 82/111/294
f 96/114/295 89/115/296 82/111/297
f 89/115/298 88/116/299 82/111/300
f 88/116/301 87/117/302 82/111/303
f 87/117/304 86/118/305 82/111/306
f 86/118/307 90/119/308 82/111/309
f 90/119/310 91/120/311 82/111/312
f 91/120/313 92/121/314 82/111/315
f 92/121/316 93/122/317 82/111/318
f 93/122/319 84/123/320 82/111/321
f 84/123/322 83/124/323 82/111/324
f 97/125/325 98/126/326 101/127/327
f 98/126/328 99/128/329 101/127/330
f 99/128/331 100/129/332 101/127/333
f 100/129/334 109/130/335 101/127/336
f 109/130/337 108/131/338 101/127/339
f 108/131/340 107/132/341 101/127/342
f 107/132/343 106/133/344 101/127/345
f 106/133/346 102/134/347 101/127/348
f 102/134/349 103/135/350 101/127/351
f 103/135/352 104/136/353 101/127/354
f 104/136/355 105/137/356 101/127/357
f 105/137/358 112/138/359 101/127/360
f 112/138/361 111/139/362 101/127/363
f 111/139/364 110/140/365 101/127/366
f 97/141/367 81/142/368 98/143/369
f 98/143/370 81/142/371 82/144/372
f 98/143/373 82/144/374 99/145/375
f 99/145/376 82/144/377 83/146/378
f 99/145/379 83/146/380 100/147/381
f 100/147/382 83/146/383 84/148/384
f 102/149/385 86/150/386 103/151/387
f 103/151/388 86/150/389 87/152/390
f 103/151/391 87/152/392 104/153/393
f 104/153/394 87/152/395 88/154/396
f 104/153/397 88/154/398 105/155/399
f 105/155/400 88/154/401 89/156/402
f 81/142/403 97/141/404 85/157/405
f 85/157/406 97/141/407 101/158/408
f 86/150/409 102/149/410 90/159/411
f 90/159/412 102/149/413 106/160/414
f 91/161/415 107/162/416 92/163/417
f 92/163/418 107/162/419 108/164/420
f 92/163/421 108/164/422 93/165/423
f 93/165/424 108/164/425 109/166/426
f 93/165/427 109/166/428 84/167/429
f 84/167/430 109/166/431 100/168/432
f 107/162/433 91/161/434 106/160/435
f 106/160/436 91/161/437 90/159/438
f 94/169/439 110/170/440 95/171/441
f 95/171/442 110/170/443 111/172/444
f 95/171/445 111/172/446 96/173/447
f 96/173/448 111/172/449 112/174/450
f 96/173/451 112/174/452 89/156/453
f 89/156/454 112/174/455 105/155/456
f 110/170/457 94/169/458 101/158/459
f 101/158/460 94/169/461 85/157/462
f 115/175/463 114/176/464 143/177/465
f 143/177/466 114/176/467 142/178/468
f 115/179/469 118/180/470 114/181/471
f 114/181/472 118/180/473 119/182/474
f 119/183/475 122/184/476 114/185/477
f 114/185/478 122/184/479 113/186/480
f 117/187/481 115/188/482 145/189/483
f 145/189/484 115/188/485 143/190/486
f 121/191/487 118/192/488 117/187/489
f 117/187/490 118/192/491 115/188/492
f 116/193/493 120/194/494 117/195/495
f 117/195/496 120/194/497 121/196/498
f 116/197/499 117/198/500 144/199/501
f 144/199/502 117/198/503 145/200/504
f 120/201/505 116/202/506 148/203/507
f 148/203/508 116/202/509 144/204/510
f 135/205/511 134/206/512 124/207/513
f 124/207/514 134/206/515 131/208/516
f 132/209/517 113/210/518 123/211/519
f 123/211/520 113/210/521 122/212/522
f 136/213/523 135/214/524 125/215/525
f 125/215/526 135/214/527 124/216/528
f 127/217/529 139/218/530 126/219/531
f 126/219/532 139/218/533 140/220/534
f 132/221/535 123/222/536 133/223/537
f 133/223/538 123/222/539 129/224/540
f 129/225/541 131/226/542 133/227/543
f 133/227/544 131/226/545 134/228/546
f 136/229/547 125/230/548 137/231/549
f 137/231/550 125/230/551 128/232/552
f 128/233/553 130/234/554 137/235/555
f 137/235/556 130/234/557 138/236/558
f 137/237/559 138/238/560 136/239/561
f 136/239/562 138/238/563 135/240/564
f 133/241/565 134/242/566 132/243/567
f 132/243/568 134/242/569 113/244/570
f 128/245/571 125/246/572 130/247/573
f 130/247/574 125/246/575 124/248/576
f 129/249/577 123/250/578 131/251/579
f 131/251/580 123/250/581 122/252/582
f 118/253/583 121/254/584 119/255/585
f 119/255/586 121/254/587 120/256/588
f 139/257/589 134/242/590 135/240/591
f 130/247/592 127/258/593 126/259/594
f 127/258/595 120/256/596 155/260/597
f 155/260/598 120/256/599 148/261/600
f 127/258/601 124/248/602 131/251/603
f 127/258/604 122/252/605 119/255/606
f 124/248/607 127/258/608 130/247/609
f 122/252/610 127/258/611 131/251/612
f 120/256/613 127/258/614 119/255/615
f 138/238/616 139/257/617 135/240/618
f 134/242/619 139/257/620 113/244/621
f 130/262/622 126/263/623 138/264/624
f 138/264/625 126/263/626 140/265/627
f 138/238/628 140/266/629 139/257/630
f 143/267/631 142/268/632 146/269/633
f 146/269/634 142/268/635 147/270/636
f 147/271/637 142/272/638 150/273/639
f 150/273/640 142/272/641 141/274/642
f 113/186/643 141/274/644 114/185/645
f 114/185/646 141/274/647 142/272/648
f 143/190/649 146/275/650 145/189/651
f 145/189/652 146/275/653 149/276/654
f 144/277/655 145/278/656 148/279/657
f 148/279/658 145/278/659 149/280/660
f 163/281/661 152/282/662 162/283/663
f 162/283/664 152/282/665 159/284/666
f 160/285/667 151/286/668 141/287/669
f 141/287/670 151/286/671 150/288/672
f 164/289/673 153/290/674 163/291/675
f 163/291/676 153/290/677 152/292/678
f 155/293/679 154/294/680 167/295/681
f 167/295/682 154/294/683 168/296/684
f 160/297/685 161/298/686 151/299/687
f 151/299/688 161/298/689 157/300/690
f 157/301/691 161/302/692 159/303/693
f 159/303/694 161/302/695 162/304/696
f 164/305/697 165/306/698 153/307/699
f 153/307/700 165/306/701 156/308/702
f 156/309/703 165/310/704 158/311/705
f 158/311/706 165/310/707 166/312/708
f 165/313/709 164/314/710 166/315/711
f 166/315/712 164/314/713 163/316/714
f 161/317/715 160/318/716 162/319/717
f 162/319/718 160/318/719 141/320/720
f 156/321/721 158/322/722 153/323/723
f 153/323/724 158/322/725 152/324/726
f 157/325/727 159/326/728 151/327/729
f 151/327/730 159/326/731 150/328/732
f 146/329/733 147/330/734 149/331/735
f 149/331/736 147/330/737 148/261/738
f 139/257/739 167/332/740 113/244/741
f 113/244/742 167/332/743 141/320/744
f 167/332/745 163/316/746 162/319/747
f 158/322/748 154/333/749 155/260/750
f 155/260/751 159/326/752 152/324/753
f 155/260/754 147/330/755 150/328/756
f 152/324/757 158/322/758 155/260/759
f 150/328/760 159/326/761 155/260/762
f 148/261/763 147/330/764 155/260/765
f 166/315/766 163/316/767 167/332/768
f 162/319/769 141/320/770 167/332/771
f 158/334/772 166/335/773 154/336/774
f 154/336/775 166/335/776 168/337/777
f 166/315/778 167/332/779 168/338/780
f 173/339/781 182/340/782 169/341/783
f 182/340/784 183/342/785 169/341/786
f 183/342/787 184/343/788 169/341/789
f 184/343/790 177/344/791 169/341/792
f 177/344/793 176/345/794 169/341/795
f 176/345/796 175/346/797 169/341/798
f 175/346/799 174/347/800 169/341/801
f 174/347/802 178/348/803 169/341/804
f 178/348/805 179/349/806 169/341/807
f 179/349/808 180/350/809 169/341/810
f 180/350/811 181/351/812 169/341/813
f 181/351/814 172/352/815 169/341/816
f 172/352/817 171/353/818 169/341/819
f 171/353/820 170/354/821 169/341/822
f 169/355/823 170/356/824 185/357/825
f 185/357/826 170/356/827 186/358/828
f 170/356/829 171/359/830 186/358/831
f 186/358/832 171/359/833 187/360/834
f 171/359/835 172/361/836 187/360/837
f 187/360/838 172/361/839 188/362/840
f 174/363/841 175/364/842 190/365/843
f 190/365/844 175/364/845 191/366/846
f 175/364/847 176/367/848 191/366/849
f 191/366/850 176/367/851 192/368/852
f 176/367/853 177/369/854 192/368/855
f 192/368/856 177/369/857 193/370/858
f 185/357/859 189/371/860 169/355/861
f 169/355/862 189/371/863 173/372/864
f 190/365/865 194/373/866 174/363/867
f 174/363/868 194/373/869 178/374/870
f 180/375/871 179/376/872 196/377/873
f 196/377/874 179/376/875 195/378/876
f 181/379/877 180/375/878 197/380/879
f 197/380/880 180/375/881 196/377/882
f 172/361/883 181/379/884 188/362/885
f 188/362/886 181/379/887 197/380/888
f 179/376/889 178/381/890 195/378/891
f 195/378/892 178/381/893 194/382/894
f 183/383/895 182/384/896 199/385/897
f 199/385/898 182/384/899 198/386/900
f 184/387/901 183/383/902 200/388/903
f 200/388/904 183/383/905 199/385/906
f 177/369/907 184/387/908 193/370/909
f 193/370/910 184/387/911 200/388/912
f 182/384/913 173/372/914 198/386/915
f 198/386/916 173/372/917 189/371/918
f 217/389/919 218/390/920 201/391/921
f 201/391/922 218/390/923 202/392/924
f 218/390/925 219/393/926 202/392/927
f 202/392/928 219/393/929 203/394/930
f 219/393/931 220/395/932 203/394/933
f 203/394/934 220/395/935 204/396/936
f 222/397/937 223/398/938 206/399/939
f 206/399/940 223/398/941 207/400/942
f 223/398/943 224/401/944 207/400/945
f 207/400/946 224/401/947 208/402/948
f 224/401/949 225/403/950 208/402/951
f 208/402/952 225/403/953 209/404/954
f 201/391/955 205/405/956 217/389/957
f 217/389/958 205/405/959 221/406/960
f 206/399/961 210/407/962 222/397/963
f 222/397/964 210/407/965 226/408/966
f 211/409/967 212/410/968 227/411/969
f 227/411/970 212/410/971 228/412/972
f 212/410/973 213/413/974 228/412/975
f 228/412/976 213/413/977 229/414/978
f 213/413/979 204/415/980 229/414/981
f 229/414/982 204/415/983 220/416/984
f 227/411/985 226/408/986 211/409/987
f 211/409/988 226/408/989 210/407/990
f 214/417/991 215/418/992 230/419/993
f 230/419/994 215/418/995 231/420/996
f 215/418/997 216/421/998 231/420/999
f 231/420/1000 216/421/1001 232/422/1002
f 216/421/1003 209/404/1004 232/422/1005
f 232/422/1006 209/404/1007 225/403/1008
f 230/419/1009 221/406/1010 214/417/1011
f 214/417/1012 221/406/1013 205/405/1014
f 201/423/1015 202/424/1016 205/425/1017
f 202/424/1018 203/426/1019 205/425/1020
f 203/426/1021 204/427/1022 205/425/1023
f 204/427/1024 213/428/1025 205/425/1026
f 213/428/1027 212/429/1028 205/425/1029
f 212/429/1030 211/430/1031 205/425/1032
f 211/430/1033 210/431/1034 205/425/1035
f 210/431/1036 206/432/1037 205/425/1038
f 206/432/1039 207/433/1040 205/425/1041
f 207/433/1042 208/434/1043 205/425/1044
f 208/434/1045 209/435/1046 205/425/1047
f 209/435/1048 216/436/1049 205/425/1050
f 216/436/1051 215/437/1052 205/425/1053
f 215/437/1054 214/438/1055 205/425/1056
f 217/439/1057 221/440/1058 218/441/1059
f 221/440/1060 230/442/1061 218/441/1062
f 230/442/1063 231/443/1064 218/441/1065
f 231/443/1066 232/444/1067 218/441/1068
f 232/444/1069 225/445/1070 218/441/1071
f 225/445/1072 224/446/1073 218/441/1074
f 224/446/1075 223/447/1076 218/441/1077
f 223/447/1078 222/448/1079 218/441/1080
f 222/448/1081 226/449/1082 218/441/1083
f 226/449/1084 227/450/1085 218/441/1086
f 227/450/1087 228/451/1088 218/441/1089
f 228/451/1090 229/452/1091 218/441/1092
f 229/452/1093 220/453/1094 218/441/1095
f 220/453/1096 219/454/1097 218/441/1098
f 240/455/1099 237/456/1100 248/457/1101
f 248/457/1102 237/456/1103 245/458/1104
f 235/459/1105 240/455/1106 243/460/1107
f 243/460/1108 240/455/1109 248/457/1110
f 233/461/1111 235/459/1112 241/462/1113
f 241/462/1114 235/459/1115 243/460/1116
f 234/463/1117 233/461/1118 242/464/1119
f 242/464/1120 233/461/1121 241/462/1122
f 239/465/1123 234/463/1124 247/466/1125
f 247/466/1126 234/463/1127 242/464/1128
f 238/467/1129 239/465/1130 246/468/1131
f 246/468/1132 239/465/1133 247/466/1134
f 236/469/1135 238/470/1136 244/471/1137
f 244/471/1138 238/470/1139 246/472/1140
f 237/456/1141 236/469/1142 245/458/1143
f 245/458/1144 236/469/1145 244/471/1146
f 251/473/1147 257/474/1148 258/475/1149
f 258/475/1150 257/474/1151 256/476/1152
f 261/477/1153 249/478/1154 262/479/1155
f 262/479/1156 249/478/1157 250/480/1158
f 252/481/1159 259/482/1160 261/477/1161
f 261/477/1162 259/482/1163 249/478/1164
f 262/479/1165 250/480/1166 253/483/1167
f 253/483/1168 250/480/1169 260/484/1170
f 253/483/1171 260/484/1172 252/481/1173
f 252/481/1174 260/484/1175 259/482/1176
f 263/485/1177 261/486/1178 264/487/1179
f 264/487/1180 261/486/1181 262/488/1182
f 254/489/1183 252/490/1184 263/491/1185
f 263/491/1186 252/490/1187 261/492/1188
f 255/493/1189 253/494/1190 254/495/1191
f 254/495/1192 253/494/1193 252/496/1194
f 255/497/1195 264/498/1196 253/499/1197
f 253/499/1198 264/498/1199 262/500/1200
f 255/501/1201 254/502/1202 264/503/1203
f 264/503/1204 254/502/1205 263/504/1206
f 257/505/1207 251/506/1208 250/507/1209
f 250/507/1210 251/506/1211 260/508/1212
f 251/509/1213 258/510/1214 260/511/1215
f 260/511/1216 258/510/1217 259/512/1218
f 249/513/1219 259/514/1220 256/515/1221
f 256/515/1222 259/514/1223 258/516/1224
f 268/517/1225 267/518/1226 266/519/1227
f 266/519/1228 267/518/1229 265/520/1230
