# This file uses feet as units for non-parametric coordinates.

g default
v -95.180244 0.000000 -23.216709
v 95.180244 0.000000 -23.216709
v 95.180244 0.000000 23.216709
v -95.180244 0.000000 23.216709
v -95.180244 4.406349 -23.216709
v -95.180244 4.406349 23.216709
v 95.180244 4.406349 23.216709
v 95.180244 4.406349 -23.216709
v -100.000000 88.944855 -28.036470
v 100.000000 88.944855 -28.036470
v -100.000000 4.406349 -28.036470
v 100.000000 4.406349 -28.036470
v -100.000000 4.406349 28.036470
v -100.000000 88.944855 28.036470
v 100.000000 88.944855 28.036470
v 100.000000 4.406349 28.036470
v -96.660004 85.604858 28.036469
v 96.660004 85.604858 28.036470
v 96.660004 7.746349 28.036470
v -96.660004 7.746349 28.036470
v -1.000000 7.746349 -23.458637
v 1.000000 7.746349 -23.458637
v 1.000000 7.746349 25.953777
v -1.000000 7.746349 25.953777
v -1.000000 85.604858 -23.458637
v -1.000000 85.604858 25.953777
v 1.000000 85.604858 25.953777
v 1.000000 85.604858 -23.458637
v -96.660004 7.746349 -23.458637
v -96.660004 85.604858 -23.458637
v 96.660004 7.746349 -23.458637
v 96.660004 85.604858 -23.458637
v -1.000000 7.746349 -23.458637
v 1.000000 7.746349 -23.458637
v 1.000000 7.746349 25.953777
v -1.000000 7.746349 25.953777
v -1.000000 85.604858 -23.458637
v -1.000000 85.604858 25.953777
v 1.000000 85.604858 25.953777
v 1.000000 85.604858 -23.458637
vt 0.001953 0.509831
vt 0.428888 0.509831
vt 0.428888 0.613970
vt 0.001953 0.613970
vt 0.945370 0.860034
vt 0.945370 0.433102
vt 0.955252 0.433102
vt 0.955252 0.860034
vt 0.200049 0.143993
vt 0.304188 0.143993
vt 0.304188 0.153875
vt 0.200049 0.153875
vt 0.970028 0.428888
vt 0.960145 0.428888
vt 0.960145 0.001953
vt 0.970028 0.001953
vt 0.483512 0.033058
vt 0.493394 0.033058
vt 0.493394 0.137197
vt 0.483512 0.137197
vt 0.711054 0.450507
vt 0.585296 0.450507
vt 0.585296 0.001953
vt 0.711054 0.001953
vt 0.001953 0.001953
vt 0.009444 0.009444
vt 0.009444 0.184063
vt 0.001953 0.191554
vt 0.450507 0.001953
vt 0.443016 0.009444
vt 0.450507 0.191554
vt 0.443016 0.184063
vt 0.203592 0.013839
vt 0.203592 0.139598
vt 0.013992 0.139598
vt 0.013992 0.013839
vt 0.397858 0.013839
vt 0.397858 0.139598
vt 0.208257 0.139598
vt 0.208257 0.013839
vt 0.001953 0.385549
vt 0.001953 0.195949
vt 0.450507 0.195949
vt 0.450507 0.385549
vt 0.580815 0.450507
vt 0.455056 0.450507
vt 0.465866 0.439697
vt 0.570005 0.439697
vt 0.570005 0.012763
vt 0.580815 0.001953
vt 0.465866 0.012763
vt 0.455056 0.001953
vt 0.001953 0.505436
vt 0.001953 0.389944
vt 0.216496 0.394615
vt 0.216496 0.505436
vt 0.890675 0.614539
vt 0.775183 0.614539
vt 0.775183 0.439920
vt 0.890675 0.439920
vt 0.648226 0.787089
vt 0.648226 0.671598
vt 0.822845 0.671598
vt 0.822845 0.787089
vt 0.715535 0.220982
vt 0.826356 0.220982
vt 0.831027 0.435525
vt 0.715535 0.435525
vt 0.216496 0.618365
vt 0.216496 0.792984
vt 0.001953 0.792984
vt 0.001953 0.618365
vt 0.715535 0.001953
vt 0.831027 0.001953
vt 0.826356 0.216496
vt 0.715535 0.216496
vt 0.220982 0.505436
vt 0.220982 0.394615
vt 0.435525 0.389944
vt 0.435525 0.505436
vt 0.654824 0.629521
vt 0.440281 0.629521
vt 0.440281 0.454902
vt 0.654824 0.454902
vt 0.526303 0.412957
vt 0.521817 0.412957
vt 0.526303 0.238339
vt 0.521817 0.238339
vt 0.396009 0.733581
vt 0.396009 0.844401
vt 0.221391 0.733581
vt 0.221391 0.844401
vt 0.575499 0.853224
vt 0.400881 0.853224
vt 0.575499 0.742403
vt 0.400881 0.742403
vn 0.000000 -1.000000 0.000000
vn 0.000000 -1.000000 0.000000
vn 0.000000 -1.000000 0.000000
vn 0.000000 -1.000000 0.000000
vn 0.000000 -1.000000 0.000000
vn 0.000000 -1.000000 0.000000
vn 0.000000 0.000000 1.000000
vn 0.000000 0.000000 1.000000
vn 0.000000 0.000000 1.000000
vn 0.000000 0.000000 1.000000
vn 0.000000 0.000000 1.000000
vn 0.000000 0.000000 1.000000
vn -1.000000 0.000000 0.000000
vn -1.000000 0.000000 0.000000
vn -1.000000 0.000000 0.000000
vn -1.000000 0.000000 0.000000
vn -1.000000 0.000000 0.000000
vn -1.000000 0.000000 0.000000
vn 0.000000 0.000000 -1.000000
vn 0.000000 0.000000 -1.000000
vn 0.000000 0.000000 -1.000000
vn 0.000000 0.000000 -1.000000
vn 0.000000 0.000000 -1.000000
vn 0.000000 0.000000 -1.000000
vn 1.000000 0.000000 0.000000
vn 1.000000 0.000000 0.000000
vn 1.000000 0.000000 0.000000
vn 1.000000 0.000000 0.000000
vn 1.000000 0.000000 0.000000
vn 1.000000 0.000000 0.000000
vn 0.000000 1.000000 0.000000
vn 0.000000 1.000000 0.000000
vn 0.000000 1.000000 0.000000
vn 0.000000 1.000000 0.000000
vn 0.000000 1.000000 0.000000
vn 0.000000 1.000000 0.000000
vn 0.000000 0.000000 1.000000
vn 0.000000 0.000000 1.000000
vn 0.000000 -0.000000 1.000000
vn 0.000000 -0.000000 1.000000
vn 0.000000 0.000000 1.000000
vn 0.000000 -0.000000 1.000000
vn 0.000000 0.000000 1.000000
vn 0.000000 0.000000 1.000000
vn 0.000001 0.000000 1.000000
vn 0.000001 0.000000 1.000000
vn 0.000000 0.000000 1.000000
vn 0.000000 0.000000 1.000000
vn 0.000001 0.000000 1.000000
vn 0.000000 0.000000 1.000000
vn -0.000000 0.000000 1.000000
vn -0.000000 0.000000 1.000000
vn 0.000000 0.000000 1.000000
vn -0.000000 -0.000000 1.000000
vn 1.000000 0.000000 0.000000
vn 1.000000 0.000000 0.000000
vn 1.000000 0.000000 0.000000
vn 1.000000 0.000000 0.000000
vn 1.000000 0.000000 0.000000
vn 1.000000 0.000000 0.000000
vn 0.000000 -0.000000 1.000000
vn 0.000000 -0.000000 1.000000
vn -0.000000 -0.000000 1.000000
vn -0.000000 -0.000000 1.000000
vn 0.000000 -0.000000 1.000000
vn -0.000000 0.000000 1.000000
vn -1.000000 0.000000 0.000000
vn -1.000000 0.000000 0.000000
vn -1.000000 0.000000 0.000000
vn -1.000000 0.000000 0.000000
vn -1.000000 0.000000 0.000000
vn -1.000000 0.000000 0.000000
vn 0.000000 0.000000 -1.000000
vn 0.000000 0.000000 -1.000000
vn 0.000000 0.000000 -1.000000
vn 0.000000 0.000000 -1.000000
vn 0.000000 0.000000 -1.000000
vn 0.000000 0.000000 -1.000000
vn 0.000000 -1.000000 0.000000
vn 0.000000 -1.000000 0.000000
vn 0.000000 -1.000000 -0.000000
vn 0.000000 -1.000000 -0.000000
vn 0.000000 -1.000000 0.000000
vn 0.000000 -1.000000 0.000000
vn 0.000000 -1.000000 0.000000
vn 0.000000 -1.000000 -0.000000
vn 0.000000 -1.000000 -0.000000
vn 0.000000 -1.000000 -0.000000
vn 0.000000 -1.000000 -0.000000
vn 0.000000 -1.000000 -0.000000
vn 0.000000 -1.000000 -0.000000
vn 0.000000 -1.000000 -0.000000
vn 0.000000 -1.000000 0.000000
vn 0.000000 -1.000000 0.000000
vn 0.000000 -1.000000 -0.000000
vn 0.000000 -1.000000 0.000000
vn 0.000000 -1.000000 0.000000
vn 0.000000 -1.000000 0.000000
vn 0.000000 -1.000000 0.000000
vn 0.000000 -1.000000 0.000000
vn 0.000000 -1.000000 0.000000
vn 0.000000 -1.000000 0.000000
vn -0.000000 1.000000 0.000000
vn -0.000000 1.000000 0.000000
vn -0.000000 1.000000 0.000000
vn -0.000000 1.000000 0.000000
vn -0.000000 1.000000 0.000000
vn -0.000000 1.000000 0.000000
vn 1.000000 0.000000 0.000000
vn 1.000000 -0.000000 0.000000
vn 1.000000 -0.000000 0.000000
vn 1.000000 -0.000000 0.000000
vn 1.000000 -0.000000 0.000000
vn 1.000000 -0.000000 0.000000
vn -1.000000 0.000000 0.000000
vn -1.000000 0.000000 0.000000
vn -1.000000 0.000000 0.000000
vn -1.000000 0.000000 0.000000
vn -1.000000 0.000000 0.000000
vn -1.000000 0.000000 0.000000
vn 0.000000 -1.000000 0.000000
vn 0.000000 -1.000000 0.000000
vn 0.000000 -1.000000 0.000000
vn 0.000000 -1.000000 0.000000
vn 0.000000 -1.000000 0.000000
vn 0.000000 -1.000000 0.000000
vn -0.000000 0.000000 1.000000
vn -0.000000 0.000000 1.000000
vn -0.000000 0.000000 1.000000
vn -0.000000 0.000000 1.000000
vn -0.000000 0.000000 1.000000
vn 0.000000 0.000000 1.000000
vn 0.000000 -1.000000 0.000000
vn 0.000000 -1.000000 0.000001
vn 0.000000 -1.000000 0.000000
vn 0.000000 -1.000000 0.000000
vn 0.000000 -1.000000 0.000001
vn 0.000000 -1.000000 0.000000
vn 0.000000 1.000000 0.000000
vn 0.000000 1.000000 0.000000
vn 0.000000 1.000000 0.000000
vn 0.000000 1.000000 0.000000
vn 0.000000 1.000000 0.000000
vn 0.000000 1.000000 0.000000
vn 0.000000 0.000000 1.000000
vn 0.000000 0.000000 1.000000
vn 0.000000 0.000000 1.000000
vn 0.000000 0.000000 1.000000
vn 0.000000 0.000000 1.000000
vn 0.000000 0.000000 1.000000
vn 0.000000 -1.000000 0.000000
vn 0.000000 -1.000000 0.000000
vn 0.000000 -1.000000 0.000001
vn 0.000000 -1.000000 0.000000
vn 0.000000 -1.000000 0.000000
vn 0.000000 -1.000000 0.000001
vn -0.000000 1.000000 0.000000
vn 0.000000 1.000000 0.000000
vn -0.000000 1.000000 0.000000
vn 0.000000 1.000000 0.000000
vn -0.000000 1.000000 0.000000
vn 0.000000 1.000000 0.000000
vn 0.000000 0.000000 1.000000
vn 0.000000 0.000000 1.000000
vn 0.000000 0.000000 1.000000
vn 0.000000 0.000000 1.000000
vn 0.000000 0.000000 1.000000
vn 0.000000 0.000000 1.000000
vn -1.000000 0.000000 0.000000
vn -1.000000 0.000000 0.000000
vn -1.000000 0.000000 0.000000
vn -1.000000 0.000000 0.000000
vn -1.000000 0.000000 0.000000
vn -1.000000 0.000000 0.000000
vn 1.000000 0.000000 0.000000
vn 1.000000 0.000000 0.000000
vn 1.000000 0.000000 0.000000
vn 1.000000 0.000000 0.000000
vn 1.000000 0.000000 0.000000
vn 1.000000 0.000000 0.000000
s off
g SM_Dresser_01a
f 1/1/1 2/2/2 4/4/3
f 4/4/4 2/2/5 3/3/6
f 4/5/7 3/6/8 6/8/9
f 6/8/10 3/6/11 7/7/12
f 1/9/13 4/10/14 5/12/15
f 5/12/16 4/10/17 6/11/18
f 1/13/19 5/14/20 2/16/21
f 2/16/22 5/14/23 8/15/24
f 2/17/25 8/18/26 3/20/27
f 3/20/28 8/18/29 7/19/30
f 9/21/31 14/22/32 10/24/33
f 10/24/34 14/22/35 15/23/36
f 13/25/37 20/26/38 14/28/39
f 14/28/40 20/26/41 17/27/42
f 20/26/43 13/25/44 19/30/45
f 19/30/46 13/25/47 16/29/48
f 19/30/49 16/29/50 18/32/51
f 18/32/52 16/29/53 15/31/54
f 16/33/55 12/34/56 15/36/57
f 15/36/58 12/34/59 10/35/60
f 14/28/61 17/27/62 15/31/63
f 15/31/64 17/27/65 18/32/66
f 11/37/67 13/38/68 9/40/69
f 9/40/70 13/38/71 14/39/72
f 11/41/73 9/42/74 12/44/75
f 12/44/76 9/42/77 10/43/78
f 13/45/79 11/46/80 6/48/81
f 6/48/82 11/46/83 5/47/84
f 13/45/85 6/48/86 16/50/87
f 16/50/88 6/48/89 7/49/90
f 16/50/91 7/49/92 12/52/93
f 12/52/94 7/49/95 8/51/96
f 12/52/97 8/51/98 11/46/99
f 11/46/100 8/51/101 5/47/102
f 20/54/103 24/55/104 29/53/105
f 29/53/106 24/55/107 21/56/108
f 30/57/109 17/58/110 29/60/111
f 29/60/112 17/58/113 20/59/114
f 31/61/115 19/62/116 32/64/117
f 32/64/118 19/62/119 18/63/120
f 25/65/121 26/66/122 30/68/123
f 30/68/124 26/66/125 17/67/126
f 21/69/127 25/70/128 29/72/129
f 29/72/130 25/70/131 30/71/132
f 18/74/133 27/75/134 32/73/135
f 32/73/136 27/75/137 28/76/138
f 22/77/139 23/78/140 31/80/141
f 31/80/142 23/78/143 19/79/144
f 32/81/145 28/82/146 31/84/147
f 31/84/148 28/82/149 22/83/150
f 18/74/151 17/67/152 27/75/153
f 17/67/154 26/66/155 27/75/156
f 20/54/157 19/79/158 24/55/159
f 23/78/160 24/55/161 19/79/162
f 36/85/163 35/86/164 38/87/165
f 38/87/166 35/86/167 39/88/168
f 33/89/169 36/90/170 37/91/171
f 37/91/172 36/90/173 38/92/174
f 34/93/175 40/94/176 35/95/177
f 35/95/178 40/94/179 39/96/180
