# This file uses feet as units for non-parametric coordinates.

g default
v 0.000000 -0.000008 15.516975
v 0.000000 17.326675 15.516964
v 0.000000 17.326675 17.335571
v 0.000000 -0.000008 17.335571
v 0.000000 16.256393 15.516964
v 0.000000 1.070274 15.516975
v 0.000000 16.256393 14.746422
v 0.000000 4.056061 14.746422
v -33.834915 4.056061 -20.609682
v -35.032883 1.070274 -22.486275
v -36.074982 -0.000008 20.667667
v -36.074982 17.326675 20.667667
v -36.074982 17.326675 22.486275
v -36.074982 -0.000008 22.486275
v -29.327972 -0.000008 19.095242
v -29.327972 17.326675 19.095242
v -19.811981 -0.000008 17.289970
v -19.811981 17.326675 17.289970
v -9.983994 -0.000008 16.018940
v -9.983994 17.326675 16.018940
v -29.327972 17.326675 20.913845
v -29.327972 -0.000008 20.913845
v -19.811981 17.326675 19.108578
v -19.811981 -0.000008 19.108578
v -9.983994 17.326675 17.837532
v -9.983994 -0.000008 17.837532
v -35.032883 16.256393 20.433743
v -9.983994 16.256393 16.018940
v -19.811981 16.256393 17.289970
v -29.327972 16.256393 19.095242
v -9.983994 1.070274 16.018940
v -19.811981 1.070274 17.289970
v -29.327972 1.070274 19.095242
v -35.032883 1.070274 20.433743
v -35.032883 16.256393 -22.486275
v -33.834915 16.256393 19.221355
v -29.327972 16.256393 18.199776
v -19.811981 16.256393 16.458210
v -9.983994 16.256393 15.231628
v -33.834915 16.256393 -20.609682
v -33.834915 4.056061 19.221355
v -9.983994 4.056061 15.231628
v -19.811981 4.056061 16.458210
v -29.327972 4.056061 18.199776
v 36.074982 -0.000008 20.667667
v 36.074982 17.326675 20.667667
v 36.074982 17.326675 22.486275
v 36.074982 -0.000008 22.486275
v 29.327988 -0.000008 19.095242
v 29.327988 17.326675 19.095242
v 19.811981 -0.000008 17.289970
v 19.811981 17.326675 17.289970
v 9.983994 -0.000008 16.018940
v 9.983994 17.326675 16.018940
v 29.327988 17.326675 20.913845
v 29.327988 -0.000008 20.913845
v 19.811981 17.326675 19.108578
v 19.811981 -0.000008 19.108578
v 9.983994 17.326675 17.837532
v 9.983994 -0.000008 17.837532
v 35.032883 16.256393 20.433743
v 9.983994 16.256393 16.018940
v 19.811981 16.256393 17.289970
v 29.327988 16.256393 19.095242
v 9.983994 1.070274 16.018940
v 19.811981 1.070274 17.289970
v 29.327988 1.070274 19.095242
v 35.032883 1.070274 20.433743
v 35.032883 16.256393 -22.486275
v 35.032883 1.070274 -22.486275
v 33.834915 16.256393 19.221355
v 29.327988 16.256393 18.199776
v 19.811981 16.256393 16.458210
v 9.983994 16.256393 15.231628
v 33.834915 16.256393 -20.609682
v 33.834915 4.056061 19.221355
v 33.834915 4.056061 -20.609682
v 9.983994 4.056061 15.231628
v 19.811981 4.056061 16.458210
v 29.327988 4.056061 18.199776
v -0.310852 8.983421 17.154884
v 0.310852 8.983421 17.154884
v -0.310852 8.656303 21.403904
v 0.310852 8.656303 21.403904
v -0.310852 8.656303 19.403542
v -0.310852 8.983421 19.076424
v 0.310852 8.983421 19.076424
v 0.310852 8.656303 19.403542
v 0.310852 9.068230 22.011990
v 0.310852 9.256622 22.164719
v -0.310852 9.068230 22.011990
v -0.310852 9.256622 22.164719
v -0.310852 8.093819 21.403904
v -0.310852 7.820618 21.130703
v 0.310852 8.093819 21.403904
v 0.310852 7.820618 21.130703
v -0.310852 8.093819 19.403542
v -0.310852 7.820618 19.676743
v 0.310852 7.820618 19.676743
v 0.310852 8.093819 19.403542
v -0.310852 8.922928 21.627960
v 0.310852 8.922928 21.627960
v -0.310852 10.260361 22.164719
v 0.310852 10.260361 22.164719
v -0.310852 10.533562 17.154884
v 0.310852 10.533562 17.154884
v -0.310852 10.860680 21.403904
v 0.310852 10.860680 21.403904
v -0.310852 10.860680 19.403542
v -0.310852 10.533562 19.076424
v 0.310852 10.533562 19.076424
v 0.310852 10.860680 19.403542
v 0.310852 10.448753 22.011990
v -0.310852 10.448753 22.011990
v -0.310852 11.423164 21.403904
v -0.310852 11.696365 21.130703
v 0.310852 11.423164 21.403904
v 0.310852 11.696365 21.130703
v -0.310852 11.423164 19.403542
v -0.310852 11.696365 19.676743
v 0.310852 11.696365 19.676743
v 0.310852 11.423164 19.403542
v -0.310852 10.594055 21.627960
v 0.310852 10.594055 21.627960
v 0.000000 13.122734 17.575706
v 0.778900 12.967804 17.575699
v 1.439240 12.526581 17.575703
v 1.880463 11.866264 17.575695
v 2.035400 11.087341 17.575695
v -0.000031 12.401031 18.474487
v 0.502716 12.301033 18.474487
v 0.928925 12.016251 18.474491
v 1.213684 11.590073 18.474487
v 1.327545 11.017616 18.474487
v 2.035400 6.289764 17.575703
v 1.327545 6.997627 18.474487
v -0.778931 12.967804 17.575703
v -1.439270 12.526581 17.575703
v -1.880493 11.866264 17.575695
v -2.035431 11.087341 17.575695
v -0.502747 12.301033 18.474487
v -0.928955 12.016251 18.474487
v -1.213715 11.590073 18.474491
v -1.327576 11.017616 18.474491
v -2.035431 6.289764 17.575703
v -1.327576 6.997627 18.474491
vt 0.287742 0.132719
vt 0.333329 0.132719
vt 0.333329 0.137504
vt 0.287742 0.137504
vt 0.670470 0.774510
vt 0.670470 0.769725
vt 0.696738 0.769725
vt 0.696738 0.774510
vt 0.722596 0.769725
vt 0.722596 0.774510
vt 0.747634 0.769725
vt 0.747634 0.774510
vt 0.765385 0.769725
vt 0.765385 0.774510
vt 0.669869 0.339811
vt 0.665084 0.339811
vt 0.665084 0.314774
vt 0.669869 0.314774
vt 0.665084 0.288916
vt 0.669869 0.288916
vt 0.665084 0.262648
vt 0.669869 0.262648
vt 0.671053 0.719795
vt 0.697483 0.719795
vt 0.697483 0.765662
vt 0.671053 0.765662
vt 0.723500 0.719795
vt 0.723500 0.765662
vt 0.748691 0.719795
vt 0.748691 0.765662
vt 0.669869 0.357563
vt 0.665084 0.357563
vt 0.766552 0.719795
vt 0.766552 0.765662
vt 0.770801 0.692431
vt 0.810757 0.692431
vt 0.810757 0.876779
vt 0.770801 0.876779
vt 0.901030 0.758100
vt 0.868930 0.758100
vt 0.868930 0.580056
vt 0.901030 0.580056
vt 0.755626 0.179996
vt 0.758314 0.168138
vt 0.860424 0.179996
vt 0.135111 0.182890
vt 0.022186 0.182890
vt 0.025376 0.179738
vt 0.130173 0.179738
vt 0.766124 0.117243
vt 0.767400 0.090975
vt 0.762896 0.143101
vt 0.604874 0.597290
vt 0.601529 0.571432
vt 0.706183 0.531385
vt 0.596780 0.546395
vt 0.593258 0.531385
vt 0.682915 0.115842
vt 0.569990 0.115842
vt 0.569990 0.075886
vt 0.682915 0.075886
vt 0.142171 0.802311
vt 0.151990 0.802311
vt 0.154600 0.804953
vt 0.142171 0.804953
vt 0.121439 0.802311
vt 0.121439 0.804953
vt 0.100028 0.802311
vt 0.100028 0.804953
vt 0.078276 0.802311
vt 0.078276 0.804953
vt 0.941142 0.186300
vt 0.936205 0.183148
vt 0.936205 0.005105
vt 0.941142 0.001953
vt 0.897154 0.091448
vt 0.864884 0.091448
vt 0.864884 0.065040
vt 0.897154 0.065040
vt 0.864884 0.039044
vt 0.897154 0.039044
vt 0.864884 0.013874
vt 0.897154 0.013874
vt 0.864884 0.001953
vt 0.897154 0.001953
vt 0.022186 0.149222
vt 0.022186 0.117123
vt 0.126984 0.117123
vt 0.126984 0.149222
vt 0.606194 0.623559
vt 0.865895 0.858076
vt 0.865895 0.831688
vt 0.868724 0.831688
vt 0.868724 0.858076
vt 0.865895 0.805713
vt 0.868724 0.805713
vt 0.865895 0.780563
vt 0.868724 0.780563
vt 0.865895 0.762161
vt 0.868724 0.764915
vt 0.333894 0.144342
vt 0.287742 0.144342
vt 0.290593 0.141567
vt 0.331043 0.141567
vt 0.880564 0.559212
vt 0.880564 0.540810
vt 0.883393 0.540810
vt 0.883393 0.556458
vt 0.880564 0.515660
vt 0.883393 0.515660
vt 0.880564 0.489685
vt 0.883393 0.489685
vt 0.880564 0.463297
vt 0.883393 0.463297
vt 0.755626 0.057597
vt 0.760411 0.057597
vt 0.760411 0.103185
vt 0.755626 0.103185
vt 0.644201 0.774510
vt 0.644201 0.769725
vt 0.618343 0.774510
vt 0.618343 0.769725
vt 0.593306 0.774510
vt 0.593306 0.769725
vt 0.575554 0.774510
vt 0.575554 0.769725
vt 0.669869 0.185484
vt 0.669869 0.210522
vt 0.665084 0.210522
vt 0.665084 0.185484
vt 0.669869 0.236380
vt 0.665084 0.236379
vt 0.644623 0.765662
vt 0.644623 0.719795
vt 0.618606 0.765662
vt 0.618606 0.719795
vt 0.593415 0.765662
vt 0.593415 0.719795
vt 0.669869 0.167733
vt 0.665084 0.167733
vt 0.575554 0.765662
vt 0.575554 0.719795
vt 0.755626 0.001953
vt 0.860424 0.001953
vt 0.758314 0.013811
vt 0.706056 0.026233
vt 0.709208 0.031170
vt 0.709208 0.135970
vt 0.706056 0.139160
vt 0.766124 0.064706
vt 0.762896 0.038848
vt 0.604874 0.649827
vt 0.706183 0.715732
vt 0.601529 0.675685
vt 0.596780 0.700722
vt 0.593258 0.715732
vt 0.135111 0.073105
vt 0.135111 0.113060
vt 0.022186 0.113060
vt 0.022186 0.073105
vt 0.014382 0.802311
vt 0.014382 0.804953
vt 0.001953 0.804953
vt 0.004563 0.802311
vt 0.035114 0.802311
vt 0.035114 0.804953
vt 0.056525 0.802311
vt 0.056525 0.804953
vt 0.897154 0.117856
vt 0.864884 0.117856
vt 0.897154 0.143851
vt 0.864884 0.143851
vt 0.897154 0.169021
vt 0.864884 0.169021
vt 0.897154 0.180942
vt 0.864884 0.180942
vt 0.787726 0.365540
vt 0.787726 0.470338
vt 0.755626 0.470338
vt 0.755626 0.365540
vt 0.868724 0.884463
vt 0.865895 0.884463
vt 0.868724 0.910438
vt 0.865895 0.910438
vt 0.868724 0.935588
vt 0.865895 0.935588
vt 0.868724 0.950666
vt 0.865895 0.953420
vt 0.309998 0.160917
vt 0.312849 0.158141
vt 0.353298 0.158141
vt 0.356148 0.160917
vt 0.880564 0.367953
vt 0.883393 0.370707
vt 0.883393 0.385785
vt 0.880564 0.385785
vt 0.883393 0.410935
vt 0.880564 0.410935
vt 0.883393 0.436910
vt 0.880564 0.436910
vt 0.348801 0.930416
vt 0.331105 0.930416
vt 0.348802 0.919455
vt 0.331105 0.919455
vt 0.376374 0.930416
vt 0.366457 0.930416
vt 0.376374 0.919455
vt 0.366457 0.919455
vt 0.425549 0.930416
vt 0.415632 0.930416
vt 0.425549 0.919455
vt 0.415632 0.919455
vt 0.408820 0.930416
vt 0.383186 0.930416
vt 0.408820 0.919455
vt 0.383185 0.919455
vt 0.353078 0.919455
vt 0.360316 0.919455
vt 0.353078 0.930416
vt 0.360317 0.930416
vt 0.433705 0.919455
vt 0.467583 0.919455
vt 0.433705 0.930416
vt 0.467583 0.930416
vt 0.303533 0.930416
vt 0.303533 0.919455
vt 0.313450 0.930416
vt 0.313450 0.919455
vt 0.254358 0.930416
vt 0.254358 0.919455
vt 0.264275 0.930416
vt 0.264275 0.919455
vt 0.271087 0.930416
vt 0.271087 0.919455
vt 0.296721 0.930416
vt 0.296721 0.919455
vt 0.326829 0.919455
vt 0.326829 0.930416
vt 0.319590 0.919455
vt 0.319590 0.930416
vt 0.246202 0.919455
vt 0.246202 0.930416
vt 0.212324 0.919455
vt 0.212324 0.930416
vt 0.711635 0.983158
vt 0.711635 0.949280
vt 0.738965 0.983158
vt 0.738965 0.949280
vt 0.705868 0.943512
vt 0.744732 0.943512
vt 0.695951 0.943512
vt 0.691134 0.938696
vt 0.691134 0.913061
vt 0.695951 0.908245
vt 0.705868 0.908245
vt 0.710569 0.904294
vt 0.713130 0.897524
vt 0.716452 0.894831
vt 0.734148 0.894831
vt 0.737470 0.897524
vt 0.740032 0.904294
vt 0.744732 0.908245
vt 0.754649 0.908245
vt 0.759466 0.913061
vt 0.754649 0.943512
vt 0.759466 0.938696
vt 0.791318 0.908253
vt 0.791318 0.942131
vt 0.763988 0.908253
vt 0.763988 0.942131
vt 0.797085 0.947899
vt 0.758220 0.947899
vt 0.807002 0.947899
vt 0.811819 0.952715
vt 0.811819 0.978350
vt 0.807002 0.983166
vt 0.797085 0.983166
vt 0.792384 0.987116
vt 0.789823 0.993887
vt 0.786501 0.996580
vt 0.768804 0.996580
vt 0.765483 0.993887
vt 0.762921 0.987116
vt 0.758220 0.983166
vt 0.748303 0.983166
vt 0.743487 0.978350
vt 0.748303 0.947899
vt 0.743487 0.952715
vt 0.058445 0.963225
vt 0.013956 0.963225
vt 0.058445 0.950656
vt 0.006214 0.950656
vt 0.086005 0.963225
vt 0.079258 0.963225
vt 0.086005 0.950656
vt 0.079258 0.950656
vt 0.072503 0.963225
vt 0.072503 0.950656
vt 0.065737 0.963225
vt 0.065737 0.950656
vt 0.155055 0.950656
vt 0.155055 0.963225
vt 0.113618 0.950656
vt 0.113618 0.963225
vt 0.181675 0.963225
vt 0.188542 0.950656
vt 0.092762 0.963225
vt 0.092762 0.950656
vt 0.099529 0.963225
vt 0.099529 0.950656
vt 0.106309 0.963225
vt 0.106309 0.950656
vt 0.061228 0.967708
vt 0.061228 0.995557
vt 0.019063 0.967708
vt 0.019063 0.995557
vt 0.013059 0.968902
vt 0.013059 0.994363
vt 0.008589 0.991376
vt 0.005602 0.986906
vt 0.004553 0.981633
vt 0.005602 0.976360
vt 0.008589 0.971889
vn -1.000000 0.000000 0.000000
vn -1.000000 0.000000 0.000000
vn -1.000000 0.000000 0.000000
vn -1.000000 0.000000 0.000000
vn -1.000000 0.000000 0.000000
vn -1.000000 0.000000 0.000000
vn 0.000000 1.000000 0.000000
vn 0.000000 1.000000 0.000000
vn 0.000000 1.000000 0.000000
vn 0.000000 1.000000 0.000000
vn 0.000000 1.000000 0.000000
vn 0.000000 1.000000 0.000000
vn 0.000000 1.000000 0.000000
vn 0.000000 1.000000 0.000000
vn 0.000000 1.000000 0.000000
vn 0.000000 1.000000 0.000000
vn 0.000000 1.000000 0.000000
vn 0.000000 1.000000 0.000000
vn 0.000000 1.000000 0.000000
vn 0.000000 1.000000 0.000000
vn 0.000000 1.000000 0.000000
vn 0.000000 1.000000 0.000000
vn 0.000000 1.000000 0.000000
vn 0.000000 1.000000 0.000000
vn 0.000000 1.000000 0.000000
vn 0.000000 1.000000 0.000000
vn 0.000000 1.000000 0.000000
vn 0.000000 1.000000 0.000000
vn 0.000000 1.000000 0.000000
vn 0.000000 1.000000 0.000000
vn 0.000000 -1.000000 0.000000
vn 0.000000 -1.000000 0.000000
vn 0.000000 -1.000000 0.000000
vn 0.000000 -1.000000 0.000000
vn 0.000000 -1.000000 0.000000
vn 0.000000 -1.000000 0.000000
vn 0.000000 -1.000000 0.000000
vn 0.000000 -1.000000 0.000000
vn 0.000000 -1.000000 0.000000
vn 0.000000 -1.000000 0.000000
vn 0.000000 -1.000000 0.000000
vn 0.000000 -1.000000 0.000000
vn 0.000000 -1.000000 0.000000
vn 0.000000 -1.000000 0.000000
vn 0.000000 -1.000000 0.000000
vn 0.000000 -1.000000 0.000000
vn 0.000000 -1.000000 0.000000
vn 0.000000 -1.000000 0.000000
vn 0.000000 0.000000 1.000000
vn 0.089135 0.000000 0.996020
vn -0.000000 0.000000 1.000000
vn -0.000000 0.000000 1.000000
vn 0.089135 0.000000 0.996020
vn 0.089135 0.000000 0.996020
vn 0.089135 0.000000 0.996020
vn 0.157058 0.000000 0.987589
vn 0.089135 0.000000 0.996020
vn 0.089135 0.000000 0.996020
vn 0.157058 0.000000 0.987589
vn 0.157058 0.000000 0.987589
vn 0.157058 0.000000 0.987589
vn 0.203353 0.000000 0.979106
vn 0.157058 0.000000 0.987589
vn 0.157058 0.000000 0.987589
vn 0.203353 0.000000 0.979106
vn 0.203353 0.000000 0.979106
vn 0.000000 -1.000000 0.000000
vn 0.000000 -1.000000 0.000000
vn 0.000000 -1.000000 0.000000
vn 0.000000 -1.000000 0.000000
vn 0.000000 -1.000000 0.000000
vn 0.000000 -1.000000 0.000000
vn 0.203353 0.000000 0.979106
vn 0.226973 0.000000 0.973901
vn 0.203353 0.000000 0.979106
vn 0.203353 0.000000 0.979106
vn 0.226973 0.000000 0.973901
vn 0.226973 0.000000 0.973901
vn 0.000000 0.000000 -1.000000
vn 0.000000 0.000000 -1.000000
vn 0.000000 0.000000 -1.000000
vn 0.000000 0.000000 -1.000000
vn 0.000000 0.000000 -1.000000
vn 0.000000 0.000000 -1.000000
vn 0.000000 0.000000 1.000000
vn 0.000000 0.000000 1.000000
vn 0.000000 0.000000 1.000000
vn 0.000000 0.000000 1.000000
vn 0.000000 0.000000 1.000000
vn 0.000000 0.000000 1.000000
vn 0.000000 1.000000 0.000000
vn 0.000000 1.000000 0.000000
vn 0.000000 1.000000 -0.000000
vn 0.000000 1.000000 0.000000
vn 0.000000 1.000000 0.000000
vn 0.000000 1.000000 0.000000
vn 0.000000 1.000000 0.000000
vn 0.000000 1.000000 0.000000
vn 0.000000 1.000000 0.000000
vn 0.000000 1.000000 -0.000000
vn 0.000000 1.000000 -0.000000
vn 0.000000 1.000000 -0.000000
vn 0.000000 1.000000 0.000000
vn 0.000000 1.000000 -0.000000
vn 0.000000 1.000000 -0.000000
vn 0.000000 1.000000 0.000000
vn 0.000000 1.000000 0.000000
vn 0.000000 1.000000 -0.000000
vn 0.000000 -1.000000 -0.000000
vn 0.000000 -1.000000 0.000000
vn 0.000000 -1.000000 0.000000
vn 0.000000 -1.000000 0.000000
vn 0.000000 -1.000000 0.000000
vn 0.000000 -1.000000 0.000000
vn 0.000000 -1.000000 0.000000
vn 0.000000 -1.000000 0.000000
vn 0.000000 -1.000000 0.000000
vn -1.000000 0.000000 0.000000
vn -1.000000 0.000000 0.000000
vn -1.000000 0.000000 0.000000
vn -1.000000 0.000000 0.000000
vn -1.000000 0.000000 0.000000
vn -1.000000 0.000000 0.000000
vn 0.000000 1.000000 0.000000
vn 0.000000 1.000000 0.000000
vn 0.000000 1.000000 0.000000
vn 0.000000 1.000000 0.000000
vn 0.000000 1.000000 0.000000
vn 0.000000 1.000000 0.000000
vn 0.000000 1.000000 0.000000
vn 0.000000 1.000000 0.000000
vn 0.000000 1.000000 0.000000
vn 0.000000 1.000000 0.000000
vn 0.000000 1.000000 0.000000
vn 0.000000 1.000000 0.000000
vn 0.000000 1.000000 0.000000
vn 0.000000 1.000000 0.000000
vn 0.000000 1.000000 0.000000
vn 0.000000 1.000000 0.000000
vn 0.000000 1.000000 0.000000
vn 0.000000 1.000000 0.000000
vn 0.000000 1.000000 0.000000
vn 0.000000 1.000000 0.000000
vn 0.000000 1.000000 0.000000
vn 0.000000 1.000000 0.000000
vn 0.000000 1.000000 0.000000
vn 0.000000 1.000000 0.000000
vn 0.000000 1.000000 0.000000
vn 0.000000 1.000000 -0.000000
vn 0.000000 1.000000 -0.000000
vn 0.000000 1.000000 -0.000000
vn 0.000000 1.000000 -0.000000
vn 0.000000 1.000000 -0.000000
vn 0.000000 0.000000 -1.000000
vn 0.000000 0.000000 -1.000000
vn -0.086081 0.000000 -0.996288
vn -0.086081 0.000000 -0.996288
vn 0.000000 0.000000 -1.000000
vn -0.086081 0.000000 -0.996288
vn -0.086081 0.000000 -0.996288
vn -0.151665 0.000000 -0.988432
vn -0.086081 0.000000 -0.996288
vn -0.086081 0.000000 -0.996288
vn -0.151665 0.000000 -0.988432
vn -0.151665 0.000000 -0.988432
vn -0.151665 0.000000 -0.988432
vn -0.193327 0.000000 -0.981134
vn -0.151665 0.000000 -0.988432
vn -0.151665 0.000000 -0.988432
vn -0.193327 0.000000 -0.981134
vn -0.193327 0.000000 -0.981134
vn -0.193327 0.000000 -0.981134
vn -0.221060 0.000000 -0.975260
vn -0.193327 0.000000 -0.981134
vn -0.193327 0.000000 -0.981134
vn -0.221060 0.000000 -0.975260
vn -0.221060 0.000000 -0.975260
vn 1.000000 0.000000 0.000000
vn 1.000000 0.000000 0.000000
vn 1.000000 0.000000 0.000000
vn 1.000000 0.000000 0.000000
vn 1.000000 0.000000 0.000000
vn 1.000000 0.000000 0.000000
vn 0.000000 -1.000000 0.000000
vn 0.000000 -1.000000 -0.000000
vn 0.000000 -1.000000 -0.000000
vn 0.000000 0.000000 -1.000000
vn -0.089135 0.000000 -0.996020
vn -0.000000 0.000000 -1.000000
vn -0.000000 0.000000 -1.000000
vn -0.089135 0.000000 -0.996020
vn -0.089135 0.000000 -0.996020
vn -0.089135 0.000000 -0.996020
vn -0.157058 0.000000 -0.987589
vn -0.089135 0.000000 -0.996020
vn -0.089135 0.000000 -0.996020
vn -0.157058 0.000000 -0.987589
vn -0.157058 0.000000 -0.987589
vn -0.157058 0.000000 -0.987589
vn -0.202405 0.000414 -0.979302
vn -0.157058 0.000000 -0.987589
vn -0.157058 0.000000 -0.987589
vn -0.202405 0.000414 -0.979302
vn -0.202274 0.000000 -0.979329
vn -0.226965 0.008137 -0.973869
vn -0.227061 0.007602 -0.973851
vn -0.202405 0.000414 -0.979302
vn -0.202405 0.000414 -0.979302
vn -0.227061 0.007602 -0.973851
vn -0.202274 0.000000 -0.979329
vn -0.219023 0.000000 -0.975720
vn -0.219025 0.000000 -0.975719
vn -0.219023 0.000000 -0.975720
vn -0.219023 0.000000 -0.975720
vn -0.219025 0.000000 -0.975719
vn -0.219025 0.000000 -0.975719
vn -0.226965 -0.008136 -0.973869
vn -0.202405 -0.000414 -0.979302
vn -0.227061 -0.007602 -0.973851
vn -0.227061 -0.007602 -0.973851
vn -0.202405 -0.000414 -0.979302
vn -0.202274 0.000000 -0.979329
vn -0.202405 -0.000414 -0.979302
vn -0.157058 0.000000 -0.987589
vn -0.202274 0.000000 -0.979329
vn -0.202274 0.000000 -0.979329
vn -0.157058 0.000000 -0.987589
vn -0.157058 0.000000 -0.987589
vn -0.157058 0.000000 -0.987589
vn -0.089136 0.000000 -0.996020
vn -0.157058 0.000000 -0.987589
vn -0.157058 0.000000 -0.987589
vn -0.089136 0.000000 -0.996020
vn -0.089136 0.000000 -0.996020
vn -0.089136 0.000000 -0.996020
vn 0.000000 0.000000 -1.000000
vn -0.089136 0.000000 -0.996020
vn -0.089136 0.000000 -0.996020
vn 0.000000 0.000000 -1.000000
vn 0.000000 0.000000 -1.000000
vn 1.000000 0.000000 0.000000
vn 1.000000 0.000000 0.000000
vn 1.000000 0.000000 0.000000
vn 1.000000 0.000000 0.000000
vn 1.000000 0.000000 0.000000
vn 1.000000 0.000000 0.000000
vn 0.000000 1.000000 0.000000
vn 0.000000 1.000000 0.000000
vn 0.000000 1.000000 0.000000
vn 0.000000 1.000000 0.000000
vn 0.000000 1.000000 0.000000
vn 0.000000 1.000000 0.000000
vn 0.000000 1.000000 0.000000
vn 0.000000 1.000000 0.000000
vn 0.000000 1.000000 0.000000
vn 0.000000 1.000000 0.000000
vn 0.000000 1.000000 0.000000
vn 0.000000 1.000000 0.000000
vn 0.000000 1.000000 0.000000
vn 0.000000 1.000000 0.000000
vn 0.000000 1.000000 0.000000
vn 0.000000 1.000000 0.000000
vn 0.000000 1.000000 0.000000
vn 0.000000 1.000000 0.000000
vn 0.000000 1.000000 0.000000
vn 0.000000 1.000000 0.000000
vn 0.000000 1.000000 0.000000
vn 0.000000 1.000000 0.000000
vn 0.000000 1.000000 0.000000
vn 0.000000 1.000000 0.000000
vn 0.000000 -1.000000 0.000000
vn 0.000000 -1.000000 0.000000
vn 0.000000 -1.000000 0.000000
vn 0.000000 -1.000000 0.000000
vn 0.000000 -1.000000 0.000000
vn 0.000000 -1.000000 0.000000
vn 0.000000 -1.000000 0.000000
vn 0.000000 -1.000000 0.000000
vn 0.000000 -1.000000 0.000000
vn 0.000000 -1.000000 0.000000
vn 0.000000 -1.000000 0.000000
vn 0.000000 -1.000000 0.000000
vn 0.000000 -1.000000 0.000000
vn 0.000000 -1.000000 0.000000
vn 0.000000 -1.000000 0.000000
vn 0.000000 -1.000000 0.000000
vn 0.000000 -1.000000 0.000000
vn 0.000000 -1.000000 0.000000
vn 0.000000 0.000000 1.000000
vn -0.000000 0.000000 1.000000
vn -0.089135 0.000000 0.996020
vn -0.089135 0.000000 0.996020
vn -0.000000 0.000000 1.000000
vn -0.089135 0.000000 0.996020
vn -0.089135 0.000000 0.996020
vn -0.089135 0.000000 0.996020
vn -0.157058 0.000000 0.987589
vn -0.157058 0.000000 0.987589
vn -0.089135 0.000000 0.996020
vn -0.157058 0.000000 0.987589
vn -0.157058 0.000000 0.987589
vn -0.157058 0.000000 0.987589
vn -0.203353 0.000000 0.979106
vn -0.203353 0.000000 0.979106
vn -0.157058 0.000000 0.987589
vn -0.203353 0.000000 0.979106
vn 0.000000 -1.000000 0.000000
vn 0.000000 -1.000000 0.000000
vn 0.000000 -1.000000 0.000000
vn 0.000000 -1.000000 0.000000
vn 0.000000 -1.000000 0.000000
vn 0.000000 -1.000000 0.000000
vn -0.203353 0.000000 0.979106
vn -0.203353 0.000000 0.979106
vn -0.226974 0.000000 0.973901
vn -0.226974 0.000000 0.973901
vn -0.203353 0.000000 0.979106
vn -0.226974 0.000000 0.973901
vn 0.000000 1.000000 0.000000
vn 0.000000 1.000000 -0.000000
vn 0.000000 1.000000 0.000000
vn 0.000000 1.000000 0.000000
vn 0.000000 1.000000 0.000000
vn 0.000000 1.000000 0.000000
vn 0.000000 1.000000 0.000000
vn 0.000000 1.000000 0.000000
vn 0.000000 1.000000 0.000000
vn 0.000000 1.000000 -0.000000
vn 0.000000 1.000000 -0.000000
vn 0.000000 1.000000 -0.000000
vn 0.000000 1.000000 0.000000
vn 0.000000 1.000000 -0.000000
vn 0.000000 1.000000 -0.000000
vn 0.000000 1.000000 0.000000
vn 0.000000 1.000000 -0.000000
vn 0.000000 1.000000 0.000000
vn 0.000000 -1.000000 0.000000
vn 0.000000 -1.000000 -0.000000
vn 0.000000 -1.000000 0.000000
vn 0.000000 -1.000000 0.000000
vn 0.000000 -1.000000 -0.000000
vn 0.000000 -1.000000 -0.000000
vn 0.000000 -1.000000 -0.000000
vn 0.000000 -1.000000 -0.000000
vn 0.000000 -1.000000 0.000000
vn 1.000000 0.000000 0.000000
vn 1.000000 0.000000 0.000000
vn 1.000000 0.000000 0.000000
vn 1.000000 0.000000 0.000000
vn 1.000000 0.000000 0.000000
vn 1.000000 0.000000 0.000000
vn 0.000000 1.000000 0.000000
vn 0.000000 1.000000 0.000000
vn 0.000000 1.000000 0.000000
vn 0.000000 1.000000 0.000000
vn 0.000000 1.000000 0.000000
vn 0.000000 1.000000 0.000000
vn 0.000000 1.000000 0.000000
vn 0.000000 1.000000 0.000000
vn 0.000000 1.000000 0.000000
vn 0.000000 1.000000 0.000000
vn 0.000000 1.000000 0.000000
vn 0.000000 1.000000 0.000000
vn 0.000000 1.000000 0.000000
vn 0.000000 1.000000 0.000000
vn 0.000000 1.000000 0.000000
vn 0.000000 1.000000 0.000000
vn 0.000000 1.000000 0.000000
vn 0.000000 1.000000 0.000000
vn 0.000000 1.000000 0.000000
vn 0.000000 1.000000 0.000000
vn 0.000000 1.000000 0.000000
vn 0.000000 1.000000 0.000000
vn 0.000000 1.000000 0.000000
vn 0.000000 1.000000 0.000000
vn 0.000000 0.000000 -1.000000
vn 0.086081 0.000000 -0.996288
vn 0.000000 0.000000 -1.000000
vn 0.000000 0.000000 -1.000000
vn 0.086081 0.000000 -0.996288
vn 0.086081 0.000000 -0.996288
vn 0.086081 0.000000 -0.996288
vn 0.086081 0.000000 -0.996288
vn 0.151665 0.000000 -0.988432
vn 0.151665 0.000000 -0.988432
vn 0.086081 0.000000 -0.996288
vn 0.151665 0.000000 -0.988432
vn 0.151665 0.000000 -0.988432
vn 0.151665 0.000000 -0.988432
vn 0.193327 0.000000 -0.981134
vn 0.193327 0.000000 -0.981134
vn 0.151665 0.000000 -0.988432
vn 0.193327 0.000000 -0.981134
vn 0.193327 0.000000 -0.981134
vn 0.193327 0.000000 -0.981134
vn 0.221061 0.000000 -0.975260
vn 0.221061 0.000000 -0.975260
vn 0.193327 0.000000 -0.981134
vn 0.221061 0.000000 -0.975260
vn -1.000000 0.000000 0.000000
vn -1.000000 0.000000 0.000000
vn -1.000000 0.000000 0.000000
vn -1.000000 0.000000 0.000000
vn -1.000000 0.000000 0.000000
vn -1.000000 0.000000 0.000000
vn 0.000000 1.000000 -0.000000
vn 0.000000 1.000000 -0.000000
vn 0.000000 1.000000 -0.000000
vn 0.000000 -1.000000 -0.000000
vn 0.000000 -1.000000 0.000000
vn 0.000000 -1.000000 -0.000000
vn 0.000000 -1.000000 0.000000
vn 0.000000 -1.000000 -0.000000
vn 0.000000 -1.000000 -0.000000
vn 0.000000 0.000000 -1.000000
vn -0.000000 0.000000 -1.000000
vn 0.089135 0.000000 -0.996020
vn 0.089135 0.000000 -0.996020
vn -0.000000 0.000000 -1.000000
vn 0.089135 0.000000 -0.996020
vn 0.089135 0.000000 -0.996020
vn 0.089135 0.000000 -0.996020
vn 0.157058 0.000000 -0.987589
vn 0.157058 0.000000 -0.987589
vn 0.089135 0.000000 -0.996020
vn 0.157058 0.000000 -0.987589
vn 0.157058 0.000000 -0.987589
vn 0.157058 0.000000 -0.987589
vn 0.202405 0.000414 -0.979302
vn 0.202405 0.000414 -0.979302
vn 0.157058 0.000000 -0.987589
vn 0.202274 0.000000 -0.979329
vn 0.202274 0.000000 -0.979329
vn 0.227062 0.007602 -0.973851
vn 0.202405 0.000414 -0.979302
vn 0.202405 0.000414 -0.979302
vn 0.227062 0.007602 -0.973851
vn 0.226966 0.008137 -0.973869
vn 0.219022 0.000000 -0.975720
vn 0.219022 0.000000 -0.975720
vn 0.219026 0.000000 -0.975719
vn 0.219026 0.000000 -0.975719
vn 0.219022 0.000000 -0.975720
vn 0.219026 0.000000 -0.975719
vn 0.226965 -0.008137 -0.973869
vn 0.227061 -0.007602 -0.973851
vn 0.202405 -0.000414 -0.979302
vn 0.202405 -0.000414 -0.979302
vn 0.227061 -0.007602 -0.973851
vn 0.202274 0.000000 -0.979329
vn 0.202405 -0.000414 -0.979302
vn 0.202274 0.000000 -0.979329
vn 0.157058 0.000000 -0.987589
vn 0.157058 0.000000 -0.987589
vn 0.202274 0.000000 -0.979329
vn 0.157058 0.000000 -0.987589
vn 0.157058 0.000000 -0.987589
vn 0.157058 0.000000 -0.987589
vn 0.089136 0.000000 -0.996020
vn 0.089136 0.000000 -0.996020
vn 0.157058 0.000000 -0.987589
vn 0.089136 0.000000 -0.996020
vn 0.089136 0.000000 -0.996020
vn 0.089136 0.000000 -0.996020
vn 0.000000 0.000000 -1.000000
vn 0.000000 0.000000 -1.000000
vn 0.089136 0.000000 -0.996020
vn 0.000000 0.000000 -1.000000
vn 0.000000 -0.127076 0.991893
vn 0.000000 0.127076 0.991893
vn 0.000000 -0.127076 0.991893
vn 0.000000 -0.127076 0.991893
vn 0.000000 0.127076 0.991893
vn 0.000000 0.127076 0.991893
vn 0.000000 -0.310735 0.950497
vn 0.000000 -0.260880 0.965371
vn 0.000000 -0.310735 0.950497
vn 0.000000 -0.310735 0.950497
vn 0.000000 -0.260880 0.965371
vn 0.000000 -0.260879 0.965371
vn 0.000000 -0.345120 -0.938559
vn 0.000000 -0.310735 -0.950497
vn 0.000000 -0.345120 -0.938559
vn 0.000000 -0.345120 -0.938559
vn 0.000000 -0.310735 -0.950497
vn 0.000000 -0.310735 -0.950497
vn 0.000000 -0.987720 -0.156237
vn 0.000000 -0.987720 0.156237
vn 0.000000 -0.987720 -0.156237
vn 0.000000 -0.987720 -0.156237
vn 0.000000 -0.987720 0.156237
vn 0.000000 -0.987720 0.156237
vn 0.000000 -0.849262 0.527971
vn 0.000000 -0.827920 0.560846
vn 0.000000 -0.849261 0.527973
vn 0.000000 -0.849261 0.527973
vn 0.000000 -0.827920 0.560846
vn 0.000000 -0.827920 0.560845
vn 0.000000 -0.989584 -0.143957
vn 0.000000 -1.000000 0.000000
vn 0.000000 -0.989584 -0.143958
vn 0.000000 -0.989584 -0.143958
vn 0.000000 -1.000000 0.000000
vn 0.000000 -1.000000 0.000000
vn 0.000000 -0.260880 0.965371
vn 0.000000 -0.827920 0.560845
vn 0.000000 -0.260879 0.965371
vn 0.000000 -0.260879 0.965371
vn 0.000000 -0.827920 0.560845
vn 0.000000 -0.827920 0.560846
vn 0.000000 -0.989584 -0.143958
vn 0.000000 -0.345120 -0.938559
vn 0.000000 -0.989584 -0.143957
vn 0.000000 -0.989584 -0.143957
vn 0.000000 -0.345120 -0.938559
vn 0.000000 -0.345120 -0.938559
vn 0.000000 -0.127076 0.991893
vn 0.000000 -0.127076 0.991893
vn 0.000000 -0.849261 0.527973
vn 0.000000 -0.849261 0.527973
vn 0.000000 -0.127076 0.991893
vn 0.000000 -0.849262 0.527971
vn 0.000000 -0.987720 0.156237
vn 0.000000 -0.987720 0.156237
vn 0.000000 -0.310735 0.950497
vn 0.000000 -0.310735 0.950497
vn 0.000000 -0.987720 0.156237
vn 0.000000 -0.310735 0.950497
vn 0.000000 -0.310735 -0.950497
vn 0.000000 -0.310735 -0.950497
vn 0.000000 -0.987720 -0.156237
vn 0.000000 -0.987720 -0.156237
vn 0.000000 -0.310735 -0.950497
vn 0.000000 -0.987720 -0.156237
vn 0.000000 0.310735 0.950497
vn 0.000000 0.310735 0.950497
vn 0.000000 0.260879 0.965372
vn 0.000000 0.260879 0.965372
vn 0.000000 0.310735 0.950497
vn 0.000000 0.260879 0.965371
vn 0.000000 0.345120 -0.938559
vn 0.000000 0.345120 -0.938559
vn 0.000000 0.310735 -0.950497
vn 0.000000 0.310735 -0.950497
vn 0.000000 0.345120 -0.938559
vn 0.000000 0.310735 -0.950497
vn 0.000000 0.987720 -0.156237
vn 0.000000 0.987720 -0.156237
vn 0.000000 0.987720 0.156237
vn 0.000000 0.987720 0.156237
vn 0.000000 0.987720 -0.156237
vn 0.000000 0.987720 0.156237
vn 0.000000 0.849261 0.527973
vn 0.000000 0.849261 0.527973
vn 0.000000 0.827921 0.560845
vn 0.000000 0.827921 0.560845
vn 0.000000 0.849261 0.527973
vn 0.000000 0.827920 0.560846
vn 0.000000 0.989584 -0.143957
vn 0.000000 0.989584 -0.143958
vn 0.000000 1.000000 0.000000
vn 0.000000 1.000000 0.000000
vn 0.000000 0.989584 -0.143958
vn 0.000000 1.000000 0.000000
vn 0.000000 0.260879 0.965372
vn 0.000000 0.260879 0.965371
vn 0.000000 0.827920 0.560846
vn 0.000000 0.827920 0.560846
vn 0.000000 0.260879 0.965371
vn 0.000000 0.827921 0.560845
vn 0.000000 0.989584 -0.143958
vn 0.000000 0.989584 -0.143957
vn 0.000000 0.345120 -0.938559
vn 0.000000 0.345120 -0.938559
vn 0.000000 0.989584 -0.143957
vn 0.000000 0.345120 -0.938559
vn 0.000000 0.127076 0.991893
vn 0.000000 0.849261 0.527973
vn 0.000000 0.127076 0.991893
vn 0.000000 0.127076 0.991893
vn 0.000000 0.849261 0.527973
vn 0.000000 0.849261 0.527973
vn 0.000000 0.987720 0.156237
vn 0.000000 0.310735 0.950497
vn 0.000000 0.987720 0.156237
vn 0.000000 0.987720 0.156237
vn 0.000000 0.310735 0.950497
vn 0.000000 0.310735 0.950497
vn 0.000000 0.310735 -0.950497
vn 0.000000 0.987720 -0.156237
vn 0.000000 0.310735 -0.950497
vn 0.000000 0.310735 -0.950497
vn 0.000000 0.987720 -0.156237
vn 0.000000 0.987720 -0.156237
vn -1.000000 0.000000 0.000000
vn -1.000000 0.000000 0.000000
vn -1.000000 0.000000 0.000000
vn -1.000000 0.000000 0.000000
vn -1.000000 0.000000 0.000000
vn -1.000000 0.000000 0.000000
vn -1.000000 0.000000 0.000000
vn -1.000000 0.000000 0.000000
vn -1.000000 0.000000 0.000000
vn -1.000000 0.000000 0.000000
vn -1.000000 0.000000 0.000000
vn -1.000000 -0.000000 0.000000
vn -1.000000 0.000000 0.000000
vn -1.000000 0.000000 0.000000
vn -1.000000 0.000000 0.000000
vn -1.000000 0.000000 0.000000
vn -1.000000 -0.000000 0.000000
vn -1.000000 0.000000 0.000000
vn -1.000000 -0.000000 0.000000
vn -1.000000 -0.000000 0.000000
vn -1.000000 0.000000 0.000000
vn -1.000000 -0.000000 0.000000
vn -1.000000 0.000000 0.000000
vn -1.000000 0.000000 0.000000
vn -1.000000 0.000000 0.000000
vn -1.000000 0.000000 0.000000
vn -1.000000 -0.000000 0.000000
vn -1.000000 0.000000 0.000000
vn -1.000000 -0.000000 0.000000
vn -1.000000 -0.000000 0.000000
vn -1.000000 -0.000000 0.000000
vn -1.000000 -0.000000 0.000000
vn -1.000000 -0.000000 0.000000
vn -1.000000 -0.000000 0.000000
vn -1.000000 0.000000 0.000000
vn -1.000000 -0.000000 0.000000
vn -1.000000 0.000000 0.000000
vn -1.000000 0.000000 0.000000
vn -1.000000 -0.000000 0.000000
vn -1.000000 0.000000 0.000000
vn -1.000000 0.000000 0.000000
vn -1.000000 -0.000000 0.000000
vn -1.000000 0.000000 0.000000
vn -1.000000 0.000000 0.000000
vn -1.000000 -0.000000 0.000000
vn -1.000000 0.000000 0.000000
vn -1.000000 0.000000 0.000000
vn -1.000000 -0.000000 0.000000
vn -1.000000 0.000000 0.000000
vn -1.000000 0.000000 0.000000
vn -1.000000 -0.000000 0.000000
vn -1.000000 0.000000 0.000000
vn -1.000000 -0.000000 0.000000
vn -1.000000 -0.000000 0.000000
vn -1.000000 -0.000000 0.000000
vn -1.000000 -0.000000 0.000000
vn -1.000000 -0.000000 0.000000
vn -1.000000 -0.000000 0.000000
vn -1.000000 -0.000000 0.000000
vn -1.000000 -0.000000 0.000000
vn 1.000000 0.000000 0.000000
vn 1.000000 0.000000 0.000000
vn 1.000000 0.000000 0.000000
vn 1.000000 0.000000 0.000000
vn 1.000000 0.000000 0.000000
vn 1.000000 0.000000 0.000000
vn 1.000000 0.000000 0.000000
vn 1.000000 -0.000000 0.000000
vn 1.000000 0.000000 0.000000
vn 1.000000 0.000000 0.000000
vn 1.000000 -0.000000 0.000000
vn 1.000000 0.000000 0.000000
vn 1.000000 0.000000 0.000000
vn 1.000000 -0.000000 0.000000
vn 1.000000 -0.000000 0.000000
vn 1.000000 -0.000000 0.000000
vn 1.000000 0.000000 0.000000
vn 1.000000 -0.000000 0.000000
vn 1.000000 0.000000 0.000000
vn 1.000000 0.000000 0.000000
vn 1.000000 -0.000000 0.000000
vn 1.000000 0.000000 0.000000
vn 1.000000 0.000000 0.000000
vn 1.000000 -0.000000 0.000000
vn 1.000000 -0.000000 0.000000
vn 1.000000 0.000000 0.000000
vn 1.000000 0.000000 0.000000
vn 1.000000 0.000000 0.000000
vn 1.000000 0.000000 0.000000
vn 1.000000 0.000000 0.000000
vn 1.000000 0.000000 0.000000
vn 1.000000 0.000000 0.000000
vn 1.000000 0.000000 0.000000
vn 1.000000 0.000000 0.000000
vn 1.000000 0.000000 0.000000
vn 1.000000 0.000000 0.000000
vn 1.000000 0.000000 0.000000
vn 1.000000 0.000000 0.000000
vn 1.000000 0.000000 0.000000
vn 1.000000 0.000000 0.000000
vn 1.000000 -0.000000 0.000000
vn 1.000000 0.000000 0.000000
vn 1.000000 -0.000000 0.000000
vn 1.000000 -0.000000 0.000000
vn 1.000000 0.000000 0.000000
vn 1.000000 -0.000000 0.000000
vn 1.000000 0.000000 0.000000
vn 1.000000 0.000000 0.000000
vn 1.000000 0.000000 0.000000
vn 1.000000 0.000000 0.000000
vn 1.000000 0.000000 0.000000
vn 1.000000 0.000000 0.000000
vn 1.000000 0.000000 0.000000
vn 1.000000 0.000000 0.000000
vn 1.000000 0.000000 0.000000
vn 1.000000 0.000000 0.000000
vn 1.000000 0.000000 0.000000
vn 1.000000 0.000000 0.000000
vn 1.000000 0.000000 0.000000
vn 1.000000 0.000000 0.000000
vn 0.784729 0.019456 0.619533
vn 0.785610 0.000001 0.618722
vn 0.784541 0.022921 0.619654
vn 0.784541 0.022921 0.619654
vn 0.785610 0.000001 0.618722
vn 0.785609 0.000001 0.618723
vn -0.000003 0.779734 0.626111
vn 0.284855 0.725897 0.626045
vn 0.000004 0.779734 0.626111
vn 0.000004 0.779734 0.626111
vn 0.284855 0.725897 0.626045
vn 0.291077 0.723385 0.626090
vn 0.284855 0.725897 0.626045
vn 0.540961 0.561634 0.626042
vn 0.291077 0.723385 0.626090
vn 0.291077 0.723385 0.626090
vn 0.540961 0.561634 0.626042
vn 0.545742 0.556935 0.626091
vn 0.540961 0.561634 0.626042
vn 0.722415 0.293446 0.626104
vn 0.545742 0.556935 0.626091
vn 0.545742 0.556935 0.626091
vn 0.722415 0.293446 0.626104
vn 0.720379 0.298390 0.626112
vn 0.784729 0.019456 0.619533
vn 0.784541 0.022921 0.619654
vn 0.722415 0.293446 0.626104
vn 0.722415 0.293446 0.626104
vn 0.784541 0.022921 0.619654
vn 0.720379 0.298390 0.626112
vn -0.567367 -0.367996 0.736664
vn -0.593499 -0.335438 0.731601
vn -0.784542 0.022921 0.619652
vn -0.784542 0.022921 0.619652
vn -0.593499 -0.335438 0.731601
vn -0.784731 0.019456 0.619532
vn -0.593499 -0.335438 0.731601
vn -0.567367 -0.367996 0.736664
vn 0.000000 -0.785607 0.618726
vn 0.000000 -0.785607 0.618726
vn -0.567367 -0.367996 0.736664
vn 0.000000 -0.785607 0.618726
vn -0.000003 0.779734 0.626111
vn 0.000004 0.779734 0.626111
vn -0.284857 0.725897 0.626043
vn -0.284857 0.725897 0.626043
vn 0.000004 0.779734 0.626111
vn -0.291071 0.723386 0.626092
vn -0.284857 0.725897 0.626043
vn -0.291071 0.723386 0.626092
vn -0.540958 0.561635 0.626044
vn -0.540958 0.561635 0.626044
vn -0.291071 0.723386 0.626092
vn -0.545743 0.556934 0.626091
vn -0.540958 0.561635 0.626044
vn -0.545743 0.556934 0.626091
vn -0.722414 0.293448 0.626104
vn -0.722414 0.293448 0.626104
vn -0.545743 0.556934 0.626091
vn -0.720380 0.298391 0.626111
vn -0.720380 0.298391 0.626111
vn -0.784542 0.022921 0.619652
vn -0.722414 0.293448 0.626104
vn -0.722414 0.293448 0.626104
vn -0.784542 0.022921 0.619652
vn -0.784731 0.019456 0.619532
vn 0.000001 0.000000 1.000000
vn 0.000001 0.000000 1.000000
vn 0.000001 -0.000000 1.000000
vn 0.000001 0.000000 1.000000
vn 0.000001 0.000000 1.000000
vn 0.000001 -0.000000 1.000000
vn 0.000001 -0.000000 1.000000
vn 0.000001 0.000000 1.000000
vn 0.000001 0.000000 1.000000
vn 0.000001 0.000000 1.000000
vn 0.000002 -0.000002 1.000000
vn 0.000001 0.000000 1.000000
vn 0.000002 -0.000002 1.000000
vn 0.000001 -0.000004 1.000000
vn 0.000001 0.000000 1.000000
vn 0.000001 -0.000004 1.000000
vn -0.000001 0.000009 1.000000
vn 0.000001 0.000000 1.000000
vn -0.000001 0.000009 1.000000
vn 0.000000 0.000004 1.000000
vn 0.000001 0.000000 1.000000
vn 0.000000 0.000004 1.000000
vn -0.000000 0.000007 1.000000
vn 0.000001 0.000000 1.000000
vn -0.000000 0.000007 1.000000
vn -0.000019 0.000016 1.000000
vn 0.000001 0.000000 1.000000
s off
g SM_Desk_04b
f 14/1/1 13/2/2 11/4/3
f 11/4/4 13/2/5 12/3/6
f 2/6/7 20/7/8 3/5/9
f 3/5/10 20/7/11 25/8/12
f 20/7/13 18/9/14 25/8/15
f 25/8/16 18/9/17 23/10/18
f 18/9/19 16/11/20 23/10/21
f 23/10/22 16/11/23 21/12/24
f 16/11/25 12/13/26 21/12/27
f 21/12/28 12/13/29 13/14/30
f 22/15/31 15/16/32 24/18/33
f 24/18/34 15/16/35 17/17/36
f 24/18/37 17/17/38 26/20/39
f 26/20/40 17/17/41 19/19/42
f 26/20/43 19/19/44 4/22/45
f 4/22/46 19/19/47 1/21/48
f 3/23/49 25/24/50 4/26/51
f 4/26/52 25/24/53 26/25/54
f 25/24/55 23/27/56 26/25/57
f 26/25/58 23/27/59 24/28/60
f 23/27/61 21/29/62 24/28/63
f 24/28/64 21/29/65 22/30/66
f 14/31/67 11/32/68 22/15/69
f 22/15/70 11/32/71 15/16/72
f 21/29/73 13/33/74 22/30/75
f 22/30/76 13/33/77 14/34/78
f 10/35/79 35/36/80 70/38/81
f 70/38/82 35/36/83 69/37/84
f 40/39/85 9/40/86 75/42/87
f 75/42/88 9/40/89 77/41/90
f 41/43/91 44/44/92 9/45/93
f 35/46/94 27/47/95 40/49/96
f 40/49/97 27/47/98 36/48/99
f 42/50/100 8/51/101 9/45/102
f 43/52/103 42/50/104 9/45/105
f 44/44/106 43/52/107 9/45/108
f 31/53/109 32/54/110 10/55/111
f 32/54/112 33/56/113 10/55/114
f 33/56/115 34/57/116 10/55/117
f 10/58/118 34/59/119 35/61/120
f 35/61/121 34/59/122 27/60/123
f 37/62/124 36/63/125 30/65/126
f 30/65/127 36/63/128 27/64/129
f 38/66/130 37/62/131 29/67/132
f 29/67/133 37/62/134 30/65/135
f 39/68/136 38/66/137 28/69/138
f 28/69/139 38/66/140 29/67/141
f 7/70/142 39/68/143 5/71/144
f 5/71/145 39/68/146 28/69/147
f 35/72/148 40/73/149 69/75/150
f 69/75/151 40/73/152 75/74/153
f 7/76/154 8/77/155 39/79/156
f 39/79/157 8/77/158 42/78/159
f 42/78/160 43/80/161 39/79/162
f 39/79/163 43/80/164 38/81/165
f 43/80/166 44/82/167 38/81/168
f 38/81/169 44/82/170 37/83/171
f 44/82/172 41/84/173 37/83/174
f 37/83/175 41/84/176 36/85/177
f 9/86/178 40/87/179 41/89/180
f 41/89/181 40/87/182 36/88/183
f 10/55/184 6/90/185 31/53/186
f 1/91/187 19/92/188 6/94/189
f 6/94/190 19/92/191 31/93/192
f 19/92/193 17/95/194 31/93/195
f 31/93/196 17/95/197 32/96/198
f 17/95/199 15/97/200 32/96/201
f 32/96/202 15/97/203 33/98/204
f 11/99/205 34/100/206 15/97/207
f 15/97/208 34/100/209 33/98/210
f 11/101/211 12/102/212 34/104/213
f 34/104/214 12/102/215 27/103/216
f 12/105/217 16/106/218 27/108/219
f 27/108/220 16/106/221 30/107/222
f 16/106/223 18/109/224 30/107/225
f 30/107/226 18/109/227 29/110/228
f 18/109/229 20/111/230 29/110/231
f 29/110/232 20/111/233 28/112/234
f 20/111/235 2/113/236 28/112/237
f 28/112/238 2/113/239 5/114/240
f 48/115/241 45/116/242 47/118/243
f 47/118/244 45/116/245 46/117/246
f 59/119/247 54/120/248 3/5/249
f 3/5/250 54/120/251 2/6/252
f 57/121/253 52/122/254 59/119/255
f 59/119/256 52/122/257 54/120/258
f 55/123/259 50/124/260 57/121/261
f 57/121/262 50/124/263 52/122/264
f 47/125/265 46/126/266 55/123/267
f 55/123/268 46/126/269 50/124/270
f 56/127/271 58/128/272 49/130/273
f 49/130/274 58/128/275 51/129/276
f 58/128/277 60/131/278 51/129/279
f 51/129/280 60/131/281 53/132/282
f 60/131/283 4/22/284 53/132/285
f 53/132/286 4/22/287 1/21/288
f 3/23/289 4/26/290 59/134/291
f 59/134/292 4/26/293 60/133/294
f 59/134/295 60/133/296 57/136/297
f 57/136/298 60/133/299 58/135/300
f 57/136/301 58/135/302 55/138/303
f 55/138/304 58/135/305 56/137/306
f 48/139/307 56/127/308 45/140/309
f 45/140/310 56/127/311 49/130/312
f 55/138/313 56/137/314 47/142/315
f 47/142/316 56/137/317 48/141/318
f 76/143/319 77/144/320 80/145/321
f 69/146/322 75/147/323 61/149/324
f 61/149/325 75/147/326 71/148/327
f 78/150/328 77/144/329 8/51/330
f 79/151/331 77/144/332 78/150/333
f 80/145/334 77/144/335 79/151/336
f 65/152/337 70/153/338 66/154/339
f 66/154/340 70/153/341 67/155/342
f 67/155/343 70/153/344 68/156/345
f 70/157/346 69/158/347 68/160/348
f 68/160/349 69/158/350 61/159/351
f 72/161/352 64/162/353 71/164/354
f 71/164/355 64/162/356 61/163/357
f 73/165/358 63/166/359 72/161/360
f 72/161/361 63/166/362 64/162/363
f 74/167/364 62/168/365 73/165/366
f 73/165/367 62/168/368 63/166/369
f 7/70/370 5/71/371 74/167/372
f 74/167/373 5/71/374 62/168/375
f 7/76/376 74/169/377 8/77/378
f 8/77/379 74/169/380 78/170/381
f 78/170/382 74/169/383 79/172/384
f 79/172/385 74/169/386 73/171/387
f 79/172/388 73/171/389 80/174/390
f 80/174/391 73/171/392 72/173/393
f 80/174/394 72/173/395 76/176/396
f 76/176/397 72/173/398 71/175/399
f 77/177/400 76/178/401 75/180/402
f 75/180/403 76/178/404 71/179/405
f 8/51/406 77/144/407 9/45/408
f 70/153/409 65/152/410 6/90/411
f 10/55/412 70/153/413 6/90/414
f 1/91/415 6/94/416 53/182/417
f 53/182/418 6/94/419 65/181/420
f 53/182/421 65/181/422 51/184/423
f 51/184/424 65/181/425 66/183/426
f 51/184/427 66/183/428 49/186/429
f 49/186/430 66/183/431 67/185/432
f 67/185/433 68/187/434 49/186/435
f 49/186/436 68/187/437 45/188/438
f 45/189/439 68/190/440 46/192/441
f 46/192/442 68/190/443 61/191/444
f 46/193/445 61/194/446 50/196/447
f 50/196/448 61/194/449 64/195/450
f 50/196/451 64/195/452 52/198/453
f 52/198/454 64/195/455 63/197/456
f 52/198/457 63/197/458 54/200/459
f 54/200/460 63/197/461 62/199/462
f 54/200/463 62/199/464 2/113/465
f 2/113/466 62/199/467 5/114/468
f 90/201/469 104/202/470 92/203/471
f 92/203/472 104/202/473 103/204/474
f 95/205/475 84/206/476 93/207/477
f 93/207/478 84/206/479 83/208/480
f 88/209/481 100/210/482 85/211/483
f 85/211/484 100/210/485 97/212/486
f 99/213/487 96/214/488 98/215/489
f 98/215/490 96/214/491 94/216/492
f 91/217/493 101/218/494 89/219/495
f 89/219/496 101/218/497 102/220/498
f 86/221/499 81/222/500 87/223/501
f 87/223/502 81/222/503 82/224/504
f 84/206/505 102/220/506 83/208/507
f 83/208/508 102/220/509 101/218/510
f 87/223/511 88/209/512 86/221/513
f 86/221/514 88/209/515 85/211/516
f 90/201/517 92/203/518 89/219/519
f 89/219/520 92/203/521 91/217/522
f 94/216/523 96/214/524 93/207/525
f 93/207/526 96/214/527 95/205/528
f 97/212/529 100/210/530 98/215/531
f 98/215/532 100/210/533 99/213/534
f 117/225/535 115/226/536 108/227/537
f 108/227/538 115/226/539 107/228/540
f 112/229/541 109/230/542 122/231/543
f 122/231/544 109/230/545 119/232/546
f 121/233/547 120/234/548 118/235/549
f 118/235/550 120/234/551 116/236/552
f 114/237/553 113/238/554 123/239/555
f 123/239/556 113/238/557 124/240/558
f 110/241/559 111/242/560 105/243/561
f 105/243/562 111/242/563 106/244/564
f 108/227/565 107/228/566 124/240/567
f 124/240/568 107/228/569 123/239/570
f 111/242/571 110/241/572 112/229/573
f 112/229/574 110/241/575 109/230/576
f 104/202/577 113/238/578 103/204/579
f 103/204/580 113/238/581 114/237/582
f 116/236/583 115/226/584 118/235/585
f 118/235/586 115/226/587 117/225/588
f 119/232/589 120/234/590 122/231/591
f 122/231/592 120/234/593 121/233/594
f 81/245/595 86/246/596 105/247/597
f 105/247/598 86/246/599 110/248/600
f 86/246/601 85/249/602 110/248/603
f 110/248/604 85/249/605 109/250/606
f 97/251/607 98/252/608 85/249/609
f 98/252/610 94/253/611 85/249/612
f 94/253/613 93/254/614 85/249/615
f 93/254/616 83/255/617 85/249/618
f 85/249/619 83/255/620 109/250/621
f 83/255/622 101/256/623 109/250/624
f 101/256/625 91/257/626 109/250/627
f 91/257/628 92/258/629 109/250/630
f 92/258/631 103/259/632 109/250/633
f 103/259/634 114/260/635 109/250/636
f 114/260/637 123/261/638 109/250/639
f 123/261/640 107/262/641 109/250/642
f 107/262/643 115/263/644 109/250/645
f 115/263/646 116/264/647 109/250/648
f 109/250/649 116/264/650 119/265/651
f 116/264/652 120/266/653 119/265/654
f 106/267/655 111/268/656 82/269/657
f 82/269/658 111/268/659 87/270/660
f 111/268/661 112/271/662 87/270/663
f 87/270/664 112/271/665 88/272/666
f 122/273/667 121/274/668 112/271/669
f 121/274/670 118/275/671 112/271/672
f 118/275/673 117/276/674 112/271/675
f 117/276/676 108/277/677 112/271/678
f 112/271/679 108/277/680 88/272/681
f 108/277/682 124/278/683 88/272/684
f 124/278/685 113/279/686 88/272/687
f 113/279/688 104/280/689 88/272/690
f 104/280/691 90/281/692 88/272/693
f 90/281/694 89/282/695 88/272/696
f 89/282/697 102/283/698 88/272/699
f 102/283/700 84/284/701 88/272/702
f 84/284/703 95/285/704 88/272/705
f 95/285/706 96/286/707 88/272/708
f 88/272/709 96/286/710 100/287/711
f 96/286/712 99/288/713 100/287/714
f 134/289/715 136/290/716 129/291/717
f 129/291/718 136/290/719 135/292/720
f 130/293/721 131/294/722 125/295/723
f 125/295/724 131/294/725 126/296/726
f 131/294/727 132/297/728 126/296/729
f 126/296/730 132/297/731 127/298/732
f 132/297/733 133/299/734 127/298/735
f 127/298/736 133/299/737 128/300/738
f 134/289/739 129/291/740 133/299/741
f 133/299/742 129/291/743 128/300/744
f 145/301/745 146/302/746 140/303/747
f 140/303/748 146/302/749 144/304/750
f 146/302/751 145/301/752 136/305/753
f 136/305/754 145/301/755 135/306/756
f 130/293/757 125/295/758 141/307/759
f 141/307/760 125/295/761 137/308/762
f 141/307/763 137/308/764 142/309/765
f 142/309/766 137/308/767 138/310/768
f 142/309/769 138/310/770 143/311/771
f 143/311/772 138/310/773 139/312/774
f 139/312/775 140/303/776 143/311/777
f 143/311/778 140/303/779 144/304/780
f 146/313/781 136/314/782 144/315/783
f 136/314/784 134/316/785 144/315/786
f 144/315/787 134/316/788 143/317/789
f 134/316/790 133/318/791 143/317/792
f 133/318/793 132/319/794 143/317/795
f 132/319/796 131/320/797 143/317/798
f 131/320/799 130/321/800 143/317/801
f 130/321/802 141/322/803 143/317/804
f 141/322/805 142/323/806 143/317/807
